<?xml version="1.0" encoding="UTF-8" standalone="no"?>
<svg xmlns:ffdec="https://www.free-decompiler.com/flash" xmlns:xlink="http://www.w3.org/1999/xlink" ffdec:objectType="frame" height="123.35px" width="84.65px" xmlns="http://www.w3.org/2000/svg">
  <g transform="matrix(1.0, 0.0, 0.0, 1.0, 46.1, 51.35)">
    <use ffdec:characterId="407" height="96.8" transform="matrix(1.0, 0.0, 0.0, 1.0, -37.55, -41.55)" width="72.25" xlink:href="#shape0"/>
  </g>
  <defs>
    <g id="shape0" transform="matrix(1.0, 0.0, 0.0, 1.0, 37.55, 41.55)">
      <path d="M-4.05 15.8 Q10.8 14.95 14.15 30.4 L13.15 35.75 Q12.35 41.25 13.05 41.95 13.9 42.8 13.65 43.6 13.4 44.4 12.3 44.1 9.85 43.5 9.25 42.65 7.6 40.35 6.95 32.3 6.6 28.2 4.55 29.2 3.3 29.8 -0.2 33.8 -3.9 37.95 -5.9 39.2 -9.1 41.15 -11.1 38.5 -12.35 36.85 -11.05 36.2 L-9.15 35.95 Q-4.8 28.3 -10.1 23.3 -11.85 21.65 -14.4 22.7 L-19.05 25.65 Q-22.0 27.75 -23.7 28.05 -26.25 28.5 -28.15 25.9 -28.65 25.2 -27.65 24.9 L-24.85 24.35 Q-19.85 23.3 -18.2 19.75 -11.45 16.25 -4.05 15.8" fill="#260c0b" fill-rule="evenodd" stroke="none"/>
      <path d="M8.9 -39.3 Q21.6 -34.25 29.95 -18.9 38.15 -3.75 32.15 12.3 29.2 20.35 24.55 25.35 L24.1 30.35 Q23.8 35.65 24.45 37.15 25.65 40.05 27.2 40.65 L28.85 41.05 Q29.15 41.45 29.3 42.9 29.45 44.65 29.05 45.85 27.7 49.45 21.75 45.95 15.15 42.1 12.75 38.0 L10.9 32.9 Q10.65 32.25 10.5 32.9 L9.9 35.8 Q8.35 42.05 4.2 48.35 -1.45 56.85 -10.05 54.85 -13.3 54.1 -15.05 52.2 -16.8 50.25 -15.6 48.75 -13.15 45.7 -10.35 46.15 -8.9 46.4 -8.0 47.2 -6.15 47.8 -4.05 41.55 -2.0 35.2 -3.0 31.7 -3.8 28.9 -8.35 30.95 -12.95 33.0 -13.25 37.3 -13.65 42.2 -18.2 44.3 L-25.35 44.5 Q-27.5 43.35 -26.75 41.45 L-25.6 39.8 Q-24.15 39.85 -23.5 39.25 -22.3 38.1 -24.1 33.7 -25.75 29.75 -23.75 26.9 L-22.0 25.35 -26.35 25.5 Q-30.6 24.95 -34.35 22.85 -38.5 20.5 -37.25 16.25 -36.0 12.0 -31.4 13.1 -29.5 13.55 -29.3 14.85 -29.2 15.55 -29.45 16.1 -21.2 14.8 -20.6 9.3 -20.45 7.55 -21.05 5.6 L-21.7 4.0 Q-28.45 -2.65 -30.0 -10.45 -31.35 -17.4 -28.5 -24.3 -25.9 -30.65 -20.45 -35.2 -15.05 -39.75 -8.9 -40.95 0.25 -42.7 8.9 -39.3" fill="#451613" fill-rule="evenodd" stroke="none"/>
      <path d="M8.35 -35.9 Q20.15 -31.3 27.9 -17.0 35.55 -2.9 30.25 12.3 27.6 19.9 23.4 24.65 L23.05 27.25 Q22.7 30.7 22.75 34.8 22.8 38.8 24.95 40.7 26.05 41.7 27.1 42.25 27.25 44.3 26.7 44.9 25.2 46.35 19.8 42.9 14.75 39.65 12.8 33.75 L11.75 30.1 Q11.25 28.55 10.6 28.4 9.7 28.2 8.8 32.35 7.35 39.1 3.95 45.6 -0.2 53.5 -7.75 53.3 -10.6 53.25 -12.25 51.9 -13.95 50.6 -13.1 49.05 -11.65 46.5 -9.9 47.0 -9.0 47.25 -8.4 48.0 -4.8 47.85 -2.6 41.15 -0.55 34.95 -1.65 31.2 -2.6 27.8 -8.3 29.15 -14.05 30.5 -14.2 34.6 -14.35 38.75 -17.45 41.85 -20.55 44.95 -23.0 43.65 -25.05 42.55 -24.15 41.45 L-22.85 40.6 Q-22.2 40.2 -22.1 39.35 -21.9 37.85 -22.55 33.65 -23.15 29.7 -20.45 26.15 L-18.15 23.8 -23.35 24.15 Q-28.45 23.8 -31.9 21.85 -35.45 19.9 -35.25 17.15 -35.1 14.6 -32.65 14.8 -30.85 15.0 -30.55 16.0 -30.35 16.55 -30.55 17.0 -28.0 17.25 -25.2 16.1 -18.75 13.55 -18.5 8.15 -18.4 6.5 -18.95 4.7 L-19.5 3.3 Q-31.75 -8.8 -26.15 -22.5 -23.8 -28.2 -18.85 -32.3 -13.95 -36.35 -8.2 -37.45 0.3 -39.1 8.35 -35.9" fill="#842c25" fill-rule="evenodd" stroke="none"/>
      <path d="M-12.15 -13.95 Q-12.65 -11.5 -14.25 -10.05 -15.85 -8.55 -17.6 -8.95 -19.3 -9.3 -20.15 -11.3 -21.0 -13.3 -20.5 -15.75 -19.95 -18.2 -18.35 -19.65 -16.75 -21.1 -15.05 -20.7 -13.3 -20.3 -12.45 -18.35 -11.6 -16.4 -12.15 -13.95" fill="#df9b44" fill-rule="evenodd" stroke="none"/>
      <path d="M-5.15 -10.75 Q-5.35 -9.8 -6.0 -9.2 -6.65 -8.6 -7.35 -8.75 -8.05 -8.95 -8.4 -9.75 -8.75 -10.55 -8.55 -11.5 -8.35 -12.5 -7.7 -13.1 -7.05 -13.65 -6.35 -13.5 -5.65 -13.35 -5.3 -12.55 -4.9 -11.75 -5.15 -10.75" fill="#df9b44" fill-rule="evenodd" stroke="none"/>
      <path d="M-7.95 -1.9 Q-8.3 -0.05 -9.55 1.0 -10.8 2.1 -12.15 1.8 -13.5 1.55 -14.2 0.05 -14.85 -1.45 -14.45 -3.3 -14.05 -5.15 -12.85 -6.2 -11.6 -7.3 -10.25 -7.0 -8.9 -6.7 -8.2 -5.2 -7.55 -3.7 -7.95 -1.9" fill="#df9b44" fill-rule="evenodd" stroke="none"/>
      <path d="M9.05 19.5 L10.3 18.6 Q12.5 17.95 17.05 19.0 18.5 19.35 18.1 21.7 L16.8 21.25 Q16.95 19.9 15.6 19.7 L12.4 19.3 Q10.15 19.1 9.75 19.75 L9.05 19.5" fill="#451613" fill-rule="evenodd" stroke="none"/>
      <path d="M-4.6 25.05 Q-1.85 24.9 -1.15 25.8 -0.35 26.8 0.0 29.95 0.45 33.4 0.0 36.9 -1.2 46.4 -7.55 47.85 -4.3 46.9 -2.4 40.55 -0.65 34.65 -1.65 31.2 -2.6 27.8 -8.3 29.15 -14.05 30.5 -14.2 34.6 -14.35 38.55 -17.25 41.65 -20.1 44.7 -22.6 43.8 L-22.6 43.2 -22.45 42.9 Q-21.3 42.5 -20.2 41.2 -17.9 38.55 -17.95 34.05 -18.0 29.15 -10.3 26.3 -7.3 25.2 -4.6 25.05" fill="#60211a" fill-rule="evenodd" stroke="none"/>
      <path d="M-13.85 20.4 L-18.15 23.8 -23.35 24.15 Q-28.45 23.8 -31.9 21.85 -35.45 19.9 -35.25 17.15 -35.1 14.6 -32.65 14.8 -30.85 15.0 -30.55 16.0 -30.35 16.55 -30.55 17.0 -30.6 16.35 -31.0 15.95 -31.75 15.15 -33.4 16.25 -34.3 16.9 -32.8 18.15 -31.25 19.45 -28.3 20.4 -20.55 23.0 -13.85 20.4" fill="#60211a" fill-rule="evenodd" stroke="none"/>
      <path d="M13.7 30.7 Q14.7 32.4 15.75 35.6 17.1 38.65 20.8 41.35 23.15 43.1 24.95 43.45 26.5 43.75 27.15 43.0 27.25 44.8 26.15 45.2 24.4 45.85 19.8 42.9 15.0 39.85 13.05 34.45 11.8 29.45 11.05 28.65 12.3 28.3 13.7 30.7" fill="#60211a" fill-rule="evenodd" stroke="none"/>
      <path d="M15.6 -3.4 Q17.4 -0.25 16.55 3.45 15.75 7.15 12.8 9.25 9.85 11.35 6.5 10.65 3.15 9.9 1.4 6.75 -0.4 3.6 0.4 -0.1 1.25 -3.8 4.15 -5.9 7.1 -8.0 10.45 -7.3 13.8 -6.55 15.6 -3.4" fill="#451613" fill-rule="evenodd" stroke="none"/>
      <path d="M15.0 -2.8 Q16.55 0.0 15.8 3.3 15.1 6.6 12.55 8.45 10.0 10.35 7.05 9.7 4.15 9.05 2.6 6.3 1.05 3.5 1.75 0.2 2.45 -3.1 5.05 -5.0 7.65 -6.9 10.55 -6.25 13.45 -5.6 15.0 -2.8" fill="#842c25" fill-rule="evenodd" stroke="none"/>
      <path d="M14.85 -0.95 Q15.75 0.9 15.25 3.15 14.75 5.4 13.15 6.7 11.55 8.0 9.75 7.6 8.0 7.25 7.1 5.35 6.15 3.5 6.65 1.25 7.15 -0.95 8.75 -2.25 10.35 -3.55 12.15 -3.2 13.9 -2.8 14.85 -0.95" fill="#000000" fill-rule="evenodd" stroke="none"/>
      <path d="M14.15 2.7 L13.8 3.35 Q13.55 3.65 13.3 3.55 L12.9 3.2 12.9 2.4 Q12.95 2.0 13.25 1.75 13.5 1.5 13.75 1.55 L14.15 1.95 14.15 2.7" fill="#ffffff" fill-rule="evenodd" stroke="none"/>
      <path d="M29.2 -1.35 Q31.8 -0.8 33.15 1.85 34.55 4.45 33.85 7.55 33.2 10.65 30.85 12.45 28.55 14.25 25.9 13.7 23.3 13.1 21.95 10.5 20.6 7.9 21.25 4.8 21.95 1.7 24.25 -0.1 26.6 -1.9 29.2 -1.35" fill="#451613" fill-rule="evenodd" stroke="none"/>
      <path d="M29.15 -0.55 Q31.45 -0.05 32.6 2.25 33.8 4.6 33.15 7.4 32.55 10.2 30.5 11.8 28.5 13.45 26.2 12.95 23.9 12.45 22.75 10.1 21.55 7.8 22.15 5.0 22.75 2.2 24.8 0.6 26.85 -1.05 29.15 -0.55" fill="#842c25" fill-rule="evenodd" stroke="none"/>
      <path d="M32.95 7.35 Q32.55 9.2 31.2 10.25 29.85 11.35 28.4 11.0 26.95 10.7 26.2 9.15 25.45 7.65 25.85 5.8 26.25 3.95 27.6 2.9 28.9 1.8 30.35 2.1 31.8 2.45 32.55 4.0 33.35 5.5 32.95 7.35" fill="#000000" fill-rule="evenodd" stroke="none"/>
      <path d="M32.3 6.85 Q32.1 7.7 31.6 7.6 31.05 7.5 31.25 6.6 31.45 5.75 32.0 5.85 32.55 6.05 32.3 6.85" fill="#ffffff" fill-rule="evenodd" stroke="none"/>
    </g>
  </defs>
</svg>
