<?xml version="1.0" encoding="UTF-8" standalone="no"?>
<svg xmlns:ffdec="https://www.free-decompiler.com/flash" xmlns:xlink="http://www.w3.org/1999/xlink" ffdec:objectType="frame" height="123.35px" width="84.65px" xmlns="http://www.w3.org/2000/svg">
  <g transform="matrix(1.0, 0.0, 0.0, 1.0, 46.1, 51.35)">
    <use ffdec:characterId="408" height="110.8" transform="matrix(1.0, 0.0, 0.0, 1.0, -46.1, -46.85)" width="83.4" xlink:href="#shape0"/>
  </g>
  <defs>
    <g id="shape0" transform="matrix(1.0, 0.0, 0.0, 1.0, 46.1, 46.85)">
      <path d="M4.7 30.75 Q3.65 31.9 -0.1 38.05 -3.8 44.05 -5.9 46.1 -9.15 49.3 -11.15 46.65 -12.4 45.05 -11.1 44.4 -10.15 43.9 -9.2 44.1 -8.95 44.15 -8.1 40.8 -7.1 37.05 -6.65 33.5 -5.3 22.95 -9.85 23.65 -11.45 23.9 -14.65 26.8 L-20.75 32.65 Q-28.7 40.1 -31.35 36.9 -32.75 35.2 -31.75 34.0 -31.2 33.35 -28.2 31.5 -20.8 27.05 -17.95 20.1 L-13.65 18.3 Q-8.45 16.45 -3.8 16.15 11.05 15.3 14.4 30.75 L13.0 39.4 Q11.75 48.2 12.45 48.9 13.3 49.75 13.05 50.55 12.8 51.35 11.7 51.05 8.65 50.25 7.15 32.65 6.8 28.55 4.7 30.75" fill="#260c0b" fill-rule="evenodd" stroke="none"/>
      <path d="M17.65 -43.35 Q30.45 -37.35 34.8 -23.7 40.2 -6.75 33.85 11.7 30.65 20.95 26.4 26.75 L25.65 33.35 Q24.85 41.15 24.75 47.3 24.65 50.95 26.8 51.8 L29.35 52.3 Q31.05 54.35 30.3 57.75 29.35 61.7 23.7 59.25 16.8 56.25 13.5 47.15 12.55 44.5 11.8 41.0 L11.1 37.85 Q10.85 37.45 10.5 39.7 L9.55 45.5 Q7.6 55.15 3.45 58.9 -3.85 65.5 -10.75 63.5 -13.4 62.75 -14.65 60.9 -15.9 59.1 -14.95 57.35 -13.4 54.5 -10.45 54.8 -8.95 54.95 -7.8 55.7 -5.75 55.15 -4.0 46.0 -2.4 37.8 -2.75 35.5 -3.7 30.1 -16.2 49.15 -18.75 53.05 -24.0 55.45 -29.25 57.8 -31.95 56.3 -34.55 54.95 -35.0 53.55 -35.4 52.3 -34.25 50.45 -33.5 49.15 -32.05 48.7 L-30.05 48.1 Q-26.25 46.15 -22.75 36.7 -19.3 27.1 -20.6 27.95 -37.6 34.15 -43.5 30.85 -47.35 28.7 -45.55 23.9 -43.8 19.3 -41.0 19.55 -39.05 19.75 -38.15 21.35 -37.7 22.15 -37.65 22.9 -32.0 23.05 -26.1 13.05 L-21.3 3.0 Q-29.45 -16.0 -22.35 -30.75 -19.45 -36.8 -14.4 -40.9 -9.8 -44.7 -4.65 -45.95 6.5 -48.6 17.65 -43.35" fill="#451613" fill-rule="evenodd" stroke="none"/>
      <path d="M16.25 -40.05 Q28.05 -34.15 32.3 -20.45 37.0 -5.15 30.8 11.45 27.7 19.75 23.65 25.0 L23.15 34.05 Q22.75 44.05 23.3 48.85 23.8 52.8 25.7 54.35 L27.45 55.45 Q27.6 57.35 27.1 58.0 25.95 59.55 21.85 57.0 16.75 53.85 13.9 41.05 L12.25 32.6 Q11.5 28.9 10.85 28.75 10.15 28.6 9.85 30.7 L9.25 36.35 Q8.1 46.45 4.55 53.15 0.4 61.05 -7.1 62.05 -9.95 62.4 -11.6 61.45 -13.3 60.5 -12.45 58.95 -11.0 56.35 -9.25 56.85 -8.35 57.15 -7.75 57.9 -4.25 57.75 -2.15 46.25 -0.2 35.65 -1.4 31.55 -2.25 28.65 -7.2 34.0 -11.0 38.1 -14.95 44.25 -17.5 48.15 -22.3 51.65 -27.5 55.45 -29.75 54.2 -31.8 53.15 -30.9 52.05 L-29.6 51.15 Q-28.8 50.7 -27.45 49.05 -25.4 46.6 -23.45 42.85 -21.5 39.2 -19.35 31.3 -17.25 23.7 -17.95 24.15 -20.45 25.7 -27.55 28.05 -37.15 31.2 -40.45 29.3 -44.0 27.35 -43.85 24.6 -43.7 22.05 -41.25 22.25 -39.45 22.45 -39.15 23.45 -38.95 24.0 -39.15 24.45 -36.75 24.75 -33.8 23.55 -27.35 21.0 -22.7 12.05 L-19.3 3.65 Q-26.65 -13.5 -20.1 -27.85 -17.4 -33.7 -12.9 -37.75 -8.6 -41.55 -4.05 -42.65 6.15 -45.1 16.25 -40.05" fill="#842c25" fill-rule="evenodd" stroke="none"/>
      <path d="M-11.9 -13.6 Q-12.45 -11.15 -14.05 -9.7 -15.65 -8.25 -17.35 -8.6 -19.05 -8.95 -19.9 -10.95 -20.75 -12.95 -20.25 -15.4 -19.7 -17.85 -18.1 -19.3 -16.5 -20.75 -14.8 -20.35 -13.05 -19.95 -12.2 -18.0 -11.35 -16.05 -11.9 -13.6" fill="#df9b44" fill-rule="evenodd" stroke="none"/>
      <path d="M-4.9 -10.4 Q-5.1 -9.4 -5.8 -8.85 -6.45 -8.25 -7.15 -8.4 -7.85 -8.6 -8.2 -9.4 -8.55 -10.15 -8.35 -11.15 -8.15 -12.15 -7.45 -12.75 -6.8 -13.3 -6.1 -13.15 -5.4 -13.0 -5.05 -12.2 -4.65 -11.4 -4.9 -10.4" fill="#df9b44" fill-rule="evenodd" stroke="none"/>
      <path d="M-7.7 -1.55 Q-8.1 0.3 -9.35 1.35 -10.6 2.45 -11.95 2.15 -13.3 1.9 -13.95 0.4 -14.65 -1.1 -14.25 -2.95 -13.85 -4.8 -12.6 -5.85 -11.35 -6.95 -10.0 -6.65 -8.65 -6.35 -7.95 -4.85 -7.3 -3.35 -7.7 -1.55" fill="#df9b44" fill-rule="evenodd" stroke="none"/>
      <path d="M9.3 19.85 L10.55 18.95 17.3 19.35 Q17.9 19.5 18.2 20.1 18.55 20.8 18.35 22.05 L17.05 21.6 Q17.2 20.25 15.85 20.05 L12.65 19.65 Q10.4 19.45 10.0 20.1 L9.3 19.85" fill="#451613" fill-rule="evenodd" stroke="none"/>
      <path d="M15.8 -3.05 Q17.6 0.1 16.8 3.8 16.0 7.5 13.05 9.6 10.1 11.7 6.75 11.0 3.4 10.25 1.6 7.1 -0.15 3.95 0.65 0.25 1.45 -3.45 4.4 -5.55 7.3 -7.65 10.65 -6.95 14.0 -6.2 15.8 -3.05" fill="#451613" fill-rule="evenodd" stroke="none"/>
      <path d="M15.2 -2.45 Q16.75 0.35 16.05 3.65 15.35 6.95 12.75 8.8 10.2 10.7 7.25 10.05 4.35 9.4 2.8 6.65 1.25 3.85 2.0 0.55 2.7 -2.75 5.3 -4.65 7.85 -6.55 10.75 -5.9 13.65 -5.25 15.2 -2.45" fill="#842c25" fill-rule="evenodd" stroke="none"/>
      <path d="M15.05 -0.6 Q15.95 1.25 15.45 3.5 14.95 5.75 13.35 7.05 11.75 8.35 10.0 7.95 8.25 7.6 7.35 5.7 6.4 3.85 6.9 1.6 7.4 -0.6 9.0 -1.9 10.6 -3.2 12.35 -2.85 14.15 -2.45 15.05 -0.6" fill="#000000" fill-rule="evenodd" stroke="none"/>
      <path d="M14.4 3.05 Q14.15 4.05 13.55 3.9 L13.15 3.55 13.15 2.75 Q13.2 2.35 13.5 2.1 13.75 1.85 14.0 1.9 14.6 2.05 14.4 3.05" fill="#ffffff" fill-rule="evenodd" stroke="none"/>
      <path d="M29.4 -1.0 Q32.05 -0.45 33.4 2.2 34.75 4.8 34.05 7.9 33.4 11.0 31.05 12.8 28.75 14.6 26.15 14.05 23.5 13.45 22.15 10.85 20.8 8.25 21.45 5.15 22.15 2.05 24.5 0.25 26.8 -1.55 29.4 -1.0" fill="#451613" fill-rule="evenodd" stroke="none"/>
      <path d="M29.35 -0.2 Q31.65 0.3 32.8 2.6 34.0 4.95 33.4 7.75 32.8 10.55 30.75 12.15 28.7 13.8 26.4 13.3 24.15 12.8 23.0 10.45 21.8 8.1 22.4 5.35 23.0 2.55 25.05 0.95 27.1 -0.7 29.35 -0.2" fill="#842c25" fill-rule="evenodd" stroke="none"/>
      <path d="M33.15 7.7 Q32.75 9.55 31.45 10.6 30.1 11.7 28.65 11.35 27.2 11.05 26.45 9.5 25.7 8.0 26.1 6.15 26.5 4.3 27.8 3.25 29.15 2.15 30.6 2.45 32.05 2.8 32.8 4.35 33.55 5.85 33.15 7.7" fill="#000000" fill-rule="evenodd" stroke="none"/>
      <path d="M32.55 7.2 Q32.35 8.05 31.85 7.95 31.3 7.85 31.5 6.95 31.7 6.1 32.2 6.2 32.7 6.35 32.55 7.2" fill="#ffffff" fill-rule="evenodd" stroke="none"/>
      <path d="M-2.15 46.25 Q-0.2 35.65 -1.4 31.55 -2.25 28.65 -7.2 34.0 -11.0 38.1 -14.95 44.25 -17.5 48.15 -22.3 51.65 -27.5 55.45 -29.75 54.2 -31.8 53.05 -30.85 52.0 -28.05 52.9 -25.1 50.9 -20.8 48.05 -16.85 39.5 -11.6 28.05 -5.9 26.2 -3.05 25.25 -1.1 26.7 -0.15 27.3 0.65 31.8 1.5 36.7 1.25 41.9 0.5 56.45 -8.25 59.25 -11.8 60.4 -9.7 62.05 -11.45 61.8 -12.25 60.95 -13.05 60.1 -12.45 58.95 -11.0 56.35 -9.25 56.85 -8.35 57.15 -7.75 57.9 -4.25 57.75 -2.15 46.25" fill="#60211a" fill-rule="evenodd" stroke="none"/>
      <path d="M15.3 37.0 Q16.2 42.65 19.0 48.25 22.65 55.7 27.45 57.1 26.9 60.1 21.85 57.0 16.9 53.95 14.05 41.75 L12.4 33.35 Q11.65 29.45 11.05 28.85 12.2 29.65 13.15 31.05 14.7 33.45 15.3 37.0" fill="#60211a" fill-rule="evenodd" stroke="none"/>
      <path d="M-40.45 29.3 Q-43.2 27.8 -43.75 25.6 -44.2 23.7 -42.85 22.7 -41.1 27.4 -36.5 27.8 -29.55 28.5 -17.45 19.25 L-17.95 24.15 Q-20.45 25.7 -27.55 28.05 -37.15 31.2 -40.45 29.3" fill="#60211a" fill-rule="evenodd" stroke="none"/>
    </g>
  </defs>
</svg>
