<?xml version="1.0" encoding="UTF-8" standalone="no"?>
<svg xmlns:ffdec="https://www.free-decompiler.com/flash" xmlns:xlink="http://www.w3.org/1999/xlink" ffdec:objectType="frame" height="123.35px" width="84.65px" xmlns="http://www.w3.org/2000/svg">
  <g transform="matrix(1.0, 0.0, 0.0, 1.0, 46.1, 51.35)">
    <use ffdec:characterId="409" height="123.35" transform="matrix(1.0, 0.0, 0.0, 1.0, -39.8, -51.35)" width="75.9" xlink:href="#shape0"/>
  </g>
  <defs>
    <g id="shape0" transform="matrix(1.0, 0.0, 0.0, 1.0, 39.8, 51.35)">
      <path d="M-13.5 20.8 Q-8.2 18.5 -3.5 18.05 11.45 16.6 14.4 34.05 L9.3 41.8 Q4.35 49.65 5.05 50.45 5.9 51.4 4.95 52.8 4.0 54.2 2.95 53.65 0.75 52.55 2.55 46.0 L6.2 35.6 Q7.0 33.2 6.85 33.05 6.7 32.85 5.75 34.5 L-0.1 44.4 Q-10.7 61.7 -14.1 56.5 -15.25 54.75 -13.95 54.15 L-12.05 53.6 Q-5.6 46.25 -5.35 34.1 -5.25 29.3 -6.45 27.05 -7.75 24.65 -9.8 26.7 -11.6 28.5 -19.1 42.35 -26.05 54.0 -27.35 48.6 -27.95 46.15 -27.25 45.0 L-24.85 42.5 Q-20.2 37.45 -17.9 23.0 L-13.5 20.8" fill="#260c0b" fill-rule="evenodd" stroke="none"/>
      <path d="M18.95 -47.0 Q30.8 -39.25 34.6 -20.6 38.4 -1.75 32.45 15.25 29.5 23.75 25.75 28.45 L18.75 38.25 Q11.95 49.3 12.9 55.25 13.15 56.7 14.95 60.9 15.95 64.55 12.6 65.25 L9.1 65.05 Q6.2 64.15 5.75 61.0 4.7 53.65 4.9 49.9 5.35 47.55 5.2 47.0 4.85 45.3 2.2 50.9 0.55 54.45 -2.75 62.65 -5.75 70.25 -11.05 71.7 L-14.75 71.6 Q-16.35 70.95 -16.7 69.45 -17.55 65.7 -15.65 62.55 L-13.55 60.15 Q-10.0 59.85 -6.8 51.05 -4.8 45.5 -4.1 41.1 -3.55 37.85 -5.85 42.25 L-11.65 53.1 Q-14.55 58.0 -18.75 61.7 -23.45 65.85 -26.45 65.2 -30.55 64.3 -30.2 61.65 L-29.0 59.2 Q-27.65 58.75 -26.3 57.75 -23.7 55.85 -21.4 51.5 -15.8 40.8 -14.75 36.3 -14.0 33.05 -15.45 34.0 L-17.35 36.5 Q-19.35 39.2 -21.35 41.05 -28.15 47.2 -36.85 45.8 -40.75 45.2 -39.45 40.95 -38.2 36.75 -35.55 36.95 -33.6 37.1 -33.25 37.85 -33.05 38.25 -33.25 38.6 -32.0 38.7 -30.95 37.95 L-29.15 36.05 Q-23.5 28.5 -22.0 16.55 -21.55 12.85 -21.55 9.1 L-21.65 6.15 Q-29.95 -11.95 -22.4 -29.8 -19.2 -37.4 -13.7 -42.9 -8.25 -48.3 -2.1 -50.2 8.85 -53.6 18.95 -47.0" fill="#451613" fill-rule="evenodd" stroke="none"/>
      <path d="M17.55 -42.8 Q28.6 -35.55 32.1 -18.25 35.65 -0.8 30.1 15.0 27.35 22.85 23.9 27.25 L17.2 37.75 Q10.65 49.35 11.5 54.9 L12.5 61.9 Q12.5 62.4 11.35 62.9 10.0 63.5 8.45 61.7 6.7 59.65 6.3 56.15 5.45 49.4 7.65 42.35 9.85 36.8 9.55 36.35 8.6 35.0 5.15 41.7 1.95 47.8 -2.55 59.0 -5.4 66.1 -10.0 68.65 -11.8 69.65 -13.05 69.35 -14.25 69.1 -14.2 67.7 -14.05 64.35 -12.6 62.95 L-11.2 62.25 Q-6.0 61.8 -1.5 35.4 -1.8 32.2 -5.05 37.85 L-11.3 49.4 Q-14.45 54.7 -18.3 58.95 -23.15 64.3 -25.25 63.05 -27.25 61.85 -26.5 59.8 L-25.35 58.0 -23.1 56.15 Q-20.95 53.85 -18.8 49.75 -13.65 39.9 -13.0 32.95 -12.8 30.5 -13.2 29.1 -13.55 27.85 -14.05 28.15 L-15.95 31.35 Q-18.05 34.95 -20.1 37.45 -27.05 45.95 -35.35 44.5 -37.2 44.2 -37.65 41.65 -38.1 39.1 -36.05 39.25 -34.25 39.4 -33.9 40.1 -33.7 40.5 -33.9 40.8 -32.7 40.9 -31.0 40.1 -29.35 39.25 -28.5 38.2 -21.75 29.75 -20.25 16.35 -19.8 12.2 -19.95 8.05 L-20.15 4.7 Q-27.85 -12.0 -20.85 -27.7 -17.85 -34.4 -12.75 -39.25 -7.7 -43.95 -1.95 -45.75 8.2 -48.9 17.55 -42.8" fill="#842c25" fill-rule="evenodd" stroke="none"/>
      <path d="M-10.75 -15.55 Q-11.4 -12.75 -13.05 -11.05 -14.7 -9.3 -16.4 -9.7 -18.1 -10.05 -18.9 -12.3 -19.7 -14.55 -19.1 -17.35 -18.5 -20.1 -16.85 -21.8 -15.2 -23.5 -13.45 -23.15 -11.75 -22.75 -10.95 -20.55 -10.15 -18.35 -10.75 -15.55" fill="#df9b44" fill-rule="evenodd" stroke="none"/>
      <path d="M-3.8 -12.15 Q-4.05 -11.0 -4.7 -10.35 -5.4 -9.65 -6.1 -9.8 -6.8 -9.95 -7.15 -10.85 -7.45 -11.75 -7.25 -12.9 -7.0 -14.0 -6.3 -14.7 -5.6 -15.4 -4.9 -15.25 -4.2 -15.05 -3.9 -14.15 -3.55 -13.25 -3.8 -12.15" fill="#df9b44" fill-rule="evenodd" stroke="none"/>
      <path d="M-6.9 -1.95 Q-7.35 0.1 -8.6 1.4 -9.9 2.65 -11.25 2.35 -12.6 2.05 -13.25 0.4 -13.9 -1.3 -13.4 -3.4 -12.95 -5.5 -11.65 -6.75 -10.4 -8.0 -9.05 -7.7 -7.7 -7.4 -7.05 -5.7 -6.4 -4.05 -6.9 -1.95" fill="#df9b44" fill-rule="evenodd" stroke="none"/>
      <path d="M11.75 -8.65 Q15.1 -7.95 16.85 -4.4 18.55 -0.9 17.6 3.35 16.65 7.6 13.65 10.05 10.65 12.55 7.3 11.8 3.95 11.1 2.25 7.55 0.55 4.05 1.45 -0.2 2.4 -4.45 5.4 -6.9 8.4 -9.4 11.75 -8.65" fill="#451613" fill-rule="evenodd" stroke="none"/>
      <path d="M11.85 -7.45 Q14.75 -6.8 16.2 -3.7 17.7 -0.6 16.85 3.2 16.0 6.95 13.4 9.15 10.75 11.4 7.85 10.75 4.95 10.1 3.45 7.0 2.0 3.9 2.8 0.1 3.65 -3.65 6.3 -5.85 8.95 -8.1 11.85 -7.45" fill="#842c25" fill-rule="evenodd" stroke="none"/>
      <path d="M13.35 -4.05 Q15.1 -3.65 16.0 -1.55 16.85 0.5 16.3 3.05 15.75 5.6 14.1 7.15 12.4 8.7 10.65 8.3 8.9 7.9 8.0 5.8 7.15 3.75 7.7 1.2 8.25 -1.35 9.95 -2.9 11.6 -4.4 13.35 -4.05" fill="#000000" fill-rule="evenodd" stroke="none"/>
      <path d="M15.2 2.6 L14.85 3.35 Q14.6 3.65 14.35 3.6 13.7 3.4 13.95 2.3 14.2 1.1 14.85 1.3 15.5 1.4 15.2 2.6" fill="#ffffff" fill-rule="evenodd" stroke="none"/>
      <path d="M30.45 -2.45 Q33.05 -1.9 34.35 1.05 35.65 3.95 34.9 7.5 34.1 11.05 31.7 13.15 29.35 15.25 26.7 14.7 24.1 14.15 22.8 11.25 21.5 8.3 22.3 4.75 23.05 1.2 25.45 -0.95 27.85 -3.05 30.45 -2.45" fill="#451613" fill-rule="evenodd" stroke="none"/>
      <path d="M34.2 7.35 Q33.55 10.55 31.4 12.45 29.3 14.35 27.0 13.85 24.75 13.35 23.6 10.75 22.5 8.15 23.2 4.95 23.9 1.75 26.0 -0.15 28.1 -2.05 30.4 -1.55 32.7 -1.05 33.8 1.55 34.9 4.15 34.2 7.35" fill="#842c25" fill-rule="evenodd" stroke="none"/>
      <path d="M33.95 7.3 Q33.5 9.4 32.15 10.65 30.8 11.95 29.3 11.6 27.85 11.25 27.15 9.55 26.45 7.85 26.9 5.75 27.35 3.65 28.7 2.4 30.1 1.1 31.55 1.45 33.0 1.75 33.75 3.5 34.45 5.2 33.95 7.3" fill="#000000" fill-rule="evenodd" stroke="none"/>
      <path d="M33.4 6.75 Q33.15 7.75 32.65 7.6 32.1 7.5 32.35 6.5 32.4 6.1 32.65 5.85 32.85 5.6 33.05 5.65 33.6 5.75 33.4 6.75" fill="#ffffff" fill-rule="evenodd" stroke="none"/>
    </g>
  </defs>
</svg>
