<?xml version="1.0" encoding="UTF-8" standalone="no"?>
<svg xmlns:ffdec="https://www.free-decompiler.com/flash" xmlns:xlink="http://www.w3.org/1999/xlink" ffdec:objectType="frame" height="123.35px" width="84.65px" xmlns="http://www.w3.org/2000/svg">
  <g transform="matrix(1.0, 0.0, 0.0, 1.0, 46.1, 51.35)">
    <use ffdec:characterId="410" height="73.5" transform="matrix(1.0, 0.0, 0.0, 1.0, -31.15, -33.0)" width="69.7" xlink:href="#shape0"/>
  </g>
  <defs>
    <g id="shape0" transform="matrix(1.0, 0.0, 0.0, 1.0, 31.15, 33.0)">
      <path d="M16.5 34.9 Q15.7 35.95 14.5 35.65 11.85 35.0 9.4 30.45 7.7 27.3 5.95 27.25 4.7 27.2 2.85 29.05 L-0.45 32.25 Q-2.45 33.75 -4.25 33.15 -6.15 32.5 -6.1 30.85 -6.05 29.2 -4.75 29.6 -3.0 29.1 -3.45 27.75 -3.95 26.1 -7.9 22.6 -8.9 21.7 -10.85 22.4 L-14.65 24.25 Q-20.0 27.05 -22.5 24.4 -23.6 23.2 -23.35 22.75 -23.15 22.45 -21.8 22.05 -17.95 20.95 -16.45 17.95 L-11.9 16.2 Q-6.4 14.4 -1.45 14.1 14.4 13.2 18.5 27.65 L16.95 29.9 Q15.55 32.3 16.35 33.0 17.25 33.85 16.5 34.9" fill="#260c0b" fill-rule="evenodd" stroke="none"/>
      <path d="M-17.3 19.6 L-17.95 19.55 Q-18.55 20.1 -18.6 22.2 L-18.5 22.05 -17.05 20.25 Q-17.0 19.85 -17.3 19.6 M29.2 24.3 L30.75 27.45 Q32.2 30.9 31.85 32.45 31.4 34.3 27.85 35.1 23.1 36.15 21.45 37.3 22.95 39.75 21.15 40.35 19.55 40.85 16.65 39.8 13.7 38.8 12.4 37.2 10.95 35.4 12.95 34.0 L16.6 31.45 Q17.6 30.5 15.9 30.3 12.15 29.85 10.35 33.15 6.65 39.65 -0.15 38.75 -2.9 38.4 -4.3 36.75 -5.8 35.0 -4.85 32.65 -4.2 31.1 -2.1 31.7 -1.05 31.95 -0.15 32.55 1.6 32.7 0.85 30.5 0.3 28.85 -0.6 27.8 -2.65 25.4 -5.3 26.05 -8.0 26.7 -7.0 29.9 -6.05 32.95 -9.45 34.75 -12.7 36.45 -15.55 35.35 -17.95 34.4 -18.4 32.8 L-18.4 31.35 Q-16.65 30.1 -17.65 28.9 -19.35 26.7 -19.5 25.8 L-19.5 25.6 -21.1 26.75 Q-22.9 27.9 -26.35 25.6 -29.85 23.25 -27.3 21.65 L-29.85 18.75 Q-31.0 16.85 -31.15 14.35 -31.3 12.75 -29.5 10.15 -27.9 7.8 -26.6 7.1 -22.95 5.15 -22.45 3.6 L-22.65 2.5 Q-32.85 -8.25 -28.9 -19.65 -27.1 -24.75 -22.65 -28.15 -18.1 -31.7 -11.75 -32.6 -2.15 -33.9 8.95 -30.9 24.2 -26.8 32.05 -15.95 42.05 -2.15 36.65 12.45 33.9 19.75 29.2 24.3" fill="#451613" fill-rule="evenodd" stroke="none"/>
      <path d="M26.8 23.9 L28.3 26.6 Q29.7 29.6 29.4 31.05 28.95 32.9 25.45 34.15 20.45 35.85 19.2 36.75 20.6 38.45 19.6 38.9 18.7 39.3 17.0 38.55 15.2 37.75 14.65 36.55 14.0 35.05 15.8 33.7 18.8 31.5 18.45 30.25 18.1 29.05 14.5 28.55 11.25 28.15 9.85 31.35 7.2 37.45 0.7 37.4 -1.8 37.4 -3.2 36.35 -4.6 35.3 -3.7 33.95 -2.65 32.4 -1.35 33.1 L-0.25 34.15 Q2.5 34.2 2.3 31.55 2.1 29.2 0.25 27.2 -1.8 24.95 -5.35 25.1 -8.95 25.25 -8.05 28.2 -7.3 30.6 -9.85 32.55 -12.3 34.4 -14.45 33.45 -16.65 32.4 -16.1 31.65 L-15.1 31.05 Q-14.3 30.25 -15.7 28.8 -17.5 26.9 -17.7 25.6 -18.05 23.6 -16.35 22.2 L-14.55 20.6 Q-14.55 20.25 -15.5 19.5 -16.5 18.7 -17.5 18.4 -20.3 17.6 -19.4 21.95 L-19.55 22.75 Q-19.8 23.65 -20.6 24.15 -22.3 25.25 -24.6 24.15 -26.9 23.1 -24.5 21.6 L-27.35 18.3 Q-29.0 15.95 -29.15 13.7 -29.25 12.25 -27.35 10.25 -25.85 8.6 -24.4 7.8 -21.0 6.0 -20.05 4.1 L-19.8 2.6 Q-29.45 -7.6 -26.3 -18.25 -23.25 -28.7 -10.9 -30.4 -1.9 -31.65 8.6 -28.85 22.9 -25.0 30.3 -14.8 39.7 -1.85 34.2 12.35 31.45 19.4 26.8 23.9" fill="#842c25" fill-rule="evenodd" stroke="none"/>
      <path d="M-12.45 -13.2 Q-12.95 -10.95 -14.6 -9.65 -16.3 -8.35 -18.15 -8.75 -20.0 -9.15 -20.95 -11.05 -21.9 -12.9 -21.4 -15.15 -20.9 -17.45 -19.25 -18.75 -17.6 -20.05 -15.75 -19.65 -13.9 -19.25 -12.9 -17.35 -11.95 -15.45 -12.45 -13.2" fill="#df9b44" fill-rule="evenodd" stroke="none"/>
      <path d="M-4.85 -10.05 Q-5.05 -9.15 -5.7 -8.6 -6.4 -8.1 -7.2 -8.25 -7.95 -8.45 -8.35 -9.2 -8.75 -9.95 -8.55 -10.85 -8.35 -11.75 -7.65 -12.25 -7.0 -12.8 -6.2 -12.65 -5.45 -12.45 -5.05 -11.7 -4.65 -10.95 -4.85 -10.05" fill="#df9b44" fill-rule="evenodd" stroke="none"/>
      <path d="M-7.55 -1.85 Q-7.9 -0.15 -9.25 0.8 -10.55 1.8 -12.0 1.45 -13.45 1.15 -14.2 -0.3 -14.95 -1.7 -14.6 -3.4 -14.2 -5.1 -12.95 -6.05 -11.65 -7.0 -10.2 -6.7 -8.75 -6.35 -7.95 -4.95 -7.15 -3.55 -7.55 -1.85" fill="#df9b44" fill-rule="evenodd" stroke="none"/>
      <path d="M18.3 19.05 L14.85 18.55 Q12.45 18.3 12.05 18.9 L11.3 18.6 12.6 17.85 Q14.9 17.3 19.85 18.4 L20.8 19.1 Q21.2 19.8 21.05 20.95 L19.6 20.5 19.5 19.85 Q19.2 19.2 18.3 19.05" fill="#451613" fill-rule="evenodd" stroke="none"/>
      <path d="M18.8 3.9 Q18.05 7.3 15.0 9.2 11.9 11.05 8.3 10.25 4.7 9.5 2.7 6.5 0.65 3.5 1.4 0.1 2.15 -3.35 5.25 -5.2 8.3 -7.1 11.9 -6.3 15.5 -5.5 17.55 -2.55 19.55 0.45 18.8 3.9" fill="#451613" fill-rule="evenodd" stroke="none"/>
      <path d="M18.0 3.7 Q17.35 6.75 14.65 8.45 11.95 10.15 8.8 9.45 5.7 8.75 3.95 6.1 2.2 3.45 2.85 0.4 3.55 -2.65 6.2 -4.3 8.9 -6.0 12.05 -5.3 15.15 -4.6 16.9 -2.0 18.7 0.65 18.0 3.7" fill="#842c25" fill-rule="evenodd" stroke="none"/>
      <path d="M17.4 3.6 Q16.95 5.65 15.25 6.8 13.55 7.95 11.65 7.55 9.75 7.15 8.7 5.4 7.7 3.6 8.15 1.55 8.6 -0.5 10.25 -1.7 11.95 -2.85 13.85 -2.45 15.75 -2.0 16.8 -0.25 17.85 1.5 17.4 3.6" fill="#000000" fill-rule="evenodd" stroke="none"/>
      <path d="M16.2 3.1 L15.85 3.75 15.35 3.9 Q14.7 3.75 14.85 2.8 L15.2 2.2 15.75 2.05 16.15 2.4 16.2 3.1" fill="#ffffff" fill-rule="evenodd" stroke="none"/>
      <path d="M37.4 8.25 Q36.75 11.15 34.35 12.75 31.9 14.35 29.1 13.75 26.3 13.1 24.75 10.65 23.2 8.2 23.85 5.3 24.5 2.4 26.9 0.8 29.35 -0.8 32.15 -0.2 34.95 0.45 36.5 2.9 38.05 5.35 37.4 8.25" fill="#451613" fill-rule="evenodd" stroke="none"/>
      <path d="M36.7 8.1 Q36.15 10.7 34.0 12.15 31.85 13.6 29.4 13.05 26.95 12.55 25.6 10.3 24.3 8.1 24.85 5.5 25.4 2.9 27.55 1.45 29.7 0.05 32.15 0.55 34.6 1.1 35.95 3.3 37.25 5.5 36.7 8.1" fill="#842c25" fill-rule="evenodd" stroke="none"/>
      <path d="M36.45 8.05 Q36.1 9.75 34.7 10.7 33.25 11.7 31.7 11.3 30.1 10.95 29.3 9.5 28.45 8.05 28.8 6.35 29.2 4.65 30.55 3.7 31.95 2.75 33.5 3.1 35.1 3.45 35.95 4.9 36.8 6.35 36.45 8.05" fill="#000000" fill-rule="evenodd" stroke="none"/>
      <path d="M35.75 7.55 Q35.6 8.35 35.0 8.25 34.5 8.1 34.65 7.3 34.85 6.5 35.35 6.65 35.95 6.75 35.75 7.55" fill="#ffffff" fill-rule="evenodd" stroke="none"/>
      <path d="M-19.4 21.95 L-19.55 22.75 Q-19.8 23.65 -20.6 24.15 -21.85 24.95 -23.9 24.45 -25.95 23.9 -25.6 22.75 L-23.15 23.1 Q-21.9 22.95 -21.55 22.05 L-21.8 18.55 -17.4 18.45 Q-18.6 18.05 -19.15 18.65 -19.9 19.5 -19.4 21.95" fill="#60211a" fill-rule="evenodd" stroke="none"/>
      <path d="M-5.35 25.1 Q-8.95 25.25 -8.05 28.2 -7.3 30.6 -9.85 32.55 -12.3 34.4 -14.45 33.45 -16.7 32.4 -16.1 31.65 -12.2 33.05 -11.25 30.8 -10.95 30.05 -11.35 28.15 -11.75 26.1 -11.6 25.3 -11.1 22.25 -2.75 23.65 6.15 25.2 5.3 30.65 5.0 32.7 3.35 34.25 1.8 35.85 0.25 35.75 -1.75 35.7 -2.2 36.95 -4.85 35.7 -3.7 33.95 -2.65 32.4 -1.35 33.1 L-0.25 34.15 Q2.5 34.2 2.3 31.55 2.1 29.2 0.25 27.2 -1.8 24.95 -5.35 25.1" fill="#60211a" fill-rule="evenodd" stroke="none"/>
      <path d="M17.1 35.75 Q16.5 36.8 17.4 37.5 18.1 38.0 19.95 38.45 19.8 39.15 18.5 39.0 17.25 38.8 16.05 38.05 12.75 35.95 15.8 33.7 19.3 31.05 18.2 29.8 20.05 30.5 20.05 32.6 20.05 33.85 19.05 34.25 17.65 34.8 17.1 35.75" fill="#60211a" fill-rule="evenodd" stroke="none"/>
    </g>
  </defs>
</svg>
