<?xml version="1.0" encoding="UTF-8" standalone="no"?>
<svg xmlns:ffdec="https://www.free-decompiler.com/flash" xmlns:xlink="http://www.w3.org/1999/xlink" ffdec:objectType="frame" height="103.7px" width="134.95px" xmlns="http://www.w3.org/2000/svg">
  <g transform="matrix(1.0, 0.0, 0.0, 1.0, 67.6, 52.0)">
    <use ffdec:characterId="426" height="51.35" transform="matrix(1.0, 0.0, 0.0, 1.0, -31.55, -17.55)" width="22.3" xlink:href="#shape0"/>
    <use ffdec:characterId="420" height="88.7" transform="matrix(0.8807, 0.0031, 0.0, 0.8799, -59.7063, -28.8277)" width="100.55" xlink:href="#shape1"/>
    <use ffdec:characterId="427" height="60.9" transform="matrix(1.0, 0.0, 0.0, 1.0, -44.05, -19.75)" width="26.45" xlink:href="#shape2"/>
    <use ffdec:characterId="422" height="68.1" transform="matrix(0.8807, 8.0E-4, 0.0, 0.8799, -27.2632, -36.4453)" width="85.25" xlink:href="#shape3"/>
    <use ffdec:characterId="423" height="32.6" transform="matrix(0.8807, -8.0E-4, 0.0, 0.8799, 16.7292, -0.7699)" width="57.5" xlink:href="#shape4"/>
  </g>
  <defs>
    <g id="shape0" transform="matrix(1.0, 0.0, 0.0, 1.0, 31.55, 17.55)">
      <path d="M-11.1 10.85 Q-12.45 12.5 -13.9 17.65 -16.0 24.6 -16.65 33.6 -16.7 34.2 -18.7 32.75 L-22.95 28.8 Q-28.95 22.05 -27.65 16.85 L-28.35 17.6 Q-29.2 18.6 -29.55 19.75 -29.75 20.35 -30.2 18.35 L-30.85 13.45 Q-31.35 5.6 -29.0 2.8 -28.45 2.1 -29.65 2.85 L-31.5 4.1 Q-31.7 4.3 -31.3 2.8 L-29.95 -0.95 Q-27.55 -6.9 -24.45 -10.55 -24.2 -10.85 -24.05 -11.5 -23.85 -12.8 -24.45 -14.6 -24.8 -15.6 -23.65 -16.4 -22.65 -17.1 -20.95 -17.4 L-17.9 -17.35 Q-16.35 -17.05 -16.0 -16.05 L-14.85 -12.8 Q-13.3 -8.8 -11.35 -5.0 -9.15 -0.7 -9.25 4.2 -9.35 8.65 -11.1 10.85" fill="#45464b" fill-rule="evenodd" stroke="none"/>
      <path d="M-11.9 9.7 Q-13.9 12.25 -15.4 15.75 -18.05 22.15 -17.9 29.5 -17.85 30.5 -19.7 28.7 -21.55 26.95 -23.5 24.2 -25.65 21.1 -26.45 18.75 -27.35 15.95 -25.9 15.05 L-26.8 14.95 Q-27.8 14.9 -28.3 15.55 -28.6 15.95 -28.85 14.2 -29.15 12.3 -29.1 9.75 -28.85 2.7 -26.1 -0.7 -25.55 -1.35 -27.35 -0.5 -29.15 0.45 -29.4 0.9 L-28.3 -2.0 Q-26.45 -5.95 -23.75 -9.15 -23.2 -9.5 -22.9 -10.3 -22.2 -11.95 -23.05 -14.25 -23.75 -15.95 -20.95 -16.65 L-18.85 -16.8 Q-17.8 -16.6 -17.55 -16.05 L-15.8 -12.0 -12.0 -3.8 Q-10.05 0.05 -10.2 4.1 -10.35 7.7 -11.9 9.7" fill="#8e8d9c" fill-rule="evenodd" stroke="none"/>
      <path d="M-24.45 16.25 Q-24.25 14.9 -23.35 14.0 L-22.5 13.35 Q-22.7 13.15 -23.9 13.7 L-25.0 14.25 Q-24.45 12.7 -20.6 10.65 -17.3 8.85 -16.1 8.7 -14.0 8.45 -13.75 10.0 -13.45 11.65 -15.85 14.0 -17.9 16.05 -18.6 21.85 -18.95 24.75 -18.9 27.25 -25.15 20.55 -24.45 16.25" fill="#d8d9e2" fill-rule="evenodd" stroke="none"/>
      <path d="M-11.7 3.05 Q-11.55 4.8 -12.15 6.0 -12.8 7.2 -13.9 6.9 -18.1 5.8 -23.4 9.45 -26.0 11.25 -27.8 13.3 -28.5 7.25 -25.85 4.3 -24.55 2.85 -23.05 2.6 L-24.75 2.55 -25.9 2.9 Q-23.3 -0.7 -19.0 -1.55 L-15.2 -1.7 Q-13.6 -1.55 -12.65 -0.05 -11.8 1.25 -11.7 3.05" fill="#d8d9e2" fill-rule="evenodd" stroke="none"/>
      <path d="M-26.9 -1.85 Q-25.1 -5.65 -21.75 -8.4 L-18.3 -10.65 Q-17.6 -11.0 -16.6 -9.8 -15.75 -8.75 -15.05 -7.1 -14.35 -5.45 -14.3 -4.5 -14.3 -3.4 -15.15 -3.85 -17.0 -4.9 -22.15 -3.5 L-26.9 -1.85" fill="#d8d9e2" fill-rule="evenodd" stroke="none"/>
      <path d="M-15.2 -10.55 Q-17.3 -13.5 -19.65 -13.55 -21.3 -13.6 -22.55 -12.45 L-23.05 -14.25 Q-23.7 -16.0 -20.95 -16.65 L-18.85 -16.8 Q-17.8 -16.6 -17.55 -16.05 L-16.75 -14.3 -15.2 -10.55" fill="#636472" fill-rule="evenodd" stroke="none"/>
    </g>
    <g id="shape1" transform="matrix(1.0, 0.0, 0.0, 1.0, 50.25, 44.35)">
      <path d="M-33.3 -27.15 L-30.75 -24.25 Q-39.9 -12.2 -46.05 1.6 -42.35 5.85 -46.3 12.25 -47.35 13.9 -47.9 15.3 L-49.4 11.55 Q-51.8 5.6 -47.3 1.35 -44.7 -13.35 -33.3 -27.15 M-46.85 2.45 Q-39.5 -14.7 -32.65 -23.15 L-33.8 -24.5 Q-42.0 -14.7 -46.85 2.45 -50.65 4.75 -48.15 12.1 -44.0 5.65 -46.85 2.45 M-47.9 15.3 L-47.7 15.75 Q-47.35 16.75 -47.9 15.3" fill="#3d3d54" fill-rule="evenodd" stroke="none"/>
      <path d="M-46.85 2.45 Q-42.0 -14.7 -33.8 -24.5 L-32.65 -23.15 Q-39.5 -14.7 -46.85 2.45" fill="#9293b1" fill-rule="evenodd" stroke="none"/>
      <path d="M-46.85 2.45 Q-44.0 5.65 -48.15 12.1 -50.65 4.75 -46.85 2.45" fill="#525672" fill-rule="evenodd" stroke="none"/>
      <path d="M-26.3 9.35 L8.85 13.8 8.85 13.85 Q0.45 21.9 -0.55 34.5 L-1.55 34.3 -1.6 34.3 Q-3.6 34.75 -3.75 36.9 L-3.95 36.15 Q-4.4 34.95 -5.55 35.05 L-5.65 35.05 Q-8.15 34.95 -8.7 38.25 -11.7 37.95 -14.4 36.35 -17.6 22.9 -26.3 9.35" fill="#6f7691" fill-rule="evenodd" stroke="none"/>
      <path d="M8.85 13.85 L8.75 14.05 Q0.7 23.15 0.45 37.7 L0.3 38.1 0.25 38.1 0.1 38.25 0.0 38.25 -2.95 39.1 -3.05 39.1 -4.2 39.3 -4.35 39.35 -8.2 39.45 -8.25 39.45 Q-11.85 39.15 -15.4 37.5 L-15.6 37.35 -15.7 37.1 Q-18.65 23.25 -26.25 9.75 L-26.3 9.35 Q-17.6 22.9 -14.4 36.35 -11.7 37.95 -8.7 38.25 -8.15 34.95 -5.65 35.05 L-5.55 35.05 Q-4.4 34.95 -3.95 36.15 L-3.75 36.9 Q-3.6 34.75 -1.6 34.3 L-1.55 34.3 -0.55 34.5 Q0.45 21.9 8.85 13.85 M-8.7 38.25 L-3.7 38.1 -0.7 37.3 Q-0.8 36.25 -1.0 35.75 L-1.4 35.45 Q-2.75 35.85 -3.7 38.1 L-4.6 36.95 Q-5.15 36.15 -5.55 36.2 L-5.6 36.2 Q-7.15 36.2 -8.7 38.25" fill="#3d3d54" fill-rule="evenodd" stroke="none"/>
      <path d="M-8.7 38.25 Q-7.15 36.2 -5.6 36.2 L-5.55 36.2 Q-5.15 36.15 -4.6 36.95 L-3.7 38.1 Q-2.75 35.85 -1.4 35.45 L-1.0 35.75 Q-0.8 36.25 -0.7 37.3 L-3.7 38.1 -8.7 38.25" fill="#f0f1f4" fill-rule="evenodd" stroke="none"/>
      <path d="M41.6 5.45 Q41.0 5.55 41.55 5.4 L41.6 5.45 M17.35 10.3 Q23.1 20.05 23.65 32.6 26.5 34.05 29.8 34.1 29.95 32.75 30.55 32.1 31.2 31.1 32.55 31.2 L32.6 31.2 Q33.5 31.2 33.9 32.2 L34.15 33.55 34.25 33.55 Q34.1 32.25 34.45 31.6 34.9 30.5 36.1 30.45 L36.15 30.45 37.25 30.65 Q37.3 21.0 40.55 10.55 37.85 27.15 37.95 31.85 L38.0 33.1 Q29.55 37.55 22.7 33.95 22.0 20.35 17.4 10.6 17.3 10.45 17.35 10.3 M34.25 33.55 L37.2 32.6 Q36.9 31.6 36.2 31.65 35.45 31.65 34.95 32.15 34.45 32.6 34.25 33.55 M29.8 34.1 L33.0 33.8 Q32.3 31.75 31.35 32.5 30.35 33.25 29.8 34.1" fill="#3d3d54" fill-rule="evenodd" stroke="none"/>
      <path d="M41.6 5.45 L41.6 5.85 40.55 10.55 Q37.3 21.0 37.25 30.65 L36.15 30.45 36.1 30.45 Q34.9 30.5 34.45 31.6 34.1 32.25 34.25 33.55 L34.15 33.55 33.9 32.2 Q33.5 31.2 32.6 31.2 L32.55 31.2 Q31.2 31.1 30.55 32.1 29.95 32.75 29.8 34.1 26.5 34.05 23.65 32.6 23.1 20.05 17.35 10.3 L17.35 10.25 18.4 10.1 18.4 10.05 41.55 5.4 Q41.0 5.55 41.6 5.45" fill="#6f7691" fill-rule="evenodd" stroke="none"/>
      <path d="M29.8 34.1 Q30.35 33.25 31.35 32.5 32.3 31.75 33.0 33.8 L29.8 34.1 M34.25 33.55 Q34.45 32.6 34.95 32.15 35.45 31.65 36.2 31.65 36.9 31.6 37.2 32.6 L34.25 33.55" fill="#f0f1f4" fill-rule="evenodd" stroke="none"/>
      <path d="M25.55 -40.5 L21.7 -41.75 Q5.85 -46.6 -13.15 -39.95 -30.0 -34.05 -37.25 -18.35 L-38.95 -14.2 Q-41.1 -3.4 -40.25 5.05 -39.4 13.55 -32.85 20.35 -26.25 27.15 -12.25 27.6 1.75 28.05 17.4 23.8 33.05 19.55 41.2 10.15 48.3 1.95 49.15 -7.55 L49.3 -10.6 Q49.15 -21.85 43.35 -29.4 38.3 -36.05 25.55 -40.5 M26.9 -41.0 L28.1 -40.65 Q37.35 -37.95 43.6 -30.4 50.3 -22.3 50.3 -12.05 L50.3 -11.3 Q50.05 1.5 40.8 11.2 31.25 21.25 13.9 26.05 -1.2 30.3 -14.55 28.6 -27.9 26.9 -34.15 19.45 -40.35 11.95 -41.85 3.35 -43.35 -5.3 -40.05 -14.55 -38.45 -19.1 -36.25 -22.9 -28.9 -35.8 -14.75 -41.05 2.8 -47.65 26.9 -41.0" fill="#3d3d54" fill-rule="evenodd" stroke="none"/>
      <path d="M-37.25 -18.35 Q-30.0 -34.05 -13.15 -39.95 5.85 -46.6 21.7 -41.75 L25.55 -40.5 Q-20.9 -44.8 -37.25 -18.35" fill="#dcdde7" fill-rule="evenodd" stroke="none"/>
      <path d="M25.55 -40.5 Q38.3 -36.05 43.35 -29.4 49.15 -21.85 49.3 -10.6 L49.15 -7.55 Q46.2 -0.45 37.85 5.2 34.5 7.45 27.9 10.75 21.3 14.05 6.8 17.3 -7.7 20.5 -20.15 13.95 -32.6 7.45 -35.6 -1.35 -37.4 -6.8 -37.4 -15.85 L-37.25 -18.35 Q-20.9 -44.8 25.55 -40.5" fill="#a6a6bf" fill-rule="evenodd" stroke="none"/>
      <path d="M49.15 -7.55 Q48.3 1.95 41.2 10.15 33.05 19.55 17.4 23.8 1.75 28.05 -12.25 27.6 -26.25 27.15 -32.85 20.35 -39.4 13.55 -40.25 5.05 -41.1 -3.4 -38.95 -14.2 L-37.25 -18.35 -37.4 -15.85 Q-37.4 -6.8 -35.6 -1.35 -32.6 7.45 -20.15 13.95 -7.7 20.5 6.8 17.3 21.3 14.05 27.9 10.75 34.5 7.45 37.85 5.2 46.2 -0.45 49.15 -7.55" fill="#9293b1" fill-rule="evenodd" stroke="none"/>
      <path d="M-2.25 18.65 L-2.35 18.9 Q-10.4 27.95 -10.65 42.5 L-10.65 42.55 -10.8 42.9 -10.8 42.95 -10.95 43.0 -11.1 43.1 -14.05 43.95 -14.1 43.95 -15.3 44.15 -15.5 44.15 -19.3 44.3 -19.35 44.3 Q-22.9 44.0 -26.45 42.35 L-26.7 42.2 -26.8 41.95 Q-29.75 28.05 -37.35 14.6 L-37.4 14.15 -37.35 14.0 -37.35 14.1 Q-28.05 27.95 -25.35 41.3 -22.75 42.75 -19.75 43.1 -19.25 39.75 -16.7 39.85 L-16.65 39.85 Q-15.5 39.8 -15.0 40.95 L-14.85 41.75 Q-14.7 39.55 -12.7 39.15 L-12.65 39.15 Q-12.05 39.05 -11.65 39.35 -10.65 26.7 -2.25 18.65 M-19.75 43.1 L-15.55 43.0 -16.2 41.2 Q-16.4 40.65 -17.5 40.7 -18.65 40.8 -19.75 43.1 M-12.1 40.55 L-12.5 40.25 Q-13.85 40.7 -14.8 42.9 L-11.8 42.1 -12.1 40.55" fill="#3d3d54" fill-rule="evenodd" stroke="none"/>
      <path d="M-2.25 18.65 Q-10.65 26.7 -11.65 39.35 -12.05 39.05 -12.65 39.15 L-12.7 39.15 Q-14.7 39.55 -14.85 41.75 L-15.0 40.95 Q-15.5 39.8 -16.65 39.85 L-16.7 39.85 Q-19.25 39.75 -19.75 43.1 -22.75 42.75 -25.35 41.3 -28.05 27.95 -37.35 14.1 L-2.25 18.65" fill="#9293b1" fill-rule="evenodd" stroke="none"/>
      <path d="M-19.75 43.1 Q-18.65 40.8 -17.5 40.7 -16.4 40.65 -16.2 41.2 L-15.55 43.0 -19.75 43.1 M-12.1 40.55 L-11.8 42.1 -14.8 42.9 Q-13.85 40.7 -12.5 40.25 L-12.1 40.55" fill="#f0f1f4" fill-rule="evenodd" stroke="none"/>
      <path d="M32.45 13.75 Q32.2 13.7 32.35 13.55 L32.35 13.6 32.45 13.75" fill="#afafc7" fill-rule="evenodd" stroke="none"/>
      <path d="M32.45 13.75 L32.4 14.0 Q29.0 27.8 29.95 41.45 24.95 43.1 21.75 43.4 18.5 43.65 12.7 41.95 12.75 28.45 8.2 18.8 L8.15 18.35 Q13.9 28.25 14.45 40.75 17.3 42.25 20.6 42.25 20.75 40.95 21.3 40.25 22.0 39.3 23.35 39.35 L23.4 39.35 Q24.3 39.35 24.7 40.4 L24.95 41.75 25.05 41.7 Q24.9 40.45 25.25 39.75 25.7 38.7 26.9 38.65 L26.95 38.65 28.05 38.85 Q28.1 27.4 32.45 13.75 M25.05 41.7 L28.0 40.75 Q27.75 39.8 27.1 39.8 26.45 39.8 25.85 40.25 25.2 40.65 25.05 41.7 M20.6 42.25 L24.45 41.85 23.35 40.5 Q22.35 40.5 21.85 40.95 L20.6 42.25" fill="#3d3d54" fill-rule="evenodd" stroke="none"/>
      <path d="M25.05 41.7 Q25.2 40.65 25.85 40.25 26.45 39.8 27.1 39.8 27.75 39.8 28.0 40.75 L25.05 41.7 M20.6 42.25 L21.85 40.95 Q22.35 40.5 23.35 40.5 L24.45 41.85 20.6 42.25" fill="#f0f1f4" fill-rule="evenodd" stroke="none"/>
      <path d="M8.15 18.35 L32.45 13.75 Q28.1 27.4 28.05 38.85 L26.95 38.65 26.9 38.65 Q25.7 38.7 25.25 39.75 24.9 40.45 25.05 41.7 L24.95 41.75 24.7 40.4 Q24.3 39.35 23.4 39.35 L23.35 39.35 Q22.0 39.3 21.3 40.25 20.75 40.95 20.6 42.25 17.3 42.25 14.45 40.75 13.9 28.25 8.15 18.35" fill="#9293b1" fill-rule="evenodd" stroke="none"/>
    </g>
    <g id="shape2" transform="matrix(1.0, 0.0, 0.0, 1.0, 44.05, 19.75)">
      <path d="M-34.7 -18.4 Q-33.5 -19.25 -31.5 -19.6 -29.45 -19.95 -27.8 -19.55 -26.0 -19.15 -25.55 -18.0 L-24.2 -14.15 Q-22.4 -9.4 -20.1 -4.85 -17.5 0.25 -17.6 6.05 -17.7 11.3 -19.75 13.9 -21.35 15.9 -23.15 21.95 -25.55 30.25 -26.4 40.95 -26.45 41.65 -28.85 39.95 -31.35 38.1 -33.85 35.25 -40.95 27.2 -39.35 21.05 L-40.25 22.0 Q-41.25 23.15 -41.65 24.5 -41.9 25.2 -42.4 22.8 L-43.2 17.05 Q-43.8 7.7 -41.0 4.35 -40.35 3.6 -41.75 4.45 L-43.95 5.95 Q-44.25 6.15 -43.75 4.4 L-42.15 -0.05 Q-39.25 -7.15 -35.6 -11.45 -35.3 -11.8 -35.15 -12.55 -34.9 -14.1 -35.6 -16.3 -36.0 -17.45 -34.7 -18.4" fill="#45464b" fill-rule="evenodd" stroke="none"/>
      <path d="M-28.95 -18.85 Q-27.75 -18.65 -27.4 -18.0 L-25.35 -13.15 Q-22.9 -7.5 -20.85 -3.45 -18.5 1.1 -18.7 5.95 -18.85 10.2 -20.75 12.6 -23.1 15.55 -24.9 19.8 -28.05 27.35 -27.8 36.1 -27.8 37.25 -30.0 35.1 -32.15 33.05 -34.45 29.75 -37.05 26.05 -38.0 23.3 -39.1 19.95 -37.35 18.95 L-38.4 18.75 Q-39.6 18.75 -40.15 19.5 -40.55 20.0 -40.85 17.9 -41.2 15.65 -41.1 12.65 -40.8 4.25 -37.6 0.25 -36.95 -0.55 -39.05 0.5 -41.2 1.55 -41.45 2.15 -41.3 1.05 -40.2 -1.3 -38.0 -6.0 -34.8 -9.75 -34.15 -10.2 -33.75 -11.15 -32.95 -13.1 -34.0 -15.8 -34.4 -16.85 -33.55 -17.65 -32.85 -18.35 -31.45 -18.7 L-28.95 -18.85" fill="#8e8d9c" fill-rule="evenodd" stroke="none"/>
      <path d="M-25.7 11.4 Q-23.25 11.1 -22.9 12.9 -22.6 14.9 -25.4 17.7 -27.8 20.1 -28.65 27.0 -29.1 30.4 -29.0 33.4 -36.4 25.4 -35.6 20.35 -35.35 18.75 -34.3 17.65 L-33.3 16.85 Q-33.55 16.65 -34.95 17.3 L-36.25 17.95 Q-35.6 16.1 -31.05 13.7 -27.2 11.6 -25.7 11.4" fill="#d8d9e2" fill-rule="evenodd" stroke="none"/>
      <path d="M-29.1 -0.75 L-24.65 -0.95 Q-22.75 -0.75 -21.6 1.0 -20.6 2.55 -20.45 4.7 -20.3 6.8 -21.05 8.15 -21.8 9.6 -23.05 9.25 -28.1 7.9 -34.35 12.25 -37.5 14.4 -39.6 16.8 -40.45 9.65 -37.25 6.15 -35.7 4.45 -33.95 4.15 L-36.0 4.05 -37.35 4.45 Q-34.25 0.25 -29.1 -0.75" fill="#d8d9e2" fill-rule="evenodd" stroke="none"/>
      <path d="M-38.55 -1.15 Q-36.4 -5.65 -32.4 -8.9 -30.35 -10.6 -28.3 -11.6 -27.45 -12.0 -26.3 -10.6 -25.3 -9.35 -24.45 -7.35 -23.65 -5.4 -23.6 -4.25 -23.55 -2.95 -24.6 -3.55 -26.75 -4.75 -32.85 -3.1 L-38.55 -1.15" fill="#d8d9e2" fill-rule="evenodd" stroke="none"/>
      <path d="M-28.95 -18.85 Q-27.75 -18.65 -27.4 -18.0 L-26.5 -15.9 -24.65 -11.5 Q-27.15 -14.95 -29.95 -15.05 -31.9 -15.1 -33.35 -13.75 L-33.95 -15.85 Q-34.75 -17.9 -31.45 -18.7 L-28.95 -18.85" fill="#636472" fill-rule="evenodd" stroke="none"/>
    </g>
    <g id="shape3" transform="matrix(1.0, 0.0, 0.0, 1.0, 46.0, 34.05)">
      <path d="M10.5 -22.6 Q29.2 -28.85 37.75 -23.35 42.85 -0.45 21.95 16.5 39.7 0.15 34.35 -12.7 28.9 -25.55 10.5 -22.6" fill="#a6a6bf" fill-rule="evenodd" stroke="none"/>
      <path d="M37.75 -23.35 Q29.2 -28.85 10.5 -22.6 L11.15 -22.9 Q22.85 -29.5 37.0 -26.2 L37.75 -23.35" fill="#c4c6d5" fill-rule="evenodd" stroke="none"/>
      <path d="M12.1 8.7 L10.5 -22.6 Q28.9 -25.55 34.35 -12.7 39.7 0.15 21.95 16.5 16.9 15.4 12.5 8.95 L12.2 8.75 12.1 8.7" fill="#9293b1" fill-rule="evenodd" stroke="none"/>
      <path d="M37.75 -23.35 L37.0 -26.2 Q22.85 -29.5 11.15 -22.9 L10.5 -22.6 Q25.3 -31.55 37.75 -27.05 44.35 2.9 22.0 17.55 15.7 15.5 11.75 9.6 L11.65 9.2 Q11.65 9.0 11.8 8.85 L12.1 8.7 12.2 8.75 12.5 8.95 Q16.9 15.4 21.95 16.5 42.85 -0.45 37.75 -23.35" fill="#3d3d54" fill-rule="evenodd" stroke="none"/>
      <path d="M25.55 -21.65 Q30.65 -15.0 32.0 -5.55 33.2 3.15 31.05 11.8 28.9 20.4 24.25 25.85 19.15 31.7 12.8 31.95 4.2 32.25 -2.55 28.15 -9.35 24.0 -13.85 15.55 L-13.85 15.5 Q-21.5 -1.95 -17.4 -21.75 L-17.4 -21.8 Q-15.7 -26.8 -13.05 -29.5 -10.1 -32.5 -6.7 -32.15 -2.45 -31.7 -1.3 -31.1 L1.2 -33.05 Q2.8 -34.2 5.8 -34.0 8.75 -33.8 11.95 -32.45 19.85 -29.15 25.55 -21.65 M11.35 30.8 L12.75 30.8 Q18.65 30.55 23.35 25.1 27.85 19.8 29.35 13.9 30.85 8.0 31.3 -1.7 31.75 -11.4 25.7 -19.25 19.7 -27.15 15.75 -29.5 11.75 -31.9 8.5 -32.65 5.2 -33.4 2.5 -32.0 -0.2 -30.6 -0.4 -29.6 -2.3 -31.1 -6.3 -30.6 -10.3 -30.1 -12.85 -27.2 -15.45 -24.25 -15.8 -22.8 L-16.25 -21.4 -16.3 -21.45 -17.1 -17.0 Q-19.45 -0.15 -12.85 15.0 L-12.8 15.05 Q-8.5 23.2 -1.95 27.2 3.95 30.75 11.35 30.8" fill="#3d3d54" fill-rule="evenodd" stroke="none"/>
      <path d="M-17.1 -17.0 L-16.3 -21.45 -16.25 -21.4 -15.8 -22.8 Q-15.45 -24.25 -12.85 -27.2 -10.3 -30.1 -6.3 -30.6 -2.3 -31.1 -0.4 -29.6 -0.2 -30.6 2.5 -32.0 5.2 -33.4 8.5 -32.65 11.75 -31.9 15.75 -29.5 19.7 -27.15 25.7 -19.25 31.75 -11.4 31.3 -1.7 30.85 8.0 29.35 13.9 27.85 19.8 23.35 25.1 18.65 30.55 12.75 30.8 L11.35 30.8 Q1.45 30.15 -3.45 13.15 -14.9 7.4 -17.1 -17.0" fill="#a6a6bf" fill-rule="evenodd" stroke="none"/>
      <path d="M11.35 30.8 Q3.95 30.75 -1.95 27.2 -8.5 23.2 -12.8 15.05 L-12.85 15.0 Q-19.45 -0.15 -17.1 -17.0 -14.9 7.4 -3.45 13.15 1.45 30.15 11.35 30.8" fill="#9293b1" fill-rule="evenodd" stroke="none"/>
      <path d="M-43.15 -13.3 L-43.05 -12.4 Q-40.85 17.9 -13.75 23.5 -8.0 18.4 -5.7 12.85 L-5.7 12.8 -5.6 12.65 -5.6 12.95 Q-7.9 21.3 -13.75 24.65 -39.8 22.55 -44.15 -12.55 L-46.0 -12.3 -41.25 -16.1 Q-33.75 -22.35 -25.15 -20.45 L-14.4 -18.0 -14.45 -18.0 -15.75 -18.15 -16.45 -18.2 -25.25 -19.15 Q-36.0 -20.35 -43.15 -13.3" fill="#3d3d54" fill-rule="evenodd" stroke="none"/>
      <path d="M-43.05 -12.4 L-43.15 -13.3 Q-32.75 -19.5 -16.45 -18.2 L-15.75 -18.15 -14.45 -18.0 -14.4 -18.0 -5.7 12.8 -5.7 12.85 Q-15.75 15.3 -14.6 1.7 L-23.4 7.15 -16.75 -1.5 -27.45 -1.7 -16.9 -7.8 Q-24.3 -17.7 -43.05 -12.4" fill="#a6a6bf" fill-rule="evenodd" stroke="none"/>
      <path d="M-5.7 12.85 Q-8.0 18.4 -13.75 23.5 -40.85 17.9 -43.05 -12.4 -24.3 -17.7 -16.9 -7.8 L-27.45 -1.7 -16.75 -1.5 -23.4 7.15 -14.6 1.7 Q-15.75 15.3 -5.7 12.85" fill="#9293b1" fill-rule="evenodd" stroke="none"/>
      <path d="M-43.15 -13.3 Q-36.0 -20.35 -25.25 -19.15 L-16.45 -18.2 Q-32.75 -19.5 -43.15 -13.3" fill="#dcdde7" fill-rule="evenodd" stroke="none"/>
      <path d="M9.75 25.0 L5.7 23.6 1.65 32.55 9.75 25.0 M12.0 24.9 L0.6 34.05 4.35 21.8 12.0 24.9" fill="#3d3d54" fill-rule="evenodd" stroke="none"/>
      <path d="M9.75 25.0 L1.65 32.55 5.7 23.6 9.75 25.0" fill="#ffffff" fill-rule="evenodd" stroke="none"/>
      <path d="M4.05 -4.9 L4.55 -4.75 Q8.15 -3.75 9.9 -1.95 L10.3 -1.6 Q10.9 -1.0 11.05 -0.15 11.95 2.05 10.85 5.05 L10.75 5.35 10.05 2.4 Q9.35 2.9 8.45 2.9 7.35 2.9 6.55 2.15 5.8 1.4 5.8 0.3 5.8 -0.85 6.55 -1.6 L7.4 -2.15 Q6.0 -3.75 4.05 -4.9" fill="#000000" fill-rule="evenodd" stroke="none"/>
      <path d="M8.55 1.9 Q8.15 1.9 7.9 1.65 L7.65 1.0 Q7.65 0.65 7.9 0.4 8.15 0.15 8.55 0.15 8.9 0.15 9.15 0.4 L9.4 1.0 9.15 1.65 8.55 1.9" fill="#ffffff" fill-rule="evenodd" stroke="none"/>
      <path d="M26.6 -1.6 Q26.7 -2.3 27.1 -2.8 L27.4 -3.05 Q28.45 -4.5 30.7 -5.3 L31.2 -5.45 Q29.9 -4.55 29.0 -3.25 L29.55 -2.8 Q30.05 -2.15 30.05 -1.25 30.05 -0.35 29.55 0.25 29.05 0.85 28.3 0.85 27.75 0.85 27.3 0.45 L26.8 2.85 26.5 1.55 Q26.15 -0.2 26.6 -1.6" fill="#000000" fill-rule="evenodd" stroke="none"/>
      <path d="M28.8 -0.65 L28.65 -0.15 Q28.5 0.05 28.25 0.05 28.0 0.05 27.85 -0.15 27.65 -0.35 27.65 -0.65 L27.85 -1.15 28.25 -1.35 28.65 -1.15 28.8 -0.65" fill="#ffffff" fill-rule="evenodd" stroke="none"/>
    </g>
    <g id="shape4" transform="matrix(1.0, 0.0, 0.0, 1.0, 28.75, 16.3)">
      <path d="M-19.0 -6.8 Q-17.35 -9.7 -14.3 -10.85 -11.5 -11.9 -8.5 -11.2 -5.45 -10.55 -3.5 -8.5 -1.55 -6.4 -1.25 -3.1 0.0 -2.7 1.35 -1.5 4.75 -1.2 7.25 -3.6 L7.3 -3.6 Q8.55 -4.85 10.95 -9.2 13.3 -13.55 17.25 -15.4 21.2 -17.25 25.15 -15.25 L26.0 -11.4 27.6 -9.55 Q28.9 -8.35 28.7 -7.15 L28.15 -4.7 Q26.1 -5.75 24.05 -5.0 22.65 -4.5 21.2 -3.1 17.75 0.25 16.0 5.65 14.25 11.0 10.35 13.25 6.2 15.55 0.45 16.1 -20.75 18.05 -28.7 -1.35 L-28.6 -1.3 Q-19.9 15.65 0.35 14.95 L0.4 14.95 Q5.8 14.45 9.95 11.6 14.05 8.7 15.9 4.1 17.95 -1.2 20.55 -3.65 21.95 -4.95 23.55 -5.55 24.95 -6.1 26.5 -6.05 L26.55 -6.05 Q27.55 -6.1 27.75 -7.3 28.0 -8.55 26.95 -8.9 25.15 -9.4 24.45 -10.25 23.65 -11.25 24.15 -12.55 L24.25 -14.15 24.0 -14.7 Q23.45 -15.35 21.75 -15.65 19.45 -16.05 15.95 -13.35 12.4 -10.65 10.85 -6.7 9.25 -2.7 4.6 -0.65 L1.05 -0.4 Q0.85 -0.4 -1.15 -1.45 -3.15 -2.45 -5.4 -1.25 L-7.3 -0.15 Q-5.0 -3.35 -2.45 -3.25 -2.75 -5.95 -4.35 -7.7 -6.05 -9.5 -8.75 -10.1 -11.45 -10.7 -15.35 -8.85 -17.9 -7.7 -19.0 -6.8" fill="#3d3d54" fill-rule="evenodd" stroke="none"/>
      <path d="M-19.0 -6.8 Q-17.9 -7.7 -15.35 -8.85 -11.45 -10.7 -8.75 -10.1 -6.05 -9.5 -4.35 -7.7 -2.75 -5.95 -2.45 -3.25 -5.0 -3.35 -7.3 -0.15 L-5.4 -1.25 Q-3.15 -2.45 -1.15 -1.45 0.85 -0.4 1.05 -0.4 L4.6 -0.65 Q9.25 -2.7 10.85 -6.7 12.4 -10.65 15.95 -13.35 19.45 -16.05 21.75 -15.65 23.45 -15.35 24.0 -14.7 18.55 -13.85 21.1 -8.1 16.55 -6.9 13.0 1.25 9.4 9.4 0.6 11.75 -8.1 14.05 -28.6 -1.3 L-28.7 -1.35 -28.75 -1.4 -28.7 -1.4 -19.0 -6.8 M10.9 -3.55 Q14.05 -11.55 20.9 -14.5 14.85 -14.1 9.75 -3.1 5.95 2.2 0.5 0.5 -3.45 -2.0 -5.9 0.95 -2.95 -0.1 0.45 2.2 7.8 4.45 10.9 -3.55 M-12.55 -5.5 L-14.65 -2.1 -11.1 -3.55 -12.0 0.0 Q-9.05 -4.75 -3.95 -4.7 -9.2 -13.2 -17.85 -5.5 L-12.55 -5.5" fill="#a6a6bf" fill-rule="evenodd" stroke="none"/>
      <path d="M24.0 -14.7 L24.25 -14.15 24.15 -12.55 Q23.65 -11.25 24.45 -10.25 25.15 -9.4 26.95 -8.9 28.0 -8.55 27.75 -7.3 27.55 -6.1 26.55 -6.05 L26.5 -6.05 Q24.95 -6.1 23.55 -5.55 21.95 -4.95 20.55 -3.65 17.95 -1.2 15.9 4.1 14.05 8.7 9.95 11.6 5.8 14.45 0.4 14.95 L0.35 14.95 Q-19.9 15.65 -28.6 -1.3 -8.1 14.05 0.6 11.75 9.4 9.4 13.0 1.25 16.55 -6.9 21.1 -8.1 18.55 -13.85 24.0 -14.7 M21.95 -11.15 Q21.55 -9.75 22.3 -8.75 L22.7 -8.3 Q23.25 -7.8 24.0 -7.75 25.1 -7.75 26.1 -8.9 24.35 -9.25 23.75 -10.45 23.15 -11.65 23.65 -13.5 22.35 -12.5 21.95 -11.15" fill="#9293b1" fill-rule="evenodd" stroke="none"/>
      <path d="M21.95 -11.15 Q22.35 -12.5 23.65 -13.5 23.15 -11.65 23.75 -10.45 24.35 -9.25 26.1 -8.9 25.1 -7.75 24.0 -7.75 23.25 -7.8 22.7 -8.3 L22.3 -8.75 Q21.55 -9.75 21.95 -11.15" fill="#232432" fill-rule="evenodd" stroke="none"/>
      <path d="M10.9 -3.55 Q7.8 4.45 0.45 2.2 -2.95 -0.1 -5.9 0.95 -3.45 -2.0 0.5 0.5 5.95 2.2 9.75 -3.1 14.85 -14.1 20.9 -14.5 14.05 -11.55 10.9 -3.55 M-12.55 -5.5 L-17.85 -5.5 Q-9.2 -13.2 -3.95 -4.7 -9.05 -4.75 -12.0 0.0 L-11.1 -3.55 -14.65 -2.1 -12.55 -5.5" fill="#c4c6d5" fill-rule="evenodd" stroke="none"/>
    </g>
  </defs>
</svg>
