<?xml version="1.0" encoding="UTF-8" standalone="no"?>
<svg xmlns:ffdec="https://www.free-decompiler.com/flash" xmlns:xlink="http://www.w3.org/1999/xlink" ffdec:objectType="frame" height="105.85px" width="119.55px" xmlns="http://www.w3.org/2000/svg">
  <g transform="matrix(1.0, 0.0, 0.0, 1.0, 60.8, 52.05)">
    <use ffdec:characterId="392" height="89.6" transform="matrix(1.0, 0.0, 0.0, 1.0, -59.25, -52.05)" width="106.4" xlink:href="#shape0"/>
  </g>
  <defs>
    <g id="shape0" transform="matrix(1.0, 0.0, 0.0, 1.0, 59.25, 52.05)">
      <path d="M47.0 -48.6 Q46.65 -47.35 45.7 -45.65 43.15 -41.1 40.1 -39.85 L41.0 -40.1 Q42.1 -40.45 43.1 -41.15 43.6 -41.55 43.2 -40.3 42.8 -39.0 41.85 -37.4 39.15 -32.85 36.2 -32.5 35.15 -32.35 35.9 -32.2 L37.5 -32.05 Q37.85 -32.1 37.1 -31.15 L34.8 -28.9 Q30.65 -25.4 25.4 -24.1 L24.9 -22.95 Q24.25 -21.15 23.55 -17.85 23.2 -15.95 18.65 -18.25 16.85 -19.1 15.55 -20.2 14.2 -21.35 14.25 -21.95 L15.2 -25.75 Q16.2 -30.4 16.45 -34.4 16.8 -38.9 19.75 -42.8 22.4 -46.25 25.45 -47.1 L34.9 -47.65 Q43.6 -48.1 46.85 -49.6 47.35 -49.85 47.0 -48.6" fill="#595356" fill-rule="evenodd" stroke="none"/>
      <path d="M45.6 -47.55 L43.35 -44.25 Q38.9 -38.9 35.15 -39.0 L37.95 -38.8 Q40.85 -38.65 41.5 -39.35 41.35 -38.1 39.35 -36.15 35.3 -32.05 29.65 -32.0 28.35 -32.0 31.5 -31.65 L34.85 -31.55 Q35.2 -31.7 34.6 -31.05 L32.8 -29.5 Q29.3 -27.05 24.7 -25.9 L23.95 -25.45 Q23.05 -24.45 22.45 -21.45 22.15 -19.75 18.9 -20.8 17.6 -21.2 16.7 -21.85 15.75 -22.6 15.8 -23.15 L16.85 -26.65 Q18.05 -30.9 18.25 -34.5 18.55 -38.6 21.0 -42.1 23.25 -45.3 25.9 -46.05 L35.4 -46.8 Q43.95 -47.4 45.35 -48.35 46.3 -48.95 45.6 -47.55" fill="#a3999e" fill-rule="evenodd" stroke="none"/>
      <path d="M45.0 -47.7 Q40.25 -42.5 36.75 -41.4 L34.85 -41.2 34.2 -41.35 Q34.35 -40.95 35.8 -40.45 L31.1 -40.3 Q28.35 -41.05 27.45 -41.9 26.05 -43.2 26.8 -44.3 27.65 -45.6 31.3 -45.2 35.5 -44.75 40.7 -46.2 43.25 -46.9 45.0 -47.7" fill="#f5e6ee" fill-rule="evenodd" stroke="none"/>
      <path d="M39.25 -38.05 Q37.0 -35.45 33.15 -34.85 L30.75 -34.7 29.75 -34.75 Q30.0 -34.25 31.7 -34.1 L33.35 -34.05 Q31.5 -32.85 27.85 -33.15 L24.5 -33.65 Q22.65 -34.1 22.3 -35.65 21.95 -37.0 22.8 -38.65 23.6 -40.25 24.85 -41.0 L26.95 -40.95 Q28.9 -39.0 34.25 -38.3 L39.25 -38.05" fill="#f5e6ee" fill-rule="evenodd" stroke="none"/>
      <path d="M20.45 -30.4 Q20.55 -31.6 21.1 -32.2 21.7 -32.9 22.6 -32.45 24.05 -31.75 29.0 -31.45 L33.7 -31.25 Q30.3 -28.3 26.2 -27.5 L22.15 -27.25 Q21.25 -27.35 20.75 -28.35 20.35 -29.25 20.45 -30.4" fill="#f5e6ee" fill-rule="evenodd" stroke="none"/>
      <path d="M-55.3 -2.25 L-54.15 -2.4 Q-51.85 -2.7 -48.75 0.2 -47.15 1.65 -46.05 3.15 L-46.7 7.1 Q-47.45 10.7 -47.7 8.95 -48.1 6.65 -49.75 5.5 L-53.85 5.6 Q-55.85 6.8 -57.35 6.05 L-58.45 5.1 Q-60.45 0.7 -57.5 -1.3 -56.6 -1.95 -55.3 -2.25" fill="#6e475b" fill-rule="evenodd" stroke="none"/>
      <path d="M-49.85 0.25 L-47.9 2.35 -48.4 5.15 Q-48.95 7.7 -49.15 6.5 -49.4 4.7 -50.55 3.6 -51.85 2.35 -53.4 3.25 -54.85 4.15 -55.95 4.0 L-56.8 3.75 Q-58.2 0.6 -56.1 -0.85 L-54.5 -1.5 -53.7 -1.6 Q-52.1 -1.8 -49.85 0.25" fill="#ffb5d7" fill-rule="evenodd" stroke="none"/>
      <path d="M38.2 -30.95 Q37.85 -23.0 33.1 -22.25 L30.35 -26.05 Q27.25 -29.85 25.5 -29.9 L27.65 -31.75 Q30.45 -33.7 33.6 -34.2 L34.85 -34.6 Q36.2 -35.25 36.8 -36.6 37.3 -37.75 37.8 -35.75 38.3 -33.75 38.2 -30.95" fill="#6e475b" fill-rule="evenodd" stroke="none"/>
      <path d="M36.55 -32.85 L36.25 -29.6 Q35.4 -24.9 32.35 -24.65 L30.7 -26.95 Q28.75 -29.3 27.45 -29.35 L29.3 -30.8 Q31.6 -32.4 34.05 -32.8 L35.15 -33.15 Q36.3 -33.65 36.5 -34.3 L36.55 -32.85" fill="#ffb5d7" fill-rule="evenodd" stroke="none"/>
      <path d="M-14.15 28.65 Q-11.8 29.85 -7.9 29.95 L-4.5 29.75 -4.65 32.45 Q-4.85 34.7 -5.25 35.2 -6.05 36.15 -10.65 35.8 -15.2 35.45 -15.0 34.6 L-14.4 30.8 -14.15 28.65" fill="#6e475b" fill-rule="evenodd" stroke="none"/>
      <path d="M28.65 16.9 Q36.15 12.3 36.95 10.35 L33.6 20.9 Q29.85 31.85 27.95 33.7 26.9 34.65 24.25 34.75 21.5 34.9 20.35 33.95 19.5 33.25 20.3 28.05 L21.3 21.15 28.65 16.9" fill="#6e475b" fill-rule="evenodd" stroke="none"/>
      <path d="M-12.95 28.75 Q-11.1 29.7 -8.05 29.75 L-5.3 29.65 -5.55 31.75 Q-5.75 33.45 -6.1 33.9 L-9.95 34.3 Q-13.35 34.15 -13.2 33.5 -12.95 32.45 -12.95 30.45 L-12.95 28.75" fill="#e679a1" fill-rule="evenodd" stroke="none"/>
      <path d="M28.0 17.45 Q34.35 13.55 35.05 11.9 L32.2 20.9 Q29.05 30.15 27.4 31.7 26.55 32.5 24.25 32.6 21.95 32.7 21.0 31.95 20.25 31.35 20.95 26.9 L21.8 21.05 28.0 17.45" fill="#e679a1" fill-rule="evenodd" stroke="none"/>
      <path d="M-57.35 1.5 Q-54.35 -0.05 -51.7 0.8 -49.75 1.45 -48.1 3.4 -48.9 8.15 -49.15 6.5 -49.4 4.7 -50.55 3.6 -51.85 2.35 -53.4 3.25 -54.85 4.15 -55.95 4.0 L-56.8 3.75 Q-57.35 2.5 -57.35 1.5" fill="#d984ab" fill-rule="evenodd" stroke="none"/>
      <path d="M13.4 -31.95 Q14.45 -30.3 21.35 -30.7 27.2 -31.1 29.1 -31.8 30.1 -32.2 34.5 -26.25 38.95 -20.25 38.95 -18.25 L40.7 -13.35 Q42.55 -8.35 43.0 -4.15 44.55 9.75 32.15 19.15 L29.75 20.4 Q26.75 21.75 24.0 22.25 20.35 35.05 19.5 35.85 18.85 36.55 15.85 36.8 L10.3 36.25 Q8.2 35.5 7.95 34.25 L8.15 31.8 0.7 33.2 Q-8.25 34.3 -15.6 32.95 -15.75 34.65 -16.05 35.95 -17.25 38.3 -24.0 37.15 L-28.55 35.95 Q-30.5 35.25 -30.4 34.75 L-29.15 29.55 Q-28.95 28.0 -29.1 26.1 -32.35 23.35 -34.3 19.9 -36.6 16.05 -37.55 10.9 -38.45 9.15 -39.4 7.9 L-40.2 7.0 Q-39.45 8.55 -41.2 10.65 -42.65 12.45 -44.1 13.05 -47.3 14.3 -49.55 12.95 L-50.8 11.9 -51.15 11.35 Q-54.3 5.0 -50.1 0.6 -48.8 -0.8 -46.9 -1.8 L-45.25 -2.55 Q-41.25 -3.85 -36.95 -1.35 -35.0 -7.45 -30.25 -11.8 -23.9 -17.6 -13.2 -19.6 L-5.95 -21.65 Q1.45 -23.95 2.45 -25.2 L1.8 -27.1 Q1.15 -29.4 1.35 -31.35 L1.4 -32.95 Q1.25 -34.95 0.6 -36.9 L2.3 -37.0 5.85 -35.8 9.0 -34.85 Q12.35 -33.55 13.4 -31.95" fill="#6e475b" fill-rule="evenodd" stroke="none"/>
      <path d="M20.2 -29.25 Q26.25 -29.35 27.85 -30.0 28.8 -30.3 32.5 -24.85 36.25 -19.35 36.25 -17.45 L38.05 -13.35 Q40.05 -9.2 40.65 -5.55 42.6 6.55 30.75 17.0 L28.15 18.6 Q25.1 20.3 22.5 20.8 19.15 32.85 18.4 33.6 17.65 34.35 15.6 34.75 L11.05 34.5 Q9.2 33.85 9.35 32.25 L10.0 29.5 1.35 31.0 Q-8.9 32.1 -16.8 30.05 -16.8 32.1 -17.35 34.1 -18.45 35.8 -23.05 34.95 L-26.15 34.1 Q-27.5 33.55 -27.4 33.2 -26.6 30.3 -26.8 25.25 -34.9 18.85 -35.55 6.15 -36.0 1.2 -33.25 -4.35 -27.9 -15.4 -12.25 -18.4 L-4.0 -20.8 Q4.5 -23.5 5.45 -24.65 L4.25 -26.2 Q3.1 -28.15 3.3 -30.0 L3.3 -31.45 Q3.1 -33.25 2.25 -35.15 L3.35 -34.75 5.6 -34.1 8.35 -33.3 Q11.35 -32.25 12.3 -30.75 13.3 -29.15 20.2 -29.25" fill="#ffb5d7" fill-rule="evenodd" stroke="none"/>
      <path d="M30.75 17.0 L28.15 18.6 Q25.1 20.3 22.5 20.8 19.15 32.85 18.4 33.6 17.65 34.35 15.6 34.75 L11.05 34.5 Q9.2 33.85 9.35 32.25 L10.0 29.5 1.35 31.0 Q-8.9 32.1 -16.8 30.05 -16.8 32.1 -17.35 34.1 -18.45 35.8 -23.05 34.95 L-26.15 34.1 Q-27.5 33.55 -27.4 33.2 -26.6 30.3 -26.8 25.25 -34.9 18.85 -35.55 6.15 -35.75 3.65 -34.9 0.2 -33.2 -6.7 -27.9 -11.4 -31.0 -6.7 -31.8 0.05 -32.7 7.85 -29.4 12.9 -25.35 19.05 -15.65 19.5 -4.05 20.0 14.6 12.1 13.55 10.35 12.6 7.85 10.75 2.85 11.45 -0.95 13.55 -13.1 40.0 -8.35 44.0 5.3 30.75 17.0" fill="#ff96bc" fill-rule="evenodd" stroke="none"/>
      <path d="M4.3 -31.55 L4.0 -31.85 3.8 -32.1 3.7 -32.95 3.5 -33.45 Q6.25 -32.3 8.95 -30.35 L11.15 -28.6 Q10.65 -27.3 9.25 -26.35 8.1 -25.55 6.65 -25.15 6.5 -25.45 5.35 -26.05 L5.65 -26.25 6.0 -26.55 Q5.1 -28.1 4.3 -31.55" fill="#6e475b" fill-rule="evenodd" stroke="none"/>
      <path d="M9.35 -28.8 L8.35 -27.7 7.1 -27.1 Q6.45 -27.1 5.8 -29.25 L5.25 -31.45 Q6.9 -30.8 8.25 -29.75 L9.35 -28.8" fill="#d16395" fill-rule="evenodd" stroke="none"/>
      <path d="M16.85 31.8 L16.25 34.95 14.65 35.2 15.75 32.45 Q15.75 32.25 16.3 32.0 L16.85 31.8" fill="#6e475b" fill-rule="evenodd" stroke="none"/>
      <path d="M26.95 30.05 L26.45 32.6 25.2 32.8 26.05 30.6 Q26.05 30.4 26.5 30.2 L26.95 30.05" fill="#6e475b" fill-rule="evenodd" stroke="none"/>
      <path d="M-7.25 32.15 L-7.75 34.7 -9.0 34.85 -8.15 32.65 Q-8.15 32.5 -7.7 32.3 L-7.25 32.15" fill="#6e475b" fill-rule="evenodd" stroke="none"/>
      <path d="M-18.8 32.2 L-19.4 35.4 -21.0 35.6 -19.95 32.85 -19.35 32.4 -18.8 32.2" fill="#6e475b" fill-rule="evenodd" stroke="none"/>
      <path d="M-36.95 0.05 L-37.4 1.85 Q-37.85 4.2 -37.85 7.1 -38.7 5.7 -40.55 4.75 -42.8 3.65 -44.7 4.35 -46.65 5.0 -45.95 6.7 -45.6 7.6 -44.85 8.3 L-45.05 6.15 Q-45.05 5.5 -44.0 5.25 -42.75 4.95 -41.7 6.15 -40.65 7.3 -41.85 9.0 -43.05 10.7 -45.05 11.05 -47.45 11.45 -48.95 10.25 L-49.9 8.9 Q-51.5 4.25 -47.9 1.0 -46.75 0.0 -45.25 -0.75 L-43.95 -1.3 -38.85 -1.1 Q-37.65 -0.6 -36.95 0.05" fill="#ffb5d7" fill-rule="evenodd" stroke="none"/>
      <path d="M-37.6 3.0 L-37.85 7.1 Q-38.7 5.7 -40.55 4.75 -42.8 3.65 -44.7 4.35 -46.65 5.0 -45.95 6.7 -45.6 7.6 -44.85 8.3 L-45.05 6.15 Q-45.05 5.5 -44.0 5.25 -42.75 4.95 -41.7 6.15 -40.65 7.3 -41.85 9.0 -43.05 10.7 -45.05 11.05 -47.45 11.45 -48.95 10.25 L-49.9 8.9 -50.15 8.2 Q-48.8 7.55 -48.15 6.45 L-47.75 5.4 Q-46.05 1.6 -42.85 1.4 -40.5 1.25 -37.6 3.0" fill="#d984ab" fill-rule="evenodd" stroke="none"/>
      <path d="M23.75 -16.6 Q33.45 -18.55 40.6 -15.6 L41.6 -14.3 43.85 -10.85 Q46.95 -5.1 46.55 -0.15 46.3 2.8 43.1 5.65 40.1 8.4 35.55 10.2 30.9 12.0 26.4 12.05 21.45 12.15 18.1 10.05 11.05 5.6 10.8 -1.25 10.6 -7.25 15.5 -14.0 L17.8 -14.95 Q20.75 -15.95 23.75 -16.6" fill="#6e475b" fill-rule="evenodd" stroke="none"/>
      <path d="M24.5 -15.9 Q32.95 -17.6 39.15 -15.05 L40.05 -13.9 41.95 -10.9 Q44.7 -5.95 44.3 -1.6 44.1 0.95 41.35 3.45 38.7 5.85 34.75 7.35 30.7 8.95 26.8 9.0 22.5 9.05 19.6 7.25 13.5 3.35 13.3 -2.6 13.1 -7.8 17.35 -13.65 L19.35 -14.45 Q21.9 -15.35 24.5 -15.9" fill="#ff859b" fill-rule="evenodd" stroke="none"/>
      <path d="M25.25 -12.15 L26.75 -6.5 Q27.95 -0.8 26.3 -0.25 24.65 0.35 24.0 -4.95 23.5 -8.95 23.75 -12.0 L25.25 -12.15" fill="#000000" fill-rule="evenodd" stroke="none"/>
      <path d="M33.05 -12.95 L34.55 -13.15 Q35.45 -10.2 35.85 -6.25 36.4 -0.9 34.65 -1.1 32.95 -1.3 32.8 -7.15 L33.05 -12.95" fill="#000000" fill-rule="evenodd" stroke="none"/>
      <path d="M33.7 -20.25 L33.8 -18.5 Q33.8 -16.8 33.05 -16.8 32.25 -16.8 32.1 -17.3 L32.1 -18.15 33.7 -20.25" fill="#000000" fill-rule="evenodd" stroke="none"/>
      <path d="M33.55 -18.55 L33.5 -18.05 33.25 -17.8 33.0 -18.05 32.9 -18.55 33.0 -19.1 33.25 -19.3 33.5 -19.1 33.55 -18.55" fill="#ffffff" fill-rule="evenodd" stroke="none"/>
      <path d="M30.9 -17.4 Q32.1 -18.2 32.55 -20.2 L32.95 -21.35 Q33.55 -22.45 34.5 -22.55 L33.35 -19.3 Q32.9 -18.25 31.8 -17.55 30.65 -16.8 29.8 -17.0 L30.9 -17.4" fill="#6e475b" fill-rule="evenodd" stroke="none"/>
      <path d="M13.3 -20.45 Q14.25 -19.3 16.3 -18.05 16.45 -17.1 16.25 -16.5 16.0 -15.45 14.8 -15.55 13.7 -15.6 13.4 -18.05 L13.3 -20.45" fill="#000000" fill-rule="evenodd" stroke="none"/>
      <path d="M15.75 -17.55 L15.6 -16.85 Q15.45 -16.55 15.2 -16.55 L14.85 -16.85 Q14.7 -17.1 14.7 -17.55 14.7 -17.95 14.85 -18.2 L15.2 -18.5 15.6 -18.2 15.75 -17.55" fill="#ffffff" fill-rule="evenodd" stroke="none"/>
      <path d="M14.45 -19.1 Q13.85 -20.0 12.6 -20.7 L7.05 -20.9 7.75 -21.35 9.8 -21.9 Q13.1 -22.15 16.2 -18.7 L17.95 -17.1 Q20.1 -15.6 22.0 -16.1 21.15 -15.3 19.8 -15.3 17.05 -15.3 14.45 -19.1" fill="#6e475b" fill-rule="evenodd" stroke="none"/>
      <path d="M-17.4 -47.55 L-13.45 -46.85 Q-10.0 -45.55 -7.3 -41.2 -4.25 -36.45 -4.4 -31.2 -4.5 -26.5 -4.0 -21.55 L-3.4 -17.6 Q-3.4 -16.85 -5.1 -15.95 -6.65 -15.1 -8.8 -14.6 -14.2 -13.3 -14.55 -15.55 L-15.4 -19.1 -15.85 -20.2 Q-21.75 -22.3 -26.2 -26.75 -27.75 -28.3 -28.6 -29.6 -29.4 -30.8 -28.95 -30.75 L-27.1 -30.7 Q-26.2 -30.8 -27.4 -31.05 -30.8 -31.85 -33.45 -37.35 -34.4 -39.3 -34.7 -40.85 -35.05 -42.3 -34.5 -41.8 -33.4 -40.9 -32.2 -40.35 L-31.15 -40.0 Q-34.55 -41.75 -37.0 -47.3 -37.95 -49.35 -38.2 -50.85 -38.45 -52.35 -37.9 -52.0 -34.3 -49.9 -24.25 -48.45 L-17.4 -47.55" fill="#595356" fill-rule="evenodd" stroke="none"/>
      <path d="M-14.1 -45.65 Q-11.1 -44.5 -8.8 -40.55 -6.35 -36.3 -6.45 -31.5 -6.55 -27.3 -5.65 -22.25 L-4.8 -18.05 Q-4.8 -17.4 -6.0 -16.7 -7.1 -16.05 -8.65 -15.7 -12.5 -14.85 -12.7 -16.85 -13.05 -20.35 -14.0 -21.65 L-14.6 -22.15 -14.85 -22.2 Q-20.05 -24.0 -23.8 -27.25 L-25.7 -29.2 Q-26.35 -30.05 -25.95 -29.8 L-22.05 -29.6 Q-18.45 -29.65 -19.9 -29.8 -26.4 -30.45 -30.65 -35.6 -32.05 -37.25 -32.7 -38.8 -33.45 -40.35 -32.85 -39.6 -32.15 -38.7 -28.75 -38.55 L-25.5 -38.5 Q-29.85 -38.8 -34.4 -45.45 -36.05 -47.75 -36.7 -49.5 -37.35 -51.25 -36.35 -50.4 -34.8 -49.15 -25.0 -47.5 L-14.1 -45.65" fill="#a3999e" fill-rule="evenodd" stroke="none"/>
      <path d="M-20.7 -39.6 Q-24.55 -38.95 -26.1 -40.25 -24.4 -40.7 -24.2 -41.15 -25.15 -40.65 -27.1 -41.45 -31.0 -43.1 -35.95 -49.6 L-31.15 -47.35 Q-25.35 -45.15 -20.4 -45.25 -16.15 -45.3 -15.3 -43.75 -14.55 -42.35 -16.3 -41.0 -17.4 -40.15 -20.7 -39.6" fill="#f5e6ee" fill-rule="evenodd" stroke="none"/>
      <path d="M-19.7 -33.0 L-23.6 -33.5 Q-28.0 -34.6 -30.35 -37.85 L-28.65 -37.65 -24.55 -37.6 Q-18.25 -37.8 -15.85 -39.9 -14.75 -40.8 -13.35 -39.7 -12.05 -38.7 -11.25 -36.8 -10.45 -34.75 -10.95 -33.25 -11.55 -31.45 -13.75 -31.2 L-17.65 -30.95 Q-21.95 -31.0 -23.95 -32.55 L-22.05 -32.45 Q-20.1 -32.45 -19.7 -33.0" fill="#f5e6ee" fill-rule="evenodd" stroke="none"/>
      <path d="M-16.35 -24.25 Q-21.0 -25.6 -24.65 -29.35 L-19.2 -29.1 -11.7 -29.6 Q-10.6 -30.0 -10.0 -29.15 -9.4 -28.35 -9.45 -27.0 -9.45 -25.65 -10.0 -24.65 -10.65 -23.55 -11.7 -23.55 -14.05 -23.55 -16.35 -24.25" fill="#f5e6ee" fill-rule="evenodd" stroke="none"/>
      <path d="M-6.0 -16.7 Q-7.1 -16.05 -8.65 -15.7 -12.5 -14.85 -12.7 -16.85 L-12.85 -18.05 -9.1 -18.25 Q-6.65 -19.4 -5.85 -23.25 L-4.8 -18.05 Q-4.8 -17.4 -6.0 -16.7" fill="#877f83" fill-rule="evenodd" stroke="none"/>
    </g>
  </defs>
</svg>
