<?xml version="1.0" encoding="UTF-8" standalone="no"?>
<svg xmlns:ffdec="https://www.free-decompiler.com/flash" xmlns:xlink="http://www.w3.org/1999/xlink" ffdec:objectType="frame" height="105.85px" width="119.55px" xmlns="http://www.w3.org/2000/svg">
  <g transform="matrix(1.0, 0.0, 0.0, 1.0, 60.8, 52.05)">
    <use ffdec:characterId="393" height="85.0" transform="matrix(1.0, 0.0, 0.0, 1.0, -60.15, -47.5)" width="118.9" xlink:href="#shape0"/>
  </g>
  <defs>
    <g id="shape0" transform="matrix(1.0, 0.0, 0.0, 1.0, 60.15, 47.5)">
      <path d="M51.0 -28.55 Q46.05 -24.1 42.3 -23.7 41.0 -23.55 42.45 -23.4 L45.0 -23.35 Q45.55 -23.4 44.25 -22.35 42.85 -21.15 40.8 -20.15 34.6 -17.05 28.6 -18.45 L27.45 -18.1 Q26.2 -17.35 25.65 -15.15 25.3 -14.05 23.1 -13.9 L18.45 -14.35 Q15.85 -14.9 13.9 -15.75 11.9 -16.7 11.95 -17.45 L14.1 -19.4 Q16.75 -22.2 18.95 -26.5 22.75 -34.0 26.1 -36.25 27.4 -37.15 29.15 -37.65 L32.5 -38.6 43.85 -40.5 Q54.25 -42.3 58.4 -44.35 59.1 -44.7 58.4 -42.6 57.65 -40.45 56.1 -38.0 51.75 -31.1 46.65 -31.0 L49.5 -31.0 Q52.8 -31.15 54.05 -32.05 54.75 -32.6 53.75 -31.35 L51.0 -28.55" fill="#595356" fill-rule="evenodd" stroke="none"/>
      <path d="M52.85 -35.95 Q48.95 -31.45 44.0 -31.3 L45.65 -30.75 49.75 -30.1 47.05 -27.45 Q44.5 -25.4 40.1 -24.15 38.5 -23.65 39.75 -23.2 40.95 -22.7 42.0 -22.9 40.85 -21.75 36.6 -20.5 L28.65 -20.3 26.9 -20.0 Q24.9 -19.05 23.5 -16.05 22.65 -14.1 18.5 -15.05 16.9 -15.4 15.7 -16.1 14.5 -16.8 14.5 -17.5 L17.0 -20.3 Q19.95 -23.9 22.05 -27.7 25.05 -33.15 27.6 -34.85 28.6 -35.55 30.1 -36.05 L32.95 -36.9 43.4 -38.45 Q52.85 -39.8 55.85 -41.35 55.9 -40.8 55.15 -39.3 54.2 -37.55 52.85 -35.95" fill="#a3999e" fill-rule="evenodd" stroke="none"/>
      <path d="M48.8 -38.0 L53.0 -38.8 Q48.75 -31.7 41.05 -32.0 38.5 -32.1 35.9 -33.05 34.05 -33.7 33.25 -34.25 31.65 -35.45 32.55 -35.95 L37.85 -36.75 48.8 -38.0" fill="#f5e6ee" fill-rule="evenodd" stroke="none"/>
      <path d="M31.25 -33.7 Q33.3 -30.85 40.6 -29.85 L47.45 -29.4 Q41.15 -24.0 33.85 -24.55 31.55 -24.7 29.4 -25.45 L27.75 -26.15 Q25.65 -27.05 25.45 -28.9 25.25 -30.45 26.35 -32.15 27.4 -33.75 28.85 -34.3 30.4 -34.95 31.25 -33.7" fill="#f5e6ee" fill-rule="evenodd" stroke="none"/>
      <path d="M22.35 -25.95 Q22.65 -27.05 23.2 -27.4 23.85 -27.8 24.4 -26.95 25.95 -24.75 32.9 -23.4 L39.55 -22.55 Q33.9 -20.5 28.6 -21.15 26.75 -21.4 23.65 -22.4 22.65 -22.75 22.35 -23.85 22.05 -24.85 22.35 -25.95" fill="#f5e6ee" fill-rule="evenodd" stroke="none"/>
      <path d="M23.8 -16.75 L23.5 -16.05 Q23.2 -13.95 18.85 -14.95 17.1 -15.35 15.85 -16.05 14.5 -16.8 14.5 -17.5 L15.15 -18.15 17.2 -20.5 Q18.4 -17.8 20.4 -17.0 22.25 -16.2 24.1 -17.35 L23.8 -16.75" fill="#877f83" fill-rule="evenodd" stroke="none"/>
      <path d="M-46.9 3.15 L-47.55 7.1 Q-48.35 10.65 -48.6 8.95 -48.95 6.6 -50.6 5.5 L-54.7 5.6 Q-56.7 6.8 -58.2 6.05 L-59.3 5.05 Q-61.35 0.65 -58.35 -1.35 -57.45 -1.95 -56.15 -2.25 L-55.0 -2.45 Q-52.75 -2.7 -49.6 0.2 -48.0 1.65 -46.9 3.15" fill="#6e475b" fill-rule="evenodd" stroke="none"/>
      <path d="M-48.8 2.35 L-49.3 5.15 Q-49.8 7.7 -50.0 6.45 -50.3 4.65 -51.4 3.6 -52.7 2.3 -54.3 3.25 -55.7 4.1 -56.8 4.0 L-57.65 3.7 Q-59.05 0.55 -57.0 -0.85 L-55.4 -1.5 -54.6 -1.65 Q-52.95 -1.8 -50.7 0.25 -49.6 1.25 -48.8 2.35" fill="#ffb5d7" fill-rule="evenodd" stroke="none"/>
      <path d="M37.3 -31.0 Q37.0 -23.0 32.25 -22.3 L29.5 -26.05 Q26.4 -29.9 24.65 -29.9 L26.8 -31.75 Q29.6 -33.7 32.75 -34.25 L34.0 -34.6 Q35.35 -35.3 35.95 -36.6 36.4 -37.75 36.9 -35.75 37.4 -33.75 37.3 -31.0" fill="#6e475b" fill-rule="evenodd" stroke="none"/>
      <path d="M35.4 -29.65 Q34.5 -24.95 31.5 -24.65 L29.85 -27.0 Q27.9 -29.35 26.55 -29.35 L28.4 -30.85 Q30.75 -32.4 33.2 -32.8 L34.3 -33.2 Q35.45 -33.7 35.65 -34.3 35.8 -32.0 35.4 -29.65" fill="#ffb5d7" fill-rule="evenodd" stroke="none"/>
      <path d="M-15.0 28.6 Q-12.7 29.8 -8.8 29.9 L-5.4 29.75 -5.5 32.45 Q-5.7 34.65 -6.1 35.15 -6.9 36.15 -11.5 35.8 -16.1 35.45 -15.9 34.55 L-15.25 30.75 -15.0 28.6" fill="#6e475b" fill-rule="evenodd" stroke="none"/>
      <path d="M20.45 21.15 L27.75 16.9 Q35.25 12.25 36.1 10.35 L32.75 20.9 Q29.0 31.85 27.05 33.7 26.05 34.65 23.35 34.75 20.6 34.85 19.5 33.95 18.65 33.25 19.45 28.05 L20.45 21.15" fill="#6e475b" fill-rule="evenodd" stroke="none"/>
      <path d="M-13.85 28.7 Q-12.0 29.65 -8.9 29.75 L-6.15 29.6 -6.4 31.7 Q-6.65 33.45 -6.95 33.85 -7.45 34.45 -10.85 34.3 -14.2 34.15 -14.05 33.5 -13.8 32.4 -13.8 30.45 L-13.85 28.7" fill="#e679a1" fill-rule="evenodd" stroke="none"/>
      <path d="M20.9 21.05 L27.1 17.45 Q33.5 13.55 34.2 11.9 L31.35 20.85 Q28.15 30.1 26.5 31.65 25.65 32.45 23.4 32.6 21.05 32.65 20.1 31.9 19.4 31.3 20.1 26.9 L20.9 21.05" fill="#e679a1" fill-rule="evenodd" stroke="none"/>
      <path d="M-58.2 1.5 Q-55.2 -0.05 -52.6 0.8 -50.6 1.45 -48.95 3.4 -49.8 7.95 -50.0 6.45 -50.3 4.65 -51.4 3.6 -52.7 2.3 -54.3 3.25 -55.7 4.1 -56.8 4.0 L-57.65 3.7 Q-58.2 2.4 -58.2 1.5" fill="#d984ab" fill-rule="evenodd" stroke="none"/>
      <path d="M12.5 -32.0 Q13.55 -30.3 20.5 -30.75 26.35 -31.1 28.2 -31.85 29.25 -32.2 33.65 -26.25 38.05 -20.3 38.05 -18.25 L39.8 -13.4 Q41.65 -8.4 42.15 -4.2 43.65 9.75 31.3 19.15 L28.85 20.35 Q25.9 21.7 23.15 22.2 19.45 35.05 18.65 35.85 17.95 36.55 14.95 36.8 11.7 37.0 9.45 36.2 7.35 35.5 7.1 34.25 L7.3 31.75 -0.2 33.15 Q-9.1 34.3 -16.5 32.95 L-16.9 35.9 Q-18.1 38.25 -24.85 37.1 L-29.4 35.95 Q-31.35 35.2 -31.25 34.75 L-30.0 29.55 Q-29.8 28.0 -29.95 26.1 -33.2 23.3 -35.15 19.9 -37.45 16.0 -38.4 10.85 -39.3 9.1 -40.3 7.85 L-41.05 6.95 Q-40.3 8.5 -42.05 10.65 -43.5 12.45 -45.0 13.05 -48.15 14.3 -50.4 12.95 L-51.65 11.85 -52.05 11.3 Q-55.2 5.0 -51.0 0.55 -49.65 -0.8 -47.75 -1.85 L-46.1 -2.55 Q-42.1 -3.85 -37.8 -1.35 -35.85 -7.5 -31.1 -11.85 -24.75 -17.6 -14.05 -19.65 L-6.85 -21.7 Q0.55 -24.0 1.6 -25.2 L0.9 -27.1 Q0.3 -29.4 0.5 -31.35 L0.55 -33.0 Q0.4 -35.0 -0.25 -36.9 L1.45 -37.0 5.0 -35.8 8.15 -34.85 Q11.5 -33.6 12.5 -32.0" fill="#6e475b" fill-rule="evenodd" stroke="none"/>
      <path d="M19.3 -29.3 L27.0 -30.0 Q27.95 -30.35 31.65 -24.85 35.35 -19.4 35.35 -17.5 L37.2 -13.35 Q39.2 -9.2 39.8 -5.6 41.75 6.5 29.9 17.0 L27.3 18.6 Q24.2 20.3 21.65 20.75 18.3 32.85 17.55 33.6 16.8 34.3 14.75 34.75 L10.2 34.5 Q8.3 33.85 8.5 32.2 L9.15 29.45 Q5.6 30.4 0.5 31.0 -9.8 32.05 -17.65 30.05 -17.65 32.05 -18.25 34.1 -19.3 35.8 -23.95 34.95 L-27.0 34.1 Q-28.35 33.55 -28.25 33.15 -27.45 30.25 -27.7 25.25 -35.7 18.85 -36.45 6.15 -36.85 1.2 -34.15 -4.35 -28.75 -15.45 -13.1 -18.4 L-4.85 -20.85 Q3.6 -23.5 4.6 -24.65 L3.4 -26.25 Q2.25 -28.2 2.45 -30.0 L2.4 -31.45 Q2.25 -33.25 1.35 -35.15 L2.5 -34.75 4.7 -34.1 7.5 -33.35 Q10.5 -32.25 11.45 -30.75 12.45 -29.15 19.3 -29.3" fill="#ffb5d7" fill-rule="evenodd" stroke="none"/>
      <path d="M29.9 17.0 L27.3 18.6 Q24.2 20.3 21.65 20.75 18.3 32.85 17.55 33.6 16.8 34.3 14.75 34.75 L10.2 34.5 Q8.3 33.85 8.5 32.2 L9.15 29.45 Q5.6 30.4 0.5 31.0 -9.8 32.05 -17.65 30.05 -17.65 32.05 -18.25 34.1 -19.3 35.8 -23.95 34.95 L-27.0 34.1 Q-28.35 33.55 -28.25 33.15 -27.45 30.25 -27.7 25.25 -35.7 18.85 -36.45 6.15 -36.65 3.6 -35.8 0.2 -34.1 -6.7 -28.75 -11.4 -31.85 -6.7 -32.65 0.0 -33.6 7.8 -30.25 12.9 -26.2 19.05 -16.5 19.5 -4.9 19.95 13.7 12.1 12.65 10.35 11.75 7.85 9.9 2.8 10.55 -0.95 12.7 -13.1 39.15 -8.4 43.1 5.3 29.9 17.0" fill="#ff96bc" fill-rule="evenodd" stroke="none"/>
      <path d="M2.8 -32.95 L2.6 -33.45 Q5.35 -32.3 8.1 -30.4 L10.25 -28.65 Q9.8 -27.35 8.4 -26.35 7.25 -25.55 5.75 -25.2 L4.45 -26.05 4.8 -26.25 5.15 -26.55 Q4.25 -28.15 3.45 -31.55 L3.15 -31.85 2.95 -32.1 2.8 -32.95" fill="#6e475b" fill-rule="evenodd" stroke="none"/>
      <path d="M8.45 -28.85 Q7.95 -28.1 7.45 -27.7 L6.25 -27.1 Q5.6 -27.1 4.9 -29.3 L4.4 -31.45 Q6.0 -30.8 7.4 -29.75 L8.45 -28.85" fill="#d16395" fill-rule="evenodd" stroke="none"/>
      <path d="M16.0 31.75 L15.4 34.95 13.8 35.2 14.85 32.45 15.45 31.95 16.0 31.75" fill="#6e475b" fill-rule="evenodd" stroke="none"/>
      <path d="M26.05 30.05 L25.6 32.6 24.3 32.75 25.15 30.6 Q25.15 30.4 25.65 30.2 L26.05 30.05" fill="#6e475b" fill-rule="evenodd" stroke="none"/>
      <path d="M-8.15 32.1 L-8.6 34.65 -9.85 34.85 -9.0 32.65 -8.55 32.25 -8.15 32.1" fill="#6e475b" fill-rule="evenodd" stroke="none"/>
      <path d="M-19.7 32.2 L-20.3 35.35 -21.9 35.6 -20.8 32.85 -20.25 32.4 -19.7 32.2" fill="#6e475b" fill-rule="evenodd" stroke="none"/>
      <path d="M-37.8 0.05 L-38.25 1.85 Q-38.7 4.2 -38.7 7.05 -39.55 5.65 -41.45 4.75 -43.65 3.6 -45.6 4.3 -47.5 5.0 -46.8 6.7 L-45.75 8.3 -45.9 6.15 Q-45.9 5.5 -44.85 5.25 -43.6 4.95 -42.55 6.15 -41.55 7.25 -42.75 8.95 -43.95 10.65 -45.9 11.05 -48.35 11.45 -49.8 10.2 L-50.8 8.9 Q-52.4 4.25 -48.75 0.95 -47.65 -0.05 -46.1 -0.8 L-44.85 -1.35 -39.7 -1.1 Q-38.5 -0.6 -37.8 0.05" fill="#ffb5d7" fill-rule="evenodd" stroke="none"/>
      <path d="M-38.45 3.0 L-38.7 7.05 Q-39.55 5.65 -41.45 4.75 -43.65 3.6 -45.6 4.3 -47.5 5.0 -46.8 6.7 L-45.75 8.3 -45.9 6.15 Q-45.9 5.5 -44.85 5.25 -43.6 4.95 -42.55 6.15 -41.55 7.25 -42.75 8.95 -43.95 10.65 -45.9 11.05 -48.35 11.45 -49.8 10.2 L-50.8 8.9 -51.0 8.15 Q-49.65 7.55 -49.0 6.4 L-48.65 5.4 Q-46.9 1.55 -43.7 1.35 -41.35 1.25 -38.45 3.0" fill="#d984ab" fill-rule="evenodd" stroke="none"/>
      <path d="M22.9 -16.6 Q32.6 -18.55 39.7 -15.6 L40.75 -14.3 43.0 -10.85 Q46.1 -5.15 45.7 -0.15 45.45 2.8 42.25 5.65 39.25 8.4 34.7 10.15 30.0 11.95 25.5 12.05 20.55 12.1 17.25 10.0 10.2 5.55 9.95 -1.3 9.7 -7.3 14.6 -14.05 L16.95 -14.95 Q19.85 -15.95 22.9 -16.6" fill="#6e475b" fill-rule="evenodd" stroke="none"/>
      <path d="M23.65 -15.9 Q32.05 -17.6 38.25 -15.05 L39.15 -13.95 41.1 -10.95 Q43.8 -5.95 43.45 -1.65 43.2 0.95 40.5 3.4 37.85 5.8 33.9 7.35 29.85 8.9 25.95 8.95 21.65 9.05 18.75 7.2 12.65 3.35 12.4 -2.6 12.25 -7.8 16.45 -13.7 L18.45 -14.5 23.65 -15.9" fill="#ff859b" fill-rule="evenodd" stroke="none"/>
      <path d="M24.4 -12.15 L25.9 -6.55 Q27.1 -0.85 25.45 -0.25 23.8 0.3 23.15 -5.0 22.65 -8.95 22.85 -12.0 L24.4 -12.15" fill="#000000" fill-rule="evenodd" stroke="none"/>
      <path d="M32.2 -12.95 L33.7 -13.15 Q34.6 -10.2 35.0 -6.25 35.55 -0.9 33.8 -1.15 32.05 -1.35 31.95 -7.15 L32.2 -12.95" fill="#000000" fill-rule="evenodd" stroke="none"/>
      <path d="M32.8 -20.3 L32.95 -18.55 Q32.95 -16.8 32.2 -16.8 31.4 -16.8 31.2 -17.35 L31.25 -18.2 32.8 -20.3" fill="#000000" fill-rule="evenodd" stroke="none"/>
      <path d="M32.7 -18.6 L32.6 -18.05 32.35 -17.8 Q32.05 -17.8 32.05 -18.6 32.05 -19.3 32.35 -19.3 L32.6 -19.1 32.7 -18.6" fill="#ffffff" fill-rule="evenodd" stroke="none"/>
      <path d="M30.05 -17.4 Q31.25 -18.25 31.65 -20.25 L32.05 -21.35 Q32.65 -22.5 33.6 -22.55 L32.45 -19.3 Q32.05 -18.3 30.9 -17.6 29.8 -16.85 28.95 -17.0 L30.05 -17.4" fill="#6e475b" fill-rule="evenodd" stroke="none"/>
      <path d="M12.45 -20.45 Q13.4 -19.3 15.45 -18.05 15.85 -15.45 13.95 -15.55 12.8 -15.6 12.5 -18.05 L12.45 -20.45" fill="#000000" fill-rule="evenodd" stroke="none"/>
      <path d="M14.85 -17.55 L14.7 -16.85 14.35 -16.6 14.0 -16.85 Q13.85 -17.15 13.85 -17.55 L14.0 -18.25 14.35 -18.5 14.7 -18.25 14.85 -17.55" fill="#ffffff" fill-rule="evenodd" stroke="none"/>
      <path d="M13.6 -19.1 Q13.0 -20.0 11.75 -20.7 L6.15 -20.9 6.9 -21.35 8.9 -21.9 Q12.25 -22.15 15.35 -18.75 L17.1 -17.15 Q19.25 -15.6 21.15 -16.1 20.3 -15.35 18.9 -15.35 16.2 -15.3 13.6 -19.1" fill="#6e475b" fill-rule="evenodd" stroke="none"/>
      <path d="M-23.9 -39.9 L-20.55 -38.75 Q-18.8 -38.05 -17.5 -37.05 -14.25 -34.4 -10.7 -26.1 -8.65 -21.3 -6.15 -18.1 L-4.05 -15.9 Q-4.05 -15.05 -6.15 -14.15 -8.15 -13.3 -10.8 -12.8 -17.55 -11.6 -18.05 -14.05 -18.55 -16.45 -19.8 -17.35 L-20.95 -17.75 Q-27.05 -16.6 -33.2 -20.3 L-36.6 -22.9 Q-37.95 -24.2 -37.35 -23.9 L-34.65 -23.6 Q-34.1 -23.75 -34.05 -23.9 -33.95 -24.05 -34.6 -24.2 -38.4 -24.8 -43.25 -29.95 L-45.9 -33.1 Q-46.85 -34.45 -46.1 -33.85 -44.9 -32.8 -41.55 -32.45 L-38.45 -32.35 Q-43.75 -32.55 -47.95 -40.4 -49.4 -43.15 -50.05 -45.55 -50.65 -47.85 -49.95 -47.45 -45.8 -45.0 -35.35 -42.55 L-23.9 -39.9" fill="#595356" fill-rule="evenodd" stroke="none"/>
      <path d="M-21.55 -37.0 Q-20.1 -36.4 -19.1 -35.6 -16.6 -33.6 -13.8 -27.55 -11.85 -23.3 -9.05 -19.25 L-6.65 -16.05 Q-6.65 -15.3 -7.95 -14.6 -9.15 -13.9 -10.85 -13.55 -15.1 -12.75 -15.9 -14.9 -17.15 -18.25 -19.1 -19.35 L-20.4 -19.8 -20.9 -19.8 Q-23.8 -18.45 -28.95 -20.4 -33.2 -21.95 -34.35 -23.25 -33.25 -23.0 -32.05 -23.5 -30.75 -23.95 -32.35 -24.55 -36.75 -26.15 -39.3 -28.5 L-41.85 -31.5 -37.7 -32.05 -35.95 -32.55 Q-40.95 -33.0 -44.7 -38.05 -46.05 -39.85 -46.9 -41.75 -47.6 -43.45 -47.5 -44.05 -44.55 -42.2 -35.0 -40.25 L-24.45 -38.05 -21.55 -37.0" fill="#a3999e" fill-rule="evenodd" stroke="none"/>
      <path d="M-32.9 -33.15 Q-40.8 -33.2 -44.75 -41.15 L-40.5 -40.05 Q-35.15 -38.85 -29.4 -38.15 -25.0 -37.6 -24.1 -37.0 -23.2 -36.4 -24.9 -35.2 -25.7 -34.65 -27.6 -34.0 -30.3 -33.15 -32.9 -33.15" fill="#f5e6ee" fill-rule="evenodd" stroke="none"/>
      <path d="M-19.7 -26.15 Q-22.2 -24.8 -25.95 -24.7 -33.45 -24.45 -39.55 -30.65 L-37.45 -30.6 -32.55 -30.8 Q-25.1 -31.5 -22.85 -34.5 -21.9 -35.8 -20.35 -35.05 -18.95 -34.4 -17.95 -32.6 -16.9 -30.7 -17.2 -29.0 -17.55 -27.0 -19.7 -26.15" fill="#f5e6ee" fill-rule="evenodd" stroke="none"/>
      <path d="M-14.2 -25.65 Q-13.95 -24.4 -14.3 -23.4 -14.7 -22.15 -15.7 -21.85 -18.9 -20.9 -20.8 -20.7 -26.2 -20.3 -31.85 -22.75 L-25.05 -23.4 Q-17.9 -24.5 -16.25 -26.85 -15.65 -27.75 -15.0 -27.25 -14.45 -26.85 -14.2 -25.65" fill="#f5e6ee" fill-rule="evenodd" stroke="none"/>
      <path d="M-9.2 -19.45 L-6.65 -16.05 Q-6.65 -15.3 -8.05 -14.55 -9.4 -13.85 -11.15 -13.5 -15.7 -12.65 -15.9 -14.9 L-16.15 -15.65 -16.4 -16.4 Q-14.6 -15.0 -12.65 -15.75 -10.6 -16.55 -9.2 -19.45" fill="#877f83" fill-rule="evenodd" stroke="none"/>
    </g>
  </defs>
</svg>
