<?xml version="1.0" encoding="UTF-8" standalone="no"?>
<svg xmlns:ffdec="https://www.free-decompiler.com/flash" xmlns:xlink="http://www.w3.org/1999/xlink" ffdec:objectType="frame" height="105.85px" width="119.55px" xmlns="http://www.w3.org/2000/svg">
  <g transform="matrix(1.0, 0.0, 0.0, 1.0, 60.8, 52.05)">
    <use ffdec:characterId="394" height="90.7" transform="matrix(1.0, 0.0, 0.0, 1.0, -60.35, -36.9)" width="105.9" xlink:href="#shape0"/>
  </g>
  <defs>
    <g id="shape0" transform="matrix(1.0, 0.0, 0.0, 1.0, 60.35, 36.9)">
      <path d="M13.75 19.35 Q12.25 21.25 10.6 27.05 8.25 35.0 7.45 45.2 7.4 45.9 5.15 44.25 2.7 42.5 0.3 39.75 -6.5 32.1 -5.0 26.15 L-5.85 27.05 Q-6.75 28.2 -7.15 29.45 -7.4 30.15 -7.9 27.85 L-8.6 22.35 Q-9.2 13.4 -6.55 10.2 -5.9 9.45 -7.3 10.3 L-9.35 11.7 Q-9.6 11.95 -9.15 10.25 L-7.65 5.95 Q-4.85 -0.85 -1.35 -4.95 -1.1 -5.3 -0.95 -6.0 -0.7 -7.5 -1.35 -9.55 -1.75 -10.7 -0.5 -11.6 0.65 -12.4 2.6 -12.75 4.5 -13.05 6.1 -12.7 7.8 -12.35 8.25 -11.25 L9.55 -7.55 Q11.25 -3.0 13.5 1.35 16.0 6.25 15.85 11.8 15.75 16.9 13.75 19.35" fill="#595356" fill-rule="evenodd" stroke="none"/>
      <path d="M12.85 18.05 Q10.6 20.95 8.9 24.95 5.85 32.2 6.1 40.6 6.1 41.65 4.0 39.65 1.95 37.65 -0.3 34.55 -2.75 31.0 -3.65 28.35 -4.7 25.15 -3.0 24.15 L-4.05 24.0 Q-5.2 24.0 -5.7 24.7 -6.1 25.15 -6.4 23.15 -6.7 21.0 -6.65 18.1 -6.35 10.1 -3.25 6.25 -2.65 5.5 -4.65 6.5 -6.7 7.5 -6.95 8.05 -6.8 7.0 -5.75 4.75 -3.65 0.25 -0.55 -3.35 0.05 -3.75 0.4 -4.7 1.2 -6.55 0.2 -9.15 -0.6 -11.15 2.6 -11.9 L5.0 -12.05 Q6.15 -11.85 6.5 -11.25 L8.45 -6.6 Q10.8 -1.15 12.75 2.7 15.0 7.1 14.8 11.7 14.65 15.8 12.85 18.05" fill="#a3999e" fill-rule="evenodd" stroke="none"/>
      <path d="M-1.35 25.5 Q-1.15 24.0 -0.1 22.95 L0.85 22.2 Q0.6 21.95 -0.7 22.6 L-2.0 23.25 Q-1.4 21.45 3.0 19.15 6.7 17.1 8.1 16.95 10.45 16.65 10.8 18.4 11.1 20.3 8.35 22.95 6.1 25.25 5.25 31.85 4.85 35.15 4.9 38.0 -2.15 30.35 -1.35 25.5" fill="#f5e6ee" fill-rule="evenodd" stroke="none"/>
      <path d="M13.1 10.5 Q13.25 12.5 12.6 13.8 11.85 15.25 10.6 14.9 5.8 13.6 -0.15 17.75 -3.15 19.8 -5.2 22.1 -6.0 15.25 -2.95 11.95 -1.45 10.3 0.2 10.0 L-1.75 9.9 -3.05 10.3 Q-0.05 6.25 4.85 5.25 L9.15 5.1 Q10.95 5.25 12.05 6.95 13.0 8.45 13.1 10.5" fill="#f5e6ee" fill-rule="evenodd" stroke="none"/>
      <path d="M-4.15 4.9 Q-2.1 0.6 1.7 -2.5 3.75 -4.2 5.65 -5.1 6.4 -5.45 7.5 -4.1 8.5 -2.95 9.3 -1.05 10.1 0.8 10.15 1.95 10.15 3.2 9.15 2.65 7.1 1.45 1.25 3.05 L-4.15 4.9" fill="#f5e6ee" fill-rule="evenodd" stroke="none"/>
      <path d="M9.1 -4.95 Q6.7 -8.3 4.05 -8.4 2.15 -8.45 0.75 -7.15 L0.2 -9.15 Q-0.55 -11.15 2.6 -11.9 L5.0 -12.05 Q6.15 -11.85 6.5 -11.25 L7.35 -9.2 9.1 -4.95" fill="#877f83" fill-rule="evenodd" stroke="none"/>
      <path d="M-50.8 5.95 Q-52.65 4.7 -54.9 6.0 -56.9 7.2 -58.4 6.5 L-59.5 5.5 Q-61.55 1.1 -58.55 -0.9 -57.65 -1.5 -56.35 -1.85 L-55.2 -2.0 Q-52.95 -2.3 -49.8 0.6 -48.2 2.05 -47.1 3.55 L-47.75 7.5 Q-48.55 11.1 -48.8 9.35 -49.15 7.05 -50.8 5.95" fill="#6e475b" fill-rule="evenodd" stroke="none"/>
      <path d="M-55.6 -1.05 L-54.8 -1.2 Q-53.15 -1.4 -50.9 0.65 L-49.0 2.75 -49.5 5.55 Q-50.0 8.15 -50.2 6.9 -50.5 5.1 -51.6 4.0 -52.9 2.75 -54.5 3.7 -55.9 4.55 -57.0 4.45 L-57.85 4.15 Q-59.25 1.0 -57.2 -0.4 L-55.6 -1.05" fill="#ffb5d7" fill-rule="evenodd" stroke="none"/>
      <path d="M32.05 -21.85 L29.3 -25.65 Q26.2 -29.45 24.45 -29.5 L26.6 -31.35 Q29.4 -33.3 32.55 -33.8 L33.8 -34.2 Q35.15 -34.85 35.75 -36.2 36.2 -37.3 36.7 -35.35 37.2 -33.35 37.1 -30.55 36.8 -22.55 32.05 -21.85" fill="#6e475b" fill-rule="evenodd" stroke="none"/>
      <path d="M31.3 -24.2 L29.65 -26.55 Q27.7 -28.9 26.35 -28.9 L28.2 -30.4 Q30.55 -31.95 33.0 -32.35 L34.1 -32.75 Q35.25 -33.25 35.45 -33.85 35.6 -31.55 35.2 -29.2 34.3 -24.5 31.3 -24.2" fill="#ffb5d7" fill-rule="evenodd" stroke="none"/>
      <path d="M-6.3 35.6 Q-7.1 36.6 -11.7 36.25 -16.3 35.85 -16.1 35.0 L-15.45 31.2 -15.2 29.05 Q-12.9 30.25 -9.0 30.35 L-5.6 30.2 -5.7 32.9 Q-5.9 35.1 -6.3 35.6" fill="#6e475b" fill-rule="evenodd" stroke="none"/>
      <path d="M32.55 21.35 Q28.8 32.25 26.85 34.1 25.85 35.05 23.15 35.2 20.4 35.3 19.3 34.4 18.45 33.65 19.25 28.45 L20.25 21.55 27.55 17.3 Q35.05 12.7 35.9 10.75 L32.55 21.35" fill="#6e475b" fill-rule="evenodd" stroke="none"/>
      <path d="M-9.1 30.15 L-6.35 30.05 -6.6 32.15 Q-6.85 33.85 -7.15 34.3 -7.65 34.85 -11.05 34.75 -14.4 34.6 -14.25 33.95 -14.0 32.85 -14.0 30.9 L-14.05 29.15 Q-12.2 30.1 -9.1 30.15" fill="#e679a1" fill-rule="evenodd" stroke="none"/>
      <path d="M31.15 21.3 Q27.95 30.55 26.3 32.1 25.45 32.9 23.2 33.0 20.85 33.1 19.9 32.35 19.2 31.75 19.9 27.35 L20.7 21.45 26.9 17.9 Q33.3 14.0 34.0 12.35 L31.15 21.3" fill="#e679a1" fill-rule="evenodd" stroke="none"/>
      <path d="M-58.4 1.9 Q-55.4 0.4 -52.8 1.25 -50.8 1.85 -49.15 3.8 -50.0 8.4 -50.2 6.9 -50.5 5.1 -51.6 4.0 -52.9 2.75 -54.5 3.7 -55.9 4.55 -57.0 4.45 L-57.85 4.15 Q-58.4 2.85 -58.4 1.9" fill="#d984ab" fill-rule="evenodd" stroke="none"/>
      <path d="M33.45 -25.85 Q37.85 -19.85 37.85 -17.85 37.85 -17.6 39.6 -12.95 41.45 -7.95 41.95 -3.75 43.45 10.15 31.1 19.55 L28.65 20.8 Q25.7 22.15 22.95 22.65 19.25 35.45 18.45 36.25 17.75 36.95 14.75 37.2 11.5 37.45 9.25 36.65 7.15 35.9 6.9 34.65 L7.1 32.2 -0.4 33.6 Q-9.3 34.7 -16.7 33.4 L-17.1 36.35 Q-18.3 38.7 -25.05 37.55 L-29.6 36.4 Q-31.55 35.65 -31.45 35.2 L-30.2 29.95 Q-30.0 28.45 -30.15 26.55 -33.4 23.75 -35.35 20.35 -37.65 16.45 -38.6 11.3 -39.5 9.55 -40.5 8.3 L-41.25 7.4 Q-40.5 8.95 -42.25 11.1 -43.7 12.9 -45.2 13.5 -48.35 14.75 -50.6 13.4 L-51.85 12.3 -52.25 11.75 Q-55.4 5.4 -51.2 1.0 -49.85 -0.4 -47.95 -1.4 L-46.3 -2.15 Q-42.3 -3.45 -38.0 -0.95 -36.05 -7.05 -31.3 -11.4 -24.95 -17.15 -14.25 -19.2 L-7.05 -21.25 Q0.35 -23.55 1.4 -24.75 L0.7 -26.7 Q0.1 -29.0 0.3 -30.9 L0.35 -32.55 Q0.2 -34.55 -0.45 -36.5 L1.25 -36.55 4.8 -35.4 7.95 -34.45 Q11.3 -33.15 12.3 -31.55 13.35 -29.9 20.3 -30.3 26.15 -30.7 28.0 -31.4 29.05 -31.75 33.45 -25.85" fill="#6e475b" fill-rule="evenodd" stroke="none"/>
      <path d="M31.45 -24.45 Q35.15 -18.95 35.15 -17.05 L37.0 -12.95 Q39.0 -8.75 39.6 -5.15 41.55 6.95 29.7 17.4 L27.1 19.0 Q24.0 20.75 21.45 21.2 18.1 33.25 17.35 34.0 16.6 34.75 14.55 35.15 L10.0 34.95 Q8.1 34.25 8.3 32.65 L8.95 29.9 Q5.4 30.85 0.3 31.4 -10.0 32.5 -17.85 30.5 -17.85 32.5 -18.45 34.5 -19.5 36.25 -24.15 35.4 L-27.2 34.5 Q-28.55 34.0 -28.45 33.6 -27.65 30.7 -27.9 25.7 -35.9 19.3 -36.65 6.6 -37.05 1.65 -34.35 -3.95 -28.95 -15.0 -13.3 -17.95 L-5.05 -20.4 Q3.4 -23.1 4.4 -24.2 L3.2 -25.8 Q2.05 -27.75 2.25 -29.55 L2.2 -31.0 Q2.05 -32.8 1.15 -34.75 L2.3 -34.3 4.5 -33.65 7.3 -32.9 Q10.3 -31.85 11.25 -30.3 12.25 -28.75 19.1 -28.85 L26.8 -29.55 Q27.75 -29.9 31.45 -24.45" fill="#ffb5d7" fill-rule="evenodd" stroke="none"/>
      <path d="M29.7 17.4 L27.1 19.0 Q24.0 20.75 21.45 21.2 18.1 33.25 17.35 34.0 16.6 34.75 14.55 35.15 L10.0 34.95 Q8.1 34.25 8.3 32.65 L8.95 29.9 Q5.4 30.85 0.3 31.4 -10.0 32.5 -17.85 30.5 -17.85 32.5 -18.45 34.5 -19.5 36.25 -24.15 35.4 L-27.2 34.5 Q-28.55 34.0 -28.45 33.6 -27.65 30.7 -27.9 25.7 -35.9 19.3 -36.65 6.6 -36.85 4.05 -36.0 0.6 -34.3 -6.3 -28.95 -10.95 -32.05 -6.25 -32.85 0.45 -33.8 8.25 -30.45 13.3 -26.4 19.5 -16.7 19.9 -5.1 20.4 13.5 12.55 12.45 10.75 11.55 8.25 9.7 3.25 10.35 -0.55 12.5 -12.65 38.95 -7.95 42.9 5.75 29.7 17.4" fill="#ff96bc" fill-rule="evenodd" stroke="none"/>
      <path d="M10.05 -28.2 Q9.6 -26.9 8.2 -25.95 7.05 -25.15 5.55 -24.75 5.45 -25.05 4.25 -25.65 L4.6 -25.85 4.95 -26.15 Q4.05 -27.7 3.25 -31.15 L2.95 -31.45 Q2.7 -31.6 2.75 -31.7 L2.6 -32.55 2.4 -33.0 Q5.15 -31.9 7.9 -29.95 L10.05 -28.2" fill="#6e475b" fill-rule="evenodd" stroke="none"/>
      <path d="M8.25 -28.4 L7.25 -27.3 6.05 -26.65 Q5.4 -26.65 4.7 -28.85 L4.2 -31.05 Q5.8 -30.35 7.2 -29.3 L8.25 -28.4" fill="#d16395" fill-rule="evenodd" stroke="none"/>
      <path d="M15.8 32.2 L15.2 35.4 13.6 35.65 14.65 32.9 15.25 32.4 15.8 32.2" fill="#6e475b" fill-rule="evenodd" stroke="none"/>
      <path d="M25.85 30.5 L25.4 33.0 24.1 33.2 24.95 31.05 Q24.95 30.85 25.45 30.65 L25.85 30.5" fill="#6e475b" fill-rule="evenodd" stroke="none"/>
      <path d="M-8.35 32.55 L-8.8 35.1 -10.05 35.25 -9.2 33.1 -8.75 32.7 -8.35 32.55" fill="#6e475b" fill-rule="evenodd" stroke="none"/>
      <path d="M-19.9 32.6 L-20.5 35.8 -22.1 36.05 Q-21.0 33.65 -21.0 33.3 L-20.45 32.8 -19.9 32.6" fill="#6e475b" fill-rule="evenodd" stroke="none"/>
      <path d="M-45.8 4.75 Q-47.7 5.4 -47.0 7.15 L-45.95 8.7 -46.1 6.6 Q-46.1 5.95 -45.05 5.65 -43.8 5.35 -42.75 6.6 -41.75 7.7 -42.95 9.4 -44.15 11.1 -46.1 11.45 -48.55 11.9 -50.0 10.65 L-51.0 9.3 Q-52.6 4.65 -48.95 1.4 -47.85 0.4 -46.3 -0.35 L-45.05 -0.9 -39.9 -0.65 Q-38.7 -0.2 -38.0 0.45 L-38.45 2.25 Q-38.9 4.65 -38.9 7.5 -39.75 6.1 -41.65 5.15 -43.85 4.05 -45.8 4.75" fill="#ffb5d7" fill-rule="evenodd" stroke="none"/>
      <path d="M-48.85 5.8 Q-47.1 2.0 -43.9 1.8 -41.55 1.65 -38.65 3.45 L-38.9 7.5 Q-39.75 6.1 -41.65 5.15 -43.85 4.05 -45.8 4.75 -47.7 5.4 -47.0 7.15 L-45.95 8.7 -46.1 6.6 Q-46.1 5.95 -45.05 5.65 -43.8 5.35 -42.75 6.6 -41.75 7.7 -42.95 9.4 -44.15 11.1 -46.1 11.45 -48.55 11.9 -50.0 10.65 L-51.0 9.3 -51.2 8.6 Q-49.85 8.0 -49.2 6.85 L-48.85 5.8" fill="#d984ab" fill-rule="evenodd" stroke="none"/>
      <path d="M16.75 -14.5 L22.7 -16.15 Q32.4 -18.15 39.5 -15.2 L40.55 -13.9 42.8 -10.45 Q45.9 -4.7 45.5 0.25 45.25 3.2 42.05 6.1 39.05 8.85 34.5 10.6 29.8 12.4 25.3 12.45 20.35 12.55 17.05 10.45 10.0 6.0 9.75 -0.85 9.5 -6.85 14.4 -13.6 L16.75 -14.5" fill="#6e475b" fill-rule="evenodd" stroke="none"/>
      <path d="M16.25 -13.25 L18.25 -14.05 23.45 -15.45 Q31.85 -17.2 38.05 -14.65 L38.95 -13.5 40.9 -10.5 Q43.6 -5.55 43.25 -1.2 43.0 1.35 40.3 3.85 37.65 6.25 33.7 7.8 29.65 9.35 25.75 9.4 21.45 9.45 18.55 7.65 12.45 3.8 12.2 -2.15 12.05 -7.4 16.25 -13.25" fill="#ff859b" fill-rule="evenodd" stroke="none"/>
      <path d="M24.2 -11.75 L25.7 -6.1 Q26.9 -0.4 25.25 0.2 23.6 0.75 22.95 -4.55 22.45 -8.5 22.65 -11.55 L24.2 -11.75" fill="#000000" fill-rule="evenodd" stroke="none"/>
      <path d="M32.0 -12.55 L33.5 -12.75 Q34.4 -9.8 34.8 -5.8 35.35 -0.5 33.6 -0.7 31.85 -0.9 31.75 -6.75 L32.0 -12.55" fill="#000000" fill-rule="evenodd" stroke="none"/>
      <path d="M32.6 -19.85 L32.75 -18.1 Q32.75 -16.4 32.0 -16.4 31.2 -16.4 31.0 -16.9 L31.05 -17.75 32.6 -19.85" fill="#000000" fill-rule="evenodd" stroke="none"/>
      <path d="M32.5 -18.15 L32.4 -17.6 32.15 -17.4 Q31.85 -17.4 31.85 -18.15 31.85 -18.9 32.15 -18.9 L32.4 -18.65 32.5 -18.15" fill="#ffffff" fill-rule="evenodd" stroke="none"/>
      <path d="M30.7 -17.15 Q29.6 -16.4 28.75 -16.6 L29.85 -17.0 Q31.05 -17.8 31.45 -19.8 L31.85 -20.9 Q32.45 -22.05 33.4 -22.1 L32.25 -18.9 Q31.85 -17.85 30.7 -17.15" fill="#6e475b" fill-rule="evenodd" stroke="none"/>
      <path d="M12.25 -20.0 Q13.2 -18.9 15.25 -17.65 15.65 -15.0 13.75 -15.1 12.6 -15.2 12.3 -17.6 L12.25 -20.0" fill="#000000" fill-rule="evenodd" stroke="none"/>
      <path d="M14.65 -17.1 L14.5 -16.45 14.15 -16.15 Q13.9 -16.15 13.8 -16.45 13.65 -16.7 13.65 -17.1 13.65 -17.55 13.8 -17.8 13.9 -18.1 14.15 -18.1 L14.5 -17.8 14.65 -17.1" fill="#ffffff" fill-rule="evenodd" stroke="none"/>
      <path d="M13.4 -18.65 Q12.8 -19.6 11.55 -20.25 9.05 -21.65 5.95 -20.5 L6.7 -20.9 8.7 -21.45 Q12.05 -21.75 15.15 -18.3 L16.9 -16.7 Q19.05 -15.2 20.95 -15.65 20.1 -14.9 18.7 -14.9 16.0 -14.85 13.4 -18.65" fill="#6e475b" fill-rule="evenodd" stroke="none"/>
      <path d="M-13.0 -13.9 Q-11.65 -14.85 -9.35 -15.25 -7.05 -15.65 -5.2 -15.2 -3.15 -14.75 -2.65 -13.45 L-1.1 -9.1 Q0.95 -3.65 3.6 1.5 6.55 7.3 6.4 13.9 6.3 19.9 3.95 22.85 2.15 25.1 0.1 32.0 -2.6 41.4 -3.6 53.55 -3.65 54.4 -6.35 52.4 -9.2 50.3 -12.05 47.1 -20.1 37.95 -18.3 30.95 L-19.35 32.0 Q-20.45 33.35 -20.95 34.85 -21.15 35.65 -21.75 32.95 -22.4 30.1 -22.65 26.4 -23.35 15.8 -20.15 12.0 -19.45 11.1 -21.05 12.1 L-23.5 13.8 Q-23.85 14.05 -23.25 12.0 L-21.5 7.0 Q-18.2 -1.1 -14.0 -6.0 -13.7 -6.35 -13.55 -7.25 -13.25 -9.0 -14.05 -11.5 -14.5 -12.8 -13.0 -13.9" fill="#595356" fill-rule="evenodd" stroke="none"/>
      <path d="M-6.5 -14.4 Q-5.1 -14.2 -4.75 -13.45 L-2.4 -7.95 Q0.35 -1.5 2.75 3.1 5.35 8.3 5.15 13.8 5.0 18.6 2.85 21.35 0.15 24.7 -1.85 29.5 -5.45 38.1 -5.2 48.05 -5.15 49.35 -7.65 46.95 -10.15 44.55 -12.75 40.85 -15.7 36.65 -16.75 33.5 -18.0 29.7 -16.0 28.55 L-17.2 28.35 Q-18.55 28.35 -19.2 29.2 -19.65 29.75 -20.0 27.35 -20.4 24.85 -20.3 21.4 -19.95 11.85 -16.3 7.3 -15.55 6.4 -17.95 7.6 -20.35 8.8 -20.7 9.45 -20.5 8.2 -19.25 5.55 -16.75 0.2 -13.1 -4.1 -12.4 -4.55 -11.95 -5.65 -11.0 -7.85 -12.2 -10.95 -12.65 -12.15 -11.7 -13.05 -10.9 -13.8 -9.35 -14.25 L-6.5 -14.4" fill="#a3999e" fill-rule="evenodd" stroke="none"/>
      <path d="M-2.8 20.0 Q0.0 19.65 0.35 21.7 0.75 23.95 -2.45 27.15 -5.2 29.85 -6.15 37.7 -6.65 41.6 -6.55 44.95 -14.95 35.9 -14.05 30.15 -13.75 28.35 -12.55 27.1 L-11.45 26.2 Q-11.7 25.95 -13.3 26.65 L-14.8 27.45 Q-14.05 25.35 -8.9 22.6 -4.45 20.2 -2.8 20.0" fill="#f5e6ee" fill-rule="evenodd" stroke="none"/>
      <path d="M-6.7 6.15 L-1.6 5.95 Q0.55 6.15 1.85 8.15 3.0 9.9 3.15 12.35 3.3 14.75 2.5 16.25 1.65 17.95 0.2 17.55 -5.5 16.05 -12.65 20.95 -16.2 23.4 -18.6 26.15 -19.5 17.95 -15.95 14.05 -14.15 12.1 -12.15 11.75 L-14.5 11.65 -16.05 12.1 Q-12.5 7.3 -6.7 6.15" fill="#f5e6ee" fill-rule="evenodd" stroke="none"/>
      <path d="M-17.35 5.7 Q-14.95 0.6 -10.4 -3.1 -8.05 -5.0 -5.75 -6.15 -4.8 -6.6 -3.5 -5.0 -2.35 -3.6 -1.4 -1.35 -0.45 0.85 -0.4 2.2 -0.35 3.7 -1.55 3.0 -4.0 1.6 -10.9 3.5 L-17.35 5.7" fill="#f5e6ee" fill-rule="evenodd" stroke="none"/>
      <path d="M-6.5 -14.4 Q-5.1 -14.2 -4.75 -13.45 L-3.7 -11.05 -1.6 -6.0 Q-4.45 -9.95 -7.6 -10.1 -9.8 -10.15 -11.5 -8.6 L-12.15 -11.0 Q-13.1 -13.35 -9.3 -14.25 L-6.5 -14.4" fill="#877f83" fill-rule="evenodd" stroke="none"/>
    </g>
  </defs>
</svg>
