<?xml version="1.0" encoding="UTF-8" standalone="no"?>
<svg xmlns:ffdec="https://www.free-decompiler.com/flash" xmlns:xlink="http://www.w3.org/1999/xlink" ffdec:objectType="frame" height="105.85px" width="119.55px" xmlns="http://www.w3.org/2000/svg">
  <g transform="matrix(1.0, 0.0, 0.0, 1.0, 60.8, 52.05)">
    <use ffdec:characterId="395" height="74.85" transform="matrix(1.0, 0.0, 0.0, 1.0, -60.8, -37.5)" width="105.9" xlink:href="#shape0"/>
  </g>
  <defs>
    <g id="shape0" transform="matrix(1.0, 0.0, 0.0, 1.0, 60.8, 37.5)">
      <path d="M-51.25 5.35 Q-53.1 4.1 -55.35 5.4 -57.35 6.6 -58.85 5.9 L-59.95 4.9 Q-62.0 0.5 -59.0 -1.5 L-56.8 -2.45 -55.65 -2.6 Q-53.4 -2.9 -50.25 0.0 -48.65 1.45 -47.55 2.95 L-48.2 6.9 Q-49.0 10.5 -49.25 8.75 -49.6 6.45 -51.25 5.35" fill="#6e475b" fill-rule="evenodd" stroke="none"/>
      <path d="M-56.05 -1.65 L-55.25 -1.8 Q-53.6 -2.0 -51.35 0.05 L-49.45 2.15 -49.95 4.95 Q-50.45 7.55 -50.65 6.3 -50.95 4.5 -52.05 3.4 -53.35 2.15 -54.95 3.1 -56.35 3.95 -57.45 3.85 L-58.3 3.55 Q-59.7 0.4 -57.65 -1.0 -56.95 -1.45 -56.05 -1.65" fill="#ffb5d7" fill-rule="evenodd" stroke="none"/>
      <path d="M31.6 -22.45 L28.85 -26.25 Q25.75 -30.05 24.0 -30.1 L26.15 -31.95 Q28.95 -33.9 32.1 -34.4 L33.35 -34.8 Q34.7 -35.45 35.3 -36.8 35.75 -37.9 36.25 -35.95 36.75 -33.95 36.65 -31.15 36.35 -23.15 31.6 -22.45" fill="#6e475b" fill-rule="evenodd" stroke="none"/>
      <path d="M30.85 -24.8 L29.2 -27.15 Q27.25 -29.5 25.9 -29.5 L27.75 -31.0 Q30.1 -32.55 32.55 -32.95 L33.65 -33.35 Q34.8 -33.85 35.0 -34.45 35.15 -32.15 34.75 -29.8 33.85 -25.1 30.85 -24.8" fill="#ffb5d7" fill-rule="evenodd" stroke="none"/>
      <path d="M-6.75 35.0 Q-7.55 36.0 -12.15 35.65 -16.75 35.25 -16.55 34.4 L-15.9 30.6 -15.65 28.45 Q-13.35 29.65 -9.45 29.75 L-6.05 29.6 -6.15 32.3 Q-6.35 34.5 -6.75 35.0" fill="#6e475b" fill-rule="evenodd" stroke="none"/>
      <path d="M32.1 20.75 Q28.35 31.65 26.4 33.5 25.4 34.45 22.7 34.6 19.95 34.7 18.85 33.8 18.0 33.05 18.8 27.85 L19.8 20.95 27.1 16.7 Q34.6 12.1 35.45 10.15 L32.1 20.75" fill="#6e475b" fill-rule="evenodd" stroke="none"/>
      <path d="M-9.55 29.55 L-6.8 29.45 -7.05 31.55 Q-7.3 33.25 -7.6 33.7 L-11.5 34.15 Q-14.85 34.0 -14.7 33.35 -14.45 32.25 -14.45 30.3 L-14.5 28.55 Q-12.65 29.5 -9.55 29.55" fill="#e679a1" fill-rule="evenodd" stroke="none"/>
      <path d="M30.7 20.7 Q27.5 29.95 25.85 31.5 25.0 32.3 22.75 32.4 20.4 32.5 19.45 31.75 18.75 31.15 19.45 26.75 L20.25 20.85 26.45 17.3 Q32.85 13.4 33.55 11.75 L30.7 20.7" fill="#e679a1" fill-rule="evenodd" stroke="none"/>
      <path d="M-58.85 1.3 Q-55.85 -0.2 -53.25 0.65 -51.25 1.25 -49.6 3.2 -50.45 7.8 -50.65 6.3 -50.95 4.5 -52.05 3.4 -53.35 2.15 -54.95 3.1 -56.35 3.95 -57.45 3.85 L-58.3 3.55 Q-58.85 2.25 -58.85 1.3" fill="#d984ab" fill-rule="evenodd" stroke="none"/>
      <path d="M33.0 -26.45 Q37.4 -20.45 37.4 -18.45 L39.15 -13.55 Q41.0 -8.55 41.5 -4.35 43.0 9.55 30.65 18.95 L28.2 20.2 Q25.25 21.55 22.5 22.05 18.8 34.85 18.0 35.65 17.3 36.35 14.3 36.6 11.05 36.85 8.8 36.05 6.7 35.3 6.45 34.05 L6.65 31.6 -0.85 33.0 Q-9.75 34.1 -17.15 32.8 L-17.55 35.75 Q-18.75 38.1 -25.5 36.95 L-30.05 35.8 Q-32.0 35.05 -31.9 34.6 L-30.65 29.35 Q-30.45 27.85 -30.6 25.95 -33.85 23.15 -35.8 19.75 -38.1 15.85 -39.05 10.7 -39.95 8.95 -40.95 7.7 L-41.7 6.8 Q-40.95 8.35 -42.7 10.5 -44.15 12.3 -45.65 12.9 -48.8 14.15 -51.05 12.8 L-52.3 11.7 -52.7 11.15 Q-55.85 4.8 -51.65 0.4 -50.3 -1.0 -48.4 -2.0 L-46.75 -2.75 Q-42.75 -4.05 -38.45 -1.55 -36.5 -7.65 -31.75 -12.0 -25.4 -17.75 -14.7 -19.8 L-7.5 -21.85 Q-0.1 -24.15 0.95 -25.35 L0.25 -27.3 Q-0.35 -29.6 -0.15 -31.5 -0.05 -32.15 -0.1 -33.15 -0.25 -35.15 -0.9 -37.1 L0.8 -37.15 4.35 -36.0 7.5 -35.05 Q10.85 -33.75 11.85 -32.15 12.9 -30.5 19.85 -30.9 25.7 -31.3 27.55 -32.0 28.6 -32.35 33.0 -26.45" fill="#6e475b" fill-rule="evenodd" stroke="none"/>
      <path d="M31.0 -25.05 Q34.7 -19.55 34.7 -17.65 L36.55 -13.55 Q38.55 -9.35 39.15 -5.75 41.1 6.35 29.25 16.8 L26.65 18.4 Q23.55 20.15 21.0 20.6 17.65 32.65 16.9 33.4 16.15 34.15 14.1 34.55 L9.55 34.35 Q7.65 33.65 7.85 32.05 L8.5 29.3 Q4.95 30.25 -0.15 30.8 -10.45 31.9 -18.3 29.9 -18.3 31.9 -18.9 33.9 -19.95 35.65 -24.6 34.8 L-27.65 33.9 Q-29.0 33.4 -28.9 33.0 -28.1 30.1 -28.35 25.1 -36.35 18.7 -37.1 6.0 -37.5 1.05 -34.8 -4.55 -29.4 -15.6 -13.75 -18.55 L-5.5 -21.0 Q2.95 -23.7 3.95 -24.8 L2.75 -26.4 Q1.6 -28.35 1.8 -30.15 L1.75 -31.6 Q1.6 -33.4 0.7 -35.35 L1.85 -34.9 4.05 -34.25 6.85 -33.5 Q9.85 -32.45 10.8 -30.9 11.8 -29.35 18.65 -29.45 L26.35 -30.15 Q27.3 -30.5 31.0 -25.05" fill="#ffb5d7" fill-rule="evenodd" stroke="none"/>
      <path d="M29.25 16.8 L26.65 18.4 Q23.55 20.15 21.0 20.6 17.65 32.65 16.9 33.4 16.15 34.15 14.1 34.55 L9.55 34.35 Q7.65 33.65 7.85 32.05 L8.5 29.3 Q4.95 30.25 -0.15 30.8 -10.45 31.9 -18.3 29.9 -18.3 31.9 -18.9 33.9 -19.95 35.65 -24.6 34.8 L-27.65 33.9 Q-29.0 33.4 -28.9 33.0 -28.1 30.1 -28.35 25.1 -36.35 18.7 -37.1 6.0 -37.3 3.45 -36.45 0.0 -34.75 -6.9 -29.4 -11.55 -32.5 -6.85 -33.3 -0.15 -34.25 7.65 -30.9 12.7 -26.85 18.9 -17.15 19.3 -5.55 19.8 13.05 11.95 12.0 10.15 11.1 7.65 9.25 2.65 9.9 -1.15 12.05 -13.25 38.5 -8.55 42.45 5.15 29.25 16.8" fill="#ff96bc" fill-rule="evenodd" stroke="none"/>
      <path d="M9.6 -28.8 Q9.15 -27.5 7.75 -26.55 6.6 -25.75 5.1 -25.35 L3.8 -26.25 4.15 -26.45 4.5 -26.75 Q3.6 -28.3 2.8 -31.75 L2.5 -32.05 Q2.25 -32.2 2.3 -32.3 L2.15 -33.15 1.95 -33.6 Q4.7 -32.5 7.45 -30.55 L9.6 -28.8" fill="#6e475b" fill-rule="evenodd" stroke="none"/>
      <path d="M7.8 -29.0 L6.8 -27.9 5.6 -27.25 Q4.95 -27.25 4.25 -29.45 L3.75 -31.65 Q5.35 -30.95 6.75 -29.9 L7.8 -29.0" fill="#d16395" fill-rule="evenodd" stroke="none"/>
      <path d="M15.35 31.6 L14.75 34.8 13.15 35.05 14.2 32.3 Q14.2 32.05 14.8 31.8 L15.35 31.6" fill="#6e475b" fill-rule="evenodd" stroke="none"/>
      <path d="M25.4 29.9 L24.95 32.4 23.65 32.6 24.5 30.45 25.0 30.05 25.4 29.9" fill="#6e475b" fill-rule="evenodd" stroke="none"/>
      <path d="M-8.8 31.95 L-9.25 34.5 -10.5 34.65 -9.65 32.5 -9.2 32.1 -8.8 31.95" fill="#6e475b" fill-rule="evenodd" stroke="none"/>
      <path d="M-20.35 32.0 L-20.95 35.2 -22.55 35.45 Q-21.45 33.05 -21.45 32.7 L-20.9 32.2 -20.35 32.0" fill="#6e475b" fill-rule="evenodd" stroke="none"/>
      <path d="M-46.25 4.15 Q-48.15 4.8 -47.45 6.55 L-46.4 8.1 -46.55 6.0 Q-46.55 5.35 -45.5 5.05 -44.25 4.75 -43.2 6.0 -42.2 7.1 -43.4 8.8 -44.6 10.5 -46.55 10.85 -49.0 11.3 -50.45 10.05 L-51.45 8.7 Q-53.05 4.05 -49.4 0.8 L-46.75 -0.95 -45.5 -1.5 -40.35 -1.25 Q-39.15 -0.8 -38.45 -0.15 L-38.9 1.65 Q-39.35 4.05 -39.35 6.9 -40.2 5.5 -42.1 4.55 -44.3 3.45 -46.25 4.15" fill="#ffb5d7" fill-rule="evenodd" stroke="none"/>
      <path d="M-49.3 5.2 Q-47.55 1.4 -44.35 1.2 -42.0 1.05 -39.1 2.85 L-39.35 6.9 Q-40.2 5.5 -42.1 4.55 -44.3 3.45 -46.25 4.15 -48.15 4.8 -47.45 6.55 L-46.4 8.1 -46.55 6.0 Q-46.55 5.35 -45.5 5.05 -44.25 4.75 -43.2 6.0 -42.2 7.1 -43.4 8.8 -44.6 10.5 -46.55 10.85 -49.0 11.3 -50.45 10.05 L-51.45 8.7 -51.65 8.0 Q-50.3 7.4 -49.65 6.25 L-49.3 5.2" fill="#d984ab" fill-rule="evenodd" stroke="none"/>
      <path d="M16.3 -15.1 L22.25 -16.75 Q31.95 -18.75 39.05 -15.8 L40.1 -14.5 42.35 -11.05 Q45.45 -5.3 45.05 -0.35 44.8 2.6 41.6 5.5 38.6 8.25 34.05 10.0 29.35 11.8 24.85 11.85 19.9 11.95 16.6 9.85 9.55 5.4 9.3 -1.45 9.05 -7.45 13.95 -14.2 L16.3 -15.1" fill="#6e475b" fill-rule="evenodd" stroke="none"/>
      <path d="M15.8 -13.85 L17.8 -14.65 Q20.35 -15.55 23.0 -16.05 31.4 -17.8 37.6 -15.25 L38.5 -14.1 40.45 -11.1 Q43.15 -6.15 42.8 -1.8 42.55 0.75 39.85 3.25 37.2 5.65 33.25 7.2 29.2 8.75 25.3 8.8 21.0 8.85 18.1 7.05 12.0 3.2 11.75 -2.75 11.6 -8.0 15.8 -13.85" fill="#ff859b" fill-rule="evenodd" stroke="none"/>
      <path d="M23.75 -12.35 L25.25 -6.7 Q26.45 -1.0 24.8 -0.4 23.15 0.15 22.5 -5.15 22.0 -9.1 22.2 -12.15 L23.75 -12.35" fill="#000000" fill-rule="evenodd" stroke="none"/>
      <path d="M31.55 -13.15 L33.05 -13.35 Q33.95 -10.4 34.35 -6.4 34.9 -1.1 33.15 -1.3 31.4 -1.5 31.3 -7.35 L31.55 -13.15" fill="#000000" fill-rule="evenodd" stroke="none"/>
      <path d="M32.15 -20.45 L32.3 -18.7 Q32.3 -17.0 31.55 -17.0 30.75 -17.0 30.55 -17.5 L30.6 -18.35 32.15 -20.45" fill="#000000" fill-rule="evenodd" stroke="none"/>
      <path d="M32.05 -18.75 L31.95 -18.2 31.7 -18.0 Q31.4 -18.0 31.4 -18.75 31.4 -19.5 31.7 -19.5 L31.95 -19.25 32.05 -18.75" fill="#ffffff" fill-rule="evenodd" stroke="none"/>
      <path d="M30.25 -17.75 Q29.15 -17.0 28.3 -17.2 L29.4 -17.6 Q30.6 -18.4 31.0 -20.4 L31.4 -21.5 Q32.0 -22.65 32.95 -22.7 L31.8 -19.5 Q31.4 -18.45 30.25 -17.75" fill="#6e475b" fill-rule="evenodd" stroke="none"/>
      <path d="M11.8 -20.6 Q12.75 -19.5 14.8 -18.25 15.2 -15.6 13.3 -15.7 12.15 -15.8 11.85 -18.2 L11.8 -20.6" fill="#000000" fill-rule="evenodd" stroke="none"/>
      <path d="M14.2 -17.7 L14.05 -17.05 13.7 -16.75 Q13.45 -16.75 13.35 -17.05 13.2 -17.3 13.2 -17.7 13.2 -18.15 13.35 -18.4 L13.7 -18.7 14.05 -18.4 14.2 -17.7" fill="#ffffff" fill-rule="evenodd" stroke="none"/>
      <path d="M12.95 -19.25 Q12.35 -20.2 11.1 -20.85 8.6 -22.25 5.5 -21.1 L6.25 -21.5 8.25 -22.05 Q11.6 -22.35 14.7 -18.9 L16.45 -17.3 Q18.6 -15.8 20.5 -16.25 19.65 -15.5 18.25 -15.5 15.55 -15.45 12.95 -19.25" fill="#6e475b" fill-rule="evenodd" stroke="none"/>
      <path d="M-3.55 -16.4 L-0.4 -12.9 Q3.5 -8.7 7.6 -5.45 11.95 -2.0 12.75 1.45 13.45 4.55 11.25 7.05 9.5 9.1 2.75 13.3 -5.6 18.55 -14.0 21.85 -14.75 22.1 -16.05 21.15 -17.5 20.1 -18.4 18.4 -20.9 13.6 -16.95 8.05 L-18.15 8.85 -20.5 11.05 Q-20.95 11.65 -20.95 10.7 L-20.4 8.3 Q-19.1 4.15 -16.75 2.6 -15.3 1.6 -19.9 3.35 -20.3 3.5 -19.75 2.0 -19.2 0.35 -18.0 -1.75 -14.7 -7.55 -10.35 -10.45 -10.1 -10.5 -10.3 -10.95 -10.7 -11.95 -12.85 -14.2 -13.65 -15.05 -12.55 -15.85 -11.6 -16.55 -9.55 -16.95 L-5.9 -17.25 Q-4.0 -17.1 -3.55 -16.4" fill="#595356" fill-rule="evenodd" stroke="none"/>
      <path d="M-4.3 -15.75 L-2.1 -13.35 Q0.95 -10.15 4.95 -6.3 9.05 -2.35 10.35 0.4 11.85 3.55 10.0 5.85 8.25 8.05 2.5 11.45 -5.3 16.1 -13.95 18.2 -15.7 18.65 -16.65 17.0 -17.45 15.55 -17.4 13.0 -17.3 10.6 -16.5 8.6 -15.6 6.5 -14.2 6.0 -17.05 6.9 -18.5 7.8 -19.05 8.15 -18.9 7.4 L-18.2 5.45 Q-16.55 2.25 -14.55 1.45 -13.9 1.2 -15.35 1.15 -17.15 1.1 -17.0 0.6 -16.1 -2.15 -14.8 -4.45 -12.4 -8.6 -9.2 -10.2 -9.0 -10.25 -9.15 -10.65 -9.45 -11.55 -11.45 -13.55 -12.9 -15.05 -9.05 -16.0 L-6.15 -16.3 Q-4.7 -16.25 -4.3 -15.75" fill="#a3999e" fill-rule="evenodd" stroke="none"/>
      <path d="M-0.45 2.75 L3.9 2.7 Q6.85 2.95 6.75 5.2 6.65 7.65 2.55 9.7 -1.0 11.5 -8.0 13.6 L-14.3 15.3 Q-18.55 7.0 -8.25 4.0 -4.9 3.05 -0.45 2.75" fill="#f5e6ee" fill-rule="evenodd" stroke="none"/>
      <path d="M-8.45 2.5 L-16.25 4.5 Q-12.55 -1.35 -3.25 -3.0 L5.3 -3.5 Q8.65 -2.6 7.95 -1.0 7.3 0.6 4.9 0.55 0.25 0.5 -8.45 2.5" fill="#f5e6ee" fill-rule="evenodd" stroke="none"/>
      <path d="M-9.45 -2.65 L-15.35 -0.3 Q-10.9 -7.85 -5.95 -9.8 L-1.05 -10.2 Q1.3 -9.8 2.6 -7.45 3.15 -6.45 2.9 -5.75 2.65 -5.05 1.4 -5.05 -2.75 -5.0 -9.45 -2.65" fill="#f5e6ee" fill-rule="evenodd" stroke="none"/>
      <path d="M-4.3 -15.75 L-3.65 -15.1 -1.45 -12.7 Q-4.9 -14.35 -7.25 -13.95 -9.25 -13.65 -10.15 -12.1 L-10.8 -12.8 -11.5 -13.55 Q-12.75 -15.15 -9.05 -16.05 L-6.2 -16.35 Q-4.8 -16.25 -4.3 -15.75" fill="#877f83" fill-rule="evenodd" stroke="none"/>
    </g>
  </defs>
</svg>
