<?xml version="1.0" encoding="UTF-8" standalone="no"?>
<svg xmlns:ffdec="https://www.free-decompiler.com/flash" xmlns:xlink="http://www.w3.org/1999/xlink" ffdec:objectType="frame" height="149.5px" width="124.8px" xmlns="http://www.w3.org/2000/svg">
  <g transform="matrix(1.0, 0.0, 0.0, 1.0, 72.0, 86.3)">
    <use ffdec:characterId="404" height="136.0" transform="matrix(1.0, 0.0, 0.0, 1.0, -72.0, -86.3)" width="115.0" xlink:href="#shape0"/>
  </g>
  <defs>
    <g id="shape0" transform="matrix(1.0, 0.0, 0.0, 1.0, 72.0, 86.3)">
      <path d="M-9.65 30.25 Q-26.3 42.85 -47.15 46.6 -36.05 41.0 -23.6 33.0 -27.45 35.1 -32.5 36.9 -37.6 38.75 -46.9 40.2 L-46.6 40.0 -46.0 39.65 Q-30.55 36.3 -16.55 22.7 L-9.65 30.25" fill="#6e3200" fill-rule="evenodd" stroke="none"/>
      <path d="M-46.0 39.65 Q-29.2 29.1 -22.0 14.05 L-16.55 22.7 Q-30.55 36.3 -46.0 39.65" fill="#9e4300" fill-rule="evenodd" stroke="none"/>
      <path d="M-46.0 39.65 L-46.6 40.0 -46.9 40.2 Q-37.6 38.75 -32.5 36.9 -27.45 35.1 -23.6 33.0 -36.05 41.0 -47.15 46.6 -26.3 42.85 -9.65 30.25 L-7.85 32.25 Q-24.4 43.1 -38.35 46.65 -52.35 50.2 -52.65 49.6 -52.95 48.95 -49.1 46.4 L-40.95 41.05 -52.8 42.75 Q-35.6 29.3 -25.35 8.7 L-22.0 14.05 Q-29.2 29.1 -46.0 39.65" fill="#3a1701" fill-rule="evenodd" stroke="none"/>
      <path d="M-7.55 -49.3 Q-9.9 -55.1 -11.25 -61.05 -14.1 -72.5 -12.25 -79.6 L-7.0 -76.75 Q-1.7 -73.7 -1.3 -73.75 -1.15 -73.6 1.0 -74.8 3.15 -75.9 3.7 -75.6 15.3 -70.65 23.45 -61.35 30.85 -53.0 33.65 -43.2 36.25 -33.85 33.8 -26.8 31.3 -19.5 24.2 -17.4 29.45 -20.6 31.0 -25.75 32.5 -31.05 30.5 -39.15 27.0 -52.55 18.15 -57.7 14.5 -59.8 11.3 -59.45 8.15 -59.1 6.85 -56.5 2.65 -59.8 0.15 -59.6 -2.5 -59.45 -2.4 -55.4 -7.15 -59.3 -8.3 -56.6 -9.2 -54.6 -7.55 -49.3" fill="#4b1f01" fill-rule="evenodd" stroke="none"/>
      <path d="M-7.55 -49.3 Q-9.2 -54.6 -8.3 -56.6 -7.15 -59.3 -2.4 -55.4 -2.5 -59.45 0.15 -59.6 2.65 -59.8 6.85 -56.5 8.15 -59.1 11.3 -59.45 14.5 -59.8 18.15 -57.7 27.0 -52.55 30.5 -39.15 32.5 -31.05 31.0 -25.75 29.45 -20.6 24.2 -17.4 L23.95 -17.3 23.4 -17.25 23.3 -17.25 Q21.35 -16.8 18.4 -17.65 14.65 -18.7 10.9 -21.35 0.45 -28.65 -5.95 -45.65 L-6.05 -45.65 -7.55 -49.3" fill="#763001" fill-rule="evenodd" stroke="none"/>
      <path d="M0.1 -80.85 Q8.75 -77.05 14.05 -73.75 20.65 -69.6 25.2 -64.3 33.4 -54.75 36.25 -43.85 38.2 -36.45 36.8 -29.2 34.9 -19.55 27.45 -16.15 20.3 -12.95 13.3 -16.3 9.1 -18.4 4.1 -23.65 -0.6 -28.6 -5.55 -37.95 -11.9 -50.1 -14.15 -62.65 -15.15 -68.2 -15.85 -77.55 -16.45 -86.1 -16.15 -86.3 -5.2 -79.9 -2.8 -78.05 L-2.7 -78.0 -1.35 -79.25 0.1 -80.85 M24.2 -17.4 Q31.3 -19.5 33.8 -26.8 36.25 -33.85 33.65 -43.2 30.85 -53.0 23.45 -61.35 15.3 -70.65 3.7 -75.6 3.15 -75.9 1.0 -74.8 -1.15 -73.6 -1.3 -73.75 -1.7 -73.7 -7.0 -76.75 L-12.25 -79.6 Q-14.1 -72.5 -11.25 -61.05 -9.9 -55.1 -7.55 -49.3 L-6.05 -45.65 -5.95 -45.65 Q0.45 -28.65 10.9 -21.35 14.65 -18.7 18.4 -17.65 21.35 -16.8 23.3 -17.25 L23.4 -17.25 23.95 -17.3 24.2 -17.4" fill="#1a0a00" fill-rule="evenodd" stroke="none"/>
      <path d="M18.1 30.3 L22.55 29.75 Q26.0 29.65 28.3 30.5 30.25 31.25 31.2 31.75 32.6 32.65 33.25 33.8 34.4 35.8 34.4 36.8 34.4 41.95 33.4 42.25 29.3 43.45 23.35 43.45 15.3 43.35 12.75 40.0 12.35 39.45 12.4 37.3 12.45 35.4 12.75 34.45 13.05 33.15 14.4 32.1 15.85 30.95 18.1 30.3 M17.75 31.4 Q13.9 32.4 13.3 34.45 12.55 37.2 14.55 38.95 16.4 40.5 20.95 41.6 L21.05 41.65 21.15 41.65 Q21.8 40.3 21.25 37.95 22.25 38.0 22.9 38.6 23.95 39.6 24.3 42.0 L24.35 42.0 27.5 41.85 27.6 41.85 Q28.2 39.15 26.7 37.9 28.1 37.6 29.0 38.35 30.0 39.2 30.35 41.4 31.95 40.95 32.65 40.25 33.35 38.6 33.25 37.15 L33.2 37.0 Q33.1 35.7 32.45 34.5 31.05 32.1 28.0 31.25 24.2 30.1 19.2 31.1 L18.3 31.3 17.75 31.4" fill="#4b3501" fill-rule="evenodd" stroke="none"/>
      <path d="M21.25 37.95 Q21.8 40.3 21.15 41.65 L21.05 41.65 20.95 41.6 Q16.4 40.5 14.55 38.95 12.55 37.2 13.3 34.45 13.9 32.4 17.75 31.4 13.6 34.9 21.25 37.95 M33.25 37.15 Q33.35 38.6 32.65 40.25 31.95 40.95 30.35 41.4 30.0 39.2 29.0 38.35 31.65 38.2 33.25 37.15 M26.7 37.9 Q28.2 39.15 27.6 41.85 L27.5 41.85 24.35 42.0 24.3 42.0 Q23.95 39.6 22.9 38.6 25.55 38.95 26.7 37.9" fill="#d29402" fill-rule="evenodd" stroke="none"/>
      <path d="M17.75 31.4 L18.3 31.3 19.2 31.1 Q24.2 30.1 28.0 31.25 31.05 32.1 32.45 34.5 33.1 35.7 33.2 37.0 L33.25 37.15 Q31.65 38.2 29.0 38.35 28.1 37.6 26.7 37.9 25.55 38.95 22.9 38.6 22.25 38.0 21.25 37.95 13.6 34.9 17.75 31.4" fill="#fec94e" fill-rule="evenodd" stroke="none"/>
      <path d="M28.95 32.0 Q30.25 32.7 30.25 33.55 30.25 34.4 28.95 34.8 L25.85 34.95 Q24.05 34.7 22.75 33.95 21.5 33.2 21.5 32.35 21.5 31.5 22.75 31.15 L25.85 30.95 Q27.7 31.2 28.95 32.0" fill="#feda89" fill-rule="evenodd" stroke="none"/>
      <path d="M31.8 -27.0 L32.35 -25.9 Q34.6 -21.35 34.95 -15.6 35.35 -9.75 33.65 -4.35 32.25 0.3 29.45 3.25 L26.8 5.45 Q21.8 8.6 15.3 7.0 11.05 5.9 8.15 -0.4 5.45 -6.35 5.25 -13.95 5.1 -18.4 5.9 -22.1 6.55 -25.0 7.7 -27.5 10.75 -33.8 16.6 -34.8 L20.15 -34.95 Q24.55 -33.2 28.2 -30.3 L31.8 -27.0" fill="#e8d3b2" fill-rule="evenodd" stroke="none"/>
      <path d="M20.15 -34.95 L16.6 -34.8 Q10.75 -33.8 7.7 -27.5 6.55 -25.0 5.9 -22.1 5.1 -18.4 5.25 -13.95 5.45 -6.35 8.15 -0.4 11.05 5.9 15.3 7.0 21.8 8.6 26.8 5.45 L29.45 3.25 Q32.25 0.3 33.65 -4.35 35.35 -9.75 34.95 -15.6 34.6 -21.35 32.35 -25.9 L31.8 -27.0 Q34.55 -24.0 36.85 -19.0 L37.2 -18.25 37.75 -13.6 Q38.2 -6.35 36.15 0.45 34.35 6.25 30.85 9.9 L27.55 12.65 Q21.25 16.65 13.25 14.55 7.85 13.25 4.25 5.35 0.9 -2.1 0.65 -11.6 0.45 -17.15 1.45 -21.8 2.2 -25.4 3.7 -28.5 6.75 -34.9 12.2 -36.9 L12.7 -36.85 12.9 -36.85 12.95 -36.95 13.55 -36.95 Q17.05 -36.25 20.15 -34.95" fill="#b19677" fill-rule="evenodd" stroke="none"/>
      <path d="M31.8 -27.0 L28.2 -30.3 Q24.55 -33.2 20.15 -34.95 17.05 -36.25 13.55 -36.95 L12.95 -36.95 12.9 -36.85 12.7 -36.85 12.2 -36.9 7.95 -37.45 Q0.2 -38.05 -6.15 -35.0 -10.75 -32.9 -14.65 -28.9 L-14.6 -28.9 -15.3 -28.15 -15.8 -27.6 Q-23.1 -19.35 -25.85 -6.35 -28.7 7.1 -25.4 18.75 -21.9 31.1 -13.0 35.05 0.45 40.9 12.8 37.7 24.7 34.5 32.1 23.8 L34.3 20.35 36.65 15.65 36.9 15.0 Q38.9 10.05 39.8 4.75 41.5 -5.5 38.6 -14.65 L37.2 -18.25 36.85 -19.0 Q34.55 -24.0 31.8 -27.0 M7.9 -38.75 L12.75 -38.1 Q31.35 -35.1 38.7 -19.0 L40.5 -14.4 Q44.05 -3.45 42.6 6.15 41.5 13.35 38.05 20.9 L34.8 26.95 Q30.9 32.65 25.1 36.65 19.45 40.65 13.05 42.35 6.65 44.0 -0.65 43.15 -7.7 42.25 -15.0 39.05 -19.75 37.0 -23.3 32.25 -26.75 27.65 -28.65 20.95 -32.0 9.25 -28.85 -5.65 -26.0 -19.1 -17.0 -28.85 L-16.25 -29.6 Q-12.1 -33.85 -7.2 -36.15 -0.4 -39.35 7.9 -38.75" fill="#3a1701" fill-rule="evenodd" stroke="none"/>
      <path d="M12.2 -36.9 Q6.75 -34.9 3.7 -28.5 2.2 -25.4 1.45 -21.8 0.45 -17.15 0.65 -11.6 0.9 -2.1 4.25 5.35 7.85 13.25 13.25 14.55 21.25 16.65 27.55 12.65 L30.85 9.9 Q34.35 6.25 36.15 0.45 38.2 -6.35 37.75 -13.6 L37.2 -18.25 38.6 -14.65 Q41.5 -5.5 39.8 4.75 38.9 10.05 36.9 15.0 L36.65 15.65 Q32.6 20.0 27.55 22.6 24.35 24.25 20.7 25.2 8.3 28.45 -5.25 22.55 -14.25 18.55 -17.8 6.1 -21.1 -5.6 -18.25 -19.1 -17.3 -23.65 -15.8 -27.6 L-15.3 -28.15 -14.6 -28.9 -14.65 -28.9 Q-10.75 -32.9 -6.15 -35.0 0.2 -38.05 7.95 -37.45 L12.2 -36.9" fill="#9e4300" fill-rule="evenodd" stroke="none"/>
      <path d="M-15.8 -27.6 Q-17.3 -23.65 -18.25 -19.1 -21.1 -5.6 -17.8 6.1 -14.25 18.55 -5.25 22.55 8.3 28.45 20.7 25.2 24.35 24.25 27.55 22.6 32.6 20.0 36.65 15.65 L34.3 20.35 32.1 23.8 Q24.7 34.5 12.8 37.7 0.45 40.9 -13.0 35.05 -21.9 31.1 -25.4 18.75 -28.7 7.1 -25.85 -6.35 -23.1 -19.35 -15.8 -27.6" fill="#6e320b" fill-rule="evenodd" stroke="none"/>
      <path d="M18.35 -16.25 Q9.75 -12.9 4.9 -13.15 -3.25 -13.6 -8.95 -18.35 -14.3 -22.75 -14.95 -29.9 -15.5 -37.5 -10.65 -43.7 -12.85 -45.1 -13.65 -47.95 -14.0 -49.05 -14.2 -53.05 L-14.35 -56.85 -11.0 -54.75 Q-7.15 -52.75 -3.85 -52.7 L23.9 -53.9 Q26.2 -54.2 29.55 -55.6 32.9 -57.05 34.1 -58.25 35.75 -54.35 35.45 -52.7 34.8 -49.3 33.6 -47.75 L37.0 -43.9 Q39.55 -40.6 40.1 -38.6 41.7 -33.05 39.45 -26.7 37.75 -22.05 31.45 -19.45 33.65 -20.95 35.35 -23.9 38.9 -30.1 38.85 -33.7 38.85 -36.45 38.3 -37.7 L38.3 -37.8 38.25 -37.85 37.75 -39.5 Q34.5 -46.0 30.0 -47.85 L29.2 -48.15 27.2 -48.6 Q24.1 -48.9 21.15 -46.9 L20.4 -46.4 Q24.85 -51.35 30.95 -48.8 32.0 -50.2 32.6 -52.15 L33.3 -55.7 Q32.25 -54.15 30.3 -53.05 28.35 -51.95 20.85 -51.05 13.3 -50.1 -4.5 -50.5 L-8.65 -50.95 Q-10.75 -51.65 -12.0 -53.35 -12.25 -49.95 -9.95 -47.05 L-7.1 -44.0 Q-12.9 -37.2 -12.4 -30.3 -12.1 -27.0 -10.9 -24.55 -9.55 -21.95 -7.0 -19.85 -4.1 -17.45 -1.3 -16.25 1.9 -14.9 5.7 -14.7 10.8 -14.4 18.3 -16.25 L18.35 -16.25 M9.8 -49.4 L5.3 -48.75 Q-4.4 -46.4 -6.5 -37.85 -9.2 -26.65 -1.1 -20.5 4.35 -16.3 12.65 -16.05 3.25 -15.9 -2.8 -20.5 -10.9 -26.65 -8.2 -37.85 -6.1 -46.4 3.65 -48.75 L9.8 -49.4" fill="#3a1701" fill-rule="evenodd" stroke="none"/>
      <path d="M18.3 -16.25 Q10.8 -14.4 5.7 -14.7 1.9 -14.9 -1.3 -16.25 -4.1 -17.45 -7.0 -19.85 -9.55 -21.95 -10.9 -24.55 -12.1 -27.0 -12.4 -30.3 -12.9 -37.2 -7.1 -44.0 L-9.95 -47.05 Q-12.25 -49.95 -12.0 -53.35 -10.75 -51.65 -8.65 -50.95 L-4.5 -50.5 Q13.3 -50.1 20.85 -51.05 28.35 -51.95 30.3 -53.05 32.25 -54.15 33.3 -55.7 L32.6 -52.15 Q32.0 -50.2 30.95 -48.8 24.85 -51.35 20.4 -46.4 16.85 -48.55 12.35 -49.15 L9.8 -49.4 3.65 -48.75 Q-6.1 -46.4 -8.2 -37.85 -10.9 -26.65 -2.8 -20.5 3.25 -15.9 12.65 -16.05 L18.3 -16.25" fill="#dcc1a2" fill-rule="evenodd" stroke="none"/>
      <path d="M18.35 -16.25 L18.3 -16.25 12.65 -16.05 Q4.35 -16.3 -1.1 -20.5 -9.2 -26.65 -6.5 -37.85 -4.4 -46.4 5.3 -48.75 L9.8 -49.4 12.35 -49.15 Q16.85 -48.55 20.4 -46.4 L21.15 -46.9 Q24.1 -48.9 27.2 -48.6 L29.2 -48.15 30.0 -47.85 Q34.5 -46.0 37.75 -39.5 L38.25 -37.85 38.3 -37.8 38.3 -37.7 Q38.85 -36.45 38.85 -33.7 38.9 -30.1 35.35 -23.9 33.65 -20.95 31.45 -19.45 30.4 -18.75 24.6 -17.45 L18.35 -16.25" fill="#fdf0dd" fill-rule="evenodd" stroke="none"/>
      <path d="M34.8 -33.4 Q34.85 -30.85 34.1 -28.7 31.8 -22.45 23.85 -22.9 L20.8 -21.5 Q11.05 -19.9 5.45 -24.2 -0.2 -28.5 1.7 -36.3 3.15 -42.3 9.95 -43.95 L16.05 -44.2 Q19.25 -43.8 21.7 -42.3 24.65 -44.55 27.9 -43.55 31.75 -42.3 34.4 -36.35 34.8 -35.45 34.8 -33.4" fill="#d5bd92" fill-rule="evenodd" stroke="none"/>
      <path d="M26.4 -29.6 Q24.65 -30.65 22.3 -31.45 29.9 -27.05 30.55 -19.35 31.45 -22.1 30.85 -24.35 32.2 -20.85 30.1 -16.6 L29.8 -17.2 Q28.35 -23.8 20.8 -24.45 19.85 -27.55 21.65 -31.05 L22.55 -31.9 Q24.75 -30.8 26.4 -29.6" fill="#ffca23" fill-rule="evenodd" stroke="none"/>
      <path d="M22.5 -32.95 L24.15 -32.15 27.4 -30.15 Q29.35 -28.85 31.5 -25.6 33.6 -22.4 30.3 -14.7 26.05 -21.95 19.95 -21.25 17.35 -28.1 22.5 -32.95 M26.4 -29.6 Q24.75 -30.8 22.55 -31.9 L21.65 -31.05 Q18.2 -27.55 20.15 -22.7 26.85 -22.4 29.8 -17.2 L30.1 -16.6 Q32.2 -20.85 30.85 -24.35 L30.7 -24.75 Q29.5 -27.4 26.4 -29.6" fill="#322301" fill-rule="evenodd" stroke="none"/>
      <path d="M30.85 -24.35 Q31.45 -22.1 30.55 -19.35 29.9 -27.05 22.3 -31.45 24.65 -30.65 26.4 -29.6 29.5 -27.4 30.7 -24.75 L30.85 -24.35" fill="#fedf9a" fill-rule="evenodd" stroke="none"/>
      <path d="M21.65 -31.05 Q19.85 -27.55 20.8 -24.45 28.35 -23.8 29.8 -17.2 26.85 -22.4 20.15 -22.7 18.2 -27.55 21.65 -31.05" fill="#f4ab02" fill-rule="evenodd" stroke="none"/>
      <path d="M9.5 -29.7 Q8.05 -31.0 9.5 -34.1 L4.5 -36.55 15.05 -35.3 18.85 -37.15 17.6 -34.8 Q18.05 -32.55 17.15 -31.0 16.15 -29.4 13.85 -28.95 11.05 -28.4 9.5 -29.7 M11.95 -34.1 Q15.2 -30.6 17.05 -34.8 L11.95 -34.1" fill="#000000" fill-rule="evenodd" stroke="none"/>
      <path d="M11.95 -34.1 L17.05 -34.8 Q15.2 -30.6 11.95 -34.1" fill="#ffffff" fill-rule="evenodd" stroke="none"/>
      <path d="M26.8 -32.85 Q25.8 -33.9 25.85 -35.85 L24.45 -37.15 26.75 -36.65 34.4 -38.6 32.45 -36.5 Q32.8 -34.3 32.0 -33.3 31.2 -32.2 29.8 -32.05 27.8 -31.85 26.8 -32.85 M28.4 -36.0 Q30.65 -33.3 32.15 -35.8 L28.4 -36.0" fill="#000000" fill-rule="evenodd" stroke="none"/>
      <path d="M28.4 -36.0 L32.15 -35.8 Q30.65 -33.3 28.4 -36.0" fill="#ffffff" fill-rule="evenodd" stroke="none"/>
      <path d="M8.9 39.3 L8.85 39.15 Q8.75 37.7 8.0 36.4 6.45 33.7 3.05 32.75 -1.15 31.5 -6.7 32.6 L-7.7 32.85 -8.3 32.95 Q-12.6 34.05 -13.25 36.35 -14.1 39.4 -11.9 41.35 -9.85 43.05 -4.75 44.25 L-4.65 44.3 -4.55 44.3 Q-3.85 42.85 -4.45 40.2 -3.35 40.25 -2.6 40.95 -1.45 42.05 -1.05 44.7 L-1.0 44.7 2.5 44.55 2.6 44.55 Q3.3 41.55 1.6 40.15 3.2 39.85 4.15 40.65 5.3 41.6 5.65 44.05 7.45 43.55 8.25 42.75 9.0 40.95 8.9 39.3 M8.9 35.6 Q10.15 37.85 10.2 38.95 10.2 44.65 9.05 45.0 4.5 46.35 -2.1 46.3 -11.05 46.2 -13.9 42.5 -14.35 41.9 -14.25 39.5 L-13.9 36.3 Q-13.55 34.9 -12.05 33.7 -10.45 32.45 -7.95 31.7 L-3.0 31.1 Q0.85 31.0 3.4 31.95 L6.6 33.35 Q8.15 34.3 8.9 35.6" fill="#4b3501" fill-rule="evenodd" stroke="none"/>
      <path d="M-8.3 32.95 L-7.7 32.85 -6.7 32.6 Q-1.15 31.5 3.05 32.75 6.45 33.7 8.0 36.4 8.75 37.7 8.85 39.15 L8.9 39.3 Q7.1 40.5 4.15 40.65 3.2 39.85 1.6 40.15 0.35 41.35 -2.6 40.95 -3.35 40.25 -4.45 40.2 -12.95 36.8 -8.3 32.95" fill="#fec94e" fill-rule="evenodd" stroke="none"/>
      <path d="M8.9 39.3 Q9.0 40.95 8.25 42.75 7.45 43.55 5.65 44.05 5.3 41.6 4.15 40.65 7.1 40.5 8.9 39.3 M1.6 40.15 Q3.3 41.55 2.6 44.55 L2.5 44.55 -1.0 44.7 -1.05 44.7 Q-1.45 42.05 -2.6 40.95 0.35 41.35 1.6 40.15 M-4.45 40.2 Q-3.85 42.85 -4.55 44.3 L-4.65 44.3 -4.75 44.25 Q-9.85 43.05 -11.9 41.35 -14.1 39.4 -13.25 36.35 -12.6 34.05 -8.3 32.95 -12.95 36.8 -4.45 40.2" fill="#d29402" fill-rule="evenodd" stroke="none"/>
      <path d="M4.15 33.55 Q5.6 34.35 5.6 35.3 5.6 36.25 4.15 36.65 L0.7 36.8 Q-1.3 36.55 -2.75 35.7 -4.15 34.9 -4.15 33.95 -4.15 33.0 -2.75 32.6 L0.7 32.4 Q2.75 32.7 4.15 33.55" fill="#feda89" fill-rule="evenodd" stroke="none"/>
      <path d="M-38.3 -66.35 Q-30.8 -61.9 -25.4 -56.3 -15.75 -46.15 -11.85 -34.45 -9.1 -26.6 -10.05 -18.75 -11.3 -8.3 -19.1 -4.6 -26.6 -1.0 -34.4 -4.6 -39.1 -6.7 -44.9 -12.3 -50.4 -17.55 -56.55 -27.55 -64.4 -40.55 -67.85 -53.95 -69.35 -59.9 -70.9 -70.0 -72.25 -79.15 -71.95 -79.45 -59.6 -72.7 -56.8 -70.7 L-56.75 -70.7 -55.35 -72.05 -53.95 -73.7 Q-44.25 -69.8 -38.3 -66.35 M-22.7 -5.9 Q-15.2 -8.25 -13.1 -16.1 -11.0 -23.7 -14.65 -33.8 -18.4 -44.2 -27.15 -53.1 -36.7 -63.0 -49.6 -68.15 -50.25 -68.5 -52.45 -67.25 -54.7 -66.0 -54.85 -66.05 -55.3 -66.05 -61.3 -69.25 -67.05 -72.35 -67.15 -72.25 -68.6 -64.65 -64.6 -52.3 -62.65 -45.95 -59.65 -39.75 L-57.7 -35.8 -57.6 -35.8 Q-49.3 -17.65 -37.45 -9.9 -33.15 -7.05 -29.0 -6.05 -25.7 -5.2 -23.7 -5.7 L-23.6 -5.7 -22.95 -5.8 -22.7 -5.9" fill="#3a1701" fill-rule="evenodd" stroke="none"/>
      <path d="M-59.65 -39.75 Q-62.65 -45.95 -64.6 -52.3 -68.6 -64.65 -67.15 -72.25 -67.05 -72.35 -61.3 -69.25 -55.3 -66.05 -54.85 -66.05 -54.7 -66.0 -52.45 -67.25 -50.25 -68.5 -49.6 -68.15 -36.7 -63.0 -27.15 -53.1 -18.4 -44.2 -14.65 -33.8 -11.0 -23.7 -13.1 -16.1 -15.2 -8.25 -22.7 -5.9 -17.3 -9.4 -16.05 -14.95 -14.8 -20.65 -17.65 -29.35 -22.55 -43.7 -32.5 -49.15 -36.65 -51.35 -40.05 -50.9 -43.45 -50.5 -44.6 -47.65 -49.45 -51.15 -52.15 -50.9 -55.0 -50.65 -54.55 -46.3 -60.05 -50.45 -61.1 -47.55 -61.85 -45.4 -59.65 -39.75" fill="#6e3200" fill-rule="evenodd" stroke="none"/>
      <path d="M-59.65 -39.75 Q-61.85 -45.4 -61.1 -47.55 -60.05 -50.45 -54.55 -46.3 -55.0 -50.65 -52.15 -50.9 -49.45 -51.15 -44.6 -47.65 -43.45 -50.5 -40.05 -50.9 -36.65 -51.35 -32.5 -49.15 -22.55 -43.7 -17.65 -29.35 -14.8 -20.65 -16.05 -14.95 -17.3 -9.4 -22.7 -5.9 L-22.95 -5.8 -23.6 -5.7 -23.7 -5.7 Q-25.7 -5.2 -29.0 -6.05 -33.15 -7.05 -37.45 -9.9 -49.3 -17.65 -57.6 -35.8 L-57.7 -35.8 -59.65 -39.75" fill="#9e4300" fill-rule="evenodd" stroke="none"/>
    </g>
  </defs>
</svg>
