<?xml version="1.0" encoding="UTF-8" standalone="no"?>
<svg xmlns:ffdec="https://www.free-decompiler.com/flash" xmlns:xlink="http://www.w3.org/1999/xlink" ffdec:objectType="frame" height="149.5px" width="124.8px" xmlns="http://www.w3.org/2000/svg">
  <g transform="matrix(1.0, 0.0, 0.0, 1.0, 72.0, 86.3)">
    <use ffdec:characterId="405" height="118.8" transform="matrix(1.0, 0.0, 0.0, 1.0, -52.8, -67.7)" width="95.8" xlink:href="#shape0"/>
  </g>
  <defs>
    <g id="shape0" transform="matrix(1.0, 0.0, 0.0, 1.0, 52.8, 67.7)">
      <path d="M-9.65 31.65 Q-26.3 44.25 -47.15 48.0 -36.05 42.4 -23.6 34.4 -27.45 36.5 -32.5 38.3 -37.6 40.15 -46.9 41.6 L-46.6 41.4 -46.0 41.05 Q-30.55 37.7 -16.55 24.1 L-9.65 31.65" fill="#6e3200" fill-rule="evenodd" stroke="none"/>
      <path d="M-46.0 41.05 Q-29.2 30.5 -22.0 15.45 L-16.55 24.1 Q-30.55 37.7 -46.0 41.05" fill="#9e4300" fill-rule="evenodd" stroke="none"/>
      <path d="M-46.0 41.05 L-46.6 41.4 -46.9 41.6 Q-37.6 40.15 -32.5 38.3 -27.45 36.5 -23.6 34.4 -36.05 42.4 -47.15 48.0 -26.3 44.25 -9.65 31.65 L-7.85 33.65 Q-24.4 44.5 -38.35 48.05 -52.35 51.6 -52.65 51.0 -52.95 50.35 -49.1 47.8 L-40.95 42.45 -52.8 44.15 Q-35.6 30.7 -25.35 10.1 L-22.0 15.45 Q-29.2 30.5 -46.0 41.05" fill="#3a1701" fill-rule="evenodd" stroke="none"/>
      <path d="M12.75 35.85 Q13.05 34.55 14.4 33.5 15.85 32.35 18.1 31.7 L22.55 31.15 Q26.0 31.05 28.3 31.9 30.25 32.65 31.2 33.15 32.6 34.05 33.25 35.2 34.4 37.2 34.4 38.2 34.4 43.35 33.4 43.65 29.3 44.85 23.35 44.85 15.3 44.75 12.75 41.4 12.35 40.85 12.4 38.7 12.45 36.8 12.75 35.85 M17.75 32.8 Q13.9 33.8 13.3 35.85 12.55 38.6 14.55 40.35 16.4 41.9 20.95 43.0 L21.05 43.05 21.15 43.05 Q21.8 41.7 21.25 39.35 22.25 39.4 22.9 40.0 23.95 41.0 24.3 43.4 L24.35 43.4 27.5 43.25 27.6 43.25 Q28.2 40.55 26.7 39.3 28.1 39.0 29.0 39.75 30.0 40.6 30.35 42.8 31.95 42.35 32.65 41.65 33.35 40.0 33.25 38.55 L33.2 38.4 Q33.1 37.1 32.45 35.9 31.05 33.5 28.0 32.65 24.2 31.5 19.2 32.5 L18.3 32.7 17.75 32.8" fill="#4b3501" fill-rule="evenodd" stroke="none"/>
      <path d="M21.25 39.35 Q21.8 41.7 21.15 43.05 L21.05 43.05 20.95 43.0 Q16.4 41.9 14.55 40.35 12.55 38.6 13.3 35.85 13.9 33.8 17.75 32.8 13.6 36.3 21.25 39.35 M33.25 38.55 Q33.35 40.0 32.65 41.65 31.95 42.35 30.35 42.8 30.0 40.6 29.0 39.75 31.65 39.6 33.25 38.55 M26.7 39.3 Q28.2 40.55 27.6 43.25 L27.5 43.25 24.35 43.4 24.3 43.4 Q23.95 41.0 22.9 40.0 25.55 40.35 26.7 39.3" fill="#d29402" fill-rule="evenodd" stroke="none"/>
      <path d="M17.75 32.8 L18.3 32.7 19.2 32.5 Q24.2 31.5 28.0 32.65 31.05 33.5 32.45 35.9 33.1 37.1 33.2 38.4 L33.25 38.55 Q31.65 39.6 29.0 39.75 28.1 39.0 26.7 39.3 25.55 40.35 22.9 40.0 22.25 39.4 21.25 39.35 13.6 36.3 17.75 32.8" fill="#fec94e" fill-rule="evenodd" stroke="none"/>
      <path d="M28.95 33.4 Q30.25 34.1 30.25 34.95 30.25 35.8 28.95 36.2 L25.85 36.35 Q24.05 36.1 22.75 35.35 21.5 34.6 21.5 33.75 21.5 32.9 22.75 32.55 L25.85 32.35 Q27.7 32.6 28.95 33.4" fill="#feda89" fill-rule="evenodd" stroke="none"/>
      <path d="M7.4 -38.7 Q7.0 -43.25 7.4 -47.85 8.05 -56.9 11.35 -62.45 L14.8 -60.15 Q18.3 -57.75 18.6 -57.8 L20.8 -58.65 Q22.75 -59.5 23.15 -59.3 31.2 -55.35 35.35 -48.05 39.1 -41.5 38.9 -33.85 38.65 -26.5 34.85 -20.95 31.0 -15.25 24.75 -13.6 29.8 -16.1 32.3 -20.15 34.95 -24.25 35.4 -30.65 35.95 -41.2 30.15 -45.2 27.75 -46.9 25.1 -46.6 22.55 -46.35 20.8 -44.3 18.25 -46.9 16.2 -46.75 14.0 -46.55 13.05 -43.4 10.25 -46.5 8.65 -44.4 7.4 -42.8 7.4 -38.7" fill="#4b1f01" fill-rule="evenodd" stroke="none"/>
      <path d="M24.75 -13.6 Q31.0 -15.25 34.85 -20.95 38.65 -26.5 38.9 -33.85 39.1 -41.5 35.35 -48.05 31.2 -55.35 23.15 -59.3 22.75 -59.5 20.8 -58.65 L18.6 -57.8 Q18.3 -57.75 14.8 -60.15 L11.35 -62.45 Q8.05 -56.9 7.4 -47.85 7.0 -43.25 7.4 -38.7 L7.65 -35.75 7.75 -35.8 Q8.55 -22.5 15.05 -16.7 17.4 -14.6 20.15 -13.8 L24.0 -13.5 24.55 -13.55 24.75 -13.6 M7.9 -60.85 Q9.6 -67.55 9.95 -67.7 17.1 -62.65 18.5 -61.2 L18.6 -61.2 20.0 -62.1 21.6 -63.4 Q27.55 -60.4 30.95 -57.8 35.2 -54.55 37.55 -50.35 41.7 -42.85 41.15 -34.35 40.85 -28.55 37.8 -22.85 33.85 -15.25 27.05 -12.6 20.45 -10.1 15.75 -12.8 12.85 -14.4 10.25 -18.55 7.7 -22.4 6.1 -29.75 4.1 -39.3 5.5 -49.15 6.15 -53.45 7.9 -60.85" fill="#1a0a00" fill-rule="evenodd" stroke="none"/>
      <path d="M7.4 -38.7 Q7.4 -42.8 8.65 -44.4 10.25 -46.5 13.05 -43.4 14.0 -46.55 16.2 -46.75 18.25 -46.9 20.8 -44.3 22.55 -46.35 25.1 -46.6 27.75 -46.9 30.15 -45.2 35.95 -41.2 35.4 -30.65 34.95 -24.25 32.3 -20.15 29.8 -16.1 24.75 -13.6 L24.55 -13.55 24.0 -13.5 20.15 -13.8 Q17.4 -14.6 15.05 -16.7 8.55 -22.5 7.75 -35.8 L7.65 -35.75 7.4 -38.7" fill="#763001" fill-rule="evenodd" stroke="none"/>
      <path d="M20.15 -33.55 Q24.55 -31.8 28.2 -28.9 L31.8 -25.6 32.35 -24.5 Q34.6 -19.95 34.95 -14.2 35.35 -8.35 33.65 -2.95 32.25 1.7 29.45 4.65 L26.8 6.85 Q21.8 10.0 15.3 8.4 11.05 7.3 8.15 1.0 5.45 -4.95 5.25 -12.55 5.1 -17.0 5.9 -20.7 6.55 -23.6 7.7 -26.1 10.75 -32.4 16.6 -33.4 L20.15 -33.55" fill="#e8d3b2" fill-rule="evenodd" stroke="none"/>
      <path d="M31.8 -25.6 L28.2 -28.9 Q24.55 -31.8 20.15 -33.55 17.05 -34.85 13.55 -35.55 L12.95 -35.55 12.9 -35.45 12.7 -35.45 12.2 -35.5 7.95 -36.05 Q0.2 -36.65 -6.15 -33.6 -10.75 -31.5 -14.65 -27.5 L-14.6 -27.5 -15.3 -26.75 -15.8 -26.2 Q-23.1 -17.95 -25.85 -4.95 -28.7 8.5 -25.4 20.15 -21.9 32.5 -13.0 36.45 0.45 42.3 12.8 39.1 24.7 35.9 32.1 25.2 L34.3 21.75 36.65 17.05 36.9 16.4 Q38.9 11.45 39.8 6.15 41.5 -4.1 38.6 -13.25 L37.2 -16.85 36.85 -17.6 Q34.55 -22.6 31.8 -25.6 M7.9 -37.35 L12.75 -36.7 Q31.35 -33.7 38.7 -17.6 L40.5 -13.0 Q44.05 -2.05 42.6 7.55 41.5 14.75 38.05 22.3 L34.8 28.35 Q30.9 34.05 25.1 38.05 19.45 42.05 13.05 43.75 6.65 45.4 -0.65 44.55 -7.7 43.65 -15.0 40.45 -19.75 38.4 -23.3 33.65 -26.75 29.05 -28.65 22.35 -32.0 10.65 -28.85 -4.25 -26.0 -17.7 -17.0 -27.45 L-16.25 -28.2 Q-12.1 -32.45 -7.2 -34.75 -0.4 -37.95 7.9 -37.35" fill="#3a1701" fill-rule="evenodd" stroke="none"/>
      <path d="M20.15 -33.55 L16.6 -33.4 Q10.75 -32.4 7.7 -26.1 6.55 -23.6 5.9 -20.7 5.1 -17.0 5.25 -12.55 5.45 -4.95 8.15 1.0 11.05 7.3 15.3 8.4 21.8 10.0 26.8 6.85 L29.45 4.65 Q32.25 1.7 33.65 -2.95 35.35 -8.35 34.95 -14.2 34.6 -19.95 32.35 -24.5 L31.8 -25.6 Q34.55 -22.6 36.85 -17.6 L37.2 -16.85 37.75 -12.2 Q38.2 -4.95 36.15 1.85 34.35 7.65 30.85 11.3 L27.55 14.05 Q21.25 18.05 13.25 15.95 7.85 14.65 4.25 6.75 0.9 -0.7 0.65 -10.2 0.45 -15.75 1.45 -20.4 2.2 -24.0 3.7 -27.1 6.75 -33.5 12.2 -35.5 L12.7 -35.45 12.9 -35.45 12.95 -35.55 13.55 -35.55 Q17.05 -34.85 20.15 -33.55" fill="#b19677" fill-rule="evenodd" stroke="none"/>
      <path d="M37.2 -16.85 L38.6 -13.25 Q41.5 -4.1 39.8 6.15 38.9 11.45 36.9 16.4 L36.65 17.05 Q32.6 21.4 27.55 24.0 24.35 25.65 20.7 26.6 8.3 29.85 -5.25 23.95 -14.25 19.95 -17.8 7.5 -21.1 -4.2 -18.25 -17.7 -17.3 -22.25 -15.8 -26.2 L-15.3 -26.75 -14.6 -27.5 -14.65 -27.5 Q-10.75 -31.5 -6.15 -33.6 0.2 -36.65 7.95 -36.05 L12.2 -35.5 Q6.75 -33.5 3.7 -27.1 2.2 -24.0 1.45 -20.4 0.45 -15.75 0.65 -10.2 0.9 -0.7 4.25 6.75 7.85 14.65 13.25 15.95 21.25 18.05 27.55 14.05 L30.85 11.3 Q34.35 7.65 36.15 1.85 38.2 -4.95 37.75 -12.2 L37.2 -16.85" fill="#9e4300" fill-rule="evenodd" stroke="none"/>
      <path d="M36.65 17.05 L34.3 21.75 32.1 25.2 Q24.7 35.9 12.8 39.1 0.45 42.3 -13.0 36.45 -21.9 32.5 -25.4 20.15 -28.7 8.5 -25.85 -4.95 -23.1 -17.95 -15.8 -26.2 -17.3 -22.25 -18.25 -17.7 -21.1 -4.2 -17.8 7.5 -14.25 19.95 -5.25 23.95 8.3 29.85 20.7 26.6 24.35 25.65 27.55 24.0 32.6 21.4 36.65 17.05" fill="#6e320b" fill-rule="evenodd" stroke="none"/>
      <path d="M8.9 37.0 Q10.15 39.25 10.2 40.35 10.2 46.05 9.05 46.4 4.5 47.75 -2.1 47.7 -11.05 47.6 -13.9 43.9 -14.35 43.3 -14.25 40.9 L-13.9 37.7 Q-13.55 36.3 -12.05 35.1 -10.45 33.85 -7.95 33.1 L-3.0 32.5 Q0.85 32.4 3.4 33.35 L6.6 34.75 Q8.15 35.7 8.9 37.0 M8.9 40.7 L8.85 40.55 Q8.75 39.1 8.0 37.8 6.45 35.1 3.05 34.15 -1.15 32.9 -6.7 34.0 L-7.7 34.25 -8.3 34.35 Q-12.6 35.45 -13.25 37.75 -14.1 40.8 -11.9 42.75 -9.85 44.45 -4.75 45.65 L-4.65 45.7 -4.55 45.7 Q-3.85 44.25 -4.45 41.6 -3.35 41.65 -2.6 42.35 -1.45 43.45 -1.05 46.1 L-1.0 46.1 2.5 45.95 2.6 45.95 Q3.3 42.95 1.6 41.55 3.2 41.25 4.15 42.05 5.3 43.0 5.65 45.45 7.45 44.95 8.25 44.15 9.0 42.35 8.9 40.7" fill="#4b3501" fill-rule="evenodd" stroke="none"/>
      <path d="M-8.3 34.35 L-7.7 34.25 -6.7 34.0 Q-1.15 32.9 3.05 34.15 6.45 35.1 8.0 37.8 8.75 39.1 8.85 40.55 L8.9 40.7 Q7.1 41.9 4.15 42.05 3.2 41.25 1.6 41.55 0.35 42.75 -2.6 42.35 -3.35 41.65 -4.45 41.6 -12.95 38.2 -8.3 34.35" fill="#fec94e" fill-rule="evenodd" stroke="none"/>
      <path d="M8.9 40.7 Q9.0 42.35 8.25 44.15 7.45 44.95 5.65 45.45 5.3 43.0 4.15 42.05 7.1 41.9 8.9 40.7 M1.6 41.55 Q3.3 42.95 2.6 45.95 L2.5 45.95 -1.0 46.1 -1.05 46.1 Q-1.45 43.45 -2.6 42.35 0.35 42.75 1.6 41.55 M-4.45 41.6 Q-3.85 44.25 -4.55 45.7 L-4.65 45.7 -4.75 45.65 Q-9.85 44.45 -11.9 42.75 -14.1 40.8 -13.25 37.75 -12.6 35.45 -8.3 34.35 -12.95 38.2 -4.45 41.6" fill="#d29402" fill-rule="evenodd" stroke="none"/>
      <path d="M4.15 34.95 Q5.6 35.75 5.6 36.7 5.6 37.65 4.15 38.05 L0.7 38.2 Q-1.3 37.95 -2.75 37.1 -4.15 36.3 -4.15 35.35 -4.15 34.4 -2.75 34.0 L0.7 33.8 Q2.75 34.1 4.15 34.95" fill="#feda89" fill-rule="evenodd" stroke="none"/>
      <path d="M18.3 -16.85 Q10.8 -15.0 5.7 -15.3 1.9 -15.5 -1.3 -16.85 -4.1 -18.05 -7.0 -20.45 -9.55 -22.55 -10.9 -25.15 -12.1 -27.6 -12.4 -30.9 -12.9 -37.8 -7.1 -44.6 L-9.95 -47.65 Q-12.25 -50.55 -12.0 -53.95 -10.75 -52.25 -8.65 -51.55 L-4.5 -51.1 Q13.3 -50.7 20.85 -51.65 28.35 -52.55 30.3 -53.65 32.25 -54.75 33.3 -56.3 L32.6 -52.75 Q32.0 -50.8 30.95 -49.4 24.85 -51.95 20.4 -47.0 16.85 -49.15 12.35 -49.75 L9.8 -50.0 3.65 -49.35 Q-6.1 -47.0 -8.2 -38.45 -10.9 -27.25 -2.8 -21.1 3.25 -16.5 12.65 -16.65 L18.3 -16.85" fill="#dcc1a2" fill-rule="evenodd" stroke="none"/>
      <path d="M18.35 -16.85 L18.3 -16.85 12.65 -16.65 Q4.35 -16.9 -1.1 -21.1 -9.2 -27.25 -6.5 -38.45 -4.4 -47.0 5.3 -49.35 L9.8 -50.0 12.35 -49.75 Q16.85 -49.15 20.4 -47.0 L21.15 -47.5 Q24.1 -49.5 27.2 -49.2 L29.2 -48.75 30.0 -48.45 Q34.5 -46.6 37.75 -40.1 L38.25 -38.45 38.3 -38.4 38.3 -38.3 Q38.85 -37.05 38.85 -34.3 38.9 -30.7 35.35 -24.5 33.65 -21.55 31.45 -20.05 30.4 -19.35 24.6 -18.05 L18.35 -16.85" fill="#fdf0dd" fill-rule="evenodd" stroke="none"/>
      <path d="M18.35 -16.85 Q9.75 -13.5 4.9 -13.75 -3.25 -14.2 -8.95 -18.95 -14.3 -23.35 -14.95 -30.5 -15.5 -38.1 -10.65 -44.3 -12.85 -45.7 -13.65 -48.55 -14.0 -49.65 -14.2 -53.65 L-14.35 -57.45 -11.0 -55.35 Q-7.15 -53.35 -3.85 -53.3 L23.9 -54.5 Q26.2 -54.8 29.55 -56.2 32.9 -57.65 34.1 -58.85 35.75 -54.95 35.45 -53.3 34.8 -49.9 33.6 -48.35 L37.0 -44.5 Q39.55 -41.2 40.1 -39.2 41.7 -33.65 39.45 -27.3 37.75 -22.65 31.45 -20.05 33.65 -21.55 35.35 -24.5 38.9 -30.7 38.85 -34.3 38.85 -37.05 38.3 -38.3 L38.3 -38.4 38.25 -38.45 37.75 -40.1 Q34.5 -46.6 30.0 -48.45 L29.2 -48.75 27.2 -49.2 Q24.1 -49.5 21.15 -47.5 L20.4 -47.0 Q24.85 -51.95 30.95 -49.4 32.0 -50.8 32.6 -52.75 L33.3 -56.3 Q32.25 -54.75 30.3 -53.65 28.35 -52.55 20.85 -51.65 13.3 -50.7 -4.5 -51.1 L-8.65 -51.55 Q-10.75 -52.25 -12.0 -53.95 -12.25 -50.55 -9.95 -47.65 L-7.1 -44.6 Q-12.9 -37.8 -12.4 -30.9 -12.1 -27.6 -10.9 -25.15 -9.55 -22.55 -7.0 -20.45 -4.1 -18.05 -1.3 -16.85 1.9 -15.5 5.7 -15.3 10.8 -15.0 18.3 -16.85 L18.35 -16.85 M12.65 -16.65 Q3.25 -16.5 -2.8 -21.1 -10.9 -27.25 -8.2 -38.45 -6.1 -47.0 3.65 -49.35 L9.8 -50.0 5.3 -49.35 Q-4.4 -47.0 -6.5 -38.45 -9.2 -27.25 -1.1 -21.1 4.35 -16.9 12.65 -16.65" fill="#3a1701" fill-rule="evenodd" stroke="none"/>
      <path d="M34.8 -34.0 Q34.85 -31.45 34.1 -29.3 31.8 -23.05 23.85 -23.5 L20.8 -22.1 Q11.05 -20.5 5.45 -24.8 -0.2 -29.1 1.7 -36.9 3.15 -42.9 9.95 -44.55 L16.05 -44.8 Q19.25 -44.4 21.7 -42.9 24.65 -45.15 27.9 -44.15 31.75 -42.9 34.4 -36.95 34.8 -36.05 34.8 -34.0" fill="#d5bd92" fill-rule="evenodd" stroke="none"/>
      <path d="M29.8 -17.8 Q28.35 -24.4 20.8 -25.05 19.85 -28.15 21.65 -31.65 L22.55 -32.5 Q24.75 -31.4 26.4 -30.2 24.65 -31.25 22.3 -32.05 29.9 -27.65 30.55 -19.95 31.45 -22.7 30.85 -24.95 32.2 -21.45 30.1 -17.2 L29.8 -17.8" fill="#ffca23" fill-rule="evenodd" stroke="none"/>
      <path d="M21.65 -31.65 Q19.85 -28.15 20.8 -25.05 28.35 -24.4 29.8 -17.8 26.85 -23.0 20.15 -23.3 18.2 -28.15 21.65 -31.65" fill="#f4ab02" fill-rule="evenodd" stroke="none"/>
      <path d="M29.8 -17.8 L30.1 -17.2 Q32.2 -21.45 30.85 -24.95 L30.7 -25.35 Q29.5 -28.0 26.4 -30.2 24.75 -31.4 22.55 -32.5 L21.65 -31.65 Q18.2 -28.15 20.15 -23.3 26.85 -23.0 29.8 -17.8 M22.5 -33.55 L24.15 -32.75 27.4 -30.75 Q29.35 -29.45 31.5 -26.2 33.6 -23.0 30.3 -15.3 26.05 -22.55 19.95 -21.85 17.35 -28.7 22.5 -33.55" fill="#322301" fill-rule="evenodd" stroke="none"/>
      <path d="M30.85 -24.95 Q31.45 -22.7 30.55 -19.95 29.9 -27.65 22.3 -32.05 24.65 -31.25 26.4 -30.2 29.5 -28.0 30.7 -25.35 L30.85 -24.95" fill="#fedf9a" fill-rule="evenodd" stroke="none"/>
      <path d="M9.5 -30.3 Q8.05 -31.6 9.5 -34.7 L4.5 -37.15 15.05 -35.9 18.85 -37.75 17.6 -35.4 Q18.05 -33.15 17.15 -31.6 16.15 -30.0 13.85 -29.55 11.05 -29.0 9.5 -30.3 M11.95 -34.7 Q15.2 -31.2 17.05 -35.4 L11.95 -34.7" fill="#000000" fill-rule="evenodd" stroke="none"/>
      <path d="M11.95 -34.7 L17.05 -35.4 Q15.2 -31.2 11.95 -34.7" fill="#ffffff" fill-rule="evenodd" stroke="none"/>
      <path d="M24.45 -37.75 L26.75 -37.25 34.4 -39.2 32.45 -37.1 Q32.8 -34.9 32.0 -33.9 31.2 -32.8 29.8 -32.65 27.8 -32.45 26.8 -33.45 25.8 -34.5 25.85 -36.45 L24.45 -37.75 M28.4 -36.6 Q30.65 -33.9 32.15 -36.4 L28.4 -36.6" fill="#000000" fill-rule="evenodd" stroke="none"/>
      <path d="M28.4 -36.6 L32.15 -36.4 Q30.65 -33.9 28.4 -36.6" fill="#ffffff" fill-rule="evenodd" stroke="none"/>
      <path d="M-33.4 -53.8 Q-26.5 -52.0 -22.4 -50.05 -17.25 -47.55 -13.85 -43.75 -7.85 -36.85 -6.5 -28.05 -5.5 -22.0 -7.3 -15.55 -9.75 -7.0 -16.25 -2.9 -22.55 1.1 -28.05 -0.75 -31.4 -1.8 -35.05 -5.5 -38.6 -8.95 -41.9 -16.15 -46.15 -25.55 -46.9 -35.9 -47.25 -40.5 -47.0 -48.4 -46.75 -55.6 -46.5 -55.9 -37.9 -52.2 -36.05 -50.95 L-36.0 -50.95 -34.75 -52.25 -33.4 -53.8 M-18.9 -3.4 Q-12.7 -6.35 -10.05 -13.0 -7.3 -19.45 -8.75 -27.05 -10.15 -35.0 -15.65 -40.95 -21.65 -47.6 -30.85 -49.9 -31.3 -50.1 -33.15 -48.8 L-35.2 -47.5 Q-35.5 -47.4 -39.75 -49.15 L-43.85 -50.75 Q-46.0 -44.4 -44.65 -35.0 -44.05 -30.15 -42.6 -25.55 L-41.6 -22.65 Q-37.7 -9.2 -29.65 -4.6 -26.75 -2.9 -23.7 -2.65 -21.25 -2.5 -19.6 -3.1 L-19.6 -3.15 -19.05 -3.3 -18.9 -3.4" fill="#3a1701" fill-rule="evenodd" stroke="none"/>
      <path d="M-18.9 -3.4 L-19.05 -3.3 -19.6 -3.15 -19.6 -3.1 Q-21.25 -2.5 -23.7 -2.65 -26.75 -2.9 -29.65 -4.6 -37.7 -9.2 -41.6 -22.65 L-42.6 -25.55 Q-43.45 -29.8 -42.55 -31.65 -41.4 -34.15 -37.75 -31.6 -37.45 -35.05 -35.25 -35.65 -33.15 -36.2 -29.9 -34.05 -28.55 -36.55 -25.95 -37.3 -23.2 -38.15 -20.35 -36.95 -13.4 -33.95 -11.65 -23.1 -10.7 -16.45 -12.45 -11.65 -14.15 -7.0 -18.9 -3.4" fill="#9e4300" fill-rule="evenodd" stroke="none"/>
      <path d="M-42.6 -25.55 Q-44.05 -30.15 -44.65 -35.0 -46.0 -44.4 -43.85 -50.75 L-39.75 -49.15 Q-35.5 -47.4 -35.2 -47.5 L-33.15 -48.8 Q-31.3 -50.1 -30.85 -49.9 -21.65 -47.6 -15.65 -40.95 -10.15 -35.0 -8.75 -27.05 -7.3 -19.45 -10.05 -13.0 -12.7 -6.35 -18.9 -3.4 -14.15 -7.0 -12.45 -11.65 -10.7 -16.45 -11.65 -23.1 -13.4 -33.95 -20.35 -36.95 -23.2 -38.15 -25.95 -37.3 -28.55 -36.55 -29.9 -34.05 -33.15 -36.2 -35.25 -35.65 -37.45 -35.05 -37.75 -31.6 -41.4 -34.15 -42.55 -31.65 -43.45 -29.8 -42.6 -25.55" fill="#6e3200" fill-rule="evenodd" stroke="none"/>
    </g>
  </defs>
</svg>
