<svg width="304" height="119" viewBox="0 0 304 119" fill="none" xmlns="http://www.w3.org/2000/svg">
<path fill-rule="evenodd" clip-rule="evenodd" d="M301.05 5.65C302.583 7.21667 303.35 9.08333 303.35 11.25V95.4C303.35 97.6 302.583 99.4833 301.05 101.05C299.483 102.583 297.617 103.35 295.45 103.35H11.3C9.10001 103.35 7.23334 102.583 5.70001 101.05C4.13334 99.4833 3.35001 97.6 3.35001 95.4V11.25C3.35001 9.08333 4.13334 7.21667 5.70001 5.65C7.23334 4.11667 9.10001 3.35 11.3 3.35H295.45C297.617 3.35 299.483 4.11667 301.05 5.65Z" fill="black" fill-opacity="0.4"/>
<path fill-rule="evenodd" clip-rule="evenodd" d="M297.15 3.8C298.117 5.26667 298.6 6.91667 298.6 8.75C297.9 7.75 296.983 6.93333 295.85 6.3C294.683 5.66667 293.433 5.35 292.1 5.35H7.94999C6.61666 5.35 5.36666 5.66667 4.19999 6.3C3.06666 6.9 2.13333 7.71667 1.39999 8.75C1.39999 7.25 2.01666 5.65 3.24999 3.95C4.61666 1.98333 6.18333 1 7.94999 1H292.1C294.267 1 295.95 1.93333 297.15 3.8ZM293.35 2.95L293.6 2.35V2.3L293.35 1.7C293.183 1.53333 292.983 1.45 292.75 1.45H7.14999C6.91666 1.45 6.71666 1.53333 6.54999 1.7C6.38333 1.86667 6.29999 2.06667 6.29999 2.3V2.35L6.54999 2.95L7.14999 3.2H292.75L293.35 2.95ZM296.5 96.6C295.067 98.1 293.6 98.85 292.1 98.85H7.94999C6.04999 98.85 4.46666 98.05 3.19999 96.45C2.16666 95.1167 1.56666 93.65 1.39999 92.05C2.13333 93.1167 3.06666 93.95 4.19999 94.55C5.36666 95.1833 6.61666 95.5 7.94999 95.5H292.1C293.433 95.5 294.683 95.1833 295.85 94.55C296.983 93.95 297.9 93.1167 298.6 92.05C298.6 93.6167 297.9 95.1333 296.5 96.6Z" fill="#441F8F"/>
<path fill-rule="evenodd" clip-rule="evenodd" d="M300 7.9V92.05C300 94.25 299.233 96.1333 297.7 97.7C296.133 99.2333 294.267 100 292.1 100H7.95C5.75 100 3.88333 99.2333 2.35 97.7C0.783333 96.1333 0 94.25 0 92.05V7.9C0 5.73333 0.783333 3.86667 2.35 2.3C3.88333 0.766667 5.75 0 7.95 0H292.1C294.267 0 296.133 0.766667 297.7 2.3C299.233 3.86667 300 5.73333 300 7.9ZM297.15 3.8C295.95 1.93333 294.267 1 292.1 1H7.95C6.18333 1 4.61667 1.98333 3.25 3.95C2.01667 5.65 1.4 7.25 1.4 8.75C2.13333 7.71667 3.06667 6.9 4.2 6.3C5.36667 5.66667 6.61667 5.35 7.95 5.35H292.1C293.433 5.35 294.683 5.66667 295.85 6.3C296.983 6.93333 297.9 7.75 298.6 8.75C298.6 6.91667 298.117 5.26667 297.15 3.8ZM296.5 96.6C297.9 95.1333 298.6 93.6167 298.6 92.05C297.9 93.1167 296.983 93.95 295.85 94.55C294.683 95.1833 293.433 95.5 292.1 95.5H7.95C6.61667 95.5 5.36667 95.1833 4.2 94.55C3.06667 93.95 2.13333 93.1167 1.4 92.05C1.56667 93.65 2.16667 95.1167 3.2 96.45C4.46667 98.05 6.05 98.85 7.95 98.85H292.1C293.6 98.85 295.067 98.1 296.5 96.6Z" fill="#6229A4"/>
<path fill-rule="evenodd" clip-rule="evenodd" d="M293.35 2.95L292.75 3.2H7.14999L6.54999 2.95L6.29999 2.35V2.3C6.29999 2.06667 6.38332 1.86667 6.54999 1.7C6.71665 1.53333 6.91665 1.45 7.14999 1.45H292.75C292.983 1.45 293.183 1.53333 293.35 1.7L293.6 2.3V2.35L293.35 2.95Z" fill="#6F33B4"/>
<path fill-rule="evenodd" clip-rule="evenodd" d="M280.9 65.05L281.2 69.5L289.3 74.55L289.45 86.8H278.5L277.9 79.7L281.4 79.15L281.35 83.2H286.55L286.3 77L278.25 72.2L277.9 60.95L288.95 60.7L289.35 68.1L286.35 68.25L286.3 64.9L280.9 65.05ZM268.45 65L268.8 70.65L273.45 71.2L273.55 75.1L268.55 75V82.2L276.95 81.5L276.4 86.7L265.85 86.95L265.65 60.45L276 60.35L276.3 64.6L268.45 65ZM262.7 61L262.9 87L259.55 86.75L259.25 61H262.7ZM248.85 70.95L248.7 87.5L245.65 87.05L245.4 60.45L256.35 60.75L256.8 70.85L254.1 71.1L256.6 87.6H253.8L251 71.1L248.85 70.95ZM248.4 67.4H253.6V64.25L248.5 64.55L248.4 67.4ZM201.05 60.15L201.4 64.45L193.55 64.85L193.8 70.55L198.5 71.1L198.65 75L193.6 74.85V82.1L202.05 81.5L201.5 86.7L190.85 86.95L190.6 60.3L201.05 60.15ZM228.15 60.1L228.6 67.6L225.5 67.85L225.45 64.35L220.05 64.55L220.35 69L228.55 74.15L228.65 86.45H217.6L217 79.25L220.55 78.75V82.9H225.75L225.45 76.65L217.35 71.75L216.95 60.4L228.15 60.1ZM173.7 70.65L169.8 70.35V65.65L164.6 65.7L165.35 83.2L170.05 82.9L169.85 78.1L174.1 78.35L173.7 87L161.5 87.2L161.25 60.95L173.7 61.15V70.65ZM184.6 70.15V65.45L179.4 65.55L180.15 83.05L184.85 82.75L184.65 77.9L188.85 78.15L188.5 86.8L176.3 87L176.05 60.75L188.5 60.95V70.45L184.6 70.15ZM242.2 60.35L242.5 87.2H231.15L230.85 60.2L242.2 60.35ZM233.95 64.15L234.25 83.1L239.3 83.55L238.95 64.25L233.95 64.15ZM206.2 64.55L206.55 69L214.7 74.15L214.85 86.45H203.75L203.2 79.25L206.7 78.75L206.65 82.9H211.9L211.65 76.65L203.5 71.75L203.15 60.4L214.3 60.1L214.8 67.6L211.7 67.85L211.65 64.35L206.2 64.55ZM154.25 60.4L159.5 87.8L156.55 87.7L155.6 82.5L150.45 82.35L149.75 87.8L146.95 87.55L150.55 60.2L154.25 60.4ZM155 78.05L152.65 67.1L151.2 77.9L155 78.05Z" fill="white"/>
<path fill-rule="evenodd" clip-rule="evenodd" d="M128.05 29.55C126.383 36.2167 124.617 44.1 122.75 53.2C119.05 71.4333 116.783 86.65 115.95 98.85H27C20.4 63.25 14.3333 39.45 8.79999 27.45L67.75 15.25C104.217 23.4833 124.317 28.25 128.05 29.55Z" fill="black" fill-opacity="0.447059"/>
<path fill-rule="evenodd" clip-rule="evenodd" d="M122.65 98.9L70.5 118.3C51.7 105.367 39.85 96.9333 34.95 93C33.35 83.7 31.3667 73.5333 29 62.5C24.2 40.4333 19.8 25.0833 15.8 16.45L74.8 4.25C111.233 12.4833 131.333 17.25 135.1 18.55C132.933 27.1167 130.8 36.8833 128.7 47.85C124.467 69.8167 122.45 86.8333 122.65 98.9Z" fill="#373535"/>
<path fill-rule="evenodd" clip-rule="evenodd" d="M126 37.5C123.567 50.4 121.967 61.3 121.2 70.2L119.9 81.55C119.033 89.55 118.683 94.5833 118.85 96.65C102.75 102.617 86.6333 108.567 70.5 114.5L69.45 113.65C69.45 107.917 67.9333 93.8 64.9 71.3C61.7667 48 59.4833 35.2 58.05 32.9L126.4 19.95L129.45 20.8C128.383 25.4667 127.233 31.0333 126 37.5Z" fill="#647359"/>
<path fill-rule="evenodd" clip-rule="evenodd" d="M20.95 18.55L75.45 7.8L127.2 20.2L59.05 33.5L20.95 18.55Z" fill="#CAD7B7"/>
<path fill-rule="evenodd" clip-rule="evenodd" d="M27.45 38.6C25.05 30.1 22.8833 23.4167 20.95 18.55L59.05 33.5C62.6166 48.4333 65.5333 66.35 67.8 87.25C68.9333 97.7167 69.7166 106.683 70.15 114.15L38.25 91.45C35.85 73.2167 32.25 55.6 27.45 38.6Z" fill="#8D9B7C"/>
<path fill-rule="evenodd" clip-rule="evenodd" d="M101.7 26.7C108.167 24.9333 117.067 22.85 128.4 20.45L129.2 20.8C123.767 22 117.933 23.4167 111.7 25.05L103.95 27.2L101.7 26.7Z" fill="#D4DEC1"/>
<path fill-rule="evenodd" clip-rule="evenodd" d="M98.85 102.95L70.75 113.45L70 105.8L98.6 96.4L98.85 102.95Z" fill="#A9B48F"/>
<path fill-rule="evenodd" clip-rule="evenodd" d="M99.4 96L118.65 89.1L118.05 96L107.65 99.6L99.7 102.5L99.4 96Z" fill="#A9B48F"/>
<path fill-rule="evenodd" clip-rule="evenodd" d="M99.7 95.35L99.4 86.85L119.5 79.45L118.5 88.55L99.7 95.35Z" fill="#A9B48F"/>
<path fill-rule="evenodd" clip-rule="evenodd" d="M98.6 96.4L98.7 98.9L70.3 109.2L70 105.8L98.6 96.4Z" fill="#909D79"/>
<path fill-rule="evenodd" clip-rule="evenodd" d="M69.15 96.95C69.8167 97.15 70.6333 97.6833 71.6 98.55L71.8 107.1L70 105.8L69.15 96.95Z" fill="#8FA37C"/>
<path fill-rule="evenodd" clip-rule="evenodd" d="M118.8 96.1L118.85 96.65C102.75 102.617 86.6333 108.567 70.5 114.5L70.6 113.85L118.8 96.1Z" fill="#A9B48F"/>
<path fill-rule="evenodd" clip-rule="evenodd" d="M119.5 79.45L119.15 82.2L99.65 90.5L99.45 87.15L119.5 79.45Z" fill="#9BA888"/>
<path fill-rule="evenodd" clip-rule="evenodd" d="M104.3 86.5L114.35 82.65L114.55 83.25L114.6 84.3L113.95 85L112.55 85.65L106.45 87.85H105.5C104.833 87.7167 104.433 87.2667 104.3 86.5Z" fill="#879A75"/>
<path fill-rule="evenodd" clip-rule="evenodd" d="M113.3 84.2L113.45 83.95L114.6 84.1L114.35 84.75L113.3 84.2Z" fill="#D6DECB"/>
<path fill-rule="evenodd" clip-rule="evenodd" d="M113.35 83C113.717 83.6667 113.683 84.1167 113.25 84.35L105.85 87.15L104.65 87.2L104.3 86.5L113.35 83Z" fill="#6D7A67"/>
<path fill-rule="evenodd" clip-rule="evenodd" d="M128.85 20.8H129.45L124.75 44.05C123.117 54.0167 121.55 65.65 120.05 78.95C119.617 79.05 113.033 82.05 100.3 87.95C100.1 85.65 100.15 81.3333 100.45 75L100.9 66.2C101.133 56.0333 102.15 43.0333 103.95 27.2C105.017 26.7 109.483 25.4833 117.35 23.55L128.85 20.8Z" fill="#B4C09D"/>
<path fill-rule="evenodd" clip-rule="evenodd" d="M103.95 27.2L101.7 51.5C101.1 59.1333 100.583 71.35 100.15 88.15L98.2 87.3C98.0666 84.8333 98.1333 79.5333 98.4 71.4L98.8 59.9C98.9 57.1667 99.4166 50.8167 100.35 40.85L101.7 26.7L103.95 27.2Z" fill="#8D9B7C"/>
<path fill-rule="evenodd" clip-rule="evenodd" d="M124.2 27.2L105.7 56.55L105.2 56.2L106.15 30.7L123.8 27L124.2 27.2Z" fill="#8A9879"/>
<path fill-rule="evenodd" clip-rule="evenodd" d="M106.8 31.05L124.2 27.2L119.5 52.35L105.7 56.55L106.8 31.05Z" fill="#CAD7B7"/>
<path fill-rule="evenodd" clip-rule="evenodd" d="M107.95 32.3L123.25 28.75L118.85 51.45L106.65 55L107.95 32.3Z" fill="#707D64"/>
<path fill-rule="evenodd" clip-rule="evenodd" d="M118.7 48.1L119.2 50.8L106.8 54.35L107 50.4L118.7 48.1Z" fill="#CAD7B7"/>
<path fill-rule="evenodd" clip-rule="evenodd" d="M106.9 53.15L106.95 51.05L118.7 48.1L119 49.8L106.9 53.15Z" fill="#9FAC90"/>
<path fill-rule="evenodd" clip-rule="evenodd" d="M119.15 45.2L119.55 48.05L106.9 52L107.2 47.7L119.15 45.2Z" fill="#CAD7B7"/>
<path fill-rule="evenodd" clip-rule="evenodd" d="M107.05 50.4L107.15 48.35L119.15 45L119.45 47.05L107.05 50.4Z" fill="#9FAC90"/>
<path fill-rule="evenodd" clip-rule="evenodd" d="M119.5 41.95L120.05 45.15L107.15 48.8L107.35 44.5L119.5 41.95Z" fill="#CAD7B7"/>
<path fill-rule="evenodd" clip-rule="evenodd" d="M107.2 47.2L107.3 45.15L119.55 41.8L119.85 43.95L107.2 47.2Z" fill="#9FAC90"/>
<path fill-rule="evenodd" clip-rule="evenodd" d="M120.2 38.7L120.65 41.6L107.3 45.95L107.55 41.65L120.2 38.7Z" fill="#CAD7B7"/>
<path fill-rule="evenodd" clip-rule="evenodd" d="M107.4 44.35L107.55 42.05L120.2 38.7L120.5 40.6L107.4 44.35Z" fill="#9FAC90"/>
<path fill-rule="evenodd" clip-rule="evenodd" d="M120.4 35.95L121.3 38.85L107.5 43.15L107.7 38.85L120.4 35.95Z" fill="#CAD7B7"/>
<path fill-rule="evenodd" clip-rule="evenodd" d="M107.55 41.7L107.7 39.15L120.4 35.95L121 37.8L107.55 41.7Z" fill="#9FAC90"/>
<path fill-rule="evenodd" clip-rule="evenodd" d="M120.6 32.75L121.95 35.8L107.7 39.15L107.8 35.65L120.6 32.75Z" fill="#CAD7B7"/>
<path fill-rule="evenodd" clip-rule="evenodd" d="M107.75 38.1L107.85 35.25L120.6 32.75L121.45 34.65L107.75 38.1Z" fill="#9FAC90"/>
<path fill-rule="evenodd" clip-rule="evenodd" d="M120.85 29.5L122.4 32.75L107.8 36.1L107.95 32.3L120.85 29.5Z" fill="#CAD7B7"/>
<path fill-rule="evenodd" clip-rule="evenodd" d="M107.9 33.9L107.95 32.3L120.85 29.5L121.5 30.85L107.9 33.9Z" fill="#9FAC90"/>
<path fill-rule="evenodd" clip-rule="evenodd" d="M102.15 74L102.4 60.3C103.5 60.3333 104.233 60.5167 104.6 60.85L104.8 61.35L104.5 72.4C104.533 73 104.15 73.45 103.35 73.75L102.15 74Z" fill="#98AC83"/>
<path fill-rule="evenodd" clip-rule="evenodd" d="M103.15 71.95L103.2 71.65L104.5 72.55L104.45 72.85L104.35 73L103.15 71.95Z" fill="#D6DECB"/>
<path fill-rule="evenodd" clip-rule="evenodd" d="M103.45 60.5L103.65 61.4L103.5 72C103.133 72.4333 102.7 72.65 102.2 72.65L102.4 60.3L103.45 60.5Z" fill="#6D7A67"/>
<path fill-rule="evenodd" clip-rule="evenodd" d="M99.5 87.8L99.7 95.35L98.55 94.95L98.05 86.95L99.5 87.8Z" fill="#93A081"/>
<path fill-rule="evenodd" clip-rule="evenodd" d="M96.7 88.3L95.65 87.6L95.1 87.35L96.5 87.05L99.2 88.8C95.6333 89.3333 89.9667 91.1167 82.2 94.15L71.6 98.55L70.1 97.4L69.15 96.95L70.1 96.4L70.55 96.3L72.05 97.25C77.3167 94.7833 83 92.55 89.1 90.55C92.1667 89.55 94.7 88.8 96.7 88.3Z" fill="#D4DEC1"/>
<path fill-rule="evenodd" clip-rule="evenodd" d="M99 96.15C85.5333 101.383 76.4666 105.033 71.8 107.1L71.6 98.55L81.3 94.45C88.6333 91.55 94.5666 89.6333 99.1 88.7L99 91.75V96.15Z" fill="#B4C09D"/>
<path fill-rule="evenodd" clip-rule="evenodd" d="M89.9 94.35L88.45 95C85.15 96.3333 83.1166 97.0667 82.35 97.2H81.45C80.7833 97.0667 80.3666 96.6167 80.2 95.85L90.25 92L90.45 92.6L90.55 93.65L89.9 94.35Z" fill="#92A57D"/>
<path fill-rule="evenodd" clip-rule="evenodd" d="M90.55 93.45L90.25 94.1L89.2 93.55L89.35 93.3L90.55 93.45Z" fill="#D6DECB"/>
<path fill-rule="evenodd" clip-rule="evenodd" d="M89.25 92.35C89.65 93.05 89.6167 93.5 89.15 93.7L81.75 96.5L80.6 96.55L80.2 95.85L89.25 92.35Z" fill="#6D7A67"/>
<path fill-rule="evenodd" clip-rule="evenodd" d="M38 89.75L70.05 113.1L70.2 113.65L38.05 90.3L38 89.75Z" fill="#647359"/>
<path fill-rule="evenodd" clip-rule="evenodd" d="M59.85 33.95L61.15 34.55L63.05 43.5C64.5833 51.4667 65.9833 60.4 67.25 70.3L68.6 81.05C69.5333 88.6833 70.0166 93.7167 70.05 96.15L69.1 95.7L65.95 68.35L63.75 53.55C62.4166 45.2167 61.1166 38.6833 59.85 33.95Z" fill="#8FA37C"/>
<path fill-rule="evenodd" clip-rule="evenodd" d="M101.35 26.85L61.15 34.55L59.85 33.95L99.9 26.2L101.35 26.85Z" fill="#D4DEC1"/>
<path fill-rule="evenodd" clip-rule="evenodd" d="M99.8 52.55C98.8 70.55 98.4 81.7 98.6 86C85.9667 90.2 76.45 93.5833 70.05 96.15L67.05 70.85C64.75 52.75 62.7833 40.65 61.15 34.55L101.35 26.85L99.8 52.55Z" fill="#B4C09D"/>
<path fill-rule="evenodd" clip-rule="evenodd" d="M95.45 63.4L95.8 77.2C93.9667 78.2667 93.1 78.3833 93.2 77.55L92.95 65.3C92.9166 64.6667 93.3167 64.1667 94.15 63.8L95.45 63.4Z" fill="#98AC83"/>
<path fill-rule="evenodd" clip-rule="evenodd" d="M94.5 76.3L94.55 75.95L95.8 76.85V77.15L95.65 77.25L94.5 76.3Z" fill="#D6DECB"/>
<path fill-rule="evenodd" clip-rule="evenodd" d="M93.2 76.65L92.95 65.3C92.9166 64.8667 93.1167 64.4833 93.55 64.15L94.25 63.8L94.6 76.2L93.7 76.6L93.2 76.65Z" fill="#6D7A67"/>
<path fill-rule="evenodd" clip-rule="evenodd" d="M60.7 46.55L64.35 45.8L65.1 52.2L65.9 58C65.9333 58.4 65.6333 58.7 65 58.9C64.3 59.0667 63.7833 59.0667 63.45 58.9L63.15 58.6C63.0166 57.0333 62.5666 54.55 61.8 51.15L60.7 46.55Z" fill="#98AC83"/>
<path fill-rule="evenodd" clip-rule="evenodd" d="M64.35 45.8L63.9 46.4L62.65 46.85L61.3 46.9C60.9333 46.8333 60.7333 46.7167 60.7 46.55C60.6666 46.3833 60.8 46.1833 61.1 45.95C61.4666 45.75 61.9 45.6 62.4 45.5C63.6 45.2667 64.25 45.3667 64.35 45.8Z" fill="#D4DEC1"/>
<path fill-rule="evenodd" clip-rule="evenodd" d="M61.35 49.25L61.7 49.45L63.3 49.4C64.1666 49.2 64.6 48.85 64.6 48.35L64.7 48.95C64.7666 49.3167 64.3166 49.6333 63.35 49.9L61.5 49.85L61.35 49.25Z" fill="#768667"/>
<path fill-rule="evenodd" clip-rule="evenodd" d="M62.6 55.25L62.95 55.45L64.35 55.35C65.05 55.15 65.4 54.8167 65.4 54.35L65.5 54.95C65.6 55.25 65.2333 55.5333 64.4 55.8L62.75 55.85L62.6 55.25Z" fill="#768667"/>
<path fill-rule="evenodd" clip-rule="evenodd" d="M65 73L68.4 72.5L69.15 83.75C69.1833 84.1167 68.8833 84.3667 68.25 84.5L66.85 84.4L66.6 84.1C66.5667 82.6667 66.2833 80.3833 65.75 77.25L65 73Z" fill="#98AC83"/>
<path fill-rule="evenodd" clip-rule="evenodd" d="M68.4 72.5C68.4667 72.9 67.9333 73.1833 66.8 73.35H65.55L65 73C64.9333 72.6 65.4833 72.3 66.65 72.1H67.85C68.1833 72.2 68.3667 72.3333 68.4 72.5Z" fill="#D4DEC1"/>
<path fill-rule="evenodd" clip-rule="evenodd" d="M65.45 75.5L65.8 75.7L67.25 75.75C68.05 75.5833 68.4667 75.2833 68.5 74.85L68.55 75.4C68.5833 75.7333 68.1667 75.9833 67.3 76.15L65.6 76.05L65.45 75.5Z" fill="#768667"/>
<path fill-rule="evenodd" clip-rule="evenodd" d="M66.3 81L66.6 81.2C66.9333 81.3333 67.3667 81.3333 67.9 81.2C68.5333 81.0667 68.8667 80.7833 68.9 80.35L68.95 80.9C69.0166 81.2 68.6833 81.4333 67.95 81.6C67.25 81.7667 66.7333 81.7667 66.4 81.6L66.3 81Z" fill="#768667"/>
<path fill-rule="evenodd" clip-rule="evenodd" d="M94.45 33.55L71.4 65.15L70.9 64.9L66.85 39.4L93.8 33.35L94.45 33.55Z" fill="#8A9879"/>
<path fill-rule="evenodd" clip-rule="evenodd" d="M94.45 33.55L92.7 59.1L71.4 65.15L67.4 39.8L94.45 33.55Z" fill="#CAD7B7"/>
<path fill-rule="evenodd" clip-rule="evenodd" d="M93.35 35.2L91.4 58.25L72.6 63.5L69.5 40.85L93.35 35.2Z" fill="#707D64"/>
<path fill-rule="evenodd" clip-rule="evenodd" d="M91.8 57.6L72.7 62.8L72.1 58.9L90.4 55L91.8 57.6Z" fill="#CAD7B7"/>
<path fill-rule="evenodd" clip-rule="evenodd" d="M90.4 55L91.25 56.65L72.55 61.65L72.2 59.55L90.4 55Z" fill="#9FAC90"/>
<path fill-rule="evenodd" clip-rule="evenodd" d="M91.8 54.85L72.3 60.5L71.8 56.2L90.45 52.05L91.8 54.85Z" fill="#CAD7B7"/>
<path fill-rule="evenodd" clip-rule="evenodd" d="M90.4 51.85L91.35 53.85L72.15 58.9L71.9 56.85L90.4 51.85Z" fill="#9FAC90"/>
<path fill-rule="evenodd" clip-rule="evenodd" d="M91.9 51.9L71.95 57.3L71.35 53L90.3 48.8L91.9 51.9Z" fill="#CAD7B7"/>
<path fill-rule="evenodd" clip-rule="evenodd" d="M90.35 48.65L91.3 50.75L71.7 55.7L71.45 53.65L90.35 48.65Z" fill="#9FAC90"/>
<path fill-rule="evenodd" clip-rule="evenodd" d="M92.1 48.25L71.6 54.45L70.95 50.15L90.7 45.5L92.1 48.25Z" fill="#CAD7B7"/>
<path fill-rule="evenodd" clip-rule="evenodd" d="M90.7 45.5L91.6 47.3L71.35 52.85L71.1 50.55L90.7 45.5Z" fill="#9FAC90"/>
<path fill-rule="evenodd" clip-rule="evenodd" d="M92.45 45.45L71.25 51.65L70.6 47.35L90.35 42.7L92.45 45.45Z" fill="#CAD7B7"/>
<path fill-rule="evenodd" clip-rule="evenodd" d="M90.35 42.7L91.75 44.45L71.05 50.2L70.7 47.7L90.35 42.7Z" fill="#9FAC90"/>
<path fill-rule="evenodd" clip-rule="evenodd" d="M92.8 42.35L70.7 47.7L70 44.15L89.95 39.5L92.8 42.35Z" fill="#CAD7B7"/>
<path fill-rule="evenodd" clip-rule="evenodd" d="M89.95 39.5L91.8 41.25L70.5 46.65L70 43.8L89.95 39.5Z" fill="#9FAC90"/>
<path fill-rule="evenodd" clip-rule="evenodd" d="M89.6 36.25L92.9 39.25L70.1 44.65L69.5 40.85L89.6 36.25Z" fill="#CAD7B7"/>
<path fill-rule="evenodd" clip-rule="evenodd" d="M69.8 42.45L69.5 40.85L89.6 36.25L91 37.5L69.8 42.45Z" fill="#9FAC90"/>
</svg>
