<svg width="184" height="100" viewBox="0 0 184 100" fill="none" xmlns="http://www.w3.org/2000/svg">
<mask id="mask0_182_22814" style="mask-type:luminance" maskUnits="userSpaceOnUse" x="0" y="0" width="37" height="47">
<path d="M0.834839 0.736084H36.7512V46.8825H0.834839V0.736084Z" fill="white"/>
</mask>
<g mask="url(#mask0_182_22814)">
<path fill-rule="evenodd" clip-rule="evenodd" d="M12.9566 147.416C11.1608 146.317 9.46473 144.889 7.86845 143.131C3.17938 137.967 0.834839 131.759 0.834839 124.507V114.289V48.201V27.1055C0.834839 19.744 3.17938 13.5362 7.86845 8.4821C12.5575 3.31809 18.1944 0.736084 24.779 0.736084H36.9008H98.5572H109.631C116.316 0.736084 121.953 3.31809 126.542 8.4821L130.583 14.0856C132.578 17.9311 133.576 22.2711 133.576 27.1055V48.201V114.289V124.507C133.576 131.759 131.231 137.967 126.542 143.131C121.953 148.295 116.316 150.877 109.631 150.877H98.5572H36.9008H24.779C20.3893 150.877 16.4485 149.723 12.9566 147.416ZM36.9008 5.18592H24.6294C18.1445 5.18592 13.1561 8.59197 9.66427 15.4041C6.57147 21.3372 5.02508 28.6437 5.02508 37.3236C6.32205 32.5991 8.61671 28.8085 11.909 25.9518C15.5007 22.8754 19.7408 21.3372 24.6294 21.3372H36.9008H98.5572H109.482C114.37 21.3372 118.86 22.9853 122.95 26.2814C126.741 29.3579 129.186 33.0386 130.283 37.3236C130.283 30.072 128.687 23.2599 125.494 16.8873C121.504 9.0864 116.166 5.18592 109.482 5.18592H98.5572H36.9008ZM36.9008 139.999H24.6294C20.7385 139.999 16.9972 138.736 13.4055 136.209C10.0135 133.902 7.21996 130.935 5.02508 127.309C5.52391 132.363 7.36961 136.648 10.5622 140.164C14.1538 144.01 18.8429 145.933 24.6294 145.933H36.9008H98.5572H109.482C114.071 145.933 118.411 144.01 122.501 140.164C126.592 136.209 128.837 131.924 129.236 127.309C126.941 131.045 124.148 134.011 120.855 136.209C117.164 138.736 113.373 139.999 109.482 139.999H98.5572H36.9008Z" fill="#5D9615"/>
<path fill-rule="evenodd" clip-rule="evenodd" d="M12.9565 147.416C16.4484 149.723 20.3892 150.877 24.779 150.877H36.9008H98.5571H109.631C116.316 150.877 121.953 148.295 126.542 143.131C131.231 137.967 133.575 131.759 133.575 124.507V114.289V48.201V27.1055C133.575 22.2711 132.578 17.9311 130.582 14.0856C132.279 15.1843 133.925 16.6126 135.521 18.3706C140.21 23.5346 142.555 29.7424 142.555 36.994V48.201V114.289V134.396C142.555 141.757 140.21 147.965 135.521 153.019C130.932 158.183 125.295 160.765 118.61 160.765H98.5571H36.9008H33.7581C27.1734 160.765 21.5366 158.183 16.8475 153.019L12.9565 147.416Z" fill="black" fill-opacity="0.298039"/>
<path fill-rule="evenodd" clip-rule="evenodd" d="M36.9008 139.999H98.5571H109.482C113.373 139.999 117.164 138.736 120.855 136.209C124.147 134.011 126.941 131.045 129.236 127.309C128.837 131.924 126.592 136.209 122.501 140.164C118.411 144.01 114.071 145.933 109.482 145.933H98.5571H36.9008H24.6293C18.8428 145.933 14.1538 144.01 10.5621 140.164C7.36956 136.648 5.52386 132.363 5.02502 127.309C7.21991 130.935 10.0134 133.902 13.4055 136.209C16.9971 138.736 20.7384 139.999 24.6293 139.999H36.9008ZM36.9008 5.18591H98.5571H109.482C116.166 5.18591 121.504 9.08639 125.494 16.8873C128.687 23.2599 130.283 30.072 130.283 37.3236C129.186 33.0386 126.741 29.3579 122.95 26.2814C118.86 22.9853 114.37 21.3372 109.482 21.3372H98.5571H36.9008H24.6293C19.7407 21.3372 15.5006 22.8754 11.909 25.9518C8.61666 28.8085 6.322 32.5991 5.02502 37.3236C5.02502 28.6437 6.57142 21.3372 9.66422 15.4041C13.1561 8.59196 18.1445 5.18591 24.6293 5.18591H36.9008ZM36.9008 13.9208H98.5571H109.182L111.726 12.9319L112.774 10.6246C112.774 9.74562 112.425 8.97651 111.726 8.31728L109.182 7.32843H98.5571H36.9008H25.3776C24.3799 7.32843 23.5319 7.65804 22.8335 8.31728C22.1352 8.97651 21.786 9.74562 21.786 10.6246C21.786 11.5036 22.1352 12.2727 22.8335 12.9319L25.3776 13.9208H36.9008Z" fill="#93D51F"/>
<path fill-rule="evenodd" clip-rule="evenodd" d="M36.9008 13.9208H25.3776L22.8336 12.9319C22.1352 12.2727 21.786 11.5036 21.786 10.6246C21.786 9.74563 22.1352 8.97652 22.8336 8.31728C23.5319 7.65805 24.38 7.32843 25.3776 7.32843H36.9008H98.5571H109.182L111.726 8.31728C112.425 8.97652 112.774 9.74563 112.774 10.6246L111.726 12.9319L109.182 13.9208H98.5571H36.9008Z" fill="#CFFC61"/>
</g>
<mask id="mask1_182_22814" style="mask-type:luminance" maskUnits="userSpaceOnUse" x="0" y="49" width="37" height="51">
<path d="M0.834839 49.662H36.7512V99.1046H0.834839V49.662Z" fill="white"/>
</mask>
<g mask="url(#mask1_182_22814)">
<path fill-rule="evenodd" clip-rule="evenodd" d="M12.9566 84.2718C11.1608 83.1731 9.46473 81.7448 7.86845 79.9868C3.17938 74.8228 0.834839 68.615 0.834839 61.3634V51.1453V-14.9431V-36.0386C0.834839 -43.4 3.17938 -49.6078 7.86845 -54.662C12.5575 -59.826 18.1944 -62.408 24.779 -62.408H36.9008H98.5572H109.631C116.316 -62.408 121.953 -59.826 126.542 -54.662L130.583 -49.0585C132.578 -45.2129 133.576 -40.873 133.576 -36.0386V-14.9431V51.1453V61.3634C133.576 68.615 131.231 74.8228 126.542 79.9868C121.953 85.1508 116.316 87.7328 109.631 87.7328H98.5572H36.9008H24.779C20.3893 87.7328 16.4485 86.5791 12.9566 84.2718ZM36.9008 -57.9581H24.6294C18.1445 -57.9581 13.1561 -54.5521 9.66427 -47.74C6.57147 -41.8069 5.02508 -34.5004 5.02508 -25.8204C6.32205 -30.5449 8.61671 -34.3355 11.909 -37.1922C15.5007 -40.2687 19.7408 -41.8069 24.6294 -41.8069H36.9008H98.5572H109.482C114.37 -41.8069 118.86 -40.1588 122.95 -36.8626C126.741 -33.7862 129.186 -30.1055 130.283 -25.8204C130.283 -33.072 128.687 -39.8841 125.494 -46.2567C121.504 -54.0577 116.166 -57.9581 109.482 -57.9581H98.5572H36.9008ZM36.9008 76.8554H24.6294C20.7385 76.8554 16.9972 75.5919 13.4055 73.0648C10.0135 70.7575 7.21996 67.791 5.02508 64.1652C5.52391 69.2193 7.36961 73.5043 10.5622 77.0202C14.1538 80.8658 18.8429 82.7885 24.6294 82.7885H36.9008H98.5572H109.482C114.071 82.7885 118.411 80.8658 122.501 77.0202C126.592 73.0648 128.837 68.7798 129.236 64.1652C126.941 67.9008 124.148 70.8674 120.855 73.0648C117.164 75.5919 113.373 76.8554 109.482 76.8554H98.5572H36.9008Z" fill="#5D9615"/>
<path fill-rule="evenodd" clip-rule="evenodd" d="M12.9565 84.2718C16.4484 86.5792 20.3892 87.7328 24.779 87.7328H36.9008H98.5571H109.631C116.316 87.7328 121.953 85.1508 126.542 79.9868C131.231 74.8228 133.575 68.615 133.575 61.3634V51.1453V-14.943V-36.0386C133.575 -40.873 132.578 -45.2129 130.582 -49.0585C132.279 -47.9597 133.925 -46.5314 135.521 -44.7734C140.21 -39.6094 142.555 -33.4016 142.555 -26.15V-14.943V51.1453V71.2519C142.555 78.6134 140.21 84.8212 135.521 89.8753C130.932 95.0393 125.295 97.6213 118.61 97.6213H98.5571H36.9008H33.7581C27.1734 97.6213 21.5366 95.0393 16.8475 89.8753L12.9565 84.2718Z" fill="black" fill-opacity="0.298039"/>
<path fill-rule="evenodd" clip-rule="evenodd" d="M36.9008 76.8554H98.5571H109.482C113.373 76.8554 117.164 75.5919 120.855 73.0648C124.147 70.8674 126.941 67.9008 129.236 64.1652C128.837 68.7798 126.592 73.0648 122.501 77.0202C118.411 80.8658 114.071 82.7886 109.482 82.7886H98.5571H36.9008H24.6293C18.8428 82.7886 14.1538 80.8658 10.5621 77.0202C7.36956 73.5043 5.52386 69.2193 5.02502 64.1652C7.21991 67.791 10.0134 70.7575 13.4055 73.0648C16.9971 75.5919 20.7384 76.8554 24.6293 76.8554H36.9008ZM36.9008 -57.9581H98.5571H109.482C116.166 -57.9581 121.504 -54.0577 125.494 -46.2567C128.687 -39.8841 130.283 -33.072 130.283 -25.8204C129.186 -30.1054 126.741 -33.7862 122.95 -36.8626C118.86 -40.1588 114.37 -41.8069 109.482 -41.8069H98.5571H36.9008H24.6293C19.7407 -41.8069 15.5006 -40.2687 11.909 -37.1922C8.61666 -34.3355 6.322 -30.5449 5.02502 -25.8204C5.02502 -34.5003 6.57142 -41.8069 9.66422 -47.74C13.1561 -54.5521 18.1445 -57.9581 24.6293 -57.9581H36.9008ZM36.9008 -49.2233H98.5571H109.182L111.726 -50.2121L112.774 -52.5194C112.774 -53.3984 112.425 -54.1675 111.726 -54.8268L109.182 -55.8156H98.5571H36.9008H25.3776C24.3799 -55.8156 23.5319 -55.486 22.8335 -54.8268C22.1352 -54.1675 21.786 -53.3984 21.786 -52.5194C21.786 -51.6405 22.1352 -50.8714 22.8335 -50.2121L25.3776 -49.2233H36.9008Z" fill="#93D51F"/>
</g>
<mask id="mask2_182_22814" style="mask-type:luminance" maskUnits="userSpaceOnUse" x="141" y="0" width="43" height="47">
<path d="M141.427 0.736053H183.329V46.8825H141.427V0.736053Z" fill="white"/>
</mask>
<g mask="url(#mask2_182_22814)">
<path fill-rule="evenodd" clip-rule="evenodd" d="M54.7787 147.416C52.9829 146.317 51.2869 144.889 49.6906 143.131C45.0015 137.967 42.657 131.759 42.657 124.507V114.289V48.201V27.1055C42.657 19.744 45.0015 13.5362 49.6906 8.4821C54.3797 3.31809 60.0165 0.736084 66.6012 0.736084H78.7229H140.379H151.453C158.138 0.736084 163.775 3.31809 168.364 8.4821L172.405 14.0856C174.4 17.9311 175.398 22.2711 175.398 27.1055V48.201V114.289V124.507C175.398 131.759 173.053 137.967 168.364 143.131C163.775 148.295 158.138 150.877 151.453 150.877H140.379H78.7229H66.6012C62.2114 150.877 58.2706 149.723 54.7787 147.416ZM78.7229 5.18592H66.4515C59.9667 5.18592 54.9783 8.59197 51.4864 15.4041C48.3936 21.3372 46.8472 28.6437 46.8472 37.3236C48.1442 32.5991 50.4389 28.8085 53.7312 25.9518C57.3228 22.8754 61.5629 21.3372 66.4515 21.3372H78.7229H140.379H151.304C156.192 21.3372 160.682 22.9853 164.772 26.2814C168.564 29.3579 171.008 33.0386 172.105 37.3236C172.105 30.072 170.509 23.2599 167.317 16.8873C163.326 9.0864 157.988 5.18592 151.304 5.18592H140.379H78.7229ZM78.7229 139.999H66.4515C62.5606 139.999 58.8193 138.736 55.2277 136.209C51.8356 133.902 49.0421 130.935 46.8472 127.309C47.3461 132.363 49.1918 136.648 52.3843 140.164C55.9759 144.01 60.665 145.933 66.4515 145.933H78.7229H140.379H151.304C155.893 145.933 160.233 144.01 164.324 140.164C168.414 136.209 170.659 131.924 171.058 127.309C168.763 131.045 165.97 134.011 162.677 136.209C158.986 138.736 155.195 139.999 151.304 139.999H140.379H78.7229Z" fill="#5D9615"/>
<path fill-rule="evenodd" clip-rule="evenodd" d="M54.7788 147.416C58.2707 149.723 62.2115 150.877 66.6013 150.877H78.723H140.379H151.454C158.138 150.877 163.775 148.295 168.364 143.131C173.053 137.967 175.398 131.759 175.398 124.507V114.289V48.201V27.1055C175.398 22.2711 174.4 17.9311 172.405 14.0856C174.101 15.1843 175.747 16.6126 177.343 18.3706C182.032 23.5346 184.377 29.7424 184.377 36.994V48.201V114.289V134.396C184.377 141.757 182.032 147.965 177.343 153.019C172.754 158.183 167.117 160.765 160.433 160.765H140.379H78.723H75.5803C68.9957 160.765 63.3588 158.183 58.6697 153.019L54.7788 147.416Z" fill="black" fill-opacity="0.298039"/>
<path fill-rule="evenodd" clip-rule="evenodd" d="M78.723 139.999H140.379H151.304C155.195 139.999 158.986 138.736 162.677 136.209C165.97 134.011 168.763 131.045 171.058 127.309C170.659 131.924 168.414 136.209 164.324 140.164C160.233 144.01 155.893 145.933 151.304 145.933H140.379H78.723H66.4516C60.6651 145.933 55.976 144.01 52.3844 140.164C49.1918 136.648 47.3461 132.363 46.8473 127.309C49.0422 130.935 51.8357 133.902 55.2278 136.209C58.8194 138.736 62.5607 139.999 66.4516 139.999H78.723ZM78.723 5.18591H140.379H151.304C157.988 5.18591 163.326 9.08639 167.317 16.8873C170.509 23.2599 172.105 30.072 172.105 37.3236C171.008 33.0386 168.564 29.3579 164.773 26.2814C160.682 22.9853 156.193 21.3372 151.304 21.3372H140.379H78.723H66.4516C61.563 21.3372 57.3229 22.8754 53.7313 25.9518C50.4389 28.8085 48.1443 32.5991 46.8473 37.3236C46.8473 28.6437 48.3937 21.3372 51.4865 15.4041C54.9783 8.59196 59.9667 5.18591 66.4516 5.18591H78.723ZM78.723 13.9208H140.379H151.005L153.549 12.9319L154.596 10.6246C154.596 9.74562 154.247 8.97651 153.549 8.31728L151.005 7.32843H140.379H78.723H67.1999C66.2022 7.32843 65.3542 7.65804 64.6558 8.31728C63.9574 8.97651 63.6082 9.74562 63.6082 10.6246C63.6082 11.5036 63.9574 12.2727 64.6558 12.9319L67.1999 13.9208H78.723Z" fill="#93D51F"/>
<path fill-rule="evenodd" clip-rule="evenodd" d="M78.7229 13.9208H67.1998L64.6557 12.9319C63.9573 12.2727 63.6082 11.5036 63.6082 10.6246C63.6082 9.74563 63.9573 8.97652 64.6557 8.31728C65.3541 7.65805 66.2021 7.32843 67.1998 7.32843H78.7229H140.379H151.005L153.549 8.31728C154.247 8.97652 154.596 9.74563 154.596 10.6246L153.549 12.9319L151.005 13.9208H140.379H78.7229Z" fill="#CFFC61"/>
</g>
<mask id="mask3_182_22814" style="mask-type:luminance" maskUnits="userSpaceOnUse" x="141" y="49" width="43" height="51">
<path d="M141.427 49.662H183.329V99.1046H141.427V49.662Z" fill="white"/>
</mask>
<g mask="url(#mask3_182_22814)">
<path fill-rule="evenodd" clip-rule="evenodd" d="M54.7787 84.2718C52.9829 83.1731 51.2869 81.7448 49.6906 79.9868C45.0015 74.8228 42.657 68.615 42.657 61.3634V51.1453V-14.9431V-36.0386C42.657 -43.4 45.0015 -49.6078 49.6906 -54.662C54.3797 -59.826 60.0165 -62.408 66.6012 -62.408H78.7229H140.379H151.453C158.138 -62.408 163.775 -59.826 168.364 -54.662L172.405 -49.0585C174.4 -45.2129 175.398 -40.873 175.398 -36.0386V-14.9431V51.1453V61.3634C175.398 68.615 173.053 74.8228 168.364 79.9868C163.775 85.1508 158.138 87.7328 151.453 87.7328H140.379H78.7229H66.6012C62.2114 87.7328 58.2706 86.5791 54.7787 84.2718ZM78.7229 -57.9581H66.4515C59.9667 -57.9581 54.9783 -54.5521 51.4864 -47.74C48.3936 -41.8069 46.8472 -34.5004 46.8472 -25.8204C48.1442 -30.5449 50.4389 -34.3355 53.7312 -37.1922C57.3228 -40.2687 61.5629 -41.8069 66.4515 -41.8069H78.7229H140.379H151.304C156.192 -41.8069 160.682 -40.1588 164.772 -36.8626C168.564 -33.7862 171.008 -30.1055 172.105 -25.8204C172.105 -33.072 170.509 -39.8841 167.317 -46.2567C163.326 -54.0577 157.988 -57.9581 151.304 -57.9581H140.379H78.7229ZM78.7229 76.8554H66.4515C62.5606 76.8554 58.8193 75.5919 55.2277 73.0648C51.8356 70.7575 49.0421 67.791 46.8472 64.1652C47.3461 69.2193 49.1918 73.5043 52.3843 77.0202C55.9759 80.8658 60.665 82.7885 66.4515 82.7885H78.7229H140.379H151.304C155.893 82.7885 160.233 80.8658 164.324 77.0202C168.414 73.0648 170.659 68.7798 171.058 64.1652C168.763 67.9008 165.97 70.8674 162.677 73.0648C158.986 75.5919 155.195 76.8554 151.304 76.8554H140.379H78.7229Z" fill="#5D9615"/>
<path fill-rule="evenodd" clip-rule="evenodd" d="M54.7788 84.2718C58.2707 86.5792 62.2115 87.7328 66.6013 87.7328H78.723H140.379H151.454C158.138 87.7328 163.775 85.1508 168.364 79.9868C173.053 74.8228 175.398 68.615 175.398 61.3634V51.1453V-14.943V-36.0386C175.398 -40.873 174.4 -45.2129 172.405 -49.0585C174.101 -47.9597 175.747 -46.5314 177.343 -44.7734C182.032 -39.6094 184.377 -33.4016 184.377 -26.15V-14.943V51.1453V71.2519C184.377 78.6134 182.032 84.8212 177.343 89.8753C172.754 95.0393 167.117 97.6213 160.433 97.6213H140.379H78.723H75.5803C68.9957 97.6213 63.3588 95.0393 58.6697 89.8753L54.7788 84.2718Z" fill="black" fill-opacity="0.298039"/>
<path fill-rule="evenodd" clip-rule="evenodd" d="M78.723 76.8554H140.379H151.304C155.195 76.8554 158.986 75.5919 162.677 73.0648C165.97 70.8674 168.763 67.9008 171.058 64.1652C170.659 68.7798 168.414 73.0648 164.324 77.0202C160.233 80.8658 155.893 82.7886 151.304 82.7886H140.379H78.723H66.4516C60.6651 82.7886 55.976 80.8658 52.3844 77.0202C49.1918 73.5043 47.3461 69.2193 46.8473 64.1652C49.0422 67.791 51.8357 70.7575 55.2278 73.0648C58.8194 75.5919 62.5607 76.8554 66.4516 76.8554H78.723ZM78.723 -57.9581H140.379H151.304C157.988 -57.9581 163.326 -54.0577 167.317 -46.2567C170.509 -39.8841 172.105 -33.072 172.105 -25.8204C171.008 -30.1054 168.564 -33.7862 164.773 -36.8626C160.682 -40.1588 156.193 -41.8069 151.304 -41.8069H140.379H78.723H66.4516C61.563 -41.8069 57.3229 -40.2687 53.7313 -37.1922C50.4389 -34.3355 48.1443 -30.5449 46.8473 -25.8204C46.8473 -34.5003 48.3937 -41.8069 51.4865 -47.74C54.9783 -54.5521 59.9667 -57.9581 66.4516 -57.9581H78.723ZM78.723 -49.2233H140.379H151.005L153.549 -50.2121L154.596 -52.5194C154.596 -53.3984 154.247 -54.1675 153.549 -54.8268L151.005 -55.8156H140.379H78.723H67.1999C66.2022 -55.8156 65.3542 -55.486 64.6558 -54.8268C63.9574 -54.1675 63.6082 -53.3984 63.6082 -52.5194C63.6082 -51.6405 63.9574 -50.8714 64.6558 -50.2121L67.1999 -49.2233H78.723Z" fill="#93D51F"/>
</g>
<mask id="mask4_182_22814" style="mask-type:luminance" maskUnits="userSpaceOnUse" x="36" y="0" width="107" height="47">
<path d="M36.5464 0.736053H142.241V46.8825H36.5464V0.736053Z" fill="white"/>
</mask>
<g mask="url(#mask4_182_22814)">
<path fill-rule="evenodd" clip-rule="evenodd" d="M-3.46652 147.416C-6.48636 146.317 -9.33844 144.889 -12.0227 143.131C-19.9079 137.967 -23.8505 131.759 -23.8505 124.507V114.289V48.201V27.1055C-23.8505 19.744 -19.9079 13.5362 -12.0227 8.4821C-4.1376 3.31809 5.34136 0.736084 16.4141 0.736084H36.7981H140.479H159.102C170.342 0.736084 179.821 3.31809 187.539 8.4821L194.333 14.0856C197.689 17.9311 199.366 22.2711 199.366 27.1055V48.201V114.289V124.507C199.366 131.759 195.424 137.967 187.539 143.131C179.821 148.295 170.342 150.877 159.102 150.877H140.479H36.7981H16.4141C9.03228 150.877 2.4054 149.723 -3.46652 147.416ZM36.7981 5.18592H16.1625C5.25747 5.18592 -3.13098 8.59197 -9.0029 15.4041C-14.2037 21.3372 -16.8042 28.6437 -16.8042 37.3236C-14.6232 32.5991 -10.7645 28.8085 -5.2281 25.9518C0.811592 22.8754 7.94178 21.3372 16.1625 21.3372H36.7981H140.479H158.85C167.071 21.3372 174.62 22.9853 181.499 26.2814C187.874 29.3579 191.984 33.0386 193.83 37.3236C193.83 30.072 191.146 23.2599 185.777 16.8873C179.066 9.0864 170.091 5.18592 158.85 5.18592H140.479H36.7981ZM36.7981 139.999H16.1625C9.61947 139.999 3.32813 138.736 -2.71156 136.209C-8.41571 133.902 -13.1132 130.935 -16.8042 127.309C-15.9653 132.363 -12.8616 136.648 -7.49298 140.164C-1.45329 144.01 6.43185 145.933 16.1625 145.933H36.7981H140.479H158.85C166.567 145.933 173.865 144.01 180.744 140.164C187.622 136.209 191.397 131.924 192.068 127.309C188.21 131.045 183.512 134.011 177.976 136.209C171.768 138.736 165.393 139.999 158.85 139.999H140.479H36.7981Z" fill="#5D9615"/>
<path fill-rule="evenodd" clip-rule="evenodd" d="M-3.46655 147.416C2.40536 149.723 9.03224 150.877 16.4141 150.877H36.798H140.479H159.102C170.342 150.877 179.821 148.295 187.539 143.131C195.424 137.967 199.366 131.759 199.366 124.507V114.289V48.201V27.1055C199.366 22.2711 197.689 17.9311 194.333 14.0856C197.185 15.1843 199.953 16.6126 202.638 18.3706C210.523 23.5346 214.465 29.7424 214.465 36.994V48.201V114.289V134.396C214.465 141.757 210.523 147.965 202.638 153.019C194.92 158.183 185.441 160.765 174.201 160.765H140.479H36.798H31.5133C20.4405 160.765 10.9616 158.183 3.07644 153.019L-3.46655 147.416Z" fill="black" fill-opacity="0.298039"/>
<path fill-rule="evenodd" clip-rule="evenodd" d="M36.798 139.999H140.479H158.85C165.393 139.999 171.768 138.736 177.976 136.209C183.512 134.011 188.21 131.045 192.068 127.309C191.397 131.924 187.622 136.209 180.744 140.164C173.865 144.01 166.567 145.933 158.85 145.933H140.479H36.798H16.1624C6.43182 145.933 -1.45333 144.01 -7.49302 140.164C-12.8616 136.648 -15.9654 132.363 -16.8042 127.309C-13.1133 130.935 -8.41575 133.902 -2.7116 136.209C3.32809 138.736 9.61943 139.999 16.1624 139.999H36.798ZM36.798 5.18591H140.479H158.85C170.091 5.18591 179.066 9.08639 185.777 16.8873C191.146 23.2599 193.83 30.072 193.83 37.3236C191.984 33.0386 187.874 29.3579 181.499 26.2814C174.62 22.9853 167.071 21.3372 158.85 21.3372H140.479H36.798H16.1624C7.94174 21.3372 0.811556 22.8754 -5.22813 25.9518C-10.7645 28.8085 -14.6232 32.5991 -16.8042 37.3236C-16.8042 28.6437 -14.2038 21.3372 -9.00294 15.4041C-3.13102 8.59196 5.25743 5.18591 16.1624 5.18591H36.798ZM36.798 13.9208H140.479H158.347L162.625 12.9319L164.386 10.6246C164.386 9.74562 163.799 8.97651 162.625 8.31728L158.347 7.32843H140.479H36.798H17.4207C15.743 7.32843 14.317 7.65804 13.1426 8.31728C11.9682 8.97651 11.381 9.74562 11.381 10.6246C11.381 11.5036 11.9682 12.2727 13.1426 12.9319L17.4207 13.9208H36.798Z" fill="#93D51F"/>
<path fill-rule="evenodd" clip-rule="evenodd" d="M36.7981 13.9208H17.4208L13.1427 12.9319C11.9683 12.2727 11.3811 11.5036 11.3811 10.6246C11.3811 9.74563 11.9683 8.97652 13.1427 8.31728C14.3171 7.65805 15.7431 7.32843 17.4208 7.32843H36.7981H140.479H158.347L162.625 8.31728C163.799 8.97652 164.387 9.74563 164.387 10.6246L162.625 12.9319L158.347 13.9208H140.479H36.7981Z" fill="#CFFC61"/>
</g>
<mask id="mask5_182_22814" style="mask-type:luminance" maskUnits="userSpaceOnUse" x="0" y="46" width="37" height="5">
<path d="M0.834839 46.263H36.7512V50.8908H0.834839V46.263Z" fill="white"/>
</mask>
<g mask="url(#mask5_182_22814)">
<path fill-rule="evenodd" clip-rule="evenodd" d="M12.9566 53.3204C11.1608 53.2433 9.46473 53.143 7.86845 53.0196C3.17938 52.6571 0.834839 52.2213 0.834839 51.7122V50.9949V46.3555V44.8746C0.834839 44.3578 3.17938 43.922 7.86845 43.5672C12.5575 43.2047 18.1944 43.0235 24.779 43.0235H36.9008H98.5572H109.631C116.316 43.0235 121.953 43.2047 126.542 43.5672L130.583 43.9606C132.578 44.2306 133.576 44.5352 133.576 44.8746V46.3555V50.9949V51.7122C133.576 52.2213 131.231 52.6571 126.542 53.0196C121.953 53.3821 116.316 53.5633 109.631 53.5633H98.5572H36.9008H24.779C20.3893 53.5633 16.4485 53.4824 12.9566 53.3204ZM36.9008 43.3358H24.6294C18.1445 43.3358 13.1561 43.575 9.66427 44.0532C6.57147 44.4697 5.02508 44.9826 5.02508 45.5919C6.32205 45.2603 8.61671 44.9942 11.909 44.7936C15.5007 44.5776 19.7408 44.4697 24.6294 44.4697H36.9008H98.5572H109.482C114.37 44.4697 118.86 44.5854 122.95 44.8168C126.741 45.0327 129.186 45.2911 130.283 45.5919C130.283 45.0829 128.687 44.6046 125.494 44.1573C121.504 43.6097 116.166 43.3358 109.482 43.3358H98.5572H36.9008ZM36.9008 52.7998H24.6294C20.7385 52.7998 16.9972 52.7111 13.4055 52.5337C10.0135 52.3717 7.21996 52.1634 5.02508 51.9089C5.52391 52.2637 7.36961 52.5645 10.5622 52.8113C14.1538 53.0813 18.8429 53.2163 24.6294 53.2163H36.9008H98.5572H109.482C114.071 53.2163 118.411 53.0813 122.501 52.8113C126.592 52.5337 128.837 52.2328 129.236 51.9089C126.941 52.1711 124.148 52.3794 120.855 52.5337C117.164 52.7111 113.373 52.7998 109.482 52.7998H98.5572H36.9008Z" fill="#5D9615"/>
<path fill-rule="evenodd" clip-rule="evenodd" d="M12.9565 53.3204C16.4484 53.4824 20.3892 53.5634 24.779 53.5634H36.9008H98.5571H109.631C116.316 53.5634 121.953 53.3821 126.542 53.0196C131.231 52.6571 133.575 52.2213 133.575 51.7122V50.9949V46.3555V44.8746C133.575 44.5353 132.578 44.2306 130.582 43.9606C132.279 44.0378 133.925 44.138 135.521 44.2614C140.21 44.624 142.555 45.0597 142.555 45.5688V46.3555V50.9949V52.4064C142.555 52.9232 140.21 53.359 135.521 53.7138C130.932 54.0763 125.295 54.2576 118.61 54.2576H98.5571H36.9008H33.7581C27.1734 54.2576 21.5366 54.0763 16.8475 53.7138L12.9565 53.3204Z" fill="black" fill-opacity="0.298039"/>
<path fill-rule="evenodd" clip-rule="evenodd" d="M36.9008 52.7998H98.5571H109.482C113.373 52.7998 117.164 52.7111 120.855 52.5337C124.147 52.3794 126.941 52.1712 129.236 51.9089C128.837 52.2329 126.592 52.5337 122.501 52.8114C118.411 53.0813 114.071 53.2163 109.482 53.2163H98.5571H36.9008H24.6293C18.8428 53.2163 14.1538 53.0813 10.5621 52.8114C7.36956 52.5645 5.52386 52.2637 5.02502 51.9089C7.21991 52.1635 10.0134 52.3717 13.4055 52.5337C16.9971 52.7111 20.7384 52.7998 24.6293 52.7998H36.9008ZM36.9008 43.3359H98.5571H109.482C116.166 43.3359 121.504 43.6097 125.494 44.1573C128.687 44.6047 130.283 45.0829 130.283 45.5919C129.186 45.2911 126.741 45.0327 122.95 44.8168C118.86 44.5854 114.37 44.4697 109.482 44.4697H98.5571H36.9008H24.6293C19.7407 44.4697 15.5006 44.5777 11.909 44.7936C8.61666 44.9942 6.322 45.2603 5.02502 45.5919C5.02502 44.9826 6.57142 44.4697 9.66422 44.0532C13.1561 43.575 18.1445 43.3359 24.6293 43.3359H36.9008ZM36.9008 43.9491H98.5571H109.182L111.726 43.8796L112.774 43.7177C112.774 43.656 112.425 43.602 111.726 43.5557L109.182 43.4863H98.5571H36.9008H25.3776C24.3799 43.4863 23.5319 43.5094 22.8335 43.5557C22.1352 43.602 21.786 43.656 21.786 43.7177C21.786 43.7794 22.1352 43.8334 22.8335 43.8796L25.3776 43.9491H36.9008Z" fill="#93D51F"/>
</g>
<mask id="mask6_182_22814" style="mask-type:luminance" maskUnits="userSpaceOnUse" x="36" y="49" width="107" height="51">
<path d="M36.5464 49.662H142.241V99.1046H36.5464V49.662Z" fill="white"/>
</mask>
<g mask="url(#mask6_182_22814)">
<path fill-rule="evenodd" clip-rule="evenodd" d="M-3.46652 84.2718C-6.48636 83.1731 -9.33844 81.7448 -12.0227 79.9868C-19.9079 74.8228 -23.8505 68.615 -23.8505 61.3634V51.1453V-14.9431V-36.0386C-23.8505 -43.4 -19.9079 -49.6078 -12.0227 -54.662C-4.1376 -59.826 5.34136 -62.408 16.4141 -62.408H36.7981H140.479H159.102C170.342 -62.408 179.821 -59.826 187.539 -54.662L194.333 -49.0585C197.689 -45.2129 199.366 -40.873 199.366 -36.0386V-14.9431V51.1453V61.3634C199.366 68.615 195.424 74.8228 187.539 79.9868C179.821 85.1508 170.342 87.7328 159.102 87.7328H140.479H36.7981H16.4141C9.03228 87.7328 2.4054 86.5791 -3.46652 84.2718ZM36.7981 -57.9581H16.1625C5.25747 -57.9581 -3.13098 -54.5521 -9.0029 -47.74C-14.2037 -41.8069 -16.8042 -34.5004 -16.8042 -25.8204C-14.6232 -30.5449 -10.7645 -34.3355 -5.2281 -37.1922C0.811592 -40.2687 7.94178 -41.8069 16.1625 -41.8069H36.7981H140.479H158.85C167.071 -41.8069 174.62 -40.1588 181.499 -36.8626C187.874 -33.7862 191.984 -30.1055 193.83 -25.8204C193.83 -33.072 191.146 -39.8841 185.777 -46.2567C179.066 -54.0577 170.091 -57.9581 158.85 -57.9581H140.479H36.7981ZM36.7981 76.8554H16.1625C9.61947 76.8554 3.32813 75.5919 -2.71156 73.0648C-8.41571 70.7575 -13.1132 67.791 -16.8042 64.1652C-15.9653 69.2193 -12.8616 73.5043 -7.49298 77.0202C-1.45329 80.8658 6.43185 82.7885 16.1625 82.7885H36.7981H140.479H158.85C166.567 82.7885 173.865 80.8658 180.744 77.0202C187.622 73.0648 191.397 68.7798 192.068 64.1652C188.21 67.9008 183.512 70.8674 177.976 73.0648C171.768 75.5919 165.393 76.8554 158.85 76.8554H140.479H36.7981Z" fill="#5D9615"/>
<path fill-rule="evenodd" clip-rule="evenodd" d="M-3.46655 84.2718C2.40536 86.5791 9.03224 87.7328 16.4141 87.7328H36.798H140.479H159.102C170.342 87.7328 179.821 85.1508 187.539 79.9868C195.424 74.8228 199.366 68.615 199.366 61.3634V51.1453V-14.9431V-36.0386C199.366 -40.873 197.689 -45.2129 194.333 -49.0585C197.185 -47.9597 199.953 -46.5314 202.638 -44.7734C210.523 -39.6094 214.465 -33.4016 214.465 -26.1501V-14.9431V51.1453V71.2519C214.465 78.6134 210.523 84.8212 202.638 89.8753C194.92 95.0393 185.441 97.6213 174.201 97.6213H140.479H36.798H31.5133C20.4405 97.6213 10.9616 95.0393 3.07644 89.8753L-3.46655 84.2718Z" fill="black" fill-opacity="0.298039"/>
<path fill-rule="evenodd" clip-rule="evenodd" d="M36.798 76.8554H140.479H158.85C165.393 76.8554 171.768 75.5919 177.976 73.0648C183.512 70.8674 188.21 67.9008 192.068 64.1652C191.397 68.7798 187.622 73.0648 180.744 77.0202C173.865 80.8658 166.567 82.7885 158.85 82.7885H140.479H36.798H16.1624C6.43182 82.7885 -1.45333 80.8658 -7.49302 77.0202C-12.8616 73.5043 -15.9654 69.2193 -16.8042 64.1652C-13.1133 67.7909 -8.41575 70.7575 -2.7116 73.0648C3.32809 75.5919 9.61943 76.8554 16.1624 76.8554H36.798ZM36.798 -57.9581H140.479H158.85C170.091 -57.9581 179.066 -54.0577 185.777 -46.2567C191.146 -39.8841 193.83 -33.072 193.83 -25.8204C191.984 -30.1055 187.874 -33.7862 181.499 -36.8626C174.62 -40.1588 167.071 -41.8069 158.85 -41.8069H140.479H36.798H16.1624C7.94174 -41.8069 0.811556 -40.2687 -5.22813 -37.1922C-10.7645 -34.3356 -14.6232 -30.545 -16.8042 -25.8204C-16.8042 -34.5004 -14.2038 -41.8069 -9.00294 -47.74C-3.13102 -54.5521 5.25743 -57.9581 16.1624 -57.9581H36.798ZM36.798 -49.2233H140.479H158.347L162.625 -50.2121L164.386 -52.5195C164.386 -53.3984 163.799 -54.1675 162.625 -54.8268L158.347 -55.8156H140.479H36.798H17.4207C15.743 -55.8156 14.317 -55.486 13.1426 -54.8268C11.9682 -54.1675 11.381 -53.3984 11.381 -52.5195C11.381 -51.6405 11.9682 -50.8714 13.1426 -50.2121L17.4207 -49.2233H36.798Z" fill="#93D51F"/>
</g>
<mask id="mask7_182_22814" style="mask-type:luminance" maskUnits="userSpaceOnUse" x="141" y="46" width="43" height="5">
<path d="M141.427 46.263H183.329V50.8908H141.427V46.263Z" fill="white"/>
</mask>
<g mask="url(#mask7_182_22814)">
<path fill-rule="evenodd" clip-rule="evenodd" d="M54.7787 53.3204C52.9829 53.2433 51.2869 53.143 49.6906 53.0196C45.0015 52.6571 42.657 52.2213 42.657 51.7122V50.9949V46.3555V44.8746C42.657 44.3578 45.0015 43.922 49.6906 43.5672C54.3797 43.2047 60.0165 43.0235 66.6012 43.0235H78.7229H140.379H151.453C158.138 43.0235 163.775 43.2047 168.364 43.5672L172.405 43.9606C174.4 44.2306 175.398 44.5352 175.398 44.8746V46.3555V50.9949V51.7122C175.398 52.2213 173.053 52.6571 168.364 53.0196C163.775 53.3821 158.138 53.5633 151.453 53.5633H140.379H78.7229H66.6012C62.2114 53.5633 58.2706 53.4824 54.7787 53.3204ZM78.7229 43.3358H66.4515C59.9667 43.3358 54.9783 43.575 51.4864 44.0532C48.3936 44.4697 46.8472 44.9826 46.8472 45.5919C48.1442 45.2603 50.4389 44.9942 53.7312 44.7936C57.3228 44.5776 61.5629 44.4697 66.4515 44.4697H78.7229H140.379H151.304C156.192 44.4697 160.682 44.5854 164.772 44.8168C168.564 45.0327 171.008 45.2911 172.105 45.5919C172.105 45.0829 170.509 44.6046 167.317 44.1573C163.326 43.6097 157.988 43.3358 151.304 43.3358H140.379H78.7229ZM78.7229 52.7998H66.4515C62.5606 52.7998 58.8193 52.7111 55.2277 52.5337C51.8356 52.3717 49.0421 52.1634 46.8472 51.9089C47.3461 52.2637 49.1918 52.5645 52.3843 52.8113C55.9759 53.0813 60.665 53.2163 66.4515 53.2163H78.7229H140.379H151.304C155.893 53.2163 160.233 53.0813 164.324 52.8113C168.414 52.5337 170.659 52.2328 171.058 51.9089C168.763 52.1711 165.97 52.3794 162.677 52.5337C158.986 52.7111 155.195 52.7998 151.304 52.7998H140.379H78.7229Z" fill="#5D9615"/>
<path fill-rule="evenodd" clip-rule="evenodd" d="M54.7788 53.3204C58.2707 53.4824 62.2115 53.5634 66.6013 53.5634H78.723H140.379H151.454C158.138 53.5634 163.775 53.3821 168.364 53.0196C173.053 52.6571 175.398 52.2213 175.398 51.7122V50.9949V46.3555V44.8746C175.398 44.5353 174.4 44.2306 172.405 43.9606C174.101 44.0378 175.747 44.138 177.343 44.2614C182.032 44.624 184.377 45.0597 184.377 45.5688V46.3555V50.9949V52.4064C184.377 52.9232 182.032 53.359 177.343 53.7138C172.754 54.0763 167.117 54.2576 160.433 54.2576H140.379H78.723H75.5803C68.9957 54.2576 63.3588 54.0763 58.6697 53.7138L54.7788 53.3204Z" fill="black" fill-opacity="0.298039"/>
<path fill-rule="evenodd" clip-rule="evenodd" d="M78.723 52.7998H140.379H151.304C155.195 52.7998 158.986 52.7111 162.677 52.5337C165.97 52.3794 168.763 52.1712 171.058 51.9089C170.659 52.2329 168.414 52.5337 164.324 52.8114C160.233 53.0813 155.893 53.2163 151.304 53.2163H140.379H78.723H66.4516C60.6651 53.2163 55.976 53.0813 52.3844 52.8114C49.1918 52.5645 47.3461 52.2637 46.8473 51.9089C49.0422 52.1635 51.8357 52.3717 55.2278 52.5337C58.8194 52.7111 62.5607 52.7998 66.4516 52.7998H78.723ZM78.723 43.3359H140.379H151.304C157.988 43.3359 163.326 43.6097 167.317 44.1573C170.509 44.6047 172.105 45.0829 172.105 45.5919C171.008 45.2911 168.564 45.0327 164.773 44.8168C160.682 44.5854 156.193 44.4697 151.304 44.4697H140.379H78.723H66.4516C61.563 44.4697 57.3229 44.5777 53.7313 44.7936C50.4389 44.9942 48.1443 45.2603 46.8473 45.5919C46.8473 44.9826 48.3937 44.4697 51.4865 44.0532C54.9783 43.575 59.9667 43.3359 66.4516 43.3359H78.723ZM78.723 43.9491H140.379H151.005L153.549 43.8796L154.596 43.7177C154.596 43.656 154.247 43.602 153.549 43.5557L151.005 43.4863H140.379H78.723H67.1999C66.2022 43.4863 65.3542 43.5094 64.6558 43.5557C63.9574 43.602 63.6082 43.656 63.6082 43.7177C63.6082 43.7794 63.9574 43.8334 64.6558 43.8796L67.1999 43.9491H78.723Z" fill="#93D51F"/>
</g>
<mask id="mask8_182_22814" style="mask-type:luminance" maskUnits="userSpaceOnUse" x="36" y="46" width="107" height="5">
<path d="M36.5464 46.263H142.241V50.8908H36.5464V46.263Z" fill="white"/>
</mask>
<g mask="url(#mask8_182_22814)">
<path fill-rule="evenodd" clip-rule="evenodd" d="M-3.46652 53.3204C-6.48636 53.2433 -9.33844 53.143 -12.0227 53.0196C-19.9079 52.6571 -23.8505 52.2213 -23.8505 51.7122V50.9949V46.3555V44.8746C-23.8505 44.3578 -19.9079 43.922 -12.0227 43.5672C-4.1376 43.2047 5.34136 43.0235 16.4141 43.0235H36.7981H140.479H159.102C170.342 43.0235 179.821 43.2047 187.539 43.5672L194.333 43.9606C197.689 44.2306 199.366 44.5352 199.366 44.8746V46.3555V50.9949V51.7122C199.366 52.2213 195.424 52.6571 187.539 53.0196C179.821 53.3821 170.342 53.5633 159.102 53.5633H140.479H36.7981H16.4141C9.03228 53.5633 2.4054 53.4824 -3.46652 53.3204ZM36.7981 43.3358H16.1625C5.25747 43.3358 -3.13098 43.575 -9.0029 44.0532C-14.2037 44.4697 -16.8042 44.9826 -16.8042 45.5919C-14.6232 45.2603 -10.7645 44.9942 -5.2281 44.7936C0.811592 44.5776 7.94178 44.4697 16.1625 44.4697H36.7981H140.479H158.85C167.071 44.4697 174.62 44.5854 181.499 44.8168C187.874 45.0327 191.984 45.2911 193.83 45.5919C193.83 45.0829 191.146 44.6046 185.777 44.1573C179.066 43.6097 170.091 43.3358 158.85 43.3358H140.479H36.7981ZM36.7981 52.7998H16.1625C9.61947 52.7998 3.32813 52.7111 -2.71156 52.5337C-8.41571 52.3717 -13.1132 52.1634 -16.8042 51.9089C-15.9653 52.2637 -12.8616 52.5645 -7.49298 52.8113C-1.45329 53.0813 6.43185 53.2163 16.1625 53.2163H36.7981H140.479H158.85C166.567 53.2163 173.865 53.0813 180.744 52.8113C187.622 52.5337 191.397 52.2328 192.068 51.9089C188.21 52.1711 183.512 52.3794 177.976 52.5337C171.768 52.7111 165.393 52.7998 158.85 52.7998H140.479H36.7981Z" fill="#5D9615"/>
<path fill-rule="evenodd" clip-rule="evenodd" d="M-3.46655 53.3204C2.40536 53.4824 9.03224 53.5634 16.4141 53.5634H36.798H140.479H159.102C170.342 53.5634 179.821 53.3821 187.539 53.0196C195.424 52.6571 199.366 52.2213 199.366 51.7122V50.9949V46.3555V44.8746C199.366 44.5353 197.689 44.2306 194.333 43.9606C197.185 44.0378 199.953 44.138 202.638 44.2614C210.523 44.624 214.465 45.0597 214.465 45.5688V46.3555V50.9949V52.4064C214.465 52.9232 210.523 53.359 202.638 53.7138C194.92 54.0763 185.441 54.2576 174.201 54.2576H140.479H36.798H31.5133C20.4405 54.2576 10.9616 54.0763 3.07644 53.7138L-3.46655 53.3204Z" fill="black" fill-opacity="0.298039"/>
<path fill-rule="evenodd" clip-rule="evenodd" d="M36.798 52.7998H140.479H158.85C165.393 52.7998 171.768 52.7111 177.976 52.5337C183.512 52.3794 188.21 52.1712 192.068 51.9089C191.397 52.2329 187.622 52.5337 180.744 52.8114C173.865 53.0813 166.567 53.2163 158.85 53.2163H140.479H36.798H16.1624C6.43182 53.2163 -1.45333 53.0813 -7.49302 52.8114C-12.8616 52.5645 -15.9654 52.2637 -16.8042 51.9089C-13.1133 52.1635 -8.41575 52.3717 -2.7116 52.5337C3.32809 52.7111 9.61943 52.7998 16.1624 52.7998H36.798ZM36.798 43.3359H140.479H158.85C170.091 43.3359 179.066 43.6097 185.777 44.1573C191.146 44.6047 193.83 45.0829 193.83 45.5919C191.984 45.2911 187.874 45.0327 181.499 44.8168C174.62 44.5854 167.071 44.4697 158.85 44.4697H140.479H36.798H16.1624C7.94174 44.4697 0.811556 44.5777 -5.22813 44.7936C-10.7645 44.9942 -14.6232 45.2603 -16.8042 45.5919C-16.8042 44.9826 -14.2038 44.4697 -9.00294 44.0532C-3.13102 43.575 5.25743 43.3359 16.1624 43.3359H36.798ZM36.798 43.9491H140.479H158.347L162.625 43.8796L164.386 43.7177C164.386 43.656 163.799 43.602 162.625 43.5557L158.347 43.4863H140.479H36.798H17.4207C15.743 43.4863 14.317 43.5094 13.1426 43.5557C11.9682 43.602 11.381 43.656 11.381 43.7177C11.381 43.7794 11.9682 43.8334 13.1426 43.8796L17.4207 43.9491H36.798Z" fill="#93D51F"/>
</g>
<path fill-rule="evenodd" clip-rule="evenodd" d="M64.6749 31.0444L64.991 31.7696V43.9232H60.013L60.0656 43.1691L59.5915 42.995L60.0656 42.4439L59.7496 41.6317L60.0656 41.0806L59.7496 40.2975V39.6013L59.9076 39.4853V31.0444H64.6749ZM68.652 61.9942L65.8075 62.1682H61.0402L59.8549 61.9942V51.5519L60.013 50.4787H63.595L68.2833 49.9856V56.715L68.652 61.9942ZM54.1394 68.0565H74.9206V43.8072L74.6572 43.4591L70.6538 43.6332V24.8081H57.6952L53.718 24.518L53.8234 25.7653V30.9284L53.3493 35.6854V39.5433L53.1649 40.2684L54.1394 41.1967V68.0565Z" fill="white"/>
<path fill-rule="evenodd" clip-rule="evenodd" d="M100.185 25.5332H93.4426V61.8782L92.9685 62.6033H84.7772L85.1986 54.1625L85.4093 53.8724L84.7772 45.0835V25.5332H79.4304V57.0051L78.772 61.9942L79.009 62.7194V69.1298L83.3549 68.7817H99.8165V28.2598L100.185 25.5332Z" fill="white"/>
<path fill-rule="evenodd" clip-rule="evenodd" d="M123.432 24.576H117.11L113.765 37.4258L110.21 24.0539H103.941L109.024 38.122L110.157 42.3569L110.473 44.7354V67.7664H116.636V58.2524L116.478 57.7303L117.11 57.1791L116.9 56.1349V44.7644L117.11 42.5889L119.112 35.5694L123.432 24.576Z" fill="white"/>
</svg>
