<svg width="182" height="87" viewBox="0 0 182 87" fill="none" xmlns="http://www.w3.org/2000/svg">
<mask id="mask0_184_24356" style="mask-type:luminance" maskUnits="userSpaceOnUse" x="23" y="11" width="8" height="15">
<path d="M23.3176 11.2H30.1268V25.2H23.3176V11.2Z" fill="white"/>
</mask>
<g mask="url(#mask0_184_24356)">
<path fill-rule="evenodd" clip-rule="evenodd" d="M47.9158 15.25C48.2373 15.5833 48.5494 16.0167 48.852 16.55C49.741 18.1167 50.1855 20 50.1855 22.2V25.6V45.65V51.75C50.1855 53.9833 49.741 55.8667 48.852 57.4C47.982 58.9667 46.9133 59.75 45.646 59.75H41.8442H30.1551H29.5593C28.311 59.75 27.2423 58.9667 26.3533 57.4L25.6157 55.7C26.2777 56.4 27.0248 56.75 27.857 56.75H30.1551H41.8442H43.9437C45.211 56.75 46.2797 55.9667 47.1497 54.4C48.0387 52.8333 48.4832 50.95 48.4832 48.75V45.65V25.6V19.2C48.4832 17.7333 48.2941 16.4167 47.9158 15.25Z" fill="black" fill-opacity="0.301961"/>
<path fill-rule="evenodd" clip-rule="evenodd" d="M30.1552 53.45H41.8443H43.9154C44.6531 53.45 45.3718 53.0667 46.0716 52.3C46.6958 51.6333 47.2254 50.7333 47.6605 49.6C47.5848 51 47.1592 52.3 46.3837 53.5C45.6082 54.6667 44.7855 55.25 43.9154 55.25H41.8443H30.1552H27.8287C26.7316 55.25 25.8427 54.6667 25.1618 53.5C24.5565 52.4333 24.2066 51.1333 24.112 49.6C24.5281 50.7 25.0577 51.6 25.7008 52.3C26.3817 53.0667 27.091 53.45 27.8287 53.45H30.1552ZM43.9154 17.45H41.8443H30.1552H27.8287C26.9019 17.45 26.098 17.9167 25.4171 18.85C24.7929 19.7167 24.3579 20.8667 24.112 22.3C24.112 19.6667 24.4052 17.45 24.9915 15.65C25.6535 13.5833 26.5992 12.55 27.8287 12.55H30.1552H41.8443H43.9154C45.1827 12.55 46.1946 13.7333 46.9512 16.1C47.5564 18.0333 47.8591 20.1 47.8591 22.3C47.651 21 47.1876 19.8833 46.4688 18.95C45.6934 17.95 44.8422 17.45 43.9154 17.45ZM30.1552 15.2H41.8443H43.8587L44.341 14.9L44.5396 14.2C44.5396 13.9333 44.4734 13.7 44.341 13.5L43.8587 13.2H41.8443H30.1552H27.9705C27.7814 13.2 27.6206 13.3 27.4882 13.5C27.3558 13.7 27.2896 13.9333 27.2896 14.2C27.2896 14.4667 27.3558 14.7 27.4882 14.9L27.9705 15.2H30.1552Z" fill="#FFCB00"/>
<path fill-rule="evenodd" clip-rule="evenodd" d="M25.6157 55.7C25.2752 55.3667 24.9537 54.9333 24.651 54.4C23.7621 52.8333 23.3176 50.95 23.3176 48.75V45.65V25.6V19.2C23.3176 16.9667 23.7621 15.0833 24.651 13.55C25.54 11.9833 26.6087 11.2 27.857 11.2H30.1551H41.8442H43.9437C45.211 11.2 46.2797 11.9833 47.1497 13.55L47.9158 15.25C48.2941 16.4167 48.4832 17.7333 48.4832 19.2V25.6V45.65V48.75C48.4832 50.95 48.0387 52.8333 47.1497 54.4C46.2797 55.9667 45.211 56.75 43.9437 56.75H41.8442H30.1551H27.857C27.0248 56.75 26.2777 56.4 25.6157 55.7ZM43.9154 17.45C44.8422 17.45 45.6933 17.95 46.4688 18.95C47.1876 19.8833 47.651 21 47.859 22.3C47.859 20.1 47.5564 18.0333 46.9511 16.1C46.1946 13.7333 45.1826 12.55 43.9154 12.55H41.8442H30.1551H27.8287C26.5992 12.55 25.6535 13.5833 24.9915 15.65C24.4051 17.45 24.112 19.6667 24.112 22.3C24.3579 20.8667 24.7929 19.7167 25.4171 18.85C26.098 17.9167 26.9018 17.45 27.8287 17.45H30.1551H41.8442H43.9154ZM30.1551 53.45H27.8287C27.091 53.45 26.3817 53.0667 25.7008 52.3C25.0577 51.6 24.5281 50.7 24.112 49.6C24.2065 51.1333 24.5565 52.4333 25.1617 53.5C25.8426 54.6667 26.7316 55.25 27.8287 55.25H30.1551H41.8442H43.9154C44.7854 55.25 45.6082 54.6667 46.3837 53.5C47.1592 52.3 47.5848 51 47.6604 49.6C47.2254 50.7333 46.6958 51.6333 46.0716 52.3C45.3718 53.0667 44.653 53.45 43.9154 53.45H41.8442H30.1551Z" fill="#FFBA42"/>
<path fill-rule="evenodd" clip-rule="evenodd" d="M30.1551 15.2H27.9705L27.4882 14.9C27.3558 14.7 27.2896 14.4667 27.2896 14.2C27.2896 13.9333 27.3558 13.7 27.4882 13.5C27.6206 13.3 27.7814 13.2 27.9705 13.2H30.1551H41.8443H43.8586L44.341 13.5C44.4734 13.7 44.5396 13.9333 44.5396 14.2L44.341 14.9L43.8586 15.2H41.8443H30.1551Z" fill="white"/>
</g>
<mask id="mask1_184_24356" style="mask-type:luminance" maskUnits="userSpaceOnUse" x="23" y="65" width="8" height="16">
<path d="M23.3176 65.6503H30.1268V80.6503H23.3176V65.6503Z" fill="white"/>
</mask>
<g mask="url(#mask1_184_24356)">
<path fill-rule="evenodd" clip-rule="evenodd" d="M47.9158 35.7003C48.2373 36.0337 48.5494 36.467 48.852 37.0003C49.741 38.567 50.1855 40.4503 50.1855 42.6503V46.0503V66.1003V72.2003C50.1855 74.4337 49.741 76.317 48.852 77.8503C47.982 79.417 46.9133 80.2003 45.646 80.2003H41.8442H30.1551H29.5593C28.311 80.2003 27.2423 79.417 26.3533 77.8503L25.6157 76.1503C26.2777 76.8503 27.0248 77.2003 27.857 77.2003H30.1551H41.8442H43.9437C45.211 77.2003 46.2797 76.417 47.1497 74.8503C48.0387 73.2837 48.4832 71.4003 48.4832 69.2003V66.1003V46.0503V39.6503C48.4832 38.1837 48.2941 36.867 47.9158 35.7003Z" fill="black" fill-opacity="0.301961"/>
<path fill-rule="evenodd" clip-rule="evenodd" d="M30.1552 73.9003H41.8443H43.9154C44.6531 73.9003 45.3718 73.517 46.0716 72.7503C46.6958 72.0836 47.2254 71.1836 47.6605 70.0503C47.5848 71.4503 47.1592 72.7503 46.3837 73.9503C45.6082 75.117 44.7855 75.7003 43.9154 75.7003H41.8443H30.1552H27.8287C26.7316 75.7003 25.8427 75.117 25.1618 73.9503C24.5565 72.8836 24.2066 71.5836 24.112 70.0503C24.5281 71.1503 25.0577 72.0503 25.7008 72.7503C26.3817 73.517 27.091 73.9003 27.8287 73.9003H30.1552ZM43.9154 37.9003H41.8443H30.1552H27.8287C26.9019 37.9003 26.098 38.367 25.4171 39.3003C24.7929 40.167 24.3579 41.317 24.112 42.7503C24.112 40.117 24.4052 37.9003 24.9915 36.1003C25.6535 34.0336 26.5992 33.0003 27.8287 33.0003H30.1552H41.8443H43.9154C45.1827 33.0003 46.1946 34.1836 46.9512 36.5503C47.5564 38.4836 47.8591 40.5503 47.8591 42.7503C47.651 41.4503 47.1876 40.3336 46.4688 39.4003C45.6934 38.4003 44.8422 37.9003 43.9154 37.9003ZM30.1552 35.6503H41.8443H43.8587L44.341 35.3503L44.5396 34.6503C44.5396 34.3836 44.4734 34.1503 44.341 33.9503L43.8587 33.6503H41.8443H30.1552H27.9705C27.7814 33.6503 27.6206 33.7503 27.4882 33.9503C27.3558 34.1503 27.2896 34.3836 27.2896 34.6503C27.2896 34.917 27.3558 35.1503 27.4882 35.3503L27.9705 35.6503H30.1552Z" fill="#FFCB00"/>
<path fill-rule="evenodd" clip-rule="evenodd" d="M25.6157 76.1503C25.2752 75.817 24.9537 75.3837 24.651 74.8503C23.7621 73.2837 23.3176 71.4003 23.3176 69.2003V66.1003V46.0503V39.6503C23.3176 37.417 23.7621 35.5337 24.651 34.0003C25.54 32.4337 26.6087 31.6503 27.857 31.6503H30.1551H41.8442H43.9437C45.211 31.6503 46.2797 32.4337 47.1497 34.0003L47.9158 35.7003C48.2941 36.867 48.4832 38.1837 48.4832 39.6503V46.0503V66.1003V69.2003C48.4832 71.4003 48.0387 73.2837 47.1497 74.8503C46.2797 76.417 45.211 77.2003 43.9437 77.2003H41.8442H30.1551H27.857C27.0248 77.2003 26.2777 76.8503 25.6157 76.1503ZM43.9154 37.9003C44.8422 37.9003 45.6933 38.4003 46.4688 39.4003C47.1876 40.3337 47.651 41.4503 47.859 42.7503C47.859 40.5503 47.5564 38.4837 46.9511 36.5503C46.1946 34.1837 45.1826 33.0003 43.9154 33.0003H41.8442H30.1551H27.8287C26.5992 33.0003 25.6535 34.0337 24.9915 36.1003C24.4051 37.9003 24.112 40.117 24.112 42.7503C24.3579 41.317 24.7929 40.167 25.4171 39.3003C26.098 38.367 26.9018 37.9003 27.8287 37.9003H30.1551H41.8442H43.9154ZM30.1551 73.9003H27.8287C27.091 73.9003 26.3817 73.517 25.7008 72.7503C25.0577 72.0503 24.5281 71.1503 24.112 70.0503C24.2065 71.5837 24.5565 72.8837 25.1617 73.9503C25.8426 75.117 26.7316 75.7003 27.8287 75.7003H30.1551H41.8442H43.9154C44.7854 75.7003 45.6082 75.117 46.3837 73.9503C47.1592 72.7503 47.5848 71.4503 47.6604 70.0503C47.2254 71.1837 46.6958 72.0837 46.0716 72.7503C45.3718 73.517 44.653 73.9003 43.9154 73.9003H41.8442H30.1551Z" fill="#FFBA42"/>
</g>
<mask id="mask2_184_24356" style="mask-type:luminance" maskUnits="userSpaceOnUse" x="174" y="11" width="8" height="15">
<path d="M174.056 11.2H182V25.2H174.056V11.2Z" fill="white"/>
</mask>
<g mask="url(#mask2_184_24356)">
<path fill-rule="evenodd" clip-rule="evenodd" d="M179.929 15.25C180.25 15.5833 180.563 16.0167 180.865 16.55C181.754 18.1167 182.199 20 182.199 22.2V25.6V45.65V51.75C182.199 53.9833 181.754 55.8667 180.865 57.4C179.995 58.9667 178.926 59.75 177.659 59.75H173.857H162.168H161.572C160.324 59.75 159.255 58.9667 158.366 57.4L157.629 55.7C158.291 56.4 159.038 56.75 159.87 56.75H162.168H173.857H175.957C177.224 56.75 178.293 55.9667 179.163 54.4C180.052 52.8333 180.496 50.95 180.496 48.75V45.65V25.6V19.2C180.496 17.7333 180.307 16.4167 179.929 15.25Z" fill="black" fill-opacity="0.301961"/>
<path fill-rule="evenodd" clip-rule="evenodd" d="M162.168 53.45H173.857H175.929C176.666 53.45 177.385 53.0667 178.085 52.3C178.709 51.6333 179.239 50.7333 179.674 49.6C179.598 51 179.172 52.3 178.397 53.5C177.621 54.6667 176.799 55.25 175.929 55.25H173.857H162.168H159.842C158.745 55.25 157.856 54.6667 157.175 53.5C156.57 52.4333 156.22 51.1333 156.125 49.6C156.541 50.7 157.071 51.6 157.714 52.3C158.395 53.0667 159.104 53.45 159.842 53.45H162.168ZM175.929 17.45H173.857H162.168H159.842C158.915 17.45 158.111 17.9167 157.43 18.85C156.806 19.7167 156.371 20.8667 156.125 22.3C156.125 19.6667 156.418 17.45 157.005 15.65C157.667 13.5833 158.612 12.55 159.842 12.55H162.168H173.857H175.929C177.196 12.55 178.208 13.7333 178.964 16.1C179.57 18.0333 179.872 20.1 179.872 22.3C179.664 21 179.201 19.8833 178.482 18.95C177.706 17.95 176.855 17.45 175.929 17.45ZM162.168 15.2H173.857H175.872L176.354 14.9L176.553 14.2C176.553 13.9333 176.486 13.7 176.354 13.5L175.872 13.2H173.857H162.168H159.984C159.795 13.2 159.634 13.3 159.501 13.5C159.369 13.7 159.303 13.9333 159.303 14.2C159.303 14.4667 159.369 14.7 159.501 14.9L159.984 15.2H162.168Z" fill="#FFCB00"/>
<path fill-rule="evenodd" clip-rule="evenodd" d="M157.629 55.7C157.288 55.3667 156.967 54.9333 156.664 54.4C155.775 52.8333 155.331 50.95 155.331 48.75V45.65V25.6V19.2C155.331 16.9667 155.775 15.0833 156.664 13.55C157.553 11.9833 158.622 11.2 159.87 11.2H162.168H173.857H175.957C177.224 11.2 178.293 11.9833 179.163 13.55L179.929 15.25C180.307 16.4167 180.496 17.7333 180.496 19.2V25.6V45.65V48.75C180.496 50.95 180.052 52.8333 179.163 54.4C178.293 55.9667 177.224 56.75 175.957 56.75H173.857H162.168H159.87C159.038 56.75 158.291 56.4 157.629 55.7ZM175.928 17.45C176.855 17.45 177.706 17.95 178.482 18.95C179.201 19.8833 179.664 21 179.872 22.3C179.872 20.1 179.57 18.0333 178.964 16.1C178.208 13.7333 177.196 12.55 175.928 12.55H173.857H162.168H159.842C158.612 12.55 157.667 13.5833 157.005 15.65C156.418 17.45 156.125 19.6667 156.125 22.3C156.371 20.8667 156.806 19.7167 157.43 18.85C158.111 17.9167 158.915 17.45 159.842 17.45H162.168H173.857H175.928ZM162.168 53.45H159.842C159.104 53.45 158.395 53.0667 157.714 52.3C157.071 51.6 156.541 50.7 156.125 49.6C156.22 51.1333 156.57 52.4333 157.175 53.5C157.856 54.6667 158.745 55.25 159.842 55.25H162.168H173.857H175.928C176.799 55.25 177.621 54.6667 178.397 53.5C179.172 52.3 179.598 51 179.674 49.6C179.239 50.7333 178.709 51.6333 178.085 52.3C177.385 53.0667 176.666 53.45 175.928 53.45H173.857H162.168Z" fill="#FFBA42"/>
<path fill-rule="evenodd" clip-rule="evenodd" d="M162.168 15.2H159.984L159.501 14.9C159.369 14.7 159.303 14.4667 159.303 14.2C159.303 13.9333 159.369 13.7 159.501 13.5C159.634 13.3 159.795 13.2 159.984 13.2H162.168H173.857H175.872L176.354 13.5C176.486 13.7 176.553 13.9333 176.553 14.2L176.354 14.9L175.872 15.2H173.857H162.168Z" fill="white"/>
</g>
<mask id="mask3_184_24356" style="mask-type:luminance" maskUnits="userSpaceOnUse" x="174" y="65" width="8" height="16">
<path d="M174.056 65.6503H182V80.6503H174.056V65.6503Z" fill="white"/>
</mask>
<g mask="url(#mask3_184_24356)">
<path fill-rule="evenodd" clip-rule="evenodd" d="M179.929 35.7003C180.25 36.0337 180.563 36.467 180.865 37.0003C181.754 38.567 182.199 40.4503 182.199 42.6503V46.0503V66.1003V72.2003C182.199 74.4337 181.754 76.317 180.865 77.8503C179.995 79.417 178.926 80.2003 177.659 80.2003H173.857H162.168H161.572C160.324 80.2003 159.255 79.417 158.366 77.8503L157.629 76.1503C158.291 76.8503 159.038 77.2003 159.87 77.2003H162.168H173.857H175.957C177.224 77.2003 178.293 76.417 179.163 74.8503C180.052 73.2837 180.496 71.4003 180.496 69.2003V66.1003V46.0503V39.6503C180.496 38.1837 180.307 36.867 179.929 35.7003Z" fill="black" fill-opacity="0.301961"/>
<path fill-rule="evenodd" clip-rule="evenodd" d="M162.168 73.9003H173.857H175.929C176.666 73.9003 177.385 73.517 178.085 72.7503C178.709 72.0836 179.239 71.1836 179.674 70.0503C179.598 71.4503 179.172 72.7503 178.397 73.9503C177.621 75.117 176.799 75.7003 175.929 75.7003H173.857H162.168H159.842C158.745 75.7003 157.856 75.117 157.175 73.9503C156.57 72.8836 156.22 71.5836 156.125 70.0503C156.541 71.1503 157.071 72.0503 157.714 72.7503C158.395 73.517 159.104 73.9003 159.842 73.9003H162.168ZM175.929 37.9003H173.857H162.168H159.842C158.915 37.9003 158.111 38.367 157.43 39.3003C156.806 40.167 156.371 41.317 156.125 42.7503C156.125 40.117 156.418 37.9003 157.005 36.1003C157.667 34.0336 158.612 33.0003 159.842 33.0003H162.168H173.857H175.929C177.196 33.0003 178.208 34.1836 178.964 36.5503C179.57 38.4836 179.872 40.5503 179.872 42.7503C179.664 41.4503 179.201 40.3336 178.482 39.4003C177.706 38.4003 176.855 37.9003 175.929 37.9003ZM162.168 35.6503H173.857H175.872L176.354 35.3503L176.553 34.6503C176.553 34.3836 176.486 34.1503 176.354 33.9503L175.872 33.6503H173.857H162.168H159.984C159.795 33.6503 159.634 33.7503 159.501 33.9503C159.369 34.1503 159.303 34.3836 159.303 34.6503C159.303 34.917 159.369 35.1503 159.501 35.3503L159.984 35.6503H162.168Z" fill="#FFCB00"/>
<path fill-rule="evenodd" clip-rule="evenodd" d="M157.629 76.1503C157.288 75.817 156.967 75.3837 156.664 74.8503C155.775 73.2837 155.331 71.4003 155.331 69.2003V66.1003V46.0503V39.6503C155.331 37.417 155.775 35.5337 156.664 34.0003C157.553 32.4337 158.622 31.6503 159.87 31.6503H162.168H173.857H175.957C177.224 31.6503 178.293 32.4337 179.163 34.0003L179.929 35.7003C180.307 36.867 180.496 38.1837 180.496 39.6503V46.0503V66.1003V69.2003C180.496 71.4003 180.052 73.2837 179.163 74.8503C178.293 76.417 177.224 77.2003 175.957 77.2003H173.857H162.168H159.87C159.038 77.2003 158.291 76.8503 157.629 76.1503ZM175.928 37.9003C176.855 37.9003 177.706 38.4003 178.482 39.4003C179.201 40.3337 179.664 41.4503 179.872 42.7503C179.872 40.5503 179.57 38.4837 178.964 36.5503C178.208 34.1837 177.196 33.0003 175.928 33.0003H173.857H162.168H159.842C158.612 33.0003 157.667 34.0337 157.005 36.1003C156.418 37.9003 156.125 40.117 156.125 42.7503C156.371 41.317 156.806 40.167 157.43 39.3003C158.111 38.367 158.915 37.9003 159.842 37.9003H162.168H173.857H175.928ZM162.168 73.9003H159.842C159.104 73.9003 158.395 73.517 157.714 72.7503C157.071 72.0503 156.541 71.1503 156.125 70.0503C156.22 71.5837 156.57 72.8837 157.175 73.9503C157.856 75.117 158.745 75.7003 159.842 75.7003H162.168H173.857H175.928C176.799 75.7003 177.621 75.117 178.397 73.9503C179.172 72.7503 179.598 71.4503 179.674 70.0503C179.239 71.1837 178.709 72.0837 178.085 72.7503C177.385 73.517 176.666 73.9003 175.928 73.9003H173.857H162.168Z" fill="#FFBA42"/>
</g>
<mask id="mask4_184_24356" style="mask-type:luminance" maskUnits="userSpaceOnUse" x="29" y="11" width="148" height="15">
<path d="M29.483 11.2H176.632V25.2H29.483V11.2Z" fill="white"/>
</mask>
<g mask="url(#mask4_184_24356)">
<path fill-rule="evenodd" clip-rule="evenodd" d="M249.156 15.25C253.127 15.5833 256.981 16.0167 260.718 16.55C271.695 18.1167 277.184 20 277.184 22.2V25.6V45.65V51.75C277.184 53.9833 271.695 55.8667 260.718 57.4C249.973 58.9667 236.777 59.75 221.127 59.75H174.18H29.8333H22.4759C7.06021 59.75 -6.13652 58.9667 -17.1143 57.4L-26.2236 55.7C-18.0486 56.4 -8.82258 56.75 1.45452 56.75H29.8333H174.18H200.106C215.755 56.75 228.952 55.9667 239.696 54.4C250.674 52.8333 256.163 50.95 256.163 48.75V45.65V25.6V19.2C256.163 17.7333 253.827 16.4167 249.156 15.25Z" fill="black" fill-opacity="0.301961"/>
<path fill-rule="evenodd" clip-rule="evenodd" d="M29.8333 53.45H174.18H199.756C208.865 53.45 217.741 53.0667 226.383 52.3C234.091 51.6333 240.631 50.7333 246.003 49.6C245.068 51 239.813 52.3 230.237 53.5C220.66 54.6667 210.5 55.25 199.756 55.25H174.18H29.8333H1.10416C-12.4429 55.25 -23.4207 54.6667 -31.8293 53.5C-39.3035 52.4333 -43.6246 51.1333 -44.7924 49.6C-39.6539 50.7 -33.1139 51.6 -25.1725 52.3C-16.764 53.0667 -8.00508 53.45 1.10416 53.45H29.8333ZM199.756 17.45H174.18H29.8333H1.10416C-10.3408 17.45 -20.2675 17.9167 -28.6761 18.85C-36.3839 19.7167 -41.756 20.8667 -44.7924 22.3C-44.7924 19.6667 -41.1721 17.45 -33.9314 15.65C-25.7564 13.5833 -14.0779 12.55 1.10416 12.55H29.8333H174.18H199.756C215.405 12.55 227.901 13.7333 237.244 16.1C244.718 18.0333 248.455 20.1 248.455 22.3C245.886 21 240.163 19.8833 231.288 18.95C221.711 17.95 211.201 17.45 199.756 17.45ZM29.8333 15.2H174.18H199.055L205.011 14.9L207.464 14.2C207.464 13.9333 206.646 13.7 205.011 13.5L199.055 13.2H174.18H29.8333H2.85594C0.520237 13.2 -1.46511 13.3 -3.10011 13.5C-4.7351 13.7 -5.55259 13.9333 -5.55259 14.2C-5.55259 14.4667 -4.7351 14.7 -3.10011 14.9L2.85594 15.2H29.8333Z" fill="#FFCB00"/>
<path fill-rule="evenodd" clip-rule="evenodd" d="M-26.2236 55.7C-30.4279 55.3667 -34.3986 54.9333 -38.1357 54.4C-49.1135 52.8333 -54.6024 50.95 -54.6024 48.75V45.65V25.6V19.2C-54.6024 16.9667 -49.1135 15.0833 -38.1357 13.55C-27.1579 11.9833 -13.9612 11.2 1.45449 11.2H29.8333H174.18H200.106C215.755 11.2 228.952 11.9833 239.696 13.55L249.156 15.25C253.827 16.4167 256.163 17.7333 256.163 19.2V25.6V45.65V48.75C256.163 50.95 250.674 52.8333 239.696 54.4C228.952 55.9667 215.755 56.75 200.106 56.75H174.18H29.8333H1.45449C-8.82261 56.75 -18.0486 56.4 -26.2236 55.7ZM199.756 17.45C211.201 17.45 221.711 17.95 231.288 18.95C240.163 19.8833 245.886 21 248.455 22.3C248.455 20.1 244.718 18.0333 237.244 16.1C227.901 13.7333 215.405 12.55 199.756 12.55H174.18H29.8333H1.10413C-14.0779 12.55 -25.7565 13.5833 -33.9314 15.65C-41.1721 17.45 -44.7925 19.6667 -44.7925 22.3C-41.756 20.8667 -36.3839 19.7167 -28.6761 18.85C-20.2676 17.9167 -10.3408 17.45 1.10413 17.45H29.8333H174.18H199.756ZM29.8333 53.45H1.10413C-8.00512 53.45 -16.764 53.0667 -25.1725 52.3C-33.1139 51.6 -39.6539 50.7 -44.7925 49.6C-43.6246 51.1333 -39.3036 52.4333 -31.8293 53.5C-23.4208 54.6667 -12.443 55.25 1.10413 55.25H29.8333H174.18H199.756C210.5 55.25 220.66 54.6667 230.237 53.5C239.813 52.3 245.068 51 246.003 49.6C240.631 50.7333 234.091 51.6333 226.383 52.3C217.741 53.0667 208.865 53.45 199.756 53.45H174.18H29.8333Z" fill="#FFBA42"/>
<path fill-rule="evenodd" clip-rule="evenodd" d="M29.8334 15.2H2.85598L-3.10006 14.9C-4.73506 14.7 -5.55255 14.4667 -5.55255 14.2C-5.55255 13.9333 -4.73506 13.7 -3.10006 13.5C-1.46507 13.3 0.520278 13.2 2.85598 13.2H29.8334H174.18H199.055L205.011 13.5C206.646 13.7 207.464 13.9333 207.464 14.2L205.011 14.9L199.055 15.2H174.18H29.8334Z" fill="white"/>
</g>
<mask id="mask5_184_24356" style="mask-type:luminance" maskUnits="userSpaceOnUse" x="23" y="24" width="8" height="43">
<path d="M23.3176 24.7161H30.1268V66.2201H23.3176V24.7161Z" fill="white"/>
</mask>
<g mask="url(#mask5_184_24356)">
<path fill-rule="evenodd" clip-rule="evenodd" d="M47.9158 4.06787C48.2373 4.7596 48.5494 5.65886 48.852 6.76563C49.741 10.0168 50.1855 13.9251 50.1855 18.4905V25.5462V67.1539V79.8127C50.1855 84.4473 49.741 88.3556 48.852 91.5375C47.982 94.7887 46.9133 96.4143 45.646 96.4143H41.8442H30.1551H29.5593C28.311 96.4143 27.2423 94.7887 26.3533 91.5375L25.6157 88.0097C26.2777 89.4623 27.0248 90.1887 27.857 90.1887H30.1551H41.8442H43.9437C45.211 90.1887 46.2797 88.5631 47.1497 85.312C48.0387 82.0608 48.4832 78.1525 48.4832 73.5871V67.1539V25.5462V12.2649C48.4832 9.22128 48.2941 6.48894 47.9158 4.06787Z" fill="black" fill-opacity="0.301961"/>
<path fill-rule="evenodd" clip-rule="evenodd" d="M30.1552 83.3405H41.8443H43.9154C44.6531 83.3405 45.3718 82.545 46.0716 80.954C46.6958 79.5706 47.2254 77.7029 47.6605 75.351C47.5848 78.2563 47.1592 80.954 46.3837 83.4443C45.6082 85.8653 44.7855 87.0759 43.9154 87.0759H41.8443H30.1552H27.8287C26.7316 87.0759 25.8427 85.8653 25.1618 83.4443C24.5565 81.2307 24.2066 78.533 24.112 75.351C24.5281 77.6337 25.0577 79.5014 25.7008 80.954C26.3817 82.545 27.091 83.3405 27.8287 83.3405H30.1552ZM43.9154 8.63332H41.8443H30.1552H27.8287C26.9019 8.63332 26.098 9.60175 25.4171 11.5386C24.7929 13.3371 24.3579 15.7236 24.112 18.698C24.112 13.2333 24.4052 8.63332 24.9915 4.89796C25.6535 0.609217 26.5992 -1.53516 27.8287 -1.53516H30.1552H41.8443H43.9154C45.1827 -1.53516 46.1946 0.920497 46.9512 5.8318C47.5564 9.84386 47.8591 14.1326 47.8591 18.698C47.651 16.0003 47.1876 13.683 46.4688 11.7461C45.6934 9.67092 44.8422 8.63332 43.9154 8.63332ZM30.1552 3.96412H41.8443H43.8587L44.341 3.34156L44.5396 1.88892C44.5396 1.33554 44.4734 0.851323 44.341 0.436283L43.8587 -0.186276H41.8443H30.1552H27.9705C27.7814 -0.186276 27.6206 0.0212435 27.4882 0.436283C27.3558 0.851323 27.2896 1.33554 27.2896 1.88892C27.2896 2.44231 27.3558 2.92652 27.4882 3.34156L27.9705 3.96412H30.1552Z" fill="#FFCB00"/>
<path fill-rule="evenodd" clip-rule="evenodd" d="M25.6157 88.0097C25.2752 87.318 24.9537 86.4187 24.651 85.312C23.7621 82.0608 23.3176 78.1525 23.3176 73.5871V67.154V25.5462V12.2649C23.3176 7.63032 23.7621 3.72202 24.651 0.54005C25.54 -2.7111 26.6087 -4.33667 27.857 -4.33667H30.1551H41.8442H43.9437C45.211 -4.33667 46.2797 -2.7111 47.1497 0.54005L47.9158 4.06789C48.2941 6.48896 48.4832 9.2213 48.4832 12.2649V25.5462V67.154V73.5871C48.4832 78.1525 48.0387 82.0608 47.1497 85.312C46.2797 88.5631 45.211 90.1887 43.9437 90.1887H41.8442H30.1551H27.857C27.0248 90.1887 26.2777 89.4624 25.6157 88.0097ZM43.9154 8.63333C44.8422 8.63333 45.6933 9.67093 46.4688 11.7461C47.1876 13.683 47.651 16.0003 47.859 18.6981C47.859 14.1326 47.5564 9.84386 46.9511 5.83181C46.1946 0.920504 45.1826 -1.53515 43.9154 -1.53515H41.8442H30.1551H27.8287C26.5992 -1.53515 25.6535 0.609223 24.9915 4.89797C24.4051 8.63333 24.112 13.2334 24.112 18.6981C24.3579 15.7236 24.7929 13.3371 25.4171 11.5386C26.098 9.60176 26.9018 8.63333 27.8287 8.63333H30.1551H41.8442H43.9154ZM30.1551 83.3405H27.8287C27.091 83.3405 26.3817 82.545 25.7008 80.954C25.0577 79.5014 24.5281 77.6337 24.112 75.351C24.2065 78.533 24.5565 81.2307 25.1617 83.4443C25.8426 85.8654 26.7316 87.0759 27.8287 87.0759H30.1551H41.8442H43.9154C44.7854 87.0759 45.6082 85.8654 46.3837 83.4443C47.1592 80.954 47.5848 78.2563 47.6604 75.351C47.2254 77.7029 46.6958 79.5706 46.0716 80.954C45.3718 82.545 44.653 83.3405 43.9154 83.3405H41.8442H30.1551Z" fill="#FFBA42"/>
</g>
<mask id="mask6_184_24356" style="mask-type:luminance" maskUnits="userSpaceOnUse" x="29" y="65" width="148" height="16">
<path d="M29.483 65.6503H176.632V80.6503H29.483V65.6503Z" fill="white"/>
</mask>
<g mask="url(#mask6_184_24356)">
<path fill-rule="evenodd" clip-rule="evenodd" d="M249.156 35.7003C253.127 36.0337 256.981 36.467 260.718 37.0003C271.695 38.567 277.184 40.4503 277.184 42.6503V46.0503V66.1003V72.2003C277.184 74.4337 271.695 76.317 260.718 77.8503C249.973 79.417 236.777 80.2003 221.127 80.2003H174.18H29.8333H22.4759C7.06021 80.2003 -6.13652 79.417 -17.1143 77.8503L-26.2236 76.1503C-18.0486 76.8503 -8.82258 77.2003 1.45452 77.2003H29.8333H174.18H200.106C215.755 77.2003 228.952 76.417 239.696 74.8503C250.674 73.2837 256.163 71.4003 256.163 69.2003V66.1003V46.0503V39.6503C256.163 38.1837 253.827 36.867 249.156 35.7003Z" fill="black" fill-opacity="0.301961"/>
<path fill-rule="evenodd" clip-rule="evenodd" d="M29.8333 73.9003H174.18H199.756C208.865 73.9003 217.741 73.517 226.383 72.7503C234.091 72.0836 240.631 71.1836 246.003 70.0503C245.068 71.4503 239.813 72.7503 230.237 73.9503C220.66 75.117 210.5 75.7003 199.756 75.7003H174.18H29.8333H1.10416C-12.4429 75.7003 -23.4207 75.117 -31.8293 73.9503C-39.3035 72.8836 -43.6246 71.5836 -44.7924 70.0503C-39.6539 71.1503 -33.1139 72.0503 -25.1725 72.7503C-16.764 73.517 -8.00508 73.9003 1.10416 73.9003H29.8333ZM199.756 37.9003H174.18H29.8333H1.10416C-10.3408 37.9003 -20.2675 38.367 -28.6761 39.3003C-36.3839 40.167 -41.756 41.317 -44.7924 42.7503C-44.7924 40.117 -41.1721 37.9003 -33.9314 36.1003C-25.7564 34.0336 -14.0779 33.0003 1.10416 33.0003H29.8333H174.18H199.756C215.405 33.0003 227.901 34.1836 237.244 36.5503C244.718 38.4836 248.455 40.5503 248.455 42.7503C245.886 41.4503 240.163 40.3336 231.288 39.4003C221.711 38.4003 211.201 37.9003 199.756 37.9003ZM29.8333 35.6503H174.18H199.055L205.011 35.3503L207.464 34.6503C207.464 34.3836 206.646 34.1503 205.011 33.9503L199.055 33.6503H174.18H29.8333H2.85594C0.520237 33.6503 -1.46511 33.7503 -3.10011 33.9503C-4.7351 34.1503 -5.55259 34.3836 -5.55259 34.6503C-5.55259 34.917 -4.7351 35.1503 -3.10011 35.3503L2.85594 35.6503H29.8333Z" fill="#FFCB00"/>
<path fill-rule="evenodd" clip-rule="evenodd" d="M-26.2236 76.1503C-30.4279 75.817 -34.3986 75.3837 -38.1357 74.8503C-49.1135 73.2837 -54.6024 71.4003 -54.6024 69.2003V66.1003V46.0503V39.6503C-54.6024 37.417 -49.1135 35.5337 -38.1357 34.0003C-27.1579 32.4337 -13.9612 31.6503 1.45449 31.6503H29.8333H174.18H200.106C215.755 31.6503 228.952 32.4337 239.696 34.0003L249.156 35.7003C253.827 36.867 256.163 38.1837 256.163 39.6503V46.0503V66.1003V69.2003C256.163 71.4003 250.674 73.2837 239.696 74.8503C228.952 76.417 215.755 77.2003 200.106 77.2003H174.18H29.8333H1.45449C-8.82261 77.2003 -18.0486 76.8503 -26.2236 76.1503ZM199.756 37.9003C211.201 37.9003 221.711 38.4003 231.288 39.4003C240.163 40.3337 245.886 41.4503 248.455 42.7503C248.455 40.5503 244.718 38.4837 237.244 36.5503C227.901 34.1837 215.405 33.0003 199.756 33.0003H174.18H29.8333H1.10413C-14.0779 33.0003 -25.7565 34.0337 -33.9314 36.1003C-41.1721 37.9003 -44.7925 40.117 -44.7925 42.7503C-41.756 41.317 -36.3839 40.167 -28.6761 39.3003C-20.2676 38.367 -10.3408 37.9003 1.10413 37.9003H29.8333H174.18H199.756ZM29.8333 73.9003H1.10413C-8.00512 73.9003 -16.764 73.517 -25.1725 72.7503C-33.1139 72.0503 -39.6539 71.1503 -44.7925 70.0503C-43.6246 71.5837 -39.3036 72.8837 -31.8293 73.9503C-23.4208 75.117 -12.443 75.7003 1.10413 75.7003H29.8333H174.18H199.756C210.5 75.7003 220.66 75.117 230.237 73.9503C239.813 72.7503 245.068 71.4503 246.003 70.0503C240.631 71.1837 234.091 72.0837 226.383 72.7503C217.741 73.517 208.865 73.9003 199.756 73.9003H174.18H29.8333Z" fill="#FFBA42"/>
</g>
<mask id="mask7_184_24356" style="mask-type:luminance" maskUnits="userSpaceOnUse" x="174" y="24" width="8" height="43">
<path d="M174.056 24.7161H182V66.2201H174.056V24.7161Z" fill="white"/>
</mask>
<g mask="url(#mask7_184_24356)">
<path fill-rule="evenodd" clip-rule="evenodd" d="M179.929 4.06787C180.25 4.7596 180.563 5.65886 180.865 6.76563C181.754 10.0168 182.199 13.9251 182.199 18.4905V25.5462V67.1539V79.8127C182.199 84.4473 181.754 88.3556 180.865 91.5375C179.995 94.7887 178.926 96.4143 177.659 96.4143H173.857H162.168H161.572C160.324 96.4143 159.255 94.7887 158.366 91.5375L157.629 88.0097C158.291 89.4623 159.038 90.1887 159.87 90.1887H162.168H173.857H175.957C177.224 90.1887 178.293 88.5631 179.163 85.312C180.052 82.0608 180.496 78.1525 180.496 73.5871V67.1539V25.5462V12.2649C180.496 9.22128 180.307 6.48894 179.929 4.06787Z" fill="black" fill-opacity="0.301961"/>
<path fill-rule="evenodd" clip-rule="evenodd" d="M162.168 83.3405H173.857H175.929C176.666 83.3405 177.385 82.545 178.085 80.954C178.709 79.5706 179.239 77.7029 179.674 75.351C179.598 78.2563 179.172 80.954 178.397 83.4443C177.621 85.8653 176.799 87.0759 175.929 87.0759H173.857H162.168H159.842C158.745 87.0759 157.856 85.8653 157.175 83.4443C156.57 81.2307 156.22 78.533 156.125 75.351C156.541 77.6337 157.071 79.5014 157.714 80.954C158.395 82.545 159.104 83.3405 159.842 83.3405H162.168ZM175.929 8.63332H173.857H162.168H159.842C158.915 8.63332 158.111 9.60175 157.43 11.5386C156.806 13.3371 156.371 15.7236 156.125 18.698C156.125 13.2333 156.418 8.63332 157.005 4.89796C157.667 0.609217 158.612 -1.53516 159.842 -1.53516H162.168H173.857H175.929C177.196 -1.53516 178.208 0.920497 178.964 5.8318C179.57 9.84386 179.872 14.1326 179.872 18.698C179.664 16.0003 179.201 13.683 178.482 11.7461C177.706 9.67092 176.855 8.63332 175.929 8.63332ZM162.168 3.96412H173.857H175.872L176.354 3.34156L176.553 1.88892C176.553 1.33554 176.486 0.851323 176.354 0.436283L175.872 -0.186276H173.857H162.168H159.984C159.795 -0.186276 159.634 0.0212435 159.501 0.436283C159.369 0.851323 159.303 1.33554 159.303 1.88892C159.303 2.44231 159.369 2.92652 159.501 3.34156L159.984 3.96412H162.168Z" fill="#FFCB00"/>
<path fill-rule="evenodd" clip-rule="evenodd" d="M157.629 88.0097C157.288 87.318 156.967 86.4187 156.664 85.312C155.775 82.0608 155.331 78.1525 155.331 73.5871V67.154V25.5462V12.2649C155.331 7.63032 155.775 3.72202 156.664 0.54005C157.553 -2.7111 158.622 -4.33667 159.87 -4.33667H162.168H173.857H175.957C177.224 -4.33667 178.293 -2.7111 179.163 0.54005L179.929 4.06789C180.307 6.48896 180.496 9.2213 180.496 12.2649V25.5462V67.154V73.5871C180.496 78.1525 180.052 82.0608 179.163 85.312C178.293 88.5631 177.224 90.1887 175.957 90.1887H173.857H162.168H159.87C159.038 90.1887 158.291 89.4624 157.629 88.0097ZM175.928 8.63333C176.855 8.63333 177.706 9.67093 178.482 11.7461C179.201 13.683 179.664 16.0003 179.872 18.6981C179.872 14.1326 179.57 9.84386 178.964 5.83181C178.208 0.920504 177.196 -1.53515 175.928 -1.53515H173.857H162.168H159.842C158.612 -1.53515 157.667 0.609223 157.005 4.89797C156.418 8.63333 156.125 13.2334 156.125 18.6981C156.371 15.7236 156.806 13.3371 157.43 11.5386C158.111 9.60176 158.915 8.63333 159.842 8.63333H162.168H173.857H175.928ZM162.168 83.3405H159.842C159.104 83.3405 158.395 82.545 157.714 80.954C157.071 79.5014 156.541 77.6337 156.125 75.351C156.22 78.533 156.57 81.2307 157.175 83.4443C157.856 85.8654 158.745 87.0759 159.842 87.0759H162.168H173.857H175.928C176.799 87.0759 177.621 85.8654 178.397 83.4443C179.172 80.954 179.598 78.2563 179.674 75.351C179.239 77.7029 178.709 79.5706 178.085 80.954C177.385 82.545 176.666 83.3405 175.928 83.3405H173.857H162.168Z" fill="#FFBA42"/>
</g>
<mask id="mask8_184_24356" style="mask-type:luminance" maskUnits="userSpaceOnUse" x="29" y="24" width="148" height="43">
<path d="M29.483 24.7161H176.632V66.2201H29.483V24.7161Z" fill="white"/>
</mask>
<g mask="url(#mask8_184_24356)">
<path fill-rule="evenodd" clip-rule="evenodd" d="M249.156 4.06787C253.127 4.7596 256.981 5.65886 260.718 6.76563C271.695 10.0168 277.184 13.9251 277.184 18.4905V25.5462V67.1539V79.8127C277.184 84.4473 271.695 88.3556 260.718 91.5375C249.973 94.7887 236.777 96.4143 221.127 96.4143H174.18H29.8333H22.4759C7.06021 96.4143 -6.13652 94.7887 -17.1143 91.5375L-26.2236 88.0097C-18.0486 89.4623 -8.82258 90.1887 1.45452 90.1887H29.8333H174.18H200.106C215.755 90.1887 228.952 88.5631 239.696 85.312C250.674 82.0608 256.163 78.1525 256.163 73.5871V67.1539V25.5462V12.2649C256.163 9.22128 253.827 6.48894 249.156 4.06787Z" fill="black" fill-opacity="0.301961"/>
<path fill-rule="evenodd" clip-rule="evenodd" d="M29.8333 83.3405H174.18H199.756C208.865 83.3405 217.741 82.545 226.383 80.954C234.091 79.5706 240.631 77.7029 246.003 75.351C245.068 78.2563 239.813 80.954 230.237 83.4443C220.66 85.8653 210.5 87.0759 199.756 87.0759H174.18H29.8333H1.10416C-12.4429 87.0759 -23.4207 85.8653 -31.8293 83.4443C-39.3035 81.2307 -43.6246 78.533 -44.7924 75.351C-39.6539 77.6337 -33.1139 79.5014 -25.1725 80.954C-16.764 82.545 -8.00508 83.3405 1.10416 83.3405H29.8333ZM199.756 8.63332H174.18H29.8333H1.10416C-10.3408 8.63332 -20.2675 9.60175 -28.6761 11.5386C-36.3839 13.3371 -41.756 15.7236 -44.7924 18.698C-44.7924 13.2333 -41.1721 8.63332 -33.9314 4.89796C-25.7564 0.609217 -14.0779 -1.53516 1.10416 -1.53516H29.8333H174.18H199.756C215.405 -1.53516 227.901 0.920497 237.244 5.8318C244.718 9.84386 248.455 14.1326 248.455 18.698C245.886 16.0003 240.163 13.683 231.288 11.7461C221.711 9.67092 211.201 8.63332 199.756 8.63332ZM29.8333 3.96412H174.18H199.055L205.011 3.34156L207.464 1.88892C207.464 1.33554 206.646 0.851323 205.011 0.436283L199.055 -0.186276H174.18H29.8333H2.85594C0.520237 -0.186276 -1.46511 0.0212435 -3.10011 0.436283C-4.7351 0.851323 -5.55259 1.33554 -5.55259 1.88892C-5.55259 2.44231 -4.7351 2.92652 -3.10011 3.34156L2.85594 3.96412H29.8333Z" fill="#FFCB00"/>
<path fill-rule="evenodd" clip-rule="evenodd" d="M-26.2236 88.0097C-30.4279 87.318 -34.3986 86.4187 -38.1357 85.312C-49.1135 82.0608 -54.6024 78.1525 -54.6024 73.5871V67.154V25.5462V12.2649C-54.6024 7.63032 -49.1135 3.72202 -38.1357 0.54005C-27.1579 -2.7111 -13.9612 -4.33667 1.45449 -4.33667H29.8333H174.18H200.106C215.755 -4.33667 228.952 -2.7111 239.696 0.54005L249.156 4.06789C253.827 6.48896 256.163 9.2213 256.163 12.2649V25.5462V67.154V73.5871C256.163 78.1525 250.674 82.0608 239.696 85.312C228.952 88.5631 215.755 90.1887 200.106 90.1887H174.18H29.8333H1.45449C-8.82261 90.1887 -18.0486 89.4624 -26.2236 88.0097ZM199.756 8.63333C211.201 8.63333 221.711 9.67093 231.288 11.7461C240.163 13.683 245.886 16.0003 248.455 18.6981C248.455 14.1326 244.718 9.84386 237.244 5.83181C227.901 0.920504 215.405 -1.53515 199.756 -1.53515H174.18H29.8333H1.10413C-14.0779 -1.53515 -25.7565 0.609223 -33.9314 4.89797C-41.1721 8.63333 -44.7925 13.2334 -44.7925 18.6981C-41.756 15.7236 -36.3839 13.3371 -28.6761 11.5386C-20.2676 9.60176 -10.3408 8.63333 1.10413 8.63333H29.8333H174.18H199.756ZM29.8333 83.3405H1.10413C-8.00512 83.3405 -16.764 82.545 -25.1725 80.954C-33.1139 79.5014 -39.6539 77.6337 -44.7925 75.351C-43.6246 78.533 -39.3036 81.2307 -31.8293 83.4443C-23.4208 85.8654 -12.443 87.0759 1.10413 87.0759H29.8333H174.18H199.756C210.5 87.0759 220.66 85.8654 230.237 83.4443C239.813 80.954 245.068 78.2563 246.003 75.351C240.631 77.7029 234.091 79.5706 226.383 80.954C217.741 82.545 208.865 83.3405 199.756 83.3405H174.18H29.8333Z" fill="#FFBA42"/>
</g>
<path fill-rule="evenodd" clip-rule="evenodd" d="M35.1366 69.0525C39.5081 69.0525 43.4426 69.4358 46.9398 70.2025C51.4571 71.1692 54.0072 72.6192 54.5901 74.5525C57.4316 76.3858 58.8524 78.1358 58.8524 79.8025C58.8524 82.4025 55.4098 84.2358 48.5245 85.3025L35.2459 86.2025L21.9672 85.3025C15.0455 84.2358 11.5847 82.4025 11.5847 79.8025C11.5847 78.2692 12.9508 76.5858 15.683 74.7525C16.0837 72.7525 18.5792 71.2358 23.1694 70.2025C26.6302 69.4358 30.6193 69.0525 35.1366 69.0525Z" fill="#FDE740"/>
<path fill-rule="evenodd" clip-rule="evenodd" d="M35.4098 71.0525C40.8379 71.0525 45.9199 72.1858 50.6557 74.4525C54.8087 76.4858 56.8852 78.2692 56.8852 79.8025C56.8852 81.0692 54.7723 82.1358 50.5465 83.0025C46.2842 83.9025 41.184 84.3525 35.2459 84.3525C29.2714 84.3525 24.1712 83.9025 19.9454 83.0025C15.7195 82.1358 13.6066 81.0692 13.6066 79.8025C13.6066 78.2692 15.7377 76.4858 20 74.4525C24.8452 72.1858 29.9818 71.0525 35.4098 71.0525Z" fill="#79401B"/>
<path fill-rule="evenodd" clip-rule="evenodd" d="M33.4426 81.3525C27.796 81.1858 23.3334 80.6692 20.0547 79.8025C17.6139 79.1692 15.9927 78.4025 15.1913 77.5025C17.0492 75.8692 19.6904 74.4358 23.1148 73.2025C27.1221 71.7692 31.2204 71.0525 35.4099 71.0525C39.49 71.0525 43.4609 71.7358 47.3224 73.1025C50.5647 74.2692 53.1512 75.6525 55.082 77.2525C54.0255 78.5192 52.0219 79.5192 49.0711 80.2525C45.1731 81.2192 39.9636 81.5858 33.4426 81.3525Z" fill="#B65E27"/>
<path fill-rule="evenodd" clip-rule="evenodd" d="M35.1366 70.9025C39.9817 70.9025 44.1165 71.3358 47.5409 72.2025C50.9653 73.1025 52.6775 74.1691 52.6775 75.4025C52.6775 76.6025 50.9653 77.5691 47.5409 78.3025C44.2622 79.0025 40.1274 79.3525 35.1366 79.3525C30.1457 79.3525 26.0109 79.0025 22.7322 78.3025C19.3078 77.5691 17.5956 76.6025 17.5956 75.4025C17.5956 74.1691 19.3078 73.1025 22.7322 72.2025C26.1566 71.3358 30.2914 70.9025 35.1366 70.9025Z" fill="#79401B"/>
<path fill-rule="evenodd" clip-rule="evenodd" d="M34.3169 76.2025C24.6995 76.0358 20.1093 74.9358 20.5465 72.9025C24.0802 71.5691 28.9435 70.9025 35.1366 70.9025L44.2077 71.5525C46.9035 71.9525 48.9982 72.5025 50.4918 73.2025C49.6175 75.3691 44.2259 76.3691 34.3169 76.2025Z" fill="#B65E27"/>
<path fill-rule="evenodd" clip-rule="evenodd" d="M51.3661 11.5025C56.9034 14.2691 61.3115 18.1025 64.5901 23.0025C67.9781 28.1025 69.6721 33.6191 69.6721 39.5525C69.6721 48.3525 66.2659 55.8691 59.4535 62.1025C52.6411 68.3358 44.4262 71.4525 34.8087 71.4525C25.2277 71.4525 17.031 68.3358 10.2186 62.1025C3.40619 55.8691 0 48.3525 0 39.5525C0 30.7525 3.40619 23.2358 10.2186 17.0025C17.031 10.7691 25.2277 7.65247 34.8087 7.65247L38.6339 7.85247L38.8524 1.80247C45.0091 -0.897528 49.4535 -0.564194 52.1858 2.80247C53.5701 4.46914 54.3169 6.41914 54.4262 8.65247L51.3661 11.5025Z" fill="#FDE740"/>
<path fill-rule="evenodd" clip-rule="evenodd" d="M31.5301 72.9525C31.2751 68.8191 32.4773 65.8025 35.1367 63.9025C35.9746 63.3358 36.9035 62.9025 37.9236 62.6025L39.235 62.3525L39.0711 72.8025C37.8325 73.9025 36.1931 74.2525 34.1531 73.8525L31.5301 72.9525Z" fill="#743D19"/>
<path fill-rule="evenodd" clip-rule="evenodd" d="M67.541 39.5525C67.541 47.8191 64.3534 54.8858 57.9781 60.7525C51.5665 66.5858 43.8434 69.5025 34.8088 69.5025C25.7741 69.5025 18.0692 66.5858 11.694 60.7525C5.31878 54.8858 2.13116 47.8191 2.13116 39.5525C2.13116 31.2858 5.31878 24.2191 11.694 18.3525C18.0692 12.5191 25.7741 9.60248 34.8088 9.60248C43.8434 9.60248 51.5665 12.5191 57.9781 18.3525C64.3534 24.2191 67.541 31.2858 67.541 39.5525Z" fill="#3D3D3D"/>
<path fill-rule="evenodd" clip-rule="evenodd" d="M63.2241 39.5525C63.2241 46.7191 60.4554 52.8358 54.9181 57.9025C49.3443 62.9691 42.6412 65.5025 34.8088 65.5025C26.9764 65.5025 20.2915 62.9691 14.7542 57.9025C9.21685 52.8358 6.44818 46.7191 6.44818 39.5525C6.44818 32.3858 9.21685 26.2691 14.7542 21.2025C20.2915 16.1358 26.9764 13.6025 34.8088 13.6025C42.6412 13.6025 49.3443 16.1358 54.9181 21.2025C60.4554 26.2691 63.2241 32.3858 63.2241 39.5525Z" fill="#10763C"/>
<path fill-rule="evenodd" clip-rule="evenodd" d="M6.44818 39.5525C6.44818 32.3858 9.21685 26.2691 14.7542 21.2025C20.2915 16.1358 26.9764 13.6025 34.8088 13.6025C40.5647 13.6025 45.7742 15.0358 50.4372 17.9025L16.6668 59.5025C13.4974 57.0691 11.0201 54.1525 9.23506 50.7525C7.37714 47.2191 6.44818 43.4858 6.44818 39.5525Z" fill="#F9EF67"/>
<path fill-rule="evenodd" clip-rule="evenodd" d="M34.8088 13.6025H34.9728L34.8635 65.5025H34.8088C26.9764 65.5025 20.2915 62.9691 14.7542 57.9025C9.21685 52.8358 6.44818 46.7191 6.44818 39.5525C6.44818 32.3858 9.21685 26.2691 14.7542 21.2025C20.2915 16.1358 26.9764 13.6025 34.8088 13.6025Z" fill="#CD2027"/>
<path fill-rule="evenodd" clip-rule="evenodd" d="M61.2569 30.1525C62.5684 33.1858 63.2241 36.3191 63.2241 39.5525C63.2241 46.7191 60.4555 52.8358 54.9181 57.9025C49.3443 62.9691 42.6413 65.5025 34.8088 65.5025C28.725 65.5025 23.2059 63.8858 18.2515 60.6525C13.4427 57.4525 10.0547 53.3025 8.08752 48.2025L61.2569 30.1525Z" fill="#F89E1C"/>
<path fill-rule="evenodd" clip-rule="evenodd" d="M8.08752 30.8525L34.9181 39.6025L34.8635 65.5025H34.8088C26.9764 65.5025 20.2915 62.9691 14.7542 57.9025C9.21685 52.8358 6.44818 46.7191 6.44818 39.5525C6.44818 36.6525 6.99463 33.7525 8.08752 30.8525Z" fill="#944C9C"/>
<path fill-rule="evenodd" clip-rule="evenodd" d="M34.9727 13.6025L34.918 39.4025L18.9071 18.0525C23.7158 15.0858 29.0164 13.6025 34.8087 13.6025H34.9727Z" fill="#4959A7"/>
<path fill-rule="evenodd" clip-rule="evenodd" d="M51.6941 60.5025C48.7432 62.5358 45.0638 64.0191 40.6558 64.9525C31.8034 66.7525 23.6795 64.8358 16.2842 59.2025L34.9728 39.6025L51.6941 60.5025Z" fill="#3E60AB"/>
<path fill-rule="evenodd" clip-rule="evenodd" d="M59.3989 39.5525C59.3989 45.7525 56.9946 51.0525 52.1858 55.4525C47.4135 59.8525 41.6211 62.0525 34.8088 62.0525C28.0328 62.0525 22.2587 59.8525 17.4864 55.4525C12.6776 51.0525 10.2733 45.7525 10.2733 39.5525C10.2733 33.3525 12.6776 28.0525 17.4864 23.6525C22.2587 19.2525 28.0328 17.0525 34.8088 17.0525C41.6211 17.0525 47.4135 19.2525 52.1858 23.6525C56.9946 28.0525 59.3989 33.3525 59.3989 39.5525Z" fill="#1D5D2F"/>
<path fill-rule="evenodd" clip-rule="evenodd" d="M12.459 48.9025C11.0019 45.9358 10.2733 42.8192 10.2733 39.5525C10.2733 33.3525 12.6776 28.0525 17.4864 23.6525C22.2587 19.2525 28.0328 17.0525 34.8088 17.0525C39.6539 17.0525 44.1348 18.2692 48.2514 20.7025L18.4153 56.3025C15.8652 54.2025 13.8798 51.7358 12.459 48.9025Z" fill="#C3BF48"/>
<path fill-rule="evenodd" clip-rule="evenodd" d="M34.8088 17.0525H34.9727L34.8634 62.0525H34.8088C28.0328 62.0525 22.2587 59.8525 17.4864 55.4525C12.6776 51.0525 10.2733 45.7525 10.2733 39.5525C10.2733 33.3525 12.6776 28.0525 17.4864 23.6525C22.2587 19.2525 28.0328 17.0525 34.8088 17.0525Z" fill="#BB2025"/>
<path fill-rule="evenodd" clip-rule="evenodd" d="M63.2241 39.5525C63.2241 41.9525 62.8598 44.3025 62.1312 46.6025L34.4809 39.2525L61.2568 30.1525C62.5683 33.1858 63.2241 36.3191 63.2241 39.5525Z" fill="#ED1D46"/>
<path fill-rule="evenodd" clip-rule="evenodd" d="M57.7595 31.4025C58.8524 34.1025 59.3989 36.8191 59.3989 39.5525C59.3989 45.7525 56.9945 51.0525 52.1858 55.4525C47.4134 59.8525 41.6211 62.0525 34.8087 62.0525C29.5264 62.0525 24.7541 60.6525 20.4918 57.8525C16.3023 55.0858 13.3697 51.4858 11.694 47.0525L57.7595 31.4025Z" fill="#D28429"/>
<path fill-rule="evenodd" clip-rule="evenodd" d="M8.08752 30.8525L34.4263 39.4525L7.3225 45.8525C6.73962 43.7191 6.44818 41.6191 6.44818 39.5525C6.44818 36.6525 6.99463 33.7525 8.08752 30.8525Z" fill="#B7D333"/>
<path fill-rule="evenodd" clip-rule="evenodd" d="M11.694 32.0525L34.9181 39.6025L34.8634 62.0525H34.8088C28.0328 62.0525 22.2587 59.8525 17.4864 55.4525C12.6776 51.0525 10.2733 45.7525 10.2733 39.5525C10.2733 36.9525 10.7468 34.4525 11.694 32.0525Z" fill="#8B4097"/>
<path fill-rule="evenodd" clip-rule="evenodd" d="M11.694 32.0525L33.4426 39.1525L10.9836 44.9025C10.51 43.2692 10.2733 41.4858 10.2733 39.5525C10.2733 36.9525 10.7468 34.4525 11.694 32.0525Z" fill="#88C140"/>
<path fill-rule="evenodd" clip-rule="evenodd" d="M34.9727 17.0525L34.9181 39.2025L20.9836 21.0025C25.1366 18.3692 29.745 17.0525 34.8088 17.0525H34.9727Z" fill="#39499E"/>
<path fill-rule="evenodd" clip-rule="evenodd" d="M33.2788 65.5525C27.195 65.3191 21.5301 63.2025 16.2842 59.2025L34.9728 39.6525L33.2788 65.5525Z" fill="#EE3824"/>
<path fill-rule="evenodd" clip-rule="evenodd" d="M49.4535 57.7025C46.9034 59.4691 43.6976 60.7525 39.836 61.5525C32.1857 63.1191 25.1548 61.4691 18.7431 56.6025L34.9726 39.6025L49.4535 57.7025Z" fill="#3652A3"/>
<path fill-rule="evenodd" clip-rule="evenodd" d="M33.3333 62.0525C28.0874 61.8191 23.224 60.0025 18.7431 56.6025L34.4808 40.1525L33.3333 62.0525Z" fill="#C52826"/>
<path fill-rule="evenodd" clip-rule="evenodd" d="M59.3989 39.5525C59.3989 41.5191 59.1075 43.5191 58.5246 45.5525L35.7377 38.8525L57.7596 31.4025C58.8525 34.1025 59.3989 36.8191 59.3989 39.5525Z" fill="#CC2036"/>
<path fill-rule="evenodd" clip-rule="evenodd" d="M46.9945 39.5525C46.9945 42.6191 45.8106 45.2525 43.4426 47.4525C41.0383 49.6191 38.1603 50.7025 34.8088 50.7025C31.4572 50.7025 28.5975 49.6191 26.2295 47.4525C23.8616 45.2525 22.6776 42.6191 22.6776 39.5525C22.6776 36.4858 23.8616 33.8525 26.2295 31.6525C28.5975 29.4858 31.4572 28.4025 34.8088 28.4025C38.1603 28.4025 41.0383 29.4858 43.4426 31.6525C45.8106 33.8525 46.9945 36.4858 46.9945 39.5525Z" fill="black"/>
<path fill-rule="evenodd" clip-rule="evenodd" d="M42.0765 39.5525C42.0765 41.3858 41.3661 42.9525 39.9453 44.2525C38.5245 45.5525 36.8123 46.2025 34.8087 46.2025C32.8051 46.2025 31.1111 45.5525 29.7267 44.2525C28.306 42.9525 27.5956 41.3858 27.5956 39.5525C27.5956 37.7191 28.306 36.1525 29.7267 34.8525C31.1111 33.5525 32.8051 32.9025 34.8087 32.9025C36.8123 32.9025 38.5245 33.5525 39.9453 34.8525C41.3661 36.1525 42.0765 37.7191 42.0765 39.5525Z" fill="#A0A09F"/>
<path fill-rule="evenodd" clip-rule="evenodd" d="M37.3223 13.5524C37.3223 14.2191 37.0856 14.7691 36.612 15.2024C36.1384 15.6358 35.5373 15.8524 34.8087 15.8524C34.1165 15.8524 33.5336 15.6358 33.0601 15.2024C32.5865 14.7358 32.3497 14.1858 32.3497 13.5524C32.3497 12.9191 32.5865 12.3858 33.0601 11.9524C33.5336 11.4858 34.1165 11.2524 34.8087 11.2524C35.5009 11.2524 36.1019 11.4858 36.612 11.9524C37.0856 12.3858 37.3223 12.9191 37.3223 13.5524Z" fill="#676767"/>
<path fill-rule="evenodd" clip-rule="evenodd" d="M36.4482 13.5525C36.4482 13.9525 36.2842 14.3025 35.9564 14.6025C35.6649 14.8691 35.2824 15.0025 34.8088 15.0025C34.3717 15.0025 34.0074 14.8691 33.7159 14.6025C33.3881 14.3025 33.2241 13.9525 33.2241 13.5525C33.2241 13.1525 33.3881 12.8191 33.7159 12.5525C34.0074 12.2525 34.3717 12.1025 34.8088 12.1025C35.2824 12.1025 35.6649 12.2525 35.9564 12.5525L36.4482 13.5525Z" fill="#FFCC05"/>
<path fill-rule="evenodd" clip-rule="evenodd" d="M10.6012 30.8024C10.6012 31.4358 10.3644 31.9691 9.89077 32.4024C9.38075 32.8691 8.77966 33.1024 8.08749 33.1024C7.39533 33.1024 6.81245 32.8691 6.33886 32.4024C5.86527 31.9691 5.62848 31.4358 5.62848 30.8024C5.62848 30.1691 5.86527 29.6358 6.33886 29.2024C6.81245 28.7358 7.39533 28.5024 8.08749 28.5024C8.77966 28.5024 9.38075 28.7358 9.89077 29.2024C10.3644 29.6358 10.6012 30.1691 10.6012 30.8024Z" fill="#676767"/>
<path fill-rule="evenodd" clip-rule="evenodd" d="M9.72679 30.8025C9.72679 31.2025 9.56286 31.5525 9.23499 31.8525C8.94355 32.1191 8.56103 32.2525 8.08745 32.2525C7.65029 32.2525 7.28599 32.1191 6.99455 31.8525C6.66668 31.5525 6.50275 31.2025 6.50275 30.8025C6.50275 30.4025 6.66668 30.0691 6.99455 29.8025C7.28599 29.5025 7.65029 29.3525 8.08745 29.3525C8.56103 29.3525 8.94355 29.5025 9.23499 29.8025C9.56286 30.0691 9.72679 30.4025 9.72679 30.8025Z" fill="#FFCC05"/>
<path fill-rule="evenodd" clip-rule="evenodd" d="M18.6338 59.1525C18.6338 59.7858 18.397 60.3191 17.9234 60.7525C17.4498 61.2191 16.867 61.4525 16.1748 61.4525C15.4826 61.4525 14.8815 61.2191 14.3715 60.7525C13.8979 60.3191 13.6611 59.7858 13.6611 59.1525C13.6611 58.5191 13.8979 57.9691 14.3715 57.5025C14.8815 57.0691 15.4826 56.8525 16.1748 56.8525C16.867 56.8525 17.4498 57.0691 17.9234 57.5025C18.397 57.9691 18.6338 58.5191 18.6338 59.1525Z" fill="#676767"/>
<path fill-rule="evenodd" clip-rule="evenodd" d="M17.7595 59.1525C17.7595 59.5525 17.6138 59.9025 17.3223 60.2025C16.9945 60.4691 16.612 60.6025 16.1748 60.6025C15.7376 60.6025 15.3551 60.4691 15.0273 60.2025C14.6994 59.9025 14.5355 59.5525 14.5355 59.1525C14.5355 58.7525 14.6994 58.4191 15.0273 58.1525C15.3551 57.8525 15.7376 57.7025 16.1748 57.7025C16.612 57.7025 16.9945 57.8525 17.3223 58.1525C17.6138 58.4191 17.7595 58.7525 17.7595 59.1525Z" fill="#FFCC05"/>
<path fill-rule="evenodd" clip-rule="evenodd" d="M54.0436 60.4025C54.0436 61.0358 53.7886 61.5691 53.2786 62.0025C52.805 62.4691 52.2221 62.7025 51.53 62.7025C50.8378 62.7025 50.2549 62.4691 49.7813 62.0025C49.2713 61.5691 49.0163 61.0358 49.0163 60.4025C49.0163 59.7691 49.2713 59.2191 49.7813 58.7525C50.2549 58.3191 50.8378 58.1025 51.53 58.1025C52.2221 58.1025 52.805 58.3191 53.2786 58.7525C53.7886 59.2191 54.0436 59.7691 54.0436 60.4025Z" fill="#676767"/>
<path fill-rule="evenodd" clip-rule="evenodd" d="M53.1148 60.4025C53.1148 60.8025 52.9691 61.1525 52.6776 61.4525C52.3497 61.7191 51.9672 61.8525 51.5301 61.8525C51.0929 61.8525 50.7286 61.7191 50.4372 61.4525C50.1093 61.1525 49.9454 60.8025 49.9454 60.4025C49.9454 60.0025 50.1093 59.6691 50.4372 59.4025C50.7286 59.1025 51.0929 58.9525 51.5301 58.9525C51.9672 58.9525 52.3497 59.1025 52.6776 59.4025C52.9691 59.6691 53.1148 60.0025 53.1148 60.4025Z" fill="#FFCC05"/>
<path fill-rule="evenodd" clip-rule="evenodd" d="M64.6448 46.6025C64.6448 47.2358 64.3897 47.7692 63.8797 48.2025C63.4061 48.6692 62.8233 48.9025 62.1311 48.9025C61.4389 48.9025 60.856 48.6692 60.3825 48.2025C59.8724 47.7692 59.6174 47.2358 59.6174 46.6025C59.6174 45.9692 59.8724 45.4358 60.3825 45.0025C60.856 44.5358 61.4389 44.3025 62.1311 44.3025C62.8233 44.3025 63.4061 44.5358 63.8797 45.0025C64.3897 45.4358 64.6448 45.9692 64.6448 46.6025Z" fill="#676767"/>
<path fill-rule="evenodd" clip-rule="evenodd" d="M63.7158 46.6025C63.7158 47.0025 63.5701 47.3525 63.2787 47.6525C62.9508 47.9191 62.5683 48.0525 62.1311 48.0525C61.694 48.0525 61.3297 47.9191 61.0383 47.6525C60.7104 47.3525 60.5464 47.0025 60.5464 46.6025C60.5464 46.2025 60.7104 45.8691 61.0383 45.6025C61.3297 45.3025 61.694 45.1525 62.1311 45.1525C62.5683 45.1525 62.9508 45.3025 63.2787 45.6025C63.5701 45.8691 63.7158 46.2025 63.7158 46.6025Z" fill="#FFCC05"/>
<path fill-rule="evenodd" clip-rule="evenodd" d="M35.7924 65.5524C35.7924 66.1858 35.5374 66.7191 35.0274 67.1524C34.5538 67.6191 33.9709 67.8524 33.2787 67.8524C32.5866 67.8524 32.0037 67.6191 31.5301 67.1524C31.0201 66.7191 30.7651 66.1858 30.7651 65.5524C30.7651 64.9191 31.0201 64.3858 31.5301 63.9524C32.0037 63.4858 32.5866 63.2524 33.2787 63.2524C33.9709 63.2524 34.5538 63.4858 35.0274 63.9524C35.5374 64.3858 35.7924 64.9191 35.7924 65.5524Z" fill="#676767"/>
<path fill-rule="evenodd" clip-rule="evenodd" d="M34.8634 65.5525C34.8634 65.9525 34.7176 66.3025 34.4262 66.6025C34.0983 66.8691 33.7158 67.0025 33.2787 67.0025C32.8415 67.0025 32.4772 66.8691 32.1858 66.6025C31.8579 66.3025 31.694 65.9525 31.694 65.5525C31.694 65.1525 31.8579 64.8191 32.1858 64.5525C32.4772 64.2525 32.8415 64.1025 33.2787 64.1025C33.7158 64.1025 34.0983 64.2525 34.4262 64.5525C34.7176 64.8191 34.8634 65.1525 34.8634 65.5525Z" fill="#FFCC05"/>
<path fill-rule="evenodd" clip-rule="evenodd" d="M10.2732 46.1025C10.2732 46.7358 10.0364 47.2692 9.56283 47.7025C9.08924 48.1692 8.50637 48.4025 7.8142 48.4025C7.12203 48.4025 6.52094 48.1692 6.01092 47.7025C5.53733 47.2692 5.30054 46.7358 5.30054 46.1025C5.30054 45.4692 5.53733 44.9192 6.01092 44.4525C6.52094 44.0192 7.12203 43.8025 7.8142 43.8025C8.50637 43.8025 9.08924 44.0192 9.56283 44.4525C10.0364 44.9192 10.2732 45.4692 10.2732 46.1025Z" fill="#676767"/>
<path fill-rule="evenodd" clip-rule="evenodd" d="M9.39891 46.1025C9.39891 46.5025 9.25319 46.8525 8.96175 47.1525C8.63388 47.4191 8.25137 47.5525 7.81421 47.5525C7.34062 47.5525 6.95811 47.4191 6.66667 47.1525C6.3388 46.8525 6.17487 46.5025 6.17487 46.1025C6.17487 45.7025 6.3388 45.3691 6.66667 45.1025C6.95811 44.8025 7.34062 44.6525 7.81421 44.6525C8.25137 44.6525 8.63388 44.8025 8.96175 45.1025C9.25319 45.3691 9.39891 45.7025 9.39891 46.1025Z" fill="#FFCC05"/>
<path fill-rule="evenodd" clip-rule="evenodd" d="M21.4208 18.0524C21.4208 18.6858 21.1658 19.2358 20.6558 19.7024C20.1822 20.1358 19.5993 20.3524 18.9072 20.3524C18.215 20.3524 17.6321 20.1358 17.1585 19.7024C16.6485 19.2358 16.3935 18.6858 16.3935 18.0524C16.3935 17.4191 16.6485 16.8858 17.1585 16.4524C17.6321 15.9858 18.215 15.7524 18.9072 15.7524C19.5993 15.7524 20.1822 15.9858 20.6558 16.4524C21.1658 16.8858 21.4208 17.4191 21.4208 18.0524Z" fill="#676767"/>
<path fill-rule="evenodd" clip-rule="evenodd" d="M20.4917 18.0525C20.4917 18.4525 20.346 18.8025 20.0546 19.1025C19.7267 19.3691 19.3442 19.5025 18.907 19.5025C18.4699 19.5025 18.1056 19.3691 17.8141 19.1025C17.4863 18.8025 17.3223 18.4525 17.3223 18.0525C17.3223 17.6525 17.4863 17.3191 17.8141 17.0525C18.1056 16.7525 18.4699 16.6025 18.907 16.6025C19.3442 16.6025 19.7267 16.7525 20.0546 17.0525C20.346 17.3191 20.4917 17.6525 20.4917 18.0525Z" fill="#FFCC05"/>
<path fill-rule="evenodd" clip-rule="evenodd" d="M52.9509 17.9025C52.9509 18.5358 52.7141 19.0691 52.2405 19.5025C51.7305 19.9358 51.1294 20.1525 50.4372 20.1525C49.7451 20.1525 49.1622 19.9358 48.6886 19.5025C48.215 19.0691 47.9782 18.5358 47.9782 17.9025C47.9782 17.2691 48.215 16.7191 48.6886 16.2525C49.1622 15.8191 49.7451 15.6025 50.4372 15.6025C51.1658 15.6025 51.7669 15.8191 52.2405 16.2525C52.7141 16.7191 52.9509 17.2691 52.9509 17.9025Z" fill="#676767"/>
<path fill-rule="evenodd" clip-rule="evenodd" d="M52.0765 17.9025L51.5847 18.9525C51.2932 19.2191 50.9107 19.3525 50.4371 19.3525C50 19.3525 49.6357 19.2191 49.3442 18.9525C49.0163 18.6525 48.8524 18.3025 48.8524 17.9025C48.8524 17.5025 49.0163 17.1525 49.3442 16.8525C49.6357 16.5525 50 16.4025 50.4371 16.4025C50.9107 16.4025 51.2932 16.5525 51.5847 16.8525C51.9125 17.1525 52.0765 17.5025 52.0765 17.9025Z" fill="#FFCC05"/>
<path fill-rule="evenodd" clip-rule="evenodd" d="M63.6065 30.1025C63.6065 30.7358 63.3515 31.2692 62.8415 31.7025C62.3679 32.1692 61.7851 32.4025 61.0929 32.4025C60.4007 32.4025 59.8178 32.1692 59.3443 31.7025C58.8342 31.2692 58.5792 30.7358 58.5792 30.1025C58.5792 29.4692 58.8342 28.9358 59.3443 28.5025C59.8178 28.0358 60.4007 27.8025 61.0929 27.8025C61.7851 27.8025 62.3679 28.0358 62.8415 28.5025C63.3515 28.9358 63.6065 29.4692 63.6065 30.1025Z" fill="#676767"/>
<path fill-rule="evenodd" clip-rule="evenodd" d="M62.6777 30.1025C62.6777 30.5025 62.532 30.8525 62.2405 31.1525C61.9127 31.4191 61.5302 31.5525 61.093 31.5525C60.6558 31.5525 60.2915 31.4191 60.0001 31.1525C59.6722 30.8525 59.5083 30.5025 59.5083 30.1025C59.5083 29.7025 59.6722 29.3691 60.0001 29.1025C60.2915 28.8025 60.6558 28.6525 61.093 28.6525C61.5302 28.6525 61.9127 28.8025 62.2405 29.1025C62.532 29.3691 62.6777 29.7025 62.6777 30.1025Z" fill="#FFCC05"/>
<path fill-rule="evenodd" clip-rule="evenodd" d="M40.8197 2.85244C45.082 0.952442 48.3243 1.23578 50.5465 3.70244C51.6394 4.93578 52.3133 6.35244 52.5683 7.95244L38.9618 22.3524L40.8197 2.85244Z" fill="black"/>
<path fill-rule="evenodd" clip-rule="evenodd" d="M42.4044 4.55245C45.2823 3.28578 47.4863 3.48578 49.0164 5.15245C49.745 5.98578 50.2003 6.93578 50.3825 8.00245L41.1475 17.8024L42.4044 4.55245Z" fill="#EC2024"/>
<path fill-rule="evenodd" clip-rule="evenodd" d="M48.9617 7.15248C48.9617 7.91914 48.6703 8.58581 48.0874 9.15248C47.5045 9.68581 46.7941 9.95248 45.9562 9.95248C45.1183 9.95248 44.3897 9.68581 43.7704 9.15248C43.1876 8.58581 42.8961 7.91914 42.8961 7.15248C42.8961 6.38581 43.1876 5.71914 43.7704 5.15248C44.3897 4.61914 45.1183 4.35248 45.9562 4.35248C46.7941 4.35248 47.5045 4.61914 48.0874 5.15248C48.6703 5.71914 48.9617 6.38581 48.9617 7.15248Z" fill="#C2802A"/>
<path fill-rule="evenodd" clip-rule="evenodd" d="M48.1968 6.80245C48.1968 7.23579 48.0146 7.60245 47.6503 7.90245C47.3225 8.20245 46.9217 8.35245 46.4481 8.35245C45.9745 8.35245 45.5738 8.20245 45.246 7.90245C44.9181 7.60245 44.7542 7.23579 44.7542 6.80245C44.7542 6.36912 44.9181 5.98579 45.246 5.65245C45.5738 5.35245 45.9745 5.20245 46.4481 5.20245C46.9217 5.20245 47.3225 5.35245 47.6503 5.65245C48.0146 5.98579 48.1968 6.36912 48.1968 6.80245Z" fill="#FFCC05"/>
<path fill-rule="evenodd" clip-rule="evenodd" d="M61.6939 37.6025L62.6775 38.7525C63.0783 40.1858 62.6775 42.5525 61.4754 45.8525C60.4917 45.4525 60.2185 43.5525 60.6557 40.1525C61.1657 36.1858 61.5118 35.3358 61.6939 37.6025Z" fill="#F5A8BE"/>
<path fill-rule="evenodd" clip-rule="evenodd" d="M70 22.4525C66.2477 22.8858 63.6612 24.0191 62.2405 25.8525C61.439 26.9191 60.6922 29.0358 60 32.2025C59.5264 29.4358 58.7796 27.4191 57.7596 26.1525C56.1567 24.2525 53.4791 23.0858 49.7268 22.6525C53.5155 22.2858 55.9927 21.3525 57.1585 19.8525C58.1057 18.6191 58.7978 15.9525 59.235 11.8525C59.745 15.5858 60.8197 18.2191 62.459 19.7525C63.9527 21.1525 66.4663 22.0525 70 22.4525Z" fill="#E4EFD6"/>
<path fill-rule="evenodd" clip-rule="evenodd" d="M22.2405 61.2525C20.8561 60.2191 21.1111 59.9025 23.0055 60.3025C24.9363 60.7358 28.0692 61.8025 32.4044 63.5025C28.9435 63.9691 26.2113 63.7358 24.2077 62.8025L22.2405 61.2525Z" fill="#F59682"/>
<path fill-rule="evenodd" clip-rule="evenodd" d="M30.3278 35.3025C30.8014 35.1025 31.2568 34.8858 31.6939 34.6525C32.7868 34.1858 33.8251 33.9192 34.8087 33.8525C38.0145 33.6192 40.1092 35.2858 41.0928 38.8525C40.4371 39.4192 39.3078 39.0192 37.7048 37.6525C35.9926 36.1858 34.5537 35.6858 33.3879 36.1525C31.53 36.8858 30.4735 36.9692 30.2185 36.4025L30.3278 35.3025Z" fill="#D3D3D3"/>
<path fill-rule="evenodd" clip-rule="evenodd" d="M25.1913 23.0525C22.6412 23.3525 20.8925 24.1358 19.9454 25.4025C19.3989 26.1025 18.8889 27.5358 18.4153 29.7025C18.051 27.8025 17.541 26.4358 16.8853 25.6025C15.7924 24.3358 13.9709 23.5525 11.4208 23.2525C13.9709 22.9525 15.6466 22.3025 16.4481 21.3025C17.1038 20.4691 17.5774 18.6691 17.8689 15.9025C18.2332 18.4358 18.9618 20.2191 20.0547 21.2525C21.0747 22.1858 22.7869 22.7858 25.1913 23.0525Z" fill="#EFB5B5"/>
<path fill-rule="evenodd" clip-rule="evenodd" d="M49.5628 37.0525C46.9034 37.3525 45.0637 38.1692 44.0437 39.5025C43.4608 40.2692 42.9326 41.7692 42.459 44.0025C42.0583 42.0025 41.5118 40.5692 40.8197 39.7025C39.7268 38.3692 37.8324 37.5525 35.1366 37.2525C37.8324 36.9525 39.581 36.2692 40.3825 35.2025C41.0747 34.3358 41.5665 32.4525 41.8579 29.5525C42.2222 32.2192 42.9872 34.0858 44.153 35.1525C45.2459 36.1525 47.0492 36.7858 49.5628 37.0525Z" fill="white"/>
<path fill-rule="evenodd" clip-rule="evenodd" d="M44.6448 30.6025C47.5228 31.0691 50.3643 31.1191 53.1694 30.7525L56.4481 30.1025L46.5574 33.8525L44.7541 30.9525L44.6448 30.6025Z" fill="#B4D679"/>
<path fill-rule="evenodd" clip-rule="evenodd" d="M14.0983 48.7025L13.6611 45.8525C14.8997 49.7858 17.1766 51.3025 20.4917 50.4025C22.1311 49.9691 23.6247 49.1858 24.9726 48.0525L18.4152 54.0025C16.2294 52.6358 14.7905 50.8691 14.0983 48.7025Z" fill="#C495C3"/>
<path fill-rule="evenodd" clip-rule="evenodd" d="M19.7814 53.4524C16.7942 53.7858 14.7359 54.7024 13.6066 56.2024C12.9508 57.0358 12.3497 58.7024 11.8033 61.2024C11.3661 58.9691 10.765 57.3691 10 56.4024C8.72496 54.9024 6.59382 53.9858 3.60657 53.6524C6.59382 53.3191 8.56103 52.5524 9.5082 51.3524C10.2732 50.3858 10.8197 48.2691 11.1475 45.0024C11.5847 48.0024 12.459 50.1024 13.7705 51.3024C14.9727 52.4358 16.9763 53.1524 19.7814 53.4524Z" fill="#EED7E8"/>
<path fill-rule="evenodd" clip-rule="evenodd" d="M35.1913 60.6024L34.918 54.5024C37.3224 57.4024 40.1093 58.6358 43.2787 58.2024C44.8816 58.0024 46.2477 57.5024 47.377 56.7024C44.4627 59.0024 41.5665 60.3524 38.6885 60.7524L35.1913 60.6024Z" fill="#98AACE"/>
<path d="M86.0098 62.9062L86.0879 62.9844L85.9902 63.2969L86.0488 63.3555L85.9316 65.3672L86.0684 65.582L85.9316 65.6406V65.875L86.0879 65.9531L85.9316 66.1484L85.834 66.5391L85.7559 68.8242H83.4707L83.3535 68.5898L83.4121 68.4141L82.6699 66.8711L81.6543 64.4883L80.5605 61.6367L80.1309 60.2891V61.6953L80.248 61.9688L80.1504 62.5547L80.3066 63.7461L80.2871 63.9023L80.3652 64.0586L80.1895 68.5898L79.8574 68.6875H79.0762L78.9785 68.5898L78.8223 68.6484H78.373L78.0801 68.5898L77.7285 59.1367V56.3242L77.9824 54.1172L78.4707 54.2148H79.4863L79.8379 54.0977L81.3418 57.418L81.459 57.4961L81.4199 57.5742L81.6348 58.043L81.6543 58.2969L82.3379 59.7031L83.4316 62.8867L83.5293 62.9844L83.1777 54.625L83.3535 54.1562H85.4434L85.6973 56.6562V57.2227L85.8535 58.7266L85.9316 58.8047V59L85.8145 59.0781L86.0098 62.9062ZM95.2871 68.707H87.6113V59.4102L87.3574 58.082V56.4414L87.4551 56.207V54.0586L89.6621 54.1562H94.9941V63.5312L95.2871 68.707ZM92.9629 66.6758V60.1914L92.7676 56.4805L92.6309 56.2461H89.5645L89.7793 59.625L89.6621 59.8008L89.7793 60.0938L89.623 60.2695L89.7793 60.3281V66.6758H92.9629ZM104.428 57.3008L104.35 57.6523V59.6836L102.553 59.8203L102.807 61.4609L102.885 61.5195L103.686 65.25L103.627 65.4844L104.311 68.8242H102.455L100.326 59.7617L100.033 59.8203H99.4082L99.0762 59.7617L98.8613 59.8594L99.0371 64.0391L98.9199 64.332L99.0371 64.7617V64.9961L98.9785 65.1719L99.0957 65.8555L98.9199 65.9727L99.0957 66.2266L98.9004 66.9688V68.1797L98.959 68.7266H96.8496L96.9082 68.082V61.4023L96.6543 58.3164L96.7324 56.4805V54.3516L96.7715 54.0391H104.174L104.369 54.293L104.311 54.5078V57.2227L104.428 57.3008ZM102.201 56.832L102.162 56.3633H98.8223V57.3984H102.162L102.201 56.832ZM113.373 68.8242L113.178 69H111.264L111.107 68.7266V61.4414L110.111 64.8203L109.818 64.8594L108.607 61.7734L108.334 61.2266L108.607 63.5508V68.9219H106.439L106.166 67.7109V59.0977L105.912 54.3711L106.303 54.0781H108.139L109.623 58.1211L111.166 53.9023H113.217L112.963 54.7422L112.885 55.1719L113.236 55.5625L113.139 56.5586L113.295 59.0586L113.236 59.3711L113.393 59.6055L113.236 60.0547L113.314 61.0312V62.1055L113.139 62.7109L113.373 65.5234V66.9688V68.8242ZM121.01 69.1367L120.346 66.3633H117.045L116.576 69.0391H114.721L116.186 58.2773L116.283 58.2383L116.518 56.8711L116.908 55.5625L117.006 54.4102H118.92L119.74 54.3516L119.877 54.7812L119.857 55.2305L119.975 55.3281L120.404 56.8125L120.912 59.1172L122.025 65.0156L122.689 69.1367H121.01ZM119.916 64L118.549 57.7305V59.1562L117.592 64H119.916ZM130.58 68.7461H123.432V54.4102L123.275 54.1758H125.6L125.834 58.9609V63.0625L125.697 66.2461L125.854 66.3828L130.58 65.9727V68.7461ZM138.646 54.2539V67.0664L138.451 69.1953L136.029 68.8633V54.5078L135.854 54.4492L136.244 54.2539H138.646ZM148.334 56.3828L148.08 56.6562L147.143 56.4414H145.99L145.639 56.5V60.3867L145.717 61.0898V65.9922L145.775 66.2852V67.418L145.893 67.5938L145.775 67.6328V67.8086L145.678 68.0625V68.5508L145.775 68.8438L145.541 69.0391H143.588L143.471 68.8633V56.6172H140.111L140.189 56.1875V54.3516L140.033 54V53.8828L140.111 53.8047L141.967 54H144.428L144.682 53.9609L145.229 54.0586L146.127 54L146.264 54.0977L146.322 53.9805L146.498 53.9219L146.791 53.9414L147.025 54.0977H148.139L148.236 54.4883V56.1875L148.334 56.3828ZM156.557 67.4766L156.615 68.3555H149.662L149.33 61.7734V56.9102L149.076 56.4805L149.232 56.2852V54.0781H156.186L156.264 54.3125V55.25L156.205 55.4453L156.459 56.4805H155.053L151.615 56.6758L151.459 56.7734L151.439 57.125L151.205 57.2422L151.459 59.8008L152.689 59.7227L153.412 59.8008L154.76 60.0938V60.9141L154.623 61.4609L154.76 61.7539V62.1641L151.459 62.3398L151.381 62.5547L151.283 63.2578V63.8047L151.381 64V65.7578L151.615 65.875H154.877L155.346 65.7383L156.791 65.4844L156.557 67.4766ZM165.014 68.8242L164.818 69H162.904L162.748 68.7266V61.4414L161.752 64.8203L161.459 64.8594L160.248 61.7734L159.975 61.2266L160.248 63.5508V68.9219H158.08L157.807 67.7109V59.0977L157.553 54.3711L157.943 54.0781H159.779L161.264 58.1211L162.807 53.9023H164.857L164.604 54.7422L164.525 55.1719L164.877 55.5625L164.779 56.5586L164.936 59.0586L164.877 59.3711L165.033 59.6055L164.877 60.0547L164.955 61.0312V62.1055L164.779 62.7109L165.014 65.5234V66.9688V68.8242ZM174.447 64.9961V68.8633H166.635L166.518 68.668V68.4531L166.615 68.0625V62.6133L166.693 62.5352L167.357 62.6133H168.705V66.7148L168.842 66.832H169.975L170.131 66.7148L170.189 66.793H172.318L172.201 66.0898V63.4727L168.705 61.2656L166.83 59.918H166.674L166.537 59.5273V58.7852L166.4 57.125V54.1562H171.83L174.174 54.0586V59.1367L174.018 59.1953L172.865 59.1367L172.26 59.1953L172.143 59.0586V56.1875L171.889 56.0312L171.283 55.9141H170.951L170.775 56.0898H168.568V57.1055L168.686 58.4531L172.904 61.207L174.428 62.1055V64.8984L174.447 64.9961Z" fill="#333333"/>
</svg>
