<svg width="308" height="142" viewBox="0 0 308 142" fill="none" xmlns="http://www.w3.org/2000/svg">
<path fill-rule="evenodd" clip-rule="evenodd" d="M304.7 39.3636C306.233 40.9303 307 42.797 307 44.9636V129.114C307 131.314 306.233 133.197 304.7 134.764C303.133 136.297 301.267 137.064 299.1 137.064H14.95C12.75 137.064 10.8833 136.297 9.35 134.764C7.78333 133.197 7 131.314 7 129.114V44.9636C7 42.797 7.78333 40.9303 9.35 39.3636C10.8833 37.8303 12.75 37.0636 14.95 37.0636H299.1C301.267 37.0636 303.133 37.8303 304.7 39.3636Z" fill="black" fill-opacity="0.4"/>
<path fill-rule="evenodd" clip-rule="evenodd" d="M300.8 37.5136C301.767 38.9803 302.25 40.6303 302.25 42.4636C301.55 41.4636 300.633 40.647 299.5 40.0136C298.333 39.3803 297.083 39.0636 295.75 39.0636H11.6C10.2667 39.0636 9.01667 39.3803 7.85 40.0136C6.71667 40.6136 5.78333 41.4303 5.05 42.4636C5.05 40.9636 5.66667 39.3636 6.9 37.6636C8.26667 35.697 9.83333 34.7136 11.6 34.7136H295.75C297.917 34.7136 299.6 35.647 300.8 37.5136ZM297 36.6636L297.25 36.0636V36.0136L297 35.4136C296.833 35.247 296.633 35.1636 296.4 35.1636H10.8C10.5667 35.1636 10.3667 35.247 10.2 35.4136C10.0333 35.5803 9.95 35.7803 9.95 36.0136V36.0636L10.2 36.6636L10.8 36.9136H296.4L297 36.6636ZM300.15 130.314C298.717 131.814 297.25 132.564 295.75 132.564H11.6C9.7 132.564 8.11667 131.764 6.85 130.164C5.81667 128.83 5.21667 127.364 5.05 125.764C5.78333 126.83 6.71667 127.664 7.85 128.264C9.01667 128.897 10.2667 129.214 11.6 129.214H295.75C297.083 129.214 298.333 128.897 299.5 128.264C300.633 127.664 301.55 126.83 302.25 125.764C302.25 127.33 301.55 128.847 300.15 130.314Z" fill="#0E69FF"/>
<path fill-rule="evenodd" clip-rule="evenodd" d="M303.65 41.6136V125.764C303.65 127.964 302.883 129.847 301.35 131.414C299.783 132.947 297.917 133.714 295.75 133.714H11.6C9.4 133.714 7.53333 132.947 6 131.414C4.43333 129.847 3.65 127.964 3.65 125.764V41.6136C3.65 39.447 4.43333 37.5803 6 36.0136C7.53333 34.4803 9.4 33.7136 11.6 33.7136H295.75C297.917 33.7136 299.783 34.4803 301.35 36.0136C302.883 37.5803 303.65 39.447 303.65 41.6136ZM300.8 37.5136C299.6 35.647 297.917 34.7136 295.75 34.7136H11.6C9.83333 34.7136 8.26667 35.697 6.9 37.6636C5.66667 39.3636 5.05 40.9636 5.05 42.4636C5.78333 41.4303 6.71667 40.6136 7.85 40.0136C9.01667 39.3803 10.2667 39.0636 11.6 39.0636H295.75C297.083 39.0636 298.333 39.3803 299.5 40.0136C300.633 40.647 301.55 41.4636 302.25 42.4636C302.25 40.6303 301.767 38.9803 300.8 37.5136ZM300.15 130.314C301.55 128.847 302.25 127.33 302.25 125.764C301.55 126.83 300.633 127.664 299.5 128.264C298.333 128.897 297.083 129.214 295.75 129.214H11.6C10.2667 129.214 9.01667 128.897 7.85 128.264C6.71667 127.664 5.78333 126.83 5.05 125.764C5.21667 127.364 5.81667 128.83 6.85 130.164C8.11667 131.764 9.7 132.564 11.6 132.564H295.75C297.25 132.564 298.717 131.814 300.15 130.314Z" fill="#0A468C"/>
<path fill-rule="evenodd" clip-rule="evenodd" d="M297 36.6636L296.4 36.9136H10.8L10.2 36.6636L9.95 36.0636V36.0136C9.95 35.7803 10.0333 35.5803 10.2 35.4136C10.3667 35.247 10.5667 35.1636 10.8 35.1636H296.4C296.633 35.1636 296.833 35.247 297 35.4136L297.25 36.0136V36.0636L297 36.6636Z" fill="#80BBFF"/>
<path fill-rule="evenodd" clip-rule="evenodd" d="M305.05 39.65C306.583 41.2167 307.35 43.0833 307.35 45.25V129.4C307.35 131.6 306.583 133.483 305.05 135.05C303.483 136.583 301.617 137.35 299.45 137.35H15.3C13.1 137.35 11.2333 136.583 9.7 135.05C8.13333 133.483 7.35 131.6 7.35 129.4V45.25C7.35 43.0833 8.13333 41.2167 9.7 39.65C11.2333 38.1167 13.1 37.35 15.3 37.35H299.45C301.617 37.35 303.483 38.1167 305.05 39.65Z" fill="black" fill-opacity="0.4"/>
<path fill-rule="evenodd" clip-rule="evenodd" d="M301.15 37.8C302.117 39.2667 302.6 40.9167 302.6 42.75C301.9 41.75 300.983 40.9333 299.85 40.3C298.683 39.6667 297.433 39.35 296.1 39.35H11.95C10.6167 39.35 9.36667 39.6667 8.2 40.3C7.06667 40.9 6.13333 41.7167 5.4 42.75C5.4 41.25 6.01667 39.65 7.25 37.95C8.61667 35.9833 10.1833 35 11.95 35H296.1C298.267 35 299.95 35.9333 301.15 37.8ZM297.35 36.95L297.6 36.35V36.3L297.35 35.7C297.183 35.5333 296.983 35.45 296.75 35.45H11.15C10.9167 35.45 10.7167 35.5333 10.55 35.7C10.3833 35.8667 10.3 36.0667 10.3 36.3V36.35L10.55 36.95L11.15 37.2H296.75L297.35 36.95ZM300.5 130.6C299.067 132.1 297.6 132.85 296.1 132.85H11.95C10.05 132.85 8.46667 132.05 7.2 130.45C6.16667 129.117 5.56667 127.65 5.4 126.05C6.13333 127.117 7.06667 127.95 8.2 128.55C9.36667 129.183 10.6167 129.5 11.95 129.5H296.1C297.433 129.5 298.683 129.183 299.85 128.55C300.983 127.95 301.9 127.117 302.6 126.05C302.6 127.617 301.9 129.133 300.5 130.6Z" fill="#441F8F"/>
<path fill-rule="evenodd" clip-rule="evenodd" d="M304 41.9V126.05C304 128.25 303.233 130.133 301.7 131.7C300.133 133.233 298.267 134 296.1 134H11.95C9.75 134 7.88333 133.233 6.35 131.7C4.78333 130.133 4 128.25 4 126.05V41.9C4 39.7333 4.78333 37.8667 6.35 36.3C7.88333 34.7667 9.75 34 11.95 34H296.1C298.267 34 300.133 34.7667 301.7 36.3C303.233 37.8667 304 39.7333 304 41.9ZM301.15 37.8C299.95 35.9333 298.267 35 296.1 35H11.95C10.1833 35 8.61667 35.9833 7.25 37.95C6.01667 39.65 5.4 41.25 5.4 42.75C6.13333 41.7167 7.06667 40.9 8.2 40.3C9.36667 39.6667 10.6167 39.35 11.95 39.35H296.1C297.433 39.35 298.683 39.6667 299.85 40.3C300.983 40.9333 301.9 41.75 302.6 42.75C302.6 40.9167 302.117 39.2667 301.15 37.8ZM300.5 130.6C301.9 129.133 302.6 127.617 302.6 126.05C301.9 127.117 300.983 127.95 299.85 128.55C298.683 129.183 297.433 129.5 296.1 129.5H11.95C10.6167 129.5 9.36667 129.183 8.2 128.55C7.06667 127.95 6.13333 127.117 5.4 126.05C5.56667 127.65 6.16667 129.117 7.2 130.45C8.46667 132.05 10.05 132.85 11.95 132.85H296.1C297.6 132.85 299.067 132.1 300.5 130.6Z" fill="#6229A4"/>
<path fill-rule="evenodd" clip-rule="evenodd" d="M297.35 36.95L296.75 37.2H11.15L10.55 36.95L10.3 36.35V36.3C10.3 36.0667 10.3833 35.8667 10.55 35.7C10.7167 35.5333 10.9167 35.45 11.15 35.45H296.75C296.983 35.45 297.183 35.5333 297.35 35.7L297.6 36.3V36.35L297.35 36.95Z" fill="#6F33B4"/>
<path fill-rule="evenodd" clip-rule="evenodd" d="M263.15 96.1136L278.25 96.6136L278.45 101.114L273.85 100.914L274.05 124.164L269.65 124.364L269.25 101.364L263.15 100.914V96.1136ZM261.2 100.814L251.35 101.014L251.65 107.014L257.5 107.114V111.514L251.65 111.814L251.55 118.314L261.5 117.864L261.3 123.014L248.2 123.114L248 96.2136L260.45 96.5136L261.2 100.814ZM284.2 100.714L284.65 105.414L295.2 110.864L295.4 124.064H280.95L280.25 116.414L284.85 115.914L284.75 120.314H291.65L291.25 113.614L280.65 108.364L280.25 96.3136L294.8 96.0136L295.3 103.964L291.35 104.164L291.25 100.614L284.2 100.714ZM241.5 104.814L241.8 100.814L236.15 101.014L236.35 104.264L241.5 104.814ZM245.8 108.764H236.7V124.264L231.75 123.414V96.8636L245.7 97.0636L245.8 108.764Z" fill="black"/>
<path fill-rule="evenodd" clip-rule="evenodd" d="M249.85 99.1636L250.15 105.164L256 105.264V109.664L250.15 109.964L250.05 116.464L260 116.014L259.8 121.164L246.7 121.264L246.5 94.3636L258.95 94.6636L259.7 98.9636L249.85 99.1636ZM261.65 94.2636L276.75 94.7636L276.95 99.2636L272.35 99.0636L272.55 122.314L268.15 122.514L267.75 99.5136L261.65 99.0636V94.2636ZM282.7 98.8636L283.15 103.564L293.7 109.014L293.9 122.214H279.45L278.75 114.564L283.35 114.064L283.25 118.464H290.15L289.75 111.764L279.15 106.514L278.75 94.4636L293.3 94.1636L293.8 102.114L289.85 102.314L289.75 98.7636L282.7 98.8636ZM240 102.964L240.3 98.9636L234.65 99.1636L234.85 102.414L240 102.964ZM244.3 106.914H235.2V122.414L230.25 121.564V95.0136L244.2 95.2136L244.3 106.914Z" fill="#FFB432"/>
<path fill-rule="evenodd" clip-rule="evenodd" d="M92.3 47.6636L94.2 44.6136L95.5 42.7136C96.2 41.4136 97.6167 40.797 99.75 40.8636L102.7 41.3136C104.533 41.9136 106.767 43.397 109.4 45.7636C112.067 48.1636 113.7 50.2136 114.3 51.9136C114.833 53.347 114.767 54.6136 114.1 55.7136L112.95 56.9636L113.35 57.5636L114.15 58.5636L114.7 58.8636C116.333 58.9303 118.183 59.547 120.25 60.7136C121.117 61.247 121.933 62.8136 122.7 65.4136L123.55 69.1636C138.183 78.6636 145.933 83.9136 146.8 84.9136C147.333 85.5803 147.483 86.4303 147.25 87.4636C147.05 88.1636 146.733 88.797 146.3 89.3636C146.033 89.6636 145.65 89.897 145.15 90.0636L144.5 90.2136L135.05 87.9636C139.583 100.764 141.85 107.547 141.85 108.314C141.85 109.047 140.633 109.714 138.2 110.314L127.85 112.964L124.8 133.014H40.8L32.6 124.314L27.45 127.764L3.3 97.6636V75.6136L18.9 61.4636L25.7 60.4136C26.5 60.3803 27.1 59.197 27.5 56.8636C27.4333 55.697 27.5333 54.3136 27.8 52.7136L28.25 50.6136C28.6833 48.2136 29.5833 46.3136 30.95 44.9136L32.9 43.5636L32 43.4136L31.65 43.4636L28.9 42.9136L27.95 42.3636C27.95 43.0636 27.75 43.8303 27.35 44.6636C27.0833 45.897 26.15 46.897 24.55 47.6636C23.35 48.2303 22.2667 48.5136 21.3 48.5136C20.7 48.5136 20.1167 48.2136 19.55 47.6136C19.05 47.0803 18.75 46.5136 18.65 45.9136L17.65 42.7136L16.75 40.3636C15.9833 39.097 15.45 37.0803 15.15 34.3136H43L43.65 36.9136L47.6 35.5636V34.3136H74.7C74.3 36.1803 74.1667 37.4636 74.3 38.1636C74.5333 39.397 74.4167 40.4136 73.95 41.2136C73.4167 41.847 72.7167 42.2636 71.85 42.4636C71.15 42.6303 70.4833 42.6303 69.85 42.4636L68.05 41.7136L67.4 41.2136C67.6 42.147 67.3833 43.0303 66.75 43.8636L65.8 44.8136C66.6333 45.7803 67.75 48.0636 69.15 51.6636C70.3833 49.897 72.2667 48.4303 74.8 47.2636C76.0667 46.697 77.2 46.297 78.2 46.0636C79.6667 45.7636 81.5667 46.297 83.9 47.6636C85.1 48.3636 86.1333 49.0803 87 49.8136C87.6333 49.4136 89.4 48.697 92.3 47.6636Z" fill="black" fill-opacity="0.447059"/>
<path fill-rule="evenodd" clip-rule="evenodd" d="M121.55 47.3136C123.183 47.3803 125.05 47.997 127.15 49.1636C128.017 49.697 128.817 51.2636 129.55 53.8636L130.4 57.6136C145.067 67.1136 152.817 72.3636 153.65 73.3636C154.183 74.0303 154.333 74.8803 154.1 75.9136C153.9 76.6136 153.583 77.247 153.15 77.8136L152 78.5636L151.35 78.7136L141.9 76.4136C146.433 89.2136 148.7 95.997 148.7 96.7636C148.7 97.497 147.483 98.1636 145.05 98.7636L133.3 101.814L32.5 48.8636C33.3667 48.8636 33.9833 47.6803 34.35 45.3136C34.2833 44.147 34.4 42.7636 34.7 41.1636L35.15 39.0636C35.5833 36.6636 36.4833 34.7636 37.85 33.3636C38.5167 32.6636 39.15 32.2136 39.75 32.0136L38.9 31.8636L38.5 31.9136L35.75 31.3636L34.8 30.8136C34.8 31.5136 34.6 32.2803 34.2 33.1136C33.9333 34.347 33 35.347 31.4 36.1136C30.2 36.6803 29.1167 36.9636 28.15 36.9636C27.55 36.9636 26.9833 36.6636 26.45 36.0636C25.9167 35.5303 25.6167 34.9636 25.55 34.3636L24.5 31.1636L23.6 28.8136C22.7667 27.3803 22.2 25.1136 21.9 22.0136C21.7 19.947 21.65 18.0136 21.75 16.2136L22 13.3136L22.25 11.9136C23.05 11.0136 25.5167 9.56364 29.65 7.56364L37.15 4.21364C38.4833 3.71364 39.7667 3.71364 41 4.21364C42.5667 5.01364 44.3833 7.7303 46.45 12.3636C48.2833 16.397 49.3 19.2636 49.5 20.9636C49.7333 22.597 50.0833 24.0636 50.55 25.3636L54.5 24.0136V18.9636C54.3 15.0636 54.8333 11.1636 56.1 7.26364C56.7 5.29697 57.3333 3.7303 58 2.56364C58.8 1.26364 59.8167 0.463636 61.05 0.163636C61.8167 -0.0363635 62.8833 -0.0530304 64.25 0.113636L71.2 1.76364L77.8 3.81364C78.8667 4.3803 79.85 5.16364 80.75 6.16364C81.5833 7.9303 82.0833 10.5803 82.25 14.1136V19.5636L81.6 22.7136C81.1667 24.5803 81.0167 25.8803 81.15 26.6136C81.3833 27.847 81.2833 28.8636 80.85 29.6636C80.3167 30.3303 79.6 30.7636 78.7 30.9636L76.7 30.9136L74.9 30.1636L74.25 29.6636C74.45 30.597 74.2333 31.4803 73.6 32.3136L72.65 33.2636C73.5167 34.2303 74.65 36.5136 76.05 40.1136C77.2833 38.347 79.15 36.897 81.65 35.7636C82.9167 35.197 84.05 34.797 85.05 34.5636C86.5167 34.2303 88.4333 34.747 90.8 36.1136C92 36.8136 93.0333 37.5303 93.9 38.2636C94.5 37.8636 96.2667 37.1636 99.2 36.1636L101.1 33.0636L102.4 31.1636C103.1 29.8636 104.5 29.247 106.6 29.3136L109.55 29.7636C111.383 30.3636 113.617 31.847 116.25 34.2136C118.917 36.6136 120.55 38.6636 121.15 40.3636C121.683 41.797 121.617 43.0636 120.95 44.1636L119.8 45.4136L120.2 46.0136L121 47.0136L121.55 47.3136Z" fill="#373535"/>
<path fill-rule="evenodd" clip-rule="evenodd" d="M94.65 42.3636L139.75 68.4636L131.35 123.364L66.2 141.014L39.45 112.764L34.3 116.214L0 73.3636L25.75 49.9136L69.55 43.2136L71.6 44.7136L94.65 42.3636Z" fill="#373535"/>
<path fill-rule="evenodd" clip-rule="evenodd" d="M133.8 70.3136L62.4 87.3136L28.2 53.8136L91.95 46.4136L133.8 70.3136Z" fill="#665A54"/>
<path fill-rule="evenodd" clip-rule="evenodd" d="M92.15 46.4136L92.95 46.8136L29.25 54.2136L28.55 53.7636L92.15 46.4136Z" fill="#C7BBA1"/>
<path fill-rule="evenodd" clip-rule="evenodd" d="M133.8 70.3136L133.3 72.3636L93.9 83.8636L92.95 46.8136L133.8 70.3136Z" fill="#4D4541"/>
<path fill-rule="evenodd" clip-rule="evenodd" d="M66.85 58.3136C67.7167 58.3803 68.55 58.6636 69.35 59.1636C70.45 59.8636 71.0667 60.7803 71.2 61.9136C71.4 63.7136 72.0333 66.1803 73.1 69.3136C73.8333 70.9136 74.3833 72.947 74.75 75.4136C75.45 79.6136 74.9667 83.4303 73.3 86.8636C72.5 88.5636 71.6167 89.847 70.65 90.7136C66.6833 94.647 61.8167 96.3136 56.05 95.7136C54.25 95.5136 52.4667 95.097 50.7 94.4636L48.6 93.6136C43.2667 90.1803 40.5833 85.947 40.55 80.9136C40.55 78.847 41.25 76.1303 42.65 72.7636C42.9833 71.897 43.9333 70.2303 45.5 67.7636L47.75 64.2636L56.85 61.2636C63.05 59.2636 66.3833 58.2803 66.85 58.3136Z" fill="#68A2B3"/>
<path fill-rule="evenodd" clip-rule="evenodd" d="M62.35 66.3136C63.3167 65.9136 64.8 65.5303 66.8 65.1636C68.6667 64.797 70.15 65.097 71.25 66.0636C71.8167 66.5636 72.2 67.097 72.4 67.6636L73.15 70.6136C73.75 73.4803 74.0167 76.197 73.95 78.7636L73.7 81.7636C73.1333 85.397 71.2667 88.097 68.1 89.8636C66.5333 90.7636 65.0167 91.2803 63.55 91.4136C56.9833 91.9136 52.65 90.897 50.55 88.3636C49.3167 86.8636 48.8667 84.5803 49.2 81.5136C49.3667 80.1136 49.95 78.547 50.95 76.8136L52.4 74.6136L57.95 69.7136C59.25 68.1803 60.7167 67.047 62.35 66.3136Z" fill="#EFEEE7"/>
<path fill-rule="evenodd" clip-rule="evenodd" d="M48.65 28.7136L54.75 27.1636L61 27.0136L64.5 27.7636C65.8333 27.8303 67.4167 27.397 69.25 26.4636C68.85 27.5636 68.0667 28.4303 66.9 29.0636L65.25 29.6636L67.45 29.8136C68.65 30.047 70.1333 30.047 71.9 29.8136C71.4333 30.8136 70.25 31.597 68.35 32.1636C68.9167 32.397 69.6333 33.3803 70.5 35.1136L72.15 39.0136C72.55 40.2136 73.1667 41.3303 74 42.3636C75.2 42.6636 76.3333 43.2636 77.4 44.1636L78.65 45.4136C80.0167 47.447 80.0833 49.8303 78.85 52.5636C78.2167 53.9303 77.45 55.097 76.55 56.0636C72.6167 61.697 66.4833 64.547 58.15 64.6136L50.15 63.8636L46.85 63.0636C42.05 61.297 38.9 58.697 37.4 55.2636C36.6 53.497 36.2833 51.3136 36.45 48.7136L36.9 46.4136L37.6 43.4636L38.55 38.2636C39.9167 35.0636 42 32.5136 44.8 30.6136C46.2333 29.6803 47.5167 29.047 48.65 28.7136Z" fill="#85D3EA"/>
<path fill-rule="evenodd" clip-rule="evenodd" d="M45.1 30.5136C44.3 31.0136 43.5 31.797 42.7 32.8636C40.8 35.3636 39.9167 38.5636 40.05 42.4636L40 44.0136L39.35 48.1636C38.9167 50.0636 38.8 51.597 39 52.7636C39.4667 55.7636 41.3333 58.2303 44.6 60.1636C46.0333 61.0303 47.6667 61.6803 49.5 62.1136L58.85 63.2136L61.6 62.8136C63.8333 62.3803 65.9333 61.7636 67.9 60.9636C74.2333 58.4303 78.1333 54.5636 79.6 49.3636L78.85 52.8636C77.5833 55.7303 75.1167 58.5136 71.45 61.2136C69.6833 62.447 67.3 63.4803 64.3 64.3136C58.3 66.0136 52.25 65.947 46.15 64.1136C44.05 63.2803 42.0667 61.997 40.2 60.2636C36.4667 56.7636 35.15 52.747 36.25 48.2136C36.7833 46.747 37.05 45.3136 37.05 43.9136C37.05 42.847 37.3 41.4803 37.8 39.8136C38.2333 38.3136 38.65 37.2636 39.05 36.6636C39.85 35.4303 40.8167 34.2303 41.95 33.0636C43.05 31.9303 44.1 31.0803 45.1 30.5136Z" fill="#77BBCF"/>
<path fill-rule="evenodd" clip-rule="evenodd" d="M53.6 48.6636C51.2333 48.697 49.25 48.997 47.65 49.5636C45.85 50.397 44.3667 51.497 43.2 52.8636C43.5667 51.897 44.3 50.9636 45.4 50.0636C47.6 48.297 50.6 47.647 54.4 48.1136L55.35 48.3136L56.65 48.8136L53.6 48.6636Z" fill="#CBEAEF"/>
<path fill-rule="evenodd" clip-rule="evenodd" d="M69.85 45.1136L70.75 43.8136C71.5833 42.947 72.6333 42.5803 73.9 42.7136L74.9 43.0136C75.7 43.3136 76.3667 43.7303 76.9 44.2636C75.8333 43.3636 74.6167 43.0303 73.25 43.2636L72.15 43.5136C71.3167 43.8136 70.55 44.347 69.85 45.1136Z" fill="#CBEAEF"/>
<path fill-rule="evenodd" clip-rule="evenodd" d="M55.6 42.8136C55.4667 44.1803 54.9833 45.3136 54.15 46.2136C53.3167 47.1136 52.4 47.5136 51.4 47.4136C50.4 47.2803 49.6 46.697 49 45.6636C48.4333 44.597 48.2167 43.3803 48.35 42.0136C48.5167 40.6136 49 39.4636 49.8 38.5636C50.6333 37.6636 51.55 37.2803 52.55 37.4136C53.55 37.547 54.35 38.1303 54.95 39.1636C55.55 40.2303 55.7667 41.447 55.6 42.8136Z" fill="#373535"/>
<path fill-rule="evenodd" clip-rule="evenodd" d="M54.3 39.5636C54.4667 39.997 54.4833 40.4136 54.35 40.8136L53.6 41.5636L52.6 41.4136C52.2333 41.1803 51.9833 40.847 51.85 40.4136C51.6833 39.9803 51.6667 39.5636 51.8 39.1636C51.9333 38.7636 52.1667 38.5136 52.5 38.4136L53.55 38.5636C53.9167 38.797 54.1667 39.1303 54.3 39.5636Z" fill="white"/>
<path fill-rule="evenodd" clip-rule="evenodd" d="M50.7 45.1136C50.8667 45.5136 50.7667 45.7803 50.4 45.9136C50.0333 46.047 49.7667 45.9136 49.6 45.5136C49.4667 45.1136 49.5833 44.847 49.95 44.7136H50.4L50.7 45.1136Z" fill="white"/>
<path fill-rule="evenodd" clip-rule="evenodd" d="M53.45 43.2636C53.4167 44.1303 53.75 44.6136 54.45 44.7136C53.9167 44.747 53.55 44.9636 53.35 45.3636L53.2 45.9636C53.2 45.497 53.0333 45.1136 52.7 44.8136L52.15 44.5136C52.85 44.4803 53.2833 44.0636 53.45 43.2636Z" fill="white"/>
<path fill-rule="evenodd" clip-rule="evenodd" d="M50.1 40.9136C50.0667 41.847 50.45 42.3803 51.25 42.5136C50.6833 42.547 50.2833 42.7803 50.05 43.2136L49.85 43.9136C49.8167 43.3803 49.6167 42.947 49.25 42.6136L48.65 42.2636C49.4167 42.2303 49.9 41.7803 50.1 40.9136Z" fill="white"/>
<path fill-rule="evenodd" clip-rule="evenodd" d="M62.3 41.3636C61.4667 40.3303 61.05 39.2136 61.05 38.0136C61.0167 36.847 61.3833 35.9803 62.15 35.4136C62.9167 34.847 63.8667 34.7303 65 35.0636C66.1 35.397 67.05 36.097 67.85 37.1636C68.6833 38.197 69.1167 39.297 69.15 40.4636C69.15 41.6303 68.7667 42.5136 68 43.1136C67.2333 43.6803 66.2833 43.797 65.15 43.4636C64.05 43.1303 63.1 42.4303 62.3 41.3636Z" fill="#373535"/>
<path fill-rule="evenodd" clip-rule="evenodd" d="M63.65 37.7136C63.3167 37.447 63.1 37.1136 63 36.7136C62.9 36.3136 62.9667 35.9803 63.2 35.7136C63.4333 35.447 63.75 35.3136 64.15 35.3136C64.5167 35.347 64.8833 35.497 65.25 35.7636C65.6167 36.0303 65.8333 36.3636 65.9 36.7636C66 37.1636 65.9333 37.497 65.7 37.7636L64.8 38.1136C64.3667 38.1136 63.9833 37.9803 63.65 37.7136Z" fill="white"/>
<path fill-rule="evenodd" clip-rule="evenodd" d="M66.05 42.4136C65.9833 42.047 66.1333 41.797 66.5 41.6636C66.8667 41.597 67.0833 41.7803 67.15 42.2136L67.1 42.6636L66.75 42.9136C66.3833 42.9803 66.15 42.8136 66.05 42.4136Z" fill="white"/>
<path fill-rule="evenodd" clip-rule="evenodd" d="M66.05 39.6636C66.5833 39.2303 66.6167 38.6636 66.15 37.9636L66.65 38.3136L67.8 38.3636L67.55 38.8636C67.4167 39.297 67.4667 39.7136 67.7 40.1136C67.3 39.447 66.75 39.297 66.05 39.6636Z" fill="white"/>
<path fill-rule="evenodd" clip-rule="evenodd" d="M62.75 39.1136L63.35 39.5136L64.65 39.5636L64.35 40.1136C64.1833 40.5803 64.2167 41.0303 64.45 41.4636C64.0167 40.7303 63.4167 40.5803 62.65 41.0136C63.25 40.5136 63.2833 39.8803 62.75 39.1136Z" fill="white"/>
<path fill-rule="evenodd" clip-rule="evenodd" d="M52.5 32.6636L51.75 36.7636C50.5167 39.6303 48.1333 41.4303 44.6 42.1636C45.6 41.9303 46.6333 41.3636 47.7 40.4636C49.8667 38.697 51.2 36.1803 51.7 32.9136C51.8333 32.0803 51.7667 31.2636 51.5 30.4636L51.95 31.1636L52.5 32.6636Z" fill="#639CAD"/>
<path fill-rule="evenodd" clip-rule="evenodd" d="M59.05 30.8636V29.5636L59.15 29.1636C59.1833 29.9636 59.65 30.8636 60.55 31.8636L61.9 33.1636C62.8333 34.1303 64.5167 34.797 66.95 35.1636L70.35 35.4136C69.3167 36.0136 67.8833 36.1803 66.05 35.9136L63.55 35.3136C61.75 34.6136 60.45 33.6636 59.65 32.4636L59.05 30.8636Z" fill="#639CAD"/>
<path fill-rule="evenodd" clip-rule="evenodd" d="M71.9 29.8136L70.3 31.3136C69 32.247 67.8 32.447 66.7 31.9136L68.25 31.7136C69.55 31.3803 70.7667 30.747 71.9 29.8136Z" fill="#77BBCF"/>
<path fill-rule="evenodd" clip-rule="evenodd" d="M69.25 26.4636C69.1833 26.9636 68.9333 27.447 68.5 27.9136C67.6667 28.9136 66.35 29.4303 64.55 29.4636C63.9833 29.597 63.3333 29.4136 62.6 28.9136L64.9 28.9636C66.6333 28.7303 68.0833 27.897 69.25 26.4636Z" fill="#77BBCF"/>
<path fill-rule="evenodd" clip-rule="evenodd" d="M61.05 57.3136L69.8 54.3136C71.0333 57.7136 71.6 59.5303 71.5 59.7636C71.4333 59.9636 71.0833 60.297 70.45 60.7636C69.65 61.5303 67.8167 62.1636 64.95 62.6636C64.95 62.3636 63.65 60.5803 61.05 57.3136Z" fill="#77BBCF"/>
<path fill-rule="evenodd" clip-rule="evenodd" d="M62.2 56.9636C63.5667 56.397 64.55 55.447 65.15 54.1136L65.65 52.3136C66.0167 53.047 66.8667 53.5803 68.2 53.9136L70.1 54.2136C70.3333 54.5136 70.65 56.1636 71.05 59.1636C70.9167 60.0636 69.5 60.8303 66.8 61.4636L65.45 61.3636L65.1 61.0136L62.2 56.9636Z" fill="#FFFEF1"/>
<path fill-rule="evenodd" clip-rule="evenodd" d="M63.9 48.9636L65.7 48.5636C65.6333 49.5636 65.9167 50.7303 66.55 52.0636C67.75 53.5303 69.25 53.9636 71.05 53.3636C71.95 53.097 72.7167 52.6636 73.35 52.0636C74.05 51.2636 74.2167 50.297 73.85 49.1636L73.15 47.6636C74.3167 48.3636 74.85 49.3636 74.75 50.6636L74.2 52.4136C72.4667 54.247 70.5667 54.9303 68.5 54.4636L65.95 53.1636C64.75 56.1636 62.55 57.8303 59.35 58.1636L54.95 57.7636C53.6167 57.2303 52.9833 56.3303 53.05 55.0636L53.5 53.3136C53.2 54.747 53.6833 55.847 54.95 56.6136L57 57.3136C59.3667 57.547 61.35 56.9303 62.95 55.4636C63.75 54.7303 64.3167 53.9636 64.65 53.1636C65.0833 52.0636 64.8333 50.6636 63.9 48.9636Z" fill="#639CAD"/>
<path fill-rule="evenodd" clip-rule="evenodd" d="M65.8 48.4636C65.5333 49.097 65.1 49.3636 64.5 49.2636L60.2 48.7136L59.15 48.5636C58.95 48.4303 59.0333 48.097 59.4 47.5636C59.9 46.797 60.9167 46.097 62.45 45.4636C64.3167 44.6636 66.2333 44.4136 68.2 44.7136C68.6667 44.8136 68.6167 45.1303 68.05 45.6636L65.8 48.4636Z" fill="#EE81B3"/>
<path fill-rule="evenodd" clip-rule="evenodd" d="M66.35 45.0636C66.7833 45.097 66.8667 45.297 66.6 45.6636L65.6 46.5636L63.8 46.8136L62.5 46.7136C62.1 46.6803 62.0667 46.5136 62.4 46.2136L63 45.7636C63.9667 45.3303 65.0833 45.097 66.35 45.0636Z" fill="#F6D8E8"/>
<path fill-rule="evenodd" clip-rule="evenodd" d="M49.05 29.1636L44.25 31.7136C43.6833 31.047 41.8 30.3303 38.6 29.5636C37.2 29.2303 35.8667 28.5803 34.6 27.6136L33.1 26.2636C32.8667 26.597 32.6667 27.6636 32.5 29.4636L32.1 31.6136C31.7333 32.647 31.0833 33.4803 30.15 34.1136L27.95 34.0636C27.5833 33.6303 27.3333 33.0136 27.2 32.2136L25.1 25.8636C24.6 24.4636 24.3333 22.3136 24.3 19.4136C24.2667 17.0803 24.35 15.4136 24.55 14.4136C24.6833 13.6136 26.8667 11.9803 31.1 9.51364L34.4 8.21364L37.85 6.81364C38.5833 6.44697 39.25 6.51364 39.85 7.01364C41.1833 7.44697 42.7333 9.66364 44.5 13.6636C46.1 17.2636 47.0167 20.097 47.25 22.1636C47.55 24.4636 48.15 26.797 49.05 29.1636Z" fill="#85D3EA"/>
<path fill-rule="evenodd" clip-rule="evenodd" d="M42.35 28.9136C38.4167 28.5803 35.5167 27.2803 33.65 25.0136L33.95 24.0136C34.2167 23.247 34.4667 22.7136 34.7 22.4136C37.4 19.247 38.9667 16.897 39.4 15.3636C40.1667 13.1303 40.2333 11.3636 39.6 10.0636L41.9 13.6636C43.4333 16.4636 44.3 18.8803 44.5 20.9136L45 24.4636C45.0333 25.1303 45.3833 26.1803 46.05 27.6136C46.6167 28.9136 47.0333 29.697 47.3 29.9636L45.25 31.1636C44.05 29.7303 43.0833 28.9803 42.35 28.9136Z" fill="#71B0C2"/>
<path fill-rule="evenodd" clip-rule="evenodd" d="M41.25 26.6136C40.3167 26.547 39.1 26.1136 37.6 25.3136C36.0333 24.4803 35 23.6803 34.5 22.9136L36 20.8136L37.65 18.8136L39.4 15.3636L41.5 18.4136C42.9333 20.8803 43.7167 23.147 43.85 25.2136L44.05 26.6136C44.2833 27.5136 44.65 28.2136 45.15 28.7136C43.7167 27.3803 42.4167 26.6803 41.25 26.6136Z" fill="#D876A4"/>
<path fill-rule="evenodd" clip-rule="evenodd" d="M77.7 7.76363L78.9 12.6136C79.4333 15.447 79.5833 17.597 79.35 19.0636C78.75 22.7303 78.45 24.947 78.45 25.7136C78.4833 26.547 78.3667 27.197 78.1 27.6636C77.7 28.397 76.9833 28.5636 75.95 28.1636C74.9167 27.7303 74.1167 27.047 73.55 26.1136L72.75 24.0136C72.25 22.3136 71.85 21.3136 71.55 21.0136L70.4 22.6136C69.3333 23.8136 68.1333 24.7136 66.8 25.3136C63.7667 26.6803 62.05 27.747 61.65 28.5136L56.45 26.9136C56.8833 24.4136 57.0167 22.0136 56.85 19.7136C56.6833 17.5803 57.05 14.6136 57.95 10.8136C58.9167 6.54697 60.0167 4.0803 61.25 3.41363L61.75 3.01363L63.15 2.86363L66.8 3.56363L70.3 4.21363L74.2 5.61363C76.3333 6.51363 77.5 7.2303 77.7 7.76363Z" fill="#85D3EA"/>
<path fill-rule="evenodd" clip-rule="evenodd" d="M69.25 17.5636C69.7167 17.9636 70.2167 18.747 70.75 19.9136C69.35 22.4803 66.7667 24.297 63 25.3636C62.5333 25.497 62.0667 25.9136 61.6 26.6136L61 27.6136L59.15 27.3636H58.3L59.1 24.8136C59.4667 23.2803 59.6 22.1803 59.5 21.5136L59.35 17.9636C59.15 15.9303 59.5333 13.3803 60.5 10.3136L62.05 6.36363C61.8167 7.2303 61.95 8.36363 62.45 9.76363L63.3 11.5636C63.9667 12.9303 65.95 14.9303 69.25 17.5636Z" fill="#71B0C2"/>
<path fill-rule="evenodd" clip-rule="evenodd" d="M63.3 11.5636C64.3333 13.2303 65.7833 14.7803 67.65 16.2136L69.55 18.0136C69.1833 18.8803 68.3167 19.8636 66.95 20.9636C65.6167 22.0303 64.5 22.6803 63.6 22.9136C62.8667 23.1136 62.05 23.6636 61.15 24.5636L60.05 25.9136C60.7833 24.947 61.0333 23.6636 60.8 22.0636C60.5333 19.997 60.8667 17.6303 61.8 14.9636C62.2667 13.6303 62.7667 12.497 63.3 11.5636Z" fill="#D876A4"/>
<path fill-rule="evenodd" clip-rule="evenodd" d="M52.55 74.2636L57.7 71.3636L56.9 74.4636C56.6 76.8636 57.0333 78.897 58.2 80.5636L60.4 82.8136C62.4 84.2136 64.7167 84.6136 67.35 84.0136C68.5167 83.8136 69.6667 83.2636 70.8 82.3636C72.9 80.6636 73.9333 78.2303 73.9 75.0636L74.05 79.6636C73.75 83.5303 72.4833 86.5636 70.25 88.7636L57.95 87.7636L49.75 77.6636L51.3 76.3136L51.8 75.3636L52.55 74.2636Z" fill="#B4B5AE"/>
<path fill-rule="evenodd" clip-rule="evenodd" d="M91.95 46.4136H92.15C92.7167 46.347 93.2 46.4803 93.6 46.8136L135.2 70.9136L127.65 120.064L127.15 120.464L68.4 136.414C67.8667 136.714 67.3833 136.597 66.95 136.064L51.6 119.264L35.2 101.664C34.6333 101.23 34.2167 100.747 33.95 100.214L33.7 99.5136L27.9 55.0636C27.8333 54.5636 27.8667 54.2136 28 54.0136L28.2 53.8136L29.15 53.7136L62.75 86.9136L133.3 70.4636L91.95 46.4136Z" fill="#C7BBA1"/>
<path fill-rule="evenodd" clip-rule="evenodd" d="M27.95 54.0636L62.25 87.8636L67.65 136.464C67.55 136.597 67.2333 136.38 66.7 135.814L34.5 101.064C34.1 100.864 33.8167 100.147 33.65 98.9136L27.85 54.7136L27.95 54.0636Z" fill="#958773"/>
<path fill-rule="evenodd" clip-rule="evenodd" d="M67.65 136.464L62.25 87.8636L135.2 70.9136L127.7 119.664C127.733 120.164 127.55 120.43 127.15 120.464L68.4 136.414L67.65 136.464Z" fill="#B1A386"/>
<path fill-rule="evenodd" clip-rule="evenodd" d="M104.65 112.164L100.6 110.214L99.75 114.614L98.15 111.564L95.95 114.264V111.464L92.85 113.914L94.15 109.814L91.75 109.914L93.95 107.014L91.75 105.964L93.7 104.514L92.15 101.614L95.05 101.814L94.45 97.9136L97.05 99.8136L98.35 96.2136L99.65 99.2636L102.7 95.2136L101.85 100.064L104 99.4636L102.5 102.314L104.5 103.114L102.6 105.164L104.45 106.914L102.75 108.014L104.65 112.164Z" fill="#4F4A40"/>
<path fill-rule="evenodd" clip-rule="evenodd" d="M80.75 102.414L81.2 103.014L82.05 102.314L84.5 101.914L84.3 102.964L85.5 101.514L92 99.5636L94.95 103.014L94.1 107.964L91.65 112.314L87.05 113.264L86.45 114.114L81.05 114.714L80.65 115.464L78.55 116.064L77.25 115.864L75.4 116.864L74.15 116.764V117.364L72.45 118.414L70.6 118.314L66.5 106.564L69.1 103.814L71.85 103.764L72.35 104.514L74.1 103.664L74.7 104.114L76.45 102.864L80.75 102.414Z" fill="#4F4A40"/>
<path fill-rule="evenodd" clip-rule="evenodd" d="M89.15 103.664L90.5 103.314L90.35 110.164L88.6 110.764L87.3 111.014L89.05 110.414L89.15 103.664Z" fill="#827765"/>
<path fill-rule="evenodd" clip-rule="evenodd" d="M87.05 111.164L85.95 111.264L85.75 104.814L87.15 104.414L87.05 111.164Z" fill="#827765"/>
<path fill-rule="evenodd" clip-rule="evenodd" d="M88.5 103.664L90.95 102.964L90.85 110.264L88.35 111.114L88.25 110.864L90.35 110.164L90.5 103.314L88.4 103.914L88.5 103.664Z" fill="#958773"/>
<path fill-rule="evenodd" clip-rule="evenodd" d="M86.55 112.814L85.3 113.014V111.214L86.6 110.964L86.55 112.814Z" fill="#856338"/>
<path fill-rule="evenodd" clip-rule="evenodd" d="M85.95 104.764L84.75 105.164V102.914L85.9 102.264L85.95 104.764Z" fill="#827765"/>
<path fill-rule="evenodd" clip-rule="evenodd" d="M91.1 111.414L87.05 112.464V111.064L87.55 110.914L87.65 104.064L86.45 104.364V102.364L91.35 101.014L92.55 102.164L92.1 110.114L91.1 111.414ZM90.95 102.964L88.5 103.664L88.55 111.014L90.85 110.264L90.95 102.964Z" fill="#B1A386"/>
<path fill-rule="evenodd" clip-rule="evenodd" d="M91.1 111.414L90.85 111.714L86.55 112.814L86.6 110.964L87.1 110.814L87.15 104.414L85.95 104.764L85.9 102.264L91.1 100.814L91.35 101.014L86.45 102.364V104.364L87.65 104.064L87.55 110.914L87.05 111.064V112.464L91.1 111.414Z" fill="#958773"/>
<path fill-rule="evenodd" clip-rule="evenodd" d="M83.15 112.064L81.9 112.314L85.2 111.064L86.5 110.864L83.15 112.064Z" fill="#827765"/>
<path fill-rule="evenodd" clip-rule="evenodd" d="M83.25 112.314L83.15 112.064L86.5 110.864L86.6 111.064L83.25 112.314Z" fill="#958773"/>
<path fill-rule="evenodd" clip-rule="evenodd" d="M82.7 103.164L81.65 103.464L81.7 114.064H80.5L80.4 103.814L82.7 103.164Z" fill="#827765"/>
<path fill-rule="evenodd" clip-rule="evenodd" d="M83.8 103.064L83.25 112.314L86.6 111.064V112.764L82.15 113.764L82.1 103.564L83.8 103.064Z" fill="#B1A386"/>
<path fill-rule="evenodd" clip-rule="evenodd" d="M82.15 113.764L86.6 112.764L86.5 113.014L81.7 114.064L81.65 103.464L83.7 102.814L83.8 103.064L82.1 103.564L82.15 113.764Z" fill="#958773"/>
<path fill-rule="evenodd" clip-rule="evenodd" d="M79.05 114.914L77.85 115.114L77.5 104.314L78.65 103.764L79.05 114.914Z" fill="#827765"/>
<path fill-rule="evenodd" clip-rule="evenodd" d="M79.2 104.064L79.5 114.614L80.55 114.264L80.45 114.464L79.05 114.914L78.65 103.764L80.65 103.464L81.2 103.664L79.2 104.064Z" fill="#958773"/>
<path fill-rule="evenodd" clip-rule="evenodd" d="M81.2 103.664L80.55 114.264L79.5 114.614L79.2 104.064L81.2 103.664Z" fill="#B1A386"/>
<path fill-rule="evenodd" clip-rule="evenodd" d="M75.5 110.964L74.35 111.214L75 104.464L76.3 104.014L75.5 110.964Z" fill="#827765"/>
<path fill-rule="evenodd" clip-rule="evenodd" d="M75.4 115.814L74.3 116.014L73.2 110.564L74.2 110.714L75.4 115.814Z" fill="#827765"/>
<path fill-rule="evenodd" clip-rule="evenodd" d="M78.05 103.814L78.2 103.914L76.75 104.164L75.8 112.164L75.5 110.964L76.3 104.014L78.05 103.814Z" fill="#958773"/>
<path fill-rule="evenodd" clip-rule="evenodd" d="M72.95 111.064L71.85 111.364L72.8 105.064L74.3 104.514L72.95 111.064Z" fill="#827765"/>
<path fill-rule="evenodd" clip-rule="evenodd" d="M75.8 115.414L76.85 115.114L76.7 115.314L75.4 115.814L74.2 110.714L74.4 109.364L75.8 115.414Z" fill="#958773"/>
<path fill-rule="evenodd" clip-rule="evenodd" d="M73.15 112.764L72.95 111.064L74.3 104.514L74.55 104.564L73.15 112.764Z" fill="#958773"/>
<path fill-rule="evenodd" clip-rule="evenodd" d="M72.25 117.064L71.1 117.264L68.1 106.564L69.35 105.064L72.25 117.064Z" fill="#827765"/>
<path fill-rule="evenodd" clip-rule="evenodd" d="M72.6 116.664L73.9 116.214L73.8 116.464L72.25 117.064L69.35 105.064L71.8 104.914L72.05 105.064L69.9 105.214L72.6 116.664Z" fill="#958773"/>
<path fill-rule="evenodd" clip-rule="evenodd" d="M78.2 103.914L76.85 115.114L75.8 115.414L74.4 109.364L73.9 116.214L72.6 116.664L69.9 105.214L72.05 105.064L73.15 112.214L74.7 104.764L75.8 112.164L76.75 104.164L78.2 103.914Z" fill="#B1A386"/>
<path fill-rule="evenodd" clip-rule="evenodd" d="M72.05 105.064L70.15 105.414L72.35 115.614L69.85 105.214L72.05 105.064Z" fill="#DECEAF"/>
<path fill-rule="evenodd" clip-rule="evenodd" d="M79.45 104.264V114.564L79.15 104.014L81.2 103.664L79.45 104.264Z" fill="#DECEAF"/>
<path fill-rule="evenodd" clip-rule="evenodd" d="M83.8 103.064L82.35 103.764L82.15 113.764L82 103.564L83.8 103.064Z" fill="#DECEAF"/>
<path fill-rule="evenodd" clip-rule="evenodd" d="M83.25 112.314L86.6 111.064V112.764L86.45 111.414L83.25 112.314Z" fill="#DECEAF"/>
<path fill-rule="evenodd" clip-rule="evenodd" d="M91.35 101.014L86.75 102.514L86.45 104.364L86.35 102.314L91.35 101.014Z" fill="#DECEAF"/>
<path fill-rule="evenodd" clip-rule="evenodd" d="M87.55 110.914L87.25 111.264L87.05 112.464L86.95 111.014L87.55 110.914Z" fill="#DECEAF"/>
<path fill-rule="evenodd" clip-rule="evenodd" d="M88.75 111.014L90.75 110.064L90.95 102.964L91 110.414L88.75 111.014Z" fill="#DECEAF"/>
<path fill-rule="evenodd" clip-rule="evenodd" d="M109.2 96.2636L111.75 95.3136L112.7 95.7136L112.75 95.0636L114.85 94.0636L115.6 94.3636L115.9 93.9136L120.1 91.8636L120.95 92.1636L126.75 89.2136L129.6 90.8136L128.7 95.8636C128.5 95.997 128.283 96.1136 128.05 96.2136L129.05 97.1136L128.55 102.964L126.75 104.514L121.6 105.214L121.35 104.664L120.35 105.164L115.85 105.814L115.3 106.464L109.9 107.614L109 108.114L104.7 109.014L102.75 107.764L102.15 100.864L104.05 97.6136L108.35 96.0136L109.2 96.2636Z" fill="#4F4A40"/>
<path fill-rule="evenodd" clip-rule="evenodd" d="M108.4 99.4136L106.4 100.114L106.5 106.064L105.4 106.264L105.3 100.164L107.35 99.4636L108.4 99.4136Z" fill="#827765"/>
<path fill-rule="evenodd" clip-rule="evenodd" d="M107.35 99.4636L105.3 100.164L105.4 106.264L105 106.564L104.9 100.064L107.3 99.2136L107.35 99.4636Z" fill="#958773"/>
<path fill-rule="evenodd" clip-rule="evenodd" d="M109.6 96.9136L110.05 97.7136L109.85 106.114L109.3 107.064L108.3 107.414L108.8 106.264L109 97.8136L108.55 96.9636L109.6 96.9136Z" fill="#827765"/>
<path fill-rule="evenodd" clip-rule="evenodd" d="M105 106.564L105.4 106.264L107.35 105.664L107.3 105.864L105 106.564Z" fill="#958773"/>
<path fill-rule="evenodd" clip-rule="evenodd" d="M104.35 98.3636L108.55 96.9636L109 97.8136L108.8 106.264L108.3 107.414L104.65 108.114L104.45 107.914L107.95 107.064L108.4 106.314L108.6 97.9136L108.2 97.2636L104.2 98.5636L104.35 98.3636Z" fill="#958773"/>
<path fill-rule="evenodd" clip-rule="evenodd" d="M104.2 98.5636L108.2 97.2636L108.6 97.9136L108.4 106.314L107.95 107.064L104.45 107.914L103.95 107.414L103.75 99.5636L104.2 98.5636ZM104.9 100.064L105 106.564L107.3 105.864V99.2136L104.9 100.064Z" fill="#B1A386"/>
<path fill-rule="evenodd" clip-rule="evenodd" d="M111.35 100.064L112.35 99.9636V106.314L111.4 106.664L111.35 100.064Z" fill="#827765"/>
<path fill-rule="evenodd" clip-rule="evenodd" d="M111.35 96.1136L112.35 96.0636L114.55 102.114L113.55 102.214L111.35 96.1136Z" fill="#827765"/>
<path fill-rule="evenodd" clip-rule="evenodd" d="M111.35 100.064L111.4 106.664L110 106.814L109.9 106.614L110.95 106.364L110.9 99.0136L111.35 100.064Z" fill="#958773"/>
<path fill-rule="evenodd" clip-rule="evenodd" d="M114.95 94.9636L115.9 94.9136L115.8 105.264L114.75 105.664L114.95 94.9636Z" fill="#827765"/>
<path fill-rule="evenodd" clip-rule="evenodd" d="M113.55 102.214V103.564L111 96.3636L109.8 96.8136L109.85 96.6636L111.35 96.1136L113.55 102.214Z" fill="#958773"/>
<path fill-rule="evenodd" clip-rule="evenodd" d="M114.55 95.2636L114.35 105.514L113.2 105.764L110.9 99.0136L110.95 106.364L109.9 106.614L109.8 96.8136L111 96.3636L113.55 103.564L113.15 95.6636L114.55 95.2636Z" fill="#B1A386"/>
<path fill-rule="evenodd" clip-rule="evenodd" d="M113.35 95.4636L114.95 94.9636L114.75 105.664L113.3 105.964L113.2 105.764L114.35 105.514L114.55 95.2636L113.15 95.6636L113.35 95.4636Z" fill="#958773"/>
<path fill-rule="evenodd" clip-rule="evenodd" d="M121.65 93.1636L121.55 95.2636L118.35 96.2636V98.3136L117.4 98.4136V96.3136L120.65 95.3136L120.7 93.1636H121.65Z" fill="#827765"/>
<path fill-rule="evenodd" clip-rule="evenodd" d="M120.2 97.5136L121.15 97.4636L120.95 99.5636L118.45 100.214V102.664L117.5 102.814V100.314L120.15 99.6136L120.2 97.5136Z" fill="#827765"/>
<path fill-rule="evenodd" clip-rule="evenodd" d="M120.2 101.864L121.15 101.764L121.1 103.864L120.2 104.214V101.864Z" fill="#827765"/>
<path fill-rule="evenodd" clip-rule="evenodd" d="M115.85 94.9136L116.15 94.6136L120.7 93.1636L120.3 93.4636L115.85 94.9136Z" fill="#958773"/>
<path fill-rule="evenodd" clip-rule="evenodd" d="M120.3 93.4636L120.25 95.1636L116.95 96.1636L117 98.6636L119.8 97.8136L119.75 99.4636L117.1 100.164V103.114L119.95 102.164V104.064L116.05 104.964L115.85 94.9136L120.3 93.4636Z" fill="#B1A386"/>
<path fill-rule="evenodd" clip-rule="evenodd" d="M120.25 95.1636L120.3 93.4636L120.7 93.1636L120.65 95.3136L117.4 96.3136V98.4136L120.2 97.5136L120.15 99.6136L117.5 100.314V102.814L120.2 101.864V104.214L116.1 105.164L116.05 104.964L119.95 104.064V102.164L117.1 103.114V100.164L119.75 99.4636L119.8 97.8136L117 98.6636L116.95 96.1636L120.25 95.1636Z" fill="#958773"/>
<path fill-rule="evenodd" clip-rule="evenodd" d="M122.8 99.0136L123.7 98.9136L123.85 101.764L122.95 101.914L122.8 99.0136Z" fill="#827765"/>
<path fill-rule="evenodd" clip-rule="evenodd" d="M122.8 99.0136L122.95 101.914L122.55 102.214L122.4 99.2636L121.45 99.5136L121.9 99.2136L122.8 99.0136Z" fill="#958773"/>
<path fill-rule="evenodd" clip-rule="evenodd" d="M127.15 90.7136L128.3 91.4136L127.8 95.2636L126.35 95.5636L125.5 95.6136L126.95 95.3136L127.2 91.4636L126.3 90.7136H127.15Z" fill="#827765"/>
<path fill-rule="evenodd" clip-rule="evenodd" d="M123.9 93.9636V95.7136L128.1 97.2636L127.8 102.364L126.9 102.664L127.05 97.2636L122.95 95.7636L123 94.0136L125.5 93.2136L126.4 93.1636L123.9 93.9636Z" fill="#827765"/>
<path fill-rule="evenodd" clip-rule="evenodd" d="M125.3 98.7636V98.9136L121.45 97.1636V97.0136L125.3 98.7636Z" fill="#958773"/>
<path fill-rule="evenodd" clip-rule="evenodd" d="M122.55 102.214L122.95 101.914L125.35 101.164V101.314L122.55 102.214Z" fill="#958773"/>
<path fill-rule="evenodd" clip-rule="evenodd" d="M126.55 95.1136L126.8 91.6136L126 90.9636L121.4 92.7636L121.45 92.6136L126.3 90.7136L127.2 91.4636L126.95 95.3136L125.5 95.6136L125.45 95.3636L126.55 95.1136Z" fill="#958773"/>
<path fill-rule="evenodd" clip-rule="evenodd" d="M122.6 95.9636V93.8636L125.5 92.9136V93.2136L123 94.0136L122.95 95.7636L127.2 97.3136L126.9 102.664L121.85 103.864L121.55 103.664L126.55 102.514L126.65 97.4636L122.6 95.9636Z" fill="#958773"/>
<path fill-rule="evenodd" clip-rule="evenodd" d="M126.55 95.1136L125.45 95.3636L125.5 92.9136L122.6 93.8636V95.9636L126.65 97.4636L126.55 102.514L121.55 103.664L121.45 99.5136L122.4 99.2636L122.55 102.214L125.35 101.314L125.3 98.7636L121.45 97.0136L121.4 92.7636L126 90.9636L126.8 91.6136L126.55 95.1136Z" fill="#B1A386"/>
<path fill-rule="evenodd" clip-rule="evenodd" d="M125.9 91.1637L121.4 92.7636L126 90.9637L126.8 91.6136L126.55 95.0136V91.6637L125.9 91.1637Z" fill="#DECEAF"/>
<path fill-rule="evenodd" clip-rule="evenodd" d="M122.6 95.9637L126.65 97.4637L126.55 102.514L126.35 97.6637L122.6 95.9637Z" fill="#DECEAF"/>
<path fill-rule="evenodd" clip-rule="evenodd" d="M122.15 99.6136L121.45 99.5136L122.4 99.2636L122.55 102.114L122.15 99.6136Z" fill="#DECEAF"/>
<path fill-rule="evenodd" clip-rule="evenodd" d="M117 98.6637L119.95 97.7137L119.75 99.4637L119.6 98.0637L117 98.6637Z" fill="#DECEAF"/>
<path fill-rule="evenodd" clip-rule="evenodd" d="M115.85 94.9136L120.35 93.4136L120.25 95.1636L119.95 93.8636L115.85 94.9136Z" fill="#DECEAF"/>
<path fill-rule="evenodd" clip-rule="evenodd" d="M117.1 103.114L119.95 102.164V104.064L119.75 102.514L117.1 103.114Z" fill="#DECEAF"/>
<path fill-rule="evenodd" clip-rule="evenodd" d="M113.15 95.6637L114.6 95.2137L114.35 105.464L114.25 95.7137L113.15 95.6637Z" fill="#DECEAF"/>
<path fill-rule="evenodd" clip-rule="evenodd" d="M109.8 96.8137L111 96.3636L113.55 103.564L110.85 96.7137L109.8 96.8137Z" fill="#DECEAF"/>
<path fill-rule="evenodd" clip-rule="evenodd" d="M104.2 98.5636L108.25 97.1636L108.65 97.9136L108.4 106.314L108.35 98.0636L108 97.5136L104.2 98.5636Z" fill="#DECEAF"/>
<path fill-rule="evenodd" clip-rule="evenodd" d="M110.9 99.0136L111.05 106.414L109.9 106.614L110.85 106.164L110.9 99.0136Z" fill="#DECEAF"/>
<path fill-rule="evenodd" clip-rule="evenodd" d="M103.35 110.864L100.25 109.364L99.55 112.714L98.2 110.564L96.55 112.714L96.5 110.364L93.9 112.464L94.95 108.964L92.75 109.164L94.8 106.714L92.6 105.864L94.6 104.714L93.3 102.464L95.8 102.664L95.1 99.0636L97.3 100.964L98.3 98.0636L99.4 100.464L101.75 97.2636L101.1 101.164L103.45 100.214L101.7 102.914L103.8 103.514L101.7 105.214L103.7 106.714L101.8 107.514L103.35 110.864Z" fill="#B1A386"/>
<path fill-rule="evenodd" clip-rule="evenodd" d="M100.3 102.064L102.35 101.114L100.8 103.364L102.8 103.764L100.9 105.364L102.8 106.664L101.2 107.264L102.3 109.764C101.5 109.397 100.7 109.014 99.9 108.614L99.45 110.914L98.4 109.014L97 111.414V109.164L94.85 111.064L96 108.264L94.15 108.414L95.6 106.414L93.75 105.764L95.45 104.714L94.15 102.914L96.45 103.364L96.05 100.814L97.45 102.014L98.3 99.6636L99.2 101.564L100.85 99.3136L100.3 102.064Z" fill="#DECEAF"/>
<path fill-rule="evenodd" clip-rule="evenodd" d="M101.5 105.114C101.6 106.014 101.383 106.897 100.85 107.764L100.9 108.114V108.164L100.2 109.064L99.2 109.614L98.8 109.764H98.45L98.35 109.514C97.8167 109.614 97.3333 109.514 96.9 109.214L96.35 108.564L96.1 108.514L96 108.314L95.15 108.114L94.7 106.864C94.5 106.164 94.55 105.397 94.85 104.564L95.4 103.464L96.45 102.364L97.15 101.814L98.5 101.114H98.9L99 101.314L99.45 101.064H99.6C100.3 100.897 100.767 101.147 101 101.814C101.167 102.214 101.067 102.714 100.7 103.314L100.8 103.414L101.25 103.564H101.3L101.7 104.514L101.5 105.114Z" fill="#4F4A40"/>
<path fill-rule="evenodd" clip-rule="evenodd" d="M98.35 108.614L100.4 107.214L100.55 108.064L99.75 108.964L98.75 109.264L98.35 108.614Z" fill="#4F4A40"/>
<path fill-rule="evenodd" clip-rule="evenodd" d="M100.95 104.464C101.217 105.197 101.217 105.964 100.95 106.764C100.683 107.564 100.233 108.197 99.6 108.664C98.9333 109.097 98.2833 109.214 97.65 109.014C96.9833 108.847 96.5333 108.397 96.3 107.664C96.0333 106.964 96.0333 106.214 96.3 105.414C96.5667 104.614 97.0167 103.98 97.65 103.514C98.2833 103.08 98.9333 102.947 99.6 103.114C100.233 103.314 100.683 103.764 100.95 104.464Z" fill="#958773"/>
<path fill-rule="evenodd" clip-rule="evenodd" d="M96.25 107.564C96.9167 109.13 97.9833 109.43 99.45 108.464C100.183 107.997 100.683 107.364 100.95 106.564C101.15 105.897 101.15 105.214 100.95 104.514C101.217 105.214 101.217 105.964 100.95 106.764C100.683 107.564 100.233 108.197 99.6 108.664C98.9667 109.097 98.3167 109.23 97.65 109.064C97.0167 108.864 96.5667 108.414 96.3 107.714L96.25 107.564Z" fill="#B1A386"/>
<path fill-rule="evenodd" clip-rule="evenodd" d="M101.1 104.264L101.2 104.564C101.367 105.23 100.667 106.13 99.1 107.264L97.25 108.164L96.25 108.014L96.1 107.664C96.0333 107.397 96.2 106.997 96.6 106.464L98.25 104.964C98.95 104.497 99.5667 104.197 100.1 104.064C100.633 103.93 100.967 103.997 101.1 104.264Z" fill="#A1A044"/>
<path fill-rule="evenodd" clip-rule="evenodd" d="M101 104.064L101.1 104.364L100.6 105.514L99 106.964L97.15 107.914L96.15 107.764L96.05 107.514C95.9833 107.247 96.15 106.864 96.55 106.364L98.2 104.864C98.8667 104.397 99.4833 104.08 100.05 103.914C100.583 103.78 100.9 103.83 101 104.064Z" fill="#A1A044"/>
<path fill-rule="evenodd" clip-rule="evenodd" d="M100.8 104.164L100.3 105.114L98.75 106.414L97.05 107.364C96.55 107.53 96.2667 107.53 96.2 107.364C96.1333 107.164 96.3 106.847 96.7 106.414C97.1 105.98 97.6167 105.547 98.25 105.114C98.8833 104.68 99.45 104.364 99.95 104.164C100.45 103.997 100.733 103.997 100.8 104.164Z" fill="#755B37"/>
<path fill-rule="evenodd" clip-rule="evenodd" d="M101.15 105.564C100.783 106.297 100.117 106.997 99.15 107.664L98.75 107.914C99.2833 108.014 99.7667 107.914 100.2 107.614L100.8 106.814C100.533 107.78 99.8333 108.464 98.7 108.864C98.1333 109.13 97.5667 109.047 97 108.614H96.9L96.55 108.214C97.1833 108.28 98.0167 107.947 99.05 107.214C100.15 106.447 100.833 105.747 101.1 105.114L101.15 105.564Z" fill="#4F4A40"/>
<path fill-rule="evenodd" clip-rule="evenodd" d="M101 104.064L101.25 104.614C101.317 105.314 100.6 106.197 99.1 107.264L97.25 108.164L96.25 108.014L96.05 107.564C96.0167 107.33 96.2 106.964 96.6 106.464L98.25 104.964C99.7833 103.964 100.7 103.664 101 104.064Z" fill="#827765"/>
<path fill-rule="evenodd" clip-rule="evenodd" d="M101 104.014L101.1 104.414L100.55 105.514L98.95 106.864C97.6833 107.73 96.8 108.047 96.3 107.814L96.05 107.414L96.1 106.864C96.4 106.33 97.1 105.68 98.2 104.914C99.8 103.847 100.733 103.547 101 104.014Z" fill="#DECEAF"/>
<path fill-rule="evenodd" clip-rule="evenodd" d="M100.8 104.114L100.85 104.264C100.85 104.764 100.15 105.497 98.75 106.464C98.15 106.897 97.6 107.197 97.1 107.364C96.6 107.53 96.3 107.53 96.2 107.364L96.15 107.264C96.0167 106.597 96.1 105.897 96.4 105.164C96.6667 104.464 97.0833 103.914 97.65 103.514C98.25 103.114 98.85 102.98 99.45 103.114C100.017 103.214 100.467 103.547 100.8 104.114Z" fill="#B1A386"/>
<path fill-rule="evenodd" clip-rule="evenodd" d="M99.45 103.914C99.85 104.314 99.85 104.764 99.45 105.264L98.85 105.614L98.25 105.364C97.8833 104.93 97.8833 104.464 98.25 103.964C98.4167 103.764 98.6167 103.664 98.85 103.664C99.1167 103.63 99.3167 103.714 99.45 103.914Z" fill="#DECEAF"/>
<path fill-rule="evenodd" clip-rule="evenodd" d="M98.8 103.064L97.55 104.114L97.3 104.464L97 105.264C96.8333 106.097 97.0833 106.697 97.75 107.064L97.15 107.814L96.15 107.664L96.2 107.414L96.1 106.964L96.3 105.464L96.55 104.364L98.4 103.064L98.5 103.114L98.8 103.064Z" fill="#4F4A40"/>
<path fill-rule="evenodd" clip-rule="evenodd" d="M95.95 103.414L98.6 101.614L99.05 102.564L97.75 103.714C96.95 104.314 96.4833 104.547 96.35 104.414L95.95 103.414Z" fill="#958773"/>
<path fill-rule="evenodd" clip-rule="evenodd" d="M98.6 101.614L97.4 102.764C96.5 103.364 96.0167 103.58 95.95 103.414C95.8833 103.247 96.3 102.864 97.2 102.264C98.0667 101.664 98.5333 101.447 98.6 101.614Z" fill="#B1A386"/>
<path fill-rule="evenodd" clip-rule="evenodd" d="M97.35 102.764L97.6 102.814L97.85 103.164L97.6 103.864L97.2 104.064L96.9 103.564L97.35 102.764Z" fill="#4F4A40"/>
<path fill-rule="evenodd" clip-rule="evenodd" d="M97.55 103.764L97 104.264C96.2 105.097 95.9 106.314 96.1 107.914L95.4 107.714C94.9333 106.58 94.9 105.497 95.3 104.464L96 103.264V103.564L96.6 103.214L97.35 102.714C97.5167 102.78 97.6167 102.964 97.65 103.264L97.55 103.764Z" fill="#B1A386"/>
<path fill-rule="evenodd" clip-rule="evenodd" d="M97.35 102.714C97.55 102.68 97.6833 102.814 97.75 103.114L97.55 103.764L97 104.314C96.2333 105.147 95.9333 106.33 96.1 107.864C95.4667 106.23 95.6333 104.697 96.6 103.264L97.35 102.714Z" fill="#958773"/>
<path fill-rule="evenodd" clip-rule="evenodd" d="M97.4 103.414L97.3 103.714L97.05 103.664C96.9833 103.564 97.0167 103.447 97.15 103.314C97.3167 103.247 97.4 103.28 97.4 103.414Z" fill="#292929"/>
<path fill-rule="evenodd" clip-rule="evenodd" d="M97.4 103.364L97.3 103.664L97 103.614L97.15 103.264C97.25 103.197 97.3333 103.23 97.4 103.364Z" fill="#B1A386"/>
<path fill-rule="evenodd" clip-rule="evenodd" d="M99.7 103.364C100.167 103.13 100.35 102.78 100.25 102.314C100.117 101.88 99.8333 101.78 99.4 102.014L99 102.464L98.85 103.014C98.95 103.48 99.2333 103.597 99.7 103.364ZM99.4 101.564C99.6667 101.43 99.9167 101.43 100.15 101.564C100.417 101.664 100.567 101.847 100.6 102.114L100.45 103.014L99.8 103.714L99.05 103.764C98.8167 103.63 98.6667 103.43 98.6 103.164C98.5333 102.864 98.5667 102.564 98.7 102.264L99.4 101.564Z" fill="#958773"/>
<path fill-rule="evenodd" clip-rule="evenodd" d="M98.6 102.764L98.4 102.714V102.564L98.7 102.464L98.6 102.764Z" fill="#827765"/>
<path fill-rule="evenodd" clip-rule="evenodd" d="M98.6 102.514V102.614L98.4 102.564L98.6 102.514Z" fill="#B1A386"/>
<path fill-rule="evenodd" clip-rule="evenodd" d="M97.35 104.014L98.05 103.564L98.5 103.214L97.4 104.064L96.8 104.964C96.4 105.764 96.2833 106.597 96.45 107.464L96.2 107.364C96.1 107.03 96.1 106.597 96.2 106.064C96.2667 105.33 96.5833 104.697 97.15 104.164L97.35 104.014Z" fill="#4F4A40"/>
<path fill-rule="evenodd" clip-rule="evenodd" d="M48.1 91.3636L47.55 93.0636L48.4 95.1136L47.7 95.8136L48.5 98.6636L47.85 98.6136L48.75 103.764L47.05 99.3136L46.8 102.914L46.1 99.0136L45.3 100.164L45.2 97.5136L44 97.8636L44.4 94.8136L43.4 93.3636L44.25 92.0136L43.3 89.6636L44.05 89.5136L43.35 85.8136L44.55 87.8636L44.15 83.7636L45.25 87.2136L45.7 84.6636L46.3 88.3136L47.4 86.5136L47.2 90.5136L48.1 91.3636Z" fill="#4F4A40"/>
<path fill-rule="evenodd" clip-rule="evenodd" d="M39.25 80.2136L39.55 80.1636L40.5 81.3136L40.45 82.0636L40.9 81.5136L43.35 83.7636L44.6 88.6636L44.4 92.6136L43.6 95.0636L41.85 93.1136L41.6 93.5136L39.55 90.7136L39.4 91.1636L38.6 90.4136L38.1 89.4636L37.4 89.2136L36.9 88.3136V88.8636L36.3 88.8136L35.55 87.5636L33.65 74.4136L34.55 73.5136L35.6 75.1636L35.85 76.1636L36.5 76.4636L36.75 77.2636L37.4 77.2136L39.05 79.4136L39.25 80.2136Z" fill="#4F4A40"/>
<path fill-rule="evenodd" clip-rule="evenodd" d="M42.35 85.7136L42.85 86.2136L43 92.3136L42.35 91.8136L41.85 91.2136L42.5 91.7636L42.35 85.7136Z" fill="#827765"/>
<path fill-rule="evenodd" clip-rule="evenodd" d="M41.75 91.2136L41.35 90.6636L41.05 84.6636L41.6 85.1636L41.75 91.2136Z" fill="#827765"/>
<path fill-rule="evenodd" clip-rule="evenodd" d="M42.1 85.3136L43.05 86.2136L43.2 92.7136L42.25 91.9636V91.6636L43 92.3136L42.85 86.2136L42.05 85.4636L42.1 85.3136Z" fill="#958773"/>
<path fill-rule="evenodd" clip-rule="evenodd" d="M41.6 92.3636L41.15 91.8136L41.1 90.1636L41.55 90.7136L41.6 92.3636Z" fill="#856338"/>
<path fill-rule="evenodd" clip-rule="evenodd" d="M41.15 84.7636L40.7 84.3636L40.6 82.3136L41.05 82.4636L41.15 84.7636Z" fill="#827765"/>
<path fill-rule="evenodd" clip-rule="evenodd" d="M41.3 84.6636L41.25 82.8636L43.15 84.6636L43.65 86.4636L43.7 93.3636L43.35 93.9136L41.8 92.3636L41.75 91.1136L41.95 91.2636L41.75 85.1136L41.3 84.6636ZM42.1 85.3136L42.35 91.9636L43.2 92.7136L43.05 86.2136L42.1 85.3136Z" fill="#B1A386"/>
<path fill-rule="evenodd" clip-rule="evenodd" d="M41.3 84.6636L41.75 85.1136L41.95 91.2636L41.75 91.1136L41.8 92.3636L43.35 93.9136L43.25 94.0136L41.6 92.3636L41.55 90.7136L41.75 90.8636L41.6 85.1636L41.15 84.7636L41.05 82.4636L43.05 84.3636L43.15 84.6636L41.25 82.8636L41.3 84.6636Z" fill="#958773"/>
<path fill-rule="evenodd" clip-rule="evenodd" d="M40.25 89.6136L39.8 89.0636L41.05 90.0136L41.55 90.5636L40.25 89.6136Z" fill="#827765"/>
<path fill-rule="evenodd" clip-rule="evenodd" d="M40.3 89.9136L40.25 89.6136L41.55 90.5636L41.6 90.8636L40.3 89.9136Z" fill="#958773"/>
<path fill-rule="evenodd" clip-rule="evenodd" d="M38.95 80.4636L40.2 81.6136L39.4 80.9136L39.75 90.5136L39.3 89.7636L38.95 80.4636Z" fill="#827765"/>
<path fill-rule="evenodd" clip-rule="evenodd" d="M40.25 81.8636L40.3 89.9136L41.6 90.8636L41.65 92.3636L39.95 90.5136L39.6 81.3136L40.25 81.8636Z" fill="#B1A386"/>
<path fill-rule="evenodd" clip-rule="evenodd" d="M39.95 90.5136L41.65 92.3636L41.6 92.5136L39.75 90.5136L39.4 80.9136L40.2 81.6136L40.25 81.8636L39.6 81.3136L39.95 90.5136Z" fill="#958773"/>
<path fill-rule="evenodd" clip-rule="evenodd" d="M38.75 89.7136L38.3 89.1136L37.85 79.1636L38.3 79.3636L38.75 89.7136Z" fill="#827765"/>
<path fill-rule="evenodd" clip-rule="evenodd" d="M38.5 79.9636L38.95 89.6636L39.35 90.0136L39.3 90.1636L38.75 89.7136L38.3 79.3636L39.05 80.3136L39.25 80.8136L38.5 79.9636Z" fill="#958773"/>
<path fill-rule="evenodd" clip-rule="evenodd" d="M39.25 80.8136L39.35 90.0136L38.95 89.6636L38.5 79.9636L39.25 80.8136Z" fill="#B1A386"/>
<path fill-rule="evenodd" clip-rule="evenodd" d="M37.25 83.9136L36.8 83.4636L36.85 77.7136L37.35 78.1136L37.25 83.9136Z" fill="#827765"/>
<path fill-rule="evenodd" clip-rule="evenodd" d="M37.35 88.2636L36.95 87.7636L36.35 82.1636L36.75 82.9136L37.35 88.2636Z" fill="#827765"/>
<path fill-rule="evenodd" clip-rule="evenodd" d="M38.05 79.0636L38.1 79.2136L37.55 78.5136L37.4 85.2136L37.25 83.9136L37.35 78.1136L38.05 79.0636Z" fill="#958773"/>
<path fill-rule="evenodd" clip-rule="evenodd" d="M36.25 82.4636L35.85 82.0636L36.05 76.9136L36.6 77.3636L36.25 82.4636Z" fill="#827765"/>
<path fill-rule="evenodd" clip-rule="evenodd" d="M37.5 88.1636L37.9 88.5136L37.85 88.6136L37.35 88.2636L36.75 82.9136L36.8 81.8636L37.5 88.1636Z" fill="#958773"/>
<path fill-rule="evenodd" clip-rule="evenodd" d="M36.4 84.1136L36.25 82.4636L36.6 77.3636L36.7 77.5636L36.4 84.1136Z" fill="#958773"/>
<path fill-rule="evenodd" clip-rule="evenodd" d="M36.2 87.4636L35.75 86.9136L34.25 75.3636L34.7 74.8136L36.2 87.4636Z" fill="#827765"/>
<path fill-rule="evenodd" clip-rule="evenodd" d="M36.3 87.2636L36.8 87.7136L36.75 87.8636L36.2 87.4636L34.7 74.8136L35.65 76.2136L35.75 76.4636L34.9 75.3136L36.3 87.2636Z" fill="#958773"/>
<path fill-rule="evenodd" clip-rule="evenodd" d="M35.75 76.4636L36.4 83.6636L36.75 77.8136L37.4 85.2136L37.55 78.5136L38.1 79.2136L37.9 88.5136L37.5 88.1636L36.8 81.8636V87.7136L36.3 87.2636L34.9 75.3136L35.75 76.4636Z" fill="#B1A386"/>
<path fill-rule="evenodd" clip-rule="evenodd" d="M38.8 87.3136L38.45 79.8636L39.25 80.8136L38.6 80.2636L38.8 87.3136Z" fill="#DECEAF"/>
<path fill-rule="evenodd" clip-rule="evenodd" d="M39.8 86.0636L39.6 81.2636L40.25 81.8636L39.7 81.6136L39.8 86.0636Z" fill="#DECEAF"/>
<path fill-rule="evenodd" clip-rule="evenodd" d="M41.55 91.0636L40.3 89.9136L41.6 90.8636L41.65 92.3636L41.55 91.0636Z" fill="#DECEAF"/>
<path fill-rule="evenodd" clip-rule="evenodd" d="M50.1 91.6636L51.1 92.3636L51.5 93.3636V92.7636L52.3 93.2136L52.6 93.9636L52.75 93.7136L54.4 94.4636L54.75 95.3136L57 96.2136L58.2 99.5636L58 103.764L57.75 103.714L58.2 105.164L58.15 110.414L57.5 110.714L55.4 108.064L55.3 107.364L54.9 107.214L53.1 104.964L52.9 105.164L50.75 102.814L50.35 102.714L48.65 100.814L47.8 98.3636L47.35 91.5136L48.05 89.6136L49.75 90.8636L50.1 91.6636Z" fill="#4F4A40"/>
<path fill-rule="evenodd" clip-rule="evenodd" d="M49.85 94.1136L49.05 93.4636L49.3 99.2136L48.85 98.6636L48.65 92.8636L49.45 93.5136L49.85 94.1136Z" fill="#827765"/>
<path fill-rule="evenodd" clip-rule="evenodd" d="M49.45 93.5136L48.65 92.8636L48.85 98.6636H48.7L48.45 92.4636L49.4 93.2136L49.45 93.5136Z" fill="#958773"/>
<path fill-rule="evenodd" clip-rule="evenodd" d="M50.25 92.5136L50.5 93.5636L50.65 101.414L50.5 101.914L50.1 101.614L50.25 100.864L50.05 92.9636L49.85 91.9136L50.25 92.5136Z" fill="#827765"/>
<path fill-rule="evenodd" clip-rule="evenodd" d="M49.85 91.9136L50.05 92.9636L50.25 100.864L50.1 101.614L48.6 99.9636L48.55 99.6636L49.9 101.064L50.1 100.614L49.9 92.8136L49.7 91.9136L48.15 90.6636L48.2 90.5636L49.85 91.9136Z" fill="#958773"/>
<path fill-rule="evenodd" clip-rule="evenodd" d="M48.15 90.6636L49.7 91.9136L49.9 92.8136L50.1 100.614L49.9 101.064L48.55 99.6636L48.3 98.8136L48 91.2636L48.15 90.6636ZM48.45 92.4636L48.7 98.6636L49.6 99.4636L49.4 93.2136L48.45 92.4636Z" fill="#B1A386"/>
<path fill-rule="evenodd" clip-rule="evenodd" d="M51.1 96.6136L51.5 97.1636L51.7 103.164L51.3 102.864L51.1 96.6136Z" fill="#827765"/>
<path fill-rule="evenodd" clip-rule="evenodd" d="M50.95 92.8636L51.35 93.4636L52.45 100.614L52.05 100.064L50.95 92.8636Z" fill="#827765"/>
<path fill-rule="evenodd" clip-rule="evenodd" d="M51.1 96.6136L51.3 102.864L50.75 102.114L50.7 101.864L51.1 102.314L50.85 95.3136L51.1 96.6136Z" fill="#958773"/>
<path fill-rule="evenodd" clip-rule="evenodd" d="M52.4 94.1136L52.8 94.7136L53.05 104.414L52.65 104.064L52.4 94.1136Z" fill="#827765"/>
<path fill-rule="evenodd" clip-rule="evenodd" d="M52.05 100.064L52.1 101.314L50.8 92.9136L50.35 92.5636V92.4136L50.95 92.8636L52.05 100.064Z" fill="#958773"/>
<path fill-rule="evenodd" clip-rule="evenodd" d="M52.2 94.1136L52.45 103.664L52 103.214L50.85 95.3136L51.1 102.314L50.7 101.864L50.35 92.5636L50.8 92.9136L52.1 101.314L51.65 93.6136L52.2 94.1136Z" fill="#B1A386"/>
<path fill-rule="evenodd" clip-rule="evenodd" d="M51.75 93.5636L52.4 94.1136L52.65 104.064L52.05 103.464L52 103.214L52.45 103.664L52.2 94.1136L51.65 93.6136L51.75 93.5636Z" fill="#958773"/>
<path fill-rule="evenodd" clip-rule="evenodd" d="M55.05 96.6636L55.1 98.6136L53.8 97.5136L53.85 99.4636L53.5 98.9136L53.4 96.9636L54.7 98.0636L54.65 96.1136L55.05 96.6636Z" fill="#827765"/>
<path fill-rule="evenodd" clip-rule="evenodd" d="M54.6 99.9136L55 100.414L54.95 102.264L54 101.314L54.05 103.664L53.65 103.164L53.6 100.814L54.65 101.864L54.6 99.9136Z" fill="#827765"/>
<path fill-rule="evenodd" clip-rule="evenodd" d="M54.7 103.964L55.1 104.514L55.15 106.464L54.8 106.214L54.7 103.964Z" fill="#827765"/>
<path fill-rule="evenodd" clip-rule="evenodd" d="M52.75 94.6136L52.85 94.5636L54.65 96.1136H54.5L52.75 94.6136Z" fill="#958773"/>
<path fill-rule="evenodd" clip-rule="evenodd" d="M54.5 96.1136L54.55 97.6636L53.25 96.5636L53.35 98.9136L54.45 99.9136V101.464L53.4 100.414L53.5 103.164L54.65 104.114L54.7 105.914L53.15 104.214L52.75 94.6136L54.5 96.1136Z" fill="#B1A386"/>
<path fill-rule="evenodd" clip-rule="evenodd" d="M54.5 96.1136H54.65L54.7 98.0636L53.4 96.9636L53.5 98.9136L54.6 99.9136L54.65 101.864L53.6 100.814L53.65 103.164L54.7 103.964L54.8 106.214L53.15 104.464V104.214L54.7 105.914L54.65 104.114L53.5 103.164L53.4 100.414L54.45 101.464V99.9136L53.35 98.9136L53.25 96.5636L54.55 97.6636L54.5 96.1136Z" fill="#958773"/>
<path fill-rule="evenodd" clip-rule="evenodd" d="M55.7 102.964L56.05 103.464L56.2 106.214L55.85 105.764L55.7 102.964Z" fill="#827765"/>
<path fill-rule="evenodd" clip-rule="evenodd" d="M55.7 102.964L55.85 105.764L55.7 105.814L55.55 102.964L55.15 102.564H55.35L55.7 102.964Z" fill="#958773"/>
<path fill-rule="evenodd" clip-rule="evenodd" d="M57.6 102.614L56.7 101.464L57.25 102.114V98.6136L56.85 97.3636L57.2 97.9136L57.7 99.3136L57.6 102.614Z" fill="#827765"/>
<path fill-rule="evenodd" clip-rule="evenodd" d="M56.05 100.514L57.8 104.714L57.85 109.314L57.5 109.064L57.35 104.014L55.65 100.014L55.6 98.3636L56.6 99.2136L56.95 99.7636L56 98.9136L56.05 100.514Z" fill="#827765"/>
<path fill-rule="evenodd" clip-rule="evenodd" d="M55.7 105.814L55.85 105.764L56.8 106.614V106.764L55.7 105.814Z" fill="#958773"/>
<path fill-rule="evenodd" clip-rule="evenodd" d="M56.85 97.3636L57.25 98.6136V102.114L56.7 101.464L56.65 101.214L57.1 101.714V98.5136L56.75 97.4136L54.95 96.1636V96.0636L56.85 97.3636Z" fill="#958773"/>
<path fill-rule="evenodd" clip-rule="evenodd" d="M55.65 100.014L57.45 104.164L57.5 109.064L55.45 106.964L55.35 106.564L57.3 108.664L57.2 103.964L55.5 99.9136L55.45 97.9636L56.6 98.9636V99.2136L55.6 98.3636L55.65 100.014Z" fill="#958773"/>
<path fill-rule="evenodd" clip-rule="evenodd" d="M56.75 97.4136L57.1 98.5136V101.714L56.65 101.214L56.6 98.9636L55.45 97.9636L55.5 99.9136L57.2 103.964L57.3 108.664L55.35 106.564L55.15 102.564L55.55 102.964L55.7 105.814L56.8 106.764L56.7 104.314L55.1 100.214L54.95 96.1636L56.75 97.4136Z" fill="#B1A386"/>
<path fill-rule="evenodd" clip-rule="evenodd" d="M52.75 94.6136L54.55 96.1136V97.6637L54.4 96.2636L52.75 94.6136Z" fill="#DECEAF"/>
<path fill-rule="evenodd" clip-rule="evenodd" d="M53.5 103.164L54.65 104.114L54.7 105.914L54.55 104.314L53.5 103.164Z" fill="#DECEAF"/>
<path fill-rule="evenodd" clip-rule="evenodd" d="M51.65 93.6136L52.25 94.1136L52.4 101.364L52.1 94.3636L51.65 93.6136Z" fill="#DECEAF"/>
<path fill-rule="evenodd" clip-rule="evenodd" d="M47.9 91.6636L47.25 93.1136L48.1 95.0136L47.35 95.3136L48.2 98.0136L47.45 97.5636L48.15 101.714L46.85 98.3136L46.7 101.014L46.1 98.1136L45.45 99.1136L45.35 96.8136L44.4 97.1636L44.7 94.5136L43.8 93.3136L44.55 92.3136L43.65 90.1136L44.45 90.2636L43.8 87.3136L44.85 89.1136L44.45 85.2636L45.4 88.4136L45.75 86.3636L46.25 89.3636L47.1 87.8636L46.95 91.0636L47.9 91.6636Z" fill="#B1A386"/>
<path fill-rule="evenodd" clip-rule="evenodd" d="M47.45 91.8136L46.9 93.0136L47.75 94.6636L47 94.9136L47.8 97.3636L47.2 96.9136L47.7 100.014L46.7 97.4136L46.6 99.2136L46.1 96.8136L45.6 98.1136L45.55 96.0136L44.75 96.4636L45.1 94.5136L44.35 93.5136L44.9 92.5636L44.1 90.7636L44.75 90.8636L44.2 88.3136L45.15 90.2136L44.9 87.5636L45.5 89.5636L45.75 87.8636L46.2 90.2636L46.8 89.1636L46.65 91.4136L47.45 91.8136Z" fill="#DECEAF"/>
<path fill-rule="evenodd" clip-rule="evenodd" d="M46.95 91.6636L46.85 92.8636L46.9 93.0636L47.1 93.4636L47.3 94.6136V94.6636L47.25 95.1136C47.3167 95.9136 47.25 96.597 47.05 97.1636L47.1 97.5636L46.85 97.9636L46.45 97.8636L46.3 97.7636L46.15 97.5636V97.5136L46.1 97.2636C45.7 96.797 45.4167 96.047 45.25 95.0136L45.15 94.8636L45.1 94.5636L44.75 93.8636V93.8136L44.55 92.3636C44.45 91.597 44.45 90.9136 44.55 90.3136L44.7 89.6136C44.8333 89.3136 45.0667 89.1636 45.4 89.1636L45.9 89.3636L46.05 89.6136V89.6636L46.1 89.9136L46.3 89.9636L46.35 90.0136C46.65 90.3136 46.85 90.8636 46.95 91.6636Z" fill="#4F4A40"/>
<path fill-rule="evenodd" clip-rule="evenodd" d="M46.05 96.3636H46.85L46.95 97.2137L46.65 97.5637L46.25 97.2636L46.05 96.3636Z" fill="#4F4A40"/>
<path fill-rule="evenodd" clip-rule="evenodd" d="M47 94.1136L47.05 96.2636C46.9833 96.8636 46.8167 97.1803 46.55 97.2137C46.3167 97.2137 46.0667 96.9137 45.8 96.3137L45.2 94.1637C45.0667 93.3303 45.05 92.6136 45.15 92.0136C45.25 91.4136 45.4167 91.1136 45.65 91.1136C45.9167 91.1136 46.1667 91.4136 46.4 92.0136L47 94.1136Z" fill="#958773"/>
<path fill-rule="evenodd" clip-rule="evenodd" d="M46.5 96.9636C46.7667 96.9636 46.95 96.747 47.05 96.3136C46.9833 96.9136 46.8167 97.2136 46.55 97.2136C46.3167 97.2136 46.0667 96.9136 45.8 96.3136C46 96.747 46.2333 96.9636 46.5 96.9636Z" fill="#B1A386"/>
<path fill-rule="evenodd" clip-rule="evenodd" d="M45.15 94.0637C45.1167 93.7303 45.1667 93.447 45.3 93.2137C45.4667 92.9803 45.6667 92.8636 45.9 92.8636C46.1667 92.8636 46.4167 92.9803 46.65 93.2137L47.05 94.0136L47.1 94.3636C47.1667 94.697 47.1167 94.9803 46.95 95.2137C46.7833 95.447 46.5667 95.5637 46.3 95.5637C46.0333 95.5637 45.8 95.447 45.6 95.2137L45.2 94.4137L45.15 94.0637Z" fill="#A1A044"/>
<path fill-rule="evenodd" clip-rule="evenodd" d="M45.1 93.8137C45.0667 93.5137 45.1167 93.2637 45.25 93.0637C45.4167 92.8303 45.6333 92.7137 45.9 92.7137C46.1667 92.7137 46.4 92.8136 46.6 93.0136L47 93.7636L47.05 94.1136L46.9 94.9137C46.7333 95.1137 46.5167 95.2137 46.25 95.2137L45.55 94.9137L45.15 94.1637L45.1 93.8137Z" fill="#A1A044"/>
<path fill-rule="evenodd" clip-rule="evenodd" d="M46.95 93.7636C47.0167 94.297 46.75 94.5637 46.15 94.5637C45.5833 94.5637 45.25 94.3137 45.15 93.8137C45.0833 93.3137 45.3333 93.0303 45.9 92.9637C46.4667 92.9637 46.8167 93.2303 46.95 93.7636Z" fill="#755B37"/>
<path fill-rule="evenodd" clip-rule="evenodd" d="M45.5 95.4136L45.3 94.8136C45.6 95.2803 45.9333 95.5136 46.3 95.5136C46.7333 95.5136 47 95.2803 47.1 94.8136V95.2636C47 95.7303 46.75 95.9636 46.35 95.9636H46.2L46.8 96.6136L47 96.2636C46.9333 96.9636 46.6667 97.147 46.2 96.8136C46 96.7136 45.7833 96.2803 45.55 95.5136L45.5 95.4136Z" fill="#4F4A40"/>
<path fill-rule="evenodd" clip-rule="evenodd" d="M47 93.7636L47.15 94.4637C47.1833 95.1637 46.9 95.5303 46.3 95.5637C46.0333 95.5637 45.8 95.447 45.6 95.2137L45.2 94.4137L45.1 93.9137C45.0667 93.647 45.1333 93.4137 45.3 93.2137C45.4667 92.9803 45.6667 92.8636 45.9 92.8636C46.5 92.8636 46.8667 93.1636 47 93.7636Z" fill="#827765"/>
<path fill-rule="evenodd" clip-rule="evenodd" d="M47 93.7136L47.05 94.1136C47.05 94.747 46.7833 95.0636 46.25 95.0636C45.7833 95.097 45.4333 94.847 45.2 94.3136L45.1 93.7636V93.2636C45.2 92.9636 45.4667 92.8136 45.9 92.8136C46.5333 92.747 46.9 93.047 47 93.7136Z" fill="#DECEAF"/>
<path fill-rule="evenodd" clip-rule="evenodd" d="M46.9 93.6637L46.95 93.8636C46.95 94.297 46.6833 94.547 46.15 94.6136C45.5833 94.6136 45.25 94.347 45.15 93.8137V93.7137C44.9833 92.047 45.15 91.1803 45.65 91.1136C45.8833 91.1136 46.1167 91.3636 46.35 91.8636L46.9 93.6637Z" fill="#B1A386"/>
<path fill-rule="evenodd" clip-rule="evenodd" d="M46.35 92.6136L46.4 93.9136C46.2667 94.147 46.1 93.9136 45.9 93.2136C45.7667 92.5136 45.7667 92.0803 45.9 91.9136L46.15 92.0136L46.35 92.6136Z" fill="#DECEAF"/>
<path fill-rule="evenodd" clip-rule="evenodd" d="M46.1 91.4136C45.9667 91.6136 45.8 91.6803 45.6 91.6136L45.4 92.3136C45.4 93.147 45.5333 93.8803 45.8 94.5136L45.55 94.8136L45.15 94.0636V93.8636L45.1 93.3636L45.2 91.2136L45.9 91.1636L45.95 91.2636L46.1 91.4136Z" fill="#4F4A40"/>
<path fill-rule="evenodd" clip-rule="evenodd" d="M44.95 89.9136H45.95L46.15 91.1136L45.7 91.3636C45.3333 91.4303 45.15 91.347 45.15 91.1136L44.95 89.9136Z" fill="#958773"/>
<path fill-rule="evenodd" clip-rule="evenodd" d="M45.95 89.9137L45.5 90.2137C45.1333 90.2137 44.95 90.1137 44.95 89.9137C44.9167 89.7803 45.0667 89.6803 45.4 89.6136C45.7667 89.6136 45.95 89.7137 45.95 89.9137Z" fill="#B1A386"/>
<path fill-rule="evenodd" clip-rule="evenodd" d="M45.5 90.2137L45.7 90.9137L45.6 91.4137L45.45 91.3137L45.3 90.6637L45.45 90.3636L45.5 90.2137Z" fill="#4F4A40"/>
<path fill-rule="evenodd" clip-rule="evenodd" d="M45.65 90.8636L45.6 91.2636L45.4 91.4136C45.2 91.5803 45.1 92.1136 45.1 93.0136L45.15 94.2636L44.85 93.6636C44.6167 92.297 44.5667 91.247 44.7 90.5136L44.95 89.8136V90.0636L45.05 90.2136L45.2 90.1136L45.5 90.1636L45.65 90.8636Z" fill="#B1A386"/>
<path fill-rule="evenodd" clip-rule="evenodd" d="M45.5 90.1636L45.65 90.7636L45.6 91.3136L45.4 91.4636C45.2 91.6303 45.1 92.147 45.1 93.0136L45.15 94.2136C44.85 92.2136 44.8667 90.8803 45.2 90.2136L45.5 90.1636Z" fill="#958773"/>
<path fill-rule="evenodd" clip-rule="evenodd" d="M45.5 90.7636V91.0136L45.35 90.8136L45.4 90.5636L45.5 90.7636Z" fill="#B1A386"/>
<path fill-rule="evenodd" clip-rule="evenodd" d="M46.25 90.3636C46.4833 90.4636 46.6667 90.897 46.8 91.6636C46.8667 92.4303 46.7667 92.7636 46.5 92.6636C46.2333 92.5303 46.0667 92.097 46 91.3636C45.9333 90.597 46.0167 90.2636 46.25 90.3636ZM46.45 92.2636C46.65 92.397 46.7167 92.197 46.65 91.6636L46.3 90.8136C46.1 90.6803 46.0333 90.8803 46.1 91.4136C46.1667 91.9136 46.2833 92.197 46.45 92.2636Z" fill="#958773"/>
<path fill-rule="evenodd" clip-rule="evenodd" d="M45.15 92.0636C45.2167 91.7303 45.3167 91.5136 45.45 91.4136L45.5 91.3636L46 91.3136L45.55 91.4636L45.35 91.9136C45.2167 92.4136 45.1833 93.1303 45.25 94.0636L45.15 93.8136C45.0833 93.447 45.0667 93.0303 45.1 92.5636L45.15 92.0636Z" fill="#4F4A40"/>
<path fill-rule="evenodd" clip-rule="evenodd" d="M76.7 127.664L75.7 134.464L70.5 135.814L71.4 127.914L71.75 128.964L72.4 127.814L72.75 128.914L74 127.414L73.95 128.664L74.6 127.664L74.95 128.814L75.9 127.564L75.95 128.314L76.7 127.664Z" fill="#E3D9C5"/>
<path fill-rule="evenodd" clip-rule="evenodd" d="M125.25 80.0136L124.3 81.1136L124.85 73.2636L132.2 71.6136L131.5 78.5636L130.4 78.1636L129.9 78.9636L129.6 78.3636L129.05 79.3636L128.65 78.5136L127.6 80.1636L127.15 79.3636L125.8 80.7136L125.25 80.0136Z" fill="#E3D9C5"/>
<path fill-rule="evenodd" clip-rule="evenodd" d="M67.75 92.3636L67.8 93.4136L68.1 93.3136L68.05 91.9636L66.95 92.2636C66.6167 92.3303 66.4833 92.5303 66.55 92.8636C66.55 93.1303 66.7 93.2303 67 93.1636L67.55 93.0136V92.7136L67 92.8636L66.85 92.7636L66.95 92.5636L67.75 92.3636ZM69.45 91.5136L68.35 91.8636L68.45 93.2136L68.75 93.1636L68.7 92.0636L69.5 91.8636L69.65 91.9636L69.5 92.1136L68.95 92.2636V92.6136L69.5 92.4136C69.8 92.347 69.95 92.1636 69.95 91.8636C69.8833 91.5636 69.7167 91.447 69.45 91.5136ZM67.75 91.4636C67.5167 91.5303 67.4 91.4636 67.4 91.2636V91.2136L66.9 91.3636L67.2 91.9136L69.2 91.3136L69.45 90.6136L68.95 90.7636V90.8136C68.95 91.0136 68.85 91.147 68.65 91.2136C68.4167 91.2803 68.3 91.2136 68.3 91.0136C68.3 90.8136 68.4 90.6803 68.6 90.6136L68.15 90.2636L67.7 90.8636C67.9333 90.797 68.05 90.8636 68.05 91.0636L67.75 91.4636ZM67.15 90.0636L67.4 89.7136H67.75L68.05 89.3636L68.4 89.5136L68.75 89.3136L69 89.5136L69.4 89.3636C69.4 89.5303 69.45 89.6303 69.55 89.6636H69.95L70 90.0136L70.35 90.1136V90.5136L70.6 90.6636L70.5 91.0636L70.7 91.3636L70.5 91.7636C70.4333 91.897 70.4667 91.997 70.6 92.0636L70.3 92.4136L70.35 92.8136L70 93.0636L69.9 93.4636C69.7667 93.4303 69.6333 93.4803 69.5 93.6136C69.4 93.7136 69.35 93.8303 69.35 93.9636L68.95 94.0136L68.7 94.3636L68.35 94.3136L68 94.5636C67.9667 94.4636 67.8667 94.4136 67.7 94.4136L67.35 94.6136L67.15 94.3136L66.75 94.4136L66.6 94.0636H66.25V93.6636C66.15 93.5636 66.0333 93.5136 65.9 93.5136L66 93.1136L65.75 92.9136L65.9 92.5136L65.75 92.2136L66 91.8636L65.95 91.4636L66.25 91.1636L66.3 90.7636L66.65 90.5636L66.8 90.1636L67.15 90.0636Z" fill="#4F4A40"/>
<path fill-rule="evenodd" clip-rule="evenodd" d="M71.95 91.3636L72 92.2636L71.35 92.4636L71.25 89.7636L72.1 89.5136C72.9 89.2803 73.3167 89.447 73.35 90.0136V90.0636C73.3833 90.6636 73.0167 91.0636 72.25 91.2636L71.95 91.3636ZM72.7 90.2136C72.7 89.9803 72.5167 89.9136 72.15 90.0136L71.9 90.0636L71.95 90.8636L72.2 90.7636C72.5667 90.6636 72.7333 90.4803 72.7 90.2136Z" fill="#4F4A40"/>
<path fill-rule="evenodd" clip-rule="evenodd" d="M73.65 91.8136L73.55 88.9636L74.15 88.8136L74.25 91.6136L73.65 91.8136Z" fill="#4F4A40"/>
<path fill-rule="evenodd" clip-rule="evenodd" d="M76.3 91.0136L75.75 91.1636L75.7 91.0636L75.1 91.4136C74.7 91.5136 74.5 91.3803 74.5 91.0136V90.9136C74.4667 90.547 74.7833 90.247 75.45 90.0136L75.6 89.9636V89.8636C75.6 89.6636 75.4833 89.597 75.25 89.6636L74.6 89.9136V89.5136C74.7333 89.3803 74.9833 89.2636 75.35 89.1636C75.9167 88.997 76.2167 89.1636 76.25 89.6636L76.3 91.0136ZM75.45 90.3636C75.1833 90.4303 75.05 90.547 75.05 90.7136V90.8136L75.3 90.9636L75.7 90.7636L75.65 90.3136L75.45 90.3636Z" fill="#4F4A40"/>
<path fill-rule="evenodd" clip-rule="evenodd" d="M78.35 88.3636L77.8 90.6136C77.6667 91.147 77.4 91.4803 77 91.6136L76.45 91.7136L76.4 91.3136L76.8 91.2136L77.05 90.9136L77.1 90.7636L76.25 88.9636L76.9 88.7636L77.4 90.2136L77.75 88.5136L78.35 88.3636Z" fill="#4F4A40"/>
<path fill-rule="evenodd" clip-rule="evenodd" d="M80.2 87.0636L80.35 89.8636L79.75 90.0136V89.9136L79.2 90.2136C78.7 90.3803 78.4333 90.147 78.4 89.5136V89.2636C78.3667 88.597 78.65 88.1803 79.25 88.0136L79.65 87.9636L79.6 87.2136L80.2 87.0636ZM79 89.0636V89.3136C79.0333 89.6136 79.1667 89.747 79.4 89.7136L79.7 89.5136L79.65 88.4136L79.35 88.4636C79.1167 88.5636 79 88.7636 79 89.0636Z" fill="#4F4A40"/>
<path fill-rule="evenodd" clip-rule="evenodd" d="M82.5 88.3136C82.5 88.947 82.1833 89.3636 81.55 89.5636C80.9167 89.7303 80.5833 89.497 80.55 88.8636V88.6136C80.5167 88.0136 80.8167 87.597 81.45 87.3636C82.1167 87.197 82.45 87.4303 82.45 88.0636L82.5 88.3136ZM81.15 88.6636C81.1833 89.0303 81.3167 89.1636 81.55 89.0636C81.7833 89.0303 81.8833 88.8303 81.85 88.4636V88.2636C81.85 87.9636 81.7333 87.8303 81.5 87.8636C81.2667 87.897 81.15 88.097 81.15 88.4636V88.6636Z" fill="#4F4A40"/>
<path fill-rule="evenodd" clip-rule="evenodd" d="M85.65 86.9136L85.7 88.2636L85.1 88.4636L85 87.1136C85 86.9136 84.9333 86.8303 84.8 86.8636L84.45 87.0636L84.5 87.2636L84.55 88.6136L83.95 88.8136L83.9 87.4636L83.65 87.2136L83.35 87.4136L83.4 88.9636L82.8 89.1136L82.7 87.0636L83.25 86.9136L83.3 87.0636L83.85 86.6636L84.35 86.7636C84.55 86.5636 84.7667 86.4303 85 86.3636C85.3667 86.2636 85.5833 86.447 85.65 86.9136Z" fill="#4F4A40"/>
<path fill-rule="evenodd" clip-rule="evenodd" d="M78.4 90.9136L78.5 91.2136L78.55 90.9636L78.75 90.9136L78.8 91.1636V91.2636L78.85 91.1136V90.7636L79 90.7136L78.95 91.3636L78.75 91.4136L78.65 91.1636L78.6 91.4636L78.4 91.5136L78.25 90.9636L78.4 90.9136Z" fill="#4F4A40"/>
<path fill-rule="evenodd" clip-rule="evenodd" d="M79.2 90.6136L79.25 90.8136L79.35 90.7636C79.4833 90.7303 79.55 90.7803 79.55 90.9136V91.2136H79.4V90.9636L79.35 90.8636L79.25 90.9136V91.2636L79.1 91.3136V90.6636L79.2 90.6136Z" fill="#4F4A40"/>
<path fill-rule="evenodd" clip-rule="evenodd" d="M79.6 90.9136L79.85 90.6136L80.05 90.8136V90.8636L79.75 90.9136V90.9636L79.85 91.0136L80.05 90.9636V91.0636L79.85 91.1136C79.6833 91.1803 79.6 91.1303 79.6 90.9636V90.9136Z" fill="#4F4A40"/>
<path fill-rule="evenodd" clip-rule="evenodd" d="M80.25 90.6136L80.3 90.9636L80.15 91.0136L80.1 90.5636L80.25 90.5136V90.5636L80.4 90.4636V90.5636L80.25 90.6136Z" fill="#4F4A40"/>
<path fill-rule="evenodd" clip-rule="evenodd" d="M80.9 90.6136L80.6 90.7136C80.6 90.7803 80.6333 90.797 80.7 90.7636L80.85 90.7136V90.8136L80.7 90.8636L80.45 90.7136V90.6636L80.65 90.3636L80.9 90.5636V90.6136ZM80.75 90.5636L80.65 90.4636C80.5833 90.5303 80.5667 90.5803 80.6 90.6136L80.75 90.5636Z" fill="#4F4A40"/>
<path fill-rule="evenodd" clip-rule="evenodd" d="M81.25 90.2636L81.35 90.1636L81.55 90.3636V90.4136L81.35 90.6636L81.25 90.7136V90.8636L81.1 90.9136V90.2636L81.25 90.2136V90.2636ZM81.25 90.6136L81.3 90.5636L81.4 90.4136L81.3 90.3136L81.25 90.3636V90.6136Z" fill="#4F4A40"/>
<path fill-rule="evenodd" clip-rule="evenodd" d="M81.65 90.6136L81.6 89.9636L81.75 89.9136V90.5636L81.65 90.6136Z" fill="#4F4A40"/>
<path fill-rule="evenodd" clip-rule="evenodd" d="M82.25 90.4136L82.15 90.4636V90.4136L82 90.5136L81.85 90.4136V90.3636L82.05 90.1636H82.1L82 90.1136L81.85 90.1636V90.0636L82.05 89.9636C82.1833 89.9303 82.25 89.9803 82.25 90.1136V90.4136Z" fill="#4F4A40"/>
<path fill-rule="evenodd" clip-rule="evenodd" d="M82.75 89.7636L82.6 90.3136L82.45 90.5136L82.3 90.5636V90.4636H82.4L82.45 90.3636L82.25 89.9136L82.4 89.8636L82.55 90.2136V90.0636L82.6 89.8136L82.75 89.7636Z" fill="#4F4A40"/>
<path fill-rule="evenodd" clip-rule="evenodd" d="M83.25 89.9136L82.9 90.0136L83.05 90.0636L83.2 90.0136V90.1136L83.05 90.2136L82.8 90.0136L83 89.7136L83.25 89.8636V89.9136Z" fill="#4F4A40"/>
<path fill-rule="evenodd" clip-rule="evenodd" d="M83.45 89.7136V90.0636L83.3 90.1136V89.6136L83.4 89.5636V89.6136L83.55 89.5136L83.6 89.6636L83.45 89.7136Z" fill="#4F4A40"/>
<path fill-rule="evenodd" clip-rule="evenodd" d="M83.95 89.4136V89.5136L83.8 89.5636L83.75 89.6136L83.8 89.6636H83.85C83.95 89.6636 84 89.697 84 89.7636L83.8 89.9636L83.65 90.0136V89.9136L83.8 89.8636L83.85 89.8136L83.8 89.7636H83.75L83.6 89.6636L83.8 89.4636L83.95 89.4136Z" fill="#4F4A40"/>
<path fill-rule="evenodd" clip-rule="evenodd" d="M84.35 89.4636V89.8136H84.2V89.3636L84.35 89.3136V89.3636L84.5 89.2636V89.3636L84.35 89.4636Z" fill="#4F4A40"/>
<path fill-rule="evenodd" clip-rule="evenodd" d="M84.85 89.6636V89.6136L84.7 89.7136L84.55 89.5636V89.2636L84.7 89.2136V89.5136L84.75 89.5636L84.85 89.5136V89.1636L84.95 89.1136L85 89.6136L84.85 89.6636Z" fill="#4F4A40"/>
<path fill-rule="evenodd" clip-rule="evenodd" d="M85.1 89.5636L85.05 88.9136H85.2L85.25 89.5636H85.1Z" fill="#4F4A40"/>
<path fill-rule="evenodd" clip-rule="evenodd" d="M85.45 89.2636L85.55 89.3636L85.75 89.3136V89.4136L85.55 89.4636C85.3833 89.5303 85.3 89.4803 85.3 89.3136V89.2636L85.5 88.9636C85.6667 88.9303 85.75 88.997 85.75 89.1636V89.2136L85.45 89.2636Z" fill="#4F4A40"/>
<path fill-rule="evenodd" clip-rule="evenodd" d="M110.6 102.164L117.1 100.164C117.9 101.997 118.683 106.33 119.45 113.164L119.2 115.164L118.55 113.564L117.65 114.914L117.05 114.064L116 116.214L114.9 114.164L114 116.214L113.35 115.164L112.75 115.814L112.85 113.764L112.75 112.664C112.817 111.064 112.1 107.564 110.6 102.164Z" fill="#E3D9C5"/>
<path fill-rule="evenodd" clip-rule="evenodd" d="M149.75 74.2636C150.283 74.697 150.45 75.0136 150.25 75.2136L149.8 75.3636L135.2 70.9136L92.6 46.3636L111.2 51.6636C136.033 66.0636 148.883 73.597 149.75 74.2636Z" fill="#C1B69B"/>
<path fill-rule="evenodd" clip-rule="evenodd" d="M132.95 71.8636L129.2 103.864C129.2 104.197 128.9 104.497 128.3 104.764L67.45 120.464C67.0167 120.53 66.6833 120.147 66.45 119.314L62.65 87.7636L132.95 71.8636Z" fill="#958773"/>
<path fill-rule="evenodd" clip-rule="evenodd" d="M135.2 70.9136L144.55 93.6136C144.783 94.2803 144.567 94.8303 143.9 95.2636L77.4 113.564C77.0333 113.664 76.6667 113.58 76.3 113.314L75.85 112.914L63.9 88.8136L62.85 88.0636L62.25 87.8636L135.2 70.9136Z" fill="#C1B69B"/>
<path fill-rule="evenodd" clip-rule="evenodd" d="M62 88.0136L65 119.564C65.0667 120.164 64.95 120.464 64.65 120.464L43.1 98.4136L62 88.0136Z" fill="#958773"/>
<path fill-rule="evenodd" clip-rule="evenodd" d="M28.2 53.8136L62.25 87.8636L35.35 109.064L33.65 108.964L5.3 74.6136C5.06667 74.2803 5.1 73.947 5.4 73.6136L28.2 53.8136Z" fill="#9E9079"/>
<path fill-rule="evenodd" clip-rule="evenodd" d="M91.45 80.1636L110.3 75.6136L112.5 79.5636C113.067 81.597 112.3 83.5303 110.2 85.3636L106.85 87.4636C103.117 88.897 99.75 89.2803 96.75 88.6136C95.25 88.2803 94.1333 87.8136 93.4 87.2136C91.8333 86.0136 91.0833 84.597 91.15 82.9636L91.7 80.8136L91.45 80.1636Z" fill="#958773"/>
<path fill-rule="evenodd" clip-rule="evenodd" d="M118.1 74.0136L132.5 70.1636L136.65 74.6136C136.25 78.2136 133.717 80.197 129.05 80.5636L122.15 80.0136C120.35 79.4136 119.167 78.347 118.6 76.8136C118.333 76.047 118.233 75.347 118.3 74.7136L118.1 74.0136Z" fill="#958773"/>
<path fill-rule="evenodd" clip-rule="evenodd" d="M86.05 67.6136C84.35 68.5803 82.1333 68.9136 79.4 68.6136L75.75 67.9136C73.25 67.0803 71.8167 65.7803 71.45 64.0136C71.0833 62.8803 71.05 61.6803 71.35 60.4136C71.95 57.8803 73.8833 56.2303 77.15 55.4636L79.95 55.1136C82.2167 55.1803 84.3 55.9803 86.2 57.5136L88.15 60.0136C89.1833 62.0803 89.05 64.097 87.75 66.0636C87.45 66.597 86.8833 67.1136 86.05 67.6136Z" fill="#85D3EA"/>
<path fill-rule="evenodd" clip-rule="evenodd" d="M86.2 57.5136L88.15 60.0136C89.1833 62.0803 89.05 64.097 87.75 66.0636C87.45 66.597 86.8833 67.1136 86.05 67.6136C84.35 68.5803 82.1333 68.9136 79.4 68.6136L75.75 67.9136C73.25 67.0803 71.8167 65.7803 71.45 64.0136C71.15 63.0803 71.0833 62.047 71.25 60.9136C71.5833 58.647 72.9333 57.0303 75.3 56.0636C73.6667 56.997 72.75 58.397 72.55 60.2636C72.45 61.197 72.5167 62.0303 72.75 62.7636C73.05 64.297 74.2833 65.4303 76.45 66.1636L79.65 66.8136C82.0167 67.0803 83.9167 66.7803 85.35 65.9136C86.0833 65.4803 86.5667 65.0303 86.8 64.5636C87.9 62.897 88.05 61.1803 87.25 59.4136C86.8167 58.4136 86.2333 57.597 85.5 56.9636L86.2 57.5136Z" fill="#77BBCF"/>
<path fill-rule="evenodd" clip-rule="evenodd" d="M82.6 68.6636L84.1 67.2636C85.0333 65.997 85.3 64.547 84.9 62.9136L85.8 64.4636C86.2 65.7636 85.85 67.0303 84.75 68.2636L82.6 68.6636Z" fill="#639CAD"/>
<path fill-rule="evenodd" clip-rule="evenodd" d="M80.45 68.7636L79.15 68.6636L78.5 68.5136C78.6333 67.3803 78.95 66.0803 79.45 64.6136L80.15 62.8136C80.45 64.6136 80.55 66.597 80.45 68.7636Z" fill="#639CAD"/>
<path fill-rule="evenodd" clip-rule="evenodd" d="M75.8 67.9636L74.2 67.2636C73.8 66.2303 73.8833 65.1136 74.45 63.9136L75.4 62.4636C74.9333 64.2636 74.8667 65.7303 75.2 66.8636L75.8 67.9636Z" fill="#639CAD"/>
<path fill-rule="evenodd" clip-rule="evenodd" d="M83.3 46.5636C83.9 45.697 84.4667 45.0636 85 44.6636C86.7 43.597 89.6667 42.3303 93.9 40.8636C98.2 39.397 101.267 38.597 103.1 38.4636C104.8 38.3636 106.367 38.597 107.8 39.1636C108.9 39.6303 110.217 40.4636 111.75 41.6636C113.583 43.097 115.783 45.8803 118.35 50.0136C120.183 50.0136 121.783 50.4136 123.15 51.2136C124.15 51.8136 125.15 53.847 126.15 57.3136C127.117 60.3136 126.3 63.697 123.7 67.4636L119.45 72.1636C117.083 74.7636 112.3 76.7636 105.1 78.1636L95.05 79.5136C88.4833 77.747 83.9667 75.047 81.5 71.4136C80.3333 69.6803 79.6 67.3803 79.3 64.5136C79.2 63.4803 79.4167 61.2303 79.95 57.7636L80.75 52.8136C81.2167 50.3803 82.0667 48.297 83.3 46.5636Z" fill="#F8F5ED"/>
<path fill-rule="evenodd" clip-rule="evenodd" d="M108.15 40.8636C109.717 41.1303 111.45 42.3803 113.35 44.6136L116.55 48.8136C117.25 49.6803 117.983 50.2136 118.75 50.4136C118.383 51.447 115.6 51.9636 110.4 51.9636C108.033 50.4636 106.433 48.547 105.6 46.2136L105 43.1636C105.133 42.0303 105.7 41.3136 106.7 41.0136L108.15 40.8636Z" fill="#4C4F50"/>
<path fill-rule="evenodd" clip-rule="evenodd" d="M102.65 47.0636L103.25 51.4136C103.317 54.6803 102.583 57.2303 101.05 59.0636C100.417 59.9303 99.5333 60.797 98.4 61.6636C96.1667 63.397 93.9 64.2303 91.6 64.1636C90.9 64.097 90.1833 63.8303 89.45 63.3636C87.95 62.4303 87.0667 60.997 86.8 59.0636C86.8 58.097 87.0667 56.9303 87.6 55.5636C88.8333 52.7303 89.45 50.8803 89.45 50.0136C89.45 49.2803 89.7833 48.2803 90.45 47.0136C91.15 45.647 91.9 44.7303 92.7 44.2636C94.3 43.3636 95.9 42.9136 97.5 42.9136C100 42.947 101.717 44.3303 102.65 47.0636Z" fill="#4C4F50"/>
<path fill-rule="evenodd" clip-rule="evenodd" d="M99.4 48.6136C100.133 49.647 100.5 50.9136 100.5 52.4136C100.5 53.9136 100.133 55.197 99.4 56.2636C98.6333 57.3303 97.7167 57.8636 96.65 57.8636C95.5833 57.8636 94.6667 57.3303 93.9 56.2636C93.1333 55.197 92.75 53.9136 92.75 52.4136C92.75 50.9136 93.1333 49.647 93.9 48.6136C94.6667 47.547 95.5833 47.0136 96.65 47.0136C97.7167 47.0136 98.6333 47.547 99.4 48.6136Z" fill="#F1F2F2"/>
<path fill-rule="evenodd" clip-rule="evenodd" d="M99.25 48.4136C99.9167 49.3136 100.25 50.4303 100.25 51.7636C100.25 53.097 99.9167 54.2303 99.25 55.1636C98.5833 56.097 97.7667 56.5636 96.8 56.5636C95.8333 56.5636 95 56.097 94.3 55.1636C93.6333 54.2303 93.3 53.097 93.3 51.7636C93.3 50.4303 93.6333 49.3136 94.3 48.4136C95 47.4803 95.8333 47.0136 96.8 47.0136C97.7667 47.0136 98.5833 47.4803 99.25 48.4136Z" fill="#373535"/>
<path fill-rule="evenodd" clip-rule="evenodd" d="M98.65 48.8136C98.85 49.2136 98.9167 49.6136 98.85 50.0136L98.25 50.8136L97.3 50.7636C96.9333 50.597 96.65 50.3136 96.45 49.9136C96.25 49.5136 96.2 49.1136 96.3 48.7136C96.3667 48.347 96.55 48.0803 96.85 47.9136L97.85 47.9636L98.65 48.8136Z" fill="white"/>
<path fill-rule="evenodd" clip-rule="evenodd" d="M95.9 54.4636C96.0667 54.8303 95.9833 55.097 95.65 55.2636C95.35 55.4636 95.1 55.3636 94.9 54.9636C94.7333 54.5303 94.8167 54.2636 95.15 54.1636C95.45 53.9636 95.7 54.0636 95.9 54.4636Z" fill="white"/>
<path fill-rule="evenodd" clip-rule="evenodd" d="M112.8 45.6136C113.8 46.4803 114.467 47.447 114.8 48.5136C115.133 49.5803 115.017 50.4136 114.45 51.0136C113.917 51.647 113.117 51.8636 112.05 51.6636C110.95 51.4636 109.9 50.9303 108.9 50.0636C107.9 49.197 107.233 48.2303 106.9 47.1636C106.6 46.1303 106.717 45.297 107.25 44.6636C107.783 44.0636 108.583 43.847 109.65 44.0136C110.75 44.2136 111.8 44.747 112.8 45.6136Z" fill="#F1F2F2"/>
<path fill-rule="evenodd" clip-rule="evenodd" d="M108.1 49.3136C107.333 48.5136 106.883 47.6303 106.75 46.6636C106.617 45.697 106.833 44.9303 107.4 44.3636C108 43.8303 108.783 43.647 109.75 43.8136C110.717 43.9803 111.583 44.4636 112.35 45.2636C113.117 46.0636 113.567 46.947 113.7 47.9136C113.833 48.9136 113.6 49.6803 113 50.2136C112.433 50.7803 111.667 50.9803 110.7 50.8136C109.7 50.647 108.833 50.147 108.1 49.3136Z" fill="#373535"/>
<path fill-rule="evenodd" clip-rule="evenodd" d="M108.9 46.1136C108.567 45.9136 108.35 45.6636 108.25 45.3636C108.15 45.0636 108.167 44.7803 108.3 44.5136C108.433 44.2803 108.683 44.147 109.05 44.1136L110 44.3636C110.333 44.5636 110.55 44.8136 110.65 45.1136L110.6 45.9636C110.467 46.197 110.233 46.3303 109.9 46.3636L108.9 46.1136Z" fill="white"/>
<path fill-rule="evenodd" clip-rule="evenodd" d="M112.25 49.5636C112.317 49.897 112.217 50.097 111.95 50.1636C111.617 50.297 111.417 50.1803 111.35 49.8136C111.25 49.5136 111.333 49.297 111.6 49.1636C111.933 49.097 112.15 49.2303 112.25 49.5636Z" fill="white"/>
<path fill-rule="evenodd" clip-rule="evenodd" d="M111 46.1136L111.45 46.3636L112.4 46.2636L112.2 46.7136C112.133 47.0803 112.217 47.4303 112.45 47.7636C112.05 47.2303 111.583 47.1636 111.05 47.5636C111.45 47.1303 111.433 46.647 111 46.1136Z" fill="white"/>
<path fill-rule="evenodd" clip-rule="evenodd" d="M108.3 47.4136L108.8 47.7136L109.85 47.6136L109.65 48.1136C109.583 48.4803 109.667 48.847 109.9 49.2136C109.467 48.647 108.95 48.5803 108.35 49.0136C108.783 48.5136 108.767 47.9803 108.3 47.4136Z" fill="white"/>
<path fill-rule="evenodd" clip-rule="evenodd" d="M96.3 43.8636C96.0667 45.1636 95.45 46.4136 94.45 47.6136C92.4833 50.0803 89.6833 51.1803 86.05 50.9136L89.55 50.1136C92.1167 48.9803 94.0833 46.897 95.45 43.8636C95.7833 43.1303 95.95 42.3303 95.95 41.4636L96.2 42.2636C96.3667 42.8636 96.4 43.397 96.3 43.8636Z" fill="#97999B"/>
<path fill-rule="evenodd" clip-rule="evenodd" d="M104.7 40.4636L104.6 38.8636C104.767 40.0636 105.633 41.247 107.2 42.4136C108.067 43.2136 109.483 43.6803 111.45 43.8136L114.2 43.7636C113.467 44.4303 112.333 44.7136 110.8 44.6136L108.75 44.2636C107.217 43.797 106.083 43.0136 105.35 41.9136L104.7 40.4636Z" fill="#97999B"/>
<path fill-rule="evenodd" clip-rule="evenodd" d="M86.5 43.6636C85.7667 44.197 85.0333 44.9803 84.3 46.0136C82.9 48.047 82.3 50.247 82.5 52.6136L82.25 61.2636C82.25 64.2636 82.8 66.897 83.9 69.1636C86 73.597 89.8833 75.9303 95.55 76.1636L102.6 75.8636C107.967 75.297 112.383 74.0303 115.85 72.0636L119.05 70.7136C121.45 69.347 123.4 67.5303 124.9 65.2636C124.433 66.6636 123.467 68.1803 122 69.8136C119.133 73.147 115.267 75.5136 110.4 76.9136C102.967 78.7136 97.85 79.5803 95.05 79.5136C93.5167 79.647 91.7833 79.4303 89.85 78.8636C85.95 77.7636 83 75.447 81 71.9136C80.4333 70.9803 79.95 69.6303 79.55 67.8636C78.7833 64.3636 78.85 60.597 79.75 56.5636C79.9167 53.7303 80.1167 51.847 80.35 50.9136C80.75 49.347 81.1333 48.2636 81.5 47.6636C82.5 45.997 84.1667 44.6636 86.5 43.6636Z" fill="#C1C0BC"/>
<path fill-rule="evenodd" clip-rule="evenodd" d="M107.25 67.7636L109.2 64.3136C111 61.847 113.183 60.1803 115.75 59.3136L119.05 58.6636C121.417 58.697 122.917 59.8303 123.55 62.0636L122.25 60.8136C121.217 59.9803 120.283 59.6136 119.45 59.7136L117.25 60.0136C115.383 60.5136 113.433 61.547 111.4 63.1136C109.5 64.847 108.117 66.397 107.25 67.7636Z" fill="#373535"/>
<path fill-rule="evenodd" clip-rule="evenodd" d="M114 65.6136L114.7 64.4136C115.367 63.547 116.233 62.9803 117.3 62.7136L119.3 62.8636C119.667 63.097 119.867 63.447 119.9 63.9136C119.1 63.3803 118.267 63.247 117.4 63.5136C116.033 63.8803 114.9 64.5803 114 65.6136Z" fill="#C1C0BC"/>
<path fill-rule="evenodd" clip-rule="evenodd" d="M92.8 41.2136C92.4 41.2136 91.2333 41.6303 89.3 42.4636L86.5 43.6636C86.3333 46.797 85.2833 49.4136 83.35 51.5136C81.8167 53.1803 80.55 53.947 79.55 53.8136C78.95 53.7803 78.1 53.2636 77 52.2636C75.9 51.297 75.1667 50.4136 74.8 49.6136C74.4667 48.847 74.3 48.197 74.3 47.6636C74.2667 47.197 74.3667 46.647 74.6 46.0136C74.7667 45.5136 75.4833 44.547 76.75 43.1136L79.4 40.3136L81.4 38.6636C82.4333 37.9303 83.5833 37.3636 84.85 36.9636C86.1167 36.597 87.8167 37.197 89.95 38.7636L92.8 41.2136Z" fill="#4C4F50"/>
<path fill-rule="evenodd" clip-rule="evenodd" d="M111 33.9136C113.433 35.1136 115.467 36.897 117.1 39.2636L118.1 41.1636C118.567 42.5303 118.3 43.3636 117.3 43.6636L115.8 43.4636C114.633 43.1636 113.667 42.547 112.9 41.6136L112.7 42.4136C110.133 40.147 107.983 38.897 106.25 38.6636C104.65 38.297 102.75 38.3303 100.55 38.7636L101.9 36.6636C102.933 35.097 103.783 33.9803 104.45 33.3136L105.25 32.7636L107.9 32.8136L111 33.9136Z" fill="#4C4F50"/>
<path fill-rule="evenodd" clip-rule="evenodd" d="M104.35 38.4636C104.683 37.397 105.133 36.197 105.7 34.8636L107.8 37.2136C109.5 39.0136 111.2 40.4803 112.9 41.6136L112.7 42.4136L110.05 40.3636C107.917 38.997 106.017 38.3636 104.35 38.4636Z" fill="#2F3131"/>
<path fill-rule="evenodd" clip-rule="evenodd" d="M86.5 43.6636C86.8 41.9303 86.5833 40.4303 85.85 39.1636L87.15 39.2136C88.25 39.547 89.4333 40.397 90.7 41.7636C88.3333 42.6636 86.9333 43.297 86.5 43.6636Z" fill="#2F3131"/>
<path fill-rule="evenodd" clip-rule="evenodd" d="M118.2 54.8136L117.75 55.8636C117.35 56.3303 116.683 56.5136 115.75 56.4136L111.2 56.1136L107.2 55.9636L104.7 55.7136C104.033 55.347 104.483 54.6303 106.05 53.5636C107.817 52.3636 110.367 51.3636 113.7 50.5636C117 49.7636 119.15 49.6136 120.15 50.1136L120.4 50.4136C120.5 50.7136 120.35 51.0636 119.95 51.4636L118.2 54.8136Z" fill="#292929"/>
<path fill-rule="evenodd" clip-rule="evenodd" d="M118.2 50.4136C119.133 50.447 119.35 50.7303 118.85 51.2636L116.85 52.5136L114.35 52.8636L112.95 52.7136L112.15 52.0636L112.35 51.7136C113.417 51.1136 115.367 50.6803 118.2 50.4136Z" fill="#F1F2F2"/>
<path fill-rule="evenodd" clip-rule="evenodd" d="M110.35 73.8636C112.283 75.4636 113.033 77.5136 112.6 80.0136C112.567 80.6803 112.233 81.4303 111.6 82.2636C110.367 83.9636 108.333 85.2803 105.5 86.2136C104.3 86.6803 102.983 86.9803 101.55 87.1136C98.7167 87.4136 96.7333 86.7636 95.6 85.1636C94.7667 84.197 94.2 83.0136 93.9 81.6136C93.3667 78.847 94.55 76.3636 97.45 74.1636L100.1 72.6136C102.367 71.6803 104.767 71.547 107.3 72.2136L110.35 73.8636Z" fill="#4C4F50"/>
<path fill-rule="evenodd" clip-rule="evenodd" d="M107.3 72.2136L110.35 73.8636C112.283 75.4636 113.033 77.5136 112.6 80.0136C112.567 80.6803 112.233 81.4303 111.6 82.2636C110.367 83.9636 108.333 85.2803 105.5 86.2136C104.3 86.6803 102.983 86.9803 101.55 87.1136C98.7167 87.4136 96.7333 86.7636 95.6 85.1636C94.9 84.3636 94.3833 83.3803 94.05 82.2136C93.3833 79.8136 93.9833 77.6136 95.85 75.6136C94.65 77.247 94.3667 79.0303 95 80.9636C95.3333 81.897 95.7667 82.6803 96.3 83.3136C97.3 84.747 99.05 85.347 101.55 85.1136L104.95 84.3136C107.383 83.5136 109.133 82.3803 110.2 80.9136C110.733 80.1803 111.017 79.5136 111.05 78.9136C111.383 76.7803 110.767 75.0136 109.2 73.6136C108.367 72.9136 107.433 72.3803 106.4 72.0136L107.3 72.2136Z" fill="#2F3131"/>
<path fill-rule="evenodd" clip-rule="evenodd" d="M108.7 84.8137C109.1 84.2803 109.383 83.597 109.55 82.7636C109.917 81.1303 109.533 79.5803 108.4 78.1136L110 79.2636C110.933 80.397 111.133 81.8136 110.6 83.5136L108.7 84.8137Z" fill="#C1C0BC"/>
<path fill-rule="evenodd" clip-rule="evenodd" d="M106.6 85.9136L105.25 86.3636L104.55 86.4636C104.183 85.297 103.933 83.897 103.8 82.2636L103.65 80.1636C104.75 81.797 105.733 83.7136 106.6 85.9136Z" fill="#C1C0BC"/>
<path fill-rule="evenodd" clip-rule="evenodd" d="M101.65 87.1136L99.75 87.1637C98.8833 86.297 98.4667 85.1636 98.5 83.7636L98.8 81.8636C99.1667 83.8636 99.75 85.347 100.55 86.3137L101.65 87.1136Z" fill="#C1C0BC"/>
<path fill-rule="evenodd" clip-rule="evenodd" d="M118.85 71.2636C118.85 68.4303 120.483 66.2303 123.75 64.6636L126.65 63.6136C129.05 63.1803 131.433 63.5303 133.8 64.6636L136.45 66.8636C138.05 68.8303 138.383 70.997 137.45 73.3636C137.283 73.997 136.8 74.6803 136 75.4136C134.467 76.8136 132.233 77.697 129.3 78.0636L125.25 78.1636C122.383 77.897 120.567 76.8636 119.8 75.0636C119.167 73.9636 118.85 72.697 118.85 71.2636Z" fill="#4C4F50"/>
<path fill-rule="evenodd" clip-rule="evenodd" d="M119.8 75.0636C119.267 74.1636 118.95 73.097 118.85 71.8636C118.65 69.397 119.667 67.3636 121.9 65.7636C120.433 67.1303 119.817 68.8136 120.05 70.8136C120.183 71.8136 120.45 72.6803 120.85 73.4136C121.55 75.0136 123.133 75.947 125.6 76.2136L129.1 76.1136C131.633 75.8136 133.567 75.0303 134.9 73.7636C135.567 73.1636 135.983 72.5803 136.15 72.0136C136.883 69.9803 136.617 68.1303 135.35 66.4636C134.617 65.4636 133.817 64.747 132.95 64.3136L133.8 64.6636L136.45 66.8636C138.05 68.8303 138.383 70.997 137.45 73.3636C137.283 73.997 136.8 74.6803 136 75.4136C134.467 76.8136 132.233 77.697 129.3 78.0636L125.25 78.1636C122.383 77.897 120.567 76.8636 119.8 75.0636Z" fill="#2F3131"/>
<path fill-rule="evenodd" clip-rule="evenodd" d="M132.65 77.3136L133.9 75.5136C134.567 73.947 134.5 72.3303 133.7 70.6636L135.05 72.1136C135.75 73.4136 135.667 74.8303 134.8 76.3636L132.65 77.3136Z" fill="#C1C0BC"/>
<path fill-rule="evenodd" clip-rule="evenodd" d="M130.4 77.9636L129 78.1636L128.3 78.1136C128.167 76.8803 128.183 75.447 128.35 73.8136L128.65 71.7636C129.383 73.5636 129.967 75.6303 130.4 77.9636Z" fill="#C1C0BC"/>
<path fill-rule="evenodd" clip-rule="evenodd" d="M125.35 78.1636L123.45 77.8636C122.75 76.8636 122.567 75.6636 122.9 74.2636L123.6 72.4636C123.533 74.497 123.8 76.0636 124.4 77.1636C124.733 77.697 125.05 78.0303 125.35 78.1636Z" fill="#C1C0BC"/>
<path fill-rule="evenodd" clip-rule="evenodd" d="M42.05 67.8636L43.3 67.3636L52.15 76.3636L51.1 76.7136C48.5333 78.147 46.2333 78.2636 44.2 77.0636C43.2 76.497 42.45 75.7636 41.95 74.8636C41.0833 73.597 40.8333 72.047 41.2 70.2136C41.4 69.3136 41.6833 68.5303 42.05 67.8636Z" fill="#958773"/>
<path fill-rule="evenodd" clip-rule="evenodd" d="M45.05 63.8136C45.55 63.1136 46.3 62.4136 47.3 61.7136C49.3333 60.3803 51.6667 59.7803 54.3 59.9136L57.6 60.9136C59.8333 62.1136 60.9833 63.9803 61.05 66.5136L60.5 68.9136C59.6333 70.847 57.9167 72.547 55.35 74.0136C54.25 74.7136 53.0167 75.2803 51.65 75.7136C48.9167 76.547 46.85 76.297 45.45 74.9636C44.4167 74.197 43.6333 73.1636 43.1 71.8636C42 69.2303 42.65 66.547 45.05 63.8136Z" fill="#85D3EA"/>
<path fill-rule="evenodd" clip-rule="evenodd" d="M54.3 59.9136L57.6 60.9136C59.8333 62.1136 60.9833 63.9803 61.05 66.5136L60.5 68.9136C59.6333 70.847 57.9167 72.547 55.35 74.0136C54.25 74.7136 53.0167 75.2803 51.65 75.7136C48.9167 76.547 46.85 76.297 45.45 74.9636C44.5833 74.3303 43.8667 73.4636 43.3 72.3636C42.1667 70.1636 42.3167 67.897 43.75 65.5636C42.9167 67.4303 43 69.2303 44 70.9636C44.5 71.8303 45.0833 72.5136 45.75 73.0136C47.0167 74.2136 48.8333 74.447 51.2 73.7136C52.4 73.347 53.4667 72.8636 54.4 72.2636C56.6333 70.997 58.1167 69.5303 58.85 67.8636L59.3 65.7636C59.2 63.6303 58.2333 62.0303 56.4 60.9636C55.4333 60.397 54.4167 60.047 53.35 59.9136H54.3Z" fill="#77BBCF"/>
<path fill-rule="evenodd" clip-rule="evenodd" d="M58.15 72.0136C58.45 71.4136 58.6 70.697 58.6 69.8636C58.6 68.1636 57.9167 66.697 56.55 65.4636L58.35 66.3136C59.5167 67.2136 60 68.547 59.8 70.3136L58.15 72.0136Z" fill="#639CAD"/>
<path fill-rule="evenodd" clip-rule="evenodd" d="M56.35 73.4636C55.85 73.897 55.2167 74.2303 54.45 74.4636C53.8833 73.397 53.35 72.0803 52.85 70.5136L52.3 68.4636C53.7 69.8303 55.05 71.497 56.35 73.4636Z" fill="#639CAD"/>
<path fill-rule="evenodd" clip-rule="evenodd" d="M51.75 75.6636L49.9 76.1136C48.8667 75.447 48.2167 74.4136 47.95 73.0136L47.9 71.0636C48.6667 72.9636 49.5333 74.297 50.5 75.0636C51 75.4636 51.4167 75.6636 51.75 75.6636Z" fill="#639CAD"/>
<path fill-rule="evenodd" clip-rule="evenodd" d="M42.45 95.5636L42.55 94.0636L43.3 94.9136V92.9636L44.4 93.8636L44.55 92.3636L45.1 93.2636L45.4 92.3136L47.6 99.2636L43.95 102.214L41.65 95.2136L42.45 95.5636Z" fill="#E3D9C5"/>
<path fill-rule="evenodd" clip-rule="evenodd" d="M263.7 41.8636L268 46.1636L272.3 41.8636L274.8 47.4136L280.4 44.9636L280.65 51.0636L286.8 50.8136L284.85 56.5636L290.6 58.5136L286.75 63.2136L291.4 67.1636L286.1 70.1136L289.05 75.4636L283 76.3136L283.85 82.3636L277.9 80.9636L276.5 86.9136L271.45 83.4636L268 88.5136L264.55 83.4636L259.5 86.9136L258.1 80.9636L252.15 82.3636L253 76.3136L246.95 75.4636L249.9 70.1136L244.6 67.1636L249.3 63.2136L245.4 58.5136L251.15 56.5636L249.25 50.8136L255.35 51.0636L255.65 44.9636L261.2 47.4136L263.7 41.8636Z" fill="black" fill-opacity="0.4"/>
<path fill-rule="evenodd" clip-rule="evenodd" d="M266.25 45.0136L270.55 40.7136L273.05 46.2636L278.65 43.8136L278.9 49.9136L285.05 49.6636L283.1 55.4136L288.85 57.3636L285 62.0636L289.65 66.0136L284.35 68.9636L287.3 74.3136L281.25 75.1636L282.1 81.2136L276.15 79.8136L274.75 85.7636L269.7 82.3136L266.25 87.3636L262.8 82.3136L257.75 85.7636L256.35 79.8136L250.4 81.2136L251.25 75.1636L245.2 74.3136L248.15 68.9636L242.85 66.0136L247.55 62.0636L243.65 57.3636L249.4 55.4136L247.5 49.6636L253.6 49.9136L253.9 43.8136L259.45 46.2636L261.95 40.7136L266.25 45.0136Z" fill="#FFB432"/>
<path fill-rule="evenodd" clip-rule="evenodd" d="M272.4 56.1636L273.45 62.2136L274.3 56.3636L275.15 62.3636L275.7 56.0636H277.9L277.1 69.2136L275.25 69.0636L274.25 63.7636L273.6 69.1136H271.95L270.3 56.0136L272.4 56.1636ZM269.35 56.1636L269.5 58.1636L264.95 58.4136L265.05 61.1636L267.95 61.3136L268 63.3636L264.95 63.5636L265.05 66.5136L269.7 66.4136L269.65 68.8636L263.5 69.0636L263.1 56.1136L269.35 56.1636ZM262.15 55.8636V69.0136H260.6L257.3 60.6636L257.5 68.9636L255.55 69.0136L255.3 55.9136L257.35 55.9636L260.5 64.7136L260.2 55.9136L262.15 55.8636Z" fill="black"/>
<path fill-rule="evenodd" clip-rule="evenodd" d="M285.6 64.8136L281.6 61.6636L286.95 57.2136L284.15 61.6636L287.6 64.6636L283.25 67.4136L286.05 72.5636L279.55 73.3636L280.2 78.2136L274.9 78.1136L274 82.9636L269.2 79.6136L266.5 83.5136L268.4 78.2136L273.2 81.2636L273.45 76.4636L279.3 77.2636L278.7 72.6636L284.75 71.9136L281.2 67.1636L285.6 64.8136ZM260.75 47.0136L262.55 42.4136L266.6 46.6136L270 43.2636L267.15 48.1636L263 44.2636L261.85 48.9136L256.25 47.0136L256 51.7136L249.95 51.3136L252.5 56.6136L247.75 58.1136L251.15 61.9636L245.05 65.3636L248.6 61.5136L245.75 57.9136L250.55 55.9636L248.75 50.4136L255.3 50.8136L255.55 45.9636L260.75 47.0136Z" fill="#FFDC64"/>
</svg>
