<svg width="304" height="108" viewBox="0 0 304 108" fill="none" xmlns="http://www.w3.org/2000/svg">
<path fill-rule="evenodd" clip-rule="evenodd" d="M301.05 5.65C302.583 7.21667 303.35 9.08333 303.35 11.25V95.4C303.35 97.6 302.583 99.4833 301.05 101.05C299.483 102.583 297.617 103.35 295.45 103.35H11.3C9.1 103.35 7.23333 102.583 5.7 101.05C4.13333 99.4833 3.35 97.6 3.35 95.4V11.25C3.35 9.08333 4.13333 7.21667 5.7 5.65C7.23333 4.11667 9.1 3.35 11.3 3.35H295.45C297.617 3.35 299.483 4.11667 301.05 5.65Z" fill="black" fill-opacity="0.4"/>
<path fill-rule="evenodd" clip-rule="evenodd" d="M297.15 3.8C298.117 5.26667 298.6 6.91667 298.6 8.75C297.9 7.75 296.983 6.93333 295.85 6.3C294.683 5.66667 293.433 5.35 292.1 5.35H7.95C6.61667 5.35 5.36667 5.66667 4.2 6.3C3.06667 6.9 2.13333 7.71667 1.4 8.75C1.4 7.25 2.01667 5.65 3.25 3.95C4.61667 1.98333 6.18333 1 7.95 1H292.1C294.267 1 295.95 1.93333 297.15 3.8ZM293.35 2.95L293.6 2.35V2.3L293.35 1.7C293.183 1.53333 292.983 1.45 292.75 1.45H7.15C6.91667 1.45 6.71667 1.53333 6.55 1.7C6.38333 1.86667 6.3 2.06667 6.3 2.3V2.35L6.55 2.95L7.15 3.2H292.75L293.35 2.95ZM296.5 96.6C295.067 98.1 293.6 98.85 292.1 98.85H7.95C6.05 98.85 4.46667 98.05 3.2 96.45C2.16667 95.1167 1.56667 93.65 1.4 92.05C2.13333 93.1167 3.06667 93.95 4.2 94.55C5.36667 95.1833 6.61667 95.5 7.95 95.5H292.1C293.433 95.5 294.683 95.1833 295.85 94.55C296.983 93.95 297.9 93.1167 298.6 92.05C298.6 93.6167 297.9 95.1333 296.5 96.6Z" fill="#0E69FF"/>
<path fill-rule="evenodd" clip-rule="evenodd" d="M300 7.9V92.05C300 94.25 299.233 96.1333 297.7 97.7C296.133 99.2333 294.267 100 292.1 100H7.95C5.75 100 3.88333 99.2333 2.35 97.7C0.783333 96.1333 0 94.25 0 92.05V7.9C0 5.73333 0.783333 3.86667 2.35 2.3C3.88333 0.766667 5.75 0 7.95 0H292.1C294.267 0 296.133 0.766667 297.7 2.3C299.233 3.86667 300 5.73333 300 7.9ZM297.15 3.8C295.95 1.93333 294.267 1 292.1 1H7.95C6.18333 1 4.61667 1.98333 3.25 3.95C2.01667 5.65 1.4 7.25 1.4 8.75C2.13333 7.71667 3.06667 6.9 4.2 6.3C5.36667 5.66667 6.61667 5.35 7.95 5.35H292.1C293.433 5.35 294.683 5.66667 295.85 6.3C296.983 6.93333 297.9 7.75 298.6 8.75C298.6 6.91667 298.117 5.26667 297.15 3.8ZM296.5 96.6C297.9 95.1333 298.6 93.6167 298.6 92.05C297.9 93.1167 296.983 93.95 295.85 94.55C294.683 95.1833 293.433 95.5 292.1 95.5H7.95C6.61667 95.5 5.36667 95.1833 4.2 94.55C3.06667 93.95 2.13333 93.1167 1.4 92.05C1.56667 93.65 2.16667 95.1167 3.2 96.45C4.46667 98.05 6.05 98.85 7.95 98.85H292.1C293.6 98.85 295.067 98.1 296.5 96.6Z" fill="#0A468C"/>
<path fill-rule="evenodd" clip-rule="evenodd" d="M293.35 2.95L292.75 3.2H7.15L6.55 2.95L6.3 2.35V2.3C6.3 2.06667 6.38333 1.86667 6.55 1.7C6.71667 1.53333 6.91667 1.45 7.15 1.45H292.75C292.983 1.45 293.183 1.53333 293.35 1.7L293.6 2.3V2.35L293.35 2.95Z" fill="#80BBFF"/>
<path fill-rule="evenodd" clip-rule="evenodd" d="M301.05 5.65C302.583 7.21667 303.35 9.08333 303.35 11.25V95.4C303.35 97.6 302.583 99.4833 301.05 101.05C299.483 102.583 297.617 103.35 295.45 103.35H11.3C9.1 103.35 7.23333 102.583 5.7 101.05C4.13333 99.4833 3.35 97.6 3.35 95.4V11.25C3.35 9.08333 4.13333 7.21667 5.7 5.65C7.23333 4.11667 9.1 3.35 11.3 3.35H295.45C297.617 3.35 299.483 4.11667 301.05 5.65Z" fill="black" fill-opacity="0.4"/>
<path fill-rule="evenodd" clip-rule="evenodd" d="M297.15 3.8C298.117 5.26667 298.6 6.91667 298.6 8.75C297.9 7.75 296.983 6.93333 295.85 6.3C294.683 5.66667 293.433 5.35 292.1 5.35H7.95C6.61667 5.35 5.36667 5.66667 4.2 6.3C3.06667 6.9 2.13333 7.71667 1.4 8.75C1.4 7.25 2.01667 5.65 3.25 3.95C4.61667 1.98333 6.18333 1 7.95 1H292.1C294.267 1 295.95 1.93333 297.15 3.8ZM293.35 2.95L293.6 2.35V2.3L293.35 1.7C293.183 1.53333 292.983 1.45 292.75 1.45H7.15C6.91667 1.45 6.71667 1.53333 6.55 1.7C6.38333 1.86667 6.3 2.06667 6.3 2.3V2.35L6.55 2.95L7.15 3.2H292.75L293.35 2.95ZM296.5 96.6C295.067 98.1 293.6 98.85 292.1 98.85H7.95C6.05 98.85 4.46667 98.05 3.2 96.45C2.16667 95.1167 1.56667 93.65 1.4 92.05C2.13333 93.1167 3.06667 93.95 4.2 94.55C5.36667 95.1833 6.61667 95.5 7.95 95.5H292.1C293.433 95.5 294.683 95.1833 295.85 94.55C296.983 93.95 297.9 93.1167 298.6 92.05C298.6 93.6167 297.9 95.1333 296.5 96.6Z" fill="#441F8F"/>
<path fill-rule="evenodd" clip-rule="evenodd" d="M300 7.9V92.05C300 94.25 299.233 96.1333 297.7 97.7C296.133 99.2333 294.267 100 292.1 100H7.95C5.75 100 3.88333 99.2333 2.35 97.7C0.783333 96.1333 0 94.25 0 92.05V7.9C0 5.73333 0.783333 3.86667 2.35 2.3C3.88333 0.766667 5.75 0 7.95 0H292.1C294.267 0 296.133 0.766667 297.7 2.3C299.233 3.86667 300 5.73333 300 7.9ZM297.15 3.8C295.95 1.93333 294.267 1 292.1 1H7.95C6.18333 1 4.61667 1.98333 3.25 3.95C2.01667 5.65 1.4 7.25 1.4 8.75C2.13333 7.71667 3.06667 6.9 4.2 6.3C5.36667 5.66667 6.61667 5.35 7.95 5.35H292.1C293.433 5.35 294.683 5.66667 295.85 6.3C296.983 6.93333 297.9 7.75 298.6 8.75C298.6 6.91667 298.117 5.26667 297.15 3.8ZM296.5 96.6C297.9 95.1333 298.6 93.6167 298.6 92.05C297.9 93.1167 296.983 93.95 295.85 94.55C294.683 95.1833 293.433 95.5 292.1 95.5H7.95C6.61667 95.5 5.36667 95.1833 4.2 94.55C3.06667 93.95 2.13333 93.1167 1.4 92.05C1.56667 93.65 2.16667 95.1167 3.2 96.45C4.46667 98.05 6.05 98.85 7.95 98.85H292.1C293.6 98.85 295.067 98.1 296.5 96.6Z" fill="#6229A4"/>
<path fill-rule="evenodd" clip-rule="evenodd" d="M293.35 2.95L292.75 3.2H7.15L6.55 2.95L6.3 2.35V2.3C6.3 2.06667 6.38333 1.86667 6.55 1.7C6.71667 1.53333 6.91667 1.45 7.15 1.45H292.75C292.983 1.45 293.183 1.53333 293.35 1.7L293.6 2.3V2.35L293.35 2.95Z" fill="#6F33B4"/>
<path fill-rule="evenodd" clip-rule="evenodd" d="M290.05 75.3L290.25 88.5H275.8L275.1 80.85L279.7 80.35L279.6 84.75H286.5L286.1 78.05L275.5 72.8L275.1 60.75L289.65 60.45L290.15 68.4L286.2 68.6L286.1 65.05L279.05 65.15L279.5 69.85L290.05 75.3ZM273.3 65.55L268.7 65.35L268.9 88.6L264.5 88.8L264.1 65.8L258 65.35V60.55L273.1 61.05L273.3 65.55ZM255.3 60.95L256.05 65.25L246.2 65.45L246.5 71.45L252.35 71.55V75.95L246.5 76.25L246.4 82.75L256.35 82.3L256.15 87.45L243.05 87.55L242.85 60.65L255.3 60.95ZM240.65 73.2H231.55V88.7L226.6 87.85V61.3L240.55 61.5L240.65 73.2ZM236.35 69.25L236.65 65.25L231 65.45L231.2 68.7L236.35 69.25Z" fill="white"/>
<path fill-rule="evenodd" clip-rule="evenodd" d="M59 21L61 22.5L84.1 20.15L129.2 46.25L121.1 99.15H37L19.45 80.6L12.55 27.9L59 21Z" fill="black" fill-opacity="0.447059"/>
<path fill-rule="evenodd" clip-rule="evenodd" d="M136.25 34.75L127.85 89.65L62.7 107.3L26.5 69.1L19.6 16.4L66.05 9.5L68.05 11L91.15 8.65L136.25 34.75Z" fill="#373535"/>
<path fill-rule="evenodd" clip-rule="evenodd" d="M124.15 86.35C124.083 86.55 123.9 86.6833 123.6 86.75L64.85 102.7C64.3167 103 63.85 102.883 63.45 102.35L48.1 85.55L31.7 67.95C31.1333 67.5167 30.7167 67.0333 30.45 66.5L30.2 65.8L24.4 21.35C24.3333 20.85 24.3667 20.5 24.5 20.3L24.7 20.1L88.65 12.7C89.1833 12.6333 89.6667 12.7667 90.1 13.1L131.65 37.2L124.15 86.35Z" fill="#665A54"/>
<path fill-rule="evenodd" clip-rule="evenodd" d="M24.45 20.35L58.7 54.15L64.15 102.75L63.2 102.1L31 67.3C30.5667 67.1333 30.2667 66.4333 30.1 65.2L24.35 21L24.45 20.35Z" fill="#958773"/>
<path fill-rule="evenodd" clip-rule="evenodd" d="M123.6 86.75L64.85 102.7L64.15 102.75L58.7 54.15L131.65 37.2L124.2 85.95C124.2 86.4167 124 86.6833 123.6 86.75Z" fill="#B1A386"/>
<path fill-rule="evenodd" clip-rule="evenodd" d="M95.2 44.65L64.55 15.5L88.25 12.65H88.75L89.65 12.85L131.65 37.2L96.15 44.85C95.85 44.9833 95.5333 44.9167 95.2 44.65Z" fill="#B2A98D"/>
<path fill-rule="evenodd" clip-rule="evenodd" d="M98.35 44.45L96.15 44.85C95.85 44.9833 95.5333 44.9167 95.2 44.65L64.55 15.5L66.55 15.2L98.35 44.45Z" fill="#9E9079"/>
<path fill-rule="evenodd" clip-rule="evenodd" d="M96.2 41.75C96.4667 42.0167 96.5 42.2 96.3 42.3L58.7 54.15L24.8 20.7L24.4 20.15L44 16.8L63.75 13.7L64.3 13.8L96.2 41.75Z" fill="#C1B69B"/>
<path fill-rule="evenodd" clip-rule="evenodd" d="M94.85 28.95L95.6 29.55L94.9 29.8L95.9 30.65L95 30.6L95.8 31.35L82.15 29.45L80.9 28.3L64.6 23.95L65.1 23.7L63.95 22.95L64.55 22.75L63.4 22.2L64.45 22.05L63.45 21.5L64.1 21.25L63.35 20.8L64 20.65L63.15 19.85L75.65 23.65L77.1 24.95L95.2 27.25L94.85 27.7L95.45 27.95L94.65 28.1L95.85 29L94.85 28.95Z" fill="#E3D9C5"/>
<path fill-rule="evenodd" clip-rule="evenodd" d="M92.7 24.1L87.15 33.85L85.75 32.65L74 45.3L73.95 44.35L73.2 44.75L73.35 43.95L72.05 44.6L72.55 43.6L71.45 44.15L71.8 43.35L70.65 43.6L70.9 42.75L70.15 42.7L82.15 29.45L83.15 30.35L88.95 21.5L89.05 22L89.85 21.45L89.65 22.3L90.55 21.5L90.15 22.65L91.1 22.1V22.9L92.05 22.25L91.85 23.4L93.05 22.9L92.7 24.1Z" fill="#E3D9C5"/>
<path fill-rule="evenodd" clip-rule="evenodd" d="M73.15 93.9L72.15 100.7L66.95 102.05L67.85 94.15L68.2 95.2L68.85 94.05L69.2 95.15L70.45 93.65L70.4 94.9L71.05 93.9L71.4 95.05L72.35 93.8L72.4 94.55L73.15 93.9Z" fill="#E3D9C5"/>
<path fill-rule="evenodd" clip-rule="evenodd" d="M121.75 46.3L120.8 47.4L121.35 39.55L128.7 37.9L128 44.85L126.9 44.45L126.4 45.25L126.1 44.65L125.55 45.65L125.15 44.8L124.1 46.45L123.65 45.65L122.3 47L121.75 46.3Z" fill="#E3D9C5"/>
<path fill-rule="evenodd" clip-rule="evenodd" d="M260.05 8.15L264.35 12.45L268.65 8.15L271.15 13.7L276.75 11.25L277 17.35L283.15 17.1L281.2 22.85L286.95 24.8L283.1 29.5L287.75 33.45L282.45 36.4L285.4 41.75L279.35 42.6L280.2 48.65L274.25 47.25L272.85 53.2L267.8 49.75L264.35 54.8L260.9 49.75L255.85 53.2L254.45 47.25L248.5 48.65L249.35 42.6L243.3 41.75L246.25 36.4L240.95 33.45L245.65 29.5L241.75 24.8L247.5 22.85L245.6 17.1L251.7 17.35L252 11.25L257.55 13.7L260.05 8.15Z" fill="black" fill-opacity="0.4"/>
<path fill-rule="evenodd" clip-rule="evenodd" d="M262.6 11.3L266.9 7L269.4 12.55L275 10.1L275.25 16.2L281.4 15.95L279.45 21.7L285.2 23.65L281.35 28.35L286 32.3L280.7 35.25L283.65 40.6L277.6 41.45L278.45 47.5L272.5 46.1L271.1 52.05L266.05 48.6L262.6 53.65L259.15 48.6L254.1 52.05L252.7 46.1L246.75 47.5L247.6 41.45L241.55 40.6L244.5 35.25L239.2 32.3L243.9 28.35L240 23.65L245.75 21.7L243.85 15.95L249.95 16.2L250.25 10.1L255.8 12.55L258.3 7L262.6 11.3Z" fill="#FFB432"/>
<path fill-rule="evenodd" clip-rule="evenodd" d="M268.75 22.45L269.8 28.5L270.65 22.65L271.5 28.65L272.05 22.35H274.25L273.45 35.5L271.6 35.35L270.6 30.05L269.95 35.4H268.3L266.65 22.3L268.75 22.45ZM265.7 22.45L265.85 24.45L261.3 24.7L261.4 27.45L264.3 27.6L264.35 29.65L261.3 29.85L261.4 32.8L266.05 32.7L266 35.15L259.85 35.35L259.45 22.4L265.7 22.45ZM258.5 22.15V35.3H256.95L253.65 26.95L253.85 35.25L251.9 35.3L251.65 22.2L253.7 22.25L256.85 31L256.55 22.2L258.5 22.15Z" fill="black"/>
<path fill-rule="evenodd" clip-rule="evenodd" d="M281.95 31.1L277.95 27.95L283.3 23.5L280.5 27.95L283.95 30.95L279.6 33.7L282.4 38.85L275.9 39.65L276.55 44.5L271.25 44.4L270.35 49.25L265.55 45.9L262.85 49.8L264.75 44.5L269.55 47.55L269.8 42.75L275.65 43.55L275.05 38.95L281.1 38.2L277.55 33.45L281.95 31.1ZM257.1 13.3L258.9 8.7L262.95 12.9L266.35 9.55L263.5 14.45L259.35 10.55L258.2 15.2L252.6 13.3L252.35 18L246.3 17.6L248.85 22.9L244.1 24.4L247.5 28.25L241.4 31.65L244.95 27.8L242.1 24.2L246.9 22.25L245.1 16.7L251.65 17.1L251.9 12.25L257.1 13.3Z" fill="#FFDC64"/>
<g style="mix-blend-mode:difference">
<path d="M92.1024 51.6886C93.0126 51.4616 95.1055 52.4689 95.9685 52.9009C95.8693 52.5806 95.7242 52.2578 95.6601 51.9276C95.6423 51.8361 95.6307 51.77 95.676 51.691C95.7073 51.6727 95.7336 51.6591 95.7692 51.6542C96.1349 51.6041 97.8299 52.3756 98.2152 52.6041C98.6079 52.8371 98.9748 53.1128 99.3326 53.4093C99.2822 53.1891 99.2153 52.9571 99.1914 52.7326C99.1785 52.6115 99.1799 52.5041 99.2513 52.4093C99.3041 52.3391 99.3842 52.3084 99.4655 52.3058C99.6748 52.299 99.9151 52.4349 100.103 52.5344C100.973 52.9961 101.697 53.6355 102.388 54.3868C102.356 54.2365 102.33 54.0735 102.326 53.9201C102.321 53.779 102.338 53.6116 102.433 53.5117C102.501 53.4405 102.593 53.4207 102.685 53.4335C102.913 53.4651 103.153 53.6624 103.345 53.8017C104.464 54.6134 105.471 55.684 106.34 56.8159C106.516 57.0445 106.698 57.2758 106.857 57.5198C106.96 57.6797 107.042 57.8776 107.17 58.0144C107.458 58.3214 107.848 58.5461 108.166 58.8177C108.365 58.9867 108.559 59.1617 108.749 59.3428C108.939 59.524 109.124 59.711 109.305 59.9038C109.485 60.0966 109.661 60.2949 109.832 60.4986C110.003 60.7024 110.169 60.9114 110.329 61.1255C111.519 62.7275 112.157 64.6282 112.855 66.5234C113.205 67.4753 113.592 68.4342 113.789 69.4391C113.94 70.2145 113.97 70.9884 113.916 71.7709C113.714 74.699 111.791 76.8405 109.913 78.5816C109.852 78.8341 109.817 79.1003 109.775 79.3587C109.575 80.6034 109.587 81.5538 109.742 82.8185C110.249 83.0401 110.764 83.4203 111.083 83.9298C111.221 84.1519 111.342 84.436 111.294 84.707C111.272 84.8321 111.216 84.9433 111.144 85.0394C110.889 85.3805 110.591 85.3533 110.271 85.5356C110.181 85.5869 110.123 85.6923 110.036 85.75C109.682 85.9841 109.093 85.9564 108.699 85.8544C108.541 86.0014 108.363 86.115 108.164 86.1782C107.488 86.3927 106.405 86.235 105.778 85.8411C104.838 85.2498 104.375 83.8584 104.079 82.7632C102.075 83.7353 100.129 84.4848 97.9361 84.7937C97.9419 84.9218 97.9617 85.0488 97.9786 85.1758C98.5247 85.3515 99.1221 85.8405 99.5168 86.2976C99.7222 86.5355 99.8988 86.848 99.8912 87.1856C99.8863 87.4012 99.7861 87.5731 99.6447 87.7065C99.3587 87.9763 98.9399 88.0254 98.5741 87.9806C98.4724 88.1167 98.3623 88.2286 98.2254 88.3192C97.7381 88.6412 97.1342 88.5402 96.6052 88.3779C96.5712 88.4095 96.5367 88.4383 96.5002 88.4664C95.9102 88.9214 95.0345 88.8721 94.3487 88.7148C94.1764 88.6817 94.016 88.6326 93.8537 88.555C92.7956 88.049 92.3109 86.6566 91.8806 85.5499C91.6031 85.5598 91.3273 85.5901 91.0498 85.5966C90.6359 85.6081 90.2217 85.5982 89.8073 85.5667C89.3929 85.5353 88.98 85.4826 88.5686 85.4085C88.1782 85.3399 87.7992 85.2235 87.4116 85.1424C87.4377 85.4693 87.4962 85.802 87.5572 86.1242C88.0316 86.3562 88.4772 86.5765 88.8839 86.9497C89.1718 87.2138 89.4012 87.4798 89.4424 87.913C89.4627 88.1264 89.4241 88.324 89.3001 88.4853C88.9595 88.9285 88.3643 88.9734 87.8749 89.0159C87.8352 89.0632 87.7945 89.112 87.7435 89.1442C87.4198 89.3485 86.8417 89.3427 86.4836 89.2271C86.4315 89.2654 86.379 89.3034 86.3232 89.3349C85.7339 89.6679 84.9271 89.6515 84.2979 89.4153C82.5426 88.7565 82.0834 86.3471 81.4066 84.6668C81.0306 83.7334 80.5695 82.8164 80.1398 81.91C80.127 81.9479 80.1143 81.9859 80.0997 82.0229C80.0748 82.0858 80.0486 82.1154 79.9907 82.1361C79.946 82.1521 79.9066 82.1485 79.8631 82.1224C79.4678 81.8844 78.8451 79.8609 78.6725 79.3306C78.6453 79.3854 78.6183 79.4428 78.5822 79.4909C78.5428 79.5435 78.4984 79.5728 78.4346 79.5755C78.3899 79.5774 78.3455 79.5528 78.313 79.5174C78.0015 79.1777 77.7516 77.2656 77.708 76.762C77.6866 76.5149 77.686 76.2685 77.6861 76.0213C77.6268 76.1689 77.5739 76.3447 77.4481 76.4357C77.4147 76.4599 77.3684 76.4753 77.3288 76.4589C77.267 76.4335 77.2311 76.3734 77.203 76.3097C76.9007 75.6247 77.0337 73.5563 77.2733 72.8415C77.2906 72.7901 77.3005 72.7766 77.2939 72.7208C77.2378 72.7266 77.0415 73.002 76.9643 73.0518C76.9043 73.0906 76.8689 73.089 76.8024 73.0674C76.7794 73.0421 76.7597 73.0185 76.746 72.9854C76.664 72.7863 76.6924 72.5116 76.7049 72.3006C76.7694 71.2132 77.0439 70.2107 77.3576 69.1964C77.2123 69.2954 76.9936 69.4747 76.8153 69.4391C76.7688 69.3953 76.7457 69.3701 76.7319 69.3021C76.6986 69.1387 76.7668 68.9173 76.8069 68.7625C77.0527 67.8142 77.5063 66.8206 78.0229 66.031C77.8689 66.1171 77.5769 66.3509 77.4016 66.339C77.3383 66.3347 77.3247 66.317 77.2784 66.2721C77.2604 66.2232 77.2501 66.1864 77.2524 66.1336C77.2803 65.4881 78.6193 63.4187 79.0841 62.976C78.9345 63.0289 78.7116 63.1121 78.5539 63.0926C78.4898 63.0846 78.4719 63.0677 78.4287 63.0146C78.4163 62.9615 78.4124 62.9243 78.4221 62.8706C78.5125 62.3721 79.4815 61.2022 79.8391 60.8415C80.1782 60.4996 80.5547 60.1895 80.9355 59.9077C80.7161 59.9421 80.4812 59.998 80.2583 59.9901C80.158 59.9866 80.0798 59.9698 80.0073 59.8846C79.9847 59.819 79.9818 59.7861 80.0004 59.7195C80.0488 59.5465 80.2246 59.3889 80.3389 59.2673C81.1276 58.4286 81.9753 57.9201 82.9385 57.3833C82.7085 57.3903 82.3564 57.4435 82.1454 57.3219C82.0957 57.2932 82.0576 57.2533 82.0401 57.1926C82.0287 57.153 82.0447 57.1173 82.0633 57.0846C82.1784 56.8813 82.5231 56.7176 82.7109 56.6009C83.7946 55.9276 84.8759 55.3517 86.1043 55.0642C85.8712 54.9788 85.5527 54.8954 85.3594 54.715C85.307 54.6661 85.2788 54.6214 85.2711 54.5443C85.2896 54.4852 85.3122 54.4528 85.3557 54.4157C85.5373 54.2607 85.8114 54.1787 86.0282 54.1038C87.119 53.727 88.4708 53.5276 89.6204 53.6982C89.395 53.5161 89.1245 53.3162 88.9526 53.0694C88.907 53.0039 88.8542 52.912 88.8737 52.8268C88.8875 52.767 88.9352 52.7205 88.9818 52.6927C89.1755 52.577 89.4896 52.6093 89.7078 52.6084C90.7194 52.6038 91.7376 52.6937 92.7189 53.0317C92.5571 52.7772 91.9881 52.1292 92.01 51.8447C92.0162 51.7639 92.0549 51.7384 92.1024 51.6886Z" fill="#261E41"/>
<path d="M92.6566 52.1531C92.9919 52.1494 93.367 52.303 93.6894 52.4139C94.9661 52.8527 95.6905 53.2101 96.8186 54.024C96.6411 53.4033 96.4004 52.7967 96.1928 52.1865C97.269 52.5793 98.3882 53.0988 99.2681 53.9253C99.5409 54.1815 99.7748 54.476 100.032 54.7501C99.9232 54.1021 99.7991 53.4573 99.6596 52.8157C99.721 52.8439 99.7821 52.8731 99.8427 52.9033C99.9034 52.9335 99.9637 52.9647 100.024 52.997C100.083 53.0292 100.143 53.0624 100.202 53.0967C100.261 53.1309 100.32 53.1662 100.378 53.2024C100.436 53.2386 100.494 53.2758 100.551 53.3139C100.608 53.3521 100.665 53.3912 100.721 53.4312C100.777 53.4713 100.833 53.5122 100.888 53.5541C100.943 53.596 100.998 53.6389 101.052 53.6826C101.106 53.7263 101.159 53.7709 101.212 53.8165C101.265 53.862 101.318 53.9084 101.369 53.9556C101.421 54.0029 101.472 54.051 101.523 54.0999C101.573 54.1489 101.623 54.1987 101.672 54.2493C101.721 54.2999 101.77 54.3513 101.818 54.4035C101.865 54.4557 101.913 54.5087 101.959 54.5625C102.005 54.6162 102.051 54.6708 102.096 54.7261C102.141 54.7813 102.186 54.8373 102.229 54.8941C102.437 55.1632 102.617 55.4568 102.816 55.7341C102.941 55.224 102.846 54.4638 102.783 53.9324C103.904 54.6154 105.473 56.3254 106.254 57.4788C106.444 57.7593 106.951 58.6873 107.143 58.8453C107.228 58.8725 107.306 58.8465 107.389 58.8283C107.605 58.9769 107.814 59.143 108.017 59.314C108.462 59.6892 108.872 60.1053 109.269 60.5435C110.982 62.4346 111.549 64.1947 112.429 66.6247C112.816 67.692 113.254 68.7199 113.418 69.8616C113.709 71.8712 113.248 73.718 112.201 75.3059C111.158 76.8879 109.758 78.0576 108.342 79.1858C106.42 80.7165 104.44 82.1064 102.213 83.0443C100.749 83.661 99.3751 84.0033 97.8194 84.2263C97.6803 83.7543 97.6347 83.2565 97.516 82.7792C97.2573 83.6232 97.3458 84.6556 97.5988 85.5069C98.1069 85.8238 98.5183 85.9282 98.9987 86.3689C99.2039 86.5571 99.4037 86.7999 99.4295 87.1066C99.4368 87.1935 99.4284 87.2705 99.374 87.3352C99.226 87.511 98.9169 87.4943 98.7142 87.489C98.6622 87.2021 98.5675 86.9696 98.3742 86.7604C98.1544 86.5227 97.8526 86.318 97.544 86.3302C97.4784 86.3328 97.3692 86.3365 97.323 86.3924C97.3467 86.4877 97.8483 86.8754 97.9612 87.0085C98.0824 87.1513 98.2297 87.3378 98.2214 87.5444C98.2169 87.6555 98.1686 87.7535 98.0927 87.8206C97.7681 88.1069 97.1772 87.9787 96.7954 87.9291C96.7437 87.6516 96.6487 87.3653 96.4773 87.1485C96.2989 86.9228 95.9978 86.7958 95.7362 86.7831C95.6653 86.7797 95.6266 86.7892 95.5755 86.8422C95.6465 86.9656 95.788 87.0685 95.8867 87.168C96.0331 87.3154 96.3204 87.6261 96.315 87.8561C96.3131 87.9384 96.2896 88.0024 96.2384 88.0585C96.0051 88.3139 95.2653 88.3434 94.9427 88.3247C94.5785 88.3036 94.1652 88.2338 93.8432 88.0148C92.8644 87.3487 92.325 85.3036 91.7863 84.1832C91.5672 83.7276 91.3077 83.3129 90.9927 82.9329C91.1285 83.6448 91.3727 84.3222 91.6387 84.9884C90.5466 85.16 89.4209 85.0174 88.3288 84.8222C87.1863 84.5621 86.057 84.2356 85.0459 83.536C85.5135 84.3802 86.1435 84.7214 86.9456 85.0466C87.0077 85.5265 87.0769 86.0191 87.1976 86.4867C87.4843 86.7197 87.9598 86.8069 88.3235 87.0657C88.5469 87.2247 88.9547 87.5129 89.0125 87.8241C89.0318 87.928 89.0086 88.0351 88.9543 88.1182C88.791 88.3683 88.3591 88.3995 88.1047 88.4367C88.0614 88.2695 88.019 88.0537 87.9281 87.9106C87.7358 87.608 87.5364 87.3264 87.2058 87.2145C87.0506 87.162 86.8135 87.1474 86.6707 87.2376L86.6625 87.2749C86.7925 87.441 87.1224 87.6194 87.2962 87.7979C87.4566 87.9626 87.6345 88.2148 87.6411 88.465C87.6432 88.5453 87.6175 88.6156 87.5648 88.668C87.3612 88.8701 86.9004 88.8103 86.6383 88.7981C86.5958 88.5172 86.5202 88.2598 86.369 88.0247C86.2367 87.8188 85.9441 87.5178 85.7132 87.4806C85.6005 87.4624 85.4486 87.4314 85.3553 87.5084C85.3721 87.5993 85.9553 88.146 86.0752 88.52C86.1068 88.6188 86.1167 88.7298 86.13 88.8328C86.037 88.9036 85.9439 88.9579 85.8351 88.9936C85.2778 89.1766 84.5909 89.0931 84.0713 88.7672C83.6151 88.481 83.2767 88.0229 83.001 87.5327C82.4788 86.6045 82.197 85.5423 81.797 84.5506C81.6254 84.1252 81.451 83.6985 81.2616 83.2823C81.0228 82.7574 80.7675 82.2405 80.5542 81.7022C80.3436 81.1707 80.1788 80.6297 80.0246 80.0766C79.8301 80.4198 79.7819 80.7324 79.7499 81.1382C79.6072 80.717 79.4276 80.311 79.2887 79.8872C79.0616 79.1944 78.9739 78.5179 78.8924 77.7967L78.8709 77.8263C78.6739 78.0928 78.5467 78.3832 78.4385 78.7084C78.2716 77.7792 78.0773 76.886 78.0915 75.936C78.0979 75.5049 78.1678 75.0841 78.1776 74.6553L78.1783 74.6189C77.894 74.8477 77.611 75.1913 77.4504 75.5422C77.4576 74.6412 77.5045 73.7877 77.6701 72.9082C77.7557 72.4536 77.8776 72.0088 77.9732 71.5568C77.6556 71.7086 77.3933 71.9381 77.1328 72.1864C77.2314 71.1658 77.4684 70.0191 77.8825 69.1149C78.0425 68.7655 78.2552 68.4407 78.4392 68.1064C78.0245 68.2435 77.6612 68.4786 77.2883 68.7133C77.4854 67.9286 77.8651 67.1243 78.2597 66.4483C78.3427 66.3061 79.0962 65.2315 79.0982 65.1851C79.092 65.1811 79.0862 65.1763 79.0796 65.1732C78.8714 65.0761 78.152 65.4498 77.944 65.559C78.3383 64.7259 78.7964 63.9185 79.4259 63.2891C79.7115 63.0036 80.079 62.7897 80.3127 62.4479C79.8815 62.4108 79.4861 62.4212 79.0612 62.4824C79.5945 61.801 80.1525 61.1053 80.8125 60.574C80.9992 60.4247 81.1921 60.286 81.3912 60.158C81.581 60.0335 81.933 59.8746 82.0712 59.7011L82.0636 59.6573C81.8439 59.4622 81.0284 59.4638 80.7519 59.4808C81.3892 58.8411 82.1936 58.3225 82.9771 57.9396C83.3302 57.767 83.8048 57.5956 84.1158 57.3627C83.8186 57.1228 83.377 57.0349 83.0287 56.9451C83.9032 56.2962 85.1741 55.768 86.2115 55.5348C86.5409 55.4607 86.877 55.4252 87.21 55.3718C86.8522 55.0308 86.4485 54.7757 86.0282 54.5528C87.0183 54.1517 88.6352 54.0274 89.6929 54.1627C90.1105 54.2162 90.5146 54.3267 90.927 54.4183C90.5544 53.8953 90.041 53.4772 89.5847 53.0522C90.5487 53.0917 91.4967 53.1341 92.4443 53.3999C92.8954 53.5265 93.3415 53.7725 93.7954 53.8561C93.4399 53.2759 93.0551 52.6973 92.6566 52.1531Z" fill="url(#paint0_linear_179_11704)"/>
<path d="M104.476 82.522C104.856 82.3508 105.228 82.0716 105.581 81.84C106.867 80.9966 108.095 80.0471 109.32 79.1018C109.3 79.5285 109.216 79.9551 109.177 80.3803C109.143 80.7515 109.156 81.1123 109.138 81.4828C109.138 81.4924 109.137 81.502 109.136 81.5116C109.169 82.0169 109.215 82.5204 109.309 83.0189C109.315 83.0248 109.32 83.0308 109.325 83.0366C109.511 83.2362 109.792 83.35 110.014 83.4932C110.27 83.6586 110.846 84.1139 110.868 84.4692C110.874 84.5678 110.835 84.6518 110.775 84.7189C110.669 84.8398 110.522 84.8934 110.381 84.9477C110.248 84.5133 110.03 84.1422 109.656 83.9227C109.472 83.8146 109.174 83.7106 108.98 83.8151C108.952 83.8298 108.951 83.8331 108.931 83.8526C108.935 83.9135 108.953 83.9391 108.992 83.9803C109.306 84.3059 109.848 84.4397 109.918 85.0298C109.925 85.0915 109.93 85.1547 109.893 85.2045C109.78 85.3555 109.448 85.3521 109.28 85.348C109.159 85.3454 109.038 85.3338 108.918 85.3132C108.847 84.8876 108.672 84.5614 108.354 84.3104C108.151 84.1503 107.915 84.0522 107.67 84.1067C107.639 84.1136 107.618 84.1272 107.593 84.1479C107.586 84.1963 107.583 84.205 107.61 84.2487C107.707 84.4024 107.912 84.5171 108.042 84.6408C108.178 84.7713 108.407 85.1085 108.383 85.313C108.371 85.4168 108.318 85.4888 108.242 85.543C107.908 85.7817 107.127 85.7646 106.74 85.6669C106.462 85.6233 106.177 85.5362 105.93 85.3755C105.139 84.861 104.714 83.454 104.476 82.522Z" fill="#665A54"/>
<path d="M106.74 85.6669C106.585 85.4132 106.379 85.1229 106.317 84.821C106.249 84.4926 106.39 84.1418 106.545 83.877C107.048 83.0157 108.027 82.2056 108.802 81.6708C108.899 81.6041 108.999 81.4822 109.111 81.4594L109.136 81.5116C109.169 82.0169 109.215 82.5204 109.309 83.0189C109.315 83.0248 109.32 83.0308 109.325 83.0366C109.511 83.2362 109.792 83.35 110.014 83.4932C110.27 83.6586 110.846 84.1139 110.868 84.4692C110.874 84.5678 110.835 84.6518 110.775 84.7189C110.669 84.8398 110.522 84.8934 110.381 84.9477C110.248 84.5133 110.03 84.1422 109.656 83.9227C109.472 83.8146 109.174 83.7106 108.98 83.8151C108.952 83.8298 108.951 83.8331 108.931 83.8526C108.935 83.9135 108.953 83.9391 108.992 83.9803C109.306 84.3059 109.848 84.4397 109.918 85.0298C109.925 85.0915 109.93 85.1547 109.893 85.2045C109.78 85.3555 109.448 85.3521 109.28 85.348C109.159 85.3454 109.038 85.3338 108.918 85.3132C108.847 84.8876 108.672 84.5614 108.354 84.3104C108.151 84.1503 107.915 84.0522 107.67 84.1067C107.639 84.1136 107.618 84.1272 107.593 84.1479C107.586 84.1963 107.583 84.205 107.61 84.2487C107.707 84.4024 107.912 84.5171 108.042 84.6408C108.178 84.7713 108.407 85.1085 108.383 85.313C108.371 85.4168 108.318 85.4888 108.242 85.543C107.908 85.7817 107.127 85.7646 106.74 85.6669Z" fill="#665A54"/>
</g>
<path d="M82.649 69.6402C82.9923 69.5521 83.2779 69.5651 83.6202 69.6732C83.0216 69.9136 82.7654 69.9345 82.2052 70.3506C82.5481 70.4059 82.8448 70.363 83.1811 70.5089C83.2584 70.53 83.338 70.542 83.4161 70.5571C83.0424 70.6876 82.1836 70.8681 81.8197 70.7155C81.7212 70.6742 81.6534 70.6296 81.6088 70.5203C81.6062 70.4621 81.608 70.4201 81.6322 70.3682C81.7985 70.0116 82.3127 69.7476 82.649 69.6402Z" fill="#665A54"/>
<path d="M81.0613 67.4642C81.1741 67.4178 81.3811 67.3923 81.5016 67.4031C81.5443 67.407 81.5501 67.4054 81.5779 67.4443C81.4673 67.5922 81.1563 67.7427 81.0019 67.8565C80.8066 68.0003 80.5939 68.1926 80.4325 68.382C80.4285 68.3868 80.4245 68.3916 80.4205 68.3964C80.7059 68.3569 81.066 68.2808 81.3499 68.3474C81.3983 68.3588 81.4081 68.3563 81.4381 68.4033C81.415 68.4701 81.376 68.472 81.3193 68.5005C81.0229 68.641 80.3467 68.9396 80.0382 68.8371C79.9706 68.8147 79.9125 68.7716 79.881 68.6973C79.8406 68.6021 79.8701 68.4849 79.9087 68.3984C80.1136 67.9398 80.6438 67.62 81.0613 67.4642Z" fill="#665A54"/>
<path d="M83.5225 67.1963C83.9431 67.0448 84.3294 67.1626 84.7399 67.3206C84.6703 67.3203 84.6009 67.3226 84.5316 67.3276C84.4623 67.3326 84.3933 67.3402 84.3246 67.3504C84.2559 67.3606 84.1877 67.3734 84.12 67.3888C84.0522 67.4041 83.9851 67.4221 83.9186 67.4426C83.8521 67.4631 83.7863 67.4861 83.7213 67.5116C83.6563 67.5372 83.5922 67.5652 83.529 67.5956C83.4658 67.626 83.4037 67.6588 83.3426 67.694C83.2815 67.7292 83.2216 67.7667 83.1629 67.8066C83.4227 67.7773 83.6876 67.8755 83.9381 67.9558C84.0793 68.0095 84.2026 68.0883 84.3275 68.1797C83.8406 68.1729 83.2702 68.3079 82.8019 68.0956C82.7208 68.0588 82.6114 68.0036 82.5804 67.9017C82.5592 67.8322 82.5828 67.7629 82.615 67.7057C82.7927 67.3901 83.2091 67.2592 83.5225 67.1963Z" fill="#665A54"/>
<path d="M82.0562 64.8765C82.0624 64.8723 82.0681 64.8668 82.0748 64.8639C82.3288 64.755 82.6964 64.7993 82.9472 64.909C82.4922 64.9879 81.9819 65.2457 81.5992 65.5221L81.611 65.5908L81.5703 65.5665C81.9444 65.5887 82.2047 65.6406 82.5678 65.7672C82.6177 65.7849 82.6463 65.7815 82.6752 65.8341C82.6653 65.8409 82.6561 65.8492 82.6455 65.8547C82.4489 65.957 81.3259 66.0093 81.096 65.9343C81.0252 65.9112 80.9841 65.8799 80.9457 65.8064C80.9266 65.6959 80.9574 65.6176 81.0102 65.5281C81.2063 65.1959 81.7155 64.9496 82.0562 64.8765Z" fill="#665A54"/>
<path d="M83.3754 62.4084C83.683 62.2786 84.1268 62.4277 84.4274 62.5355C83.785 62.6182 83.5084 62.6564 82.9359 63.0024L82.9459 63.0229C83.1857 63.0445 83.6359 63.2255 83.8651 63.3368C83.8725 63.3404 83.8798 63.3441 83.8872 63.3478C83.9821 63.3907 84.0606 63.4601 84.1436 63.527C83.6457 63.4794 83.0459 63.5838 82.5777 63.3501C82.4349 63.2788 82.3808 63.2224 82.3208 63.061C82.3388 63.0098 82.3567 62.9551 82.384 62.9094C82.5592 62.6157 83.0808 62.4673 83.3754 62.4084Z" fill="#665A54"/>
<path d="M84.4653 64.9458C84.4745 64.9419 84.4834 64.9372 84.4929 64.9342C85.0135 64.7702 85.5603 64.8641 86.0417 65.1532C85.4501 65.0907 84.9654 65.2115 84.4073 65.3874C84.5772 65.4162 84.722 65.4883 84.8787 65.5671C85.0973 65.6764 85.2843 65.8334 85.4906 65.9678C84.9998 65.94 84.2968 65.8662 83.8901 65.5284C83.8872 65.4325 83.8777 65.3371 83.8694 65.2414C84.0413 65.0896 84.2497 64.9931 84.4653 64.9458Z" fill="#665A54"/>
<path d="M89.4742 59.6875C89.7189 59.643 89.9468 59.6033 90.1969 59.6486C90.7896 59.7559 91.308 60.1455 91.672 60.6804C91.2094 60.4223 90.8466 60.1085 90.3258 60.0092C90.1615 59.9788 89.9851 59.9874 89.8197 59.9868C90.1837 60.2188 90.5284 60.5845 90.7618 60.9745C90.3322 60.7688 89.8158 60.5018 89.4735 60.1334C89.3966 60.0506 89.3475 59.9786 89.3423 59.859C89.3709 59.7828 89.4205 59.7404 89.4742 59.6875Z" fill="#665A54"/>
<path d="M85.255 60.1485C85.6048 60.0727 86.0012 60.1597 86.3276 60.3282C85.7399 60.3403 85.2426 60.5059 84.6946 60.6996C84.9926 60.799 85.299 60.9342 85.5702 61.1084C85.6739 61.1893 85.7892 61.2586 85.8978 61.3312C85.4126 61.2427 84.9424 61.2357 84.4766 61.0102C84.3684 60.9578 84.2253 60.8829 84.1829 60.7492C84.1659 60.6956 84.1813 60.6416 84.2066 60.5963C84.365 60.3132 84.9857 60.2014 85.255 60.1485Z" fill="#665A54"/>
<path d="M85.7212 62.6804C86.2349 62.544 86.7282 62.704 87.193 62.9704C86.581 62.9405 86.0841 62.9828 85.4962 63.155C85.6377 63.2111 85.773 63.2776 85.9098 63.3477C86.1522 63.4699 86.3227 63.6261 86.5231 63.8192C86.1244 63.7362 85.6628 63.6439 85.2929 63.4456C85.1961 63.3937 85.0474 63.3077 85.0118 63.1842C84.9939 63.1223 85.0029 63.0668 85.0327 63.0135C85.1621 62.7818 85.4981 62.73 85.7212 62.6804Z" fill="#665A54"/>
<path d="M85.595 69.7388C85.9189 69.6244 86.447 69.7484 86.7561 69.9016C86.526 69.9546 86.2853 69.9605 86.0528 70.0025C85.7774 70.0523 85.513 70.1589 85.2517 70.2609C85.4913 70.3352 85.7135 70.3684 85.9474 70.4777C86.0677 70.5366 86.1792 70.601 86.2922 70.6767C85.9053 70.7428 85.3359 70.7425 84.9641 70.5725C84.8444 70.5178 84.7262 70.4454 84.671 70.3081C84.6714 70.2631 84.6665 70.2389 84.6857 70.1986C84.7948 69.9706 85.3733 69.7938 85.595 69.7388Z" fill="#665A54"/>
<path d="M80.326 70.4868C80.3543 70.4676 80.3645 70.4667 80.3989 70.4687C80.4795 70.4732 80.559 70.4457 80.6365 70.4742C80.5783 70.6215 80.2312 70.8198 80.1119 70.9353C79.9345 71.1073 79.8082 71.3449 79.6367 71.5269C79.8275 71.4806 80.0829 71.3991 80.2802 71.4103C80.3719 71.4156 80.4574 71.3936 80.5476 71.423L80.564 71.4548C80.5063 71.5647 80.3642 71.6346 80.2626 71.6854C80.0035 71.8002 79.5561 72.0947 79.2698 71.9556C79.2116 71.9274 79.1652 71.8809 79.1491 71.8101C79.1203 71.6836 79.18 71.5492 79.2355 71.4471C79.4586 71.0369 79.8934 70.5869 80.326 70.4868Z" fill="#665A54"/>
<path d="M104.21 58.5848C104.232 58.5846 104.232 58.5838 104.259 58.5882C104.424 58.6152 104.558 58.7563 104.652 58.9057C104.998 59.4531 105.133 60.3107 105.05 60.9522C104.883 60.4923 104.816 60.0061 104.629 59.5479C104.546 59.3692 104.448 59.2063 104.345 59.0403C104.303 59.5795 104.315 60.1348 104.231 60.6666C104.126 60.2875 104.052 59.9136 104.029 59.519C104.009 59.1799 104.001 58.8446 104.21 58.5848Z" fill="#665A54"/>
<path d="M87.1114 58.3774C87.1527 58.3623 87.2 58.3553 87.243 58.3468C87.7493 58.246 88.27 58.2885 88.7143 58.6297C88.1545 58.552 87.6256 58.6349 87.0847 58.7665C87.1868 58.8176 87.2751 58.8753 87.3683 58.9444C87.6281 59.1258 87.8611 59.2941 88.0635 59.5558L87.6315 59.4048C87.3883 59.3175 86.7029 59.0891 86.5954 58.8153C86.5741 58.7611 86.5646 58.7089 86.5888 58.6549C86.6656 58.4835 86.9566 58.4166 87.1114 58.3774Z" fill="#665A54"/>
<path d="M101.346 57.6921C101.516 57.677 101.645 57.7342 101.781 57.8577C101.911 57.9752 102.015 58.1345 102.107 58.2889C102.434 58.8393 102.509 59.3729 102.571 60.0094C102.406 59.5485 102.254 59.0917 102 58.6783C101.848 58.4327 101.675 58.2319 101.483 58.0251C101.474 58.5481 101.489 59.0733 101.484 59.5969C101.294 59.1595 101.174 58.64 101.189 58.1572C101.195 57.9657 101.219 57.8205 101.346 57.6921Z" fill="#665A54"/>
<path d="M86.4748 67.4025C86.5654 67.3733 86.6586 67.3585 86.7523 67.3442C87.162 67.2816 87.5348 67.3987 87.8716 67.6805C87.7704 67.6716 87.6709 67.641 87.5688 67.6323C87.1987 67.601 86.7908 67.6849 86.4431 67.8066C86.5795 67.8824 86.7288 67.935 86.8714 67.9933C86.8748 67.995 86.8783 67.9968 86.8818 67.9984C87.0551 68.0815 87.2117 68.2182 87.3675 68.3378C87.0601 68.311 86.3599 68.2592 86.093 68.1033C86.0157 68.0582 85.908 67.9834 85.8873 67.88C85.8763 67.8251 85.8857 67.7724 85.9111 67.726C86.0189 67.5292 86.2846 67.4517 86.4748 67.4025Z" fill="#665A54"/>
<path d="M87.3796 60.8112C88.0476 60.71 88.5277 60.8026 89.089 61.2619C88.7882 61.2221 88.4964 61.103 88.1942 61.0894C88.0574 61.0833 87.7494 61.0697 87.653 61.1724L87.6575 61.21L87.7617 61.2888C88.0538 61.5249 88.3095 61.7752 88.5477 62.0789C88.4654 62.052 88.3841 62.0216 88.3038 61.9876C88.0387 61.8758 87.2265 61.482 87.1182 61.1654C87.0988 61.1087 87.0911 61.0572 87.1165 61.0026C87.1678 60.8927 87.2814 60.8487 87.3796 60.8112Z" fill="#665A54"/>
<path d="M98.4481 56.8149C98.647 56.8087 98.8271 56.9102 98.9939 57.03C99.5129 57.4028 99.9348 58.0304 100.084 58.7003C99.8503 58.3858 99.6237 58.061 99.3681 57.769C99.1399 57.524 98.8954 57.3212 98.6166 57.1582C98.7528 57.6028 98.824 58.0614 98.9038 58.5197C98.6549 58.1943 98.2959 57.4728 98.3275 57.0434C98.3355 56.9341 98.3767 56.8823 98.4481 56.8149Z" fill="#665A54"/>
<path d="M95.4511 56.0822C95.5959 56.0883 95.729 56.1267 95.8626 56.1925C96.4731 56.4934 96.8852 57.2152 97.1281 57.8798C96.8556 57.5556 96.6145 57.2123 96.3179 56.9123C96.104 56.724 95.8791 56.5792 95.638 56.4419C95.7583 56.8988 95.9617 57.3594 96.0457 57.8203C95.9176 57.7042 95.8125 57.5463 95.7213 57.3937C95.5685 57.1377 95.2605 56.5232 95.3372 56.2143C95.3556 56.1403 95.3981 56.1202 95.4511 56.0822Z" fill="#665A54"/>
<path d="M92.0662 61.9353C92.2573 61.8957 92.4468 61.924 92.632 61.9982C93.1612 62.2103 93.5068 62.6797 93.754 63.2279C93.4245 62.903 93.065 62.5339 92.6536 62.3547C92.5257 62.3147 92.3953 62.2871 92.2657 62.2569C92.5713 62.597 92.8376 63.0008 93.0078 63.4435C92.6671 63.1354 92.2364 62.8056 91.9855 62.3965C91.9231 62.2947 91.8845 62.1974 91.9056 62.0764C91.9443 61.9996 91.998 61.9748 92.0662 61.9353Z" fill="#665A54"/>
<path d="M92.3998 58.8772C92.5979 58.8392 92.7836 58.8419 92.9823 58.8914C93.6573 59.0596 94.0319 59.5653 94.3995 60.1917C94.0745 59.9384 93.7852 59.6398 93.4468 59.4058C93.22 59.2579 92.9541 59.22 92.7026 59.1752C92.9244 59.5764 93.1299 59.9975 93.3155 60.4203C92.9843 60.1108 92.4442 59.5707 92.3555 59.0764C92.3392 58.9856 92.355 58.9505 92.3998 58.8772Z" fill="#665A54"/>
<path d="M87.5501 64.9604C87.6224 64.944 87.6953 64.9313 87.7688 64.9221C88.3377 64.853 88.8584 65.1339 89.3066 65.5257C88.8559 65.3562 88.2555 65.1668 87.7862 65.2688L87.7862 65.2972C88.1813 65.5433 88.4655 65.7484 88.7937 66.1032C88.3809 65.9481 87.6487 65.7372 87.3572 65.3692C87.3083 65.3075 87.2916 65.2613 87.2972 65.1785C87.3539 65.0471 87.4313 65.0102 87.5501 64.9604Z" fill="#665A54"/>
<path d="M89.8219 57.0902C89.9434 57.0677 90.0648 57.0453 90.1886 57.0396C90.7406 57.014 91.2286 57.284 91.6411 57.6947C91.1637 57.5167 90.7282 57.2965 90.2201 57.3614C90.1783 57.367 90.1371 57.3728 90.0959 57.382C90.0482 57.3927 90.0233 57.3857 89.9968 57.4327C90.0786 57.5395 90.1988 57.6229 90.289 57.7262C90.4575 57.9189 90.6081 58.1382 90.7623 58.3458C90.4485 58.2089 89.7349 57.7896 89.5729 57.4474C89.5462 57.3908 89.5328 57.3263 89.554 57.2662C89.5951 57.1493 89.7263 57.1208 89.8219 57.0902Z" fill="#665A54"/>
<path d="M80.2873 76.1946C80.3456 76.1787 80.3929 76.1639 80.4543 76.1753L80.4585 76.2056C80.3155 76.3938 80.1767 76.5903 80.0599 76.8006C79.956 76.9877 79.872 77.1903 79.7437 77.3579C79.9749 77.2363 80.2074 77.1681 80.4623 77.1322C80.3676 77.2658 80.2685 77.3933 80.1663 77.5196C80.084 77.6002 80.0068 77.6619 79.9097 77.7182C79.7978 77.7831 79.6458 77.8752 79.5148 77.8134C79.4602 77.7876 79.4295 77.7367 79.4114 77.6755C79.3556 77.4867 79.4219 77.2639 79.4946 77.0975C79.6635 76.711 79.9069 76.3253 80.2873 76.1946Z" fill="#665A54"/>
<path d="M95.6079 59.0711C95.7903 59.0572 95.934 59.0873 96.0987 59.1877C96.5841 59.4839 96.9205 60.0992 97.0901 60.6674C96.8414 60.3338 96.5825 60.0331 96.296 59.741C96.1492 59.6024 95.9848 59.5028 95.8173 59.4015C95.9659 59.8518 96.1017 60.2936 96.1888 60.7631C95.9151 60.4191 95.6026 59.8745 95.5348 59.4179C95.5123 59.2666 95.5283 59.19 95.6079 59.0711Z" fill="#665A54"/>
<path d="M84.752 72.1981C84.923 72.165 85.2954 72.0811 85.4533 72.1689C85.449 72.2153 85.438 72.2183 85.4047 72.2429C85.3226 72.3038 85.217 72.3416 85.127 72.3876C84.9288 72.4889 84.7215 72.6073 84.552 72.7604C84.5457 72.7661 84.5395 72.772 84.5333 72.7778C84.8319 72.79 85.0727 72.8172 85.3638 72.9182C85.4067 72.932 85.4294 72.9425 85.4629 72.9767L85.4482 73.0119C85.2054 73.1148 84.5218 73.2041 84.268 73.1082C84.183 73.0761 84.0905 73.0163 84.0547 72.9178C84.0324 72.8564 84.0379 72.7893 84.0596 72.7306C84.1669 72.4411 84.5114 72.3069 84.752 72.1981Z" fill="#665A54"/>
<path d="M92.5117 56.3365C92.6739 56.3037 92.8297 56.3219 92.9906 56.367C93.5325 56.5192 94.0589 56.9442 94.358 57.4804C94.0199 57.253 93.7028 57.0036 93.3551 56.7914C93.1664 56.7057 92.9963 56.6566 92.7953 56.6337C92.9684 57.0468 93.1742 57.4214 93.3198 57.8515C92.9906 57.6004 92.5339 57.0358 92.459 56.5878C92.4402 56.4755 92.4543 56.4235 92.5117 56.3365Z" fill="#665A54"/>
<path d="M98.6151 59.6659C98.7289 59.6661 98.824 59.7271 98.9158 59.8026C99.3932 60.1952 99.6503 61.0368 99.7426 61.6559C99.5753 61.2856 99.3846 60.9307 99.1704 60.5911C99.0184 60.3756 98.8604 60.1742 98.6716 59.9982C98.7283 60.4607 98.7705 60.9117 98.7853 61.3771C98.6977 61.1758 98.6137 60.9739 98.5491 60.7623C98.4752 60.5198 98.3257 60.0102 98.4465 59.7803C98.487 59.7031 98.5431 59.6895 98.6151 59.6659Z" fill="#665A54"/>
<path d="M89.3833 63.1221C89.4898 63.0971 89.5961 63.0752 89.7056 63.0696C90.2518 63.042 90.7512 63.4248 91.147 63.8207C90.6998 63.6631 90.3302 63.3675 89.8471 63.3738L89.6459 63.3963C89.9619 63.6149 90.2743 63.9057 90.469 64.2663C90.1086 64.1053 89.5832 63.8781 89.3306 63.5258C89.2823 63.4585 89.2415 63.3717 89.2591 63.2845C89.2744 63.2082 89.3317 63.166 89.3833 63.1221Z" fill="#665A54"/>
<path d="M95.208 61.9729C95.4012 61.9289 95.538 61.9738 95.7121 62.092C96.0992 62.3548 96.4168 62.8308 96.5337 63.3152C96.2973 63.0846 96.1046 62.7977 95.8567 62.581C95.7269 62.4747 95.5881 62.3894 95.4472 62.3042C95.5781 62.6856 95.6792 63.0909 95.7699 63.4854C95.5129 63.1711 95.1266 62.5882 95.1279 62.1521C95.1281 62.0592 95.1533 62.033 95.208 61.9729Z" fill="#665A54"/>
<path d="M101.294 60.9315C101.329 60.924 101.365 60.9165 101.401 60.9136C101.514 60.9045 101.629 60.9914 101.71 61.0748C102.067 61.4405 102.188 62.0826 102.223 62.5893C102.092 62.2629 101.939 61.9243 101.754 61.6317C101.713 61.5593 101.668 61.4905 101.618 61.4255C101.569 61.3605 101.515 61.3 101.457 61.244C101.465 61.6696 101.495 62.0966 101.506 62.5228C101.336 62.1485 101.222 61.718 101.198 61.3027C101.189 61.1418 101.197 61.0499 101.294 60.9315Z" fill="#665A54"/>
<path d="M104.976 67.834C105.943 67.3955 106.868 66.8144 107.796 66.2874C108.463 65.9089 109.51 65.2784 110.247 65.1753C110.404 65.1534 110.526 65.1828 110.671 65.2545C110.756 65.2966 110.84 65.349 110.884 65.4461C110.884 65.5074 110.883 65.5363 110.843 65.5808C110.73 65.7082 110.305 65.8406 110.134 65.9331C110.717 66.5128 111.054 67.4065 111.118 68.2573C111.121 68.3105 111.124 68.3638 111.125 68.4171C111.126 68.4705 111.126 68.5237 111.125 68.5769C111.124 68.6302 111.122 68.6833 111.119 68.7363C111.115 68.7893 111.111 68.8422 111.105 68.8949C111.099 68.9476 111.093 69 111.085 69.0522C111.077 69.1044 111.068 69.1563 111.057 69.208C111.047 69.2596 111.036 69.3108 111.023 69.3617C111.011 69.4127 110.997 69.4632 110.982 69.5133C110.968 69.5633 110.952 69.6129 110.935 69.662C110.918 69.7111 110.9 69.7597 110.881 69.8077C110.862 69.8558 110.842 69.9032 110.82 69.9501C110.799 69.997 110.777 70.0431 110.754 70.0887C110.731 70.1342 110.706 70.179 110.681 70.2232C110.656 70.2673 110.63 70.3107 110.603 70.3533C110.576 70.396 110.548 70.4378 110.518 70.4788C110.489 70.5197 110.46 70.5599 110.429 70.5991C109.89 71.2851 109.126 71.6432 108.306 71.6791C107.525 71.7133 106.868 71.3831 106.249 70.8435C106.406 71.2284 106.459 71.6543 106.329 72.049C106.223 72.3694 106.179 72.5694 105.927 72.7378C105.914 73.1223 105.733 73.4892 105.641 73.858C106.526 73.8079 107.751 73.8261 108.478 74.5328C108.628 74.6787 108.738 74.8437 108.827 75.042C108.343 74.8455 107.894 74.598 107.387 74.4828C105.314 74.0116 102.734 74.8906 100.902 75.8626C100.741 75.9478 100.421 76.1743 100.265 76.2015C100.245 76.1765 100.231 76.1724 100.232 76.1353C100.24 75.9471 100.516 75.6767 100.644 75.569C100.898 75.3547 101.21 75.1931 101.498 75.0434C102.757 74.3896 104.091 74.0399 105.477 73.8623L105.44 73.3471L105.927 72.7378C105.772 72.6909 106.147 72.6914 105.986 72.6953C104.545 73.1503 103.664 72.5236 103.762 72.8983C103.644 72.7699 103.557 72.5929 103.551 72.4096C103.49 72.291 103.434 72.1753 103.396 72.0447C103.294 71.6994 103.298 71.3184 103.447 71C103.631 70.6048 103.998 70.3572 104.373 70.2402C104.881 70.0818 105.38 70.0805 105.858 70.3771C105.573 69.9429 105.353 69.4677 105.25 68.9437C105.213 68.9476 105.175 68.9509 105.137 68.9511C105.022 68.9516 104.896 68.8459 104.817 68.758C104.601 68.5167 104.472 68.1167 104.461 67.7835C104.306 67.2864 104.238 66.7318 104.348 66.2228L104.362 66.2591C104.553 66.7748 104.619 67.4167 104.976 67.834Z" fill="#261E41"/>
<path d="M103.562 72.4092C103.862 72.712 104.166 72.849 104.601 72.8571C104.898 72.8626 105.263 72.8403 105.553 72.7805C105.553 72.7805 105.98 72.5626 105.962 72.6923L105.611 73.1915C105.448 73.1522 105.117 73.1824 104.946 73.1895C104.536 73.2064 104.082 73.1363 103.775 72.8501C103.652 72.7356 103.564 72.5762 103.562 72.4092Z" fill="#665A54"/>
<path d="M104.461 67.7835C104.6 68.0165 104.735 68.2583 104.997 68.319C105.054 68.3322 105.109 68.3329 105.167 68.3306L105.25 68.9437C105.213 68.9476 105.175 68.9509 105.137 68.9511C105.022 68.9516 104.896 68.8459 104.817 68.758C104.601 68.5167 104.472 68.1167 104.461 67.7835Z" fill="#665A54"/>
<path d="M107.957 66.988C108.544 66.673 109.155 66.3933 109.756 66.1102C109.932 66.29 110.079 66.4723 110.216 66.6908C110.634 67.3805 110.822 68.2204 110.689 69.0295C110.572 69.7425 110.167 70.3892 109.633 70.7777C109.072 71.1852 108.327 71.3347 107.661 71.1607C106.971 70.9802 106.388 70.5065 106 69.8331C105.805 69.4939 105.665 69.1254 105.603 68.7307C105.769 68.7 105.935 68.6667 106.1 68.6306C106.101 68.7864 106.111 68.9439 106.138 69.0979C106.225 69.5997 106.472 70.0524 106.851 70.3484C106.875 70.3671 106.9 70.385 106.925 70.4024C106.95 70.4197 106.975 70.4363 107.001 70.4522C107.026 70.4681 107.052 70.4834 107.079 70.4979C107.105 70.5124 107.131 70.5262 107.158 70.5392C107.185 70.5523 107.212 70.5646 107.239 70.5762C107.267 70.5878 107.294 70.5986 107.322 70.6087C107.35 70.6187 107.378 70.628 107.406 70.6366C107.434 70.6451 107.462 70.6528 107.491 70.6598C107.519 70.6668 107.547 70.673 107.576 70.6784C107.605 70.6838 107.633 70.6884 107.662 70.6922C107.691 70.696 107.72 70.699 107.749 70.7012C107.778 70.7034 107.806 70.7048 107.835 70.7055C107.864 70.7061 107.893 70.7059 107.922 70.7049C107.951 70.7039 107.979 70.7021 108.008 70.6995C108.037 70.6969 108.065 70.6935 108.094 70.6893C108.122 70.6851 108.151 70.6801 108.179 70.6744C108.633 70.5825 109.034 70.3009 109.287 69.87C109.528 69.4591 109.594 68.9472 109.498 68.4582C109.392 67.92 109.109 67.5426 108.709 67.2372C108.459 67.0943 108.232 67.0239 107.957 66.988Z" fill="#FDFCFC"/>
<path d="M107.957 66.988C108.544 66.673 109.155 66.3933 109.756 66.1102C109.932 66.29 110.079 66.4723 110.216 66.6908C109.986 66.7587 108.85 67.1375 108.709 67.2372C108.459 67.0943 108.232 67.0239 107.957 66.988Z" fill="#CDC8D8"/>
<path d="M104.796 70.7593C104.982 70.7126 105.18 70.7045 105.369 70.7525C105.496 70.7847 105.61 70.8386 105.684 70.9653C105.689 71.0068 105.699 71.0302 105.683 71.0696C105.621 71.2267 105.413 71.2849 105.278 71.3363C105.158 71.3603 105.04 71.3825 104.917 71.3885C104.739 71.3972 104.426 71.3825 104.299 71.2165C104.262 71.168 104.269 71.1423 104.276 71.0865C104.389 70.9145 104.616 70.8156 104.796 70.7593Z" fill="#714AA1"/>
<path d="M108.464 67.4362C108.515 67.4415 108.565 67.4481 108.614 67.4688C108.769 67.5344 108.921 67.667 108.993 67.8384C109.036 67.9411 109.048 68.0561 109.013 68.1612C108.965 68.304 108.862 68.3713 108.742 68.4263C108.673 68.4296 108.604 68.4269 108.535 68.4078C108.399 68.3698 108.269 68.2699 108.199 68.1303C108.144 68.0206 108.13 67.8959 108.163 67.7784C108.211 67.6077 108.328 67.5128 108.464 67.4362Z" fill="#FDFCFC"/>
<path d="M105.536 68.2086L106.3 67.8344C106.183 68.0963 106.126 68.3364 106.1 68.6306C105.935 68.6667 105.769 68.7 105.603 68.7307L105.536 68.2086Z" fill="#CDC8D8"/>
<path d="M95.4609 67.9006C95.1574 67.8946 94.8472 67.849 94.5489 67.909C94.5105 67.9168 94.4819 67.9178 94.4423 67.9094C94.4611 67.8355 94.4946 67.7755 94.5376 67.7171C95.4183 66.5202 98.5914 67.5394 99.7795 67.7713C100.791 67.9688 101.864 68.1833 102.885 68.1109C103.101 67.5616 103.021 67.0928 102.93 66.5098C103.052 66.7015 103.171 66.9049 103.255 67.1204C103.416 67.5341 103.407 67.9175 103.265 68.3228C103.315 68.5114 103.262 68.7627 103.183 68.9275C103.078 69.1454 102.907 69.2982 102.691 69.3572C102.569 69.3906 102.411 69.4023 102.284 69.3808C102.297 70.0015 102.227 70.5978 102 71.16C101.653 72.023 101.018 72.6109 100.227 72.9171C99.2421 73.2983 98.0578 73.3138 97.089 72.7811C97.0638 72.7676 97.0387 72.7538 97.0138 72.7396C96.9889 72.7254 96.9642 72.7108 96.9396 72.696C96.915 72.681 96.8905 72.6658 96.8662 72.6503C96.842 72.6347 96.8178 72.6189 96.7939 72.6027C96.7699 72.5865 96.7461 72.5699 96.7225 72.5531C96.6989 72.5362 96.6754 72.5191 96.6522 72.5016C96.6289 72.4841 96.6059 72.4663 96.583 72.4482C96.5601 72.4301 96.5374 72.4117 96.5149 72.393C96.4924 72.3742 96.4701 72.3552 96.448 72.3358C96.4259 72.3165 96.404 72.2969 96.3823 72.277C96.3606 72.257 96.3391 72.2368 96.3178 72.2163C96.2966 72.1958 96.2755 72.175 96.2547 72.1539C96.2338 72.1329 96.2132 72.1116 96.1929 72.0899C96.1725 72.0683 96.1524 72.0464 96.1324 72.0242C96.1125 72.0021 96.0928 71.9796 96.0734 71.9569C96.054 71.9342 96.0348 71.9113 96.0158 71.8881C95.9969 71.8649 95.9782 71.8414 95.9597 71.8177C95.9412 71.794 95.923 71.7701 95.9051 71.7459C95.8871 71.7217 95.8695 71.6972 95.8521 71.6726C95.8347 71.6479 95.8175 71.623 95.8006 71.5979C95.7837 71.5728 95.7671 71.5474 95.7507 71.5219C95.7344 71.4963 95.7183 71.4705 95.7025 71.4446C95.6868 71.4186 95.6712 71.3924 95.656 71.366C95.6408 71.3396 95.6258 71.313 95.6112 71.2862C95.5965 71.2594 95.5821 71.2325 95.568 71.2053C95.554 71.1781 95.5402 71.1508 95.5267 71.1232C95.5132 71.0957 95.5 71.068 95.4871 71.0402C95.4742 71.0123 95.4616 70.9843 95.4493 70.9561C95.437 70.9279 95.425 70.8996 95.4133 70.8711C95.4017 70.8426 95.3903 70.8139 95.3792 70.7851C95.3682 70.7563 95.3574 70.7274 95.347 70.6983C95.3365 70.6692 95.3264 70.64 95.3166 70.6107C95.025 69.7129 95.1102 68.7333 95.4609 67.9006Z" fill="#261E41"/>
<path d="M103.265 68.3229C103.315 68.5114 103.262 68.7627 103.183 68.9275C103.078 69.1454 102.907 69.2982 102.691 69.3572C102.569 69.3906 102.411 69.4023 102.284 69.3809C102.276 69.196 102.256 69.0132 102.235 68.8292C102.362 68.8229 102.493 68.8204 102.619 68.7997C102.929 68.7483 103.09 68.5979 103.265 68.3229Z" fill="#665A54"/>
<path d="M95.8883 67.9256C96.8302 67.9315 97.7186 68.0346 98.6511 68.2275C98.4433 68.3492 98.2732 68.4765 98.104 68.6577C97.7781 69.0749 97.5982 69.5666 97.6405 70.1396C97.6793 70.6646 97.9116 71.1885 98.2726 71.5374C98.2956 71.5592 98.319 71.5804 98.3429 71.6009C98.3668 71.6214 98.3911 71.6412 98.4158 71.6604C98.4405 71.6796 98.4657 71.6981 98.4912 71.7159C98.5166 71.7338 98.5425 71.7509 98.5687 71.7673C98.5949 71.7837 98.6214 71.7994 98.6483 71.8143C98.6751 71.8292 98.7023 71.8434 98.7297 71.8569C98.7571 71.8704 98.7848 71.883 98.8128 71.8949C98.8407 71.9069 98.8689 71.918 98.8973 71.9284C98.9256 71.9388 98.9542 71.9483 98.983 71.9572C99.0118 71.9659 99.0407 71.9739 99.0697 71.9811C99.0988 71.9883 99.128 71.9946 99.1573 72.0002C99.1866 72.0058 99.216 72.0105 99.2454 72.0144C99.2749 72.0183 99.3044 72.0214 99.3339 72.0237C99.3635 72.026 99.393 72.0275 99.4225 72.0281C99.4521 72.0287 99.4816 72.0285 99.5111 72.0275C99.5406 72.0265 99.5701 72.0246 99.5994 72.022C99.6285 72.0196 99.6574 72.0165 99.6863 72.0125C99.7151 72.0085 99.7439 72.0037 99.7725 71.9982C99.8011 71.9926 99.8295 71.9862 99.8578 71.9791C99.8861 71.9719 99.9141 71.964 99.942 71.9552C99.9699 71.9465 99.9976 71.937 100.025 71.9267C100.052 71.9164 100.08 71.9054 100.106 71.8936C100.133 71.8817 100.16 71.8692 100.186 71.8559C100.212 71.8425 100.238 71.8285 100.264 71.8137C100.29 71.799 100.315 71.7835 100.34 71.7673C100.365 71.751 100.389 71.7341 100.413 71.7165C100.437 71.6989 100.461 71.6807 100.484 71.6617C100.508 71.6428 100.531 71.6232 100.553 71.6029C100.575 71.5827 100.597 71.5618 100.619 71.5403C100.64 71.5188 100.661 71.4967 100.681 71.474C100.702 71.4513 100.722 71.428 100.741 71.4042C100.76 71.3803 100.779 71.3559 100.797 71.331C100.814 71.3079 100.831 71.2844 100.846 71.2604C100.862 71.2364 100.877 71.2119 100.892 71.187C100.907 71.1621 100.921 71.1367 100.934 71.1109C100.947 71.0852 100.96 71.059 100.973 71.0325C100.985 71.0059 100.996 70.979 101.007 70.9518C101.018 70.9245 101.029 70.8969 101.039 70.869C101.048 70.8411 101.058 70.8129 101.066 70.7845C101.074 70.756 101.082 70.7273 101.089 70.6983C101.097 70.6693 101.103 70.6401 101.109 70.6108C101.115 70.5814 101.12 70.5518 101.124 70.5221C101.129 70.4923 101.133 70.4625 101.136 70.4325C101.139 70.4025 101.142 70.3724 101.143 70.3422C101.145 70.312 101.146 70.2817 101.147 70.2514C101.147 70.2211 101.147 70.1908 101.146 70.1604C101.145 70.13 101.143 70.0997 101.141 70.0694C101.139 70.0391 101.136 70.0088 101.132 69.9786C101.126 69.9226 101.117 69.8668 101.107 69.8114C101.096 69.7559 101.084 69.701 101.069 69.6465C101.055 69.5921 101.038 69.5384 101.02 69.4854C101.001 69.4323 100.981 69.3801 100.959 69.3288C100.763 68.9986 100.574 68.7921 100.266 68.5965C100.785 68.6602 101.315 68.7488 101.835 68.7578C101.861 68.9652 101.909 69.2086 101.899 69.4151C101.902 69.5089 101.902 69.6026 101.898 69.6961C101.894 69.7896 101.887 69.8826 101.877 69.9753C101.867 70.0679 101.854 70.1599 101.837 70.2512C101.821 70.3424 101.802 70.4327 101.779 70.522C101.585 71.2818 101.137 71.9235 100.513 72.2842C99.7156 72.745 98.52 72.8959 97.6443 72.5663C97.596 72.5477 97.548 72.5278 97.5004 72.5067C97.4528 72.4855 97.4057 72.463 97.359 72.4393C97.3123 72.4156 97.2661 72.3906 97.2204 72.3644C97.1748 72.3382 97.1296 72.3108 97.0851 72.2822C97.0405 72.2535 96.9965 72.2237 96.9532 72.1927C96.9098 72.1617 96.8671 72.1296 96.825 72.0964C96.783 72.0631 96.7417 72.0287 96.701 71.9932C96.6604 71.9578 96.6205 71.9212 96.5814 71.8836C96.5423 71.846 96.504 71.8074 96.4665 71.7678C96.429 71.7281 96.3923 71.6875 96.3565 71.646C96.3206 71.6044 96.2857 71.5619 96.2517 71.5185C96.2176 71.4751 96.1845 71.4308 96.1524 71.3857C96.1202 71.3405 96.089 71.2946 96.0587 71.2478C96.0284 71.201 95.9992 71.1535 95.971 71.1052C95.9427 71.0569 95.9155 71.0079 95.8893 70.9582C95.8631 70.9085 95.838 70.8582 95.814 70.8072C95.4868 70.1023 95.4535 69.2522 95.6587 68.52C95.7219 68.3166 95.7923 68.1115 95.8883 67.9256Z" fill="#FDFCFC"/>
<path d="M95.8883 67.9256C96.8302 67.9315 97.7186 68.0346 98.6511 68.2275C98.4433 68.3492 98.2732 68.4765 98.104 68.6577C97.9494 68.5904 97.7336 68.599 97.5689 68.5899C97.1727 68.5693 96.7766 68.5561 96.3805 68.5501C96.1424 68.5452 95.8952 68.5581 95.6587 68.52C95.7219 68.3166 95.7923 68.1115 95.8883 67.9256Z" fill="#CDC8D8"/>
<path d="M100.266 68.5965C100.785 68.6602 101.315 68.7488 101.835 68.7578C101.861 68.9652 101.909 69.2086 101.899 69.4151L101.878 69.3534C101.872 69.3505 101.866 69.3471 101.86 69.3449C101.759 69.3092 101.037 69.2888 100.959 69.3288C100.763 68.9985 100.574 68.7921 100.266 68.5965Z" fill="#CDC8D8"/>
<path d="M100.141 68.9213C100.205 68.9034 100.277 68.8836 100.344 68.8914C100.448 68.9035 100.551 68.9744 100.613 69.07C100.69 69.1868 100.714 69.3383 100.689 69.4759C100.658 69.6514 100.574 69.7478 100.443 69.8368C100.382 69.846 100.324 69.8522 100.263 69.8382C100.146 69.8116 100.035 69.7255 99.9669 69.6149C99.8998 69.5066 99.87 69.3738 99.8919 69.2463C99.9205 69.0796 100.02 69.0036 100.141 68.9213Z" fill="#FDFCFC"/>
<defs>
<linearGradient id="paint0_linear_179_11704" x1="80.7175" y1="85.0551" x2="108.912" y2="60.1982" gradientUnits="userSpaceOnUse">
<stop stop-color="#958773"/>
<stop offset="1" stop-color="#373535"/>
</linearGradient>
</defs>
</svg>
