<svg width="194" height="86" viewBox="0 0 194 86" fill="none" xmlns="http://www.w3.org/2000/svg">
<mask id="mask0_184_24234" style="mask-type:luminance" maskUnits="userSpaceOnUse" x="35" y="10" width="8" height="15">
<path d="M35.3176 10.2H42.1268V24.2H35.3176V10.2Z" fill="white"/>
</mask>
<g mask="url(#mask0_184_24234)">
<path fill-rule="evenodd" clip-rule="evenodd" d="M59.9158 14.25C60.2373 14.5833 60.5494 15.0167 60.852 15.55C61.741 17.1167 62.1855 19 62.1855 21.2V24.6V44.65V50.75C62.1855 52.9833 61.741 54.8667 60.852 56.4C59.982 57.9667 58.9133 58.75 57.646 58.75H53.8442H42.1551H41.5593C40.311 58.75 39.2423 57.9667 38.3533 56.4L37.6157 54.7C38.2777 55.4 39.0248 55.75 39.857 55.75H42.1551H53.8442H55.9437C57.211 55.75 58.2797 54.9667 59.1497 53.4C60.0387 51.8333 60.4832 49.95 60.4832 47.75V44.65V24.6V18.2C60.4832 16.7333 60.2941 15.4167 59.9158 14.25Z" fill="black" fill-opacity="0.301961"/>
<path fill-rule="evenodd" clip-rule="evenodd" d="M42.1552 52.45H53.8443H55.9154C56.6531 52.45 57.3718 52.0667 58.0716 51.3C58.6958 50.6333 59.2254 49.7333 59.6605 48.6C59.5848 50 59.1592 51.3 58.3837 52.5C57.6082 53.6667 56.7855 54.25 55.9154 54.25H53.8443H42.1552H39.8287C38.7316 54.25 37.8427 53.6667 37.1618 52.5C36.5565 51.4333 36.2066 50.1333 36.112 48.6C36.5281 49.7 37.0577 50.6 37.7008 51.3C38.3817 52.0667 39.091 52.45 39.8287 52.45H42.1552ZM55.9154 16.45H53.8443H42.1552H39.8287C38.9019 16.45 38.098 16.9167 37.4171 17.85C36.7929 18.7167 36.3579 19.8667 36.112 21.3C36.112 18.6667 36.4052 16.45 36.9915 14.65C37.6535 12.5833 38.5992 11.55 39.8287 11.55H42.1552H53.8443H55.9154C57.1827 11.55 58.1946 12.7333 58.9512 15.1C59.5564 17.0333 59.8591 19.1 59.8591 21.3C59.651 20 59.1876 18.8833 58.4688 17.95C57.6934 16.95 56.8422 16.45 55.9154 16.45ZM42.1552 14.2H53.8443H55.8587L56.341 13.9L56.5396 13.2C56.5396 12.9333 56.4734 12.7 56.341 12.5L55.8587 12.2H53.8443H42.1552H39.9705C39.7814 12.2 39.6206 12.3 39.4882 12.5C39.3558 12.7 39.2896 12.9333 39.2896 13.2C39.2896 13.4667 39.3558 13.7 39.4882 13.9L39.9705 14.2H42.1552Z" fill="#FFCB00"/>
<path fill-rule="evenodd" clip-rule="evenodd" d="M37.6157 54.7C37.2752 54.3667 36.9537 53.9333 36.651 53.4C35.7621 51.8333 35.3176 49.95 35.3176 47.75V44.65V24.6V18.2C35.3176 15.9667 35.7621 14.0833 36.651 12.55C37.54 10.9833 38.6087 10.2 39.857 10.2H42.1551H53.8442H55.9437C57.211 10.2 58.2797 10.9833 59.1497 12.55L59.9158 14.25C60.2941 15.4167 60.4832 16.7333 60.4832 18.2V24.6V44.65V47.75C60.4832 49.95 60.0387 51.8333 59.1497 53.4C58.2797 54.9667 57.211 55.75 55.9437 55.75H53.8442H42.1551H39.857C39.0248 55.75 38.2777 55.4 37.6157 54.7ZM55.9154 16.45C56.8422 16.45 57.6933 16.95 58.4688 17.95C59.1876 18.8833 59.651 20 59.859 21.3C59.859 19.1 59.5564 17.0333 58.9511 15.1C58.1946 12.7333 57.1826 11.55 55.9154 11.55H53.8442H42.1551H39.8287C38.5992 11.55 37.6535 12.5833 36.9915 14.65C36.4051 16.45 36.112 18.6667 36.112 21.3C36.3579 19.8667 36.7929 18.7167 37.4171 17.85C38.098 16.9167 38.9018 16.45 39.8287 16.45H42.1551H53.8442H55.9154ZM42.1551 52.45H39.8287C39.091 52.45 38.3817 52.0667 37.7008 51.3C37.0577 50.6 36.5281 49.7 36.112 48.6C36.2065 50.1333 36.5565 51.4333 37.1617 52.5C37.8426 53.6667 38.7316 54.25 39.8287 54.25H42.1551H53.8442H55.9154C56.7854 54.25 57.6082 53.6667 58.3837 52.5C59.1592 51.3 59.5848 50 59.6604 48.6C59.2254 49.7333 58.6958 50.6333 58.0716 51.3C57.3718 52.0667 56.653 52.45 55.9154 52.45H53.8442H42.1551Z" fill="#FFBA42"/>
<path fill-rule="evenodd" clip-rule="evenodd" d="M42.1551 14.2H39.9705L39.4882 13.9C39.3558 13.7 39.2896 13.4667 39.2896 13.2C39.2896 12.9333 39.3558 12.7 39.4882 12.5C39.6206 12.3 39.7814 12.2 39.9705 12.2H42.1551H53.8443H55.8586L56.341 12.5C56.4734 12.7 56.5396 12.9333 56.5396 13.2L56.341 13.9L55.8586 14.2H53.8443H42.1551Z" fill="white"/>
</g>
<mask id="mask1_184_24234" style="mask-type:luminance" maskUnits="userSpaceOnUse" x="35" y="64" width="8" height="16">
<path d="M35.3176 64.6503H42.1268V79.6503H35.3176V64.6503Z" fill="white"/>
</mask>
<g mask="url(#mask1_184_24234)">
<path fill-rule="evenodd" clip-rule="evenodd" d="M59.9158 34.7003C60.2373 35.0337 60.5494 35.467 60.852 36.0003C61.741 37.567 62.1855 39.4503 62.1855 41.6503V45.0503V65.1003V71.2003C62.1855 73.4337 61.741 75.317 60.852 76.8503C59.982 78.417 58.9133 79.2003 57.646 79.2003H53.8442H42.1551H41.5593C40.311 79.2003 39.2423 78.417 38.3533 76.8503L37.6157 75.1503C38.2777 75.8503 39.0248 76.2003 39.857 76.2003H42.1551H53.8442H55.9437C57.211 76.2003 58.2797 75.417 59.1497 73.8503C60.0387 72.2837 60.4832 70.4003 60.4832 68.2003V65.1003V45.0503V38.6503C60.4832 37.1837 60.2941 35.867 59.9158 34.7003Z" fill="black" fill-opacity="0.301961"/>
<path fill-rule="evenodd" clip-rule="evenodd" d="M42.1552 72.9003H53.8443H55.9154C56.6531 72.9003 57.3718 72.517 58.0716 71.7503C58.6958 71.0836 59.2254 70.1836 59.6605 69.0503C59.5848 70.4503 59.1592 71.7503 58.3837 72.9503C57.6082 74.117 56.7855 74.7003 55.9154 74.7003H53.8443H42.1552H39.8287C38.7316 74.7003 37.8427 74.117 37.1618 72.9503C36.5565 71.8836 36.2066 70.5836 36.112 69.0503C36.5281 70.1503 37.0577 71.0503 37.7008 71.7503C38.3817 72.517 39.091 72.9003 39.8287 72.9003H42.1552ZM55.9154 36.9003H53.8443H42.1552H39.8287C38.9019 36.9003 38.098 37.367 37.4171 38.3003C36.7929 39.167 36.3579 40.317 36.112 41.7503C36.112 39.117 36.4052 36.9003 36.9915 35.1003C37.6535 33.0336 38.5992 32.0003 39.8287 32.0003H42.1552H53.8443H55.9154C57.1827 32.0003 58.1946 33.1836 58.9512 35.5503C59.5564 37.4836 59.8591 39.5503 59.8591 41.7503C59.651 40.4503 59.1876 39.3336 58.4688 38.4003C57.6934 37.4003 56.8422 36.9003 55.9154 36.9003ZM42.1552 34.6503H53.8443H55.8587L56.341 34.3503L56.5396 33.6503C56.5396 33.3836 56.4734 33.1503 56.341 32.9503L55.8587 32.6503H53.8443H42.1552H39.9705C39.7814 32.6503 39.6206 32.7503 39.4882 32.9503C39.3558 33.1503 39.2896 33.3836 39.2896 33.6503C39.2896 33.917 39.3558 34.1503 39.4882 34.3503L39.9705 34.6503H42.1552Z" fill="#FFCB00"/>
<path fill-rule="evenodd" clip-rule="evenodd" d="M37.6157 75.1503C37.2752 74.817 36.9537 74.3837 36.651 73.8503C35.7621 72.2837 35.3176 70.4003 35.3176 68.2003V65.1003V45.0503V38.6503C35.3176 36.417 35.7621 34.5337 36.651 33.0003C37.54 31.4337 38.6087 30.6503 39.857 30.6503H42.1551H53.8442H55.9437C57.211 30.6503 58.2797 31.4337 59.1497 33.0003L59.9158 34.7003C60.2941 35.867 60.4832 37.1837 60.4832 38.6503V45.0503V65.1003V68.2003C60.4832 70.4003 60.0387 72.2837 59.1497 73.8503C58.2797 75.417 57.211 76.2003 55.9437 76.2003H53.8442H42.1551H39.857C39.0248 76.2003 38.2777 75.8503 37.6157 75.1503ZM55.9154 36.9003C56.8422 36.9003 57.6933 37.4003 58.4688 38.4003C59.1876 39.3337 59.651 40.4503 59.859 41.7503C59.859 39.5503 59.5564 37.4837 58.9511 35.5503C58.1946 33.1837 57.1826 32.0003 55.9154 32.0003H53.8442H42.1551H39.8287C38.5992 32.0003 37.6535 33.0337 36.9915 35.1003C36.4051 36.9003 36.112 39.117 36.112 41.7503C36.3579 40.317 36.7929 39.167 37.4171 38.3003C38.098 37.367 38.9018 36.9003 39.8287 36.9003H42.1551H53.8442H55.9154ZM42.1551 72.9003H39.8287C39.091 72.9003 38.3817 72.517 37.7008 71.7503C37.0577 71.0503 36.5281 70.1503 36.112 69.0503C36.2065 70.5837 36.5565 71.8837 37.1617 72.9503C37.8426 74.117 38.7316 74.7003 39.8287 74.7003H42.1551H53.8442H55.9154C56.7854 74.7003 57.6082 74.117 58.3837 72.9503C59.1592 71.7503 59.5848 70.4503 59.6604 69.0503C59.2254 70.1837 58.6958 71.0837 58.0716 71.7503C57.3718 72.517 56.653 72.9003 55.9154 72.9003H53.8442H42.1551Z" fill="#FFBA42"/>
</g>
<mask id="mask2_184_24234" style="mask-type:luminance" maskUnits="userSpaceOnUse" x="186" y="10" width="8" height="15">
<path d="M186.056 10.2H194V24.2H186.056V10.2Z" fill="white"/>
</mask>
<g mask="url(#mask2_184_24234)">
<path fill-rule="evenodd" clip-rule="evenodd" d="M191.929 14.25C192.25 14.5833 192.563 15.0167 192.865 15.55C193.754 17.1167 194.199 19 194.199 21.2V24.6V44.65V50.75C194.199 52.9833 193.754 54.8667 192.865 56.4C191.995 57.9667 190.926 58.75 189.659 58.75H185.857H174.168H173.572C172.324 58.75 171.255 57.9667 170.366 56.4L169.629 54.7C170.291 55.4 171.038 55.75 171.87 55.75H174.168H185.857H187.957C189.224 55.75 190.293 54.9667 191.163 53.4C192.052 51.8333 192.496 49.95 192.496 47.75V44.65V24.6V18.2C192.496 16.7333 192.307 15.4167 191.929 14.25Z" fill="black" fill-opacity="0.301961"/>
<path fill-rule="evenodd" clip-rule="evenodd" d="M174.168 52.45H185.857H187.929C188.666 52.45 189.385 52.0667 190.085 51.3C190.709 50.6333 191.239 49.7333 191.674 48.6C191.598 50 191.172 51.3 190.397 52.5C189.621 53.6667 188.799 54.25 187.929 54.25H185.857H174.168H171.842C170.745 54.25 169.856 53.6667 169.175 52.5C168.57 51.4333 168.22 50.1333 168.125 48.6C168.541 49.7 169.071 50.6 169.714 51.3C170.395 52.0667 171.104 52.45 171.842 52.45H174.168ZM187.929 16.45H185.857H174.168H171.842C170.915 16.45 170.111 16.9167 169.43 17.85C168.806 18.7167 168.371 19.8667 168.125 21.3C168.125 18.6667 168.418 16.45 169.005 14.65C169.667 12.5833 170.612 11.55 171.842 11.55H174.168H185.857H187.929C189.196 11.55 190.208 12.7333 190.964 15.1C191.57 17.0333 191.872 19.1 191.872 21.3C191.664 20 191.201 18.8833 190.482 17.95C189.706 16.95 188.855 16.45 187.929 16.45ZM174.168 14.2H185.857H187.872L188.354 13.9L188.553 13.2C188.553 12.9333 188.486 12.7 188.354 12.5L187.872 12.2H185.857H174.168H171.984C171.795 12.2 171.634 12.3 171.501 12.5C171.369 12.7 171.303 12.9333 171.303 13.2C171.303 13.4667 171.369 13.7 171.501 13.9L171.984 14.2H174.168Z" fill="#FFCB00"/>
<path fill-rule="evenodd" clip-rule="evenodd" d="M169.629 54.7C169.288 54.3667 168.967 53.9333 168.664 53.4C167.775 51.8333 167.331 49.95 167.331 47.75V44.65V24.6V18.2C167.331 15.9667 167.775 14.0833 168.664 12.55C169.553 10.9833 170.622 10.2 171.87 10.2H174.168H185.857H187.957C189.224 10.2 190.293 10.9833 191.163 12.55L191.929 14.25C192.307 15.4167 192.496 16.7333 192.496 18.2V24.6V44.65V47.75C192.496 49.95 192.052 51.8333 191.163 53.4C190.293 54.9667 189.224 55.75 187.957 55.75H185.857H174.168H171.87C171.038 55.75 170.291 55.4 169.629 54.7ZM187.928 16.45C188.855 16.45 189.706 16.95 190.482 17.95C191.201 18.8833 191.664 20 191.872 21.3C191.872 19.1 191.57 17.0333 190.964 15.1C190.208 12.7333 189.196 11.55 187.928 11.55H185.857H174.168H171.842C170.612 11.55 169.667 12.5833 169.005 14.65C168.418 16.45 168.125 18.6667 168.125 21.3C168.371 19.8667 168.806 18.7167 169.43 17.85C170.111 16.9167 170.915 16.45 171.842 16.45H174.168H185.857H187.928ZM174.168 52.45H171.842C171.104 52.45 170.395 52.0667 169.714 51.3C169.071 50.6 168.541 49.7 168.125 48.6C168.22 50.1333 168.57 51.4333 169.175 52.5C169.856 53.6667 170.745 54.25 171.842 54.25H174.168H185.857H187.928C188.799 54.25 189.621 53.6667 190.397 52.5C191.172 51.3 191.598 50 191.674 48.6C191.239 49.7333 190.709 50.6333 190.085 51.3C189.385 52.0667 188.666 52.45 187.928 52.45H185.857H174.168Z" fill="#FFBA42"/>
<path fill-rule="evenodd" clip-rule="evenodd" d="M174.168 14.2H171.984L171.501 13.9C171.369 13.7 171.303 13.4667 171.303 13.2C171.303 12.9333 171.369 12.7 171.501 12.5C171.634 12.3 171.795 12.2 171.984 12.2H174.168H185.857H187.872L188.354 12.5C188.486 12.7 188.553 12.9333 188.553 13.2L188.354 13.9L187.872 14.2H185.857H174.168Z" fill="white"/>
</g>
<mask id="mask3_184_24234" style="mask-type:luminance" maskUnits="userSpaceOnUse" x="186" y="64" width="8" height="16">
<path d="M186.056 64.6503H194V79.6503H186.056V64.6503Z" fill="white"/>
</mask>
<g mask="url(#mask3_184_24234)">
<path fill-rule="evenodd" clip-rule="evenodd" d="M191.929 34.7003C192.25 35.0337 192.563 35.467 192.865 36.0003C193.754 37.567 194.199 39.4503 194.199 41.6503V45.0503V65.1003V71.2003C194.199 73.4337 193.754 75.317 192.865 76.8503C191.995 78.417 190.926 79.2003 189.659 79.2003H185.857H174.168H173.572C172.324 79.2003 171.255 78.417 170.366 76.8503L169.629 75.1503C170.291 75.8503 171.038 76.2003 171.87 76.2003H174.168H185.857H187.957C189.224 76.2003 190.293 75.417 191.163 73.8503C192.052 72.2837 192.496 70.4003 192.496 68.2003V65.1003V45.0503V38.6503C192.496 37.1837 192.307 35.867 191.929 34.7003Z" fill="black" fill-opacity="0.301961"/>
<path fill-rule="evenodd" clip-rule="evenodd" d="M174.168 72.9003H185.857H187.929C188.666 72.9003 189.385 72.517 190.085 71.7503C190.709 71.0836 191.239 70.1836 191.674 69.0503C191.598 70.4503 191.172 71.7503 190.397 72.9503C189.621 74.117 188.799 74.7003 187.929 74.7003H185.857H174.168H171.842C170.745 74.7003 169.856 74.117 169.175 72.9503C168.57 71.8836 168.22 70.5836 168.125 69.0503C168.541 70.1503 169.071 71.0503 169.714 71.7503C170.395 72.517 171.104 72.9003 171.842 72.9003H174.168ZM187.929 36.9003H185.857H174.168H171.842C170.915 36.9003 170.111 37.367 169.43 38.3003C168.806 39.167 168.371 40.317 168.125 41.7503C168.125 39.117 168.418 36.9003 169.005 35.1003C169.667 33.0336 170.612 32.0003 171.842 32.0003H174.168H185.857H187.929C189.196 32.0003 190.208 33.1836 190.964 35.5503C191.57 37.4836 191.872 39.5503 191.872 41.7503C191.664 40.4503 191.201 39.3336 190.482 38.4003C189.706 37.4003 188.855 36.9003 187.929 36.9003ZM174.168 34.6503H185.857H187.872L188.354 34.3503L188.553 33.6503C188.553 33.3836 188.486 33.1503 188.354 32.9503L187.872 32.6503H185.857H174.168H171.984C171.795 32.6503 171.634 32.7503 171.501 32.9503C171.369 33.1503 171.303 33.3836 171.303 33.6503C171.303 33.917 171.369 34.1503 171.501 34.3503L171.984 34.6503H174.168Z" fill="#FFCB00"/>
<path fill-rule="evenodd" clip-rule="evenodd" d="M169.629 75.1503C169.288 74.817 168.967 74.3837 168.664 73.8503C167.775 72.2837 167.331 70.4003 167.331 68.2003V65.1003V45.0503V38.6503C167.331 36.417 167.775 34.5337 168.664 33.0003C169.553 31.4337 170.622 30.6503 171.87 30.6503H174.168H185.857H187.957C189.224 30.6503 190.293 31.4337 191.163 33.0003L191.929 34.7003C192.307 35.867 192.496 37.1837 192.496 38.6503V45.0503V65.1003V68.2003C192.496 70.4003 192.052 72.2837 191.163 73.8503C190.293 75.417 189.224 76.2003 187.957 76.2003H185.857H174.168H171.87C171.038 76.2003 170.291 75.8503 169.629 75.1503ZM187.928 36.9003C188.855 36.9003 189.706 37.4003 190.482 38.4003C191.201 39.3337 191.664 40.4503 191.872 41.7503C191.872 39.5503 191.57 37.4837 190.964 35.5503C190.208 33.1837 189.196 32.0003 187.928 32.0003H185.857H174.168H171.842C170.612 32.0003 169.667 33.0337 169.005 35.1003C168.418 36.9003 168.125 39.117 168.125 41.7503C168.371 40.317 168.806 39.167 169.43 38.3003C170.111 37.367 170.915 36.9003 171.842 36.9003H174.168H185.857H187.928ZM174.168 72.9003H171.842C171.104 72.9003 170.395 72.517 169.714 71.7503C169.071 71.0503 168.541 70.1503 168.125 69.0503C168.22 70.5837 168.57 71.8837 169.175 72.9503C169.856 74.117 170.745 74.7003 171.842 74.7003H174.168H185.857H187.928C188.799 74.7003 189.621 74.117 190.397 72.9503C191.172 71.7503 191.598 70.4503 191.674 69.0503C191.239 70.1837 190.709 71.0837 190.085 71.7503C189.385 72.517 188.666 72.9003 187.928 72.9003H185.857H174.168Z" fill="#FFBA42"/>
</g>
<mask id="mask4_184_24234" style="mask-type:luminance" maskUnits="userSpaceOnUse" x="41" y="10" width="148" height="15">
<path d="M41.483 10.2H188.632V24.2H41.483V10.2Z" fill="white"/>
</mask>
<g mask="url(#mask4_184_24234)">
<path fill-rule="evenodd" clip-rule="evenodd" d="M261.156 14.25C265.127 14.5833 268.981 15.0167 272.718 15.55C283.695 17.1167 289.184 19 289.184 21.2V24.6V44.65V50.75C289.184 52.9833 283.695 54.8667 272.718 56.4C261.973 57.9667 248.777 58.75 233.127 58.75H186.18H41.8333H34.4759C19.0602 58.75 5.86348 57.9667 -5.11433 56.4L-14.2236 54.7C-6.04861 55.4 3.17742 55.75 13.4545 55.75H41.8333H186.18H212.106C227.755 55.75 240.952 54.9667 251.696 53.4C262.674 51.8333 268.163 49.95 268.163 47.75V44.65V24.6V18.2C268.163 16.7333 265.827 15.4167 261.156 14.25Z" fill="black" fill-opacity="0.301961"/>
<path fill-rule="evenodd" clip-rule="evenodd" d="M41.8333 52.45H186.18H211.756C220.865 52.45 229.741 52.0667 238.383 51.3C246.091 50.6333 252.631 49.7333 258.003 48.6C257.068 50 251.813 51.3 242.237 52.5C232.66 53.6667 222.5 54.25 211.756 54.25H186.18H41.8333H13.1042C-0.442921 54.25 -11.4207 53.6667 -19.8293 52.5C-27.3035 51.4333 -31.6246 50.1333 -32.7924 48.6C-27.6539 49.7 -21.1139 50.6 -13.1725 51.3C-4.76397 52.0667 3.99492 52.45 13.1042 52.45H41.8333ZM211.756 16.45H186.18H41.8333H13.1042C1.65921 16.45 -8.26752 16.9167 -16.6761 17.85C-24.3839 18.7167 -29.756 19.8667 -32.7924 21.3C-32.7924 18.6667 -29.1721 16.45 -21.9314 14.65C-13.7564 12.5833 -2.07792 11.55 13.1042 11.55H41.8333H186.18H211.756C227.405 11.55 239.901 12.7333 249.244 15.1C256.718 17.0333 260.455 19.1 260.455 21.3C257.886 20 252.163 18.8833 243.288 17.95C233.711 16.95 223.201 16.45 211.756 16.45ZM41.8333 14.2H186.18H211.055L217.011 13.9L219.464 13.2C219.464 12.9333 218.646 12.7 217.011 12.5L211.055 12.2H186.18H41.8333H14.8559C12.5202 12.2 10.5349 12.3 8.89989 12.5C7.2649 12.7 6.44741 12.9333 6.44741 13.2C6.44741 13.4667 7.2649 13.7 8.89989 13.9L14.8559 14.2H41.8333Z" fill="#FFCB00"/>
<path fill-rule="evenodd" clip-rule="evenodd" d="M-14.2236 54.7C-18.4279 54.3667 -22.3986 53.9333 -26.1357 53.4C-37.1135 51.8333 -42.6024 49.95 -42.6024 47.75V44.65V24.6V18.2C-42.6024 15.9667 -37.1135 14.0833 -26.1357 12.55C-15.1579 10.9833 -1.96116 10.2 13.4545 10.2H41.8333H186.18H212.106C227.755 10.2 240.952 10.9833 251.696 12.55L261.156 14.25C265.827 15.4167 268.163 16.7333 268.163 18.2V24.6V44.65V47.75C268.163 49.95 262.674 51.8333 251.696 53.4C240.952 54.9667 227.755 55.75 212.106 55.75H186.18H41.8333H13.4545C3.17739 55.75 -6.04865 55.4 -14.2236 54.7ZM211.756 16.45C223.201 16.45 233.711 16.95 243.288 17.95C252.163 18.8833 257.886 20 260.455 21.3C260.455 19.1 256.718 17.0333 249.244 15.1C239.901 12.7333 227.405 11.55 211.756 11.55H186.18H41.8333H13.1041C-2.07795 11.55 -13.7565 12.5833 -21.9314 14.65C-29.1721 16.45 -32.7925 18.6667 -32.7925 21.3C-29.756 19.8667 -24.3839 18.7167 -16.6761 17.85C-8.26756 16.9167 1.65918 16.45 13.1041 16.45H41.8333H186.18H211.756ZM41.8333 52.45H13.1041C3.99488 52.45 -4.76401 52.0667 -13.1725 51.3C-21.1139 50.6 -27.6539 49.7 -32.7925 48.6C-31.6246 50.1333 -27.3036 51.4333 -19.8293 52.5C-11.4208 53.6667 -0.442955 54.25 13.1041 54.25H41.8333H186.18H211.756C222.5 54.25 232.66 53.6667 242.237 52.5C251.813 51.3 257.068 50 258.003 48.6C252.631 49.7333 246.091 50.6333 238.383 51.3C229.741 52.0667 220.865 52.45 211.756 52.45H186.18H41.8333Z" fill="#FFBA42"/>
<path fill-rule="evenodd" clip-rule="evenodd" d="M41.8334 14.2H14.856L8.89994 13.9C7.26494 13.7 6.44745 13.4667 6.44745 13.2C6.44745 12.9333 7.26494 12.7 8.89994 12.5C10.5349 12.3 12.5203 12.2 14.856 12.2H41.8334H186.18H211.055L217.011 12.5C218.646 12.7 219.464 12.9333 219.464 13.2L217.011 13.9L211.055 14.2H186.18H41.8334Z" fill="white"/>
</g>
<mask id="mask5_184_24234" style="mask-type:luminance" maskUnits="userSpaceOnUse" x="35" y="23" width="8" height="43">
<path d="M35.3176 23.7161H42.1268V65.2201H35.3176V23.7161Z" fill="white"/>
</mask>
<g mask="url(#mask5_184_24234)">
<path fill-rule="evenodd" clip-rule="evenodd" d="M59.9158 3.06787C60.2373 3.7596 60.5494 4.65886 60.852 5.76563C61.741 9.01678 62.1855 12.9251 62.1855 17.4905V24.5462V66.1539V78.8127C62.1855 83.4473 61.741 87.3556 60.852 90.5375C59.982 93.7887 58.9133 95.4143 57.646 95.4143H53.8442H42.1551H41.5593C40.311 95.4143 39.2423 93.7887 38.3533 90.5375L37.6157 87.0097C38.2777 88.4623 39.0248 89.1887 39.857 89.1887H42.1551H53.8442H55.9437C57.211 89.1887 58.2797 87.5631 59.1497 84.312C60.0387 81.0608 60.4832 77.1525 60.4832 72.5871V66.1539V24.5462V11.2649C60.4832 8.22128 60.2941 5.48894 59.9158 3.06787Z" fill="black" fill-opacity="0.301961"/>
<path fill-rule="evenodd" clip-rule="evenodd" d="M42.1552 82.3405H53.8443H55.9154C56.6531 82.3405 57.3718 81.545 58.0716 79.954C58.6958 78.5706 59.2254 76.7029 59.6605 74.351C59.5848 77.2563 59.1592 79.954 58.3837 82.4443C57.6082 84.8653 56.7855 86.0759 55.9154 86.0759H53.8443H42.1552H39.8287C38.7316 86.0759 37.8427 84.8653 37.1618 82.4443C36.5565 80.2307 36.2066 77.533 36.112 74.351C36.5281 76.6337 37.0577 78.5014 37.7008 79.954C38.3817 81.545 39.091 82.3405 39.8287 82.3405H42.1552ZM55.9154 7.63332H53.8443H42.1552H39.8287C38.9019 7.63332 38.098 8.60175 37.4171 10.5386C36.7929 12.3371 36.3579 14.7236 36.112 17.698C36.112 12.2333 36.4052 7.63332 36.9915 3.89796C37.6535 -0.390783 38.5992 -2.53516 39.8287 -2.53516H42.1552H53.8443H55.9154C57.1827 -2.53516 58.1946 -0.0795026 58.9512 4.8318C59.5564 8.84386 59.8591 13.1326 59.8591 17.698C59.651 15.0003 59.1876 12.683 58.4688 10.7461C57.6934 8.67092 56.8422 7.63332 55.9154 7.63332ZM42.1552 2.96412H53.8443H55.8587L56.341 2.34156L56.5396 0.888923C56.5396 0.335537 56.4734 -0.148677 56.341 -0.563717L55.8587 -1.18628H53.8443H42.1552H39.9705C39.7814 -1.18628 39.6206 -0.978757 39.4882 -0.563717C39.3558 -0.148677 39.2896 0.335537 39.2896 0.888923C39.2896 1.44231 39.3558 1.92652 39.4882 2.34156L39.9705 2.96412H42.1552Z" fill="#FFCB00"/>
<path fill-rule="evenodd" clip-rule="evenodd" d="M37.6157 87.0097C37.2752 86.318 36.9537 85.4187 36.651 84.312C35.7621 81.0608 35.3176 77.1525 35.3176 72.5871V66.154V24.5462V11.2649C35.3176 6.63032 35.7621 2.72202 36.651 -0.45995C37.54 -3.7111 38.6087 -5.33667 39.857 -5.33667H42.1551H53.8442H55.9437C57.211 -5.33667 58.2797 -3.7111 59.1497 -0.45995L59.9158 3.06789C60.2941 5.48896 60.4832 8.2213 60.4832 11.2649V24.5462V66.154V72.5871C60.4832 77.1525 60.0387 81.0608 59.1497 84.312C58.2797 87.5631 57.211 89.1887 55.9437 89.1887H53.8442H42.1551H39.857C39.0248 89.1887 38.2777 88.4624 37.6157 87.0097ZM55.9154 7.63333C56.8422 7.63333 57.6933 8.67093 58.4688 10.7461C59.1876 12.683 59.651 15.0003 59.859 17.6981C59.859 13.1326 59.5564 8.84386 58.9511 4.83181C58.1946 -0.0794959 57.1826 -2.53515 55.9154 -2.53515H53.8442H42.1551H39.8287C38.5992 -2.53515 37.6535 -0.390777 36.9915 3.89797C36.4051 7.63333 36.112 12.2334 36.112 17.6981C36.3579 14.7236 36.7929 12.3371 37.4171 10.5386C38.098 8.60176 38.9018 7.63333 39.8287 7.63333H42.1551H53.8442H55.9154ZM42.1551 82.3405H39.8287C39.091 82.3405 38.3817 81.545 37.7008 79.954C37.0577 78.5014 36.5281 76.6337 36.112 74.351C36.2065 77.533 36.5565 80.2307 37.1617 82.4443C37.8426 84.8654 38.7316 86.0759 39.8287 86.0759H42.1551H53.8442H55.9154C56.7854 86.0759 57.6082 84.8654 58.3837 82.4443C59.1592 79.954 59.5848 77.2563 59.6604 74.351C59.2254 76.7029 58.6958 78.5706 58.0716 79.954C57.3718 81.545 56.653 82.3405 55.9154 82.3405H53.8442H42.1551Z" fill="#FFBA42"/>
</g>
<mask id="mask6_184_24234" style="mask-type:luminance" maskUnits="userSpaceOnUse" x="41" y="64" width="148" height="16">
<path d="M41.483 64.6503H188.632V79.6503H41.483V64.6503Z" fill="white"/>
</mask>
<g mask="url(#mask6_184_24234)">
<path fill-rule="evenodd" clip-rule="evenodd" d="M261.156 34.7003C265.127 35.0337 268.981 35.467 272.718 36.0003C283.695 37.567 289.184 39.4503 289.184 41.6503V45.0503V65.1003V71.2003C289.184 73.4337 283.695 75.317 272.718 76.8503C261.973 78.417 248.777 79.2003 233.127 79.2003H186.18H41.8333H34.4759C19.0602 79.2003 5.86348 78.417 -5.11433 76.8503L-14.2236 75.1503C-6.04861 75.8503 3.17742 76.2003 13.4545 76.2003H41.8333H186.18H212.106C227.755 76.2003 240.952 75.417 251.696 73.8503C262.674 72.2837 268.163 70.4003 268.163 68.2003V65.1003V45.0503V38.6503C268.163 37.1837 265.827 35.867 261.156 34.7003Z" fill="black" fill-opacity="0.301961"/>
<path fill-rule="evenodd" clip-rule="evenodd" d="M41.8333 72.9003H186.18H211.756C220.865 72.9003 229.741 72.517 238.383 71.7503C246.091 71.0836 252.631 70.1836 258.003 69.0503C257.068 70.4503 251.813 71.7503 242.237 72.9503C232.66 74.117 222.5 74.7003 211.756 74.7003H186.18H41.8333H13.1042C-0.442921 74.7003 -11.4207 74.117 -19.8293 72.9503C-27.3035 71.8836 -31.6246 70.5836 -32.7924 69.0503C-27.6539 70.1503 -21.1139 71.0503 -13.1725 71.7503C-4.76397 72.517 3.99492 72.9003 13.1042 72.9003H41.8333ZM211.756 36.9003H186.18H41.8333H13.1042C1.65921 36.9003 -8.26752 37.367 -16.6761 38.3003C-24.3839 39.167 -29.756 40.317 -32.7924 41.7503C-32.7924 39.117 -29.1721 36.9003 -21.9314 35.1003C-13.7564 33.0336 -2.07792 32.0003 13.1042 32.0003H41.8333H186.18H211.756C227.405 32.0003 239.901 33.1836 249.244 35.5503C256.718 37.4836 260.455 39.5503 260.455 41.7503C257.886 40.4503 252.163 39.3336 243.288 38.4003C233.711 37.4003 223.201 36.9003 211.756 36.9003ZM41.8333 34.6503H186.18H211.055L217.011 34.3503L219.464 33.6503C219.464 33.3836 218.646 33.1503 217.011 32.9503L211.055 32.6503H186.18H41.8333H14.8559C12.5202 32.6503 10.5349 32.7503 8.89989 32.9503C7.2649 33.1503 6.44741 33.3836 6.44741 33.6503C6.44741 33.917 7.2649 34.1503 8.89989 34.3503L14.8559 34.6503H41.8333Z" fill="#FFCB00"/>
<path fill-rule="evenodd" clip-rule="evenodd" d="M-14.2236 75.1503C-18.4279 74.817 -22.3986 74.3837 -26.1357 73.8503C-37.1135 72.2837 -42.6024 70.4003 -42.6024 68.2003V65.1003V45.0503V38.6503C-42.6024 36.417 -37.1135 34.5337 -26.1357 33.0003C-15.1579 31.4337 -1.96116 30.6503 13.4545 30.6503H41.8333H186.18H212.106C227.755 30.6503 240.952 31.4337 251.696 33.0003L261.156 34.7003C265.827 35.867 268.163 37.1837 268.163 38.6503V45.0503V65.1003V68.2003C268.163 70.4003 262.674 72.2837 251.696 73.8503C240.952 75.417 227.755 76.2003 212.106 76.2003H186.18H41.8333H13.4545C3.17739 76.2003 -6.04865 75.8503 -14.2236 75.1503ZM211.756 36.9003C223.201 36.9003 233.711 37.4003 243.288 38.4003C252.163 39.3337 257.886 40.4503 260.455 41.7503C260.455 39.5503 256.718 37.4837 249.244 35.5503C239.901 33.1837 227.405 32.0003 211.756 32.0003H186.18H41.8333H13.1041C-2.07795 32.0003 -13.7565 33.0337 -21.9314 35.1003C-29.1721 36.9003 -32.7925 39.117 -32.7925 41.7503C-29.756 40.317 -24.3839 39.167 -16.6761 38.3003C-8.26756 37.367 1.65918 36.9003 13.1041 36.9003H41.8333H186.18H211.756ZM41.8333 72.9003H13.1041C3.99488 72.9003 -4.76401 72.517 -13.1725 71.7503C-21.1139 71.0503 -27.6539 70.1503 -32.7925 69.0503C-31.6246 70.5837 -27.3036 71.8837 -19.8293 72.9503C-11.4208 74.117 -0.442955 74.7003 13.1041 74.7003H41.8333H186.18H211.756C222.5 74.7003 232.66 74.117 242.237 72.9503C251.813 71.7503 257.068 70.4503 258.003 69.0503C252.631 70.1837 246.091 71.0837 238.383 71.7503C229.741 72.517 220.865 72.9003 211.756 72.9003H186.18H41.8333Z" fill="#FFBA42"/>
</g>
<mask id="mask7_184_24234" style="mask-type:luminance" maskUnits="userSpaceOnUse" x="186" y="23" width="8" height="43">
<path d="M186.056 23.7161H194V65.2201H186.056V23.7161Z" fill="white"/>
</mask>
<g mask="url(#mask7_184_24234)">
<path fill-rule="evenodd" clip-rule="evenodd" d="M191.929 3.06787C192.25 3.7596 192.563 4.65886 192.865 5.76563C193.754 9.01678 194.199 12.9251 194.199 17.4905V24.5462V66.1539V78.8127C194.199 83.4473 193.754 87.3556 192.865 90.5375C191.995 93.7887 190.926 95.4143 189.659 95.4143H185.857H174.168H173.572C172.324 95.4143 171.255 93.7887 170.366 90.5375L169.629 87.0097C170.291 88.4623 171.038 89.1887 171.87 89.1887H174.168H185.857H187.957C189.224 89.1887 190.293 87.5631 191.163 84.312C192.052 81.0608 192.496 77.1525 192.496 72.5871V66.1539V24.5462V11.2649C192.496 8.22128 192.307 5.48894 191.929 3.06787Z" fill="black" fill-opacity="0.301961"/>
<path fill-rule="evenodd" clip-rule="evenodd" d="M174.168 82.3405H185.857H187.929C188.666 82.3405 189.385 81.545 190.085 79.954C190.709 78.5706 191.239 76.7029 191.674 74.351C191.598 77.2563 191.172 79.954 190.397 82.4443C189.621 84.8653 188.799 86.0759 187.929 86.0759H185.857H174.168H171.842C170.745 86.0759 169.856 84.8653 169.175 82.4443C168.57 80.2307 168.22 77.533 168.125 74.351C168.541 76.6337 169.071 78.5014 169.714 79.954C170.395 81.545 171.104 82.3405 171.842 82.3405H174.168ZM187.929 7.63332H185.857H174.168H171.842C170.915 7.63332 170.111 8.60175 169.43 10.5386C168.806 12.3371 168.371 14.7236 168.125 17.698C168.125 12.2333 168.418 7.63332 169.005 3.89796C169.667 -0.390783 170.612 -2.53516 171.842 -2.53516H174.168H185.857H187.929C189.196 -2.53516 190.208 -0.0795026 190.964 4.8318C191.57 8.84386 191.872 13.1326 191.872 17.698C191.664 15.0003 191.201 12.683 190.482 10.7461C189.706 8.67092 188.855 7.63332 187.929 7.63332ZM174.168 2.96412H185.857H187.872L188.354 2.34156L188.553 0.888923C188.553 0.335537 188.486 -0.148677 188.354 -0.563717L187.872 -1.18628H185.857H174.168H171.984C171.795 -1.18628 171.634 -0.978757 171.501 -0.563717C171.369 -0.148677 171.303 0.335537 171.303 0.888923C171.303 1.44231 171.369 1.92652 171.501 2.34156L171.984 2.96412H174.168Z" fill="#FFCB00"/>
<path fill-rule="evenodd" clip-rule="evenodd" d="M169.629 87.0097C169.288 86.318 168.967 85.4187 168.664 84.312C167.775 81.0608 167.331 77.1525 167.331 72.5871V66.154V24.5462V11.2649C167.331 6.63032 167.775 2.72202 168.664 -0.45995C169.553 -3.7111 170.622 -5.33667 171.87 -5.33667H174.168H185.857H187.957C189.224 -5.33667 190.293 -3.7111 191.163 -0.45995L191.929 3.06789C192.307 5.48896 192.496 8.2213 192.496 11.2649V24.5462V66.154V72.5871C192.496 77.1525 192.052 81.0608 191.163 84.312C190.293 87.5631 189.224 89.1887 187.957 89.1887H185.857H174.168H171.87C171.038 89.1887 170.291 88.4624 169.629 87.0097ZM187.928 7.63333C188.855 7.63333 189.706 8.67093 190.482 10.7461C191.201 12.683 191.664 15.0003 191.872 17.6981C191.872 13.1326 191.57 8.84386 190.964 4.83181C190.208 -0.0794959 189.196 -2.53515 187.928 -2.53515H185.857H174.168H171.842C170.612 -2.53515 169.667 -0.390777 169.005 3.89797C168.418 7.63333 168.125 12.2334 168.125 17.6981C168.371 14.7236 168.806 12.3371 169.43 10.5386C170.111 8.60176 170.915 7.63333 171.842 7.63333H174.168H185.857H187.928ZM174.168 82.3405H171.842C171.104 82.3405 170.395 81.545 169.714 79.954C169.071 78.5014 168.541 76.6337 168.125 74.351C168.22 77.533 168.57 80.2307 169.175 82.4443C169.856 84.8654 170.745 86.0759 171.842 86.0759H174.168H185.857H187.928C188.799 86.0759 189.621 84.8654 190.397 82.4443C191.172 79.954 191.598 77.2563 191.674 74.351C191.239 76.7029 190.709 78.5706 190.085 79.954C189.385 81.545 188.666 82.3405 187.928 82.3405H185.857H174.168Z" fill="#FFBA42"/>
</g>
<mask id="mask8_184_24234" style="mask-type:luminance" maskUnits="userSpaceOnUse" x="41" y="23" width="148" height="43">
<path d="M41.483 23.7161H188.632V65.2201H41.483V23.7161Z" fill="white"/>
</mask>
<g mask="url(#mask8_184_24234)">
<path fill-rule="evenodd" clip-rule="evenodd" d="M261.156 3.06787C265.127 3.7596 268.981 4.65886 272.718 5.76563C283.695 9.01678 289.184 12.9251 289.184 17.4905V24.5462V66.1539V78.8127C289.184 83.4473 283.695 87.3556 272.718 90.5375C261.973 93.7887 248.777 95.4143 233.127 95.4143H186.18H41.8333H34.4759C19.0602 95.4143 5.86348 93.7887 -5.11433 90.5375L-14.2236 87.0097C-6.04861 88.4623 3.17742 89.1887 13.4545 89.1887H41.8333H186.18H212.106C227.755 89.1887 240.952 87.5631 251.696 84.312C262.674 81.0608 268.163 77.1525 268.163 72.5871V66.1539V24.5462V11.2649C268.163 8.22128 265.827 5.48894 261.156 3.06787Z" fill="black" fill-opacity="0.301961"/>
<path fill-rule="evenodd" clip-rule="evenodd" d="M41.8333 82.3405H186.18H211.756C220.865 82.3405 229.741 81.545 238.383 79.954C246.091 78.5706 252.631 76.7029 258.003 74.351C257.068 77.2563 251.813 79.954 242.237 82.4443C232.66 84.8653 222.5 86.0759 211.756 86.0759H186.18H41.8333H13.1042C-0.442921 86.0759 -11.4207 84.8653 -19.8293 82.4443C-27.3035 80.2307 -31.6246 77.533 -32.7924 74.351C-27.6539 76.6337 -21.1139 78.5014 -13.1725 79.954C-4.76397 81.545 3.99492 82.3405 13.1042 82.3405H41.8333ZM211.756 7.63332H186.18H41.8333H13.1042C1.65921 7.63332 -8.26752 8.60175 -16.6761 10.5386C-24.3839 12.3371 -29.756 14.7236 -32.7924 17.698C-32.7924 12.2333 -29.1721 7.63332 -21.9314 3.89796C-13.7564 -0.390783 -2.07792 -2.53516 13.1042 -2.53516H41.8333H186.18H211.756C227.405 -2.53516 239.901 -0.0795026 249.244 4.8318C256.718 8.84386 260.455 13.1326 260.455 17.698C257.886 15.0003 252.163 12.683 243.288 10.7461C233.711 8.67092 223.201 7.63332 211.756 7.63332ZM41.8333 2.96412H186.18H211.055L217.011 2.34156L219.464 0.888923C219.464 0.335537 218.646 -0.148677 217.011 -0.563717L211.055 -1.18628H186.18H41.8333H14.8559C12.5202 -1.18628 10.5349 -0.978757 8.89989 -0.563717C7.2649 -0.148677 6.44741 0.335537 6.44741 0.888923C6.44741 1.44231 7.2649 1.92652 8.89989 2.34156L14.8559 2.96412H41.8333Z" fill="#FFCB00"/>
<path fill-rule="evenodd" clip-rule="evenodd" d="M-14.2236 87.0097C-18.4279 86.318 -22.3986 85.4187 -26.1357 84.312C-37.1135 81.0608 -42.6024 77.1525 -42.6024 72.5871V66.154V24.5462V11.2649C-42.6024 6.63032 -37.1135 2.72202 -26.1357 -0.45995C-15.1579 -3.7111 -1.96116 -5.33667 13.4545 -5.33667H41.8333H186.18H212.106C227.755 -5.33667 240.952 -3.7111 251.696 -0.45995L261.156 3.06789C265.827 5.48896 268.163 8.2213 268.163 11.2649V24.5462V66.154V72.5871C268.163 77.1525 262.674 81.0608 251.696 84.312C240.952 87.5631 227.755 89.1887 212.106 89.1887H186.18H41.8333H13.4545C3.17739 89.1887 -6.04865 88.4624 -14.2236 87.0097ZM211.756 7.63333C223.201 7.63333 233.711 8.67093 243.288 10.7461C252.163 12.683 257.886 15.0003 260.455 17.6981C260.455 13.1326 256.718 8.84386 249.244 4.83181C239.901 -0.0794959 227.405 -2.53515 211.756 -2.53515H186.18H41.8333H13.1041C-2.07795 -2.53515 -13.7565 -0.390777 -21.9314 3.89797C-29.1721 7.63333 -32.7925 12.2334 -32.7925 17.6981C-29.756 14.7236 -24.3839 12.3371 -16.6761 10.5386C-8.26756 8.60176 1.65918 7.63333 13.1041 7.63333H41.8333H186.18H211.756ZM41.8333 82.3405H13.1041C3.99488 82.3405 -4.76401 81.545 -13.1725 79.954C-21.1139 78.5014 -27.6539 76.6337 -32.7925 74.351C-31.6246 77.533 -27.3036 80.2307 -19.8293 82.4443C-11.4208 84.8654 -0.442955 86.0759 13.1041 86.0759H41.8333H186.18H211.756C222.5 86.0759 232.66 84.8654 242.237 82.4443C251.813 79.954 257.068 77.2563 258.003 74.351C252.631 76.7029 246.091 78.5706 238.383 79.954C229.741 81.545 220.865 82.3405 211.756 82.3405H186.18H41.8333Z" fill="#FFBA42"/>
</g>
<path fill-rule="evenodd" clip-rule="evenodd" d="M74.6154 27.1718L82.5641 24.4018L85 43.6595L78.5897 44.7147C78.5043 50.7822 76.9658 56.498 73.9744 61.862C71.0684 67.138 67.0513 71.4029 61.9231 74.6564L65 80.8558L44.7436 86L44.1026 80.0644C37.5214 80.2403 31.4103 78.7014 25.7692 75.4479C20.1282 72.1943 15.7265 67.7096 12.5641 61.9939L6.79487 63.7086L0 45.3742L8.07692 44.1871C8.07692 37.8558 9.61538 31.9202 12.6923 26.3804C15.7692 21.0164 20 16.6636 25.3846 13.3221L22.4359 5.01227L43.0769 0L44.2308 8.30982C50.5556 8.39775 56.453 10.1564 61.9231 13.5859C67.3932 17.0153 71.6239 21.544 74.6154 27.1718Z" fill="#042040"/>
<path fill-rule="evenodd" clip-rule="evenodd" d="M81.5385 26.1166L83.718 42.6043L77.4359 43.6595C77.5214 49.9029 76.0257 55.7505 72.9487 61.2025C69.8718 66.6544 65.641 70.9632 60.2564 74.1288L63.0769 80.0644L45.8975 84.4172L45.1282 78.7454C38.4616 79.0971 32.265 77.6462 26.5385 74.3926C20.7265 71.0511 16.2821 66.3906 13.2051 60.411L7.43592 62.1258L1.66669 46.4295L9.23079 45.2423C9.14532 38.7352 10.6838 32.6677 13.8462 27.0399C17.0086 21.4121 21.3675 17.0593 26.9231 13.9816L24.1026 5.93559L42.0513 1.58282L43.0769 9.62884C49.6581 9.5409 55.7265 11.2117 61.2821 14.6411C66.8376 18.1585 71.0684 22.863 73.9744 28.7546L81.5385 26.1166Z" fill="#724570"/>
<path fill-rule="evenodd" clip-rule="evenodd" d="M81.5385 26.1166L83.718 42.6043L77.4359 43.6595C77.5214 49.9029 76.0257 55.7505 72.9487 61.2025C69.8718 66.6544 65.641 70.9632 60.2564 74.1288L63.0769 80.0644L45.8975 84.4172L45.1282 78.7454C38.4616 79.0971 32.265 77.6462 26.5385 74.3926C20.7265 71.0511 16.2821 66.3906 13.2051 60.411L7.43592 62.1258L1.66669 46.4295L9.23079 45.2423C9.14532 38.7352 10.6838 32.6677 13.8462 27.0399C17.0086 21.4121 21.3675 17.0593 26.9231 13.9816L24.1026 5.93559L42.0513 1.58282L43.0769 9.62884C49.6581 9.5409 55.7265 11.2117 61.2821 14.6411C66.8376 18.1585 71.0684 22.863 73.9744 28.7546L81.5385 26.1166Z" fill="#724570"/>
<path fill-rule="evenodd" clip-rule="evenodd" d="M68.3333 31.3926L71.1538 43.5276C71.1538 48.8036 70 53.8599 67.6923 58.6963C65.2136 63.7086 61.8376 67.4458 57.5641 69.9079L44.7436 73.6012C39.4444 73.9529 34.3589 72.502 29.4872 69.2484C24.8718 66.2587 21.2393 62.2576 18.5897 57.2454L15.5128 44.8466C15.3419 39.5705 16.5812 34.6462 19.2307 30.0736C21.7948 25.501 25.3419 21.8957 29.8718 19.2576L43.0769 15.6963C48.4615 15.6963 53.4188 17.1032 57.9487 19.9171C62.4786 22.7311 65.9401 26.5562 68.3333 31.3926Z" fill="#031A33"/>
<path fill-rule="evenodd" clip-rule="evenodd" d="M61.5385 80.4601L58.718 74.7883L60.2564 74.1288L63.0769 80.0644L61.5385 80.4601Z" fill="#724570"/>
<path fill-rule="evenodd" clip-rule="evenodd" d="M27.3077 15.1687C24.4871 16.7515 21.8376 18.774 19.3589 21.2362C16.7094 23.7863 14.6153 26.3803 13.0769 29.0184L11.1538 33.2392C11.8376 31.0409 12.735 28.9744 13.8461 27.0399C15.47 24.138 17.4786 21.5439 19.8718 19.2576C21.7521 17.411 24.1025 15.6523 26.923 13.9816L27.3077 15.1687Z" fill="#724570"/>
<path fill-rule="evenodd" clip-rule="evenodd" d="M9.23079 45.2423L9.35899 46.957L2.30771 48.1442L1.66669 46.4294L9.23079 45.2423Z" fill="#724570"/>
<path fill-rule="evenodd" clip-rule="evenodd" d="M61.2821 14.6411C66.8376 18.1585 71.0684 22.863 73.9744 28.7546L81.5385 26.1166L83.718 42.6043L82.6923 42.7362L80.8975 28.0951L73.2052 30.7331C70.3846 24.8415 66.1966 20.137 60.6411 16.6196C55 13.1023 48.9317 11.3875 42.4359 11.4755L41.4103 3.56135L24.7436 7.51841L24.1026 5.93559L42.0513 1.58282L43.077 9.62884C49.6582 9.5409 55.7265 11.2117 61.2821 14.6411Z" fill="#724570"/>
<path fill-rule="evenodd" clip-rule="evenodd" d="M76.7949 43.7914L77.4359 43.6595L76.6667 50.3865L75 56.8497L76.2821 50.5184L76.7949 43.7914Z" fill="#724570"/>
<path fill-rule="evenodd" clip-rule="evenodd" d="M66.4103 58.0368C69.4017 52.4969 70.3846 46.6053 69.359 40.3619L66.0257 40.7577L64.8718 36.1411L67.9487 34.954C65.7265 29.2382 62.0086 24.8415 56.7949 21.7638C51.5812 18.5981 45.9829 17.455 40 18.3343L40.3846 21.8957L34.7436 22.6871L33.8462 20.0491C28.4616 22.3354 24.2735 26.0286 21.2821 31.1288C18.2906 36.317 17.094 41.9008 17.6923 47.8803L21.6667 47.3527L23.3334 52.6288L19.1026 53.9478C21.2393 60.1912 25.0855 64.9397 30.641 68.1932C36.1966 71.5347 42.1795 72.59 48.5898 71.3589L48.0769 67.5337L51.5385 66.0828L53.3333 69.7761C59.0598 67.4898 63.4188 63.5767 66.4103 58.0368ZM59.8718 16.2239C66.1966 20.181 70.5983 25.7648 73.0769 32.9754L78.3333 30.9969L79.4872 38.911L74.6154 39.5705C75.5556 46.8691 74.2308 53.728 70.641 60.1472C67.0513 66.4785 61.9658 71.0511 55.3846 73.865L57.6923 78.4816L49.4872 80.592L48.9744 75.7116C41.5385 77.2065 34.4872 76.0194 27.8205 72.1503C21.2393 68.3691 16.5812 62.8732 13.8462 55.6626L9.4872 57.1135L6.66669 49.3313L12.0513 48.6718C10.9402 41.1973 12.2222 34.2065 15.8975 27.6994C19.4872 21.1922 24.6154 16.5317 31.2821 13.7178L29.1026 7.78219L38.4616 5.53986L39.2308 11.6073C46.5812 10.5521 53.4616 12.091 59.8718 16.2239Z" fill="#6229A4"/>
<path fill-rule="evenodd" clip-rule="evenodd" d="M21.6666 47.3527L23.3333 52.6288L22.8205 52.7607L21.9231 49.8589L17.9487 50.3865L17.8205 47.8803L21.6666 47.3527Z" fill="#944C9C"/>
<path fill-rule="evenodd" clip-rule="evenodd" d="M59.8718 16.2239C66.1966 20.181 70.5983 25.7648 73.0769 32.9754L78.3333 30.9969L79.4872 38.911H79.3589L78.5897 33.503L73.3333 35.4816C70.8547 28.2709 66.453 22.6431 60.1282 18.5981C53.7179 14.5532 46.8376 13.0143 39.4872 13.9816L38.7179 7.91409L29.8718 10.0245L29.1025 7.78219L38.4615 5.53986L39.2307 11.6073C46.5812 10.5521 53.4615 12.091 59.8718 16.2239Z" fill="#944C9C"/>
<path fill-rule="evenodd" clip-rule="evenodd" d="M65.5128 38.5153L64.8718 36.1411L67.1795 35.2178L68.2051 37.4601L65.5128 38.5153Z" fill="#944C9C"/>
<path fill-rule="evenodd" clip-rule="evenodd" d="M30.7692 13.9816L31.5385 16.092C25.2991 18.73 20.3846 22.9949 16.7949 28.8865C13.2051 34.7781 11.5812 41.1973 11.9231 48.1441C10.9829 40.9335 12.265 34.1186 15.7692 27.6994C19.2735 21.456 24.2735 16.8834 30.7692 13.9816Z" fill="#944C9C"/>
<path fill-rule="evenodd" clip-rule="evenodd" d="M12.0513 48.6718L12.3077 51.046L7.56412 51.7056L6.66669 49.3313L12.0513 48.6718Z" fill="#944C9C"/>
<path fill-rule="evenodd" clip-rule="evenodd" d="M19.359 56.454L20 56.3221C22.4787 61.774 26.3676 65.9069 31.6667 68.7209C36.9658 71.6227 42.5641 72.502 48.4616 71.3589L48.8462 73.7331C42.4359 74.9642 36.453 73.953 30.8975 70.6994C25.3419 67.3579 21.4958 62.6094 19.359 56.454Z" fill="#944C9C"/>
<path fill-rule="evenodd" clip-rule="evenodd" d="M69.6153 43.5276C70.5555 49.683 69.4871 55.4427 66.4102 60.8067C63.4187 66.1707 59.1452 69.9959 53.5897 72.2822L51.6666 68.5889L48.4615 70.0399L48.0768 67.5337L51.5384 66.0828L53.3333 69.7761C58.5469 67.6656 62.6495 64.1922 65.6409 59.3558C68.6324 54.5194 69.9572 49.2433 69.6153 43.5276Z" fill="#944C9C"/>
<path fill-rule="evenodd" clip-rule="evenodd" d="M48.4616 71.3589L48.3334 70.0399H48.4616L48.5898 71.3589H48.4616Z" fill="#944C9C"/>
<path fill-rule="evenodd" clip-rule="evenodd" d="M68.5898 64.1043L51.1539 64.8957L49.2308 53.5521L47.6923 60.0153L44.359 56.454L47.4359 65.819L33.077 73.6012L15.1282 31.7883L34.1026 25.7208L40.1282 32.0521L41.2821 22.819L60.3846 13.9816L68.5898 64.1043Z" fill="black"/>
<path fill-rule="evenodd" clip-rule="evenodd" d="M66.6667 62.6534L51.6667 63.3129L49.1026 48.408L47.0513 57.6411L42.0513 52.365L46.0257 64.7638L33.8462 71.3589L17.1795 32.7117L34.1026 27.3037L40.8975 34.4264L42.1795 24.138L59.1026 16.3558L66.6667 62.6534Z" fill="#D98F10"/>
<path fill-rule="evenodd" clip-rule="evenodd" d="M57.3077 20.7086L45.641 25.3252L42.1795 24.138L59.1026 16.3558L57.3077 20.7086Z" fill="#FBDF50"/>
<path fill-rule="evenodd" clip-rule="evenodd" d="M32.9487 30.2055L21.2821 34.8221L17.1795 32.7116L34.1026 27.3036L32.9487 30.2055Z" fill="#FBDF50"/>
<path fill-rule="evenodd" clip-rule="evenodd" d="M33.7179 67.4019L43.0769 63.8405L46.0256 64.7638L33.8461 71.3589L33.7179 67.4019Z" fill="#8F4C00"/>
<path fill-rule="evenodd" clip-rule="evenodd" d="M63.8461 60.0153L66.6666 62.6534L51.6666 63.3129L53.9743 60.6748L63.8461 60.0153Z" fill="#8F4C00"/>
<path fill-rule="evenodd" clip-rule="evenodd" d="M47.0512 57.9049L42.0512 52.365L36.923 45.1104L45.7692 52.6288L47.0512 57.9049Z" fill="#AD620D"/>
<path fill-rule="evenodd" clip-rule="evenodd" d="M49.8718 41.2853L53.9743 60.6749L51.6666 63.3129L49.1025 48.408L49.8718 41.2853Z" fill="#AD620D"/>
<path fill-rule="evenodd" clip-rule="evenodd" d="M21.2821 34.8221L33.718 67.4019L33.8462 71.6227L17.1795 32.7117L21.2821 34.8221Z" fill="#AD620D"/>
<path fill-rule="evenodd" clip-rule="evenodd" d="M42.1795 24.138L45.641 25.3251L42.5641 39.4386L40.8975 34.4263L42.1795 24.138Z" fill="#AD620D"/>
<path fill-rule="evenodd" clip-rule="evenodd" d="M57.9488 18.9938L63.8462 60.0153H54.2308L50.1283 40.6257L45.8975 53.1564L37.8206 46.4294L43.077 63.8405L33.9744 66.8742L21.2821 34.8221L33.3334 29.4141L42.5642 39.4386L46.7949 27.6994L45.6411 25.3251L57.9488 18.9938Z" fill="#FFE68F"/>
<path fill-rule="evenodd" clip-rule="evenodd" d="M57.9488 18.9938L63.8462 60.0153H54.2308L50.1283 40.6257L45.8975 53.1564L37.8206 46.4294L43.077 63.8405L33.9744 66.8742L21.2821 34.8221L33.3334 29.4141L42.5642 39.4386L45.6411 25.3251L57.9488 18.9938Z" fill="#FBB232"/>
<path fill-rule="evenodd" clip-rule="evenodd" d="M58.4615 40.6258C56.5812 32.7996 55.171 28.6667 54.2308 28.227L50.3846 26.908L48.2051 26.3804L56.5385 23.4785L61.0257 52.1012L58.4615 40.6258Z" fill="#FBDF50"/>
<path fill-rule="evenodd" clip-rule="evenodd" d="M24.4872 34.954L32.8205 31.9202L42.0513 40.8896L38.3333 38.2515L32.4359 35.0859L27.4359 34.8221L24.4872 34.954Z" fill="#FBDF50"/>
<path d="M93.6074 53.7422L93.4902 53.9766V58.9375H87.709V63.957L87.9434 67.8828L87.748 68L87.3184 67.8828L87.2207 67.9023L87.123 68L86.752 67.8828H86.2441L85.873 67.9805V53.7227L85.7559 53.5078L85.7949 53.2734L86.9277 53.332L87.2402 53.293L87.377 53.3711L88.8418 53.3125L88.9785 53.3906H92.0449L93.3926 53.4492V53.5859L93.6074 53.7422ZM91.5566 56.7305V55.4023H87.5918L87.7871 56.1445V56.7305H91.5566ZM102.416 56.3008L102.338 56.6523V58.6836L100.541 58.8203L100.795 60.4609L100.873 60.5195L101.674 64.25L101.615 64.4844L102.299 67.8242H100.443L98.3145 58.7617L98.0215 58.8203H97.3965L97.0645 58.7617L96.8496 58.8594L97.0254 63.0391L96.9082 63.332L97.0254 63.7617V63.9961L96.9668 64.1719L97.084 64.8555L96.9082 64.9727L97.084 65.2266L96.8887 65.9688V67.1797L96.9473 67.7266H94.8379L94.8965 67.082V60.4023L94.6426 57.3164L94.7207 55.4805V53.3516L94.7598 53.0391H102.162L102.357 53.293L102.299 53.5078V56.2227L102.416 56.3008ZM100.189 55.832L100.15 55.3633H96.8105V56.3984H100.15L100.189 55.832ZM110.971 66.4766L111.029 67.3555H104.076L103.744 60.7734V55.9102L103.49 55.4805L103.646 55.2852V53.0781H110.6L110.678 53.3125V54.25L110.619 54.4453L110.873 55.4805H109.467L106.029 55.6758L105.873 55.7734L105.854 56.125L105.619 56.2422L105.873 58.8008L107.104 58.7227L107.826 58.8008L109.174 59.0938V59.9141L109.037 60.4609L109.174 60.7539V61.1641L105.873 61.3398L105.795 61.5547L105.697 62.2578V62.8047L105.795 63V64.7578L106.029 64.875H109.291L109.76 64.7383L111.205 64.4844L110.971 66.4766ZM119.428 67.8242L119.232 68H117.318L117.162 67.7266V60.4414L116.166 63.8203L115.873 63.8594L114.662 60.7734L114.389 60.2266L114.662 62.5508V67.9219H112.494L112.221 66.7109V58.0977L111.967 53.3711L112.357 53.0781H114.193L115.678 57.1211L117.221 52.9023H119.271L119.018 53.7422L118.939 54.1719L119.291 54.5625L119.193 55.5586L119.35 58.0586L119.291 58.3711L119.447 58.6055L119.291 59.0547L119.369 60.0312V61.1055L119.193 61.7109L119.428 64.5234V65.9688V67.8242ZM123.666 53.2539V66.0664L123.471 68.1953L121.049 67.8633V53.5078L120.873 53.4492L121.264 53.2539H123.666ZM132.826 60.5195L132.709 60.6367V62.9805L132.768 64.1523L132.67 65.5L132.768 65.5977L132.611 65.6758L132.768 68.1172L132.494 67.8828H128.881L128.803 67.8242H125.814L125.268 67.9219V56.1055L125.385 55.9688L125.209 53.0977L127.572 53.2734V60.2266L127.396 60.3828L127.67 60.5781L127.572 60.8516V65.8125H130.658L130.6 64.4258V53.2148H131.889L132.514 53.2734V59.5039L132.768 59.9336L132.611 60.0703L132.826 60.5195ZM141.635 67.8242L141.439 68H139.525L139.369 67.7266V60.4414L138.373 63.8203L138.08 63.8594L136.869 60.7734L136.596 60.2266L136.869 62.5508V67.9219H134.701L134.428 66.7109V58.0977L134.174 53.3711L134.564 53.0781H136.4L137.885 57.1211L139.428 52.9023H141.479L141.225 53.7422L141.146 54.1719L141.498 54.5625L141.4 55.5586L141.557 58.0586L141.498 58.3711L141.654 58.6055L141.498 59.0547L141.576 60.0312V61.1055L141.4 61.7109L141.635 64.5234V65.9688V67.8242ZM150.541 53.2539V66.0664L150.346 68.1953L147.924 67.8633V53.5078L147.748 53.4492L148.139 53.2539H150.541ZM160.229 55.3828L159.975 55.6562L159.037 55.4414H157.885L157.533 55.5V59.3867L157.611 60.0898V64.9922L157.67 65.2852V66.418L157.787 66.5938L157.67 66.6328V66.8086L157.572 67.0625V67.5508L157.67 67.8438L157.436 68.0391H155.482L155.365 67.8633V55.6172H152.006L152.084 55.1875V53.3516L151.928 53V52.8828L152.006 52.8047L153.861 53H156.322L156.576 52.9609L157.123 53.0586L158.021 53L158.158 53.0977L158.217 52.9805L158.393 52.9219L158.686 52.9414L158.92 53.0977H160.033L160.131 53.4883V55.1875L160.229 55.3828ZM168.451 66.4766L168.51 67.3555H161.557L161.225 60.7734V55.9102L160.971 55.4805L161.127 55.2852V53.0781H168.08L168.158 53.3125V54.25L168.1 54.4453L168.354 55.4805H166.947L163.51 55.6758L163.354 55.7734L163.334 56.125L163.1 56.2422L163.354 58.8008L164.584 58.7227L165.307 58.8008L166.654 59.0938V59.9141L166.518 60.4609L166.654 60.7539V61.1641L163.354 61.3398L163.275 61.5547L163.178 62.2578V62.8047L163.275 63V64.7578L163.51 64.875H166.771L167.24 64.7383L168.686 64.4844L168.451 66.4766ZM176.908 67.8242L176.713 68H174.799L174.643 67.7266V60.4414L173.646 63.8203L173.354 63.8594L172.143 60.7734L171.869 60.2266L172.143 62.5508V67.9219H169.975L169.701 66.7109V58.0977L169.447 53.3711L169.838 53.0781H171.674L173.158 57.1211L174.701 52.9023H176.752L176.498 53.7422L176.42 54.1719L176.771 54.5625L176.674 55.5586L176.83 58.0586L176.771 58.3711L176.928 58.6055L176.771 59.0547L176.85 60.0312V61.1055L176.674 61.7109L176.908 64.5234V65.9688V67.8242ZM186.342 63.9961V67.8633H178.529L178.412 67.668V67.4531L178.51 67.0625V61.6133L178.588 61.5352L179.252 61.6133H180.6V65.7148L180.736 65.832H181.869L182.025 65.7148L182.084 65.793H184.213L184.096 65.0898V62.4727L180.6 60.2656L178.725 58.918H178.568L178.432 58.5273V57.7852L178.295 56.125V53.1562H183.725L186.068 53.0586V58.1367L185.912 58.1953L184.76 58.1367L184.154 58.1953L184.037 58.0586V55.1875L183.783 55.0312L183.178 54.9141H182.846L182.67 55.0898H180.463V56.1055L180.58 57.4531L184.799 60.207L186.322 61.1055V63.8984L186.342 63.9961Z" fill="#333333"/>
</svg>
