<svg width="183" height="99" viewBox="0 0 183 99" fill="none" xmlns="http://www.w3.org/2000/svg">
<mask id="mask0_182_22999" style="mask-type:luminance" maskUnits="userSpaceOnUse" x="0" y="0" width="36" height="47">
<path d="M0 3.05176e-05H35.9163V46.1465H0V3.05176e-05Z" fill="white"/>
</mask>
<g mask="url(#mask0_182_22999)">
<path fill-rule="evenodd" clip-rule="evenodd" d="M12.1218 146.68C10.3259 145.581 8.62989 144.153 7.03361 142.395C2.34454 137.231 0 131.023 0 123.771V113.553V47.465V26.3694C0 19.008 2.34454 12.8002 7.03361 7.74604C11.7227 2.58203 17.3596 3.05176e-05 23.9442 3.05176e-05H36.066H97.7223H108.797C115.481 3.05176e-05 121.118 2.58203 125.707 7.74604L129.748 13.3495C131.743 17.1951 132.741 21.535 132.741 26.3694V47.465V113.553V123.771C132.741 131.023 130.396 137.231 125.707 142.395C121.118 147.559 115.481 150.141 108.797 150.141H97.7223H36.066H23.9442C19.5544 150.141 15.6136 148.987 12.1218 146.68ZM36.066 4.44987H23.7946C17.3097 4.44987 12.3213 7.85591 8.82943 14.668C5.73663 20.6011 4.19024 27.9076 4.19024 36.5876C5.48721 31.8631 7.78187 28.0725 11.0742 25.2158C14.6658 22.1393 18.9059 20.6011 23.7946 20.6011H36.066H97.7223H108.647C113.535 20.6011 118.025 22.2492 122.115 25.5454C125.907 28.6218 128.351 32.3025 129.448 36.5876C129.448 29.336 127.852 22.5239 124.66 16.1513C120.669 8.35034 115.331 4.44987 108.647 4.44987H97.7223H36.066ZM36.066 139.263H23.7946C19.9036 139.263 16.1623 138 12.5707 135.473C9.17861 133.166 6.38512 130.199 4.19024 126.573C4.68907 131.627 6.53477 135.912 9.72733 139.428C13.319 143.274 18.008 145.197 23.7946 145.197H36.066H97.7223H108.647C113.236 145.197 117.576 143.274 121.667 139.428C125.757 135.473 128.002 131.188 128.401 126.573C126.106 130.309 123.313 133.275 120.02 135.473C116.329 138 112.538 139.263 108.647 139.263H97.7223H36.066Z" fill="#FFC21A"/>
<path fill-rule="evenodd" clip-rule="evenodd" d="M12.1217 146.68C15.6136 148.987 19.5544 150.141 23.9442 150.141H36.0659H97.7223H108.796C115.481 150.141 121.118 147.559 125.707 142.395C130.396 137.231 132.741 131.023 132.741 123.771V113.553V47.4649V26.3694C132.741 21.535 131.743 17.1951 129.748 13.3495C131.444 14.4482 133.09 15.8766 134.686 17.6345C139.375 22.7986 141.72 29.0063 141.72 36.2579V47.4649V113.553V133.66C141.72 141.021 139.375 147.229 134.686 152.283C130.097 157.447 124.46 160.029 117.776 160.029H97.7223H36.0659H32.9232C26.3386 160.029 20.7017 157.447 16.0126 152.283L12.1217 146.68Z" fill="black" fill-opacity="0.298039"/>
<path fill-rule="evenodd" clip-rule="evenodd" d="M36.0659 139.263H97.7223H108.647C112.538 139.263 116.329 138 120.02 135.473C123.313 133.275 126.106 130.309 128.401 126.573C128.002 131.188 125.757 135.473 121.666 139.428C117.576 143.274 113.236 145.197 108.647 145.197H97.7223H36.0659H23.7945C18.008 145.197 13.3189 143.274 9.72728 139.428C6.53472 135.912 4.68902 131.627 4.19019 126.573C6.38507 130.199 9.17856 133.165 12.5707 135.473C16.1623 138 19.9036 139.263 23.7945 139.263H36.0659ZM36.0659 4.44986H97.7223H108.647C115.331 4.44986 120.669 8.35033 124.659 16.1513C127.852 22.5239 129.448 29.336 129.448 36.5876C128.351 32.3025 125.907 28.6218 122.115 25.5454C118.025 22.2492 113.535 20.6011 108.647 20.6011H97.7223H36.0659H23.7945C18.9059 20.6011 14.6658 22.1393 11.0741 25.2158C7.78182 28.0724 5.48716 31.8631 4.19019 36.5876C4.19019 27.9076 5.73658 20.6011 8.82938 14.668C12.3212 7.85591 17.3096 4.44986 23.7945 4.44986H36.0659ZM36.0659 13.1847H97.7223H108.347L110.892 12.1959L111.939 9.88855C111.939 9.00957 111.59 8.24046 110.892 7.58123L108.347 6.59237H97.7223H36.0659H24.5428C23.5451 6.59237 22.6971 6.92199 21.9987 7.58123C21.3003 8.24046 20.9511 9.00957 20.9511 9.88855C20.9511 10.7675 21.3003 11.5366 21.9987 12.1959L24.5428 13.1847H36.0659Z" fill="#FFE66A"/>
<path fill-rule="evenodd" clip-rule="evenodd" d="M36.066 13.1847H24.5428L21.9987 12.1959C21.3004 11.5366 20.9512 10.7675 20.9512 9.88855C20.9512 9.00957 21.3004 8.24046 21.9987 7.58123C22.6971 6.92199 23.5451 6.59238 24.5428 6.59238H36.066H97.7223H108.348L110.892 7.58123C111.59 8.24046 111.939 9.00957 111.939 9.88855L110.892 12.1959L108.348 13.1847H97.7223H36.066Z" fill="#FED155"/>
</g>
<mask id="mask1_182_22999" style="mask-type:luminance" maskUnits="userSpaceOnUse" x="0" y="48" width="36" height="51">
<path d="M0 48.9259H35.9163V98.3686H0V48.9259Z" fill="white"/>
</mask>
<g mask="url(#mask1_182_22999)">
<path fill-rule="evenodd" clip-rule="evenodd" d="M12.1218 83.5358C10.3259 82.437 8.62989 81.0087 7.03361 79.2507C2.34454 74.0867 0 67.8789 0 60.6273V50.4092V-15.6791V-36.7746C0 -44.1361 2.34454 -50.3439 7.03361 -55.398C11.7227 -60.562 17.3596 -63.144 23.9442 -63.144H36.066H97.7223H108.797C115.481 -63.144 121.118 -60.562 125.707 -55.398L129.748 -49.7945C131.743 -45.949 132.741 -41.609 132.741 -36.7746V-15.6791V50.4092V60.6273C132.741 67.8789 130.396 74.0867 125.707 79.2507C121.118 84.4147 115.481 86.9967 108.797 86.9967H97.7223H36.066H23.9442C19.5544 86.9967 15.6136 85.8431 12.1218 83.5358ZM36.066 -58.6942H23.7946C17.3097 -58.6942 12.3213 -55.2881 8.82943 -48.476C5.73663 -42.5429 4.19024 -35.2364 4.19024 -26.5565C5.48721 -31.281 7.78187 -35.0716 11.0742 -37.9283C14.6658 -41.0047 18.9059 -42.5429 23.7946 -42.5429H36.066H97.7223H108.647C113.535 -42.5429 118.025 -40.8948 122.115 -37.5987C125.907 -34.5222 128.351 -30.8415 129.448 -26.5565C129.448 -33.8081 127.852 -40.6202 124.66 -46.9928C120.669 -54.7937 115.331 -58.6942 108.647 -58.6942H97.7223H36.066ZM36.066 76.1194H23.7946C19.9036 76.1194 16.1623 74.8558 12.5707 72.3288C9.17861 70.0215 6.38512 67.0549 4.19024 63.4291C4.68907 68.4832 6.53477 72.7683 9.72733 76.2842C13.319 80.1297 18.008 82.0525 23.7946 82.0525H36.066H97.7223H108.647C113.236 82.0525 117.576 80.1297 121.667 76.2842C125.757 72.3288 128.002 68.0437 128.401 63.4291C126.106 67.1648 123.313 70.1313 120.02 72.3288C116.329 74.8558 112.538 76.1194 108.647 76.1194H97.7223H36.066Z" fill="#FFC21A"/>
<path fill-rule="evenodd" clip-rule="evenodd" d="M12.1217 83.5358C15.6136 85.8431 19.5544 86.9968 23.9442 86.9968H36.0659H97.7223H108.796C115.481 86.9968 121.118 84.4148 125.707 79.2508C130.396 74.0867 132.741 67.8789 132.741 60.6274V50.4092V-15.6791V-36.7746C132.741 -41.609 131.743 -45.949 129.748 -49.7945C131.444 -48.6958 133.09 -47.2674 134.686 -45.5095C139.375 -40.3455 141.72 -34.1377 141.72 -26.8861V-15.6791V50.4092V70.5159C141.72 77.8773 139.375 84.0851 134.686 89.1393C130.097 94.3033 124.46 96.8853 117.776 96.8853H97.7223H36.0659H32.9232C26.3386 96.8853 20.7017 94.3033 16.0126 89.1393L12.1217 83.5358Z" fill="black" fill-opacity="0.298039"/>
<path fill-rule="evenodd" clip-rule="evenodd" d="M36.0659 76.1194H97.7223H108.647C112.538 76.1194 116.329 74.8559 120.02 72.3288C123.313 70.1313 126.106 67.1648 128.401 63.4291C128.002 68.0438 125.757 72.3288 121.666 76.2842C117.576 80.1297 113.236 82.0525 108.647 82.0525H97.7223H36.0659H23.7945C18.008 82.0525 13.3189 80.1297 9.72728 76.2842C6.53472 72.7683 4.68902 68.4833 4.19019 63.4291C6.38507 67.0549 9.17856 70.0215 12.5707 72.3288C16.1623 74.8559 19.9036 76.1194 23.7945 76.1194H36.0659ZM36.0659 -58.6942H97.7223H108.647C115.331 -58.6942 120.669 -54.7937 124.659 -46.9928C127.852 -40.6202 129.448 -33.8081 129.448 -26.5565C128.351 -30.8415 125.907 -34.5222 122.115 -37.5987C118.025 -40.8948 113.535 -42.5429 108.647 -42.5429H97.7223H36.0659H23.7945C18.9059 -42.5429 14.6658 -41.0047 11.0741 -37.9283C7.78182 -35.0716 5.48716 -31.281 4.19019 -26.5565C4.19019 -35.2364 5.73658 -42.5429 8.82938 -48.476C12.3212 -55.2881 17.3096 -58.6942 23.7945 -58.6942H36.0659ZM36.0659 -49.9593H97.7223H108.347L110.892 -50.9482L111.939 -53.2555C111.939 -54.1345 111.59 -54.9036 110.892 -55.5628L108.347 -56.5517H97.7223H36.0659H24.5428C23.5451 -56.5517 22.6971 -56.2221 21.9987 -55.5628C21.3003 -54.9036 20.9511 -54.1345 20.9511 -53.2555C20.9511 -52.3765 21.3003 -51.6074 21.9987 -50.9482L24.5428 -49.9593H36.0659Z" fill="#FFE66A"/>
</g>
<mask id="mask2_182_22999" style="mask-type:luminance" maskUnits="userSpaceOnUse" x="140" y="0" width="43" height="47">
<path d="M140.592 0H182.494V46.1465H140.592V0Z" fill="white"/>
</mask>
<g mask="url(#mask2_182_22999)">
<path fill-rule="evenodd" clip-rule="evenodd" d="M53.9439 146.68C52.1481 145.581 50.452 144.153 48.8558 142.395C44.1667 137.231 41.8221 131.023 41.8221 123.771V113.553V47.465V26.3694C41.8221 19.008 44.1667 12.8002 48.8558 7.74604C53.5448 2.58203 59.1817 3.05176e-05 65.7664 3.05176e-05H77.8881H139.544H150.619C157.303 3.05176e-05 162.94 2.58203 167.529 7.74604L171.57 13.3495C173.565 17.1951 174.563 21.535 174.563 26.3694V47.465V113.553V123.771C174.563 131.023 172.218 137.231 167.529 142.395C162.94 147.559 157.303 150.141 150.619 150.141H139.544H77.8881H65.7664C61.3766 150.141 57.4358 148.987 53.9439 146.68ZM77.8881 4.44987H65.6167C59.1318 4.44987 54.1434 7.85591 50.6516 14.668C47.5588 20.6011 46.0124 27.9076 46.0124 36.5876C47.3094 31.8631 49.604 28.0725 52.8963 25.2158C56.488 22.1393 60.7281 20.6011 65.6167 20.6011H77.8881H139.544H150.469C155.358 20.6011 159.847 22.2492 163.938 25.5454C167.729 28.6218 170.173 32.3025 171.271 36.5876C171.271 29.336 169.674 22.5239 166.482 16.1513C162.491 8.35034 157.153 4.44987 150.469 4.44987H139.544H77.8881ZM77.8881 139.263H65.6167C61.7258 139.263 57.9845 138 54.3929 135.473C51.0008 133.166 48.2073 130.199 46.0124 126.573C46.5112 131.627 48.3569 135.912 51.5495 139.428C55.1411 143.274 59.8302 145.197 65.6167 145.197H77.8881H139.544H150.469C155.058 145.197 159.398 143.274 163.489 139.428C167.579 135.473 169.824 131.188 170.223 126.573C167.928 130.309 165.135 133.275 161.842 135.473C158.151 138 154.36 139.263 150.469 139.263H139.544H77.8881Z" fill="#FFC21A"/>
<path fill-rule="evenodd" clip-rule="evenodd" d="M53.944 146.68C57.4358 148.987 61.3767 150.141 65.7664 150.141H77.8882H139.545H150.619C157.303 150.141 162.94 147.559 167.529 142.395C172.218 137.231 174.563 131.023 174.563 123.771V113.553V47.4649V26.3694C174.563 21.535 173.565 17.1951 171.57 13.3495C173.266 14.4482 174.912 15.8766 176.508 17.6345C181.197 22.7986 183.542 29.0063 183.542 36.2579V47.4649V113.553V133.66C183.542 141.021 181.197 147.229 176.508 152.283C171.919 157.447 166.282 160.029 159.598 160.029H139.545H77.8882H74.7455C68.1608 160.029 62.524 157.447 57.8349 152.283L53.944 146.68Z" fill="black" fill-opacity="0.298039"/>
<path fill-rule="evenodd" clip-rule="evenodd" d="M77.8882 139.263H139.545H150.469C154.36 139.263 158.151 138 161.843 135.473C165.135 133.275 167.928 130.309 170.223 126.573C169.824 131.188 167.579 135.473 163.489 139.428C159.398 143.274 155.058 145.197 150.469 145.197H139.545H77.8882H65.6168C59.8303 145.197 55.1412 143.274 51.5495 139.428C48.357 135.912 46.5113 131.627 46.0125 126.573C48.2073 130.199 51.0008 133.165 54.3929 135.473C57.9846 138 61.7258 139.263 65.6168 139.263H77.8882ZM77.8882 4.44986H139.545H150.469C157.153 4.44986 162.491 8.35033 166.482 16.1513C169.674 22.5239 171.271 29.336 171.271 36.5876C170.173 32.3025 167.729 28.6218 163.938 25.5454C159.847 22.2492 155.358 20.6011 150.469 20.6011H139.545H77.8882H65.6168C60.7282 20.6011 56.488 22.1393 52.8964 25.2158C49.6041 28.0724 47.3094 31.8631 46.0125 36.5876C46.0125 27.9076 47.5588 20.6011 50.6516 14.668C54.1435 7.85591 59.1319 4.44986 65.6168 4.44986H77.8882ZM77.8882 13.1847H139.545H150.17L152.714 12.1959L153.761 9.88855C153.761 9.00957 153.412 8.24046 152.714 7.58123L150.17 6.59237H139.545H77.8882H66.365C65.3674 6.59237 64.5193 6.92199 63.821 7.58123C63.1226 8.24046 62.7734 9.00957 62.7734 9.88855C62.7734 10.7675 63.1226 11.5366 63.821 12.1959L66.365 13.1847H77.8882Z" fill="#FFE66A"/>
<path fill-rule="evenodd" clip-rule="evenodd" d="M77.8881 13.1847H66.3649L63.8209 12.1959C63.1225 11.5366 62.7733 10.7675 62.7733 9.88855C62.7733 9.00957 63.1225 8.24046 63.8209 7.58123C64.5192 6.92199 65.3673 6.59238 66.3649 6.59238H77.8881H139.544H150.17L152.714 7.58123C153.412 8.24046 153.761 9.00957 153.761 9.88855L152.714 12.1959L150.17 13.1847H139.544H77.8881Z" fill="#FED155"/>
</g>
<mask id="mask3_182_22999" style="mask-type:luminance" maskUnits="userSpaceOnUse" x="140" y="48" width="43" height="51">
<path d="M140.592 48.9259H182.494V98.3686H140.592V48.9259Z" fill="white"/>
</mask>
<g mask="url(#mask3_182_22999)">
<path fill-rule="evenodd" clip-rule="evenodd" d="M53.9439 83.5358C52.1481 82.437 50.452 81.0087 48.8558 79.2507C44.1667 74.0867 41.8221 67.8789 41.8221 60.6273V50.4092V-15.6791V-36.7746C41.8221 -44.1361 44.1667 -50.3439 48.8558 -55.398C53.5448 -60.562 59.1817 -63.144 65.7664 -63.144H77.8881H139.544H150.619C157.303 -63.144 162.94 -60.562 167.529 -55.398L171.57 -49.7945C173.565 -45.949 174.563 -41.609 174.563 -36.7746V-15.6791V50.4092V60.6273C174.563 67.8789 172.218 74.0867 167.529 79.2507C162.94 84.4147 157.303 86.9967 150.619 86.9967H139.544H77.8881H65.7664C61.3766 86.9967 57.4358 85.8431 53.9439 83.5358ZM77.8881 -58.6942H65.6167C59.1318 -58.6942 54.1434 -55.2881 50.6516 -48.476C47.5588 -42.5429 46.0124 -35.2364 46.0124 -26.5565C47.3094 -31.281 49.604 -35.0716 52.8963 -37.9283C56.488 -41.0047 60.7281 -42.5429 65.6167 -42.5429H77.8881H139.544H150.469C155.358 -42.5429 159.847 -40.8948 163.938 -37.5987C167.729 -34.5222 170.173 -30.8415 171.271 -26.5565C171.271 -33.8081 169.674 -40.6202 166.482 -46.9928C162.491 -54.7937 157.153 -58.6942 150.469 -58.6942H139.544H77.8881ZM77.8881 76.1194H65.6167C61.7258 76.1194 57.9845 74.8558 54.3929 72.3288C51.0008 70.0215 48.2073 67.0549 46.0124 63.4291C46.5112 68.4832 48.3569 72.7683 51.5495 76.2842C55.1411 80.1297 59.8302 82.0525 65.6167 82.0525H77.8881H139.544H150.469C155.058 82.0525 159.398 80.1297 163.489 76.2842C167.579 72.3288 169.824 68.0437 170.223 63.4291C167.928 67.1648 165.135 70.1313 161.842 72.3288C158.151 74.8558 154.36 76.1194 150.469 76.1194H139.544H77.8881Z" fill="#FFC21A"/>
<path fill-rule="evenodd" clip-rule="evenodd" d="M53.944 83.5358C57.4358 85.8431 61.3767 86.9968 65.7664 86.9968H77.8882H139.545H150.619C157.303 86.9968 162.94 84.4148 167.529 79.2508C172.218 74.0867 174.563 67.8789 174.563 60.6274V50.4092V-15.6791V-36.7746C174.563 -41.609 173.565 -45.949 171.57 -49.7945C173.266 -48.6958 174.912 -47.2674 176.508 -45.5095C181.197 -40.3455 183.542 -34.1377 183.542 -26.8861V-15.6791V50.4092V70.5159C183.542 77.8773 181.197 84.0851 176.508 89.1393C171.919 94.3033 166.282 96.8853 159.598 96.8853H139.545H77.8882H74.7455C68.1608 96.8853 62.524 94.3033 57.8349 89.1393L53.944 83.5358Z" fill="black" fill-opacity="0.298039"/>
<path fill-rule="evenodd" clip-rule="evenodd" d="M77.8882 76.1194H139.545H150.469C154.36 76.1194 158.151 74.8559 161.843 72.3288C165.135 70.1313 167.928 67.1648 170.223 63.4291C169.824 68.0438 167.579 72.3288 163.489 76.2842C159.398 80.1297 155.058 82.0525 150.469 82.0525H139.545H77.8882H65.6168C59.8303 82.0525 55.1412 80.1297 51.5495 76.2842C48.357 72.7683 46.5113 68.4833 46.0125 63.4291C48.2073 67.0549 51.0008 70.0215 54.3929 72.3288C57.9846 74.8559 61.7258 76.1194 65.6168 76.1194H77.8882ZM77.8882 -58.6942H139.545H150.469C157.153 -58.6942 162.491 -54.7937 166.482 -46.9928C169.674 -40.6202 171.271 -33.8081 171.271 -26.5565C170.173 -30.8415 167.729 -34.5222 163.938 -37.5987C159.847 -40.8948 155.358 -42.5429 150.469 -42.5429H139.545H77.8882H65.6168C60.7282 -42.5429 56.488 -41.0047 52.8964 -37.9283C49.6041 -35.0716 47.3094 -31.281 46.0125 -26.5565C46.0125 -35.2364 47.5588 -42.5429 50.6516 -48.476C54.1435 -55.2881 59.1319 -58.6942 65.6168 -58.6942H77.8882ZM77.8882 -49.9593H139.545H150.17L152.714 -50.9482L153.761 -53.2555C153.761 -54.1345 153.412 -54.9036 152.714 -55.5628L150.17 -56.5517H139.545H77.8882H66.365C65.3674 -56.5517 64.5193 -56.2221 63.821 -55.5628C63.1226 -54.9036 62.7734 -54.1345 62.7734 -53.2555C62.7734 -52.3765 63.1226 -51.6074 63.821 -50.9482L66.365 -49.9593H77.8882Z" fill="#FFE66A"/>
</g>
<mask id="mask4_182_22999" style="mask-type:luminance" maskUnits="userSpaceOnUse" x="35" y="0" width="107" height="47">
<path d="M35.7115 0H141.406V46.1465H35.7115V0Z" fill="white"/>
</mask>
<g mask="url(#mask4_182_22999)">
<path fill-rule="evenodd" clip-rule="evenodd" d="M-4.30136 146.68C-7.3212 145.581 -10.1733 144.153 -12.8576 142.395C-20.7427 137.231 -24.6853 131.023 -24.6853 123.771V113.553V47.465V26.3694C-24.6853 19.008 -20.7427 12.8002 -12.8576 7.74604C-4.97243 2.58203 4.50652 3.05176e-05 15.5793 3.05176e-05H35.9632H139.645H158.267C169.507 3.05176e-05 178.986 2.58203 186.704 7.74604L193.498 13.3495C196.854 17.1951 198.531 21.535 198.531 26.3694V47.465V113.553V123.771C198.531 131.023 194.589 137.231 186.704 142.395C178.986 147.559 169.507 150.141 158.267 150.141H139.645H35.9632H15.5793C8.19744 150.141 1.57056 148.987 -4.30136 146.68ZM35.9632 4.44987H15.3276C4.42263 4.44987 -3.96582 7.85591 -9.83774 14.668C-15.0386 20.6011 -17.639 27.9076 -17.639 36.5876C-15.458 31.8631 -11.5993 28.0725 -6.06293 25.2158C-0.0232468 22.1393 7.10694 20.6011 15.3276 20.6011H35.9632H139.645H158.015C166.236 20.6011 173.786 22.2492 180.664 25.5454C187.039 28.6218 191.15 32.3025 192.995 36.5876C192.995 29.336 190.311 22.5239 184.942 16.1513C178.231 8.35034 169.256 4.44987 158.015 4.44987H139.645H35.9632ZM35.9632 139.263H15.3276C8.78463 139.263 2.49329 138 -3.5464 135.473C-9.25055 133.166 -13.9481 130.199 -17.639 126.573C-16.8002 131.627 -13.6964 135.912 -8.32782 139.428C-2.28813 143.274 5.59702 145.197 15.3276 145.197H35.9632H139.645H158.015C165.733 145.197 173.031 143.274 179.909 139.428C186.788 135.473 190.562 131.188 191.234 126.573C187.375 130.309 182.677 133.275 177.141 135.473C170.933 138 164.558 139.263 158.015 139.263H139.645H35.9632Z" fill="#FFC21A"/>
<path fill-rule="evenodd" clip-rule="evenodd" d="M-4.30139 146.68C1.57053 148.987 8.1974 150.141 15.5792 150.141H35.9632H139.644H158.267C169.507 150.141 178.986 147.559 186.704 142.395C194.589 137.231 198.531 131.023 198.531 123.771V113.553V47.4649V26.3694C198.531 21.535 196.854 17.1951 193.498 13.3495C196.35 14.4482 199.119 15.8766 201.803 17.6345C209.688 22.7986 213.631 29.0063 213.631 36.2579V47.4649V113.553V133.66C213.631 141.021 209.688 147.229 201.803 152.283C194.086 157.447 184.607 160.029 173.366 160.029H139.644H35.9632H30.6785C19.6057 160.029 10.1267 157.447 2.2416 152.283L-4.30139 146.68Z" fill="black" fill-opacity="0.298039"/>
<path fill-rule="evenodd" clip-rule="evenodd" d="M35.9632 139.263H139.644H158.015C164.558 139.263 170.933 138 177.141 135.473C182.677 133.275 187.375 130.309 191.233 126.573C190.562 131.188 186.788 135.473 179.909 139.428C173.031 143.274 165.733 145.197 158.015 145.197H139.644H35.9632H15.3276C5.59698 145.197 -2.28817 143.274 -8.32785 139.428C-13.6965 135.912 -16.8002 131.627 -17.639 126.573C-13.9481 130.199 -9.25059 133.165 -3.54644 135.473C2.49325 138 8.78459 139.263 15.3276 139.263H35.9632ZM35.9632 4.44986H139.644H158.015C169.256 4.44986 178.231 8.35033 184.942 16.1513C190.311 22.5239 192.995 29.336 192.995 36.5876C191.15 32.3025 187.039 28.6218 180.664 25.5454C173.785 22.2492 166.236 20.6011 158.015 20.6011H139.644H35.9632H15.3276C7.1069 20.6011 -0.023283 22.1393 -6.06297 25.2158C-11.5994 28.0724 -15.458 31.8631 -17.639 36.5876C-17.639 27.9076 -15.0386 20.6011 -9.83778 14.668C-3.96586 7.85591 4.42259 4.44986 15.3276 4.44986H35.9632ZM35.9632 13.1847H139.644H157.512L161.79 12.1959L163.552 9.88855C163.552 9.00957 162.964 8.24046 161.79 7.58123L157.512 6.59237H139.644H35.9632H16.5859C14.9082 6.59237 13.4821 6.92199 12.3077 7.58123C11.1334 8.24046 10.5462 9.00957 10.5462 9.88855C10.5462 10.7675 11.1334 11.5366 12.3077 12.1959L16.5859 13.1847H35.9632Z" fill="#FFE66A"/>
<path fill-rule="evenodd" clip-rule="evenodd" d="M35.9633 13.1847H16.586L12.3078 12.1959C11.1335 11.5366 10.5463 10.7675 10.5463 9.88855C10.5463 9.00957 11.1335 8.24046 12.3078 7.58123C13.4822 6.92199 14.9083 6.59238 16.586 6.59238H35.9633H139.645H157.512L161.79 7.58123C162.964 8.24046 163.552 9.00957 163.552 9.88855L161.79 12.1959L157.512 13.1847H139.645H35.9633Z" fill="#FED155"/>
</g>
<mask id="mask5_182_22999" style="mask-type:luminance" maskUnits="userSpaceOnUse" x="0" y="45" width="36" height="6">
<path d="M0 45.5269H35.9163V50.1547H0V45.5269Z" fill="white"/>
</mask>
<g mask="url(#mask5_182_22999)">
<path fill-rule="evenodd" clip-rule="evenodd" d="M12.1218 52.5843C10.3259 52.5072 8.62989 52.4069 7.03361 52.2835C2.34454 51.921 0 51.4852 0 50.9762V50.2589V45.6195V44.1385C0 43.6218 2.34454 43.186 7.03361 42.8312C11.7227 42.4687 17.3596 42.2874 23.9442 42.2874H36.066H97.7223H108.797C115.481 42.2874 121.118 42.4687 125.707 42.8312L129.748 43.2246C131.743 43.4945 132.741 43.7992 132.741 44.1385V45.6195V50.2589V50.9762C132.741 51.4852 130.396 51.921 125.707 52.2835C121.118 52.646 115.481 52.8273 108.797 52.8273H97.7223H36.066H23.9442C19.5544 52.8273 15.6136 52.7463 12.1218 52.5843ZM36.066 42.5998H23.7946C17.3097 42.5998 12.3213 42.8389 8.82943 43.3171C5.73663 43.7336 4.19024 44.2465 4.19024 44.8559C5.48721 44.5242 7.78187 44.2581 11.0742 44.0576C14.6658 43.8416 18.9059 43.7336 23.7946 43.7336H36.066H97.7223H108.647C113.535 43.7336 118.025 43.8493 122.115 44.0807C125.907 44.2967 128.351 44.5551 129.448 44.8559C129.448 44.3468 127.852 43.8686 124.66 43.4212C120.669 42.8736 115.331 42.5998 108.647 42.5998H97.7223H36.066ZM36.066 52.0637H23.7946C19.9036 52.0637 16.1623 51.975 12.5707 51.7976C9.17861 51.6356 6.38512 51.4274 4.19024 51.1728C4.68907 51.5276 6.53477 51.8285 9.72733 52.0753C13.319 52.3452 18.008 52.4802 23.7946 52.4802H36.066H97.7223H108.647C113.236 52.4802 117.576 52.3452 121.667 52.0753C125.757 51.7976 128.002 51.4968 128.401 51.1728C126.106 51.4351 123.313 51.6433 120.02 51.7976C116.329 51.975 112.538 52.0637 108.647 52.0637H97.7223H36.066Z" fill="#FFC21A"/>
<path fill-rule="evenodd" clip-rule="evenodd" d="M12.1217 52.5844C15.6136 52.7463 19.5544 52.8273 23.9442 52.8273H36.0659H97.7223H108.796C115.481 52.8273 121.118 52.6461 125.707 52.2836C130.396 51.921 132.741 51.4853 132.741 50.9762V50.2589V45.6195V44.1386C132.741 43.7992 131.743 43.4945 129.748 43.2246C131.444 43.3017 133.09 43.402 134.686 43.5254C139.375 43.8879 141.72 44.3237 141.72 44.8327V45.6195V50.2589V51.6704C141.72 52.1871 139.375 52.6229 134.686 52.9777C130.097 53.3402 124.46 53.5215 117.776 53.5215H97.7223H36.0659H32.9232C26.3386 53.5215 20.7017 53.3402 16.0126 52.9777L12.1217 52.5844Z" fill="black" fill-opacity="0.298039"/>
<path fill-rule="evenodd" clip-rule="evenodd" d="M36.0659 52.0637H97.7223H108.647C112.538 52.0637 116.329 51.975 120.02 51.7976C123.313 51.6434 126.106 51.4351 128.401 51.1729C128.002 51.4968 125.757 51.7976 121.666 52.0753C117.576 52.3453 113.236 52.4802 108.647 52.4802H97.7223H36.0659H23.7945C18.008 52.4802 13.3189 52.3453 9.72728 52.0753C6.53472 51.8285 4.68902 51.5277 4.19019 51.1729C6.38507 51.4274 9.17856 51.6357 12.5707 51.7976C16.1623 51.975 19.9036 52.0637 23.7945 52.0637H36.0659ZM36.0659 42.5998H97.7223H108.647C115.331 42.5998 120.669 42.8736 124.659 43.4213C127.852 43.8686 129.448 44.3468 129.448 44.8559C128.351 44.5551 125.907 44.2967 122.115 44.0807C118.025 43.8493 113.535 43.7336 108.647 43.7336H97.7223H36.0659H23.7945C18.9059 43.7336 14.6658 43.8416 11.0741 44.0576C7.78182 44.2581 5.48716 44.5242 4.19019 44.8559C4.19019 44.2466 5.73658 43.7336 8.82938 43.3171C12.3212 42.8389 17.3096 42.5998 23.7945 42.5998H36.0659ZM36.0659 43.213H97.7223H108.347L110.892 43.1436L111.939 42.9816C111.939 42.9199 111.59 42.8659 110.892 42.8196L108.347 42.7502H97.7223H36.0659H24.5428C23.5451 42.7502 22.6971 42.7734 21.9987 42.8196C21.3003 42.8659 20.9511 42.9199 20.9511 42.9816C20.9511 43.0433 21.3003 43.0973 21.9987 43.1436L24.5428 43.213H36.0659Z" fill="#FFE66A"/>
</g>
<mask id="mask6_182_22999" style="mask-type:luminance" maskUnits="userSpaceOnUse" x="35" y="48" width="107" height="51">
<path d="M35.7115 48.9259H141.406V98.3686H35.7115V48.9259Z" fill="white"/>
</mask>
<g mask="url(#mask6_182_22999)">
<path fill-rule="evenodd" clip-rule="evenodd" d="M-4.30136 83.5358C-7.3212 82.437 -10.1733 81.0087 -12.8576 79.2507C-20.7427 74.0867 -24.6853 67.8789 -24.6853 60.6273V50.4092V-15.6791V-36.7746C-24.6853 -44.1361 -20.7427 -50.3439 -12.8576 -55.398C-4.97243 -60.562 4.50652 -63.144 15.5793 -63.144H35.9632H139.645H158.267C169.507 -63.144 178.986 -60.562 186.704 -55.398L193.498 -49.7945C196.854 -45.949 198.531 -41.609 198.531 -36.7746V-15.6791V50.4092V60.6273C198.531 67.8789 194.589 74.0867 186.704 79.2507C178.986 84.4147 169.507 86.9967 158.267 86.9967H139.645H35.9632H15.5793C8.19744 86.9967 1.57056 85.8431 -4.30136 83.5358ZM35.9632 -58.6942H15.3276C4.42263 -58.6942 -3.96582 -55.2881 -9.83774 -48.476C-15.0386 -42.5429 -17.639 -35.2364 -17.639 -26.5565C-15.458 -31.281 -11.5993 -35.0716 -6.06293 -37.9283C-0.0232468 -41.0047 7.10694 -42.5429 15.3276 -42.5429H35.9632H139.645H158.015C166.236 -42.5429 173.786 -40.8948 180.664 -37.5987C187.039 -34.5222 191.15 -30.8415 192.995 -26.5565C192.995 -33.8081 190.311 -40.6202 184.942 -46.9928C178.231 -54.7937 169.256 -58.6942 158.015 -58.6942H139.645H35.9632ZM35.9632 76.1194H15.3276C8.78463 76.1194 2.49329 74.8558 -3.5464 72.3288C-9.25055 70.0215 -13.9481 67.0549 -17.639 63.4291C-16.8002 68.4832 -13.6964 72.7683 -8.32782 76.2842C-2.28813 80.1297 5.59702 82.0525 15.3276 82.0525H35.9632H139.645H158.015C165.733 82.0525 173.031 80.1297 179.909 76.2842C186.788 72.3288 190.562 68.0437 191.234 63.4291C187.375 67.1648 182.677 70.1313 177.141 72.3288C170.933 74.8558 164.558 76.1194 158.015 76.1194H139.645H35.9632Z" fill="#FFC21A"/>
<path fill-rule="evenodd" clip-rule="evenodd" d="M-4.30139 83.5358C1.57053 85.8431 8.1974 86.9967 15.5792 86.9967H35.9632H139.644H158.267C169.507 86.9967 178.986 84.4147 186.704 79.2507C194.589 74.0867 198.531 67.8789 198.531 60.6273V50.4092V-15.6791V-36.7746C198.531 -41.609 196.854 -45.949 193.498 -49.7945C196.35 -48.6958 199.119 -47.2675 201.803 -45.5095C209.688 -40.3455 213.631 -34.1377 213.631 -26.8861V-15.6791V50.4092V70.5159C213.631 77.8773 209.688 84.0851 201.803 89.1393C194.086 94.3033 184.607 96.8853 173.366 96.8853H139.644H35.9632H30.6785C19.6057 96.8853 10.1267 94.3033 2.2416 89.1393L-4.30139 83.5358Z" fill="black" fill-opacity="0.298039"/>
<path fill-rule="evenodd" clip-rule="evenodd" d="M35.9632 76.1194H139.644H158.015C164.558 76.1194 170.933 74.8558 177.141 72.3288C182.677 70.1313 187.375 67.1648 191.233 63.4291C190.562 68.0437 186.788 72.3288 179.909 76.2842C173.031 80.1297 165.733 82.0525 158.015 82.0525H139.644H35.9632H15.3276C5.59698 82.0525 -2.28817 80.1297 -8.32785 76.2842C-13.6965 72.7683 -16.8002 68.4832 -17.639 63.4291C-13.9481 67.0549 -9.25059 70.0214 -3.54644 72.3288C2.49325 74.8558 8.78459 76.1194 15.3276 76.1194H35.9632ZM35.9632 -58.6942H139.644H158.015C169.256 -58.6942 178.231 -54.7937 184.942 -46.9928C190.311 -40.6202 192.995 -33.8081 192.995 -26.5565C191.15 -30.8415 187.039 -34.5222 180.664 -37.5987C173.785 -40.8949 166.236 -42.5429 158.015 -42.5429H139.644H35.9632H15.3276C7.1069 -42.5429 -0.023283 -41.0047 -6.06297 -37.9283C-11.5994 -35.0716 -15.458 -31.281 -17.639 -26.5565C-17.639 -35.2364 -15.0386 -42.5429 -9.83778 -48.4761C-3.96586 -55.2882 4.42259 -58.6942 15.3276 -58.6942H35.9632ZM35.9632 -49.9593H139.644H157.512L161.79 -50.9482L163.552 -53.2555C163.552 -54.1345 162.964 -54.9036 161.79 -55.5628L157.512 -56.5517H139.644H35.9632H16.5859C14.9082 -56.5517 13.4821 -56.2221 12.3077 -55.5628C11.1334 -54.9036 10.5462 -54.1345 10.5462 -53.2555C10.5462 -52.3765 11.1334 -51.6074 12.3077 -50.9482L16.5859 -49.9593H35.9632Z" fill="#FFE66A"/>
</g>
<mask id="mask7_182_22999" style="mask-type:luminance" maskUnits="userSpaceOnUse" x="140" y="45" width="43" height="6">
<path d="M140.592 45.5269H182.494V50.1547H140.592V45.5269Z" fill="white"/>
</mask>
<g mask="url(#mask7_182_22999)">
<path fill-rule="evenodd" clip-rule="evenodd" d="M53.9439 52.5843C52.1481 52.5072 50.452 52.4069 48.8558 52.2835C44.1667 51.921 41.8221 51.4852 41.8221 50.9762V50.2589V45.6195V44.1385C41.8221 43.6218 44.1667 43.186 48.8558 42.8312C53.5448 42.4687 59.1817 42.2874 65.7664 42.2874H77.8881H139.544H150.619C157.303 42.2874 162.94 42.4687 167.529 42.8312L171.57 43.2246C173.565 43.4945 174.563 43.7992 174.563 44.1385V45.6195V50.2589V50.9762C174.563 51.4852 172.218 51.921 167.529 52.2835C162.94 52.646 157.303 52.8273 150.619 52.8273H139.544H77.8881H65.7664C61.3766 52.8273 57.4358 52.7463 53.9439 52.5843ZM77.8881 42.5998H65.6167C59.1318 42.5998 54.1434 42.8389 50.6516 43.3171C47.5588 43.7336 46.0124 44.2465 46.0124 44.8559C47.3094 44.5242 49.604 44.2581 52.8963 44.0576C56.488 43.8416 60.7281 43.7336 65.6167 43.7336H77.8881H139.544H150.469C155.358 43.7336 159.847 43.8493 163.938 44.0807C167.729 44.2967 170.173 44.5551 171.271 44.8559C171.271 44.3468 169.674 43.8686 166.482 43.4212C162.491 42.8736 157.153 42.5998 150.469 42.5998H139.544H77.8881ZM77.8881 52.0637H65.6167C61.7258 52.0637 57.9845 51.975 54.3929 51.7976C51.0008 51.6356 48.2073 51.4274 46.0124 51.1728C46.5112 51.5276 48.3569 51.8285 51.5495 52.0753C55.1411 52.3452 59.8302 52.4802 65.6167 52.4802H77.8881H139.544H150.469C155.058 52.4802 159.398 52.3452 163.489 52.0753C167.579 51.7976 169.824 51.4968 170.223 51.1728C167.928 51.4351 165.135 51.6433 161.842 51.7976C158.151 51.975 154.36 52.0637 150.469 52.0637H139.544H77.8881Z" fill="#FFC21A"/>
<path fill-rule="evenodd" clip-rule="evenodd" d="M53.944 52.5844C57.4358 52.7463 61.3767 52.8273 65.7664 52.8273H77.8882H139.545H150.619C157.303 52.8273 162.94 52.6461 167.529 52.2836C172.218 51.921 174.563 51.4853 174.563 50.9762V50.2589V45.6195V44.1386C174.563 43.7992 173.565 43.4945 171.57 43.2246C173.266 43.3017 174.912 43.402 176.508 43.5254C181.197 43.8879 183.542 44.3237 183.542 44.8327V45.6195V50.2589V51.6704C183.542 52.1871 181.197 52.6229 176.508 52.9777C171.919 53.3402 166.282 53.5215 159.598 53.5215H139.545H77.8882H74.7455C68.1608 53.5215 62.524 53.3402 57.8349 52.9777L53.944 52.5844Z" fill="black" fill-opacity="0.298039"/>
<path fill-rule="evenodd" clip-rule="evenodd" d="M77.8882 52.0637H139.545H150.469C154.36 52.0637 158.151 51.975 161.843 51.7976C165.135 51.6434 167.928 51.4351 170.223 51.1729C169.824 51.4968 167.579 51.7976 163.489 52.0753C159.398 52.3453 155.058 52.4802 150.469 52.4802H139.545H77.8882H65.6168C59.8303 52.4802 55.1412 52.3453 51.5495 52.0753C48.357 51.8285 46.5113 51.5277 46.0125 51.1729C48.2073 51.4274 51.0008 51.6357 54.3929 51.7976C57.9846 51.975 61.7258 52.0637 65.6168 52.0637H77.8882ZM77.8882 42.5998H139.545H150.469C157.153 42.5998 162.491 42.8736 166.482 43.4213C169.674 43.8686 171.271 44.3468 171.271 44.8559C170.173 44.5551 167.729 44.2967 163.938 44.0807C159.847 43.8493 155.358 43.7336 150.469 43.7336H139.545H77.8882H65.6168C60.7282 43.7336 56.488 43.8416 52.8964 44.0576C49.6041 44.2581 47.3094 44.5242 46.0125 44.8559C46.0125 44.2466 47.5588 43.7336 50.6516 43.3171C54.1435 42.8389 59.1319 42.5998 65.6168 42.5998H77.8882ZM77.8882 43.213H139.545H150.17L152.714 43.1436L153.761 42.9816C153.761 42.9199 153.412 42.8659 152.714 42.8196L150.17 42.7502H139.545H77.8882H66.365C65.3674 42.7502 64.5193 42.7734 63.821 42.8196C63.1226 42.8659 62.7734 42.9199 62.7734 42.9816C62.7734 43.0433 63.1226 43.0973 63.821 43.1436L66.365 43.213H77.8882Z" fill="#FFE66A"/>
</g>
<mask id="mask8_182_22999" style="mask-type:luminance" maskUnits="userSpaceOnUse" x="35" y="45" width="107" height="6">
<path d="M35.7115 45.5269H141.406V50.1547H35.7115V45.5269Z" fill="white"/>
</mask>
<g mask="url(#mask8_182_22999)">
<path fill-rule="evenodd" clip-rule="evenodd" d="M-4.30136 52.5843C-7.3212 52.5072 -10.1733 52.4069 -12.8576 52.2835C-20.7427 51.921 -24.6853 51.4852 -24.6853 50.9762V50.2589V45.6195V44.1385C-24.6853 43.6218 -20.7427 43.186 -12.8576 42.8312C-4.97243 42.4687 4.50652 42.2874 15.5793 42.2874H35.9632H139.645H158.267C169.507 42.2874 178.986 42.4687 186.704 42.8312L193.498 43.2246C196.854 43.4945 198.531 43.7992 198.531 44.1385V45.6195V50.2589V50.9762C198.531 51.4852 194.589 51.921 186.704 52.2835C178.986 52.646 169.507 52.8273 158.267 52.8273H139.645H35.9632H15.5793C8.19744 52.8273 1.57056 52.7463 -4.30136 52.5843ZM35.9632 42.5998H15.3276C4.42263 42.5998 -3.96582 42.8389 -9.83774 43.3171C-15.0386 43.7336 -17.639 44.2465 -17.639 44.8559C-15.458 44.5242 -11.5993 44.2581 -6.06293 44.0576C-0.0232468 43.8416 7.10694 43.7336 15.3276 43.7336H35.9632H139.645H158.015C166.236 43.7336 173.786 43.8493 180.664 44.0807C187.039 44.2967 191.15 44.5551 192.995 44.8559C192.995 44.3468 190.311 43.8686 184.942 43.4212C178.231 42.8736 169.256 42.5998 158.015 42.5998H139.645H35.9632ZM35.9632 52.0637H15.3276C8.78463 52.0637 2.49329 51.975 -3.5464 51.7976C-9.25055 51.6356 -13.9481 51.4274 -17.639 51.1728C-16.8002 51.5276 -13.6964 51.8285 -8.32782 52.0753C-2.28813 52.3452 5.59702 52.4802 15.3276 52.4802H35.9632H139.645H158.015C165.733 52.4802 173.031 52.3452 179.909 52.0753C186.788 51.7976 190.562 51.4968 191.234 51.1728C187.375 51.4351 182.677 51.6433 177.141 51.7976C170.933 51.975 164.558 52.0637 158.015 52.0637H139.645H35.9632Z" fill="#FFC21A"/>
<path fill-rule="evenodd" clip-rule="evenodd" d="M-4.30139 52.5844C1.57053 52.7463 8.1974 52.8273 15.5792 52.8273H35.9632H139.644H158.267C169.507 52.8273 178.986 52.6461 186.704 52.2836C194.589 51.921 198.531 51.4853 198.531 50.9762V50.2589V45.6195V44.1386C198.531 43.7992 196.854 43.4945 193.498 43.2246C196.35 43.3017 199.119 43.402 201.803 43.5254C209.688 43.8879 213.631 44.3237 213.631 44.8327V45.6195V50.2589V51.6704C213.631 52.1871 209.688 52.6229 201.803 52.9777C194.086 53.3402 184.607 53.5215 173.366 53.5215H139.644H35.9632H30.6785C19.6057 53.5215 10.1267 53.3402 2.2416 52.9777L-4.30139 52.5844Z" fill="black" fill-opacity="0.298039"/>
<path fill-rule="evenodd" clip-rule="evenodd" d="M35.9632 52.0637H139.644H158.015C164.558 52.0637 170.933 51.975 177.141 51.7976C182.677 51.6434 187.375 51.4351 191.233 51.1729C190.562 51.4968 186.788 51.7976 179.909 52.0753C173.031 52.3453 165.733 52.4802 158.015 52.4802H139.644H35.9632H15.3276C5.59698 52.4802 -2.28817 52.3453 -8.32785 52.0753C-13.6965 51.8285 -16.8002 51.5277 -17.639 51.1729C-13.9481 51.4274 -9.25059 51.6357 -3.54644 51.7976C2.49325 51.975 8.78459 52.0637 15.3276 52.0637H35.9632ZM35.9632 42.5998H139.644H158.015C169.256 42.5998 178.231 42.8736 184.942 43.4213C190.311 43.8686 192.995 44.3468 192.995 44.8559C191.15 44.5551 187.039 44.2967 180.664 44.0807C173.785 43.8493 166.236 43.7336 158.015 43.7336H139.644H35.9632H15.3276C7.1069 43.7336 -0.023283 43.8416 -6.06297 44.0576C-11.5994 44.2581 -15.458 44.5242 -17.639 44.8559C-17.639 44.2466 -15.0386 43.7336 -9.83778 43.3171C-3.96586 42.8389 4.42259 42.5998 15.3276 42.5998H35.9632ZM35.9632 43.213H139.644H157.512L161.79 43.1436L163.552 42.9816C163.552 42.9199 162.964 42.8659 161.79 42.8196L157.512 42.7502H139.644H35.9632H16.5859C14.9082 42.7502 13.4821 42.7734 12.3077 42.8196C11.1334 42.8659 10.5462 42.9199 10.5462 42.9816C10.5462 43.0433 11.1334 43.0973 12.3077 43.1436L16.5859 43.213H35.9632Z" fill="#FFE66A"/>
</g>
<path d="M74.584 32.3789H65.4434V69.6445L60.7559 69.2344L59.6426 69.7031L58.5293 69.6445V56.9883L58.4121 56.4609L58.6465 56.0508L58.1191 50.7188L57.8848 50.4258L58.5293 49.0195V32.3789H49.4473V24.9375H74.4668V26.2852L74.291 26.8711L74.584 27.457V32.3789ZM78.5684 63.9609V62.1445L77.9824 61.2656L78.3926 60.6797V52.8867L77.748 52.4766L78.041 52.1836V49.1367L77.6309 48.4922L77.9238 46.9102V24.7031H100.775V26.1094L101.596 29.5078V31.0898L101.42 31.5586L102.416 40.582L102.24 40.875L101.83 41.1094L98.0801 40.875H96.5566L96.1465 41.2852L97.5527 48.1992L100.072 58.043L100.658 61.207L100.482 61.4414L100.951 61.9102L101.361 64.3711L101.244 65.1914L101.771 65.7773L102.24 69.0586H96.1465L93.3926 61.0312L92.5137 58.1016L89.9941 46.207L89.1152 41.168H84.4863L85.4238 54.293V59.2148L85.5996 63.2578L85.0137 68.707L79.1543 68.9414L78.627 68.4141L78.5684 67.418V63.9609ZM95.3848 35.25L95.2676 33.4922L95.3848 31.3242H84.252L84.6035 33.1406V34.4297L84.252 35.25H95.3848ZM78.5684 67.3594L78.5098 67.418V67.3008L78.5684 67.3594ZM127.201 24.2344L122.396 35.3086L120.17 42.3984L119.936 44.625V56.0508L120.17 57.1641L119.467 57.6914L119.643 58.2188V67.8281H112.787V44.5664L112.436 42.1641L111.146 37.8867L105.521 23.6484H112.494L116.42 37.1836L120.17 24.2344H127.201Z" fill="white"/>
</svg>
