<?xml version="1.0" encoding="UTF-8" standalone="no"?>
<svg xmlns:ffdec="https://www.free-decompiler.com/flash" xmlns:xlink="http://www.w3.org/1999/xlink" ffdec:objectType="frame" height="148.7px" width="114.4px" xmlns="http://www.w3.org/2000/svg">
  <g transform="matrix(1.0, 0.0, 0.0, 1.0, 56.8, 109.4)">
    <use ffdec:characterId="1919" height="48.75" transform="matrix(1.0, 0.0, 0.0, 1.0, -25.15, -23.25)" width="50.45" xlink:href="#shape0"/>
  </g>
  <defs>
    <g id="shape0" transform="matrix(1.0, 0.0, 0.0, 1.0, 25.15, 23.25)">
      <path d="M21.45 -13.85 Q23.9 -10.05 24.4 -6.95 24.8 -4.1 24.45 -1.95 L24.0 -0.3 Q24.9 1.0 25.15 2.8 25.45 4.7 25.1 6.55 25.0 8.65 24.2 10.85 22.4 16.1 16.8 16.95 L15.15 17.1 Q15.0 18.6 14.35 20.0 12.15 24.25 5.2 25.3 -0.7 26.25 -4.9 22.95 -9.2 22.9 -11.85 19.95 L-12.1 19.65 Q-16.75 20.35 -19.6 16.9 -21.3 14.75 -21.65 12.65 L-21.85 9.7 -23.65 7.6 -24.95 4.35 Q-26.1 -3.05 -20.4 -7.25 L-19.2 -8.05 Q-19.5 -14.25 -16.05 -18.25 -12.55 -22.3 -6.25 -23.1 -0.35 -23.8 4.5 -21.35 6.1 -20.6 7.3 -19.55 L8.8 -19.55 10.7 -19.45 14.2 -18.9 Q18.2 -18.9 21.45 -13.85 M-8.4 17.7 L-8.45 17.65 -8.5 17.65 -8.4 17.7 M-14.65 15.25 L-14.35 15.35 -14.5 14.85 -14.65 15.25" fill="#ada098" fill-rule="evenodd" stroke="none"/>
    </g>
  </defs>
</svg>
