<?xml version="1.0" encoding="UTF-8" standalone="no"?>
<svg xmlns:ffdec="https://www.free-decompiler.com/flash" xmlns:xlink="http://www.w3.org/1999/xlink" ffdec:objectType="frame" height="148.7px" width="114.4px" xmlns="http://www.w3.org/2000/svg">
  <g transform="matrix(1.0, 0.0, 0.0, 1.0, 56.8, 109.4)">
    <use ffdec:characterId="1927" height="96.8" transform="matrix(1.0, 0.0, 0.0, 1.0, -50.2, -74.3)" width="92.1" xlink:href="#shape0"/>
  </g>
  <defs>
    <g id="shape0" transform="matrix(1.0, 0.0, 0.0, 1.0, 50.2, 74.3)">
      <path d="M7.95 -52.0 L7.05 -51.95 6.75 -51.35 Q5.5 -48.3 2.95 -47.95 -0.35 -47.4 -2.7 -49.6 -4.35 -51.15 -4.6 -52.6 -4.95 -55.1 -3.35 -57.05 L-2.7 -57.65 -3.1 -59.25 Q-3.9 -64.5 -1.15 -68.65 1.3 -72.5 5.5 -73.75 9.75 -75.1 13.15 -73.0 16.8 -70.7 17.8 -64.95 L18.65 -65.15 Q26.2 -66.5 27.65 -60.1 32.8 -59.3 33.6 -54.3 34.0 -51.5 33.5 -49.4 33.1 -47.75 32.2 -46.75 32.35 -44.8 31.65 -42.95 30.15 -39.2 25.35 -38.5 19.3 -37.55 16.55 -40.65 16.0 -41.3 15.6 -42.1 12.8 -42.85 10.7 -45.4 8.5 -48.15 8.05 -51.0 L7.95 -52.0 M32.05 -67.55 Q32.15 -66.95 31.7 -66.1 31.15 -65.15 30.15 -65.0 28.8 -64.8 28.25 -65.9 L27.85 -66.9 Q27.55 -68.95 29.65 -69.3 31.75 -69.6 32.05 -67.55 M36.85 -41.15 Q38.85 -41.35 39.15 -39.55 39.2 -39.05 38.85 -38.35 38.35 -37.45 37.45 -37.3 36.3 -37.15 35.6 -38.05 L35.15 -38.95 Q34.85 -41.0 36.85 -41.15 M21.9 -42.35 L22.9 -42.25 22.45 -42.55 21.9 -42.35 M37.5 -35.05 Q41.2 -35.95 41.85 -31.85 42.0 -30.85 41.5 -29.9 40.7 -28.45 38.4 -28.1 36.1 -27.75 35.0 -29.1 34.55 -29.7 34.4 -30.65 33.9 -34.1 37.5 -35.05 M6.45 -15.9 L6.6 -15.7 6.85 -15.9 6.45 -15.9 M11.95 -18.95 Q14.55 -17.25 15.2 -14.05 16.65 -14.95 18.45 -15.6 22.3 -17.05 25.3 -16.5 L26.75 -16.05 27.75 -16.35 Q31.55 -17.15 34.5 -15.7 37.75 -14.0 38.35 -9.95 38.8 -7.0 37.15 -3.15 L37.1 -2.9 37.4 -1.5 Q37.9 1.85 37.0 4.6 35.45 9.7 29.65 10.9 L29.45 11.3 Q26.85 16.7 20.85 17.6 16.0 18.35 11.45 16.75 L11.35 16.9 Q9.8 21.35 3.95 22.25 -4.2 23.5 -8.55 18.8 -11.0 16.15 -11.5 13.1 L-11.55 12.45 -11.95 12.5 Q-17.25 13.3 -20.6 9.0 -22.6 6.4 -22.95 4.15 -23.7 -0.7 -21.3 -3.4 -19.1 -5.85 -15.35 -5.8 L-12.75 -5.45 -12.9 -6.25 Q-13.7 -11.3 -10.75 -14.75 -9.35 -16.45 -7.5 -17.45 -7.45 -19.6 -5.95 -21.15 -4.3 -22.75 -1.45 -23.1 1.25 -23.4 3.45 -22.35 5.2 -21.5 5.8 -20.15 L6.15 -20.25 Q9.35 -20.65 11.95 -18.95 M-42.5 -1.1 Q-42.3 0.1 -42.9 1.45 -43.75 3.25 -45.7 3.55 -48.0 3.9 -49.25 2.05 L-50.1 0.15 Q-50.7 -3.55 -46.9 -4.5 -43.15 -5.45 -42.5 -1.1 M-40.7 -2.95 Q-38.75 -3.15 -38.45 -1.35 -38.4 -0.85 -38.75 -0.1 -39.25 0.8 -40.1 0.9 -41.3 1.1 -42.05 0.2 L-42.45 -0.8 Q-42.75 -2.8 -40.7 -2.95 M-41.4 -13.2 L-37.8 -13.0 Q-36.1 -12.2 -35.8 -10.25 -35.6 -8.85 -36.15 -7.55 -36.95 -5.4 -39.55 -5.0 -41.6 -4.7 -43.9 -6.15 -45.7 -7.4 -45.75 -7.85 -46.4 -12.05 -41.4 -13.2 M-16.75 -40.65 L-17.75 -38.95 -17.55 -38.0 Q-17.3 -36.55 -17.9 -35.15 -18.85 -32.95 -21.65 -32.55 L-21.75 -32.5 Q-21.6 -31.15 -22.2 -30.35 -23.0 -29.3 -25.5 -28.9 -29.1 -28.35 -30.3 -30.05 L-30.75 -31.85 Q-31.05 -33.7 -29.85 -35.15 -28.75 -36.55 -27.0 -36.95 L-26.3 -37.05 -25.5 -38.5 -25.4 -38.55 -26.0 -39.25 -27.0 -42.1 Q-27.35 -44.35 -25.85 -46.25 -24.55 -47.9 -22.3 -48.5 -20.05 -49.1 -18.35 -48.2 -16.45 -47.1 -16.0 -44.35 -15.8 -43.0 -16.75 -40.65" fill="#ada098" fill-rule="evenodd" stroke="none"/>
    </g>
  </defs>
</svg>
