<?xml version="1.0" encoding="UTF-8" standalone="no"?>
<svg xmlns:ffdec="https://www.free-decompiler.com/flash" xmlns:xlink="http://www.w3.org/1999/xlink" ffdec:objectType="frame" height="148.7px" width="114.4px" xmlns="http://www.w3.org/2000/svg">
  <g transform="matrix(1.0, 0.0, 0.0, 1.0, 56.8, 109.4)">
    <use ffdec:characterId="1067" height="89.05" transform="matrix(1.0, 0.0, 0.0, 1.0, -54.8, -84.1)" width="104.5" xlink:href="#shape0"/>
  </g>
  <defs>
    <g id="shape0" transform="matrix(1.0, 0.0, 0.0, 1.0, 54.8, 84.1)">
      <path d="M45.25 -55.7 Q44.95 -57.65 47.15 -58.05 49.4 -58.5 49.7 -56.35 49.8 -55.6 49.35 -54.95 48.8 -54.2 47.75 -54.05 46.4 -53.85 45.7 -54.75 L45.25 -55.7 M22.75 -75.4 Q23.05 -73.2 22.45 -71.45 21.3 -68.2 17.35 -67.6 9.3 -66.35 6.45 -69.45 5.25 -70.8 4.65 -74.9 4.1 -78.35 8.25 -81.6 12.05 -84.55 14.45 -84.0 18.8 -82.15 20.8 -79.95 22.3 -78.15 22.75 -75.4 M7.85 -60.15 L7.6 -58.8 Q7.05 -57.65 5.75 -57.45 4.2 -57.25 3.55 -58.3 L3.2 -59.45 Q2.85 -61.75 5.25 -61.9 7.55 -62.05 7.85 -60.15 M31.15 -63.6 Q30.6 -62.8 29.5 -62.65 28.0 -62.4 27.3 -63.5 L26.95 -64.45 Q26.6 -66.65 28.85 -66.8 31.15 -66.95 31.45 -65.0 31.55 -64.3 31.15 -63.6 M22.05 -55.0 Q21.15 -60.9 26.3 -60.55 28.3 -60.4 29.95 -59.2 31.75 -57.85 32.05 -55.95 32.3 -54.5 31.9 -53.15 31.35 -51.05 29.35 -50.75 24.85 -50.05 23.05 -52.3 22.35 -53.15 22.05 -55.0 M26.35 -27.15 L27.4 -27.0 Q27.8 -27.1 30.15 -28.7 32.2 -30.05 35.7 -29.9 38.8 -29.8 40.25 -28.9 L41.9 -27.1 Q42.7 -26.15 43.65 -23.3 L44.75 -19.45 Q45.05 -17.35 44.5 -14.65 43.9 -12.2 42.65 -9.9 L40.3 -7.5 37.55 -4.95 36.2 -2.4 Q34.95 -0.75 31.75 -0.25 24.4 0.9 20.2 -5.8 18.9 -7.95 18.05 -10.65 17.55 -12.2 17.4 -13.25 16.9 -16.45 17.95 -20.2 19.65 -26.5 25.2 -27.35 L26.35 -27.15 M14.05 -25.05 Q14.15 -24.1 13.45 -22.9 12.6 -21.35 10.95 -21.1 9.2 -20.85 8.45 -22.05 8.1 -22.6 7.95 -23.5 7.55 -26.35 10.55 -27.3 13.55 -28.2 14.05 -25.05 M1.1 -25.2 Q0.55 -24.1 -0.7 -23.9 -2.4 -23.6 -3.0 -24.75 L-3.35 -26.1 Q-3.7 -28.65 -1.3 -28.95 1.0 -29.25 1.35 -26.95 1.5 -26.05 1.1 -25.2 M6.15 -17.05 Q9.65 -17.55 12.35 -15.4 15.35 -13.0 16.15 -7.95 16.55 -5.45 15.55 -3.5 14.0 -0.6 9.55 0.1 L7.7 0.25 7.7 0.7 Q7.0 4.05 2.3 4.8 -3.15 5.6 -5.8 2.25 L-7.1 -0.25 -7.4 -1.55 Q-7.95 -5.05 -6.6 -7.5 L-7.25 -7.3 Q-7.25 -6.4 -7.75 -5.55 -8.55 -4.2 -10.5 -3.9 -11.4 -3.75 -12.1 -3.9 -13.9 -0.6 -18.65 0.1 -26.2 1.3 -27.65 -8.3 -28.3 -12.3 -26.05 -14.65 -24.1 -16.7 -20.7 -16.7 L-19.3 -16.6 Q-19.05 -18.6 -17.5 -20.4 -15.45 -22.85 -12.3 -23.6 -8.9 -24.35 -6.45 -22.7 -3.55 -20.8 -2.85 -16.2 -2.35 -13.15 -2.85 -11.35 L-3.0 -11.0 -1.4 -11.4 -0.7 -11.45 Q-0.25 -12.8 0.75 -13.95 2.8 -16.55 6.15 -17.05 M47.6 -46.9 Q47.75 -46.15 47.25 -45.55 46.7 -44.85 45.75 -44.7 44.5 -44.5 43.8 -45.35 L43.4 -46.3 Q43.1 -48.25 45.2 -48.65 47.3 -49.05 47.6 -46.9 M-15.05 -59.8 Q-14.45 -55.9 -19.05 -55.2 -22.15 -54.7 -23.85 -56.0 -25.0 -56.8 -25.2 -58.2 -25.45 -59.7 -24.05 -61.35 -22.75 -62.95 -20.8 -63.65 -15.95 -65.6 -15.05 -59.8 M-50.25 -19.55 L-50.85 -20.95 Q-51.35 -24.3 -47.7 -24.95 -44.2 -25.55 -43.45 -22.45 L-42.4 -22.75 Q-40.0 -22.95 -39.65 -20.75 -39.55 -18.7 -41.35 -18.4 -43.0 -18.15 -43.9 -19.35 L-44.0 -19.55 Q-44.75 -18.85 -46.35 -18.6 -49.0 -18.2 -50.25 -19.55 M-53.2 -8.0 Q-51.25 -8.1 -50.85 -5.3 -50.75 -4.8 -51.1 -4.45 -51.45 -3.95 -52.35 -3.85 -53.65 -3.65 -54.3 -4.5 L-54.75 -5.5 Q-55.1 -7.9 -53.2 -8.0 M-27.75 -43.3 Q-28.3 -47.1 -24.3 -47.4 -20.3 -47.7 -19.9 -44.9 -19.7 -43.7 -20.7 -42.55 -21.95 -41.1 -24.45 -40.7 -26.55 -40.4 -27.35 -41.8 L-27.75 -43.3" fill="#ada098" fill-rule="evenodd" stroke="none"/>
    </g>
  </defs>
</svg>
