<?xml version="1.0" encoding="UTF-8" standalone="no"?>
<svg xmlns:ffdec="https://www.free-decompiler.com/flash" xmlns:xlink="http://www.w3.org/1999/xlink" ffdec:objectType="frame" height="148.7px" width="114.4px" xmlns="http://www.w3.org/2000/svg">
  <g transform="matrix(1.0, 0.0, 0.0, 1.0, 56.8, 109.4)">
    <use ffdec:characterId="1068" height="90.4" transform="matrix(1.0, 0.0, 0.0, 1.0, -56.8, -88.15)" width="104.3" xlink:href="#shape0"/>
  </g>
  <defs>
    <g id="shape0" transform="matrix(1.0, 0.0, 0.0, 1.0, 56.8, 88.15)">
      <path d="M24.05 -85.55 Q25.45 -84.45 25.55 -83.55 25.9 -81.25 23.75 -77.75 20.4 -72.35 12.75 -71.2 9.05 -70.6 6.95 -72.55 5.5 -73.75 5.3 -75.3 5.05 -76.9 5.2 -77.55 5.55 -78.85 7.5 -80.0 9.75 -81.35 9.5 -82.55 9.2 -83.9 9.8 -84.5 15.0 -89.45 20.6 -87.65 22.55 -86.95 24.05 -85.55 M6.1 -61.85 L5.55 -61.85 5.15 -62.05 4.95 -62.75 Q5.4 -64.0 6.15 -63.9 6.85 -63.75 6.95 -63.1 L6.8 -62.35 6.1 -61.85 M32.0 -51.4 Q28.65 -50.9 26.6 -53.6 25.35 -55.25 25.1 -57.0 24.7 -59.65 25.9 -61.25 27.05 -62.65 29.0 -62.7 30.95 -62.7 32.5 -61.3 34.2 -59.85 34.6 -57.3 34.9 -55.6 34.65 -54.2 34.15 -51.75 32.0 -51.4 M31.15 -34.75 Q36.8 -36.6 41.05 -34.35 45.9 -31.7 47.05 -24.3 L47.5 -19.85 Q47.25 -17.3 45.1 -14.7 43.25 -12.4 39.2 -8.95 34.7 -5.25 33.05 -5.0 26.2 -3.95 22.1 -11.4 20.8 -13.75 19.85 -16.75 19.35 -18.5 19.2 -19.5 18.45 -24.25 22.2 -28.85 25.75 -33.1 31.15 -34.75 M14.8 -35.0 Q14.5 -33.55 13.0 -33.3 11.05 -33.0 10.05 -34.25 L9.4 -35.55 Q8.95 -38.5 11.6 -39.25 14.3 -39.95 14.75 -37.15 L14.8 -35.0 M13.0 -18.6 Q16.75 -17.35 17.35 -13.45 17.65 -11.5 17.15 -10.05 16.7 -8.75 14.85 -6.0 14.8 -4.15 14.0 -2.45 12.5 0.9 8.15 1.6 5.85 1.95 4.2 0.8 L2.5 -0.55 Q-1.6 0.2 -3.05 -2.0 -3.5 -2.65 -3.9 -5.1 -4.65 -9.9 -1.7 -13.7 0.95 -17.0 5.3 -18.45 9.6 -19.9 13.0 -18.6 M-22.5 -63.55 Q-23.3 -68.95 -18.5 -68.75 -16.55 -68.7 -15.0 -67.55 -13.3 -66.4 -13.05 -64.75 -12.9 -63.65 -13.95 -62.25 -15.25 -60.6 -17.45 -60.25 -20.5 -59.8 -21.8 -61.7 L-22.5 -63.55 M-5.55 -59.0 Q-5.5 -58.6 -5.85 -58.25 L-6.4 -57.9 Q-8.15 -57.65 -8.4 -58.95 -8.55 -60.1 -7.1 -60.0 -5.7 -59.95 -5.55 -59.0 M-50.55 -24.1 Q-50.8 -25.5 -49.5 -25.6 -48.3 -25.65 -48.1 -24.4 -47.9 -22.95 -48.85 -22.8 -50.05 -22.6 -50.45 -23.45 L-50.55 -24.1 M-53.4 -12.8 Q-53.05 -10.5 -55.0 -10.2 -56.25 -10.0 -56.6 -10.85 L-56.75 -11.85 Q-57.05 -13.75 -55.4 -14.6 -53.75 -15.3 -53.4 -12.8 M-4.6 -27.15 Q-3.0 -25.45 -2.6 -22.9 -2.25 -20.65 -3.0 -18.75 -4.35 -15.45 -8.65 -14.75 -14.55 -13.85 -18.1 -17.1 -20.5 -19.2 -20.8 -21.2 -21.65 -26.65 -13.15 -28.95 -7.5 -30.1 -4.6 -27.15 M-22.65 -45.0 Q-24.75 -44.7 -25.8 -45.8 L-26.5 -46.95 Q-27.0 -50.2 -23.6 -50.5 -20.3 -50.8 -19.9 -48.25 -19.75 -47.3 -20.3 -46.4 -21.05 -45.25 -22.65 -45.0 M-32.5 -7.0 Q-33.1 -11.0 -31.1 -14.35 -28.0 -19.5 -19.95 -17.85 L-11.15 -12.3 Q-7.7 -10.3 -7.3 -7.5 -7.05 -6.05 -7.6 -4.6 -8.55 -2.15 -11.45 -1.7 L-14.85 -2.0 -17.1 -2.5 Q-17.5 -2.45 -20.05 -0.2 -22.6 2.0 -23.4 2.15 -28.15 2.85 -30.85 -2.05 L-32.5 -7.0" fill="#ada098" fill-rule="evenodd" stroke="none"/>
    </g>
  </defs>
</svg>
