<?xml version="1.0" encoding="UTF-8" standalone="no"?>
<svg xmlns:ffdec="https://www.free-decompiler.com/flash" xmlns:xlink="http://www.w3.org/1999/xlink" ffdec:objectType="frame" height="148.7px" width="114.4px" xmlns="http://www.w3.org/2000/svg">
  <g transform="matrix(1.0, 0.0, 0.0, 1.0, 56.8, 109.4)">
    <use ffdec:characterId="1929" height="89.85" transform="matrix(1.0, 0.0, 0.0, 1.0, -37.85, -93.35)" width="87.05" xlink:href="#shape0"/>
  </g>
  <defs>
    <g id="shape0" transform="matrix(1.0, 0.0, 0.0, 1.0, 37.85, 93.35)">
      <path d="M26.9 -87.75 Q27.3 -85.25 26.5 -83.0 25.2 -78.95 20.4 -78.2 L17.7 -78.15 16.6 -78.4 11.35 -77.05 Q8.15 -76.55 6.8 -78.5 L6.0 -80.6 Q5.6 -83.35 6.9 -85.35 8.2 -87.35 12.65 -90.75 18.3 -95.05 23.05 -92.3 26.5 -90.3 26.9 -87.75 M30.55 -64.1 L30.15 -64.05 30.3 -64.0 30.7 -63.95 30.55 -64.1 M30.0 -65.85 Q32.3 -65.75 34.05 -64.55 36.0 -63.25 36.3 -61.3 36.5 -60.0 36.2 -58.85 35.55 -56.75 33.25 -56.35 29.1 -55.75 26.75 -58.2 25.4 -59.5 25.2 -60.9 24.8 -63.5 26.35 -64.8 27.75 -65.95 30.0 -65.85 M39.15 -39.35 Q45.0 -40.25 47.5 -36.45 48.75 -34.55 48.8 -32.4 49.4 -28.7 49.05 -26.85 48.6 -24.45 46.4 -20.35 42.5 -13.3 39.95 -10.9 37.45 -8.5 33.45 -7.9 29.1 -7.2 27.1 -9.35 25.3 -11.25 24.8 -16.0 24.45 -18.75 23.3 -20.85 22.15 -23.15 21.85 -25.0 L21.55 -28.1 22.75 -32.45 23.75 -34.3 25.7 -36.55 Q28.2 -38.6 30.7 -37.75 32.0 -37.3 33.0 -36.5 34.55 -36.7 35.8 -37.9 37.05 -39.05 39.15 -39.35 M18.5 -43.7 Q17.85 -42.4 16.3 -42.15 14.6 -41.9 13.55 -43.1 L12.85 -44.4 Q12.45 -47.15 15.35 -47.65 18.3 -48.2 18.7 -45.65 18.85 -44.65 18.5 -43.7 M4.85 -9.1 Q4.55 -9.5 2.95 -9.8 1.3 -10.2 0.85 -10.55 0.15 -11.05 0.0 -11.45 L-0.2 -12.45 Q-0.85 -16.7 2.2 -20.0 5.0 -22.85 9.55 -23.8 14.05 -24.8 17.55 -23.2 21.4 -21.55 22.05 -17.35 22.5 -14.7 21.15 -11.75 18.95 -6.9 12.5 -5.9 7.95 -5.2 6.25 -6.8 L4.85 -9.1 M-14.6 -76.05 Q-12.3 -74.95 -12.05 -73.1 -11.85 -71.75 -12.75 -69.55 -14.15 -66.3 -17.15 -65.8 -20.2 -65.35 -22.0 -67.65 -23.1 -69.1 -23.35 -70.95 -24.0 -75.1 -19.3 -76.55 -16.95 -77.25 -14.6 -76.05 M-22.35 -55.6 Q-20.65 -55.7 -19.2 -54.75 -17.7 -53.75 -17.45 -52.15 -17.3 -50.95 -17.75 -49.45 -18.6 -46.9 -21.1 -46.55 -24.45 -46.05 -25.55 -47.9 L-25.95 -50.05 Q-26.75 -55.25 -22.35 -55.6 M-3.45 -64.9 L-2.4 -64.65 -2.05 -64.2 Q-2.0 -63.7 -2.5 -63.05 -3.05 -62.45 -3.5 -62.4 -4.4 -62.25 -4.6 -62.8 L-4.75 -63.4 -4.6 -64.25 Q-4.25 -64.8 -3.45 -64.9 M-5.25 -24.8 Q-5.3 -23.85 -7.1 -22.55 -8.7 -21.35 -10.2 -20.75 L-11.35 -19.95 Q-12.85 -17.7 -14.55 -17.45 -19.2 -16.75 -21.15 -20.15 L-22.15 -23.65 Q-22.7 -27.4 -20.5 -29.85 -18.5 -31.95 -15.0 -32.4 -11.75 -32.85 -9.1 -31.55 -6.2 -30.1 -5.8 -27.4 L-5.25 -24.8 M-26.6 -20.25 Q-24.05 -19.4 -23.55 -16.2 -23.35 -14.9 -25.95 -9.95 -29.0 -4.05 -32.45 -3.55 -35.15 -3.15 -36.7 -5.55 L-37.7 -8.1 Q-38.3 -11.85 -36.4 -15.1 -34.7 -18.05 -31.75 -19.55 L-30.05 -20.2 -29.55 -20.4 -29.0 -20.4 -26.6 -20.25 M-16.25 -8.3 Q-16.5 -10.05 -14.7 -10.4 -12.85 -10.8 -12.5 -8.4 -12.4 -7.9 -12.85 -7.5 -13.35 -7.0 -14.2 -6.85 -15.65 -6.65 -16.1 -7.5 L-16.25 -8.3" fill="#ada098" fill-rule="evenodd" stroke="none"/>
    </g>
  </defs>
</svg>
