<?xml version="1.0" encoding="UTF-8" standalone="no"?>
<svg xmlns:ffdec="https://www.free-decompiler.com/flash" xmlns:xlink="http://www.w3.org/1999/xlink" ffdec:objectType="frame" height="148.7px" width="114.4px" xmlns="http://www.w3.org/2000/svg">
  <g transform="matrix(1.0, 0.0, 0.0, 1.0, 56.8, 109.4)">
    <use ffdec:characterId="1070" height="89.8" transform="matrix(1.0, 0.0, 0.0, 1.0, -33.9, -95.55)" width="83.9" xlink:href="#shape0"/>
  </g>
  <defs>
    <g id="shape0" transform="matrix(1.0, 0.0, 0.0, 1.0, 33.9, 95.55)">
      <path d="M41.7 -62.0 L41.85 -61.65 Q42.0 -60.6 41.25 -59.25 40.35 -57.45 38.5 -57.2 33.5 -56.4 30.05 -59.7 L27.65 -63.2 Q27.2 -66.25 30.5 -67.3 31.7 -68.4 33.45 -67.75 L36.35 -67.45 Q37.75 -67.05 38.15 -66.25 41.3 -65.0 41.65 -62.85 L41.7 -62.0 M27.65 -89.75 Q27.9 -88.1 26.95 -86.25 25.5 -83.55 21.8 -82.95 18.75 -82.5 16.8 -83.55 16.2 -81.35 12.95 -80.85 10.3 -80.45 8.95 -82.5 L8.2 -84.45 Q7.9 -86.15 9.1 -87.5 10.2 -88.8 11.9 -89.25 L13.8 -89.35 Q13.65 -92.2 15.3 -93.85 16.9 -95.5 19.8 -95.55 22.55 -95.5 24.8 -94.0 27.25 -92.35 27.65 -89.75 M16.3 -49.8 Q16.4 -49.15 16.0 -48.55 15.5 -47.85 14.6 -47.7 13.0 -47.45 12.55 -48.3 L12.35 -49.1 Q12.05 -51.2 14.05 -51.2 16.1 -51.25 16.3 -49.8 M35.95 -42.15 L37.7 -40.05 Q39.15 -40.9 41.05 -40.95 44.15 -41.0 46.6 -39.25 49.35 -37.3 49.8 -34.4 50.2 -31.85 49.85 -30.5 48.8 -26.95 43.95 -26.2 L42.2 -25.95 42.75 -24.2 Q43.05 -22.25 42.3 -20.55 40.85 -17.35 35.95 -16.6 31.9 -16.0 29.35 -19.15 L27.55 -22.5 Q27.0 -26.15 28.85 -28.25 27.75 -28.85 26.85 -29.8 25.45 -31.45 25.0 -32.95 24.45 -33.55 24.2 -34.2 23.95 -34.8 23.65 -36.6 23.1 -40.2 25.05 -42.25 26.75 -44.15 29.7 -44.3 32.5 -44.45 34.8 -43.0 L35.75 -42.35 35.8 -42.3 35.95 -42.15 M14.8 -27.25 L17.25 -24.45 Q18.45 -22.65 18.6 -21.5 19.0 -19.0 17.8 -17.1 15.55 -13.5 8.5 -12.4 2.8 -11.5 -0.3 -14.85 -1.35 -15.85 -1.95 -17.2 L-2.4 -18.3 Q-2.6 -19.8 -2.25 -20.55 -1.4 -22.25 1.6 -22.7 L3.7 -22.55 4.9 -22.35 Q6.05 -22.5 9.55 -26.55 12.2 -29.65 14.8 -27.25 M-13.05 -82.1 Q-9.5 -82.8 -8.95 -79.2 -8.75 -78.0 -9.1 -77.1 -9.7 -75.6 -11.55 -75.35 L-14.7 -75.6 Q-15.85 -74.15 -18.75 -73.7 -22.65 -73.1 -24.2 -74.95 -24.85 -75.7 -25.1 -77.3 -25.5 -79.85 -24.0 -81.4 -22.65 -82.75 -20.4 -82.9 -18.15 -83.05 -16.4 -82.0 L-15.25 -81.1 Q-14.5 -81.85 -13.05 -82.1 M-25.7 -56.8 L-25.85 -57.45 -25.85 -58.2 Q-25.65 -58.75 -24.7 -58.9 -23.45 -59.05 -23.15 -58.05 -23.05 -57.55 -23.35 -57.05 -23.7 -56.5 -24.4 -56.35 -25.4 -56.2 -25.7 -56.8 M-14.55 -32.3 Q-13.3 -31.5 -13.2 -31.05 -13.0 -29.9 -13.6 -28.9 -14.35 -27.55 -16.3 -27.25 -19.1 -26.85 -20.2 -27.95 -20.6 -28.4 -20.8 -29.6 -21.45 -33.95 -17.45 -33.3 -16.0 -33.1 -14.55 -32.3 M-23.0 -18.7 Q-20.8 -19.6 -20.4 -17.1 -20.3 -16.3 -20.6 -15.3 -21.1 -13.9 -22.4 -13.7 -23.95 -13.45 -24.6 -14.2 L-24.85 -15.1 Q-25.3 -17.8 -23.0 -18.7 M-30.4 -14.8 Q-26.2 -15.3 -25.3 -9.55 -25.15 -8.45 -25.65 -7.65 -26.5 -6.25 -28.7 -5.9 -32.0 -5.4 -33.1 -6.7 -33.55 -7.25 -33.8 -8.75 -34.15 -11.3 -33.1 -13.05 -32.1 -14.6 -30.4 -14.8" fill="#ada098" fill-rule="evenodd" stroke="none"/>
    </g>
  </defs>
</svg>
