<?xml version="1.0" encoding="UTF-8" standalone="no"?>
<svg xmlns:ffdec="https://www.free-decompiler.com/flash" xmlns:xlink="http://www.w3.org/1999/xlink" ffdec:objectType="frame" height="148.7px" width="114.4px" xmlns="http://www.w3.org/2000/svg">
  <g transform="matrix(1.0, 0.0, 0.0, 1.0, 56.8, 109.4)">
    <use ffdec:characterId="1930" height="90.4" transform="matrix(1.0, 0.0, 0.0, 1.0, -33.4, -99.9)" width="84.0" xlink:href="#shape0"/>
  </g>
  <defs>
    <g id="shape0" transform="matrix(1.0, 0.0, 0.0, 1.0, 33.4, 99.9)">
      <path d="M43.85 -61.6 Q43.6 -59.0 42.0 -58.75 39.55 -58.35 38.15 -60.25 37.3 -61.4 37.1 -62.65 36.35 -67.7 39.65 -68.35 42.95 -69.0 43.7 -64.15 L43.85 -61.6 M30.2 -90.9 Q30.5 -89.15 30.15 -87.7 29.5 -84.9 26.75 -84.5 22.4 -83.85 20.65 -86.15 L19.7 -88.8 Q19.55 -89.8 19.7 -90.75 L19.25 -90.65 Q16.35 -90.2 14.75 -92.55 L13.7 -94.8 Q12.95 -99.75 17.1 -99.9 21.25 -100.0 22.0 -95.25 L22.1 -94.6 Q22.95 -95.25 24.1 -95.55 26.2 -96.05 27.9 -94.9 29.8 -93.7 30.2 -90.9 M17.65 -88.9 Q17.7 -88.45 17.05 -87.35 16.3 -86.15 15.4 -86.05 14.1 -85.85 13.7 -86.6 L13.55 -87.5 Q13.2 -89.6 15.35 -90.15 17.35 -90.75 17.65 -88.9 M32.6 -63.15 Q31.3 -62.95 30.9 -63.45 L30.8 -64.1 Q30.5 -66.05 32.45 -66.6 34.4 -67.15 34.65 -65.45 34.7 -64.95 34.1 -64.15 33.4 -63.25 32.6 -63.15 M34.3 -45.25 L35.75 -43.8 Q37.15 -42.5 37.3 -41.55 37.65 -39.15 36.0 -36.05 33.6 -31.65 27.95 -30.8 23.6 -30.1 21.7 -33.1 L20.65 -36.35 Q19.6 -43.0 26.7 -46.35 29.35 -47.6 31.65 -47.35 34.05 -47.1 34.3 -45.25 M29.25 -45.15 L28.8 -45.15 28.85 -44.75 29.25 -45.15 M39.2 -27.75 L39.9 -24.6 Q40.25 -22.15 39.95 -20.0 39.35 -15.85 36.15 -15.35 32.4 -14.8 30.2 -18.45 L28.6 -22.4 Q27.8 -27.85 30.3 -29.15 L36.3 -30.05 36.75 -30.4 Q36.4 -30.9 36.3 -31.5 35.85 -34.65 37.75 -37.15 39.5 -39.35 42.45 -40.15 L47.65 -39.9 Q50.1 -38.8 50.55 -35.9 50.85 -34.05 49.9 -31.65 48.35 -27.9 44.3 -27.25 41.3 -26.8 39.1 -28.05 L39.2 -27.75 M11.9 -30.95 Q14.2 -31.05 16.05 -29.8 18.05 -28.35 18.45 -25.9 L18.5 -23.4 Q17.8 -21.4 14.65 -20.9 9.85 -20.2 8.0 -22.35 7.25 -23.25 6.95 -25.05 6.55 -27.7 8.1 -29.4 9.5 -30.75 11.9 -30.95 M3.4 -20.25 Q1.9 -18.45 -0.95 -18.0 -3.35 -17.65 -4.35 -18.85 L-4.95 -20.15 Q-5.65 -24.7 -0.9 -26.2 0.95 -26.85 2.5 -26.15 4.1 -25.45 4.4 -23.4 4.65 -21.8 3.4 -20.25 M9.7 -15.6 Q8.9 -15.45 8.65 -16.05 L8.5 -16.7 Q8.3 -17.9 9.45 -18.05 10.5 -18.25 10.65 -17.4 10.45 -15.7 9.7 -15.6 M-10.75 -82.75 Q-10.55 -81.35 -11.65 -80.15 -12.8 -78.95 -14.9 -78.6 -16.85 -78.3 -17.6 -78.9 L-17.7 -79.05 -17.95 -78.5 Q-18.85 -76.7 -22.65 -76.15 -25.45 -75.7 -26.75 -77.85 L-27.55 -80.2 Q-27.85 -82.1 -26.6 -83.7 -25.35 -85.3 -23.45 -85.8 -19.1 -86.85 -17.95 -81.9 -17.35 -83.3 -14.85 -84.15 -11.15 -85.4 -10.75 -82.75 M-19.7 -79.85 L-19.75 -79.85 -21.0 -78.7 Q-20.05 -79.15 -19.8 -79.55 L-19.7 -79.85 M-17.85 -31.95 Q-18.7 -30.05 -21.0 -29.7 -23.1 -29.35 -23.6 -30.15 L-23.8 -31.05 Q-24.3 -34.2 -21.05 -35.45 -17.85 -36.7 -17.5 -34.4 -17.3 -33.2 -17.85 -31.95 M-22.65 -21.3 Q-20.85 -21.65 -20.55 -19.75 L-20.7 -18.55 Q-21.1 -17.65 -22.25 -17.5 -23.65 -17.3 -24.05 -18.1 L-24.25 -19.0 Q-24.55 -20.9 -22.65 -21.3 M-30.65 -15.3 Q-28.05 -15.25 -28.05 -12.8 -28.05 -11.75 -29.0 -10.7 -30.0 -9.5 -31.15 -9.5 -32.95 -9.5 -33.3 -10.9 L-33.3 -12.4 Q-33.3 -15.4 -30.65 -15.3" fill="#ada098" fill-rule="evenodd" stroke="none"/>
    </g>
  </defs>
</svg>
