<?xml version="1.0" encoding="UTF-8" standalone="no"?>
<svg xmlns:ffdec="https://www.free-decompiler.com/flash" xmlns:xlink="http://www.w3.org/1999/xlink" ffdec:objectType="frame" height="148.7px" width="114.4px" xmlns="http://www.w3.org/2000/svg">
  <g transform="matrix(1.0, 0.0, 0.0, 1.0, 56.8, 109.4)">
    <use ffdec:characterId="1931" height="90.2" transform="matrix(1.0, 0.0, 0.0, 1.0, -36.15, -106.8)" width="86.55" xlink:href="#shape0"/>
  </g>
  <defs>
    <g id="shape0" transform="matrix(1.0, 0.0, 0.0, 1.0, 36.15, 106.8)">
      <path d="M18.55 -106.8 Q19.7 -106.85 19.8 -106.05 L19.55 -105.15 18.75 -104.5 Q18.0 -104.4 17.8 -104.9 L17.65 -105.55 Q17.45 -106.7 18.55 -106.8 M41.55 -94.85 Q41.1 -93.75 39.95 -93.6 38.0 -93.3 36.7 -94.4 35.65 -95.3 35.5 -96.05 35.0 -99.3 38.1 -99.8 41.15 -100.3 41.75 -96.6 41.85 -95.7 41.55 -94.85 M46.75 -69.6 L46.55 -70.2 Q46.4 -71.2 47.65 -71.35 48.95 -71.4 49.05 -70.55 49.15 -70.0 48.75 -69.65 L47.95 -69.3 Q47.1 -69.15 46.75 -69.6 M25.55 -94.75 L25.15 -94.95 24.95 -95.7 Q25.35 -96.85 26.15 -96.75 26.85 -96.65 26.95 -96.0 L26.8 -95.25 26.1 -94.75 25.55 -94.75 M16.55 -97.45 L16.45 -98.1 Q16.2 -99.8 17.9 -99.9 19.45 -100.05 19.65 -98.55 19.75 -97.95 19.4 -97.5 19.0 -96.95 18.2 -96.85 17.0 -96.65 16.55 -97.45 M29.95 -51.6 Q30.3 -49.35 29.95 -48.1 29.2 -45.65 26.0 -45.15 22.2 -44.6 21.6 -48.3 21.25 -50.5 25.3 -53.2 29.3 -55.85 29.95 -51.6 M31.15 -66.55 L30.8 -67.4 Q30.6 -68.85 32.1 -68.9 33.6 -68.85 33.75 -67.95 33.8 -67.55 33.25 -66.75 32.75 -65.9 32.3 -65.85 31.55 -65.75 31.15 -66.55 M30.55 -38.25 Q29.0 -38.0 28.05 -39.55 L27.55 -41.0 Q27.1 -43.75 29.6 -43.9 32.1 -43.95 32.5 -41.45 32.9 -38.6 30.55 -38.25 M33.95 -46.95 L33.55 -47.9 Q33.3 -49.55 35.3 -49.15 37.2 -48.75 37.35 -47.7 37.45 -47.1 36.9 -46.65 36.35 -46.25 35.45 -46.1 34.55 -46.0 33.95 -46.95 M32.85 -27.7 Q32.55 -23.4 30.4 -23.05 29.3 -22.9 28.6 -23.5 L28.1 -24.2 Q27.75 -26.4 30.15 -28.0 32.6 -29.6 32.85 -27.7 M0.6 -27.65 Q0.05 -26.5 -0.8 -26.35 -3.05 -26.0 -4.7 -26.8 -5.15 -26.45 -5.9 -26.35 -7.6 -26.1 -8.3 -27.05 L-8.7 -28.15 Q-9.05 -30.4 -6.55 -32.35 -4.1 -34.2 -3.75 -32.1 L-3.35 -32.1 Q0.55 -32.25 1.0 -29.35 1.1 -28.7 0.6 -27.65 M8.45 -31.6 Q5.45 -31.1 4.25 -32.4 L3.55 -33.85 Q3.1 -36.75 8.3 -37.1 13.4 -37.45 13.7 -35.65 13.85 -34.45 12.1 -33.15 10.5 -31.9 8.45 -31.6 M40.15 -19.5 L40.05 -19.5 40.05 -18.75 40.3 -18.75 40.15 -19.5 M40.3 -22.05 Q43.0 -22.65 43.45 -19.75 L43.2 -18.25 Q42.65 -16.85 41.2 -16.65 39.15 -16.35 38.45 -17.25 38.2 -17.5 38.05 -18.45 37.6 -21.45 40.3 -22.05 M43.2 -41.15 Q42.8 -43.65 46.4 -44.2 49.95 -44.75 50.4 -41.75 50.55 -40.8 49.75 -39.85 48.8 -38.8 47.35 -38.6 45.15 -38.25 43.95 -39.7 L43.2 -41.15 M42.55 -40.25 Q42.3 -39.85 41.85 -39.8 L41.3 -39.8 40.95 -39.95 40.75 -40.7 Q41.15 -41.85 41.9 -41.75 42.6 -41.65 42.7 -41.0 L42.55 -40.25 M-10.25 -93.95 Q-10.15 -93.35 -10.45 -92.85 -10.75 -92.15 -11.55 -92.0 -12.85 -91.8 -13.25 -92.6 L-13.4 -93.4 Q-13.65 -94.85 -12.0 -95.1 -10.45 -95.4 -10.25 -93.95 M-25.75 -91.35 L-26.8 -93.15 Q-27.15 -95.6 -24.05 -95.85 -20.9 -96.1 -20.4 -92.85 -20.0 -90.2 -22.4 -89.85 -24.3 -89.55 -25.75 -91.35 M-18.7 -46.85 Q-19.05 -46.1 -19.95 -45.95 -21.2 -45.75 -21.55 -46.5 L-21.75 -47.4 Q-22.0 -49.1 -20.4 -49.15 -18.75 -49.2 -18.55 -47.95 -18.5 -47.45 -18.7 -46.85 M-19.65 -37.4 Q-19.85 -36.85 -20.35 -36.75 -21.1 -36.65 -21.45 -37.4 L-21.55 -37.8 Q-21.7 -38.85 -20.7 -39.0 -19.75 -39.15 -19.6 -38.1 L-19.65 -37.4 M-23.3 -31.75 Q-24.85 -31.55 -25.55 -32.5 L-25.95 -33.35 Q-26.35 -35.95 -24.05 -36.2 -21.85 -36.45 -21.45 -33.95 -21.35 -33.25 -21.9 -32.6 -22.4 -31.9 -23.3 -31.75 M-26.3 -27.05 Q-26.15 -26.6 -26.15 -25.65 L-26.55 -25.45 -27.1 -25.25 -27.8 -25.5 -28.05 -26.55 Q-28.05 -27.95 -27.1 -28.05 -26.5 -27.65 -26.3 -27.05 M-32.8 -21.6 Q-33.35 -20.9 -34.25 -20.9 L-35.3 -21.05 -35.9 -21.5 -36.0 -21.85 -36.15 -22.9 Q-36.15 -24.9 -34.25 -24.75 -32.35 -24.6 -32.35 -22.9 -32.35 -22.2 -32.8 -21.6" fill="#ada098" fill-rule="evenodd" stroke="none"/>
    </g>
  </defs>
</svg>
