<?xml version="1.0" encoding="UTF-8" standalone="no"?>
<svg xmlns:ffdec="https://www.free-decompiler.com/flash" xmlns:xlink="http://www.w3.org/1999/xlink" ffdec:objectType="frame" height="148.7px" width="114.4px" xmlns="http://www.w3.org/2000/svg">
  <g transform="matrix(1.0, 0.0, 0.0, 1.0, 56.8, 109.4)">
    <use ffdec:characterId="1073" height="88.9" transform="matrix(1.0, 0.0, 0.0, 1.0, -36.15, -109.4)" width="87.55" xlink:href="#shape0"/>
  </g>
  <defs>
    <g id="shape0" transform="matrix(1.0, 0.0, 0.0, 1.0, 36.15, 109.4)">
      <path d="M40.45 -103.15 Q42.35 -104.25 42.65 -102.35 42.75 -101.7 42.1 -100.4 41.4 -98.9 40.55 -98.75 39.7 -98.6 39.2 -99.25 L38.95 -100.0 Q38.65 -102.05 40.45 -103.15 M19.65 -105.95 Q17.75 -105.65 17.1 -106.25 L16.9 -107.0 Q16.6 -108.85 18.7 -109.3 20.75 -109.8 21.05 -108.1 L20.7 -106.8 Q20.25 -106.0 19.65 -105.95 M47.35 -102.05 Q48.05 -101.95 48.1 -101.3 L48.0 -100.55 Q47.75 -100.1 47.3 -100.05 L46.75 -100.05 46.35 -100.25 46.1 -101.0 Q46.55 -102.2 47.35 -102.05 M47.9 -71.5 Q47.6 -73.25 49.3 -73.6 51.05 -73.95 51.35 -72.0 51.6 -70.35 49.95 -70.1 48.5 -69.85 48.05 -70.65 L47.9 -71.5 M32.1 -65.3 Q31.0 -63.65 28.8 -63.3 26.25 -62.9 25.25 -64.1 L24.75 -65.45 Q24.35 -68.05 28.25 -70.05 32.1 -72.0 32.7 -68.05 32.9 -66.65 32.1 -65.3 M25.9 -51.65 Q26.45 -48.25 23.95 -47.9 21.9 -47.55 20.2 -48.9 18.8 -49.9 18.65 -50.85 18.25 -53.7 21.85 -54.25 25.45 -54.75 25.9 -51.65 M33.55 -49.6 Q32.4 -49.45 31.3 -50.55 30.5 -51.35 30.45 -51.75 30.1 -54.05 32.85 -54.05 35.6 -54.1 35.8 -52.75 L35.55 -51.2 Q35.0 -49.85 33.55 -49.6 M35.55 -24.8 Q35.35 -24.35 34.9 -24.3 L34.35 -24.3 33.95 -24.5 33.75 -25.25 Q34.2 -26.35 34.95 -26.25 35.6 -26.15 35.7 -25.55 L35.55 -24.8 M10.15 -40.55 Q10.55 -41.75 11.35 -41.6 12.0 -41.5 12.1 -40.85 L11.95 -40.1 Q11.75 -39.7 11.3 -39.65 L10.7 -39.6 10.4 -39.8 10.15 -40.55 M5.8 -39.2 Q6.0 -38.05 4.5 -37.85 3.3 -37.65 2.9 -38.3 L2.8 -38.75 Q2.6 -40.05 4.1 -40.4 5.6 -40.7 5.8 -39.2 M39.7 -22.55 Q40.1 -23.8 40.9 -23.65 L41.5 -23.35 Q41.9 -23.75 43.1 -23.65 45.15 -23.4 45.3 -22.55 45.35 -22.0 44.75 -21.3 L43.45 -20.5 Q42.75 -20.4 41.95 -21.35 L41.45 -22.0 40.85 -21.65 40.3 -21.7 39.9 -21.9 39.7 -22.55 M48.8 -47.2 Q50.05 -47.3 50.2 -46.45 50.3 -45.9 49.9 -45.55 L49.1 -45.2 Q48.3 -45.05 47.95 -45.45 L47.75 -46.05 Q47.6 -47.1 48.8 -47.2 M-20.9 -99.45 Q-20.8 -98.8 -21.35 -97.3 -22.0 -95.7 -22.75 -95.55 -25.1 -95.2 -26.05 -96.8 L-26.6 -98.5 Q-27.1 -101.85 -24.1 -101.2 -21.05 -100.55 -20.9 -99.45 M-8.9 -96.95 Q-9.15 -95.9 -9.9 -95.8 -10.95 -95.65 -11.4 -96.6 L-11.75 -97.5 Q-12.0 -99.2 -10.55 -99.35 -9.0 -99.45 -8.85 -98.2 -8.75 -97.6 -8.9 -96.95 M-19.25 -52.85 L-19.75 -53.85 Q-20.05 -56.0 -17.5 -56.6 -14.9 -57.15 -14.65 -55.35 -14.55 -54.75 -15.15 -53.65 -15.8 -52.4 -16.6 -52.3 -18.45 -52.0 -19.25 -52.85 M-4.75 -33.3 Q-5.3 -32.3 -6.25 -32.15 -7.9 -31.9 -8.3 -32.6 L-8.5 -33.5 Q-8.75 -35.0 -6.6 -35.5 -4.6 -36.05 -4.4 -34.65 -4.3 -34.15 -4.75 -33.3 M-3.35 -26.25 Q-3.55 -27.5 -2.55 -27.65 -1.55 -27.8 -1.35 -26.55 L-1.45 -25.75 Q-1.65 -25.2 -2.15 -25.15 -2.9 -25.0 -3.2 -25.7 L-3.35 -26.25 M-23.0 -42.3 Q-22.6 -39.7 -24.0 -39.5 -24.85 -39.35 -25.2 -40.15 L-25.3 -41.0 Q-25.55 -42.5 -24.4 -42.85 -23.15 -43.3 -23.0 -42.3 M-33.3 -33.0 L-33.6 -32.65 -34.75 -32.35 Q-36.0 -32.35 -35.8 -32.6 L-36.1 -32.8 -36.15 -33.65 Q-36.25 -34.6 -34.75 -35.65 -32.95 -34.05 -33.3 -33.0" fill="#ada098" fill-rule="evenodd" stroke="none"/>
    </g>
  </defs>
</svg>
