<?xml version="1.0" encoding="UTF-8" standalone="no"?>
<svg xmlns:ffdec="https://www.free-decompiler.com/flash" xmlns:xlink="http://www.w3.org/1999/xlink" ffdec:objectType="frame" height="148.7px" width="114.4px" xmlns="http://www.w3.org/2000/svg">
  <g transform="matrix(1.0, 0.0, 0.0, 1.0, 56.8, 109.4)">
    <use ffdec:characterId="1074" height="69.95" transform="matrix(1.0, 0.0, 0.0, 1.0, -22.8, -106.85)" width="76.4" xlink:href="#shape0"/>
  </g>
  <defs>
    <g id="shape0" transform="matrix(1.0, 0.0, 0.0, 1.0, 22.8, 106.85)">
      <path d="M41.15 -102.35 L40.7 -103.4 Q40.25 -106.4 43.15 -106.8 45.95 -107.2 46.4 -104.05 46.75 -101.95 44.3 -101.55 42.05 -101.25 41.15 -102.35 M51.55 -72.2 Q52.0 -73.45 52.8 -73.3 53.45 -73.15 53.55 -72.5 53.65 -72.15 53.4 -71.8 53.2 -71.35 52.75 -71.3 L52.15 -71.3 51.8 -71.5 51.55 -72.2 M26.85 -77.65 Q29.85 -77.15 30.15 -74.9 30.3 -74.1 30.1 -73.35 29.7 -72.05 28.35 -71.85 26.1 -71.5 24.95 -73.3 L24.3 -75.1 Q23.85 -78.15 26.85 -77.65 M17.75 -54.5 L17.2 -55.5 Q16.75 -58.15 19.65 -59.35 22.5 -60.5 22.9 -57.8 23.05 -57.0 22.35 -55.7 21.5 -54.1 20.1 -53.9 18.55 -53.65 17.75 -54.5 M30.0 -59.2 Q29.9 -59.95 30.1 -60.2 30.4 -60.5 31.35 -60.65 32.75 -60.85 33.0 -59.85 33.2 -58.4 31.55 -58.15 30.45 -58.0 30.1 -58.55 L30.0 -59.2 M5.7 -43.05 L5.9 -41.95 6.05 -40.8 Q5.9 -40.05 4.8 -39.85 3.1 -39.6 2.55 -40.6 L2.35 -41.7 2.35 -42.8 Q2.6 -43.6 3.7 -43.75 5.2 -43.95 5.7 -43.05 M-8.5 -99.5 Q-8.5 -98.0 -9.55 -97.85 -10.3 -97.75 -10.7 -98.35 L-11.0 -99.0 Q-11.15 -100.15 -9.9 -100.35 -8.65 -100.55 -8.5 -99.5 M-8.35 -37.3 L-8.45 -38.0 Q-8.75 -39.95 -7.0 -39.85 -5.3 -39.8 -5.1 -38.55 -4.9 -37.25 -6.75 -36.95 -8.0 -36.75 -8.35 -37.3 M-22.2 -44.95 L-22.6 -45.15 -22.8 -45.85 Q-22.35 -47.05 -21.55 -46.9 -20.95 -46.8 -20.85 -46.15 L-20.95 -45.45 Q-21.2 -45.0 -21.65 -44.9 L-22.2 -44.95" fill="#ada098" fill-rule="evenodd" stroke="none"/>
    </g>
  </defs>
</svg>
