<?xml version="1.0" encoding="UTF-8" standalone="no"?>
<svg xmlns:ffdec="https://www.free-decompiler.com/flash" xmlns:xlink="http://www.w3.org/1999/xlink" ffdec:objectType="frame" height="148.7px" width="114.4px" xmlns="http://www.w3.org/2000/svg">
  <g transform="matrix(1.0, 0.0, 0.0, 1.0, 56.8, 109.4)">
    <use ffdec:characterId="1920" height="56.8" transform="matrix(1.0, 0.0, 0.0, 1.0, -30.45, -26.55)" width="59.5" xlink:href="#shape0"/>
  </g>
  <defs>
    <g id="shape0" transform="matrix(1.0, 0.0, 0.0, 1.0, 30.45, 26.55)">
      <path d="M9.25 -22.25 L16.95 -22.05 Q19.1 -21.55 20.65 -20.2 L22.6 -18.2 Q23.85 -16.85 25.0 -13.9 26.0 -11.3 26.35 -9.15 27.0 -4.85 25.45 -1.95 28.45 -0.35 28.95 2.7 29.3 5.0 28.25 7.5 27.15 10.15 24.8 11.4 24.9 13.3 24.5 14.45 23.4 17.9 18.5 20.25 L18.3 20.3 17.9 21.55 Q15.6 28.55 6.8 29.9 -3.05 31.4 -8.6 26.15 L-9.7 26.35 Q-17.8 27.55 -22.55 21.75 -25.35 18.3 -25.85 14.7 -26.35 11.6 -25.4 7.75 -26.7 6.95 -27.85 5.6 L-30.25 1.35 Q-31.65 -7.9 -24.1 -11.45 -21.8 -12.5 -19.7 -12.4 -20.4 -17.85 -16.1 -21.75 -12.15 -25.35 -5.7 -26.3 0.6 -27.15 5.5 -24.9 7.75 -23.8 9.25 -22.25 M-17.8 4.3 L-18.45 4.55 -17.8 4.45 -17.8 4.3 M13.3 21.05 L13.3 21.25 13.5 21.05 13.3 21.05 M20.6 12.55 L20.5 12.6 20.5 13.0 20.6 12.55" fill="#ada098" fill-rule="evenodd" stroke="none"/>
    </g>
  </defs>
</svg>
