<?xml version="1.0" encoding="UTF-8" standalone="no"?>
<svg xmlns:ffdec="https://www.free-decompiler.com/flash" xmlns:xlink="http://www.w3.org/1999/xlink" ffdec:objectType="frame" height="148.7px" width="114.4px" xmlns="http://www.w3.org/2000/svg">
  <g transform="matrix(1.0, 0.0, 0.0, 1.0, 56.8, 109.4)">
    <use ffdec:characterId="1075" height="65.35" transform="matrix(1.0, 0.0, 0.0, 1.0, -9.15, -109.0)" width="66.75" xlink:href="#shape0"/>
  </g>
  <defs>
    <g id="shape0" transform="matrix(1.0, 0.0, 0.0, 1.0, 9.15, 109.0)">
      <path d="M45.2 -107.15 Q45.0 -108.3 46.7 -108.85 48.35 -109.35 48.55 -108.15 L48.4 -106.3 Q48.0 -105.2 47.4 -105.1 46.05 -104.9 45.45 -105.95 L45.2 -107.15 M54.7 -71.4 L54.3 -72.3 Q54.1 -73.75 55.8 -73.75 57.4 -73.75 57.6 -72.65 L57.35 -71.55 Q57.05 -70.95 56.6 -70.85 55.35 -70.65 54.7 -71.4 M25.6 -81.5 Q24.6 -81.35 24.25 -82.3 L24.05 -83.3 Q23.7 -85.65 25.85 -86.25 28.1 -86.85 28.4 -84.65 28.8 -82.0 25.6 -81.5 M19.45 -63.2 Q21.85 -62.95 22.2 -60.8 L22.1 -59.65 Q21.7 -58.9 20.35 -58.7 18.55 -58.4 17.85 -59.6 L17.4 -60.8 Q16.95 -63.5 19.45 -63.2 M5.1 -43.7 Q4.2 -43.55 3.7 -44.2 L3.4 -44.8 Q3.25 -45.95 4.5 -45.95 5.75 -46.05 5.9 -45.05 L5.8 -44.35 Q5.6 -43.8 5.1 -43.7 M-7.25 -103.0 Q-7.5 -102.45 -7.95 -102.4 -8.7 -102.3 -9.0 -103.0 L-9.1 -103.45 Q-9.3 -104.5 -8.3 -104.65 -7.35 -104.8 -7.15 -103.75 L-7.25 -103.0" fill="#ada098" fill-rule="evenodd" stroke="none"/>
    </g>
  </defs>
</svg>
