<?xml version="1.0" encoding="UTF-8" standalone="no"?>
<svg xmlns:ffdec="https://www.free-decompiler.com/flash" xmlns:xlink="http://www.w3.org/1999/xlink" ffdec:objectType="frame" height="148.7px" width="114.4px" xmlns="http://www.w3.org/2000/svg">
  <g transform="matrix(1.0, 0.0, 0.0, 1.0, 56.8, 109.4)">
    <use ffdec:characterId="1921" height="65.3" transform="matrix(1.0, 0.0, 0.0, 1.0, -36.15, -36.55)" width="69.35" xlink:href="#shape0"/>
  </g>
  <defs>
    <g id="shape0" transform="matrix(1.0, 0.0, 0.0, 1.0, 36.15, 36.55)">
      <path d="M11.1 -29.95 Q20.05 -30.8 23.75 -25.65 25.45 -23.25 26.4 -17.25 26.95 -13.5 26.6 -10.35 L26.6 -10.0 Q32.35 -8.1 33.1 -3.15 33.55 -0.05 32.35 3.8 30.7 8.95 26.55 10.3 L26.35 12.9 Q24.9 19.0 17.45 20.15 L17.4 20.15 16.65 22.55 Q14.6 27.4 8.05 28.4 -1.3 29.85 -6.15 25.05 L-7.45 23.7 Q-11.7 23.95 -15.0 21.1 -16.85 19.55 -17.8 17.6 -24.75 18.05 -29.2 13.6 -32.65 10.2 -33.2 6.55 L-33.35 3.6 Q-35.55 0.95 -35.85 -1.0 -37.45 -11.35 -29.75 -15.6 -27.25 -17.05 -24.85 -17.05 L-25.05 -17.7 Q-26.5 -27.15 -17.2 -30.7 -15.15 -31.45 -13.35 -31.6 L-12.05 -32.9 Q-8.4 -36.05 -2.9 -36.5 2.9 -36.95 7.25 -34.0 9.6 -32.35 11.1 -29.95 M-31.8 -1.5 L-31.9 -1.6 -31.9 -1.4 -31.8 -1.5 M13.05 20.6 L13.15 20.4 13.1 20.4 13.05 20.6 M-25.25 23.15 Q-27.6 23.5 -28.55 21.9 L-29.05 20.35 Q-29.5 17.5 -26.5 17.45 -23.5 17.35 -23.05 20.05 -22.95 20.85 -23.45 21.85 -24.0 22.95 -25.25 23.15" fill="#ada098" fill-rule="evenodd" stroke="none"/>
    </g>
  </defs>
</svg>
