<?xml version="1.0" encoding="UTF-8" standalone="no"?>
<svg xmlns:ffdec="https://www.free-decompiler.com/flash" xmlns:xlink="http://www.w3.org/1999/xlink" ffdec:objectType="frame" height="148.7px" width="114.4px" xmlns="http://www.w3.org/2000/svg">
  <g transform="matrix(1.0, 0.0, 0.0, 1.0, 56.8, 109.4)">
    <use ffdec:characterId="1922" height="75.5" transform="matrix(1.0, 0.0, 0.0, 1.0, -42.1, -42.75)" width="78.65" xlink:href="#shape0"/>
  </g>
  <defs>
    <g id="shape0" transform="matrix(1.0, 0.0, 0.0, 1.0, 42.1, 42.75)">
      <path d="M26.3 -25.95 L26.4 -24.7 28.7 -22.9 30.55 -19.45 31.7 -15.8 Q32.1 -13.15 31.5 -10.9 35.75 -7.4 36.45 -2.85 36.9 0.1 34.65 5.4 L32.95 8.5 Q33.15 14.65 30.3 19.1 26.85 24.5 20.3 25.5 L15.25 25.85 Q11.85 31.35 4.65 32.45 -4.4 33.85 -10.55 28.75 L-11.5 27.95 Q-17.45 27.85 -21.35 23.25 -23.75 20.4 -24.55 17.75 -28.65 16.55 -31.25 12.95 -33.75 9.6 -34.45 5.1 -34.9 2.15 -34.4 -0.45 -35.9 -2.55 -36.45 -6.15 -38.0 -16.15 -29.6 -20.3 L-28.7 -20.7 Q-29.15 -27.0 -25.25 -31.25 -21.65 -35.2 -15.1 -36.75 L-13.65 -38.35 Q-10.3 -41.45 -4.55 -42.4 0.95 -43.3 5.3 -41.8 8.65 -40.55 9.95 -38.3 L12.85 -38.6 Q17.7 -38.7 21.15 -35.95 25.25 -32.7 26.3 -25.95 M2.15 -33.3 L2.4 -33.3 2.4 -33.4 2.15 -33.5 2.15 -33.3 M5.15 -36.45 L5.25 -36.5 4.95 -36.7 5.15 -36.45 M16.95 21.9 L17.1 21.85 16.95 21.85 16.95 21.9 M-14.15 17.35 L-14.1 17.45 -14.1 17.35 -14.15 17.35 M-39.3 8.85 Q-41.05 9.15 -41.7 7.9 L-42.05 6.6 Q-42.5 3.6 -40.05 3.85 -37.65 4.1 -37.35 6.1 -36.95 8.5 -39.3 8.85" fill="#ada098" fill-rule="evenodd" stroke="none"/>
    </g>
  </defs>
</svg>
