<?xml version="1.0" encoding="UTF-8" standalone="no"?>
<svg xmlns:ffdec="https://www.free-decompiler.com/flash" xmlns:xlink="http://www.w3.org/1999/xlink" ffdec:objectType="frame" height="148.7px" width="114.4px" xmlns="http://www.w3.org/2000/svg">
  <g transform="matrix(1.0, 0.0, 0.0, 1.0, 56.8, 109.4)">
    <use ffdec:characterId="1060" height="91.35" transform="matrix(1.0, 0.0, 0.0, 1.0, -38.9, -55.8)" width="77.85" xlink:href="#shape0"/>
  </g>
  <defs>
    <g id="shape0" transform="matrix(1.0, 0.0, 0.0, 1.0, 38.9, 55.8)">
      <path d="M32.2 -28.35 Q31.25 -25.4 29.45 -23.6 L29.55 -22.85 Q31.1 -12.95 21.85 -10.15 L22.25 -9.05 Q23.25 -6.5 23.5 -4.6 L23.6 -3.3 24.15 -4.4 Q24.55 -5.05 27.05 -6.35 29.15 -7.45 29.55 -9.55 29.85 -11.2 31.1 -12.25 32.95 -14.0 36.6 -12.95 38.25 -12.05 38.6 -10.65 L38.9 -8.2 Q39.15 -6.4 38.35 -4.95 37.6 -3.55 37.95 -1.1 38.4 1.55 38.05 2.5 37.15 5.45 32.25 6.2 26.95 7.05 24.85 4.3 23.95 3.15 23.6 0.85 L23.45 -0.1 22.9 2.55 22.45 3.8 23.75 5.25 25.55 8.55 26.25 11.45 Q26.8 15.15 25.35 19.25 23.1 25.4 16.65 26.85 L15.8 28.55 Q13.55 32.45 9.25 34.55 L2.85 35.55 Q-3.6 35.25 -7.65 32.05 L-9.2 30.55 -10.15 30.7 Q-19.8 32.2 -24.7 27.1 -27.45 24.3 -28.05 20.6 -28.5 17.65 -28.15 15.2 -33.25 14.95 -36.2 10.5 -38.15 7.55 -38.7 3.85 -39.65 -2.45 -35.95 -7.25 -37.7 -9.8 -38.1 -12.35 -40.35 -26.9 -28.2 -30.95 -25.0 -32.05 -21.95 -31.95 L-22.1 -33.2 Q-22.95 -38.55 -21.5 -42.45 -19.5 -48.05 -12.7 -52.4 -2.75 -58.65 7.65 -53.45 10.95 -51.8 13.55 -49.3 L18.25 -50.05 Q30.9 -48.85 32.75 -36.75 33.45 -32.35 32.2 -28.35" fill="#ada098" fill-rule="evenodd" stroke="none"/>
    </g>
  </defs>
</svg>
