<?xml version="1.0" encoding="UTF-8" standalone="no"?>
<svg xmlns:ffdec="https://www.free-decompiler.com/flash" xmlns:xlink="http://www.w3.org/1999/xlink" ffdec:objectType="frame" height="148.7px" width="114.4px" xmlns="http://www.w3.org/2000/svg">
  <g transform="matrix(1.0, 0.0, 0.0, 1.0, 56.8, 109.4)">
    <use ffdec:characterId="1923" height="91.4" transform="matrix(1.0, 0.0, 0.0, 1.0, -41.5, -57.55)" width="77.45" xlink:href="#shape0"/>
  </g>
  <defs>
    <g id="shape0" transform="matrix(1.0, 0.0, 0.0, 1.0, 41.5, 57.55)">
      <path d="M11.2 -54.45 Q16.55 -57.45 21.75 -55.05 27.5 -52.55 28.35 -46.95 L28.5 -46.2 Q30.0 -45.8 31.15 -45.0 33.5 -43.35 33.95 -40.3 34.45 -37.1 33.3 -32.9 32.55 -30.25 31.25 -28.6 L31.7 -26.95 Q32.1 -24.45 31.3 -22.0 30.35 -18.85 27.5 -17.55 27.75 -11.55 20.4 -10.45 L18.15 -10.15 Q21.55 -7.25 22.25 -2.85 22.7 0.0 21.55 3.2 23.65 4.65 24.05 7.15 24.3 8.8 23.8 10.8 24.85 12.25 25.1 13.9 25.6 17.1 24.6 20.15 23.15 24.75 18.4 26.5 15.6 32.3 7.95 33.5 -1.5 34.95 -7.1 30.25 -9.7 31.9 -13.4 32.5 -20.35 33.55 -24.35 29.05 -25.6 27.6 -26.4 25.85 L-26.95 24.2 Q-27.95 18.0 -20.45 13.65 -22.0 12.05 -22.45 10.5 -24.6 12.45 -28.1 13.0 -35.6 14.15 -39.05 9.1 -40.75 6.75 -41.3 3.3 -42.75 -6.05 -34.1 -10.25 L-32.35 -11.0 -32.85 -11.5 Q-34.5 -13.55 -35.0 -16.7 -35.85 -22.1 -32.9 -26.1 -30.35 -29.6 -25.9 -30.6 -21.45 -31.6 -18.0 -29.45 -14.05 -27.05 -13.25 -21.7 L-12.95 -19.05 Q-10.95 -20.15 -8.3 -20.7 L-4.0 -21.1 Q-4.2 -23.1 -3.9 -24.75 -9.4 -25.45 -13.25 -29.8 -16.6 -33.55 -17.15 -36.95 -17.8 -41.35 -16.4 -45.6 -14.4 -51.4 -8.7 -54.5 1.55 -60.0 9.45 -55.6 L11.2 -54.45 M6.2 -31.75 L6.1 -32.2 6.0 -31.65 6.2 -31.75 M28.75 -3.5 Q28.2 -7.1 31.85 -7.4 35.45 -7.65 35.9 -4.7 36.1 -3.45 35.5 -2.2 34.6 -0.45 32.3 -0.1 30.6 0.2 29.55 -1.6 L28.75 -3.5" fill="#ada098" fill-rule="evenodd" stroke="none"/>
    </g>
  </defs>
</svg>
