<?xml version="1.0" encoding="UTF-8" standalone="no"?>
<svg xmlns:ffdec="https://www.free-decompiler.com/flash" xmlns:xlink="http://www.w3.org/1999/xlink" ffdec:objectType="frame" height="148.7px" width="114.4px" xmlns="http://www.w3.org/2000/svg">
  <g transform="matrix(1.0, 0.0, 0.0, 1.0, 56.8, 109.4)">
    <use ffdec:characterId="1924" height="99.25" transform="matrix(1.0, 0.0, 0.0, 1.0, -43.65, -59.95)" width="80.15" xlink:href="#shape0"/>
  </g>
  <defs>
    <g id="shape0" transform="matrix(1.0, 0.0, 0.0, 1.0, 43.65, 59.95)">
      <path d="M14.75 -57.35 Q16.2 -56.55 17.3 -55.5 24.2 -56.6 27.15 -52.15 29.85 -49.7 31.1 -46.85 32.0 -44.7 32.5 -41.4 33.05 -37.75 32.25 -34.25 35.7 -32.1 36.4 -27.7 36.8 -25.05 35.55 -21.6 33.4 -15.95 27.1 -15.0 19.05 -13.75 15.05 -18.4 L14.35 -19.25 Q12.75 -18.4 11.35 -17.1 L14.6 -14.5 17.15 -12.2 Q18.3 -10.5 19.5 -6.95 20.6 -3.65 21.0 -1.15 21.2 0.45 21.05 2.3 27.8 3.5 28.7 9.6 29.25 13.1 27.35 17.45 25.9 20.7 23.55 22.6 23.8 26.3 22.85 29.2 20.15 37.2 9.55 38.85 -2.3 40.65 -8.7 34.85 L-11.6 31.65 -12.8 31.85 Q-20.45 33.05 -24.35 28.2 -26.5 25.7 -26.95 22.6 -27.85 16.8 -22.15 14.2 L-23.85 12.35 Q-25.0 10.7 -25.7 8.75 -28.2 11.7 -31.85 12.3 -38.75 13.35 -41.75 9.1 -42.7 7.8 -43.1 6.1 L-43.4 4.5 Q-44.4 -1.9 -41.4 -5.85 -38.9 -9.25 -34.25 -10.25 -31.05 -10.9 -28.1 -10.15 L-28.25 -10.6 -28.3 -12.25 Q-30.5 -13.25 -31.9 -15.3 -32.95 -16.75 -33.55 -18.8 L-33.85 -20.65 Q-34.7 -25.95 -31.85 -29.45 -29.3 -32.65 -25.0 -33.2 -20.75 -33.75 -17.35 -31.25 -13.6 -28.55 -12.75 -23.25 -12.35 -20.65 -12.7 -18.6 L-6.85 -19.45 -2.4 -19.05 Q-0.75 -22.4 2.95 -25.75 L3.1 -25.9 3.05 -26.0 2.25 -27.1 Q-7.2 -25.85 -12.2 -31.7 -15.05 -35.1 -15.65 -39.15 -16.35 -43.5 -13.25 -48.05 -12.0 -49.9 -10.95 -50.05 L-10.55 -50.0 Q-10.25 -53.95 -6.85 -56.6 -2.85 -59.7 3.5 -59.95 9.9 -60.15 14.75 -57.35 M12.25 -26.6 L12.3 -26.6 12.3 -26.7 12.25 -26.6 M7.9 -29.0 L8.25 -29.1 8.15 -29.2 7.9 -29.0 M0.45 -31.0 L0.4 -31.4 0.4 -31.0 0.45 -31.0 M10.9 -22.35 L11.0 -22.15 12.0 -22.6 10.9 -22.35 M1.0 -12.8 L0.95 -12.75 0.95 -12.3 1.2 -12.5 1.0 -12.8 M10.1 -13.25 L10.1 -12.7 10.35 -13.1 10.1 -13.25 M5.75 -14.0 L5.75 -14.15 5.6 -14.15 5.75 -14.0 M-13.35 27.4 L-13.4 27.8 -13.25 27.8 -13.35 27.4" fill="#ada098" fill-rule="evenodd" stroke="none"/>
    </g>
  </defs>
</svg>
