<?xml version="1.0" encoding="UTF-8" standalone="no"?>
<svg xmlns:ffdec="https://www.free-decompiler.com/flash" xmlns:xlink="http://www.w3.org/1999/xlink" ffdec:objectType="frame" height="148.7px" width="114.4px" xmlns="http://www.w3.org/2000/svg">
  <g transform="matrix(1.0, 0.0, 0.0, 1.0, 56.8, 109.4)">
    <use ffdec:characterId="1925" height="102.3" transform="matrix(1.0, 0.0, 0.0, 1.0, -46.9, -67.65)" width="82.7" xlink:href="#shape0"/>
  </g>
  <defs>
    <g id="shape0" transform="matrix(1.0, 0.0, 0.0, 1.0, 46.9, 67.65)">
      <path d="M25.9 -62.95 Q29.55 -60.65 30.4 -54.95 30.85 -52.05 29.2 -48.15 28.4 -46.2 27.15 -44.8 27.6 -40.8 26.8 -38.35 24.8 -32.1 16.2 -30.75 8.65 -29.6 3.1 -34.8 L2.7 -35.25 Q-5.35 -34.1 -9.9 -39.9 -12.5 -43.3 -13.05 -46.75 -13.75 -51.3 -11.25 -55.2 -9.1 -58.55 -5.2 -60.7 -2.5 -62.2 -0.1 -62.4 0.45 -63.55 1.3 -64.45 4.0 -67.55 8.9 -67.65 13.55 -67.75 17.35 -65.1 L18.55 -64.15 Q22.9 -64.9 25.9 -62.95 M33.8 -27.35 Q35.5 -25.3 35.75 -23.6 36.0 -21.95 35.35 -20.6 34.1 -18.05 30.0 -17.45 26.0 -16.8 24.15 -19.45 L23.05 -22.3 Q22.5 -25.75 24.8 -27.7 26.35 -29.0 30.0 -29.8 31.85 -29.7 33.8 -27.35 M11.6 -19.6 Q16.75 -15.8 17.95 -7.9 L18.3 -3.75 22.3 -4.1 Q31.0 -3.5 32.2 4.4 32.8 8.3 30.9 12.0 29.1 15.25 25.65 17.05 25.65 19.85 25.1 22.05 22.6 32.5 10.6 34.35 1.7 35.75 -4.45 30.5 L-6.45 30.9 Q-12.55 31.85 -17.65 27.4 -21.85 23.7 -22.65 19.3 -25.65 18.45 -27.45 16.1 -29.05 14.0 -29.7 9.7 -31.7 -3.05 -24.7 -7.6 -23.7 -14.3 -16.6 -17.25 -13.05 -18.65 -9.65 -18.35 L-8.75 -18.25 -8.25 -18.75 Q-4.45 -22.05 1.15 -22.5 7.2 -22.95 11.6 -19.6 M-45.15 -7.8 Q-43.1 -10.35 -39.75 -11.25 -36.4 -12.1 -33.75 -10.75 -30.85 -9.25 -30.3 -5.65 -29.05 2.5 -39.1 4.0 -43.65 4.7 -45.65 1.85 L-46.8 -1.25 Q-47.35 -4.95 -45.15 -7.8 M-19.2 -28.9 Q-20.0 -26.95 -21.4 -26.1 L-21.15 -25.05 Q-20.85 -23.1 -21.5 -21.45 -22.6 -19.0 -25.65 -18.5 -29.55 -17.9 -32.2 -19.8 -34.2 -21.15 -34.4 -22.55 -34.9 -25.65 -33.05 -27.65 -31.6 -29.2 -29.35 -29.65 -29.6 -31.75 -28.25 -33.55 -26.95 -35.3 -24.8 -36.0 L-20.95 -35.8 Q-19.1 -34.85 -18.7 -32.2 -18.5 -30.9 -19.2 -28.9 M-28.05 -24.1 L-27.4 -24.25 -28.3 -24.2 -28.05 -24.1 M-24.6 -1.75 L-24.65 -1.9 -24.65 -1.75 -24.6 -1.75" fill="#ada098" fill-rule="evenodd" stroke="none"/>
    </g>
  </defs>
</svg>
