<?xml version="1.0" encoding="UTF-8" standalone="no"?>
<svg xmlns:ffdec="https://www.free-decompiler.com/flash" xmlns:xlink="http://www.w3.org/1999/xlink" ffdec:objectType="frame" height="107.15px" width="118.1px" xmlns="http://www.w3.org/2000/svg">
  <g transform="matrix(1.0, 0.0, 0.0, 1.0, 70.35, 55.15)">
    <use ffdec:characterId="108" height="107.15" transform="matrix(1.0, 0.0, 0.0, 1.0, -52.25, -55.15)" width="100.0" xlink:href="#shape0"/>
  </g>
  <defs>
    <g id="shape0" transform="matrix(1.0, 0.0, 0.0, 1.0, 52.25, 55.15)">
      <path d="M23.5 -45.05 Q22.35 -42.5 20.15 -41.05 21.65 -40.95 22.5 -41.65 21.7 -39.15 20.3 -36.45 17.5 -31.1 14.75 -29.95 L16.35 -30.05 17.05 -30.45 Q16.3 -27.5 14.45 -24.7 10.7 -19.2 5.05 -19.9 3.0 -20.1 2.15 -18.85 1.65 -18.2 0.45 -14.8 -0.05 -13.4 -1.75 -13.05 L-5.25 -13.3 Q-7.1 -13.95 -8.25 -15.1 -9.5 -16.35 -9.2 -17.6 -8.6 -19.85 -8.3 -25.0 L-7.7 -33.7 Q-6.4 -44.35 -0.85 -46.7 4.2 -48.8 13.05 -48.85 L19.15 -49.25 Q22.45 -49.8 25.15 -51.45 24.65 -47.5 23.5 -45.05" fill="#45464b" fill-rule="evenodd" stroke="none"/>
      <path d="M14.95 -28.95 Q14.35 -26.7 12.65 -24.55 9.1 -20.4 3.55 -21.2 1.85 -21.45 1.15 -20.25 L-0.4 -16.1 Q-0.85 -14.85 -2.25 -14.45 L-5.05 -14.55 Q-6.6 -15.05 -7.5 -15.95 -8.5 -16.95 -8.15 -18.1 -7.7 -20.0 -7.3 -24.8 L-6.45 -33.0 Q-4.9 -43.15 -0.05 -45.25 4.25 -47.05 12.4 -47.1 L18.05 -47.4 Q21.1 -47.85 23.5 -49.35 23.3 -45.75 20.05 -42.65 16.85 -39.7 12.9 -39.05 15.1 -38.55 17.95 -39.1 L20.35 -39.65 Q19.35 -36.95 17.3 -34.2 13.25 -28.65 8.45 -28.2 L12.65 -28.1 14.95 -28.95" fill="#8f8d9b" fill-rule="evenodd" stroke="none"/>
      <path d="M21.6 -47.25 Q18.35 -42.7 13.85 -41.2 12.5 -40.75 11.1 -40.65 L10.05 -40.65 10.6 -40.15 12.05 -39.25 Q6.95 -37.35 3.6 -39.95 2.25 -41.0 2.2 -42.15 2.15 -43.5 3.55 -44.25 4.9 -45.05 6.75 -45.2 L10.45 -45.3 Q16.25 -45.3 21.6 -47.25" fill="#d8d9e1" fill-rule="evenodd" stroke="none"/>
      <path d="M0.85 -30.6 Q-1.35 -32.05 -1.55 -34.6 -1.65 -36.8 -0.4 -38.5 0.8 -40.1 2.0 -39.45 L4.55 -37.9 Q5.75 -37.15 7.0 -36.85 9.85 -36.2 17.9 -37.55 14.65 -31.9 10.2 -30.85 L7.4 -30.65 6.35 -30.9 7.1 -30.25 8.75 -29.25 Q3.5 -28.85 0.85 -30.6" fill="#d8d9e1" fill-rule="evenodd" stroke="none"/>
      <path d="M-0.65 -29.55 Q0.8 -28.3 4.8 -27.25 9.9 -25.9 13.05 -27.25 11.85 -23.9 7.75 -22.55 3.55 -21.3 -1.6 -22.95 -2.75 -23.35 -3.2 -24.75 -3.55 -25.95 -3.3 -27.45 -3.0 -28.85 -2.3 -29.5 L-0.65 -29.55" fill="#d8d9e1" fill-rule="evenodd" stroke="none"/>
      <path d="M-0.4 -16.1 Q-0.85 -14.8 -2.25 -14.4 L-5.05 -14.55 Q-6.6 -15.0 -7.5 -15.95 -8.5 -16.95 -8.15 -18.1 -6.55 -16.4 -3.6 -17.05 -0.9 -17.65 0.8 -19.45 L-0.4 -16.1" fill="#636471" fill-rule="evenodd" stroke="none"/>
      <path d="M42.5 -30.15 Q41.85 -28.55 39.3 -27.35 39.6 -25.95 39.45 -24.3 L39.3 -22.65 Q42.1 -21.55 44.05 -19.75 46.1 -17.9 46.05 -16.25 45.9 -10.1 40.7 -5.05 36.4 -0.9 32.25 -0.1 31.45 1.25 29.65 2.75 L28.0 4.0 Q28.9 6.7 28.25 12.15 L27.05 20.7 Q26.5 25.5 24.0 28.95 21.7 32.05 18.25 33.7 L18.6 32.85 18.5 32.45 Q16.95 33.95 15.45 34.4 L13.9 36.85 Q12.4 38.75 11.05 39.15 L10.85 37.25 10.65 36.6 9.25 38.3 Q7.35 40.15 4.95 40.7 L5.3 38.4 5.25 37.3 4.6 37.9 Q3.75 38.55 2.7 38.8 1.4 37.4 0.35 33.85 -0.75 30.45 -0.7 28.15 -4.95 31.35 -9.7 33.05 -13.6 34.4 -17.25 34.65 -17.6 40.5 -20.9 44.3 -22.55 46.15 -24.1 46.9 L-24.3 45.5 Q-24.9 46.6 -25.9 47.05 L-26.8 47.25 Q-26.7 45.95 -26.85 45.25 L-27.75 46.65 -28.3 46.15 Q-28.8 45.55 -28.9 44.85 -29.65 47.25 -31.55 49.45 -33.3 51.45 -34.55 51.8 L-34.85 50.9 -34.95 50.5 Q-35.8 51.7 -36.75 52.0 L-37.2 50.65 -37.35 50.0 Q-37.65 50.95 -37.9 51.15 -39.5 50.7 -41.35 48.25 -43.1 45.9 -44.4 42.75 -45.7 39.55 -45.85 36.9 -46.05 34.0 -44.7 32.8 -47.35 31.2 -49.65 25.6 -52.15 19.45 -52.25 12.7 -52.4 4.65 -48.95 -1.65 -44.9 -9.15 -36.2 -13.2 -30.95 -15.7 -25.25 -17.0 L-16.85 -18.5 Q-12.75 -19.2 -10.7 -20.4 -8.1 -22.0 -6.65 -25.45 -9.35 -26.8 -9.25 -30.1 -9.15 -33.2 -6.8 -35.4 -3.35 -38.6 -0.15 -37.8 2.3 -37.25 4.4 -34.4 10.3 -38.5 18.8 -37.9 25.0 -37.5 29.35 -35.25 31.5 -37.7 34.35 -38.4 38.25 -39.35 41.0 -35.6 43.4 -32.35 42.5 -30.15" fill="#776156" fill-rule="evenodd" stroke="none"/>
      <path d="M38.9 -28.2 Q38.3 -30.1 36.2 -31.65 34.35 -33.05 30.6 -34.6 32.45 -36.65 34.65 -37.15 37.7 -37.85 40.35 -34.75 42.25 -32.55 41.65 -30.75 41.1 -29.15 38.9 -28.2" fill="#fff1e4" fill-rule="evenodd" stroke="none"/>
      <path d="M-28.05 35.65 L-26.35 34.3 -21.6 34.85 -18.75 34.75 Q-18.85 39.25 -21.3 42.7 -22.55 44.4 -23.75 45.25 -23.8 44.45 -24.25 43.75 -24.6 44.7 -25.45 45.35 L-26.15 45.8 Q-26.3 44.65 -26.7 43.7 -27.15 44.65 -27.85 45.2 -28.1 45.3 -28.55 43.4 -27.85 41.1 -27.9 38.15 L-28.05 35.65" fill="#fff1e4" fill-rule="evenodd" stroke="none"/>
      <path d="M36.85 -29.05 Q37.55 -28.15 37.8 -26.25 L37.95 -23.15 Q35.2 -24.1 31.6 -23.75 27.05 -23.35 25.05 -20.8 28.1 -22.65 32.05 -22.65 35.05 -22.7 37.95 -21.7 41.05 -20.5 42.6 -19.4 44.65 -17.9 44.75 -16.25 45.0 -10.45 40.1 -6.1 36.1 -2.55 31.6 -1.75 25.15 -0.75 18.35 -5.75 L14.35 -9.15 Q12.7 -10.5 12.35 -10.2 8.6 -6.45 10.5 -5.9 11.5 -5.55 11.95 -7.1 12.4 -8.85 12.75 -8.9 L14.5 -7.4 18.15 -4.05 Q24.25 0.75 30.55 -0.2 28.75 2.0 26.25 3.55 24.0 4.85 20.7 5.95 L22.7 5.8 Q25.0 5.45 26.6 4.6 27.4 7.15 27.0 12.15 L26.1 19.9 Q25.7 23.75 23.5 27.15 21.65 30.1 19.35 31.5 L19.5 30.3 19.4 29.8 19.0 30.9 Q18.1 32.1 15.9 32.55 17.15 29.95 17.5 25.2 17.9 20.35 17.1 17.05 18.75 15.85 19.9 13.75 21.25 11.3 21.25 8.5 L20.35 11.05 Q19.05 13.95 16.85 15.7 16.25 12.25 14.6 8.45 12.6 3.75 10.35 2.45 11.85 4.2 13.7 9.2 15.9 15.25 16.15 20.5 16.4 25.65 15.05 30.6 13.75 35.5 11.85 36.6 L11.3 34.55 11.1 34.2 9.9 35.9 Q8.4 37.7 6.5 38.15 L6.45 35.8 6.25 34.75 5.4 35.55 Q4.4 36.45 3.4 36.65 1.3 33.55 0.9 28.65 0.55 23.75 2.35 22.0 0.05 19.8 -1.2 17.65 -2.75 15.0 -3.45 11.35 -4.65 11.75 -5.55 13.55 -6.6 11.85 -6.35 10.15 -7.05 10.2 -7.85 10.9 -8.5 9.25 -8.3 6.85 -8.1 4.3 -7.1 3.05 -8.7 4.25 -9.15 7.7 -9.65 11.25 -8.35 13.45 L-7.9 12.1 -7.15 11.2 Q-7.35 12.35 -6.8 13.9 -6.3 15.35 -5.4 16.3 -5.15 14.45 -4.15 13.45 -3.85 15.7 -2.6 18.25 -1.15 21.05 0.55 22.1 L-0.1 23.4 Q-0.8 24.95 -0.75 26.5 -5.85 30.35 -12.45 32.15 -18.95 33.9 -25.85 33.4 -22.15 30.8 -22.05 24.15 -21.95 18.3 -24.25 14.8 -22.0 23.0 -24.25 28.9 -26.95 36.1 -35.75 35.45 -34.0 36.25 -31.4 36.1 L-29.2 35.8 Q-28.65 41.1 -30.55 45.5 -32.25 49.3 -34.25 49.85 -34.2 49.3 -34.3 48.65 L-34.4 48.1 -34.8 48.75 -36.5 49.85 Q-36.65 49.0 -36.95 48.3 L-37.3 47.8 -38.05 49.15 Q-41.35 47.35 -43.65 41.35 -46.1 35.3 -43.7 33.7 -42.25 34.6 -40.75 34.7 -44.0 33.0 -46.8 27.0 -49.85 20.6 -50.15 13.45 -50.55 5.1 -47.0 -1.35 -42.85 -8.95 -33.65 -12.65 -28.6 -14.7 -22.95 -15.95 L-14.85 -17.55 Q-11.05 -18.4 -9.1 -19.75 -6.7 -21.4 -5.45 -24.8 L-4.35 -24.3 -2.1 -24.05 Q-6.8 -26.45 -7.55 -29.3 -8.25 -31.8 -6.1 -34.1 -3.1 -37.35 -0.1 -36.55 2.1 -35.9 4.15 -33.1 11.55 -37.95 23.0 -35.55 27.55 -34.6 31.5 -32.7 35.2 -30.9 36.85 -29.05" fill="#fff1e4" fill-rule="evenodd" stroke="none"/>
      <path d="M27.55 -0.05 Q27.15 1.0 25.85 1.65 23.2 2.95 18.55 1.0 L21.9 1.5 Q25.35 1.6 25.75 -0.35 L26.35 -0.2 27.55 -0.05" fill="#c1b49c" fill-rule="evenodd" stroke="none"/>
      <path d="M6.75 -4.55 Q6.25 -5.9 7.1 -7.3 6.7 -4.9 9.15 -3.95 11.6 -2.95 13.5 -4.75 12.65 -3.0 11.15 -2.45 L8.5 -2.65 Q7.2 -3.3 6.75 -4.55" fill="#c1b49c" fill-rule="evenodd" stroke="none"/>
      <path d="M36.5 -27.65 Q35.95 -27.4 36.1 -26.8 37.55 -25.7 36.65 -24.35 35.75 -23.05 34.55 -24.2 34.3 -23.95 33.85 -23.85 L32.4 -23.9 Q33.45 -24.2 34.75 -26.5 35.75 -28.4 37.1 -27.85 L36.5 -27.65" fill="#231f20" fill-rule="evenodd" stroke="none"/>
      <path d="M23.6 -22.95 Q23.05 -22.05 22.0 -21.9 L20.2 -22.2 Q19.3 -22.65 19.05 -23.5 18.75 -24.4 19.45 -25.4 18.8 -26.5 17.35 -26.1 L16.0 -25.45 Q17.1 -27.1 18.6 -27.0 19.7 -26.9 21.5 -25.7 L24.55 -23.6 Q26.3 -22.55 27.55 -22.8 26.6 -22.1 25.35 -22.2 24.2 -22.3 23.6 -22.95" fill="#231f20" fill-rule="evenodd" stroke="none"/>
      <path d="M21.2 -24.95 Q22.0 -24.45 21.6 -24.1 L20.45 -24.2 Q19.65 -24.65 20.0 -25.1 20.35 -25.5 21.2 -24.95" fill="#ffffff" fill-rule="evenodd" stroke="none"/>
      <path d="M35.6 -25.85 Q35.4 -26.45 35.8 -26.5 36.2 -26.55 36.4 -26.05 36.6 -25.5 36.15 -25.4 35.75 -25.25 35.6 -25.85" fill="#ffffff" fill-rule="evenodd" stroke="none"/>
      <path d="M29.5 -24.45 Q29.4 -27.35 27.15 -28.4 L28.9 -27.65 Q30.45 -26.5 29.5 -24.45" fill="#c1b49c" fill-rule="evenodd" stroke="none"/>
      <path d="M33.2 -33.4 L35.0 -34.65 Q37.15 -35.65 38.8 -34.25 L35.75 -34.2 Q34.9 -33.75 34.35 -32.85 L33.2 -33.4" fill="#c1b49c" fill-rule="evenodd" stroke="none"/>
      <path d="M-5.55 -30.4 Q-5.25 -32.85 -2.85 -33.55 -0.2 -34.3 2.15 -30.95 3.4 -29.15 2.2 -28.85 L-0.5 -28.6 Q0.2 -27.1 -1.05 -27.1 -2.2 -27.1 -3.15 -27.85 -1.15 -27.55 -1.2 -28.25 L-1.8 -29.45 0.7 -29.7 Q1.45 -29.85 0.7 -30.85 -0.9 -33.2 -2.9 -32.7 -4.65 -32.25 -5.55 -30.4" fill="#c1b49c" fill-rule="evenodd" stroke="none"/>
      <path d="M-7.5 3.75 Q-6.6 6.65 -4.3 9.25 L-0.1 13.4 Q2.4 15.8 3.5 17.65 5.0 20.25 4.9 23.45 4.75 28.75 5.2 30.65 6.1 34.25 9.6 36.25 8.15 37.75 6.5 38.15 L6.45 35.8 6.25 34.75 5.4 35.55 Q4.4 36.45 3.4 36.65 1.3 33.55 0.9 28.65 0.55 23.75 2.35 22.0 0.05 19.8 -1.2 17.65 -2.75 15.0 -3.45 11.35 -4.65 11.75 -5.55 13.55 -6.6 11.85 -6.35 10.15 -7.05 10.2 -7.85 10.9 -8.4 9.45 -8.35 7.35 -8.25 5.2 -7.5 3.75" fill="#fadfcb" fill-rule="evenodd" stroke="none"/>
      <path d="M20.05 13.55 Q20.65 18.45 18.7 25.9 17.95 28.65 18.0 29.4 18.0 30.5 19.35 30.1 L18.75 31.15 Q17.8 32.25 15.9 32.6 17.3 29.35 17.55 24.7 17.8 20.5 17.1 17.05 L18.1 16.25 Q19.3 15.1 20.05 13.55" fill="#fadfcb" fill-rule="evenodd" stroke="none"/>
      <path d="M-25.75 33.35 Q-22.85 31.1 -22.2 26.35 -17.9 27.55 -10.75 23.7 -3.65 19.9 -3.5 16.25 -2.9 18.0 -1.8 19.65 -0.55 21.5 0.55 22.1 -0.25 23.25 -0.6 24.95 L-0.75 26.45 Q-5.65 30.2 -12.05 32.1 -19.15 34.25 -25.75 33.35" fill="#fadfcb" fill-rule="evenodd" stroke="none"/>
      <path d="M-35.65 29.05 Q-31.6 29.65 -28.0 28.2 -24.55 26.8 -23.25 24.25 -23.7 29.6 -26.4 32.5 -29.65 35.95 -35.75 35.55 -34.0 36.3 -31.4 36.15 L-29.2 35.85 Q-28.65 41.15 -30.55 45.55 -32.25 49.35 -34.25 49.9 -34.2 49.35 -34.3 48.7 L-34.4 48.15 -34.8 48.8 -36.5 49.9 Q-36.65 49.05 -36.95 48.4 L-37.3 47.9 -38.05 49.25 Q-41.35 47.4 -43.65 41.45 -46.1 35.35 -43.7 33.75 -42.25 34.65 -40.75 34.75 -43.95 33.1 -46.7 27.6 -49.7 21.6 -50.05 14.75 -47.95 21.35 -43.8 25.1 -40.25 28.35 -35.65 29.05" fill="#fadfcb" fill-rule="evenodd" stroke="none"/>
      <path d="M-28.05 35.65 L-26.35 34.3 -21.5 34.85 Q-22.9 35.85 -23.6 37.9 -24.45 40.25 -24.25 43.8 -24.6 44.75 -25.45 45.35 L-26.15 45.8 Q-26.3 44.65 -26.7 43.7 -27.15 44.65 -27.85 45.2 -28.1 45.3 -28.55 43.4 -27.85 41.1 -27.9 38.15 L-28.05 35.65" fill="#fadfcb" fill-rule="evenodd" stroke="none"/>
      <path d="M-2.65 -8.85 L0.45 -9.45 Q-0.1 -6.45 1.05 -3.45 2.55 0.3 6.35 0.45 1.2 0.75 -1.15 -2.55 -3.0 -5.15 -2.3 -7.2 -3.95 -6.75 -5.2 -5.75 L-6.85 -3.75 Q-7.85 -6.55 -7.3 -10.0 -6.55 -14.5 -3.2 -17.75 -4.6 -15.05 -5.05 -13.0 -5.7 -10.15 -4.9 -7.65 -4.05 -8.4 -2.65 -8.85" fill="#fadfcb" fill-rule="evenodd" stroke="none"/>
      <path d="M47.5 -16.8 Q48.4 -14.95 45.75 -12.15 43.3 -9.6 41.25 -9.3 39.15 -8.95 35.5 -10.95 31.4 -13.2 32.45 -15.8 33.35 -17.95 39.95 -18.35 46.55 -18.75 47.5 -16.8" fill="#231f20" fill-rule="evenodd" stroke="none"/>
      <path d="M43.0 -17.4 Q47.4 -17.45 46.5 -16.2 45.6 -15.0 41.4 -14.8 L38.4 -15.1 Q37.5 -15.45 37.7 -16.0 38.3 -17.3 43.0 -17.4" fill="#d0d2d3" fill-rule="evenodd" stroke="none"/>
      <path d="M-19.2 -49.2 Q-13.35 -46.55 -12.15 -35.3 -11.9 -33.1 -11.6 -26.1 -11.35 -20.75 -10.75 -18.35 -10.45 -16.95 -11.75 -15.75 -12.95 -14.55 -14.95 -13.95 L-18.55 -13.8 Q-20.35 -14.2 -20.85 -15.75 -22.05 -19.35 -22.6 -20.05 -23.55 -21.4 -25.65 -21.2 -31.6 -20.75 -35.45 -26.65 -36.65 -28.55 -37.5 -30.8 L-38.1 -32.7 -37.35 -32.3 -35.7 -32.15 Q-38.6 -33.4 -41.45 -39.2 -42.9 -42.1 -43.75 -44.75 L-43.1 -44.35 Q-42.25 -44.0 -41.25 -44.0 -43.5 -45.65 -44.75 -48.35 -45.95 -50.95 -46.35 -55.15 -43.5 -53.3 -40.1 -52.6 L-33.65 -51.95 -26.8 -51.45 Q-22.8 -50.85 -19.2 -49.2" fill="#45464b" fill-rule="evenodd" stroke="none"/>
      <path d="M-20.0 -47.7 Q-14.9 -45.35 -13.45 -34.6 -13.1 -32.15 -12.65 -25.9 L-11.8 -18.9 Q-11.5 -17.7 -12.6 -16.65 -13.55 -15.7 -15.15 -15.3 L-18.05 -15.25 Q-19.5 -15.7 -20.0 -17.05 L-21.55 -21.45 Q-22.3 -22.75 -24.05 -22.55 -29.9 -21.9 -33.5 -26.45 -34.65 -27.9 -35.4 -29.65 L-35.95 -31.1 -33.55 -30.15 Q-30.8 -29.4 -29.1 -30.1 -34.15 -30.75 -38.35 -36.75 -40.4 -39.7 -41.5 -42.55 L-39.0 -41.85 -33.65 -41.65 Q-37.8 -42.45 -41.1 -45.7 -44.5 -49.05 -44.65 -52.85 -42.2 -51.25 -39.0 -50.65 L-33.05 -50.05 -26.8 -49.65 Q-23.15 -49.1 -20.0 -47.7" fill="#8f8d9b" fill-rule="evenodd" stroke="none"/>
      <path d="M-23.95 -42.3 Q-27.4 -39.7 -32.75 -41.8 -31.45 -42.35 -30.65 -43.25 -32.35 -43.1 -34.7 -43.95 -39.35 -45.65 -42.75 -50.55 -37.15 -48.35 -31.0 -48.15 L-27.15 -47.95 Q-25.25 -47.7 -23.8 -46.85 -22.3 -45.95 -22.4 -44.6 -22.55 -43.3 -23.95 -42.3" fill="#d8d9e1" fill-rule="evenodd" stroke="none"/>
      <path d="M-22.25 -41.65 Q-21.0 -42.35 -19.7 -40.55 -18.4 -38.75 -18.6 -36.5 -18.75 -33.85 -21.1 -32.35 -23.9 -30.65 -29.45 -31.2 -28.1 -31.75 -26.85 -32.85 L-30.9 -32.95 Q-35.6 -34.25 -38.95 -40.25 -30.5 -38.55 -27.45 -39.15 -26.2 -39.35 -24.9 -40.15 -24.1 -40.55 -22.25 -41.65" fill="#d8d9e1" fill-rule="evenodd" stroke="none"/>
      <path d="M-19.55 -31.15 L-17.85 -31.1 Q-17.1 -30.35 -16.85 -28.9 -16.55 -27.3 -16.9 -26.05 -17.4 -24.6 -18.65 -24.25 -24.05 -22.65 -28.5 -24.2 -32.75 -25.65 -33.95 -29.3 -30.65 -27.75 -25.3 -28.95 -21.1 -29.95 -19.55 -31.15" fill="#d8d9e1" fill-rule="evenodd" stroke="none"/>
      <path d="M-20.0 -17.0 L-21.15 -20.7 Q-19.45 -18.65 -16.65 -17.95 -13.55 -17.15 -11.8 -18.9 L-11.8 -18.85 Q-11.5 -17.65 -12.55 -16.65 -13.5 -15.7 -15.15 -15.3 L-18.05 -15.2 Q-19.5 -15.65 -20.0 -17.0" fill="#636471" fill-rule="evenodd" stroke="none"/>
    </g>
  </defs>
</svg>
