<?xml version="1.0" encoding="UTF-8" standalone="no"?>
<svg xmlns:ffdec="https://www.free-decompiler.com/flash" xmlns:xlink="http://www.w3.org/1999/xlink" ffdec:objectType="frame" height="107.15px" width="118.1px" xmlns="http://www.w3.org/2000/svg">
  <g transform="matrix(1.0, 0.0, 0.0, 1.0, 70.35, 55.15)">
    <use ffdec:characterId="109" height="95.15" transform="matrix(1.0, 0.0, 0.0, 1.0, -70.35, -43.75)" width="118.05" xlink:href="#shape0"/>
  </g>
  <defs>
    <g id="shape0" transform="matrix(1.0, 0.0, 0.0, 1.0, 70.35, 43.75)">
      <path d="M33.85 -30.85 Q27.8 -26.4 24.15 -25.8 L25.95 -25.7 26.9 -25.85 Q24.45 -23.35 20.85 -21.15 13.6 -16.7 7.75 -18.15 5.65 -18.65 3.95 -17.65 3.0 -17.15 -0.2 -14.3 -1.55 -13.05 -3.65 -13.0 -5.55 -12.9 -7.3 -13.75 -9.1 -14.6 -9.65 -15.75 -10.35 -17.05 -9.25 -18.2 -7.4 -20.1 -4.2 -24.65 L1.45 -32.45 Q8.8 -41.85 16.35 -43.15 22.95 -44.35 32.85 -43.05 L39.8 -42.55 Q43.75 -42.55 47.7 -43.7 44.95 -40.2 42.3 -38.1 39.55 -36.0 36.35 -35.0 L39.3 -35.2 33.85 -30.85" fill="#45464b" fill-rule="evenodd" stroke="none"/>
      <path d="M29.35 -29.2 Q21.75 -24.85 16.15 -25.15 17.5 -24.25 20.8 -24.45 L23.75 -24.85 Q21.85 -22.9 18.7 -21.25 12.55 -18.0 6.85 -19.55 5.05 -20.05 3.6 -19.05 L-0.4 -15.5 Q-2.9 -13.3 -6.4 -14.85 -7.85 -15.45 -8.3 -16.4 -8.85 -17.5 -7.9 -18.45 -6.3 -20.1 -3.15 -24.35 L2.35 -31.6 Q9.8 -40.55 16.35 -41.7 22.15 -42.75 31.2 -41.55 L44.6 -41.95 Q42.4 -38.75 37.1 -36.45 31.95 -34.25 27.2 -34.3 29.35 -33.5 32.8 -33.55 L35.8 -33.7 Q33.15 -31.45 29.35 -29.2" fill="#8f8d9b" fill-rule="evenodd" stroke="none"/>
      <path d="M41.45 -40.35 Q35.25 -36.7 29.45 -36.05 L26.15 -35.95 24.95 -36.1 25.25 -35.6 26.4 -34.55 Q19.65 -33.65 17.4 -36.45 16.55 -37.55 17.15 -38.7 17.75 -39.8 19.75 -40.35 22.4 -41.0 27.95 -40.25 34.35 -39.4 41.45 -40.35" fill="#d8d9e1" fill-rule="evenodd" stroke="none"/>
      <path d="M15.35 -36.2 L17.25 -34.45 Q18.2 -33.55 19.4 -33.15 22.25 -32.15 31.85 -32.2 25.1 -27.6 19.55 -27.3 L16.4 -27.55 15.3 -27.9 15.85 -27.25 17.15 -26.05 Q11.1 -26.45 9.05 -28.4 7.45 -30.1 8.75 -32.4 9.8 -34.35 12.1 -35.65 14.4 -37.0 15.35 -36.2" fill="#d8d9e1" fill-rule="evenodd" stroke="none"/>
      <path d="M6.85 -27.65 Q7.8 -26.35 11.6 -24.85 16.45 -22.85 20.7 -23.6 17.55 -20.7 12.3 -20.15 6.85 -19.6 2.15 -21.9 1.05 -22.4 1.4 -23.75 1.6 -24.9 2.8 -26.2 3.9 -27.4 5.05 -27.9 6.3 -28.4 6.85 -27.65" fill="#d8d9e1" fill-rule="evenodd" stroke="none"/>
      <path d="M-0.4 -15.5 Q-2.95 -13.3 -6.4 -14.85 -7.85 -15.45 -8.35 -16.4 -8.9 -17.5 -7.9 -18.45 -7.0 -16.65 -3.4 -16.85 -0.1 -17.0 2.85 -18.45 L-0.4 -15.5" fill="#636471" fill-rule="evenodd" stroke="none"/>
      <path d="M41.65 -30.75 Q41.0 -29.15 38.45 -27.95 38.75 -26.55 38.6 -24.9 L38.45 -23.25 Q41.25 -22.15 43.2 -20.35 45.25 -18.5 45.2 -16.85 45.05 -10.7 39.85 -5.65 35.55 -1.5 31.4 -0.7 30.6 0.65 28.8 2.15 L27.15 3.4 Q28.05 6.1 27.4 11.55 L26.2 20.1 Q25.65 24.9 23.15 28.35 20.85 31.45 17.4 33.1 L17.75 32.25 17.65 31.85 Q16.1 33.35 14.6 33.8 L13.05 36.25 Q11.55 38.15 10.2 38.55 L10.0 36.65 9.8 36.0 8.4 37.7 Q6.5 39.55 4.1 40.1 L4.45 37.8 4.4 36.7 3.75 37.3 Q2.9 37.95 1.85 38.2 0.55 36.8 -0.5 33.25 -1.6 29.85 -1.55 27.55 -5.8 30.75 -10.55 32.45 -14.45 33.8 -18.1 34.05 -18.45 39.9 -21.75 43.7 -23.4 45.55 -24.95 46.3 L-25.15 44.9 Q-25.75 46.0 -26.75 46.45 L-27.65 46.65 Q-27.55 45.35 -27.7 44.65 L-28.6 46.05 -29.15 45.55 Q-29.65 44.95 -29.75 44.25 -30.5 46.65 -32.4 48.85 -34.15 50.85 -35.4 51.2 L-35.7 50.3 -35.8 49.9 Q-36.65 51.1 -37.6 51.4 L-38.05 50.05 -38.2 49.4 Q-38.5 50.35 -38.75 50.55 -40.35 50.1 -42.2 47.65 -43.95 45.3 -45.25 42.15 -46.55 38.95 -46.7 36.3 -46.9 33.4 -45.55 32.2 -48.2 30.6 -50.5 25.0 -53.0 18.85 -53.1 12.1 -53.25 4.05 -49.8 -2.25 -45.75 -9.75 -37.05 -13.8 -31.8 -16.3 -26.1 -17.6 L-17.7 -19.1 Q-13.6 -19.8 -11.55 -21.0 -8.95 -22.6 -7.5 -26.05 -10.2 -27.4 -10.1 -30.7 -10.0 -33.8 -7.65 -36.0 -4.2 -39.2 -1.0 -38.4 1.45 -37.85 3.55 -35.0 9.45 -39.1 17.95 -38.5 24.15 -38.1 28.5 -35.85 30.65 -38.3 33.5 -39.0 37.4 -39.95 40.15 -36.2 42.55 -32.95 41.65 -30.75" fill="#776156" fill-rule="evenodd" stroke="none"/>
      <path d="M38.05 -28.8 Q37.45 -30.7 35.35 -32.25 33.5 -33.65 29.75 -35.2 31.6 -37.25 33.8 -37.75 36.85 -38.45 39.5 -35.35 41.4 -33.15 40.8 -31.35 40.25 -29.75 38.05 -28.8" fill="#fff1e4" fill-rule="evenodd" stroke="none"/>
      <path d="M-28.9 35.05 L-27.2 33.7 -22.45 34.25 -19.6 34.15 Q-19.7 38.65 -22.15 42.1 -23.4 43.8 -24.6 44.65 -24.65 43.85 -25.1 43.15 -25.45 44.1 -26.3 44.75 L-27.0 45.2 Q-27.15 44.05 -27.55 43.1 -28.0 44.05 -28.7 44.6 -28.95 44.7 -29.4 42.8 -28.7 40.5 -28.75 37.55 L-28.9 35.05" fill="#fff1e4" fill-rule="evenodd" stroke="none"/>
      <path d="M36.0 -29.65 Q36.7 -28.75 36.95 -26.85 L37.1 -23.75 Q34.35 -24.7 30.75 -24.35 26.2 -23.95 24.2 -21.4 27.25 -23.25 31.2 -23.25 34.2 -23.3 37.1 -22.3 40.2 -21.1 41.75 -20.0 43.8 -18.5 43.9 -16.85 44.15 -11.05 39.25 -6.7 35.25 -3.15 30.75 -2.35 24.3 -1.35 17.5 -6.35 L13.5 -9.75 Q11.85 -11.1 11.5 -10.8 7.75 -7.05 9.65 -6.5 10.65 -6.15 11.1 -7.7 11.55 -9.45 11.9 -9.5 L13.65 -8.0 Q15.7 -5.9 17.3 -4.65 23.4 0.15 29.7 -0.8 27.9 1.4 25.4 2.95 23.15 4.25 19.85 5.35 L21.85 5.2 Q24.15 4.85 25.75 4.0 26.55 6.55 26.15 11.55 L25.25 19.3 Q24.85 23.15 22.65 26.55 20.8 29.5 18.5 30.9 L18.65 29.7 18.55 29.2 18.15 30.3 Q17.25 31.5 15.05 31.95 16.3 29.35 16.65 24.6 17.05 19.75 16.25 16.45 17.9 15.25 19.05 13.15 20.4 10.7 20.4 7.9 L19.5 10.45 Q18.2 13.35 16.0 15.1 15.4 11.65 13.75 7.85 11.75 3.15 9.5 1.85 11.0 3.6 12.85 8.6 15.05 14.65 15.3 19.9 15.55 25.05 14.2 30.0 12.9 34.9 11.0 36.0 L10.45 33.95 10.25 33.6 9.05 35.3 Q7.55 37.1 5.65 37.55 L5.6 35.2 5.4 34.15 4.55 34.95 Q3.55 35.85 2.55 36.05 0.45 32.95 0.05 28.05 -0.3 23.15 1.5 21.4 -0.8 19.2 -2.05 17.05 -3.6 14.4 -4.3 10.75 -5.5 11.15 -6.4 12.95 -7.45 11.25 -7.2 9.55 -7.9 9.6 -8.7 10.3 -9.35 8.65 -9.15 6.25 -8.95 3.7 -7.95 2.45 -9.55 3.65 -10.0 7.1 -10.5 10.65 -9.2 12.85 L-8.75 11.5 Q-8.45 10.75 -8.0 10.6 -8.2 11.75 -7.65 13.3 -7.15 14.75 -6.25 15.7 -6.0 13.85 -5.0 12.85 -4.7 15.1 -3.45 17.65 -2.0 20.45 -0.3 21.5 L-0.95 22.8 Q-1.65 24.35 -1.6 25.9 -6.7 29.75 -13.3 31.55 -19.8 33.3 -26.7 32.8 -23.0 30.2 -22.9 23.55 -22.8 17.7 -25.1 14.2 -22.85 22.4 -25.1 28.3 -27.8 35.5 -36.6 34.85 -34.85 35.65 -32.25 35.5 L-30.05 35.2 Q-29.5 40.5 -31.4 44.9 -33.1 48.7 -35.1 49.25 L-35.15 48.05 -35.25 47.5 -35.65 48.15 Q-36.3 48.9 -37.35 49.25 -37.5 48.4 -37.8 47.7 L-38.15 47.2 -38.9 48.55 Q-42.2 46.75 -44.5 40.75 -46.95 34.7 -44.55 33.1 -43.1 34.0 -41.6 34.1 -44.85 32.4 -47.65 26.4 -50.7 20.0 -51.0 12.85 -51.4 4.5 -47.85 -1.95 -43.7 -9.55 -34.5 -13.25 -29.45 -15.3 -23.8 -16.55 L-15.7 -18.15 Q-11.9 -19.0 -9.95 -20.35 -7.55 -22.0 -6.3 -25.4 L-5.2 -24.9 -2.95 -24.65 Q-7.65 -27.05 -8.4 -29.9 -9.1 -32.4 -6.95 -34.7 -3.95 -37.95 -0.95 -37.15 1.25 -36.5 3.3 -33.7 10.7 -38.55 22.15 -36.15 26.7 -35.2 30.65 -33.3 34.35 -31.5 36.0 -29.65" fill="#fff1e4" fill-rule="evenodd" stroke="none"/>
      <path d="M26.7 -0.65 Q26.3 0.4 25.0 1.05 22.35 2.35 17.7 0.4 L21.05 0.9 Q24.5 1.0 24.9 -0.95 L25.5 -0.8 26.7 -0.65" fill="#c1b49c" fill-rule="evenodd" stroke="none"/>
      <path d="M5.9 -5.15 Q5.4 -6.5 6.25 -7.9 5.85 -5.5 8.3 -4.55 10.75 -3.55 12.65 -5.35 11.8 -3.6 10.3 -3.05 L7.65 -3.25 Q6.35 -3.9 5.9 -5.15" fill="#c1b49c" fill-rule="evenodd" stroke="none"/>
      <path d="M35.65 -28.25 Q35.1 -28.0 35.25 -27.4 36.7 -26.3 35.8 -24.95 34.9 -23.65 33.7 -24.8 33.45 -24.55 33.0 -24.45 L31.55 -24.5 Q32.6 -24.8 33.9 -27.1 34.9 -29.0 36.25 -28.45 L35.65 -28.25" fill="#231f20" fill-rule="evenodd" stroke="none"/>
      <path d="M26.7 -23.4 Q25.75 -22.7 24.5 -22.8 23.35 -22.9 22.75 -23.55 22.2 -22.65 21.15 -22.5 20.2 -22.35 19.35 -22.8 18.45 -23.25 18.2 -24.1 17.9 -25.0 18.6 -26.0 17.95 -27.1 16.5 -26.7 L15.15 -26.05 Q16.25 -27.7 17.75 -27.6 18.85 -27.5 20.65 -26.3 L23.7 -24.2 Q25.45 -23.15 26.7 -23.4" fill="#231f20" fill-rule="evenodd" stroke="none"/>
      <path d="M20.35 -25.55 Q21.15 -25.05 20.75 -24.7 L19.6 -24.8 Q18.8 -25.25 19.15 -25.7 L20.35 -25.55" fill="#ffffff" fill-rule="evenodd" stroke="none"/>
      <path d="M34.75 -26.45 Q34.55 -27.05 34.95 -27.1 35.35 -27.15 35.55 -26.65 35.75 -26.1 35.3 -26.0 34.9 -25.85 34.75 -26.45" fill="#ffffff" fill-rule="evenodd" stroke="none"/>
      <path d="M28.65 -25.05 Q28.55 -27.95 26.3 -29.0 L28.05 -28.25 Q29.6 -27.1 28.65 -25.05" fill="#c1b49c" fill-rule="evenodd" stroke="none"/>
      <path d="M32.35 -34.0 L34.15 -35.25 Q36.3 -36.25 37.95 -34.85 L34.9 -34.8 Q34.05 -34.35 33.5 -33.45 L32.35 -34.0" fill="#c1b49c" fill-rule="evenodd" stroke="none"/>
      <path d="M-6.4 -31.0 Q-6.1 -33.45 -3.7 -34.15 -1.05 -34.9 1.3 -31.55 2.55 -29.75 1.35 -29.45 L-1.35 -29.2 Q-0.65 -27.7 -1.9 -27.7 -3.05 -27.7 -4.0 -28.45 -2.0 -28.15 -2.05 -28.85 L-2.65 -30.05 -0.15 -30.3 Q0.6 -30.45 -0.15 -31.45 -1.75 -33.8 -3.75 -33.3 -5.5 -32.85 -6.4 -31.0" fill="#c1b49c" fill-rule="evenodd" stroke="none"/>
      <path d="M-5.15 8.65 L-0.95 12.8 Q1.55 15.2 2.65 17.05 4.15 19.65 4.05 22.85 3.9 28.15 4.35 30.05 5.25 33.65 8.75 35.65 7.3 37.15 5.65 37.55 L5.6 35.2 5.4 34.15 4.55 34.95 Q3.55 35.85 2.55 36.05 0.45 32.95 0.05 28.05 -0.3 23.15 1.5 21.4 -0.8 19.2 -2.05 17.05 -3.6 14.4 -4.3 10.75 -5.5 11.15 -6.4 12.95 -7.45 11.25 -7.2 9.55 -7.9 9.6 -8.7 10.3 -9.25 8.85 -9.2 6.75 -9.1 4.6 -8.35 3.15 -7.45 6.05 -5.15 8.65" fill="#fadfcb" fill-rule="evenodd" stroke="none"/>
      <path d="M19.2 12.95 Q19.8 17.85 17.85 25.3 17.1 28.05 17.15 28.8 17.15 29.9 18.5 29.5 L17.9 30.55 Q16.95 31.65 15.05 32.0 16.45 28.75 16.7 24.1 16.95 19.9 16.25 16.45 L17.25 15.65 Q18.45 14.5 19.2 12.95" fill="#fadfcb" fill-rule="evenodd" stroke="none"/>
      <path d="M-26.6 32.75 Q-23.7 30.5 -23.05 25.75 -18.75 26.95 -11.6 23.1 -4.5 19.3 -4.35 15.65 -3.75 17.4 -2.65 19.05 -1.4 20.9 -0.3 21.5 -1.1 22.65 -1.45 24.35 L-1.6 25.85 Q-6.5 29.6 -12.9 31.5 -20.0 33.65 -26.6 32.75" fill="#fadfcb" fill-rule="evenodd" stroke="none"/>
      <path d="M-36.5 28.45 Q-32.45 29.05 -28.85 27.6 -25.4 26.2 -24.1 23.65 -24.55 29.0 -27.25 31.9 -30.5 35.35 -36.6 34.95 -34.85 35.7 -32.25 35.55 L-30.05 35.25 Q-29.5 40.55 -31.4 44.95 -33.1 48.75 -35.1 49.3 L-35.15 48.1 -35.25 47.55 -35.65 48.2 Q-36.3 48.95 -37.35 49.3 -37.5 48.45 -37.8 47.8 L-38.15 47.3 -38.9 48.65 Q-42.2 46.8 -44.5 40.85 -46.95 34.75 -44.55 33.15 -43.1 34.05 -41.6 34.15 -44.8 32.5 -47.55 27.0 -50.55 21.0 -50.9 14.15 -48.8 20.75 -44.65 24.5 -41.1 27.75 -36.5 28.45" fill="#fadfcb" fill-rule="evenodd" stroke="none"/>
      <path d="M-28.9 35.05 L-27.2 33.7 -22.35 34.25 Q-23.75 35.25 -24.45 37.3 -25.3 39.65 -25.1 43.2 -25.45 44.15 -26.3 44.75 L-27.0 45.2 Q-27.15 44.05 -27.55 43.1 -28.0 44.05 -28.7 44.6 -28.95 44.7 -29.4 42.8 -28.7 40.5 -28.75 37.55 L-28.9 35.05" fill="#fadfcb" fill-rule="evenodd" stroke="none"/>
      <path d="M-6.05 -6.35 L-7.7 -4.35 Q-8.7 -7.15 -8.15 -10.6 -7.4 -15.1 -4.05 -18.35 -5.45 -15.65 -5.9 -13.6 -6.55 -10.75 -5.75 -8.25 -4.9 -9.0 -3.5 -9.45 L-0.4 -10.05 Q-0.95 -7.05 0.2 -4.05 1.7 -0.3 5.5 -0.15 0.35 0.15 -2.0 -3.15 -3.85 -5.75 -3.15 -7.8 -4.8 -7.35 -6.05 -6.35" fill="#fadfcb" fill-rule="evenodd" stroke="none"/>
      <path d="M46.65 -17.4 Q47.55 -15.55 44.9 -12.75 42.45 -10.2 40.4 -9.9 38.3 -9.55 34.65 -11.55 30.55 -13.8 31.6 -16.4 32.5 -18.55 39.1 -18.95 45.7 -19.35 46.65 -17.4" fill="#231f20" fill-rule="evenodd" stroke="none"/>
      <path d="M42.15 -18.0 Q46.55 -18.05 45.65 -16.8 44.75 -15.6 40.55 -15.4 L37.55 -15.7 Q36.65 -16.05 36.85 -16.6 37.45 -17.9 42.15 -18.0" fill="#d0d2d3" fill-rule="evenodd" stroke="none"/>
      <path d="M-49.3 -39.45 L-40.6 -40.3 Q-33.3 -40.15 -24.9 -31.45 L-18.45 -24.2 Q-14.8 -19.95 -12.7 -18.2 -11.5 -17.2 -11.95 -15.7 -12.35 -14.35 -13.85 -13.2 -15.4 -12.0 -17.2 -11.75 -19.2 -11.5 -20.7 -12.55 -24.15 -15.05 -25.1 -15.45 L-28.8 -15.3 Q-34.15 -12.85 -41.6 -16.3 -43.95 -17.4 -46.25 -18.95 L-48.05 -20.3 -47.05 -20.2 Q-46.0 -20.25 -45.45 -20.65 -48.95 -20.65 -55.4 -24.35 L-61.15 -28.05 -60.3 -28.0 -58.35 -28.35 Q-61.55 -28.9 -64.4 -30.6 -67.25 -32.35 -70.35 -35.6 -66.45 -35.1 -62.7 -35.75 -60.3 -36.15 -56.2 -37.45 L-49.3 -39.45" fill="#45464b" fill-rule="evenodd" stroke="none"/>
      <path d="M-48.15 -38.0 L-40.45 -38.8 Q-34.05 -38.7 -25.7 -30.45 L-19.35 -23.7 Q-15.8 -19.7 -14.05 -18.25 -13.0 -17.4 -13.35 -16.2 -13.65 -15.1 -14.9 -14.2 -16.15 -13.25 -17.65 -13.1 -19.35 -12.95 -20.65 -13.9 L-25.0 -16.95 Q-26.55 -17.75 -28.15 -16.95 -33.3 -14.4 -39.65 -16.8 -41.6 -17.55 -43.45 -18.7 L-44.95 -19.75 -42.05 -19.85 Q-38.95 -20.15 -37.8 -21.3 -43.0 -20.05 -50.85 -23.45 -53.3 -24.5 -55.7 -25.9 L-57.6 -27.05 -54.8 -27.4 Q-51.55 -27.95 -49.6 -29.15 -54.05 -28.3 -59.3 -29.75 -64.7 -31.3 -67.2 -34.3 -62.0 -33.65 -54.45 -36.15 L-48.15 -38.0" fill="#8f8d9b" fill-rule="evenodd" stroke="none"/>
      <path d="M-43.45 -36.75 Q-41.5 -36.55 -40.75 -35.4 -40.0 -34.35 -40.65 -33.0 -42.35 -29.7 -48.85 -29.5 -47.9 -30.45 -47.75 -31.4 -49.25 -30.75 -52.0 -30.6 -57.55 -30.35 -63.95 -33.15 -57.15 -33.3 -51.2 -35.3 L-47.4 -36.5 -43.45 -36.75" fill="#d8d9e1" fill-rule="evenodd" stroke="none"/>
      <path d="M-38.65 -33.15 L-35.55 -33.1 Q-33.15 -32.1 -31.85 -30.2 -30.3 -27.95 -31.6 -26.0 -33.15 -23.55 -38.8 -22.1 -37.9 -23.0 -37.4 -24.35 -38.65 -23.3 -41.3 -23.0 -46.65 -22.4 -53.65 -26.1 -44.55 -27.7 -42.0 -29.2 -40.95 -29.85 -40.2 -30.9 L-38.65 -33.15" fill="#d8d9e1" fill-rule="evenodd" stroke="none"/>
      <path d="M-33.35 -16.7 Q-38.45 -16.4 -41.85 -18.95 -37.75 -18.85 -33.45 -21.75 -30.05 -24.0 -29.4 -25.5 -29.0 -26.4 -27.7 -26.05 -26.5 -25.75 -25.25 -24.6 -24.0 -23.45 -23.55 -22.3 -23.1 -20.95 -24.05 -20.2 -28.2 -17.05 -33.35 -16.7" fill="#d8d9e1" fill-rule="evenodd" stroke="none"/>
      <path d="M-20.65 -13.9 L-24.15 -16.45 Q-21.2 -15.4 -18.05 -15.8 -14.6 -16.25 -14.05 -18.3 L-14.0 -18.25 Q-13.0 -17.4 -13.3 -16.2 -13.6 -15.1 -14.85 -14.2 -16.15 -13.25 -17.65 -13.1 -19.35 -12.95 -20.65 -13.9" fill="#636471" fill-rule="evenodd" stroke="none"/>
    </g>
  </defs>
</svg>
