<?xml version="1.0" encoding="UTF-8" standalone="no"?>
<svg xmlns:ffdec="https://www.free-decompiler.com/flash" xmlns:xlink="http://www.w3.org/1999/xlink" ffdec:objectType="frame" height="107.15px" width="118.1px" xmlns="http://www.w3.org/2000/svg">
  <g transform="matrix(1.0, 0.0, 0.0, 1.0, 70.35, 55.15)">
    <use ffdec:characterId="110" height="90.6" transform="matrix(1.0, 0.0, 0.0, 1.0, -52.75, -40.4)" width="100.0" xlink:href="#shape0"/>
  </g>
  <defs>
    <g id="shape0" transform="matrix(1.0, 0.0, 0.0, 1.0, 52.75, 40.4)">
      <path d="M-0.9 -17.3 Q0.55 -14.45 4.6 -8.8 L11.5 0.9 Q19.5 13.3 17.55 20.6 16.35 25.05 14.05 28.9 L9.75 34.8 Q6.95 38.25 5.75 40.5 3.95 43.9 3.45 48.0 0.45 43.45 -0.8 39.8 -2.05 36.15 -1.75 32.75 -2.45 33.5 -2.8 34.55 L-2.95 35.45 Q-4.4 32.1 -5.7 28.0 -8.3 19.9 -7.3 16.4 -7.95 16.75 -8.3 17.85 L-8.5 18.8 Q-10.4 15.1 -11.4 10.6 -13.45 1.55 -8.95 -2.6 -7.3 -4.15 -7.7 -6.2 L-9.95 -11.9 Q-10.8 -13.9 -9.9 -15.75 -9.1 -17.45 -7.25 -18.4 -5.4 -19.4 -3.7 -19.15 -1.75 -18.9 -0.9 -17.3" fill="#45464b" fill-rule="evenodd" stroke="none"/>
      <path d="M-1.2 -15.9 Q0.0 -13.5 3.7 -8.15 L10.05 1.3 Q17.5 13.3 15.75 19.7 14.75 23.6 12.6 27.0 11.5 28.9 8.6 32.45 6.05 35.65 4.9 37.65 3.2 40.75 2.75 44.3 -0.05 40.4 -0.35 34.3 -0.65 28.45 1.65 24.45 -0.35 25.8 -1.95 28.75 L-3.1 31.45 Q-4.6 27.75 -5.55 23.0 -7.3 13.7 -4.35 9.1 -6.1 9.7 -7.35 12.65 L-8.3 15.45 Q-9.7 12.55 -10.25 8.9 -11.35 1.4 -6.8 -2.5 -5.35 -3.7 -5.9 -5.6 L-8.3 -11.35 Q-9.1 -13.05 -8.35 -14.65 -7.8 -16.1 -6.35 -16.95 -4.9 -17.75 -3.5 -17.55 -1.95 -17.35 -1.2 -15.9" fill="#8f8d9b" fill-rule="evenodd" stroke="none"/>
      <path d="M12.5 21.8 Q12.2 23.85 11.05 25.55 L8.5 28.85 Q4.5 33.8 2.35 40.55 0.8 32.95 2.75 27.5 3.35 25.8 4.15 24.55 L4.9 23.65 2.35 23.85 Q3.35 20.65 5.25 18.95 6.95 17.35 8.85 17.35 10.6 17.25 11.65 18.5 12.8 19.75 12.5 21.8" fill="#d8d9e1" fill-rule="evenodd" stroke="none"/>
      <path d="M-1.55 10.8 L-0.6 10.1 -3.65 10.5 Q-0.35 5.5 3.0 5.05 5.7 4.7 7.95 7.25 9.85 9.45 10.35 12.25 10.9 15.1 9.55 15.4 L6.45 15.9 Q4.95 16.15 3.9 16.95 1.35 18.75 -3.15 27.05 -5.6 18.35 -3.3 13.35 -2.6 11.8 -1.55 10.8" fill="#d8d9e1" fill-rule="evenodd" stroke="none"/>
      <path d="M3.05 2.65 Q1.1 2.6 -2.6 4.95 -7.25 7.85 -8.35 12.05 -10.35 7.5 -8.6 2.6 -6.7 -2.4 -1.75 -5.1 -0.6 -5.65 0.9 -4.6 2.15 -3.65 3.15 -1.8 4.2 -0.05 4.2 1.25 4.25 2.7 3.05 2.65" fill="#d8d9e1" fill-rule="evenodd" stroke="none"/>
      <path d="M-8.35 -14.7 Q-7.8 -16.1 -6.35 -16.95 -4.9 -17.8 -3.5 -17.6 -1.95 -17.4 -1.2 -15.95 L-1.2 -15.9 Q-3.8 -16.3 -5.3 -13.0 -6.7 -10.1 -6.3 -6.65 L-8.3 -11.35 Q-9.1 -13.05 -8.35 -14.7" fill="#636471" fill-rule="evenodd" stroke="none"/>
      <path d="M42.0 -31.95 Q41.35 -30.35 38.8 -29.15 39.1 -27.75 38.95 -26.1 L38.8 -24.45 Q41.6 -23.35 43.55 -21.55 45.6 -19.7 45.55 -18.05 45.4 -11.9 40.2 -6.85 35.9 -2.7 31.75 -1.9 30.95 -0.55 29.15 0.95 L27.5 2.2 Q28.4 4.9 27.75 10.35 L26.55 18.9 Q26.0 23.7 23.5 27.15 21.2 30.25 17.75 31.9 L18.1 31.05 18.0 30.65 Q16.45 32.15 14.95 32.6 L13.4 35.05 Q11.9 36.95 10.55 37.35 L10.35 35.45 10.15 34.8 8.75 36.5 Q6.85 38.35 4.45 38.9 L4.8 36.6 4.75 35.5 4.1 36.1 Q3.25 36.75 2.2 37.0 0.9 35.6 -0.15 32.05 -1.25 28.65 -1.2 26.35 -5.45 29.55 -10.2 31.25 -14.1 32.6 -17.75 32.85 -18.1 38.7 -21.4 42.5 -23.05 44.35 -24.6 45.1 L-24.8 43.7 Q-25.4 44.8 -26.4 45.25 L-27.3 45.45 Q-27.2 44.15 -27.35 43.45 L-28.25 44.85 -28.8 44.35 -29.4 43.05 Q-30.15 45.45 -32.05 47.65 -33.8 49.65 -35.05 50.0 L-35.35 49.1 -35.45 48.7 Q-36.3 49.9 -37.25 50.2 L-37.7 48.85 -37.85 48.2 Q-38.15 49.15 -38.4 49.35 -40.0 48.9 -41.85 46.45 -43.6 44.1 -44.9 40.95 -46.2 37.75 -46.35 35.1 -46.55 32.2 -45.2 31.0 -47.85 29.4 -50.15 23.8 -52.65 17.65 -52.75 10.9 -52.9 2.85 -49.45 -3.45 -45.4 -10.95 -36.7 -15.0 -31.45 -17.5 -25.75 -18.8 L-17.35 -20.3 Q-13.25 -21.0 -11.2 -22.2 -8.6 -23.8 -7.15 -27.25 -9.85 -28.6 -9.75 -31.9 -9.65 -35.0 -7.3 -37.2 -3.85 -40.4 -0.65 -39.6 1.8 -39.05 3.9 -36.2 9.8 -40.3 18.3 -39.7 24.5 -39.3 28.85 -37.05 31.0 -39.5 33.85 -40.2 37.75 -41.15 40.5 -37.4 42.9 -34.15 42.0 -31.95" fill="#776156" fill-rule="evenodd" stroke="none"/>
      <path d="M38.4 -30.0 Q37.8 -31.9 35.7 -33.45 33.85 -34.85 30.1 -36.4 31.95 -38.45 34.15 -38.95 37.2 -39.65 39.85 -36.55 41.75 -34.35 41.15 -32.55 40.6 -30.95 38.4 -30.0" fill="#fff1e4" fill-rule="evenodd" stroke="none"/>
      <path d="M-28.55 33.85 L-26.85 32.5 -22.1 33.05 -19.25 32.95 Q-19.35 37.45 -21.8 40.9 -23.05 42.6 -24.25 43.45 -24.3 42.65 -24.75 41.95 -25.1 42.9 -25.95 43.55 L-26.65 44.0 Q-26.8 42.85 -27.2 41.9 -27.65 42.85 -28.35 43.4 -28.6 43.5 -29.05 41.6 -28.35 39.3 -28.4 36.35 L-28.55 33.85" fill="#fff1e4" fill-rule="evenodd" stroke="none"/>
      <path d="M36.35 -30.85 Q37.05 -29.95 37.3 -28.05 L37.45 -24.95 Q34.7 -25.9 31.1 -25.55 26.55 -25.15 24.55 -22.6 27.6 -24.45 31.55 -24.45 34.55 -24.5 37.45 -23.5 40.55 -22.3 42.1 -21.2 44.15 -19.7 44.25 -18.05 44.5 -12.25 39.6 -7.9 35.6 -4.35 31.1 -3.55 24.65 -2.55 17.85 -7.55 L13.85 -10.95 Q12.2 -12.3 11.85 -12.0 8.1 -8.25 10.0 -7.7 11.0 -7.35 11.45 -8.9 11.9 -10.65 12.25 -10.7 12.45 -10.75 14.0 -9.2 16.05 -7.1 17.65 -5.85 23.75 -1.05 30.05 -2.0 28.25 0.2 25.75 1.75 23.5 3.05 20.2 4.15 L22.2 4.0 Q24.5 3.65 26.1 2.8 26.9 5.35 26.5 10.35 L25.6 18.1 Q25.2 21.95 23.0 25.35 21.15 28.3 18.85 29.7 L19.0 28.5 18.9 28.0 18.5 29.1 Q17.6 30.3 15.4 30.75 16.65 28.15 17.0 23.4 17.4 18.55 16.6 15.25 18.25 14.05 19.4 11.95 20.75 9.5 20.75 6.7 L19.85 9.25 Q18.55 12.15 16.35 13.9 15.75 10.45 14.1 6.65 12.1 1.95 9.85 0.65 11.35 2.4 13.2 7.4 15.4 13.45 15.65 18.7 15.9 23.85 14.55 28.8 13.25 33.7 11.35 34.8 L10.8 32.75 10.6 32.4 9.4 34.1 Q7.9 35.9 6.0 36.35 L5.95 34.0 5.75 32.95 4.9 33.75 Q3.9 34.65 2.9 34.85 0.8 31.75 0.4 26.85 0.05 21.95 1.85 20.2 -0.45 18.0 -1.7 15.85 -3.25 13.2 -3.95 9.55 -5.15 9.95 -6.05 11.75 -7.1 10.05 -6.85 8.35 -7.55 8.4 -8.35 9.1 -9.0 7.45 -8.8 5.05 -8.6 2.5 -7.6 1.25 -9.2 2.45 -9.65 5.9 -10.15 9.45 -8.85 11.65 L-8.4 10.3 Q-8.1 9.55 -7.65 9.4 -7.85 10.55 -7.3 12.1 -6.8 13.55 -5.9 14.5 -5.65 12.65 -4.65 11.65 -4.35 13.9 -3.1 16.45 -1.65 19.25 0.05 20.3 L-0.6 21.6 Q-1.3 23.15 -1.25 24.7 -6.35 28.55 -12.95 30.35 -19.45 32.1 -26.35 31.6 -22.65 29.0 -22.55 22.35 -22.45 16.5 -24.75 13.0 -22.5 21.2 -24.75 27.1 -27.45 34.3 -36.25 33.65 -34.5 34.45 -31.9 34.3 L-29.7 34.0 Q-29.15 39.3 -31.05 43.7 -32.75 47.5 -34.75 48.05 -34.7 47.5 -34.8 46.85 L-34.9 46.3 -35.3 46.95 Q-35.95 47.7 -37.0 48.05 -37.15 47.2 -37.45 46.5 L-37.8 46.0 -38.55 47.35 Q-41.85 45.55 -44.15 39.55 -46.6 33.5 -44.2 31.9 -42.75 32.8 -41.25 32.9 -44.5 31.2 -47.3 25.2 -50.35 18.8 -50.65 11.65 -51.05 3.3 -47.5 -3.15 -43.35 -10.75 -34.15 -14.45 -29.1 -16.5 -23.45 -17.75 L-15.35 -19.35 Q-11.55 -20.2 -9.6 -21.55 -7.2 -23.2 -5.95 -26.6 L-4.85 -26.1 -2.6 -25.85 Q-7.3 -28.25 -8.05 -31.1 -8.75 -33.6 -6.6 -35.9 -3.6 -39.15 -0.6 -38.35 1.6 -37.7 3.65 -34.9 11.05 -39.75 22.5 -37.35 27.05 -36.4 31.0 -34.5 34.7 -32.7 36.35 -30.85" fill="#fff1e4" fill-rule="evenodd" stroke="none"/>
      <path d="M27.05 -1.85 Q26.65 -0.8 25.35 -0.15 22.7 1.15 18.05 -0.8 L21.4 -0.3 Q24.85 -0.2 25.25 -2.15 L25.85 -2.0 27.05 -1.85" fill="#c1b49c" fill-rule="evenodd" stroke="none"/>
      <path d="M6.25 -6.35 Q5.75 -7.7 6.6 -9.1 6.2 -6.7 8.65 -5.75 11.1 -4.75 13.0 -6.55 12.15 -4.8 10.65 -4.25 L8.0 -4.45 Q6.7 -5.1 6.25 -6.35" fill="#c1b49c" fill-rule="evenodd" stroke="none"/>
      <path d="M36.0 -29.45 Q35.45 -29.2 35.6 -28.6 37.05 -27.5 36.15 -26.15 35.25 -24.85 34.05 -26.0 33.8 -25.75 33.35 -25.65 L31.9 -25.7 Q32.95 -26.0 34.25 -28.3 35.25 -30.2 36.6 -29.65 L36.0 -29.45" fill="#231f20" fill-rule="evenodd" stroke="none"/>
      <path d="M23.1 -24.75 Q22.55 -23.85 21.5 -23.7 20.55 -23.55 19.7 -24.0 18.8 -24.45 18.55 -25.3 18.25 -26.2 18.95 -27.2 18.3 -28.3 16.85 -27.9 L15.5 -27.25 Q16.6 -28.9 18.1 -28.8 19.2 -28.7 21.0 -27.5 L24.05 -25.4 Q25.8 -24.35 27.05 -24.6 26.1 -23.9 24.85 -24.0 23.7 -24.1 23.1 -24.75" fill="#231f20" fill-rule="evenodd" stroke="none"/>
      <path d="M20.7 -26.75 Q21.5 -26.25 21.1 -25.9 L19.95 -26.0 Q19.15 -26.45 19.5 -26.9 L20.7 -26.75" fill="#ffffff" fill-rule="evenodd" stroke="none"/>
      <path d="M35.1 -27.65 Q34.9 -28.25 35.3 -28.3 35.7 -28.35 35.9 -27.85 36.1 -27.3 35.65 -27.2 35.25 -27.05 35.1 -27.65" fill="#ffffff" fill-rule="evenodd" stroke="none"/>
      <path d="M29.0 -26.25 Q28.9 -29.15 26.65 -30.2 L28.4 -29.45 Q29.95 -28.3 29.0 -26.25" fill="#c1b49c" fill-rule="evenodd" stroke="none"/>
      <path d="M32.7 -35.2 L34.5 -36.45 Q36.65 -37.45 38.3 -36.05 L35.25 -36.0 Q34.4 -35.55 33.85 -34.65 L32.7 -35.2" fill="#c1b49c" fill-rule="evenodd" stroke="none"/>
      <path d="M-6.05 -32.2 Q-5.75 -34.65 -3.35 -35.35 -0.7 -36.1 1.65 -32.75 2.9 -30.95 1.7 -30.65 L-1.0 -30.4 Q-0.3 -28.9 -1.55 -28.9 -2.7 -28.9 -3.65 -29.65 -1.65 -29.35 -1.7 -30.05 L-2.3 -31.25 0.2 -31.5 Q0.95 -31.65 0.2 -32.65 -1.4 -35.0 -3.4 -34.5 -5.15 -34.05 -6.05 -32.2" fill="#c1b49c" fill-rule="evenodd" stroke="none"/>
      <path d="M-8.0 1.95 Q-7.1 4.85 -4.8 7.45 L-0.6 11.6 Q1.9 14.0 3.0 15.85 4.5 18.45 4.4 21.65 4.25 26.95 4.7 28.85 5.6 32.45 9.1 34.45 7.65 35.95 6.0 36.35 L5.95 34.0 5.75 32.95 4.9 33.75 Q3.9 34.65 2.9 34.85 0.8 31.75 0.4 26.85 0.05 21.95 1.85 20.2 -0.45 18.0 -1.7 15.85 -3.25 13.2 -3.95 9.55 -5.15 9.95 -6.05 11.75 -7.1 10.05 -6.85 8.35 -7.55 8.4 -8.35 9.1 -8.9 7.65 -8.85 5.55 -8.75 3.4 -8.0 1.95" fill="#fadfcb" fill-rule="evenodd" stroke="none"/>
      <path d="M19.55 11.75 Q20.15 16.65 18.2 24.1 17.45 26.85 17.5 27.6 17.5 28.7 18.85 28.3 L18.25 29.35 Q17.3 30.45 15.4 30.8 16.8 27.55 17.05 22.9 17.3 18.7 16.6 15.25 L17.6 14.45 Q18.8 13.3 19.55 11.75" fill="#fadfcb" fill-rule="evenodd" stroke="none"/>
      <path d="M-26.25 31.55 Q-23.35 29.3 -22.7 24.55 -18.4 25.75 -11.25 21.9 -4.15 18.1 -4.0 14.45 -3.4 16.2 -2.3 17.85 -1.05 19.7 0.05 20.3 -0.75 21.45 -1.1 23.15 L-1.25 24.65 Q-6.15 28.4 -12.55 30.3 -19.65 32.45 -26.25 31.55" fill="#fadfcb" fill-rule="evenodd" stroke="none"/>
      <path d="M-36.15 27.25 Q-32.1 27.85 -28.5 26.4 -25.05 25.0 -23.75 22.45 -24.2 27.8 -26.9 30.7 -30.15 34.15 -36.25 33.75 -34.5 34.5 -31.9 34.35 L-29.7 34.05 Q-29.15 39.35 -31.05 43.75 -32.75 47.55 -34.75 48.1 -34.7 47.55 -34.8 46.9 L-34.9 46.35 -35.3 47.0 Q-35.95 47.75 -37.0 48.1 -37.15 47.25 -37.45 46.6 L-37.8 46.1 -38.55 47.45 Q-41.85 45.6 -44.15 39.65 -46.6 33.55 -44.2 31.95 -42.75 32.85 -41.25 32.95 -44.45 31.3 -47.2 25.8 -50.2 19.8 -50.55 12.95 -48.45 19.55 -44.3 23.3 -40.75 26.55 -36.15 27.25" fill="#fadfcb" fill-rule="evenodd" stroke="none"/>
      <path d="M-28.55 33.85 L-26.85 32.5 -22.0 33.05 Q-23.4 34.05 -24.1 36.1 -24.95 38.45 -24.75 42.0 -25.1 42.95 -25.95 43.55 L-26.65 44.0 Q-26.8 42.85 -27.2 41.9 -27.65 42.85 -28.35 43.4 -28.6 43.5 -29.05 41.6 -28.35 39.3 -28.4 36.35 L-28.55 33.85" fill="#fadfcb" fill-rule="evenodd" stroke="none"/>
      <path d="M-7.35 -5.55 Q-8.35 -8.35 -7.8 -11.8 -7.05 -16.3 -3.7 -19.55 -5.1 -16.85 -5.55 -14.8 -6.2 -11.95 -5.4 -9.45 -4.55 -10.2 -3.15 -10.65 L-0.05 -11.25 Q-0.6 -8.25 0.55 -5.25 2.05 -1.5 5.85 -1.35 0.7 -1.05 -1.65 -4.35 -3.5 -6.95 -2.8 -9.0 -4.45 -8.55 -5.7 -7.55 L-7.35 -5.55" fill="#fadfcb" fill-rule="evenodd" stroke="none"/>
      <path d="M47.0 -18.6 Q47.9 -16.75 45.25 -13.95 42.8 -11.4 40.75 -11.1 38.65 -10.75 35.0 -12.75 30.9 -15.0 31.95 -17.6 32.85 -19.75 39.45 -20.15 46.05 -20.55 47.0 -18.6" fill="#231f20" fill-rule="evenodd" stroke="none"/>
      <path d="M42.5 -19.2 Q46.9 -19.25 46.0 -18.0 45.1 -16.8 40.9 -16.6 L37.9 -16.9 Q37.0 -17.25 37.2 -17.8 37.8 -19.1 42.5 -19.2" fill="#d0d2d3" fill-rule="evenodd" stroke="none"/>
      <path d="M-19.85 -12.8 Q-19.8 -15.0 -18.15 -16.5 -16.7 -17.85 -14.55 -18.2 -12.5 -18.55 -10.95 -17.75 -9.3 -16.85 -9.2 -15.0 -9.1 -11.75 -7.8 -4.9 -6.1 3.95 -5.7 6.85 -3.65 21.5 -8.6 27.95 -11.65 31.85 -15.4 34.8 L-21.95 39.1 Q-25.95 41.55 -28.0 43.3 -31.15 46.0 -33.4 49.8 -34.2 44.4 -33.75 40.45 -33.35 36.45 -31.6 33.25 -32.6 33.75 -33.3 34.65 L-33.8 35.45 Q-33.75 31.7 -33.15 27.35 -32.05 18.6 -29.6 15.55 -30.4 15.7 -31.15 16.6 L-31.75 17.5 Q-31.9 13.3 -30.9 8.55 -28.85 -0.9 -22.95 -3.45 -20.8 -4.4 -20.3 -6.55 -20.0 -7.7 -19.85 -12.8" fill="#45464b" fill-rule="evenodd" stroke="none"/>
      <path d="M-18.65 -11.7 Q-18.55 -13.6 -17.25 -14.95 -16.05 -16.15 -14.35 -16.5 -12.7 -16.8 -11.5 -16.15 -10.15 -15.4 -10.1 -13.8 -10.0 -11.05 -8.9 -4.55 L-7.2 6.7 Q-5.55 20.85 -9.85 26.5 -12.5 29.9 -15.9 32.5 L-21.9 36.45 Q-25.7 38.7 -27.55 40.25 -30.45 42.7 -32.4 46.0 -33.35 41.25 -31.0 35.25 -28.7 29.45 -24.85 26.3 -27.3 27.0 -30.05 29.35 L-32.3 31.55 Q-32.05 27.45 -30.85 22.6 -28.5 12.95 -23.75 9.45 -25.6 9.5 -28.05 11.9 L-30.15 14.35 Q-30.2 11.05 -29.1 7.25 -26.9 -0.3 -21.0 -2.6 -19.2 -3.3 -18.9 -5.3 L-18.65 -11.7" fill="#8f8d9b" fill-rule="evenodd" stroke="none"/>
      <path d="M-13.8 27.4 Q-14.95 29.25 -16.75 30.6 L-20.45 32.9 Q-26.35 36.4 -31.2 42.2 -29.3 34.3 -25.2 29.65 L-22.6 27.3 -21.55 26.65 Q-22.55 25.95 -24.0 26.0 -21.7 23.25 -19.2 22.2 -17.0 21.25 -15.2 21.85 -13.55 22.35 -13.1 23.9 -12.6 25.5 -13.8 27.4" fill="#d8d9e1" fill-rule="evenodd" stroke="none"/>
      <path d="M-13.7 20.2 L-16.8 19.65 -19.55 19.8 Q-22.7 20.75 -30.4 27.3 -28.9 18.05 -24.7 13.95 -23.35 12.7 -21.95 12.05 L-20.75 11.7 Q-22.3 11.0 -23.75 11.0 -18.55 7.3 -15.3 8.0 -12.6 8.55 -11.65 11.75 -10.85 14.5 -11.6 17.45 -12.3 20.35 -13.7 20.2" fill="#d8d9e1" fill-rule="evenodd" stroke="none"/>
      <path d="M-14.15 5.7 L-20.4 6.05 Q-25.95 7.3 -28.7 11.0 -28.6 5.85 -24.85 1.7 -20.95 -2.5 -15.25 -3.45 -13.95 -3.65 -13.05 -2.1 -12.3 -0.75 -12.15 1.35 -12.0 3.4 -12.5 4.7 -13.1 6.15 -14.15 5.7" fill="#d8d9e1" fill-rule="evenodd" stroke="none"/>
      <path d="M-18.75 -6.5 L-18.6 -11.75 Q-18.55 -13.65 -17.25 -15.0 -16.05 -16.15 -14.35 -16.5 -12.65 -16.85 -11.45 -16.15 -10.15 -15.45 -10.1 -13.8 L-10.1 -13.75 Q-12.35 -15.0 -15.1 -12.35 -17.65 -9.95 -18.75 -6.5" fill="#636471" fill-rule="evenodd" stroke="none"/>
    </g>
  </defs>
</svg>
