<?xml version="1.0" encoding="UTF-8" standalone="no"?>
<svg xmlns:ffdec="https://www.free-decompiler.com/flash" xmlns:xlink="http://www.w3.org/1999/xlink" ffdec:objectType="frame" height="107.15px" width="118.1px" xmlns="http://www.w3.org/2000/svg">
  <g transform="matrix(1.0, 0.0, 0.0, 1.0, 70.35, 55.15)">
    <use ffdec:characterId="111" height="90.6" transform="matrix(1.0, 0.0, 0.0, 1.0, -52.75, -39.55)" width="100.0" xlink:href="#shape0"/>
  </g>
  <defs>
    <g id="shape0" transform="matrix(1.0, 0.0, 0.0, 1.0, 52.75, 39.55)">
      <path d="M1.15 -17.05 Q2.5 -15.5 6.2 -12.7 L12.4 -7.85 Q19.7 -1.55 17.6 3.35 16.3 6.35 13.95 9.05 L9.65 13.5 Q6.9 16.15 5.7 17.7 3.85 20.15 3.2 22.8 0.45 20.45 -0.6 18.45 -1.7 16.35 -1.3 14.2 -2.0 14.8 -2.3 15.5 L-2.5 16.05 Q-3.8 14.2 -4.9 11.95 -7.15 7.3 -6.05 5.0 -6.7 5.35 -7.05 6.05 L-7.25 6.7 Q-9.0 4.75 -9.8 2.1 -11.45 -3.2 -7.0 -6.55 -5.4 -7.75 -5.75 -9.0 -5.9 -9.65 -7.7 -12.15 -8.45 -13.25 -7.5 -14.55 -6.65 -15.75 -4.85 -16.7 -3.1 -17.6 -1.45 -17.75 0.4 -17.9 1.15 -17.05" fill="#45464b" fill-rule="evenodd" stroke="none"/>
      <path d="M0.8 -16.15 Q1.95 -14.85 5.35 -12.15 L11.05 -7.35 Q17.75 -1.15 15.95 3.1 14.3 6.85 8.65 12.25 3.5 17.1 2.7 20.6 0.05 18.65 0.0 14.95 -0.05 11.35 2.25 8.4 0.3 9.65 -1.3 11.75 L-2.55 13.65 Q-3.85 11.55 -4.55 8.8 -6.0 3.3 -3.0 -0.05 -4.65 0.6 -5.95 2.65 L-6.95 4.6 Q-8.25 3.0 -8.65 0.8 -9.45 -3.65 -4.95 -6.85 -3.6 -7.85 -4.0 -8.9 L-6.15 -12.1 Q-6.8 -13.0 -6.1 -14.15 -5.5 -15.15 -4.05 -15.9 -2.65 -16.7 -1.3 -16.8 0.15 -16.9 0.8 -16.15" fill="#8f8d9b" fill-rule="evenodd" stroke="none"/>
      <path d="M3.15 10.2 L4.65 8.1 5.4 7.4 4.65 7.45 2.9 7.95 Q5.1 3.65 9.35 2.8 11.05 2.45 12.05 3.05 13.05 3.65 12.7 4.95 12.35 6.3 11.25 7.55 L8.7 10.0 Q4.65 13.8 2.4 18.35 1.2 13.85 3.15 10.2" fill="#d8d9e1" fill-rule="evenodd" stroke="none"/>
      <path d="M7.15 2.3 Q5.7 2.75 4.65 3.4 2.15 4.95 -2.45 10.9 -4.45 5.9 -2.15 2.45 -1.45 1.35 -0.35 0.5 L0.55 -0.05 -0.45 0.1 -2.45 0.7 Q0.95 -2.95 4.15 -3.8 6.8 -4.55 8.85 -3.3 10.6 -2.3 11.0 -0.6 11.4 1.05 10.1 1.45 L7.15 2.3" fill="#d8d9e1" fill-rule="evenodd" stroke="none"/>
      <path d="M4.35 -5.35 Q2.45 -5.0 -1.2 -2.95 -5.75 -0.3 -6.9 2.45 -8.7 -0.05 -6.8 -3.4 -4.9 -6.8 0.0 -9.3 L2.45 -9.45 Q3.65 -9.1 4.55 -8.15 5.45 -7.25 5.45 -6.4 5.45 -5.5 4.35 -5.35" fill="#d8d9e1" fill-rule="evenodd" stroke="none"/>
      <path d="M-6.15 -12.1 Q-6.8 -13.0 -6.1 -14.15 -5.5 -15.15 -4.05 -15.9 -2.65 -16.7 -1.3 -16.8 0.15 -16.9 0.8 -16.15 L0.85 -16.15 Q-1.65 -15.9 -3.2 -13.65 -4.6 -11.6 -4.35 -9.55 L-6.15 -12.1" fill="#636471" fill-rule="evenodd" stroke="none"/>
      <path d="M42.0 -31.1 Q41.35 -29.5 38.8 -28.3 39.1 -26.9 38.95 -25.25 L38.8 -23.6 Q41.6 -22.5 43.55 -20.7 45.6 -18.85 45.55 -17.2 45.4 -11.05 40.2 -6.0 35.9 -1.85 31.75 -1.05 30.95 0.3 29.15 1.8 L27.5 3.05 Q28.4 5.75 27.75 11.2 L26.55 19.75 Q26.0 24.55 23.5 28.0 21.2 31.1 17.75 32.75 L18.1 31.9 18.0 31.5 Q16.45 33.0 14.95 33.45 L13.4 35.9 Q11.9 37.8 10.55 38.2 L10.35 36.3 10.15 35.65 8.75 37.35 Q6.85 39.2 4.45 39.75 L4.8 37.45 4.75 36.35 4.1 36.95 Q3.25 37.6 2.2 37.85 0.9 36.45 -0.15 32.9 -1.25 29.5 -1.2 27.2 -5.45 30.4 -10.2 32.1 -14.1 33.45 -17.75 33.7 -18.1 39.55 -21.4 43.35 -23.05 45.2 -24.6 45.95 L-24.8 44.55 Q-25.4 45.65 -26.4 46.1 L-27.3 46.3 Q-27.2 45.0 -27.35 44.3 L-28.25 45.7 -28.8 45.2 -29.4 43.9 Q-30.15 46.3 -32.05 48.5 -33.8 50.5 -35.05 50.85 L-35.35 49.95 -35.45 49.55 Q-36.3 50.75 -37.25 51.05 L-37.7 49.7 -37.85 49.05 Q-38.15 50.0 -38.4 50.2 -40.0 49.75 -41.85 47.3 -43.6 44.95 -44.9 41.8 -46.2 38.6 -46.35 35.95 -46.55 33.05 -45.2 31.85 -47.85 30.25 -50.15 24.65 -52.65 18.5 -52.75 11.75 -52.9 3.7 -49.45 -2.6 -45.4 -10.1 -36.7 -14.15 -31.45 -16.65 -25.75 -17.95 L-17.35 -19.45 Q-13.25 -20.15 -11.2 -21.35 -8.6 -22.95 -7.15 -26.4 -9.85 -27.75 -9.75 -31.05 -9.65 -34.15 -7.3 -36.35 -3.85 -39.55 -0.65 -38.75 1.8 -38.2 3.9 -35.35 9.8 -39.45 18.3 -38.85 24.5 -38.45 28.85 -36.2 31.0 -38.65 33.85 -39.35 37.75 -40.3 40.5 -36.55 42.9 -33.3 42.0 -31.1" fill="#776156" fill-rule="evenodd" stroke="none"/>
      <path d="M38.4 -29.15 Q37.8 -31.05 35.7 -32.6 33.85 -34.0 30.1 -35.55 31.95 -37.6 34.15 -38.1 37.2 -38.8 39.85 -35.7 41.75 -33.5 41.15 -31.7 40.6 -30.1 38.4 -29.15" fill="#fff1e4" fill-rule="evenodd" stroke="none"/>
      <path d="M-28.55 34.7 L-26.85 33.35 -22.1 33.9 -19.25 33.8 Q-19.35 38.3 -21.8 41.75 -23.05 43.45 -24.25 44.3 -24.3 43.5 -24.75 42.8 -25.1 43.75 -25.95 44.4 L-26.65 44.85 Q-26.8 43.7 -27.2 42.75 -27.65 43.7 -28.35 44.25 -28.6 44.35 -29.05 42.45 -28.35 40.15 -28.4 37.2 L-28.55 34.7" fill="#fff1e4" fill-rule="evenodd" stroke="none"/>
      <path d="M36.35 -30.0 Q37.05 -29.1 37.3 -27.2 L37.45 -24.1 Q34.7 -25.05 31.1 -24.7 26.55 -24.3 24.55 -21.75 27.6 -23.6 31.55 -23.6 34.55 -23.65 37.45 -22.65 40.55 -21.45 42.1 -20.35 44.15 -18.85 44.25 -17.2 44.5 -11.4 39.6 -7.05 35.6 -3.5 31.1 -2.7 24.65 -1.7 17.85 -6.7 L13.85 -10.1 Q12.2 -11.45 11.85 -11.15 8.1 -7.4 10.0 -6.85 11.0 -6.5 11.45 -8.05 11.9 -9.8 12.25 -9.85 12.45 -9.9 14.0 -8.35 16.05 -6.25 17.65 -5.0 23.75 -0.2 30.05 -1.15 28.25 1.05 25.75 2.6 23.5 3.9 20.2 5.0 L22.2 4.85 Q24.5 4.5 26.1 3.65 26.9 6.2 26.5 11.2 L25.6 18.95 Q25.2 22.8 23.0 26.2 21.15 29.15 18.85 30.55 L19.0 29.35 18.9 28.85 18.5 29.95 Q17.6 31.15 15.4 31.6 16.65 29.0 17.0 24.25 17.4 19.4 16.6 16.1 18.25 14.9 19.4 12.8 20.75 10.35 20.75 7.55 L19.85 10.1 Q18.55 13.0 16.35 14.75 15.75 11.3 14.1 7.5 12.1 2.8 9.85 1.5 11.35 3.25 13.2 8.25 15.4 14.3 15.65 19.55 15.9 24.7 14.55 29.65 13.25 34.55 11.35 35.65 L10.8 33.6 10.6 33.25 9.4 34.95 Q7.9 36.75 6.0 37.2 L5.95 34.85 5.75 33.8 4.9 34.6 Q3.9 35.5 2.9 35.7 0.8 32.6 0.4 27.7 0.05 22.8 1.85 21.05 -0.45 18.85 -1.7 16.7 -3.25 14.05 -3.95 10.4 -5.15 10.8 -6.05 12.6 -7.1 10.9 -6.85 9.2 -7.55 9.25 -8.35 9.95 -9.0 8.3 -8.8 5.9 -8.6 3.35 -7.6 2.1 -9.2 3.3 -9.65 6.75 -10.15 10.3 -8.85 12.5 L-8.4 11.15 Q-8.1 10.4 -7.65 10.25 -7.85 11.4 -7.3 12.95 -6.8 14.4 -5.9 15.35 -5.65 13.5 -4.65 12.5 -4.35 14.75 -3.1 17.3 -1.65 20.1 0.05 21.15 L-0.6 22.45 Q-1.3 24.0 -1.25 25.55 -6.35 29.4 -12.95 31.2 -19.45 32.95 -26.35 32.45 -22.65 29.85 -22.55 23.2 -22.45 17.35 -24.75 13.85 -22.5 22.05 -24.75 27.95 -27.45 35.15 -36.25 34.5 -34.5 35.3 -31.9 35.15 L-29.7 34.85 Q-29.15 40.15 -31.05 44.55 -32.75 48.35 -34.75 48.9 -34.7 48.35 -34.8 47.7 L-34.9 47.15 -35.3 47.8 Q-35.95 48.55 -37.0 48.9 -37.15 48.05 -37.45 47.35 L-37.8 46.85 -38.55 48.2 Q-41.85 46.4 -44.15 40.4 -46.6 34.35 -44.2 32.75 -42.75 33.65 -41.25 33.75 -44.5 32.05 -47.3 26.05 -50.35 19.65 -50.65 12.5 -51.05 4.15 -47.5 -2.3 -43.35 -9.9 -34.15 -13.6 -29.1 -15.65 -23.45 -16.9 L-15.35 -18.5 Q-11.55 -19.35 -9.6 -20.7 -7.2 -22.35 -5.95 -25.75 L-4.85 -25.25 -2.6 -25.0 Q-7.3 -27.4 -8.05 -30.25 -8.75 -32.75 -6.6 -35.05 -3.6 -38.3 -0.6 -37.5 1.6 -36.85 3.65 -34.05 11.05 -38.9 22.5 -36.5 27.05 -35.55 31.0 -33.65 34.7 -31.85 36.35 -30.0" fill="#fff1e4" fill-rule="evenodd" stroke="none"/>
      <path d="M27.05 -1.0 Q26.65 0.05 25.35 0.7 22.7 2.0 18.05 0.05 L21.4 0.55 Q24.85 0.65 25.25 -1.3 L25.85 -1.15 27.05 -1.0" fill="#c1b49c" fill-rule="evenodd" stroke="none"/>
      <path d="M6.25 -5.5 Q5.75 -6.85 6.6 -8.25 6.2 -5.85 8.65 -4.9 11.1 -3.9 13.0 -5.7 12.15 -3.95 10.65 -3.4 L8.0 -3.6 Q6.7 -4.25 6.25 -5.5" fill="#c1b49c" fill-rule="evenodd" stroke="none"/>
      <path d="M36.0 -28.6 Q35.45 -28.35 35.6 -27.75 37.05 -26.65 36.15 -25.3 35.25 -24.0 34.05 -25.15 33.8 -24.9 33.35 -24.8 L31.9 -24.85 Q32.95 -25.15 34.25 -27.45 35.25 -29.35 36.6 -28.8 L36.0 -28.6" fill="#231f20" fill-rule="evenodd" stroke="none"/>
      <path d="M27.05 -23.75 Q26.1 -23.05 24.85 -23.15 23.7 -23.25 23.1 -23.9 22.55 -23.0 21.5 -22.85 20.55 -22.7 19.7 -23.15 18.8 -23.6 18.55 -24.45 18.25 -25.35 18.95 -26.35 18.3 -27.45 16.85 -27.05 L15.5 -26.4 Q16.6 -28.05 18.1 -27.95 19.2 -27.85 21.0 -26.65 L24.05 -24.55 Q25.8 -23.5 27.05 -23.75" fill="#231f20" fill-rule="evenodd" stroke="none"/>
      <path d="M20.7 -25.9 Q21.5 -25.4 21.1 -25.05 L19.95 -25.15 Q19.15 -25.6 19.5 -26.05 L20.7 -25.9" fill="#ffffff" fill-rule="evenodd" stroke="none"/>
      <path d="M35.1 -26.8 Q34.9 -27.4 35.3 -27.45 35.7 -27.5 35.9 -27.0 36.1 -26.45 35.65 -26.35 35.25 -26.2 35.1 -26.8" fill="#ffffff" fill-rule="evenodd" stroke="none"/>
      <path d="M29.0 -25.4 Q28.9 -28.3 26.65 -29.35 L28.4 -28.6 Q29.95 -27.45 29.0 -25.4" fill="#c1b49c" fill-rule="evenodd" stroke="none"/>
      <path d="M32.7 -34.35 L34.5 -35.6 Q36.65 -36.6 38.3 -35.2 L35.25 -35.15 Q34.4 -34.7 33.85 -33.8 L32.7 -34.35" fill="#c1b49c" fill-rule="evenodd" stroke="none"/>
      <path d="M-6.05 -31.35 Q-5.75 -33.8 -3.35 -34.5 -0.7 -35.25 1.65 -31.9 2.9 -30.1 1.7 -29.8 L-1.0 -29.55 Q-0.3 -28.05 -1.55 -28.05 -2.7 -28.05 -3.65 -28.8 -1.65 -28.5 -1.7 -29.2 L-2.3 -30.4 0.2 -30.65 Q0.95 -30.8 0.2 -31.8 -1.4 -34.15 -3.4 -33.65 -5.15 -33.2 -6.05 -31.35" fill="#c1b49c" fill-rule="evenodd" stroke="none"/>
      <path d="M-4.8 8.3 L-0.6 12.45 Q1.9 14.85 3.0 16.7 4.5 19.3 4.4 22.5 4.25 27.8 4.7 29.7 5.6 33.3 9.1 35.3 7.65 36.8 6.0 37.2 L5.95 34.85 5.75 33.8 4.9 34.6 Q3.9 35.5 2.9 35.7 0.8 32.6 0.4 27.7 0.05 22.8 1.85 21.05 -0.45 18.85 -1.7 16.7 -3.25 14.05 -3.95 10.4 -5.15 10.8 -6.05 12.6 -7.1 10.9 -6.85 9.2 -7.55 9.25 -8.35 9.95 -8.9 8.5 -8.85 6.4 -8.75 4.25 -8.0 2.8 -7.1 5.7 -4.8 8.3" fill="#fadfcb" fill-rule="evenodd" stroke="none"/>
      <path d="M19.55 12.6 Q20.15 17.5 18.2 24.95 17.45 27.7 17.5 28.45 17.5 29.55 18.85 29.15 L18.25 30.2 Q17.3 31.3 15.4 31.65 16.8 28.4 17.05 23.75 17.3 19.55 16.6 16.1 L17.6 15.3 Q18.8 14.15 19.55 12.6" fill="#fadfcb" fill-rule="evenodd" stroke="none"/>
      <path d="M-26.25 32.4 Q-23.35 30.15 -22.7 25.4 -18.4 26.6 -11.25 22.75 -4.15 18.95 -4.0 15.3 -3.4 17.05 -2.3 18.7 -1.05 20.55 0.05 21.15 -0.75 22.3 -1.1 24.0 L-1.25 25.5 Q-6.15 29.25 -12.55 31.15 -19.65 33.3 -26.25 32.4" fill="#fadfcb" fill-rule="evenodd" stroke="none"/>
      <path d="M-36.15 28.1 Q-32.1 28.7 -28.5 27.25 -25.05 25.85 -23.75 23.3 -24.2 28.65 -26.9 31.55 -30.15 35.0 -36.25 34.6 -34.5 35.35 -31.9 35.2 L-29.7 34.9 Q-29.15 40.2 -31.05 44.6 -32.75 48.4 -34.75 48.95 -34.7 48.4 -34.8 47.75 L-34.9 47.2 -35.3 47.85 Q-35.95 48.6 -37.0 48.95 -37.15 48.1 -37.45 47.45 L-37.8 46.95 -38.55 48.3 Q-41.85 46.45 -44.15 40.5 -46.6 34.4 -44.2 32.8 -42.75 33.7 -41.25 33.8 -44.45 32.15 -47.2 26.65 -50.2 20.65 -50.55 13.8 -48.45 20.4 -44.3 24.15 -40.75 27.4 -36.15 28.1" fill="#fadfcb" fill-rule="evenodd" stroke="none"/>
      <path d="M-28.55 34.7 L-26.85 33.35 -22.0 33.9 Q-23.4 34.9 -24.1 36.95 -24.95 39.3 -24.75 42.85 -25.1 43.8 -25.95 44.4 L-26.65 44.85 Q-26.8 43.7 -27.2 42.75 -27.65 43.7 -28.35 44.25 -28.6 44.35 -29.05 42.45 -28.35 40.15 -28.4 37.2 L-28.55 34.7" fill="#fadfcb" fill-rule="evenodd" stroke="none"/>
      <path d="M-7.8 -10.95 Q-7.05 -15.45 -3.7 -18.7 -5.1 -16.0 -5.55 -13.95 -6.2 -11.1 -5.4 -8.6 -4.55 -9.35 -3.15 -9.8 L-0.05 -10.4 Q-0.6 -7.4 0.55 -4.4 2.05 -0.65 5.85 -0.5 0.7 -0.2 -1.65 -3.5 -3.5 -6.1 -2.8 -8.15 -4.45 -7.7 -5.7 -6.7 L-7.35 -4.7 Q-8.35 -7.5 -7.8 -10.95" fill="#fadfcb" fill-rule="evenodd" stroke="none"/>
      <path d="M47.0 -17.75 Q47.9 -15.9 45.25 -13.1 42.8 -10.55 40.75 -10.25 38.65 -9.9 35.0 -11.9 30.9 -14.15 31.95 -16.75 32.85 -18.9 39.45 -19.3 46.05 -19.7 47.0 -17.75" fill="#231f20" fill-rule="evenodd" stroke="none"/>
      <path d="M42.5 -18.35 Q46.9 -18.4 46.0 -17.15 45.1 -15.95 40.9 -15.75 L37.9 -16.05 Q37.0 -16.4 37.2 -16.95 37.8 -18.25 42.5 -18.35" fill="#d0d2d3" fill-rule="evenodd" stroke="none"/>
      <path d="M-8.6 -16.6 Q-7.8 -14.35 -4.8 -11.45 L0.65 -6.5 Q3.65 -3.5 4.4 -0.9 5.4 2.45 3.25 6.15 -0.65 12.8 -8.45 17.9 -15.6 22.6 -23.15 24.2 -25.05 22.2 -24.95 19.4 -24.85 16.75 -23.05 14.3 L-25.45 15.95 Q-25.95 14.5 -26.05 12.6 -26.3 8.7 -24.3 6.25 -25.1 6.5 -25.9 7.3 L-26.55 8.05 Q-27.05 6.05 -26.6 3.2 -25.8 -2.45 -21.25 -6.65 -19.45 -8.3 -19.1 -10.0 -18.9 -11.1 -19.3 -13.0 -19.6 -14.4 -18.15 -15.75 -16.9 -16.9 -14.75 -17.55 L-10.9 -18.0 Q-9.05 -17.8 -8.6 -16.6" fill="#45464b" fill-rule="evenodd" stroke="none"/>
      <path d="M-9.3 -15.65 Q-8.55 -12.9 -5.9 -10.15 L-0.95 -5.6 Q1.8 -2.95 2.55 -0.75 3.6 2.15 1.9 5.6 -0.65 10.75 -9.4 16.35 -17.6 21.65 -22.45 22.15 -23.95 19.6 -22.3 15.85 -20.75 12.3 -17.25 9.4 -19.65 10.4 -22.2 12.15 L-24.25 13.75 Q-24.8 12.05 -24.5 9.65 -23.95 4.9 -19.65 1.7 -21.55 2.1 -23.45 3.65 L-24.95 5.2 Q-25.15 3.65 -24.6 1.4 -23.5 -3.0 -19.7 -6.25 -17.8 -7.9 -17.5 -8.7 -17.2 -9.7 -17.8 -12.55 -18.1 -13.75 -16.95 -14.9 -15.9 -15.95 -14.15 -16.5 -12.45 -17.1 -11.1 -16.9 -9.6 -16.7 -9.3 -15.65" fill="#8f8d9b" fill-rule="evenodd" stroke="none"/>
      <path d="M-4.55 4.8 Q-3.05 5.2 -2.85 6.55 -2.65 7.85 -3.6 9.4 -5.65 12.75 -12.05 16.6 -18.6 20.5 -22.2 20.35 -22.25 15.75 -18.75 12.45 -17.65 11.4 -16.35 10.6 L-15.25 10.05 -15.7 9.6 -17.25 9.4 Q-8.3 3.85 -4.55 4.8" fill="#d8d9e1" fill-rule="evenodd" stroke="none"/>
      <path d="M-7.1 3.6 L-14.25 6.55 Q-18.7 8.45 -22.85 11.2 -22.95 5.85 -19.85 3.4 -18.85 2.6 -17.65 2.2 L-16.65 2.0 -17.15 1.7 -18.75 1.65 Q-9.75 -4.9 -6.45 -1.7 -5.25 -0.55 -5.55 1.25 -5.8 3.0 -7.1 3.6" fill="#d8d9e1" fill-rule="evenodd" stroke="none"/>
      <path d="M-10.9 -3.05 Q-12.6 -3.1 -15.85 -1.85 -20.15 -0.25 -23.9 2.7 -22.6 -1.85 -20.55 -4.1 -17.95 -6.85 -12.8 -7.9 -11.4 -8.15 -10.35 -7.45 -9.45 -6.85 -9.1 -5.75 -8.8 -4.65 -9.2 -3.9 -9.7 -3.0 -10.9 -3.05" fill="#d8d9e1" fill-rule="evenodd" stroke="none"/>
      <path d="M-14.2 -16.5 L-11.15 -16.9 Q-9.65 -16.7 -9.3 -15.65 -11.85 -15.95 -14.45 -13.75 -16.9 -11.7 -17.4 -9.3 L-17.5 -10.7 -17.8 -12.55 Q-18.1 -13.8 -16.95 -14.9 -15.95 -15.95 -14.2 -16.5" fill="#636471" fill-rule="evenodd" stroke="none"/>
    </g>
  </defs>
</svg>
