<?xml version="1.0" encoding="UTF-8" standalone="no"?>
<svg xmlns:ffdec="https://www.free-decompiler.com/flash" xmlns:xlink="http://www.w3.org/1999/xlink" ffdec:objectType="frame" height="157.5px" width="119.45px" xmlns="http://www.w3.org/2000/svg">
  <g transform="matrix(1.0, 0.0, 0.0, 1.0, 73.95, 90.9)">
    <use ffdec:characterId="415" height="105.55" transform="matrix(1.0, 0.0, 0.0, 1.0, -73.95, -57.95)" width="111.0" xlink:href="#shape0"/>
  </g>
  <defs>
    <g id="shape0" transform="matrix(1.0, 0.0, 0.0, 1.0, 73.95, 57.95)">
      <path d="M-41.6 0.3 L-37.65 0.8 Q-33.05 1.75 -29.65 4.0 -18.8 11.25 -24.25 28.95 -29.95 47.35 -45.1 47.1 -54.6 46.95 -66.5 39.65 -72.4 36.05 -73.65 31.8 -74.05 30.5 -73.9 29.25 L-73.7 28.3 Q-61.15 23.0 -50.1 11.1 -44.6 5.2 -41.6 0.3" fill="#361c09" fill-rule="evenodd" stroke="none"/>
      <path d="M-42.4 3.3 L-38.95 3.75 Q-34.9 4.55 -31.95 6.55 -22.5 12.9 -27.3 28.3 -32.25 44.35 -45.45 44.15 -53.75 44.0 -64.15 37.65 -69.3 34.45 -70.0 31.6 -70.2 30.75 -69.95 30.0 L-69.65 29.4 Q-58.7 24.75 -49.45 13.55 -44.8 8.0 -42.4 3.3" fill="#a84a23" fill-rule="evenodd" stroke="none"/>
      <path d="M-45.8 29.25 L-45.85 34.2 Q-46.1 39.25 -46.95 39.55 -42.4 38.1 -41.75 37.3 L-43.2 41.45 -38.45 40.0 Q-33.2 38.1 -30.55 35.75 -36.55 45.4 -48.05 43.95 -55.4 43.0 -64.15 37.65 -69.3 34.45 -70.0 31.6 -70.2 30.75 -69.95 30.0 L-69.65 29.4 Q-62.6 26.4 -56.15 20.55 -61.85 30.65 -60.25 32.55 L-56.65 31.35 Q-52.9 29.9 -51.95 28.95 -53.75 34.45 -54.25 35.1 L-50.55 33.15 Q-46.7 30.85 -45.8 29.25" fill="#572612" fill-rule="evenodd" stroke="none"/>
      <path d="M15.1 33.15 Q19.2 36.5 19.2 41.0 19.2 43.1 16.6 43.95 L10.55 44.35 Q7.0 43.95 3.9 42.65 0.5 41.25 -0.85 39.35 -1.3 37.15 -0.75 34.9 0.35 30.4 5.2 30.1 10.9 29.7 15.1 33.15" fill="#663612" fill-rule="evenodd" stroke="none"/>
      <path d="M-24.5 36.15 Q-23.25 30.75 -17.4 30.4 -10.6 29.9 -5.55 34.05 -0.65 38.0 -0.65 43.45 -0.65 45.95 -3.8 47.0 L-10.9 47.45 Q-15.2 47.0 -19.0 45.4 -22.95 43.7 -24.65 41.45 -25.15 38.85 -24.5 36.15" fill="#663612" fill-rule="evenodd" stroke="none"/>
      <path d="M12.95 33.3 Q16.15 35.95 16.15 39.45 16.15 42.85 9.4 42.1 2.75 41.35 0.4 38.15 0.1 36.45 0.5 34.65 1.35 31.15 5.15 30.9 9.65 30.6 12.95 33.3" fill="#f5af00" fill-rule="evenodd" stroke="none"/>
      <path d="M32.0 -44.55 Q34.2 -39.05 34.2 -31.7 34.2 -28.05 33.75 -25.5 38.05 -17.9 36.75 -5.0 35.4 8.3 28.7 19.7 21.1 32.5 9.1 37.85 -4.8 44.05 -22.45 38.8 -52.2 29.95 -46.2 2.0 -44.35 -6.7 -39.15 -16.25 -36.55 -21.1 -34.3 -24.1 L-29.75 -29.9 Q-29.1 -42.45 -20.65 -50.35 -16.4 -54.3 -12.3 -55.8 2.75 -61.05 18.9 -53.35 26.95 -49.5 32.0 -44.55" fill="#361c09" fill-rule="evenodd" stroke="none"/>
      <path d="M31.5 -25.05 Q35.5 -18.0 34.25 -6.0 33.0 6.4 26.75 17.0 19.7 28.95 8.55 33.9 -4.4 39.65 -20.8 34.8 -48.45 26.55 -42.9 0.55 -41.2 -7.55 -36.35 -16.5 -33.9 -20.95 -31.85 -23.75 L-27.6 -29.15 Q-27.0 -40.85 -19.15 -48.2 -15.2 -51.85 -11.4 -53.2 2.6 -58.15 17.65 -50.95 25.15 -47.35 29.85 -42.75 31.9 -37.6 31.9 -30.8 31.9 -27.4 31.5 -25.05" fill="#c76824" fill-rule="evenodd" stroke="none"/>
      <path d="M-8.8 -44.35 L-3.4 -44.75 1.75 -44.35 Q1.35 -42.95 0.3 -42.0 -0.75 -41.05 -1.95 -40.75 -4.55 -40.25 -6.95 -42.25 L-8.8 -44.35" fill="#000000" fill-rule="evenodd" stroke="none"/>
      <path d="M-0.65 -43.25 Q-0.65 -42.85 -0.95 -42.6 -1.2 -42.35 -1.65 -42.35 L-2.3 -42.6 -2.6 -43.25 -2.3 -43.9 -1.65 -44.15 -0.95 -43.9 -0.65 -43.25" fill="#ffffff" fill-rule="evenodd" stroke="none"/>
      <path d="M23.05 -41.9 L28.45 -43.0 Q29.45 -42.15 28.6 -40.8 27.75 -39.45 26.2 -39.4 24.45 -39.3 23.55 -40.6 L23.05 -41.9" fill="#000000" fill-rule="evenodd" stroke="none"/>
      <path d="M27.6 -41.95 L27.4 -41.5 26.95 -41.35 Q26.7 -41.35 26.5 -41.5 L26.3 -41.95 26.5 -42.35 26.95 -42.5 27.4 -42.35 27.6 -41.95" fill="#ffffff" fill-rule="evenodd" stroke="none"/>
      <path d="M9.4 -46.2 L24.25 -44.15 Q30.95 -43.0 29.85 -42.75 L25.3 -42.05 Q22.6 -41.45 22.4 -39.6 L14.75 -40.35 Q7.5 -40.6 6.15 -40.25 6.15 -40.6 5.2 -41.55 L4.2 -42.45 Q2.05 -44.05 -6.25 -44.1 L-14.15 -43.9 Q-13.1 -48.45 9.4 -46.2" fill="#4a200f" fill-rule="evenodd" stroke="none"/>
      <path d="M-27.6 -29.15 L-27.5 -30.15 Q-12.25 -31.35 -5.35 -23.45 5.3 -11.2 -7.8 20.55 L-8.6 22.8 Q-9.25 25.5 -8.25 27.55 -5.2 34.1 12.6 31.8 6.5 35.6 -1.1 36.6 -10.35 37.9 -20.8 34.8 -48.45 26.55 -42.9 0.55 -41.2 -7.55 -36.35 -16.5 -33.9 -20.95 -31.85 -23.75 L-27.6 -29.15" fill="#8a4d21" fill-rule="evenodd" stroke="none"/>
      <path d="M14.05 -52.5 Q22.65 -49.2 29.85 -42.75 L25.4 -42.4 Q22.6 -42.15 22.05 -41.2 L18.3 -40.75 7.45 -41.5 6.4 -42.8 Q5.1 -44.15 3.9 -44.35 L-6.35 -44.95 Q-15.5 -44.7 -17.55 -41.5 L-14.9 -41.6 Q-12.35 -41.45 -12.7 -40.55 -12.8 -39.95 -14.45 -39.3 L-18.35 -37.9 Q-24.6 -35.5 -27.4 -31.65 -26.05 -42.05 -18.6 -48.7 -14.85 -52.0 -11.4 -53.2 0.95 -57.55 14.05 -52.5" fill="#a84a23" fill-rule="evenodd" stroke="none"/>
      <path d="M31.5 -25.05 Q34.4 -19.5 34.55 -11.55 34.65 -3.85 32.15 4.35 29.65 12.7 25.0 19.6 20.05 26.95 13.6 31.15 L6.3 30.65 Q3.15 29.9 1.45 28.0 -3.15 22.7 -2.35 16.5 -2.0 13.8 1.3 5.65 2.65 2.3 2.5 -1.65 2.3 -5.3 0.9 -8.95 0.1 -11.0 -2.5 -14.7 -5.05 -18.45 -5.85 -20.5 -8.4 -27.2 -1.4 -30.4 4.2 -33.0 11.8 -32.3 23.7 -31.2 30.75 -28.15 L31.75 -27.65 31.5 -25.05" fill="#e88946" fill-rule="evenodd" stroke="none"/>
      <path d="M11.85 -33.2 Q22.15 -33.8 22.8 -27.65 23.4 -21.5 21.3 -17.55 20.2 -15.6 19.05 -14.8 14.0 -14.65 7.3 -23.0 5.25 -25.65 3.25 -28.8 L1.65 -31.45 4.8 -32.25 11.85 -33.2" fill="#ad6634" fill-rule="evenodd" stroke="none"/>
      <path d="M20.85 -11.5 Q23.55 -4.95 21.15 -1.5 20.05 -2.95 18.7 -3.7 L17.55 -4.2 19.2 -1.65 Q20.65 1.6 19.85 4.8 19.45 2.7 18.2 1.65 L17.05 1.0 17.35 3.65 Q17.05 7.1 14.2 11.0 16.15 5.45 15.2 0.95 L14.35 -1.6 13.8 -2.45 17.1 -1.25 16.35 -3.85 Q15.15 -6.55 12.9 -7.3 L18.45 -6.45 20.2 -5.65 Q20.5 -6.85 20.35 -8.9 20.0 -13.05 17.6 -17.3 L18.7 -15.6 20.85 -11.5" fill="#96341e" fill-rule="evenodd" stroke="none"/>
      <path d="M-21.75 35.45 Q-20.75 31.2 -16.2 30.95 -10.85 30.6 -6.85 33.8 -3.05 36.95 -3.05 41.2 -3.05 43.2 -5.45 44.0 L-11.1 44.35 Q-14.45 43.95 -17.4 42.75 -20.55 41.4 -21.85 39.65 -22.25 37.55 -21.75 35.45" fill="#f5af00" fill-rule="evenodd" stroke="none"/>
      <path d="M-7.6 44.9 Q-7.2 43.65 -7.1 42.05 -6.85 38.9 -8.25 37.3 L-6.65 38.2 Q-5.05 39.75 -4.75 43.0 -4.5 46.3 -6.0 45.95 L-7.6 44.9" fill="#663612" fill-rule="evenodd" stroke="none"/>
      <path d="M12.8 42.4 L13.2 40.3 Q13.35 37.9 12.3 36.7 L13.55 37.4 Q14.75 38.5 14.95 41.0 15.15 43.5 14.0 43.2 L12.8 42.4" fill="#663612" fill-rule="evenodd" stroke="none"/>
      <path d="M33.1 -28.8 Q32.75 -24.65 30.95 -21.95 29.4 -19.65 27.35 -19.65 L26.95 -19.65 Q25.95 -19.8 24.2 -21.3 21.95 -19.8 20.2 -19.8 L18.7 -20.05 18.2 -20.3 Q8.35 -24.9 4.75 -28.45 2.7 -28.6 0.5 -30.15 L-1.4 -31.45 -0.35 -31.85 Q0.95 -32.4 2.05 -33.25 5.65 -35.9 6.4 -40.15 9.3 -42.0 12.3 -42.65 L18.15 -43.2 Q23.0 -43.2 26.85 -41.4 30.6 -39.65 31.85 -36.9 33.5 -33.25 33.1 -28.8" fill="#2e3538" fill-rule="evenodd" stroke="none"/>
      <path d="M30.35 -36.25 Q32.3 -31.5 30.95 -26.1 29.6 -20.9 27.15 -21.2 L25.5 -22.3 24.35 -23.35 22.5 -22.15 Q20.5 -21.0 19.45 -21.5 L13.05 -24.65 Q7.55 -27.65 5.45 -30.0 L4.35 -30.05 Q2.95 -30.35 1.45 -31.4 L4.6 -33.4 Q7.85 -36.1 8.25 -39.8 8.8 -40.95 11.8 -41.8 L18.45 -42.6 Q27.85 -42.35 30.35 -36.25" fill="#98abb8" fill-rule="evenodd" stroke="none"/>
      <path d="M23.3 -36.7 Q25.25 -36.9 27.7 -35.55 30.1 -34.25 31.4 -32.4 31.95 -28.2 30.5 -24.55 29.1 -20.95 27.15 -21.2 L25.5 -22.3 24.35 -23.35 22.5 -22.15 Q20.5 -21.0 19.45 -21.5 L15.75 -23.25 Q15.4 -23.65 16.2 -23.9 L17.9 -24.4 Q20.0 -25.4 16.5 -28.85 19.35 -29.55 20.55 -31.0 21.5 -32.25 23.3 -36.7" fill="#566066" fill-rule="evenodd" stroke="none"/>
      <path d="M18.3 -27.15 L16.95 -28.55 Q15.85 -29.65 14.65 -30.25 L5.45 -30.0 5.35 -30.0 Q8.8 -31.9 12.25 -31.7 14.9 -31.55 16.7 -30.35 18.95 -28.8 24.35 -23.35 23.55 -23.6 22.4 -24.2 20.1 -25.4 18.3 -27.15" fill="#131617" fill-rule="evenodd" stroke="none"/>
      <path d="M13.15 -39.35 L14.1 -39.8 Q15.1 -40.15 15.75 -39.8 17.15 -38.8 17.25 -37.7 17.35 -36.6 13.15 -39.35" fill="#131617" fill-rule="evenodd" stroke="none"/>
      <path d="M22.55 -40.25 L23.3 -40.35 Q24.15 -40.35 24.45 -39.9 25.1 -38.85 24.9 -38.1 24.7 -37.25 22.55 -40.25" fill="#131617" fill-rule="evenodd" stroke="none"/>
      <path d="M-6.1 -30.7 Q9.25 -34.55 11.85 -28.6 14.9 -21.75 10.4 0.65 8.55 9.85 6.2 16.55 3.75 23.7 1.95 24.6 -0.25 25.65 -7.05 24.05 -14.65 22.2 -20.55 18.35 -27.95 13.45 -30.0 6.85 -32.45 -1.1 -26.65 -10.8 -24.5 -14.35 -25.55 -15.85 -25.95 -16.4 -28.2 -17.3 -29.65 -17.85 -28.65 -19.2 -27.25 -21.0 -20.9 -25.6 L-16.4 -27.4 Q-10.9 -29.45 -6.1 -30.7" fill="#361c09" fill-rule="evenodd" stroke="none"/>
      <path d="M-15.0 -25.95 Q-10.25 -27.7 -6.1 -28.75 7.1 -32.05 9.35 -26.95 11.95 -21.05 8.05 -1.75 6.5 6.2 4.5 12.0 2.4 18.15 0.8 18.95 -1.1 19.9 -6.95 18.45 -13.5 16.9 -18.6 13.5 -24.95 9.35 -26.7 3.65 -28.85 -3.25 -23.8 -11.6 -21.95 -14.65 -22.85 -15.9 -23.2 -16.4 -25.2 -17.15 -26.45 -17.65 -25.55 -18.85 -24.35 -20.4 -18.9 -24.4 L-15.0 -25.95" fill="#a84a23" fill-rule="evenodd" stroke="none"/>
      <path d="M-1.3 2.05 L0.4 4.2 Q1.85 6.85 0.3 9.6 -1.25 12.55 2.05 8.0 5.25 3.6 8.1 -1.85 6.5 6.1 4.5 11.95 2.4 18.15 0.8 18.95 L-3.8 19.05 Q-7.4 18.6 -11.35 17.1 -21.7 13.3 -25.55 6.4 -20.45 10.25 -15.9 12.05 -9.9 14.35 -5.25 12.9 -7.05 12.4 -8.7 11.5 -11.9 9.8 -10.95 7.95 L-8.35 7.8 Q-5.35 8.05 -3.45 9.8 L-2.2 6.8 Q-1.05 3.5 -1.3 2.05" fill="#572612" fill-rule="evenodd" stroke="none"/>
    </g>
  </defs>
</svg>
