<?xml version="1.0" encoding="UTF-8" standalone="no"?>
<svg xmlns:ffdec="https://www.free-decompiler.com/flash" xmlns:xlink="http://www.w3.org/1999/xlink" ffdec:objectType="frame" height="157.5px" width="119.45px" xmlns="http://www.w3.org/2000/svg">
  <g transform="matrix(1.0, 0.0, 0.0, 1.0, 73.95, 90.9)">
    <use ffdec:characterId="416" height="138.35" transform="matrix(1.0, 0.0, 0.0, 1.0, -73.95, -90.9)" width="111.0" xlink:href="#shape0"/>
  </g>
  <defs>
    <g id="shape0" transform="matrix(1.0, 0.0, 0.0, 1.0, 73.95, 90.9)">
      <path d="M-5.45 -57.05 Q-8.15 -79.0 -2.85 -87.15 -0.2 -91.2 3.0 -90.9 38.7 -67.5 34.45 -43.55 33.1 -36.05 27.95 -29.45 25.35 -26.15 23.05 -24.3 21.85 -23.0 18.05 -23.3 13.65 -23.65 9.4 -26.45 -2.75 -34.45 -5.45 -57.05" fill="#361c09" fill-rule="evenodd" stroke="none"/>
      <path d="M-1.2 -83.6 Q0.95 -87.4 3.6 -87.15 35.6 -64.9 32.05 -43.1 30.95 -36.3 26.4 -30.35 24.1 -27.4 22.05 -25.8 20.95 -24.6 17.7 -24.85 13.8 -25.1 10.05 -27.65 -0.6 -34.9 -3.1 -55.75 -5.55 -76.0 -1.2 -83.6" fill="#5e2a13" fill-rule="evenodd" stroke="none"/>
      <path d="M9.1 -69.1 L6.25 -73.35 4.95 -75.05 Q4.8 -72.5 3.8 -70.05 L2.9 -68.1 Q1.85 -68.95 1.6 -72.75 L1.55 -76.45 Q-0.35 -73.1 -2.95 -54.75 L-3.1 -55.75 Q-5.55 -76.0 -1.2 -83.6 0.95 -87.4 3.6 -87.15 14.15 -79.8 20.65 -72.65 16.1 -75.7 11.15 -78.15 L7.05 -79.95 Q8.35 -78.6 8.85 -73.7 L9.1 -69.1" fill="#3d1c0d" fill-rule="evenodd" stroke="none"/>
      <path d="M-41.6 0.15 L-37.65 0.65 Q-33.05 1.6 -29.65 3.9 -18.8 11.15 -24.25 28.8 -29.95 47.2 -45.1 46.95 -54.6 46.8 -66.5 39.5 -72.4 35.9 -73.65 31.65 -74.05 30.35 -73.9 29.1 L-73.7 28.15 Q-61.1 22.8 -50.1 10.95 -46.65 7.25 -43.75 3.3 L-41.6 0.15" fill="#361c09" fill-rule="evenodd" stroke="none"/>
      <path d="M-70.0 31.5 Q-70.2 30.6 -69.9 29.85 L-69.65 29.25 Q-58.65 24.6 -49.4 13.4 -46.5 9.9 -44.15 6.2 L-42.35 3.15 -38.9 3.6 Q-34.9 4.4 -31.95 6.4 -22.5 12.75 -27.25 28.15 -32.25 44.2 -45.45 44.0 -53.7 43.85 -64.1 37.5 -69.25 34.35 -70.0 31.5" fill="#a84a23" fill-rule="evenodd" stroke="none"/>
      <path d="M-70.0 31.5 Q-70.2 30.6 -69.9 29.85 L-69.65 29.25 Q-62.55 26.25 -56.15 20.45 -61.85 30.55 -60.2 32.45 L-56.6 31.2 Q-52.85 29.75 -51.95 28.8 -53.7 34.35 -54.2 34.95 -52.45 34.15 -50.55 33.0 -46.65 30.7 -45.75 29.1 L-45.85 34.1 Q-46.1 39.1 -46.9 39.4 -42.35 37.95 -41.7 37.2 L-43.15 41.3 -38.45 39.85 Q-33.2 37.95 -30.55 35.55 -36.55 45.3 -48.05 43.8 -55.4 42.85 -64.1 37.5 -69.25 34.35 -70.0 31.5" fill="#572612" fill-rule="evenodd" stroke="none"/>
      <path d="M15.1 33.0 Q19.2 36.35 19.2 40.9 19.2 42.95 16.6 43.85 L10.55 44.2 Q7.0 43.85 3.9 42.5 0.5 41.1 -0.85 39.2 -1.3 37.0 -0.75 34.75 0.35 30.25 5.2 29.95 10.9 29.55 15.1 33.0" fill="#663612" fill-rule="evenodd" stroke="none"/>
      <path d="M-5.55 33.9 Q-0.65 37.9 -0.65 43.3 -0.65 45.8 -3.8 46.85 L-10.9 47.3 Q-15.2 46.8 -19.0 45.2 -22.95 43.55 -24.65 41.3 -25.15 38.65 -24.5 36.0 -23.25 30.6 -17.4 30.2 -10.6 29.75 -5.55 33.9" fill="#663612" fill-rule="evenodd" stroke="none"/>
      <path d="M12.95 33.15 Q16.15 35.8 16.15 39.35 16.15 42.7 9.4 41.95 2.75 41.2 0.4 38.0 0.1 36.3 0.5 34.5 1.35 31.0 5.15 30.7 9.65 30.45 12.95 33.15" fill="#f5af00" fill-rule="evenodd" stroke="none"/>
      <path d="M32.0 -44.7 Q34.2 -39.15 34.2 -31.85 34.2 -28.2 33.75 -25.65 38.05 -18.05 36.75 -5.15 35.4 8.2 28.7 19.55 21.1 32.35 9.1 37.7 -4.8 43.9 -22.4 38.65 -52.2 29.8 -46.2 1.9 -44.35 -6.85 -39.15 -16.45 L-34.3 -24.3 -31.0 -28.45 -29.75 -30.05 Q-29.1 -42.6 -20.65 -50.5 -16.4 -54.45 -12.3 -55.9 2.75 -61.25 18.9 -53.5 26.95 -49.6 32.0 -44.7" fill="#361c09" fill-rule="evenodd" stroke="none"/>
      <path d="M31.5 -25.2 Q35.5 -18.1 34.3 -6.15 33.05 6.3 26.8 16.85 19.75 28.8 8.6 33.75 -4.35 39.5 -20.75 34.65 -48.45 26.4 -42.9 0.45 -41.15 -7.7 -36.3 -16.65 L-31.8 -23.9 -28.7 -27.8 -27.6 -29.3 Q-26.95 -41.0 -19.1 -48.3 -15.15 -52.0 -11.35 -53.35 2.65 -58.3 17.7 -51.1 25.2 -47.5 29.9 -42.9 31.95 -37.75 31.95 -30.95 31.95 -27.55 31.5 -25.2" fill="#c76824" fill-rule="evenodd" stroke="none"/>
      <path d="M-8.8 -44.5 L-3.4 -44.9 1.75 -44.5 Q1.35 -43.1 0.3 -42.1 -0.75 -41.15 -1.95 -40.9 -4.55 -40.4 -6.95 -42.4 L-8.8 -44.5" fill="#000000" fill-rule="evenodd" stroke="none"/>
      <path d="M-0.65 -43.4 Q-0.65 -43.05 -0.95 -42.75 -1.2 -42.5 -1.65 -42.5 L-2.3 -42.75 -2.6 -43.4 -2.3 -44.0 -1.65 -44.3 -0.95 -44.0 Q-0.65 -43.75 -0.65 -43.4" fill="#ffffff" fill-rule="evenodd" stroke="none"/>
      <path d="M23.05 -42.1 L28.45 -43.15 Q29.45 -42.35 28.6 -41.0 27.75 -39.6 26.2 -39.55 24.45 -39.45 23.55 -40.75 L23.05 -42.1" fill="#000000" fill-rule="evenodd" stroke="none"/>
      <path d="M27.6 -42.1 L27.4 -41.7 26.95 -41.5 Q26.7 -41.5 26.5 -41.7 L26.3 -42.1 26.5 -42.5 26.95 -42.7 27.4 -42.5 27.6 -42.1" fill="#ffffff" fill-rule="evenodd" stroke="none"/>
      <path d="M4.25 -42.6 Q2.1 -44.2 -6.2 -44.25 L-14.1 -44.0 Q-13.05 -48.6 9.45 -46.35 L24.25 -44.3 Q30.95 -43.15 29.9 -42.9 L25.35 -42.25 Q22.6 -41.6 22.4 -39.75 L14.8 -40.45 Q7.55 -40.75 6.2 -40.4 6.2 -40.75 5.2 -41.7 L4.25 -42.6" fill="#4a200f" fill-rule="evenodd" stroke="none"/>
      <path d="M-27.6 -29.3 L-27.5 -30.3 Q-12.25 -31.5 -5.35 -23.6 5.3 -11.4 -7.75 20.4 L-8.6 22.7 Q-9.2 25.35 -8.25 27.4 -5.2 33.95 12.6 31.65 6.5 35.45 -1.1 36.5 -10.35 37.75 -20.75 34.65 -48.45 26.4 -42.9 0.45 -41.15 -7.7 -36.3 -16.65 L-31.8 -23.9 -28.7 -27.8 -27.6 -29.3" fill="#8a4d21" fill-rule="evenodd" stroke="none"/>
      <path d="M-12.65 -40.7 Q-12.75 -40.1 -14.4 -39.45 L-18.35 -38.05 Q-24.6 -35.7 -27.35 -31.75 -26.0 -42.2 -18.55 -48.85 -14.8 -52.1 -11.35 -53.35 0.95 -57.7 14.05 -52.65 22.6 -49.35 29.9 -42.9 L25.4 -42.55 Q22.65 -42.3 22.1 -41.35 L18.35 -40.9 7.5 -41.65 6.45 -42.95 Q5.15 -44.3 3.9 -44.5 L-6.3 -45.1 Q-15.45 -44.85 -17.5 -41.65 L-14.9 -41.75 Q-12.35 -41.65 -12.65 -40.7" fill="#a84a23" fill-rule="evenodd" stroke="none"/>
      <path d="M31.75 -27.8 L31.5 -25.2 Q34.45 -19.65 34.55 -11.7 34.7 -4.0 32.2 4.25 29.65 12.6 25.0 19.45 20.1 26.85 13.65 31.0 4.65 31.5 1.5 27.85 -3.15 22.55 -2.35 16.4 -2.0 13.75 1.3 5.5 2.65 2.15 2.5 -1.8 2.3 -5.45 0.9 -9.1 0.1 -11.15 -2.5 -14.85 -5.05 -18.55 -5.85 -20.65 -8.4 -27.35 -1.4 -30.55 4.25 -33.15 11.8 -32.45 23.7 -31.35 30.75 -28.3 L31.75 -27.8" fill="#e88946" fill-rule="evenodd" stroke="none"/>
      <path d="M1.65 -31.6 L4.8 -32.35 11.85 -33.35 Q22.15 -33.9 22.8 -27.8 23.4 -21.65 21.3 -17.7 20.2 -15.7 19.05 -14.95 14.0 -14.75 7.3 -23.15 5.25 -25.8 3.25 -28.95 L1.65 -31.6" fill="#ad6634" fill-rule="evenodd" stroke="none"/>
      <path d="M12.9 -7.45 Q16.1 -7.35 18.45 -6.55 L20.2 -5.8 Q20.5 -7.0 20.35 -9.05 20.0 -13.2 17.6 -17.45 L18.7 -15.8 20.85 -11.65 Q23.55 -5.1 21.15 -1.65 20.05 -3.1 18.7 -3.85 L17.55 -4.35 19.2 -1.8 Q20.65 1.4 19.85 4.65 19.45 2.55 18.2 1.5 L17.05 0.85 17.35 3.55 Q17.05 7.0 14.2 10.85 16.2 5.3 15.2 0.8 L14.35 -1.75 13.85 -2.6 17.15 -1.4 16.4 -3.95 Q15.15 -6.7 12.9 -7.45" fill="#96341e" fill-rule="evenodd" stroke="none"/>
      <path d="M-6.85 33.65 Q-3.05 36.8 -3.05 41.05 -3.05 43.05 -5.45 43.85 L-11.1 44.2 Q-14.45 43.85 -17.4 42.6 -20.55 41.25 -21.85 39.5 -22.25 37.45 -21.75 35.3 -20.75 31.05 -16.2 30.8 -10.85 30.45 -6.85 33.65" fill="#f5af00" fill-rule="evenodd" stroke="none"/>
      <path d="M-7.6 44.8 Q-7.2 43.5 -7.1 41.95 -6.85 38.75 -8.25 37.2 L-6.65 38.05 Q-5.0 39.6 -4.75 42.9 -4.5 46.15 -6.0 45.8 L-7.6 44.8" fill="#663612" fill-rule="evenodd" stroke="none"/>
      <path d="M12.85 42.3 L13.2 40.1 Q13.35 37.75 12.35 36.55 L13.55 37.2 Q14.75 38.35 14.95 40.85 15.15 43.3 14.0 43.05 L12.85 42.3" fill="#663612" fill-rule="evenodd" stroke="none"/>
      <path d="M33.1 -28.9 Q32.75 -24.75 30.95 -22.1 29.4 -19.75 27.35 -19.75 L26.95 -19.8 Q26.05 -19.9 24.25 -21.45 21.9 -19.95 20.2 -19.95 L18.7 -20.25 18.2 -20.45 Q8.2 -25.15 4.8 -28.55 2.75 -28.7 0.5 -30.3 L-1.4 -31.6 Q-0.85 -31.75 -0.35 -32.0 0.95 -32.55 2.05 -33.4 5.65 -36.05 6.4 -40.3 9.3 -42.1 12.3 -42.8 L18.2 -43.3 Q23.0 -43.3 26.85 -41.5 30.6 -39.8 31.85 -37.05 33.5 -33.4 33.1 -28.9" fill="#2e3538" fill-rule="evenodd" stroke="none"/>
      <path d="M1.45 -31.55 L4.6 -33.55 Q7.85 -36.25 8.25 -39.95 8.8 -41.1 11.8 -41.95 14.9 -42.8 18.45 -42.7 27.9 -42.5 30.35 -36.4 32.3 -31.65 30.95 -26.25 29.6 -21.05 27.15 -21.35 L25.5 -22.45 24.35 -23.5 22.5 -22.25 Q20.5 -21.15 19.45 -21.65 15.15 -23.65 13.05 -24.8 7.55 -27.8 5.45 -30.15 L4.35 -30.2 Q2.95 -30.5 1.45 -31.55" fill="#98abb8" fill-rule="evenodd" stroke="none"/>
      <path d="M23.3 -36.85 Q25.25 -37.05 27.7 -35.7 30.1 -34.45 31.4 -32.55 31.95 -28.35 30.5 -24.7 29.1 -21.15 27.15 -21.35 L25.5 -22.45 24.35 -23.5 22.5 -22.25 Q20.5 -21.15 19.45 -21.65 L15.75 -23.4 Q15.4 -23.8 16.2 -24.05 L17.9 -24.55 Q20.0 -25.6 16.5 -29.05 19.35 -29.75 20.55 -31.2 21.5 -32.35 23.3 -36.85" fill="#566066" fill-rule="evenodd" stroke="none"/>
      <path d="M16.95 -28.7 L14.65 -30.35 Q11.0 -32.15 5.45 -30.15 L5.35 -30.15 Q8.8 -32.05 12.25 -31.85 14.9 -31.7 16.7 -30.45 18.95 -28.9 24.35 -23.5 23.55 -23.75 22.4 -24.35 20.1 -25.55 18.3 -27.25 L16.95 -28.7" fill="#131617" fill-rule="evenodd" stroke="none"/>
      <path d="M13.15 -39.5 L14.1 -39.95 Q15.1 -40.35 15.75 -39.95 17.15 -39.0 17.25 -37.85 17.35 -36.75 13.15 -39.5" fill="#131617" fill-rule="evenodd" stroke="none"/>
      <path d="M22.55 -40.4 L23.3 -40.45 Q24.15 -40.45 24.45 -40.05 25.1 -39.0 24.9 -38.2 24.7 -37.4 22.55 -40.4" fill="#131617" fill-rule="evenodd" stroke="none"/>
      <path d="M-71.65 -81.8 Q-71.0 -85.4 -69.0 -87.3 -68.05 -88.25 -67.15 -88.45 -20.0 -74.25 -14.25 -44.4 -12.45 -35.05 -15.0 -25.3 -16.3 -20.35 -17.95 -17.35 -18.65 -15.4 -22.7 -14.3 -27.45 -13.05 -33.05 -14.75 -49.15 -19.65 -61.6 -45.3 -73.7 -70.2 -71.65 -81.8" fill="#361c09" fill-rule="evenodd" stroke="none"/>
      <path d="M-67.8 -77.6 Q-67.4 -80.95 -65.85 -82.6 -65.0 -83.45 -64.3 -83.6 -21.5 -69.35 -15.9 -42.3 -14.15 -33.85 -16.4 -25.15 -17.45 -20.8 -18.9 -18.1 -19.55 -16.3 -23.05 -15.35 -27.25 -14.2 -32.25 -15.8 -46.45 -20.35 -57.9 -44.0 -69.1 -67.0 -67.8 -77.6" fill="#a84a23" fill-rule="evenodd" stroke="none"/>
      <path d="M-28.1 -63.5 Q-35.35 -68.35 -44.05 -72.4 L-51.3 -75.5 Q-48.65 -74.05 -47.1 -68.3 -46.3 -65.4 -46.1 -62.85 -48.7 -66.1 -52.15 -67.55 L-55.0 -68.4 Q-53.7 -66.2 -51.3 -57.95 -54.1 -59.1 -58.1 -63.65 L-61.5 -67.9 Q-63.35 -64.95 -61.0 -50.65 -69.35 -69.7 -67.65 -78.55 -66.8 -83.0 -64.3 -83.6 -40.55 -75.7 -28.1 -63.5" fill="#572612" fill-rule="evenodd" stroke="none"/>
    </g>
  </defs>
</svg>
