<?xml version="1.0" encoding="UTF-8" standalone="no"?>
<svg xmlns:ffdec="https://www.free-decompiler.com/flash" xmlns:xlink="http://www.w3.org/1999/xlink" ffdec:objectType="frame" height="157.5px" width="119.45px" xmlns="http://www.w3.org/2000/svg">
  <g transform="matrix(1.0, 0.0, 0.0, 1.0, 73.95, 90.9)">
    <use ffdec:characterId="417" height="115.75" transform="matrix(1.0, 0.0, 0.0, 1.0, -73.95, -67.95)" width="119.45" xlink:href="#shape0"/>
  </g>
  <defs>
    <g id="shape0" transform="matrix(1.0, 0.0, 0.0, 1.0, 73.95, 67.95)">
      <path d="M44.35 -25.85 Q42.1 -20.6 35.55 -16.8 33.5 -15.6 31.25 -14.7 L29.45 -14.05 Q27.95 -13.35 23.7 -14.4 18.7 -15.6 14.15 -18.6 1.1 -27.15 0.3 -44.45 -0.55 -61.3 6.3 -66.2 9.75 -68.65 13.3 -67.7 51.65 -42.65 44.35 -25.85" fill="#361c09" fill-rule="evenodd" stroke="none"/>
      <path d="M41.6 -26.0 Q39.65 -21.25 33.85 -17.8 32.05 -16.75 30.1 -15.95 L28.5 -15.35 23.4 -15.55 Q19.0 -16.65 15.0 -19.35 3.6 -27.05 2.8 -43.0 2.05 -58.55 7.8 -63.25 10.65 -65.6 13.6 -64.85 47.8 -41.35 41.6 -26.0" fill="#5e2a13" fill-rule="evenodd" stroke="none"/>
      <path d="M13.95 -55.6 Q13.5 -53.7 12.15 -52.05 L10.85 -50.85 Q9.75 -51.7 9.85 -54.6 L10.2 -57.35 Q7.7 -55.25 2.9 -42.25 L2.8 -43.0 Q2.05 -58.55 7.8 -63.25 10.65 -65.6 13.6 -64.85 24.65 -57.3 31.6 -50.35 26.75 -53.65 21.3 -56.5 L16.85 -58.7 Q18.15 -57.45 18.25 -53.7 L18.05 -50.25 15.25 -54.05 13.95 -55.6" fill="#3d1c0d" fill-rule="evenodd" stroke="none"/>
      <path d="M-41.6 0.5 L-37.65 1.0 Q-33.05 1.95 -29.65 4.25 -18.8 11.5 -24.25 29.2 -29.95 47.6 -45.1 47.35 -54.65 47.15 -66.5 39.9 -72.4 36.3 -73.65 32.05 -74.05 30.7 -73.9 29.45 L-73.7 28.5 Q-61.15 23.15 -50.1 11.3 -44.6 5.4 -41.6 0.5" fill="#361c09" fill-rule="evenodd" stroke="none"/>
      <path d="M-42.4 3.5 L-38.95 3.95 Q-34.9 4.8 -31.95 6.8 -22.5 13.1 -27.3 28.5 -32.25 44.55 -45.45 44.35 -53.75 44.25 -64.15 37.85 -69.3 34.7 -70.0 31.85 -70.2 30.95 -69.95 30.2 L-69.65 29.65 Q-58.7 25.0 -49.45 13.75 -46.55 10.3 -44.15 6.55 L-42.4 3.5" fill="#a84a23" fill-rule="evenodd" stroke="none"/>
      <path d="M-48.05 44.15 Q-55.4 43.2 -64.15 37.85 -69.3 34.7 -70.0 31.85 -70.2 30.95 -69.95 30.2 L-69.65 29.65 Q-62.6 26.6 -56.15 20.8 -61.85 30.9 -60.25 32.8 L-56.65 31.55 Q-52.9 30.15 -51.95 29.15 -53.75 34.7 -54.25 35.35 L-50.55 33.35 Q-46.7 31.05 -45.8 29.45 L-45.85 34.45 Q-46.1 39.5 -46.95 39.75 -42.4 38.35 -41.75 37.55 L-43.2 41.65 -38.5 40.25 Q-33.25 38.35 -30.55 35.95 -36.55 45.65 -48.05 44.15" fill="#572612" fill-rule="evenodd" stroke="none"/>
      <path d="M-0.85 39.55 Q-1.3 37.4 -0.75 35.15 0.35 30.6 5.2 30.3 10.85 29.9 15.1 33.35 19.2 36.7 19.2 41.25 19.2 43.35 16.6 44.2 L10.55 44.55 Q7.0 44.2 3.9 42.85 0.5 41.45 -0.85 39.55" fill="#663612" fill-rule="evenodd" stroke="none"/>
      <path d="M-24.55 36.35 Q-23.25 30.95 -17.4 30.6 -10.6 30.15 -5.55 34.25 -0.7 38.25 -0.7 43.7 -0.7 46.2 -3.8 47.2 L-10.95 47.65 Q-15.25 47.15 -19.0 45.6 -23.0 43.9 -24.65 41.65 -25.2 39.05 -24.55 36.35" fill="#663612" fill-rule="evenodd" stroke="none"/>
      <path d="M0.5 34.9 Q1.35 31.35 5.15 31.1 9.65 30.8 12.95 33.55 16.15 36.15 16.15 39.7 16.15 43.05 9.4 42.35 2.75 41.55 0.4 38.35 0.1 36.65 0.5 34.9" fill="#f5af00" fill-rule="evenodd" stroke="none"/>
      <path d="M34.2 -31.5 Q34.2 -27.8 33.75 -25.3 38.05 -17.7 36.75 -4.8 35.4 8.55 28.7 19.9 21.1 32.75 9.1 38.1 -4.8 44.3 -22.45 39.05 -52.2 30.15 -46.2 2.25 -44.35 -6.5 -39.15 -16.1 L-34.3 -23.95 -29.75 -29.7 Q-29.1 -42.25 -20.65 -50.15 -16.4 -54.1 -12.3 -55.55 2.7 -60.85 18.85 -53.1 26.95 -49.25 32.0 -44.3 34.2 -38.8 34.2 -31.5" fill="#361c09" fill-rule="evenodd" stroke="none"/>
      <path d="M31.9 -30.6 Q31.9 -27.2 31.5 -24.8 35.5 -17.75 34.25 -5.75 33.0 6.65 26.75 17.2 19.7 29.15 8.55 34.15 -4.4 39.9 -20.8 35.0 -48.45 26.75 -42.9 0.8 -41.2 -7.35 -36.35 -16.25 L-31.85 -23.55 -27.6 -28.95 Q-27.0 -40.6 -19.15 -47.95 -15.2 -51.65 -11.4 -53.0 2.6 -57.95 17.65 -50.75 25.15 -47.15 29.85 -42.55 31.9 -37.4 31.9 -30.6" fill="#c76824" fill-rule="evenodd" stroke="none"/>
      <path d="M-8.8 -44.15 L-3.4 -44.55 1.7 -44.15 Q1.3 -42.75 0.3 -41.75 -0.75 -40.8 -1.95 -40.55 -4.55 -40.05 -6.95 -42.05 L-8.8 -44.15" fill="#000000" fill-rule="evenodd" stroke="none"/>
      <path d="M-0.65 -43.0 Q-0.65 -42.65 -0.95 -42.4 -1.2 -42.15 -1.65 -42.15 L-2.3 -42.4 -2.6 -43.0 -2.3 -43.65 -1.65 -43.95 -0.95 -43.65 Q-0.65 -43.4 -0.65 -43.0" fill="#ffffff" fill-rule="evenodd" stroke="none"/>
      <path d="M23.05 -41.7 L28.45 -42.75 Q29.45 -41.95 28.6 -40.6 27.7 -39.2 26.2 -39.2 24.45 -39.1 23.55 -40.4 L23.05 -41.7" fill="#000000" fill-rule="evenodd" stroke="none"/>
      <path d="M27.6 -41.7 L27.4 -41.3 26.95 -41.1 Q26.7 -41.1 26.5 -41.3 L26.3 -41.7 26.5 -42.15 26.95 -42.3 27.4 -42.15 27.6 -41.7" fill="#ffffff" fill-rule="evenodd" stroke="none"/>
      <path d="M9.4 -45.95 L24.25 -43.95 Q30.95 -42.75 29.85 -42.55 L25.3 -41.9 Q22.6 -41.25 22.4 -39.4 L14.75 -40.1 Q7.5 -40.35 6.15 -40.0 L5.2 -41.35 4.2 -42.25 Q2.05 -43.8 -6.25 -43.85 L-14.15 -43.65 Q-13.1 -48.2 9.4 -45.95" fill="#4a200f" fill-rule="evenodd" stroke="none"/>
      <path d="M-36.35 -16.25 L-31.85 -23.55 -27.6 -28.95 -27.5 -29.95 Q-12.25 -31.15 -5.35 -23.25 5.3 -11.0 -7.8 20.75 L-8.6 23.05 Q-9.25 25.75 -8.25 27.75 -5.2 34.3 12.6 32.0 6.5 35.85 -1.1 36.85 -10.35 38.1 -20.8 35.0 -48.45 26.75 -42.9 0.8 -41.2 -7.35 -36.35 -16.25" fill="#8a4d21" fill-rule="evenodd" stroke="none"/>
      <path d="M14.05 -52.3 Q22.6 -49.0 29.85 -42.55 L25.4 -42.2 Q22.6 -41.95 22.05 -40.95 L18.3 -40.5 7.45 -41.3 6.4 -42.6 Q5.1 -43.95 3.9 -44.15 L-6.35 -44.75 Q-15.5 -44.45 -17.55 -41.3 L-14.9 -41.35 Q-12.35 -41.3 -12.7 -40.35 -12.8 -39.75 -14.45 -39.1 L-18.35 -37.7 Q-24.6 -35.35 -27.4 -31.4 -26.05 -41.8 -18.6 -48.45 -14.85 -51.75 -11.4 -53.0 0.95 -57.35 14.05 -52.3" fill="#a84a23" fill-rule="evenodd" stroke="none"/>
      <path d="M31.75 -27.45 L31.5 -24.8 Q34.4 -19.3 34.55 -11.35 34.65 -3.65 32.15 4.6 29.65 12.95 25.0 19.8 20.05 27.2 13.6 31.35 L6.3 30.9 Q3.15 30.15 1.45 28.2 -3.15 22.9 -2.35 16.75 -2.05 14.1 1.3 5.9 2.65 2.55 2.45 -1.4 2.3 -5.05 0.9 -8.75 0.1 -10.8 -2.5 -14.5 -5.05 -18.2 -5.85 -20.3 -8.4 -26.95 -1.45 -30.2 4.2 -32.8 11.8 -32.1 23.7 -31.0 30.75 -27.95 L31.75 -27.45" fill="#e88946" fill-rule="evenodd" stroke="none"/>
      <path d="M1.65 -31.2 L4.8 -32.0 11.85 -33.0 Q22.15 -33.55 22.8 -27.4 23.4 -21.25 21.3 -17.3 20.2 -15.35 19.05 -14.6 14.0 -14.4 7.3 -22.8 5.25 -25.4 3.25 -28.6 L1.65 -31.2" fill="#ad6634" fill-rule="evenodd" stroke="none"/>
      <path d="M17.6 -17.1 L18.7 -15.4 20.8 -11.25 Q23.55 -4.75 21.15 -1.3 20.05 -2.7 18.7 -3.5 L17.55 -4.0 19.2 -1.4 Q20.65 1.75 19.85 5.05 19.45 2.9 18.2 1.85 L17.05 1.25 17.35 3.9 Q17.05 7.35 14.15 11.25 16.15 5.65 15.2 1.15 L14.3 -1.35 13.8 -2.2 17.1 -1.0 16.35 -3.6 Q15.15 -6.35 12.9 -7.1 16.1 -7.0 18.45 -6.2 L20.2 -5.45 Q20.5 -6.65 20.3 -8.7 20.0 -12.8 17.6 -17.1" fill="#96341e" fill-rule="evenodd" stroke="none"/>
      <path d="M-21.75 35.7 Q-20.75 31.45 -16.2 31.15 -10.85 30.8 -6.85 34.05 -3.05 37.15 -3.05 41.45 -3.05 43.4 -5.45 44.25 L-11.1 44.55 Q-14.45 44.2 -17.4 42.95 -20.55 41.65 -21.85 39.85 -22.25 37.8 -21.75 35.7" fill="#f5af00" fill-rule="evenodd" stroke="none"/>
      <path d="M-7.6 45.15 Q-7.2 43.9 -7.1 42.3 -6.85 39.15 -8.25 37.55 L-6.65 38.4 Q-5.05 39.95 -4.75 43.25 -4.5 46.55 -6.0 46.15 L-7.6 45.15" fill="#663612" fill-rule="evenodd" stroke="none"/>
      <path d="M12.8 42.65 L13.15 40.5 Q13.35 38.1 12.3 36.9 L13.5 37.6 Q14.75 38.7 14.9 41.2 15.15 43.7 14.0 43.4 L12.8 42.65" fill="#663612" fill-rule="evenodd" stroke="none"/>
      <path d="M33.1 -28.55 Q32.75 -24.4 30.95 -21.75 29.4 -19.4 27.35 -19.4 L27.3 -19.4 26.95 -19.45 Q26.0 -19.55 24.2 -21.1 21.95 -19.55 20.2 -19.55 19.35 -19.55 18.7 -19.9 18.45 -19.95 18.2 -20.1 8.35 -24.65 4.75 -28.2 2.7 -28.35 0.5 -29.9 L-1.4 -31.2 2.05 -33.05 Q5.65 -35.7 6.4 -39.9 9.35 -41.75 12.3 -42.45 L18.15 -43.0 Q23.0 -43.0 26.8 -41.2 30.55 -39.4 31.8 -36.7 33.45 -33.05 33.1 -28.55" fill="#2e3538" fill-rule="evenodd" stroke="none"/>
      <path d="M18.45 -42.4 Q27.85 -42.15 30.35 -36.05 32.25 -31.3 30.9 -25.9 29.6 -20.65 27.15 -21.0 26.75 -21.0 25.5 -22.1 L24.3 -23.15 22.5 -21.9 Q20.5 -20.8 19.45 -21.3 L13.05 -24.45 Q7.5 -27.45 5.45 -29.8 L4.35 -29.85 Q2.95 -30.15 1.45 -31.2 L4.6 -33.15 Q7.85 -35.9 8.25 -39.6 8.8 -40.75 11.8 -41.6 L18.45 -42.4" fill="#98abb8" fill-rule="evenodd" stroke="none"/>
      <path d="M23.3 -36.5 Q25.2 -36.7 27.7 -35.35 30.15 -34.05 31.4 -32.2 31.95 -28.0 30.5 -24.35 29.1 -20.75 27.15 -21.0 26.75 -21.0 25.5 -22.1 L24.3 -23.15 22.5 -21.9 Q20.5 -20.8 19.45 -21.3 17.9 -21.95 15.75 -23.05 15.4 -23.4 16.2 -23.7 L17.9 -24.2 Q19.95 -25.25 16.5 -28.7 19.35 -29.35 20.55 -30.85 21.5 -32.0 23.3 -36.5" fill="#566066" fill-rule="evenodd" stroke="none"/>
      <path d="M24.3 -23.15 L22.4 -24.0 Q20.1 -25.2 18.25 -26.9 L16.9 -28.35 Q15.85 -29.4 14.6 -30.0 11.0 -31.8 5.45 -29.8 L5.3 -29.8 Q8.75 -31.7 12.2 -31.5 14.9 -31.35 16.7 -30.1 18.95 -28.55 24.3 -23.15" fill="#131617" fill-rule="evenodd" stroke="none"/>
      <path d="M13.15 -39.1 L14.1 -39.6 15.75 -39.55 Q17.15 -38.6 17.25 -37.5 17.35 -36.35 13.15 -39.1" fill="#131617" fill-rule="evenodd" stroke="none"/>
      <path d="M22.55 -40.0 L23.3 -40.1 Q24.15 -40.1 24.45 -39.65 25.1 -38.65 24.9 -37.85 24.65 -37.05 22.55 -40.0" fill="#131617" fill-rule="evenodd" stroke="none"/>
      <path d="M-15.3 -14.1 Q-16.35 -12.8 -20.6 -12.1 -25.65 -11.2 -31.0 -12.3 -46.5 -15.45 -54.65 -32.35 -62.65 -48.8 -58.55 -56.45 -56.55 -60.3 -52.9 -60.85 -7.55 -51.75 -6.85 -32.05 -6.65 -25.85 -10.95 -19.35 -13.1 -16.1 -15.3 -14.1" fill="#361c09" fill-rule="evenodd" stroke="none"/>
      <path d="M-15.85 -14.6 Q-16.8 -13.4 -20.55 -12.7 L-29.7 -13.0 Q-43.3 -15.9 -50.85 -31.5 -58.2 -46.65 -55.1 -53.7 -53.55 -57.2 -50.5 -57.7 -9.6 -48.45 -8.6 -30.6 -8.35 -25.05 -12.05 -19.25 -13.9 -16.35 -15.85 -14.6" fill="#a84a23" fill-rule="evenodd" stroke="none"/>
      <path d="M-31.95 -52.25 Q-36.1 -52.4 -39.25 -51.1 L-41.6 -49.75 Q-39.45 -49.2 -35.65 -45.7 L-32.3 -42.25 -39.75 -42.55 -44.65 -44.05 Q-43.7 -43.5 -43.3 -40.0 L-43.05 -36.55 Q-45.5 -36.8 -49.2 -41.7 L-52.45 -46.6 Q-53.05 -46.05 -52.7 -41.55 -52.2 -35.5 -52.25 -34.45 -58.1 -47.85 -54.9 -54.1 -53.25 -57.25 -50.5 -57.7 -39.75 -55.25 -31.95 -52.25" fill="#572612" fill-rule="evenodd" stroke="none"/>
    </g>
  </defs>
</svg>
