<?xml version="1.0" encoding="UTF-8" standalone="no"?>
<svg xmlns:ffdec="https://www.free-decompiler.com/flash" xmlns:xlink="http://www.w3.org/1999/xlink" ffdec:objectType="frame" height="125.0px" width="135.85px" xmlns="http://www.w3.org/2000/svg">
  <g transform="matrix(1.0, 0.0, 0.0, 1.0, 97.2, 57.35)">
    <use ffdec:characterId="466" height="125.0" transform="matrix(1.0, 0.0, 0.0, 1.0, -97.2, -57.35)" width="118.25" xlink:href="#shape0"/>
  </g>
  <defs>
    <g id="shape0" transform="matrix(1.0, 0.0, 0.0, 1.0, 97.2, 57.35)">
      <path d="M0.55 35.05 L2.0 34.9 3.0 34.95 Q3.5 35.05 3.8 35.5 4.05 35.9 3.9 36.35 L3.75 40.2 Q3.7 42.6 3.8 43.75 6.55 44.5 8.85 45.55 L11.5 47.0 Q12.8 47.9 13.35 48.9 13.95 50.05 13.55 51.1 13.0 52.85 11.6 53.5 L8.95 53.75 7.85 53.4 Q8.0 54.2 7.75 54.95 7.35 56.35 6.0 56.95 L3.5 57.15 Q2.05 56.85 1.1 55.85 0.05 54.65 0.1 53.0 0.15 51.65 -1.05 50.5 -1.7 49.85 -2.6 49.4 L-3.75 49.45 -6.05 49.45 Q-7.1 49.2 -7.7 48.4 -8.3 47.6 -8.2 46.2 -8.05 44.7 -7.05 43.8 -6.15 43.05 -4.7 42.85 L-2.45 42.85 -2.4 41.2 -2.25 38.0 -1.95 36.3 -1.4 35.4 Q-0.9 35.05 -0.4 35.15 L0.55 35.05" fill="#7d503e" fill-rule="evenodd" stroke="none"/>
      <path d="M-8.05 45.9 L-6.9 45.45 -6.35 45.35 -6.0 47.65 Q-7.25 47.25 -8.45 47.95 L-9.45 48.7 Q-9.7 46.8 -8.05 45.9" fill="#3b2216" fill-rule="evenodd" stroke="none"/>
      <path d="M9.6 46.95 Q13.3 48.9 12.65 50.7 11.8 53.2 9.3 52.7 8.35 52.5 7.45 51.9 L6.3 50.7 Q5.8 49.65 4.25 48.8 L2.85 48.15 5.15 50.35 Q7.35 52.9 6.85 54.55 6.55 55.5 5.6 55.95 L3.7 56.05 Q2.6 55.8 1.95 55.05 1.15 54.2 1.2 52.95 1.25 51.2 -0.2 49.8 -1.0 48.95 -2.1 48.4 L-3.4 48.3 -5.1 48.4 Q-7.25 48.35 -7.1 46.2 -6.9 44.1 -4.4 43.8 L-1.55 43.85 -1.25 39.85 Q-1.15 35.95 -0.5 36.1 L1.45 35.95 3.0 36.05 Q2.8 36.65 2.75 40.5 2.7 44.45 3.0 44.55 6.8 45.45 9.6 46.95" fill="#ffd343" fill-rule="evenodd" stroke="none"/>
      <path d="M3.7 55.05 Q3.4 54.65 3.6 54.2 L4.25 53.6 Q5.4 53.1 5.9 54.15 6.2 54.85 5.6 56.9 L4.95 58.85 4.65 57.4 3.7 55.05" fill="#3b2216" fill-rule="evenodd" stroke="none"/>
      <path d="M10.15 51.9 Q9.65 51.7 9.6 51.2 9.55 50.75 9.9 50.3 L11.95 50.25 Q13.2 51.35 13.25 52.9 13.25 54.0 12.65 55.25 L12.1 53.8 Q11.3 52.3 10.15 51.9" fill="#3b2216" fill-rule="evenodd" stroke="none"/>
      <path d="M6.45 50.95 L5.8 49.9 Q5.55 49.55 5.75 49.0 L6.0 48.55 Q5.85 49.2 6.15 50.15 L6.45 50.95" fill="#7d503e" fill-rule="evenodd" stroke="none"/>
      <path d="M1.2 53.1 L1.1 52.0 Q1.2 51.6 1.45 51.3 L1.75 51.1 Q1.25 52.05 1.2 53.1" fill="#7d503e" fill-rule="evenodd" stroke="none"/>
      <path d="M9.15 46.7 L8.05 46.45 Q6.9 46.3 6.4 46.7 L6.7 46.4 7.75 46.1 9.15 46.7" fill="#7d503e" fill-rule="evenodd" stroke="none"/>
      <path d="M-4.0 47.05 L-4.05 46.6 Q-3.9 47.35 -3.1 47.9 L-2.35 48.3 -3.1 48.25 -4.0 47.05" fill="#7d503e" fill-rule="evenodd" stroke="none"/>
      <path d="M3.0 44.55 L4.05 44.75 2.6 44.95 1.45 45.2 2.3 44.7 3.0 44.55" fill="#7d503e" fill-rule="evenodd" stroke="none"/>
      <path d="M4.85 19.7 Q7.05 20.0 7.7 20.45 8.05 20.7 8.0 21.3 7.25 31.25 6.0 35.75 4.7 40.65 2.2 41.6 -1.1 42.85 -2.8 42.6 -3.75 42.5 -4.3 41.9 -5.8 42.65 -6.75 42.5 -7.75 42.35 -8.2 41.5 -8.75 40.4 -8.0 38.0 L-9.95 38.35 Q-10.95 38.2 -11.25 37.3 -11.5 36.6 -11.1 35.6 -10.65 34.2 -8.9 31.75 L-7.75 30.25 Q-8.7 30.1 -9.05 29.3 -9.35 28.6 -8.5 27.25 L-5.75 23.25 Q-4.7 21.45 0.2 20.4 L4.85 19.7" fill="#1e3039" fill-rule="evenodd" stroke="none"/>
      <path d="M2.55 19.3 L6.25 19.55 Q7.8 20.1 7.7 21.2 7.1 28.7 6.1 33.15 4.55 39.7 1.95 40.7 -1.85 42.2 -3.1 41.5 L-3.55 40.85 -3.6 40.5 Q-7.7 43.0 -7.15 39.75 L-6.4 37.25 -5.8 35.95 Q-12.1 39.45 -9.25 34.6 -7.85 32.2 -5.2 29.1 -7.9 29.6 -8.0 28.75 -8.05 27.8 -5.45 23.75 -4.2 21.85 -1.85 20.65 0.15 19.6 2.55 19.3" fill="#3d4750" fill-rule="evenodd" stroke="none"/>
      <path d="M1.8 38.9 Q1.05 40.55 -0.5 40.85 -1.6 41.1 -1.85 40.55 L-1.7 38.8 Q-1.6 38.1 -0.3 37.25 0.35 36.8 0.95 36.5 0.5 36.8 0.0 37.25 -0.9 38.05 -0.95 38.8 -1.0 39.65 -0.4 39.9 L0.65 39.8 1.55 38.85 2.05 37.8 1.8 38.9" fill="#4c5358" fill-rule="evenodd" stroke="none"/>
      <path d="M-3.1 38.5 L-1.9 37.1 Q-1.2 36.1 -0.9 34.95 -1.1 36.0 -1.65 37.15 -2.75 39.45 -4.55 40.1 -5.8 40.6 -6.0 39.95 L-5.55 37.7 Q-5.25 36.75 -3.65 35.35 -2.85 34.7 -2.1 34.2 L-3.3 35.3 Q-4.5 36.55 -4.65 37.55 -4.85 38.6 -4.25 38.8 -3.7 39.05 -3.1 38.5" fill="#4c5358" fill-rule="evenodd" stroke="none"/>
      <path d="M-11.65 -35.6 L-10.95 -36.9 -10.05 -37.6 -8.95 -37.4 -8.55 -36.95 Q-7.9 -35.95 -6.6 -31.95 -5.15 -27.65 -5.0 -25.5 -3.95 -21.75 -4.2 -10.45 L-4.7 0.8 -4.75 1.0 Q-5.1 2.4 -7.0 4.15 -8.6 5.65 -10.75 6.95 -12.75 8.15 -14.7 8.9 -17.7 10.0 -19.75 9.5 -22.1 8.95 -24.0 7.65 -27.0 5.6 -29.0 1.9 -30.65 -1.05 -31.55 -4.85 -32.5 -8.6 -32.65 -12.35 -39.25 -18.05 -42.3 -23.6 -44.95 -28.45 -44.75 -33.05 -44.55 -37.65 -41.7 -41.45 L-39.6 -43.8 Q-41.8 -48.1 -42.5 -51.2 -43.4 -55.05 -41.7 -56.55 -40.35 -57.8 -37.8 -57.1 -35.55 -56.5 -32.4 -54.3 -24.45 -48.95 -11.85 -35.2 L-11.65 -35.6" fill="#1e3039" fill-rule="evenodd" stroke="none"/>
      <path d="M-11.6 -33.85 Q-11.2 -33.4 -10.3 -35.25 -9.45 -37.05 -9.1 -36.5 -8.5 -35.6 -7.2 -31.7 -5.8 -27.4 -5.7 -25.45 -4.7 -21.9 -4.95 -10.3 L-5.45 0.55 Q-5.7 1.6 -7.25 3.1 L-10.95 5.9 Q-16.1 9.05 -19.15 8.3 -26.55 6.5 -29.65 -3.4 -30.6 -6.55 -31.0 -10.1 L-31.2 -13.0 Q-45.35 -25.0 -43.0 -35.55 -42.25 -38.85 -40.0 -41.6 L-37.85 -43.7 Q-41.15 -49.8 -41.35 -53.3 -41.55 -56.8 -38.45 -56.35 -35.15 -55.85 -28.7 -50.65 -21.55 -44.8 -11.6 -33.85" fill="#30353a" fill-rule="evenodd" stroke="none"/>
      <path d="M-18.7 -30.8 Q-17.95 -29.8 -16.7 -29.0 -15.2 -28.05 -13.45 -27.8 -15.05 -27.85 -16.8 -28.55 -20.3 -29.85 -21.0 -33.0 -21.55 -35.3 -20.5 -35.8 L-16.9 -35.7 Q-15.45 -35.5 -13.55 -32.9 L-12.0 -30.4 -13.5 -32.25 Q-15.3 -34.1 -16.85 -34.1 -18.5 -34.15 -19.0 -32.9 -19.45 -31.8 -18.7 -30.8" fill="#4c4c4c" fill-rule="evenodd" stroke="none"/>
      <path d="M-12.2 0.5 Q-13.15 0.7 -14.25 1.15 -16.4 2.05 -17.05 3.2 -17.8 4.5 -17.1 5.2 -16.45 5.85 -15.4 5.55 -14.3 5.25 -13.15 4.45 -11.8 3.55 -10.9 2.3 -11.6 3.5 -12.85 4.65 -15.35 7.0 -18.05 6.7 -19.95 6.5 -19.9 5.6 -19.85 4.85 -18.3 2.85 -17.5 1.75 -14.75 1.0 L-12.2 0.5" fill="#4c4c4c" fill-rule="evenodd" stroke="none"/>
      <path d="M-24.05 -8.9 Q-22.75 -9.15 -20.25 -7.85 L-18.0 -6.55 -19.9 -7.4 Q-22.15 -8.2 -23.4 -7.8 -24.8 -7.35 -24.8 -6.35 -24.75 -5.45 -23.75 -4.95 -22.75 -4.45 -21.4 -4.25 L-18.25 -4.3 -21.3 -3.9 Q-24.7 -3.85 -26.5 -5.85 -27.8 -7.35 -27.1 -7.95 -26.55 -8.45 -24.05 -8.9" fill="#4c4c4c" fill-rule="evenodd" stroke="none"/>
      <path d="M-25.7 0.1 L-23.4 -2.1 Q-22.35 -2.85 -19.5 -2.85 L-16.9 -2.65 -19.05 -2.6 Q-21.35 -2.3 -22.3 -1.35 -23.4 -0.35 -22.9 0.55 -22.45 1.35 -21.35 1.35 L-18.95 0.95 Q-17.35 0.4 -16.15 -0.55 L-18.65 1.2 Q-21.7 2.75 -24.2 1.75 -26.05 1.0 -25.7 0.1" fill="#4c4c4c" fill-rule="evenodd" stroke="none"/>
      <path d="M-20.95 -39.8 L-23.75 -43.3 Q-27.1 -46.9 -29.8 -47.6 -32.8 -48.4 -33.55 -46.7 -34.25 -45.2 -32.9 -43.35 -31.45 -41.5 -29.15 -39.7 -26.4 -37.55 -23.35 -36.45 -26.15 -37.25 -29.3 -39.0 -35.55 -42.6 -37.1 -47.75 -38.25 -51.45 -36.45 -51.8 -35.05 -52.05 -30.05 -50.1 -27.45 -49.1 -23.95 -44.35 L-20.95 -39.8" fill="#1e3039" fill-rule="evenodd" stroke="none"/>
      <path d="M-36.25 -36.7 Q-34.9 -37.1 -29.4 -35.8 -26.5 -35.1 -22.05 -30.8 L-18.15 -26.6 -21.7 -29.75 Q-25.8 -33.0 -28.7 -33.35 -31.9 -33.75 -32.4 -31.95 -32.85 -30.35 -31.1 -28.65 -29.3 -26.95 -26.65 -25.5 -23.35 -23.7 -20.05 -22.95 -23.05 -23.35 -26.65 -24.8 -33.7 -27.6 -36.25 -32.55 -38.1 -36.15 -36.25 -36.7" fill="#1e3039" fill-rule="evenodd" stroke="none"/>
      <path d="M-26.65 -25.55 Q-24.25 -24.95 -20.45 -21.3 L-17.2 -17.75 -20.15 -20.4 Q-23.65 -23.15 -26.1 -23.45 -28.8 -23.8 -29.2 -22.3 -29.6 -20.9 -28.1 -19.5 -26.6 -18.05 -24.35 -16.8 -21.6 -15.3 -18.75 -14.7 -21.35 -15.05 -24.35 -16.2 -30.35 -18.6 -32.45 -22.8 -34.05 -25.85 -32.5 -26.3 L-26.65 -25.55" fill="#1e3039" fill-rule="evenodd" stroke="none"/>
      <path d="M-70.15 46.2 Q-70.3 44.25 -68.05 42.5 -65.8 40.75 -61.85 39.7 -57.2 38.5 -52.55 36.05 -49.0 34.2 -45.7 31.75 L-41.1 27.9 -39.5 26.25 -39.3 26.05 -39.05 25.95 -36.2 25.25 -30.9 24.8 Q-24.3 24.8 -21.65 28.1 -19.35 31.1 -20.55 36.1 -21.3 39.25 -23.8 42.9 L-27.4 47.35 -31.2 50.85 Q-34.35 53.3 -36.4 53.3 L-36.8 53.25 Q-38.35 53.05 -39.1 51.85 L-39.3 51.45 Q-42.4 54.4 -46.3 54.4 L-47.8 54.3 Q-49.45 54.05 -49.95 52.7 L-50.1 51.75 Q-53.3 53.25 -56.15 53.25 -57.9 53.25 -59.4 52.65 -61.0 52.05 -61.2 50.6 L-61.15 49.6 -63.35 49.75 -64.4 49.7 Q-67.55 49.45 -69.0 48.25 -70.05 47.4 -70.15 46.2" fill="#1e3039" fill-rule="evenodd" stroke="none"/>
      <path d="M-57.85 47.05 L-57.2 46.5 -59.25 47.3 Q-61.8 48.1 -64.15 47.9 -66.85 47.7 -67.95 46.8 -69.05 45.95 -68.55 44.75 -68.1 43.6 -66.25 42.45 -64.3 41.3 -61.4 40.55 -52.8 38.35 -44.7 32.3 -40.7 29.25 -38.35 26.7 L-35.0 25.95 -28.55 25.75 Q-19.65 26.75 -21.75 35.3 -23.0 40.4 -28.45 46.2 -30.8 48.65 -32.95 50.1 -35.25 51.55 -36.5 51.4 -38.25 51.2 -38.15 49.05 L-37.95 47.65 -37.75 47.0 Q-39.45 49.95 -41.95 51.4 -44.55 52.95 -47.5 52.5 -49.65 52.15 -47.9 49.25 L-46.5 47.25 -46.45 47.2 Q-48.3 49.2 -51.5 50.45 -55.75 52.15 -58.8 50.95 -60.6 50.2 -59.1 48.3 L-57.85 47.05" fill="#dcf0fe" fill-rule="evenodd" stroke="none"/>
      <path d="M-54.2 45.15 L-60.85 46.35 Q-67.5 47.2 -67.75 45.55 -68.0 43.9 -61.9 41.5 -58.8 40.25 -55.7 39.4 L-60.25 41.35 Q-64.75 43.55 -64.45 44.75 -64.1 46.0 -59.15 45.7 L-54.2 45.15" fill="#a9b3be" fill-rule="evenodd" stroke="none"/>
      <path d="M-49.8 41.7 L-48.15 40.55 -51.95 43.75 Q-55.6 47.15 -54.9 48.25 -54.25 49.35 -49.55 47.6 L-45.0 45.65 Q-47.95 47.35 -51.0 48.75 -57.15 51.5 -57.9 50.0 -58.6 48.5 -53.45 44.35 L-49.8 41.7" fill="#a9b3be" fill-rule="evenodd" stroke="none"/>
      <path d="M-41.0 41.3 L-43.35 44.6 Q-45.55 48.1 -44.65 49.1 -43.75 50.05 -40.1 48.1 L-36.7 45.9 -38.0 47.0 Q-39.6 48.3 -41.05 49.25 -45.6 52.35 -46.7 50.95 -47.8 49.6 -44.5 45.3 L-42.15 42.5 -41.0 41.3" fill="#a9b3be" fill-rule="evenodd" stroke="none"/>
      <path d="M-33.0 38.95 L-34.5 42.75 Q-35.7 46.7 -34.6 47.4 -33.45 48.15 -30.45 45.3 L-27.7 42.35 -28.7 43.7 -31.05 46.7 Q-34.75 50.8 -36.15 49.75 -37.55 48.7 -35.4 43.7 L-33.8 40.4 -33.0 38.95" fill="#a9b3be" fill-rule="evenodd" stroke="none"/>
      <path d="M-33.6 36.45 Q-35.2 40.65 -38.2 42.15 -40.35 43.25 -40.7 42.15 -40.95 41.35 -40.25 38.05 -39.85 36.35 -37.3 33.7 L-34.8 31.35 -36.7 33.45 Q-38.6 35.95 -38.75 37.65 -38.95 39.55 -37.9 39.85 -36.9 40.15 -35.9 39.1 L-34.05 36.45 Q-33.0 34.5 -32.6 32.5 L-32.8 33.65 -33.6 36.45" fill="#a9b3be" fill-rule="evenodd" stroke="none"/>
      <path d="M-29.35 35.85 Q-29.4 37.35 -28.45 37.55 -27.6 37.75 -26.9 36.9 -26.1 36.05 -25.5 34.8 -24.8 33.3 -24.6 31.7 L-24.65 32.6 -25.15 34.8 Q-26.2 38.15 -28.55 39.4 L-30.65 39.45 Q-30.95 38.8 -30.6 36.2 -30.4 34.85 -28.45 32.7 L-26.5 30.8 -27.95 32.5 Q-29.35 34.45 -29.35 35.85" fill="#a9b3be" fill-rule="evenodd" stroke="none"/>
      <path d="M-39.3 29.95 L-42.05 31.7 Q-44.95 33.8 -45.8 35.6 -46.8 37.55 -45.8 38.1 -44.95 38.65 -43.55 37.8 -42.1 36.9 -40.6 35.45 -38.75 33.65 -37.55 31.7 L-38.25 32.85 -40.15 35.55 Q-43.5 39.6 -47.05 40.45 -49.65 41.05 -49.55 39.85 -49.5 38.9 -47.45 35.65 -46.4 33.95 -42.75 31.75 L-39.3 29.95" fill="#a9b3be" fill-rule="evenodd" stroke="none"/>
      <path d="M1.1 -40.35 L1.85 -40.6 2.15 -40.6 4.5 -39.65 6.85 -38.2 Q8.35 -37.05 9.0 -34.8 9.85 -34.25 10.55 -32.75 L11.2 -30.95 11.15 -30.15 Q10.85 -29.25 10.25 -25.35 12.6 -23.85 12.75 -18.35 12.9 -15.4 12.45 -12.45 12.4 -11.95 12.0 -11.65 11.65 -11.3 11.15 -11.3 L10.95 -11.3 10.5 -8.45 10.05 -7.7 9.3 -7.35 Q10.75 -0.5 11.05 4.3 11.45 11.35 10.0 20.45 L9.05 24.05 Q7.2 29.2 -0.9 34.95 -8.1 40.0 -13.8 41.55 -16.6 42.3 -17.3 41.1 L-17.6 39.8 -17.65 38.45 Q-19.0 39.35 -23.65 39.55 -28.35 39.75 -29.2 38.75 -29.4 38.55 -28.95 37.3 L-28.3 35.6 -33.25 36.75 -37.25 37.0 Q-38.15 37.05 -38.65 36.65 L-39.3 35.95 Q-39.7 35.3 -37.4 33.1 L-34.3 30.0 -36.05 30.15 Q-38.85 30.15 -41.35 28.85 L-42.8 27.7 -43.9 26.35 Q-44.4 25.3 -42.45 24.3 L-40.6 23.45 -38.9 22.3 -36.0 19.15 Q-34.2 16.8 -33.55 14.3 -30.7 3.9 -28.75 -1.85 -26.35 -8.8 -24.15 -12.55 L-24.6 -13.05 Q-25.65 -14.95 -25.2 -18.2 L-25.4 -18.15 -25.95 -18.25 -26.55 -18.8 -26.75 -19.6 Q-26.5 -22.7 -25.0 -26.65 L-25.25 -26.7 -25.95 -27.2 -26.15 -28.05 Q-26.0 -30.25 -24.4 -33.1 L-24.5 -33.2 -24.95 -33.85 -24.95 -34.7 Q-24.3 -36.45 -21.8 -38.3 L-22.1 -38.9 -22.0 -39.8 -21.35 -40.45 -18.75 -41.15 -10.7 -41.8 -7.85 -41.7 Q-1.8 -41.5 1.1 -40.35" fill="#1e3039" fill-rule="evenodd" stroke="none"/>
      <path d="M8.25 -7.4 L9.6 0.0 Q10.7 8.7 8.95 20.0 7.55 28.9 -4.35 35.55 -10.3 38.85 -16.0 40.35 -15.65 39.25 -16.4 37.3 L-17.25 35.55 Q-19.0 37.85 -23.5 38.15 L-26.45 38.1 -27.65 37.95 Q-26.95 36.85 -26.4 34.65 L-25.95 32.65 Q-28.15 34.55 -33.15 35.15 L-36.35 35.35 -37.65 35.35 Q-34.95 33.95 -33.0 30.7 L-31.9 28.6 -31.6 27.7 Q-35.65 29.25 -39.45 27.85 -40.7 27.35 -41.65 26.7 L-42.2 26.1 -40.8 25.4 -38.0 23.35 Q-33.9 19.6 -32.45 14.4 -25.5 -11.05 -19.5 -16.15 -17.65 -17.75 -16.1 -17.15 -15.3 -16.85 -14.9 -16.2 -14.5 -17.7 -3.9 -16.6 L6.65 -15.15 8.25 -7.4" fill="#353f44" fill-rule="evenodd" stroke="none"/>
      <path d="M4.25 -38.7 L6.3 -37.4 Q7.25 -36.7 7.8 -35.3 L8.2 -34.05 Q8.9 -34.05 9.6 -32.45 L10.2 -30.85 Q9.9 -30.05 9.5 -27.35 L9.1 -24.8 Q11.55 -24.3 11.75 -18.55 11.85 -15.7 11.45 -12.95 L10.85 -14.6 10.35 -15.5 Q10.35 -13.5 9.45 -9.0 9.05 -9.05 8.35 -9.6 L7.7 -10.15 Q7.65 -8.45 7.05 -7.05 L6.45 -5.95 Q4.3 -6.35 2.9 -8.2 L2.15 -9.45 1.9 -10.0 Q1.6 -9.2 -0.05 -7.7 -1.55 -8.0 -3.9 -9.55 L-5.95 -11.05 Q-6.25 -10.5 -7.4 -9.85 L-8.5 -9.35 Q-10.05 -9.35 -13.05 -11.45 L-15.8 -13.65 Q-15.95 -12.95 -15.7 -11.9 L-15.45 -10.95 Q-17.35 -11.75 -19.1 -14.25 L-20.45 -16.65 Q-20.55 -16.15 -21.8 -15.0 L-23.1 -13.95 Q-24.2 -15.95 -23.2 -20.1 L-22.4 -22.75 -21.95 -23.85 Q-22.4 -22.9 -23.8 -21.25 L-25.1 -19.8 Q-24.9 -23.05 -23.0 -27.6 L-21.15 -31.5 Q-21.8 -31.6 -23.2 -29.95 L-24.5 -28.25 Q-24.35 -30.35 -22.6 -33.15 L-20.9 -35.55 Q-21.3 -35.6 -22.35 -35.05 L-23.35 -34.5 Q-22.85 -35.85 -20.6 -37.55 L-18.5 -38.9 -19.75 -39.4 -20.45 -39.5 -19.8 -39.7 -17.65 -40.2 -7.6 -40.65 Q-1.55 -40.45 1.1 -39.3 2.35 -38.8 2.6 -38.3 L2.15 -39.5 4.25 -38.7" fill="#dcf0fe" fill-rule="evenodd" stroke="none"/>
      <path d="M0.8 -23.15 Q-0.2 -22.05 -1.45 -22.15 L-4.05 -22.45 Q-6.85 -22.6 -8.15 -21.5 -10.55 -19.45 -14.1 -19.15 L-16.3 -19.15 -17.2 -19.25 -16.1 -21.3 Q-14.7 -23.45 -13.15 -24.0 L-14.1 -24.55 -16.85 -25.1 -15.5 -26.5 Q-13.8 -27.95 -11.85 -28.25 -11.6 -28.6 -11.75 -28.95 -12.05 -29.75 -13.95 -30.0 -15.1 -30.15 -16.25 -31.2 L-17.2 -32.25 -16.1 -31.95 Q-14.55 -31.8 -12.35 -32.65 -9.95 -33.65 -7.05 -32.55 L-4.25 -31.45 -0.85 -30.25 Q0.95 -29.8 1.7 -28.4 2.35 -27.2 2.05 -25.65 1.75 -24.15 0.8 -23.15" fill="#b8cddf" fill-rule="evenodd" stroke="none"/>
      <path d="M6.85 -19.45 Q6.4 -17.65 3.35 -15.95 L0.35 -14.55 Q1.15 -15.4 2.1 -17.4 L2.9 -19.2 Q2.1 -18.0 0.2 -17.15 L-1.6 -16.5 Q-0.7 -17.4 -1.0 -18.8 L-1.5 -19.95 Q-3.75 -21.15 -2.9 -24.45 L-2.35 -26.45 Q-2.3 -27.3 -3.1 -27.3 -3.9 -27.25 -4.45 -27.85 L-5.35 -29.4 Q-6.6 -32.35 -7.75 -33.4 -4.2 -31.2 -1.55 -31.0 0.35 -30.85 2.35 -31.9 3.5 -32.5 6.7 -25.6 L9.6 -18.55 Q9.4 -17.0 7.5 -16.25 L5.65 -15.8 Q6.2 -16.65 6.85 -19.45" fill="#a69a8c" fill-rule="evenodd" stroke="none"/>
      <path d="M-11.5 -33.05 Q-8.75 -33.9 -7.75 -33.4 L-5.05 -31.85 Q-3.5 -31.05 -1.8 -31.0 L-0.4 -31.1 -0.5 -30.2 Q-0.85 -29.1 -1.8 -28.4 -3.5 -27.1 -5.25 -27.85 -7.1 -28.65 -6.65 -31.15 -6.4 -32.6 -10.2 -32.5 L-14.05 -32.1 -11.5 -33.05" fill="#6a5846" fill-rule="evenodd" stroke="none"/>
      <path d="M-6.0 -28.05 Q-6.9 -28.45 -7.2 -29.25 -7.5 -30.2 -6.85 -31.3 -6.45 -31.9 -8.6 -32.6 L-10.8 -33.2 -8.6 -33.7 Q-7.85 -33.6 -6.2 -32.55 -4.05 -31.2 -2.0 -31.0 L-0.4 -31.1 -0.75 -30.6 Q-1.2 -30.05 -2.0 -30.1 L-2.75 -30.05 -3.0 -29.35 Q-3.3 -28.3 -4.25 -27.95 L-6.0 -28.05" fill="#231f20" fill-rule="evenodd" stroke="none"/>
      <path d="M-22.5 24.55 L-24.0 27.5 Q-26.7 32.0 -30.1 33.4 -32.6 34.4 -32.65 33.15 -32.75 32.2 -31.2 28.7 -30.4 26.85 -27.1 24.15 L-24.0 21.85 -26.4 24.0 Q-29.0 26.5 -29.6 28.4 -30.25 30.45 -29.2 30.9 -28.3 31.25 -27.0 30.25 -25.7 29.15 -24.45 27.45 -22.95 25.5 -22.05 23.45 L-22.5 24.55" fill="#4c4c4c" fill-rule="evenodd" stroke="none"/>
      <path d="M-17.75 14.15 Q-18.0 15.85 -17.15 16.05 -16.4 16.2 -15.55 15.25 -14.7 14.2 -13.95 12.75 -13.0 11.05 -12.6 9.35 L-12.8 10.25 -13.6 12.75 Q-15.05 16.55 -17.5 18.1 -19.3 19.2 -19.5 18.25 -19.7 17.55 -18.95 14.6 -18.6 13.05 -16.4 10.55 L-14.3 8.35 -15.9 10.3 Q-17.55 12.6 -17.75 14.15" fill="#4c4c4c" fill-rule="evenodd" stroke="none"/>
      <path d="M-37.25 23.65 Q-36.7 22.45 -34.15 21.35 L-31.7 20.55 -33.55 21.45 Q-35.55 22.6 -35.9 23.9 -36.3 25.3 -35.4 25.95 L-33.55 26.1 Q-32.55 25.65 -31.6 24.75 -30.45 23.65 -29.9 22.25 L-30.2 23.05 Q-30.65 24.1 -31.25 24.95 -33.15 27.6 -35.9 27.65 -37.95 27.65 -38.1 26.7 -38.25 25.9 -37.25 23.65" fill="#4c4c4c" fill-rule="evenodd" stroke="none"/>
      <path d="M1.6 26.0 Q2.1 28.9 -0.1 30.65 -1.7 31.9 -2.65 31.35 -3.3 30.95 -4.25 28.9 -4.7 27.8 -3.5 25.5 L-2.2 23.45 -3.0 25.2 Q-3.65 27.15 -2.95 28.2 -2.2 29.35 -0.95 29.25 0.15 29.1 0.65 28.2 1.1 27.3 1.15 26.15 1.25 24.75 0.65 23.45 L1.0 24.2 1.6 26.0" fill="#4c4c4c" fill-rule="evenodd" stroke="none"/>
      <path d="M-2.35 21.3 Q-1.55 20.6 -1.1 19.55 -0.55 18.25 -0.7 16.85 L-0.6 17.65 -0.65 19.6 Q-1.15 22.45 -3.85 23.35 -5.8 23.95 -6.45 23.15 -6.95 22.55 -7.15 20.25 -7.2 19.1 -5.3 17.35 L-3.35 15.9 -4.7 17.25 Q-6.0 18.85 -5.7 20.05 -5.35 21.4 -4.15 21.7 -3.05 22.0 -2.35 21.3" fill="#4c4c4c" fill-rule="evenodd" stroke="none"/>
      <path d="M5.65 16.65 L6.6 18.35 Q7.75 21.05 5.95 23.2 4.65 24.75 3.65 24.45 2.9 24.2 1.55 22.4 0.8 21.4 1.55 18.95 L2.35 16.65 1.95 18.5 Q1.75 20.6 2.65 21.45 3.65 22.4 4.8 22.0 5.9 21.65 6.15 20.7 L6.2 18.55 Q6.0 17.15 5.15 16.1 L5.65 16.65" fill="#4c4c4c" fill-rule="evenodd" stroke="none"/>
      <path d="M4.7 0.7 Q4.95 1.95 5.65 2.25 L7.1 2.15 Q7.65 1.75 7.6 1.1 L7.2 -0.15 6.1 -1.35 6.5 -1.15 7.4 -0.35 Q8.6 1.0 8.0 2.65 7.55 3.8 6.9 3.85 6.4 3.85 5.2 3.05 4.6 2.6 4.55 1.0 L4.55 -0.5 4.7 0.7" fill="#4c4c4c" fill-rule="evenodd" stroke="none"/>
      <path d="M2.75 6.65 Q3.65 7.5 4.75 7.15 5.7 6.8 5.95 5.95 6.2 5.1 6.0 4.05 5.8 2.75 5.05 1.8 L5.5 2.35 6.35 3.85 Q7.35 6.3 5.75 8.25 4.55 9.65 3.65 9.35 3.0 9.1 1.75 7.45 1.15 6.6 1.8 4.35 L2.6 2.3 2.2 4.0 Q1.95 5.85 2.75 6.65" fill="#4c4c4c" fill-rule="evenodd" stroke="none"/>
      <path d="M0.85 0.7 Q1.15 3.35 -0.95 4.7 -2.5 5.75 -3.25 5.2 -3.85 4.8 -4.55 2.9 -4.9 1.85 -3.65 -0.1 L-2.35 -1.85 -3.2 -0.35 Q-3.9 1.35 -3.35 2.35 -2.75 3.45 -1.6 3.4 -0.6 3.35 -0.15 2.6 0.35 1.8 0.5 0.75 0.65 -0.5 0.15 -1.65 L0.5 -1.0 0.85 0.7" fill="#4c4c4c" fill-rule="evenodd" stroke="none"/>
      <path d="M-8.55 -7.2 L-9.2 -6.1 Q-9.75 -4.8 -9.35 -4.1 -8.85 -3.3 -8.05 -3.3 -7.3 -3.35 -6.9 -3.9 -6.55 -4.5 -6.45 -5.25 -6.35 -6.2 -6.7 -7.1 L-6.45 -6.55 -6.15 -5.35 Q-5.95 -3.35 -7.55 -2.3 -8.7 -1.55 -9.25 -1.95 -9.7 -2.25 -10.2 -3.7 -10.5 -4.45 -9.55 -5.9 L-8.55 -7.2" fill="#4c4c4c" fill-rule="evenodd" stroke="none"/>
      <path d="M-4.65 -30.5 L-5.05 -30.0 -5.7 -29.95 -6.2 -30.35 -6.25 -31.0 -5.95 -31.25 -5.35 -31.05 -4.75 -30.9 Q-4.55 -30.8 -4.65 -30.5" fill="#ffffff" fill-rule="evenodd" stroke="none"/>
      <path d="M1.9 -29.35 Q1.85 -30.35 2.15 -31.3 2.45 -32.4 3.2 -33.1 3.95 -33.85 5.25 -33.85 L8.0 -33.25 11.1 -31.95 15.05 -30.25 Q18.05 -29.05 19.5 -26.0 20.45 -24.05 20.8 -21.55 21.2 -18.8 20.9 -15.7 L20.5 -14.6 19.95 -14.2 Q19.6 -14.2 19.3 -14.55 L18.6 -15.4 Q17.5 -17.0 16.85 -17.1 L14.1 -17.2 10.8 -16.8 Q9.7 -16.5 7.5 -16.85 L4.7 -17.35 2.25 -17.65 Q0.1 -18.1 -0.45 -18.8 -2.35 -20.15 -1.65 -22.4 -1.2 -24.05 -0.45 -24.55 L1.1 -26.85 Q1.95 -28.25 1.9 -29.35" fill="#613719" fill-rule="evenodd" stroke="none"/>
      <path d="M14.2 -20.6 Q18.25 -19.45 18.05 -17.8 16.1 -18.4 12.25 -17.9 L7.4 -18.05 4.9 -18.65 2.45 -18.9 Q-0.3 -19.35 -0.8 -22.5 0.65 -23.6 3.8 -22.5 L6.2 -21.6 8.35 -21.35 Q10.55 -21.7 14.2 -20.6" fill="#b97239" fill-rule="evenodd" stroke="none"/>
      <path d="M8.7 -32.45 L14.8 -29.9 Q17.55 -28.8 18.9 -26.05 20.6 -22.5 20.2 -16.2 20.1 -15.25 19.8 -15.5 L18.85 -16.75 Q16.95 -19.4 15.05 -19.3 L9.75 -19.15 Q7.85 -19.35 6.4 -20.95 4.8 -22.7 3.85 -27.35 2.85 -32.0 3.95 -33.05 4.75 -33.85 8.7 -32.45" fill="#ffd343" fill-rule="evenodd" stroke="none"/>
      <path d="M3.65 -32.9 Q4.65 -33.9 7.25 -33.1 L12.05 -31.1 11.35 -30.75 Q10.6 -30.2 10.35 -29.2 L9.95 -26.65 Q9.6 -25.15 8.35 -24.25 7.05 -23.35 7.5 -21.35 7.7 -20.35 8.15 -19.55 7.4 -19.85 7.05 -20.2 L6.3 -20.75 3.4 -21.5 0.6 -21.8 Q-0.7 -21.95 -0.8 -22.45 -0.95 -23.1 0.5 -24.55 2.55 -26.6 2.7 -29.4 L2.85 -31.3 Q3.0 -32.3 3.65 -32.9" fill="#d39c53" fill-rule="evenodd" stroke="none"/>
      <path d="M9.45 -27.7 L8.95 -26.15 8.15 -24.9 Q7.65 -24.45 7.35 -24.6 7.05 -24.8 7.15 -25.5 7.2 -26.25 7.55 -27.05 7.95 -27.9 8.45 -28.35 8.9 -28.8 9.2 -28.6 9.5 -28.4 9.45 -27.7" fill="#764b2d" fill-rule="evenodd" stroke="none"/>
      <path d="M8.9 -27.6 L8.65 -26.6 8.05 -25.75 Q7.75 -25.45 7.55 -25.6 7.35 -25.7 7.4 -26.2 L7.7 -27.2 8.25 -28.05 Q8.55 -28.35 8.75 -28.2 L8.9 -27.6" fill="#231f20" fill-rule="evenodd" stroke="none"/>
      <path d="M15.95 -27.65 L17.6 -25.6 Q18.1 -24.55 17.65 -24.05 17.25 -23.6 16.15 -23.9 15.0 -24.25 13.9 -25.25 12.75 -26.25 12.25 -27.3 11.75 -28.3 12.15 -28.8 L13.7 -28.95 15.95 -27.65" fill="#fef097" fill-rule="evenodd" stroke="none"/>
      <path d="M-44.2 -38.35 Q-39.75 -34.9 -38.1 -32.85 -34.5 -29.7 -26.95 -17.95 -23.1 -12.05 -19.7 -6.15 L-19.65 -6.05 -19.6 -5.95 Q-19.0 -4.3 -19.75 -1.1 -20.35 1.5 -21.65 4.3 -22.85 6.95 -24.35 9.0 -26.65 12.2 -29.1 13.15 -31.8 14.15 -34.7 14.15 -39.15 14.15 -43.8 11.75 -47.4 9.9 -51.05 6.6 -54.6 3.35 -57.3 -0.3 -68.0 -1.55 -74.9 -5.15 -80.95 -8.3 -83.95 -13.1 -85.45 -15.45 -86.15 -18.2 -86.8 -20.9 -86.7 -23.8 -86.6 -25.9 -86.15 -27.65 -91.35 -30.5 -94.2 -33.2 -97.75 -36.5 -97.1 -39.25 -96.55 -41.45 -93.5 -42.45 -90.75 -43.4 -86.0 -43.4 -80.2 -43.4 -71.5 -42.0 -62.85 -40.65 -51.8 -38.0 L-51.9 -38.55 -52.05 -40.35 Q-52.05 -41.2 -51.6 -41.7 -51.1 -42.25 -50.4 -42.25 L-49.65 -42.1 Q-48.3 -41.5 -44.2 -38.35" fill="#1e3039" fill-rule="evenodd" stroke="none"/>
      <path d="M-44.7 -37.6 Q-40.3 -34.2 -38.85 -32.3 -35.3 -29.35 -27.1 -16.0 -22.95 -9.3 -19.55 -3.2 -19.15 -1.95 -19.65 0.4 -20.2 2.7 -21.45 5.15 -24.45 11.05 -28.05 12.4 -36.9 15.7 -47.5 7.2 -50.8 4.55 -53.9 1.0 L-56.3 -2.0 Q-79.0 -4.5 -83.9 -16.85 -85.45 -20.75 -85.0 -25.15 L-84.55 -27.8 -84.25 -28.75 Q-91.85 -32.75 -94.45 -36.15 -97.1 -39.65 -93.65 -41.25 -89.85 -43.05 -79.7 -42.15 -68.35 -41.15 -50.65 -36.8 -49.95 -36.65 -50.3 -39.15 -50.65 -41.55 -49.9 -41.25 -48.7 -40.75 -44.7 -37.6" fill="#353f44" fill-rule="evenodd" stroke="none"/>
      <path d="M-62.05 -31.6 Q-61.5 -32.4 -58.3 -33.65 -56.65 -34.25 -53.0 -33.25 L-49.65 -32.05 -52.45 -32.7 Q-55.6 -33.2 -57.15 -32.35 -58.9 -31.4 -58.6 -30.1 -58.3 -28.9 -56.85 -28.5 L-53.6 -28.2 Q-51.35 -28.3 -49.4 -29.1 -51.1 -28.2 -53.35 -27.75 -57.85 -26.85 -60.7 -29.0 -62.8 -30.6 -62.05 -31.6" fill="#4c4c4c" fill-rule="evenodd" stroke="none"/>
      <path d="M-27.6 -1.3 L-29.2 0.75 Q-30.8 3.2 -30.7 4.8 -30.55 6.65 -29.35 6.9 -28.2 7.1 -27.35 6.05 -26.45 5.0 -25.8 3.45 -25.05 1.55 -24.95 -0.35 L-25.0 0.75 Q-25.05 2.15 -25.35 3.4 -26.3 7.5 -29.25 9.05 -31.35 10.2 -31.95 9.2 -32.35 8.45 -32.2 5.3 -32.1 3.65 -29.8 1.0 L-27.6 -1.3" fill="#4c4c4c" fill-rule="evenodd" stroke="none"/>
      <path d="M-45.15 0.4 Q-44.45 1.3 -43.15 1.1 -41.75 0.95 -40.25 0.2 -38.4 -0.65 -37.05 -2.0 -38.15 -0.7 -39.9 0.5 -43.35 2.9 -46.55 2.05 -48.9 1.5 -48.65 0.35 -48.45 -0.55 -46.2 -2.75 -45.0 -3.9 -41.55 -4.3 L-38.3 -4.5 -40.95 -4.05 Q-43.75 -3.35 -44.75 -2.05 -45.9 -0.6 -45.15 0.4" fill="#4c4c4c" fill-rule="evenodd" stroke="none"/>
      <path d="M-34.5 -1.25 L-36.65 0.3 Q-38.85 2.15 -39.2 3.8 -39.6 5.6 -38.45 6.15 -37.45 6.65 -36.35 5.9 -35.2 5.1 -34.15 3.8 -32.9 2.2 -32.3 0.35 -32.65 2.05 -33.7 3.9 -35.75 7.55 -39.0 8.25 -41.35 8.75 -41.6 7.65 -41.85 6.8 -40.8 3.8 -40.25 2.25 -37.35 0.35 L-34.5 -1.25" fill="#4c4c4c" fill-rule="evenodd" stroke="none"/>
      <path d="M-64.3 -36.45 L-69.6 -38.05 -78.75 -38.35 Q-82.3 -37.05 -81.95 -34.8 -81.6 -32.75 -78.95 -31.85 -76.2 -30.9 -72.65 -30.65 -68.35 -30.4 -64.45 -31.4 -67.85 -30.2 -72.3 -29.9 -81.15 -29.25 -86.3 -33.4 -90.05 -36.45 -88.4 -38.0 -87.15 -39.2 -80.7 -40.7 -77.35 -41.45 -70.45 -39.0 L-64.3 -36.45" fill="#4c4c4c" fill-rule="evenodd" stroke="none"/>
      <path d="M-73.25 -26.55 Q-69.85 -27.8 -62.3 -26.45 -58.5 -25.8 -55.4 -24.85 L-61.2 -25.65 Q-67.65 -26.15 -70.85 -24.5 -74.4 -22.7 -73.7 -20.5 -73.4 -19.6 -72.4 -18.95 -71.4 -18.25 -70.1 -18.05 -67.05 -17.55 -63.35 -17.9 -58.75 -18.3 -54.85 -19.85 -58.2 -18.2 -62.85 -17.15 -72.0 -15.15 -78.0 -18.45 -82.4 -20.9 -80.9 -22.7 -79.75 -24.05 -73.25 -26.55" fill="#4c4c4c" fill-rule="evenodd" stroke="none"/>
      <path d="M-63.2 -17.05 Q-60.5 -18.5 -54.05 -18.15 L-48.1 -17.55 Q-50.3 -17.75 -53.05 -17.6 -58.5 -17.3 -61.0 -15.6 -63.8 -13.7 -62.95 -11.95 -62.2 -10.35 -59.65 -10.3 L-53.95 -10.85 Q-50.2 -11.7 -47.05 -13.4 -49.75 -11.65 -53.5 -10.3 -60.95 -7.6 -66.35 -9.75 -70.3 -11.3 -69.2 -13.0 -68.4 -14.3 -63.2 -17.05" fill="#4c4c4c" fill-rule="evenodd" stroke="none"/>
      <path d="M-24.4 56.0 Q-25.55 55.6 -26.1 54.7 -26.7 53.7 -26.45 52.15 -26.2 50.45 -24.9 49.55 -23.85 48.8 -22.2 48.75 L-19.65 48.95 -19.45 47.15 -18.95 43.55 -18.45 41.65 Q-18.2 41.0 -17.7 40.7 -17.2 40.35 -16.6 40.55 L-15.5 40.55 -13.85 40.55 -12.8 40.65 Q-12.2 40.85 -11.9 41.35 -11.7 41.8 -11.85 42.3 L-12.45 46.65 -12.75 50.6 Q-9.8 51.7 -7.25 53.15 L-4.45 55.05 Q-3.05 56.2 -2.55 57.35 -2.0 58.65 -2.55 59.85 -3.35 61.75 -5.0 62.35 -6.4 62.85 -8.0 62.35 L-9.2 61.85 Q-9.15 62.75 -9.45 63.55 -10.05 65.1 -11.65 65.6 -13.0 66.1 -14.45 65.6 -16.0 65.15 -16.95 63.9 -18.05 62.45 -17.85 60.6 -17.7 59.1 -18.9 57.7 L-20.5 56.3 -21.8 56.25 -24.4 56.0" fill="#7d503e" fill-rule="evenodd" stroke="none"/>
      <path d="M-24.3 51.4 L-24.15 54.0 -26.95 54.1 -28.1 54.85 Q-28.2 52.7 -26.25 51.85 -25.3 51.4 -24.3 51.4" fill="#3b2216" fill-rule="evenodd" stroke="none"/>
      <path d="M-13.6 46.85 Q-14.05 51.3 -13.7 51.4 -9.55 52.85 -6.55 54.8 -2.65 57.35 -3.5 59.3 -4.7 62.0 -7.5 61.2 -8.55 60.9 -9.45 60.15 -10.35 59.4 -10.65 58.65 -11.1 57.4 -12.7 56.3 L-14.25 55.45 -13.5 56.25 -11.9 58.15 Q-9.7 61.2 -10.45 63.05 -10.85 64.1 -11.95 64.5 L-14.15 64.4 -16.0 63.1 Q-16.75 62.05 -16.6 60.7 -16.4 58.7 -17.85 56.95 -18.7 55.95 -19.85 55.2 L-21.3 55.0 -23.25 54.95 Q-25.6 54.65 -25.25 52.3 -24.85 49.9 -21.95 49.85 L-18.75 50.15 -18.05 45.7 Q-17.5 41.35 -16.8 41.6 L-14.6 41.6 -12.85 41.85 -13.6 46.85" fill="#ffd343" fill-rule="evenodd" stroke="none"/>
      <path d="M-14.0 63.3 Q-14.3 62.75 -14.05 62.3 -13.8 61.9 -13.3 61.75 -11.9 61.3 -11.45 62.5 -11.15 63.3 -12.05 65.6 L-13.0 67.65 -13.2 66.0 Q-13.5 64.15 -14.0 63.3" fill="#3b2216" fill-rule="evenodd" stroke="none"/>
      <path d="M-3.1 61.8 Q-3.15 63.05 -4.0 64.4 -4.1 63.6 -4.5 62.75 -5.2 60.95 -6.45 60.35 -7.0 60.1 -7.0 59.55 -7.0 59.0 -6.6 58.55 -6.15 58.1 -5.55 58.1 -4.9 58.05 -4.25 58.75 -2.95 60.05 -3.1 61.8" fill="#3b2216" fill-rule="evenodd" stroke="none"/>
      <path d="M-10.5 58.95 L-11.1 57.75 Q-11.35 57.3 -11.1 56.7 L-10.8 56.25 Q-11.0 56.95 -10.8 58.0 L-10.5 58.95" fill="#7d503e" fill-rule="evenodd" stroke="none"/>
      <path d="M-16.6 60.85 L-16.6 59.6 -16.15 58.8 -15.8 58.6 Q-16.45 59.65 -16.6 60.85" fill="#7d503e" fill-rule="evenodd" stroke="none"/>
      <path d="M-7.05 54.45 L-8.25 54.1 -10.15 54.15 -9.8 53.9 -8.55 53.6 -7.05 54.45" fill="#7d503e" fill-rule="evenodd" stroke="none"/>
      <path d="M-20.1 55.1 L-20.95 54.95 Q-21.7 54.25 -21.85 53.55 L-21.85 53.0 Q-21.8 53.85 -20.95 54.55 L-20.1 55.1" fill="#7d503e" fill-rule="evenodd" stroke="none"/>
      <path d="M-13.7 51.4 L-12.6 51.75 -14.25 51.8 -15.5 52.0 Q-15.4 51.7 -14.55 51.55 L-13.7 51.4" fill="#7d503e" fill-rule="evenodd" stroke="none"/>
      <path d="M-21.6 26.5 Q-19.15 24.1 -14.2 23.55 -11.7 23.3 -9.7 23.5 -7.45 23.95 -6.4 24.75 -5.25 25.6 -5.1 27.0 -4.65 32.7 -6.65 38.85 -9.1 46.25 -13.75 47.8 -18.5 49.35 -20.75 48.9 -22.15 48.6 -22.75 47.6 L-25.0 47.8 Q-26.3 47.5 -26.75 46.35 -27.3 45.0 -26.25 42.65 L-27.85 42.65 -28.9 42.15 -29.45 41.2 Q-29.7 40.3 -29.05 39.1 -28.25 37.6 -25.95 35.25 L-24.65 33.95 Q-25.45 33.55 -25.75 32.75 -26.05 31.8 -25.1 30.5 L-21.6 26.5" fill="#1e3039" fill-rule="evenodd" stroke="none"/>
      <path d="M-20.7 26.65 Q-19.0 24.7 -16.35 23.7 -14.05 22.85 -11.5 22.95 -9.1 23.0 -7.5 23.85 -5.8 24.7 -5.7 25.95 -5.25 31.3 -7.4 37.65 -9.9 44.95 -14.0 46.35 -19.75 48.25 -21.15 47.1 -21.6 46.7 -21.55 46.1 L-21.45 45.55 Q-26.45 47.65 -25.3 44.1 L-24.05 41.45 -23.2 40.15 Q-30.75 42.95 -26.8 38.05 L-23.35 34.4 -21.35 32.6 Q-24.45 32.7 -24.35 31.75 -24.3 30.7 -20.7 26.65" fill="#3d4750" fill-rule="evenodd" stroke="none"/>
      <path d="M-18.05 26.75 L-19.3 27.45 Q-20.6 28.3 -20.75 29.2 -20.95 30.2 -20.3 30.6 L-19.0 30.65 -17.75 29.7 Q-17.0 28.9 -16.65 27.9 L-16.85 28.5 -17.45 29.8 Q-18.65 31.7 -20.55 31.8 -21.95 31.85 -22.15 31.15 -22.25 30.65 -21.7 29.05 -21.4 28.2 -19.7 27.4 -18.8 27.0 -18.05 26.75" fill="#4c5358" fill-rule="evenodd" stroke="none"/>
      <path d="M-16.2 31.4 L-17.4 32.0 Q-18.55 32.8 -18.7 33.6 -18.9 34.55 -18.3 34.9 L-17.1 35.0 -15.95 34.1 -15.25 33.15 -15.7 34.15 Q-16.75 35.9 -18.55 36.0 -19.85 36.05 -20.0 35.4 -20.1 34.95 -19.6 33.5 -19.3 32.7 -17.75 32.0 L-16.2 31.4" fill="#4c5358" fill-rule="evenodd" stroke="none"/>
      <path d="M-24.5 36.25 Q-23.85 35.35 -21.65 34.55 L-19.55 33.9 -21.2 34.6 Q-22.95 35.45 -23.55 36.4 -24.15 37.45 -23.6 37.95 L-22.25 38.05 -20.45 37.05 Q-19.35 36.3 -18.6 35.25 L-19.0 35.8 -20.2 37.2 Q-22.25 39.15 -24.4 39.2 -25.95 39.2 -25.9 38.5 -25.8 37.9 -24.5 36.25" fill="#4c5358" fill-rule="evenodd" stroke="none"/>
      <path d="M-19.15 42.1 Q-20.8 44.5 -22.9 44.95 -24.4 45.25 -24.45 44.55 -24.5 44.0 -23.6 42.05 -23.1 41.05 -21.1 39.8 L-19.2 38.75 -20.7 39.75 Q-22.25 41.0 -22.6 42.05 -23.0 43.2 -22.35 43.55 L-21.0 43.4 -19.45 42.05 Q-18.5 41.0 -17.95 39.8 L-18.25 40.5 -19.15 42.1" fill="#4c5358" fill-rule="evenodd" stroke="none"/>
    </g>
  </defs>
</svg>
