<?xml version="1.0" encoding="UTF-8" standalone="no"?>
<svg xmlns:ffdec="https://www.free-decompiler.com/flash" xmlns:xlink="http://www.w3.org/1999/xlink" ffdec:objectType="frame" height="125.0px" width="135.85px" xmlns="http://www.w3.org/2000/svg">
  <g transform="matrix(1.0, 0.0, 0.0, 1.0, 97.2, 57.35)">
    <use ffdec:characterId="467" height="108.7" transform="matrix(1.0, 0.0, 0.0, 1.0, -90.95, -42.35)" width="109.3" xlink:href="#shape0"/>
  </g>
  <defs>
    <g id="shape0" transform="matrix(1.0, 0.0, 0.0, 1.0, 90.95, 42.35)">
      <path d="M9.85 43.55 Q11.45 44.0 12.7 44.6 L14.8 46.2 Q15.55 47.2 15.35 48.4 15.05 50.15 13.75 51.05 12.7 51.75 11.2 51.7 L10.05 51.5 Q10.3 52.25 10.15 53.0 9.95 54.45 8.7 55.25 7.65 55.95 6.25 55.85 4.85 55.75 3.75 54.9 2.5 53.9 2.3 52.25 2.15 50.9 0.8 49.95 0.05 49.4 -0.9 49.1 L-2.05 49.3 -4.3 49.6 Q-5.4 49.55 -6.1 48.85 -6.75 48.15 -6.9 46.75 -7.0 45.25 -6.1 44.2 -5.35 43.3 -3.95 42.9 L-1.7 42.55 -1.9 40.95 -2.25 37.75 -2.2 36.0 -1.75 35.05 Q-1.4 34.65 -0.85 34.65 L0.1 34.4 2.5 33.95 Q3.1 34.0 3.35 34.4 3.65 34.75 3.6 35.2 L4.0 39.05 4.6 42.55 9.85 43.55" fill="#7d503e" fill-rule="evenodd" stroke="none"/>
      <path d="M-6.8 46.4 Q-6.05 45.85 -5.2 45.65 L-4.5 47.85 Q-5.8 47.65 -6.9 48.5 L-7.75 49.4 Q-8.3 47.55 -6.8 46.4" fill="#3b2216" fill-rule="evenodd" stroke="none"/>
      <path d="M8.2 54.3 Q7.35 54.8 6.3 54.75 5.2 54.65 4.4 53.95 3.55 53.25 3.4 52.05 3.15 50.3 1.55 49.1 0.6 48.35 -0.55 48.0 L-1.85 48.1 -3.55 48.45 Q-5.65 48.75 -5.8 46.6 -5.95 44.45 -3.5 43.8 L-0.65 43.4 Q-0.5 43.35 -1.0 39.4 -1.45 35.55 -0.8 35.6 L1.1 35.15 2.65 35.05 Q2.55 35.65 3.1 39.45 3.6 43.4 3.95 43.4 7.8 43.8 10.8 44.85 14.75 46.25 14.4 48.1 13.9 50.7 11.35 50.6 L9.4 50.05 8.1 49.05 Q7.45 48.1 5.8 47.45 L4.3 47.05 6.9 48.85 Q9.45 51.05 9.2 52.8 9.05 53.8 8.2 54.3" fill="#ffd343" fill-rule="evenodd" stroke="none"/>
      <path d="M7.45 55.9 L6.15 53.75 Q5.8 53.35 5.95 52.9 6.05 52.5 6.45 52.25 7.55 51.55 8.2 52.5 8.6 53.15 8.35 55.3 L7.95 57.3 7.45 55.9" fill="#3b2216" fill-rule="evenodd" stroke="none"/>
      <path d="M12.05 49.65 Q11.55 49.55 11.45 49.05 11.3 48.6 11.6 48.1 12.25 46.9 13.65 47.75 15.05 48.65 15.3 50.2 15.45 51.3 15.05 52.6 L14.25 51.25 Q13.25 49.85 12.05 49.65" fill="#3b2216" fill-rule="evenodd" stroke="none"/>
      <path d="M8.3 49.25 L7.5 48.35 Q7.2 48.0 7.3 47.45 L7.45 47.0 Q7.45 47.65 7.85 48.5 L8.3 49.25" fill="#7d503e" fill-rule="evenodd" stroke="none"/>
      <path d="M3.4 52.15 L3.15 51.1 Q3.15 50.65 3.4 50.35 L3.65 50.1 Q3.3 51.1 3.4 52.15" fill="#7d503e" fill-rule="evenodd" stroke="none"/>
      <path d="M10.3 44.65 L9.2 44.6 Q8.0 44.6 7.55 45.05 L7.85 44.75 Q8.2 44.4 8.85 44.25 L10.3 44.65" fill="#7d503e" fill-rule="evenodd" stroke="none"/>
      <path d="M-2.65 47.0 L-2.75 46.55 Q-2.5 47.25 -1.6 47.65 L-0.8 47.95 -1.6 48.0 -2.65 47.0" fill="#7d503e" fill-rule="evenodd" stroke="none"/>
      <path d="M3.95 43.4 L5.0 43.5 Q4.65 43.45 3.6 43.9 L2.5 44.3 Q2.55 44.05 3.25 43.7 L3.95 43.4" fill="#7d503e" fill-rule="evenodd" stroke="none"/>
      <path d="M-2.45 19.95 Q-0.1 19.1 2.05 18.6 L5.0 18.9 Q5.4 19.1 5.45 19.7 6.15 29.7 5.6 34.3 5.0 39.35 2.7 40.65 -0.4 42.4 -2.1 42.4 -3.05 42.4 -3.65 41.9 -5.05 42.85 -6.05 42.85 -7.05 42.85 -7.6 42.1 -8.35 41.05 -7.95 38.6 -9.1 39.2 -9.8 39.2 -10.8 39.2 -11.25 38.4 -11.6 37.75 -11.4 36.65 -11.1 35.2 -9.75 32.55 L-8.8 30.9 Q-9.75 30.85 -10.25 30.15 -10.65 29.5 -10.0 28.0 L-7.9 23.7 Q-7.05 21.75 -2.45 19.95" fill="#1e3039" fill-rule="evenodd" stroke="none"/>
      <path d="M5.1 19.65 Q5.65 27.15 5.3 31.75 4.75 38.45 2.35 39.8 -1.2 41.8 -2.55 41.3 L-3.15 40.75 -3.2 40.4 Q-6.9 43.5 -6.85 40.2 -6.85 39.15 -6.45 37.6 L-6.1 36.25 Q-11.75 40.6 -9.7 35.45 L-7.7 31.45 -6.45 29.4 -9.25 29.45 Q-9.45 28.55 -7.5 24.15 -6.55 22.05 -4.4 20.5 -2.55 19.15 -0.25 18.55 L3.45 18.25 Q5.05 18.55 5.1 19.65" fill="#3d4750" fill-rule="evenodd" stroke="none"/>
      <path d="M1.65 38.05 L2.0 37.0 1.85 38.05 Q1.4 39.8 -0.05 40.3 L-1.45 40.2 -1.6 38.45 Q-1.55 37.75 -0.4 36.7 L0.7 35.8 -0.1 36.65 Q-0.9 37.6 -0.85 38.35 -0.75 39.15 -0.15 39.35 0.45 39.5 0.9 39.1 L1.65 38.05" fill="#4c5358" fill-rule="evenodd" stroke="none"/>
      <path d="M-5.55 37.9 Q-5.4 36.95 -4.0 35.35 L-2.65 33.95 -3.65 35.2 Q-4.65 36.65 -4.7 37.65 -4.75 38.7 -4.1 38.85 -3.5 39.0 -3.0 38.35 -2.45 37.75 -2.0 36.8 L-1.45 35.3 -1.75 36.8 Q-2.5 39.25 -4.2 40.15 L-5.65 40.25 Q-5.8 39.8 -5.55 37.9" fill="#4c5358" fill-rule="evenodd" stroke="none"/>
      <path d="M0.65 -19.4 L1.1 -19.6 2.5 -20.3 3.9 -20.5 5.1 -20.15 5.4 -19.75 Q5.7 -18.95 5.45 -16.05 5.15 -12.9 4.4 -11.5 3.9 -8.8 -1.55 -1.55 L-7.25 5.6 -7.35 5.75 Q-8.4 6.55 -11.5 7.25 L-17.15 8.15 -22.75 8.5 Q-26.8 8.5 -29.0 7.65 -31.5 6.75 -33.2 5.45 -35.8 3.45 -36.55 0.55 -37.1 -1.75 -36.45 -4.45 -35.85 -7.15 -34.35 -9.55 -39.6 -14.85 -40.65 -19.15 -41.6 -22.9 -39.25 -25.85 -37.0 -28.8 -31.85 -30.6 L-28.25 -31.6 Q-28.95 -34.9 -28.4 -37.1 -27.65 -39.8 -25.0 -40.4 -22.8 -40.85 -20.15 -39.8 -17.75 -38.85 -14.95 -36.7 -8.05 -31.4 0.65 -19.4" fill="#1e3039" fill-rule="evenodd" stroke="none"/>
      <path d="M0.35 -18.5 Q0.6 -18.1 2.5 -19.1 4.35 -20.05 4.55 -19.6 4.8 -18.9 4.55 -16.05 4.25 -12.9 3.55 -11.65 3.15 -9.05 -2.45 -1.65 L-8.0 5.3 Q-9.75 6.65 -16.95 7.45 L-27.75 7.05 Q-35.75 4.1 -34.85 -3.05 -34.55 -5.3 -33.45 -7.7 L-32.35 -9.65 Q-43.65 -20.75 -36.1 -27.05 -33.7 -29.05 -29.75 -30.25 L-26.25 -31.1 Q-27.4 -35.85 -26.05 -38.2 -24.7 -40.55 -21.25 -39.45 -17.5 -38.35 -12.3 -33.45 -6.45 -27.95 0.35 -18.5" fill="#30353a" fill-rule="evenodd" stroke="none"/>
      <path d="M-9.3 -21.85 Q-8.2 -21.9 -5.1 -20.95 -3.45 -20.45 -2.4 -18.35 -1.9 -17.3 -1.7 -16.35 L-2.65 -17.9 Q-3.95 -19.55 -5.7 -19.9 L-8.85 -19.65 Q-9.9 -19.0 -9.45 -18.2 -9.05 -17.35 -7.9 -16.55 -6.55 -15.55 -4.6 -15.0 -6.45 -15.4 -8.2 -16.25 -11.75 -17.95 -11.2 -20.2 -10.8 -21.8 -9.3 -21.85" fill="#4c4c4c" fill-rule="evenodd" stroke="none"/>
      <path d="M-19.25 3.4 L-15.95 3.65 -18.65 3.55 Q-21.65 3.65 -22.95 4.25 -24.4 4.9 -23.9 5.55 -23.4 6.1 -22.05 6.15 L-18.9 6.0 Q-16.85 5.75 -15.25 5.15 L-18.65 6.2 Q-22.65 7.1 -25.7 6.3 -27.9 5.7 -27.4 5.1 -27.0 4.65 -24.25 3.7 L-19.25 3.4" fill="#4c4c4c" fill-rule="evenodd" stroke="none"/>
      <path d="M-25.75 -5.3 Q-24.05 -5.1 -21.7 -3.7 L-19.65 -2.3 -21.5 -3.35 Q-23.75 -4.35 -25.45 -4.4 -27.35 -4.45 -27.75 -3.8 -28.1 -3.2 -27.15 -2.65 -26.2 -2.1 -24.7 -1.65 L-20.95 -0.9 -24.75 -1.35 Q-28.8 -2.15 -30.0 -3.9 -30.9 -5.15 -29.75 -5.4 L-25.75 -5.3" fill="#4c4c4c" fill-rule="evenodd" stroke="none"/>
      <path d="M-20.1 0.5 L-22.65 0.05 Q-25.55 -0.35 -27.1 0.0 -28.85 0.45 -28.65 1.15 -28.5 1.75 -27.2 2.0 L-24.15 2.3 -20.15 2.05 -23.95 2.55 Q-28.25 2.8 -30.75 1.6 -32.55 0.7 -31.8 0.2 L-28.05 -0.7 -23.1 -0.25 -20.1 0.5" fill="#4c4c4c" fill-rule="evenodd" stroke="none"/>
      <path d="M-9.5 -28.2 Q-8.5 -26.25 -8.0 -24.55 -8.6 -25.9 -9.75 -27.5 -12.1 -30.65 -14.95 -31.75 -18.15 -32.95 -19.8 -32.05 -20.5 -31.7 -20.7 -31.05 -20.9 -30.4 -20.55 -29.7 -19.7 -28.15 -17.8 -26.5 -15.5 -24.4 -12.35 -22.95 -15.35 -24.15 -18.25 -26.05 -24.05 -29.85 -23.55 -33.6 -23.2 -36.25 -20.9 -36.05 -19.15 -35.85 -14.15 -33.4 -11.45 -32.15 -9.5 -28.2" fill="#263037" fill-rule="evenodd" stroke="none"/>
      <path d="M-10.7 -15.35 Q-11.75 -16.7 -13.45 -18.25 -16.85 -21.3 -20.1 -22.25 -23.75 -23.25 -25.15 -22.2 -25.75 -21.8 -25.7 -21.1 -25.7 -20.45 -25.1 -19.75 -23.75 -18.25 -21.25 -16.65 -18.2 -14.7 -14.6 -13.45 -18.0 -14.4 -21.55 -16.2 -28.7 -19.7 -29.45 -23.5 -30.0 -26.3 -27.55 -26.2 -25.75 -26.15 -19.85 -24.0 -16.75 -22.85 -13.4 -19.0 L-10.7 -15.35" fill="#263037" fill-rule="evenodd" stroke="none"/>
      <path d="M-21.3 -16.7 Q-18.65 -15.75 -15.85 -12.45 L-13.55 -9.35 -15.85 -11.8 Q-18.75 -14.4 -21.5 -15.2 -24.6 -16.05 -25.75 -15.2 -26.85 -14.4 -25.75 -13.15 -24.6 -11.85 -22.45 -10.45 -19.95 -8.85 -16.85 -7.75 -19.75 -8.6 -22.75 -10.1 -28.75 -13.05 -29.4 -16.3 -29.85 -18.65 -27.8 -18.55 -26.25 -18.5 -21.3 -16.7" fill="#263037" fill-rule="evenodd" stroke="none"/>
      <path d="M-60.65 46.95 L-60.0 46.4 Q-60.8 46.85 -62.05 47.25 L-66.95 47.8 Q-69.6 47.6 -70.75 46.7 -71.8 45.85 -71.35 44.65 -70.85 43.5 -69.05 42.4 -67.1 41.2 -64.2 40.45 -55.6 38.25 -47.5 32.2 -43.45 29.2 -41.15 26.6 L-37.75 25.9 -31.3 25.65 Q-22.45 26.65 -24.5 35.2 -25.75 40.3 -31.25 46.1 -33.6 48.55 -35.75 50.0 -38.0 51.5 -39.3 51.35 -41.0 51.15 -40.95 49.0 L-40.7 47.55 -40.5 46.9 Q-42.25 49.85 -44.75 51.3 -47.35 52.85 -50.25 52.4 -52.4 52.05 -50.7 49.15 L-49.3 47.2 -49.2 47.1 Q-51.1 49.1 -54.3 50.35 -58.5 52.05 -61.55 50.85 -63.35 50.15 -61.85 48.2 L-60.65 46.95" fill="#1e3039" fill-rule="evenodd" stroke="none"/>
      <path d="M-48.35 31.15 Q-45.95 29.35 -43.8 27.35 L-42.15 25.7 -41.95 25.5 -41.75 25.4 -38.85 24.7 -33.6 24.2 Q-26.95 24.2 -24.3 27.55 -22.0 30.5 -23.25 35.55 -24.0 38.7 -26.45 42.3 L-30.05 46.8 -33.85 50.3 Q-37.0 52.7 -39.05 52.7 L-39.45 52.7 Q-41.0 52.5 -41.75 51.25 L-41.95 50.9 Q-43.5 52.35 -45.25 53.1 -47.05 53.85 -48.95 53.85 L-50.45 53.7 Q-52.15 53.45 -52.6 52.15 L-52.8 51.2 Q-55.95 52.7 -58.85 52.7 -60.6 52.7 -62.05 52.1 L-63.45 51.05 -63.85 50.0 -63.8 49.05 -66.0 49.2 -67.05 49.15 Q-70.2 48.9 -71.7 47.65 -72.7 46.8 -72.8 45.6 -72.95 43.7 -70.7 41.9 -68.45 40.15 -64.5 39.15 -56.25 37.05 -48.35 31.15" fill="#1e3039" fill-rule="evenodd" stroke="none"/>
      <path d="M-60.55 46.45 L-59.9 45.95 -61.95 46.75 Q-64.45 47.5 -66.85 47.35 -69.5 47.1 -70.65 46.2 -71.7 45.4 -71.2 44.2 -70.75 43.0 -68.9 41.9 -66.95 40.7 -64.05 39.95 -55.45 37.75 -47.4 31.7 -43.35 28.7 -41.0 26.1 -40.35 25.8 -37.65 25.4 L-31.2 25.2 Q-22.35 26.2 -24.4 34.75 -25.65 39.85 -31.15 45.6 -33.45 48.05 -35.65 49.5 -37.9 51.0 -39.15 50.85 -40.9 50.65 -40.8 48.5 L-40.6 47.05 -40.4 46.4 Q-42.1 49.4 -44.6 50.85 -47.2 52.35 -50.15 51.9 -52.3 51.6 -50.55 48.65 L-49.15 46.7 -49.1 46.6 Q-51.0 48.6 -54.2 49.9 -58.4 51.55 -61.45 50.35 -63.25 49.65 -61.75 47.7 L-60.55 46.45" fill="#dcf0fe" fill-rule="evenodd" stroke="none"/>
      <path d="M-58.35 38.8 L-62.9 40.75 Q-67.4 42.95 -67.1 44.2 -66.8 45.4 -61.8 45.15 L-56.9 44.6 -63.5 45.8 Q-70.15 46.6 -70.45 45.0 -70.7 43.35 -64.55 40.9 -61.5 39.7 -58.35 38.8" fill="#a9b3be" fill-rule="evenodd" stroke="none"/>
      <path d="M-50.8 40.0 L-54.6 43.2 Q-58.25 46.6 -57.6 47.7 -56.95 48.75 -52.25 47.05 -49.9 46.15 -47.7 45.1 -50.6 46.75 -53.7 48.15 -59.8 50.9 -60.55 49.4 -61.25 47.95 -56.1 43.8 L-52.5 41.1 -50.8 40.0" fill="#a9b3be" fill-rule="evenodd" stroke="none"/>
      <path d="M-43.65 40.7 L-46.0 44.05 Q-48.2 47.55 -47.3 48.5 -46.4 49.5 -42.8 47.5 L-39.35 45.3 -40.7 46.4 -43.7 48.65 Q-48.3 51.75 -49.4 50.4 -50.45 49.0 -47.15 44.75 L-44.8 41.9 -43.65 40.7" fill="#a9b3be" fill-rule="evenodd" stroke="none"/>
      <path d="M-35.65 38.35 L-37.15 42.2 Q-38.4 46.15 -37.25 46.85 -36.15 47.55 -33.1 44.75 L-30.35 41.75 -31.35 43.15 -33.75 46.1 Q-37.4 50.2 -38.8 49.15 -40.2 48.1 -38.05 43.15 L-36.45 39.8 -35.65 38.35" fill="#a9b3be" fill-rule="evenodd" stroke="none"/>
      <path d="M-42.9 37.5 Q-42.55 35.75 -39.95 33.1 L-37.5 30.8 -39.35 32.9 Q-41.25 35.35 -41.45 37.1 -41.65 39.0 -40.55 39.3 -39.55 39.55 -38.6 38.55 L-36.7 35.85 Q-35.65 33.95 -35.25 32.0 L-35.45 33.1 -36.25 35.85 Q-37.9 40.1 -40.85 41.6 -43.0 42.7 -43.35 41.6 -43.65 40.75 -42.9 37.5" fill="#a9b3be" fill-rule="evenodd" stroke="none"/>
      <path d="M-27.35 32.0 L-27.8 34.2 Q-28.85 37.6 -31.25 38.85 -32.95 39.75 -33.3 38.85 -33.6 38.2 -33.25 35.65 -33.05 34.25 -31.1 32.1 L-29.2 30.25 -30.6 31.95 Q-32.0 33.9 -32.05 35.25 -32.05 36.8 -31.1 37.0 -30.3 37.2 -29.55 36.35 -28.75 35.5 -28.15 34.2 -27.45 32.7 -27.25 31.15 L-27.35 32.0" fill="#a9b3be" fill-rule="evenodd" stroke="none"/>
      <path d="M-50.1 35.1 Q-49.05 33.35 -45.4 31.2 L-42.0 29.4 -44.7 31.15 Q-47.6 33.25 -48.5 35.0 -49.45 36.95 -48.5 37.55 -47.6 38.05 -46.2 37.25 -44.75 36.35 -43.25 34.9 -41.45 33.1 -40.2 31.1 L-40.9 32.3 -42.85 35.0 Q-46.15 39.05 -49.75 39.9 -52.3 40.5 -52.25 39.3 -52.15 38.35 -50.1 35.1" fill="#a9b3be" fill-rule="evenodd" stroke="none"/>
      <path d="M7.85 -33.3 L8.55 -31.5 8.5 -30.7 Q8.15 -29.75 7.6 -25.95 9.95 -24.4 10.1 -18.9 10.2 -15.95 9.8 -13.05 L9.35 -12.2 Q8.95 -11.9 8.45 -11.9 L8.3 -11.9 7.85 -9.05 7.4 -8.25 Q7.05 -7.95 6.6 -7.95 8.1 -1.1 8.35 3.7 8.75 10.75 7.3 19.9 L6.4 23.5 Q4.55 28.65 -3.6 34.35 -10.75 39.4 -16.5 41.0 -19.25 41.75 -19.95 40.5 L-20.25 39.25 -20.3 37.85 Q-21.7 38.8 -26.3 39.0 -31.0 39.2 -31.85 38.2 -32.05 37.95 -31.6 36.75 L-30.95 35.0 Q-33.0 35.85 -35.95 36.15 L-39.9 36.45 Q-40.8 36.45 -41.3 36.1 L-41.95 35.35 Q-42.4 34.7 -40.05 32.55 L-37.0 29.4 -38.7 29.55 Q-41.55 29.55 -44.05 28.3 L-45.45 27.15 -46.55 25.8 Q-47.05 24.7 -45.1 23.75 L-43.25 22.85 -41.6 21.75 -38.65 18.6 Q-36.9 16.25 -36.2 13.75 -33.35 3.35 -31.4 -2.4 -29.05 -9.4 -26.8 -13.15 L-27.3 -13.6 Q-28.3 -15.5 -27.85 -18.75 L-28.05 -18.75 -28.6 -18.85 -29.2 -19.35 -29.4 -20.15 Q-29.2 -23.2 -27.7 -27.2 L-27.95 -27.25 -28.6 -27.8 -28.85 -28.65 Q-28.7 -30.85 -27.05 -33.65 L-27.15 -33.75 -27.65 -34.45 -27.6 -35.25 Q-26.95 -37.05 -24.45 -38.9 L-24.75 -39.5 -24.65 -40.4 Q-24.45 -40.8 -24.0 -41.0 L-21.4 -41.75 -13.35 -42.35 -10.5 -42.3 Q-4.5 -42.1 -1.55 -40.95 L-0.8 -41.15 -0.5 -41.15 Q0.45 -40.95 1.85 -40.2 3.3 -39.5 4.2 -38.8 5.65 -37.6 6.35 -35.35 7.25 -34.8 7.85 -33.3" fill="#1e3039" fill-rule="evenodd" stroke="none"/>
      <path d="M-17.6 -16.8 L-6.55 -17.15 3.95 -15.7 5.6 -8.0 6.95 -0.6 Q8.05 8.1 6.3 19.4 4.9 28.35 -7.0 34.95 -12.95 38.25 -18.65 39.8 -18.3 38.7 -19.05 36.7 L-19.9 35.0 Q-21.65 37.3 -26.2 37.6 L-29.1 37.55 -30.3 37.4 Q-29.65 36.3 -29.05 34.05 L-28.65 32.05 Q-30.85 34.0 -35.8 34.6 L-39.0 34.8 -40.35 34.8 Q-37.6 33.35 -35.65 30.1 L-34.6 28.0 -34.25 27.15 Q-38.3 28.7 -42.15 27.25 -43.4 26.8 -44.3 26.1 L-44.9 25.5 -43.5 24.85 Q-42.05 24.0 -40.7 22.75 -36.55 19.0 -35.15 13.8 -28.15 -11.6 -22.15 -16.75 -20.3 -18.35 -18.75 -17.7 -18.0 -17.4 -17.6 -16.8" fill="#353f44" fill-rule="evenodd" stroke="none"/>
      <path d="M6.95 -33.0 L7.55 -31.4 6.8 -27.95 6.45 -25.4 Q8.9 -24.85 9.1 -19.15 9.2 -16.25 8.8 -13.5 L8.2 -15.15 7.7 -16.05 Q7.65 -14.1 6.8 -9.55 L5.65 -10.15 5.05 -10.7 Q5.0 -9.05 4.4 -7.6 L3.8 -6.55 Q1.6 -6.9 0.2 -8.8 L-0.5 -10.05 -0.75 -10.6 Q-1.1 -9.8 -2.7 -8.25 -4.25 -8.55 -6.6 -10.15 L-8.65 -11.65 Q-8.9 -11.05 -10.05 -10.45 L-11.15 -9.9 Q-12.7 -9.9 -15.75 -12.05 L-18.5 -14.2 -18.4 -12.45 -18.15 -11.55 Q-20.0 -12.3 -21.75 -14.85 L-23.1 -17.2 Q-23.2 -16.7 -24.5 -15.55 L-25.8 -14.55 Q-26.85 -16.5 -25.85 -20.65 L-25.05 -23.3 -24.65 -24.4 Q-25.05 -23.45 -26.45 -21.8 L-27.75 -20.35 Q-27.55 -23.6 -25.65 -28.15 L-23.8 -32.05 Q-24.45 -32.2 -25.9 -30.5 L-27.15 -28.8 Q-27.05 -30.9 -25.3 -33.7 L-23.6 -36.1 -25.0 -35.65 -26.0 -35.05 Q-25.5 -36.45 -23.25 -38.1 L-21.15 -39.5 Q-21.65 -39.85 -22.45 -40.0 L-23.1 -40.05 -22.45 -40.3 -20.3 -40.75 -10.25 -41.2 Q-4.25 -41.0 -1.55 -39.85 -0.25 -39.35 -0.05 -38.8 L-0.5 -40.1 1.6 -39.25 3.65 -38.0 Q4.6 -37.25 5.15 -35.9 L5.5 -34.65 Q6.25 -34.65 6.95 -33.0" fill="#dcf0fe" fill-rule="evenodd" stroke="none"/>
      <path d="M-0.95 -29.0 Q-0.3 -27.75 -0.6 -26.2 -0.9 -24.75 -1.85 -23.7 -2.9 -22.65 -4.1 -22.7 L-6.7 -23.05 Q-9.5 -23.15 -10.8 -22.05 -13.2 -20.0 -16.75 -19.7 L-18.95 -19.7 -19.85 -19.8 -18.75 -21.85 Q-17.35 -24.0 -15.85 -24.55 -16.15 -24.85 -16.8 -25.15 L-19.5 -25.65 -18.15 -27.05 Q-16.45 -28.5 -14.5 -28.8 -14.25 -29.15 -14.4 -29.55 -14.7 -30.35 -16.6 -30.55 -17.75 -30.7 -18.9 -31.8 L-19.85 -32.8 -18.75 -32.5 Q-17.25 -32.35 -15.0 -33.25 -12.6 -34.2 -9.7 -33.15 L-6.95 -32.0 -3.55 -30.85 Q-1.75 -30.35 -0.95 -29.0" fill="#b8cddf" fill-rule="evenodd" stroke="none"/>
      <path d="M-4.2 -31.55 Q-2.3 -31.45 -0.3 -32.45 0.85 -33.05 4.0 -26.15 L6.95 -19.1 Q6.75 -17.55 4.85 -16.8 L2.95 -16.4 Q3.6 -17.25 4.2 -20.1 3.75 -18.25 0.7 -16.5 L-2.35 -15.15 Q-1.5 -16.0 -0.55 -17.95 L0.25 -19.75 Q-0.55 -18.6 -2.5 -17.7 L-4.25 -17.05 Q-3.4 -18.0 -3.7 -19.35 L-4.15 -20.5 Q-6.45 -21.7 -5.55 -25.0 L-5.05 -27.05 Q-4.95 -27.9 -5.75 -27.85 -6.6 -27.8 -7.15 -28.45 L-8.0 -30.0 Q-9.25 -32.95 -10.4 -34.0 -6.9 -31.75 -4.2 -31.55" fill="#a69a8c" fill-rule="evenodd" stroke="none"/>
      <path d="M-3.05 -31.7 L-3.15 -30.75 Q-3.5 -29.65 -4.5 -28.95 -6.15 -27.65 -7.9 -28.45 -9.8 -29.25 -9.35 -31.75 -9.05 -33.15 -12.85 -33.05 L-16.7 -32.65 -14.15 -33.6 -10.4 -34.0 -7.7 -32.45 Q-6.15 -31.6 -4.5 -31.55 L-3.05 -31.7" fill="#6a5846" fill-rule="evenodd" stroke="none"/>
      <path d="M-4.65 -30.7 L-5.4 -30.65 -5.65 -29.9 Q-6.0 -28.9 -6.95 -28.55 L-8.65 -28.65 Q-9.6 -29.0 -9.85 -29.85 -10.2 -30.8 -9.5 -31.9 -9.15 -32.45 -11.25 -33.15 L-13.45 -33.75 -11.3 -34.25 Q-10.55 -34.2 -8.85 -33.15 -6.7 -31.75 -4.65 -31.6 L-3.05 -31.7 -3.4 -31.15 Q-3.9 -30.6 -4.65 -30.7" fill="#231f20" fill-rule="evenodd" stroke="none"/>
      <path d="M-26.65 21.25 L-29.1 23.4 Q-31.65 25.95 -32.25 27.8 -32.9 29.9 -31.9 30.35 -30.95 30.7 -29.7 29.65 L-27.1 26.9 Q-25.6 24.85 -24.65 22.7 -25.35 24.7 -26.7 26.95 -29.35 31.45 -32.8 32.8 -35.25 33.8 -35.35 32.6 -35.4 31.65 -33.85 28.15 -33.05 26.3 -29.8 23.6 L-26.65 21.25" fill="#4c4c4c" fill-rule="evenodd" stroke="none"/>
      <path d="M-19.1 10.0 L-17.0 7.8 -18.6 9.75 Q-20.25 12.05 -20.45 13.55 -20.7 15.25 -19.8 15.45 -19.05 15.65 -18.2 14.65 L-16.6 12.2 Q-15.7 10.5 -15.3 8.75 L-15.5 9.7 -16.25 12.15 Q-17.75 16.0 -20.15 17.5 -21.95 18.6 -22.2 17.7 -22.35 16.95 -21.65 14.05 -21.25 12.5 -19.1 10.0" fill="#4c4c4c" fill-rule="evenodd" stroke="none"/>
      <path d="M-32.55 21.7 Q-32.95 23.0 -33.9 24.35 -35.8 27.05 -38.6 27.05 -40.6 27.1 -40.8 26.1 -40.9 25.35 -39.9 23.1 -39.35 21.9 -36.8 20.8 -35.5 20.25 -34.35 19.95 L-36.25 20.9 Q-38.2 22.05 -38.55 23.35 -38.95 24.75 -38.05 25.4 L-36.25 25.55 -34.25 24.2 Q-33.1 23.1 -32.55 21.7" fill="#4c4c4c" fill-rule="evenodd" stroke="none"/>
      <path d="M-5.3 30.8 Q-5.95 30.4 -6.9 28.3 -7.4 27.2 -6.15 24.95 L-4.85 22.9 -5.65 24.65 Q-6.3 26.6 -5.65 27.65 -4.85 28.8 -3.6 28.65 -2.5 28.55 -2.05 27.65 -1.55 26.75 -1.5 25.6 -1.4 24.15 -2.05 22.9 L-1.65 23.65 -1.1 25.45 Q-0.55 28.35 -2.8 30.05 -4.4 31.3 -5.3 30.8" fill="#4c4c4c" fill-rule="evenodd" stroke="none"/>
      <path d="M-6.0 15.3 L-7.35 16.7 Q-8.65 18.3 -8.35 19.5 -8.05 20.85 -6.85 21.15 -5.75 21.4 -5.0 20.75 -4.25 20.05 -3.8 19.0 -3.2 17.7 -3.35 16.3 L-3.25 17.1 Q-3.15 18.1 -3.35 19.0 -3.85 21.9 -6.5 22.75 L-9.1 22.6 Q-9.65 22.0 -9.8 19.7 -9.9 18.5 -7.95 16.8 L-6.0 15.3" fill="#4c4c4c" fill-rule="evenodd" stroke="none"/>
      <path d="M2.95 16.1 L3.95 17.75 Q5.05 20.45 3.3 22.6 1.95 24.2 1.0 23.9 0.2 23.65 -1.15 21.8 -1.85 20.85 -1.15 18.35 L-0.3 16.05 -0.7 17.95 Q-0.95 20.0 -0.05 20.9 0.95 21.85 2.15 21.45 3.2 21.05 3.45 20.1 3.75 19.1 3.55 17.95 3.3 16.55 2.45 15.45 L2.95 16.1" fill="#4c4c4c" fill-rule="evenodd" stroke="none"/>
      <path d="M1.9 -1.05 L2.05 0.1 Q2.3 1.35 3.0 1.7 L4.4 1.6 Q4.95 1.15 4.9 0.55 L4.55 -0.75 3.45 -1.95 3.8 -1.7 4.7 -0.95 Q5.95 0.45 5.3 2.05 4.85 3.25 4.2 3.25 3.7 3.25 2.55 2.45 1.95 2.05 1.85 0.45 L1.9 -1.05" fill="#4c4c4c" fill-rule="evenodd" stroke="none"/>
      <path d="M2.85 1.8 L3.7 3.25 Q4.7 5.75 3.05 7.65 1.9 9.05 1.0 8.75 0.3 8.55 -0.9 6.85 -1.55 6.0 -0.85 3.8 L-0.1 1.7 -0.5 3.4 Q-0.7 5.3 0.1 6.05 1.0 6.95 2.05 6.55 3.05 6.25 3.25 5.4 3.5 4.5 3.35 3.45 3.15 2.2 2.4 1.2 L2.85 1.8" fill="#4c4c4c" fill-rule="evenodd" stroke="none"/>
      <path d="M-1.8 0.1 Q-1.55 2.75 -3.6 4.15 -5.15 5.15 -5.95 4.65 -6.5 4.25 -7.2 2.3 -7.55 1.3 -6.3 -0.65 L-5.0 -2.4 -5.85 -0.9 Q-6.6 0.8 -6.05 1.8 -5.4 2.9 -4.3 2.85 -3.3 2.8 -2.8 2.05 -2.3 1.25 -2.2 0.2 -2.05 -1.05 -2.5 -2.25 L-2.2 -1.55 -1.8 0.1" fill="#4c4c4c" fill-rule="evenodd" stroke="none"/>
      <path d="M-9.35 -7.65 L-9.1 -7.15 -8.85 -5.9 Q-8.65 -3.95 -10.2 -2.9 -11.35 -2.15 -11.95 -2.55 -12.35 -2.85 -12.9 -4.3 -13.15 -5.05 -12.2 -6.5 L-11.25 -7.8 -11.85 -6.65 Q-12.4 -5.4 -12.0 -4.65 -11.55 -3.85 -10.7 -3.9 -9.95 -3.9 -9.6 -4.45 L-9.1 -5.85 Q-9.0 -6.8 -9.35 -7.65" fill="#4c4c4c" fill-rule="evenodd" stroke="none"/>
      <path d="M-7.3 -31.05 L-7.7 -30.55 -8.35 -30.5 -8.85 -30.95 -8.9 -31.6 -8.6 -31.8 -8.0 -31.6 -7.45 -31.45 Q-7.2 -31.35 -7.3 -31.05" fill="#ffffff" fill-rule="evenodd" stroke="none"/>
      <path d="M8.45 -32.55 L12.4 -30.8 Q15.35 -29.6 16.8 -26.6 17.75 -24.6 18.15 -22.1 18.55 -19.4 18.2 -16.3 L17.85 -15.2 17.3 -14.8 Q16.95 -14.8 16.65 -15.1 L15.95 -15.95 15.2 -16.95 Q14.6 -17.6 14.2 -17.7 L11.45 -17.75 8.15 -17.4 Q7.0 -17.05 4.85 -17.4 L2.05 -17.9 -0.45 -18.2 Q-2.55 -18.65 -3.1 -19.35 -5.0 -20.7 -4.3 -23.0 -3.85 -24.55 -3.1 -25.15 L-1.55 -27.4 Q-0.7 -28.85 -0.75 -29.9 -0.8 -30.95 -0.5 -31.85 -0.2 -33.0 0.5 -33.7 1.3 -34.4 2.55 -34.4 L5.35 -33.8 8.45 -32.55" fill="#613719" fill-rule="evenodd" stroke="none"/>
      <path d="M11.55 -21.2 Q15.55 -20.0 15.35 -18.35 L9.6 -18.5 4.7 -18.65 2.25 -19.2 -0.25 -19.45 Q-2.95 -19.95 -3.5 -23.05 -2.05 -24.15 1.1 -23.05 L3.55 -22.2 5.65 -21.9 Q7.85 -22.25 11.55 -21.2" fill="#b97239" fill-rule="evenodd" stroke="none"/>
      <path d="M7.1 -19.75 Q5.2 -19.9 3.75 -21.5 2.15 -23.25 1.15 -27.9 0.2 -32.55 1.25 -33.65 2.1 -34.45 6.05 -33.0 L12.15 -30.5 Q14.9 -29.4 16.2 -26.6 17.95 -23.05 17.55 -16.75 17.45 -15.8 17.15 -16.1 L16.2 -17.35 Q14.3 -19.95 12.4 -19.9 L7.1 -19.75" fill="#ffd343" fill-rule="evenodd" stroke="none"/>
      <path d="M9.4 -31.65 L8.7 -31.35 Q7.95 -30.8 7.7 -29.75 7.45 -28.95 7.3 -27.2 6.95 -25.7 5.65 -24.8 4.4 -23.9 4.8 -21.95 5.0 -20.95 5.5 -20.15 4.75 -20.4 4.35 -20.75 L3.65 -21.3 Q2.6 -21.85 0.75 -22.1 L-2.05 -22.35 Q-3.35 -22.5 -3.45 -23.05 -3.6 -23.7 -2.15 -25.15 -0.15 -27.15 0.0 -29.95 L0.15 -31.9 Q0.3 -32.85 0.95 -33.45 2.0 -34.5 4.55 -33.65 L9.4 -31.65" fill="#d39c53" fill-rule="evenodd" stroke="none"/>
      <path d="M6.55 -29.2 Q6.85 -29.0 6.75 -28.25 L6.3 -26.75 5.45 -25.45 Q5.0 -25.0 4.7 -25.2 4.4 -25.4 4.45 -26.1 L4.9 -27.6 5.75 -28.9 Q6.25 -29.35 6.55 -29.2" fill="#764b2d" fill-rule="evenodd" stroke="none"/>
      <path d="M6.25 -28.2 L5.95 -27.15 5.4 -26.35 Q5.1 -26.05 4.9 -26.15 4.7 -26.25 4.75 -26.75 L5.0 -27.75 5.6 -28.6 Q5.9 -28.9 6.1 -28.8 L6.25 -28.2" fill="#231f20" fill-rule="evenodd" stroke="none"/>
      <path d="M13.3 -28.2 Q14.45 -27.25 14.9 -26.2 15.45 -25.15 15.0 -24.65 L13.45 -24.5 Q12.35 -24.85 11.2 -25.8 10.05 -26.8 9.55 -27.85 9.1 -28.9 9.5 -29.4 L11.05 -29.55 Q12.15 -29.2 13.3 -28.2" fill="#fef097" fill-rule="evenodd" stroke="none"/>
      <path d="M-41.05 -23.2 Q-37.6 -22.0 -29.65 -14.9 L-22.0 -7.55 -21.9 -7.5 -21.85 -7.4 Q-21.15 -6.2 -21.3 -3.05 -21.4 -0.5 -22.1 2.55 -22.7 5.4 -23.65 7.9 -25.15 11.75 -27.05 13.6 -29.15 15.65 -31.55 16.95 -35.25 18.85 -39.45 18.75 -42.75 18.65 -46.2 17.3 -49.6 16.0 -52.4 13.9 -61.5 17.45 -67.7 17.2 -73.15 17.05 -76.35 14.1 -79.5 11.1 -80.1 5.75 L-80.2 2.1 Q-84.95 1.85 -87.7 0.7 -91.1 -0.7 -90.95 -3.4 -90.8 -5.6 -88.4 -7.8 -86.25 -9.8 -82.35 -11.85 -77.55 -14.35 -70.1 -16.9 -62.7 -19.45 -53.15 -21.9 L-53.3 -22.35 -53.7 -23.85 Q-53.8 -24.65 -53.5 -25.25 L-52.6 -26.25 -51.95 -26.45 -46.9 -25.5 Q-42.7 -24.35 -41.05 -23.2" fill="#1e3039" fill-rule="evenodd" stroke="none"/>
      <path d="M-41.6 -22.45 Q-38.25 -21.35 -29.5 -13.05 -25.1 -8.9 -21.45 -5.0 -20.9 -4.1 -21.0 -1.8 -21.15 0.5 -21.8 3.2 -23.45 9.7 -26.3 12.5 -33.15 19.25 -43.15 16.3 -46.3 15.35 -49.35 13.55 L-51.8 11.95 Q-71.0 19.55 -76.8 10.7 -78.65 7.95 -78.9 3.9 L-78.9 1.35 -78.8 0.35 Q-85.7 0.1 -88.35 -1.8 -91.05 -3.7 -88.35 -6.65 -85.45 -9.9 -76.9 -13.45 -67.35 -17.5 -52.05 -21.3 -51.4 -21.5 -52.05 -23.55 -52.7 -25.55 -52.05 -25.6 L-47.2 -24.65 Q-43.05 -23.5 -41.6 -22.45" fill="#353f44" fill-rule="evenodd" stroke="none"/>
      <path d="M-50.55 -17.55 L-52.95 -16.95 Q-55.6 -16.0 -56.8 -14.55 -58.1 -12.95 -57.65 -11.95 -57.25 -11.0 -56.0 -11.3 -54.75 -11.6 -53.25 -12.45 -51.4 -13.45 -49.9 -15.0 -51.15 -13.5 -53.0 -12.15 -56.6 -9.4 -59.3 -10.05 -61.25 -10.55 -60.75 -11.75 -60.4 -12.7 -57.95 -15.2 -56.65 -16.5 -53.45 -17.15 L-50.55 -17.55" fill="#4c4c4c" fill-rule="evenodd" stroke="none"/>
      <path d="M-25.4 0.85 L-25.3 3.35 Q-25.55 7.4 -27.75 10.05 -29.35 12.0 -29.95 11.35 -30.45 10.85 -30.75 8.0 -30.9 6.5 -29.35 3.15 L-27.8 0.15 -28.9 2.7 Q-29.85 5.5 -29.55 6.9 -29.15 8.45 -28.1 8.15 -27.15 7.85 -26.6 6.55 -26.0 5.25 -25.7 3.6 -25.3 1.55 -25.55 -0.15 L-25.4 0.85" fill="#4c4c4c" fill-rule="evenodd" stroke="none"/>
      <path d="M-37.8 7.05 Q-40.35 10.65 -43.15 11.35 -45.15 11.8 -45.1 10.7 -45.05 9.85 -43.5 6.95 -42.7 5.4 -39.85 3.55 -38.45 2.6 -37.2 2.0 -38.2 2.6 -39.3 3.5 -41.55 5.3 -42.2 6.9 -42.95 8.7 -42.2 9.25 -41.5 9.75 -40.4 9.0 -39.25 8.25 -38.15 6.95 -36.7 5.4 -35.8 3.6 -36.5 5.3 -37.8 7.05" fill="#4c4c4c" fill-rule="evenodd" stroke="none"/>
      <path d="M-33.6 3.2 L-35.15 5.5 Q-36.75 8.1 -36.75 9.7 -36.8 11.45 -35.8 11.45 -34.9 11.45 -34.1 10.3 -33.25 9.1 -32.55 7.5 -31.75 5.55 -31.5 3.65 L-31.6 4.75 -32.2 7.4 Q-33.35 11.55 -35.95 13.55 -37.85 15.0 -38.2 14.15 -38.5 13.45 -38.1 10.4 -37.85 8.75 -35.7 5.8 L-33.6 3.2" fill="#4c4c4c" fill-rule="evenodd" stroke="none"/>
      <path d="M-69.45 -6.35 Q-65.8 -8.0 -62.7 -10.55 -65.4 -8.05 -69.05 -5.85 -76.3 -1.4 -81.15 -2.9 -84.7 -3.95 -83.55 -6.05 -82.65 -7.7 -77.55 -11.75 -74.85 -13.9 -68.8 -14.7 L-63.3 -15.1 -67.95 -14.25 Q-73.05 -12.95 -75.6 -10.5 -78.35 -7.85 -77.75 -6.0 -77.5 -5.25 -76.7 -4.9 L-74.85 -4.7 Q-72.4 -5.05 -69.45 -6.35" fill="#4c4c4c" fill-rule="evenodd" stroke="none"/>
      <path d="M-75.15 4.25 Q-74.4 2.55 -69.35 -2.45 -66.7 -5.05 -60.25 -7.15 L-54.3 -8.7 -59.2 -6.9 Q-64.65 -4.5 -67.05 -1.7 -69.75 1.45 -68.85 3.05 -68.45 3.75 -67.55 3.9 L-65.5 3.7 Q-62.95 2.85 -59.85 0.9 -56.15 -1.4 -53.1 -4.5 -55.7 -1.55 -59.35 1.35 -66.7 7.1 -72.15 6.75 -76.1 6.5 -75.15 4.25" fill="#4c4c4c" fill-rule="evenodd" stroke="none"/>
      <path d="M-47.15 -5.4 L-51.3 -3.3 Q-55.75 -0.65 -57.6 1.95 -59.65 4.8 -58.7 6.0 L-55.75 6.1 -51.1 3.1 Q-48.05 0.75 -45.75 -2.15 -47.7 0.55 -50.6 3.4 -56.45 9.0 -61.25 9.4 -64.7 9.75 -64.1 7.8 -63.6 6.3 -59.65 1.65 -57.6 -0.85 -52.2 -3.35 L-47.15 -5.4" fill="#4c4c4c" fill-rule="evenodd" stroke="none"/>
      <path d="M-16.7 40.25 L-14.0 39.85 Q-13.4 39.9 -13.05 40.35 -12.7 40.75 -12.8 41.3 L-12.5 45.6 -12.0 49.6 Q-8.8 50.05 -6.1 50.95 -4.25 51.55 -2.95 52.25 -1.35 53.15 -0.65 54.15 0.15 55.3 -0.1 56.6 -0.55 58.6 -2.0 59.5 -3.25 60.3 -4.9 60.15 L-6.25 59.9 Q-6.0 60.75 -6.15 61.6 -6.45 63.25 -7.85 64.05 -9.1 64.8 -10.65 64.65 -12.25 64.5 -13.45 63.45 -14.75 62.3 -14.95 60.4 -15.1 58.9 -16.55 57.75 -17.35 57.1 -18.4 56.7 L-18.45 56.7 -19.7 56.9 -21.0 57.15 -22.3 57.2 Q-23.55 57.05 -24.25 56.25 -25.0 55.4 -25.1 53.85 -25.15 52.15 -24.1 51.0 -23.2 50.05 -21.6 49.65 L-19.1 49.35 -19.25 47.55 -19.45 43.95 -19.35 41.95 Q-19.2 41.25 -18.85 40.9 -18.4 40.45 -17.8 40.5 L-16.7 40.25" fill="#7d503e" fill-rule="evenodd" stroke="none"/>
      <path d="M-23.1 52.7 L-22.45 55.2 Q-23.9 54.9 -25.15 55.85 L-26.15 56.8 Q-26.7 54.75 -24.95 53.5 -24.4 53.1 -23.7 52.85 L-23.1 52.7" fill="#3b2216" fill-rule="evenodd" stroke="none"/>
      <path d="M-13.55 46.05 Q-13.1 50.5 -12.75 50.55 -8.4 51.1 -5.1 52.4 -0.7 54.15 -1.15 56.25 -1.8 59.15 -4.7 58.9 -5.8 58.8 -6.85 58.25 L-8.3 57.05 Q-9.0 55.95 -10.8 55.2 L-12.45 54.65 -11.55 55.25 -9.6 56.8 Q-6.85 59.35 -7.2 61.3 -7.4 62.45 -8.4 63.0 -9.35 63.55 -10.55 63.4 -11.8 63.25 -12.65 62.45 -13.6 61.6 -13.75 60.2 -13.9 58.25 -15.7 56.8 -16.7 56.0 -18.0 55.55 L-19.45 55.6 -21.35 55.95 Q-23.75 56.15 -23.85 53.75 -23.95 51.3 -21.15 50.65 L-17.9 50.35 Q-17.75 50.3 -18.15 45.85 -18.5 41.5 -17.75 41.55 L-15.6 41.15 -13.85 41.05 Q-14.0 41.75 -13.55 46.05" fill="#ffd343" fill-rule="evenodd" stroke="none"/>
      <path d="M-8.35 60.95 Q-7.85 61.7 -8.3 64.1 L-8.8 66.35 -9.35 64.75 Q-10.0 63.0 -10.65 62.25 -11.05 61.85 -10.9 61.35 L-10.25 60.6 Q-9.75 60.3 -9.25 60.35 -8.65 60.45 -8.35 60.95" fill="#3b2216" fill-rule="evenodd" stroke="none"/>
      <path d="M-3.85 57.85 Q-4.4 57.75 -4.55 57.15 -4.65 56.65 -4.35 56.15 -4.0 55.6 -3.45 55.45 -2.75 55.3 -2.0 55.85 -0.5 56.9 -0.25 58.6 -0.1 59.85 -0.6 61.35 L-1.4 59.8 Q-2.5 58.2 -3.85 57.85" fill="#3b2216" fill-rule="evenodd" stroke="none"/>
      <path d="M-8.1 57.3 L-8.95 56.25 Q-9.25 55.85 -9.15 55.25 L-8.95 54.7 Q-9.0 55.45 -8.55 56.45 L-8.1 57.3" fill="#7d503e" fill-rule="evenodd" stroke="none"/>
      <path d="M-13.7 60.4 L-13.95 59.15 -13.65 58.3 -13.35 58.05 -13.7 60.4" fill="#7d503e" fill-rule="evenodd" stroke="none"/>
      <path d="M-5.65 52.2 L-6.9 52.1 Q-8.2 52.05 -8.7 52.55 L-8.4 52.2 -7.25 51.7 -5.65 52.2" fill="#7d503e" fill-rule="evenodd" stroke="none"/>
      <path d="M-18.25 55.45 L-19.15 55.5 -20.3 54.3 -20.4 53.8 Q-20.15 54.6 -19.2 55.1 L-18.25 55.45" fill="#7d503e" fill-rule="evenodd" stroke="none"/>
      <path d="M-12.75 50.55 L-11.6 50.65 -13.2 51.05 -14.45 51.5 Q-14.35 51.2 -13.55 50.85 L-12.75 50.55" fill="#7d503e" fill-rule="evenodd" stroke="none"/>
      <path d="M-14.45 22.4 Q-12.15 22.4 -10.95 22.95 -9.65 23.55 -9.25 24.9 -7.65 30.4 -8.35 36.85 -9.25 44.6 -13.55 47.05 -17.95 49.55 -20.15 49.55 -21.6 49.55 -22.35 48.65 L-24.55 49.3 Q-25.85 49.3 -26.55 48.25 -27.35 47.0 -26.8 44.5 L-28.35 44.85 Q-29.7 44.85 -30.25 43.75 -30.65 42.9 -30.25 41.55 -29.8 40.0 -28.0 37.2 L-27.0 35.65 Q-27.85 35.45 -28.3 34.75 -28.8 33.85 -28.1 32.4 L-25.5 27.75 Q-23.6 24.9 -18.8 23.4 -16.45 22.6 -14.45 22.4" fill="#1e3039" fill-rule="evenodd" stroke="none"/>
      <path d="M-16.3 22.25 Q-14.0 21.8 -12.2 22.3 -10.4 22.8 -10.05 24.0 -8.5 29.15 -9.35 35.8 -10.3 43.5 -14.05 45.65 -19.3 48.65 -20.95 47.8 L-21.5 46.95 -21.5 46.4 Q-25.95 49.45 -25.6 45.75 L-24.85 42.9 -24.3 41.4 Q-31.1 45.7 -28.25 40.15 L-25.6 35.85 -24.0 33.7 -26.3 34.05 Q-27.1 34.05 -27.15 33.45 -27.3 32.4 -24.6 27.7 -23.3 25.45 -20.95 24.0 -18.8 22.65 -16.3 22.25" fill="#3d4750" fill-rule="evenodd" stroke="none"/>
      <path d="M-20.4 28.2 L-20.45 28.75 -20.8 30.15 Q-21.55 32.25 -23.4 32.7 -24.8 33.05 -25.1 32.45 -25.35 31.95 -25.1 30.3 -24.95 29.4 -23.45 28.25 L-21.95 27.3 -23.05 28.2 Q-24.15 29.3 -24.15 30.2 -24.1 31.25 -23.4 31.5 -22.7 31.75 -22.15 31.3 L-21.05 30.1 Q-20.5 29.2 -20.4 28.2" fill="#4c5358" fill-rule="evenodd" stroke="none"/>
      <path d="M-18.2 34.1 Q-18.9 36.0 -20.6 36.45 -21.8 36.75 -22.1 36.15 -22.35 35.75 -22.1 34.2 -22.0 33.4 -20.6 32.35 L-19.25 31.45 -20.25 32.3 Q-21.25 33.3 -21.25 34.15 -21.25 35.05 -20.55 35.35 L-19.4 35.15 -18.45 34.05 Q-17.9 33.2 -17.8 32.25 L-17.85 32.8 -18.2 34.1" fill="#4c5358" fill-rule="evenodd" stroke="none"/>
      <path d="M-23.5 35.6 Q-25.05 36.8 -25.4 37.85 -25.8 39.0 -25.15 39.4 -24.6 39.7 -23.8 39.2 L-22.25 37.85 Q-21.3 36.8 -20.75 35.65 L-21.05 36.35 -21.95 37.95 Q-23.6 40.3 -25.7 40.75 -27.2 41.1 -27.25 40.35 -27.3 39.8 -26.4 37.9 -25.9 36.85 -23.9 35.65 L-22.0 34.6 -23.5 35.6" fill="#4c5358" fill-rule="evenodd" stroke="none"/>
      <path d="M-24.3 43.4 Q-24.05 42.3 -22.35 40.7 L-20.7 39.3 -21.95 40.6 Q-23.2 42.1 -23.35 43.15 -23.5 44.4 -22.8 44.6 -22.15 44.8 -21.5 44.2 L-20.25 42.55 Q-19.55 41.35 -19.3 40.15 L-19.4 40.8 -20.0 42.55 Q-21.1 45.2 -23.05 46.05 L-24.65 46.0 Q-24.85 45.45 -24.3 43.4" fill="#4c5358" fill-rule="evenodd" stroke="none"/>
    </g>
  </defs>
</svg>
