<?xml version="1.0" encoding="UTF-8" standalone="no"?>
<svg xmlns:ffdec="https://www.free-decompiler.com/flash" xmlns:xlink="http://www.w3.org/1999/xlink" ffdec:objectType="frame" height="125.0px" width="135.85px" xmlns="http://www.w3.org/2000/svg">
  <g transform="matrix(1.0, 0.0, 0.0, 1.0, 97.2, 57.35)">
    <use ffdec:characterId="468" height="107.15" transform="matrix(1.0, 0.0, 0.0, 1.0, -74.65, -43.6)" width="113.3" xlink:href="#shape0"/>
  </g>
  <defs>
    <g id="shape0" transform="matrix(1.0, 0.0, 0.0, 1.0, 74.65, 43.6)">
      <path d="M23.2 11.25 Q33.3 29.6 36.9 40.25 38.35 44.35 38.6 47.15 38.9 50.15 37.7 51.25 36.2 52.6 33.05 50.4 30.55 48.6 27.15 44.75 L24.9 46.3 Q23.15 47.25 21.25 47.4 L17.4 46.9 Q13.5 45.6 9.7 41.05 5.35 35.85 1.35 26.75 -1.8 25.3 -4.85 23.05 -8.05 20.7 -10.25 18.05 -13.15 14.65 -14.5 10.65 -15.4 8.0 -15.55 5.3 -15.75 2.9 -14.45 -0.05 L-12.35 -3.8 -9.55 -7.0 Q-7.8 -8.55 -6.55 -8.5 L-6.45 -8.5 -6.4 -8.45 3.15 -5.3 Q12.75 -1.9 15.8 0.5 17.6 1.35 21.1 4.35 24.3 7.1 25.1 8.15 L25.4 8.75 Q25.65 9.4 25.45 10.0 L24.75 10.8 23.55 11.15 23.2 11.25" fill="#1e3039" fill-rule="evenodd" stroke="none"/>
      <path d="M23.45 9.55 Q21.75 9.95 22.1 10.55 30.15 25.1 34.25 34.95 37.9 43.75 37.9 47.6 37.95 51.2 34.95 49.8 32.05 48.45 27.25 42.8 L25.25 44.45 Q22.6 46.05 19.75 45.8 10.5 44.9 2.1 25.35 -2.05 23.6 -6.3 20.05 -14.8 13.0 -15.45 4.2 -15.7 0.6 -12.9 -3.7 -11.75 -5.55 -10.5 -6.65 -9.2 -7.8 -8.3 -7.75 L2.0 -4.6 Q12.8 -1.05 15.7 1.25 17.35 2.05 20.8 5.0 23.95 7.65 24.65 8.65 25.05 9.2 23.45 9.55" fill="#353f44" fill-rule="evenodd" stroke="none"/>
      <path d="M16.9 11.75 Q17.0 13.6 17.6 15.55 L18.8 18.4 Q19.5 19.55 20.3 19.5 21.2 19.4 21.3 17.6 21.35 15.95 20.1 13.3 L18.85 11.0 20.6 13.6 Q22.35 16.6 22.4 18.25 22.6 21.45 22.3 22.15 21.9 23.1 20.3 21.7 18.05 19.75 17.25 15.5 L16.95 12.75 16.9 11.75" fill="#4c4c4c" fill-rule="evenodd" stroke="none"/>
      <path d="M-10.65 -0.75 Q-9.55 -1.75 -8.4 -2.1 L-10.55 -0.3 Q-11.3 0.7 -11.7 1.8 -12.1 2.85 -11.6 3.75 -11.1 4.8 -9.9 4.4 -8.85 4.05 -7.85 1.95 L-7.05 0.05 -7.8 2.55 Q-8.75 5.35 -9.75 5.9 -11.65 6.9 -12.25 6.75 -13.05 6.5 -13.0 4.3 -12.9 1.25 -10.65 -0.75" fill="#4c4c4c" fill-rule="evenodd" stroke="none"/>
      <path d="M-4.45 11.4 L-4.0 9.1 -3.7 8.15 Q-4.15 9.75 -4.15 11.65 L-3.8 14.45 Q-3.5 15.7 -2.75 16.05 -1.9 16.45 -1.35 15.05 -0.85 13.75 -1.3 11.05 L-1.8 8.6 -0.95 11.55 Q-0.15 14.75 -0.5 16.1 -1.2 18.75 -1.7 19.15 -2.3 19.7 -3.4 17.8 -4.85 15.15 -4.45 11.4" fill="#4c4c4c" fill-rule="evenodd" stroke="none"/>
      <path d="M-5.25 8.45 L-4.95 6.15 -5.1 9.1 Q-5.4 12.2 -6.2 13.15 -7.75 14.9 -8.35 14.95 -9.15 15.0 -9.55 12.8 -10.05 9.7 -8.4 6.85 -7.6 5.4 -6.65 4.6 -7.6 5.65 -8.2 7.2 -8.7 8.5 -8.85 9.75 -9.0 10.95 -8.35 11.7 -7.7 12.55 -6.7 11.7 -5.75 11.0 -5.25 8.45" fill="#4c4c4c" fill-rule="evenodd" stroke="none"/>
      <path d="M26.0 22.8 L29.5 27.6 Q33.1 33.05 33.6 36.25 34.65 42.4 34.3 43.85 33.8 45.75 30.8 43.3 26.65 39.9 24.35 31.75 23.65 29.25 23.2 26.55 L22.95 24.65 Q23.5 28.25 24.95 31.9 26.15 34.95 27.6 37.15 28.95 39.3 30.35 39.0 31.85 38.7 31.55 35.15 31.3 31.95 28.6 27.05 L26.0 22.8" fill="#4c4c4c" fill-rule="evenodd" stroke="none"/>
      <path d="M12.8 19.3 Q13.05 23.1 14.15 27.15 15.05 30.6 16.3 33.15 17.5 35.6 18.9 35.65 20.5 35.7 20.55 32.0 20.6 28.7 18.35 23.1 L16.1 18.15 19.2 23.85 Q22.3 30.2 22.55 33.6 23.0 40.1 22.45 41.5 21.8 43.3 18.95 40.1 15.05 35.7 13.55 26.9 13.05 24.15 12.9 21.3 L12.8 19.3" fill="#4c4c4c" fill-rule="evenodd" stroke="none"/>
      <path d="M6.3 15.8 L6.4 14.4 Q6.3 17.45 6.9 20.8 7.45 23.75 8.3 26.0 9.1 28.25 10.35 28.45 11.65 28.75 12.0 25.7 12.3 23.0 10.85 18.05 L9.3 13.65 11.5 18.8 Q13.65 24.45 13.6 27.3 13.45 32.7 12.9 33.8 12.15 35.2 10.0 32.15 7.05 27.95 6.4 20.5 L6.3 15.8" fill="#4c4c4c" fill-rule="evenodd" stroke="none"/>
      <path d="M0.65 32.7 Q1.25 32.75 1.55 33.15 1.85 33.5 1.8 33.95 L2.15 37.8 2.75 41.3 Q5.45 41.55 8.0 42.3 9.65 42.75 10.85 43.35 12.3 44.05 12.95 44.95 13.75 46.0 13.5 47.15 13.2 48.9 11.9 49.8 10.85 50.5 9.35 50.45 L8.2 50.25 Q8.45 51.0 8.3 51.75 8.1 53.2 6.85 54.0 5.8 54.7 4.45 54.6 3.0 54.5 1.9 53.65 0.7 52.65 0.45 51.0 0.3 49.65 -1.05 48.7 -1.8 48.15 -2.75 47.85 L-3.85 48.05 -5.0 48.3 -6.15 48.35 Q-7.25 48.3 -7.9 47.6 -8.65 46.9 -8.7 45.5 -8.85 43.95 -7.95 42.95 -6.7 41.55 -3.55 41.3 L-3.75 39.7 -4.1 36.5 -4.05 34.75 -3.6 33.8 Q-3.2 33.4 -2.7 33.4 L-1.75 33.15 0.65 32.7" fill="#7d503e" fill-rule="evenodd" stroke="none"/>
      <path d="M-8.65 45.15 Q-8.15 44.8 -7.55 44.55 L-7.0 44.4 -6.35 46.6 Q-7.65 46.4 -8.75 47.25 L-9.6 48.15 Q-10.15 46.3 -8.65 45.15" fill="#3b2216" fill-rule="evenodd" stroke="none"/>
      <path d="M8.95 43.6 Q12.9 45.0 12.55 46.85 12.1 49.45 9.55 49.35 L7.6 48.8 Q6.65 48.35 6.25 47.8 5.6 46.85 4.0 46.2 L2.5 45.8 5.05 47.6 Q7.6 49.8 7.35 51.55 7.2 52.55 6.35 53.05 5.55 53.55 4.45 53.5 3.35 53.4 2.6 52.7 1.7 52.0 1.55 50.8 1.3 49.05 -0.3 47.85 -1.25 47.1 -2.4 46.75 L-3.7 46.85 -5.35 47.2 Q-7.5 47.5 -7.65 45.35 -7.8 43.2 -5.35 42.55 L-2.5 42.15 Q-2.35 42.1 -2.85 38.15 -3.25 34.3 -2.6 34.35 L-0.7 33.9 0.8 33.8 Q0.75 34.4 1.25 38.2 1.8 42.15 2.1 42.15 5.95 42.55 8.95 43.6" fill="#ffd343" fill-rule="evenodd" stroke="none"/>
      <path d="M4.35 52.5 Q3.95 52.1 4.1 51.65 4.2 51.25 4.65 51.0 5.75 50.3 6.35 51.25 6.8 51.9 6.5 54.05 L6.1 56.05 5.6 54.65 4.35 52.5" fill="#3b2216" fill-rule="evenodd" stroke="none"/>
      <path d="M12.45 50.0 Q11.45 48.6 10.25 48.4 9.7 48.3 9.6 47.8 9.5 47.35 9.75 46.85 10.4 45.65 11.8 46.5 13.2 47.4 13.45 48.95 13.65 50.05 13.2 51.35 L12.45 50.0" fill="#3b2216" fill-rule="evenodd" stroke="none"/>
      <path d="M6.45 48.0 L5.65 47.1 Q5.35 46.75 5.45 46.2 L5.6 45.75 Q5.6 46.4 6.0 47.25 L6.45 48.0" fill="#7d503e" fill-rule="evenodd" stroke="none"/>
      <path d="M1.55 50.9 L1.3 49.85 Q1.35 49.4 1.55 49.1 L1.8 48.85 Q1.5 49.85 1.55 50.9" fill="#7d503e" fill-rule="evenodd" stroke="none"/>
      <path d="M8.45 43.4 L7.35 43.35 Q6.15 43.35 5.75 43.8 L6.0 43.5 Q6.4 43.15 7.05 43.0 L8.45 43.4" fill="#7d503e" fill-rule="evenodd" stroke="none"/>
      <path d="M-4.45 45.75 L-4.6 45.3 Q-4.35 46.0 -3.45 46.4 L-2.65 46.7 -3.4 46.75 -4.45 45.75" fill="#7d503e" fill-rule="evenodd" stroke="none"/>
      <path d="M2.1 42.15 L3.15 42.25 Q2.8 42.2 1.75 42.65 L0.65 43.05 Q0.7 42.8 1.4 42.45 L2.1 42.15" fill="#7d503e" fill-rule="evenodd" stroke="none"/>
      <path d="M0.2 17.35 L3.15 17.65 Q3.55 17.85 3.6 18.45 4.3 28.45 3.75 33.05 3.2 38.1 0.85 39.4 -2.25 41.15 -3.95 41.15 -4.9 41.15 -5.5 40.65 -6.9 41.6 -7.9 41.6 -8.85 41.6 -9.45 40.85 -10.2 39.8 -9.8 37.35 -10.9 37.95 -11.65 37.95 -12.6 37.95 -13.05 37.15 -13.4 36.5 -13.2 35.4 -12.9 33.95 -11.55 31.3 L-10.65 29.65 Q-11.65 29.6 -12.1 28.9 -12.5 28.25 -11.8 26.75 L-9.75 22.45 Q-8.9 20.5 -4.25 18.7 L0.2 17.35" fill="#1e3039" fill-rule="evenodd" stroke="none"/>
      <path d="M3.25 18.4 Q3.8 25.9 3.45 30.5 2.9 37.2 0.5 38.55 -3.05 40.55 -4.4 40.05 L-4.95 39.5 -5.0 39.15 Q-8.7 42.25 -8.7 38.95 L-8.3 36.35 -7.9 35.0 Q-13.6 39.35 -11.5 34.2 L-9.55 30.2 -8.3 28.15 -11.1 28.2 Q-11.3 27.3 -9.3 22.9 -8.35 20.8 -6.25 19.25 -4.4 17.9 -2.1 17.3 L1.6 17.0 Q3.2 17.3 3.25 18.4" fill="#3d4750" fill-rule="evenodd" stroke="none"/>
      <path d="M0.05 36.8 Q-0.45 38.55 -1.9 39.05 L-3.3 38.95 -3.45 37.2 Q-3.4 36.5 -2.25 35.45 L-1.1 34.55 -1.9 35.4 Q-2.75 36.35 -2.65 37.1 -2.55 37.9 -1.95 38.1 -1.4 38.25 -0.95 37.85 L-0.2 36.8 0.15 35.8 0.05 36.8" fill="#4c5358" fill-rule="evenodd" stroke="none"/>
      <path d="M-5.5 33.95 Q-6.5 35.4 -6.55 36.4 -6.6 37.45 -5.95 37.6 -5.35 37.75 -4.85 37.1 L-3.85 35.55 -3.3 34.05 -3.6 35.55 Q-4.35 38.0 -6.0 38.9 L-7.45 39.0 Q-7.65 38.55 -7.35 36.65 -7.2 35.7 -5.85 34.1 L-4.5 32.7 -5.5 33.95" fill="#4c5358" fill-rule="evenodd" stroke="none"/>
      <path d="M-43.0 25.35 L-39.6 24.65 -33.15 24.4 Q-24.3 25.4 -26.35 33.95 -27.6 39.05 -33.1 44.85 -35.4 47.3 -37.6 48.75 -39.85 50.25 -41.1 50.1 -42.85 49.9 -42.75 47.75 L-42.55 46.3 -42.35 45.65 Q-44.1 48.6 -46.55 50.05 -49.15 51.6 -52.1 51.15 -54.25 50.8 -52.5 47.9 L-51.1 45.95 -51.0 45.8 Q-52.9 47.85 -56.15 49.1 -60.35 50.8 -63.4 49.6 -65.2 48.9 -63.7 46.95 L-62.5 45.7 -61.85 45.15 -63.9 46.0 -68.8 46.55 Q-71.45 46.35 -72.6 45.45 -73.65 44.6 -73.15 43.4 -72.7 42.25 -70.85 41.15 -68.9 39.95 -66.0 39.2 -57.4 37.0 -49.35 30.95 -45.3 27.95 -43.0 25.35" fill="#1e3039" fill-rule="evenodd" stroke="none"/>
      <path d="M-35.4 22.95 Q-28.8 22.95 -26.15 26.3 -23.85 29.25 -25.05 34.3 -25.8 37.45 -28.3 41.05 -29.9 43.4 -31.9 45.55 L-35.65 49.05 Q-38.8 51.45 -40.9 51.45 L-41.3 51.45 Q-42.85 51.25 -43.6 50.0 L-43.8 49.65 Q-46.9 52.6 -50.8 52.6 L-52.3 52.45 Q-53.95 52.2 -54.45 50.9 L-54.6 49.95 Q-57.8 51.45 -60.65 51.45 -62.45 51.45 -63.9 50.85 -65.5 50.2 -65.7 48.75 L-65.65 47.8 -67.85 47.95 -68.9 47.9 Q-72.05 47.65 -73.5 46.4 -74.55 45.55 -74.65 44.35 -74.8 42.45 -72.55 40.65 -70.3 38.9 -66.35 37.9 -58.1 35.8 -50.2 29.9 -47.75 28.1 -45.65 26.1 L-43.95 24.45 -43.8 24.25 -43.6 24.15 -40.7 23.45 -35.4 22.95" fill="#1e3039" fill-rule="evenodd" stroke="none"/>
      <path d="M-42.85 24.85 L-39.5 24.15 -33.05 23.95 Q-24.2 24.95 -26.25 33.5 -27.5 38.6 -32.95 44.35 -35.3 46.8 -37.5 48.25 -39.75 49.75 -41.0 49.6 -42.7 49.4 -42.65 47.25 L-42.45 45.8 -42.25 45.15 Q-43.95 48.15 -46.45 49.6 -49.05 51.1 -51.95 50.65 -54.15 50.35 -52.4 47.4 L-51.0 45.45 Q-52.9 47.4 -56.0 48.65 -60.25 50.3 -63.3 49.1 -65.1 48.4 -63.6 46.45 L-62.35 45.2 -61.7 44.7 -63.75 45.5 -68.7 46.1 Q-71.35 45.85 -72.45 44.95 -73.55 44.15 -73.05 42.95 -72.55 41.75 -70.75 40.65 -68.8 39.45 -65.9 38.7 -57.3 36.5 -49.2 30.45 -45.2 27.45 -42.85 24.85" fill="#dcf0fe" fill-rule="evenodd" stroke="none"/>
      <path d="M-66.4 39.65 L-60.2 37.55 -64.75 39.5 Q-69.25 41.7 -68.95 42.95 -68.6 44.15 -63.65 43.9 L-58.7 43.35 -65.35 44.55 Q-72.0 45.35 -72.25 43.75 -72.5 42.1 -66.4 39.65" fill="#a9b3be" fill-rule="evenodd" stroke="none"/>
      <path d="M-52.65 38.75 L-56.4 41.95 Q-60.1 45.35 -59.4 46.45 -58.75 47.5 -54.1 45.8 -51.75 44.9 -49.55 43.85 L-55.5 46.9 Q-61.65 49.65 -62.35 48.15 -63.1 46.7 -57.95 42.55 L-54.35 39.85 -52.65 38.75" fill="#a9b3be" fill-rule="evenodd" stroke="none"/>
      <path d="M-45.5 39.45 L-47.85 42.8 Q-50.05 46.3 -49.15 47.25 -48.2 48.25 -44.6 46.25 L-41.2 44.05 -42.5 45.15 -45.55 47.4 Q-50.1 50.5 -51.2 49.15 -52.3 47.75 -49.0 43.5 L-46.65 40.65 -45.5 39.45" fill="#a9b3be" fill-rule="evenodd" stroke="none"/>
      <path d="M-38.3 38.55 L-37.5 37.1 -38.95 40.95 Q-40.2 44.9 -39.1 45.6 -37.95 46.3 -34.95 43.5 L-32.2 40.5 -33.2 41.9 -35.6 44.85 Q-39.25 48.95 -40.65 47.9 -42.05 46.85 -39.9 41.9 L-38.3 38.55" fill="#a9b3be" fill-rule="evenodd" stroke="none"/>
      <path d="M-41.8 31.85 L-39.3 29.55 -41.2 31.65 Q-43.1 34.1 -43.3 35.85 -43.45 37.75 -42.4 38.05 -41.4 38.3 -40.4 37.3 -39.4 36.2 -38.55 34.6 -37.5 32.7 -37.1 30.75 L-37.3 31.85 -38.1 34.6 Q-39.7 38.85 -42.7 40.35 -44.85 41.45 -45.2 40.35 -45.5 39.5 -44.75 36.25 -44.35 34.5 -41.8 31.85" fill="#a9b3be" fill-rule="evenodd" stroke="none"/>
      <path d="M-29.15 30.75 L-29.65 32.95 Q-30.7 36.35 -33.05 37.6 -34.8 38.45 -35.15 37.6 -35.45 36.95 -35.05 34.4 -34.85 33.0 -32.95 30.85 L-31.0 29.0 -32.45 30.7 Q-33.85 32.65 -33.85 34.0 -33.9 35.55 -32.95 35.75 -32.15 35.95 -31.4 35.1 L-30.0 32.95 Q-29.25 31.45 -29.05 29.9 L-29.15 30.75" fill="#a9b3be" fill-rule="evenodd" stroke="none"/>
      <path d="M-43.8 28.15 L-46.55 29.9 Q-49.45 32.0 -50.3 33.75 -51.3 35.7 -50.35 36.3 -49.45 36.8 -48.05 36.0 -46.6 35.1 -45.1 33.65 -43.25 31.85 -42.05 29.85 L-42.75 31.05 -44.65 33.75 Q-48.0 37.8 -51.55 38.65 -54.15 39.25 -54.05 38.05 -54.0 37.1 -51.95 33.85 -50.9 32.1 -47.25 29.95 L-43.8 28.15" fill="#a9b3be" fill-rule="evenodd" stroke="none"/>
      <path d="M0.0 -41.45 L2.35 -40.05 Q3.8 -38.9 4.5 -36.6 5.35 -36.1 6.05 -34.55 L6.7 -32.75 6.65 -31.95 Q6.35 -31.05 5.75 -27.2 8.1 -25.65 8.3 -20.15 L7.95 -14.3 Q7.9 -13.8 7.5 -13.45 7.15 -13.15 6.6 -13.15 L6.45 -13.15 6.0 -10.3 5.55 -9.5 4.75 -9.2 Q6.25 -2.35 6.55 2.45 6.9 9.5 5.45 18.65 5.2 20.4 4.55 22.25 2.7 27.4 -5.45 33.1 -12.6 38.15 -18.3 39.75 -21.05 40.5 -21.8 39.25 L-22.1 38.0 -22.15 36.6 Q-23.55 37.55 -28.1 37.75 -32.85 37.95 -33.7 36.95 -33.9 36.7 -33.45 35.5 L-32.8 33.75 Q-34.85 34.6 -37.75 34.9 L-41.75 35.2 -43.15 34.85 -43.8 34.1 Q-44.2 33.45 -41.9 31.3 L-38.8 28.15 -40.55 28.3 Q-43.35 28.3 -45.85 27.05 L-47.3 25.9 -48.4 24.55 Q-48.9 23.45 -46.95 22.5 L-45.1 21.6 -43.45 20.5 -40.5 17.35 Q-38.7 15.0 -38.05 12.5 -35.2 2.1 -33.25 -3.65 -30.85 -10.65 -28.65 -14.4 L-29.1 -14.85 Q-30.15 -16.75 -29.7 -20.0 L-29.9 -20.0 -30.45 -20.1 -31.05 -20.6 -31.25 -21.4 Q-31.05 -24.4 -29.55 -28.45 L-29.75 -28.5 -30.45 -29.05 -30.65 -29.9 Q-30.5 -32.1 -28.9 -34.9 L-29.0 -35.0 -29.45 -35.7 -29.4 -36.5 Q-28.8 -38.25 -26.25 -40.15 L-26.6 -40.75 -26.5 -41.65 -25.85 -42.25 -23.25 -43.0 -15.2 -43.6 -12.35 -43.55 Q-6.3 -43.35 -3.4 -42.2 L-2.65 -42.4 -2.35 -42.4 Q-1.4 -42.2 0.0 -41.45" fill="#1e3039" fill-rule="evenodd" stroke="none"/>
      <path d="M-24.0 -18.0 Q-22.15 -19.6 -20.6 -18.95 L-19.4 -18.05 -8.4 -18.4 2.15 -16.95 3.75 -9.25 5.1 -1.85 Q6.25 6.85 4.45 18.15 3.1 27.1 -8.85 33.7 -14.8 37.0 -20.5 38.55 -20.15 37.45 -20.9 35.45 L-21.75 33.75 Q-23.5 36.05 -28.0 36.35 L-30.95 36.3 -32.15 36.15 Q-31.45 35.05 -30.9 32.8 L-30.45 30.8 Q-32.65 32.75 -37.65 33.35 L-40.85 33.55 -42.2 33.55 Q-39.45 32.1 -37.5 28.85 L-36.45 26.75 -36.1 25.9 Q-40.15 27.45 -43.95 26.0 L-46.15 24.85 -46.7 24.25 -45.3 23.6 -42.5 21.5 Q-38.4 17.75 -36.95 12.55 -30.0 -12.85 -24.0 -18.0" fill="#353f44" fill-rule="evenodd" stroke="none"/>
      <path d="M3.7 -35.9 Q4.4 -35.9 5.15 -34.25 L5.7 -32.65 5.0 -29.2 4.6 -26.65 Q7.05 -26.1 7.25 -20.4 7.35 -17.5 6.95 -14.75 L6.35 -16.4 5.85 -17.3 Q5.8 -15.35 5.0 -10.8 4.55 -10.9 3.85 -11.4 L3.25 -11.95 Q3.15 -10.3 2.55 -8.85 L1.95 -7.8 Q-0.2 -8.15 -1.6 -10.05 L-2.35 -11.3 -2.55 -11.85 Q-2.9 -11.05 -4.55 -9.5 -6.05 -9.8 -8.4 -11.4 L-10.45 -12.9 Q-10.75 -12.3 -11.9 -11.7 L-13.0 -11.15 Q-14.55 -11.15 -17.6 -13.3 L-20.3 -15.45 -20.25 -13.7 -19.95 -12.8 Q-21.85 -13.55 -23.6 -16.1 L-24.95 -18.45 Q-25.0 -17.95 -26.35 -16.8 L-27.65 -15.8 Q-28.7 -17.75 -27.7 -21.9 L-26.9 -24.55 -26.45 -25.65 Q-26.9 -24.7 -28.3 -23.05 L-29.6 -21.6 Q-29.4 -24.85 -27.5 -29.4 L-25.65 -33.3 Q-26.3 -33.45 -27.7 -31.75 L-29.0 -30.05 Q-28.9 -32.15 -27.15 -34.95 L-25.4 -37.35 -26.85 -36.9 -27.85 -36.3 Q-27.35 -37.7 -25.1 -39.35 L-23.0 -40.75 Q-23.5 -41.1 -24.3 -41.25 L-24.95 -41.3 -24.3 -41.55 -22.15 -42.0 -12.1 -42.45 Q-6.05 -42.25 -3.35 -41.1 -2.1 -40.6 -1.9 -40.1 L-2.35 -41.35 -0.25 -40.5 1.85 -39.25 Q2.75 -38.5 3.3 -37.15 L3.7 -35.9" fill="#dcf0fe" fill-rule="evenodd" stroke="none"/>
      <path d="M-2.8 -30.25 Q-2.15 -29.0 -2.45 -27.45 -2.75 -26.0 -3.7 -24.95 -4.75 -23.9 -5.95 -23.95 L-8.55 -24.3 Q-11.35 -24.4 -12.65 -23.3 -15.05 -21.25 -18.6 -20.95 L-20.8 -20.95 -21.7 -21.05 -20.6 -23.1 Q-19.2 -25.25 -17.7 -25.8 L-18.6 -26.4 Q-19.85 -26.95 -21.35 -26.9 L-20.0 -28.3 Q-18.25 -29.75 -16.35 -30.05 -16.1 -30.4 -16.25 -30.8 -16.55 -31.6 -18.45 -31.8 -19.6 -31.95 -20.75 -33.05 L-21.7 -34.05 -20.6 -33.75 Q-19.05 -33.6 -16.85 -34.5 -14.45 -35.45 -11.55 -34.4 L-8.8 -33.25 -5.35 -32.1 Q-3.55 -31.6 -2.8 -30.25" fill="#b8cddf" fill-rule="evenodd" stroke="none"/>
      <path d="M2.35 -21.3 Q1.9 -19.45 -1.15 -17.75 L-4.15 -16.4 Q-3.35 -17.25 -2.4 -19.2 L-1.6 -21.0 Q-2.4 -19.85 -4.3 -18.95 L-6.1 -18.3 Q-5.2 -19.25 -5.5 -20.6 L-6.0 -21.75 Q-8.25 -22.95 -7.4 -26.25 L-6.85 -28.3 Q-6.8 -29.15 -7.55 -29.1 -8.4 -29.05 -8.95 -29.7 L-9.85 -31.25 Q-11.1 -34.15 -12.25 -35.25 -8.7 -33.0 -6.05 -32.8 -4.1 -32.7 -2.15 -33.7 -0.95 -34.3 2.2 -27.4 L5.1 -20.35 Q4.9 -18.8 3.0 -18.05 L1.1 -17.65 Q1.7 -18.5 2.35 -21.3" fill="#a69a8c" fill-rule="evenodd" stroke="none"/>
      <path d="M-4.9 -32.95 L-5.0 -32.0 Q-5.35 -30.9 -6.3 -30.2 -8.0 -28.9 -9.75 -29.7 -11.6 -30.5 -11.15 -33.0 -10.9 -34.4 -14.7 -34.3 L-18.55 -33.9 -16.0 -34.85 Q-13.25 -35.7 -12.25 -35.25 -11.25 -34.75 -9.55 -33.7 -8.0 -32.85 -6.3 -32.8 L-4.9 -32.95" fill="#6a5846" fill-rule="evenodd" stroke="none"/>
      <path d="M-13.15 -35.5 Q-12.4 -35.45 -10.7 -34.4 -8.55 -33.0 -6.5 -32.85 L-4.9 -32.95 -5.2 -32.4 Q-5.7 -31.85 -6.5 -31.95 L-7.25 -31.9 -7.5 -31.15 Q-7.85 -30.15 -8.75 -29.8 L-10.5 -29.9 Q-11.4 -30.25 -11.7 -31.1 -12.05 -32.05 -11.35 -33.15 -11.0 -33.7 -13.1 -34.4 L-15.3 -35.0 -13.15 -35.5" fill="#231f20" fill-rule="evenodd" stroke="none"/>
      <path d="M-28.5 20.0 L-30.95 22.15 Q-33.45 24.7 -34.1 26.55 -34.75 28.65 -33.7 29.1 -32.8 29.45 -31.55 28.4 -30.2 27.35 -28.95 25.65 -27.4 23.6 -26.5 21.45 L-27.0 22.75 -28.5 25.7 Q-31.2 30.2 -34.6 31.55 -37.05 32.55 -37.15 31.35 -37.25 30.4 -35.7 26.9 -34.85 25.05 -31.6 22.35 L-28.5 20.0" fill="#4c4c4c" fill-rule="evenodd" stroke="none"/>
      <path d="M-17.3 8.45 L-18.1 10.9 Q-19.55 14.75 -22.0 16.25 -23.8 17.35 -24.05 16.45 -24.2 15.7 -23.45 12.8 -23.1 11.25 -20.9 8.75 L-18.8 6.55 -20.4 8.5 Q-22.05 10.8 -22.3 12.3 -22.5 14.0 -21.65 14.2 -20.9 14.4 -20.05 13.4 L-18.4 10.95 Q-17.5 9.25 -17.1 7.5 L-17.3 8.45" fill="#4c4c4c" fill-rule="evenodd" stroke="none"/>
      <path d="M-35.75 23.1 Q-37.65 25.8 -40.45 25.8 -42.45 25.85 -42.6 24.85 -42.75 24.1 -41.75 21.85 -41.2 20.65 -38.65 19.55 L-36.2 18.7 -38.05 19.65 Q-40.05 20.8 -40.4 22.1 -40.8 23.5 -39.9 24.15 L-38.05 24.3 Q-37.05 23.85 -36.1 22.95 -34.95 21.85 -34.4 20.45 L-34.7 21.25 -35.75 23.1" fill="#4c4c4c" fill-rule="evenodd" stroke="none"/>
      <path d="M-7.5 23.4 Q-8.15 25.35 -7.45 26.4 -6.7 27.55 -5.45 27.4 -4.35 27.3 -3.9 26.4 -3.4 25.5 -3.35 24.35 -3.25 22.9 -3.9 21.65 L-3.5 22.4 -2.9 24.2 Q-2.4 27.1 -4.6 28.8 -6.2 30.05 -7.1 29.55 -7.8 29.15 -8.75 27.05 -9.2 25.95 -8.0 23.7 L-6.65 21.65 -7.5 23.4" fill="#4c4c4c" fill-rule="evenodd" stroke="none"/>
      <path d="M-7.85 14.05 L-9.2 15.45 Q-10.5 17.05 -10.2 18.25 -9.9 19.6 -8.65 19.9 -7.55 20.15 -6.85 19.5 -6.1 18.8 -5.6 17.75 -5.05 16.45 -5.2 15.05 L-5.1 15.85 Q-5.0 16.85 -5.2 17.75 -5.7 20.65 -8.35 21.5 L-10.95 21.35 Q-11.5 20.75 -11.65 18.45 -11.7 17.25 -9.75 15.55 L-7.85 14.05" fill="#4c4c4c" fill-rule="evenodd" stroke="none"/>
      <path d="M1.15 14.85 L2.1 16.5 Q3.25 19.2 1.45 21.35 0.15 22.95 -0.85 22.65 -1.6 22.4 -2.95 20.55 -3.65 19.6 -2.95 17.1 L-2.1 14.8 -2.55 16.7 Q-2.75 18.75 -1.9 19.65 -0.9 20.6 0.3 20.2 1.4 19.8 1.65 18.85 1.9 17.85 1.7 16.7 1.5 15.3 0.6 14.2 L1.15 14.85" fill="#4c4c4c" fill-rule="evenodd" stroke="none"/>
      <path d="M0.05 -2.3 L0.2 -1.15 Q0.45 0.1 1.2 0.45 L2.6 0.35 Q3.1 -0.1 3.1 -0.7 L2.7 -2.0 1.6 -3.2 2.0 -2.95 2.9 -2.2 Q4.1 -0.8 3.45 0.8 3.05 2.0 2.4 2.0 1.85 2.0 0.7 1.2 0.1 0.8 0.05 -0.8 L0.05 -2.3" fill="#4c4c4c" fill-rule="evenodd" stroke="none"/>
      <path d="M-2.7 2.55 L-1.9 0.45 -2.3 2.15 Q-2.55 4.05 -1.75 4.8 -0.85 5.7 0.25 5.3 1.2 5.0 1.45 4.15 1.7 3.25 1.5 2.2 1.3 0.95 0.55 -0.05 L1.05 0.55 1.85 2.0 Q2.85 4.5 1.25 6.4 0.05 7.8 -0.85 7.5 -1.55 7.3 -2.7 5.6 -3.35 4.75 -2.7 2.55" fill="#4c4c4c" fill-rule="evenodd" stroke="none"/>
      <path d="M-6.85 -3.65 L-7.7 -2.15 Q-8.4 -0.45 -7.85 0.55 -7.25 1.65 -6.15 1.6 -5.1 1.55 -4.65 0.8 -4.15 0.0 -4.0 -1.05 -3.85 -2.3 -4.3 -3.5 L-4.0 -2.8 -3.65 -1.15 Q-3.35 1.5 -5.45 2.9 -7.0 3.9 -7.75 3.4 -8.35 3.0 -9.05 1.05 -9.4 0.05 -8.15 -1.9 L-6.85 -3.65" fill="#4c4c4c" fill-rule="evenodd" stroke="none"/>
      <path d="M-12.05 -4.15 Q-13.2 -3.4 -13.75 -3.8 -14.2 -4.1 -14.7 -5.55 -14.95 -6.3 -14.05 -7.75 L-13.05 -9.05 -13.7 -7.9 Q-14.25 -6.65 -13.85 -5.9 -13.35 -5.1 -12.55 -5.15 -11.8 -5.15 -11.45 -5.7 -11.05 -6.3 -10.95 -7.1 -10.85 -8.05 -11.2 -8.9 L-10.95 -8.4 -10.7 -7.15 Q-10.45 -5.2 -12.05 -4.15" fill="#4c4c4c" fill-rule="evenodd" stroke="none"/>
      <path d="M-9.15 -32.3 L-9.55 -31.8 -10.2 -31.75 -10.7 -32.2 -10.75 -32.85 -10.4 -33.05 -9.85 -32.85 -9.3 -32.7 Q-9.05 -32.6 -9.15 -32.3" fill="#ffffff" fill-rule="evenodd" stroke="none"/>
      <path d="M-1.3 -34.95 Q-0.55 -35.65 0.75 -35.65 L3.5 -35.05 6.6 -33.8 10.55 -32.05 Q13.5 -30.85 15.0 -27.85 15.95 -25.9 16.3 -23.35 16.7 -20.65 16.4 -17.55 L16.0 -16.45 Q15.75 -16.05 15.45 -16.05 15.1 -16.05 14.8 -16.35 L14.1 -17.2 Q13.0 -18.8 12.35 -18.95 L9.6 -19.0 6.3 -18.65 Q5.15 -18.3 3.0 -18.65 L0.2 -19.15 -2.25 -19.45 Q-4.4 -19.9 -4.95 -20.6 -6.8 -21.95 -6.15 -24.25 -5.7 -25.8 -4.95 -26.4 L-3.4 -28.65 Q-2.55 -30.1 -2.6 -31.15 L-2.35 -33.1 Q-2.05 -34.25 -1.3 -34.95" fill="#613719" fill-rule="evenodd" stroke="none"/>
      <path d="M2.9 -19.9 L0.4 -20.45 -2.05 -20.7 Q-4.8 -21.2 -5.3 -24.3 -3.85 -25.4 -0.7 -24.3 L1.7 -23.45 3.8 -23.15 Q6.05 -23.5 9.7 -22.45 13.75 -21.25 13.55 -19.6 L7.75 -19.75 2.9 -19.9" fill="#b97239" fill-rule="evenodd" stroke="none"/>
      <path d="M-0.55 -34.9 Q0.25 -35.7 4.2 -34.25 L10.35 -31.75 Q13.05 -30.65 14.4 -27.85 16.1 -24.3 15.7 -18.0 15.65 -17.05 15.3 -17.35 L14.35 -18.6 Q12.45 -21.2 10.55 -21.15 L5.25 -21.0 Q3.35 -21.15 1.9 -22.75 0.3 -24.5 -0.65 -29.15 -1.65 -33.8 -0.55 -34.9" fill="#ffd343" fill-rule="evenodd" stroke="none"/>
      <path d="M-0.9 -34.7 L2.75 -34.9 7.55 -32.9 6.85 -32.6 Q6.1 -32.05 5.85 -31.0 5.6 -30.2 5.45 -28.45 5.1 -26.95 3.8 -26.05 2.55 -25.15 2.95 -23.2 L3.65 -21.4 Q2.9 -21.65 2.5 -22.0 L1.85 -22.55 -1.1 -23.35 -3.9 -23.6 Q-5.2 -23.75 -5.3 -24.3 -5.45 -24.95 -4.0 -26.4 -2.0 -28.4 -1.8 -31.2 L-1.7 -33.15 Q-1.5 -34.1 -0.9 -34.7" fill="#d39c53" fill-rule="evenodd" stroke="none"/>
      <path d="M4.95 -29.5 L4.5 -28.0 3.6 -26.7 Q3.15 -26.25 2.85 -26.45 2.55 -26.65 2.65 -27.35 2.7 -28.05 3.1 -28.85 3.45 -29.7 3.95 -30.15 4.4 -30.6 4.7 -30.45 5.0 -30.25 4.95 -29.5" fill="#764b2d" fill-rule="evenodd" stroke="none"/>
      <path d="M4.4 -29.45 L4.1 -28.4 3.55 -27.6 Q3.25 -27.3 3.05 -27.4 2.85 -27.5 2.9 -28.0 L3.2 -29.0 3.75 -29.85 Q4.05 -30.15 4.25 -30.05 L4.4 -29.45" fill="#231f20" fill-rule="evenodd" stroke="none"/>
      <path d="M9.2 -30.8 L11.45 -29.45 13.1 -27.45 Q13.6 -26.4 13.15 -25.9 12.7 -25.4 11.6 -25.75 10.5 -26.1 9.4 -27.05 8.25 -28.05 7.75 -29.1 7.25 -30.15 7.65 -30.65 L9.2 -30.8" fill="#fef097" fill-rule="evenodd" stroke="none"/>
      <path d="M-18.4 45.45 L-18.85 41.85 -18.85 39.9 -18.4 38.8 Q-18.0 38.3 -17.4 38.3 L-16.35 38.05 -13.65 37.45 Q-13.0 37.45 -12.65 37.9 -12.3 38.3 -12.35 38.8 L-11.8 43.1 -11.05 47.05 -5.1 48.0 Q-3.25 48.5 -1.85 49.1 -0.25 49.85 0.6 50.85 1.45 52.0 1.25 53.3 0.95 55.3 -0.45 56.35 -1.65 57.2 -3.35 57.15 L-4.65 56.95 Q-4.35 57.8 -4.45 58.65 -4.6 60.3 -6.0 61.25 -7.2 62.0 -8.75 62.0 -10.4 61.9 -11.6 60.95 -13.05 59.85 -13.3 58.05 -13.55 56.55 -15.1 55.5 -16.0 54.85 -17.0 54.55 L-18.3 54.85 -20.85 55.25 Q-22.05 55.25 -22.85 54.45 -23.7 53.65 -23.85 52.15 -24.0 50.4 -23.0 49.2 -22.2 48.2 -20.65 47.7 L-18.15 47.25 -18.4 45.45" fill="#7d503e" fill-rule="evenodd" stroke="none"/>
      <path d="M-21.95 50.85 L-21.15 53.3 Q-22.6 53.1 -23.8 54.1 L-24.75 55.15 Q-25.4 53.1 -23.75 51.75 L-22.55 51.05 -21.95 50.85" fill="#3b2216" fill-rule="evenodd" stroke="none"/>
      <path d="M-15.15 38.85 L-13.45 38.65 -12.8 43.6 Q-12.1 48.05 -11.75 48.05 -7.35 48.35 -3.95 49.45 0.5 50.9 0.15 53.05 -0.3 55.95 -3.15 55.9 L-5.35 55.35 -6.9 54.25 Q-7.65 53.2 -9.5 52.55 L-11.2 52.1 -10.25 52.65 -8.25 54.1 Q-5.3 56.45 -5.55 58.45 -5.7 59.55 -6.65 60.2 -7.55 60.8 -8.75 60.7 -9.95 60.65 -10.9 59.95 -11.9 59.1 -12.1 57.75 -12.4 55.85 -14.3 54.5 -15.35 53.75 -16.65 53.35 L-18.1 53.5 -20.0 54.0 Q-22.4 54.3 -22.65 51.95 -22.85 49.55 -20.1 48.7 -18.7 48.25 -16.9 48.15 -16.8 48.1 -17.4 43.7 -18.05 39.35 -17.3 39.35 L-15.15 38.85" fill="#ffd343" fill-rule="evenodd" stroke="none"/>
      <path d="M-6.65 58.15 Q-6.15 58.9 -6.45 61.3 L-6.8 63.55 -7.4 62.0 Q-8.2 60.3 -8.95 59.6 -9.35 59.2 -9.2 58.7 -9.1 58.25 -8.6 57.9 L-7.6 57.6 Q-7.05 57.65 -6.65 58.15" fill="#3b2216" fill-rule="evenodd" stroke="none"/>
      <path d="M-2.15 52.4 L-0.7 52.65 Q0.9 53.6 1.25 55.3 1.5 56.55 1.05 58.05 L0.15 56.55 Q-1.05 55.05 -2.4 54.8 L-3.15 54.15 Q-3.3 53.65 -3.0 53.1 L-2.15 52.4" fill="#3b2216" fill-rule="evenodd" stroke="none"/>
      <path d="M-6.65 54.5 L-7.55 53.5 Q-7.95 53.1 -7.85 52.5 L-7.65 51.95 Q-7.7 52.7 -7.2 53.65 L-6.65 54.5" fill="#7d503e" fill-rule="evenodd" stroke="none"/>
      <path d="M-12.1 57.9 L-12.4 56.75 -12.15 55.85 -11.9 55.55 Q-12.2 56.75 -12.1 57.9" fill="#7d503e" fill-rule="evenodd" stroke="none"/>
      <path d="M-4.55 49.25 L-5.8 49.2 Q-7.1 49.25 -7.6 49.75 L-7.3 49.4 Q-6.9 49.05 -6.15 48.85 L-4.55 49.25" fill="#7d503e" fill-rule="evenodd" stroke="none"/>
      <path d="M-16.95 53.3 L-17.8 53.4 Q-18.7 52.9 -19.0 52.25 L-19.15 51.75 Q-18.85 52.55 -17.9 53.0 L-16.95 53.3" fill="#7d503e" fill-rule="evenodd" stroke="none"/>
      <path d="M-11.75 48.05 L-10.55 48.1 -12.15 48.6 -13.35 49.1 -12.5 48.4 -11.75 48.05" fill="#7d503e" fill-rule="evenodd" stroke="none"/>
      <path d="M-28.2 30.85 L-25.9 26.1 Q-24.15 23.15 -19.5 21.3 -17.15 20.4 -15.15 20.05 L-11.65 20.4 Q-10.3 20.9 -9.85 22.25 -7.9 27.65 -8.2 34.1 -8.65 41.85 -12.75 44.55 -16.95 47.35 -19.2 47.5 -20.6 47.55 -21.45 46.75 -22.65 47.45 -23.6 47.5 -24.95 47.6 -25.65 46.6 -26.55 45.4 -26.1 42.9 L-27.65 43.35 Q-29.0 43.4 -29.6 42.35 -30.1 41.5 -29.8 40.2 -29.4 38.55 -27.8 35.65 L-26.9 34.1 -28.25 33.2 Q-28.8 32.4 -28.2 30.85" fill="#1e3039" fill-rule="evenodd" stroke="none"/>
      <path d="M-12.95 19.8 Q-11.1 20.2 -10.7 21.4 -8.85 26.4 -9.25 33.1 -9.75 40.85 -13.35 43.25 -18.4 46.55 -20.1 45.85 -20.6 45.6 -20.7 45.0 L-20.75 44.45 Q-25.0 47.8 -24.85 44.05 L-24.3 41.15 -23.85 39.65 Q-30.4 44.35 -27.85 38.6 L-25.5 34.2 -24.05 31.95 -27.2 31.9 Q-27.35 30.85 -25.0 26.0 -23.85 23.65 -21.55 22.05 -19.55 20.6 -17.05 20.0 L-12.95 19.8" fill="#3d4750" fill-rule="evenodd" stroke="none"/>
      <path d="M-20.75 26.75 L-21.05 28.2 Q-21.65 30.35 -23.5 30.9 L-25.2 30.75 Q-25.45 30.3 -25.3 28.6 -25.25 27.7 -23.8 26.45 L-22.35 25.4 -23.4 26.4 Q-24.45 27.55 -24.35 28.45 -24.3 29.5 -23.55 29.7 -22.85 29.9 -22.3 29.45 L-21.3 28.15 Q-20.8 27.2 -20.75 26.15 L-20.75 26.75" fill="#4c5358" fill-rule="evenodd" stroke="none"/>
      <path d="M-19.4 29.4 L-20.35 30.3 Q-21.3 31.35 -21.25 32.2 -21.2 33.15 -20.45 33.35 -19.85 33.55 -19.35 33.1 L-18.45 31.9 Q-18.0 31.05 -17.95 30.1 L-17.95 30.65 -18.2 31.95 Q-18.75 33.9 -20.45 34.45 L-22.0 34.3 Q-22.25 33.85 -22.1 32.3 -22.05 31.5 -20.7 30.35 L-19.4 29.4" fill="#4c5358" fill-rule="evenodd" stroke="none"/>
      <path d="M-26.15 36.25 Q-25.75 35.2 -23.8 33.85 L-22.0 32.7 -23.4 33.8 Q-24.85 35.1 -25.15 36.2 -25.45 37.35 -24.8 37.7 -24.2 37.95 -23.5 37.45 L-22.0 36.0 Q-21.15 34.9 -20.65 33.65 L-20.9 34.4 -21.75 36.0 Q-23.2 38.5 -25.25 39.1 -26.75 39.5 -26.85 38.8 -26.95 38.25 -26.15 36.25" fill="#4c5358" fill-rule="evenodd" stroke="none"/>
      <path d="M-21.95 38.8 L-20.35 37.3 -21.55 38.65 Q-22.7 40.25 -22.8 41.35 -22.85 42.55 -22.15 42.75 -21.5 42.9 -20.9 42.25 -20.25 41.55 -19.75 40.5 -19.1 39.25 -18.9 38.0 L-19.0 38.75 -19.45 40.5 Q-20.4 43.25 -22.3 44.2 L-23.9 44.25 Q-24.1 43.75 -23.75 41.65 -23.55 40.55 -21.95 38.8" fill="#4c5358" fill-rule="evenodd" stroke="none"/>
      <path d="M-23.05 -10.15 L-12.4 -5.8 Q-1.65 -1.05 1.65 1.9 3.65 3.05 7.4 6.75 10.85 10.15 11.65 11.45 L11.95 12.15 11.9 13.6 11.0 14.45 9.65 14.75 9.25 14.8 Q19.35 36.8 22.6 49.1 23.9 54.0 24.0 57.15 24.05 60.65 22.55 61.8 20.75 63.25 17.35 60.45 14.55 58.15 11.05 53.45 L8.35 55.1 Q6.25 56.0 4.05 56.05 1.85 56.05 -0.3 55.15 -4.65 53.35 -8.65 47.85 -13.2 41.55 -17.05 30.75 -20.6 28.85 -23.85 26.05 -27.3 23.15 -29.65 19.9 -32.65 15.7 -33.9 11.05 -34.7 8.05 -34.7 4.85 -34.7 2.1 -32.95 -1.2 L-30.25 -5.3 Q-28.55 -7.4 -26.75 -8.75 -24.65 -10.35 -23.25 -10.2 L-23.15 -10.2 -23.05 -10.15" fill="#1e3039" fill-rule="evenodd" stroke="none"/>
      <path d="M-13.8 -5.1 Q-1.7 -0.1 1.45 2.8 3.25 3.75 7.0 7.45 L11.1 11.95 Q11.5 12.6 9.65 12.9 7.7 13.2 8.0 13.95 16.05 31.25 19.95 42.85 23.4 53.2 23.1 57.65 22.85 61.7 19.6 59.9 16.35 58.1 11.3 51.25 10.4 52.15 8.85 53.0 5.75 54.6 2.45 54.05 -8.0 52.3 -16.05 29.25 -20.65 26.9 -25.25 22.5 -34.45 13.75 -34.45 3.6 -34.45 -0.55 -30.9 -5.25 -29.45 -7.25 -27.9 -8.4 -26.3 -9.65 -25.3 -9.5 L-13.8 -5.1" fill="#30353a" fill-rule="evenodd" stroke="none"/>
      <path d="M1.95 16.0 L2.0 14.7 Q1.95 16.95 2.5 19.3 L3.6 22.65 Q4.3 24.05 5.25 24.05 6.3 24.0 6.55 21.9 6.75 20.05 5.5 16.9 L4.25 14.15 6.05 17.3 Q7.8 20.85 7.8 22.8 7.75 26.45 7.35 27.25 6.75 28.3 5.05 26.55 2.65 24.1 2.1 19.15 L1.95 16.0" fill="#1e3039" fill-rule="evenodd" stroke="none"/>
      <path d="M-24.45 -0.6 L-25.55 2.35 Q-26.85 5.45 -28.05 6.0 -30.3 7.05 -31.0 6.8 -31.9 6.45 -31.65 3.95 -31.3 0.45 -28.6 -1.65 -27.2 -2.7 -25.9 -3.05 -27.3 -2.5 -28.45 -1.15 -29.4 -0.1 -29.95 1.15 -30.5 2.3 -30.05 3.4 -29.55 4.65 -28.15 4.3 -26.9 3.95 -25.55 1.65 L-24.45 -0.6" fill="#1e3039" fill-rule="evenodd" stroke="none"/>
      <path d="M-19.2 9.75 L-18.4 13.2 Q-17.8 16.95 -18.3 18.45 -19.3 21.4 -19.9 21.85 -20.65 22.45 -21.75 20.15 -23.2 17.0 -22.45 12.75 L-21.75 10.15 -21.35 9.1 Q-22.0 10.85 -22.1 13.05 L-22.0 16.3 Q-21.75 17.75 -20.9 18.2 -19.95 18.7 -19.2 17.15 -18.55 15.75 -18.8 12.6 L-19.2 9.75" fill="#1e3039" fill-rule="evenodd" stroke="none"/>
      <path d="M-22.6 6.65 L-23.0 10.05 Q-23.6 13.6 -24.6 14.6 -26.5 16.5 -27.2 16.5 -28.1 16.5 -28.4 13.9 -28.75 10.35 -26.6 7.2 -25.55 5.65 -24.4 4.8 -25.6 5.9 -26.4 7.65 L-27.35 10.5 Q-27.6 11.9 -26.95 12.8 L-25.0 12.9 Q-23.9 12.15 -23.15 9.3 L-22.6 6.65" fill="#1e3039" fill-rule="evenodd" stroke="none"/>
      <path d="M11.5 28.25 L12.6 29.9 15.1 34.05 Q18.8 40.55 19.15 44.3 19.8 51.4 19.25 53.05 18.55 55.2 15.3 52.1 10.85 47.85 8.9 38.4 8.25 35.45 7.95 32.35 L7.85 30.1 Q8.2 34.3 9.55 38.55 10.7 42.2 12.15 44.85 13.55 47.4 15.15 47.2 16.9 46.95 16.85 42.85 16.85 39.2 14.15 33.35 L12.3 29.7 11.5 28.25" fill="#1e3039" fill-rule="evenodd" stroke="none"/>
      <path d="M0.55 22.15 L1.5 24.1 3.6 28.9 Q6.7 36.4 6.65 40.3 6.65 47.8 5.95 49.35 5.0 51.4 2.05 47.5 -2.05 42.1 -3.1 31.95 L-3.4 25.5 -3.3 22.85 Q-3.4 27.4 -2.45 32.25 -1.65 36.25 -0.45 39.3 0.75 42.25 2.35 42.4 4.15 42.55 4.5 38.35 4.85 34.55 2.75 27.95 L1.25 23.8 0.55 22.15" fill="#1e3039" fill-rule="evenodd" stroke="none"/>
      <path d="M-6.85 16.45 L-4.8 22.5 Q-2.75 29.15 -3.1 32.4 -3.7 38.6 -4.4 39.8 -5.35 41.3 -7.55 37.65 -10.65 32.6 -10.7 24.05 L-10.5 18.65 -10.2 16.5 Q-10.6 20.25 -10.2 24.4 -9.85 27.85 -9.05 30.5 -8.3 33.1 -6.9 33.5 -5.4 33.9 -4.75 30.45 -4.2 27.35 -5.45 21.6 L-6.85 16.45" fill="#1e3039" fill-rule="evenodd" stroke="none"/>
    </g>
  </defs>
</svg>
