<?xml version="1.0" encoding="UTF-8" standalone="no"?>
<svg xmlns:ffdec="https://www.free-decompiler.com/flash" xmlns:xlink="http://www.w3.org/1999/xlink" ffdec:objectType="frame" height="125.0px" width="135.85px" xmlns="http://www.w3.org/2000/svg">
  <g transform="matrix(1.0, 0.0, 0.0, 1.0, 97.2, 57.35)">
    <use ffdec:characterId="469" height="108.7" transform="matrix(1.0, 0.0, 0.0, 1.0, -76.75, -41.2)" width="110.65" xlink:href="#shape0"/>
  </g>
  <defs>
    <g id="shape0" transform="matrix(1.0, 0.0, 0.0, 1.0, 76.75, 41.2)">
      <path d="M21.65 -8.5 Q20.55 -7.7 19.95 -7.55 24.65 -1.65 28.05 4.75 30.5 9.45 32.7 15.35 33.9 18.45 33.9 22.1 33.85 25.9 32.45 26.9 27.8 30.2 21.75 22.85 21.0 24.25 18.4 25.0 L13.95 25.3 Q10.15 24.7 6.55 20.35 L4.45 17.45 3.7 16.2 -2.9 16.0 Q-8.15 15.25 -10.55 12.25 L-14.2 6.35 Q-17.0 1.3 -17.05 0.15 -17.1 -2.05 -16.7 -3.85 -16.25 -6.0 -15.3 -6.6 L-15.25 -6.65 -15.15 -6.7 -7.35 -8.9 Q1.15 -11.05 7.6 -11.75 L16.5 -12.25 Q22.35 -12.15 22.8 -10.7 23.15 -9.65 21.65 -8.5" fill="#1e3039" fill-rule="evenodd" stroke="none"/>
      <path d="M21.55 20.95 L20.25 22.45 Q18.6 23.95 16.7 24.35 10.55 25.55 4.05 14.5 L-2.75 14.75 Q-10.4 13.95 -14.35 8.85 -16.5 6.1 -17.1 0.95 -17.7 -4.1 -16.2 -5.1 L-7.35 -7.45 7.95 -10.85 15.5 -11.35 Q21.25 -11.4 21.75 -10.7 22.5 -9.75 20.8 -8.75 L19.55 -8.1 19.1 -7.7 Q26.75 2.7 30.3 11.35 33.35 18.75 32.8 23.15 32.25 27.2 29.05 26.7 25.7 26.2 21.55 20.95" fill="#353f44" fill-rule="evenodd" stroke="none"/>
      <path d="M13.25 -1.65 Q12.6 -2.5 12.1 -3.5 L11.7 -4.25 Q12.45 -2.9 13.6 -1.75 L15.55 -0.15 17.15 0.0 Q17.9 -0.45 17.35 -1.8 16.85 -3.05 14.9 -4.45 L13.1 -5.6 15.4 -4.4 Q17.85 -3.0 18.5 -1.8 19.75 0.45 19.7 1.1 19.7 2.0 17.85 1.6 15.35 1.15 13.25 -1.65" fill="#4c4c4c" fill-rule="evenodd" stroke="none"/>
      <path d="M-10.95 0.0 L-10.0 2.4 Q-9.2 5.05 -9.65 6.0 -10.5 7.85 -11.05 8.05 -11.8 8.35 -12.95 6.65 -14.6 4.3 -14.05 1.55 L-13.5 -0.15 -13.15 -0.8 Q-13.7 0.3 -13.7 1.75 -13.75 2.95 -13.4 4.0 -13.1 5.05 -12.2 5.45 -11.25 5.95 -10.6 5.0 -10.0 4.1 -10.4 1.95 L-10.95 0.0" fill="#4c4c4c" fill-rule="evenodd" stroke="none"/>
      <path d="M-0.1 9.3 Q0.35 10.4 1.15 10.55 2.1 10.7 2.5 9.15 2.85 7.75 2.15 5.2 L1.35 2.95 2.55 5.6 Q3.7 8.55 3.5 10.0 3.1 12.75 2.65 13.3 2.05 14.0 0.7 12.45 -1.1 10.25 -1.05 6.45 L-0.85 4.05 -0.7 3.2 Q-0.95 4.8 -0.75 6.6 L-0.1 9.3" fill="#4c4c4c" fill-rule="evenodd" stroke="none"/>
      <path d="M-7.25 3.5 L-6.95 2.8 Q-7.4 4.05 -7.3 5.65 L-6.8 8.05 Q-6.35 9.15 -5.45 9.6 -4.45 10.05 -3.85 8.95 -3.35 7.95 -3.95 5.65 L-4.65 3.45 -3.55 6.1 Q-2.45 8.95 -2.8 10.0 -3.5 12.1 -4.0 12.4 -4.75 12.75 -6.1 10.95 -7.95 8.5 -7.65 5.4 L-7.25 3.5" fill="#4c4c4c" fill-rule="evenodd" stroke="none"/>
      <path d="M23.05 4.25 L26.2 8.5 Q29.4 13.35 29.85 16.2 30.65 21.55 30.25 22.85 29.75 24.5 26.95 22.25 23.15 19.15 21.25 12.05 20.65 9.8 20.3 7.45 L20.1 5.5 Q20.5 8.8 21.8 12.15 22.85 14.85 24.1 16.85 25.35 18.75 26.65 18.5 28.1 18.3 27.9 15.2 27.75 12.4 25.4 8.05 L23.05 4.25" fill="#4c4c4c" fill-rule="evenodd" stroke="none"/>
      <path d="M17.85 6.9 Q20.4 11.85 20.45 14.45 20.5 19.5 19.95 20.6 19.2 22.0 16.75 19.5 13.35 16.1 12.4 9.35 12.1 7.2 12.1 5.0 L12.15 3.25 Q12.15 6.3 12.95 9.5 13.65 12.15 14.65 14.15 15.6 16.05 16.95 16.05 18.45 16.1 18.7 13.25 18.9 10.7 17.1 6.35 L15.3 2.55 17.85 6.9" fill="#4c4c4c" fill-rule="evenodd" stroke="none"/>
      <path d="M6.45 2.0 L6.6 0.75 Q6.35 3.35 6.75 6.25 7.1 8.75 7.75 10.7 8.4 12.6 9.5 12.8 10.75 13.0 11.2 10.45 11.65 8.15 10.55 3.9 L9.35 0.15 11.1 4.55 Q12.8 9.4 12.6 11.8 12.2 16.4 11.6 17.35 10.85 18.55 9.0 15.95 6.5 12.35 6.3 6.0 6.25 4.0 6.45 2.0" fill="#4c4c4c" fill-rule="evenodd" stroke="none"/>
      <path d="M-1.45 35.1 Q-0.85 35.15 -0.55 35.55 -0.25 35.9 -0.3 36.35 L0.05 40.2 0.65 43.7 Q3.35 43.95 5.9 44.7 7.5 45.15 8.75 45.75 10.2 46.5 10.85 47.35 11.65 48.4 11.4 49.55 11.1 51.3 9.8 52.2 8.75 52.9 7.25 52.85 L6.1 52.65 6.25 54.15 Q6.05 55.6 4.75 56.4 3.7 57.1 2.35 57.0 0.9 56.9 -0.2 56.05 -1.4 55.05 -1.65 53.4 -1.8 52.05 -3.15 51.1 -3.9 50.55 -4.8 50.25 L-4.85 50.25 -5.95 50.45 -7.05 50.7 -8.25 50.75 Q-9.3 50.7 -10.0 50.0 -10.75 49.25 -10.8 47.9 -10.95 46.35 -10.05 45.35 -8.8 43.95 -5.65 43.7 L-5.85 42.1 -6.15 38.9 -6.15 37.15 -5.7 36.2 Q-5.3 35.8 -4.8 35.8 L-3.8 35.55 -1.45 35.1" fill="#7d503e" fill-rule="evenodd" stroke="none"/>
      <path d="M-10.75 47.55 Q-10.25 47.2 -9.65 46.95 L-9.1 46.8 -8.45 49.0 Q-9.7 48.8 -10.85 49.65 L-11.7 50.55 Q-12.25 48.7 -10.75 47.55" fill="#3b2216" fill-rule="evenodd" stroke="none"/>
      <path d="M6.9 46.0 Q10.8 47.4 10.45 49.25 10.0 51.85 7.45 51.75 L5.5 51.2 4.15 50.2 Q3.5 49.25 1.9 48.6 L0.4 48.2 3.0 50.0 Q5.5 52.2 5.25 53.95 5.1 54.95 4.25 55.45 3.45 55.95 2.35 55.9 1.3 55.8 0.5 55.1 -0.4 54.4 -0.55 53.2 -0.8 51.45 -2.4 50.25 -3.35 49.5 -4.5 49.15 L-5.75 49.25 -7.45 49.6 Q-9.6 49.9 -9.75 47.75 -9.9 45.6 -7.45 44.95 L-4.6 44.55 Q-4.45 44.5 -4.9 40.55 -5.35 36.7 -4.7 36.75 L-2.8 36.3 -1.3 36.2 -0.85 40.6 Q-0.3 44.55 0.0 44.55 3.9 44.95 6.9 46.0" fill="#ffd343" fill-rule="evenodd" stroke="none"/>
      <path d="M2.25 54.9 Q1.85 54.5 2.0 54.05 2.1 53.65 2.55 53.4 3.65 52.7 4.25 53.65 4.7 54.3 4.4 56.45 L4.0 58.45 3.5 57.05 Q2.85 55.55 2.25 54.9" fill="#3b2216" fill-rule="evenodd" stroke="none"/>
      <path d="M10.35 52.4 Q9.35 51.0 8.15 50.8 7.6 50.7 7.5 50.2 7.4 49.75 7.65 49.25 8.3 48.05 9.7 48.9 11.1 49.8 11.35 51.35 11.55 52.45 11.1 53.75 L10.35 52.4" fill="#3b2216" fill-rule="evenodd" stroke="none"/>
      <path d="M4.35 50.4 L3.55 49.5 Q3.25 49.15 3.35 48.6 L3.5 48.15 Q3.5 48.8 3.9 49.65 L4.35 50.4" fill="#7d503e" fill-rule="evenodd" stroke="none"/>
      <path d="M-0.55 53.3 L-0.8 52.25 -0.55 51.5 -0.3 51.25 Q-0.6 52.25 -0.55 53.3" fill="#7d503e" fill-rule="evenodd" stroke="none"/>
      <path d="M6.35 45.8 L5.25 45.75 Q4.05 45.75 3.65 46.2 L3.9 45.9 Q4.3 45.55 4.95 45.4 L6.35 45.8" fill="#7d503e" fill-rule="evenodd" stroke="none"/>
      <path d="M-6.55 48.15 L-6.65 47.7 Q-6.45 48.4 -5.55 48.8 L-4.75 49.1 -5.5 49.15 -6.55 48.15" fill="#7d503e" fill-rule="evenodd" stroke="none"/>
      <path d="M0.0 44.55 L1.05 44.65 Q0.7 44.6 -0.35 45.05 L-1.45 45.45 -0.7 44.85 0.0 44.55" fill="#7d503e" fill-rule="evenodd" stroke="none"/>
      <path d="M-1.85 19.75 L1.05 20.05 Q1.45 20.3 1.5 20.85 2.2 30.85 1.65 35.45 1.1 40.5 -1.25 41.8 -4.35 43.55 -6.05 43.55 -7.0 43.55 -7.6 43.05 -8.95 44.0 -10.0 44.0 -10.95 44.0 -11.55 43.25 -12.3 42.2 -11.85 39.75 -13.0 40.35 -13.75 40.35 -14.7 40.35 -15.15 39.55 -15.5 38.9 -15.3 37.8 -15.0 36.35 -13.65 33.7 L-12.75 32.05 Q-13.75 32.0 -14.2 31.3 -14.6 30.65 -13.9 29.15 L-11.85 24.85 Q-11.0 22.9 -6.35 21.1 -4.05 20.25 -1.85 19.75" fill="#1e3039" fill-rule="evenodd" stroke="none"/>
      <path d="M1.15 20.8 Q1.7 28.3 1.35 32.9 0.8 39.6 -1.6 40.95 -5.15 42.95 -6.5 42.45 L-7.05 41.9 -7.1 41.55 Q-10.8 44.65 -10.75 41.35 L-10.4 38.75 -10.0 37.4 Q-15.7 41.75 -13.6 36.6 L-11.6 32.6 -10.4 30.55 -13.2 30.6 Q-13.4 29.7 -11.4 25.3 -10.45 23.2 -8.35 21.65 -6.5 20.3 -4.2 19.7 L-0.5 19.4 Q1.1 19.7 1.15 20.8" fill="#3d4750" fill-rule="evenodd" stroke="none"/>
      <path d="M-2.05 39.2 Q-2.5 40.95 -4.0 41.45 L-5.35 41.35 -5.55 39.6 Q-5.5 38.9 -4.35 37.85 L-3.2 36.95 -4.0 37.8 Q-4.85 38.75 -4.75 39.5 -4.65 40.3 -4.05 40.5 -3.5 40.65 -3.05 40.25 L-2.3 39.2 -1.95 38.15 -2.05 39.2" fill="#4c5358" fill-rule="evenodd" stroke="none"/>
      <path d="M-7.6 36.35 Q-8.6 37.8 -8.65 38.8 -8.65 39.85 -8.0 40.0 -7.45 40.15 -6.9 39.5 -6.35 38.9 -5.95 37.95 L-5.4 36.5 -5.7 37.95 Q-6.45 40.4 -8.1 41.3 L-9.55 41.4 Q-9.75 40.95 -9.45 39.05 -9.3 38.1 -7.95 36.5 L-6.6 35.1 -7.6 36.35" fill="#4c5358" fill-rule="evenodd" stroke="none"/>
      <path d="M-45.05 27.75 L-41.7 27.05 -35.25 26.8 Q-26.4 27.8 -28.45 36.35 -29.7 41.45 -35.2 47.25 -37.5 49.7 -39.7 51.15 -41.95 52.65 -43.2 52.5 -44.95 52.3 -44.85 50.15 L-44.65 48.7 -44.45 48.05 Q-46.15 51.0 -48.65 52.45 -51.25 54.0 -54.2 53.55 -56.35 53.2 -54.6 50.3 L-53.2 48.35 -53.1 48.2 Q-55.0 50.25 -58.25 51.5 -62.45 53.2 -65.5 52.0 -67.3 51.3 -65.8 49.35 L-64.6 48.1 -63.95 47.55 -66.0 48.4 Q-68.5 49.15 -70.9 48.95 -73.55 48.75 -74.65 47.85 -75.75 47.0 -75.25 45.8 -74.8 44.65 -72.95 43.55 -71.0 42.35 -68.1 41.6 -59.5 39.4 -51.4 33.35 -47.4 30.35 -45.05 27.75" fill="#1e3039" fill-rule="evenodd" stroke="none"/>
      <path d="M-37.5 25.35 Q-30.9 25.35 -28.25 28.7 -25.95 31.65 -27.15 36.7 -27.9 39.85 -30.4 43.45 -32.0 45.8 -34.0 47.95 L-37.75 51.45 Q-40.9 53.85 -43.0 53.85 L-43.4 53.85 Q-44.95 53.65 -45.7 52.4 L-45.9 52.05 Q-49.0 55.0 -52.9 55.0 L-54.4 54.85 Q-56.05 54.6 -56.55 53.3 L-56.7 52.35 Q-59.9 53.85 -62.75 53.85 L-66.0 53.25 Q-67.6 52.6 -67.8 51.15 L-67.75 50.2 -69.9 50.35 -71.0 50.3 Q-74.15 50.05 -75.6 48.8 -76.65 47.95 -76.75 46.75 -76.9 44.85 -74.65 43.05 -72.4 41.3 -68.45 40.3 -63.8 39.1 -59.15 36.65 -55.6 34.8 -52.3 32.3 L-47.7 28.5 -46.05 26.85 -45.9 26.65 -45.65 26.55 -42.8 25.85 -37.5 25.35" fill="#1e3039" fill-rule="evenodd" stroke="none"/>
      <path d="M-44.95 27.25 L-41.6 26.55 -35.15 26.35 Q-26.3 27.35 -28.35 35.9 -29.6 41.0 -35.05 46.75 -37.4 49.2 -39.55 50.65 -41.85 52.15 -43.1 52.0 -44.8 51.8 -44.75 49.65 L-44.5 48.2 -44.35 47.55 Q-46.05 50.55 -48.55 52.0 -51.15 53.5 -54.05 53.05 -56.25 52.75 -54.5 49.8 L-53.1 47.85 -53.0 47.75 Q-54.9 49.75 -58.1 51.05 -62.35 52.7 -65.35 51.5 -67.2 50.8 -65.7 48.85 L-64.45 47.6 -63.8 47.1 -65.85 47.9 -70.75 48.5 Q-73.4 48.25 -74.55 47.35 -75.6 46.55 -75.15 45.35 -74.65 44.15 -72.85 43.05 -70.9 41.85 -68.0 41.1 -59.4 38.9 -51.3 32.85 -47.3 29.85 -44.95 27.25" fill="#dcf0fe" fill-rule="evenodd" stroke="none"/>
      <path d="M-68.5 42.05 Q-65.4 40.85 -62.3 39.95 L-66.85 41.9 Q-71.35 44.1 -71.0 45.35 -70.7 46.55 -65.75 46.3 L-60.8 45.75 -67.45 46.95 Q-74.1 47.75 -74.35 46.15 -74.6 44.5 -68.5 42.05" fill="#a9b3be" fill-rule="evenodd" stroke="none"/>
      <path d="M-54.75 41.15 L-58.5 44.35 Q-62.2 47.75 -61.5 48.85 -60.85 49.9 -56.15 48.2 L-51.6 46.25 -57.6 49.3 Q-63.75 52.05 -64.45 50.55 -65.2 49.1 -60.05 44.95 L-56.45 42.25 -54.75 41.15" fill="#a9b3be" fill-rule="evenodd" stroke="none"/>
      <path d="M-47.6 41.85 L-49.95 45.2 Q-52.15 48.7 -51.25 49.65 -50.3 50.65 -46.7 48.65 L-43.3 46.45 -44.6 47.55 -47.65 49.8 Q-52.2 52.9 -53.3 51.55 -54.4 50.15 -51.1 45.9 L-48.75 43.05 -47.6 41.85" fill="#a9b3be" fill-rule="evenodd" stroke="none"/>
      <path d="M-40.4 40.95 L-39.6 39.5 -41.05 43.35 Q-42.3 47.3 -41.2 48.0 -40.05 48.7 -37.05 45.9 L-34.3 42.9 -35.3 44.3 -37.65 47.25 Q-41.35 51.35 -42.75 50.3 -44.15 49.25 -42.0 44.3 L-40.4 40.95" fill="#a9b3be" fill-rule="evenodd" stroke="none"/>
      <path d="M-43.9 34.25 L-41.4 31.95 -43.25 34.05 Q-45.2 36.5 -45.35 38.25 -45.55 40.15 -44.5 40.45 -43.5 40.7 -42.5 39.7 -41.5 38.6 -40.65 37.0 -39.6 35.05 -39.15 33.05 L-39.4 34.25 -40.2 37.0 Q-41.8 41.25 -44.8 42.75 -46.95 43.85 -47.3 42.75 -47.55 41.9 -46.85 38.65 -46.45 36.9 -43.9 34.25" fill="#a9b3be" fill-rule="evenodd" stroke="none"/>
      <path d="M-31.25 33.15 L-31.75 35.35 Q-32.75 38.75 -35.15 40.0 -36.9 40.85 -37.25 40.0 -37.55 39.35 -37.15 36.8 -36.95 35.4 -35.05 33.25 L-33.1 31.4 -34.55 33.1 Q-35.95 35.05 -35.95 36.4 -36.0 37.95 -35.05 38.15 -34.2 38.35 -33.5 37.5 -32.7 36.65 -32.1 35.35 -31.35 33.85 -31.15 32.3 L-31.25 33.15" fill="#a9b3be" fill-rule="evenodd" stroke="none"/>
      <path d="M-45.9 30.55 L-48.65 32.3 Q-51.55 34.4 -52.4 36.15 -53.4 38.1 -52.4 38.7 -51.55 39.25 -50.15 38.4 -48.7 37.5 -47.2 36.05 -45.35 34.25 -44.15 32.25 L-44.8 33.45 -46.75 36.15 Q-50.1 40.2 -53.65 41.05 -56.25 41.65 -56.15 40.45 -56.1 39.5 -54.05 36.25 -53.0 34.5 -49.35 32.35 L-45.9 30.55" fill="#a9b3be" fill-rule="evenodd" stroke="none"/>
      <path d="M-2.1 -39.05 Q-0.65 -38.35 0.25 -37.65 1.75 -36.45 2.4 -34.2 3.25 -33.7 3.95 -32.15 L4.6 -30.35 4.55 -29.55 Q4.25 -28.65 3.65 -24.8 6.05 -23.25 6.2 -17.75 6.3 -14.8 5.85 -11.9 5.8 -11.4 5.4 -11.05 5.05 -10.75 4.55 -10.75 L4.35 -10.75 3.9 -7.9 3.45 -7.1 Q3.15 -6.8 2.7 -6.8 4.15 0.1 4.45 4.85 4.85 11.95 3.4 21.05 L2.45 24.65 Q0.6 29.8 -7.5 35.5 -14.7 40.55 -20.4 42.15 -23.2 42.9 -23.9 41.65 L-24.2 40.4 -24.25 39.0 Q-25.6 39.95 -30.2 40.15 -34.95 40.35 -35.8 39.35 -36.0 39.1 -35.55 37.9 L-34.9 36.15 Q-36.95 37.0 -39.85 37.3 L-43.85 37.6 Q-44.75 37.6 -45.25 37.25 L-45.9 36.5 Q-46.3 35.85 -44.0 33.7 L-40.9 30.55 -42.65 30.7 Q-45.45 30.7 -47.95 29.45 L-49.4 28.3 -50.5 26.95 Q-51.0 25.85 -49.05 24.9 L-47.2 24.0 Q-46.1 23.45 -45.5 22.9 L-42.6 19.75 Q-40.8 17.4 -40.15 14.9 -37.3 4.5 -35.35 -1.25 -32.95 -8.25 -30.7 -12.0 L-31.2 -12.45 Q-32.25 -14.35 -31.8 -17.6 L-32.0 -17.6 -32.55 -17.7 -33.15 -18.2 -33.35 -19.0 Q-33.1 -22.1 -31.6 -26.05 L-31.85 -26.1 -32.55 -26.65 -32.75 -27.5 Q-32.6 -29.75 -31.0 -32.5 L-31.1 -32.6 -31.55 -33.3 -31.5 -34.1 Q-30.85 -35.85 -28.35 -37.75 L-28.7 -38.35 -28.6 -39.25 -27.95 -39.85 -25.35 -40.6 -17.3 -41.2 -14.45 -41.15 Q-8.4 -40.95 -5.5 -39.8 L-4.75 -40.0 -4.45 -40.0 Q-3.5 -39.8 -2.1 -39.05" fill="#1e3039" fill-rule="evenodd" stroke="none"/>
      <path d="M-26.1 -15.6 Q-24.25 -17.2 -22.7 -16.55 L-21.5 -15.65 -10.5 -16.0 0.05 -14.55 1.65 -6.85 3.0 0.55 Q4.15 9.25 2.35 20.55 1.0 29.5 -10.95 36.1 -16.9 39.4 -22.6 40.95 -22.2 39.85 -23.0 37.85 L-23.85 36.15 Q-25.6 38.45 -30.1 38.75 L-33.05 38.7 -34.25 38.55 Q-33.55 37.45 -33.0 35.2 L-32.55 33.2 Q-34.75 35.15 -39.75 35.75 L-42.95 35.95 -44.25 35.95 Q-41.55 34.5 -39.6 31.25 L-38.5 29.15 -38.2 28.3 Q-42.25 29.85 -46.05 28.4 -47.3 27.95 -48.25 27.25 L-48.8 26.65 -47.4 26.0 -44.6 23.9 Q-40.5 20.15 -39.05 14.95 -32.1 -10.45 -26.1 -15.6" fill="#353f44" fill-rule="evenodd" stroke="none"/>
      <path d="M1.6 -33.5 Q2.3 -33.5 3.05 -31.85 L3.6 -30.25 2.9 -26.8 2.5 -24.25 Q4.95 -23.7 5.15 -18.0 5.25 -15.1 4.85 -12.35 L4.25 -14.0 3.75 -14.9 Q3.75 -12.95 2.9 -8.4 2.45 -8.5 1.75 -9.0 L1.15 -9.55 Q1.05 -7.9 0.45 -6.45 L-0.15 -5.4 Q-2.3 -5.75 -3.7 -7.65 L-4.45 -8.9 -4.65 -9.45 Q-5.0 -8.65 -6.65 -7.1 -8.15 -7.4 -10.5 -9.0 L-12.55 -10.5 Q-12.85 -9.9 -14.0 -9.3 L-15.1 -8.75 Q-16.6 -8.75 -19.65 -10.9 L-22.4 -13.05 Q-22.55 -12.4 -22.3 -11.3 L-22.05 -10.4 Q-23.95 -11.15 -25.65 -13.7 L-27.05 -16.05 Q-27.1 -15.55 -28.4 -14.4 L-29.7 -13.4 Q-30.8 -15.35 -29.8 -19.5 L-28.95 -22.15 -28.55 -23.25 Q-29.0 -22.3 -30.4 -20.65 L-31.7 -19.2 Q-31.5 -22.45 -29.6 -27.0 L-27.75 -30.9 Q-28.4 -31.05 -29.8 -29.35 L-31.1 -27.65 Q-30.95 -29.75 -29.2 -32.55 L-27.5 -34.95 -28.95 -34.5 -29.95 -33.9 Q-29.45 -35.3 -27.2 -36.95 L-25.05 -38.35 Q-25.6 -38.7 -26.35 -38.85 L-27.05 -38.9 -26.4 -39.15 -24.25 -39.6 -14.2 -40.05 Q-8.15 -39.85 -5.45 -38.7 -4.2 -38.2 -4.0 -37.7 L-4.45 -38.95 -2.35 -38.1 -0.25 -36.85 Q0.65 -36.1 1.2 -34.75 L1.6 -33.5" fill="#dcf0fe" fill-rule="evenodd" stroke="none"/>
      <path d="M-4.9 -27.85 Q-4.25 -26.6 -4.55 -25.05 -4.85 -23.6 -5.8 -22.55 -6.8 -21.5 -8.05 -21.55 L-10.6 -21.9 Q-13.45 -22.0 -14.75 -20.9 -17.15 -18.85 -20.7 -18.55 L-22.9 -18.55 -23.8 -18.65 -22.7 -20.7 Q-21.3 -22.85 -19.75 -23.4 L-20.7 -24.0 Q-21.95 -24.55 -23.45 -24.5 L-22.1 -25.9 Q-20.35 -27.35 -18.45 -27.65 -18.2 -28.0 -18.35 -28.4 -18.65 -29.2 -20.55 -29.4 -21.7 -29.55 -22.85 -30.65 L-23.8 -31.65 -22.7 -31.35 Q-21.15 -31.2 -18.95 -32.1 -16.55 -33.05 -13.65 -32.0 L-10.85 -30.85 Q-9.0 -30.1 -7.45 -29.7 -5.65 -29.2 -4.9 -27.85" fill="#b8cddf" fill-rule="evenodd" stroke="none"/>
      <path d="M0.25 -18.9 Q-0.2 -17.05 -3.25 -15.35 L-6.25 -14.0 Q-5.45 -14.85 -4.5 -16.8 L-3.7 -18.6 Q-4.5 -17.45 -6.4 -16.55 L-8.2 -15.9 Q-7.3 -16.85 -7.6 -18.2 L-8.1 -19.35 Q-10.35 -20.55 -9.5 -23.85 L-8.95 -25.9 Q-8.9 -26.75 -9.65 -26.7 -10.5 -26.65 -11.05 -27.3 L-11.95 -28.85 Q-13.2 -31.75 -14.35 -32.85 -10.8 -30.6 -8.15 -30.4 -6.2 -30.3 -4.25 -31.3 -3.05 -31.9 0.1 -25.0 L3.0 -17.95 Q2.8 -16.4 0.9 -15.65 L-0.95 -15.25 Q-0.4 -16.1 0.25 -18.9" fill="#a69a8c" fill-rule="evenodd" stroke="none"/>
      <path d="M-7.0 -30.55 L-7.1 -29.6 Q-7.45 -28.5 -8.4 -27.8 -10.1 -26.55 -11.85 -27.3 -13.7 -28.1 -13.25 -30.6 -13.0 -32.0 -16.8 -31.9 L-20.65 -31.5 -18.1 -32.45 -14.35 -32.85 -11.65 -31.3 Q-10.1 -30.45 -8.4 -30.4 L-7.0 -30.55" fill="#6a5846" fill-rule="evenodd" stroke="none"/>
      <path d="M-15.2 -33.1 Q-14.45 -33.05 -12.8 -32.0 -10.65 -30.6 -8.6 -30.45 L-7.0 -30.55 -7.3 -30.0 Q-7.8 -29.45 -8.55 -29.55 L-9.35 -29.5 -9.6 -28.75 Q-9.9 -27.75 -10.85 -27.4 L-12.6 -27.5 Q-13.5 -27.85 -13.8 -28.7 -14.1 -29.65 -13.45 -30.75 -13.05 -31.3 -15.2 -32.0 L-17.35 -32.6 -15.2 -33.1" fill="#231f20" fill-rule="evenodd" stroke="none"/>
      <path d="M-29.1 25.15 L-30.6 28.1 Q-33.3 32.6 -36.7 33.95 -39.15 34.95 -39.25 33.75 -39.35 32.8 -37.8 29.3 -36.95 27.45 -33.7 24.75 L-30.6 22.4 -33.05 24.55 Q-35.55 27.1 -36.2 28.95 -36.85 31.05 -35.8 31.5 -34.9 31.85 -33.6 30.8 -32.3 29.7 -31.05 28.05 -29.55 26.1 -28.65 24.05 L-29.1 25.15" fill="#4c4c4c" fill-rule="evenodd" stroke="none"/>
      <path d="M-19.4 10.85 L-20.2 13.3 Q-21.65 17.15 -24.1 18.65 -25.9 19.75 -26.1 18.85 -26.3 18.1 -25.55 15.2 -25.2 13.65 -23.0 11.15 L-20.9 8.95 -22.5 10.9 Q-24.15 13.2 -24.35 14.7 -24.6 16.4 -23.75 16.6 -23.0 16.8 -22.15 15.8 L-20.5 13.35 Q-19.6 11.6 -19.2 9.9 L-19.4 10.85" fill="#4c4c4c" fill-rule="evenodd" stroke="none"/>
      <path d="M-37.85 25.5 Q-39.75 28.2 -42.5 28.2 -44.55 28.25 -44.7 27.25 -44.85 26.5 -43.85 24.25 -43.3 23.05 -40.75 21.95 L-38.25 21.1 -40.15 22.05 Q-42.15 23.2 -42.5 24.5 -42.9 25.9 -42.0 26.55 L-40.15 26.7 -38.2 25.35 Q-37.05 24.25 -36.5 22.85 L-36.8 23.65 Q-37.25 24.65 -37.85 25.5" fill="#4c4c4c" fill-rule="evenodd" stroke="none"/>
      <path d="M-9.6 25.8 Q-10.25 27.75 -9.55 28.8 -8.8 29.95 -7.55 29.8 -6.45 29.7 -5.95 28.8 -5.5 27.9 -5.45 26.75 -5.35 25.3 -5.95 24.05 L-5.6 24.8 Q-5.15 25.7 -5.0 26.6 -4.5 29.5 -6.7 31.2 -8.3 32.45 -9.2 31.95 -9.9 31.55 -10.85 29.45 -11.3 28.35 -10.1 26.1 L-8.75 24.05 -9.6 25.8" fill="#4c4c4c" fill-rule="evenodd" stroke="none"/>
      <path d="M-9.95 16.45 L-11.3 17.85 Q-12.6 19.45 -12.3 20.65 -11.95 22.0 -10.75 22.3 -9.65 22.55 -8.9 21.9 -8.15 21.2 -7.7 20.15 -7.15 18.8 -7.3 17.45 L-7.2 18.25 Q-7.1 19.25 -7.25 20.15 -7.75 23.05 -10.45 23.9 L-13.05 23.75 Q-13.55 23.15 -13.75 20.85 -13.8 19.65 -11.85 17.95 L-9.95 16.45" fill="#4c4c4c" fill-rule="evenodd" stroke="none"/>
      <path d="M-0.95 17.25 Q-0.35 18.05 0.0 18.9 1.15 21.6 -0.65 23.75 -1.95 25.35 -2.95 25.05 -3.7 24.8 -5.05 22.95 -5.75 22.0 -5.05 19.5 L-4.2 17.2 -4.65 19.1 Q-4.85 21.15 -3.95 22.05 -2.95 23.0 -1.8 22.6 -0.7 22.2 -0.45 21.25 -0.2 20.25 -0.4 19.1 -0.6 17.7 -1.5 16.6 L-0.95 17.25" fill="#4c4c4c" fill-rule="evenodd" stroke="none"/>
      <path d="M-2.05 0.1 L-1.9 1.25 Q-1.65 2.5 -0.9 2.85 L0.5 2.75 Q1.05 2.3 1.0 1.7 L0.6 0.4 -0.55 -0.8 -0.1 -0.55 0.8 0.2 Q2.0 1.6 1.4 3.2 0.95 4.4 0.3 4.4 -0.2 4.4 -1.35 3.6 -2.0 3.2 -2.05 1.6 L-2.05 0.1" fill="#4c4c4c" fill-rule="evenodd" stroke="none"/>
      <path d="M-4.8 4.95 L-4.0 2.85 -4.4 4.55 Q-4.65 6.45 -3.85 7.2 -2.9 8.1 -1.85 7.7 -0.9 7.4 -0.65 6.55 -0.4 5.65 -0.55 4.6 -0.75 3.35 -1.55 2.35 L-1.05 2.95 -0.25 4.4 Q0.75 6.9 -0.85 8.8 -2.05 10.2 -2.95 9.9 -3.6 9.7 -4.8 8.0 -5.45 7.15 -4.8 4.95" fill="#4c4c4c" fill-rule="evenodd" stroke="none"/>
      <path d="M-8.95 -1.25 L-9.8 0.25 Q-10.5 1.95 -9.95 2.95 -9.35 4.05 -8.2 4.0 -7.2 3.95 -6.75 3.2 -6.25 2.4 -6.1 1.35 -5.95 0.1 -6.4 -1.1 L-6.1 -0.4 Q-5.8 0.45 -5.75 1.25 -5.45 3.9 -7.55 5.3 -9.05 6.3 -9.85 5.8 -10.45 5.4 -11.15 3.45 -11.5 2.45 -10.25 0.5 L-8.95 -1.25" fill="#4c4c4c" fill-rule="evenodd" stroke="none"/>
      <path d="M-14.15 -1.75 Q-15.3 -1.0 -15.85 -1.4 -16.3 -1.7 -16.8 -3.15 -17.05 -3.9 -16.15 -5.35 L-15.15 -6.65 -15.8 -5.5 Q-16.35 -4.25 -15.95 -3.5 -15.45 -2.7 -14.65 -2.75 -13.9 -2.75 -13.5 -3.3 -13.15 -3.9 -13.05 -4.7 -12.95 -5.65 -13.3 -6.5 L-13.05 -6.0 -12.75 -4.75 Q-12.55 -2.8 -14.15 -1.75" fill="#4c4c4c" fill-rule="evenodd" stroke="none"/>
      <path d="M-11.25 -29.9 L-11.65 -29.4 -12.3 -29.35 -12.8 -29.8 -12.85 -30.45 -12.5 -30.65 -11.95 -30.45 -11.4 -30.3 Q-11.15 -30.2 -11.25 -29.9" fill="#ffffff" fill-rule="evenodd" stroke="none"/>
      <path d="M-3.4 -32.55 Q-2.6 -33.25 -1.35 -33.25 L1.4 -32.65 4.5 -31.4 8.45 -29.65 Q11.45 -28.45 12.9 -25.45 13.85 -23.45 14.2 -20.95 14.65 -18.25 14.3 -15.15 L13.9 -14.05 13.35 -13.65 Q13.0 -13.65 12.7 -13.95 L12.0 -14.8 Q10.9 -16.4 10.25 -16.55 L7.5 -16.6 4.2 -16.25 Q3.1 -15.9 0.9 -16.25 L-1.9 -16.75 -4.35 -17.05 Q-6.5 -17.5 -7.0 -18.2 -8.9 -19.55 -8.25 -21.85 -7.8 -23.45 -7.0 -24.0 L-5.45 -26.25 Q-4.65 -27.7 -4.7 -28.75 -4.75 -29.8 -4.45 -30.7 -4.15 -31.85 -3.4 -32.55" fill="#613719" fill-rule="evenodd" stroke="none"/>
      <path d="M0.8 -17.5 L-1.7 -18.05 -4.15 -18.3 Q-6.9 -18.8 -7.4 -21.9 -5.95 -23.0 -2.8 -21.9 L-0.4 -21.05 1.75 -20.75 Q3.95 -21.1 7.6 -20.05 11.65 -18.85 11.45 -17.2 L5.65 -17.35 0.8 -17.5" fill="#b97239" fill-rule="evenodd" stroke="none"/>
      <path d="M-2.65 -32.5 Q-1.85 -33.3 2.1 -31.85 L8.25 -29.35 Q10.95 -28.25 12.3 -25.45 14.0 -21.9 13.6 -15.6 13.55 -14.65 13.2 -14.95 L12.25 -16.2 Q10.35 -18.8 8.45 -18.75 L3.15 -18.6 Q1.25 -18.75 -0.2 -20.35 -1.8 -22.1 -2.75 -26.75 -3.75 -31.4 -2.65 -32.5" fill="#ffd343" fill-rule="evenodd" stroke="none"/>
      <path d="M-2.95 -32.3 Q-1.95 -33.35 0.65 -32.5 L5.45 -30.5 4.75 -30.2 Q4.0 -29.65 3.75 -28.6 L3.35 -26.05 Q3.0 -24.55 1.75 -23.65 0.45 -22.75 0.9 -20.8 1.1 -19.8 1.55 -19.0 0.8 -19.25 0.45 -19.6 L-0.25 -20.15 Q-1.3 -20.7 -3.2 -20.95 L-6.0 -21.2 Q-7.3 -21.35 -7.4 -21.9 -7.55 -22.55 -6.1 -24.0 -4.05 -26.0 -3.9 -28.8 L-3.75 -30.75 Q-3.6 -31.7 -2.95 -32.3" fill="#d39c53" fill-rule="evenodd" stroke="none"/>
      <path d="M2.85 -27.1 L2.4 -25.6 1.55 -24.3 Q1.05 -23.85 0.75 -24.05 0.45 -24.25 0.55 -24.95 0.6 -25.65 1.0 -26.45 1.35 -27.3 1.85 -27.75 2.3 -28.2 2.6 -28.05 2.9 -27.85 2.85 -27.1" fill="#764b2d" fill-rule="evenodd" stroke="none"/>
      <path d="M2.3 -27.05 L2.05 -26.0 1.45 -25.2 Q1.15 -24.9 0.95 -25.0 0.75 -25.1 0.8 -25.6 L1.1 -26.6 1.65 -27.45 Q1.95 -27.75 2.15 -27.65 L2.3 -27.05" fill="#231f20" fill-rule="evenodd" stroke="none"/>
      <path d="M7.1 -28.4 L9.35 -27.05 11.0 -25.05 Q11.5 -24.0 11.05 -23.5 L9.55 -23.35 Q8.4 -23.7 7.3 -24.65 6.15 -25.65 5.65 -26.7 5.15 -27.75 5.55 -28.25 L7.1 -28.4" fill="#fef097" fill-rule="evenodd" stroke="none"/>
      <path d="M-28.2 57.4 Q-28.95 56.55 -29.0 55.0 -29.1 53.3 -28.0 52.15 -26.55 50.6 -23.0 50.5 L-23.15 48.7 -23.4 45.1 -23.3 43.1 -22.75 42.05 Q-22.3 41.6 -21.7 41.65 L-20.65 41.4 -17.95 41.0 Q-17.3 41.05 -16.95 41.5 -16.65 41.9 -16.7 42.45 L-16.4 46.75 -15.9 50.75 Q-12.7 51.2 -10.05 52.1 -8.2 52.7 -6.9 53.4 -5.3 54.25 -4.55 55.3 -3.75 56.5 -4.05 57.75 -4.5 59.75 -5.95 60.65 -7.15 61.45 -8.85 61.3 L-10.15 61.05 Q-9.9 61.9 -10.05 62.75 -10.35 64.4 -11.8 65.2 -13.05 65.95 -14.55 65.8 -16.15 65.65 -17.35 64.6 -18.7 63.4 -18.9 61.55 -19.05 60.05 -20.5 58.9 -21.3 58.25 -22.35 57.85 L-23.65 58.05 -26.25 58.35 Q-27.45 58.2 -28.2 57.4" fill="#7d503e" fill-rule="evenodd" stroke="none"/>
      <path d="M-29.1 57.0 L-30.1 57.95 Q-30.6 55.9 -28.9 54.65 L-27.65 54.0 -27.05 53.85 -26.4 56.35 Q-27.8 56.05 -29.1 57.0" fill="#3b2216" fill-rule="evenodd" stroke="none"/>
      <path d="M-17.5 47.2 Q-17.05 51.65 -16.7 51.7 -12.35 52.25 -9.0 53.55 -4.65 55.3 -5.1 57.4 -5.75 60.3 -8.6 60.05 L-10.8 59.4 Q-11.8 58.85 -12.25 58.2 -12.95 57.1 -14.75 56.35 L-16.4 55.8 -15.5 56.4 -13.55 57.95 Q-10.8 60.5 -11.15 62.45 -11.35 63.6 -12.35 64.15 -13.25 64.7 -14.5 64.55 -15.7 64.4 -16.55 63.6 -17.55 62.75 -17.65 61.35 -17.85 59.4 -19.6 57.95 -20.65 57.15 -21.9 56.7 L-23.4 56.75 -25.3 57.1 Q-27.7 57.3 -27.8 54.9 -27.85 52.45 -25.1 51.8 L-21.85 51.5 Q-21.7 51.45 -22.05 47.0 -22.4 42.65 -21.7 42.7 L-19.55 42.3 -17.8 42.2 -17.5 47.2" fill="#ffd343" fill-rule="evenodd" stroke="none"/>
      <path d="M-12.25 62.1 Q-11.8 62.85 -12.2 65.25 L-12.7 67.5 -13.25 65.9 Q-13.95 64.15 -14.6 63.4 -15.0 63.0 -14.85 62.5 L-14.2 61.75 -13.15 61.5 Q-12.6 61.6 -12.25 62.1" fill="#3b2216" fill-rule="evenodd" stroke="none"/>
      <path d="M-7.8 59.0 Q-8.35 58.9 -8.5 58.3 L-8.25 57.3 -7.35 56.6 Q-6.7 56.45 -5.95 57.0 -4.4 58.05 -4.15 59.75 -4.0 61.05 -4.55 62.5 -4.8 61.75 -5.35 60.95 -6.45 59.35 -7.8 59.0" fill="#3b2216" fill-rule="evenodd" stroke="none"/>
      <path d="M-12.0 58.45 L-12.85 57.4 Q-13.2 57.0 -13.1 56.4 L-12.85 55.85 Q-12.95 56.6 -12.5 57.6 L-12.0 58.45" fill="#7d503e" fill-rule="evenodd" stroke="none"/>
      <path d="M-17.65 61.55 L-17.9 60.3 -17.55 59.45 -17.3 59.2 Q-17.7 60.35 -17.65 61.55" fill="#7d503e" fill-rule="evenodd" stroke="none"/>
      <path d="M-9.55 53.35 L-10.8 53.25 Q-12.15 53.2 -12.65 53.7 L-12.35 53.35 Q-11.9 53.0 -11.2 52.85 L-9.55 53.35" fill="#7d503e" fill-rule="evenodd" stroke="none"/>
      <path d="M-22.2 56.6 L-23.1 56.65 -24.25 55.45 -24.3 54.95 Q-24.1 55.75 -23.1 56.25 L-22.2 56.6" fill="#7d503e" fill-rule="evenodd" stroke="none"/>
      <path d="M-17.1 52.2 L-18.35 52.65 Q-18.3 52.35 -17.45 52.0 L-16.7 51.7 -15.55 51.8 -17.1 52.2" fill="#7d503e" fill-rule="evenodd" stroke="none"/>
      <path d="M-30.7 45.65 L-32.25 46.0 -33.4 45.7 -34.15 44.9 Q-34.6 44.05 -34.2 42.7 -33.75 41.15 -31.95 38.35 L-30.95 36.8 -32.2 35.9 Q-32.7 35.0 -32.05 33.55 L-29.45 28.9 Q-27.55 26.05 -22.75 24.55 -20.35 23.75 -18.35 23.55 -16.1 23.55 -14.85 24.1 -13.55 24.7 -13.15 26.05 -11.55 31.55 -12.3 38.0 -13.2 45.75 -17.45 48.2 -21.85 50.7 -24.1 50.7 -25.5 50.7 -26.3 49.8 L-28.5 50.45 Q-29.8 50.45 -30.5 49.4 -31.3 48.2 -30.7 45.65" fill="#1e3039" fill-rule="evenodd" stroke="none"/>
      <path d="M-29.5 46.9 L-28.8 44.05 -28.25 42.55 Q-35.05 46.85 -32.2 41.3 L-29.55 37.0 -27.95 34.85 -30.2 35.2 Q-31.0 35.2 -31.1 34.6 -31.2 33.55 -28.55 28.85 -27.25 26.6 -24.85 25.15 -22.75 23.8 -20.25 23.4 -17.9 22.95 -16.15 23.45 -14.3 23.95 -13.95 25.15 -12.45 30.3 -13.25 36.95 -14.2 44.65 -18.0 46.8 -23.25 49.8 -24.85 48.95 -25.35 48.7 -25.45 48.1 L-25.4 47.55 Q-29.9 50.6 -29.5 46.9" fill="#3d4750" fill-rule="evenodd" stroke="none"/>
      <path d="M-29.0 31.45 Q-28.9 30.55 -27.35 29.4 L-25.85 28.45 -26.95 29.35 Q-28.05 30.45 -28.05 31.35 -28.05 32.4 -27.3 32.65 L-26.05 32.45 -25.0 31.25 Q-24.45 30.35 -24.3 29.35 L-24.4 29.9 -24.7 31.3 Q-25.5 33.4 -27.35 33.85 -28.7 34.2 -29.0 33.6 -29.25 33.1 -29.0 31.45" fill="#4c5358" fill-rule="evenodd" stroke="none"/>
      <path d="M-24.5 36.5 Q-23.85 36.7 -23.35 36.3 L-22.35 35.2 Q-21.85 34.35 -21.75 33.4 L-21.8 33.95 -22.1 35.25 Q-22.8 37.15 -24.55 37.6 -25.75 37.9 -26.05 37.3 -26.3 36.9 -26.05 35.35 -25.95 34.55 -24.55 33.5 L-23.15 32.6 -24.15 33.45 Q-25.2 34.45 -25.2 35.3 -25.15 36.2 -24.5 36.5" fill="#4c5358" fill-rule="evenodd" stroke="none"/>
      <path d="M-30.3 39.05 Q-29.85 38.0 -27.85 36.8 L-25.95 35.75 -27.4 36.75 Q-28.95 37.95 -29.35 39.0 -29.75 40.15 -29.1 40.55 -28.5 40.85 -27.75 40.35 L-26.15 39.0 Q-25.25 37.95 -24.7 36.8 L-25.0 37.5 -25.9 39.1 Q-27.55 41.45 -29.6 41.9 -31.15 42.25 -31.2 41.5 -31.25 40.95 -30.3 39.05" fill="#4c5358" fill-rule="evenodd" stroke="none"/>
      <path d="M-28.25 44.55 Q-28.0 43.45 -26.3 41.85 L-24.6 40.45 -25.85 41.75 Q-27.15 43.25 -27.3 44.3 -27.45 45.55 -26.75 45.75 -26.1 45.95 -25.45 45.35 -24.75 44.7 -24.2 43.7 -23.45 42.5 -23.2 41.2 L-23.35 41.95 -23.9 43.7 Q-25.05 46.35 -26.95 47.2 L-28.6 47.15 Q-28.75 46.6 -28.25 44.55" fill="#4c5358" fill-rule="evenodd" stroke="none"/>
      <path d="M22.6 28.95 Q22.4 33.2 20.8 34.3 15.35 37.8 8.9 29.25 8.0 30.8 5.05 31.5 L0.0 31.65 Q-4.25 30.8 -8.15 25.75 L-10.4 22.35 -11.15 20.9 -18.6 20.35 Q-24.45 19.3 -27.05 15.8 -28.15 14.3 -30.85 9.0 -33.8 3.15 -33.8 1.9 -33.75 -0.65 -33.25 -2.6 -32.65 -5.0 -31.5 -5.7 L-31.45 -5.7 -31.35 -5.75 -22.5 -7.9 Q-12.8 -9.95 -5.45 -10.4 -0.85 -10.95 4.6 -10.6 11.15 -10.15 11.65 -8.5 12.0 -7.35 10.2 -6.1 8.95 -5.2 8.25 -5.1 13.3 1.75 16.85 9.15 19.4 14.55 21.6 21.3 22.75 24.9 22.6 28.95" fill="#1e3039" fill-rule="evenodd" stroke="none"/>
      <path d="M-5.1 -9.4 Q-2.65 -9.8 3.45 -9.6 9.95 -9.4 10.45 -8.6 11.25 -7.45 9.25 -6.4 L7.85 -5.75 7.3 -5.3 Q15.45 6.75 19.05 16.65 22.2 25.2 21.35 30.1 20.95 32.3 19.8 33.3 18.65 34.3 16.95 33.95 13.2 33.2 8.75 27.1 L7.25 28.7 Q5.3 30.35 3.1 30.7 -3.85 31.75 -10.65 19.05 -14.1 19.6 -18.35 19.0 -26.9 17.75 -31.15 11.8 -33.45 8.6 -33.9 2.75 -34.1 0.25 -33.75 -1.6 -33.4 -3.5 -32.6 -4.0 L-22.5 -6.25 Q-11.2 -8.65 -5.1 -9.4" fill="#30353a" fill-rule="evenodd" stroke="none"/>
      <path d="M2.45 -1.85 L0.45 -3.25 3.0 -1.8 Q5.7 -0.05 6.35 1.3 7.65 3.9 7.6 4.65 7.55 5.6 5.5 5.15 2.7 4.45 0.5 1.25 L-0.75 -0.9 -1.2 -1.85 Q-0.45 -0.25 0.85 1.15 L2.95 3.0 Q4.0 3.7 4.75 3.3 5.6 2.8 5.05 1.25 4.55 -0.15 2.45 -1.85" fill="#1e3039" fill-rule="evenodd" stroke="none"/>
      <path d="M-26.0 4.75 Q-25.2 7.75 -25.7 8.8 -26.75 10.85 -27.4 11.05 -28.25 11.35 -29.5 9.4 -31.25 6.65 -30.45 3.55 L-29.75 1.7 -29.35 1.0 Q-30.0 2.2 -30.1 3.85 -30.2 5.2 -29.9 6.4 -29.55 7.55 -28.6 8.05 -27.55 8.65 -26.75 7.6 -26.0 6.65 -26.4 4.2 L-26.9 1.95 -26.0 4.75" fill="#1e3039" fill-rule="evenodd" stroke="none"/>
      <path d="M-16.1 9.7 L-15.75 7.0 -15.5 5.9 Q-15.9 7.75 -15.7 9.9 -15.6 11.6 -15.15 12.95 -14.7 14.25 -13.75 14.45 -12.7 14.65 -12.15 12.9 -11.7 11.4 -12.4 8.5 L-13.2 5.9 -11.95 8.95 Q-10.75 12.3 -11.1 13.9 -11.7 17.0 -12.2 17.6 -12.9 18.35 -14.35 16.55 -16.25 14.0 -16.1 9.7" fill="#1e3039" fill-rule="evenodd" stroke="none"/>
      <path d="M-20.0 6.2 L-18.8 9.2 Q-17.75 12.45 -18.2 13.65 -19.05 16.0 -19.7 16.25 -20.5 16.6 -21.95 14.55 -23.95 11.65 -23.45 8.2 L-22.9 6.1 -22.55 5.3 Q-23.15 6.7 -23.05 8.5 -23.0 9.95 -22.6 11.25 -22.2 12.5 -21.15 13.05 -20.05 13.6 -19.35 12.4 -18.7 11.35 -19.3 8.65 L-20.0 6.2" fill="#1e3039" fill-rule="evenodd" stroke="none"/>
      <path d="M7.95 11.8 L7.8 9.65 Q8.15 13.35 9.45 17.15 10.5 20.3 11.85 22.55 13.15 24.75 14.65 24.55 16.25 24.4 16.2 20.9 16.15 17.7 13.7 12.7 L11.2 8.35 14.55 13.3 Q17.95 18.9 18.3 22.1 18.95 28.2 18.45 29.6 17.8 31.45 14.8 28.8 10.65 25.15 8.85 17.05 8.25 14.5 7.95 11.8" fill="#1e3039" fill-rule="evenodd" stroke="none"/>
      <path d="M2.55 6.05 L5.25 11.1 Q7.9 16.75 7.8 19.75 7.65 25.4 6.95 26.6 6.05 28.15 3.4 25.25 -0.25 21.25 -1.0 13.55 L-1.2 8.7 -1.05 6.7 Q-1.2 10.1 -0.4 13.8 0.25 16.85 1.3 19.1 2.3 21.3 3.8 21.4 5.45 21.5 5.85 18.3 6.25 15.4 4.45 10.45 L2.55 6.05" fill="#1e3039" fill-rule="evenodd" stroke="none"/>
      <path d="M-7.75 9.5 L-7.4 5.0 -7.1 3.4 Q-7.55 6.45 -7.25 9.8 -7.0 12.65 -6.35 14.9 -5.7 17.1 -4.45 17.35 -3.05 17.65 -2.4 14.8 -1.8 12.2 -2.85 7.4 L-4.0 3.1 -2.25 8.1 Q-0.55 13.65 -0.9 16.35 -1.6 21.55 -2.3 22.55 -3.15 23.9 -5.15 20.85 -7.85 16.7 -7.75 9.5" fill="#1e3039" fill-rule="evenodd" stroke="none"/>
    </g>
  </defs>
</svg>
