<svg width="761" height="426" viewBox="0 0 761 426" fill="none" xmlns="http://www.w3.org/2000/svg">
<path fill-rule="evenodd" clip-rule="evenodd" d="M760.2 0.5V425.5H0.2V0.5H760.2Z" fill="#9991F2"/>
<path fill-rule="evenodd" clip-rule="evenodd" d="M414.2 275.05H417.8L415.45 271.65L414.2 275.05ZM424.6 273.35L422.4 275.05H426.3L424.6 273.35ZM414.45 255.25L415.35 258.35L408.5 259.95L408.55 262.4L408.25 265.75L412.45 267.2L412 266.6L418.1 263.25C416.967 260.517 416.217 257.817 415.85 255.15L414.45 255.25ZM455.25 252.95C455.25 250.883 454.533 249.117 453.1 247.65C451.633 246.183 449.883 245.45 447.85 245.45C445.817 245.45 444.067 246.183 442.6 247.65C441.167 249.117 440.45 250.883 440.45 252.95C440.45 255.017 441.167 256.783 442.6 258.25C444.067 259.683 445.817 260.4 447.85 260.4C449.883 260.4 451.633 259.683 453.1 258.25C454.533 256.783 455.25 255.017 455.25 252.95ZM335.85 259.05C333.65 258.083 331.767 256.617 330.2 254.65C328.667 252.75 327.65 250.583 327.15 248.15L293.95 251.1L293.85 251.7L302.2 254.6L297.95 265.85L289.65 261.5L286.3 265.1L292.5 273.95L290.35 275.05H334.35L335.85 259.05ZM387.7 264.4C388.667 263.467 389.167 262.317 389.2 260.95C389.233 259.583 388.783 258.433 387.85 257.5C386.883 256.5 385.733 255.983 384.4 255.95C383.067 255.883 381.933 256.35 381 257.35C379.967 258.283 379.433 259.417 379.4 260.75C379.367 262.15 379.85 263.333 380.85 264.3C381.75 265.267 382.867 265.767 384.2 265.8C385.567 265.833 386.733 265.367 387.7 264.4ZM408.95 242.2L416.1 243.35C416.533 240.983 417.217 238.7 418.15 236.5L411.6 233.8L415.35 228.5L286.4 225.75L291.45 229.6L288.85 233.35C289.883 234.517 290.8 235.867 291.6 237.4L298 234.55L300.9 243.9L327.1 242C327.767 238.467 329.517 235.5 332.35 233.1C335.15 230.767 338.4 229.6 342.1 229.6C346.3 229.6 349.883 231.1 352.85 234.1C355.817 237.133 357.3 240.767 357.3 245C357.3 248.833 356.05 252.183 353.55 255.05C351.117 257.917 348.05 259.633 344.35 260.2L342.85 275.05H368L366.75 273.05L362.65 274.4L361.3 266.1L364.2 265.55C364 264.183 363.917 262.85 363.95 261.55C363.95 260.317 364.05 259.15 364.25 258.05L361 256.65L364.3 248.1L367.3 250.05C368.367 248.25 369.7 246.617 371.3 245.15L368.8 241.6L375.9 236.9L377.95 240.95C379.717 240.317 381.5 239.867 383.3 239.6L382.9 234.95L391.75 235.15L391 239.9C392.733 240.3 394.183 240.783 395.35 241.35L397.25 237.05L405.85 243.65L403.25 247.4C404.317 248.567 405.233 249.917 406 251.45L408.95 250.15V242.2ZM421.45 73.35L421.2 59.9L410.55 60.2L409.6 72.45L421.45 73.35ZM403.7 72L404.2 60.4L353.35 62L353.05 60.9L342.5 61.7C344.067 63.4333 345.267 65.4333 346.1 67.7L403.7 72ZM760.4 0.599998V2.1C758.1 9.96667 754.617 18.8 749.95 28.6C739.05 51.4667 725.55 69.5 709.45 82.7C712.483 89.4333 712.633 94.55 709.9 98.05C709 99.2167 707.8 100.117 706.3 100.75L684.05 117.3L683.95 118.6C684.983 121.033 686.017 123.833 687.05 127L717.15 122.9L703.35 111.75L735.45 111.3L719.25 99.4L759.05 98.75L738.05 105.35L756.6 119.8L721.3 117.5L742.85 132.95L690.6 142.45C691.167 146.117 691.55 149.7 691.75 153.2C695.217 152.367 698.683 151.95 702.15 151.95C714.617 151.95 725.217 156.4 733.95 165.3C742.783 174.2 747.2 184.933 747.2 197.5C747.2 202.333 746.45 207.1 744.95 211.8L760.4 211.7V425.6H0.4V76H45L50.05 88.25H74.25L87.8 131.95L105.5 131.05L112.05 209.55L115.9 209.05L115.75 204.7L125.65 206.8L125 211.05L128.9 213.35L133.25 208.3L139.15 214.9L153.2 214.85V185.7H182.8V193.5H196.7V186.4C196.7 183.933 197.217 181.817 198.25 180.05C199.283 178.283 200.55 177.4 202.05 177.4C203.517 177.4 204.783 178.283 205.85 180.05C206.883 181.817 207.4 183.933 207.4 186.4V193.5H209.1V186.4C209.1 183.933 209.633 181.817 210.7 180.05C211.767 178.283 213.033 177.4 214.5 177.4C215.967 177.4 217.233 178.283 218.3 180.05C219.333 181.783 219.85 183.9 219.85 186.4V193.5H221.8V201.65C223.533 200.15 225.533 199.4 227.8 199.4C230.333 199.4 232.517 200.317 234.35 202.15C236.15 203.983 237.05 206.183 237.05 208.75C237.05 210.85 236.433 212.733 235.2 214.4L268.65 214.2L269.4 204.85L241.4 208.7L245.65 181.8L271.7 186.65L272.25 183.05L297.7 183.4L297.5 187.05L346.25 188.2L346.55 181.8L353.1 181.4L352.3 188.3L357.95 188.45L358.5 181.4L366.2 181.2L366.6 206.4L360.05 206.6L359.25 203.1L333.6 200.9V213.9L380.95 213.65V195C380.95 188.667 381.467 183.25 382.5 178.75C383.567 174.217 384.833 171.95 386.3 171.95C387.8 171.95 389.067 174.217 390.1 178.75C391.133 183.25 391.65 188.667 391.65 195V213.6L398.05 213.55V195C398.05 188.667 398.567 183.25 399.6 178.75C400.667 174.217 401.933 171.95 403.4 171.95C404.9 171.95 406.167 174.217 407.2 178.75C408.233 183.25 408.75 188.667 408.75 195V213.5L430.15 213.4L428.6 210L443.15 205.2L445.2 213.3L455.35 213.25L458.6 203.1L475.7 209.1L473.7 213.15L495.4 213.05C490.767 205.017 487.233 196.533 484.8 187.6C482.267 178.367 481 168.9 481 159.2C481 143.9 484.067 129.383 490.2 115.65L462.55 96.6L467.95 90.35C464.917 87.65 461.467 84.35 457.6 80.45L456.6 99.75L439.2 98.7C439.6 100.4 439.8 101.95 439.8 103.35C439.933 108.883 438.217 113.667 434.65 117.7C431.117 121.733 426.783 123.817 421.65 123.95C416.483 124.083 412.05 122.233 408.35 118.4C404.617 114.533 402.7 109.85 402.6 104.35C402.567 102.917 402.683 101.4 402.95 99.8L347.65 96.15C347.35 98.0167 346.567 99.5833 345.3 100.85C344 102.117 342.467 102.767 340.7 102.8C338.667 102.867 336.95 102.167 335.55 100.7C334.15 99.2333 333.417 97.4333 333.35 95.3L333.45 93.85L330.95 94.15L329.65 94.1L325.55 105.45L350.35 105.75L350.45 102.4L398.6 101.5L399.85 117.35L350.1 114.25L350.2 110.6L324.2 109.2L316.35 130.7L314.1 130.25L312.85 134.9L319.3 137.55C323.633 140.017 325.917 143.067 326.15 146.7C326.417 150.867 325.017 155.033 321.95 159.2C319.817 162.2 316.95 165.017 313.35 167.65L314.9 171.55L309.75 178.3L301.45 177.1L298.95 171.1C295.183 168.2 292.017 165.233 289.45 162.2C285.317 157.4 283.367 153.133 283.6 149.4C284.067 142.6 287.367 137.917 293.5 135.35C296.533 134.083 299.567 133.483 302.6 133.55L303.15 127.9L300.4 127.35L314.6 72.3C314.5 70.2667 314.75 68.3667 315.35 66.6C316.65 62.6 319.133 59.6667 322.8 57.8C326.5 55.9333 330.4 55.6 334.5 56.8L351.5 55.1L350.65 51.9L420.9 45.75L420.6 29.35C415.667 19.9167 411.5 10.3333 408.1 0.599998H471.75C472.85 5.86667 474.45 11.9667 476.55 18.9C481.45 35.0333 487.433 48.7833 494.5 60.15L500.1 53.8L517.6 78.25L517.2 78.9C524.867 72.1 533.333 66.55 542.6 62.25C552.033 57.8833 561.917 54.9833 572.25 53.55L578.35 42L567.4 41.8L578.85 27.2L564.3 26.75L584.15 1.1L575.95 18.45L588.4 19.7L581.6 35.3L596.95 35.85L588.3 52.6C606.1 52.9333 622.65 57.45 637.95 66.15L645.55 51C645.883 49.9333 646.367 49 647 48.2C648.267 46.6 650.083 45.5167 652.45 44.95C654.783 44.3833 657.483 44.35 660.55 44.85C666.183 29.25 669.75 14.5 671.25 0.599998H760.4ZM90.45 10.95L83.75 12.75L82.95 10.85L88.55 45.25L84.6 46.3L85.7 56.05C88.4 53.2833 91.5333 51.1833 95.1 49.75L90.45 10.95ZM243.95 94C235.683 89.7667 228.933 91.25 223.7 98.45C215.1 110.35 217.2 117.917 230 121.15C236.7 122.883 245.183 123.267 255.45 122.3L252.25 121.35L258.15 107.15L260.25 108.2C254.683 101.467 249.25 96.7333 243.95 94ZM206.5 92.15L208.45 88.4C210.283 85.5 212.35 82.9667 214.65 80.8C222.083 73.9333 230.817 72.1667 240.85 75.5C246.35 77.3667 251.3 82.6333 255.7 91.3C258.433 96.6 260.717 102.65 262.55 109.45L264.6 110.55L263.7 113.4L275.8 119.65L273.65 124.75L261.1 120.4L259.4 123.55L255.7 122.35C251.133 125.817 245.7 128.767 239.4 131.2C228.167 135.533 218.633 135.817 210.8 132.05C205.733 129.583 202.75 124.667 201.85 117.3C201.583 115.033 201.55 112.65 201.75 110.15L202.15 107L194.65 105.95L194 109.25L129.1 105.95L135.25 79.5C133.65 78.9 132.25 78 131.05 76.8L130.4 80.95C131.033 85.6833 130.5 90.2833 128.8 94.75C126.1 102.017 121.283 107.233 114.35 110.4C107.35 113.533 100.267 113.733 93.1 111C85.9667 108.233 80.8333 103.333 77.7 96.3C74.5667 89.2333 74.35 82.0833 77.05 74.85L78.45 71.7C78.85 68.2 79.9 64.8667 81.6 61.7L80.15 47.45L72.75 49.45L61.65 0.599998H145L141.3 56.15C144.067 56.5833 146.383 57.8167 148.25 59.85C149.15 59.0167 150.217 58.45 151.45 58.15L154.4 38.15L151.25 37.95L152.9 0.599998H168.95L161.25 38.45L156.8 38.25L154.15 58.2C155.617 58.5333 156.833 59.2833 157.8 60.45C158.767 61.65 159.25 63.0667 159.25 64.7C159.25 66.5 158.617 68.05 157.35 69.35C156.083 70.65 154.533 71.3 152.7 71.3L151.15 71.1L150.9 72.15L198.85 85.55L198 89.6L206.5 92.15ZM278.1 269.6L274.95 270.35L274.85 275.05H280.85L278.1 269.6ZM206.8 272.2C208.433 270.633 209.267 268.717 209.3 266.45C209.333 264.183 208.583 262.217 207.05 260.55C205.483 258.95 203.567 258.117 201.3 258.05C199.067 258.017 197.15 258.767 195.55 260.3C193.917 261.9 193.083 263.833 193.05 266.1C193.017 268.367 193.783 270.333 195.35 272C196.883 273.6 198.767 274.417 201 274.45C203.267 274.517 205.2 273.767 206.8 272.2ZM241.65 264.8L241.8 268.85L241.3 274.4L243.1 275.05H265.95L266.9 269.95C265.2 269.583 263.5 268.95 261.8 268.05L257.05 273.55L250.6 267.75L255.55 263.4C254.383 262.133 253.317 260.667 252.35 259H252.25L253.2 262.05L241.65 264.8ZM280.95 227.3L281.65 225.65L276.65 225.55L276.6 225.85C278.333 226.25 279.783 226.733 280.95 227.3ZM262.75 225.25L263.6 226.9C265.233 226.267 267 225.817 268.9 225.55V225.35L262.75 225.25ZM249.8 244L246.6 242.55L249.85 234.05L252.9 235.95C253.967 234.183 255.3 232.567 256.9 231.1L254.4 227.55L258.05 225.15L213.55 224.2L212.35 231.2C214.917 231.767 217.383 232.583 219.75 233.65L222.8 226.45L237.25 237.45L232.95 243.7C234.683 245.733 236.217 248.017 237.55 250.55L248.25 245.75L249.6 250.25L249.45 247.5C249.517 246.133 249.633 244.967 249.8 244ZM282.9 199.95L282.65 207.55L292.7 206.4L295.6 201.35L289.1 200.6L289.6 205.2L287.5 205.4L285.45 200.2L282.9 199.95ZM281.9 210.55L281.6 214.15L313.4 214L314.5 202.9L298.25 201.5L295.2 209.3L281.9 210.55ZM311.9 164.2C314.4 158.267 315.3 153.633 314.6 150.3C313.667 145.567 309.517 143.933 302.15 145.4C296.517 146.533 293.867 149.933 294.2 155.6C294.433 159.3 295.867 163.7 298.5 168.8L303.35 162.5L311.7 163.65L311.9 164.2ZM108.25 251L108.65 250L108.25 249.8V251ZM162.3 259.2C161.6 262.067 160.117 264.433 157.85 266.3C155.55 268.167 152.917 269.1 149.95 269.1C146.45 269.1 143.467 267.85 141 265.35C138.467 262.85 137.2 259.85 137.2 256.35C137.2 254.817 137.467 253.367 138 252L137.9 252.15L130.2 246.15L127.75 248L131.45 256.3L122.95 259.1L120.8 251L115.8 251.45L114 258.05L108.25 256.4V275.05H162.8V275L167.5 274.05C167.167 271.583 167.017 269.367 167.05 267.4C167.117 265.4 167.317 263.433 167.65 261.5L162.3 259.2ZM136.8 234.55C136.5 236.017 136.017 237.5 135.35 239L144.2 244.05L143 245.55C145.133 244.183 147.45 243.5 149.95 243.5C153.45 243.5 156.433 244.75 158.9 247.25C161.4 249.75 162.65 252.783 162.65 256.35L162.4 258.7L167.65 244.95L172.75 248.15C174.617 245.117 176.867 242.383 179.5 239.95L175.3 234.1L187.2 226.15L190.7 232.95C193.467 231.85 196.4 231.1 199.5 230.7L198.9 223.8L135.75 222.4L136.45 224.6L144.7 223.65L145.7 234.9L136.8 234.55ZM118.4 228.2L117.45 226.9L118.7 230.9C118.867 230.033 118.767 229.133 118.4 228.2Z" fill="#8B72E6"/>
<path fill-rule="evenodd" clip-rule="evenodd" d="M688 308.45H645.85L683.85 319.1H732.5L735.6 319.8H686.5L739.3 334.6H760.45V335.65H743.1L760.45 340.55V341.65L739.15 335.65H675.45L738.45 357.6H760.45V359.2H743.1L760.45 365.25V367.1L738.25 359.2H659L737.05 395.15H760.45V398.05H743.2C748.967 400.65 754.717 403.3 760.45 406V409.1L736.8 398.05H631.9L670.95 424.5H663.45L625.5 398.05H520.6L541.05 424.5H533.6L514.15 398.05H409.3L411.2 424.5H403.7L402.85 398.05H297.95L281.3 424.5H273.8L291.55 398.05H186.7L151.45 424.5H143.9L180.25 398.05H75.4L21.6 424.5H14.05L68.95 398.05H0V395.15H74.85L149.2 359.2H69.9L0 384.85V382.7L65.05 359.2H0V357.6H69.55L130.3 335.65H66.6L0 355.1V353.7L62.7 335.65H0V334.6H66.35L117.6 319.8H60.25L63.3 319.1H120.2L157.1 308.45H107.75L110.05 307.9H159L181.1 301.5H183.6L161.8 307.9H207.25L224.85 301.5H227.35L210 307.9H255.4L268.6 301.5H271.1L258.2 307.9H303.65L312.3 301.5H314.9L306.45 307.9H351.85L356.1 301.5H358.65L354.6 307.9H400.05L399.85 301.5H402.35L402.85 307.9H448.25L443.6 301.5H446.15L451.1 307.9H496.5L487.4 301.5H489.9L499.25 307.9H544.65L531.1 301.5H533.65L547.5 307.9H592.9L574.85 301.5H577.4L595.65 307.9H641.1L618.65 301.5H621.15L643.9 307.9H685.75L688 308.45ZM735.45 334.6L683.2 319.8H629.95L672.4 334.6H735.45ZM733.65 357.6L671.55 335.65H607.75L655.45 357.6H733.65ZM402.9 308.45L403.65 319.1H456.45L448.65 308.45H402.9ZM344.35 319.1L351.45 308.45H305.7L291.55 319.1H344.35ZM354.3 308.45L347.6 319.1H400.4L400.05 308.45H354.3ZM730.75 395.15L654.15 359.2H574.85L627.75 395.15H730.75ZM347.1 319.8L337.85 334.6H400.85L400.45 319.8H347.1ZM451.45 308.45L459.7 319.1H512.5L497.3 308.45H451.45ZM403.7 319.8L404.75 334.6H467.8L456.95 319.8H403.7ZM500.05 308.45L515.75 319.1H568.55L545.85 308.45H500.05ZM597.25 308.45L627.8 319.1H680.65L643.05 308.45H597.25ZM624.6 319.1L594.45 308.45H548.65L571.75 319.1H624.6ZM573.4 319.8L605.45 334.6H668.55L626.65 319.8H573.4ZM516.8 319.8L538.6 334.6H601.6L570.1 319.8H516.8ZM460.3 319.8L471.7 334.6H534.7L513.55 319.8H460.3ZM159.9 308.45L123.45 319.1H176.25L205.7 308.45H159.9ZM232.3 319.1L254.3 308.45H208.5L179.5 319.1H232.3ZM177.45 319.8L137.1 334.6H200.15L230.75 319.8H177.45ZM288.35 319.1L302.9 308.45H257.15L235.5 319.1H288.35ZM234 319.8L204 334.6H267.05L287.3 319.8H234ZM120.9 319.8L70.2 334.6H133.25L174.2 319.8H120.9ZM184.1 395.15L233.35 359.2H154.05L81.15 395.15H184.1ZM322.4 359.2L299.8 395.15H402.75L401.65 359.2H322.4ZM293.4 395.15L317.5 359.2H238.25L190.5 395.15H293.4ZM201.9 335.65C187.067 342.95 172.217 350.267 157.35 357.6H235.55L265.65 335.65H201.9ZM318.6 357.6L333.25 335.65H269.55L240.35 357.6H318.6ZM152.55 357.6L197.95 335.65H134.2L74.35 357.6H152.55ZM621.4 395.15L570 359.2H490.7L518.45 395.15H621.4ZM540.15 335.65L572.45 357.6H650.65L603.85 335.65H540.15ZM567.6 357.6L536.2 335.65H472.5L489.4 357.6H567.6ZM484.6 357.6L468.6 335.65H404.85L406.45 357.6H484.6ZM406.55 359.2L409.1 395.15H512.05L485.75 359.2H406.55ZM401.6 357.6L400.9 335.65H337.15L323.4 357.6H401.6ZM333.95 334.6L343.85 319.8H290.6L270.95 334.6H333.95Z" fill="#C2AEFF"/>
</svg>
