<svg width="2292" height="568" viewBox="0 0 2292 568" fill="none" xmlns="http://www.w3.org/2000/svg">
<path d="M2292 0H0V568H2292V0Z" fill="url(#paint0_linear_191_30)"/>
<g style="mix-blend-mode:overlay">
<path d="M1913.31 170.139C1915.26 170.085 1918.56 170.423 1919.99 169.456C1921.8 163.333 1916.73 148.275 1923.14 144.374C1924.81 143.923 1926.44 143.8 1928.08 144.459C1929.61 145.075 1930.43 146.518 1930.82 147.744C1931.94 151.271 1930.38 169.395 1931.75 169.933C1932.73 170.314 1934.05 170.163 1935.12 170.138C1936.11 170.985 1936.07 172.526 1936.09 173.631C1936.16 178.758 1935.47 184.032 1935.99 189.136C1936.44 193.607 1938.34 197.957 1938.51 202.452C1938.68 206.5 1937.66 230.929 1938.8 232.889C1939.17 233.511 1941.09 233.548 1941.84 233.602C1943.5 235.423 1943.45 256.768 1942.57 259.817C1942.45 260.258 1942.19 260.575 1941.89 260.955L1963.04 260.994C1964.35 262.908 1964.74 279.496 1963.75 282.089C1963.53 282.634 1963.58 282.524 1963.33 282.942L1971.92 282.986C1973.25 285.021 1973.64 303.867 1972.56 306.34C1972.45 306.594 1972.3 306.763 1972.13 307.003L1983.66 307.113C1984.13 307.878 1984.35 308.548 1984.4 309.399C1984.94 317.202 1985.28 384.657 1984.05 386.977C1983.95 387.171 1983.83 387.357 1983.72 387.551C1993.2 387.674 2002.68 387.684 2012.16 387.581C2012.59 386.886 2012.87 386.352 2012.95 385.575C2013.37 381.094 2013.77 340.947 2012.63 338.584C2012.46 338.226 2012.35 338.131 2012.08 337.782C2027.43 337.557 2042.79 337.534 2058.15 337.713C2058.63 338.424 2058.91 339.084 2058.96 339.895C2059.38 345.713 2059.64 398.652 2058.67 401.256C2058.58 401.511 2058.46 401.679 2058.32 401.925C2064.32 400.933 2072.64 399.605 2078.05 397.388C2079.99 394.365 2078.48 341.279 2078.84 333.515C2078.97 330.582 2081.22 328.507 2081.77 325.772C2082.4 322.608 2082.6 295.963 2081.81 293.729C2081.73 293.51 2081.52 293.188 2081.41 293C2092.24 292.872 2103.07 292.813 2113.91 292.821C2118.77 292.836 2124.22 292.541 2128.99 293.147C2129.45 293.767 2129.74 294.228 2129.82 294.951C2130.35 299.54 2130.65 326.461 2129.75 329.95C2129.61 330.481 2129.31 330.878 2128.97 331.34C2133.57 330.268 2150.48 326.044 2153.16 323.626C2153.82 322.801 2154.06 322.252 2154.13 321.286C2155.04 309.116 2154.26 296.568 2154.23 284.346C2154.22 280.313 2155.09 272.741 2154.04 269.032C2153.93 268.659 2153.73 268.285 2153.53 267.94C2167.47 266.968 2181.54 267.784 2195.52 267.408C2197.33 264.986 2197.16 251.104 2196.44 248.058C2196.34 247.634 2196.23 247.506 2196 247.163C2209.57 242.048 2223.57 237.645 2237.35 232.894C2238.36 233.953 2238.68 234.845 2238.77 236.124C2239.36 245.022 2238.87 254.126 2238.9 263.043L2239.26 307.914L2239.32 339.744C2239.35 344.971 2239.97 350.616 2239.32 355.779C2239.24 356.417 2238.91 356.965 2238.59 357.547C2242.66 357.633 2246.74 357.801 2250.8 357.525C2251.4 356.814 2251.64 356.335 2251.7 355.49C2252.6 344.186 2251.8 332.484 2251.79 321.143C2251.78 316.334 2252.72 308.701 2251.68 304.16C2251.57 303.668 2251.33 303.192 2251.1 302.728C2256.03 301.215 2275.23 293.756 2278 291.329C2278.05 291.413 2278.11 291.495 2278.16 291.581C2279.93 294.873 2278.92 302.916 2278.91 306.719C2278.91 311.247 2277.93 350.34 2279.13 351.807C2279.33 352.048 2279.73 352.139 2280.03 352.307C2281.61 352.212 2282.64 352.212 2283.9 351.423C2284.74 350.207 2285.08 349.09 2285.2 347.718C2285.65 342.474 2285.13 337.027 2285.12 331.762L2285.08 297.224C2285.07 290.938 2284.76 284.546 2285.19 278.273C2285.56 272.998 2287.27 267.701 2288.79 262.565C2289.41 260.458 2289.83 257.712 2290.98 255.772C2292.75 259.397 2291.63 335.047 2291.63 344.07L2291.64 508.143L2291.63 548.907C2291.63 554.29 2292.69 562.113 2291.22 567.172L2291.19 568H0V567.228V252.553C4.3511 242.585 7.23881 228.239 10.2919 217.529C16.6182 195.888 22.797 174.223 28.8284 152.532C37.2692 180.315 44.7311 208.333 52.5279 236.231L59.8558 261.942C61.4368 267.475 63.3379 273.06 64.1151 278.698C65.7935 290.877 64.5856 303.858 64.5375 316.135L64.4429 385.135L89.6681 385.222C89.6972 379.04 89.6843 372.86 89.6295 366.681C89.5607 363.391 88.9145 359.72 89.4779 356.477C89.6647 355.399 90.1146 354.33 91.1513 353.562C92.202 352.781 93.7098 352.535 95.1079 352.389C102.184 351.66 119.428 352.462 127.532 352.406L127.6 310.157L176.708 310.117C176.646 323.88 176.913 337.652 176.73 351.414C192.215 351.393 207.753 351.587 223.231 351.311L223.228 388.029C223.222 395.758 223.529 403.594 222.786 411.301C232.259 397.552 242.45 384.07 252.42 370.533C260.643 359.371 268.649 347.985 277.355 337.044L278.549 385.097L304.623 385.062L304.584 326.904C304.578 317.658 303.306 307.256 305.205 298.152C307.3 288.108 313.088 276.949 316.608 266.979C318.556 277.042 322.761 286.828 324.627 296.866C326.399 306.407 325.328 316.984 325.316 326.652L336.073 326.567C336.106 321.548 336.217 316.522 336.129 311.504L364.941 311.435C364.741 327.994 365.295 344.578 364.766 361.131C366.638 358.586 369.353 355.666 369.919 352.751C370.706 348.701 370.316 344.315 370.288 340.21L370.137 319.098C370.063 293.525 369.865 267.931 370.239 242.36L389.813 242.329L389.692 204.998L404.531 204.99L404.573 189.449L411.923 189.233L411.953 177.229L425.058 177.238C424.975 180.654 423.998 185.835 425.552 189.015C426.678 189.428 427.654 189.372 428.865 189.356L429.582 189.781C430.129 194.147 428.018 200.988 430.291 204.842C431.228 205.121 432.113 205.023 433.092 204.973C434.199 205.747 434.489 206.312 434.596 207.482C435.052 212.471 433.094 240.343 435.332 242.324C436.758 242.345 437.873 242.088 438.926 242.868C440.191 257.303 439.017 272.146 439.064 286.632C439.077 290.493 438.481 294.886 438.975 298.679C439.132 299.887 439.368 300.333 440.422 301.191C441.881 301.439 442.519 301.261 443.864 300.792C445.708 296.028 444.423 289.624 444.589 284.614C451.091 284.602 500.095 283.897 502.515 284.837C502.755 284.931 503.455 285.467 503.667 285.647C503.771 285.735 503.858 285.834 503.954 285.926C506.27 288.147 536.79 295.021 542.69 296.622C540.022 302.986 540.577 309.477 540.687 316.075L559.467 316.113L559.484 337.143C565.291 337.186 571.093 337.26 576.895 337.126L576.867 370.037L592.756 370.015C592.912 360.497 591.234 324.937 594.099 318.966C598.574 309.647 607.146 300.359 612.617 291.182C619.241 301.134 626.615 310.993 634.012 320.616C633.917 347.973 633.284 375.445 634.028 402.792C640.28 405.029 646.578 407.185 652.922 409.261C652.702 389.158 652.702 369.055 652.922 348.952C658.254 348.939 663.591 348.977 668.923 348.904C668.839 342.526 667.827 288.162 669.001 285.738C669.136 285.453 669.471 285.251 669.706 285.008C671.077 284.878 672.347 284.737 673.673 284.428C675.866 281.682 674.328 268.161 674.518 264.137C690.12 264.035 705.722 264.007 721.324 264.054C721.216 270.979 721.272 277.903 721.492 284.825L733.465 284.888V319.407C748.459 319.429 763.553 319.705 778.536 319.348C778.424 328.34 778.432 337.333 778.558 346.325L808.664 346.321C808.642 362.131 809.056 378.019 808.563 393.821C822.936 389.793 837.679 386.028 851.621 381.189C851.526 375.44 850.507 368.691 851.822 363.067C855.492 360.497 856.488 364.016 856.846 358.241C857.428 348.865 856.544 339.369 856.897 329.969C858.485 329.803 860.494 329.779 861.993 329.404C863.118 326.818 863.381 290.579 862.061 288.517C861.949 288.339 861.814 288.168 861.686 287.994C865.748 287.943 869.949 288.053 873.989 287.818C875.538 285.608 875.555 265.248 874.761 262.239C874.632 261.757 874.358 261.402 874.033 260.987L894.684 260.999C896.049 258.974 896.334 236.478 895.271 234.182C895.098 233.808 894.986 233.709 894.712 233.342L931.083 233.336C932.532 235.452 932.611 256.513 931.744 259.41C931.57 259.987 931.229 260.425 930.837 260.925L950.917 261.017C952.192 262.92 952.578 279.672 951.583 282.026C951.348 282.579 951.32 282.571 950.978 282.992L959.096 282.991C960.752 285.241 960.741 302.412 959.964 305.556C959.829 306.115 959.522 306.541 959.169 307.031L969.961 307.096C970.448 307.819 970.728 308.486 970.79 309.308C971.315 316.187 971.405 385.291 970.532 387.024C970.426 387.231 970.28 387.421 970.157 387.62C979.008 387.66 987.859 387.653 996.71 387.598C997.135 386.908 997.426 386.36 997.505 385.584C997.975 381.017 998.288 341.124 997.208 338.683C997.029 338.282 996.85 338.092 996.57 337.704C1010.93 337.563 1025.3 337.559 1039.66 337.691C1040.14 338.368 1040.44 338.86 1040.51 339.645C1041 345.23 1041.17 398.319 1040.25 400.704C1040.08 401.157 1039.78 401.528 1039.47 401.934C1044.27 401.071 1054.33 399.432 1058.29 397.444C1060.16 394.313 1059.1 374.85 1059.09 370.183C1059.08 357.78 1058.48 345.191 1059.11 332.805C1059.24 330.219 1061.67 328.075 1061.96 325.568C1062.43 321.57 1063 295.888 1061.71 293.467C1061.62 293.287 1061.5 293.11 1061.4 292.932C1074.07 292.878 1093.99 291.973 1105.84 293.151C1106.33 293.814 1106.64 294.444 1106.72 295.215C1107.2 299.498 1107.63 327.548 1106.55 330.3C1106.43 330.603 1106.14 331.008 1105.97 331.271C1111.69 329.922 1124.66 326.543 1128.65 323.41C1130.04 319.921 1130.26 270.4 1128.95 267.934C1142.02 266.994 1155.17 267.948 1168.25 267.389C1170.1 264.847 1169.85 250.805 1169.1 247.68C1169.01 247.321 1168.91 247.203 1168.72 246.911C1179.3 243.278 1197.21 235.231 1207.45 233.303L1208.16 233.554C1209.66 237.318 1209.25 356.499 1208.65 357.568C1211.87 357.672 1217.92 358.384 1220.48 356.775C1221.04 351.41 1221.51 304.632 1220.05 302.779L1220.51 302.612C1230.97 298.758 1289.6 270.972 1294.45 270.828C1295.63 271.567 1295.53 272.404 1295.66 273.527C1296.93 284.955 1295.81 297.065 1295.62 308.564C1295.5 315.66 1296.18 323.127 1295.43 330.175C1295.35 330.925 1295.06 331.406 1294.6 332.056C1299 332.043 1306.73 331.274 1310.55 333.046C1311.57 337.35 1311.75 380.65 1310.43 383.031C1315.58 383.234 1321 383.57 1326.14 383.113C1326.77 382.315 1327.04 381.577 1327.11 380.646C1328.07 367.259 1327.15 353.489 1327.16 340.063C1327.16 334.383 1328.23 321.935 1326.91 317.272C1326.81 316.881 1326.75 316.785 1326.57 316.377C1324.67 316.182 1322.57 316.233 1321.1 315.266C1322.36 312.53 1356.9 294.391 1362.33 291.377C1365.28 289.739 1369.73 287.862 1372.05 285.754C1376.32 286.763 1413.89 310.463 1418.61 314.422L1418.78 315.519C1416.12 317.502 1413.44 314.634 1413.22 319.235C1412.96 324.45 1414.88 350.392 1412.83 353.713C1426.95 354.157 1441.18 353.855 1455.31 353.842C1461.22 353.834 1468.28 353.312 1474.01 354.131C1474.49 354.774 1474.82 355.429 1474.91 356.175C1475.48 360.587 1475.86 387.727 1475.04 391.173C1474.92 391.661 1474.66 392.027 1474.35 392.45C1480.52 392.566 1500.69 393.869 1505.16 392.075C1507.26 387.753 1506.13 372.572 1506.15 367.108C1506.24 345.833 1507.3 324.525 1507.96 303.254C1508.16 296.724 1507.64 276.502 1509.73 271.442L1510.42 271.214C1512.21 271.908 1513.49 272.949 1514.8 274.096C1520.29 278.895 1562.61 318.364 1563.49 320.332C1563.66 320.695 1563.62 320.77 1563.61 321.105C1564.14 321.997 1564.35 322.745 1564.45 323.722C1565.57 335.124 1565.74 346.631 1566.52 358.06C1567.51 372.581 1569.07 387.029 1570.33 401.528C1570.37 401.994 1570.34 402.391 1570.13 402.839C1570.05 403.016 1569.95 403.189 1569.86 403.365C1573.27 403.335 1576.84 403.465 1580.22 403.111C1582.38 400.441 1581.3 389.34 1581.29 385.657L1581.17 340.714C1581.16 333.794 1580.17 325.865 1581.45 319.066C1581.7 317.771 1582.04 316.153 1583.87 315.699C1588.02 314.663 1626.91 315.58 1634.37 315.601C1635.02 316.454 1635.24 317.192 1635.29 318.175C1635.67 325.023 1635.37 331.98 1635.37 338.838V379.158C1635.37 384.553 1636.33 401.757 1635.13 405.655C1635.02 406.022 1634.95 406.091 1634.72 406.505C1637.42 407.152 1641.06 407.851 1643.24 409.265C1643.77 408.48 1644.1 407.751 1644.18 406.867C1644.66 401.451 1644.86 351.927 1643.79 349.603C1643.65 349.279 1643.6 349.245 1643.41 348.99L1660.16 348.908C1660.76 348.098 1661.02 347.52 1661.09 346.584C1661.91 334.732 1661.15 322.547 1661.19 310.665C1661.2 305.468 1662.24 289.562 1660.92 285.407C1660.88 285.28 1660.82 285.157 1660.76 285.031C1662.46 284.91 1665.16 285.001 1666.65 284.456C1667.76 280.795 1668.46 267.544 1666.46 264.105C1683.24 264.031 1700.02 264.031 1716.8 264.108C1718.25 266.501 1718.54 281.638 1717.23 284.103C1717.08 284.395 1717 284.462 1716.76 284.75L1729.54 284.966C1731.05 287.031 1731.3 315.423 1730.11 318.397C1729.96 318.77 1729.78 318.998 1729.55 319.358C1745.54 319.439 1761.64 319.675 1777.62 319.361C1779.18 321.535 1779.29 342.137 1778.47 345.212C1778.35 345.639 1778.11 345.95 1777.82 346.321C1788.54 346.321 1799.3 346.166 1810.02 346.334C1810.49 347.007 1810.78 347.494 1810.86 348.27C1811.39 353.523 1811.7 389.944 1810.52 392.67C1810.34 393.075 1810.07 393.45 1809.78 393.808C1816.66 392.571 1852.03 383.643 1856.18 381.254C1858.46 377.321 1855.22 363.856 1857.99 362.252L1861.53 361.95C1863.24 360.268 1862.88 335.522 1862.33 331.992C1862.23 331.343 1862.08 330.719 1861.9 330.08C1863.73 329.875 1865.8 329.79 1867.58 329.414C1868.06 328.751 1868.34 328.303 1868.4 327.527C1868.84 322.748 1869.27 291.935 1868.33 289.144C1868.19 288.729 1867.93 288.376 1867.67 288.001L1880.75 287.844C1882.3 285.756 1882.58 264.429 1881.47 261.78C1881.37 261.532 1881.14 261.236 1880.99 261.018L1902.87 260.976C1906.33 255.848 1901.39 235.778 1905.01 233.453L1907.62 233.195C1910.83 229.411 1906.15 197.881 1909.41 195.205C1911.06 195.089 1912.44 195.233 1913.69 194.361C1913.86 188.699 1915.16 175.025 1913.31 170.139Z" fill="#003567"/>
</g>
<defs>
<linearGradient id="paint0_linear_191_30" x1="1209.75" y1="0" x2="1209.75" y2="568" gradientUnits="userSpaceOnUse">
<stop stop-color="#72BBFF"/>
<stop offset="1" stop-color="#E0EFF4"/>
</linearGradient>
</defs>
</svg>
