<svg width="538" height="341" viewBox="0 0 538 341" fill="none" xmlns="http://www.w3.org/2000/svg">
<path fill-rule="evenodd" clip-rule="evenodd" d="M16.3848 1.69371H511.724H519.817C523.147 1.69371 525.711 3.31214 527.51 6.54901L528.709 8.9202C529.441 10.8774 529.808 12.9475 529.808 15.1305C528.675 13.3991 527.243 11.9689 525.512 10.8397C523.713 9.78587 521.815 9.25894 519.817 9.25894H511.724H16.3848H12.1887C10.1239 9.25894 8.22569 9.78587 6.49396 10.8397C4.69564 11.8936 3.26363 13.3238 2.19796 15.1305C2.19796 12.4958 3.13042 9.7106 4.99536 6.77484C7.0601 3.38742 9.45788 1.69371 12.1887 1.69371H16.3848ZM16.3848 2.48411H10.9898C10.5902 2.48411 10.2904 2.63466 10.0906 2.93576L9.69099 3.95199V4.0649L10.0906 5.08113C10.2904 5.38223 10.5902 5.53278 10.9898 5.53278H16.3848H511.724H520.816L521.715 5.08113L522.115 4.0649V3.95199L521.715 2.93576L520.816 2.48411H511.724H16.3848ZM16.3848 324.515H511.724H519.817C521.815 324.515 523.713 323.95 525.512 322.821C527.243 321.842 528.675 320.412 529.808 318.53C529.808 321.24 528.709 323.875 526.511 326.434C524.313 328.993 522.081 330.273 519.817 330.273H511.724H16.3848H12.1887C9.8575 330.273 7.82606 329.408 6.09433 327.676L4.89545 326.208C3.29693 323.875 2.39777 321.315 2.19796 318.53C3.26363 320.261 4.56243 321.654 6.09433 322.708L6.49396 322.821C8.22569 323.95 10.1239 324.515 12.1887 324.515H16.3848Z" fill="#8156B0"/>
<path fill-rule="evenodd" clip-rule="evenodd" d="M6.49396 330.838L3.59666 328.354C1.19889 325.644 0 322.369 0 318.53V312.884V20.4374V13.6626C0 9.89879 1.19889 6.66192 3.59666 3.95199C5.92782 1.31733 8.79183 0 12.1887 0H16.3848H511.724H519.817C523.147 0 526.011 1.31733 528.409 3.95199C530.007 5.75861 531.04 7.8287 531.506 10.1623L531.906 13.6626V20.4374V312.884V318.53C531.906 322.369 530.74 325.644 528.409 328.354C526.011 330.988 523.147 332.306 519.817 332.306H511.724H16.3848H12.1887C10.1239 332.306 8.22569 331.816 6.49396 330.838ZM16.3848 1.69371H12.1887C9.45788 1.69371 7.06011 3.38742 4.99536 6.77483C3.13042 9.7106 2.19796 12.4958 2.19796 15.1305C3.26363 13.3238 4.69564 11.8936 6.49396 10.8397C8.22569 9.78587 10.1239 9.25894 12.1887 9.25894H16.3848H511.724H519.817C521.815 9.25894 523.713 9.78587 525.512 10.8397C527.243 11.9689 528.675 13.3991 529.808 15.1305C529.808 12.9475 529.441 10.8774 528.709 8.9202L527.51 6.54901C525.711 3.31214 523.147 1.69371 519.817 1.69371H511.724H16.3848ZM16.3848 324.515H12.1887C10.1239 324.515 8.22569 323.95 6.49396 322.821L6.09434 322.708C4.56243 321.654 3.26363 320.261 2.19796 318.53C2.39777 321.315 3.29694 323.875 4.89545 326.208L6.09434 327.676C7.82606 329.408 9.85751 330.273 12.1887 330.273H16.3848H511.724H519.817C522.081 330.273 524.313 328.993 526.511 326.434C528.709 323.875 529.808 321.24 529.808 318.53C528.675 320.412 527.243 321.842 525.512 322.821C523.713 323.95 521.815 324.515 519.817 324.515H511.724H16.3848Z" fill="#533583" fill-opacity="0.91"/>
<path fill-rule="evenodd" clip-rule="evenodd" d="M16.3848 2.48411H511.724H520.816L521.715 2.93576L522.115 3.95199V4.0649L521.715 5.08113L520.816 5.53278H511.724H16.3848H10.9898C10.5902 5.53278 10.2904 5.38223 10.0906 5.08113L9.69099 4.0649V3.95199L10.0906 2.93576C10.2904 2.63466 10.5902 2.48411 10.9898 2.48411H16.3848Z" fill="#C2AEFF"/>
<path fill-rule="evenodd" clip-rule="evenodd" d="M531.506 10.1623L534.503 12.6464C536.435 14.9046 537.567 17.5393 537.9 20.5503L538 22.357V312.884V327.224C538 330.988 536.834 334.225 534.503 336.935C532.105 339.645 529.241 341 525.911 341H511.724H18.283L16.4847 340.887C13.8871 340.435 11.6558 339.118 9.7909 336.935C8.12578 335.128 7.0268 333.096 6.49397 330.838C8.22569 331.816 10.1239 332.306 12.1887 332.306H16.3848H511.724H519.817C523.147 332.306 526.011 330.988 528.409 328.354C530.74 325.644 531.906 322.369 531.906 318.53V312.884V20.4374V13.6626L531.506 10.1623Z" fill="black" fill-opacity="0.4"/>
</svg>
