<?xml version="1.0" encoding="UTF-8" standalone="no"?>
<svg xmlns:ffdec="https://www.free-decompiler.com/flash" xmlns:xlink="http://www.w3.org/1999/xlink" ffdec:objectType="frame" height="148.4px" width="140.6px" xmlns="http://www.w3.org/2000/svg">
  <g transform="matrix(1.0, 0.0, 0.0, 1.0, 51.75, 78.65)">
    <use ffdec:characterId="202" height="150.0" transform="matrix(0.9338, 0.0, 0.0, 0.9342, -51.3357, -72.5619)" width="149.95" xlink:href="#sprite0"/>
  </g>
  <defs>
    <g id="sprite0" transform="matrix(1.0, 0.0, 0.0, 1.0, 77.3, 75.0)">
      <use ffdec:characterId="187" height="122.8" transform="matrix(1.0, 0.0, 0.0, 1.0, -57.3, -47.8)" width="129.95" xlink:href="#shape0"/>
      <use ffdec:characterId="194" height="28.3" transform="matrix(1.0, 0.0, 0.0, 1.0, -57.9, -27.25)" width="51.3" xlink:href="#sprite1"/>
      <use ffdec:characterId="195" height="50.0" transform="matrix(1.0, 0.0, 0.0, 1.0, -21.9, -75.0)" width="67.35" xlink:href="#shape1"/>
      <use ffdec:characterId="201" height="27.95" transform="matrix(1.0, 0.0, 0.0, 1.0, -77.3, 12.6)" width="42.95" xlink:href="#sprite2"/>
    </g>
    <g id="shape0" transform="matrix(1.0, 0.0, 0.0, 1.0, 57.3, 47.8)">
      <path d="M35.0 5.8 Q36.5 2.45 37.05 0.1 37.45 -1.75 33.85 -4.95 L30.2 -7.7 Q30.7 -9.8 26.4 -14.7 23.1 -18.45 19.9 -20.9 12.15 -27.0 4.5 -23.65 -2.45 -20.65 -5.8 -12.0 -9.25 -3.2 -6.45 5.2 -3.3 14.8 7.05 19.2 20.55 24.95 29.75 14.35 32.8 10.8 35.0 5.8" fill="#000000" fill-rule="evenodd" stroke="none"/>
      <path d="M33.7 5.8 Q35.15 2.45 35.7 0.1 36.2 -2.2 30.5 -6.5 L28.5 -6.75 21.85 -5.1 Q25.1 -7.15 27.25 -7.7 L28.75 -7.85 Q29.7 -10.05 25.25 -14.85 22.4 -17.95 18.55 -20.9 10.8 -27.0 3.15 -23.65 -3.75 -20.65 -7.15 -12.0 -10.6 -3.2 -7.8 5.2 -4.6 14.8 5.7 19.2 19.2 24.95 28.4 14.35 31.45 10.8 33.7 5.8" fill="#0b0a48" fill-rule="evenodd" stroke="none"/>
      <path d="M28.75 -7.85 Q29.55 -9.75 26.3 -13.6 24.05 -16.3 20.3 -19.5 19.2 -19.0 20.1 -18.6 22.2 -17.7 23.75 -13.05 24.65 -10.35 25.15 -6.95 26.8 -7.7 27.9 -7.85 L28.75 -7.85" fill="#2e398a" fill-rule="evenodd" stroke="none"/>
      <path d="M34.05 -1.1 L35.6 -0.85 Q35.05 -3.05 30.5 -6.5 30.1 -6.85 29.35 -6.8 L26.3 -6.3 Q28.25 -5.4 29.6 -2.45 L30.5 -0.85 Q31.05 -0.3 31.85 -0.6 L34.05 -1.1" fill="#2e398a" fill-rule="evenodd" stroke="none"/>
      <path d="M32.8 6.35 Q34.55 7.15 37.25 7.15 38.4 5.85 40.65 5.65 43.05 5.45 45.15 6.75 47.95 8.55 45.9 10.65 44.85 11.65 43.25 12.35 45.95 14.55 47.95 14.5 49.8 14.45 50.6 12.75 51.4 11.15 50.9 8.95 50.4 6.6 48.65 4.8 45.2 1.25 42.8 0.9 40.9 0.65 33.9 0.75 29.3 4.75 32.8 6.35" fill="#004c26" fill-rule="evenodd" stroke="none"/>
      <path d="M38.85 2.8 Q34.8 3.45 35.65 5.1 L37.25 6.6 Q38.2 5.5 40.25 5.8 41.75 6.05 44.6 7.25 49.15 9.2 47.5 10.95 46.65 11.8 44.9 12.3 46.85 13.75 48.25 13.65 49.55 13.55 50.0 12.25 50.4 11.0 49.85 9.2 49.25 7.2 47.7 5.45 L45.05 2.7 Q44.15 2.0 43.05 1.9 L40.15 1.95 34.7 1.85 Q32.5 4.3 33.05 5.5 33.55 6.5 36.3 6.55 35.05 5.5 34.65 4.5 33.95 2.55 38.85 2.8" fill="#98cd69" fill-rule="evenodd" stroke="none"/>
      <path d="M-5.65 46.9 Q-4.0 46.8 -3.85 45.7 -3.3 42.0 -7.0 37.15 -8.4 35.4 -9.85 34.1 -11.25 32.9 -11.75 32.95 -12.55 33.05 -13.35 34.65 -14.4 36.8 -15.7 37.95 L-16.9 37.9 -17.3 38.85 Q-17.9 38.3 -18.3 39.0 L-18.65 40.1 -24.95 40.3 -32.8 39.8 Q-35.45 39.85 -38.35 41.9 L-40.7 43.9 -38.35 43.5 -37.6 43.6 Q-45.25 45.4 -48.5 51.8 -50.15 55.0 -50.25 57.85 L-49.4 57.2 -49.1 57.1 Q-52.6 60.55 -53.45 66.45 -53.9 69.45 -53.65 71.7 L-52.0 71.0 -51.35 70.8 Q-53.15 71.75 -53.65 73.45 L-53.8 75.0 -52.7 74.2 Q-51.3 73.45 -50.0 73.65 -39.85 75.1 -32.1 71.1 -29.7 69.85 -27.8 68.2 L-26.4 66.8 Q-26.4 67.8 -27.25 68.6 -21.65 67.35 -17.35 58.45 L-14.75 52.25 Q-13.65 49.4 -13.2 49.15 L-11.3 49.05 -11.1 48.4 Q-9.95 48.8 -9.55 48.05 L-9.35 47.25 -5.65 46.9" fill="#000000" fill-rule="evenodd" stroke="none"/>
      <path d="M-32.45 40.85 L-24.8 41.05 -18.5 40.55 Q-15.35 39.2 -13.65 36.25 L-12.7 34.4 Q-12.25 33.65 -11.85 33.6 -10.55 33.5 -7.85 37.3 -4.75 41.6 -4.85 45.3 -4.85 45.85 -6.05 46.05 L-8.8 46.3 Q-13.25 46.85 -14.9 49.95 L-19.65 60.0 Q-22.95 66.5 -26.45 68.0 L-25.55 66.5 Q-24.8 64.8 -25.1 64.1 L-26.6 65.8 Q-28.7 67.75 -31.25 69.35 -39.45 74.4 -49.65 73.25 L-52.1 73.4 -53.0 73.75 Q-53.1 73.35 -52.8 72.75 -52.3 71.55 -50.6 70.65 L-51.4 70.55 Q-52.4 70.55 -53.15 70.95 -53.25 68.65 -52.45 65.6 -50.9 59.45 -46.7 55.5 L-47.9 55.75 Q-49.3 56.2 -49.9 57.1 -49.45 54.55 -47.35 51.55 -43.15 45.55 -34.85 43.35 L-36.4 43.1 -39.5 43.3 -37.55 42.1 Q-35.05 40.9 -32.45 40.85" fill="#ffff66" fill-rule="evenodd" stroke="none"/>
      <path d="M-16.75 43.8 Q-13.9 43.1 -11.15 40.85 -9.3 39.35 -7.8 37.35 -6.45 39.2 -5.7 41.15 -4.8 43.35 -4.85 45.25 -4.85 45.85 -6.05 46.05 L-8.8 46.3 Q-13.25 46.85 -14.9 49.9 L-19.65 60.0 Q-22.95 66.45 -26.45 68.0 L-25.55 66.45 Q-24.8 64.8 -25.1 64.1 L-26.6 65.8 Q-28.7 67.75 -31.25 69.35 -39.45 74.4 -49.65 73.25 L-52.1 73.4 -53.0 73.75 -52.85 72.85 Q-52.4 71.75 -51.0 70.9 -43.85 71.1 -36.7 66.8 L-32.45 63.8 -30.95 62.45 -33.2 62.9 -34.45 62.95 Q-23.5 57.75 -19.0 50.25 -17.6 47.9 -17.0 45.6 L-16.75 43.8" fill="#c69e27" fill-rule="evenodd" stroke="none"/>
      <path d="M-16.7 38.55 L-17.1 39.35 -18.0 39.4 Q-18.25 39.95 -18.1 41.2 -17.9 42.9 -16.95 44.6 -15.85 46.6 -14.25 47.7 -12.75 48.7 -12.1 48.3 L-11.65 47.65 Q-10.55 48.05 -10.35 47.35 L-10.35 46.6 -11.5 46.0 Q-12.85 45.05 -14.2 43.1 -15.55 41.2 -15.75 39.75 L-15.65 38.75 Q-16.2 37.85 -16.7 38.55" fill="#7a4d17" fill-rule="evenodd" stroke="none"/>
      <path d="M-16.35 41.75 L-16.15 41.15 -15.95 40.9 Q-16.4 40.9 -16.6 41.3 L-17.05 39.65 Q-17.35 40.1 -17.05 41.05 -17.6 41.0 -17.75 41.3 L-17.75 41.55 Q-17.5 41.25 -17.2 41.35 L-16.9 41.45 -16.55 42.25 Q-17.15 42.15 -17.35 42.8 -17.2 42.55 -16.75 42.65 L-16.4 42.8 Q-16.7 42.7 -16.9 43.1 L-17.05 43.55 Q-16.85 43.1 -16.45 43.15 L-16.1 43.3 -14.6 45.5 -15.15 46.05 -14.75 45.85 -14.3 45.75 -12.6 47.1 -11.8 47.5 -12.15 47.25 Q-11.5 47.3 -11.4 46.95 L-11.45 46.6 Q-11.6 47.05 -12.2 46.95 L-12.75 46.75 -12.35 46.4 -12.25 46.1 Q-12.4 46.3 -13.05 46.4 -13.65 46.2 -14.15 45.25 L-13.7 44.9 -13.65 44.65 -14.6 44.85 -15.1 44.1 -14.45 43.5 Q-14.75 43.45 -15.35 43.85 L-16.1 42.55 -16.35 41.75" fill="#a97b54" fill-rule="evenodd" stroke="none"/>
      <path d="M-25.45 46.9 L-26.9 47.55 -30.0 48.6 Q-32.25 49.05 -34.0 51.35 L-35.25 53.6 -33.6 51.9 Q-31.55 50.15 -29.65 49.65 -27.85 49.15 -26.45 47.95 L-25.45 46.9" fill="#bd8536" fill-rule="evenodd" stroke="none"/>
      <path d="M-39.5 55.7 L-40.85 57.35 -43.35 59.7 Q-42.35 59.5 -41.4 58.9 -39.45 57.75 -39.5 55.7" fill="#bd8536" fill-rule="evenodd" stroke="none"/>
      <path d="M-42.65 64.45 Q-43.45 64.55 -45.25 65.85 L-46.85 67.2 Q-43.85 66.2 -42.95 65.25 L-42.65 64.45" fill="#bd8536" fill-rule="evenodd" stroke="none"/>
      <path d="M65.7 -12.15 Q64.5 -10.75 53.55 -3.85 42.95 2.8 41.8 3.2 40.6 3.55 25.75 12.8 10.35 22.4 7.35 24.95 L-3.8 32.9 -10.25 37.55 -10.7 38.55 Q-10.9 39.85 -9.9 41.3 -9.05 42.5 -7.7 42.6 L-6.55 42.45 7.2 34.4 Q21.25 26.0 22.7 24.45 24.45 22.7 46.8 10.6 68.9 -1.4 71.5 -2.05 72.35 -2.3 72.6 -4.05 72.9 -6.25 71.45 -8.85 69.6 -12.05 67.65 -12.55 66.35 -12.85 65.7 -12.15" fill="#000000" fill-rule="evenodd" stroke="none"/>
      <path d="M66.05 -11.55 Q66.4 -12.25 67.6 -11.85 69.1 -11.35 70.7 -8.85 72.15 -6.6 72.05 -4.65 72.0 -2.95 71.05 -2.85 68.9 -2.7 46.5 9.55 24.25 21.65 22.35 23.55 20.85 25.0 6.7 33.7 L-7.15 42.15 -7.95 42.25 Q-8.85 42.1 -9.75 40.85 -10.6 39.6 -10.35 38.6 L-9.95 37.85 -3.45 33.2 7.65 25.35 Q10.9 22.75 25.85 13.4 40.75 4.15 41.75 4.05 42.8 3.95 54.15 -3.25 65.55 -10.45 66.05 -11.55" fill="#783c00" fill-rule="evenodd" stroke="none"/>
      <path d="M67.1 -11.65 L68.2 -11.25 Q69.4 -10.55 70.2 -9.2 71.1 -7.75 71.5 -6.15 72.0 -4.5 71.65 -3.8 L69.65 -3.85 Q67.95 -4.7 67.35 -6.3 66.45 -8.6 66.3 -9.75 66.0 -11.55 67.1 -11.65" fill="#c78442" fill-rule="evenodd" stroke="none"/>
      <path d="M68.95 -6.0 L68.95 -4.35 63.75 -2.05 Q58.3 0.35 57.15 1.25 L63.2 -1.45 Q69.25 -4.05 69.45 -3.95 L68.95 -6.0" fill="#a35b1a" fill-rule="evenodd" stroke="none"/>
      <path d="M68.15 -6.7 L67.1 -7.0 64.6 -5.5 Q62.0 -3.8 61.05 -2.75 L67.25 -6.65 68.15 -6.7" fill="#a35b1a" fill-rule="evenodd" stroke="none"/>
      <path d="M67.95 -8.25 L66.35 -9.6 63.25 -7.4 58.75 -4.3 61.9 -5.9 Q65.3 -7.7 66.4 -8.9 L67.95 -8.25" fill="#a35b1a" fill-rule="evenodd" stroke="none"/>
      <path d="M68.65 -10.95 L69.35 -8.85 69.15 -10.55 68.65 -10.95" fill="#a35b1a" fill-rule="evenodd" stroke="none"/>
      <path d="M70.75 -8.2 L70.2 -7.5 71.05 -7.6 70.75 -8.2" fill="#a35b1a" fill-rule="evenodd" stroke="none"/>
      <path d="M71.6 -5.75 L70.2 -6.75 71.7 -5.35 71.6 -5.75" fill="#a35b1a" fill-rule="evenodd" stroke="none"/>
      <path d="M71.6 -3.7 L70.45 -5.55 71.4 -3.55 71.6 -3.7" fill="#a35b1a" fill-rule="evenodd" stroke="none"/>
      <path d="M70.0 -6.95 Q70.2 -7.1 69.85 -7.65 L69.3 -8.1 Q69.15 -7.95 69.5 -7.45 69.85 -6.85 70.0 -6.95" fill="#a35b1a" fill-rule="evenodd" stroke="none"/>
      <path d="M34.6 9.8 L27.6 14.05 32.3 11.55 Q37.0 8.95 37.3 8.2 L34.6 9.8" fill="#a35b1a" fill-rule="evenodd" stroke="none"/>
      <path d="M46.95 6.95 L44.25 8.5 37.25 12.8 41.9 10.35 Q46.65 7.65 46.95 6.95" fill="#a35b1a" fill-rule="evenodd" stroke="none"/>
      <path d="M26.9 18.1 Q20.35 21.9 19.45 23.1 18.55 24.3 11.95 28.95 L5.45 33.35 11.0 29.85 Q16.9 26.05 18.3 24.6 19.7 23.2 26.65 18.75 L33.35 14.55 26.9 18.1" fill="#a35b1a" fill-rule="evenodd" stroke="none"/>
      <path d="M61.75 -4.85 L55.1 -0.65 Q48.15 3.8 46.8 5.2 45.35 6.7 39.45 10.5 L33.9 14.0 40.4 9.6 Q47.05 4.95 47.9 3.7 48.8 2.5 55.4 -1.3 L61.75 -4.85" fill="#a35b1a" fill-rule="evenodd" stroke="none"/>
      <path d="M17.6 20.75 Q17.1 21.0 16.45 21.95 15.8 22.9 17.1 22.15 18.3 21.45 18.05 21.05 L17.6 20.75" fill="#a35b1a" fill-rule="evenodd" stroke="none"/>
      <path d="M17.5 20.3 L18.2 19.95 Q18.95 19.75 19.0 20.25 19.0 21.1 17.75 22.15 L16.75 22.85 Q15.65 23.45 15.25 23.1 14.8 22.7 15.9 21.7 L17.1 20.75 16.1 21.4 Q15.1 22.15 15.0 22.4 14.8 22.85 15.05 23.2 L16.35 23.3 18.2 22.05 Q19.05 21.2 19.15 20.65 L19.0 19.8 Q18.7 19.5 18.2 19.8 17.5 20.2 17.5 20.3" fill="#a35b1a" fill-rule="evenodd" stroke="none"/>
      <path d="M37.85 8.15 L38.25 8.25 Q38.5 8.55 37.55 9.3 L36.5 10.6 Q36.1 11.2 34.75 11.85 L30.7 14.05 27.35 15.85 24.45 17.75 21.9 20.0 Q20.95 21.1 23.05 19.4 25.7 16.8 27.7 15.9 L30.95 14.15 Q33.25 12.8 34.15 12.4 L36.5 11.05 Q37.6 10.25 38.2 9.25 38.6 8.55 40.35 7.45 L40.8 7.05 39.65 7.2 Q37.85 7.65 37.65 7.95 L37.85 8.15" fill="#a35b1a" fill-rule="evenodd" stroke="none"/>
      <path d="M12.0 25.1 Q10.2 28.5 5.0 32.15 L-1.05 35.9 -4.9 38.7 -3.05 37.6 -1.2 36.5 3.35 33.7 Q7.85 30.9 9.4 28.95 10.95 27.15 12.65 26.0 L13.95 25.3 15.8 24.25 Q17.3 23.45 15.5 24.25 13.7 25.1 13.75 24.0 L14.1 22.7 Q13.2 23.2 12.5 24.2 L12.0 25.1" fill="#a35b1a" fill-rule="evenodd" stroke="none"/>
      <path d="M23.95 16.6 Q20.55 19.0 20.1 18.8 18.45 19.4 19.25 19.4 L20.0 19.5 20.2 19.8 Q19.95 21.35 18.55 22.65 L16.7 24.1 18.4 22.9 19.45 22.0 20.3 20.8 21.75 18.9 23.75 17.15 26.2 15.1 23.95 16.6" fill="#a35b1a" fill-rule="evenodd" stroke="none"/>
      <path d="M53.3 4.25 L56.05 2.45 56.75 1.55 57.0 1.05 50.35 6.0 53.3 4.25" fill="#a35b1a" fill-rule="evenodd" stroke="none"/>
      <path d="M-6.65 36.65 L-3.25 34.1 -7.1 36.55 -10.4 38.8 -10.4 39.25 -6.65 36.65" fill="#a35b1a" fill-rule="evenodd" stroke="none"/>
      <path d="M-4.95 37.25 Q0.2 34.2 0.35 33.65 0.55 32.85 7.25 27.4 L4.8 29.2 Q2.1 31.3 0.5 33.05 -1.65 35.45 -6.1 37.85 L-10.15 39.85 -10.1 40.25 -4.95 37.25" fill="#a35b1a" fill-rule="evenodd" stroke="none"/>
      <path d="M-4.4 39.1 Q-8.05 41.1 -8.65 41.95 L-8.15 42.1 -2.15 37.9 -4.4 39.1" fill="#a35b1a" fill-rule="evenodd" stroke="none"/>
      <path d="M-9.7 40.8 L-9.6 41.0 Q-9.25 41.05 -7.15 39.6 L-9.7 40.8" fill="#a35b1a" fill-rule="evenodd" stroke="none"/>
      <path d="M32.35 -41.8 Q38.2 -35.6 35.9 -24.1 34.1 -14.95 28.3 -9.95 21.2 -3.7 10.7 -6.8 3.8 -8.9 0.6 -16.5 -2.35 -23.55 -0.75 -31.65 0.9 -40.05 6.65 -44.45 13.2 -49.4 22.9 -47.0 28.9 -45.5 32.35 -41.8" fill="#004c26" fill-rule="evenodd" stroke="none"/>
      <path d="M30.95 -42.0 Q27.65 -45.6 21.85 -47.05 12.5 -49.35 6.2 -44.55 0.65 -40.35 -0.95 -32.2 -2.5 -24.45 0.35 -17.65 3.45 -10.35 10.1 -8.35 20.2 -5.35 27.05 -11.3 32.6 -16.15 34.4 -24.95 36.55 -36.0 30.95 -42.0" fill="#98cd69" fill-rule="evenodd" stroke="none"/>
      <path d="M15.25 -29.75 Q19.85 -37.0 26.3 -38.2 30.2 -38.95 33.85 -37.45 31.0 -44.8 21.85 -47.05 12.5 -49.35 6.2 -44.55 0.65 -40.35 -0.95 -32.2 -2.5 -24.45 0.35 -17.65 3.45 -10.35 10.1 -8.35 17.55 -6.1 23.35 -8.85 14.9 -8.5 12.3 -14.5 9.55 -20.7 15.25 -29.75" fill="#6fac38" fill-rule="evenodd" stroke="none"/>
      <path d="M25.4 -15.7 Q25.4 -16.5 24.3 -16.6 L21.7 -16.5 Q17.45 -16.4 15.85 -19.05 15.9 -15.4 20.65 -14.6 22.45 -14.3 23.9 -14.65 25.4 -14.95 25.4 -15.7" fill="#000000" fill-rule="evenodd" stroke="none"/>
      <path d="M24.7 -30.05 L22.85 -30.35 Q20.7 -30.9 18.8 -32.1 17.25 -33.15 16.05 -32.75 15.45 -32.55 15.15 -32.15 L15.95 -32.25 Q16.85 -32.15 17.65 -31.5 L17.55 -28.6 Q17.95 -25.75 20.4 -25.75 22.5 -25.75 23.0 -27.6 L23.1 -29.4 23.7 -29.4 Q24.35 -29.55 24.7 -30.05" fill="#000000" fill-rule="evenodd" stroke="none"/>
      <path d="M29.3 -30.1 Q29.85 -29.45 30.6 -29.6 L30.9 -28.05 Q31.5 -26.55 33.0 -27.05 34.65 -27.55 34.6 -29.45 L34.2 -31.25 Q34.8 -31.9 35.55 -32.0 L36.15 -31.95 35.5 -32.55 Q34.6 -32.9 33.4 -31.95 L30.6 -30.45 29.3 -30.1" fill="#000000" fill-rule="evenodd" stroke="none"/>
      <path d="M18.2 -29.7 L18.05 -28.8 Q18.1 -28.35 18.35 -28.25 18.65 -28.15 18.95 -28.45 L19.45 -29.2 19.6 -30.15 19.3 -30.65 18.75 -30.5 18.2 -29.7" fill="#ffffff" fill-rule="evenodd" stroke="none"/>
      <path d="M33.2 -29.6 Q33.25 -29.2 33.45 -28.95 33.65 -28.7 33.85 -28.75 L34.15 -29.1 34.15 -29.8 33.9 -30.45 Q33.65 -30.7 33.45 -30.65 L33.2 -30.3 33.2 -29.6" fill="#ffffff" fill-rule="evenodd" stroke="none"/>
      <path d="M28.15 -27.9 Q28.3 -26.85 29.3 -25.8 31.35 -23.7 35.6 -24.0 38.2 -24.2 38.25 -22.6 38.25 -21.1 36.3 -19.25 34.25 -17.35 31.65 -16.7 28.55 -15.9 26.0 -17.45 23.1 -19.15 25.35 -23.7 26.0 -25.15 27.15 -26.7 L28.15 -27.9" fill="#004523" fill-rule="evenodd" stroke="none"/>
      <path d="M28.15 -28.1 L27.25 -27.05 25.55 -24.55 Q23.45 -20.65 26.1 -18.95 28.25 -17.6 30.95 -18.05 33.2 -18.4 35.05 -19.8 36.8 -21.15 36.85 -22.25 36.9 -23.35 34.7 -23.1 30.45 -22.5 28.9 -25.25 28.1 -26.6 28.15 -28.1" fill="#98cd69" fill-rule="evenodd" stroke="none"/>
      <path d="M33.4 -22.5 L31.8 -21.9 Q31.2 -21.45 31.25 -21.1 31.35 -20.75 32.1 -20.7 L33.8 -20.85 Q34.75 -21.05 35.4 -21.45 36.05 -21.9 35.95 -22.25 35.85 -22.6 35.1 -22.65 L33.4 -22.5" fill="#e5e7b8" fill-rule="evenodd" stroke="none"/>
      <path d="M27.4 -22.1 Q27.85 -21.8 28.35 -21.85 L29.2 -22.4 Q29.5 -22.8 29.4 -23.3 L28.9 -24.15 27.9 -24.4 27.05 -23.9 Q26.75 -23.5 26.85 -22.95 26.95 -22.45 27.4 -22.1" fill="#404041" fill-rule="evenodd" stroke="none"/>
      <path d="M27.85 -23.05 Q28.15 -22.85 28.5 -22.9 L29.05 -23.25 29.2 -23.85 28.85 -24.4 28.2 -24.55 Q27.85 -24.5 27.65 -24.25 L27.5 -23.6 27.85 -23.05" fill="#6d6e70" fill-rule="evenodd" stroke="none"/>
      <path d="M25.15 -23.7 Q23.75 -20.4 26.05 -18.9 28.0 -17.65 30.45 -17.95 32.5 -18.15 34.35 -19.35 29.75 -18.55 27.15 -20.4 25.25 -21.8 25.15 -23.7" fill="#6eb93c" fill-rule="evenodd" stroke="none"/>
      <path d="M35.75 2.0 Q34.5 3.45 33.85 5.75 31.7 5.1 28.15 2.8 L25.0 0.6 22.35 2.7 Q19.75 5.05 20.05 6.15 20.35 7.2 25.15 8.7 L29.85 10.0 30.25 13.3 Q31.1 16.95 33.35 18.8 36.35 21.25 38.3 20.2 L39.3 19.25 39.6 18.65 Q43.0 19.35 44.0 17.65 L44.35 16.45 44.3 15.85 Q48.9 15.95 48.65 12.85 L48.0 10.75 47.45 9.75 44.9 10.9 Q42.0 11.6 40.05 9.8 37.7 7.65 39.35 5.3 L40.75 3.85 41.5 3.35 Q38.3 -0.9 35.75 2.0" fill="#004c26" fill-rule="evenodd" stroke="none"/>
      <path d="M35.95 3.05 Q34.95 4.45 34.45 6.5 31.3 5.55 25.1 2.25 L23.6 3.3 Q22.1 4.55 22.4 5.55 22.65 6.6 27.2 7.9 L31.65 9.05 31.45 12.4 Q31.7 16.05 33.75 17.7 36.65 19.95 37.95 18.85 L38.55 17.85 38.65 17.3 Q42.5 18.35 43.2 16.85 L43.3 15.7 43.15 15.15 Q47.3 15.3 47.5 13.15 L47.25 11.6 46.9 10.95 44.0 11.9 Q40.75 12.5 38.9 10.7 36.55 8.4 38.3 5.65 L39.7 4.0 40.5 3.4 Q37.95 0.25 35.95 3.05" fill="#98cd69" fill-rule="evenodd" stroke="none"/>
      <path d="M38.5 17.9 Q33.9 16.7 33.05 12.55 32.8 11.2 32.95 9.8 L33.15 8.6 Q30.4 8.35 23.0 3.85 22.2 4.8 22.4 5.55 22.65 6.6 26.75 8.1 L30.85 9.45 31.1 12.55 Q31.8 16.0 33.75 17.7 35.85 19.5 37.2 19.25 38.25 19.0 38.5 17.9" fill="#6fac38" fill-rule="evenodd" stroke="none"/>
      <path d="M-13.25 -13.1 Q-17.45 -9.45 -21.6 -4.4 -25.0 -0.25 -26.95 3.05 -29.5 7.35 -36.15 9.55 -41.7 11.35 -54.55 12.95 -57.1 13.25 -57.3 14.5 -57.5 15.5 -55.95 17.0 -54.55 18.35 -52.3 19.5 -50.0 20.65 -48.15 20.95 -50.3 25.15 -49.7 29.8 -48.8 37.15 -40.05 39.55 -26.25 43.2 -19.35 42.15 -17.2 41.8 -16.0 41.05 L-15.25 40.35 Q-10.55 44.45 -0.95 39.9 L5.15 36.4 7.7 34.55 15.25 34.35 20.15 32.4 Q25.15 16.25 30.35 9.35 31.95 7.15 33.45 6.2 L34.55 5.65 Q35.8 1.95 29.6 -0.05 26.5 -1.05 23.15 -1.3 24.2 -3.65 18.5 -7.1 15.65 -8.85 12.6 -10.1 11.6 -13.85 8.3 -16.4 6.65 -17.65 5.2 -18.2 -1.75 -23.0 -13.25 -13.1" fill="#000000" fill-rule="evenodd" stroke="none"/>
      <path d="M-45.55 18.75 Q-41.7 16.3 -39.3 15.15 -36.0 13.45 -34.05 13.35 -38.35 15.1 -44.7 19.8 -46.35 20.95 -47.3 23.45 -48.35 26.05 -48.0 28.75 -47.2 35.8 -38.6 38.25 -25.85 41.55 -19.4 40.8 -17.4 40.5 -16.25 39.9 L-15.5 39.3 Q-12.95 36.45 -6.25 24.8 0.05 13.8 3.1 11.0 -1.25 17.55 -6.55 28.7 -10.4 36.8 -14.1 40.25 -9.6 42.6 -0.55 38.15 L5.25 34.85 7.65 33.2 10.3 26.15 12.15 19.7 Q14.45 12.15 18.9 6.7 15.45 12.3 13.3 20.65 10.95 29.95 9.1 33.65 11.05 33.95 15.25 32.95 L19.1 31.85 Q23.05 17.25 28.65 9.75 30.4 7.4 32.1 6.1 L33.45 5.2 Q34.05 3.1 29.95 1.3 26.6 -0.15 23.65 -0.45 22.9 -0.5 21.15 0.15 18.0 1.3 13.75 4.25 17.5 0.95 20.05 -0.45 L21.85 -1.15 Q22.25 -2.75 19.1 -5.45 16.4 -7.7 13.45 -9.0 12.6 -9.35 9.1 -7.55 3.45 -4.7 -5.4 2.65 2.3 -5.25 7.8 -8.35 9.5 -9.35 10.8 -9.75 L11.75 -9.9 Q10.35 -13.8 7.45 -16.05 6.0 -17.15 4.85 -17.5 -1.55 -22.6 -12.1 -13.1 -19.05 -6.8 -25.55 3.25 -28.6 7.9 -35.0 10.3 -41.15 12.6 -53.25 13.9 -55.4 14.15 -55.2 15.35 -55.0 16.35 -53.25 17.55 -51.4 18.75 -49.35 19.2 -46.95 19.65 -45.55 18.75" fill="#1e1d57" fill-rule="evenodd" stroke="none"/>
      <path d="M11.05 -8.5 Q8.1 -7.35 3.7 -4.3 9.0 -3.05 10.85 -0.15 12.65 2.55 10.8 5.85 10.4 6.45 10.85 6.45 L12.05 6.1 Q14.3 5.5 14.6 7.3 L12.8 13.7 Q11.05 19.15 11.9 20.45 13.15 16.3 14.35 13.7 16.15 9.9 18.9 6.7 19.45 6.0 20.95 7.15 22.45 8.3 21.7 9.5 17.9 15.6 21.1 25.45 24.85 14.55 29.5 8.75 30.95 6.95 32.35 5.9 L33.45 5.2 Q34.05 3.1 29.95 1.3 26.6 -0.15 23.65 -0.45 22.9 -0.5 21.15 0.15 18.0 1.3 13.75 4.25 17.5 0.95 20.05 -0.45 L21.85 -1.15 Q22.25 -2.75 19.1 -5.45 16.4 -7.7 13.45 -9.0 13.0 -9.2 11.05 -8.5" fill="#2e398a" fill-rule="evenodd" stroke="none"/>
      <path d="M3.9 -5.85 Q7.3 -8.45 9.85 -9.45 L11.7 -9.95 Q10.65 -12.8 8.8 -14.8 7.5 -16.2 5.9 -17.05 L5.0 -17.45 Q6.3 -15.2 5.65 -11.45 5.2 -8.8 3.9 -5.85" fill="#2e398a" fill-rule="evenodd" stroke="none"/>
      <path d="M-8.05 -4.9 Q-11.25 -9.35 -8.3 -16.1 -13.05 -12.85 -18.45 -6.4 -22.2 -1.9 -25.6 3.2 -28.3 7.4 -33.65 9.75 -38.85 12.0 -48.5 13.35 -45.9 13.75 -44.4 15.05 -43.35 15.95 -42.95 17.15 -36.95 13.55 -34.05 13.35 -37.05 14.55 -40.7 16.95 -35.55 15.2 -30.7 15.4 -28.0 15.5 -24.0 16.5 L-19.95 16.9 Q-18.55 16.35 -18.2 13.2 -17.8 10.05 -15.4 7.35 -14.25 6.1 -10.7 3.35 -7.9 1.15 -7.25 -0.3 -6.25 -2.35 -8.05 -4.9" fill="#0b0a48" fill-rule="evenodd" stroke="none"/>
      <path d="M-14.2 -29.45 Q-16.85 -27.75 -20.85 -26.65 -22.15 -26.3 -22.85 -23.05 -23.5 -19.65 -22.9 -15.9 -22.15 -11.6 -19.9 -9.0 -17.2 -5.95 -12.75 -6.0 -4.1 -6.4 1.7 -13.75 3.55 -16.05 4.85 -18.8 L5.8 -21.0 Q5.95 -18.1 4.6 -15.35 L3.15 -13.2 Q5.2 -13.8 7.2 -15.55 11.2 -19.0 10.95 -24.7 10.7 -28.75 11.3 -32.65 L11.9 -35.75 Q13.05 -37.9 11.25 -39.15 9.55 -40.25 6.1 -40.15 2.6 -40.1 -1.0 -38.75 -5.0 -37.3 -7.65 -34.8 -11.7 -31.0 -14.2 -29.45" fill="#000000" fill-rule="evenodd" stroke="none"/>
      <path d="M-12.8 -29.5 Q-15.45 -27.6 -18.75 -26.45 -19.65 -26.1 -20.1 -23.05 -20.6 -19.75 -20.1 -16.3 -18.65 -6.85 -11.75 -7.2 -3.5 -7.65 2.3 -16.1 4.15 -18.75 5.45 -21.9 L6.45 -24.5 Q7.85 -21.15 6.1 -17.3 5.2 -15.3 4.05 -14.05 5.65 -14.8 7.2 -16.7 10.25 -20.4 10.0 -25.85 9.8 -29.7 10.75 -33.05 L11.75 -35.6 Q12.9 -37.65 11.15 -38.8 9.55 -39.9 6.3 -39.8 2.95 -39.7 -0.5 -38.45 -4.3 -37.05 -6.85 -34.7 -10.85 -30.95 -12.8 -29.5" fill="#2f2b2c" fill-rule="evenodd" stroke="none"/>
      <path d="M10.0 -25.85 Q9.8 -29.7 10.8 -33.05 L11.8 -35.6 Q13.15 -38.1 10.45 -39.2 L3.65 -39.55 Q-5.05 -28.75 -9.05 -20.95 -15.5 -8.5 -7.05 -8.2 -0.95 -10.45 3.35 -17.75 4.7 -20.0 5.7 -22.5 L6.45 -24.5 Q7.85 -21.2 6.1 -17.3 5.2 -15.35 4.05 -14.1 5.65 -14.85 7.2 -16.7 10.3 -20.45 10.0 -25.85" fill="#404041" fill-rule="evenodd" stroke="none"/>
    </g>
    <g id="sprite1" transform="matrix(1.0, 0.0, 0.0, 1.0, 27.85, 14.15)">
      <use ffdec:characterId="188" height="28.3" transform="matrix(1.0, 0.0, 0.0, 1.0, -27.85, -14.15)" width="51.3" xlink:href="#morphshape0"/>
      <use ffdec:characterId="189" height="24.85" transform="matrix(1.0, 0.0, 0.0, 1.0, -25.7, -13.5)" width="48.75" xlink:href="#morphshape1"/>
    </g>
    <g id="morphshape0" transform="matrix(1.0, 0.0, 0.0, 1.0, 27.85, 14.15)">
      <path d="M-12.95 -2.1 Q-12.85 -3.4 -11.75 -4.9 L-11.1 -5.7 Q-7.85 -9.5 -0.45 -11.25 L0.15 -11.35 6.25 -12.75 6.45 -12.8 Q9.25 -13.5 11.05 -14.15 13.15 -12.65 14.1 -8.9 14.7 -6.7 15.35 -2.0 16.05 2.05 17.5 3.75 19.45 6.15 23.45 5.7 L20.9 6.6 17.9 7.15 16.9 7.2 Q9.65 7.55 5.8 8.8 L4.85 9.1 Q1.25 10.5 -1.75 14.15 -2.2 13.35 -2.3 12.25 L-2.35 11.4 Q-2.35 8.95 -0.65 6.65 L0.8 5.1 -1.1 5.65 -1.8 5.85 Q-5.7 6.2 -9.55 6.5 L-12.0 6.55 Q-16.05 6.55 -19.3 8.65 L-20.75 9.8 Q-22.6 11.4 -23.45 13.05 -23.6 11.25 -22.9 9.05 L-22.55 7.95 Q-21.0 3.85 -17.2 1.2 L-14.0 -0.6 Q-12.2 -1.3 -10.45 -1.95 L-6.0 -3.1 -3.15 -3.8 Q-1.05 -4.35 0.2 -4.95 L-2.8 -4.75 -3.75 -4.7 Q-8.6 -4.1 -12.95 -2.1" fill="#000000" fill-rule="evenodd" stroke="none"/>
      <path d="M-12.95 -2.1 Q-8.6 -4.1 -3.75 -4.7 L-2.8 -4.75 0.2 -4.95 Q-1.05 -4.35 -3.15 -3.8 L-6.0 -3.1 -10.45 -1.95 Q-12.2 -1.3 -14.0 -0.6 L-17.2 1.2 Q-21.0 3.85 -22.55 7.95 L-22.9 9.05 Q-23.6 11.25 -23.45 13.05 -22.6 11.4 -20.75 9.8 L-19.3 8.65 Q-16.05 6.55 -12.0 6.55 L-9.55 6.5 Q-5.7 6.2 -1.8 5.85 L-1.1 5.65 0.8 5.1 -0.65 6.65 Q-2.35 8.95 -2.35 11.4 L-2.3 12.25 Q-2.2 13.35 -1.75 14.15 1.25 10.5 4.85 9.1 L5.8 8.8 Q9.65 7.55 16.9 7.2 L17.9 7.15 20.9 6.6 23.45 5.7 Q19.45 6.15 17.5 3.75 16.05 2.05 15.35 -2.0 14.7 -6.7 14.1 -8.9 13.15 -12.65 11.05 -14.15 9.25 -13.5 6.45 -12.8 L6.25 -12.75 0.15 -11.35 -0.45 -11.25 Q-7.85 -9.5 -11.1 -5.7 L-11.75 -4.9 Q-12.85 -3.4 -12.95 -2.1 Z" fill="none" stroke="#000000" stroke-linecap="round" stroke-linejoin="round" stroke-opacity="0.0" stroke-width="0.0"/>
    </g>
    <g id="morphshape1" transform="matrix(1.0, 0.0, 0.0, 1.0, 25.7, 13.5)">
      <path d="M-22.85 10.9 L-22.85 10.9 Q-21.95 9.35 -20.0 7.9 L-18.55 7.0 Q-15.15 5.1 -10.85 5.35 L-8.95 5.45 Q-3.2 5.6 0.0 4.55 L1.4 3.85 4.1 2.0 5.4 1.05 Q7.9 -0.65 10.1 -1.55 L9.0 -0.75 5.1 2.45 4.0 3.25 Q0.5 6.05 -0.65 8.8 -1.35 10.4 -1.1 11.35 L0.75 9.8 Q2.9 8.3 5.75 7.5 L9.95 6.7 17.95 6.0 Q20.6 5.85 22.95 4.85 L23.05 4.85 20.15 5.15 Q18.9 4.85 18.1 3.7 L17.8 3.25 Q16.95 1.75 16.5 -1.8 L16.35 -3.5 Q16.05 -6.15 15.8 -8.8 L15.4 -10.7 Q14.4 -13.95 11.7 -13.45 L11.7 -13.45 Q9.2 -12.7 6.7 -12.0 L2.5 -10.95 2.0 -10.85 -2.55 -9.6 Q-6.85 -8.15 -9.6 -5.95 -11.65 -4.35 -12.2 -3.1 L-10.5 -3.9 Q-6.95 -5.3 -2.25 -5.8 L-1.05 -5.8 2.9 -5.95 4.35 -6.0 8.15 -6.55 9.6 -6.9 Q11.95 -7.55 13.75 -8.5 L12.65 -7.6 Q10.6 -6.25 6.65 -5.5 L5.25 -5.2 Q0.5 -4.25 -0.45 -3.75 -1.1 -3.4 -2.1 -3.1 L-5.7 -2.25 -7.95 -1.8 Q-10.1 -1.1 -12.2 -0.45 L-14.1 0.5 Q-18.75 3.05 -21.15 6.9 -22.6 9.15 -22.85 10.9" fill="#2f2b2c" fill-rule="evenodd" stroke="none"/>
      <path d="M-22.85 10.9 Q-22.6 9.15 -21.15 6.9 -18.75 3.05 -14.1 0.5 L-12.2 -0.45 Q-10.1 -1.1 -7.95 -1.8 L-5.7 -2.25 -2.1 -3.1 Q-1.1 -3.4 -0.45 -3.75 0.5 -4.25 5.25 -5.2 L6.65 -5.5 Q10.6 -6.25 12.65 -7.6 L13.75 -8.5 Q11.95 -7.55 9.6 -6.9 L8.15 -6.55 4.35 -6.0 2.9 -5.95 -1.05 -5.8 -2.25 -5.8 Q-6.95 -5.3 -10.5 -3.9 L-12.2 -3.1 Q-11.65 -4.35 -9.6 -5.95 -6.85 -8.15 -2.55 -9.6 L2.0 -10.85 2.5 -10.95 6.7 -12.0 Q9.2 -12.7 11.7 -13.45 L11.7 -13.45 Q14.4 -13.95 15.4 -10.7 L15.8 -8.8 Q16.05 -6.15 16.35 -3.5 L16.5 -1.8 Q16.95 1.75 17.8 3.25 L18.1 3.7 Q18.9 4.85 20.15 5.15 L23.05 4.85 22.95 4.85 Q20.6 5.85 17.95 6.0 L9.95 6.7 5.75 7.5 Q2.9 8.3 0.75 9.8 L-1.1 11.35 Q-1.35 10.4 -0.65 8.8 0.5 6.05 4.0 3.25 L5.1 2.45 9.0 -0.75 10.1 -1.55 Q7.9 -0.65 5.4 1.05 L4.1 2.0 1.4 3.85 0.0 4.55 Q-3.2 5.6 -8.95 5.45 L-10.85 5.35 Q-15.15 5.1 -18.55 7.0 L-20.0 7.9 Q-21.95 9.35 -22.85 10.9 L-22.85 10.9 Z" fill="none" stroke="#000000" stroke-linecap="round" stroke-linejoin="round" stroke-opacity="0.0" stroke-width="0.0"/>
    </g>
    <g id="shape1" transform="matrix(1.0, 0.0, 0.0, 1.0, 21.9, 75.0)">
      <path d="M-9.7 -74.95 L-17.65 -74.1 Q-21.2 -73.4 -21.75 -72.4 -22.8 -70.55 -17.15 -65.9 L-11.3 -61.55 Q-10.1 -57.45 -9.05 -50.0 L-9.9 -49.1 -9.05 -42.85 -8.7 -42.7 -8.3 -42.5 Q-14.65 -38.55 -18.55 -34.1 -22.4 -29.7 -21.6 -27.6 -20.95 -26.0 -16.85 -25.3 -12.45 -24.6 -6.7 -25.45 8.45 -27.65 20.0 -37.65 L23.9 -41.0 27.4 -43.55 30.6 -41.5 33.25 -39.15 Q38.4 -40.8 41.65 -43.05 45.25 -45.45 45.45 -47.85 45.7 -50.8 39.05 -52.5 32.6 -54.15 24.45 -53.45 23.3 -57.0 22.05 -57.05 L20.7 -57.0 Q17.4 -62.25 13.65 -66.5 9.4 -71.3 6.25 -72.9 1.4 -75.35 -9.7 -74.95" fill="#000000" fill-rule="evenodd" stroke="none"/>
      <path d="M-17.75 -29.2 Q-17.95 -25.0 -1.45 -29.8 2.5 -30.95 11.2 -38.15 L20.7 -45.75 Q22.9 -46.55 26.95 -44.75 30.8 -43.0 33.05 -40.55 38.4 -42.55 41.1 -44.1 44.75 -46.2 44.7 -48.15 44.65 -49.6 41.25 -50.45 L32.45 -51.2 Q19.45 -50.95 7.9 -46.1 -6.8 -39.9 -10.05 -38.05 -17.45 -33.85 -17.75 -29.2" fill="#0a172c" fill-rule="evenodd" stroke="none"/>
      <path d="M-16.6 -26.8 L-6.65 -27.3 Q8.65 -29.8 19.7 -38.75 33.2 -49.7 40.7 -48.35 41.85 -48.15 43.95 -47.0 L44.55 -46.95 44.7 -48.15 Q44.7 -49.6 41.75 -50.8 38.7 -51.95 33.7 -52.3 21.55 -53.2 8.3 -49.15 -2.8 -45.8 -12.1 -38.55 -15.8 -35.65 -18.1 -32.9 -20.3 -30.3 -20.45 -28.9 -20.6 -27.3 -16.6 -26.8" fill="#2e398a" fill-rule="evenodd" stroke="none"/>
      <path d="M-14.45 -36.5 Q-20.15 -31.5 -20.35 -28.9 -20.55 -26.8 -14.35 -26.7 -7.9 -26.55 0.2 -28.8 -2.65 -28.5 -3.0 -29.1 -3.3 -29.6 -1.65 -30.65 -1.75 -32.1 -0.45 -34.65 2.15 -39.75 9.05 -45.15 L6.15 -45.4 0.4 -46.1 Q-8.05 -42.15 -14.45 -36.5" fill="#2b2a83" fill-rule="evenodd" stroke="none"/>
      <path d="M-8.35 -53.25 Q-7.1 -46.85 -7.05 -42.55 -7.0 -40.85 -2.4 -40.9 1.75 -40.9 7.85 -42.25 13.9 -43.55 18.3 -45.35 23.1 -47.35 23.5 -49.05 23.75 -49.95 21.95 -53.35 20.2 -56.65 17.5 -60.55 10.5 -70.4 5.7 -72.5 0.85 -74.6 -9.55 -74.2 L-16.9 -73.45 Q-20.1 -72.85 -20.5 -72.0 -21.1 -70.55 -15.95 -66.5 L-10.6 -62.8 -8.45 -62.15 Q-6.25 -61.5 -6.2 -61.2 L-8.2 -61.35 -10.25 -61.45 Q-9.15 -57.3 -8.35 -53.25" fill="#1e1d57" fill-rule="evenodd" stroke="none"/>
      <path d="M-16.95 -73.5 Q-20.15 -72.85 -20.5 -72.05 -21.1 -70.6 -15.95 -66.55 L-10.6 -62.85 -8.45 -62.2 Q-6.3 -61.5 -6.2 -61.2 L-8.2 -61.35 -10.2 -61.45 Q-7.7 -51.8 -7.15 -44.9 -3.8 -44.65 -0.4 -45.95 L2.35 -47.35 Q-4.35 -53.95 -4.3 -60.7 -4.3 -64.05 -2.95 -66.1 -15.15 -68.0 -17.85 -70.45 -19.75 -72.1 -16.95 -73.5" fill="#0b0a48" fill-rule="evenodd" stroke="none"/>
      <path d="M5.15 -72.15 Q2.4 -73.3 -2.8 -73.7 -7.4 -74.1 -12.3 -73.75 L-4.55 -72.7 2.95 -70.85 Q6.85 -69.65 11.8 -61.15 14.3 -56.9 16.0 -52.9 L20.55 -54.5 Q17.45 -59.9 13.3 -64.9 8.5 -70.7 5.15 -72.15" fill="#2e398a" fill-rule="evenodd" stroke="none"/>
      <path d="M-2.0 -42.05 Q5.8 -41.95 16.5 -45.7 L13.85 -52.5 5.95 -50.35 Q-2.9 -48.45 -7.65 -49.65 L-8.4 -49.05 -7.65 -42.85 Q-5.9 -42.05 -2.0 -42.05" fill="#8b5c19" fill-rule="evenodd" stroke="none"/>
      <path d="M22.05 -56.4 Q21.25 -56.6 17.6 -55.4 14.15 -54.25 13.25 -53.65 12.55 -53.2 13.2 -49.6 13.8 -46.1 14.65 -45.4 15.4 -44.8 19.35 -46.05 23.2 -47.3 24.05 -48.3 24.8 -49.2 23.9 -52.7 23.0 -56.15 22.05 -56.4" fill="#3b2216" fill-rule="evenodd" stroke="none"/>
      <path d="M22.05 -55.6 Q21.3 -55.8 18.1 -54.75 15.05 -53.75 14.25 -53.2 13.55 -52.75 14.1 -49.7 14.65 -46.65 15.45 -46.05 16.1 -45.45 19.6 -46.55 23.0 -47.65 23.8 -48.55 24.5 -49.4 23.7 -52.4 22.9 -55.4 22.05 -55.6" fill="#fbad37" fill-rule="evenodd" stroke="none"/>
      <path d="M20.9 -53.75 L18.6 -53.3 16.4 -52.4 Q15.95 -52.1 16.3 -50.1 16.65 -48.15 17.15 -47.75 L19.6 -48.0 Q21.55 -48.6 22.0 -49.2 22.45 -49.75 21.95 -51.7 21.5 -53.65 20.9 -53.75" fill="#12191f" fill-rule="evenodd" stroke="none"/>
      <path d="M20.35 -53.25 L18.45 -52.9 16.7 -52.15 Q16.35 -51.9 16.65 -50.2 16.95 -48.6 17.35 -48.25 L19.3 -48.4 Q20.9 -48.9 21.3 -49.4 21.65 -49.85 21.25 -51.5 20.8 -53.15 20.35 -53.25" fill="#8b5c19" fill-rule="evenodd" stroke="none"/>
      <path d="M-7.4 -43.15 Q-4.75 -42.0 1.05 -42.55 L6.35 -43.35 2.75 -44.45 Q4.15 -45.15 5.55 -45.9 L2.25 -46.75 4.45 -49.05 Q-0.15 -47.9 -4.6 -48.3 L-8.15 -48.95 -7.4 -43.15" fill="#75360d" fill-rule="evenodd" stroke="none"/>
    </g>
    <g id="sprite2" transform="matrix(1.0, 0.0, 0.0, 1.0, 23.85, 13.95)">
      <use ffdec:characterId="196" height="27.95" transform="matrix(1.0, 0.0, 0.0, 1.0, -23.85, -13.95)" width="41.8" xlink:href="#morphshape2"/>
      <use ffdec:characterId="197" height="26.05" transform="matrix(1.0, 0.0, 0.0, 1.0, -21.8, -13.2)" width="40.9" xlink:href="#morphshape3"/>
    </g>
    <g id="morphshape2" transform="matrix(1.0, 0.0, 0.0, 1.0, 23.85, 13.95)">
      <path d="M-19.15 13.75 L-18.95 13.75 Q-14.2 13.5 -10.2 12.5 -6.3 11.35 -4.5 10.95 -1.35 10.8 1.8 10.7 L10.25 12.05 13.75 12.95 17.95 14.0 17.75 13.4 16.55 9.25 14.45 2.25 12.95 -2.0 Q11.3 -6.2 9.65 -8.65 8.8 -9.9 6.6 -11.4 L5.2 -12.25 Q2.2 -14.05 1.65 -13.95 L1.55 -13.95 -0.75 -13.65 -2.0 -13.45 -4.4 -12.95 Q-8.0 -12.0 -10.9 -10.0 -14.4 -7.65 -16.45 -4.25 L-17.0 -3.15 Q-18.1 -1.0 -18.0 0.55 -17.85 2.45 -16.15 1.25 L-15.35 0.7 Q-12.8 -0.85 -10.15 -1.6 L-7.35 -2.0 -4.7 -1.5 Q-3.0 -0.75 -3.75 -0.05 L-3.9 0.05 Q-5.55 1.0 -7.15 1.95 L-9.55 3.45 Q-15.6 7.55 -19.15 13.75" fill="#000000" fill-rule="evenodd" stroke="none"/>
      <path d="M-19.15 13.75 Q-15.6 7.55 -9.55 3.45 L-7.15 1.95 Q-5.55 1.0 -3.9 0.05 L-3.75 -0.05 Q-3.0 -0.75 -4.7 -1.5 L-7.35 -2.0 -10.15 -1.6 Q-12.8 -0.85 -15.35 0.7 L-16.15 1.25 Q-17.85 2.45 -18.0 0.55 -18.1 -1.0 -17.0 -3.15 L-16.45 -4.25 Q-14.4 -7.65 -10.9 -10.0 -8.0 -12.0 -4.4 -12.95 L-2.0 -13.45 -0.75 -13.65 1.55 -13.95 1.65 -13.95 Q2.2 -14.05 5.2 -12.25 L6.6 -11.4 Q8.8 -9.9 9.65 -8.65 11.3 -6.2 12.95 -2.0 L14.45 2.25 16.55 9.25 17.75 13.4 17.95 14.0 13.75 12.95 10.25 12.05 1.8 10.7 Q-1.35 10.8 -4.5 10.95 -6.3 11.35 -10.2 12.5 -14.2 13.5 -18.95 13.75 L-19.15 13.75 Z" fill="none" stroke="#000000" stroke-linecap="round" stroke-linejoin="round" stroke-opacity="0.0" stroke-width="0.0"/>
    </g>
    <g id="morphshape3" transform="matrix(1.0, 0.0, 0.0, 1.0, 21.8, 13.2)">
      <path d="M-17.75 0.1 L-17.75 0.1 Q-18.1 1.85 -16.4 0.6 -13.1 -1.8 -9.55 -2.75 -5.9 -3.6 -3.35 -2.0 -2.6 -1.45 0.75 -3.35 4.45 -5.65 8.1 -7.9 L10.3 -9.55 Q8.3 -12.65 4.45 -13.1 L1.75 -12.8 -1.1 -12.5 Q-9.85 -11.1 -15.35 -4.2 -17.45 -1.65 -17.75 0.1 M-18.0 12.85 Q-13.4 12.5 -9.8 11.3 -6.4 10.0 -4.7 9.55 L0.7 9.05 2.0 9.1 Q6.65 9.55 14.8 11.65 L18.8 12.6 19.1 12.7 18.4 11.35 17.5 9.5 Q15.85 5.8 14.3 0.9 L13.4 -1.9 Q11.75 -6.9 10.95 -8.4 L9.0 -7.0 8.7 -6.8 6.85 -5.45 Q4.75 -3.9 2.7 -2.4 0.9 -1.25 -0.85 -0.15 L-2.9 0.9 Q-3.95 1.4 -5.0 1.9 -7.8 3.3 -10.45 5.2 L-11.45 5.9 Q-16.0 9.35 -18.0 12.85" fill="#1e1d57" fill-rule="evenodd" stroke="none"/>
      <path d="M-18.0 12.85 Q-16.0 9.35 -11.45 5.9 L-10.45 5.2 Q-7.8 3.3 -5.0 1.9 -3.95 1.4 -2.9 0.9 L-0.85 -0.15 Q0.9 -1.25 2.7 -2.4 4.75 -3.9 6.85 -5.45 L8.7 -6.8 9.0 -7.0 10.95 -8.4 Q11.75 -6.9 13.4 -1.9 L14.3 0.9 Q15.85 5.8 17.5 9.5 L18.4 11.35 19.1 12.7 18.8 12.6 14.8 11.65 Q6.65 9.55 2.0 9.1 L0.7 9.05 -4.7 9.55 Q-6.4 10.0 -9.8 11.3 -13.4 12.5 -18.0 12.85 M-17.75 0.1 Q-17.45 -1.65 -15.35 -4.2 -9.85 -11.1 -1.1 -12.5 L1.75 -12.8 4.45 -13.1 Q8.3 -12.65 10.3 -9.55 L8.1 -7.9 Q4.45 -5.65 0.75 -3.35 -2.6 -1.45 -3.35 -2.0 -5.9 -3.6 -9.55 -2.75 -13.1 -1.8 -16.4 0.6 -18.1 1.85 -17.75 0.1 L-17.75 0.1 Z" fill="none" stroke="#000000" stroke-linecap="round" stroke-linejoin="round" stroke-opacity="0.0" stroke-width="0.0"/>
    </g>
  </defs>
</svg>
