<?xml version="1.0" encoding="utf-8" ?>
<svg xmlns="http://www.w3.org/2000/svg" xmlns:xlink="http://www.w3.org/1999/xlink" width="1536" height="1024">
	<defs>
		<linearGradient id="gradient_0" gradientUnits="userSpaceOnUse" x1="767.46771" y1="236.31715" x2="767.78955" y2="662.99091">
			<stop offset="0" stop-color="#49A3F0"/>
			<stop offset="1" stop-color="#AFE1FC"/>
		</linearGradient>
	</defs>
	<path fill="url(#gradient_0)" d="M0 0L1534.69 0C1535.74 1.66643 1535.89 3.08877 1535.95 5.0139C1536.46 22.9198 1536.02 40.966 1536.02 58.8839L1536.03 163.55L1536.02 212.625C1536.01 219.263 1536.94 227.607 1535.79 234.039C1535.64 234.867 1535.38 235.43 1535.03 236.186C1535.83 238.162 1535.94 239.787 1535.97 241.884C1536.57 276.29 1536.02 310.81 1536.02 345.228L1536.01 546.606C1536 560.013 1537.33 658.21 1535.47 663.209C1535.23 663.861 1535.07 664.03 1534.69 664.663C1535.36 665.736 1535.77 666.727 1535.87 667.992C1537.3 684.751 1536.05 706.459 1536.04 723.698C1536.04 733.831 1537.27 750.496 1535.8 759.916C1535.67 760.725 1535.38 761.381 1535.05 762.12C1535.95 764.781 1536.4 766.58 1535.08 769.172C1534.97 769.382 1534.85 769.585 1534.74 769.792C1535.94 771.748 1535.94 773.497 1535.97 775.721C1537.04 836.876 1536.03 898.25 1536.01 959.434L1536 1003.4C1536 1008.75 1536.91 1016.18 1535.8 1021.28C1535.59 1022.28 1535.22 1023.13 1534.69 1024L0 1024L0 655.14L0 239.804L0 0Z"/>
	<path fill="#FBD06E" d="M571.032 518.562C568.365 512.809 562.309 503.059 562.634 496.859C563.537 495.947 563.879 495.37 565.178 495.103C569.012 494.314 573.796 495.978 577.527 496.941C596.224 501.767 611.662 509.5 627.504 520.435C627.154 516.662 625.773 509.617 627.857 506.451C628.842 506.123 629.692 505.852 630.744 505.987C644.452 507.747 668.929 532.179 677.792 542.355C678.219 538.474 678.057 534.599 681.002 531.712C682.693 531.275 683.335 530.986 685.037 531.64C693.394 534.85 702.863 554.367 706.535 562.516C708.005 561.726 709.581 560.81 711.231 560.472C714.439 559.816 718.02 561.879 720.645 563.559C726.343 567.207 731.023 573.198 735.226 578.447C755.441 603.696 766.981 633.254 773.599 664.668L1534.69 664.663C1535.36 665.736 1535.77 666.727 1535.87 667.992C1537.3 684.751 1536.05 706.459 1536.04 723.698C1536.04 733.831 1537.27 750.496 1535.8 759.916C1535.67 760.725 1535.38 761.381 1535.05 762.12C1535.95 764.781 1536.4 766.58 1535.08 769.172C1534.97 769.382 1534.85 769.585 1534.74 769.792C1535.94 771.748 1535.94 773.497 1535.97 775.721C1537.04 836.876 1536.03 898.25 1536.01 959.434L1536 1003.4C1536 1008.75 1536.91 1016.18 1535.8 1021.28C1535.59 1022.28 1535.22 1023.13 1534.69 1024L0 1024L0 655.14C36.3474 651.635 73.9687 653.522 110.274 656.686C115.323 657.126 123.865 656.857 128.206 659.074C130.385 660.965 135.132 661.341 137.938 661.183L138.548 660.157C153.537 659.82 175.641 663.025 190.575 666.045C193.314 666.467 196.17 666.766 198.87 667.368L198.606 662.866Q277.283 664.903 355.985 664.429C363.702 647.928 373.06 633.823 385.039 620.115C381.221 620.539 371.823 622.564 368.794 620.175C368.297 618.469 368.051 617.874 368.597 616.107C369.756 612.352 372.876 608.773 375.274 605.692C387.64 589.808 403.865 575.025 421.888 565.854C416.485 564.893 408.415 565.344 403.805 562.459L403.584 560.87C404.283 559.465 405.053 558.415 406.162 557.318C426.782 536.926 460.774 527.862 488.961 528.138C484.648 524.473 479.413 521.388 475.582 517.222C474.244 515.768 473.74 515.022 473.837 513.066C474.744 512.016 475.511 511.409 476.798 510.847C482.196 508.49 488.455 508.038 494.257 507.481C520.598 504.954 546.374 509.29 571.032 518.562Z"/>
	<path fill="#1F143F" d="M571.032 518.562C568.365 512.809 562.309 503.059 562.634 496.859C563.537 495.947 563.879 495.37 565.178 495.103C569.012 494.314 573.796 495.978 577.527 496.941C596.224 501.767 611.662 509.5 627.504 520.435C627.154 516.662 625.773 509.617 627.857 506.451C628.842 506.123 629.692 505.852 630.744 505.987C644.452 507.747 668.929 532.179 677.792 542.355C678.219 538.474 678.057 534.599 681.002 531.712C682.693 531.275 683.335 530.986 685.037 531.64C693.394 534.85 702.863 554.367 706.535 562.516C708.005 561.726 709.581 560.81 711.231 560.472C714.439 559.816 718.02 561.879 720.645 563.559C726.343 567.207 731.023 573.198 735.226 578.447C755.441 603.696 766.981 633.254 773.599 664.668C776.845 685.8 778.16 708.852 772.319 729.698L770.604 735.85C759.748 770.025 739.395 791.033 709.523 809.963Q708.081 820.302 706.936 830.679C712.903 836.144 717.546 840.575 719.13 848.847C718.742 851.824 718.051 854.63 716.063 856.971C711.199 862.698 703.22 864.975 696.025 865.689C684.598 866.824 670.316 865.499 661.215 857.755C652.824 850.617 650.141 840.904 649.168 830.35C634.95 833.324 619.772 834.142 605.257 834.76C599.742 834.995 593.706 834.258 588.302 835.335L587.902 836.884C589.879 841.712 595.553 844.487 598.669 848.583C600.812 851.399 601.651 856.415 600.987 859.826C600.124 864.254 597.01 867.695 593.279 870.013C583.927 875.822 569.202 875.879 558.752 873.374C545.775 870.264 540.477 862.565 533.906 851.813Q529.195 852.558 524.459 853.116C513.098 854.355 497.99 853.253 488.793 845.657C482.77 840.682 480.716 834.369 480.021 826.837C472.76 829.467 462.429 827.704 454.65 828.239C455.984 830.227 457.171 832.414 457.864 834.719C459.062 838.706 458.953 843.001 456.829 846.667C454.064 851.439 448.637 854.082 443.443 855.255C433.001 857.613 418.886 856.206 409.743 850.353C401.618 845.152 397.909 837.495 395.946 828.331C394.326 816.035 395.745 804.696 398.253 792.67C393.448 786.572 390.71 777.417 386.099 772.431C385.167 772.777 384.187 773.2 383.183 773.238C382.506 773.264 382.064 773.34 381.54 772.865C373.486 765.559 371.677 744.979 371.022 734.482C370.067 735.863 369.105 737.245 368.074 738.571C366.575 740.498 365.297 741.254 362.889 741.535C361.39 740.77 360.825 740.564 360.007 738.998C354.693 728.833 358.613 706.305 361.903 695.358C363.411 689.538 365.794 684.006 368.028 678.437C364.888 679.804 359.895 682.659 356.5 682.28C354.64 682.073 354.077 681.489 352.889 680.127C351.542 674.824 354.236 669.388 355.985 664.429C363.702 647.928 373.06 633.823 385.039 620.115C381.221 620.539 371.823 622.564 368.794 620.175C368.297 618.469 368.051 617.874 368.597 616.107C369.756 612.352 372.876 608.773 375.274 605.692C387.64 589.808 403.865 575.025 421.888 565.854C416.485 564.893 408.415 565.344 403.805 562.459L403.584 560.87C404.283 559.465 405.053 558.415 406.162 557.318C426.782 536.926 460.774 527.862 488.961 528.138C484.648 524.473 479.413 521.388 475.582 517.222C474.244 515.768 473.74 515.022 473.837 513.066C474.744 512.016 475.511 511.409 476.798 510.847C482.196 508.49 488.455 508.038 494.257 507.481C520.598 504.954 546.374 509.29 571.032 518.562Z"/>
	<path fill="#FBD06E" d="M454.65 828.239C452.706 826.258 448.779 822.835 448.76 819.896C448.752 818.708 449.062 818.719 449.804 817.902C450.795 817.621 476.028 824.457 479.238 825.376L480.021 826.837C472.76 829.467 462.429 827.704 454.65 828.239Z"/>
	<defs>
		<linearGradient id="gradient_1" gradientUnits="userSpaceOnUse" x1="421.70285" y1="848.85052" x2="684.49768" y2="542.37946">
			<stop offset="0" stop-color="#6C2F80"/>
			<stop offset="1" stop-color="#9D54B9"/>
		</linearGradient>
	</defs>
	<path fill="url(#gradient_1)" d="M572.183 503.069C598.64 508.404 617.004 521.222 637.743 537.667C637.257 530.044 635.698 522.348 634.077 514.894C656.046 525.197 670.092 543.901 684.525 562.606C684.995 555.053 685.331 547.581 685.23 540.012C694.145 551.304 699.255 563.466 704.427 576.79C707.166 573.257 709.914 570.118 713.23 567.115Q717.931 570.868 722.2 575.106C752.723 605.935 769.234 653.998 768.972 696.903C768.777 728.802 757.657 758.379 734.749 780.87C696.156 818.761 638.844 827.075 587.055 826.593C585.837 821.576 584.213 816.863 582.418 812.036Q581.302 827.537 580.388 843.052C584.323 844.93 587.578 846.743 590.494 850.04C592.294 852.075 594.12 854.709 593.749 857.57C593.428 860.05 591.722 861.519 589.835 862.924C586.583 860.679 586.89 854.504 583.35 852.027C581.999 851.082 581.532 851.449 580.047 851.81C579.197 855.335 584.679 859.222 584.951 863.29C584.227 864.824 583.748 865.457 582.082 866.032C580.149 866.699 578.329 866.787 576.454 865.962C574.169 864.955 573.216 861.264 572.323 859.132C571.424 856.984 571.01 855.998 568.808 855.111L567.564 855.741C567.234 858.813 570.423 864.007 571.676 866.893C563.081 866.364 555.789 865.588 549.066 859.652C534.089 846.428 534.917 819.846 533.798 801.425C530.629 809.08 529.32 815.305 528.789 823.497C511.312 822.221 494.295 819.741 477.1 816.477C468.831 814.367 460.67 812.106 452.535 809.527C452.676 801.72 451.692 795.461 449.306 788.086C447.157 799.891 444.099 811.368 440.89 822.917C442.826 824.939 444.705 827.08 446.478 829.249C448.696 831.962 451.397 836.198 450.739 839.868C450.401 841.759 449.19 843.881 447.663 844.954C445.594 843.087 445.264 839.719 444.236 837.128C443.491 835.249 443.085 834.376 441.219 833.603C439.946 834.107 439.608 834.563 438.876 835.705Q440.933 839.798 443.081 843.845C443.062 844.908 443.367 845.573 442.537 846.338C440.671 848.057 435.981 847.871 433.501 847.863C431.822 845.645 432.795 842.221 431.946 839.525C431.443 837.926 430.501 836.618 429.046 835.804C425.471 837.313 430.269 843.763 428.372 847.295C427.671 847.695 426.916 848.1 426.117 848.264C422.469 849.01 416.74 845.479 413.87 843.448C398.851 832.821 401.272 813.067 404.409 797.065C405.273 792.654 407.017 787.44 406.274 782.993L405.479 782.768L403.13 784.941L401.696 784.173C395.12 773.675 391.18 761.918 389.569 749.672L383.117 758.762C377.897 743.02 378.878 727.811 379.856 711.574C374.095 716.527 369.569 721.817 365.185 727.964C364.841 702.78 371.952 683.113 386.589 662.961C377.57 665.283 369.018 668.86 360.492 672.556C370.487 647.389 385.497 629.466 404.668 610.583C395.481 610.682 386.742 611.614 377.731 613.396C396.195 588.797 414.857 576.054 443.144 564.565C434.323 561.564 425.534 559.144 416.406 557.266C446.45 536.99 472.978 532.743 508.409 537.066C501.551 528.5 493.438 521.44 484.636 514.953C519.866 510.603 552.736 516.711 584.508 532.288C580.924 522.289 576.991 512.548 572.183 503.069Z"/>
	<path fill="#1F143F" d="M614.988 708.825C615.796 709.443 616.021 709.957 616.506 710.833C616.064 712.187 615.754 713.08 616.051 714.528C621.387 719.092 629.549 721.7 636.251 723.421C647.934 726.421 668.813 727.696 679.666 721.046C684.382 718.157 688.161 713.839 692.975 710.974L693.925 711.312C692.485 718.832 686.304 722.838 680.627 727.065C679.641 732.651 677.877 737.817 675.792 743.064C673.979 746.81 671.938 750.495 669.364 753.773C664.013 760.588 657.257 764.7 648.575 765.581C640.98 766.352 633.46 764.231 627.542 759.37C616.253 750.097 611.957 734.052 610.538 720.121C608.546 719.079 606.598 721.125 604.218 720.756L604.028 719.076C606.187 714.922 611.317 711.62 614.988 708.825Z"/>
	<path fill="#FE4C71" d="M630.536 740.613C633.668 740.371 636.743 740.19 639.86 740.707C645.201 741.593 654.298 745.054 657.303 749.831C658.344 751.486 658.691 753.076 658.104 754.967C657.381 757.299 655.26 758.482 653.302 759.642C649.871 759.935 646.405 760.267 642.991 759.653C637.378 758.643 629.06 755.017 625.996 749.94C625.062 748.392 624.831 746.846 625.51 745.14C626.414 742.87 628.499 741.701 630.536 740.613Z"/>
	<path fill="#1F143F" d="M581.372 664.091Q584.288 663.788 587.215 663.64C592.381 663.423 597.769 665.266 601.564 668.82C606.503 673.443 608.271 680.275 608.381 686.84C608.443 690.572 608.557 693.072 605.828 695.877C600.651 696.305 600.397 683.33 593.009 677.278L592.336 676.732C590.507 676.087 588.281 675.718 586.347 675.887C574.107 676.958 578.368 691.269 572.777 697.644L571.172 697.471C570.334 696.675 569.511 695.827 569.026 694.761C566.574 689.374 566.669 680.493 568.978 675.145C571.696 668.848 575.218 666.504 581.372 664.091Z"/>
	<path fill="#1F143F" d="M700.085 658.793C701.928 658.797 703.839 658.781 705.644 659.197C710.296 660.271 714.435 663.098 716.876 667.234C720.156 672.791 721.103 680.554 719.508 686.778C718.884 689.217 718.048 690.814 715.891 692.109C710.824 689.41 711.868 677.864 705.583 671.618L704.948 670.993C703.653 671.075 701.799 671.082 700.612 671.642C696.309 673.675 694.344 684.308 692.405 688.364C691.519 690.219 690.835 691.003 688.947 691.718C688.72 691.602 688.487 691.498 688.267 691.37C686.411 690.288 685.401 687.109 684.832 685.104C683.303 679.707 684.467 673.684 687.19 668.854C690.217 663.487 694.163 660.432 700.085 658.793Z"/>
	<path fill="#1F143F" d="M574.979 616.79C575.465 616.751 575.95 616.714 576.437 616.697L577.175 616.674C578.147 616.639 579.115 616.6 580.086 616.68C582.782 616.903 587.804 619.044 589.427 621.265C590.248 622.389 589.972 623.072 589.84 624.37C589.45 624.855 589.15 625.43 588.669 625.825C587.434 626.839 577.062 628.611 574.59 629.333C571.22 630.318 568.204 631.857 565.14 633.549C563.488 634.809 561.748 636.331 559.939 637.34C558.307 638.251 557.533 638.195 555.793 637.695L555.065 635.904C555.285 634.16 555.697 632.635 556.472 631.053C560.428 622.979 566.818 619.55 574.979 616.79Z"/>
	<path fill="#1F143F" d="M691.393 612.997C693.897 612.87 696.464 612.714 698.961 612.975C706.154 613.727 712.966 617.215 717.5 622.897C719.323 625.181 720.606 627.444 720.282 630.457L719.038 631.418L716.286 630.848C712.762 629.061 709.197 627.188 705.348 626.216C699.148 624.651 691.833 625.031 686.233 621.84C685.618 620.834 685.21 620.642 685.388 619.41C685.805 616.536 689.17 614.507 691.393 612.997Z"/>
	<path fill="#5D297A" d="M482.905 558.207C494.495 557.205 501.752 559.36 511.613 565.232C499.16 565.531 488.654 562.507 476.037 565.11L481.91 567.878C487.627 570.647 493.453 573.057 499.335 575.449C495.211 575.515 491.07 575.66 487.025 574.721C482.624 573.698 473.941 571.284 471.595 567.024C470.781 565.545 471.096 565.104 471.518 563.577C474.508 560.375 478.827 559.364 482.905 558.207Z"/>
	<path fill="#5D297A" d="M538.103 545.368C543.483 545.088 548.542 545.229 553.692 546.972C561.649 549.665 566.005 554.835 569.554 562.189C561.347 557.483 553.992 552.896 544.664 550.648C543.356 550.521 543.244 550.467 542.119 551.119C542.471 556.595 551.275 565.327 554.517 570.065C550.482 568.282 546.813 566.116 543.521 563.154C539.951 559.941 535.342 555.002 535.471 549.82C535.525 547.639 536.706 546.823 538.103 545.368Z"/>
	<path fill="#5D297A" d="M525.133 583.928C533.797 584.291 539.059 587.127 545.988 592.061L546.101 594.171L546.662 594.129C536.651 594.385 526.952 587.082 516.756 590.852L516.737 591.819L519.821 594.309Q527.507 599.406 534.878 604.948C528.117 603.732 521.695 601.862 516.051 597.774C513.94 596.244 510.837 593.655 510.539 590.94C510.382 589.515 510.816 588.5 511.814 587.493C514.7 584.583 521.321 584.259 525.133 583.928Z"/>
	<path fill="#5D297A" d="M480.205 622.042C488.836 621.586 494.027 623.993 500.99 628.921C495.922 628.271 490.825 627.725 485.711 627.785C481.142 627.838 472.42 628.015 469.01 631.507L469.129 633.011C471.018 635.215 473.865 636.037 476.493 637.061C481.227 638.928 485.748 641.005 490.304 643.262C486.407 642.862 482.427 642.518 478.58 641.775C473.828 640.858 465.548 638.45 462.978 633.907C462.034 632.24 462.34 631.363 462.826 629.691C466.728 625.079 474.503 623.146 480.205 622.042Z"/>
	<path fill="#5D297A" d="M441.518 589.035C452.458 588.019 459.526 589.482 469.395 594.137C462.323 594.07 455.148 593.729 448.087 594.053C444.906 594.199 438.786 594.207 436.481 596.72L436.784 598.106L440.236 599.694L456.365 605.117C452.672 605.387 448.81 605.55 445.125 605.147C439.542 604.536 432.53 602.748 428.905 598.173C428.756 597.289 428.442 596.69 428.879 595.856C430.788 592.219 437.83 590.093 441.518 589.035Z"/>
	<path fill="#5D297A" d="M425.296 630.374C429.319 629.915 434.218 629.881 438.163 630.853C437.647 634.147 414.816 636.61 410.419 640.724L410.468 641.752C414.782 643.94 420.34 644.537 425.066 645.517C426.413 645.824 427.607 646.258 428.88 646.778L428.856 647.695C423.498 649.12 414.945 648.286 409.625 646.671C407.258 645.952 405.225 645.178 404.03 642.898C404.21 641.222 404.238 640.617 405.334 639.246C409.769 633.694 418.616 631.311 425.296 630.374Z"/>
	<path fill="#5D297A" d="M598.533 548.201C602.467 548.115 606.003 548.733 609.686 550.142C619.005 553.709 623.253 560.484 627.161 569.168C622.093 566.011 617.464 561.668 612.729 558.011C609.528 555.686 606.056 553.94 602.552 552.131C605.273 558.355 607.55 564.606 609.678 571.055C608.127 569.565 606.567 568.061 605.127 566.462C600.082 560.857 598.102 555.693 598.533 548.201Z"/>
	<path fill="#5D297A" d="M413.572 672.944C416.294 672.842 418.748 672.824 421.447 673.297L421.575 674.017C414.048 678.307 408.153 680.592 402.71 687.707C408.394 688.9 413.989 689.625 419.762 690.209L420.325 690.821L419.629 691.694C416.194 692.743 412.83 693.068 409.244 693.101C405.457 693.137 401.54 692.943 398.716 690.136C398.143 688.297 397.902 687.46 398.598 685.545C400.982 678.992 407.613 675.444 413.572 672.944Z"/>
	<path fill="#5D297A" d="M653.375 556.99C656.81 558.239 659.616 559.546 662.25 562.141C665.823 565.663 670.021 571.914 670.024 577.066L669.089 577.66C666.368 576.318 664.499 573.035 662.714 570.613C660.618 567.744 657.67 565.244 655.131 562.747C655.13 566.97 655.527 571.181 653.609 575.063C653.235 575.821 652.939 575.695 652.173 575.943C651.474 574.608 651.179 573.44 650.914 571.965C649.854 566.053 649.827 562.082 653.375 556.99Z"/>
	<path fill="#1F143F" d="M673.051 694.821C674.907 694.596 676.792 694.429 678.662 694.369C681.578 694.275 683.142 695.027 685.272 696.989C685.537 697.738 686.079 698.721 685.953 699.503C685.388 703.002 682.866 705.088 680.206 707.096C679.711 707.157 679.215 707.219 678.717 707.256C675.908 707.464 673.903 706.575 671.825 704.695C669.905 702.957 669.288 701.305 669.236 698.766C670.256 696.332 670.759 696.221 673.051 694.821Z"/>
	<path fill="#5D297A" d="M655.904 828.916C671.713 825.846 686.54 820.169 701.424 814.203C701.012 817.206 700.674 820.271 700.464 823.297C700.188 827.259 699.657 832.747 702.398 835.925C705.535 838.899 710.866 843.101 711.102 847.768C711.182 849.338 710.636 850.995 709.58 852.171C708.308 853.589 706.542 854.753 704.963 855.813C703.593 851.858 702.451 847.112 698.713 844.758L697.455 844.944C696.583 847.085 697.434 848.425 698.299 850.495C699.093 852.394 700.18 854.093 699.847 856.201C696.979 858.751 690.233 857.975 686.651 857.771C681.121 857.456 675.483 856.91 670.282 854.89C668.747 854.119 667.201 853.32 665.875 852.215C659.018 846.5 656.56 837.456 655.904 828.916Z"/>
	<path fill="#773A8D" d="M670.282 854.89Q671.866 852.629 673.607 850.486C679.914 842.859 692.559 836.908 702.398 835.925C705.535 838.899 710.866 843.101 711.102 847.768C711.182 849.338 710.636 850.995 709.58 852.171C708.308 853.589 706.542 854.753 704.963 855.813C703.593 851.858 702.451 847.112 698.713 844.758L697.455 844.944C696.583 847.085 697.434 848.425 698.299 850.495C699.093 852.394 700.18 854.093 699.847 856.201C696.979 858.751 690.233 857.975 686.651 857.771C681.121 857.456 675.483 856.91 670.282 854.89Z"/>
	<path fill="#5D297A" d="M485.389 826.178C499.907 828.741 514.375 830.749 529.117 831.5C529.665 835.968 530.424 840.227 531.541 844.589L524.101 846.072C517.524 846.482 511.144 846.452 504.66 845.158C498.236 843.655 492.811 842.051 489.076 836.113C487.161 833.068 486.285 829.624 485.389 826.178Z"/>
	<path fill="#773A8D" d="M504.66 845.158C508.179 843.444 517.876 842.18 521.655 843.352C523.111 843.804 523.441 844.348 524.039 845.726C524.085 845.834 524.08 845.957 524.101 846.072C517.524 846.482 511.144 846.452 504.66 845.158Z"/>
	<defs>
		<linearGradient id="gradient_2" gradientUnits="userSpaceOnUse" x1="1154.4116" y1="768.57104" x2="1155.3082" y2="662.9364">
			<stop offset="0" stop-color="#80FED8"/>
			<stop offset="1" stop-color="#0A9EDB"/>
		</linearGradient>
	</defs>
	<path fill="url(#gradient_2)" d="M773.599 664.668L1534.69 664.663C1535.36 665.736 1535.77 666.727 1535.87 667.992C1537.3 684.751 1536.05 706.459 1536.04 723.698C1536.04 733.831 1537.27 750.496 1535.8 759.916C1535.67 760.725 1535.38 761.381 1535.05 762.12C1527.03 759.213 1494.82 757.552 1483.73 756.604Q1460.6 754.53 1437.4 753.468Q1414.19 752.406 1390.97 752.358Q1367.74 752.309 1344.54 753.275Q1321.33 754.241 1298.19 756.219C1267.22 758.973 1236.6 764.492 1205.68 767.624C1173.15 770.919 1139.98 771.126 1107.33 769.7C1063.51 767.787 1019.12 764.332 975.784 757.362C942.025 751.932 908.605 744.562 874.863 739.068Q849.416 734.979 823.751 732.634Q798.085 730.289 772.319 729.698C778.16 708.852 776.845 685.8 773.599 664.668Z"/>
	<path fill="#EBAF43" d="M454.65 828.239C462.429 827.704 472.76 829.467 480.021 826.837C480.716 834.369 482.77 840.682 488.793 845.657C497.99 853.253 513.098 854.355 524.459 853.116Q529.195 852.558 533.906 851.813C540.477 862.565 545.775 870.264 558.752 873.374C569.202 875.879 583.927 875.822 593.279 870.013C597.01 867.695 600.124 864.254 600.987 859.826C601.651 856.415 600.812 851.399 598.669 848.583C595.553 844.487 589.879 841.712 587.902 836.884L588.302 835.335C593.706 834.258 599.742 834.995 605.257 834.76C619.772 834.142 634.95 833.324 649.168 830.35C650.141 840.904 652.824 850.617 661.215 857.755C670.316 865.499 684.598 866.824 696.025 865.689C703.22 864.975 711.199 862.698 716.063 856.971C718.051 854.63 718.742 851.824 719.13 848.847C727.723 850.43 744.514 853.277 749.977 860.421C751.209 862.032 751.1 862.828 750.87 864.693C750.199 865.709 749.473 866.583 748.465 867.287C738.061 874.552 713.083 876.208 700.516 877.456C608.808 886.557 494.795 880.84 404.629 863.304C392.485 860.942 343.381 850.495 337.574 840.337C336.944 839.236 337.265 839.046 337.544 837.896C346.044 830.535 384.375 828.825 395.946 828.331C397.909 837.495 401.618 845.152 409.743 850.353C418.886 856.206 433.001 857.613 443.443 855.255C448.637 854.082 454.064 851.439 456.829 846.667C458.953 843.001 459.062 838.706 457.864 834.719C457.171 832.414 455.984 830.227 454.65 828.239Z"/>
	<path fill="#FBFAF5" d="M772.319 729.698Q798.085 730.289 823.751 732.634Q849.417 734.979 874.863 739.068C908.605 744.562 942.025 751.932 975.784 757.362C1019.12 764.332 1063.51 767.787 1107.33 769.7C1139.98 771.126 1173.15 770.919 1205.68 767.624C1236.6 764.492 1267.22 758.973 1298.19 756.219Q1321.33 754.241 1344.54 753.275Q1367.74 752.309 1390.97 752.358Q1414.19 752.406 1437.4 753.468Q1460.6 754.53 1483.73 756.604C1494.82 757.552 1527.03 759.213 1535.05 762.12C1535.95 764.781 1536.4 766.58 1535.08 769.172C1534.97 769.382 1534.85 769.585 1534.74 769.792C1512.36 768.858 1489.88 765.849 1467.45 764.613Q1432.74 762.764 1397.99 762.693Q1363.23 762.622 1328.52 764.33Q1297.13 765.851 1265.9 769.291C1248.24 771.339 1230.64 774.139 1212.93 775.707C1176.6 778.923 1139.12 779.111 1102.65 777.699Q1067.5 776.575 1032.49 773.128Q997.491 769.681 962.793 763.926C928.914 758.042 895.519 749.518 861.493 744.456C831.277 739.962 801.023 738.275 770.604 735.85L772.319 729.698Z"/>
	<defs>
		<linearGradient id="gradient_3" gradientUnits="userSpaceOnUse" x1="282.19919" y1="692.47638" x2="282.44962" y2="664.61078">
			<stop offset="0" stop-color="#49CCE4"/>
			<stop offset="1" stop-color="#2AB0EA"/>
		</linearGradient>
	</defs>
	<path fill="url(#gradient_3)" d="M198.606 662.866Q277.283 664.903 355.985 664.429C354.236 669.388 351.542 674.824 352.889 680.127C354.077 681.489 354.64 682.073 356.5 682.28C359.895 682.659 364.888 679.804 368.028 678.437C365.794 684.006 363.411 689.538 361.903 695.358C340.244 691.007 318.156 688.036 296.373 684.251C263.907 678.611 231.44 672.343 198.87 667.368L198.606 662.866Z"/>
	<path fill="#EBAF43" d="M730.998 927.966C742.749 927.928 762.752 929.323 772.863 936.029C774.125 936.866 774.168 937.116 774.498 938.51L773.117 939.821C762.516 941.812 749.875 940.723 739.402 938.228C735.76 937.36 731.573 936.275 729.5 932.902C729.357 930.505 729.769 930.08 730.998 927.966Z"/>
	<path fill="#EBAF43" d="M778.374 952.962C793.881 952.774 806.704 954.218 819.926 963.101C817.221 963.961 814.419 964.617 811.674 965.347C808.124 965.814 804.103 965.636 800.524 965.318C793.278 964.675 777.608 962.632 773.001 957.08L773.286 955.455C774.793 953.7 776.174 953.476 778.374 952.962Z"/>
	<path fill="#EBAF43" d="M650.808 911.64C663.979 910.713 682.426 911.797 692.954 920.752L692.582 921.829L689.84 922.809Q688.785 923.009 687.719 923.144C679.268 924.208 655.628 922.152 649.43 916.748C648.267 915.733 648.401 915.277 648.323 913.838L650.808 911.64Z"/>
	<path fill="#EBAF43" d="M862.318 949.262C873.93 948.729 886.355 949.807 897.469 953.381C899.582 954.06 901.052 954.536 902.104 956.541C901.093 958.308 900.041 958.311 898.177 959.019C888.116 959.632 867.729 959.7 859.076 954.242C857.662 953.35 857.676 953.126 857.375 951.508C858.912 949.843 860.211 949.803 862.318 949.262Z"/>
	<path fill="#EBAF43" d="M604.917 894.417C613.077 894.073 623.204 893.882 630.643 897.692C632.455 898.621 633.214 899.023 633.77 900.948C632.321 902.754 631.622 902.663 629.44 903.249L629.01 903.284C622.341 903.799 605.825 904.551 600.685 899.602C599.934 898.878 600.167 898.737 600.17 897.768C601.512 895.93 602.874 895.342 604.917 894.417Z"/>
	<path fill="#EBAF43" d="M284.172 823.183C294.324 822.622 308.556 823.311 316.989 829.677C318.402 830.744 318.788 831.372 319.012 833.058C309.654 835.063 296.269 833.742 288.058 828.606C285.65 827.1 284.767 825.886 284.172 823.183Z"/>
	<path fill="#EBAF43" d="M235.235 805.041C242.913 804.926 251.422 806.184 258.468 809.35C261.464 810.697 263.667 812.043 264.853 815.177C256.482 815.824 246.667 815.224 239.317 810.764C236.658 809.151 235.937 807.985 235.235 805.041Z"/>
	<path fill="#EBAF43" d="M814.42 942.418C820.905 942.107 830.29 942.275 835.802 946.152L835.841 947.337C834.379 947.403 832.922 947.401 831.458 947.388C826.918 947.348 817.611 947.692 814.178 944.204L814.42 942.418Z"/>
	<path fill="#EBAF43" d="M329.462 771.255C335.059 771.548 340.256 772.404 345.238 775.086L345.393 776.009L343.688 776.587C341.274 776.687 338.814 776.815 336.402 776.645C333.458 776.438 328.33 776.024 326.285 773.716C327.099 772.017 327.79 772.024 329.462 771.255Z"/>
	<path fill="#EBAF43" d="M277.481 808.989Q279.176 808.806 280.88 808.771C287.74 808.646 293.065 809.722 298.137 814.534C294.682 814.824 291.283 814.759 287.857 814.174C284.088 813.531 279.745 812.258 277.481 808.989Z"/>
	<path fill="#EBAF43" d="M252.11 743.641Q252.858 743.642 253.606 743.669C258.545 743.825 270.296 745.31 273.896 749.123C270.464 750.551 265.766 749.919 262.22 749.153C258.465 748.342 254.28 746.992 252.11 743.641Z"/>
	<path fill="#EBAF43" d="M191.886 793.908C199.364 793.333 206.261 795.497 211.994 800.322C209.157 800.517 206.418 800.577 203.594 800.164C199.043 799.499 194.678 797.691 191.886 793.908Z"/>
	<path fill="#EBAF43" d="M223.91 791.518C225.758 791.399 227.63 791.31 229.477 791.517C233.65 791.984 240.571 793.433 243.275 796.855C235.99 797.562 229.924 795.44 223.91 791.518Z"/>
	<path fill="#EBAF43" d="M227.504 733.722C229.51 733.558 231.802 733.475 233.796 733.829C237.911 734.558 240.003 736.619 242.329 739.831C241.284 740.047 240.419 740.153 239.352 740.089C234.569 739.801 230.557 737.26 227.504 733.722Z"/>
	<path fill="#EBAF43" d="M703.774 939.497C705.674 939.471 707.587 939.45 709.484 939.563C713.412 939.797 718.275 940.545 720.977 943.654C716.959 943.981 711.455 944.3 707.627 942.868C705.373 942.025 704.787 941.523 703.774 939.497Z"/>
	<path fill="#EBAF43" d="M165.903 779.579C166.095 779.571 166.288 779.558 166.481 779.554C172.458 779.413 179.65 780.15 184.214 784.421C176.492 784.942 172.245 784.03 165.903 779.579Z"/>
	<path fill="#EBAF43" d="M222.853 727.831C226.279 727.599 230.151 727.072 233.518 727.815C236.191 728.405 237.267 729.435 238.7 731.711C238.254 731.817 237.808 731.922 237.358 732.005C231.848 733.016 227.291 730.841 222.853 727.831Z"/>
	<path fill="#EBAF43" d="M168.149 694.147L168.659 694.098C173.937 693.639 176.827 694.89 180.761 698.207C178.073 698.462 174.203 699.249 171.637 698.344C169.451 697.572 168.986 696.084 168.149 694.147Z"/>
	<path fill="#EBAF43" d="M286.325 760.174C289.245 759.753 292.079 759.495 295.033 759.656C297.734 759.802 299.875 760.12 301.753 762.221C301.622 762.269 301.492 762.32 301.36 762.364C296.275 764.058 290.901 762.503 286.325 760.174Z"/>
	<path fill="#EBAF43" d="M188.398 705.258C190.705 705.029 193.656 704.894 195.777 705.991C197.599 706.933 197.919 707.817 198.581 709.605C196.131 709.959 193.686 709.809 191.411 708.747C189.492 707.851 188.976 707.205 188.398 705.258Z"/>
	<defs>
		<linearGradient id="gradient_4" gradientUnits="userSpaceOnUse" x1="767.38892" y1="-1.4961909" x2="767.87537" y2="248.13536">
			<stop offset="0" stop-color="#237AE1"/>
			<stop offset="1" stop-color="#4AA2EF"/>
		</linearGradient>
	</defs>
	<path fill="url(#gradient_4)" d="M0 0L1534.69 0C1535.74 1.66643 1535.89 3.08877 1535.95 5.0139C1536.46 22.9198 1536.02 40.966 1536.02 58.8839L1536.03 163.55L1536.02 212.625C1536.01 219.263 1536.94 227.607 1535.79 234.039C1535.64 234.867 1535.38 235.43 1535.03 236.186C1533.92 236.524 1533.29 236.597 1532.13 236.463C1527.66 235.943 1518.75 237.293 1513.14 237.036C1512.25 238.16 1512.41 238.444 1512.4 239.905C1512.34 239.779 1512.28 239.648 1512.2 239.527C1511.74 238.77 1511.11 238.204 1510.48 237.582C1504.46 236.651 1481.89 239.763 1478.68 238.617C1478.2 238.446 1477.61 237.179 1477.14 237.034C1476.07 236.706 1459.43 237.119 1456.03 236.754C1454.09 237.765 1453 239.124 1451.62 240.767L1450.11 241.278L1450.28 240.564C1450.6 239.2 1451.1 237.971 1450.57 236.608C1444.06 237.167 1437.15 237.801 1430.67 238.624C1427.35 239.045 1423.91 239.941 1420.56 239.953C1416.7 239.967 1412.73 238.864 1408.9 238.373C1403.31 237.657 1396.89 237.579 1391.26 237.867C1380.7 238.409 1370.26 241.934 1359.79 242.518C1356.38 242.708 1353.08 241.027 1349.66 241.088C1346.57 241.142 1342.47 242.993 1339.75 242.706C1334.59 242.161 1335.23 238.831 1329.24 241.275C1328.2 241.7 1300.59 243.098 1299.62 242.643C1298.56 242.139 1297.56 241.316 1296.64 240.598C1294.25 241.895 1291.86 243.552 1289.1 243.721C1287.86 243.057 1284.93 240.992 1283.63 240.859C1277.77 240.263 1273.05 244.591 1267.88 240.426C1266.66 241.017 1264.22 242.642 1262.99 242.796C1258.33 243.379 1251.83 241.261 1246.89 241.227C1241.24 241.188 1234.31 243.385 1228.89 242.496C1223.79 241.658 1218.93 239.084 1213.7 238.899C1206.71 238.652 1199.86 240.508 1192.95 240.035C1192.1 240.622 1190.74 241.852 1189.82 242.207C1189.16 242.457 1186.08 241.92 1185.25 241.882C1177.53 241.528 1165.1 240.983 1158.89 245.854C1157.95 246.591 1157.34 246.731 1156.19 246.898C1154.48 244.479 1155.4 242.815 1154.85 240.098C1152.39 244.284 1147.46 247.292 1142.84 248.546C1132.09 251.464 1121.93 248.722 1112.29 243.846L1112.27 244.475C1110.78 245.515 1110.03 245.234 1108.27 245.394C1107.45 245.468 1107.08 245.587 1106.26 245.526C1103.62 245.33 1102.77 244.113 1101.03 242.342C1095.27 247.842 1086.39 248.653 1078.8 248.626C1076.47 248.323 1074 248.327 1071.65 248.189C1068.69 246.656 1065.59 245.714 1062.43 244.708C1062.51 244.79 1062.59 244.875 1062.68 244.955C1063.87 246.076 1063.99 246.65 1064.33 248.193C1064.13 248.26 1063.94 248.347 1063.73 248.394C1058.85 249.526 1053.9 244.512 1050.19 241.98C1044.27 245.545 1024.62 240.133 1016.48 240.451C1014.96 240.51 1009.7 240.551 1008.67 241.763C1008.32 242.188 1008.85 242.801 1008.11 243.59L1006.86 240.707C998.798 239.549 989.053 241.224 980.87 241.446C971.391 241.703 961.948 241.128 952.484 240.712C950.092 240.607 945.801 241.214 943.7 240.615C942.98 240.41 942.774 239.38 942.488 238.766L942.275 240.245C941.5 239.709 940.595 238.992 939.645 238.841C936.796 238.385 882.295 239.533 880.967 239.846C875.23 241.197 869.918 236.843 864.614 240.548C861.847 240.785 859.396 239.99 856.791 239.17C855.932 238.899 855.225 238.582 854.304 238.825C847.105 240.721 839.551 235.518 832.733 236.362C829.871 236.716 825.323 239.849 822.185 240.699C804.657 234.433 799.542 238.795 783.43 238.054C776.548 232.74 769.48 242.609 762.009 239.407C757.078 237.295 741.425 239.809 735.188 240.245C712.518 241.833 689.854 241.264 667.167 242.145L666.808 240.735C666.671 240.67 666.542 240.584 666.397 240.539C663.974 239.797 659.158 241.874 656.304 241.813C644.832 241.567 633.137 240.305 621.649 240.687C618.473 240.792 615.417 242.162 612.242 242.188C605.459 242.243 598.47 241.251 591.607 241.205C579.663 241.125 567.595 241.92 555.682 241.504C550.137 241.31 544.285 239.846 538.812 240.035C536.345 240.121 533.095 242.637 530.669 243.466C528.73 244.128 524.079 244.453 522.23 243.343C521.346 242.813 521.408 242.975 520.416 243.118C525.18 249.462 528.637 254.813 527.559 263.073C526.832 268.653 524.069 273.242 519.553 276.583C510.495 283.285 496.914 285.028 486.031 283.299C478.994 282.182 473.331 279.87 467.176 276.361C466.191 284.199 463.711 289.84 457.339 294.801C448.676 301.545 436.213 303.609 425.53 302.139C417.79 301.074 409.002 297.55 404.138 291.146C402.75 289.318 401.554 287.301 400.507 285.263C394.48 291.178 387.782 293.87 379.271 293.813C371.888 293.763 364.296 291.539 359.106 286.061C355.583 282.343 354.237 278.535 353.832 273.512C341.846 278.96 329.553 280.9 316.831 276.196C309.933 273.645 303.839 268.955 300.71 262.166C298.239 256.804 297.778 251.136 298.819 245.357L297.518 245.835C296.762 245.634 296.482 245.447 295.956 244.858C294.796 243.56 293.732 242.083 291.977 241.577C288.582 240.598 229.164 240.255 222.252 240.625C216.055 240.956 209.926 243.165 203.766 244.082C195.204 245.357 185.052 244.215 176.447 243.335C172.027 242.883 168.813 245.229 164.599 245.974C163.894 246.098 163.728 245.757 163.163 245.369L163.557 242.394C157.541 250.019 150.366 254.562 140.596 255.748C133.02 256.668 126.079 255.25 119.23 252.043C116.89 249.915 114.461 247.877 112.066 245.81L110.738 243.871C109.354 245.57 108.669 247.123 106.432 247.519L101.861 244.573C98.6482 245.36 95.6044 246.014 92.2987 246.249C91.5301 246.826 91.092 247.149 90.1273 247.331C89.0361 247.536 89.501 247.371 88.6773 247.673C88.4845 247.743 88.2948 247.822 88.102 247.892C79.9897 250.855 71.9016 241.286 63.6582 240.769C60.3016 240.558 56.2289 241.806 52.7965 242.157C47.9752 242.651 29.0741 243.963 25.8005 242.316C19.5328 239.163 6.32475 245.527 1.25605 242.581C0.199569 241.966 0.276821 240.935 0 239.804L0 0Z"/>
	<path fill="#FBFAF5" d="M364.859 204.691C364.955 202.145 365.059 199.59 365.296 197.053C366.226 187.099 372.03 177.465 379.684 171.217C389.251 163.408 401.294 160.037 413.54 161.444C424.533 162.708 435.316 168.144 442.22 176.891C449.724 186.401 451.632 197.771 450.136 209.554Q451.555 208.626 453.031 207.79C459.932 203.907 467.951 203.398 475.511 205.54C482.78 207.599 489.447 212.028 493.08 218.785C495.826 223.894 496.777 230.211 495.025 235.798C494.697 236.844 494.389 237.38 494.671 238.48C496.654 237.5 498.782 236.605 500.984 236.275C508.055 235.213 514.871 239.307 520.416 243.118C525.18 249.462 528.637 254.813 527.559 263.073C526.832 268.653 524.069 273.242 519.553 276.583C510.495 283.285 496.914 285.028 486.031 283.299C478.994 282.182 473.331 279.87 467.176 276.361C466.191 284.199 463.711 289.84 457.339 294.801C448.676 301.545 436.213 303.609 425.53 302.139C417.79 301.074 409.002 297.55 404.138 291.146C402.75 289.318 401.554 287.301 400.507 285.263C394.48 291.178 387.782 293.87 379.271 293.813C371.888 293.763 364.296 291.539 359.106 286.061C355.583 282.343 354.237 278.535 353.832 273.512C341.846 278.96 329.553 280.9 316.831 276.196C309.933 273.645 303.839 268.955 300.71 262.166C298.239 256.804 297.778 251.136 298.819 245.357Q299.781 243.288 300.827 241.259C305.485 232.315 310.905 231.605 319.622 228.82C320.206 228.633 320.962 228.075 321.241 227.499C322.737 224.404 322.053 218.787 324.668 213.766C327.806 207.741 332.75 203.182 339.326 201.237C348.046 198.659 357.028 200.473 364.859 204.691Z"/>
	<path fill="#FBFAF5" d="M1066.33 162.855C1066.93 161.914 1066.88 162.255 1066.98 161.295C1067.43 157.049 1068.08 153.315 1069.47 149.238C1072.3 140.957 1079.61 134.808 1087.37 131.136C1097.65 126.269 1109.85 126.094 1120.49 129.905C1130.3 133.415 1139.16 140.524 1143.48 150.145C1145.87 155.462 1147.02 163.494 1144.98 169.038C1153.29 164.162 1161.61 161.786 1171.26 164.081C1177.9 165.66 1184.43 169.351 1187.98 175.354C1191.33 181.02 1191.72 187.621 1190.1 193.898L1189.97 194.371C1195.9 194.754 1200.18 191.131 1206.38 193.819C1211.77 196.157 1217.36 200.532 1219.41 206.212C1220.92 210.381 1220.38 215.02 1218.55 218.992C1215.45 225.696 1208.94 230.189 1202.13 232.547C1187.53 237.603 1173.54 234.02 1160.24 227.405C1160.27 227.984 1160.29 228.558 1160.26 229.138C1160.05 233.637 1158.1 237.108 1154.85 240.098C1152.39 244.284 1147.46 247.292 1142.84 248.546C1132.09 251.464 1121.93 248.722 1112.29 243.846L1112.27 244.475C1110.78 245.515 1110.03 245.234 1108.27 245.394C1107.45 245.468 1107.08 245.587 1106.26 245.526C1103.62 245.33 1102.77 244.113 1101.03 242.342C1095.27 247.842 1086.39 248.653 1078.8 248.626C1076.47 248.323 1074 248.327 1071.65 248.189C1068.69 246.656 1065.59 245.714 1062.43 244.708C1057.25 236.017 1055.23 242.145 1053.47 227.881L1052.1 227.531C1045.15 231.93 1036.22 231.828 1028.26 230.904C1017.72 229.681 1007.92 225.636 1001.25 217.101C996.107 210.517 994.34 202.659 995.38 194.434C996.51 185.493 1000.96 176.887 1008.22 171.411C1018.56 163.603 1025.15 166.606 1036.85 168.327C1039.48 163.911 1042.13 159.355 1046.32 156.224C1048.74 154.418 1051.91 152.926 1054.98 153.564C1059.28 154.457 1064.02 159.289 1066.33 162.855Z"/>
	<path fill="#49A3F0" d="M1101.03 242.342C1103.26 240.888 1104.57 239.523 1106.15 237.434L1106.28 236.701C1108.39 238.892 1110.96 241.082 1112.29 243.846L1112.27 244.475C1110.78 245.515 1110.03 245.234 1108.27 245.394C1107.45 245.468 1107.08 245.587 1106.26 245.526C1103.62 245.33 1102.77 244.113 1101.03 242.342Z"/>
	<path fill="#FBFAF5" d="M92.2987 246.249C86.1375 244.969 79.5619 242.269 75.8291 236.916C67.8356 225.452 79.1597 216.753 79.6222 212.365C80.1071 207.764 76.1346 202.119 77.2368 195.557C78.4058 188.597 83.3593 182.649 89.0021 178.682C99.8048 171.086 101.35 175.526 110.399 175.613C111.705 175.626 118.199 164.68 119.984 162.825C125.426 157.173 132.668 153.614 140.583 153.527C147.568 153.45 156.556 156.199 161.598 161.188C167.56 167.088 169.097 173.634 169.158 181.732C174.122 183.35 180.565 179.822 187.329 182.715C194.232 185.667 200.135 191.475 202.79 198.524C205.248 205.048 205.284 212.806 202.31 219.17C199.322 225.565 193.508 230.032 186.92 232.285C180.845 234.364 174.484 234.536 168.718 231.586L167.936 231.181C166.745 235.112 165.383 238.713 163.557 242.394C157.541 250.019 150.366 254.562 140.596 255.748C133.02 256.668 126.079 255.25 119.23 252.043C116.89 249.915 114.461 247.877 112.066 245.81L110.738 243.871C109.354 245.57 108.669 247.123 106.432 247.519L101.861 244.573C98.6482 245.36 95.6044 246.014 92.2987 246.249Z"/>
	<path fill="#49A3F0" d="M101.861 244.573C103.687 243.081 105.501 241.588 107.259 240.014L108.678 240.32L110.738 243.871C109.354 245.57 108.669 247.123 106.432 247.519L101.861 244.573Z"/>
	<path fill="#FBFAF5" d="M750.336 82.0164C760.163 81.9203 769.771 84.1153 777.622 90.3131C786.356 97.208 789.573 106.16 790.838 116.838C793.016 115.688 795.494 114.144 797.875 113.522C805.24 111.598 814.254 113.573 820.68 117.421C826.935 121.166 831.572 126.979 833.276 134.117C835.211 142.227 833.869 152.399 829.499 159.515C828.925 160.448 829.044 160.478 829.056 161.513C831.251 161.582 833.405 161.704 835.553 162.195C840.901 163.417 845.794 166.028 848.624 170.905C851.157 175.27 851.373 180.778 849.961 185.546C848.163 191.623 843.694 196.431 838.109 199.294C827.81 204.573 814.892 203.609 804.247 200.086C804.167 205.084 803.378 208.811 799.651 212.404C795.638 216.274 790.223 217.665 784.761 217.535C776.471 217.339 770.259 214.165 764.676 208.235C762.737 211.076 760.714 213.485 758.298 215.931C752.741 219.671 746.99 221.902 740.307 222.649C729.842 223.82 717.823 221.368 709.525 214.615C703.468 209.686 701.498 204.565 700.763 196.947C696.828 198.713 693.08 200.173 688.754 200.649Q687.854 200.752 686.95 200.81Q686.046 200.868 685.14 200.881Q684.234 200.893 683.328 200.86Q682.423 200.827 681.521 200.748Q680.618 200.669 679.72 200.545Q678.823 200.421 677.933 200.251Q677.043 200.082 676.162 199.868Q675.282 199.654 674.413 199.397Q673.545 199.139 672.69 198.837Q671.836 198.536 670.998 198.192Q670.159 197.848 669.34 197.463Q668.52 197.077 667.72 196.65Q666.921 196.224 666.144 195.758Q665.367 195.291 664.615 194.787Q663.862 194.282 663.136 193.74Q662.41 193.198 661.712 192.62C655.234 187.329 650.532 179.805 649.833 171.36C649.224 164.012 651.855 156.137 656.773 150.619C661.978 144.778 670.419 144.574 677.629 144.146C679.03 140.306 678.606 136.192 680.363 132.211C682.571 127.206 686.562 122.802 691.78 120.914C698.826 118.364 707.254 120.167 713.823 123.218C714.215 113.312 716.202 104.281 722.484 96.3445C729.54 87.4326 739.271 83.2482 750.336 82.0164Z"/>
	<path fill="#FBFAF5" d="M1424.69 69.3915C1431.05 68.8788 1436.8 69.2071 1442.87 71.3482Q1443.81 71.671 1444.74 72.0409Q1445.67 72.4108 1446.57 72.8268Q1447.48 73.2427 1448.36 73.7038Q1449.25 74.1648 1450.11 74.6697Q1450.97 75.1746 1451.8 75.7221Q1452.63 76.2697 1453.44 76.8584Q1454.24 77.4471 1455.02 78.0756Q1455.79 78.7041 1456.53 79.3707Q1457.27 80.0373 1457.98 80.7404Q1458.69 81.4435 1459.36 82.1812Q1460.03 82.919 1460.66 83.6895Q1461.29 84.4601 1461.89 85.2615Q1462.48 86.0629 1463.03 86.8932Q1463.59 87.7234 1464.1 88.5804Q1464.61 89.4374 1465.07 90.319Q1465.54 91.2005 1465.96 92.1044C1470.63 102.226 1470.33 112.478 1466.53 122.778C1468.63 123.439 1475.86 121.958 1480.11 123.189C1485.79 124.833 1491.74 130.25 1494.56 135.353C1497.46 140.586 1497.75 146.571 1496.11 152.261C1493.56 161.071 1486.68 167.979 1478.74 172.207C1466.62 178.657 1454.7 178.975 1441.83 175.13L1441.54 175.716C1442.3 179.183 1441.92 184.851 1439.96 187.886C1438.55 190.07 1436.94 192.099 1435 193.827C1429.06 199.091 1421.41 201.044 1413.59 200.557C1403.78 199.944 1401.85 196.707 1395.71 189.967L1395.07 189.275C1391.64 195.157 1387.64 199.466 1380.95 201.424C1380.83 201.522 1380.71 201.633 1380.57 201.718C1375.14 205.121 1364.82 204.195 1358.91 202.695C1351.14 200.726 1343.99 196.198 1339.87 189.187C1336.7 183.782 1336.07 178.215 1337.6 172.245C1328.54 171.256 1320.82 169.245 1314.67 162.029C1308.92 155.285 1306.72 146.314 1307.54 137.591C1308.39 128.496 1312.41 119.98 1319.53 114.152C1326.47 108.479 1334.13 107.619 1342.89 108.579C1348.01 97.5399 1350.9 87.5385 1361.68 80.4022C1368.64 75.7991 1376.71 74.1375 1384.89 75.8336C1391.19 77.1402 1398.98 80.6765 1402.67 86.2089C1410.29 76.0148 1411.77 72.842 1424.69 69.3915Z"/>
	<path fill="#FBFAF5" d="M116.606 566.368C133.162 576.099 143.769 594.079 148.572 612.373C151.242 622.543 153.951 641.869 148.803 651.017C146.621 654.897 143.172 656.805 139.179 658.432L138.548 660.157L137.938 661.183C135.132 661.341 130.385 660.965 128.206 659.074C128.479 622.818 128.846 601.148 116.606 566.368Z"/>
	<path fill="#FBFAF5" d="M181.178 583.571Q181.668 583.868 182.144 584.187C196.323 593.7 205.425 611.67 208.513 628.094C210.443 638.366 211.412 649.654 205.081 658.567C203.902 660.228 202.943 661.159 200.968 661.463C200.156 660.821 199.777 660.651 199.566 659.575C198.37 653.465 200.866 637.775 199.74 628.918C199.627 640.033 200.106 651.878 198.606 662.866L198.87 667.368C196.17 666.766 193.314 666.467 190.575 666.045C189.216 630.35 192.564 619.473 181.178 583.571Z"/>
	<path fill="#49A3F0" d="M112.066 245.81C114.461 247.877 116.89 249.915 119.23 252.043C118.569 252.243 118.075 252.403 117.376 252.392C114.762 252.351 112.754 251.973 110.91 250.204C111.062 248.495 111.294 247.35 112.066 245.81Z"/>
	<path fill="#49A3F0" d="M1071.65 248.189C1074 248.327 1076.47 248.323 1078.8 248.626L1082.57 249.487L1082.64 250.185C1081.01 251.289 1079.19 251.227 1077.28 251.166C1074.17 251.068 1073.67 250.364 1071.65 248.189Z"/>
</svg>
