<svg width="877" height="775" viewBox="0 0 877 775" fill="none" xmlns="http://www.w3.org/2000/svg">
<path d="M430.164 0.105186C452.117 -1.88971 497.505 25.0132 516.163 36.4502C514.919 29.5622 512.616 22.4872 512.221 15.4982C512.111 13.5622 512.062 12.1662 513.38 10.6742C514.168 10.3892 514.826 10.1862 515.673 10.1902C524.355 10.2332 561.261 31.1112 569.473 36.9522C577.843 42.9052 585.47 49.6642 592.816 56.8222C592.373 52.1392 591.587 47.1652 591.778 42.4702C591.881 39.9392 592.272 37.7312 594.25 35.9882C595.714 34.6982 597.68 34.3032 599.583 34.4882C604.48 34.9652 609.624 38.4702 613.658 41.0702C632.385 53.1402 647.122 68.4392 660.722 85.9462C660.476 82.7582 660.416 79.3252 660.817 76.1512C661.185 73.2332 662.131 69.8342 664.676 68.0562C666.489 66.7892 668.712 66.6552 670.809 67.1882C675.999 68.5082 680.943 73.2792 684.95 76.7132C708.297 96.7212 728.197 121.736 744.664 147.602C747.991 152.828 751.482 158.13 754.355 163.62C756.239 167.219 757.485 171.534 760.016 174.729C765.697 181.899 774.022 187.672 780.528 194.203C784.587 198.267 788.527 202.443 792.346 206.732C796.165 211.022 799.858 215.418 803.425 219.92C806.991 224.423 810.425 229.024 813.727 233.723C817.029 238.423 820.193 243.214 823.219 248.095C845.607 284.591 854.131 325.611 864.07 366.693C869.062 387.329 874.87 408.214 876.11 429.488C877.066 445.903 875.174 461.928 871.313 477.884C856.862 537.59 804.948 576.031 755.423 606.359C753.164 611.381 751.463 616.76 749.634 621.958C740.821 647 737.943 666.609 737.347 693.112C748.413 699.167 759.148 708.513 764.862 719.943C767.352 724.925 769.228 731.131 767.2 736.57C766.264 739.082 764.586 741.205 762.597 742.973C755.536 749.249 748.672 747.811 740.624 750.624C738.358 751.416 736.649 753.415 734.431 754.346C725.418 758.127 711.786 755.823 702.943 752.561C698.782 755.125 694.266 756.94 689.418 757.655C672.949 760.083 648.255 753.646 634.973 743.691C615.033 728.745 608.902 698.73 605.644 675.304C555.733 689.422 507.925 699.13 455.831 699.039C455.539 701.692 455.577 704.366 455.549 707.032C467.681 712.257 479.966 724.087 487.635 734.661C491.628 740.166 494.7 747.121 493.399 754.051C492.568 758.476 489.662 761.721 485.926 764.052C478.367 768.767 468.45 768.546 460.081 766.547C457.26 769.051 454.323 771.03 450.832 772.492C438.413 777.691 424.686 773.833 412.907 768.933C412.009 769.484 411.11 769.975 410.167 770.447C394.912 778.081 374.682 774.488 359.235 769.229C355.332 768.04 351.761 766.557 348.24 764.481C325.283 750.947 318.63 720.845 312.292 696.787C305.797 696.174 299.274 695.986 292.788 695.303C283.111 694.323 273.499 692.899 263.952 691.031C254.406 689.165 244.966 686.863 235.632 684.126C226.769 681.565 218.331 678.051 209.574 675.241C209.093 682.05 209.348 689.074 209.698 695.889C219.974 702.062 229.616 707.912 237.846 716.794C243.672 723.081 248.129 729.233 247.647 738.275C247.409 742.73 245.852 746.686 242.427 749.643C233.019 757.768 219.009 756.94 207.471 756.374C206.388 757.232 205.278 758.118 203.983 758.631C195.766 761.884 182.322 760.064 174.366 756.63C173.026 757.264 171.676 757.893 170.273 758.378C155.441 763.501 136.707 760.787 122.839 754.071C84.1561 735.338 81.4821 684.368 71.3131 647.772C65.6641 627.442 57.9781 607.2 50.9861 587.269C50.5641 588.012 50.1411 588.757 49.6781 589.476C48.8881 590.699 48.1791 591.231 46.7631 591.486C45.6691 591.684 44.7621 591.495 43.8371 590.829C35.4221 584.764 27.6555 541.26 25.4014 529.83C24.5856 530.879 23.7655 531.982 22.7666 532.866C21.6719 533.834 20.5415 534.305 19.0473 534.174C18 534.082 17.0468 533.444 16.4079 532.619C10.2847 524.707 10.8288 484.594 11.4897 474.094C11.814 468.943 12.6198 463.866 13.4461 458.777C11.5726 461.64 9.7575 465.106 6.5245 466.61C5.6657 467.009 4.5369 467.19 3.6683 466.737C2.3136 466.031 1.6776 464.687 1.2351 463.293C-3.5244 448.297 6.4566 406.091 14.4171 392.077C14.9896 391.069 15.2651 390.82 15.2984 389.652C13.9727 389.605 8.4838 394.7 6.5207 395.499C4.9944 396.121 4.1743 395.984 2.6981 395.343C2.2477 394.755 1.86641 394.21 1.65841 393.487C0.410106 389.146 1.9859 383.573 2.9796 379.265C8.1006 357.06 17.8313 337.222 28.5133 317.258C24.7991 318.87 19.1095 321.918 15.0749 320.66C14.1372 319.621 13.685 319.034 13.5885 317.592C13.3569 314.13 15.6816 309.771 17.1313 306.701C26.012 287.895 39.8821 268.768 54.5431 254.028C50.6701 255.348 43.0901 259.303 39.0491 258.542C37.5891 258.268 37.3291 257.864 36.4011 256.803C36.1451 255.743 36.0271 254.955 36.2571 253.873C39.0551 240.662 77.1251 201.987 89.4241 194.237C85.7641 194.887 80.2961 195.945 76.6891 195.078C75.2231 194.726 74.8611 194.324 74.0331 193.103C73.9201 191.973 73.9531 191.195 74.3591 190.118C78.1231 180.119 104.582 158.877 114.111 152.503C123.146 146.46 132.946 141.182 142.753 136.499C137.528 136.561 131.871 137.021 126.707 136.203C124.384 135.835 122.617 135.26 121.212 133.291C120.906 131.874 120.948 131.187 121.603 129.87C123.305 126.45 127.923 123.722 130.991 121.554C152.149 106.604 173.582 98.6282 197.8 90.4072C192.42 89.8742 184.044 89.9332 179.535 86.8082C178.474 86.0722 177.718 85.1382 177.513 83.8352C177.38 82.9872 177.871 82.2992 178.413 81.6792C181.771 77.8322 190.342 75.4752 195.105 73.6242C222.583 62.9492 249.68 54.2722 279.246 51.9662C274.1 49.5212 266.961 46.8672 263.06 42.5822C262.003 41.4222 261.494 40.4182 261.572 38.8082C262.199 37.6442 262.834 37.0452 263.97 36.4092C268.716 33.7512 275.372 32.8682 280.67 31.9642C307.325 27.4162 339.47 27.2872 365.674 34.1852C361.031 29.7712 355.398 24.8582 352.215 19.2692C351.371 17.7872 350.448 15.7382 351.187 14.0422C351.707 12.8512 352.973 12.0342 354.151 11.5982C359.046 9.78518 366.254 11.3762 371.338 11.9982C394.912 14.8812 418.324 19.7312 440.052 29.5792C437.13 23.8612 426.037 8.84319 427.493 3.04819C427.906 1.40219 428.892 0.991186 430.164 0.105186Z" fill="#261E41"/>
<path d="M441.524 11.3013C449.347 12.2113 457.569 16.4793 464.709 19.7113C492.981 32.5063 508.66 41.9983 532.222 62.0803C530.156 48.7753 526.569 35.5743 523.765 22.3973C547.521 33.6543 571.854 47.6483 589.596 67.2593C595.095 73.3373 599.563 80.0913 604.637 86.4913C604.263 72.8273 603.52 59.1836 602.407 45.5603C603.743 46.3209 605.067 47.1016 606.379 47.9023C607.691 48.7029 608.991 49.5236 610.278 50.3643C611.566 51.2043 612.84 52.0636 614.101 52.9423C615.362 53.8216 616.609 54.7196 617.843 55.6363C619.077 56.5536 620.297 57.4893 621.502 58.4433C622.708 59.3973 623.898 60.3693 625.074 61.3593C626.249 62.3493 627.41 63.3569 628.555 64.3823C629.701 65.4076 630.83 66.4503 631.943 67.5103C633.057 68.5696 634.155 69.6459 635.235 70.7393C636.316 71.8326 637.38 72.9419 638.427 74.0673C639.475 75.1926 640.504 76.3336 641.516 77.4903C642.529 78.6469 643.524 79.8189 644.5 81.0063C645.477 82.1929 646.435 83.3943 647.376 84.6103C648.316 85.8263 649.238 87.0563 650.141 88.3003C651.044 89.5443 651.928 90.8019 652.792 92.0733C653.657 93.3439 654.502 94.6276 655.328 95.9243C659.269 102.079 662.48 108.654 666.187 114.949C670.818 104.816 671.132 88.8793 671.427 77.7493C695.255 95.1143 726.1 134.947 740.46 161.001C743.951 167.336 752.654 187.938 756.617 191.76C758.495 192.568 760.398 192.263 762.385 192.132C766.92 195.828 771.246 199.864 775.4 203.983C784.512 213.019 792.685 222.797 800.467 232.989C834.055 276.975 841.422 314.893 853.823 367.526C859.27 390.643 866.046 413.101 866.087 437.098C866.159 479.339 849.287 516.015 819.621 545.635C790.066 575.145 753.563 595.111 716.82 614.176C666.968 640.042 616.233 662.839 561.262 675.6C525.111 683.991 491.973 686.995 455.001 687.009C453.332 676.879 453.928 666.493 452.752 656.314C443.919 672.933 442.544 694.455 445.602 712.731C456.38 720.754 465.612 724.114 475.333 734.604C479.485 739.084 483.331 744.672 482.91 751.065C482.791 752.876 482.34 754.436 480.857 755.608C476.826 758.794 469.682 757.539 464.98 756.833C464.723 750.773 463.291 745.705 459.486 740.829C455.16 735.286 448.813 730.182 441.585 729.525C440.049 729.385 437.494 729.141 436.232 730.156C436.465 732.189 446.856 741.648 449.043 744.722C451.389 748.02 454.199 752.295 453.318 756.525C452.845 758.799 451.394 760.676 449.402 761.833C440.889 766.775 427.557 762.394 418.83 760.249C418.549 754.382 417.29 748.206 414.021 743.237C410.617 738.064 404.028 734.563 397.976 733.532C396.337 733.253 395.404 733.335 394.037 734.275C395.281 737.026 398.233 739.562 400.201 741.9C403.119 745.368 408.775 752.612 407.884 757.333C407.566 759.022 406.807 760.271 405.427 761.275C399.144 765.848 381.818 764.278 374.367 762.943C365.956 761.436 356.562 758.782 349.794 753.324C329.216 736.727 323.462 693.022 314.645 668.363C311.059 658.336 306.396 649.031 300.325 640.279C301.118 655.338 304.551 670.008 308.527 684.511C282.525 684.83 256.784 678.58 231.999 671.346C206.26 662.626 181.046 652.579 159.83 635.194C167.908 653.956 181.445 662.837 199.04 671.896C198.889 681.962 198.862 692.31 200.117 702.295C206.017 707.936 216.8 711.132 224.409 717.533C229.083 721.465 237.619 728.6 237.93 735.178C238.034 737.375 237.136 739.513 235.597 741.064C230.961 745.735 220.799 745.106 214.751 745.123C214.299 741.552 214.03 736.983 212.389 733.769C208.917 726.97 205.211 720.585 197.885 717.307C194.446 715.769 188.972 714.771 185.346 716.207L185.032 716.952C187.507 720.754 194.594 725.4 198.048 729.588C201.236 733.452 204.538 739.168 203.859 744.34C203.641 746 202.809 747.372 201.407 748.296C195.994 751.859 185.461 749.271 179.397 748.248C179.343 742.339 178.438 736.816 175.7 731.528C173.304 726.899 167.492 719.84 162.24 718.394C159.676 717.688 156.242 716.601 153.811 717.912C153.9 719.833 165.663 732.81 167.209 740.865C167.617 742.992 167.478 745.308 167.444 747.467C165.044 748.652 162.694 749.495 160.042 749.911C146.454 752.04 130.735 748.298 119.72 740.056C110.048 732.82 103.693 722.39 98.9032 711.483C89.8332 690.831 86.8062 668.126 80.7912 646.526C78.2112 637.261 75.5692 627.96 72.5452 618.831C68.7302 607.319 64.5062 595.922 61.3302 584.208C58.1952 572.643 56.1562 561.016 54.4072 549.172C48.7352 555.668 46.5722 561.963 44.4772 570.227C42.5562 561.132 39.7242 552.243 37.9002 543.107C34.9172 528.17 35.1262 513.981 35.6302 498.888L35.0292 499.434C29.5552 504.343 25.627 509.95 22.024 516.327C21.2291 496.701 19.6792 477.734 23.1708 458.212C24.7552 449.353 27.7825 440.892 29.4392 432.09L29.5762 431.343C22.1946 435.219 14.4605 441.462 9.55249 448.214C12.7182 429.681 16.6518 412.243 23.4351 394.618C26.9417 385.507 31.2622 376.705 34.9912 367.679C27.0913 369.871 20.219 373.825 13.3248 378.17C19.0184 357.443 28.3541 334.526 41.0072 317.123C45.8962 310.399 51.9322 304.336 57.3282 297.994C47.2162 299.596 37.9712 303.368 28.5065 307.104C35.7092 291.524 47.2282 276.078 58.6672 263.318C61.0732 260.634 82.1982 240.722 82.4002 239.772C82.2682 239.672 82.1482 239.555 82.0052 239.472C77.4802 236.86 59.4842 242.439 54.2762 244.076C66.2322 228.079 79.5862 212.799 96.3422 201.69C103.943 196.651 113.213 193.329 119.794 186.977C109.874 184.944 100.632 183.995 90.5332 184.004C105.222 171.541 120.532 158.857 137.67 149.858C142.514 147.333 147.468 145.045 152.531 142.993C157.366 140.989 166.093 138.752 169.889 135.586L169.858 134.662C165.389 129.997 146.394 127.631 139.897 127.166C156.868 115.869 177.327 107.556 196.847 101.976C205.646 99.4613 217.269 97.3293 225.286 93.4473C219.164 87.6323 209.172 84.5223 201.359 81.6483C223.884 70.8583 255.241 63.7223 280.175 61.9723C288.093 61.4163 296.039 61.6753 303.971 61.5553C296.774 53.4803 288.221 47.0383 279.174 41.2093C303.567 35.8633 341.635 38.0633 365.817 43.9643C375.365 46.2943 384.408 49.7593 393.707 52.8603C386.769 40.9913 376.206 30.8713 366.993 20.7763C389.312 24.4263 411.248 28.0893 432.431 36.3523C442.516 40.2873 452.085 46.6673 462.378 49.7243C456.03 36.7293 448.995 23.6823 441.524 11.3013Z" fill="url(#paint0_linear_37_58)"/>
<path d="M615.701 671.505C625.119 669.098 634.715 664.443 643.708 660.712C676.446 647.127 708.2 631.187 739.876 615.325C738.008 624.056 734.623 632.594 732.305 641.236C730.282 648.78 729.374 656.248 727.721 663.824C727.678 664.021 727.628 664.217 727.582 664.413C726.666 674.916 726.068 685.42 726.598 695.964C726.702 696.101 726.804 696.239 726.91 696.374C730.574 701.032 736.736 704.202 741.43 707.806C746.85 711.966 758.73 723.036 758.061 730.418C757.875 732.465 756.687 734.08 755.082 735.289C752.194 737.464 748.605 738.137 745.144 738.841C743.474 729.501 739.64 721.218 731.669 715.598C727.742 712.83 721.143 709.81 716.271 711.389C715.582 711.612 715.547 711.676 715.022 712.021C714.907 713.286 715.232 713.865 716.019 714.83C722.238 722.458 734.425 726.811 734.075 739.166C734.039 740.458 733.943 741.774 732.91 742.69C729.777 745.468 722.058 744.421 718.156 743.841C715.347 743.431 712.577 742.837 709.847 742.059C709.614 733.086 706.614 725.852 700.043 719.748C695.848 715.852 690.679 713.138 684.794 713.54C684.055 713.591 683.511 713.807 682.872 714.163C682.536 715.137 682.443 715.308 682.94 716.288C684.689 719.739 689.08 722.706 691.68 725.634C694.422 728.722 698.62 736.339 697.394 740.481C696.771 742.585 695.283 743.91 693.337 744.802C684.757 748.734 666.631 746.083 657.952 742.934C651.617 741.216 645.275 738.584 640.055 734.548C623.338 721.622 618.138 691.398 615.701 671.505Z" fill="#533583"/>
<path d="M657.952 742.934C655.173 737.251 651.362 730.668 650.915 724.268C650.428 717.305 654.885 710.496 659.367 705.499C673.949 689.241 699.438 675.439 719.276 666.708C721.75 665.619 724.487 663.403 727.178 663.264L727.582 664.413C726.666 674.916 726.068 685.42 726.598 695.964C726.702 696.101 726.804 696.239 726.91 696.374C730.574 701.032 736.736 704.202 741.43 707.806C746.85 711.966 758.73 723.036 758.061 730.418C757.875 732.465 756.687 734.08 755.082 735.289C752.194 737.464 748.605 738.137 745.144 738.841C743.474 729.501 739.64 721.218 731.669 715.598C727.742 712.83 721.143 709.81 716.271 711.389C715.582 711.612 715.547 711.676 715.022 712.021C714.907 713.286 715.232 713.865 716.019 714.83C722.238 722.458 734.425 726.811 734.075 739.166C734.039 740.458 733.943 741.774 732.91 742.69C729.777 745.468 722.058 744.421 718.156 743.841C715.347 743.431 712.577 742.837 709.847 742.059C709.614 733.086 706.614 725.852 700.043 719.748C695.848 715.852 690.679 713.138 684.794 713.54C684.055 713.591 683.511 713.807 682.872 714.163C682.536 715.137 682.443 715.308 682.94 716.288C684.689 719.739 689.08 722.706 691.68 725.634C694.422 728.722 698.62 736.339 697.394 740.481C696.771 742.585 695.283 743.91 693.337 744.802C684.757 748.734 666.631 746.083 657.952 742.934Z" fill="#714AA1"/>
<path d="M150.263 341.973C158.549 341.17 165.158 342.278 172.769 345.512C158.03 348.7 151.992 348.376 137.563 355.297C145.364 357.446 152.415 357.436 159.763 361.429C161.491 362.092 163.305 362.574 165.075 363.114C155.938 364.701 135.336 365.89 127.37 361.677C125.213 360.536 123.784 359.419 123.109 357.037C123.24 355.831 123.424 354.971 124.159 353.974C129.219 347.119 142.072 343.196 150.263 341.973Z" fill="#533583"/>
<path d="M120.53 292.487C123.31 291.865 128.217 291.949 130.987 292.526C131.969 292.731 132.108 292.716 132.627 293.598C129.558 296.319 121.815 298.503 117.84 300.391C112.814 302.778 107.22 306.112 102.831 309.538C102.722 309.624 102.614 309.712 102.505 309.799C109.282 309.826 117.922 309.318 124.312 311.526C125.4 311.902 125.636 311.88 126.179 312.937C125.419 314.245 124.505 314.169 123.089 314.589C115.718 316.609 98.9772 320.768 92.1332 317.75C90.6352 317.09 89.4262 316.03 88.9392 314.408C88.3142 312.329 89.3932 310.001 90.5792 308.335C96.8762 299.492 110.288 294.467 120.53 292.487Z" fill="#533583"/>
<path d="M178.738 294.215C189.038 292.333 197.642 295.897 206.675 300.357C205.056 300.146 203.431 299.991 201.8 299.889C200.17 299.788 198.539 299.741 196.905 299.749C195.272 299.757 193.641 299.82 192.012 299.937C190.383 300.054 188.76 300.227 187.142 300.453C185.525 300.68 183.917 300.96 182.318 301.294C180.719 301.629 179.133 302.017 177.56 302.457C175.988 302.898 174.432 303.391 172.892 303.936C171.352 304.481 169.833 305.077 168.333 305.724C174.479 305.886 180.321 308.689 185.888 311.08C188.998 312.6 191.608 314.586 194.212 316.837C182.896 315.264 169.163 316.365 158.964 310.614C157.196 309.618 154.834 308.158 154.45 305.968C154.188 304.475 154.969 303.117 155.909 302.034C161.097 296.058 171.231 294.588 178.738 294.215Z" fill="#533583"/>
<path d="M152.313 242.125C152.472 242.057 152.621 241.962 152.788 241.922C159.065 240.426 167.479 242.421 172.954 245.418C162.095 245.704 149.354 249.51 139.521 254.077L139.566 255.526L138.7 254.905C147.337 256.464 153.227 258.299 161.261 261.974C162.366 262.487 163.043 262.5 163.541 263.668C163.287 263.78 163.045 263.923 162.78 264.006C157.861 265.533 131.535 263.304 126.431 261.084C124.859 260.4 124.006 259.635 123.357 258.007C123.278 255.675 124.257 254.154 125.785 252.466C131.456 246.202 144.134 242.628 152.313 242.125Z" fill="#533583"/>
<path d="M191.248 195.181C198.844 193.412 208.683 197.789 215.325 200.894C200.089 200.707 193.521 200.679 179.037 206.12L179.201 206.571C184.715 207.722 194.596 212.775 199.564 215.742C199.723 215.837 199.881 215.936 200.04 216.033C202.107 217.196 203.705 218.857 205.415 220.477C193.979 218.032 179.663 218.416 169.538 212.226C166.449 210.338 165.377 209.016 164.516 205.516C165.106 204.514 165.706 203.44 166.493 202.579C171.551 197.047 184.192 195.526 191.248 195.181Z" fill="#533583"/>
<path d="M208.185 250.644C208.412 250.591 208.636 250.52 208.866 250.486C221.536 248.641 233.957 252.185 244.206 259.556C230.636 256.527 218.947 257.588 205.363 259.568C209.226 260.66 212.356 262.572 215.743 264.655C220.471 267.55 224.304 271.334 228.66 274.709C217.323 272.691 201.197 269.103 192.85 260.948C193.101 258.966 193.198 256.972 193.324 254.978C197.833 252.358 203.007 250.983 208.185 250.644Z" fill="#533583"/>
<path d="M342.334 157.098C348.181 156.903 353.622 156.756 359.294 158.424C372.74 162.379 383.516 171.927 390.212 184.014C380.298 177.339 372.894 169.807 361.096 166.229C357.372 165.121 353.234 164.778 349.384 164.28C357.089 170.128 363.899 178.675 368.036 187.392C358.717 181.893 347.579 174.873 340.834 166.279C339.318 164.348 338.414 162.721 338.692 160.243C339.611 158.757 340.908 158.029 342.334 157.098Z" fill="#533583"/>
<path d="M242.544 154.173C250.942 153.642 259.883 156.6 266.924 161.03C253.198 159.551 241.065 161.498 227.658 163.873C234.268 166.797 240.953 170.483 246.688 174.869C248.835 176.841 251.29 178.606 253.577 180.422C242.571 177.17 231.644 175.643 221.547 169.628C219.201 168.231 216.12 166.267 215.577 163.389C215.359 162.235 215.897 161.167 216.638 160.309C221.269 154.945 236.096 154.469 242.544 154.173Z" fill="#533583"/>
<path d="M244.973 207.688C257.39 206.391 268.346 211.137 278.283 217.992C264.13 215.575 252.418 214.983 238.153 216.798C241.261 218.37 244.192 220.139 247.143 221.985C252.383 225.214 255.832 228.933 259.858 233.499C250.849 230.617 240.406 227.358 232.451 222.184C230.371 220.832 227.193 218.622 226.775 215.974C226.565 214.646 226.958 213.53 227.829 212.521C231.615 208.13 239.612 208.052 244.973 207.688Z" fill="#533583"/>
<path d="M218.541 352.676C226.465 351.273 238.35 355.381 245.038 359.445C239.502 359.859 233.879 359.272 228.323 359.453C221.745 359.668 215.233 361.086 208.808 362.416C214.141 364.653 219.205 365.99 224.288 368.929C226.893 370.497 229.274 372.151 231.654 374.043C222.425 374.266 209.165 372.583 201.072 367.987C198.467 366.508 195.955 364.67 195.128 361.68C195.287 360.754 195.252 360.241 195.834 359.469C199.133 355.094 213.195 353.155 218.541 352.676Z" fill="#533583"/>
<path d="M93.3452 352.57C94.0692 352.258 94.3082 352.271 95.1032 352.412C96.9662 352.743 98.9092 352.411 100.619 353.225C98.7722 356.087 90.0302 359.149 86.8662 361.178C82.1622 364.196 78.4312 368.718 73.8322 371.961C78.4292 371.57 84.6472 370.643 89.2052 371.455C91.3222 371.833 93.3882 371.633 95.3902 372.504L95.6652 373.206C93.9562 375.3 90.4142 376.32 87.8792 377.069C81.4642 378.67 70.0642 383.417 63.8592 379.711C62.5992 378.958 61.6722 377.865 61.5332 376.358C61.2832 373.669 63.1212 371.077 64.7532 369.138C71.3142 361.346 82.9382 353.36 93.3452 352.57Z" fill="#533583"/>
<path d="M689.173 177.763C689.696 177.825 689.691 177.808 690.293 177.975C694.061 179.02 696.705 182.318 698.406 185.673C704.637 197.965 704.934 216.025 700.848 228.988C698.487 219.026 698.56 208.818 695.736 198.832C694.383 194.905 692.637 191.261 690.798 187.541C688.035 198.523 686.463 209.993 682.74 220.697C681.541 212.58 681.063 204.662 681.848 196.468C682.523 189.429 683.449 182.499 689.173 177.763Z" fill="#533583"/>
<path d="M291.67 123.164C292.682 122.973 293.808 122.97 294.837 122.92C306.962 122.335 318.948 124.744 328.159 133.078C315.38 129.829 302.787 129.979 289.754 131.098C291.962 132.451 293.825 133.899 295.766 135.597C301.213 140.096 306.079 144.248 309.92 150.234L300.363 145.853C294.989 143.339 279.788 136.617 278.195 130.663C277.88 129.484 277.834 128.381 278.576 127.341C280.935 124.036 287.934 123.514 291.67 123.164Z" fill="#533583"/>
<path d="M625.448 150.95C629.46 151.139 632.278 152.696 635.035 155.64C637.66 158.442 639.561 162.029 641.185 165.479C646.974 177.777 646.93 188.986 646.272 202.278C643.954 192.299 641.929 182.445 637.397 173.183C634.677 167.678 631.322 163.036 627.539 158.211C625.568 168.953 624.191 179.816 622.316 190.581C619.347 181.014 618.281 169.962 620.241 160.064C621.018 156.138 622.062 153.22 625.448 150.95Z" fill="#533583"/>
<path d="M246.806 307.152C249.013 306.818 251.233 306.786 253.462 306.767C263.21 306.685 271.502 310.194 278.409 316.989C276.082 316.507 273.867 315.583 271.517 315.105C263.002 313.371 253.224 313.897 244.722 315.38C247.647 317.342 250.947 318.865 254.075 320.485C254.149 320.531 254.223 320.578 254.299 320.622C258.06 322.844 261.251 326.118 264.482 329.04C257.411 327.583 241.277 324.455 235.581 320.461C233.93 319.303 231.672 317.447 231.534 315.255C231.461 314.093 231.854 313.036 232.601 312.155C235.766 308.419 242.211 307.605 246.806 307.152Z" fill="#533583"/>
<path d="M289.816 174.074C305.709 173.956 316.58 177.277 328.124 188.388C321.252 186.683 314.853 183.37 307.861 182.202C304.695 181.674 297.568 180.487 294.981 182.317L294.961 183.105L297.123 185.035C303.141 190.757 308.263 196.665 312.798 203.62C310.972 202.824 309.18 201.958 307.422 201.021C301.622 197.939 284.017 187.439 282.55 180.6C282.287 179.375 282.278 178.291 283.052 177.242C284.611 175.129 287.403 174.558 289.816 174.074Z" fill="#533583"/>
<path d="M560.88 124.354C565.533 124.811 569.389 127.432 572.876 130.391C583.721 139.595 591.457 153.763 592.693 167.996C588.307 160.833 584.112 153.477 579.13 146.71C574.631 140.994 569.613 136.098 563.662 131.92C565.355 141.478 565.485 151.131 565.819 160.804C561.106 153.371 555.146 137.455 557.312 128.704C557.863 126.478 558.993 125.533 560.88 124.354Z" fill="#533583"/>
<path d="M493.525 100.443C496.878 100.996 499.848 102.177 502.741 103.927C515.956 111.921 523.151 127.997 526.597 142.4C521.329 134.921 516.856 127.142 510.948 120.09C506.593 115.582 501.838 111.938 496.681 108.401C497.961 118.164 501.164 128.249 501.587 137.988C498.99 135.221 497.068 131.658 495.453 128.247C492.746 122.527 487.62 108.964 490.433 102.829C491.107 101.359 492.165 101.07 493.525 100.443Z" fill="#533583"/>
<path d="M395.216 211.019C399.799 210.766 404.118 211.906 408.183 213.979C419.8 219.905 426.287 230.589 430.218 242.607C423.627 234.945 416.483 226.285 407.499 221.384C404.654 220.185 401.709 219.233 398.791 218.228C404.777 226.132 409.633 235.232 412.123 244.85C405.214 237.502 396.283 229.443 391.802 220.28C390.687 217.999 390.111 215.881 391.006 213.452C392.162 211.983 393.497 211.632 395.216 211.019Z" fill="#533583"/>
<path d="M413.164 149.022C417.904 148.823 422.218 149.424 426.682 151.029C441.841 156.481 448.881 167.996 455.357 181.979C448.632 175.805 442.889 168.805 435.786 162.99C430.998 159.277 424.93 157.714 419.222 156.05C423.052 164.966 426.436 174.243 429.351 183.497C422.669 176.148 411.889 163.434 411.469 152.995C411.392 151.077 411.877 150.401 413.164 149.022Z" fill="#533583"/>
<path d="M279.975 260.024C281.713 259.899 283.453 259.851 285.196 259.88C298.674 260.13 309.865 267.448 318.999 276.837C309.067 272.019 295.716 266.352 284.448 267.07L284.352 267.656C292.734 273.886 298.67 278.947 305.133 287.22C296.036 282.81 279.687 276.312 274.122 267.875C273.189 266.461 272.954 265.459 273.359 263.771C275.117 261.233 277.042 260.701 279.975 260.024Z" fill="#533583"/>
<path d="M359.077 104.633C361.982 104.527 364.884 104.424 367.785 104.67C380.726 105.768 391.191 112.764 399.432 122.437C388.905 117.365 379.497 111.55 367.449 111.39C366.455 111.383 365.477 111.38 364.486 111.449C363.34 111.529 362.785 111.312 362.01 112.202C363.56 114.642 366.082 116.712 367.839 119.105C371.12 123.57 373.899 128.53 376.798 133.259C369.946 129.515 354.724 118.781 352.09 111.256C351.655 110.013 351.559 108.645 352.252 107.468C353.598 105.182 356.75 104.981 359.077 104.633Z" fill="#533583"/>
<path d="M73.4454 470.003C74.8574 469.847 76.0064 469.681 77.3984 470.097L77.3954 470.734C73.4394 474.188 69.5534 477.826 66.1324 481.814C63.0904 485.36 60.4594 489.285 56.9144 492.36C62.7034 490.535 68.3444 489.816 74.4014 489.827C71.7494 492.3 69.0194 494.633 66.2174 496.934C64.0334 498.351 62.0294 499.395 59.5814 500.268C56.7594 501.275 52.9134 502.724 50.0684 501.067C48.8814 500.375 48.3374 499.235 48.1194 497.923C47.4474 493.87 49.7324 489.477 51.9804 486.263C57.2004 478.801 64.1534 471.574 73.4454 470.003Z" fill="#533583"/>
<path d="M487.228 162.459C491.523 162.71 494.77 163.751 498.271 166.305C508.588 173.832 514.374 187.494 516.433 199.696C511.751 192.093 506.724 185.138 501.023 178.279C498.066 174.993 494.568 172.458 491.005 169.878C492.967 179.589 494.66 189.087 495.125 199.014C489.896 191.124 484.43 178.988 484.371 169.386C484.351 166.204 484.978 164.672 487.228 162.459Z" fill="#533583"/>
<path d="M190.722 400.841C194.814 400.662 203.766 400.03 207.151 402.303C206.896 403.246 206.63 403.275 205.773 403.685C203.659 404.696 201.073 405.164 198.824 405.847C193.872 407.349 188.649 409.178 184.193 411.831C184.027 411.93 183.863 412.033 183.699 412.134C190.613 413.265 196.131 414.534 202.572 417.471C203.527 417.881 204.019 418.165 204.686 418.967L204.226 419.648C198.231 421.054 182.012 420.881 176.422 418.159C174.549 417.247 172.595 415.743 172.088 413.61C171.772 412.28 172.124 410.913 172.825 409.769C176.287 404.122 184.757 402.373 190.722 400.841Z" fill="#533583"/>
<path d="M424.226 97.0292C428.112 96.8302 431.681 97.6642 435.277 99.0672C447.391 103.796 458.236 114.097 463.415 126.021C456.299 120.343 449.744 114.273 442.352 108.88C438.243 106.559 434.447 105.047 429.841 103.983C432.497 113 436.043 121.32 438.003 130.606C431.173 124.467 422.415 111.495 422.162 102.049C422.099 99.6802 422.6 98.6512 424.226 97.0292Z" fill="#533583"/>
<path d="M555.28 183.558C557.929 183.898 559.941 185.434 561.828 187.259C571.638 196.75 574.824 214.839 574.913 227.86C572.251 219.741 568.991 211.87 565.133 204.246C562.31 199.361 559.302 194.75 555.49 190.568C555.272 200.26 554.754 209.672 553.549 219.3C552.179 214.897 550.894 210.492 550.095 205.944C549.18 200.732 547.395 189.798 550.973 185.419C552.174 183.949 553.525 183.833 555.28 183.558Z" fill="#533583"/>
<path d="M328.786 227.563C331.349 227.362 333.898 227.223 336.466 227.431C349.279 228.47 359.633 237.823 367.535 247.14C357.643 242.579 350.02 235.404 338.748 234.112L333.989 233.982C340.621 239.414 346.928 246.322 350.261 254.321C342.405 249.945 330.924 243.72 326.215 235.722C325.315 234.194 324.653 232.285 325.352 230.541C325.963 229.015 327.437 228.315 328.786 227.563Z" fill="#533583"/>
<path d="M468.256 221.04C472.902 220.702 475.938 222.031 479.601 224.978C487.741 231.529 493.553 242.266 494.662 252.586C489.924 247.14 486.391 240.666 481.34 235.474C478.671 232.901 475.723 230.736 472.725 228.567C474.504 236.807 475.509 245.451 476.308 253.842C471.369 246.614 464.313 233.473 465.795 224.495C466.11 222.583 466.782 222.117 468.256 221.04Z" fill="#533583"/>
<path d="M613.447 217.506C614.293 217.456 615.148 217.407 615.995 217.453C618.66 217.598 621.055 219.726 622.672 221.684C629.761 230.264 630.441 243.845 629.572 254.382C627.612 247.276 625.166 239.851 621.829 233.281C621.126 231.669 620.304 230.121 619.362 228.635C618.42 227.15 617.37 225.746 616.211 224.422C614.988 233.212 614.254 242.092 613.084 250.901C610.376 242.693 609.158 233.493 609.985 224.87C610.305 221.528 610.793 219.66 613.447 217.506Z" fill="#533583"/>
<path d="M675.562 342.02C699.539 335.836 723.012 326.592 746.392 318.471C763.18 312.64 789.663 302.738 807.17 302.784C810.894 302.793 813.627 303.757 816.77 305.661C818.616 306.779 820.401 308.106 821.083 310.232C820.896 311.497 820.77 312.089 819.698 312.888C816.627 315.178 806.303 316.654 802.003 318.055C813.662 331.711 818.537 351.108 817.176 368.814C817.083 369.921 816.962 371.026 816.814 372.128C816.667 373.23 816.492 374.327 816.291 375.42C816.09 376.513 815.862 377.601 815.607 378.683C815.352 379.765 815.071 380.84 814.763 381.908C814.456 382.977 814.122 384.037 813.763 385.088C813.404 386.14 813.019 387.183 812.608 388.216C812.198 389.249 811.763 390.271 811.302 391.282C810.841 392.294 810.356 393.294 809.846 394.282C809.337 395.269 808.803 396.244 808.246 397.206C807.688 398.167 807.107 399.115 806.504 400.048C805.9 400.981 805.273 401.899 804.624 402.802C803.975 403.705 803.305 404.591 802.613 405.46C801.92 406.329 801.207 407.181 800.473 408.016C799.739 408.851 798.985 409.667 798.211 410.465C797.437 411.263 796.644 412.041 795.831 412.8C795.019 413.559 794.189 414.297 793.34 415.015C778.515 427.557 759.525 432.682 740.32 431.008C722.001 429.412 707.811 420.68 695.196 407.746C697.559 416.132 697.392 425.062 693.039 432.805C689.504 439.093 684.397 442.229 677.971 444.955C676.376 452.833 674.376 460.713 670.985 468.035C691.767 469.607 720.251 473.59 734.811 490.282C737.816 493.727 739.833 497.449 741.247 501.795C730.632 496.324 721.01 489.908 709.586 486.042C662.88 470.237 599.853 480.744 553.962 495.369C549.94 496.651 541.711 500.371 538.004 500.473C537.605 499.898 537.302 499.774 537.459 499.014C538.254 495.16 545.597 490.406 548.929 488.564C555.558 484.898 563.354 482.486 570.564 480.252C602.063 470.494 634.304 467.22 667.165 467.642L668.006 456.922L667.458 455.782C664.001 454.36 658.837 454.63 655.066 454.235C646.007 453.288 636.267 450.227 630.443 442.743C628.113 439.749 626.672 435.847 627.153 432.056C626.11 429.432 625.202 426.887 624.74 424.084C623.516 416.672 624.883 408.839 629.406 402.72C635.02 395.124 644.39 391.104 653.516 389.799C665.873 388.032 677.485 389.473 687.631 396.989C682.442 387.207 678.908 376.775 678.256 365.682C677.366 365.65 676.469 365.607 675.585 365.499C672.914 365.171 670.325 362.623 668.785 360.582C664.556 354.976 662.883 346.358 663.728 339.463C661.785 328.771 662.046 317.15 666.3 306.991L666.495 307.778C669.225 318.961 668.625 332.374 675.562 342.02Z" fill="#261E41"/>
<path d="M627.153 432.056C632.776 439.893 639.01 443.983 648.537 445.579C655.022 446.666 661.592 446.67 668.137 446.252C668.193 449.331 668.813 454.039 668.006 456.922L667.458 455.782C664.001 454.36 658.837 454.63 655.066 454.235C646.007 453.288 636.267 450.227 630.443 442.743C628.113 439.749 626.672 435.847 627.153 432.056Z" fill="#533583"/>
<path d="M663.728 339.463C666.188 344.67 668.536 350.05 674.432 352.07C675.715 352.509 677.007 352.687 678.351 352.81L678.256 365.682C677.366 365.65 676.469 365.607 675.585 365.499C672.914 365.171 670.325 362.623 668.785 360.582C664.556 354.976 662.883 346.358 663.728 339.463Z" fill="#533583"/>
<path d="M747.794 333.372C762.506 328.611 777.684 324.652 792.608 320.59C796.106 324.81 798.93 328.998 801.394 333.9C808.831 349.334 810.41 367.185 804.624 383.457C799.526 397.796 787.948 409.921 774.211 416.35C759.804 423.092 741.952 423.977 727.021 418.433C711.539 412.684 699.537 401.212 692.757 386.205C689.341 378.645 687.31 370.643 687.188 362.333C691.154 362.19 695.117 361.991 699.077 361.734C698.587 364.945 698.293 368.218 698.405 371.468C698.767 382.06 703.006 392.108 710.857 399.321C711.359 399.776 711.872 400.219 712.395 400.649C712.918 401.079 713.452 401.496 713.996 401.899C714.54 402.302 715.094 402.692 715.658 403.069C716.221 403.445 716.793 403.807 717.374 404.155C717.955 404.503 718.545 404.836 719.143 405.155C719.74 405.474 720.345 405.778 720.958 406.067C721.571 406.356 722.191 406.629 722.817 406.888C723.443 407.147 724.075 407.389 724.714 407.616C725.352 407.843 725.995 408.055 726.644 408.25C727.293 408.445 727.946 408.625 728.603 408.788C729.26 408.951 729.921 409.098 730.586 409.229C731.251 409.359 731.919 409.473 732.589 409.571C733.26 409.668 733.932 409.749 734.606 409.814C735.281 409.878 735.956 409.926 736.633 409.957C737.31 409.988 737.987 410.002 738.664 409.999C739.341 409.997 740.018 409.978 740.695 409.942C751.575 409.386 761.852 404.767 769.177 396.638C776.163 388.887 779.393 378.537 778.789 368.186C778.123 356.791 772.783 348.186 764.471 340.717C759.139 337.04 754.073 334.92 747.794 333.372Z" fill="#FDFCFC"/>
<path d="M747.794 333.372C762.506 328.611 777.684 324.652 792.608 320.59C796.106 324.81 798.93 328.998 801.394 333.9C795.804 334.622 768.095 339.079 764.471 340.717C759.139 337.04 754.073 334.92 747.794 333.372Z" fill="#CDC8D8"/>
<path d="M661.633 401.735C666.117 401.32 670.75 401.735 674.997 403.28C677.846 404.317 680.334 405.764 681.626 408.59C681.613 409.46 681.755 409.971 681.26 410.736C679.287 413.788 674.253 414.374 670.94 415.036C668.071 415.178 665.234 415.286 662.366 415.049C658.178 414.702 650.938 413.479 648.534 409.687C647.831 408.579 648.093 408.072 648.443 406.943C651.64 403.733 657.253 402.364 661.633 401.735Z" fill="#714AA1"/>
<path d="M758.105 344.093C759.276 344.353 760.43 344.638 761.497 345.207C764.879 347.014 767.987 350.194 769.086 353.933C769.744 356.175 769.657 358.582 768.486 360.642C766.894 363.442 764.269 364.524 761.298 365.304C759.671 365.168 758.074 364.91 756.543 364.315C753.498 363.13 750.796 360.691 749.627 357.608C748.708 355.187 748.81 352.58 749.97 350.258C751.656 346.883 754.683 345.271 758.105 344.093Z" fill="#FDFCFC"/>
<path d="M687.363 351.384L706.4 345.927C702.803 350.977 700.669 355.752 699.077 361.734C695.117 361.99 691.154 362.19 687.188 362.333L687.363 351.384Z" fill="#CDC8D8"/>
<path d="M453.751 315.385C446.703 314.368 439.631 312.516 432.483 312.875C431.564 312.921 430.894 312.858 430 312.568C430.683 311.102 431.664 309.966 432.86 308.889C457.353 286.833 527.855 317.162 554.753 325.435C577.655 332.479 601.924 340.055 625.947 341.57C632.803 330.892 632.498 321.003 632.318 308.728C634.516 313.035 636.607 317.574 637.846 322.258C640.226 331.252 638.742 339.123 634.087 347.052C634.634 351.083 632.556 356.102 630.162 359.263C626.999 363.441 622.506 366.084 617.285 366.664C614.33 366.993 610.606 366.768 607.73 365.954C605.962 378.773 602.336 390.847 595.193 401.758C584.227 418.508 567.489 428.746 548.044 432.724C523.842 437.675 496.209 434.508 475.42 420.687C474.879 420.334 474.342 419.975 473.809 419.61C473.276 419.244 472.748 418.872 472.225 418.493C471.702 418.114 471.183 417.728 470.669 417.337C470.155 416.945 469.646 416.547 469.142 416.143C468.638 415.739 468.139 415.329 467.645 414.912C467.151 414.495 466.662 414.073 466.179 413.644C465.696 413.216 465.218 412.782 464.745 412.341C464.272 411.901 463.805 411.455 463.343 411.003C462.881 410.551 462.425 410.093 461.975 409.63C461.524 409.167 461.08 408.698 460.641 408.224C460.202 407.75 459.769 407.271 459.342 406.786C458.915 406.301 458.494 405.81 458.079 405.315C457.664 404.82 457.255 404.32 456.852 403.815C456.45 403.31 456.054 402.799 455.664 402.284C455.274 401.769 454.89 401.249 454.513 400.724C454.136 400.199 453.765 399.67 453.401 399.137C453.037 398.603 452.68 398.065 452.329 397.522C451.978 396.98 451.633 396.433 451.296 395.882C450.959 395.331 450.628 394.776 450.305 394.217C449.982 393.658 449.665 393.094 449.355 392.527C449.045 391.96 448.742 391.39 448.447 390.815C448.152 390.24 447.863 389.662 447.582 389.081C447.301 388.499 447.026 387.914 446.759 387.326C446.492 386.737 446.233 386.146 445.981 385.551C445.728 384.956 445.483 384.358 445.246 383.757C445.009 383.156 444.779 382.553 444.556 381.946C444.333 381.339 444.118 380.73 443.91 380.119C443.703 379.507 443.503 378.893 443.31 378.276C443.118 377.659 442.933 377.04 442.756 376.419C442.579 375.798 442.409 375.174 442.247 374.548C442.086 373.923 441.932 373.295 441.785 372.666C441.639 372.037 441.501 371.406 441.37 370.773C437.567 351.424 442.812 331.502 453.751 315.385Z" fill="#261E41"/>
<path d="M634.087 347.052C634.634 351.083 632.556 356.102 630.162 359.263C626.999 363.441 622.506 366.084 617.285 366.664C614.33 366.993 610.606 366.768 607.73 365.954C608.148 362.122 608.283 358.298 608.415 354.447C611.392 354.692 614.461 355.027 617.45 354.969C624.852 354.824 629.093 352.2 634.087 347.052Z" fill="#533583"/>
<path d="M463.62 317.158C485.535 320.051 505.881 324.79 526.956 331.508C521.712 333.402 517.326 335.523 512.784 338.756C503.805 346.389 497.978 355.986 497.057 367.911C496.213 378.836 499.878 390.308 507.125 398.557C507.588 399.074 508.063 399.578 508.551 400.071C509.039 400.564 509.539 401.044 510.05 401.512C510.562 401.98 511.085 402.435 511.62 402.877C512.154 403.319 512.699 403.747 513.255 404.162C513.81 404.577 514.376 404.978 514.951 405.365C515.527 405.752 516.112 406.124 516.706 406.482C517.3 406.84 517.903 407.183 518.514 407.51C519.125 407.838 519.743 408.151 520.37 408.448C520.997 408.745 521.63 409.026 522.271 409.292C522.912 409.557 523.558 409.807 524.211 410.04C524.864 410.273 525.523 410.49 526.186 410.691C526.85 410.892 527.519 411.077 528.192 411.244C528.865 411.411 529.541 411.562 530.222 411.696C530.902 411.83 531.585 411.947 532.271 412.047C532.958 412.147 533.646 412.23 534.336 412.295C535.027 412.361 535.718 412.41 536.411 412.441C537.095 412.478 537.78 412.499 538.465 412.502C539.15 412.505 539.835 412.491 540.52 412.461C541.205 412.43 541.888 412.383 542.571 412.319C543.253 412.254 543.933 412.173 544.611 412.075C545.29 411.978 545.965 411.863 546.638 411.732C547.311 411.601 547.98 411.453 548.645 411.289C549.31 411.125 549.971 410.945 550.628 410.748C551.284 410.551 551.935 410.338 552.581 410.109C553.227 409.88 553.867 409.636 554.501 409.375C555.135 409.114 555.762 408.838 556.382 408.547C557.002 408.256 557.615 407.949 558.22 407.627C558.825 407.306 559.422 406.969 560.01 406.618C560.599 406.267 561.178 405.901 561.749 405.522C562.32 405.142 562.88 404.748 563.431 404.341C563.982 403.934 564.523 403.513 565.053 403.079C565.584 402.645 566.103 402.198 566.611 401.738C567.08 401.313 567.537 400.876 567.984 400.428C568.431 399.98 568.866 399.521 569.289 399.05C569.712 398.58 570.124 398.099 570.523 397.608C570.922 397.117 571.308 396.616 571.682 396.105C572.055 395.594 572.416 395.075 572.764 394.546C573.111 394.017 573.444 393.479 573.765 392.934C574.085 392.388 574.391 391.834 574.683 391.273C574.975 390.712 575.253 390.143 575.516 389.567C575.779 388.992 576.028 388.41 576.261 387.822C576.495 387.234 576.714 386.64 576.918 386.041C577.121 385.442 577.31 384.839 577.483 384.23C577.656 383.621 577.814 383.009 577.956 382.392C578.098 381.775 578.224 381.155 578.335 380.532C578.446 379.909 578.541 379.284 578.62 378.656C578.699 378.028 578.762 377.398 578.809 376.767C578.856 376.136 578.887 375.505 578.902 374.872C578.939 373.699 578.928 372.526 578.868 371.353C578.808 370.18 578.7 369.012 578.543 367.848C578.386 366.685 578.182 365.53 577.929 364.383C577.676 363.236 577.377 362.102 577.03 360.98C573.569 353.602 569.864 348.796 563.346 343.861C575.209 346.699 587.265 350.084 599.343 351.8C599.251 356.147 599.572 361.302 598.648 365.526C598.399 367.465 598.076 369.392 597.679 371.307C597.282 373.222 596.812 375.118 596.269 376.997C595.726 378.875 595.111 380.73 594.425 382.561C593.738 384.392 592.983 386.194 592.158 387.967C585.104 403.042 572.552 414.94 556.815 420.531C536.709 427.674 508.363 427.262 489.068 417.897C488.004 417.372 486.953 416.821 485.915 416.245C484.878 415.669 483.855 415.068 482.847 414.441C481.838 413.816 480.846 413.166 479.869 412.491C478.892 411.817 477.933 411.12 476.99 410.399C476.047 409.678 475.123 408.934 474.216 408.169C473.309 407.403 472.422 406.616 471.553 405.807C470.685 404.998 469.837 404.168 469.008 403.318C468.18 402.468 467.373 401.598 466.587 400.709C465.802 399.82 465.038 398.912 464.296 397.985C463.555 397.058 462.836 396.114 462.14 395.153C461.444 394.192 460.772 393.214 460.124 392.22C459.475 391.225 458.852 390.216 458.253 389.192C457.654 388.167 457.08 387.129 456.531 386.077C455.982 385.024 455.459 383.959 454.962 382.882C454.465 381.804 453.994 380.715 453.55 379.614C453.106 378.513 452.689 377.403 452.299 376.282C447.025 360.802 449.079 343.198 456.296 328.723C458.443 324.72 460.765 320.704 463.62 317.158Z" fill="#FDFCFC"/>
<path d="M463.62 317.158C485.535 320.051 505.881 324.79 526.956 331.508C521.712 333.402 517.326 335.523 512.784 338.756C509.407 336.915 504.353 336.457 500.548 335.785C491.39 334.195 482.209 332.756 473.004 331.468C467.476 330.666 461.676 330.204 456.296 328.723C458.443 324.72 460.765 320.704 463.62 317.158Z" fill="#CDC8D8"/>
<path d="M563.346 343.861C575.209 346.699 587.265 350.084 599.343 351.8C599.251 356.147 599.572 361.302 598.648 365.526L598.361 364.192C598.229 364.116 598.103 364.028 597.965 363.964C595.732 362.931 578.985 360.387 577.03 360.98C573.569 353.602 569.864 348.796 563.346 343.861Z" fill="#CDC8D8"/>
<path d="M559.335 350.18C560.888 349.999 562.625 349.803 564.161 350.161C566.548 350.718 568.71 352.48 569.847 354.633C571.237 357.264 571.289 360.454 570.265 363.216C568.96 366.74 566.672 368.476 563.33 369.924C561.889 369.935 560.511 369.89 559.133 369.423C556.502 368.532 554.203 366.432 552.979 363.953C551.779 361.524 551.525 358.702 552.46 356.14C553.681 352.792 556.24 351.519 559.335 350.18Z" fill="#FDFCFC"/>
<defs>
<linearGradient id="paint0_linear_37_58" x1="53.9736" y1="653.739" x2="736.095" y2="147.706" gradientUnits="userSpaceOnUse">
<stop stop-color="#50307F"/>
<stop offset="1" stop-color="#8156B0"/>
</linearGradient>
</defs>
</svg>
