<svg width="55" height="55" viewBox="0 0 55 55" fill="none" xmlns="http://www.w3.org/2000/svg">
<path fill-rule="evenodd" clip-rule="evenodd" d="M42.5538 16.0977L43.2917 17.0541L36.7981 17.4064L37.4376 16.3997L42.5538 16.0977ZM36.011 10.3596L35.2731 11.3663L23.9584 11.92L23.2697 10.9636L36.011 10.3596ZM11.9058 3.31287L13.3816 2.50752C19.1209 -0.478965 25.5162 -0.797747 32.5674 1.55117C37.0933 3.0612 40.7336 5.02422 43.4885 7.44026C49.0639 12.3394 52.6223 18.044 54.1637 24.5538L54.1145 24.6042L54.2621 24.8558L54.3113 25.0572L54.9016 29.9899C54.9344 35.2918 52.8682 39.6037 48.7031 42.9258C44.2428 46.5498 38.9463 48.1102 32.8134 47.6068L31.5343 47.4558C28.8122 47.1203 26.1721 46.4324 23.614 45.3921C20.2688 44.0499 17.0876 42.1036 14.0703 39.5534C12.1026 37.9427 10.4135 36.1978 9.00331 34.3186C6.90435 31.4664 5.47772 28.3289 4.72341 24.9062C4.32985 23.2955 4.10028 21.6177 4.03468 19.8728C3.70672 12.3898 6.33042 6.8698 11.9058 3.31287ZM43.1934 39.201C44.8004 38.4964 46.2926 37.5568 47.67 36.3823C51.9991 32.8589 53.4422 28.2282 51.9991 22.4901C50.6545 17.3225 47.4569 12.524 42.4063 8.0946C39.9137 5.91346 36.5849 4.06788 32.4198 2.55786C25.9918 0.208934 20.3344 0.309602 15.4478 2.85986C9.9708 5.74568 7.67506 10.863 8.56056 18.2117C9.38047 25.3592 12.5945 30.9798 18.2026 35.0736C22.9253 38.4964 27.9103 40.3923 33.1577 40.7614L35.8634 40.8117L35.9126 41.0634L42.2587 40.4091L43.1934 39.201ZM26.4673 35.8287L27.156 34.671L36.2078 33.2616L35.4699 34.369L26.4673 35.8287Z" fill="#CEB226"/>
<path fill-rule="evenodd" clip-rule="evenodd" d="M43.2918 17.0541L42.5538 16.0977L38.1755 7.18859L30.1077 7.59126L29.0254 3.2122L24.2044 3.61487L23.0237 3.31286L29.3698 2.80952L30.4028 7.18859L38.3723 6.78591L43.2918 17.0541ZM37.4376 16.3997L36.7981 17.4064L35.2731 11.3663L36.011 10.3596L37.4376 16.3997ZM39.9957 24.7048L40.6845 23.8492L42.849 29.0839L30.7964 30.3422L28.4351 25.1578L23.7124 25.2585L22.5809 24.8055L28.5827 24.7552L30.9932 29.7886L40.2909 28.9329L41.6683 28.7819L39.9957 24.7048ZM17.3172 7.69193L16.1857 7.33959L23.5648 7.23892L25.0407 7.18859L26.2705 7.49059L17.3172 7.69193ZM54.9016 29.9899L55 31.2986L54.6064 34.671C53.9833 37.4561 52.7371 39.956 50.8677 42.1707C48.0144 45.6606 44.3084 47.8753 39.7498 48.8148L32.1738 49.6202L32.8134 47.6068C38.9463 48.1102 44.2428 46.5498 48.7031 42.9258C52.8682 39.6037 54.9344 35.2918 54.9016 29.9899ZM6.15004 8.14493L6.78957 7.33959L7.57668 6.48391L11.4138 3.56454L11.9058 3.31286C6.33042 6.8698 3.70673 12.3898 4.03469 19.8728C4.10028 21.6177 4.32986 23.2955 4.72341 24.9062L3.24758 26.1645C2.98521 25.2585 2.85403 24.4028 2.85403 23.5975C2.2309 17.2218 3.32957 12.071 6.15004 8.14493ZM41.3732 35.0736L43.1934 39.201L42.5046 38.295L40.2417 33.0603L49.0475 32.4059L44.7676 22.1378L24.9915 16.3494L23.2697 10.9636L23.9584 11.92L24.3519 13.128L25.3358 16.0977L45.0136 21.9365L49.8346 33.3119L40.9304 34.0166L41.3732 35.0736Z" fill="#EDD86D"/>
<path fill-rule="evenodd" clip-rule="evenodd" d="M36.7981 17.4064L43.2918 17.0541L42.4063 18.2621L35.8634 18.6647L36.7981 17.4064ZM35.2731 11.3663L34.4368 12.6247L24.3519 13.128L23.9584 11.92L35.2731 11.3663ZM20.7608 19.8224L39.9957 24.7048L39.061 25.9128L19.9245 21.0808L20.7608 19.8224ZM43.1934 39.201L42.2587 40.4091L35.9126 41.0634L36.8965 39.8554L43.1934 39.201ZM34.5352 35.577L25.5818 37.0367L26.4673 35.8287L35.4699 34.369L34.5352 35.577ZM49.8346 33.3119L48.8507 34.52L41.3732 35.0736L40.9304 34.0166L49.8346 33.3119Z" fill="#5F5312"/>
<path fill-rule="evenodd" clip-rule="evenodd" d="M35.2731 11.3663L36.7981 17.4064L35.8634 18.6647L34.4368 12.6247L35.2731 11.3663ZM16.1857 7.33959L20.7608 19.8224L19.9245 21.0808L15.3986 8.64827L16.1857 7.33959ZM39.9957 24.7048L41.6683 28.7819L40.2909 28.9329L39.061 25.9128L39.9957 24.7048ZM54.6064 34.671C54.0161 38.597 52.1467 42.3553 48.9983 45.9458C45.0628 50.3752 40.7828 53.0597 36.1586 53.9992C31.9279 54.8717 28.6154 55.1737 26.2213 54.9053L30.5996 49.5698L32.1738 49.6202L39.7498 48.8148C44.3084 47.8753 48.0144 45.6606 50.8677 42.1707C52.7371 39.956 53.9833 37.4561 54.6064 34.671ZM1.03384 33.3623L0.394311 29.8389L0.000756836 26.4162C-0.0320394 21.6848 1.00104 17.2218 3.1 13.0273C4.08388 10.9133 5.10057 9.28584 6.15005 8.14493C3.32957 12.071 2.2309 17.2218 2.85403 23.5975C2.85403 24.4028 2.98521 25.2585 3.24758 26.1645L3.73952 27.8255L1.03384 33.3623ZM35.9126 41.0634L35.8634 40.8117L34.5352 35.577L35.4699 34.369L36.8965 39.8554L35.9126 41.0634ZM25.5818 37.0367L21.6954 26.1142L22.5809 24.8055L26.4673 35.8287L25.5818 37.0367ZM23.5648 7.23892L22.1382 4.62155L23.0237 3.31287L25.0407 7.18859L23.5648 7.23892Z" fill="#8B7A1A"/>
<path fill-rule="evenodd" clip-rule="evenodd" d="M42.5538 16.0977L37.4376 16.3997L36.011 10.3596L23.2697 10.9636L24.9915 16.3494L44.7676 22.1378L49.0475 32.4059L40.2417 33.0603L42.5047 38.295L37.6836 38.7984L36.2078 33.2616L27.156 34.671L23.7124 25.2585L28.4351 25.1578L30.7964 30.3422L42.849 29.0839L40.6845 23.8492L21.4987 18.9668L17.3172 7.69193L26.2705 7.49059L24.2044 3.61487L29.0254 3.2122L30.1077 7.59126L38.1756 7.18859L42.5538 16.0977ZM18.793 52.9926C12.3977 49.9054 7.70787 45.8787 4.72342 40.9124L7.62588 35.728C11.4302 41.399 16.2677 45.3753 22.1382 47.6571L18.793 52.9926Z" fill="#BDA623"/>
<path fill-rule="evenodd" clip-rule="evenodd" d="M43.2918 17.0541L38.3723 6.78591L30.4029 7.18859L29.3698 2.80952L23.0237 3.31286L22.1382 4.62155L23.5648 7.23892L16.1857 7.33959L15.3986 8.64827L19.9245 21.0808L39.0611 25.9128L40.2909 28.9329L30.9932 29.7886L28.5827 24.7552L22.581 24.8055L21.6955 26.1142L25.5818 37.0367L34.5352 35.577L35.8634 40.8117L33.1577 40.7614C27.9103 40.3923 22.9253 38.4964 18.2027 35.0736C12.5945 30.9798 9.38048 25.3592 8.56057 18.2117C7.67508 10.863 9.97081 5.74568 15.4478 2.85986C20.3344 0.3096 25.9918 0.208932 32.4198 2.55785C36.5849 4.06787 39.9138 5.91346 42.4063 8.0946C47.4569 12.524 50.6545 17.3225 51.9992 22.4901C53.4422 28.2282 51.9992 32.8589 47.6701 36.3823C46.2926 37.5568 44.8004 38.4964 43.1934 39.201L41.3732 35.0736L48.8507 34.52L49.8346 33.3119L45.0136 21.9365L25.3358 16.0977L24.352 13.128L34.4368 12.6247L35.8634 18.6647L42.4063 18.2621L43.2918 17.0541ZM26.2213 54.9053C23.696 54.6704 21.2199 54.0328 18.793 52.9926L22.1382 47.6571L22.4826 47.7578C24.9751 48.7309 27.6808 49.335 30.5996 49.5698L26.2213 54.9053ZM4.72342 40.9124L2.50967 37.1877C1.85375 35.879 1.36181 34.6039 1.03384 33.3623L3.73953 27.8255C4.52664 30.4765 5.80569 33.0938 7.57669 35.6777L7.62588 35.728L4.72342 40.9124Z" fill="#AB9620"/>
<path fill-rule="evenodd" clip-rule="evenodd" d="M40.6845 23.8492L39.9957 24.7048L20.7608 19.8224L16.1857 7.33959L17.3172 7.69193L21.4987 18.9668L40.6845 23.8492ZM22.581 24.8055L23.7124 25.2585L27.156 34.671L26.4673 35.8287L22.581 24.8055ZM4.72342 24.9062C5.47773 28.3289 6.90437 31.4664 9.00332 34.3186L7.67508 35.577L7.57669 35.6777C5.80569 33.0938 4.52664 30.4765 3.73953 27.8255L3.24759 26.1645L4.72342 24.9062ZM23.614 45.3921C26.1721 46.4324 28.8122 47.1203 31.5343 47.4558L32.8134 47.6068L32.1738 49.6202L30.5996 49.5698C27.6808 49.335 24.9751 48.7309 22.4826 47.7578L23.614 45.3921ZM42.5047 38.295L43.1934 39.201L36.8965 39.8554L37.6836 38.7984L42.5047 38.295Z" fill="#FFEC8E"/>
<path fill-rule="evenodd" clip-rule="evenodd" d="M23.0237 3.31287L24.2044 3.61487L26.2705 7.49059L25.0407 7.18859L23.0237 3.31287ZM9.00331 34.3186C10.4135 36.1978 12.1026 37.9427 14.0703 39.5534C17.0876 42.1036 20.2688 44.0499 23.614 45.3921L22.4826 47.7578L22.1382 47.6572C16.2677 45.3753 11.4302 41.399 7.62587 35.728L7.57668 35.6777L7.67506 35.577L9.00331 34.3186ZM37.6836 38.7984L36.8965 39.8554L35.4698 34.369L36.2078 33.2616L37.6836 38.7984Z" fill="#FFFFBF"/>
</svg>
