<svg width="491" height="450" viewBox="0 0 491 450" fill="none" xmlns="http://www.w3.org/2000/svg">
<path d="M118.613 0.727345C160.315 1.46721 201.965 -0.738989 243.682 0.84075L336.616 0.769745L362.264 0.751283C365.888 0.749457 370.268 0.28144 373.788 0.927171C374.133 1.27002 374.499 1.60536 374.819 1.9687C378.234 5.07503 381.197 8.98127 384.226 12.4481L403.442 34.6612L464.588 105.132C470.36 111.716 476.041 118.328 481.963 124.796C484.235 127.279 486.503 130.116 489.043 132.347C489.642 132.923 490.253 133.448 490.653 134.173C475.816 154.693 460.542 174.945 445.479 195.317C440.164 202.517 434.797 209.682 429.377 216.811C427.077 219.886 424.85 223.587 422.212 226.374C385.208 275.802 347.387 324.663 308.748 372.957L268.682 422.394C264.27 427.8 259.818 433.176 255.325 438.524C252.29 442.113 248.971 445.659 246.207 449.438L245.884 449.761L245.446 449.718L244.898 448.905C209.487 405.211 174.483 361.226 139.885 316.951C125.334 298.377 110.909 279.716 96.6118 260.965C88.2107 250.051 79.4448 239.268 71.4491 228.086C68.8037 225.199 66.6023 221.753 64.1962 218.667C57.3081 209.832 50.6414 200.887 43.9108 191.949C30.4769 174.107 16.4468 156.658 3.2616 138.647C2.49294 137.597 0.815258 135.767 0.727814 134.516C4.68645 129.738 8.97156 124.951 13.3539 120.518C14.9036 117.872 20.974 111.816 23.4787 109.038C29.6233 102.158 35.7084 95.2307 41.734 88.2567C59.9989 67.0116 78.3838 45.8596 96.8888 24.8006C103.697 17.1264 110.2 8.99121 117.382 1.64005C117.822 1.06959 117.926 1.00893 118.613 0.727345Z" fill="url(#paint0_linear_212_95)"/>
<path d="M118.613 0.727345C160.315 1.46721 201.965 -0.73899 243.682 0.84075L336.616 0.769745L362.264 0.751283C365.888 0.749457 370.268 0.28144 373.788 0.927171C374.133 1.27002 374.499 1.60536 374.819 1.9687C378.234 5.07503 381.197 8.98127 384.226 12.4481L403.442 34.6612L464.588 105.132C470.36 111.716 476.041 118.328 481.963 124.796C484.235 127.279 486.503 130.116 489.043 132.347C489.642 132.923 490.253 133.448 490.653 134.173C487.055 134.446 481.328 133.639 478.256 134.245C469.256 133.645 460.018 133.787 450.991 133.741C446.72 133.234 442.127 133.418 437.815 133.317C430.239 133.127 422.664 132.897 415.09 132.627L414.176 132.56L414.479 131.933C414.306 129.962 411.044 126.721 409.797 125.146L409.452 124.794C407.753 124.818 405.911 124.897 404.234 124.635C398.466 124.729 392.625 124.439 386.855 124.318L361.753 123.839C356.277 123.696 350.59 123.119 345.135 123.412L344.144 123.153C337.47 123.008 330.795 122.905 324.119 122.844C309.128 122.671 294.137 122.713 279.149 122.97C267.276 123.154 255.35 123.648 243.479 123.577C239.611 123.411 235.686 123.546 231.813 123.558L209.717 123.61L149.454 123.561C149.373 125.334 148.28 127.493 147.343 129.03L146.865 129.141C146.609 129.784 146.408 130.554 145.91 131.067C126.607 131.411 107.265 131.094 87.9555 131.223L87.3345 131.355C85.7462 132.138 81.2057 131.834 79.3467 131.911L79.0069 131.832C73.2143 132.68 66.8426 132.565 60.9628 132.829C47.7751 133.419 34.5816 133.846 21.3823 134.112C15.8554 134.217 6.02583 133.9 1.10451 134.827L0.727814 134.516C4.68645 129.738 8.97156 124.951 13.3539 120.518C14.9036 117.872 20.974 111.816 23.4787 109.038C29.6233 102.158 35.7084 95.2307 41.734 88.2567C59.9989 67.0116 78.3838 45.8596 96.8888 24.8006C103.697 17.1264 110.2 8.99121 117.382 1.64005C117.822 1.06959 117.926 1.00893 118.613 0.727345Z" fill="#94D1ED"/>
<path d="M243.682 0.840756L336.616 0.76975L362.264 0.751289C365.888 0.749463 370.268 0.281445 373.788 0.927177C374.133 1.27003 374.499 1.60537 374.819 1.96871C378.234 5.07503 381.197 8.98127 384.226 12.4481L403.442 34.6612L464.588 105.132C470.36 111.716 476.041 118.328 481.963 124.796C484.235 127.279 486.503 130.116 489.043 132.347C489.642 132.923 490.253 133.448 490.653 134.173C487.055 134.446 481.328 133.639 478.256 134.245C469.256 133.645 460.018 133.787 450.991 133.741C446.72 133.234 442.127 133.418 437.815 133.317C430.239 133.127 422.664 132.897 415.09 132.627L414.176 132.56L414.479 131.933C414.306 129.962 411.044 126.721 409.797 125.146L409.452 124.794C407.753 124.818 405.911 124.897 404.234 124.635C398.466 124.729 392.625 124.439 386.855 124.318L361.753 123.839C356.277 123.696 350.59 123.119 345.135 123.412L344.144 123.153L343.541 121.513L342.932 120.184C341.618 118.163 340.772 115.565 339.805 113.363L333.58 99.0743C326.009 81.1008 318.281 63.1879 310.397 45.3356C309.816 44.4373 309.176 43.7471 308.271 43.1363L307.822 42.9872L306.961 42.8443L307.085 42.8888L306.265 42.7192C306.584 42.4378 306.431 42.5285 306.84 42.3473C306.937 42.3041 307.036 42.2645 307.134 42.2232C306.858 41.7687 306.726 41.6965 306.267 41.4336C302.665 39.3761 299.368 37.1184 295.868 34.9369C284.701 27.9247 273.647 20.7588 262.703 13.4393C258.45 10.6511 254.223 7.80098 249.904 5.10506C248.227 4.05805 245.998 3.13824 244.465 1.96363C244.195 1.75691 244.029 1.3743 243.872 1.08785L243.682 0.840756Z" fill="#366DAA"/>
<path d="M374.819 1.96872C378.234 5.07505 381.197 8.98128 384.226 12.4481L403.442 34.6612L464.588 105.132C470.36 111.716 476.041 118.328 481.963 124.796C484.235 127.279 486.503 130.117 489.043 132.347C489.642 132.923 490.253 133.448 490.653 134.173C487.055 134.446 481.328 133.639 478.256 134.245C469.256 133.645 460.018 133.787 450.991 133.741C446.72 133.234 442.127 133.418 437.815 133.317C430.239 133.127 422.664 132.897 415.09 132.627L414.176 132.56L414.479 131.933C414.306 129.962 411.044 126.721 409.797 125.146L409.452 124.794C408.77 123.704 408.065 122.669 407.718 121.432C407.231 117.546 404.671 111.359 403.505 107.348C400.768 97.9431 398.385 88.459 395.545 79.0692C387.993 53.7304 380.782 28.3052 373.912 2.79358C374.212 2.60552 374.413 2.46068 374.643 2.19066C374.704 2.11864 374.761 2.04256 374.819 1.96872Z" fill="#29578A"/>
<path d="M409.797 125.146C418.3 125.142 426.918 125.866 435.399 126.465C446.352 127.239 457.531 128.017 468.387 129.646C474.263 130.528 480.124 132.666 486.008 133.271C487.459 133.42 487.855 132.568 489.043 132.347C489.642 132.923 490.253 133.448 490.653 134.173C487.055 134.446 481.328 133.639 478.256 134.245C469.256 133.645 460.018 133.787 450.991 133.741C446.72 133.234 442.127 133.418 437.815 133.317C430.239 133.127 422.664 132.897 415.09 132.627L414.176 132.56L414.479 131.933C414.306 129.962 411.044 126.721 409.797 125.146Z" fill="#366DAA"/>
<path d="M243.682 0.840756L336.616 0.76975L362.264 0.751289C365.888 0.749463 370.268 0.281445 373.788 0.927177C373.299 1.38181 372.988 1.47533 372.324 1.63783C370.117 2.17766 367.837 3.47318 365.9 4.58794C361.815 6.93676 357.899 9.66535 353.918 12.1797C344.323 18.1543 334.814 24.2499 325.392 30.4663C320.938 33.3513 311.192 38.7517 307.81 41.9736C307.666 42.4548 307.668 42.5092 307.822 42.9872L306.961 42.8443L307.085 42.8888L306.265 42.7192C306.584 42.4378 306.431 42.5285 306.84 42.3473C306.937 42.3041 307.036 42.2645 307.134 42.2232C306.858 41.7687 306.726 41.6965 306.267 41.4336C302.665 39.3761 299.368 37.1184 295.868 34.9369C284.701 27.9247 273.647 20.7588 262.703 13.4393C258.45 10.6511 254.223 7.80098 249.904 5.10506C248.227 4.05805 245.998 3.13824 244.465 1.96363C244.195 1.75691 244.029 1.3743 243.872 1.08785L243.682 0.840756Z" fill="#4588C2"/>
<path d="M310.397 45.3356C310.799 45.4263 311.136 45.4869 311.483 45.7135C313.539 47.0565 315.432 49.046 317.342 50.5947L333.461 63.6569C341.105 69.791 349.057 75.6103 356.807 81.6286L391.523 108.899C393.943 110.778 405.834 120.979 407.223 121.3C407.389 121.338 407.552 121.388 407.718 121.432C408.065 122.669 408.77 123.704 409.452 124.794C407.753 124.818 405.911 124.897 404.234 124.635C398.466 124.729 392.625 124.439 386.855 124.318L361.753 123.839C356.277 123.696 350.59 123.119 345.135 123.412L344.144 123.153L343.541 121.513L342.932 120.184C341.618 118.163 340.772 115.565 339.805 113.363L333.58 99.0743C326.009 81.1008 318.281 63.1879 310.397 45.3356Z" fill="#559DCC"/>
<path d="M342.932 120.184L343.419 119.867C343.736 120.187 343.973 120.468 344.227 120.835C344.79 121.644 346.052 122.286 347.033 122.496C349.705 123.067 356.064 122.841 359.125 122.888L390.771 123.477C396.225 123.574 403.404 123.022 408.593 124.225L409.48 124.427C407.785 124.543 405.877 124.372 404.234 124.635C398.466 124.729 392.625 124.439 386.855 124.318L361.753 123.839C356.277 123.696 350.59 123.119 345.135 123.412L344.144 123.153L343.541 121.513L342.932 120.184Z" fill="#4588C2"/>
<path d="M117.382 1.64006C117.822 1.0696 117.926 1.00894 118.613 0.727356C120.574 1.56257 122.432 2.92706 124.232 4.04467C127.709 6.21902 131.202 8.37078 134.71 10.5C141.9 14.8054 149.397 18.6344 156.605 22.9127C162.215 26.2426 167.551 29.9798 172.991 33.5495C174.408 34.4795 178.106 36.473 179.01 37.6986C180.26 38.5482 181.62 39.6603 182.979 40.3239C183.622 40.7702 184.944 41.4514 185.319 42.0773C185.484 42.355 185.628 42.6545 185.843 42.8993C182.493 52.4469 177.836 61.644 173.566 70.8398L154.705 111.803C153.905 113.559 149.516 122.185 149.454 123.561C149.373 125.334 148.28 127.493 147.343 129.03L146.865 129.141C146.609 129.784 146.408 130.554 145.91 131.067C126.607 131.411 107.265 131.094 87.9555 131.223L87.3345 131.355C85.7462 132.138 81.2057 131.834 79.3467 131.911L79.0069 131.832C73.2143 132.68 66.8426 132.565 60.9628 132.829C47.7751 133.419 34.5816 133.846 21.3823 134.112C15.8554 134.217 6.02583 133.9 1.10451 134.827L0.727814 134.516C4.68645 129.738 8.97156 124.951 13.3539 120.518C14.9036 117.872 20.974 111.816 23.4787 109.038C29.6233 102.158 35.7084 95.2307 41.734 88.2567C59.9989 67.0116 78.3838 45.8596 96.8888 24.8006C103.697 17.1265 110.2 8.99122 117.382 1.64006Z" fill="#94D1ED"/>
<path d="M13.3539 120.518C14.9036 117.872 20.974 111.816 23.4787 109.038C29.6233 102.158 35.7084 95.2307 41.734 88.2568C59.9989 67.0117 78.3838 45.8596 96.8888 24.8006C103.697 17.1265 110.2 8.99123 117.382 1.64008C117.028 5.73823 115.825 9.93416 114.894 13.9558C112.412 24.6813 109.402 35.2362 106.319 45.8166L91.4263 98.1572C89.9545 103.327 84.9357 118.732 84.7684 123.419L84.7323 123.898L84.2344 124.31L83.7616 125.312C82.4058 126.676 79.2929 129.982 79.0069 131.832C73.2143 132.68 66.8426 132.565 60.9628 132.829C47.7751 133.419 34.5816 133.846 21.3823 134.112C15.8554 134.217 6.02583 133.9 1.10451 134.827L0.727814 134.516C4.68645 129.738 8.97156 124.951 13.3539 120.518Z" fill="#559DCC"/>
<path d="M13.3539 120.518L13.6181 121.05C11.4944 123.945 8.78762 126.684 6.33605 129.346C5.15017 130.633 3.77323 131.85 2.88417 133.343C11.9932 133.153 20.9232 130.406 29.8857 129.028C40.6151 127.378 51.6464 127.41 62.4674 126.476C66.5982 126.121 70.7192 125.683 74.8304 125.162C77.9099 124.792 81.1307 124.225 84.2344 124.31L83.7616 125.312C82.4058 126.676 79.2929 129.982 79.0069 131.832C73.2143 132.68 66.8426 132.565 60.9628 132.829C47.7751 133.419 34.5816 133.846 21.3823 134.112C15.8554 134.217 6.02583 133.9 1.10451 134.827L0.727814 134.516C4.68645 129.738 8.97156 124.951 13.3539 120.518Z" fill="#5FAAD6"/>
<path d="M179.01 37.6986C180.26 38.5482 181.62 39.6603 182.979 40.3239C183.622 40.7702 184.944 41.4515 185.319 42.0773C185.484 42.355 185.628 42.6545 185.843 42.8993C182.493 52.4469 177.836 61.644 173.566 70.8398L154.705 111.803C153.906 113.559 149.516 122.185 149.454 123.561C149.374 125.334 148.28 127.493 147.343 129.03L146.865 129.141C146.609 129.784 146.408 130.554 145.91 131.067C126.607 131.411 107.265 131.094 87.9555 131.223L87.3345 131.355C85.7462 132.138 81.2057 131.834 79.3467 131.911L79.0069 131.832C79.2929 129.982 82.4058 126.676 83.7616 125.312L84.2344 124.31L84.7323 123.898L84.7684 123.419C85.2264 122.884 85.559 122.94 86.2566 122.804C92.6877 116.864 99.7789 111.29 106.624 105.772L134.018 83.794C150.833 70.1522 167.562 56.4154 184.203 42.5837C182.662 40.823 180.579 39.6772 178.888 38.0674L179.01 37.6986Z" fill="#BAE6FA"/>
<path d="M142.801 123.616C144.962 123.708 147.071 123.655 149.193 123.213C148.413 125.185 147.594 127.151 146.865 129.141C146.609 129.784 146.408 130.554 145.91 131.067C126.607 131.411 107.265 131.094 87.9555 131.223L87.3345 131.355C85.7462 132.138 81.2057 131.834 79.3467 131.911L79.0069 131.832C79.2929 129.982 82.4058 126.676 83.7616 125.312L84.2344 124.31L84.7323 123.898C85.9725 123.725 87.5312 123.922 88.8103 123.922C92.2105 123.927 95.6106 123.911 99.0106 123.872L142.801 123.616Z" fill="#D7F4FD"/>
<path d="M118.613 0.727345C160.315 1.46721 201.965 -0.73899 243.682 0.84075L243.872 1.08785C244.029 1.3743 244.195 1.7569 244.465 1.96363C245.998 3.13824 248.227 4.05805 249.904 5.10505C254.223 7.80098 258.45 10.6511 262.703 13.4393C273.647 20.7588 284.701 27.9247 295.868 34.9369C299.368 37.1184 302.665 39.3761 306.267 41.4336C306.726 41.6965 306.858 41.7687 307.134 42.2232C307.036 42.2645 306.937 42.3041 306.84 42.3473C306.431 42.5285 306.584 42.4378 306.265 42.7192L307.085 42.8888L306.961 42.8443L307.822 42.9872L308.271 43.1363L308.395 43.8536C308.208 43.9323 307.997 44.0463 307.796 44.0831L306.025 44.6172L305.65 44.599C303.691 44.4797 300.931 45.2853 299.129 44.559C298.725 44.3959 298.692 43.9678 298.542 43.6051C284.858 43.7759 271.168 43.4988 257.486 43.6256C250.889 43.6864 244.295 43.9551 237.694 43.9778C225.72 44.0188 213.761 43.7552 201.791 43.6061C196.886 43.5451 191.995 43.8347 187.079 43.6639C186.694 43.2665 186.361 43.1138 185.843 42.8993C185.628 42.6545 185.484 42.355 185.319 42.0773C184.944 41.4514 183.622 40.7702 182.979 40.3239C181.62 39.6603 180.26 38.5482 179.01 37.6986C178.106 36.473 174.408 34.4794 172.991 33.5495C167.551 29.9798 162.215 26.2426 156.605 22.9127C149.397 18.6344 141.9 14.8054 134.71 10.4999C131.202 8.37077 127.709 6.21901 124.232 4.04466C122.432 2.92705 120.574 1.56256 118.613 0.727345Z" fill="#559DCC"/>
<path d="M118.613 0.727345C160.315 1.46721 201.965 -0.73899 243.682 0.84075L243.872 1.08785C243.769 1.37795 243.745 1.51955 243.497 1.77253C242.421 2.86802 235.881 6.66714 233.999 7.97017C229.979 10.7521 226.085 13.6811 222.025 16.4152C212.042 23.1371 201.819 29.5501 191.8 36.2195C189.863 37.5085 187.995 39.4723 185.896 40.4535C185.206 40.7761 184.316 40.419 183.632 40.193L182.979 40.3239C181.62 39.6603 180.26 38.5482 179.01 37.6986C178.106 36.473 174.408 34.4794 172.991 33.5495C167.551 29.9798 162.215 26.2426 156.605 22.9127C149.397 18.6344 141.9 14.8054 134.71 10.4999C131.202 8.37077 127.709 6.21901 124.232 4.04466C122.432 2.92705 120.574 1.56256 118.613 0.727345Z" fill="#5FAAD6"/>
<path d="M185.319 42.0773L265.014 43.0971L293.088 43.1444C298.079 43.1235 303.301 42.7835 308.271 43.1363L308.395 43.8536C308.208 43.9323 307.997 44.0463 307.796 44.0831L306.025 44.6172L305.65 44.599C303.691 44.4797 300.931 45.2853 299.129 44.559C298.725 44.3959 298.692 43.9678 298.542 43.6051C284.858 43.7759 271.168 43.4988 257.486 43.6256C250.889 43.6865 244.295 43.9551 237.694 43.9778C225.72 44.0188 213.761 43.7552 201.791 43.6061C196.886 43.5451 191.995 43.8348 187.079 43.6639C186.694 43.2665 186.361 43.1138 185.843 42.8993C185.628 42.6545 185.484 42.355 185.319 42.0773Z" fill="#B9EAF5"/>
<path d="M298.542 43.6051C300.379 43.3544 306.151 42.9413 307.629 43.6341L307.796 44.0831L306.025 44.6172L305.65 44.599C303.691 44.4797 300.931 45.2853 299.129 44.559C298.725 44.3959 298.692 43.9678 298.542 43.6051Z" fill="#D7F4FD"/>
<path d="M308.271 43.1363C309.176 43.7471 309.816 44.4373 310.397 45.3356C318.281 63.1879 326.009 81.1008 333.58 99.0743L339.805 113.363C340.772 115.565 341.618 118.163 342.932 120.184L343.541 121.513L344.144 123.153C337.47 123.008 330.795 122.905 324.119 122.844C309.128 122.671 294.137 122.713 279.149 122.97C267.276 123.154 255.35 123.648 243.479 123.577C243.267 123.136 243.227 122.944 243.314 122.466C258.399 104.213 272.922 85.5724 287.739 67.1259L301.327 50.5298C302.454 49.1491 303.591 47.766 304.669 46.3501C304.964 45.9625 305.138 45.323 305.447 44.9994C305.672 44.7653 305.764 44.7438 306.025 44.6172L307.796 44.0831C307.997 44.0464 308.208 43.9324 308.395 43.8536L308.271 43.1363Z" fill="#5FAAD6"/>
<path d="M343.541 121.513L344.144 123.153C337.47 123.008 330.795 122.905 324.119 122.844C322.93 122.47 321.638 122.577 320.392 122.498C321.334 122.306 322.44 122.218 323.399 122.301C325.234 122.459 341.785 122.388 343.271 122.05L343.541 121.513Z" fill="#5FAAD6"/>
<path d="M187.079 43.664C191.995 43.8348 196.886 43.5451 201.791 43.6061C213.761 43.7552 225.72 44.0188 237.694 43.9778C244.295 43.9551 250.889 43.6865 257.486 43.6256C271.168 43.4988 284.858 43.7759 298.542 43.6051C298.692 43.9679 298.725 44.3959 299.129 44.559C300.931 45.2853 303.691 44.4797 305.65 44.599C303.412 45.1309 300.761 45.127 298.452 45.3435C292.125 45.9693 285.786 46.4668 279.435 46.836C259.948 48.0665 240.441 48.7399 220.912 48.8562C211.954 48.9568 202.633 49.3802 193.706 48.8047C191.288 47.2645 189.108 45.6498 187.079 43.664Z" fill="#BAE6FA"/>
<path d="M387.084 233.487C388.737 232.927 420.911 225.662 421.989 225.773L422.212 226.374C385.208 275.802 347.387 324.663 308.748 372.957L268.682 422.394C264.27 427.8 259.818 433.176 255.325 438.524C252.29 442.113 248.971 445.659 246.207 449.438L245.884 449.761L245.446 449.718L244.898 448.905C209.487 405.211 174.483 361.226 139.885 316.951C125.334 298.377 110.909 279.716 96.6118 260.965C88.2107 250.051 79.4448 239.268 71.4492 228.086C72.335 227.611 73.1264 228.015 74.0757 228.269C78.1428 229.354 109.662 237.357 111.69 236.304C111.861 236.672 111.967 236.949 112.258 237.25C115.399 238.088 177.67 243.212 179.92 242.833L181.321 242.579L182.405 242.782C192.74 242.242 203.23 242.486 213.581 242.484L260.005 242.478C269.886 242.465 279.766 242.547 289.645 242.721C292.932 242.796 296.522 242.516 299.762 243.001L304.154 243.044C305.786 242.975 308.153 243.455 309.621 242.93L309.928 243.815L310.368 243.202C313.383 243.539 317.283 242.63 320.337 242.246C329.865 241.043 339.344 239.571 348.858 238.295C361.168 236.643 373.567 235.609 385.813 233.578L386.374 232.703C386.617 233.219 386.512 233.19 387.084 233.487Z" fill="#5FAAD6"/>
<path d="M387.084 233.487C388.737 232.927 420.911 225.662 421.989 225.773L422.212 226.374C385.208 275.802 347.387 324.663 308.748 372.957L268.682 422.394C264.27 427.8 259.818 433.176 255.325 438.524C252.29 442.113 248.971 445.659 246.207 449.438C246.268 448.53 246.327 447.653 246.524 446.758C247.155 440.904 250.018 432.332 251.724 426.498C253.845 419.237 255.788 411.932 258.2 404.75C258.56 402.288 259.666 399.598 260.405 397.206L266.067 379.053C267.028 376.038 268.394 372.866 268.953 369.77C278.251 339.735 288.246 309.891 297.837 279.939C299.362 274.492 301.429 269.072 303.195 263.684C305.368 257.054 307.321 250.302 309.928 243.815L310.368 243.202C313.383 243.539 317.283 242.63 320.337 242.246C329.865 241.043 339.344 239.571 348.858 238.295C361.168 236.643 373.567 235.609 385.813 233.578L386.374 232.703C386.617 233.219 386.512 233.19 387.084 233.487Z" fill="#2F6198"/>
<path d="M387.084 233.487C388.737 232.927 420.911 225.662 421.989 225.773L422.212 226.374C385.208 275.802 347.387 324.663 308.748 372.957L268.682 422.394C264.27 427.8 259.818 433.176 255.325 438.524C252.29 442.113 248.971 445.659 246.207 449.438C246.268 448.53 246.327 447.653 246.524 446.758L246.961 446.651C247.564 446.02 247.899 445.198 248.278 444.432C249.488 443.375 250.641 441.251 251.622 439.922C262.137 425.656 270.319 409.838 279.459 394.763C281.536 391.339 283.938 388.085 286.088 384.697L311.942 344.859C317.05 337.114 321.738 329.123 326.848 321.39C330.856 315.326 335.225 309.477 339.151 303.359C342.13 298.713 344.763 293.866 347.79 289.253C353.248 280.931 359.133 272.821 364.445 264.408C368.151 258.461 371.901 252.539 375.694 246.641C377.678 243.549 379.623 240.177 381.936 237.302C383.968 234.777 385.068 235.069 386.93 233.622C386.985 233.582 387.034 233.531 387.084 233.487Z" fill="#366DAA"/>
<path d="M258.2 404.75C258.968 406.288 256.074 412.677 255.563 414.831C255.264 416.085 255.985 416.206 255.522 417.59L255.181 417.837L254.745 417.541L254.54 418.408L254.708 418.604C254.899 418.83 255.076 419.061 255.25 419.298C254.801 422.475 252.578 425.715 252.394 428.961L252.182 429.149C252.048 428.754 251.977 428.387 251.918 427.975C251.23 429.916 251.64 433.57 250.365 435.081C250.114 434.53 250.225 434.816 250.034 434.225C249.915 434.741 249.791 435.094 249.902 435.621L250.237 435.988C249.746 438.595 249.186 441.413 248.372 443.932C248.319 444.103 248.303 444.261 248.278 444.432C247.899 445.198 247.564 446.02 246.961 446.651L246.524 446.758C247.155 440.904 250.018 432.332 251.724 426.498C253.845 419.237 255.788 411.932 258.2 404.75Z" fill="#29578A"/>
<path d="M71.4492 228.086C72.335 227.611 73.1264 228.015 74.0757 228.269C78.1428 229.354 109.662 237.357 111.69 236.304C111.861 236.672 111.967 236.949 112.258 237.25C115.399 238.088 177.67 243.212 179.92 242.833C181.018 245.525 181.678 248.405 182.849 251.049C183.701 254.477 185.072 257.898 186.168 261.273C187.341 264.882 188.322 268.686 189.739 272.208C190.304 274.137 190.911 276.052 191.562 277.955L222.534 376.227C225.607 386.063 228.762 395.876 231.999 405.665C233.39 410.001 235.213 414.622 236.249 418.994L237.485 422.526L237.475 423.341C239.617 427.808 244.388 444.156 244.898 448.905C209.487 405.211 174.483 361.226 139.885 316.951C125.334 298.377 110.909 279.716 96.6118 260.965C88.2107 250.051 79.4448 239.268 71.4492 228.086Z" fill="url(#paint1_linear_212_95)"/>
<path d="M237.475 423.341C237.376 423.635 237.25 423.81 237.071 424.064C236.503 423.674 236.34 423.069 236.194 422.445C235.96 421.451 235.644 419.899 236.249 418.994L237.485 422.526L237.475 423.341Z" fill="#366DAA"/>
<path d="M179.92 242.833L181.321 242.579C183.605 244.926 185.136 249.203 186.269 252.185C191.727 262.466 196.382 277.517 200.018 288.839C202.908 297.832 205.823 306.882 208.428 315.953C210.418 322.891 212.137 329.88 214.007 336.844L222.471 367.356C224.985 376.826 227.602 386.27 230.324 395.688C231.151 398.459 238.052 421.035 237.806 422.256C237.79 422.335 237.751 422.41 237.723 422.485L237.485 422.526L236.249 418.994C235.213 414.622 233.39 410.001 231.999 405.665C228.762 395.876 225.607 386.063 222.534 376.227L191.562 277.955C190.911 276.052 190.304 274.137 189.739 272.208C188.322 268.686 187.341 264.883 186.168 261.273C185.071 257.898 183.701 254.477 182.849 251.049C181.678 248.405 181.018 245.525 179.92 242.833Z" fill="#94D1ED"/>
<path d="M182.405 242.782C192.74 242.242 203.23 242.486 213.581 242.484L260.005 242.478C269.886 242.465 279.766 242.547 289.645 242.721C292.932 242.796 296.522 242.516 299.762 243.001L304.153 243.044C305.169 243.226 306.159 243.356 307.191 243.427L307.221 243.608C304.328 244.259 300.259 244.395 297.269 244.253C294.093 244.537 290.89 244.537 287.704 244.677C280.949 245.032 274.188 245.228 267.422 245.263C259.471 245.018 251.401 245.322 243.438 245.316C229.862 245.375 216.292 245.12 202.729 244.551C196.701 244.326 190.226 244.541 184.263 243.754C183.23 243.616 183.051 243.581 182.405 242.782Z" fill="#B9EAF5"/>
<path d="M299.762 243.001L304.153 243.044C305.169 243.226 306.159 243.356 307.191 243.427L307.221 243.608C304.328 244.259 300.259 244.395 297.269 244.253C293.83 243.782 289.7 244.829 286.437 243.786L286.291 243.425C287.01 242.812 297.445 243.214 299.47 243.029L299.762 243.001Z" fill="#D7F4FD"/>
<path d="M309.621 242.93L309.928 243.815C307.321 250.302 305.368 257.054 303.195 263.684C301.429 269.072 299.362 274.492 297.837 279.939C288.246 309.891 278.251 339.735 268.953 369.77L268.794 369.374L268.632 369.248C269.442 364.706 271.157 360.207 272.568 355.8L278.16 337.757C280.436 330.375 282.657 322.979 284.821 315.567C287.156 307.341 289.259 299.094 291.954 290.955C292.871 286.247 294.727 281.254 296.262 276.683C298.193 270.93 300.071 265.12 302.237 259.442C304.034 254.731 306.121 250.11 308.011 245.429L308.506 244.123L308.279 243.79L307.221 243.608L307.191 243.427C306.159 243.356 305.169 243.226 304.154 243.044C305.786 242.975 308.153 243.455 309.621 242.93Z" fill="#94D1ED"/>
<path d="M307.221 243.608L308.279 243.79L308.506 244.123L308.011 245.429C307.682 245.496 305.219 244.973 304.34 244.997C300.895 245.097 297.409 245.498 293.959 245.693C286.691 246.103 279.368 246.397 272.089 246.529C262.728 246.701 253.352 246.026 243.996 246.054C241.434 246.06 236.413 246.815 234.172 245.949C237.609 245.216 241.891 245.709 245.418 245.705L260.137 245.569C262.246 245.553 264.888 245.803 266.936 245.373C267.099 245.34 267.259 245.3 267.422 245.263C274.188 245.228 280.949 245.032 287.704 244.677C290.89 244.537 294.093 244.537 297.269 244.253C300.259 244.395 304.328 244.259 307.221 243.608Z" fill="#559DCC"/>
<path d="M79.0069 131.832L79.3467 131.911C80.7452 135.662 81.7569 139.648 82.9661 143.467L91.434 170.506C98.302 192.387 105.515 214.236 111.69 236.304C109.662 237.357 78.1428 229.354 74.0757 228.269C73.1264 228.015 72.335 227.611 71.4492 228.086C68.8037 225.199 66.6023 221.753 64.1962 218.667C57.3081 209.832 50.6414 200.887 43.9108 191.949C30.4769 174.107 16.4468 156.658 3.2616 138.647C2.49294 137.597 0.815258 135.767 0.727814 134.516L1.10451 134.827C6.02583 133.9 15.8554 134.217 21.3823 134.112C34.5816 133.846 47.7751 133.418 60.9628 132.829C66.8427 132.565 73.2143 132.68 79.0069 131.832Z" fill="#366DAA"/>
<path d="M414.176 132.56L415.09 132.627C422.664 132.897 430.239 133.127 437.815 133.317C442.127 133.418 446.72 133.234 450.991 133.741C460.018 133.787 469.256 133.645 478.256 134.245C481.328 133.639 487.055 134.446 490.653 134.173C475.816 154.693 460.542 174.945 445.479 195.317C440.164 202.517 434.797 209.682 429.377 216.811C427.077 219.886 424.85 223.586 422.212 226.374L421.989 225.773C420.911 225.662 388.737 232.927 387.084 233.486C386.512 233.19 386.617 233.219 386.374 232.703C388.642 226.216 390.197 219.393 391.996 212.767L400.746 180.797C402.244 176.665 403.081 172.094 404.283 167.854L414.176 132.56Z" fill="#29578A"/>
<path d="M414.176 132.56L415.09 132.627L415.486 132.955C415.22 133.66 415.029 134.51 414.453 135.024C414.479 134.545 414.562 134.109 414.67 133.641L414.491 133.42C414.03 134.964 414.546 136.379 414.164 137.903C413.492 140.578 412.52 143.236 411.775 145.904L405.469 168.161C404.697 170.906 403.04 179.858 401.558 181.745L400.892 181.546L401.619 181.589L401.678 181.489L400.831 181.438L400.953 181.836L400.88 181.548C400.773 181.108 400.809 181.28 400.746 180.797C402.244 176.665 403.081 172.094 404.283 167.854L414.176 132.56Z" fill="#2F6198"/>
<path d="M478.256 134.245C476.299 134.8 474.1 134.113 472.216 134.659C472.876 134.734 473.42 134.776 474.041 135.021C467.357 135.273 460.479 134.801 453.775 134.676C450.656 134.618 445.981 134.93 443.126 134.44C443.254 133.91 443.13 134.167 443.542 133.692C446.001 133.889 448.529 133.877 450.991 133.741C460.018 133.787 469.256 133.645 478.256 134.245Z" fill="#2F6198"/>
<path d="M243.479 123.577C255.35 123.648 267.276 123.154 279.149 122.97C294.137 122.713 309.128 122.671 324.119 122.844C330.795 122.905 337.47 123.008 344.144 123.153L345.135 123.412C344.264 125.877 343.703 128.32 343.267 130.881L339.71 130.946C275.116 130.343 210.505 131.294 145.91 131.067C146.408 130.555 146.609 129.784 146.865 129.141L147.343 129.03C148.28 127.493 149.374 125.334 149.454 123.561L209.717 123.611L231.813 123.558C235.686 123.546 239.611 123.411 243.479 123.577Z" fill="url(#paint2_linear_212_95)"/>
<path d="M345.135 123.412C350.59 123.119 356.277 123.696 361.753 123.839L386.855 124.318C392.625 124.439 398.466 124.729 404.234 124.635C405.911 124.897 407.753 124.818 409.452 124.794L409.797 125.146C411.044 126.721 414.306 129.962 414.479 131.933L414.176 132.56L404.283 167.854C403.081 172.094 402.244 176.665 400.746 180.797L391.996 212.767C390.197 219.393 388.642 226.216 386.374 232.703L385.813 233.578L385.243 233.192C385.468 232.006 385.659 229.896 386.4 228.965L386.658 229.563L387.062 229.249C387.746 227.323 387.898 225.224 388.493 223.272C389.133 221.174 391.218 216.013 390.982 214.123C390.717 213.865 390.475 213.607 390.239 213.325C390.605 211.092 390.467 209.637 392.233 207.858C392.296 208.239 392.343 208.497 392.509 208.852C392.769 208.371 392.907 207.945 393.035 207.42L392.282 207.489L391.998 207.209C391.987 205.783 392.708 205.809 393.031 204.712C393.24 203.999 392.733 203.421 393.155 202.654C393.628 203.02 393.636 203.663 393.776 204.219C395.453 199.538 395.512 194.737 396.714 190.014C397.167 188.235 397.871 186.165 398.659 184.494C399.089 183.577 399.877 182.615 400.143 181.66C400.387 180.783 400.184 179.738 400.265 178.819L400.795 178.99C401.14 178.31 401.02 177.598 401.122 176.858C401.587 173.49 401.911 170.187 403.645 167.174C404.285 166.062 406.031 160.475 406.366 158.976C406.963 156.326 406.796 154.223 408.116 151.608C408.849 150.156 408.863 149.007 409.194 147.491C409.415 146.47 409.984 145.367 410.317 144.352C411.08 142.021 411.624 139.784 411.99 137.369L411.892 137.578C412.055 135.91 412.116 134.171 412.603 132.56L412.694 132.264C411.807 131.924 410.788 131.935 409.838 131.873C408.041 131.803 406.258 131.754 404.459 131.807C399.5 131.12 392.182 131.557 387.013 131.52L362.238 131.172C355.936 131.113 349.555 131.255 343.267 130.881C343.703 128.32 344.264 125.877 345.135 123.412Z" fill="#5FAAD6"/>
<path d="M79.3467 131.911C81.2057 131.834 85.7462 132.138 87.3345 131.355L87.7917 133.131C90.0548 143.291 93.4927 153.319 96.223 163.384C98.6429 172.305 100.849 181.294 103.128 190.249C104.98 197.528 106.962 204.811 108.537 212.147C109.614 217.164 110.342 222.26 111.284 227.301C111.606 229.027 113.359 235.71 112.723 237.061L112.258 237.25C111.967 236.949 111.861 236.672 111.69 236.304C105.515 214.236 98.302 192.387 91.434 170.506L82.9661 143.467C81.7569 139.648 80.7452 135.662 79.3467 131.911Z" fill="#5FAAD6"/>
<path d="M145.91 131.067C210.505 131.294 275.116 130.343 339.71 130.946L339.767 131.161C340.692 131.168 342.414 130.959 343.232 131.271L343.843 131.081C342.345 131.413 341.224 131.638 339.677 131.444C339.338 131.401 338.989 131.387 338.648 131.359L338.337 131.621L338.439 132.002L338.758 131.931L338.914 131.605C339.937 131.652 340.891 131.838 341.884 132.059C340.077 132.661 327.437 132.674 325.813 132.056L325.748 131.69C326.095 131.631 326.443 131.568 326.789 131.5L325.358 131.41C325.049 132.107 325.088 132.091 324.365 132.405C322.467 132.281 320.71 131.89 318.802 132.07C317.133 132.227 315.44 132.207 313.814 131.791C315.692 131.397 317.974 131.583 319.909 131.551C314.384 131.044 308.462 131.447 302.897 131.456L270.956 131.441C267.564 131.445 259.725 131.898 256.854 131.362L255.553 131.424L255.559 131.547C261.524 131.735 267.462 131.576 273.425 131.596C275.575 131.603 278.091 131.309 280.16 131.787L280.271 132.036C278.56 132.639 272.225 132.248 270.177 132.063C269.799 132.029 269.584 132.022 269.225 132.11L269.444 132.589C268.104 132.587 262.232 131.97 261.493 132.199C261.436 132.216 260.803 132.623 260.762 132.631C260.09 132.77 256.633 132.326 255.616 132.325C245.147 132.316 234.718 132.4 224.246 132.084C222.061 132.018 219.871 132.164 217.692 132.035C217.217 132.367 217.4 132.173 217.115 132.594C215.832 132.393 212.777 131.314 211.741 131.63L212.227 132.36C207.823 132.066 203.561 132.054 199.147 132.163L199.032 131.856L197.838 132.159L197.588 131.934C198.337 131.281 199.994 131.736 201.027 131.378C199.895 131.402 198.75 131.463 197.621 131.372C197.184 131.337 196.987 131.339 196.585 131.477L196.936 131.794L196.89 132.244C195.873 132.087 194.596 132.036 193.682 131.599L195.213 131.556C194.482 131.456 193.753 131.337 193.014 131.303L192.99 131.585L193.546 132.131C193.012 132.417 191.731 132.428 191.142 132.239C190.742 132.11 190.653 131.996 190.442 131.655C191.097 131.508 191.637 131.519 192.303 131.535L192.312 131.428C187.165 131.391 181.382 130.879 176.335 131.7C175.39 131.853 174.385 131.78 173.43 131.749C175.783 131.895 178.229 131.652 180.554 132.005C178.435 133.113 116.302 132.356 108.558 132.324C104.033 132.305 92.144 131.41 88.3994 132.937C88.2497 132.998 87.9637 133.08 87.7917 133.131L87.3345 131.355L87.9555 131.223C107.265 131.094 126.607 131.411 145.91 131.067Z" fill="#4588C2"/>
<path d="M404.459 131.807C406.258 131.754 408.041 131.803 409.838 131.873L409.811 132.384C408.79 132.895 391.659 132.443 389.636 132.106C391.882 131.361 400.89 132.095 404.131 131.837L404.459 131.807Z" fill="#4588C2"/>
<path d="M309.621 242.93C310.112 240.958 310.74 237.442 312.311 236.053C312.731 237.964 310.715 241.185 310.368 243.202L309.928 243.815L309.621 242.93Z" fill="#559DCC"/>
<path d="M341.289 157.636C345.579 157.665 349.868 157.715 354.157 157.786C356.263 162.667 357.86 167.874 359.609 172.885C360.971 176.785 362.642 180.771 363.59 184.766L364.106 184.857L364.493 184.516C365.159 181.392 366.434 178.3 367.468 175.265L373.504 157.869C377.641 158.037 382.088 157.429 386.163 158.034C386.619 158.58 386.489 158.859 386.496 159.526L386.914 159.367C388.016 160.382 387.823 162.221 387.844 163.608L388.055 194.091C388.112 201.646 388.467 209.396 387.695 216.92C384.181 216.9 380.624 216.977 377.118 216.752C376.831 215.656 376.541 214.668 376.078 213.626C376.068 213.603 376.066 213.581 376.06 213.559C375.441 211.686 375.926 190.655 375.78 186.648C375.581 188.636 375.221 189.724 374.292 191.497C372.954 195.175 367.86 210.568 365.967 212.433L365.442 212.465C364.646 211.759 364.284 210.187 364.217 209.183C364.341 209.094 364.455 208.976 364.603 208.929C362.023 206.408 355.633 190.62 353.696 186.336C352.941 189.679 353.363 193.639 353.39 197.067C353.436 203.602 353.587 210.173 353.386 216.705C349.924 216.705 346.422 216.809 342.966 216.663C342.735 215.628 342.607 214.443 341.961 213.565L341.639 213.419C341.025 212.281 341.259 163.734 341.289 157.636Z" fill="#94D1ED"/>
<path d="M373.504 157.869C377.641 158.037 382.088 157.429 386.163 158.034C386.619 158.58 386.489 158.859 386.496 159.526L386.914 159.367C388.016 160.382 387.823 162.221 387.844 163.608L388.055 194.091C388.112 201.646 388.467 209.396 387.695 216.92C384.181 216.9 380.624 216.977 377.118 216.752C376.831 215.656 376.541 214.668 376.078 213.626C376.068 213.603 376.066 213.581 376.06 213.559C375.441 211.686 375.926 190.655 375.78 186.648L375.908 182.773L376.139 182.359L376.031 182.017L376.507 181.755L376.084 181.696C376.178 181.789 376.293 181.866 376.364 181.978C378.72 185.739 375.463 211.83 378.247 212.786C379.869 213.344 383.107 212.794 384.861 212.682C385.141 212.242 385.326 211.901 385.377 211.374C385.592 209.085 385.422 206.698 385.405 204.399C385.376 200.273 385.377 196.147 385.409 192.022L385.61 171.332C385.608 167.595 385.763 163.83 385.355 160.109L385.21 160.173L385.257 159.462C383.606 158.391 376.565 158.87 374.381 158.975C372.647 163.444 367.196 182.226 364.944 184.579L364.493 184.516C365.159 181.392 366.434 178.3 367.468 175.265L373.504 157.869Z" fill="#B9EAF5"/>
<path d="M386.496 159.526L386.914 159.367C388.016 160.383 387.823 162.221 387.844 163.608L388.055 194.091C388.112 201.646 388.467 209.396 387.695 216.92C384.181 216.9 380.624 216.977 377.118 216.752C376.831 215.656 376.541 214.668 376.078 213.626C376.068 213.603 376.066 213.581 376.06 213.559C378.933 213.52 382.238 213.185 385.064 213.62C385.537 213.605 385.889 213.536 386.337 213.394C386.526 213.131 386.579 213.098 386.674 212.741C386.977 211.595 386.699 201.991 386.695 200.031L386.496 159.526Z" fill="#29578A"/>
<path d="M341.289 157.636C345.579 157.665 349.868 157.715 354.157 157.786C356.263 162.667 357.86 167.874 359.609 172.885C360.971 176.785 362.642 180.771 363.59 184.766L363.168 184.806C359.653 181.272 355.808 161.939 353.061 159.926C351.896 159.074 349.693 159.076 348.267 159.034C346.672 158.987 345.058 158.949 343.496 159.302C342.885 160.203 342.922 161.58 342.889 162.632C342.546 173.991 342.997 185.425 342.932 196.796C342.916 199.587 342.948 202.393 342.855 205.182C342.802 206.761 342.349 208.461 342.674 210.021C342.863 210.934 343.253 211.627 344.132 212.112C345.494 212.867 348.131 212.597 349.664 212.459C350.346 211.978 350.511 211.335 350.647 210.57C351.479 205.874 349.843 188.172 351.632 185.91C352.107 188.141 351.68 190.497 352.06 192.756C352.314 189.367 351.952 185.964 352.298 182.562C352.817 183.798 353.242 185.078 353.696 186.336C352.941 189.679 353.363 193.639 353.39 197.067C353.436 203.602 353.587 210.173 353.386 216.705C349.924 216.705 346.422 216.809 342.966 216.663C342.735 215.628 342.607 214.443 341.961 213.565L341.639 213.419C341.025 212.281 341.259 163.734 341.289 157.636Z" fill="#B9EAF5"/>
<path d="M352.298 182.562C352.817 183.798 353.242 185.078 353.696 186.336C352.941 189.679 353.363 193.639 353.39 197.067C353.437 203.602 353.587 210.173 353.386 216.705C349.924 216.705 346.422 216.809 342.966 216.663C342.735 215.628 342.607 214.443 341.961 213.565C345.338 213.443 348.751 213.538 352.131 213.54C352.2 206.629 352.377 199.662 352.06 192.757C352.314 189.367 351.952 185.964 352.298 182.562Z" fill="#29578A"/>
<path d="M372.85 188.874L373.396 188.932C373.751 188.663 373.957 188.334 374.424 188.381C374.35 189.409 374.139 190.322 373.847 191.314L374.292 191.497C372.954 195.175 367.86 210.568 365.967 212.433L365.442 212.465C364.646 211.759 364.284 210.187 364.217 209.183C364.341 209.094 364.455 208.976 364.603 208.929C367.094 206.105 370.828 193.132 372.85 188.874Z" fill="#29578A"/>
<path d="M375.806 179.602C375.95 180.645 375.904 181.72 375.908 182.773L375.78 186.648C375.581 188.636 375.221 189.724 374.292 191.497L373.847 191.314C374.139 190.322 374.35 189.409 374.424 188.381C373.957 188.334 373.751 188.663 373.396 188.932L372.85 188.874C373.888 185.796 374.913 182.723 375.806 179.602Z" fill="#2F6198"/>
<path d="M259.1 157.657C263.386 157.698 267.673 157.709 271.959 157.689L271.953 193.941C271.957 200.437 271.618 207.065 271.959 213.54L261.514 213.486L261.061 213.258C260.253 210.737 260.949 189.093 260.87 184.522L260.835 184.774C260.519 187.356 260.777 189.985 260.468 192.556C260.295 192 260.383 191.827 259.843 191.507C258.367 192.574 254.158 204.334 253.126 206.769C252.523 208.824 251.506 210.812 250.574 212.749C249.799 211.877 248.463 210.656 248.485 209.475L248.638 209.382C244.835 204.217 243.724 197.339 240.291 191.931C239.051 191.15 238.222 188.324 237.69 186.993C237.162 190.243 237.436 193.795 237.438 197.088C237.443 203.624 237.564 210.175 237.134 216.703L226.375 216.669C226.272 215.585 226.313 214.466 225.628 213.547L225.371 213.433C224.495 212.27 224.912 163.8 225.011 157.716L237.769 157.703C240.449 163.806 242.906 170.06 245.468 176.215C246.628 178.998 247.669 181.927 249.076 184.607L249.588 184.759C250.637 180.895 252.184 177.111 253.545 173.332L259.1 157.657Z" fill="#94D1ED"/>
<path d="M259.1 157.657C263.386 157.698 267.673 157.709 271.959 157.689L271.953 193.941C271.957 200.437 271.618 207.065 271.959 213.54L261.514 213.486L261.061 213.258L261.264 210.966C261.68 211.749 261.108 212.337 261.863 213.031C262.374 212.747 261.54 212.354 261.755 211.702L261.658 212.082L261.635 211.611C262.186 212.159 262.695 212.731 263.509 212.889C265.615 213.295 268.374 213.392 270.179 212.175C270.67 211.52 270.725 210.741 270.792 209.962C271.373 203.208 270.721 195.256 270.682 188.316C270.634 179.751 271.121 170.484 270.668 162.011C270.63 161.296 270.613 159.852 270.049 159.346C268.421 157.887 262.102 158.68 259.924 158.827C258.066 163.855 252.676 181.382 250 184.78L249.588 184.759C250.637 180.895 252.184 177.111 253.545 173.332L259.1 157.657Z" fill="#BAE6FA"/>
<path d="M236.086 181.84C237.591 185.143 238.852 188.592 240.291 191.931C239.051 191.15 238.222 188.324 237.69 186.993C237.162 190.243 237.436 193.795 237.439 197.088C237.443 203.624 237.564 210.175 237.134 216.703L226.376 216.669C226.272 215.585 226.313 214.466 225.628 213.547L235.956 213.549C236.111 202.979 236.154 192.41 236.086 181.84Z" fill="#2F6198"/>
<path d="M249.502 208.501C249.525 207.988 260.025 183.354 261.164 181.175L260.87 184.522L260.835 184.774C260.519 187.356 260.777 189.985 260.468 192.556C260.295 192 260.383 191.827 259.843 191.507C258.367 192.574 254.158 204.334 253.126 206.769C252.523 208.824 251.506 210.812 250.574 212.749C249.799 211.877 248.463 210.656 248.485 209.475L248.638 209.382L249.502 208.501Z" fill="#29578A"/>
<path d="M249.502 208.501L249.768 208.712C251.405 206.268 252.387 203.389 253.577 200.731C254.034 199.707 254.663 198.774 255.122 197.759C256.093 195.617 257.049 190.856 259.104 189.503C260.283 190.561 252.812 203.448 253.08 206.403C253.092 206.525 253.11 206.647 253.126 206.769C252.523 208.824 251.506 210.812 250.574 212.749C249.799 211.877 248.463 210.656 248.485 209.475L248.638 209.382L249.502 208.501Z" fill="#2F6198"/>
<path d="M152.541 157.802C158.763 157.74 165.546 157.321 171.702 158.238C176.547 158.959 179.27 160.898 182.13 164.57C183.857 165.578 184.491 168.528 184.931 170.315C186.353 176.075 185.89 183.065 182.496 188.168C182.251 188.538 181.99 188.899 181.713 189.249C181.437 189.599 181.145 189.939 180.839 190.267C180.533 190.595 180.214 190.91 179.88 191.213C179.547 191.516 179.2 191.805 178.842 192.081C179.863 196.347 186.783 209.798 186.483 212.325C186.645 212.727 186.795 213.133 186.996 213.518C187.658 214.115 187.794 215.999 188.068 216.896C183.909 216.91 179.744 216.961 175.584 216.93C175.189 215.908 174.793 214.93 174.278 213.954C174.124 213.664 174.17 213.792 174.12 213.486C173.215 211.749 172.666 209.745 172.028 207.905C170.692 204.048 169.449 200.147 168.003 196.329L167.724 196.406C167.643 196.307 167.566 196.205 167.482 196.11C166.996 195.556 166.167 195.282 165.425 195.256C164.979 195.24 165.105 195.24 164.736 195.485C164.622 202.632 164.794 209.789 164.649 216.934L154.486 216.849C154.188 215.707 153.927 214.612 153.378 213.549C153.18 213.502 152.983 213.384 152.8 213.299C152.154 210.714 152.53 207.385 152.522 204.701L152.489 187.78C152.543 180.85 152.659 173.867 152.415 166.943C152.672 163.943 152.52 160.817 152.541 157.802Z" fill="#94D1ED"/>
<path d="M182.13 164.57C183.857 165.578 184.491 168.528 184.931 170.315C186.353 176.075 185.89 183.065 182.496 188.168C182.251 188.538 181.99 188.899 181.713 189.249C181.437 189.599 181.145 189.939 180.839 190.267C180.533 190.595 180.214 190.91 179.88 191.213C179.547 191.516 179.2 191.805 178.842 192.081C179.863 196.347 186.783 209.798 186.483 212.325C183.244 204.535 179.608 196.984 177.216 188.904C179.636 186.758 181.553 184.542 182.711 181.566C184.737 176.363 184.57 169.61 182.13 164.57Z" fill="#2F6198"/>
<path d="M163.49 192.434L167.059 192.732L168.003 196.329L167.724 196.406C167.643 196.307 167.566 196.205 167.482 196.11C166.996 195.556 166.167 195.282 165.425 195.256C164.979 195.24 165.105 195.24 164.736 195.485C164.622 202.632 164.794 209.789 164.649 216.934L154.486 216.849C154.188 215.707 153.927 214.612 153.378 213.549C156.757 213.486 160.147 213.536 163.528 213.534C163.432 206.503 163.502 199.463 163.49 192.434Z" fill="#2F6198"/>
<path d="M186.996 213.518C187.658 214.115 187.794 215.999 188.068 216.896C183.909 216.91 179.744 216.961 175.584 216.93C175.189 215.908 174.793 214.93 174.278 213.954C174.124 213.664 174.17 213.792 174.12 213.486L186.996 213.518Z" fill="#29578A"/>
<path d="M165.685 167.719C168.112 167.639 170.236 168.368 172.446 169.207C173.429 170.415 174.137 171.559 174.546 173.05C175.4 176.168 174.854 178.968 173.155 181.692C172.312 182.26 171.355 182.633 170.419 183.043C167.885 183.287 165.469 183.412 162.945 183.019C162.663 182.432 162.336 181.802 162.18 181.171C161.501 178.422 161.282 170.774 162.726 168.36C163.529 167.794 164.714 167.818 165.685 167.719Z" fill="#BAE6FA"/>
<path d="M163.411 168.864C165.794 168.909 169.069 168.607 171.133 169.901C172.56 170.796 173.084 172.202 173.408 173.719C173.966 175.649 173.706 178.383 172.641 180.11C172.208 180.81 171.414 181.552 170.57 181.765C168.486 182.451 165.636 182.213 163.429 182.264L163.411 168.864Z" fill="#559DCC"/>
<path d="M163.411 168.864C165.794 168.909 169.069 168.607 171.133 169.901C172.56 170.796 173.084 172.202 173.408 173.719L173.109 173.922C172.553 173.078 172.348 172.449 171.233 172.198C169.177 171.735 166.576 172.009 164.467 172.035C164.471 175.216 164.427 178.406 164.489 181.585C166.301 181.566 168.87 181.227 170.57 181.765C168.486 182.451 165.636 182.213 163.429 182.264L163.411 168.864Z" fill="#29578A"/>
<path d="M298.893 157.668C302.349 157.703 305.871 157.609 309.314 157.842L309.329 183.418C309.323 187.835 308.78 193.039 309.716 197.337C310.031 198.792 311.048 200.115 311.964 201.289C313.129 202.086 314.24 202.588 315.702 202.62C317.308 202.657 318.841 202.05 319.994 201.005C321.407 199.725 322.142 198.011 322.495 196.219C323.433 191.47 322.932 186.092 322.909 181.256C322.846 173.421 322.865 165.587 322.966 157.753C325.112 157.76 332.555 157.244 334.011 158.172C334.374 158.671 334.555 159.042 334.638 159.649C334.943 161.882 334.827 164.269 334.849 166.523L334.961 178.456C335.02 186.336 336.167 195.019 334.606 202.768C333.666 207.44 331.414 212.183 327.12 214.906C323.193 217.395 317.874 217.981 313.29 217.109C308.872 216.269 305.426 213.693 303.037 210.128C302.654 209.557 302.302 208.97 301.981 208.367C301.662 207.763 301.375 207.145 301.12 206.513L301.404 206.288C300.473 203.61 299.409 201.279 299.169 198.431C298.247 193.994 298.718 186.031 298.706 181.292C298.686 173.48 298.294 165.446 298.893 157.668Z" fill="#94D1ED"/>
<path d="M322.966 157.753C325.112 157.76 332.555 157.244 334.011 158.172C334.374 158.671 334.555 159.042 334.638 159.649C334.943 161.882 334.827 164.269 334.849 166.523L334.961 178.456C335.02 186.336 336.167 195.019 334.606 202.768C333.666 207.44 331.414 212.183 327.12 214.906C323.193 217.395 317.874 217.981 313.29 217.109C308.872 216.269 305.426 213.693 303.037 210.128C302.654 209.557 302.302 208.97 301.981 208.367C301.662 207.763 301.375 207.145 301.12 206.513L301.405 206.288C300.473 203.61 299.409 201.279 299.169 198.431C299.191 195.99 298.879 182.404 299.764 181.169C300.99 190.421 297.443 203.543 306.606 210.077C310.114 212.579 314.987 213.297 319.259 212.64C323.321 212.015 326.221 209.824 328.482 206.692C330.218 204.286 331.546 201.535 332.098 198.658C332.687 195.58 332.539 192.294 332.571 189.17C332.597 182.973 332.577 176.776 332.51 170.579C332.506 167.972 332.963 162.849 332.439 160.576C332.269 159.832 331.922 159.155 331.164 158.802C330.194 158.351 326.158 158.396 325.179 158.728C324.535 158.945 324.274 159.352 324.079 159.941C323.498 161.717 323.932 164.417 323.975 166.296C324.164 174.581 325.402 188.423 323.868 196.155C323.435 198.327 322.497 201.478 320.379 202.665C319.785 202.999 319.174 202.941 318.605 203.17C318.487 203.218 318.406 203.324 318.3 203.395C317.298 204.05 315.864 203.898 314.735 203.657C313.375 203.367 312.496 202.991 311.554 202.022L311.519 201.51L311.964 201.289C313.129 202.086 314.24 202.588 315.702 202.62C317.308 202.657 318.841 202.05 319.994 201.005C321.407 199.725 322.142 198.011 322.495 196.219C323.433 191.47 322.932 186.092 322.909 181.256C322.846 173.421 322.865 165.587 322.966 157.753Z" fill="#B9EAF5"/>
<path d="M334.011 158.172C334.374 158.671 334.555 159.042 334.638 159.649C334.943 161.882 334.827 164.269 334.849 166.523L334.961 178.456C335.02 186.336 336.167 195.019 334.606 202.768C333.666 207.44 331.414 212.183 327.12 214.906C323.193 217.395 317.874 217.981 313.29 217.109C308.872 216.269 305.427 213.693 303.037 210.128C302.654 209.557 302.302 208.97 301.981 208.367C301.662 207.763 301.375 207.145 301.12 206.513L301.405 206.288C301.909 207.149 302.495 207.959 303.161 208.716C305.824 211.743 309.974 213.471 314.065 213.78C318.808 214.135 323.364 213.305 327.029 210.258C330.021 207.769 332.025 204.217 333.006 200.593C334.269 195.919 333.958 190.819 333.95 186.025L333.903 168.542C333.893 165.203 333.739 161.808 333.986 158.478L334.011 158.172Z" fill="#2F6198"/>
<path d="M115.619 157.697C121.742 157.726 132.699 156.876 138.161 159.298C142.692 161.307 144.434 164.612 146.138 168.831L146.624 168.752C148.543 170.745 148.376 178.858 148.239 181.658C148.033 185.865 146.727 189.973 143.366 192.901C139.044 196.666 133.178 196.473 127.713 196.193C127.678 196.193 127.643 196.189 127.608 196.187C127.625 199.275 127.749 202.413 127.555 205.493L127.69 217.117C124.174 216.973 120.655 217.003 117.137 217.005L116.606 213.731C119.785 213.735 122.983 213.812 126.156 213.609C122.813 213.402 119.049 213.372 115.722 213.725C115.11 195.087 115.541 176.344 115.619 157.697Z" fill="#94D1ED"/>
<path d="M146.138 168.831L146.624 168.752C148.543 170.745 148.376 178.858 148.239 181.658C148.033 185.865 146.727 189.973 143.365 192.901C139.044 196.666 133.178 196.473 127.713 196.193C127.678 196.193 127.643 196.189 127.608 196.187C127.625 199.275 127.749 202.413 127.555 205.493C126.51 202.45 128.825 198.208 126.268 195.475C126.135 194.684 126.219 193.777 126.212 192.972C129.224 193.032 132.365 193.002 135.329 192.45C138.795 191.805 141.979 190.03 143.906 187.178C147.19 182.315 147.371 174.277 146.138 168.831Z" fill="url(#paint3_linear_212_95)"/>
<path d="M126.268 195.475C128.825 198.208 126.51 202.45 127.555 205.493L127.69 217.117C124.174 216.973 120.655 217.003 117.137 217.005L116.606 213.731C119.785 213.735 122.983 213.812 126.156 213.609C126.157 207.582 125.979 201.492 126.268 195.475Z" fill="#2F6198"/>
<path d="M126.204 168.831C128.672 168.876 131.971 168.635 134.069 170.088C135.395 171.005 135.872 172.307 136.074 173.79C136.455 175.07 136.525 177.661 135.82 178.83C135.767 178.919 135.705 179.002 135.648 179.087C135.345 179.629 134.992 180.203 134.528 180.633C132.589 182.431 128.626 182.067 126.1 182.13C126.079 177.697 126.114 173.264 126.204 168.831Z" fill="#5FAAD6"/>
<path d="M126.204 168.831C128.672 168.876 131.971 168.635 134.069 170.088C135.395 171.005 135.872 172.307 136.074 173.79C136.006 173.756 135.935 173.727 135.871 173.689C135.505 173.464 135.638 173.531 135.35 173.17C134.723 172.384 134.087 172.251 133.096 172.151C131.252 171.964 129.216 172.084 127.358 172.125L127.307 181.491C129.262 181.489 131.173 181.451 133.097 181.081C133.803 180.475 134.785 179.373 135.648 179.087C135.345 179.629 134.992 180.203 134.528 180.633C132.589 182.431 128.626 182.067 126.1 182.13C126.079 177.697 126.114 173.264 126.204 168.831Z" fill="#2F6198"/>
<path d="M194.301 157.83C197.657 157.819 217.948 157.252 219.412 158.184L219.531 159.141L219.913 159.041C221.397 162.148 220.697 168.258 220.802 171.747C215.099 171.709 209.346 171.526 203.647 171.768C203.584 174.458 203.094 177.947 203.955 180.517C208.099 180.327 212.277 180.436 216.425 180.453C216.33 183.822 216.297 187.19 216.326 190.559C211.737 190.543 207.122 190.624 202.536 190.482V202.963C207.559 202.89 214.277 202.423 219.17 203.03C219.607 203.689 219.505 204.282 219.54 205.048L219.84 203.969C220.149 204.156 220.074 204.034 220.145 204.338C221.042 208.223 220.543 212.751 220.731 216.732C211.366 216.677 201.927 216.979 192.573 216.762L191.631 213.53C191.101 211.814 191.412 187.719 191.641 184.516C191.376 182.098 191.609 179.467 191.662 177.026C191.337 174.263 191.181 160.205 191.82 158.015C192.582 157.682 193.481 157.809 194.301 157.83Z" fill="#BAE6FA"/>
<path d="M219.54 205.048L219.84 203.969C220.149 204.156 220.074 204.034 220.145 204.338C221.042 208.223 220.543 212.751 220.731 216.732C211.366 216.677 201.927 216.979 192.573 216.762L191.631 213.53C194.945 213.502 218.025 213.891 219.32 213.404L219.42 212.946C219.596 210.343 219.509 207.659 219.54 205.048Z" fill="#2F6198"/>
<path d="M191.662 177.026C191.337 174.263 191.181 160.205 191.82 158.015C192.582 157.682 193.481 157.809 194.301 157.83C194.366 157.868 194.429 157.913 194.5 157.943C196.415 158.743 201.789 157.416 203.143 158.337C200.814 158.321 194.683 157.637 192.896 159.148C192.618 159.385 192.681 159.579 192.644 159.915C191.853 167.183 192.527 174.77 192.648 182.075C192.74 187.51 192.908 192.943 192.813 198.38C192.746 202.245 192.448 206.111 192.32 209.976C192.291 210.897 193.034 211.986 193.489 212.79L208.54 212.802C211.033 212.82 213.908 213.185 216.364 212.881C217.081 212.792 217.802 212.449 218.319 211.974C218.713 211.615 219.044 210.779 219.113 210.26C219.123 210.181 219.093 210.104 219.083 210.027L218.717 210.258L219.131 209.779C219.174 210.838 219.158 211.913 219.42 212.946L219.32 213.405C218.025 213.891 194.945 213.502 191.631 213.53C191.101 211.814 191.412 187.719 191.641 184.516C191.376 182.098 191.609 179.467 191.662 177.026Z" fill="#B9EAF5"/>
<path d="M219.531 159.141L219.913 159.041C221.397 162.148 220.697 168.258 220.802 171.747C215.099 171.709 209.346 171.526 203.647 171.768C203.584 174.458 203.094 177.947 203.955 180.517L202.794 180.363C201.961 179.341 202.451 170.642 202.469 168.782C208.129 168.98 213.865 168.809 219.531 168.796C219.464 165.581 219.519 162.357 219.531 159.141Z" fill="#29578A"/>
<path d="M198.467 159.024C204.71 158.824 211.092 158.686 217.333 159.009C218.983 160.897 218.496 163.683 218.415 165.983C218.039 166.362 217.536 166.971 217.03 167.181C214.147 168.375 207.374 166.694 203.714 167.688C202.711 167.96 201.846 168.518 201.354 169.402C200.029 171.788 200.948 178.655 201.756 181.215C205.484 182.218 209.886 180.718 213.363 181.925C214.149 182.199 214.677 182.648 214.996 183.386C215.428 184.388 215.39 187.366 214.842 188.322C213.885 189.989 206.95 189.35 205.009 189.452C203.768 189.519 202.629 189.766 201.436 190.069C200.792 193.079 200.207 199.938 201.645 202.675C201.758 202.882 201.807 202.987 201.965 203.186C203.358 204.931 213.347 204.04 216.228 204.434C216.602 204.484 217.436 204.527 217.641 204.839C218.415 206.004 218.496 208.966 218.153 210.266C217.946 211.057 217.509 211.581 216.726 211.948C215.824 212.372 195.769 212.461 194.236 211.842C193.822 211.676 193.706 211.654 193.556 211.238C192.575 208.519 193.264 195.244 193.254 191.649L193.247 172.188C193.243 168.911 193.099 165.615 193.217 162.34C193.252 161.427 193.298 160.478 193.739 159.649C195.27 159.174 196.872 159.188 198.467 159.024Z" fill="#94D1ED"/>
<path d="M280.6 157.722C282.515 157.734 289.98 157.344 291.184 158.15L291.267 159.511C291.937 160.062 292.035 160.028 292.098 160.883C292.467 165.866 292.668 214.735 292.029 216.801C288.658 216.452 285.148 217.052 281.786 216.553C281.753 215.587 281.526 214.745 282.044 213.902C283.053 213.37 285.459 213.674 286.744 213.579C284.665 213.484 282.587 213.501 280.511 213.63C280.381 194.994 280.411 176.358 280.6 157.722Z" fill="#B9EAF5"/>
<path d="M291.267 159.511C291.937 160.062 292.035 160.028 292.098 160.883C292.467 165.866 292.668 214.735 292.029 216.801C288.658 216.452 285.148 217.052 281.786 216.553C281.753 215.587 281.526 214.745 282.044 213.902C283.053 213.37 285.459 213.674 286.744 213.579L291.139 213.542C291.33 195.546 290.804 177.497 291.267 159.511Z" fill="#29578A"/>
<path d="M281.786 216.553C282.925 216.435 284.34 216.45 285.438 216.172C286.876 215.806 288.196 213.179 290.469 215.003C290.88 215.334 291.064 215.944 291.247 216.409L292.029 216.801C288.658 216.452 285.148 217.052 281.786 216.553Z" fill="#2F6198"/>
<path d="M283.213 159.011C284.989 158.986 286.765 159.003 288.541 159.061L289.31 160.292C289.68 170.149 289.369 180.075 289.379 189.941C289.383 193.882 290.169 208.791 289.146 211.603C288.202 212.55 287.087 212.804 285.727 212.861C284.484 212.912 282.911 212.682 282.06 211.729C280.757 210.27 281.353 206.156 281.376 204.288C281.384 202.957 281.38 201.697 281.152 200.378C281.006 203.594 281.081 206.815 281.114 210.033L280.799 210.169L280.809 210.29L281.106 210.4C281.106 210.822 281.183 210.871 280.899 211.22C280.759 205.166 280.891 199.102 280.891 193.047C280.891 187.983 280.685 182.842 281.073 177.795L281.118 181.763C282.308 174.898 280.925 167.604 282.08 160.751C282.239 159.814 282.399 159.569 283.213 159.011Z" fill="#94D1ED"/>
<path d="M272.209 158.715C272.658 159.646 272.946 160.446 273.031 161.471C273.303 164.747 273.178 168.108 273.178 171.394L273.182 188.066L273.175 206.276C273.165 209.751 273.275 213.299 272.995 216.762L262.234 216.859C262.159 215.632 262.177 214.589 261.514 213.486L271.959 213.54C272.284 208.306 272.122 202.981 272.122 197.735L272.106 172.038C272.101 167.62 271.907 163.118 272.209 158.715Z" fill="#2F6198"/>
<path d="M242.589 241.459C254.124 241.348 265.659 241.337 277.193 241.425C281.871 241.441 286.571 241.76 291.243 241.561C289.848 241.92 288.133 241.904 286.679 242.005C288.853 241.81 290.597 241.849 292.723 242.474C289.992 242.009 287.519 242.244 284.785 242.321C282.574 242.382 280.324 242.265 278.107 242.25L240.776 242.177L198.603 242.252C194.669 242.265 184.485 242.821 181.407 242.102L181.554 241.855C186.237 241.952 190.959 241.53 195.659 241.522L242.589 241.459Z" fill="#4588C2"/>
<path d="M152.489 187.78C152.113 189.63 152.284 191.691 152.28 193.576L152.099 193.726C151.319 191.517 152.444 183.812 151.755 180.603L150.924 180.104C151.092 180.519 151.217 180.621 151.086 181.085C150.991 181.422 150.928 181.643 150.615 181.818C149.816 180.542 149.999 177.935 150.324 176.493C150.421 176.066 150.499 175.679 150.53 175.241L150.559 174.772C150.884 175.64 150.859 176.04 151.71 176.529L151.796 176.88C151.327 176.908 151.262 176.933 150.823 177.168C150.796 178.144 151.496 178.497 151.606 179.412C151.679 180.014 151.523 179.753 151.954 180.144C152.075 178.138 151.773 176.099 151.725 174.086C151.662 171.498 151.871 168.916 151.922 166.328C151.969 163.886 151.825 161.361 152.097 158.934C152.643 161.436 152.166 164.099 152.386 166.648L152.415 166.943C152.659 173.867 152.543 180.85 152.489 187.78Z" fill="#559DCC"/>
<defs>
<linearGradient id="paint0_linear_212_95" x1="415.491" y1="146.928" x2="105.228" y2="209.404" gradientUnits="userSpaceOnUse">
<stop stop-color="#468ABC"/>
<stop offset="1" stop-color="#5CA7D5"/>
</linearGradient>
<linearGradient id="paint1_linear_212_95" x1="143.944" y1="343.498" x2="215.718" y2="304.151" gradientUnits="userSpaceOnUse">
<stop stop-color="#3572B8"/>
<stop offset="1" stop-color="#4B8EC2"/>
</linearGradient>
<linearGradient id="paint2_linear_212_95" x1="251.366" y1="104.257" x2="240.609" y2="149.986" gradientUnits="userSpaceOnUse">
<stop stop-color="#A5D1F4"/>
<stop offset="1" stop-color="#BAF5FE"/>
</linearGradient>
<linearGradient id="paint3_linear_212_95" x1="136.637" y1="183.435" x2="139.638" y2="194.725" gradientUnits="userSpaceOnUse">
<stop stop-color="#2E5085"/>
<stop offset="1" stop-color="#3A6A9A"/>
</linearGradient>
</defs>
</svg>
