<svg width="55" height="55" viewBox="0 0 55 55" fill="none" xmlns="http://www.w3.org/2000/svg">
<path fill-rule="evenodd" clip-rule="evenodd" d="M53.495 27.9773C55.7351 32.8991 54.6599 38.1596 50.2691 43.7587C46.6401 48.4095 42.2942 51.7961 37.2314 53.9183C28.0468 56.6727 19.3102 54.1667 11.0216 46.4002C7.75095 43.3297 5.08516 39.898 3.02421 36.105C1.05287 32.4927 0.0448032 29.4222 0 26.8936C0 21.2042 1.68012 15.9212 5.04036 11.0445C6.65327 8.6062 8.28858 6.75489 9.9463 5.49057C15.0539 6.66458 20.6767 8.49332 26.8147 10.9768C39.1356 15.9889 48.029 21.6557 53.495 27.9773Z" fill="#959090"/>
<path fill-rule="evenodd" clip-rule="evenodd" d="M8.06458 43.2846L13.1049 33.4635L24.3953 42.0654L16.8684 50.8027C13.6426 48.8611 10.708 46.355 8.06458 43.2846Z" fill="#B3B3B3"/>
<path fill-rule="evenodd" clip-rule="evenodd" d="M11.7608 11.6541L1.68012 33.2603C0.56004 30.7769 0 28.6546 0 26.8936C0 21.2042 1.68012 15.9212 5.04036 11.0445C6.65327 8.6062 8.28858 6.75489 9.9463 5.49057L13.5082 6.43881L11.7608 11.6541Z" fill="#808080"/>
<path fill-rule="evenodd" clip-rule="evenodd" d="M26.5459 54.5956L33.4008 46.6711C33.804 46.4002 35.8649 45.8358 39.5836 44.9778L51.0756 42.6072C49.3731 45.0907 47.1777 47.3936 44.4895 49.5158C42.0254 51.4574 39.606 52.9249 37.2314 53.9183C33.692 54.9569 30.1301 55.1827 26.5459 54.5956Z" fill="#808080"/>
<path fill-rule="evenodd" clip-rule="evenodd" d="M50.538 43.2168C46.6401 47.4613 41.3309 49.2449 34.6104 48.5676C27.89 47.8451 21.7295 44.8875 16.1291 39.6948C10.5735 34.4569 7.1909 28.5192 5.98121 21.8815C4.77153 15.1535 6.09322 9.6899 9.94629 5.49057C13.889 1.24609 19.2205 -0.537499 25.941 0.139812C32.6167 0.817123 38.7547 3.77472 44.3551 9.01259C49.9555 14.2053 53.3606 20.1431 54.5702 26.8259C55.7799 33.5087 54.4358 38.9723 50.538 43.2168Z" fill="#B3B3B3"/>
<path fill-rule="evenodd" clip-rule="evenodd" d="M38.8443 42.6072C42.6974 42.4266 46.1248 41.3881 49.1267 39.4916C52.0837 37.55 54.0102 35.1342 54.9063 32.2444C54.6822 36.6695 53.2261 40.327 50.538 43.2168C46.6401 47.4613 41.3309 49.2449 34.6104 48.5676C27.89 47.8451 21.7295 44.8875 16.1291 39.6948C10.5735 34.4569 7.1909 28.5192 5.98121 21.8815C4.77153 15.1535 6.09322 9.6899 9.94629 5.49057C12.1865 3.09741 14.9866 1.47186 18.3469 0.61393C21.5727 -0.198844 25.0674 -0.198844 28.8308 0.61393C25.3362 0.433314 22.1103 1.04289 19.1533 2.44267C16.2411 3.79729 14.001 5.7615 12.4329 8.33528C8.80381 14.3408 9.74468 21.3848 15.2555 29.4674C21.5279 38.6337 29.3909 43.0136 38.8443 42.6072Z" fill="#CAC8C8"/>
<path fill-rule="evenodd" clip-rule="evenodd" d="M39.8524 29.2642L39.3148 30.822L36.1561 32.854L29.0997 28.9255L28.9652 36.5792L24.933 39.4916L24.3953 38.3402L25.1346 26.8259L13.4409 21.001L13.5754 19.9173L17.8093 19.0368L25.2018 22.8975L25.4706 15.5825L29.3685 12.6701L29.1669 24.2521L39.8524 29.2642Z" fill="#737373"/>
<path fill-rule="evenodd" clip-rule="evenodd" d="M45.8336 17.6822L45.4304 18.9013L38.9787 22.4911L42.9438 27.0968L42.8766 28.5192L40.054 30.2802L29.1669 14.1602L29.2341 12.2637L38.6427 8.94486L45.8336 17.6822ZM36.761 19.6464L40.6589 18.1563L37.3658 13.5506L33.7368 15.3793L36.761 19.6464Z" fill="#737373"/>
<path fill-rule="evenodd" clip-rule="evenodd" d="M25.605 14.3634L28.8308 12.8055L28.562 23.2361L39.2476 29.2642L35.9545 31.2961L28.3604 27.1645L28.226 35.4277L24.6641 37.8661L25.269 25.6745L13.8442 19.9173L17.9437 17.8176L25.4034 21.6783L25.605 14.3634Z" fill="#CCCCCC"/>
<path fill-rule="evenodd" clip-rule="evenodd" d="M28.8308 12.8055L25.605 14.3634L25.4034 21.6783L17.9437 17.8176L13.8442 19.9173L25.269 25.6745L24.6641 37.8661L28.226 35.4277L28.3604 27.1645L35.9545 31.2961L39.2476 29.2642L28.562 23.2361L28.8308 12.8055ZM39.718 29.1965C39.6284 29.2868 39.5164 29.3545 39.382 29.3997L36.0889 31.4316L35.9545 31.5671L35.8201 31.4316L28.6292 27.5032L28.4276 35.4955L28.3604 35.5632L24.3953 38.3402L25.0674 25.8099L13.3737 19.9173L17.9437 17.5467L25.2018 21.3397L25.3362 14.2279L25.4706 14.1602L29.0324 12.3991L28.8308 23.1007L39.718 29.1965Z" fill="#6E6E6E"/>
<path fill-rule="evenodd" clip-rule="evenodd" d="M38.7771 7.79343L45.5648 17.5467L38.8443 20.9333L42.7422 27.1645L40.3228 28.7901C35.7081 21.6106 32.0119 16.1018 29.2341 12.2637L38.7771 7.79343ZM41.0621 16.6662L37.7691 11.7218L33.804 13.7538L36.8954 18.4272L41.0621 16.6662Z" fill="#CCCCCC"/>
<path fill-rule="evenodd" clip-rule="evenodd" d="M41.0621 16.6662L36.8954 18.4272L33.804 13.7538L37.7691 11.7218L41.0621 16.6662ZM38.8443 20.9333L45.5648 17.5467L38.7771 7.79343L29.2341 12.2637C32.0119 16.1018 35.7081 21.6106 40.3228 28.7901L42.7422 27.1645L38.8443 20.9333ZM37.0298 18.1563L40.7261 16.5307L37.7019 12.0605L34.14 13.8892L37.0298 18.1563ZM38.8443 7.45478L38.9788 7.65797L45.7664 17.4113L45.9008 17.6144L45.6992 17.7499L39.1804 21.0687L42.9438 27.0968L43.0782 27.3L42.8766 27.4355L40.4573 28.9255L40.2556 29.1287L40.1212 28.9255C35.5513 21.7912 31.8775 16.2824 29.0997 12.3991L28.898 12.2637L29.0997 12.1282L38.8443 7.45478Z" fill="#6E6E6E"/>
<path d="M28.3604 27.1645L35.9545 31.2961" stroke="#F2F2F2" stroke-width="0.5" stroke-miterlimit="10"/>
<path d="M17.9437 17.8176L13.8442 19.9173L25.269 25.6745L24.6641 37.8661" stroke="#F2F2F2" stroke-width="0.5" stroke-miterlimit="10"/>
<path d="M28.8308 12.8055L25.605 14.3634L25.4034 21.6783" stroke="#F2F2F2" stroke-width="0.5" stroke-miterlimit="10"/>
<path d="M37.7691 11.7218L41.0621 16.6662L36.8954 18.4272M38.7771 7.79343L29.2341 12.2637C32.0119 16.1018 35.7081 21.6106 40.3228 28.7901" stroke="#F2F2F2" stroke-width="0.5" stroke-miterlimit="10"/>
<path fill-rule="evenodd" clip-rule="evenodd" d="M16.1291 39.6948C13.3961 37.121 11.1336 34.2537 9.34145 31.0929C7.63893 28.0225 6.51885 24.9068 5.98122 21.746C8.80382 29.8286 13.7098 36.5114 20.6991 41.7945C28.9428 47.9806 37.4554 49.561 46.2369 46.5356C42.0254 48.7933 37.1418 49.29 31.5862 48.0257C25.941 46.8066 20.7887 44.0296 16.1291 39.6948Z" fill="#F2F2F2"/>
</svg>
