<?xml version="1.0" encoding="UTF-8" standalone="no"?>
<svg xmlns:ffdec="https://www.free-decompiler.com/flash" xmlns:xlink="http://www.w3.org/1999/xlink" ffdec:objectType="frame" height="76.8px" width="97.25px" xmlns="http://www.w3.org/2000/svg">
  <g transform="matrix(1.0, 0.0, 0.0, 1.0, 48.5, 38.4)">
    <use ffdec:characterId="677" height="72.5" transform="matrix(1.0, 0.0, 0.0, 1.0, -48.5, -37.75)" width="74.2" xlink:href="#shape0"/>
  </g>
  <defs>
    <g id="shape0" transform="matrix(1.0, 0.0, 0.0, 1.0, 48.5, 37.75)">
      <path d="M19.5 -0.7 Q17.05 4.4 11.1 6.05 -0.9 9.35 -18.6 -7.95 -20.6 -10.95 -22.0 -14.2 -24.8 -20.6 -21.75 -21.55 -23.25 -23.65 -23.5 -25.35 -23.7 -26.95 -22.85 -28.15 -21.8 -29.65 -19.7 -29.1 L-20.0 -29.8 Q-20.2 -30.7 -19.45 -31.5 -17.45 -33.65 -14.55 -33.5 -8.3 -33.15 4.65 -25.1 9.7 -21.95 15.45 -14.15 22.25 -4.9 19.5 -0.7" fill="#510c01" fill-rule="evenodd" stroke="none"/>
      <path d="M17.75 -1.45 Q15.55 3.2 10.05 4.7 -0.85 7.75 -17.0 -8.05 -18.8 -10.8 -20.1 -13.75 -22.65 -19.6 -19.85 -20.45 L-19.15 -20.5 Q-18.3 -20.45 -17.4 -19.9 -21.25 -22.35 -21.45 -23.9 -21.7 -25.95 -20.95 -27.0 -19.7 -28.65 -16.1 -27.1 L-17.25 -27.85 Q-18.45 -28.8 -17.75 -29.5 -15.95 -31.45 -13.3 -31.3 -7.65 -31.0 4.2 -23.65 8.8 -20.85 14.05 -13.7 20.25 -5.3 17.75 -1.45" fill="#0d00a2" fill-rule="evenodd" stroke="none"/>
      <path d="M-8.1 -30.05 Q-3.2 -28.25 4.2 -23.65 8.8 -20.85 14.05 -13.7 20.25 -5.3 17.75 -1.45 16.4 1.35 13.25 3.3 7.0 7.2 -2.05 3.0 L-7.0 -1.8 Q-10.85 -5.55 -9.45 -8.35 -9.0 -9.25 -8.1 -9.95 L-7.3 -10.45 Q-11.75 -15.6 -10.8 -19.95 L-9.65 -22.45 -8.9 -23.3 Q-12.35 -27.8 -8.1 -30.05" fill="#e2bb1d" fill-rule="evenodd" stroke="none"/>
      <path d="M3.75 -20.7 Q4.9 -22.45 6.85 -21.6 12.05 -16.95 15.55 -11.5 19.85 -4.7 17.75 -1.45 16.5 1.2 13.55 3.1 7.65 7.0 -0.75 3.6 -3.3 0.65 -1.9 -2.0 L0.05 -4.1 Q-4.45 -11.85 -0.65 -14.75 1.2 -16.25 4.0 -16.15 2.6 -18.85 3.75 -20.7" fill="#e12b0e" fill-rule="evenodd" stroke="none"/>
      <path d="M6.8 30.4 Q6.3 28.6 7.0 26.95 8.35 23.75 14.2 24.8 L16.8 26.0 Q19.3 27.9 18.7 31.2 17.6 32.25 15.55 32.7 11.45 33.55 6.8 30.4" fill="#510c01" fill-rule="evenodd" stroke="none"/>
      <path d="M7.9 29.9 Q7.5 28.4 8.05 27.1 9.2 24.45 14.0 25.3 L16.15 26.3 Q18.15 27.85 17.65 30.55 16.75 31.4 15.05 31.75 11.7 32.45 7.9 29.9" fill="#f4ba19" fill-rule="evenodd" stroke="none"/>
      <path d="M14.8 26.9 L16.05 27.6 Q17.2 28.85 16.8 31.75 L15.8 31.85 15.85 29.75 Q15.7 27.5 14.8 26.9" fill="#510c01" fill-rule="evenodd" stroke="none"/>
      <path d="M20.45 -21.2 Q22.25 -13.3 22.45 -9.05 22.55 -6.95 22.3 -6.4 26.1 -2.35 25.65 3.5 25.45 6.45 24.45 8.6 24.6 10.15 23.9 13.35 22.9 17.85 20.75 21.55 14.25 32.6 -0.2 31.45 -22.65 29.6 -21.1 8.05 -20.35 -2.7 -15.1 -13.1 -16.4 -13.5 -17.25 -15.35 L-17.85 -17.15 Q-14.0 -15.7 -13.55 -16.3 -14.6 -16.25 -15.5 -17.65 L-16.15 -19.1 Q-14.9 -19.0 -13.55 -19.55 -11.85 -20.3 -11.75 -21.8 -11.45 -26.45 -6.05 -31.4 0.75 -37.65 11.0 -37.75 18.1 -37.8 20.0 -29.5 20.95 -25.35 20.45 -21.2" fill="#510c01" fill-rule="evenodd" stroke="none"/>
      <path d="M18.8 -28.0 Q19.65 -24.15 19.2 -20.25 20.9 -12.9 21.1 -8.95 21.2 -6.95 20.95 -6.45 24.5 -2.65 24.05 2.8 23.85 5.55 22.95 7.5 23.1 8.95 22.45 11.95 21.55 16.2 19.55 19.6 13.45 29.95 -0.05 28.85 -21.0 27.15 -19.4 6.35 -18.6 -4.0 -13.6 -14.05 -14.8 -13.9 -15.5 -14.95 L-15.9 -16.0 -12.6 -16.15 Q-10.1 -16.8 -11.75 -16.7 -12.7 -16.65 -13.45 -17.35 L-14.0 -18.05 Q-13.1 -17.95 -11.85 -19.35 -10.55 -20.85 -10.5 -22.3 -10.2 -26.5 -5.35 -30.5 0.8 -35.6 10.45 -35.7 17.05 -35.75 18.8 -28.0" fill="#eb2e0f" fill-rule="evenodd" stroke="none"/>
      <path d="M10.45 -35.7 Q17.05 -35.75 18.8 -28.0 19.65 -24.15 19.2 -20.25 L19.75 -17.45 Q13.35 -14.15 4.95 -15.1 -3.3 -16.05 -3.75 -19.65 -4.25 -23.25 -0.65 -26.25 L3.05 -28.5 Q1.75 -29.6 -1.1 -30.3 L-3.7 -30.75 Q-0.5 -32.25 2.15 -32.35 1.8 -32.7 0.3 -32.8 L-1.1 -32.8 2.15 -34.35 5.25 -35.2 10.45 -35.7" fill="#c30d03" fill-rule="evenodd" stroke="none"/>
      <path d="M9.85 -20.95 L12.6 -22.25 Q16.0 -23.15 19.3 -21.05 L19.2 -20.25 Q20.05 -16.85 20.2 -13.65 15.1 -13.35 10.8 -9.8 L7.55 -6.35 Q6.5 -7.15 6.8 -8.8 L7.25 -10.3 Q6.1 -10.1 5.15 -8.75 L4.45 -7.4 Q4.15 -7.85 4.15 -8.7 L4.25 -9.45 Q0.8 -6.8 -4.3 -8.55 L-8.65 -10.8 -8.55 -12.25 -8.35 -12.9 -10.5 -12.5 -12.25 -11.85 Q-11.85 -12.95 -10.25 -14.55 L-8.75 -15.9 Q-9.2 -15.8 -10.6 -16.55 L-11.85 -17.3 Q-7.7 -17.95 -6.5 -20.5 -5.55 -22.45 -2.3 -24.1 1.45 -25.95 5.0 -25.3 7.1 -25.0 7.95 -24.5 9.65 -23.5 9.85 -20.95" fill="#e26c13" fill-rule="evenodd" stroke="none"/>
      <path d="M-8.05 2.85 L0.2 4.1 5.45 3.9 5.0 4.95 Q4.55 6.2 4.65 7.35 4.9 11.05 10.45 12.15 10.0 11.6 9.9 10.4 9.65 8.0 11.4 4.9 L11.35 6.75 Q11.55 8.75 12.85 9.35 14.4 10.05 14.95 11.5 15.4 12.8 14.9 14.1 16.6 12.6 17.75 10.6 20.05 6.65 17.5 4.25 L19.2 5.65 Q20.6 7.55 19.4 10.1 21.35 9.75 22.95 7.5 23.1 8.95 22.45 11.95 21.55 16.2 19.55 19.6 13.45 29.95 -0.05 28.85 -9.6 28.1 -14.55 23.05 -20.05 17.65 -19.4 6.75 -19.1 1.5 -8.05 2.85" fill="#a51b03" fill-rule="evenodd" stroke="none"/>
      <path d="M-7.3 7.0 L1.65 6.15 Q4.55 6.05 4.55 13.3 4.6 16.9 4.0 20.55 15.7 24.0 22.45 11.9 21.0 18.95 16.7 23.4 10.55 29.7 -0.05 28.85 -9.6 28.1 -14.55 23.05 -19.5 18.25 -19.45 8.65 L-7.3 7.0" fill="#771401" fill-rule="evenodd" stroke="none"/>
      <path d="M19.3 -21.05 L19.2 -20.25 Q20.05 -16.85 20.2 -13.65 15.9 -13.4 12.1 -10.8 L9.1 -12.75 Q2.9 -8.25 -2.95 -11.0 -4.8 -11.85 -6.2 -13.3 -7.55 -14.65 -7.05 -14.45 L-4.5 -14.7 -6.75 -15.2 -7.65 -15.25 Q-7.5 -16.65 -5.75 -18.15 L-4.05 -19.4 -5.3 -19.1 -5.8 -18.7 Q-2.9 -24.7 4.05 -25.45 L5.0 -25.3 Q7.1 -25.0 7.95 -24.5 9.65 -23.5 9.85 -20.95 L12.6 -22.25 Q16.0 -23.15 19.3 -21.05" fill="#e2a119" fill-rule="evenodd" stroke="none"/>
      <path d="M19.3 -21.05 L19.2 -20.25 Q20.05 -16.85 20.2 -13.65 16.25 -13.4 12.7 -11.2 10.55 -11.05 9.65 -10.05 7.6 -8.0 7.5 -9.7 L7.75 -11.85 Q4.55 -10.35 1.4 -11.6 -1.2 -12.6 -2.4 -14.65 -3.45 -16.5 -1.95 -18.05 L-0.2 -19.2 -1.45 -19.4 -1.95 -19.75 Q-1.2 -23.15 1.6 -24.4 3.65 -25.3 6.6 -25.0 9.6 -24.25 9.85 -20.95 L12.6 -22.25 Q16.0 -23.15 19.3 -21.05" fill="#f5ddce" fill-rule="evenodd" stroke="none"/>
      <path d="M2.6 -22.4 Q2.75 -22.05 4.3 -21.5 5.85 -20.95 5.85 -20.7 5.85 -20.05 5.5 -19.55 5.05 -18.75 4.1 -18.85 2.9 -18.95 2.65 -20.7 L2.6 -22.4" fill="#000000" fill-rule="evenodd" stroke="none"/>
      <path d="M5.15 -20.45 Q5.15 -19.55 4.75 -19.55 4.4 -19.55 4.4 -20.45 4.4 -21.3 4.75 -21.3 5.15 -21.3 5.15 -20.45" fill="#ffffff" fill-rule="evenodd" stroke="none"/>
      <path d="M0.3 -23.1 Q1.65 -23.45 3.25 -22.55 L5.4 -21.4 Q6.55 -21.15 8.25 -21.95 L7.45 -20.8 Q7.15 -20.4 5.85 -20.45 4.3 -20.55 3.05 -21.65 L1.0 -23.0 0.3 -23.1" fill="#2b0802" fill-rule="evenodd" stroke="none"/>
      <path d="M8.2 -18.45 Q8.75 -18.65 9.65 -19.4 L11.15 -20.25 9.65 -18.65 7.55 -16.6 7.5 -16.9 7.45 -17.2 Q6.8 -16.45 5.15 -15.65 3.6 -14.85 2.55 -14.7 L2.7 -15.05 2.75 -15.5 Q2.15 -15.0 1.6 -14.85 L0.25 -14.75 Q-1.05 -14.75 -1.55 -15.15 -2.3 -15.75 -2.55 -16.8 L-1.2 -16.55 0.8 -16.45 2.6 -16.95 4.4 -17.45 4.1 -16.8 Q4.85 -16.7 5.9 -17.65 L7.15 -18.35 8.3 -19.2 8.2 -18.45" fill="#2b0802" fill-rule="evenodd" stroke="none"/>
      <path d="M10.05 -17.15 Q11.35 -21.5 15.5 -21.65 17.6 -21.75 19.4 -20.95 L20.65 -19.3 Q22.1 -17.2 23.0 -14.95 25.75 -7.7 21.9 -0.9 20.85 1.0 19.1 1.1 17.45 1.2 17.5 0.25 L17.45 -1.55 17.3 -2.25 Q17.1 -1.4 14.95 -0.95 12.6 -0.5 11.6 -1.7 8.4 -5.4 8.45 -8.1 L9.2 -10.05 Q8.75 -10.75 8.75 -11.15 8.7 -12.65 10.05 -17.15" fill="#510c01" fill-rule="evenodd" stroke="none"/>
      <path d="M15.45 -20.85 Q17.35 -20.9 18.95 -20.2 L20.1 -18.65 Q21.4 -16.75 22.2 -14.7 24.8 -8.05 21.6 -2.15 20.65 -0.4 19.5 -0.3 18.5 -0.2 18.3 -1.05 L17.6 -4.0 Q17.45 -3.2 15.35 -2.35 13.1 -1.5 12.2 -2.55 9.3 -5.9 9.4 -8.25 L10.05 -9.95 9.5 -11.15 Q9.35 -12.75 10.55 -16.8 11.75 -20.75 15.45 -20.85" fill="#210602" fill-rule="evenodd" stroke="none"/>
      <path d="M13.3 -19.9 Q15.9 -20.85 18.6 -19.9 19.2 -19.75 20.7 -16.65 22.4 -13.15 22.7 -10.35 22.9 -7.95 21.9 -4.5 20.7 -0.5 19.15 -1.25 19.45 -7.55 15.9 -13.15 12.45 -18.6 10.75 -15.9 L11.45 -17.65 Q12.35 -19.5 13.3 -19.9" fill="#614842" fill-rule="evenodd" stroke="none"/>
      <path d="M16.35 -17.4 Q18.3 -15.5 19.35 -11.8 20.55 -7.65 19.75 -4.0 19.6 -3.35 19.4 -5.35 19.05 -9.0 17.95 -11.75 L16.1 -16.15 Q15.15 -18.5 16.35 -17.4" fill="#ceaba0" fill-rule="evenodd" stroke="none"/>
      <path d="M10.8 -13.95 Q15.35 -12.7 17.05 -8.3 17.65 -6.9 17.7 -5.65 17.75 -4.45 17.45 -4.95 L16.5 -6.5 Q15.7 -7.55 14.7 -7.95 L13.15 -8.55 11.65 -9.35 Q10.45 -10.3 10.5 -12.2 L10.8 -13.95" fill="#382c2a" fill-rule="evenodd" stroke="none"/>
      <path d="M10.7 -8.6 Q10.85 -8.9 11.55 -8.3 L13.05 -7.45 Q14.1 -7.25 14.75 -6.7 15.7 -5.9 14.9 -4.85 14.0 -3.65 11.95 -5.4 9.9 -7.15 10.7 -8.6" fill="#241c1b" fill-rule="evenodd" stroke="none"/>
      <path d="M1.85 3.0 Q0.25 8.45 -5.75 10.9 -17.75 15.75 -39.8 0.8 -42.5 -1.95 -44.6 -5.0 -48.8 -11.05 -45.75 -12.4 -47.75 -14.3 -48.3 -15.95 -48.8 -17.5 -48.15 -18.85 -47.35 -20.5 -45.05 -20.2 L-45.5 -20.9 Q-45.85 -21.75 -45.2 -22.65 -43.45 -25.05 -40.4 -25.25 -33.75 -25.7 -18.5 -19.4 -12.55 -16.95 -5.0 -9.9 3.95 -1.55 1.85 3.0" fill="#510c01" fill-rule="evenodd" stroke="none"/>
      <path d="M-0.15 2.5 Q-1.6 7.45 -7.05 9.7 -18.0 14.15 -38.1 0.5 -40.55 -2.0 -42.45 -4.75 -46.3 -10.3 -43.55 -11.55 L-42.8 -11.7 -40.95 -11.35 Q-45.35 -13.3 -45.85 -14.75 -46.55 -16.8 -45.9 -17.95 -44.95 -19.75 -40.95 -18.7 -41.65 -18.9 -42.2 -19.25 -43.65 -20.05 -43.05 -20.85 -41.5 -23.05 -38.65 -23.25 -32.65 -23.7 -18.7 -17.95 -13.3 -15.7 -6.4 -9.3 1.75 -1.65 -0.15 2.5" fill="#0d00a2" fill-rule="evenodd" stroke="none"/>
      <path d="M-0.15 2.5 Q-1.0 5.5 -3.95 7.85 -9.85 12.6 -20.25 9.6 L-26.35 5.45 Q-31.15 2.15 -30.2 -0.85 -29.9 -1.8 -29.05 -2.6 L-28.3 -3.2 Q-34.0 -7.75 -33.8 -12.25 -33.75 -13.65 -33.1 -14.9 L-32.45 -15.85 Q-37.05 -19.85 -32.95 -22.7 -27.25 -21.45 -18.7 -17.95 -13.3 -15.7 -6.4 -9.3 1.75 -1.65 -0.15 2.5" fill="#e2bb1d" fill-rule="evenodd" stroke="none"/>
      <path d="M-4.4 -7.3 Q1.5 -1.05 -0.15 2.5 -0.95 5.3 -3.7 7.65 -9.15 12.3 -18.7 10.0 -22.0 7.4 -21.0 4.55 L-19.35 2.2 Q-25.55 -4.95 -22.15 -8.4 -20.45 -10.1 -17.5 -10.4 -19.5 -12.9 -18.6 -14.9 -17.75 -16.8 -15.5 -16.2 -9.1 -12.3 -4.4 -7.3" fill="#e12b0e" fill-rule="evenodd" stroke="none"/>
      <path d="M-5.75 32.35 Q-6.45 30.25 -6.2 28.2 -5.6 24.15 -0.5 24.5 4.85 24.9 6.9 28.35 8.6 31.25 7.35 32.65 6.6 33.85 4.6 34.45 0.55 35.55 -5.75 32.35" fill="#510c01" fill-rule="evenodd" stroke="none"/>
      <path d="M-4.8 31.75 Q-5.4 29.95 -5.15 28.2 -4.6 24.75 -0.3 25.1 4.2 25.45 5.95 28.35 7.4 30.8 6.35 32.0 5.7 33.05 4.0 33.5 0.6 34.45 -4.8 31.75" fill="#f4ba19" fill-rule="evenodd" stroke="none"/>
      <path d="M2.6 27.85 L4.05 28.7 Q5.45 30.2 5.0 33.7 L3.75 33.8 3.8 31.25 Q3.65 28.55 2.6 27.85" fill="#510c01" fill-rule="evenodd" stroke="none"/>
    </g>
  </defs>
</svg>
