<?xml version="1.0" encoding="UTF-8" standalone="no"?>
<svg xmlns:ffdec="https://www.free-decompiler.com/flash" xmlns:xlink="http://www.w3.org/1999/xlink" ffdec:objectType="frame" height="76.8px" width="97.25px" xmlns="http://www.w3.org/2000/svg">
  <g transform="matrix(1.0, 0.0, 0.0, 1.0, 48.5, 38.4)">
    <use ffdec:characterId="678" height="72.5" transform="matrix(1.0, 0.0, 0.0, 1.0, -34.7, -38.4)" width="58.6" xlink:href="#shape0"/>
  </g>
  <defs>
    <g id="shape0" transform="matrix(1.0, 0.0, 0.0, 1.0, 34.7, 38.4)">
      <path d="M17.7 -1.3 Q14.75 4.75 9.3 7.6 -1.5 13.3 -13.65 -2.65 -14.85 -5.6 -15.45 -8.9 -16.75 -15.5 -14.0 -17.05 -14.9 -19.1 -14.8 -20.9 -14.7 -22.65 -13.75 -24.1 -12.65 -25.95 -10.95 -25.7 L-11.1 -26.4 Q-11.1 -27.35 -10.3 -28.35 -8.25 -31.05 -5.75 -31.4 -0.5 -32.05 9.2 -25.5 13.0 -22.95 16.55 -15.35 20.8 -6.4 17.7 -1.3" fill="#510c01" fill-rule="evenodd" stroke="none"/>
      <path d="M16.3 -1.8 Q13.6 3.7 8.7 6.3 -1.15 11.5 -12.25 -3.05 -13.35 -5.75 -13.9 -8.75 -15.1 -14.75 -12.55 -16.15 L-11.95 -16.35 -10.65 -16.0 Q-13.4 -18.05 -13.3 -19.65 -13.15 -21.9 -12.3 -23.15 -10.95 -25.25 -8.05 -24.05 L-9.05 -24.7 Q-9.9 -25.55 -9.2 -26.45 -7.3 -28.95 -5.05 -29.2 -0.3 -29.85 8.55 -23.85 12.0 -21.5 15.3 -14.6 19.1 -6.45 16.3 -1.8" fill="#0d00a2" fill-rule="evenodd" stroke="none"/>
      <path d="M16.3 -1.8 Q14.7 1.5 11.65 4.2 5.6 9.6 -1.4 6.55 L-4.75 2.1 Q-7.4 -1.35 -5.75 -4.7 L-3.55 -7.35 Q-6.5 -12.2 -4.9 -17.2 L-2.7 -21.2 Q-4.85 -25.45 -0.85 -28.75 3.25 -27.45 8.55 -23.85 12.0 -21.5 15.3 -14.6 19.1 -6.45 16.3 -1.8" fill="#e2bb1d" fill-rule="evenodd" stroke="none"/>
      <path d="M7.7 -20.5 Q8.95 -22.65 10.5 -22.05 14.15 -17.9 16.15 -12.5 18.7 -5.75 16.3 -1.8 14.8 1.3 11.95 3.95 6.25 9.25 -0.35 6.95 -2.05 4.15 -0.35 1.0 L1.65 -1.65 Q-0.85 -9.35 2.9 -13.25 4.75 -15.2 7.1 -15.6 6.35 -18.3 7.7 -20.5" fill="#e12b0e" fill-rule="evenodd" stroke="none"/>
      <path d="M5.0 29.75 L4.85 28.65 Q4.75 27.35 5.2 26.3 6.55 23.1 12.4 24.15 L15.0 25.35 Q17.5 27.25 16.9 30.55 15.8 31.6 13.75 32.05 9.65 32.9 5.0 29.75" fill="#510c01" fill-rule="evenodd" stroke="none"/>
      <path d="M6.15 29.25 L6.3 26.45 Q7.4 23.8 12.2 24.65 L14.35 25.65 Q16.4 27.2 15.85 29.9 14.95 30.75 13.25 31.1 9.95 31.8 6.15 29.25" fill="#f4ba19" fill-rule="evenodd" stroke="none"/>
      <path d="M13.05 26.25 L14.25 26.95 Q15.4 28.2 15.05 31.1 L14.0 31.2 14.05 29.1 Q13.9 26.85 13.05 26.25" fill="#510c01" fill-rule="evenodd" stroke="none"/>
      <path d="M18.65 -21.85 Q20.45 -13.95 20.65 -9.7 20.75 -7.6 20.5 -7.05 24.3 -3.0 23.85 2.85 23.65 5.8 22.65 7.95 22.8 9.5 22.1 12.7 21.1 17.2 18.95 20.9 12.45 31.95 -2.0 30.8 -24.45 28.95 -22.9 7.4 -22.15 -3.35 -16.9 -13.75 -18.2 -14.15 -19.05 -16.0 L-19.65 -17.8 Q-15.8 -16.35 -15.35 -16.95 -16.4 -16.9 -17.3 -18.3 L-17.95 -19.75 Q-16.7 -19.65 -15.35 -20.2 -13.65 -20.95 -13.55 -22.45 -13.25 -27.1 -7.85 -32.05 -1.05 -38.3 9.25 -38.4 16.3 -38.45 18.2 -30.15 19.15 -26.0 18.65 -21.85" fill="#510c01" fill-rule="evenodd" stroke="none"/>
      <path d="M17.45 -20.9 Q19.1 -13.55 19.3 -9.6 19.4 -7.6 19.15 -7.1 22.7 -3.3 22.3 2.15 22.1 4.9 21.2 6.85 21.6 12.35 17.75 18.95 11.65 29.3 -1.8 28.2 -22.75 26.5 -21.2 5.7 -20.4 -4.65 -15.4 -14.7 -16.6 -14.55 -17.25 -15.6 L-17.7 -16.65 -14.4 -16.8 Q-11.9 -17.45 -13.55 -17.35 -14.5 -17.3 -15.25 -18.0 L-15.75 -18.7 Q-14.9 -18.6 -13.65 -20.0 -12.35 -21.5 -12.25 -22.95 -12.0 -27.15 -7.15 -31.15 -1.0 -36.25 8.65 -36.35 15.25 -36.4 17.0 -28.65 17.9 -24.8 17.45 -20.9" fill="#eb2e0f" fill-rule="evenodd" stroke="none"/>
      <path d="M8.65 -36.35 Q15.25 -36.4 17.0 -28.65 17.9 -24.8 17.45 -20.9 L18.0 -18.1 Q11.6 -14.8 3.15 -15.75 -5.1 -16.7 -5.55 -20.3 -6.05 -23.9 -2.45 -26.9 -0.65 -28.35 1.25 -29.15 -0.05 -30.25 -2.9 -30.95 L-5.5 -31.4 Q-2.3 -32.9 0.4 -33.0 L-1.45 -33.45 -2.9 -33.45 0.4 -35.0 3.45 -35.85 8.65 -36.35" fill="#c30d03" fill-rule="evenodd" stroke="none"/>
      <path d="M17.5 -21.7 L17.45 -20.9 Q18.2 -17.55 18.45 -14.3 13.3 -14.0 9.0 -10.45 L5.75 -7.0 Q4.7 -7.8 5.0 -9.45 L5.45 -10.95 Q4.3 -10.75 3.35 -9.4 L2.65 -8.05 Q2.35 -8.5 2.35 -9.35 L2.45 -10.1 Q-1.0 -7.45 -6.1 -9.2 L-10.45 -11.45 -10.35 -12.9 -10.15 -13.55 -12.3 -13.15 -14.05 -12.5 Q-13.65 -13.6 -12.05 -15.2 L-10.55 -16.55 Q-11.0 -16.45 -12.4 -17.2 L-13.65 -17.95 Q-9.5 -18.6 -8.3 -21.15 -7.35 -23.1 -4.1 -24.75 -0.35 -26.6 3.2 -25.95 5.3 -25.65 6.15 -25.15 7.85 -24.15 8.05 -21.6 L10.8 -22.9 Q14.2 -23.8 17.5 -21.7" fill="#e26c13" fill-rule="evenodd" stroke="none"/>
      <path d="M-1.6 3.45 L3.65 3.25 3.2 4.3 Q2.75 5.55 2.85 6.7 3.15 10.4 8.65 11.5 8.2 10.95 8.1 9.75 7.85 7.35 9.6 4.25 L9.55 6.1 Q9.75 8.1 11.05 8.7 12.6 9.4 13.15 10.85 13.65 12.15 13.1 13.45 L15.95 9.95 Q18.25 6.0 15.7 3.6 L17.4 5.0 Q18.8 6.9 17.6 9.45 L18.8 9.0 21.2 6.85 Q21.6 12.35 17.75 18.95 11.65 29.3 -1.8 28.2 -11.4 27.45 -16.35 22.4 -21.85 17.0 -21.2 6.1 -20.9 0.85 -9.85 2.2 L-1.6 3.45" fill="#a51b03" fill-rule="evenodd" stroke="none"/>
      <path d="M2.2 19.9 Q13.9 23.35 20.65 11.25 19.2 18.3 14.9 22.75 8.8 29.05 -1.8 28.2 -11.4 27.45 -16.35 22.4 -21.3 17.5 -21.25 8.0 L-9.1 6.35 -0.15 5.5 Q2.75 5.4 2.75 12.65 2.8 16.25 2.2 19.9" fill="#771401" fill-rule="evenodd" stroke="none"/>
      <path d="M17.5 -21.7 L17.45 -20.9 Q18.2 -17.55 18.45 -14.3 14.1 -14.05 10.3 -11.45 L7.3 -13.4 Q1.1 -8.9 -4.75 -11.65 -6.55 -12.5 -8.0 -13.95 -9.35 -15.3 -8.85 -15.1 L-6.3 -15.35 -8.5 -15.85 -9.4 -15.9 Q-9.25 -17.3 -7.55 -18.8 L-5.85 -20.05 -7.1 -19.75 -7.6 -19.35 Q-4.65 -25.35 2.25 -26.1 L3.2 -25.95 Q5.3 -25.65 6.15 -25.15 7.85 -24.15 8.05 -21.6 L10.8 -22.9 Q14.2 -23.8 17.5 -21.7" fill="#e2a119" fill-rule="evenodd" stroke="none"/>
      <path d="M17.5 -21.7 L17.45 -20.9 Q18.2 -17.55 18.45 -14.3 14.45 -14.05 10.9 -11.85 8.85 -11.7 7.85 -10.7 5.8 -8.65 5.7 -10.35 L6.0 -12.5 Q2.8 -11.0 -0.35 -12.25 -2.95 -13.25 -4.2 -15.3 -5.25 -17.15 -3.75 -18.7 L-2.0 -19.85 Q-2.65 -19.7 -3.25 -20.05 L-3.75 -20.4 Q-3.0 -23.8 -0.2 -25.05 1.85 -25.95 4.8 -25.65 7.8 -24.9 8.05 -21.6 L10.8 -22.9 Q14.2 -23.8 17.5 -21.7" fill="#f5ddce" fill-rule="evenodd" stroke="none"/>
      <path d="M0.85 -23.05 Q1.0 -22.7 2.55 -22.15 4.05 -21.6 4.05 -21.35 4.05 -20.7 3.7 -20.2 3.25 -19.4 2.3 -19.5 1.1 -19.6 0.85 -21.35 L0.85 -23.05" fill="#000000" fill-rule="evenodd" stroke="none"/>
      <path d="M3.35 -21.1 Q3.35 -20.2 3.0 -20.2 2.6 -20.2 2.6 -21.1 2.6 -21.95 3.0 -21.95 3.35 -21.95 3.35 -21.1" fill="#ffffff" fill-rule="evenodd" stroke="none"/>
      <path d="M-1.5 -23.75 Q-0.15 -24.1 1.5 -23.2 L3.6 -22.05 Q4.75 -21.8 6.45 -22.6 L5.7 -21.45 Q5.35 -21.05 4.1 -21.1 2.5 -21.2 1.3 -22.3 0.1 -23.35 -0.8 -23.65 L-1.5 -23.75" fill="#2b0802" fill-rule="evenodd" stroke="none"/>
      <path d="M6.4 -19.1 Q6.95 -19.3 7.85 -20.05 L9.35 -20.9 7.85 -19.3 5.75 -17.25 5.7 -17.55 5.65 -17.85 Q5.0 -17.1 3.35 -16.3 1.8 -15.5 0.75 -15.35 L0.9 -15.7 0.95 -16.15 -0.2 -15.5 -1.55 -15.4 Q-2.85 -15.4 -3.3 -15.8 -3.95 -16.3 -4.35 -17.45 L-3.0 -17.2 -1.0 -17.1 Q0.15 -17.25 2.6 -18.1 L2.3 -17.45 Q3.05 -17.35 4.1 -18.3 L5.35 -19.0 Q6.2 -19.45 6.5 -19.85 L6.4 -19.1" fill="#2b0802" fill-rule="evenodd" stroke="none"/>
      <path d="M17.6 -21.6 L18.85 -19.95 Q20.3 -17.85 21.2 -15.6 23.95 -8.35 20.1 -1.55 19.05 0.35 17.3 0.45 15.65 0.55 15.7 -0.4 L15.65 -2.2 15.5 -2.9 Q15.3 -2.05 13.15 -1.6 10.8 -1.15 9.8 -2.35 6.6 -6.05 6.7 -8.75 L7.4 -10.7 Q6.95 -11.5 6.95 -11.8 6.9 -13.35 8.25 -17.8 9.55 -22.15 13.7 -22.3 15.8 -22.4 17.6 -21.6" fill="#510c01" fill-rule="evenodd" stroke="none"/>
      <path d="M13.65 -21.5 Q15.55 -21.55 17.15 -20.85 L18.3 -19.3 Q19.6 -17.4 20.4 -15.35 23.0 -8.7 19.8 -2.8 18.85 -1.05 17.7 -0.95 16.75 -0.85 16.5 -1.7 L15.85 -4.65 Q15.65 -3.85 13.55 -3.0 11.3 -2.15 10.4 -3.2 7.5 -6.55 7.6 -8.9 L8.25 -10.6 7.7 -11.8 Q7.55 -13.4 8.75 -17.45 9.95 -21.4 13.65 -21.5" fill="#210602" fill-rule="evenodd" stroke="none"/>
      <path d="M11.5 -20.55 Q14.1 -21.5 16.8 -20.55 17.4 -20.4 18.9 -17.3 20.6 -13.8 20.9 -11.0 21.15 -8.65 20.1 -5.15 18.95 -1.15 17.35 -1.9 17.65 -8.2 14.1 -13.8 10.65 -19.25 8.95 -16.55 L9.65 -18.3 Q10.55 -20.15 11.5 -20.55" fill="#614842" fill-rule="evenodd" stroke="none"/>
      <path d="M14.55 -18.05 Q16.5 -16.15 17.6 -12.45 18.75 -8.35 17.95 -4.65 17.8 -4.0 17.6 -6.0 17.25 -9.65 16.15 -12.4 L14.3 -16.8 Q13.35 -19.15 14.55 -18.05" fill="#ceaba0" fill-rule="evenodd" stroke="none"/>
      <path d="M9.0 -14.6 Q13.55 -13.35 15.3 -8.95 L15.9 -6.3 Q15.95 -5.1 15.65 -5.6 L14.7 -7.15 12.95 -8.6 9.85 -10.0 Q8.65 -10.95 8.7 -12.85 L9.0 -14.6" fill="#382c2a" fill-rule="evenodd" stroke="none"/>
      <path d="M8.9 -9.25 Q9.1 -9.55 9.8 -8.95 L11.25 -8.1 Q12.3 -7.9 12.95 -7.35 13.95 -6.55 13.15 -5.5 12.2 -4.3 10.15 -6.05 8.1 -7.8 8.9 -9.25" fill="#241c1b" fill-rule="evenodd" stroke="none"/>
      <path d="M-27.55 -22.9 Q-22.55 -24.3 -12.05 -19.4 -7.95 -17.5 -3.3 -10.8 2.25 -2.9 0.05 2.4 -1.85 8.55 -6.6 12.05 -16.15 19.0 -30.55 5.55 -32.2 2.9 -33.35 -0.15 -35.65 -6.2 -33.2 -8.1 -34.45 -9.95 -34.65 -11.65 -34.8 -13.35 -34.15 -14.85 -33.3 -16.8 -31.65 -16.75 L-31.9 -17.45 Q-32.05 -18.35 -31.45 -19.4 -29.85 -22.25 -27.55 -22.9" fill="#510c01" fill-rule="evenodd" stroke="none"/>
      <path d="M-26.5 -20.95 Q-21.95 -22.2 -12.4 -17.75 -8.7 -16.05 -4.45 -9.9 0.6 -2.7 -1.35 2.1 -3.1 7.7 -7.45 10.9 -16.15 17.2 -29.25 5.0 -30.75 2.55 -31.8 -0.2 -33.9 -5.75 -31.7 -7.45 L-31.1 -7.7 -29.65 -7.55 Q-32.8 -9.1 -33.0 -10.7 -33.2 -12.8 -32.6 -14.15 -31.6 -16.3 -28.6 -15.6 -29.2 -15.75 -29.65 -16.1 -30.65 -16.8 -30.1 -17.75 -28.6 -20.35 -26.5 -20.95" fill="#0d00a2" fill-rule="evenodd" stroke="none"/>
      <path d="M-23.2 2.45 L-21.5 -0.35 Q-25.1 -4.6 -24.35 -9.55 L-22.9 -13.65 Q-25.75 -17.4 -22.35 -21.1 -18.35 -20.5 -12.4 -17.75 -8.7 -16.05 -4.45 -9.9 0.6 -2.7 -1.35 2.1 -2.4 5.5 -4.9 8.45 -9.9 14.45 -17.2 12.55 L-21.2 8.8 Q-24.3 5.85 -23.2 2.45" fill="#e2bb1d" fill-rule="evenodd" stroke="none"/>
      <path d="M-12.5 -9.7 Q-13.65 -12.15 -12.75 -14.45 -11.85 -16.65 -10.3 -16.3 -6.05 -12.85 -3.2 -8.05 0.35 -2.0 -1.35 2.1 -2.35 5.3 -4.7 8.2 -9.35 14.05 -16.15 12.8 -18.2 10.35 -17.1 7.1 L-15.6 4.35 Q-19.25 -2.65 -16.25 -6.85 -14.75 -9.0 -12.5 -9.7" fill="#e12b0e" fill-rule="evenodd" stroke="none"/>
      <path d="M2.8 33.8 Q-1.25 34.9 -7.55 31.7 -8.25 29.6 -8.0 27.55 -7.4 23.5 -2.3 23.85 3.05 24.25 5.1 27.7 6.85 30.6 5.55 32.0 4.8 33.2 2.8 33.8" fill="#510c01" fill-rule="evenodd" stroke="none"/>
      <path d="M2.2 32.85 Q-1.2 33.8 -6.55 31.1 -7.15 29.3 -6.9 27.55 -6.4 24.1 -2.1 24.45 2.4 24.8 4.15 27.7 5.6 30.15 4.55 31.35 3.9 32.4 2.2 32.85" fill="#f4ba19" fill-rule="evenodd" stroke="none"/>
      <path d="M0.8 27.2 L2.25 28.05 Q3.65 29.55 3.2 33.05 L1.95 33.15 2.0 30.6 Q1.85 27.9 0.8 27.2" fill="#510c01" fill-rule="evenodd" stroke="none"/>
    </g>
  </defs>
</svg>
