<?xml version="1.0" encoding="UTF-8" standalone="no"?>
<svg xmlns:ffdec="https://www.free-decompiler.com/flash" xmlns:xlink="http://www.w3.org/1999/xlink" ffdec:objectType="frame" height="76.8px" width="97.25px" xmlns="http://www.w3.org/2000/svg">
  <g transform="matrix(1.0, 0.0, 0.0, 1.0, 48.5, 38.4)">
    <use ffdec:characterId="679" height="76.4" transform="matrix(1.0, 0.0, 0.0, 1.0, -22.6, -38.0)" width="66.85" xlink:href="#shape0"/>
  </g>
  <defs>
    <g id="shape0" transform="matrix(1.0, 0.0, 0.0, 1.0, 22.6, 38.0)">
      <path d="M14.55 -10.0 Q24.75 -5.6 29.5 -1.1 41.8 10.45 43.9 16.6 44.85 19.4 43.05 21.8 42.35 22.7 41.35 22.7 L40.45 22.5 Q41.65 24.5 40.25 25.75 39.15 26.8 37.3 26.9 L34.3 26.35 32.7 25.8 Q32.5 29.0 24.65 27.35 L16.85 25.0 Q-6.95 10.3 -6.5 -2.2 -6.35 -6.1 -3.8 -9.3 -2.55 -10.9 -1.3 -11.75 2.6 -15.2 14.55 -10.0" fill="#510c01" fill-rule="evenodd" stroke="none"/>
      <path d="M14.45 -8.5 Q23.7 -4.5 28.05 -0.4 39.3 10.1 41.15 15.7 42.0 18.2 40.4 20.5 39.8 21.3 38.4 20.3 L37.15 19.1 Q40.0 22.55 38.45 24.05 37.5 25.05 35.15 25.1 34.1 25.15 31.75 23.4 L29.6 21.7 Q31.1 23.0 30.95 24.1 30.75 27.05 23.65 25.5 L16.55 23.4 Q-5.15 10.0 -4.8 -1.4 -4.65 -4.95 -2.35 -7.9 -1.2 -9.35 -0.05 -10.1 3.5 -13.25 14.45 -8.5" fill="#07006a" fill-rule="evenodd" stroke="none"/>
      <path d="M38.4 10.75 Q37.0 15.4 31.15 12.7 30.25 14.3 28.0 15.15 23.45 16.85 16.6 13.3 16.25 14.85 14.9 15.8 12.15 17.65 6.95 14.45 L0.35 10.4 Q-6.7 2.1 -4.1 -4.8 -3.25 -7.0 -1.6 -8.75 L-0.05 -10.1 Q3.5 -13.25 14.45 -8.5 23.7 -4.5 28.05 -0.4 35.05 6.2 38.4 10.75" fill="#8b7410" fill-rule="evenodd" stroke="none"/>
      <path d="M19.85 1.1 Q20.7 3.85 19.6 6.0 17.35 10.25 7.65 7.1 7.15 8.45 5.85 9.35 3.3 11.2 -0.65 9.15 -6.65 1.35 -3.95 -5.15 -3.1 -7.2 -1.5 -8.85 L-0.05 -10.1 Q3.0 -12.8 11.65 -9.6 18.6 -7.1 25.05 -2.7 26.55 -0.85 24.9 0.55 23.2 2.05 19.85 1.1" fill="#e12b0e" fill-rule="evenodd" stroke="none"/>
      <path d="M5.6 26.7 Q6.95 23.45 12.8 24.5 L15.45 25.75 Q17.95 27.65 17.3 30.95 16.2 32.0 14.15 32.4 10.05 33.25 5.4 30.1 L5.25 29.0 Q5.15 27.7 5.6 26.7" fill="#510c01" fill-rule="evenodd" stroke="none"/>
      <path d="M6.7 26.8 Q7.8 24.15 12.6 25.0 L14.75 26.0 Q16.8 27.6 16.3 30.3 15.4 31.15 13.7 31.5 10.35 32.2 6.55 29.6 L6.7 26.8" fill="#f4ba19" fill-rule="evenodd" stroke="none"/>
      <path d="M13.45 26.6 L14.65 27.3 Q15.8 28.6 15.45 31.5 L14.4 31.55 14.45 29.45 Q14.3 27.2 13.45 26.6" fill="#510c01" fill-rule="evenodd" stroke="none"/>
      <path d="M19.05 -21.45 Q20.85 -13.55 21.05 -9.35 21.15 -7.25 20.9 -6.7 24.7 -2.65 24.3 3.25 24.1 6.2 23.1 8.3 23.25 9.85 22.55 13.05 21.55 17.6 19.4 21.25 12.9 32.35 -1.55 31.15 -24.0 29.3 -22.5 7.75 -21.7 -3.0 -16.45 -13.4 -17.75 -13.75 -18.65 -15.6 L-19.25 -17.4 Q-15.4 -16.0 -14.9 -16.55 -16.0 -16.5 -16.9 -17.95 L-17.55 -19.4 Q-16.3 -19.3 -14.95 -19.85 -13.25 -20.6 -13.15 -22.05 -12.85 -26.75 -7.45 -31.65 -0.65 -37.9 9.65 -38.0 16.7 -38.05 18.6 -29.75 19.55 -25.6 19.05 -21.45" fill="#510c01" fill-rule="evenodd" stroke="none"/>
      <path d="M17.85 -20.55 Q19.55 -13.15 19.75 -9.2 19.85 -7.25 19.6 -6.75 23.15 -2.95 22.7 2.5 22.5 5.25 21.6 7.25 21.75 8.65 21.1 11.65 20.15 15.9 18.15 19.3 12.1 29.65 -1.4 28.55 -22.35 26.85 -20.75 6.1 -19.95 -4.25 -14.95 -14.3 -16.15 -14.15 -16.85 -15.2 L-17.3 -16.25 -14.0 -16.4 Q-11.5 -17.05 -13.15 -16.95 -14.1 -16.9 -14.85 -17.65 L-15.35 -18.35 Q-14.5 -18.25 -13.25 -19.65 -11.95 -21.15 -11.85 -22.6 -11.6 -26.75 -6.7 -30.8 -0.6 -35.9 9.05 -35.95 15.65 -36.0 17.4 -28.3 18.3 -24.4 17.85 -20.55" fill="#eb2e0f" fill-rule="evenodd" stroke="none"/>
      <path d="M17.4 -28.3 Q18.3 -24.4 17.85 -20.55 L18.4 -17.7 Q12.0 -14.45 3.55 -15.4 -4.65 -16.35 -5.15 -19.95 -5.6 -23.5 -2.05 -26.5 -0.25 -28.0 1.65 -28.8 0.35 -29.9 -2.5 -30.6 L-5.1 -31.05 Q-1.85 -32.5 0.8 -32.6 L-1.05 -33.05 -2.45 -33.1 0.8 -34.65 3.85 -35.5 9.05 -35.95 Q15.65 -36.0 17.4 -28.3" fill="#c30d03" fill-rule="evenodd" stroke="none"/>
      <path d="M11.25 -22.55 Q14.6 -23.45 17.9 -21.35 L17.85 -20.55 Q18.6 -17.25 18.85 -13.9 13.7 -13.6 9.4 -10.1 L6.15 -6.6 Q5.1 -7.4 5.4 -9.05 L5.85 -10.6 Q4.7 -10.4 3.75 -9.0 L3.05 -7.65 Q2.75 -8.15 2.75 -8.95 L2.85 -9.7 Q-0.6 -7.1 -5.65 -8.8 L-10.05 -11.05 -9.95 -12.55 -9.75 -13.2 Q-10.1 -13.4 -11.9 -12.8 L-13.6 -12.15 Q-13.25 -13.2 -11.65 -14.8 L-10.1 -16.2 Q-10.6 -16.05 -11.95 -16.8 L-13.2 -17.55 Q-9.05 -18.35 -7.9 -20.75 -6.95 -22.75 -3.7 -24.35 0.05 -26.25 3.65 -25.6 L6.6 -24.75 Q8.3 -23.75 8.5 -21.25 L11.25 -22.55" fill="#e26c13" fill-rule="evenodd" stroke="none"/>
      <path d="M18.05 9.85 L19.25 9.4 Q20.6 8.65 21.6 7.25 21.75 8.65 21.1 11.65 20.15 15.9 18.15 19.3 12.1 29.65 -1.4 28.55 -11.05 27.8 -15.95 22.8 -21.4 17.45 -20.8 6.5 -20.5 1.25 -9.45 2.6 L-1.2 3.8 4.05 3.6 3.6 4.65 Q3.15 5.9 3.25 7.05 3.55 10.75 9.05 11.9 8.6 11.3 8.5 10.1 8.25 7.7 10.05 4.65 L9.95 6.5 Q10.15 8.5 11.5 9.1 13.0 9.8 13.55 11.2 14.05 12.55 13.5 13.85 L16.35 10.35 Q18.7 6.4 16.15 3.95 L17.8 5.35 Q19.25 7.3 18.05 9.85" fill="#a51b03" fill-rule="evenodd" stroke="none"/>
      <path d="M-20.85 8.35 Q-5.95 6.1 0.3 5.85 3.2 5.75 3.2 13.0 3.2 16.65 2.6 20.3 14.3 23.7 21.1 11.65 19.55 18.7 15.3 23.1 9.2 29.45 -1.4 28.55 -11.05 27.8 -15.95 22.8 -20.9 17.9 -20.85 8.35" fill="#771401" fill-rule="evenodd" stroke="none"/>
      <path d="M17.85 -20.55 Q18.6 -17.25 18.85 -13.9 14.5 -13.65 10.7 -11.05 L7.7 -13.0 Q1.5 -8.5 -4.35 -11.25 -6.15 -12.15 -7.6 -13.55 -8.95 -14.95 -8.45 -14.75 L-5.85 -15.0 -8.1 -15.45 -9.0 -15.5 Q-8.85 -16.95 -7.1 -18.45 L-5.4 -19.7 -6.65 -19.35 -7.15 -18.95 Q-4.25 -24.95 2.65 -25.7 L3.65 -25.6 6.6 -24.75 Q8.3 -23.75 8.5 -21.25 L11.25 -22.55 Q14.6 -23.45 17.9 -21.35 L17.85 -20.55" fill="#e2a119" fill-rule="evenodd" stroke="none"/>
      <path d="M17.85 -20.55 Q18.6 -17.25 18.85 -13.9 14.9 -13.7 11.3 -11.45 9.35 -11.35 8.25 -10.35 6.2 -8.3 6.1 -10.0 L6.4 -12.15 Q3.2 -10.6 0.05 -11.85 -2.55 -12.85 -3.8 -14.95 -4.85 -16.75 -3.3 -18.3 -2.55 -19.1 -1.6 -19.5 L-2.85 -19.7 -3.35 -20.05 Q-2.6 -23.45 0.25 -24.7 2.3 -25.6 5.2 -25.3 8.2 -24.5 8.5 -21.25 L11.25 -22.55 Q14.6 -23.45 17.9 -21.35 L17.85 -20.55" fill="#f5ddce" fill-rule="evenodd" stroke="none"/>
      <path d="M1.25 -22.7 Q1.4 -22.35 2.95 -21.8 4.45 -21.25 4.45 -21.0 4.5 -20.4 4.15 -19.8 3.65 -19.0 2.7 -19.1 1.55 -19.2 1.3 -20.95 L1.25 -22.7" fill="#000000" fill-rule="evenodd" stroke="none"/>
      <path d="M3.8 -20.7 Q3.8 -19.85 3.4 -19.85 3.0 -19.85 3.0 -20.7 3.0 -21.6 3.4 -21.6 3.8 -21.6 3.8 -20.7" fill="#ffffff" fill-rule="evenodd" stroke="none"/>
      <path d="M-1.1 -23.35 Q0.3 -23.75 1.9 -22.85 L4.0 -21.7 Q5.15 -21.45 6.85 -22.2 L6.1 -21.1 Q5.8 -20.65 4.5 -20.7 2.9 -20.8 1.7 -21.9 0.5 -23.0 -0.4 -23.3 L-1.1 -23.35" fill="#2b0802" fill-rule="evenodd" stroke="none"/>
      <path d="M-1.15 -15.0 Q-2.4 -15.0 -2.9 -15.4 -3.65 -16.05 -3.9 -17.1 L-2.55 -16.85 -0.55 -16.7 3.0 -17.75 2.75 -17.05 Q3.5 -17.0 4.5 -17.9 L5.75 -18.65 6.95 -19.4 Q6.8 -19.25 6.8 -18.75 L8.3 -19.65 9.75 -20.55 8.3 -18.95 6.2 -16.85 6.05 -17.45 Q5.4 -16.75 3.75 -15.9 2.2 -15.15 1.15 -14.95 L1.4 -15.8 Q0.75 -15.3 0.2 -15.15 L-1.15 -15.0" fill="#2b0802" fill-rule="evenodd" stroke="none"/>
      <path d="M18.0 -21.25 L19.25 -19.6 Q20.7 -17.5 21.6 -15.25 24.4 -8.0 20.55 -1.2 19.45 0.75 17.7 0.85 16.05 0.95 16.15 0.0 L16.05 -1.85 15.9 -2.55 Q15.7 -1.7 13.55 -1.25 11.25 -0.75 10.2 -1.95 7.0 -5.65 7.1 -8.4 L7.8 -10.35 7.35 -11.45 Q7.3 -13.0 8.65 -17.45 9.95 -21.8 14.1 -21.95 16.2 -22.05 18.0 -21.25" fill="#510c01" fill-rule="evenodd" stroke="none"/>
      <path d="M17.6 -20.45 L18.75 -18.95 Q20.05 -17.05 20.85 -14.95 23.4 -8.35 20.2 -2.45 19.25 -0.7 18.15 -0.6 17.15 -0.5 16.95 -1.35 L16.25 -4.3 Q16.05 -3.5 13.95 -2.65 11.7 -1.75 10.8 -2.8 7.95 -6.15 8.0 -8.55 L8.65 -10.25 8.1 -11.45 Q7.95 -13.05 9.15 -17.05 10.35 -21.0 14.1 -21.1 15.95 -21.15 17.6 -20.45" fill="#210602" fill-rule="evenodd" stroke="none"/>
      <path d="M14.55 -13.4 Q11.1 -18.85 9.4 -16.15 L10.1 -17.9 Q10.95 -19.75 11.95 -20.15 14.65 -21.2 17.2 -20.2 17.8 -20.0 19.3 -16.9 21.05 -13.35 21.3 -10.6 21.55 -8.3 20.55 -4.8 19.35 -0.8 17.8 -1.55 18.1 -7.85 14.55 -13.4" fill="#614842" fill-rule="evenodd" stroke="none"/>
      <path d="M14.95 -17.7 Q16.9 -15.85 18.0 -12.05 19.15 -7.95 18.35 -4.25 18.2 -3.65 18.0 -5.65 17.65 -9.3 16.6 -12.05 L14.7 -16.45 Q13.75 -18.8 14.95 -17.7" fill="#ceaba0" fill-rule="evenodd" stroke="none"/>
      <path d="M15.7 -8.6 L16.35 -5.9 Q16.4 -4.75 16.1 -5.25 L15.1 -6.75 Q14.35 -7.8 13.35 -8.25 10.6 -9.35 10.25 -9.65 9.05 -10.55 9.1 -12.45 L9.4 -14.2 Q13.95 -13.0 15.7 -8.6" fill="#382c2a" fill-rule="evenodd" stroke="none"/>
      <path d="M10.6 -5.65 Q8.55 -7.4 9.35 -8.85 9.5 -9.15 10.2 -8.55 11.15 -7.8 11.7 -7.7 12.7 -7.5 13.4 -6.95 14.35 -6.15 13.55 -5.15 12.65 -3.95 10.6 -5.65" fill="#241c1b" fill-rule="evenodd" stroke="none"/>
      <path d="M-7.15 32.1 Q-7.85 30.0 -7.55 27.95 -6.95 23.85 -1.85 24.2 3.5 24.65 5.55 28.1 7.25 30.95 6.0 32.4 5.25 33.6 3.2 34.15 -0.85 35.3 -7.15 32.1" fill="#510c01" fill-rule="evenodd" stroke="none"/>
      <path d="M-6.15 31.45 Q-6.75 29.65 -6.5 27.95 -6.0 24.5 -1.7 24.8 2.85 25.15 4.6 28.05 6.05 30.5 5.0 31.7 4.35 32.75 2.65 33.2 -0.8 34.15 -6.15 31.45" fill="#f4ba19" fill-rule="evenodd" stroke="none"/>
      <path d="M1.25 27.55 L2.7 28.4 Q4.05 29.95 3.65 33.4 L2.4 33.5 2.45 30.95 Q2.25 28.25 1.25 27.55" fill="#510c01" fill-rule="evenodd" stroke="none"/>
      <path d="M-8.95 -8.6 Q-5.05 -12.85 7.6 -6.9 18.35 -1.85 23.5 3.45 36.75 17.05 39.2 24.4 40.25 27.75 38.5 30.7 37.8 31.8 36.75 31.8 L35.85 31.55 Q37.15 33.9 35.75 35.5 34.65 36.8 32.75 36.95 L29.6 36.4 27.9 35.75 Q27.8 39.65 19.6 37.8 L11.4 35.2 Q-13.95 18.1 -14.0 3.05 -14.0 -1.7 -11.45 -5.6 -10.2 -7.55 -8.95 -8.6" fill="#510c01" fill-rule="evenodd" stroke="none"/>
      <path d="M-7.55 -6.65 Q-4.0 -10.5 7.55 -5.1 17.3 -0.5 22.0 4.3 34.1 16.7 36.3 23.4 37.3 26.45 35.7 29.15 35.1 30.15 33.65 28.95 L32.3 27.55 Q35.35 31.65 33.85 33.55 32.85 34.7 30.45 34.85 29.35 34.9 26.85 32.9 L24.55 30.9 Q26.15 32.45 26.05 33.75 25.95 37.3 18.45 35.6 L11.0 33.25 Q-12.1 17.65 -12.15 3.95 -12.15 -0.35 -9.85 -3.9 L-7.55 -6.65" fill="#0d00a2" fill-rule="evenodd" stroke="none"/>
      <path d="M-7.55 -6.65 Q-4.0 -10.5 7.55 -5.1 17.3 -0.5 22.0 4.3 29.35 11.85 33.2 17.5 32.05 23.15 25.8 20.0 24.95 21.95 22.6 23.05 17.95 25.25 10.65 21.1 10.35 23.0 9.0 24.15 6.2 26.45 0.7 22.75 L-6.3 18.05 Q-14.0 8.25 -11.55 -0.2 -10.75 -2.8 -9.1 -5.0 L-7.55 -6.65" fill="#e2bb1d" fill-rule="evenodd" stroke="none"/>
      <path d="M13.55 6.3 Q14.55 9.6 13.45 12.2 11.3 17.4 1.1 13.85 0.65 15.5 -0.65 16.65 -3.25 18.95 -7.4 16.55 -14.0 7.35 -11.45 -0.6 -10.65 -3.05 -9.0 -5.1 L-7.55 -6.65 Q-4.5 -10.0 4.6 -6.4 11.95 -3.5 18.8 1.65 20.4 3.8 18.75 5.55 17.05 7.35 13.55 6.3" fill="#e12b0e" fill-rule="evenodd" stroke="none"/>
    </g>
  </defs>
</svg>
