<?xml version="1.0" encoding="UTF-8" standalone="no"?>
<svg xmlns:ffdec="https://www.free-decompiler.com/flash" xmlns:xlink="http://www.w3.org/1999/xlink" ffdec:objectType="frame" height="76.8px" width="97.25px" xmlns="http://www.w3.org/2000/svg">
  <g transform="matrix(1.0, 0.0, 0.0, 1.0, 48.5, 38.4)">
    <use ffdec:characterId="680" height="72.45" transform="matrix(1.0, 0.0, 0.0, 1.0, -22.15, -38.05)" width="70.9" xlink:href="#shape0"/>
  </g>
  <defs>
    <g id="shape0" transform="matrix(1.0, 0.0, 0.0, 1.0, 22.15, 38.05)">
      <path d="M14.6 32.35 Q10.5 33.2 5.85 30.05 L5.7 28.95 Q5.6 27.65 6.05 26.65 7.4 23.4 13.25 24.45 L15.85 25.7 Q18.35 27.6 17.75 30.9 16.65 31.95 14.6 32.35" fill="#510c01" fill-rule="evenodd" stroke="none"/>
      <path d="M14.1 31.45 Q10.75 32.15 6.95 29.55 L7.1 26.75 Q8.25 24.1 13.05 24.95 L15.2 25.95 Q17.2 27.55 16.7 30.25 15.8 31.1 14.1 31.45" fill="#f4ba19" fill-rule="evenodd" stroke="none"/>
      <path d="M13.85 26.55 L15.1 27.25 Q16.25 28.55 15.85 31.45 L14.85 31.5 14.9 29.4 Q14.75 27.15 13.85 26.55" fill="#510c01" fill-rule="evenodd" stroke="none"/>
      <path d="M25.95 -16.2 Q40.3 -9.55 45.85 -1.35 49.1 3.45 48.7 6.95 48.45 8.8 47.1 9.2 48.2 10.35 48.1 12.0 48.0 13.5 47.0 14.3 45.45 15.5 43.95 15.45 L42.75 15.15 Q42.95 15.5 42.5 16.2 L41.65 17.15 Q39.85 18.6 34.05 18.65 L28.65 18.45 Q19.45 17.5 16.65 12.3 15.6 9.9 15.0 9.15 14.05 7.85 12.0 8.2 1.85 9.9 0.7 1.85 0.35 -0.65 0.95 -3.8 L1.6 -6.5 Q3.15 -11.45 12.6 -14.85 21.7 -18.15 25.95 -16.2" fill="#510c01" fill-rule="evenodd" stroke="none"/>
      <path d="M13.0 -13.4 Q21.7 -16.55 25.45 -15.0 37.85 -9.85 43.55 -1.75 45.5 1.0 46.35 3.65 47.0 5.7 46.75 6.4 46.15 8.15 44.8 7.75 L43.6 6.95 Q46.2 8.9 46.45 10.85 46.65 12.35 45.6 13.2 44.25 14.25 42.0 13.5 L40.0 12.5 41.35 14.0 Q40.9 16.4 34.55 16.9 L28.3 16.95 Q20.45 16.15 17.5 11.0 L15.7 7.8 Q14.7 6.5 13.0 6.75 4.3 8.2 2.6 1.25 2.1 -0.9 2.3 -3.7 L2.65 -6.0 Q4.0 -10.15 13.0 -13.4" fill="#0d00a2" fill-rule="evenodd" stroke="none"/>
      <path d="M13.0 -13.4 Q21.7 -16.55 25.45 -15.0 34.3 -11.3 39.85 -5.95 44.05 -2.0 45.85 2.3 45.4 4.25 43.25 4.55 L41.25 4.4 Q40.45 9.45 34.65 8.75 L29.0 7.05 Q27.45 13.95 20.6 8.85 17.85 6.85 14.85 7.0 14.1 6.6 13.0 6.75 4.3 8.2 2.6 1.25 2.1 -0.9 2.3 -3.7 L2.65 -6.0 Q4.0 -10.15 13.0 -13.4" fill="#e2bb1d" fill-rule="evenodd" stroke="none"/>
      <path d="M13.0 -13.4 Q21.7 -16.55 25.45 -15.0 32.85 -11.9 38.1 -7.55 38.05 -3.15 34.2 -3.2 L30.35 -4.1 Q30.45 3.35 23.5 3.5 L18.75 2.85 16.55 2.15 Q17.8 4.9 13.35 6.75 L13.0 6.75 Q4.3 8.2 2.6 1.25 2.1 -0.9 2.3 -3.7 L2.65 -6.0 Q4.0 -10.15 13.0 -13.4" fill="#e12b0e" fill-rule="evenodd" stroke="none"/>
      <path d="M19.5 -21.5 Q21.3 -13.6 21.5 -9.4 21.6 -7.3 21.35 -6.75 25.15 -2.7 24.7 3.2 24.5 6.15 23.5 8.25 23.65 9.8 22.95 13.0 21.95 17.55 19.8 21.2 13.3 32.3 -1.15 31.1 -23.6 29.25 -22.05 7.7 -21.3 -3.05 -16.05 -13.45 -17.35 -13.8 -18.2 -15.65 L-18.8 -17.45 Q-14.95 -16.0 -14.5 -16.6 -15.55 -16.55 -16.45 -18.0 L-17.1 -19.45 Q-15.85 -19.35 -14.5 -19.9 -12.8 -20.65 -12.7 -22.1 -12.4 -26.8 -7.0 -31.7 -0.2 -37.95 10.1 -38.05 17.15 -38.1 19.05 -29.8 20.0 -25.65 19.5 -21.5" fill="#510c01" fill-rule="evenodd" stroke="none"/>
      <path d="M18.25 -20.6 Q19.95 -13.2 20.15 -9.25 20.25 -7.3 20.0 -6.8 23.55 -3.0 23.1 2.45 22.9 5.2 22.0 7.2 22.15 8.6 21.5 11.6 20.6 15.85 18.6 19.25 12.55 29.6 -0.95 28.5 -21.9 26.8 -20.35 6.05 -19.55 -4.3 -14.55 -14.35 -15.75 -14.2 -16.45 -15.25 L-16.85 -16.3 -13.55 -16.45 Q-11.05 -17.1 -12.7 -17.0 -13.65 -16.95 -14.4 -17.7 L-14.9 -18.4 Q-14.05 -18.3 -12.8 -19.7 -11.5 -21.2 -11.45 -22.65 -11.15 -26.85 -6.3 -30.85 -0.15 -35.95 9.5 -36.0 16.1 -36.05 17.85 -28.35 18.7 -24.45 18.25 -20.6" fill="#eb2e0f" fill-rule="evenodd" stroke="none"/>
      <path d="M17.85 -28.35 Q18.7 -24.45 18.25 -20.6 L18.8 -17.75 Q12.4 -14.5 4.0 -15.45 -4.25 -16.4 -4.7 -20.0 -5.2 -23.55 -1.6 -26.55 0.2 -28.05 2.1 -28.85 0.8 -29.95 -2.05 -30.65 L-4.65 -31.1 Q-1.45 -32.55 1.2 -32.65 L-0.65 -33.1 -2.05 -33.15 1.2 -34.7 4.3 -35.55 9.5 -36.0 Q16.1 -36.05 17.85 -28.35" fill="#c30d03" fill-rule="evenodd" stroke="none"/>
      <path d="M18.35 -21.4 L18.25 -20.6 Q19.1 -17.2 19.25 -13.95 14.15 -13.65 9.85 -10.15 L6.6 -6.65 Q5.55 -7.45 5.85 -9.1 L6.3 -10.65 Q5.15 -10.45 4.2 -9.05 L3.5 -7.7 Q3.2 -8.2 3.2 -9.0 L3.3 -9.75 Q-0.15 -7.15 -5.25 -8.85 L-9.6 -11.1 -9.5 -12.6 -9.3 -13.25 -11.45 -12.85 -13.2 -12.2 Q-12.8 -13.25 -11.2 -14.85 L-9.7 -16.25 Q-10.15 -16.1 -11.55 -16.85 L-12.8 -17.6 Q-8.6 -18.4 -7.45 -20.8 -6.5 -22.8 -3.25 -24.4 0.5 -26.3 4.05 -25.65 L7.0 -24.8 Q8.7 -23.8 8.9 -21.3 L11.65 -22.6 Q15.05 -23.5 18.35 -21.4" fill="#e26c13" fill-rule="evenodd" stroke="none"/>
      <path d="M18.45 9.8 L19.65 9.35 Q21.0 8.6 22.0 7.2 22.15 8.6 21.5 11.6 20.6 15.85 18.6 19.25 12.55 29.6 -0.95 28.5 -10.6 27.75 -15.5 22.75 -21.0 17.35 -20.35 6.45 -20.05 1.2 -9.0 2.55 L-0.75 3.75 4.5 3.55 4.05 4.6 Q3.6 5.85 3.7 7.0 3.95 10.7 9.5 11.85 9.05 11.25 8.95 10.05 8.7 7.65 10.45 4.6 L10.4 6.45 Q10.6 8.45 11.9 9.05 13.45 9.75 14.0 11.15 14.5 12.5 13.95 13.8 L16.8 10.3 Q19.1 6.35 16.55 3.9 L18.25 5.3 Q19.65 7.25 18.45 9.8" fill="#a51b03" fill-rule="evenodd" stroke="none"/>
      <path d="M21.5 11.6 Q20.0 18.65 15.75 23.05 9.65 29.4 -0.95 28.5 -10.6 27.75 -15.5 22.75 -20.45 17.95 -20.4 8.3 -5.5 6.05 0.7 5.8 3.6 5.7 3.6 12.95 3.65 16.6 3.05 20.25 14.8 23.65 21.5 11.6" fill="#771401" fill-rule="evenodd" stroke="none"/>
      <path d="M18.25 -20.6 Q19.1 -17.2 19.25 -13.95 14.95 -13.7 11.15 -11.1 L8.15 -13.05 Q1.95 -8.55 -3.9 -11.3 -5.75 -12.2 -7.15 -13.6 -8.5 -15.0 -8.0 -14.8 L-5.45 -15.05 -7.7 -15.5 -8.6 -15.55 Q-8.45 -17.0 -6.7 -18.5 L-5.0 -19.75 -6.25 -19.4 -6.75 -19.0 Q-3.8 -25.0 3.1 -25.75 L4.05 -25.65 7.0 -24.8 Q8.7 -23.8 8.9 -21.3 L11.65 -22.6 Q15.05 -23.5 18.35 -21.4 L18.25 -20.6" fill="#e2a119" fill-rule="evenodd" stroke="none"/>
      <path d="M18.25 -20.6 Q19.1 -17.2 19.25 -13.95 15.25 -13.75 11.75 -11.5 9.7 -11.4 8.7 -10.4 6.65 -8.35 6.55 -10.05 L6.85 -12.2 Q3.6 -10.65 0.45 -11.9 -2.15 -12.9 -3.35 -15.0 -4.4 -16.8 -2.9 -18.35 -2.1 -19.15 -1.15 -19.55 L-2.4 -19.75 -2.9 -20.1 Q-2.15 -23.5 0.65 -24.75 2.7 -25.65 5.65 -25.35 8.65 -24.5 8.9 -21.3 L11.65 -22.6 Q15.05 -23.5 18.35 -21.4 L18.25 -20.6" fill="#f5ddce" fill-rule="evenodd" stroke="none"/>
      <path d="M1.7 -22.75 Q1.85 -22.4 3.4 -21.85 4.9 -21.3 4.9 -21.05 4.9 -20.4 4.55 -19.85 4.1 -19.05 3.15 -19.15 1.95 -19.25 1.7 -21.0 L1.7 -22.75" fill="#000000" fill-rule="evenodd" stroke="none"/>
      <path d="M4.2 -20.75 Q4.2 -19.9 3.8 -19.9 3.45 -19.9 3.45 -20.75 3.45 -21.65 3.8 -21.65 4.2 -21.65 4.2 -20.75" fill="#ffffff" fill-rule="evenodd" stroke="none"/>
      <path d="M-0.65 -23.4 Q0.7 -23.8 2.3 -22.9 L4.45 -21.75 Q5.6 -21.5 7.3 -22.25 L6.5 -21.15 Q6.2 -20.7 4.95 -20.75 3.35 -20.85 2.15 -21.95 0.95 -23.05 0.05 -23.35 L-0.65 -23.4" fill="#2b0802" fill-rule="evenodd" stroke="none"/>
      <path d="M1.6 -15.0 L1.75 -15.4 1.8 -15.85 0.65 -15.2 -0.7 -15.05 Q-2.0 -15.05 -2.5 -15.45 -3.25 -16.1 -3.5 -17.15 L-2.15 -16.9 -0.15 -16.75 3.45 -17.8 3.15 -17.1 Q3.85 -17.05 4.95 -17.95 L6.2 -18.7 7.35 -19.5 7.25 -18.8 Q7.8 -19.0 8.7 -19.7 L10.2 -20.6 8.7 -19.0 7.7 -17.9 6.6 -16.9 6.55 -17.2 6.5 -17.5 4.2 -15.95 Q2.65 -15.2 1.6 -15.0" fill="#2b0802" fill-rule="evenodd" stroke="none"/>
      <path d="M18.45 -21.3 L19.7 -19.65 Q21.15 -17.55 22.05 -15.3 24.8 -8.05 20.95 -1.25 19.9 0.7 18.15 0.8 16.5 0.9 16.55 -0.05 L16.5 -1.9 16.35 -2.6 Q16.15 -1.75 14.0 -1.3 11.65 -0.8 10.65 -2.0 7.45 -5.7 7.5 -8.45 L8.25 -10.4 Q7.8 -11.1 7.8 -11.5 7.75 -13.0 9.1 -17.5 10.4 -21.85 14.55 -22.0 16.65 -22.1 18.45 -21.3" fill="#510c01" fill-rule="evenodd" stroke="none"/>
      <path d="M14.5 -21.15 Q16.4 -21.2 18.0 -20.5 L19.15 -19.0 Q20.45 -17.1 21.25 -15.0 23.85 -8.4 20.65 -2.5 19.7 -0.75 18.55 -0.65 17.6 -0.55 17.35 -1.4 L16.7 -4.35 Q16.5 -3.55 14.4 -2.7 12.15 -1.8 11.25 -2.85 8.35 -6.2 8.45 -8.6 L9.1 -10.3 8.55 -11.5 Q8.4 -13.1 9.6 -17.1 10.8 -21.05 14.5 -21.15" fill="#210602" fill-rule="evenodd" stroke="none"/>
      <path d="M14.95 -13.45 Q11.5 -18.9 9.8 -16.2 L10.5 -17.95 Q11.4 -19.8 12.35 -20.2 14.95 -21.2 17.65 -20.25 18.25 -20.05 19.75 -16.95 21.45 -13.4 21.75 -10.65 21.95 -8.3 20.95 -4.85 19.75 -0.85 18.2 -1.6 18.5 -7.9 14.95 -13.45" fill="#614842" fill-rule="evenodd" stroke="none"/>
      <path d="M15.4 -17.75 Q17.35 -15.85 18.4 -12.1 19.6 -7.95 18.8 -4.3 18.65 -3.7 18.45 -5.7 18.1 -9.35 17.0 -12.1 L15.15 -16.5 Q14.2 -18.9 15.4 -17.75" fill="#ceaba0" fill-rule="evenodd" stroke="none"/>
      <path d="M16.1 -8.65 Q16.7 -7.2 16.75 -5.95 16.8 -4.8 16.5 -5.3 L15.55 -6.8 Q14.75 -7.85 13.75 -8.3 L12.2 -8.9 Q11.15 -9.35 10.7 -9.7 9.5 -10.6 9.55 -12.5 L9.85 -14.25 Q14.4 -13.05 16.1 -8.65" fill="#382c2a" fill-rule="evenodd" stroke="none"/>
      <path d="M14.0 -5.2 Q13.05 -4.0 11.0 -5.7 8.95 -7.45 9.75 -8.9 9.9 -9.2 10.6 -8.6 11.55 -7.85 12.1 -7.75 13.15 -7.55 13.8 -7.0 14.8 -6.2 14.0 -5.2" fill="#241c1b" fill-rule="evenodd" stroke="none"/>
      <path d="M-6.7 32.05 Q-7.4 29.95 -7.15 27.9 -6.55 23.8 -1.45 24.15 3.9 24.6 5.95 28.05 7.65 30.9 6.4 32.35 5.65 33.55 3.65 34.1 -0.4 35.25 -6.7 32.05" fill="#510c01" fill-rule="evenodd" stroke="none"/>
      <path d="M-5.75 31.4 Q-6.35 29.6 -6.1 27.9 -5.55 24.45 -1.25 24.75 3.25 25.1 5.0 28.0 6.45 30.45 5.4 31.65 4.75 32.7 3.05 33.15 -0.35 34.1 -5.75 31.4" fill="#f4ba19" fill-rule="evenodd" stroke="none"/>
      <path d="M1.65 27.5 L3.1 28.35 Q4.5 29.9 4.05 33.35 L2.8 33.45 2.85 30.9 Q2.7 28.2 1.65 27.5" fill="#510c01" fill-rule="evenodd" stroke="none"/>
      <path d="M13.4 -16.2 Q30.05 -8.5 36.5 1.0 40.25 6.6 39.75 10.6 39.55 11.95 38.7 12.75 L37.9 13.25 Q39.15 14.6 39.05 16.45 39.0 18.25 37.8 19.15 36.0 20.55 34.25 20.45 L32.85 20.1 Q33.1 20.5 32.55 21.35 L31.6 22.45 Q29.5 24.15 22.8 24.25 L16.5 24.0 Q5.85 22.9 2.55 16.85 1.35 14.05 0.65 13.15 -0.45 11.7 -2.8 12.1 -14.6 14.05 -15.95 4.7 -16.35 1.8 -15.65 -1.9 L-14.9 -5.0 Q-13.05 -10.7 -2.1 -14.65 8.45 -18.5 13.4 -16.2" fill="#510c01" fill-rule="evenodd" stroke="none"/>
      <path d="M33.75 0.5 Q36.05 3.7 37.05 6.75 37.8 9.15 37.5 10.0 36.8 12.0 35.25 11.5 L33.85 10.6 Q36.85 12.85 37.15 15.15 37.4 16.9 36.15 17.9 34.6 19.1 32.0 18.2 L29.7 17.1 31.25 18.85 Q30.7 21.65 23.35 22.2 L16.1 22.2 Q7.0 21.25 3.55 15.3 L1.45 11.6 Q0.3 10.1 -1.7 10.4 -11.75 12.1 -13.7 4.0 -14.3 1.5 -14.05 -1.7 L-13.65 -4.4 Q-12.1 -9.25 -1.65 -13.0 8.45 -16.65 12.75 -14.85 27.1 -8.8 33.75 0.5" fill="#0d00a2" fill-rule="evenodd" stroke="none"/>
      <path d="M29.5 -4.35 Q34.35 0.25 36.45 5.25 35.9 7.5 33.45 7.8 L31.1 7.65 Q30.25 13.55 23.5 12.75 21.4 12.5 18.9 11.6 L16.9 10.75 Q15.1 18.75 7.15 12.85 3.95 10.45 0.5 10.7 -0.4 10.2 -1.7 10.4 -11.75 12.1 -13.7 4.0 -14.3 1.5 -14.05 -1.7 L-13.65 -4.4 Q-12.1 -9.25 -1.65 -13.0 8.45 -16.65 12.75 -14.85 23.05 -10.55 29.5 -4.35" fill="#e2bb1d" fill-rule="evenodd" stroke="none"/>
      <path d="M27.45 -6.2 Q27.4 -1.05 22.95 -1.1 L18.45 -2.15 Q18.6 6.5 10.55 6.65 L5.0 5.85 2.45 5.05 Q3.95 8.2 -1.25 10.35 L-1.7 10.4 Q-11.75 12.1 -13.7 4.0 -14.3 1.5 -14.05 -1.7 L-13.65 -4.4 Q-12.1 -9.25 -1.65 -13.0 8.45 -16.65 12.75 -14.85 21.55 -11.1 27.45 -6.2" fill="#e12b0e" fill-rule="evenodd" stroke="none"/>
    </g>
  </defs>
</svg>
