<?xml version="1.0" encoding="UTF-8" standalone="no"?>
<svg xmlns:ffdec="https://www.free-decompiler.com/flash" xmlns:xlink="http://www.w3.org/1999/xlink" ffdec:objectType="frame" height="110.9px" width="98.7px" xmlns="http://www.w3.org/2000/svg">
  <g transform="matrix(1.0, 0.0, 0.0, 1.0, 73.85, 44.0)">
    <use ffdec:characterId="451" height="108.95" transform="matrix(1.0, 0.0, 0.0, 1.0, -73.85, -43.55)" width="98.7" xlink:href="#shape0"/>
  </g>
  <defs>
    <g id="shape0" transform="matrix(1.0, 0.0, 0.0, 1.0, 73.85, 43.55)">
      <path d="M-14.25 -5.45 Q-11.05 -1.85 -7.9 6.85 -6.3 11.2 -5.4 14.85 -5.4 16.55 -9.15 19.65 -12.6 22.5 -15.45 23.7 -17.8 24.65 -23.95 18.5 L-29.65 12.15 Q-41.4 6.3 -42.25 -1.7 -42.55 -4.2 -41.7 -6.6 L-40.8 -8.55 Q-45.3 -13.95 -45.6 -18.0 -45.8 -21.85 -42.1 -22.4 -38.05 -22.9 -31.35 -19.1 -23.6 -14.65 -14.25 -5.45" fill="#231f20" fill-rule="evenodd" stroke="none"/>
      <path d="M-14.05 -4.2 Q-11.7 -1.85 -8.45 7.05 -6.8 11.45 -5.65 15.4 -5.7 17.0 -9.1 19.95 -12.25 22.65 -14.95 23.85 -16.95 24.75 -23.35 18.25 L-29.4 11.55 Q-40.45 5.95 -41.35 -1.7 -41.65 -4.1 -40.9 -6.4 L-40.1 -8.2 Q-44.25 -13.7 -44.5 -17.6 -44.7 -21.35 -41.1 -21.65 -37.25 -22.0 -30.7 -18.05 -23.2 -13.45 -14.05 -4.2" fill="#574c63" fill-rule="evenodd" stroke="none"/>
      <path d="M-8.75 50.2 Q-8.5 42.75 0.75 45.45 7.05 47.3 12.25 51.1 13.4 51.9 11.85 53.15 10.45 54.35 9.2 54.35 L7.8 55.6 Q6.15 56.75 4.8 56.35 L3.25 57.35 Q2.15 57.9 0.75 57.75 L-0.4 57.45 -3.55 55.3 Q-7.05 52.65 -8.75 50.2" fill="#613719" fill-rule="evenodd" stroke="none"/>
      <path d="M-7.75 50.0 Q-7.5 43.7 0.45 45.95 6.1 47.5 10.3 50.65 11.35 51.45 10.35 52.2 L9.2 52.8 8.25 51.75 Q6.8 50.55 4.7 49.8 L6.7 51.4 Q8.55 53.15 7.7 54.2 L7.0 54.8 4.95 54.95 3.9 53.7 Q2.45 52.25 0.35 51.6 L2.3 53.3 Q4.05 55.15 2.9 56.05 2.1 56.7 1.0 56.75 L0.05 56.7 -2.95 54.6 Q-6.3 52.05 -7.75 50.0" fill="#fbad53" fill-rule="evenodd" stroke="none"/>
      <path d="M-6.55 46.65 L-6.65 47.5 -6.3 49.55 Q-4.95 52.75 0.15 54.55 1.55 55.1 2.15 54.25 L2.4 53.4 3.25 54.9 Q3.5 56.5 0.4 56.75 L-3.2 54.35 Q-6.65 51.7 -7.75 50.0 L-7.6 48.65 Q-7.35 47.2 -6.55 46.65" fill="#b48556" fill-rule="evenodd" stroke="none"/>
      <path d="M3.65 -39.65 Q7.15 -38.8 9.3 -35.5 11.9 -31.55 11.9 -24.8 L12.15 -22.15 12.3 -16.6 Q12.0 -8.4 8.25 -6.45 4.6 -4.65 3.25 -1.05 2.55 0.75 2.6 2.2 2.8 3.85 4.05 5.35 L5.9 7.15 8.15 9.75 Q9.3 11.25 9.95 12.9 11.4 16.65 10.7 23.7 10.2 28.5 8.85 32.05 7.65 35.2 5.55 38.0 3.5 40.7 0.45 43.25 -2.5 45.75 -7.45 49.0 -10.55 51.05 -15.5 51.85 L-22.2 52.45 Q-27.5 52.45 -30.8 51.4 L-42.6 51.8 Q-50.75 50.6 -50.5 48.0 -50.25 46.0 -46.25 44.6 -41.65 42.9 -40.75 41.65 -38.85 39.0 -38.2 37.55 -37.45 36.0 -37.25 33.8 -36.95 30.75 -32.6 22.15 -30.9 18.8 -28.3 15.85 -26.8 14.15 -23.9 11.55 -22.1 9.9 -23.65 7.0 L-27.85 1.45 Q-36.2 -9.3 -34.8 -17.25 -34.0 -21.65 -33.0 -24.8 -31.45 -29.6 -28.85 -33.1 -25.3 -38.1 -20.5 -40.65 -15.45 -43.35 -8.7 -43.55 -1.9 -43.75 3.65 -39.65" fill="#231f20" fill-rule="evenodd" stroke="none"/>
      <path d="M9.05 -25.5 Q8.9 -22.6 8.35 -19.0 7.3 -11.8 5.3 -8.3 4.15 -6.3 1.0 1.55 -3.0 11.5 -5.35 16.8 -14.95 38.05 -24.95 46.9 -30.1 51.5 -39.35 51.1 -42.95 51.0 -45.55 50.1 -48.1 49.2 -48.1 48.1 -48.1 46.4 -45.25 45.55 -41.65 44.45 -40.2 42.4 L-37.9 39.0 Q-36.7 36.8 -36.7 34.6 -36.7 31.3 -32.7 24.2 -28.3 16.2 -23.2 12.4 -20.75 10.55 -22.05 7.45 -22.8 5.7 -26.65 0.95 -30.55 -4.0 -32.15 -7.2 -34.6 -12.35 -33.75 -17.1 -32.05 -26.6 -28.0 -32.25 -21.4 -41.35 -8.4 -42.0 2.5 -42.5 6.85 -34.05 9.05 -29.85 9.05 -25.5" fill="#362d45" fill-rule="evenodd" stroke="none"/>
      <path d="M-3.95 -19.75 L-1.95 -18.75 Q0.4 -17.45 2.0 -16.0 7.05 -11.25 2.75 -6.55 -1.0 -2.4 -5.85 -3.0 L-9.65 -3.7 -13.45 -3.55 Q-20.35 -1.45 -25.35 -4.35 -26.9 -5.3 -28.1 -6.6 L-28.95 -7.7 Q-30.75 -9.75 -31.75 -13.05 -32.85 -16.65 -32.5 -20.35 -32.35 -21.8 -31.05 -24.45 -29.55 -27.45 -27.35 -30.1 -21.45 -37.35 -14.45 -37.35 -6.0 -37.35 -4.15 -28.55 -3.2 -24.15 -3.95 -19.75" fill="#f0f7fe" fill-rule="evenodd" stroke="none"/>
      <path d="M-23.1 -25.2 Q-23.55 -28.45 -22.25 -30.0 L-20.95 -30.95 Q-22.6 -28.4 -21.75 -25.9 -21.35 -24.65 -20.6 -23.95 L-26.55 -23.4 Q-28.05 -22.9 -28.05 -21.1 -28.05 -19.4 -26.95 -18.7 -24.8 -17.2 -20.5 -17.35 L-16.6 -17.75 Q-21.25 -14.7 -23.35 -13.8 -25.0 -13.05 -25.35 -12.0 -25.85 -10.5 -21.95 -9.6 -18.45 -8.85 -16.2 -9.6 -14.05 -10.3 -13.15 -12.2 -10.6 -17.7 -7.15 -18.2 -4.3 -18.55 -1.6 -15.55 0.9 -12.8 1.7 -9.35 2.55 -5.7 0.8 -4.55 -2.7 -2.35 -5.75 -2.9 L-10.9 -4.9 -17.65 -5.35 Q-22.85 -5.35 -25.95 -6.75 -29.4 -8.4 -30.9 -14.55 L-31.8 -20.35 Q-31.0 -23.0 -26.95 -24.35 L-23.1 -25.2" fill="#c5c7d1" fill-rule="evenodd" stroke="none"/>
      <path d="M-23.5 -24.2 L-19.9 -24.4 -15.5 -23.3 Q-12.8 -22.3 -11.6 -21.5 L-10.95 -20.6 Q-10.6 -19.8 -10.6 -19.3 -10.6 -17.85 -13.7 -20.05 -19.25 -23.9 -25.0 -22.95 L-28.4 -22.0 -29.65 -21.3 Q-27.5 -23.6 -23.5 -24.2" fill="#362d45" fill-rule="evenodd" stroke="none"/>
      <path d="M-9.7 -29.2 Q-7.8 -28.4 -7.55 -27.75 L-8.25 -27.6 Q-9.05 -27.6 -9.2 -27.25 -9.8 -25.3 -11.4 -24.4 L-14.8 -24.2 Q-16.5 -24.9 -17.3 -26.8 -18.05 -28.7 -17.45 -30.65 -17.3 -31.15 -19.05 -32.65 L-20.6 -34.05 Q-20.05 -34.15 -17.0 -32.55 L-12.85 -30.4 -9.7 -29.2" fill="#231f20" fill-rule="evenodd" stroke="none"/>
      <path d="M-11.05 -27.5 Q-11.2 -26.95 -11.65 -26.65 L-12.5 -26.5 -13.25 -27.1 Q-13.5 -27.6 -13.4 -28.15 L-12.95 -28.6 -12.15 -28.35 -11.3 -28.1 Q-10.95 -27.95 -11.05 -27.5" fill="#ffffff" fill-rule="evenodd" stroke="none"/>
      <path d="M-3.85 -15.2 Q-4.1 -14.3 -4.7 -13.55 -5.9 -12.0 -7.5 -12.65 -8.35 -12.95 -8.95 -12.25 L-10.1 -10.4 Q-12.05 -7.4 -16.6 -7.4 L-13.7 -8.9 Q-10.65 -10.95 -10.15 -13.7 -9.75 -15.9 -6.75 -16.55 -3.75 -17.25 -3.85 -15.2" fill="#817e8a" fill-rule="evenodd" stroke="none"/>
      <path d="M-10.8 -0.95 L-3.7 -2.7 4.0 -3.7 Q1.75 -0.8 2.0 2.5 2.15 4.15 2.75 5.25 1.35 4.6 -4.6 8.3 L-12.25 12.95 -14.8 13.2 -15.3 12.65 Q-13.7 12.5 -12.4 10.65 -11.05 8.7 -13.55 7.95 -11.95 7.7 -11.2 7.0 L-10.75 6.3 Q-11.6 6.25 -12.45 5.45 L-13.1 4.65 Q-11.7 4.65 -10.3 3.95 L-9.15 3.2 Q-10.3 2.95 -15.05 0.95 L-19.55 -1.05 Q-15.05 -0.15 -10.8 -0.95" fill="#453f59" fill-rule="evenodd" stroke="none"/>
      <path d="M-11.85 13.35 Q-10.1 11.9 -9.7 10.4 -9.25 8.75 -6.8 6.4 -3.85 3.6 -0.5 3.85 1.2 4.0 2.3 4.75 L5.3 8.2 7.95 11.45 Q10.5 15.55 9.7 23.45 8.75 32.5 5.2 37.25 2.1 41.35 -7.7 47.8 -13.05 51.25 -23.15 51.0 L-29.7 50.15 Q-32.3 49.45 -31.8 48.55 -30.9 47.0 -26.95 45.55 L-23.1 44.4 Q-23.95 43.0 -22.35 40.5 -20.15 36.95 -19.85 36.0 -19.35 34.0 -17.55 31.75 L-15.9 29.9 -18.8 29.6 -19.9 29.25 Q-18.6 28.65 -16.2 26.4 L-14.15 24.2 Q-15.6 24.8 -18.7 24.2 -16.9 23.65 -15.05 21.3 L-13.6 19.1 -16.5 19.35 Q-18.15 18.55 -11.85 13.35" fill="#f0f7fe" fill-rule="evenodd" stroke="none"/>
      <path d="M3.45 35.95 L3.65 35.75 3.65 35.85 3.45 35.95" fill="#231f20" fill-rule="evenodd" stroke="none"/>
      <path d="M-36.55 35.95 L-36.5 36.5 -36.05 37.55 Q-34.9 38.95 -31.55 37.85 -36.4 40.45 -37.3 40.35 -37.9 40.3 -37.45 38.7 L-36.55 35.95" fill="#453f59" fill-rule="evenodd" stroke="none"/>
      <path d="M-38.3 40.65 Q-38.2 39.85 -37.75 41.75 -36.5 43.75 -32.7 42.6 -38.15 45.15 -39.05 45.1 -39.65 45.05 -39.2 43.4 L-38.3 40.65" fill="#453f59" fill-rule="evenodd" stroke="none"/>
      <path d="M4.25 7.05 L5.95 8.9 8.0 11.5 Q10.35 15.7 9.7 23.45 8.9 32.55 4.4 38.1 1.15 42.1 -7.7 47.8 -12.05 50.55 -19.9 50.9 -26.65 51.2 -30.6 49.85 L-28.75 49.55 Q-26.65 49.0 -25.25 47.5 L-24.65 48.2 Q-24.15 49.05 -24.6 50.1 L-23.1 50.4 Q-21.3 50.5 -19.8 49.65 L-18.8 50.1 -15.2 50.4 -12.95 46.8 Q-10.65 42.8 -10.1 40.7 L-9.45 41.3 Q-8.85 42.0 -9.0 42.55 L-7.7 40.6 Q-6.4 38.45 -6.3 37.3 L-5.45 37.75 Q-4.65 38.25 -4.7 38.85 L-1.5 36.2 Q1.8 33.3 1.9 32.15 2.1 30.45 2.75 28.1 3.5 25.3 4.15 24.25 5.85 21.75 5.4 17.2 5.1 14.05 4.25 12.1 L5.6 14.9 Q7.0 18.0 7.15 19.65 7.3 20.6 7.65 20.4 8.05 20.15 8.3 19.05 9.15 16.1 8.05 13.35 7.2 11.3 5.3 9.3 4.0 7.9 4.25 7.05" fill="#c5c7d1" fill-rule="evenodd" stroke="none"/>
      <path d="M-6.65 26.05 Q-5.2 26.85 -2.75 27.25 -1.45 27.8 -3.3 30.5 -5.2 33.25 -9.35 34.0 L-14.85 34.4 Q-16.3 34.6 -18.55 36.15 L-20.55 37.6 -20.05 36.3 Q-19.5 34.25 -17.65 31.9 L-15.9 30.0 -18.95 29.7 -20.05 29.3 Q-18.7 28.7 -16.25 26.3 L-14.05 24.05 -16.95 24.35 -18.7 24.2 Q-17.8 23.95 -16.15 22.3 L-14.05 19.85 Q-12.3 19.4 -10.3 22.0 -7.65 25.45 -6.65 26.05" fill="#c5c7d1" fill-rule="evenodd" stroke="none"/>
      <path d="M-31.15 33.55 Q-31.35 33.05 -30.55 31.6 L-29.75 30.3 Q-30.8 33.0 -25.2 30.05 -22.35 28.55 -19.35 26.5 -30.35 35.1 -31.15 33.55" fill="#453f59" fill-rule="evenodd" stroke="none"/>
      <path d="M3.55 -38.3 Q8.55 -37.15 10.1 -30.85 10.85 -27.7 10.6 -24.8 L6.65 -26.45 Q6.6 -32.35 5.05 -35.9 L3.55 -38.3" fill="#f0f7fe" fill-rule="evenodd" stroke="none"/>
      <path d="M23.85 -6.0 L20.8 -6.2 17.25 -5.9 11.85 -4.25 Q3.85 -2.0 -0.7 -3.6 -2.75 -4.35 -3.5 -5.25 -4.15 -6.05 -4.25 -7.65 L-4.3 -11.45 Q-4.4 -14.4 -5.05 -17.45 -4.2 -19.4 -3.55 -22.1 -2.25 -27.5 -3.15 -31.15 -3.55 -32.75 -2.2 -33.7 -0.9 -34.55 1.2 -34.55 6.5 -34.55 8.7 -30.75 9.15 -30.0 11.45 -28.5 L16.0 -25.0 Q22.5 -18.8 24.85 -6.45 L23.85 -6.0" fill="#764b2d" fill-rule="evenodd" stroke="none"/>
      <path d="M23.1 -6.85 Q22.2 -6.65 20.65 -7.2 L17.25 -6.85 12.05 -5.35 Q4.35 -3.15 0.15 -4.55 -1.9 -5.25 -2.55 -6.05 -3.05 -6.7 -3.05 -8.1 L-2.95 -11.55 Q-3.05 -14.25 -3.85 -17.3 -2.95 -19.05 -2.2 -21.5 -0.75 -26.4 -1.6 -29.75 -2.25 -32.55 -0.2 -33.3 1.7 -34.0 3.2 -32.6 3.55 -32.25 6.9 -30.25 10.45 -28.15 13.0 -25.95 21.45 -18.7 23.65 -7.2 23.55 -7.0 23.1 -6.85" fill="#f35533" fill-rule="evenodd" stroke="none"/>
      <path d="M8.3 -14.75 Q8.6 -12.1 4.35 -8.4 0.05 -4.65 -2.0 -6.4 -2.95 -7.2 -2.55 -11.9 L-1.8 -17.55 -1.15 -24.15 Q-0.65 -30.95 -1.3 -32.0 -1.8 -32.8 -0.5 -32.4 0.9 -31.95 2.45 -30.3 7.2 -25.3 8.3 -14.75" fill="#255476" fill-rule="evenodd" stroke="none"/>
      <path d="M-1.05 -21.15 L-0.6 -20.3 Q0.05 -19.25 1.0 -18.35 4.05 -15.35 9.15 -14.45 16.25 -13.15 19.6 -10.15 21.25 -8.6 21.5 -7.35 20.4 -9.5 16.65 -11.4 13.0 -13.2 9.25 -13.7 6.2 -14.05 1.55 -16.1 L-2.5 -18.05 -1.05 -21.15" fill="#27223d" fill-rule="evenodd" stroke="none"/>
      <path d="M1.3 -33.6 Q5.15 -33.9 7.95 -29.6 5.6 -31.35 4.0 -30.95 2.45 -30.6 3.55 -29.0 6.7 -24.5 7.75 -19.4 L8.3 -16.4 Q8.55 -15.2 9.1 -14.95 11.6 -13.6 12.4 -16.9 13.15 -20.1 11.35 -24.1 L13.1 -21.0 Q14.85 -17.2 15.05 -13.95 15.15 -12.95 15.65 -12.65 16.15 -12.35 16.7 -12.85 18.05 -14.1 17.25 -17.45 L18.9 -14.6 Q20.65 -11.4 20.9 -9.95 L21.05 -8.95 Q20.95 -8.6 19.9 -9.7 17.85 -11.95 13.25 -13.45 L6.1 -15.25 Q5.25 -15.45 4.8 -17.05 L4.15 -20.75 Q3.2 -26.5 0.55 -28.55 0.2 -28.85 0.3 -28.45 L0.6 -26.7 Q1.0 -22.9 -0.85 -18.3 -1.15 -17.6 -2.6 -17.25 -4.1 -16.95 -3.6 -17.85 -2.3 -20.3 -1.75 -24.45 -1.25 -28.4 -1.75 -30.6 -2.0 -31.8 -1.15 -32.65 -0.2 -33.55 1.3 -33.6" fill="#ffb139" fill-rule="evenodd" stroke="none"/>
      <path d="M-3.85 -17.3 Q-3.25 -17.65 -2.75 -18.05 -1.6 -18.55 -1.35 -17.45 -0.85 -15.05 -1.65 -10.5 -2.25 -7.05 -1.15 -6.1 0.3 -4.85 2.45 -8.3 4.05 -10.8 5.45 -14.6 L9.8 -13.7 Q14.55 -12.6 16.4 -11.45 L18.3 -10.35 19.05 -9.75 Q19.4 -9.45 19.05 -9.4 L17.85 -9.35 Q15.4 -9.25 14.05 -8.15 L14.4 -8.9 Q15.0 -9.85 16.15 -10.8 15.45 -11.6 13.3 -10.8 10.75 -9.8 8.7 -6.85 L9.45 -9.45 Q10.35 -12.2 11.15 -12.85 L10.0 -13.2 8.35 -13.05 5.1 -8.15 Q1.9 -3.95 -0.65 -4.85 -2.65 -5.55 -3.1 -7.1 -3.35 -7.9 -3.25 -10.1 -3.15 -11.4 -3.5 -14.45 L-3.85 -17.3" fill="#ffb139" fill-rule="evenodd" stroke="none"/>
      <path d="M-64.1 12.9 Q-65.25 10.55 -65.35 7.9 L-65.2 5.75 Q-71.55 2.2 -73.3 -1.55 -74.95 -5.2 -71.55 -7.05 -67.9 -9.1 -60.0 -7.85 -50.9 -6.45 -38.55 -1.05 -34.1 1.15 -27.85 8.4 -24.7 12.0 -22.5 15.15 -21.9 16.8 -24.35 21.15 -26.6 25.15 -28.9 27.35 -30.8 29.2 -39.0 25.5 L-46.8 21.55 Q-60.25 20.25 -64.1 12.9" fill="#231f20" fill-rule="evenodd" stroke="none"/>
      <path d="M-63.2 12.55 Q-64.35 10.35 -64.5 7.85 L-64.35 5.8 Q-70.45 2.1 -72.1 -1.55 -73.7 -5.1 -70.35 -6.75 -66.8 -8.5 -59.0 -7.1 -50.15 -5.5 -37.9 0.0 -34.75 1.45 -28.35 8.7 L-22.55 15.75 Q-21.95 17.3 -24.2 21.4 -26.2 25.15 -28.35 27.35 -29.95 28.95 -38.55 25.05 L-46.75 20.85 Q-59.5 19.55 -63.2 12.55" fill="#362d45" fill-rule="evenodd" stroke="none"/>
      <path d="M-55.35 14.65 Q-60.35 13.15 -61.95 8.55 -62.4 7.15 -62.5 5.55 L-62.5 4.3 Q-65.5 2.4 -67.1 0.2 -68.7 -2.1 -67.9 -3.55 -65.75 -7.15 -50.65 -2.35 -48.45 -1.65 -45.95 8.4 -44.7 13.4 -43.95 18.3 -49.5 18.85 -53.0 16.8 L-54.85 15.35 -55.35 14.65" fill="#6d6878" fill-rule="evenodd" stroke="none"/>
      <path d="M-50.5 12.95 Q-51.3 11.45 -51.5 9.8 L-51.55 8.45 Q-56.5 4.5 -57.9 0.4 -59.45 -4.25 -53.15 -3.1 -47.7 -2.15 -43.6 -0.25 -36.2 3.15 -33.35 9.1 -30.35 15.3 -27.55 16.95 -26.15 17.8 -25.35 17.35 -27.8 21.9 -30.2 23.2 -31.4 23.85 -32.1 23.55 -35.55 23.85 -38.3 21.9 L-40.35 19.95 Q-47.95 17.9 -50.5 12.95" fill="#585867" fill-rule="evenodd" stroke="none"/>
      <path d="M-34.75 13.85 L-38.25 9.35 -39.6 7.15 -44.4 6.05 Q-49.4 4.2 -50.55 0.7 -51.55 -2.35 -45.45 -0.7 -39.5 0.9 -35.75 4.3 -30.25 9.25 -27.25 13.8 -25.75 16.05 -25.35 17.35 -29.15 19.95 -34.75 13.85" fill="#453f59" fill-rule="evenodd" stroke="none"/>
      <path d="M-14.25 51.85 Q-7.9 55.1 -3.0 60.25 -1.95 61.35 -3.85 62.45 -5.6 63.45 -6.95 63.2 -7.65 63.8 -8.65 64.25 L-12.1 64.45 -14.0 65.2 -16.75 65.15 -17.95 64.6 -20.9 61.6 Q-24.2 58.0 -25.55 55.0 -23.75 47.05 -14.25 51.85" fill="#613719" fill-rule="evenodd" stroke="none"/>
      <path d="M-9.0 59.45 Q-7.4 61.8 -8.5 62.75 L-9.35 63.2 -11.7 63.0 -12.5 61.4 Q-13.75 59.55 -15.9 58.4 L-14.15 60.6 Q-12.65 63.0 -14.1 63.7 -15.1 64.25 -16.3 64.1 L-17.3 63.9 -20.1 61.0 Q-23.2 57.6 -24.35 55.05 -22.85 48.3 -14.65 52.35 -8.9 55.15 -5.0 59.4 -4.05 60.45 -5.25 61.1 L-6.6 61.45 -7.45 60.15 Q-8.7 58.6 -10.85 57.3 L-9.0 59.45" fill="#fbad53" fill-rule="evenodd" stroke="none"/>
      <path d="M-22.45 51.65 L-22.7 52.55 Q-22.95 53.65 -22.7 54.85 -21.95 58.6 -16.75 61.6 L-14.55 61.7 -14.1 60.75 -13.75 61.35 Q-13.45 62.05 -13.45 62.55 -13.5 64.3 -16.95 64.0 -17.45 63.95 -20.35 60.65 -23.5 57.1 -24.35 55.05 L-23.95 53.6 Q-23.35 52.05 -22.45 51.65" fill="#b48556" fill-rule="evenodd" stroke="none"/>
    </g>
  </defs>
</svg>
