<?xml version="1.0" encoding="UTF-8" standalone="no"?>
<svg xmlns:ffdec="https://www.free-decompiler.com/flash" xmlns:xlink="http://www.w3.org/1999/xlink" ffdec:objectType="frame" height="110.9px" width="98.7px" xmlns="http://www.w3.org/2000/svg">
  <g transform="matrix(1.0, 0.0, 0.0, 1.0, 73.85, 44.0)">
    <use ffdec:characterId="452" height="109.4" transform="matrix(1.0, 0.0, 0.0, 1.0, -65.85, -43.55)" width="88.1" xlink:href="#shape0"/>
  </g>
  <defs>
    <g id="shape0" transform="matrix(1.0, 0.0, 0.0, 1.0, 65.85, 43.55)">
      <path d="M-29.1 -11.45 Q-22.3 -8.55 -14.85 -1.6 -12.35 1.15 -11.0 8.45 -10.35 12.1 -10.2 15.2 -10.6 16.7 -15.05 19.9 -19.05 22.85 -22.2 24.3 -24.7 25.45 -29.6 20.8 L-34.0 15.95 Q-44.6 12.25 -43.75 5.25 -43.5 3.1 -42.15 0.85 L-40.85 -0.95 Q-44.25 -5.15 -43.65 -8.65 -43.1 -12.1 -39.25 -13.0 -35.1 -14.0 -29.1 -11.45" fill="#231f20" fill-rule="evenodd" stroke="none"/>
      <path d="M-28.75 -10.65 Q-22.15 -7.55 -14.9 -0.55 -13.05 1.25 -11.65 8.65 -10.95 12.4 -10.6 15.7 -11.0 17.15 -15.05 20.2 -18.7 22.95 -21.7 24.4 -23.9 25.45 -28.95 20.5 L-33.6 15.35 Q-43.55 11.8 -42.85 5.2 -42.65 3.1 -41.4 1.0 L-40.2 -0.75 Q-43.25 -5.1 -42.65 -8.45 -42.1 -11.75 -38.4 -12.5 -34.45 -13.3 -28.75 -10.65" fill="#574c63" fill-rule="evenodd" stroke="none"/>
      <path d="M7.05 57.0 Q5.45 57.95 4.25 57.75 L2.7 58.8 Q0.9 59.7 -0.4 59.1 -0.75 59.4 -2.05 59.85 -3.25 60.25 -4.6 59.85 L-5.7 59.4 -8.5 56.85 Q-11.6 53.7 -12.95 51.0 -11.6 43.7 -2.8 47.75 3.0 50.4 7.75 54.95 8.75 55.95 7.05 57.0" fill="#613719" fill-rule="evenodd" stroke="none"/>
      <path d="M-0.9 56.3 Q-2.1 54.7 -4.1 53.75 L-2.4 55.65 Q-1.0 57.8 -2.25 58.5 L-4.25 58.95 -5.15 58.75 -7.8 56.25 Q-10.7 53.25 -11.9 50.95 -10.7 44.8 -3.15 48.2 2.15 50.55 5.85 54.25 6.75 55.2 5.75 55.8 L4.5 56.2 3.65 55.0 Q2.45 53.65 0.45 52.6 L2.2 54.45 Q3.75 56.5 2.8 57.4 L2.0 57.9 -0.05 57.7 -0.9 56.3" fill="#fbad53" fill-rule="evenodd" stroke="none"/>
      <path d="M-10.25 47.85 L-10.45 48.65 Q-10.65 49.65 -10.35 50.75 -9.55 54.1 -4.75 56.65 -3.4 57.35 -2.7 56.65 L-2.35 55.8 -1.7 57.4 Q-1.7 59.05 -4.85 58.85 -5.3 58.8 -8.05 55.95 -11.0 52.8 -11.9 50.95 L-11.55 49.65 Q-11.05 48.25 -10.25 47.85" fill="#b48556" fill-rule="evenodd" stroke="none"/>
      <path d="M1.0 -39.65 Q4.5 -38.8 6.65 -35.5 9.25 -31.55 9.25 -24.8 L9.5 -22.15 9.7 -16.6 Q9.4 -8.4 5.6 -6.45 1.95 -4.65 0.6 -1.05 -0.05 0.75 0.0 2.2 0.15 3.85 1.4 5.35 L3.25 7.15 5.5 9.75 Q6.7 11.25 7.35 12.9 8.1 14.9 8.3 17.6 L8.05 23.7 Q7.55 28.5 6.25 32.05 5.05 35.15 2.9 38.0 0.9 40.65 -2.15 43.25 L-10.05 49.0 Q-13.15 51.05 -18.15 51.85 L-24.85 52.45 Q-30.15 52.45 -33.45 51.4 L-45.25 51.8 Q-53.4 50.6 -53.1 48.0 -52.9 46.0 -48.9 44.6 -44.3 42.9 -43.4 41.65 -41.5 39.0 -40.85 37.55 -40.1 36.0 -39.9 33.8 -39.75 31.85 -37.8 27.5 L-35.25 22.15 Q-33.6 18.8 -30.95 15.85 L-26.55 11.55 Q-24.75 9.9 -26.35 7.0 -26.85 6.05 -30.45 1.45 -33.65 -2.65 -35.5 -6.45 -38.3 -12.45 -37.45 -17.25 -36.6 -21.8 -35.65 -24.8 -34.1 -29.6 -31.55 -33.1 -27.95 -38.1 -23.15 -40.65 -18.1 -43.35 -11.35 -43.55 -4.55 -43.75 1.0 -39.65" fill="#231f20" fill-rule="evenodd" stroke="none"/>
      <path d="M6.4 -25.5 L5.75 -19.0 Q4.6 -11.8 2.65 -8.3 1.5 -6.3 -1.65 1.55 L-8.0 16.8 Q-17.6 38.05 -27.6 46.9 -32.8 51.5 -42.05 51.1 -45.6 51.0 -48.2 50.1 -50.75 49.2 -50.75 48.1 -50.75 46.4 -47.9 45.55 -44.3 44.45 -42.85 42.4 L-40.55 39.0 Q-39.35 36.8 -39.35 34.6 -39.35 31.3 -35.35 24.2 -30.95 16.25 -25.9 12.4 -23.4 10.55 -24.7 7.45 -25.45 5.7 -29.3 0.95 -33.25 -4.0 -34.8 -7.2 -37.25 -12.35 -36.4 -17.1 -34.7 -26.6 -30.65 -32.25 -24.05 -41.35 -11.05 -42.0 -0.15 -42.5 4.2 -34.05 6.4 -29.85 6.4 -25.5" fill="#362d45" fill-rule="evenodd" stroke="none"/>
      <path d="M-6.6 -19.75 L-4.6 -18.75 Q-2.25 -17.45 -0.65 -16.0 4.4 -11.25 0.1 -6.55 -3.65 -2.4 -8.45 -3.0 L-12.3 -3.7 -16.1 -3.55 Q-23.0 -1.45 -28.0 -4.35 -29.55 -5.3 -30.75 -6.6 L-31.6 -7.7 Q-33.4 -9.75 -34.4 -13.05 -35.5 -16.65 -35.15 -20.35 -35.0 -21.8 -33.7 -24.45 -32.2 -27.45 -30.0 -30.1 -24.1 -37.35 -17.1 -37.35 -8.65 -37.35 -6.75 -28.55 -5.85 -24.15 -6.6 -19.75" fill="#f0f7fe" fill-rule="evenodd" stroke="none"/>
      <path d="M-9.8 -18.2 Q-6.95 -18.55 -4.25 -15.55 -1.75 -12.8 -0.95 -9.35 -0.1 -5.7 -1.85 -4.55 -5.3 -2.35 -8.4 -2.9 L-13.55 -4.9 -20.3 -5.35 Q-25.5 -5.35 -28.55 -6.75 -32.0 -8.4 -33.55 -14.55 L-34.45 -20.35 Q-33.65 -23.0 -29.65 -24.35 -27.6 -25.05 -25.75 -25.2 -26.2 -28.45 -24.95 -30.0 -24.3 -30.8 -23.55 -30.95 -25.25 -28.4 -24.4 -25.9 -24.0 -24.65 -23.25 -23.95 L-29.2 -23.4 Q-30.7 -22.9 -30.7 -21.1 -30.7 -19.4 -29.65 -18.7 -27.45 -17.2 -23.1 -17.35 L-19.2 -17.75 Q-23.85 -14.7 -26.0 -13.8 -27.65 -13.05 -28.0 -12.0 -28.5 -10.5 -24.55 -9.6 -21.1 -8.85 -18.8 -9.6 -16.7 -10.3 -15.8 -12.2 -13.2 -17.7 -9.8 -18.2" fill="#c5c7d1" fill-rule="evenodd" stroke="none"/>
      <path d="M-32.3 -21.3 Q-30.15 -23.6 -26.15 -24.2 L-22.55 -24.4 Q-21.0 -24.3 -18.15 -23.3 -15.45 -22.3 -14.25 -21.5 -13.95 -21.3 -13.6 -20.6 -13.25 -19.8 -13.25 -19.3 -13.25 -17.85 -16.35 -20.05 -21.9 -23.9 -27.65 -22.95 L-31.05 -22.0 -32.3 -21.3" fill="#362d45" fill-rule="evenodd" stroke="none"/>
      <path d="M-10.2 -27.75 Q-10.1 -27.6 -10.85 -27.6 -11.7 -27.6 -11.8 -27.25 -12.45 -25.3 -14.1 -24.4 -15.7 -23.5 -17.45 -24.2 -19.15 -24.9 -19.9 -26.8 -20.7 -28.7 -20.1 -30.65 -19.95 -31.15 -21.7 -32.65 L-23.25 -34.05 Q-22.75 -34.15 -19.6 -32.55 L-15.5 -30.4 -12.35 -29.2 Q-10.4 -28.4 -10.2 -27.75" fill="#231f20" fill-rule="evenodd" stroke="none"/>
      <path d="M-13.7 -27.5 Q-13.85 -26.95 -14.25 -26.65 L-15.2 -26.5 -15.9 -27.1 Q-16.15 -27.6 -16.05 -28.15 L-15.6 -28.6 -14.75 -28.35 -13.95 -28.1 Q-13.65 -27.95 -13.7 -27.5" fill="#ffffff" fill-rule="evenodd" stroke="none"/>
      <path d="M-6.5 -15.2 Q-6.75 -14.3 -7.35 -13.55 -8.5 -12.0 -10.2 -12.65 -11.0 -12.95 -11.6 -12.25 L-12.75 -10.4 Q-14.7 -7.4 -19.2 -7.4 L-16.3 -8.9 Q-13.3 -10.95 -12.8 -13.7 -12.4 -15.9 -9.4 -16.55 -6.4 -17.25 -6.5 -15.2" fill="#817e8a" fill-rule="evenodd" stroke="none"/>
      <path d="M-14.9 12.95 L-17.45 13.2 -17.95 12.65 Q-16.35 12.5 -15.05 10.65 -13.65 8.7 -16.2 7.95 -14.6 7.7 -13.85 7.0 -13.45 6.65 -13.4 6.3 -14.25 6.25 -15.05 5.45 L-15.75 4.65 Q-14.35 4.65 -12.95 3.95 L-11.8 3.2 Q-13.0 2.95 -17.7 0.95 L-22.15 -1.05 Q-17.7 -0.15 -13.45 -0.95 L-6.35 -2.7 1.35 -3.7 Q-0.9 -0.8 -0.65 2.5 -0.5 4.15 0.1 5.25 -1.3 4.6 -7.25 8.3 L-14.9 12.95" fill="#453f59" fill-rule="evenodd" stroke="none"/>
      <path d="M-0.3 4.75 L2.7 8.2 Q4.55 10.15 5.35 11.45 7.9 15.55 7.05 23.45 6.1 32.5 2.55 37.25 -0.5 41.35 -10.35 47.8 -15.7 51.25 -25.8 51.0 L-32.35 50.15 Q-34.95 49.45 -34.45 48.55 -33.6 47.0 -29.55 45.55 -27.6 44.8 -25.75 44.4 -26.6 43.05 -25.0 40.5 -22.8 37.0 -22.5 36.0 -22.0 34.0 -20.25 31.75 L-18.55 29.9 -21.5 29.6 -22.55 29.25 Q-21.25 28.65 -18.85 26.4 L-16.8 24.2 -19.6 24.4 -21.35 24.2 Q-19.5 23.65 -17.7 21.3 L-16.25 19.1 -19.15 19.35 Q-20.85 18.55 -14.5 13.35 -12.75 11.95 -12.35 10.4 -11.9 8.75 -9.45 6.4 -6.55 3.6 -3.15 3.85 -1.4 4.0 -0.3 4.75" fill="#f0f7fe" fill-rule="evenodd" stroke="none"/>
      <path d="M-39.2 35.95 L-39.15 36.5 -38.7 37.55 Q-37.55 38.95 -34.2 37.85 -39.0 40.45 -39.95 40.35 -40.55 40.3 -40.1 38.7 L-39.2 35.95" fill="#453f59" fill-rule="evenodd" stroke="none"/>
      <path d="M-40.95 40.65 Q-40.85 39.85 -40.4 41.75 -39.15 43.75 -35.3 42.6 -40.8 45.15 -41.75 45.1 -42.3 45.05 -41.9 43.4 L-40.95 40.65" fill="#453f59" fill-rule="evenodd" stroke="none"/>
      <path d="M1.6 7.05 L3.3 8.9 5.35 11.5 Q7.75 15.7 7.05 23.45 6.25 32.55 1.75 38.1 -1.5 42.1 -10.35 47.8 -14.7 50.55 -22.6 50.9 -29.35 51.2 -33.25 49.85 L-31.4 49.55 Q-29.25 49.0 -27.85 47.5 L-27.3 48.2 Q-26.75 49.05 -27.25 50.1 L-25.75 50.4 Q-23.95 50.5 -22.45 49.65 L-21.45 50.1 -17.8 50.4 -15.6 46.8 Q-13.3 42.8 -12.75 40.7 L-12.1 41.3 Q-11.5 42.0 -11.65 42.55 L-10.35 40.6 Q-9.0 38.45 -8.95 37.3 L-8.1 37.75 Q-7.3 38.25 -7.35 38.85 L-4.1 36.2 Q-0.85 33.3 -0.75 32.15 L0.1 28.1 Q0.85 25.3 1.55 24.25 3.25 21.75 2.75 17.2 2.4 14.05 1.6 12.1 L2.95 14.9 Q4.35 18.0 4.55 19.65 4.6 20.6 5.0 20.4 L5.65 19.05 Q6.5 16.1 5.35 13.35 4.55 11.3 2.65 9.3 1.3 7.9 1.6 7.05" fill="#c5c7d1" fill-rule="evenodd" stroke="none"/>
      <path d="M-9.3 26.05 Q-7.8 26.85 -5.4 27.25 -4.1 27.8 -5.95 30.5 -7.85 33.25 -12.0 34.0 L-17.55 34.4 Q-18.95 34.6 -21.2 36.15 L-23.2 37.6 -22.7 36.3 Q-22.15 34.25 -20.3 31.9 L-18.55 30.0 -21.6 29.7 -22.75 29.3 Q-21.35 28.7 -18.9 26.3 L-16.7 24.05 -19.6 24.35 -21.35 24.2 Q-19.75 23.75 -16.7 19.85 -14.95 19.4 -12.95 22.0 -10.25 25.45 -9.3 26.05" fill="#c5c7d1" fill-rule="evenodd" stroke="none"/>
      <path d="M-22.0 26.5 Q-33.0 35.1 -33.8 33.55 -34.05 33.05 -33.25 31.6 L-32.4 30.3 Q-33.45 33.0 -27.85 30.05 -25.0 28.55 -22.0 26.5" fill="#453f59" fill-rule="evenodd" stroke="none"/>
      <path d="M0.9 -38.3 Q5.9 -37.15 7.45 -30.85 8.2 -27.7 8.0 -24.8 L4.0 -26.45 Q3.95 -32.35 2.4 -35.9 L0.9 -38.3" fill="#f0f7fe" fill-rule="evenodd" stroke="none"/>
      <path d="M14.6 -5.9 L9.2 -4.25 Q1.2 -2.0 -3.35 -3.6 -5.4 -4.35 -6.15 -5.25 -6.8 -6.05 -6.9 -7.65 L-6.95 -11.45 Q-7.05 -14.4 -7.7 -17.45 -6.85 -19.4 -6.2 -22.1 -4.85 -27.5 -5.8 -31.15 -6.15 -32.75 -4.85 -33.7 -3.6 -34.55 -1.4 -34.55 3.8 -34.55 6.05 -30.75 6.5 -30.0 8.8 -28.5 11.7 -26.55 13.4 -25.0 19.9 -18.8 22.25 -6.45 L21.2 -6.0 18.2 -6.2 14.6 -5.9" fill="#764b2d" fill-rule="evenodd" stroke="none"/>
      <path d="M14.6 -6.85 L9.4 -5.35 Q1.7 -3.15 -2.5 -4.55 -4.55 -5.25 -5.2 -6.05 -5.7 -6.7 -5.7 -8.1 L-5.6 -11.55 Q-5.65 -14.25 -6.45 -17.3 -5.55 -19.05 -4.85 -21.5 -3.35 -26.4 -4.25 -29.75 -4.9 -32.55 -2.85 -33.3 -0.95 -34.0 0.5 -32.6 0.9 -32.25 4.25 -30.25 7.8 -28.1 10.35 -25.95 18.8 -18.7 21.0 -7.2 20.9 -7.0 20.45 -6.85 19.55 -6.65 18.05 -7.2 L14.6 -6.85" fill="#f35533" fill-rule="evenodd" stroke="none"/>
      <path d="M5.7 -14.75 Q6.0 -12.1 1.7 -8.4 -2.65 -4.65 -4.65 -6.4 -5.6 -7.2 -5.2 -11.9 L-4.45 -17.55 -3.8 -24.15 Q-3.3 -30.95 -3.95 -32.0 -4.45 -32.8 -3.15 -32.4 -1.75 -31.95 -0.2 -30.3 4.55 -25.3 5.7 -14.75" fill="#255476" fill-rule="evenodd" stroke="none"/>
      <path d="M16.95 -10.15 Q18.6 -8.6 18.85 -7.35 17.75 -9.5 14.0 -11.4 10.35 -13.2 6.6 -13.7 3.6 -14.05 -1.1 -16.1 L-5.15 -18.05 -3.7 -21.15 -3.25 -20.3 Q-2.6 -19.25 -1.6 -18.35 1.45 -15.35 6.55 -14.45 13.6 -13.15 16.95 -10.15" fill="#27223d" fill-rule="evenodd" stroke="none"/>
      <path d="M16.3 -14.6 Q18.0 -11.4 18.25 -9.95 L18.4 -8.95 Q18.3 -8.6 17.3 -9.7 15.2 -11.95 10.6 -13.45 L3.45 -15.25 Q2.55 -15.45 2.15 -17.05 L1.5 -20.75 Q0.6 -26.5 -2.05 -28.55 -2.4 -28.85 -2.35 -28.45 L-2.05 -26.7 Q-1.6 -22.9 -3.5 -18.3 -3.8 -17.6 -5.25 -17.25 -6.7 -16.95 -6.25 -17.85 -4.95 -20.3 -4.4 -24.45 -3.9 -28.4 -4.4 -30.6 -4.7 -31.8 -3.75 -32.65 -2.85 -33.55 -1.35 -33.6 2.5 -33.9 5.3 -29.6 3.0 -31.35 1.35 -30.95 -0.2 -30.6 0.9 -29.0 4.1 -24.5 5.15 -19.4 L5.65 -16.4 Q5.95 -15.2 6.45 -14.95 9.05 -13.6 9.75 -16.9 10.5 -20.1 8.7 -24.1 L10.4 -21.0 Q12.2 -17.2 12.4 -13.95 12.5 -12.95 13.0 -12.65 13.5 -12.35 14.0 -12.85 15.4 -14.1 14.6 -17.45 L16.3 -14.6" fill="#ffb139" fill-rule="evenodd" stroke="none"/>
      <path d="M10.65 -10.8 Q8.1 -9.8 6.05 -6.85 L6.85 -9.45 Q7.75 -12.2 8.5 -12.85 L7.4 -13.2 5.7 -13.05 2.45 -8.15 Q-0.75 -3.95 -3.3 -4.85 -5.3 -5.55 -5.8 -7.1 L-5.9 -10.1 Q-5.8 -11.4 -6.15 -14.45 L-6.45 -17.3 -5.35 -18.05 Q-4.2 -18.55 -3.95 -17.45 -3.45 -15.05 -4.25 -10.5 -4.9 -7.05 -3.75 -6.1 -2.35 -4.85 -0.15 -8.3 1.4 -10.8 2.8 -14.6 L7.15 -13.7 Q11.9 -12.6 13.75 -11.45 L15.65 -10.35 16.35 -9.75 Q16.75 -9.45 16.4 -9.4 L15.2 -9.35 Q12.75 -9.25 11.35 -8.15 L11.75 -8.9 Q12.35 -9.85 13.5 -10.8 12.8 -11.6 10.65 -10.8" fill="#ffb139" fill-rule="evenodd" stroke="none"/>
      <path d="M-36.75 1.3 Q-33.3 2.6 -28.7 8.4 -26.4 11.35 -24.8 14.0 -24.45 15.5 -26.85 20.4 -29.1 24.9 -31.15 27.6 -32.85 29.85 -39.35 28.0 L-45.5 25.75 Q-56.55 27.4 -59.1 20.9 -59.95 18.85 -59.8 16.2 L-59.45 14.0 Q-64.4 11.85 -65.55 8.45 -66.6 5.2 -63.65 2.55 -60.45 -0.25 -54.0 -0.75 -46.55 -1.4 -36.75 1.3" fill="#231f20" fill-rule="evenodd" stroke="none"/>
      <path d="M-36.35 2.25 Q-33.85 3.0 -29.15 8.85 -26.75 11.8 -24.95 14.6 -24.6 16.05 -26.75 20.65 -28.75 24.85 -30.7 27.5 -32.15 29.45 -38.95 27.4 L-45.45 25.05 Q-55.9 26.55 -58.4 20.35 -59.15 18.4 -59.05 15.95 L-58.75 13.85 Q-63.5 11.5 -64.55 8.2 -65.6 5.0 -62.7 2.65 -59.6 0.1 -53.25 -0.2 -46.0 -0.55 -36.35 2.25" fill="#362d45" fill-rule="evenodd" stroke="none"/>
      <path d="M-46.7 2.7 Q-44.95 2.9 -43.7 12.4 -43.1 17.15 -42.85 21.85 -47.5 23.65 -50.25 22.4 L-51.65 21.35 -52.05 20.75 Q-56.05 20.35 -57.0 16.1 -57.3 14.8 -57.2 13.25 L-57.1 11.95 Q-59.45 10.75 -60.55 8.85 -61.7 6.95 -60.9 5.35 -58.85 1.25 -46.7 2.7" fill="#6d6878" fill-rule="evenodd" stroke="none"/>
      <path d="M-48.4 15.0 L-48.35 13.7 Q-52.15 10.85 -52.95 7.05 -53.9 2.75 -48.7 2.5 -44.3 2.25 -41.05 3.25 -35.2 5.0 -33.3 10.35 -31.35 15.95 -29.2 16.95 L-27.4 16.85 Q-29.8 22.0 -31.9 23.75 -32.55 24.3 -33.1 24.5 L-33.5 24.5 Q-36.4 25.6 -38.5 24.25 L-40.05 22.75 Q-46.2 22.35 -47.9 17.95 -48.4 16.6 -48.4 15.0" fill="#585867" fill-rule="evenodd" stroke="none"/>
      <path d="M-34.9 6.05 Q-30.75 9.8 -28.65 13.7 -27.6 15.65 -27.4 16.85 -30.8 20.3 -34.9 15.4 L-37.4 11.65 -38.35 9.8 -42.2 9.7 Q-46.2 8.95 -46.85 5.7 -47.45 2.9 -42.55 3.2 -37.7 3.5 -34.9 6.05" fill="#453f59" fill-rule="evenodd" stroke="none"/>
      <path d="M-22.15 64.5 L-24.65 61.1 Q-27.3 57.1 -28.25 53.9 -25.25 46.25 -16.55 52.5 -10.8 56.7 -6.75 62.55 -5.85 63.8 -7.9 64.55 L-11.05 64.8 Q-11.9 65.3 -13.0 65.6 -15.1 66.2 -16.4 65.25 L-18.35 65.75 Q-19.75 65.95 -21.05 65.25 L-22.15 64.5" fill="#613719" fill-rule="evenodd" stroke="none"/>
      <path d="M-20.5 64.3 L-21.45 63.95 -23.8 60.65 Q-26.3 56.8 -27.05 54.1 -24.5 47.65 -17.05 52.9 -11.85 56.55 -8.6 61.4 -7.85 62.55 -9.1 63.0 L-10.5 63.15 -11.15 61.75 Q-12.15 60.0 -14.1 58.4 L-12.6 60.8 Q-11.35 63.35 -12.6 64.1 L-13.5 64.45 Q-14.65 64.65 -15.75 63.9 L-16.35 62.2 Q-17.3 60.15 -19.25 58.7 L-17.85 61.15 Q-16.75 63.75 -18.25 64.25 L-20.5 64.3" fill="#fbad53" fill-rule="evenodd" stroke="none"/>
      <path d="M-25.1 51.9 Q-25.45 52.95 -25.4 54.15 -25.2 58.0 -20.55 61.75 -19.3 62.75 -18.4 62.15 L-17.8 61.3 -17.55 61.95 Q-17.35 62.7 -17.45 63.2 -17.75 64.95 -21.1 64.1 -21.6 63.95 -24.0 60.25 -26.55 56.25 -27.05 54.1 L-26.45 52.75 Q-25.6 51.35 -24.65 51.05 L-25.1 51.9" fill="#b48556" fill-rule="evenodd" stroke="none"/>
    </g>
  </defs>
</svg>
