<?xml version="1.0" encoding="UTF-8" standalone="no"?>
<svg xmlns:ffdec="https://www.free-decompiler.com/flash" xmlns:xlink="http://www.w3.org/1999/xlink" ffdec:objectType="frame" height="110.9px" width="98.7px" xmlns="http://www.w3.org/2000/svg">
  <g transform="matrix(1.0, 0.0, 0.0, 1.0, 73.85, 44.0)">
    <use ffdec:characterId="453" height="110.9" transform="matrix(1.0, 0.0, 0.0, 1.0, -55.85, -44.0)" width="77.3" xlink:href="#shape0"/>
  </g>
  <defs>
    <g id="shape0" transform="matrix(1.0, 0.0, 0.0, 1.0, 55.85, 44.0)">
      <path d="M21.4 42.9 Q21.0 46.5 17.2 46.35 13.35 46.15 8.0 41.9 5.25 43.85 1.4 43.5 -6.45 42.8 -12.4 31.5 L-18.65 26.1 Q-24.75 20.2 -23.85 17.95 -22.7 15.15 -20.05 11.8 -17.1 8.05 -15.5 7.95 L-7.65 10.25 Q0.85 13.15 4.4 16.2 13.55 25.05 18.0 32.45 21.85 38.95 21.4 42.9" fill="#231f20" fill-rule="evenodd" stroke="none"/>
      <path d="M20.75 41.95 Q20.5 45.45 16.85 45.3 13.05 45.2 7.6 41.2 5.05 42.95 1.35 42.6 -6.1 41.85 -11.75 31.25 L-18.4 25.5 Q-24.85 19.4 -24.0 17.45 -22.9 14.8 -20.35 11.7 -17.55 8.35 -16.0 8.25 L-7.8 10.85 Q0.85 13.8 3.2 16.05 12.4 24.75 17.0 31.9 20.95 38.2 20.75 41.95" fill="#362d45" fill-rule="evenodd" stroke="none"/>
      <path d="M8.25 39.0 Q6.6 39.9 4.35 40.05 -0.25 40.3 -3.3 36.5 -4.55 36.35 -6.05 35.2 -9.05 32.85 -10.6 27.85 L-1.2 26.1 Q8.45 24.65 9.85 26.3 19.4 37.75 17.0 40.9 16.1 42.15 13.5 41.55 11.0 41.0 8.25 39.0" fill="#6d6878" fill-rule="evenodd" stroke="none"/>
      <path d="M10.05 33.65 Q5.95 33.9 0.7 30.95 -0.95 31.9 -3.55 31.65 -8.75 31.25 -13.3 25.3 -14.4 25.05 -15.75 24.25 -18.45 22.5 -19.35 19.4 -19.85 18.9 -19.75 17.6 -19.55 15.1 -16.4 11.3 L-16.3 11.85 -15.3 13.1 Q-12.85 14.95 -6.35 15.3 -0.15 15.65 5.5 20.95 8.65 23.9 11.4 28.2 14.65 33.35 10.05 33.65" fill="#585867" fill-rule="evenodd" stroke="none"/>
      <path d="M-12.6 11.65 Q-7.55 12.65 -1.25 15.65 3.05 17.75 6.55 22.35 10.15 27.1 7.15 27.3 3.7 27.55 0.3 23.8 L-2.4 20.1 Q-6.25 19.6 -9.95 18.25 -17.3 15.55 -16.4 11.3 L-12.6 11.65" fill="#453f59" fill-rule="evenodd" stroke="none"/>
      <path d="M-15.85 50.95 Q-13.5 43.85 -5.35 49.05 0.15 52.55 4.1 57.65 4.95 58.75 3.15 59.55 1.45 60.25 0.3 59.95 L-1.4 60.75 -4.5 60.65 -6.25 61.15 -8.75 60.85 -9.75 60.25 -12.2 57.3 Q-14.85 53.8 -15.85 50.95" fill="#613719" fill-rule="evenodd" stroke="none"/>
      <path d="M2.0 58.2 L0.7 58.45 0.05 57.15 Q-0.95 55.6 -2.75 54.3 L-1.25 56.4 Q0.0 58.65 -1.1 59.4 L-1.95 59.75 Q-3.0 60.0 -4.0 59.35 -4.15 58.75 -4.6 57.85 -5.6 56.05 -7.45 54.85 L-6.05 57.0 Q-4.95 59.25 -6.25 59.8 L-8.25 60.0 -9.15 59.7 -11.45 56.85 Q-13.95 53.5 -14.75 51.1 -12.8 45.1 -5.75 49.45 -0.8 52.5 2.35 56.7 3.15 57.7 2.0 58.2" fill="#fbad53" fill-rule="evenodd" stroke="none"/>
      <path d="M-12.75 48.15 L-13.05 48.95 Q-13.35 49.95 -13.25 51.05 -12.9 54.5 -8.45 57.65 -7.25 58.5 -6.45 57.95 L-5.95 57.1 -5.6 58.85 Q-5.8 60.4 -8.85 59.85 -9.35 59.75 -11.65 56.5 -14.15 53.0 -14.75 51.1 L-14.3 49.8 Q-13.6 48.45 -12.75 48.15" fill="#b48556" fill-rule="evenodd" stroke="none"/>
      <path d="M-1.7 -40.1 Q1.8 -39.25 3.95 -35.95 6.6 -32.0 6.55 -25.25 L6.8 -22.6 Q7.1 -19.6 7.0 -17.05 6.7 -8.85 2.9 -6.9 -0.75 -5.1 -2.1 -1.5 -2.8 0.3 -2.75 1.75 -2.5 3.4 -1.3 4.9 L0.55 6.7 2.85 9.3 Q3.95 10.8 4.6 12.45 6.05 16.2 5.35 23.25 4.85 28.05 3.5 31.6 2.35 34.75 0.2 37.55 -1.8 40.25 -4.85 42.8 -7.85 45.3 -12.8 48.55 -15.85 50.6 -20.85 51.4 L-27.55 52.0 Q-32.8 52.0 -36.15 50.95 L-47.9 51.35 Q-56.1 50.15 -55.85 47.55 -55.6 45.55 -51.6 44.15 -46.95 42.45 -46.1 41.2 L-43.5 37.1 Q-42.8 35.55 -42.6 33.35 -42.3 30.3 -37.95 21.7 -36.25 18.35 -33.6 15.4 -32.15 13.7 -29.25 11.1 -27.45 9.45 -29.0 6.55 -29.6 5.55 -33.15 1.0 -41.55 -9.75 -40.15 -17.7 -39.3 -22.25 -38.3 -25.25 -36.75 -30.05 -34.2 -33.55 -30.6 -38.55 -25.85 -41.1 -20.8 -43.8 -14.05 -44.0 -7.2 -44.2 -1.7 -40.1" fill="#231f20" fill-rule="evenodd" stroke="none"/>
      <path d="M3.7 -25.95 Q3.55 -23.05 3.0 -19.45 1.95 -12.25 -0.05 -8.75 -1.2 -6.75 -4.35 1.1 -8.35 11.05 -10.7 16.35 -20.3 37.6 -30.3 46.45 -35.45 51.05 -44.7 50.65 -48.3 50.55 -50.9 49.65 -53.4 48.75 -53.4 47.65 -53.4 45.95 -50.6 45.1 -47.0 44.0 -45.55 41.95 L-43.25 38.55 Q-42.05 36.35 -42.05 34.15 -42.05 30.85 -38.05 23.75 -33.6 15.75 -28.55 11.95 -26.05 10.1 -27.4 7.0 -28.15 5.25 -32.0 0.5 -35.9 -4.45 -37.5 -7.65 -39.95 -12.8 -39.1 -17.55 -37.4 -27.05 -33.3 -32.7 -26.7 -41.8 -13.75 -42.45 -2.85 -42.95 1.5 -34.5 3.7 -30.3 3.7 -25.95" fill="#362d45" fill-rule="evenodd" stroke="none"/>
      <path d="M-9.3 -20.2 L-7.3 -19.2 Q-4.95 -17.9 -3.35 -16.45 1.75 -11.7 -2.6 -7.0 -6.35 -2.85 -11.15 -3.45 L-15.0 -4.15 -18.8 -4.0 Q-25.7 -1.9 -30.7 -4.8 -32.25 -5.75 -33.45 -7.05 L-34.3 -8.15 Q-36.1 -10.2 -37.1 -13.5 -38.2 -17.1 -37.85 -20.8 -37.7 -22.25 -36.4 -24.9 -34.9 -27.9 -32.7 -30.55 -26.8 -37.8 -19.8 -37.8 -11.35 -37.8 -9.5 -29.0 -8.55 -24.6 -9.3 -20.2" fill="#f0f7fe" fill-rule="evenodd" stroke="none"/>
      <path d="M-12.5 -18.65 Q-9.65 -19.0 -6.9 -16.0 -4.45 -13.25 -3.65 -9.8 -2.8 -6.15 -4.55 -5.0 -8.0 -2.8 -11.1 -3.35 L-16.25 -5.35 -23.0 -5.8 Q-28.2 -5.8 -31.25 -7.2 -34.7 -8.85 -36.25 -15.0 L-37.15 -20.8 Q-36.35 -23.45 -32.3 -24.8 L-28.45 -25.65 Q-28.9 -28.9 -27.6 -30.45 -27.0 -31.25 -26.3 -31.4 -27.95 -28.85 -27.1 -26.35 -26.7 -25.1 -25.95 -24.4 L-31.9 -23.85 Q-33.4 -23.35 -33.4 -21.55 -33.4 -19.85 -32.3 -19.15 -30.15 -17.65 -25.85 -17.8 L-21.95 -18.2 Q-26.55 -15.15 -28.7 -14.25 -30.35 -13.5 -30.7 -12.45 -31.2 -10.95 -27.3 -10.05 -23.8 -9.3 -21.5 -10.05 -19.4 -10.75 -18.5 -12.65 -15.95 -18.15 -12.5 -18.65" fill="#c5c7d1" fill-rule="evenodd" stroke="none"/>
      <path d="M-35.0 -21.75 Q-32.85 -24.05 -28.85 -24.65 L-25.25 -24.85 Q-23.7 -24.75 -20.85 -23.75 -18.15 -22.75 -16.9 -21.95 L-16.3 -21.05 Q-15.95 -20.25 -15.95 -19.75 -15.95 -18.3 -19.05 -20.5 -24.6 -24.35 -30.35 -23.4 L-33.75 -22.45 -35.0 -21.75" fill="#362d45" fill-rule="evenodd" stroke="none"/>
      <path d="M-12.9 -28.2 L-13.6 -28.05 Q-14.4 -28.05 -14.5 -27.7 -15.15 -25.75 -16.75 -24.85 L-20.1 -24.65 Q-21.85 -25.35 -22.6 -27.25 -23.4 -29.15 -22.75 -31.1 -22.6 -31.6 -24.4 -33.1 -26.05 -34.5 -25.9 -34.5 -25.4 -34.6 -22.3 -33.0 L-18.2 -30.85 -15.05 -29.65 Q-13.15 -28.85 -12.9 -28.2" fill="#231f20" fill-rule="evenodd" stroke="none"/>
      <path d="M-16.4 -27.95 Q-16.5 -27.4 -16.95 -27.1 L-17.85 -26.95 -18.6 -27.55 Q-18.85 -28.05 -18.7 -28.6 L-18.3 -29.05 -17.5 -28.8 -16.65 -28.55 Q-16.3 -28.4 -16.4 -27.95" fill="#ffffff" fill-rule="evenodd" stroke="none"/>
      <path d="M-9.2 -15.65 Q-9.45 -14.75 -10.05 -14.0 -11.2 -12.45 -12.85 -13.1 -13.7 -13.4 -14.3 -12.7 L-15.4 -10.85 Q-17.4 -7.85 -21.95 -7.85 L-19.0 -9.35 Q-16.0 -11.4 -15.5 -14.15 -15.1 -16.35 -12.05 -17.0 -9.05 -17.7 -9.2 -15.65" fill="#817e8a" fill-rule="evenodd" stroke="none"/>
      <path d="M-17.6 12.5 Q-19.3 13.2 -20.15 12.75 L-20.65 12.2 Q-19.0 12.05 -17.75 10.2 -16.4 8.25 -18.9 7.5 -17.3 7.25 -16.5 6.55 -16.15 6.2 -16.1 5.85 -16.9 5.8 -17.75 5.0 L-18.45 4.2 Q-17.05 4.2 -15.65 3.5 L-14.5 2.75 -20.4 0.5 -24.85 -1.5 Q-20.4 -0.6 -16.15 -1.4 L-9.05 -3.15 -1.35 -4.15 Q-3.6 -1.25 -3.3 2.05 -3.15 3.7 -2.6 4.8 -4.0 4.15 -9.95 7.85 L-17.6 12.5" fill="#453f59" fill-rule="evenodd" stroke="none"/>
      <path d="M-3.0 4.3 L0.0 7.75 Q1.8 9.7 2.6 11.0 5.2 15.1 4.35 23.0 3.4 32.05 -0.15 36.8 -3.25 40.9 -13.05 47.35 -18.35 50.8 -28.5 50.55 L-35.05 49.7 Q-37.65 49.0 -37.15 48.1 -36.25 46.55 -32.3 45.1 L-28.45 43.95 Q-29.3 42.55 -27.7 40.05 -25.45 36.5 -25.2 35.55 -24.7 33.55 -22.9 31.3 L-21.25 29.45 -24.15 29.15 -25.25 28.8 Q-23.95 28.2 -21.55 25.95 L-19.45 23.75 -22.3 23.95 -24.05 23.75 Q-22.25 23.2 -20.4 20.85 L-18.95 18.65 -21.85 18.9 Q-23.5 18.1 -17.2 12.9 -15.4 11.45 -15.05 9.95 -14.6 8.3 -12.15 5.95 -9.2 3.15 -5.8 3.4 -4.15 3.55 -3.0 4.3" fill="#f0f7fe" fill-rule="evenodd" stroke="none"/>
      <path d="M-1.9 35.5 L-1.7 35.3 -1.7 35.4 -1.9 35.5" fill="#231f20" fill-rule="evenodd" stroke="none"/>
      <path d="M-41.9 35.5 L-41.85 36.05 -41.4 37.1 Q-40.2 38.5 -36.9 37.4 -41.7 40.0 -42.65 39.9 -43.2 39.85 -42.8 38.25 L-41.9 35.5" fill="#453f59" fill-rule="evenodd" stroke="none"/>
      <path d="M-43.65 40.2 Q-43.5 39.4 -43.1 41.3 -41.85 43.3 -38.0 42.15 -43.5 44.7 -44.4 44.65 -45.0 44.6 -44.55 42.95 L-43.65 40.2" fill="#453f59" fill-rule="evenodd" stroke="none"/>
      <path d="M-1.1 6.6 L0.6 8.45 2.65 11.05 Q5.05 15.25 4.35 23.0 3.55 32.1 -0.95 37.65 -4.2 41.65 -13.05 47.35 -17.4 50.1 -25.25 50.45 -32.0 50.75 -35.95 49.4 L-34.1 49.1 Q-32.0 48.55 -30.6 47.05 L-30.0 47.75 Q-29.5 48.6 -29.95 49.65 L-28.45 49.95 Q-26.65 50.05 -25.15 49.2 L-24.15 49.65 -20.55 49.95 -18.3 46.35 Q-16.0 42.35 -15.45 40.25 L-14.8 40.85 Q-14.15 41.55 -14.3 42.1 L-13.05 40.15 Q-11.75 38.0 -11.65 36.85 L-10.8 37.3 Q-10.0 37.8 -10.0 38.4 L-6.8 35.75 Q-3.55 32.85 -3.4 31.7 L-2.6 27.65 Q-1.85 24.85 -1.2 23.8 0.5 21.3 0.05 16.75 -0.25 13.6 -1.1 11.65 L0.3 14.45 Q1.65 17.55 1.8 19.2 1.95 20.15 2.35 19.95 L3.0 18.6 Q3.8 15.65 2.7 12.9 1.85 10.85 -0.05 8.85 -1.35 7.45 -1.1 6.6" fill="#c5c7d1" fill-rule="evenodd" stroke="none"/>
      <path d="M-11.95 25.6 Q-10.5 26.4 -8.1 26.8 -6.75 27.35 -8.65 30.05 -10.55 32.8 -14.7 33.55 L-20.2 33.95 Q-21.65 34.15 -23.9 35.7 L-25.9 37.15 -25.4 35.85 Q-24.85 33.8 -23.0 31.45 L-21.25 29.55 -24.3 29.25 -25.4 28.85 Q-24.05 28.25 -21.6 25.85 L-19.4 23.6 -22.3 23.9 -24.05 23.75 Q-23.15 23.5 -21.5 21.85 L-19.4 19.4 Q-17.65 18.95 -15.65 21.55 -12.95 25.0 -11.95 25.6" fill="#c5c7d1" fill-rule="evenodd" stroke="none"/>
      <path d="M-24.7 26.05 Q-35.65 34.65 -36.45 33.1 -36.7 32.6 -35.9 31.15 L-35.1 29.85 Q-36.15 32.55 -30.55 29.6 -27.7 28.1 -24.7 26.05" fill="#453f59" fill-rule="evenodd" stroke="none"/>
      <path d="M-1.8 -38.75 Q3.2 -37.6 4.75 -31.3 5.5 -28.15 5.25 -25.25 L1.3 -26.9 Q1.25 -32.8 -0.3 -36.35 L-1.8 -38.75" fill="#f0f7fe" fill-rule="evenodd" stroke="none"/>
      <path d="M11.9 -6.35 L6.5 -4.7 Q-1.5 -2.45 -6.05 -4.05 -8.1 -4.8 -8.85 -5.7 -9.5 -6.5 -9.6 -8.1 L-9.65 -11.9 Q-9.75 -14.85 -10.35 -17.9 -9.55 -19.85 -8.9 -22.55 -7.55 -27.95 -8.45 -31.6 -8.85 -33.2 -7.5 -34.15 -6.25 -35.0 -4.1 -35.0 1.15 -35.0 3.35 -31.2 3.8 -30.45 6.1 -28.95 9.0 -27.0 10.7 -25.45 17.15 -19.25 19.5 -6.9 19.2 -6.65 18.5 -6.45 L15.45 -6.65 11.9 -6.35" fill="#764b2d" fill-rule="evenodd" stroke="none"/>
      <path d="M11.95 -7.3 L6.75 -5.8 Q-1.0 -3.6 -5.2 -5.0 -7.25 -5.7 -7.85 -6.5 -8.4 -7.15 -8.4 -8.55 L-8.3 -12.0 Q-8.35 -14.7 -9.15 -17.75 -8.25 -19.5 -7.5 -21.95 -6.05 -26.85 -6.9 -30.2 -7.6 -33.0 -5.55 -33.75 -3.65 -34.45 -2.15 -33.05 -1.8 -32.7 1.55 -30.7 5.1 -28.6 7.65 -26.4 16.1 -19.15 18.3 -7.65 18.2 -7.45 17.75 -7.3 16.85 -7.1 15.3 -7.65 L11.95 -7.3" fill="#f35533" fill-rule="evenodd" stroke="none"/>
      <path d="M3.0 -15.2 Q3.3 -12.55 -0.95 -8.85 -5.3 -5.1 -7.35 -6.85 -8.3 -7.65 -7.85 -12.35 L-7.15 -18.0 Q-6.75 -21.2 -6.5 -24.6 -5.95 -31.4 -6.65 -32.45 -7.15 -33.25 -5.85 -32.85 -4.45 -32.4 -2.9 -30.75 1.9 -25.75 3.0 -15.2" fill="#255476" fill-rule="evenodd" stroke="none"/>
      <path d="M14.25 -10.6 Q15.9 -9.05 16.2 -7.8 15.05 -9.95 11.3 -11.85 7.7 -13.65 3.95 -14.15 0.9 -14.5 -3.75 -16.55 L-7.85 -18.5 -6.4 -21.6 -5.95 -20.75 Q-5.3 -19.7 -4.35 -18.8 -1.25 -15.8 3.85 -14.9 10.9 -13.6 14.25 -10.6" fill="#27223d" fill-rule="evenodd" stroke="none"/>
      <path d="M13.6 -15.05 Q15.3 -11.85 15.6 -10.4 L15.7 -9.4 Q15.6 -9.05 14.6 -10.15 12.5 -12.4 7.9 -13.9 L0.8 -15.7 Q-0.1 -15.9 -0.55 -17.5 L-1.2 -21.2 Q-2.15 -26.95 -4.8 -29.0 -5.15 -29.3 -5.05 -28.9 L-4.75 -27.15 Q-4.35 -23.35 -6.2 -18.75 -6.5 -18.05 -7.95 -17.7 -9.4 -17.4 -8.95 -18.3 -7.65 -20.75 -7.1 -24.9 -6.6 -28.85 -7.1 -31.05 -7.35 -32.25 -6.45 -33.1 -5.55 -34.0 -4.05 -34.05 -0.15 -34.35 2.6 -30.05 0.3 -31.8 -1.35 -31.4 -2.9 -31.05 -1.8 -29.45 1.4 -24.95 2.4 -19.85 L2.95 -16.85 Q3.2 -15.65 3.75 -15.4 6.3 -14.05 7.05 -17.35 7.85 -20.55 6.0 -24.55 L7.75 -21.45 Q9.5 -17.65 9.75 -14.4 9.8 -13.4 10.35 -13.1 10.8 -12.8 11.35 -13.3 12.7 -14.55 11.95 -17.9 L13.6 -15.05" fill="#ffb139" fill-rule="evenodd" stroke="none"/>
      <path d="M8.0 -11.25 Q5.4 -10.25 3.35 -7.3 L4.1 -9.9 Q5.05 -12.65 5.8 -13.3 L4.7 -13.65 3.0 -13.5 -0.25 -8.6 Q-3.45 -4.4 -5.95 -5.3 -8.0 -6.0 -8.45 -7.55 -8.7 -8.35 -8.6 -10.55 -8.5 -11.85 -8.8 -14.9 L-9.15 -17.75 -8.05 -18.5 Q-6.9 -19.0 -6.7 -17.9 -6.2 -15.5 -7.0 -10.95 -7.6 -7.5 -6.45 -6.55 -5.05 -5.3 -2.9 -8.75 -1.25 -11.25 0.1 -15.05 L4.45 -14.15 Q9.2 -13.05 11.05 -11.9 L12.95 -10.8 13.7 -10.2 Q14.05 -9.9 13.7 -9.85 L12.55 -9.8 Q10.05 -9.7 8.7 -8.6 L9.1 -9.35 Q9.65 -10.3 10.85 -11.25 10.1 -12.05 8.0 -11.25" fill="#ffb139" fill-rule="evenodd" stroke="none"/>
      <path d="M-26.2 64.05 L-28.0 60.3 Q-29.9 55.8 -30.15 52.5 -25.8 45.6 -18.45 53.3 -13.5 58.5 -10.7 65.05 -10.05 66.45 -12.2 66.75 L-15.4 66.45 -17.4 66.85 Q-19.6 67.05 -20.65 65.9 L-22.7 66.0 Q-24.05 65.9 -25.25 65.0 L-26.2 64.05" fill="#613719" fill-rule="evenodd" stroke="none"/>
      <path d="M-25.35 63.6 L-27.1 59.95 Q-28.8 55.7 -29.05 52.9 -25.35 47.05 -19.0 53.65 -14.6 58.15 -12.3 63.55 -11.75 64.85 -13.05 65.05 L-14.45 64.95 Q-14.5 64.35 -14.85 63.4 -15.55 61.45 -17.1 59.6 L-16.1 62.25 Q-15.35 64.95 -16.7 65.5 L-17.7 65.7 Q-18.85 65.65 -19.75 64.65 -19.7 63.95 -20.05 62.9 -20.55 60.7 -22.25 58.95 L-21.35 61.55 Q-20.75 64.35 -22.3 64.55 L-24.5 64.2 -25.35 63.6" fill="#fbad53" fill-rule="evenodd" stroke="none"/>
      <path d="M-26.7 51.15 Q-27.25 52.1 -27.4 53.3 -27.95 57.1 -24.1 61.65 -23.05 62.9 -22.05 62.45 L-21.3 61.7 -21.35 63.7 Q-22.0 65.35 -25.1 63.85 -25.55 63.65 -27.15 59.55 -28.9 55.1 -29.05 52.9 L-28.2 51.7 Q-27.1 50.5 -26.15 50.35 L-26.7 51.15" fill="#b48556" fill-rule="evenodd" stroke="none"/>
      <path d="M8.4 52.8 Q4.25 52.7 -1.4 48.45 -4.25 50.5 -8.4 50.25 -16.65 49.8 -23.05 38.2 L-29.75 32.8 Q-36.2 26.9 -35.3 24.5 -34.15 21.55 -31.35 17.95 -28.25 14.0 -26.55 13.9 L-18.3 16.05 Q-9.25 18.75 -5.45 21.85 4.3 30.8 9.1 38.4 13.25 45.0 12.8 49.05 12.4 52.85 8.4 52.8" fill="#231f20" fill-rule="evenodd" stroke="none"/>
      <path d="M7.95 51.7 Q3.95 51.7 -1.8 47.75 -4.5 49.65 -8.45 49.35 -16.3 48.8 -22.4 37.9 L-29.45 32.2 Q-36.35 26.1 -35.5 24.0 -34.35 21.25 -31.65 17.95 -28.75 14.35 -27.1 14.2 L-18.4 16.65 Q-9.2 19.45 -6.7 21.7 3.05 30.5 8.0 37.8 12.3 44.2 12.05 48.1 11.85 51.75 7.95 51.7" fill="#362d45" fill-rule="evenodd" stroke="none"/>
    </g>
  </defs>
</svg>
