<?xml version="1.0" encoding="UTF-8" standalone="no"?>
<svg xmlns:ffdec="https://www.free-decompiler.com/flash" xmlns:xlink="http://www.w3.org/1999/xlink" ffdec:objectType="frame" height="110.9px" width="98.7px" xmlns="http://www.w3.org/2000/svg">
  <g transform="matrix(1.0, 0.0, 0.0, 1.0, 73.85, 44.0)">
    <use ffdec:characterId="454" height="108.35" transform="matrix(1.0, 0.0, 0.0, 1.0, -56.65, -42.3)" width="81.25" xlink:href="#shape0"/>
  </g>
  <defs>
    <g id="shape0" transform="matrix(1.0, 0.0, 0.0, 1.0, 56.65, 42.3)">
      <path d="M20.1 36.65 Q16.1 38.2 11.0 35.95 9.55 38.15 7.0 38.7 1.9 39.85 -3.65 31.75 -6.1 31.4 -8.7 30.45 -13.8 28.6 -14.25 25.6 L-14.6 19.5 Q-14.55 15.5 -13.5 14.7 L-4.8 12.1 Q4.65 9.85 8.0 11.45 17.05 16.3 21.4 22.0 25.1 26.9 24.5 31.2 23.9 35.2 20.1 36.65" fill="#231f20" fill-rule="evenodd" stroke="none"/>
      <path d="M20.05 35.8 Q16.45 37.35 10.95 35.1 9.45 37.3 6.9 37.85 1.75 39.05 -3.3 31.1 -5.85 30.85 -8.55 30.0 -13.85 28.35 -14.6 25.3 -15.2 23.0 -15.0 19.65 -14.75 16.0 -13.75 15.15 L-4.75 12.85 Q4.8 10.85 7.9 12.45 15.75 16.5 19.95 21.7 23.6 26.3 23.55 30.4 23.4 34.3 20.05 35.8" fill="#362d45" fill-rule="evenodd" stroke="none"/>
      <path d="M15.9 33.9 Q13.2 34.05 10.8 32.2 8.85 34.2 6.3 35.0 1.2 36.6 -1.9 30.7 -3.9 30.15 -5.4 28.9 -8.45 26.35 -6.1 22.7 L-3.6 20.0 Q-1.5 17.75 0.55 16.65 6.9 13.25 14.45 19.75 18.95 23.6 20.25 27.05 21.3 30.0 19.85 31.95 18.55 33.8 15.9 33.9" fill="#6d6878" fill-rule="evenodd" stroke="none"/>
      <path d="M17.15 26.9 Q16.5 30.4 11.5 28.6 10.4 30.45 8.25 31.25 3.9 32.85 -1.55 27.7 -2.5 28.45 -4.15 28.75 -7.45 29.3 -10.95 26.8 L-11.9 24.55 Q-12.75 21.5 -12.5 17.35 L-12.15 17.7 -10.9 18.05 Q-8.3 18.1 -3.75 15.1 0.65 12.25 6.6 14.55 10.8 16.15 13.25 18.75 17.75 23.4 17.15 26.9" fill="#585867" fill-rule="evenodd" stroke="none"/>
      <path d="M8.85 15.25 Q13.0 17.6 11.4 19.15 8.4 22.05 3.7 21.05 2.2 20.75 0.75 20.1 L-0.45 19.5 Q-3.25 20.95 -6.15 21.4 -12.0 22.35 -12.5 17.35 L-9.2 16.1 Q-4.75 14.65 1.0 13.55 4.65 12.9 8.85 15.25" fill="#453f59" fill-rule="evenodd" stroke="none"/>
      <path d="M2.7 58.35 L1.15 59.4 Q-0.7 60.3 -2.0 59.7 L-3.65 60.45 -6.2 60.5 Q-6.7 60.3 -7.3 60.05 L-10.1 57.45 Q-13.15 54.35 -14.55 51.65 -13.2 44.35 -4.4 48.35 1.45 51.0 6.15 55.55 7.15 56.55 5.45 57.55 3.85 58.55 2.7 58.35" fill="#613719" fill-rule="evenodd" stroke="none"/>
      <path d="M4.1 56.4 L2.9 56.8 2.1 55.6 Q0.85 54.25 -1.1 53.15 L0.65 55.05 Q2.2 57.1 1.2 58.0 L0.4 58.5 -1.65 58.35 Q-1.85 57.7 -2.45 56.9 -3.7 55.3 -5.65 54.35 L-4.0 56.3 Q-2.6 58.4 -3.8 59.1 -4.7 59.65 -5.8 59.55 L-6.7 59.4 -9.4 56.85 Q-12.3 53.9 -13.45 51.65 -12.35 45.45 -4.8 48.8 0.55 51.15 4.25 54.85 5.2 55.75 4.1 56.4" fill="#fbad53" fill-rule="evenodd" stroke="none"/>
      <path d="M-13.15 50.3 Q-12.65 48.9 -11.85 48.5 L-12.05 49.3 -12.0 51.35 Q-11.1 54.75 -6.35 57.3 L-4.3 57.25 -3.9 56.4 -3.25 58.05 Q-3.25 59.65 -6.4 59.5 L-9.65 56.55 Q-12.6 53.45 -13.45 51.65 L-13.15 50.3" fill="#b48556" fill-rule="evenodd" stroke="none"/>
      <path d="M-2.5 -38.4 Q0.95 -37.55 3.15 -34.25 5.75 -30.3 5.7 -23.55 L6.0 -20.9 6.15 -15.35 Q5.85 -7.15 2.05 -5.2 -1.55 -3.4 -2.95 0.2 -3.6 2.0 -3.55 3.45 -3.35 5.1 -2.15 6.6 L-0.25 8.4 2.0 11.0 Q3.15 12.5 3.8 14.15 5.25 17.9 4.55 24.95 4.0 29.75 2.7 33.3 1.5 36.45 -0.65 39.25 -2.65 41.95 -5.7 44.5 -8.7 47.0 -13.6 50.25 -16.7 52.3 -21.65 53.1 L-28.4 53.7 Q-33.65 53.7 -37.0 52.65 L-48.75 53.05 Q-56.95 51.85 -56.65 49.25 -56.45 47.25 -52.4 45.85 -47.8 44.15 -46.9 42.9 -45.0 40.25 -44.35 38.8 -43.65 37.25 -43.45 35.05 -43.15 32.0 -38.75 23.4 -37.1 20.05 -34.45 17.1 L-30.1 12.8 Q-28.25 11.15 -29.85 8.25 -30.4 7.2 -34.0 2.7 -42.35 -8.05 -40.95 -16.0 -40.2 -20.4 -39.2 -23.55 -37.6 -28.35 -35.05 -31.85 -31.45 -36.85 -26.65 -39.4 -21.6 -42.1 -14.9 -42.3 -8.05 -42.5 -2.5 -38.4" fill="#231f20" fill-rule="evenodd" stroke="none"/>
      <path d="M2.85 -24.25 L2.2 -17.75 Q1.1 -10.55 -0.9 -7.05 L-5.15 2.8 -11.55 18.05 Q-21.15 39.3 -31.1 48.15 -36.3 52.75 -45.55 52.35 -49.15 52.25 -51.75 51.35 -54.25 50.45 -54.25 49.35 -54.25 47.65 -51.45 46.8 -47.85 45.7 -46.4 43.65 L-44.1 40.25 Q-42.85 38.05 -42.85 35.85 -42.85 32.55 -38.9 25.45 -34.45 17.45 -29.4 13.65 -26.9 11.8 -28.25 8.7 -29.0 6.95 -32.8 2.2 -36.75 -2.75 -38.3 -5.95 -40.8 -11.1 -39.95 -15.85 -38.25 -25.35 -34.15 -31.0 -27.55 -40.1 -14.6 -40.75 -3.7 -41.25 0.7 -32.8 2.85 -28.6 2.85 -24.25" fill="#362d45" fill-rule="evenodd" stroke="none"/>
      <path d="M-10.15 -18.5 L-8.1 -17.5 Q-5.75 -16.2 -4.2 -14.75 0.9 -10.0 -3.4 -5.3 -7.15 -1.15 -12.0 -1.75 L-15.85 -2.45 -19.6 -2.3 Q-26.5 -0.2 -31.5 -3.1 -33.1 -4.05 -34.3 -5.35 L-35.15 -6.45 Q-36.9 -8.5 -37.95 -11.8 -39.05 -15.4 -38.7 -19.1 -38.55 -20.55 -37.2 -23.2 -35.75 -26.2 -33.55 -28.85 -27.6 -36.1 -20.65 -36.1 -12.2 -36.1 -10.3 -27.3 -9.35 -22.9 -10.15 -18.5" fill="#f0f7fe" fill-rule="evenodd" stroke="none"/>
      <path d="M-28.45 -28.75 Q-27.8 -29.55 -27.1 -29.7 -28.8 -27.15 -27.95 -24.65 -27.55 -23.4 -26.8 -22.7 L-32.75 -22.15 Q-34.25 -21.65 -34.25 -19.85 -34.25 -18.15 -33.15 -17.45 -31.0 -15.95 -26.65 -16.1 L-22.75 -16.5 Q-27.4 -13.45 -29.5 -12.55 -31.2 -11.8 -31.55 -10.75 -32.05 -9.25 -28.1 -8.35 -24.6 -7.6 -22.35 -8.35 -20.25 -9.05 -19.35 -10.95 -16.75 -16.45 -13.35 -16.95 -10.5 -17.3 -7.75 -14.3 -5.3 -11.55 -4.5 -8.1 -3.6 -4.45 -5.35 -3.3 -8.85 -1.1 -11.95 -1.65 L-17.1 -3.65 -23.85 -4.1 Q-29.0 -4.1 -32.1 -5.5 -35.55 -7.15 -37.1 -13.3 L-37.95 -19.1 Q-37.2 -21.75 -33.15 -23.1 L-29.3 -23.95 Q-29.75 -27.2 -28.45 -28.75" fill="#c5c7d1" fill-rule="evenodd" stroke="none"/>
      <path d="M-35.8 -20.05 Q-33.7 -22.35 -29.65 -22.95 L-26.05 -23.15 Q-24.5 -23.05 -21.7 -22.05 -18.95 -21.05 -17.75 -20.25 L-17.15 -19.35 -16.75 -18.05 Q-16.75 -16.6 -19.9 -18.8 -25.4 -22.65 -31.2 -21.7 -32.95 -21.45 -34.55 -20.75 L-35.8 -20.05" fill="#362d45" fill-rule="evenodd" stroke="none"/>
      <path d="M-15.85 -27.95 Q-13.95 -27.15 -13.75 -26.5 L-14.4 -26.35 Q-15.25 -26.35 -15.35 -26.0 -15.95 -24.05 -17.6 -23.15 L-20.95 -22.95 Q-22.7 -23.65 -23.45 -25.55 -24.25 -27.45 -23.6 -29.4 -23.45 -29.9 -25.25 -31.4 L-26.75 -32.8 Q-26.25 -32.9 -23.15 -31.3 L-19.0 -29.15 -15.85 -27.95" fill="#231f20" fill-rule="evenodd" stroke="none"/>
      <path d="M-17.25 -26.25 Q-17.35 -25.7 -17.8 -25.4 L-18.7 -25.25 Q-19.15 -25.4 -19.45 -25.85 -19.7 -26.35 -19.55 -26.9 L-19.1 -27.35 -18.3 -27.1 -17.5 -26.85 Q-17.15 -26.7 -17.25 -26.25" fill="#ffffff" fill-rule="evenodd" stroke="none"/>
      <path d="M-16.35 -12.45 Q-15.95 -14.65 -12.95 -15.3 -9.9 -16.0 -10.0 -13.95 -10.3 -13.05 -10.9 -12.3 -12.05 -10.75 -13.7 -11.4 -14.55 -11.7 -15.15 -11.0 L-16.25 -9.15 Q-18.25 -6.15 -22.75 -6.15 L-19.85 -7.65 Q-16.8 -9.7 -16.35 -12.45" fill="#817e8a" fill-rule="evenodd" stroke="none"/>
      <path d="M-17.35 8.25 Q-16.95 7.9 -16.9 7.55 -17.75 7.5 -18.6 6.7 L-19.25 5.9 Q-17.9 5.9 -16.5 5.2 L-15.35 4.45 Q-16.5 4.2 -21.2 2.2 L-25.7 0.2 Q-21.2 1.1 -16.95 0.3 -14.55 -0.15 -9.85 -1.45 L-2.15 -2.45 Q-4.4 0.45 -4.15 3.75 -4.05 5.4 -3.45 6.5 -4.85 5.85 -10.8 9.55 L-18.45 14.2 Q-20.15 14.9 -21.0 14.45 L-21.5 13.9 Q-19.85 13.75 -18.6 11.9 -17.2 9.95 -19.75 9.2 -18.15 8.95 -17.35 8.25" fill="#453f59" fill-rule="evenodd" stroke="none"/>
      <path d="M-18.05 14.6 Q-16.25 13.15 -15.85 11.65 -15.4 10.0 -13.0 7.65 -10.05 4.85 -6.7 5.1 -4.95 5.25 -3.85 6.0 L-0.85 9.45 Q1.0 11.4 1.8 12.7 4.35 16.8 3.5 24.7 2.55 33.75 -0.95 38.5 -4.05 42.6 -13.9 49.05 -19.2 52.5 -29.35 52.25 L-35.9 51.4 Q-38.45 50.7 -37.95 49.8 -37.1 48.25 -33.1 46.8 -31.1 46.05 -29.3 45.65 -30.15 44.25 -28.55 41.75 -26.3 38.2 -26.05 37.25 -25.55 35.25 -23.75 33.0 L-22.1 31.15 -25.0 30.85 -26.05 30.5 Q-24.75 29.9 -22.4 27.65 L-20.3 25.45 -23.15 25.65 -24.9 25.45 Q-23.05 24.9 -21.2 22.55 L-19.75 20.35 -22.7 20.6 Q-24.35 19.8 -18.05 14.6" fill="#f0f7fe" fill-rule="evenodd" stroke="none"/>
      <path d="M-2.75 37.2 L-2.55 37.0 -2.5 37.1 -2.75 37.2" fill="#231f20" fill-rule="evenodd" stroke="none"/>
      <path d="M-42.7 37.2 L-42.7 37.75 -42.2 38.8 Q-41.05 40.2 -37.7 39.1 -42.55 41.7 -43.5 41.6 -44.05 41.55 -43.6 39.95 L-42.7 37.2" fill="#453f59" fill-rule="evenodd" stroke="none"/>
      <path d="M-44.45 41.9 Q-44.35 41.1 -43.95 43.0 -42.65 45.0 -38.85 43.85 -44.35 46.4 -45.25 46.35 -45.85 46.3 -45.4 44.65 L-44.45 41.9" fill="#453f59" fill-rule="evenodd" stroke="none"/>
      <path d="M-1.95 8.3 L-0.25 10.15 1.8 12.75 Q4.2 16.95 3.5 24.7 2.7 33.8 -1.8 39.35 -5.0 43.35 -13.9 49.05 -18.2 51.8 -26.1 52.15 -32.85 52.45 -36.75 51.1 L-34.95 50.8 Q-32.8 50.25 -31.4 48.75 L-30.85 49.45 Q-30.3 50.3 -30.8 51.35 L-29.3 51.65 Q-27.5 51.75 -26.0 50.9 L-25.0 51.35 -21.35 51.65 -19.15 48.05 Q-16.8 44.05 -16.3 41.95 L-15.65 42.55 Q-15.0 43.25 -15.15 43.8 L-13.9 41.85 Q-12.55 39.7 -12.5 38.55 L-11.65 39.0 Q-10.8 39.5 -10.9 40.1 L-7.65 37.45 Q-4.4 34.55 -4.25 33.4 L-3.45 29.35 Q-2.7 26.55 -2.0 25.5 -0.3 23.0 -0.75 18.45 -1.1 15.3 -1.95 13.35 L-0.55 16.15 Q0.8 19.25 1.0 20.9 1.1 21.85 1.5 21.65 L2.15 20.3 Q3.0 17.35 1.85 14.6 1.0 12.55 -0.9 10.55 -2.2 9.15 -1.95 8.3" fill="#c5c7d1" fill-rule="evenodd" stroke="none"/>
      <path d="M-8.9 28.5 Q-7.65 29.05 -9.5 31.75 -11.4 34.5 -15.55 35.25 L-21.05 35.65 Q-22.45 35.85 -24.75 37.4 L-26.7 38.85 -26.2 37.55 Q-25.7 35.5 -23.85 33.15 L-22.1 31.25 -25.1 30.95 -26.25 30.55 Q-24.9 29.95 -22.4 27.55 L-20.25 25.3 -23.15 25.6 -24.9 25.45 Q-24.0 25.2 -22.3 23.55 L-20.2 21.1 Q-18.5 20.65 -16.45 23.25 -13.8 26.7 -12.8 27.3 -11.35 28.1 -8.9 28.5" fill="#c5c7d1" fill-rule="evenodd" stroke="none"/>
      <path d="M-37.3 34.8 Q-37.55 34.3 -36.75 32.85 L-35.9 31.55 Q-37.0 34.25 -31.35 31.3 -28.55 29.8 -25.55 27.75 -36.5 36.35 -37.3 34.8" fill="#453f59" fill-rule="evenodd" stroke="none"/>
      <path d="M-2.65 -37.05 Q2.4 -35.9 3.95 -29.6 4.65 -26.45 4.45 -23.55 L0.5 -25.2 Q0.4 -31.1 -1.1 -34.65 L-2.65 -37.05" fill="#f0f7fe" fill-rule="evenodd" stroke="none"/>
      <path d="M14.65 -4.95 L11.05 -4.65 5.65 -3.0 Q-2.35 -0.75 -6.9 -2.35 -8.95 -3.1 -9.7 -4.0 -10.35 -4.8 -10.45 -6.4 L-10.5 -10.2 Q-10.6 -13.15 -11.2 -16.2 -10.35 -18.15 -9.7 -20.85 -8.4 -26.25 -9.35 -29.9 -9.7 -31.5 -8.4 -32.45 -7.1 -33.3 -4.95 -33.3 0.3 -33.3 2.5 -29.5 2.95 -28.75 5.25 -27.25 L9.85 -23.75 Q16.35 -17.55 18.7 -5.2 L17.65 -4.75 14.65 -4.95" fill="#764b2d" fill-rule="evenodd" stroke="none"/>
      <path d="M14.5 -5.95 L11.1 -5.6 5.9 -4.1 Q-1.85 -1.9 -6.05 -3.3 -8.1 -4.0 -8.7 -4.8 -9.25 -5.45 -9.2 -6.85 L-9.1 -10.3 Q-9.2 -13.0 -10.0 -16.05 -9.1 -17.8 -8.4 -20.25 -6.9 -25.15 -7.75 -28.5 -8.45 -31.3 -6.4 -32.05 -4.5 -32.75 -3.0 -31.35 -2.65 -31.0 0.7 -29.0 4.3 -26.9 6.8 -24.7 15.3 -17.45 17.5 -5.95 L16.9 -5.6 Q16.05 -5.4 14.5 -5.95" fill="#f35533" fill-rule="evenodd" stroke="none"/>
      <path d="M2.15 -13.5 Q2.45 -10.85 -1.8 -7.15 -6.15 -3.4 -8.15 -5.15 -9.1 -5.95 -8.7 -10.65 L-8.0 -16.3 Q-7.6 -19.5 -7.35 -22.9 -6.8 -29.7 -7.5 -30.75 -7.95 -31.55 -6.7 -31.15 -5.3 -30.7 -3.75 -29.05 1.0 -24.05 2.15 -13.5" fill="#255476" fill-rule="evenodd" stroke="none"/>
      <path d="M13.4 -8.9 Q15.1 -7.35 15.35 -6.1 14.2 -8.25 10.45 -10.15 6.85 -11.95 3.1 -12.45 0.05 -12.8 -4.65 -14.85 L-8.7 -16.8 -7.2 -19.9 -6.75 -19.05 -5.15 -17.1 Q-2.1 -14.1 3.0 -13.2 10.05 -11.9 13.4 -8.9" fill="#27223d" fill-rule="evenodd" stroke="none"/>
      <path d="M13.75 -8.45 Q11.65 -10.7 7.1 -12.2 L-0.05 -14.0 Q-0.95 -14.2 -1.4 -15.8 L-2.05 -19.5 Q-2.95 -25.25 -5.6 -27.3 -5.95 -27.6 -5.9 -27.2 L-5.6 -25.45 Q-5.15 -21.65 -7.05 -17.05 -7.35 -16.35 -8.8 -16.0 -10.25 -15.7 -9.8 -16.6 -8.5 -19.05 -7.95 -23.2 -7.45 -27.15 -7.95 -29.35 -8.2 -30.55 -7.3 -31.4 -6.4 -32.3 -4.85 -32.35 -1.0 -32.65 1.75 -28.35 -0.55 -30.1 -2.15 -29.7 -3.75 -29.35 -2.6 -27.75 0.55 -23.25 1.6 -18.15 L2.1 -15.15 Q2.4 -13.95 2.9 -13.7 5.45 -12.35 6.2 -15.65 7.0 -18.85 5.2 -22.85 L6.9 -19.75 Q8.65 -15.95 8.9 -12.7 9.0 -11.7 9.5 -11.4 9.95 -11.1 10.5 -11.6 11.85 -12.85 11.1 -16.2 L12.75 -13.35 Q14.45 -10.15 14.7 -8.7 L14.85 -7.7 Q14.75 -7.35 13.75 -8.45" fill="#ffb139" fill-rule="evenodd" stroke="none"/>
      <path d="M11.65 -8.1 Q9.2 -8.0 7.85 -6.9 L8.25 -7.65 Q8.85 -8.6 10.0 -9.55 9.3 -10.35 7.15 -9.55 4.55 -8.55 2.5 -5.6 L3.3 -8.2 Q4.2 -10.95 4.95 -11.6 L3.85 -11.95 2.2 -11.8 -1.05 -6.9 Q-4.25 -2.7 -6.8 -3.6 -8.8 -4.3 -9.3 -5.85 -9.55 -6.65 -9.4 -8.85 -9.35 -10.15 -9.65 -13.2 L-10.0 -16.05 -8.9 -16.8 Q-7.75 -17.3 -7.5 -16.2 -7.0 -13.8 -7.8 -9.25 -8.45 -5.8 -7.3 -4.85 -5.9 -3.6 -3.7 -7.05 -2.1 -9.55 -0.75 -13.35 L3.65 -12.45 Q8.35 -11.35 10.2 -10.2 L12.1 -9.1 12.85 -8.5 Q13.2 -8.2 12.85 -8.15 L11.65 -8.1" fill="#ffb139" fill-rule="evenodd" stroke="none"/>
      <path d="M-24.7 64.85 L-27.3 61.55 Q-30.1 57.55 -31.05 54.4 -28.3 46.7 -19.45 52.7 -13.6 56.7 -9.35 62.45 -8.45 63.65 -10.45 64.5 -12.35 65.25 -13.6 64.85 -14.4 65.35 -15.5 65.7 -17.65 66.35 -18.95 65.45 L-20.85 66.0 Q-22.25 66.25 -23.6 65.55 L-24.7 64.85" fill="#613719" fill-rule="evenodd" stroke="none"/>
      <path d="M-24.0 64.25 L-26.45 61.05 Q-29.05 57.3 -29.9 54.6 -27.55 48.1 -19.95 53.1 -14.6 56.6 -11.25 61.35 -10.4 62.5 -11.7 62.95 L-13.1 63.2 -13.75 61.75 Q-14.85 60.05 -16.8 58.55 L-15.25 60.85 Q-13.95 63.4 -15.15 64.2 -15.5 64.45 -16.1 64.6 -17.2 64.8 -18.3 64.05 -18.45 63.35 -18.95 62.35 -19.95 60.4 -21.95 58.95 L-20.5 61.4 Q-19.3 63.95 -20.8 64.45 L-23.05 64.6 -24.0 64.25" fill="#fbad53" fill-rule="evenodd" stroke="none"/>
      <path d="M-27.6 51.5 L-27.95 52.3 Q-28.35 53.4 -28.25 54.6 -27.95 58.45 -23.2 62.05 -21.9 63.05 -21.0 62.4 -20.55 62.05 -20.4 61.55 L-20.2 62.15 Q-19.95 62.9 -20.05 63.45 -20.3 65.2 -23.65 64.4 -24.15 64.3 -26.65 60.65 -29.3 56.7 -29.9 54.6 L-29.3 53.25 Q-28.55 51.8 -27.6 51.5" fill="#b48556" fill-rule="evenodd" stroke="none"/>
      <path d="M-7.95 14.75 Q1.9 20.05 6.55 26.2 10.6 31.55 9.9 36.25 9.3 40.55 5.15 42.15 0.85 43.8 -4.7 41.35 -6.3 43.75 -9.05 44.35 -14.6 45.6 -20.65 36.8 -23.3 36.45 -26.1 35.4 -31.65 33.4 -32.15 30.1 -32.6 26.75 -32.55 23.5 -32.45 19.2 -31.35 18.3 L-21.85 15.5 Q-11.6 13.05 -7.95 14.75" fill="#231f20" fill-rule="evenodd" stroke="none"/>
      <path d="M-8.1 15.85 Q0.4 20.25 4.95 25.9 8.95 30.85 8.85 35.35 8.75 39.6 5.1 41.2 1.2 42.85 -4.8 40.4 -6.45 42.8 -9.2 43.45 -14.75 44.75 -20.25 36.1 -23.0 35.85 -25.9 34.9 -31.7 33.1 -32.5 29.85 -33.15 27.35 -32.95 23.65 -32.7 19.65 -31.55 18.75 L-21.85 16.25 Q-11.45 14.1 -8.1 15.85" fill="#362d45" fill-rule="evenodd" stroke="none"/>
    </g>
  </defs>
</svg>
