<?xml version="1.0" encoding="UTF-8" standalone="no"?>
<svg xmlns:ffdec="https://www.free-decompiler.com/flash" xmlns:xlink="http://www.w3.org/1999/xlink" ffdec:objectType="frame" height="97.4px" width="127.0px" xmlns="http://www.w3.org/2000/svg">
  <g transform="matrix(1.0, 0.0, 0.0, 1.0, 68.85, 49.85)">
    <use ffdec:characterId="87" height="95.85" transform="matrix(1.0, 0.0, 0.0, 1.0, -57.3, -48.3)" width="115.05" xlink:href="#shape0"/>
  </g>
  <defs>
    <g id="shape0" transform="matrix(1.0, 0.0, 0.0, 1.0, 57.3, 48.3)">
      <path d="M11.75 -42.9 Q10.6 -40.95 8.7 -39.85 10.0 -39.75 10.75 -40.25 9.95 -38.3 8.6 -36.2 6.0 -32.0 3.6 -31.25 4.2 -31.05 4.9 -31.25 L5.55 -31.5 Q4.8 -29.2 3.1 -27.1 -0.35 -22.85 -5.2 -23.6 -6.95 -23.9 -7.8 -22.95 L-9.4 -19.8 Q-9.9 -18.65 -11.35 -18.45 -12.7 -18.25 -14.35 -18.85 -15.95 -19.4 -16.85 -20.4 -17.9 -21.45 -17.55 -22.45 -16.95 -24.25 -16.5 -28.3 L-15.6 -35.25 Q-14.1 -43.7 -9.15 -45.35 -4.8 -46.8 2.85 -46.45 6.25 -46.3 8.15 -46.5 11.0 -46.8 13.4 -48.0 12.85 -44.85 11.75 -42.9" fill="#45464b" fill-rule="evenodd" stroke="none"/>
      <path d="M1.5 -27.05 Q-1.65 -23.85 -6.45 -24.75 -7.9 -25.05 -8.55 -24.1 L-10.05 -20.8 Q-10.95 -18.8 -14.15 -19.8 -15.45 -20.25 -16.15 -21.05 -16.95 -21.9 -16.7 -22.8 -16.2 -24.3 -15.65 -28.1 L-14.55 -34.6 Q-12.85 -42.7 -8.55 -44.15 -4.75 -45.4 2.3 -45.05 8.7 -44.7 11.9 -46.3 11.6 -43.5 8.65 -41.15 5.8 -38.9 2.35 -38.6 L6.7 -38.4 8.8 -38.75 Q7.8 -36.65 5.95 -34.5 2.25 -30.25 -1.95 -30.1 L1.7 -29.9 3.7 -30.4 Q3.1 -28.65 1.5 -27.05" fill="#8f8d9b" fill-rule="evenodd" stroke="none"/>
      <path d="M0.5 -43.7 Q5.5 -43.45 10.25 -44.75 7.2 -41.25 3.3 -40.3 L0.9 -39.95 0.0 -40.0 0.4 -39.6 1.65 -38.8 Q-2.85 -37.55 -5.6 -39.75 -6.7 -40.6 -6.7 -41.6 -6.75 -42.65 -5.5 -43.2 -3.9 -43.95 0.5 -43.7" fill="#d8d9e1" fill-rule="evenodd" stroke="none"/>
      <path d="M-7.05 -39.4 L-4.9 -38.05 Q-3.9 -37.35 -2.85 -37.1 -0.4 -36.45 6.6 -37.15 3.6 -32.85 -0.35 -32.2 L-2.75 -32.15 -3.65 -32.4 -3.05 -31.85 -1.6 -30.95 Q-6.2 -30.9 -8.4 -32.4 -10.25 -33.65 -10.25 -35.7 -10.3 -37.45 -9.15 -38.75 -8.0 -40.0 -7.05 -39.4" fill="#d8d9e1" fill-rule="evenodd" stroke="none"/>
      <path d="M-9.7 -31.6 Q-8.5 -30.55 -5.1 -29.5 -0.8 -28.25 1.95 -29.15 0.85 -26.5 -2.75 -25.65 -6.45 -24.85 -10.8 -26.4 -11.75 -26.75 -12.1 -27.9 -12.35 -28.9 -12.05 -30.05 -11.75 -31.2 -11.1 -31.65 L-9.7 -31.6" fill="#d8d9e1" fill-rule="evenodd" stroke="none"/>
      <path d="M-10.05 -20.8 Q-10.95 -18.8 -14.15 -19.8 -15.45 -20.25 -16.15 -21.05 -16.95 -21.9 -16.7 -22.75 L-16.7 -22.8 Q-15.3 -21.35 -12.75 -21.75 -10.4 -22.1 -8.9 -23.55 L-10.05 -20.8" fill="#636471" fill-rule="evenodd" stroke="none"/>
      <path d="M19.1 10.95 Q21.8 13.7 23.7 18.8 27.9 21.25 31.1 25.15 34.85 29.7 28.85 28.75 30.3 32.3 28.05 32.55 25.9 32.75 22.15 29.85 22.2 31.45 21.4 32.2 20.55 32.95 19.3 32.4 16.1 30.95 13.7 23.3 11.75 16.9 12.15 12.95 12.55 9.45 14.6 8.9 16.6 8.4 19.1 10.95" fill="#301b04" fill-rule="evenodd" stroke="none"/>
      <path d="M23.4 19.35 Q27.25 21.75 29.9 24.75 33.0 28.35 28.8 27.8 L27.95 26.65 27.45 26.2 Q29.25 30.55 27.5 31.1 25.95 31.55 22.45 29.05 22.25 27.6 21.85 27.2 21.9 30.25 20.95 30.85 20.1 31.4 18.65 30.1 17.3 28.85 16.05 26.7 14.8 24.5 14.35 22.6 12.85 16.3 13.15 12.65 13.4 9.35 15.0 8.95 16.55 8.6 18.65 11.05 20.85 13.65 22.75 18.4 20.5 18.65 19.25 19.9 20.2 19.45 21.7 19.3 L23.4 19.35" fill="#a2a349" fill-rule="evenodd" stroke="none"/>
      <path d="M16.6 21.65 Q17.15 20.4 18.25 21.5 19.4 22.6 18.65 23.4 17.85 24.15 17.0 23.55 16.1 22.9 16.6 21.65" fill="#776f3d" fill-rule="evenodd" stroke="none"/>
      <path d="M23.05 21.15 Q23.7 20.8 24.15 21.35 24.6 21.95 24.05 22.65 23.5 23.35 22.95 22.45 22.4 21.55 23.05 21.15" fill="#776f3d" fill-rule="evenodd" stroke="none"/>
      <path d="M20.5 31.0 Q19.6 31.1 18.25 29.7 15.3 26.65 14.35 22.6 12.95 16.8 13.1 13.2 13.25 10.0 14.55 9.15 14.65 14.35 16.8 21.5 19.25 29.75 21.8 28.85 21.55 30.9 20.5 31.0" fill="#000000" fill-opacity="0.101960786" fill-rule="evenodd" stroke="none"/>
      <path d="M20.1 9.5 Q19.55 13.4 16.55 18.15 13.1 23.5 7.9 27.3 -5.65 37.3 -23.3 31.35 -28.1 29.75 -31.75 27.15 -35.0 24.95 -36.7 22.45 -42.35 23.2 -48.35 21.15 -53.3 19.45 -54.7 17.65 -55.35 16.8 -54.05 16.45 L-50.3 16.05 Q-43.1 15.6 -40.05 13.8 L-40.8 9.85 -41.2 7.4 Q-41.2 2.45 -38.9 -3.6 -34.2 -15.8 -22.45 -21.65 -16.35 -24.7 -9.55 -24.9 -3.1 -25.1 2.7 -22.75 8.45 -20.45 12.25 -16.15 16.2 -11.7 17.15 -6.1 18.45 -3.2 19.25 -0.1 20.65 5.2 20.1 9.5" fill="#301b04" fill-rule="evenodd" stroke="none"/>
      <path d="M-40.3 15.3 L-39.4 17.55 -37.6 21.0 Q-41.6 21.5 -46.65 20.3 -51.2 19.2 -52.9 17.75 -53.7 17.0 -52.9 16.9 L-50.05 16.85 Q-44.0 16.9 -40.3 15.3" fill="#a2a349" fill-rule="evenodd" stroke="none"/>
      <path d="M-30.15 7.0 Q-20.1 4.4 -9.6 3.05 3.25 1.35 10.65 2.5 19.65 3.85 18.95 9.3 18.55 12.75 15.75 17.1 12.55 22.05 7.75 25.65 -5.05 35.15 -21.85 30.15 -31.25 27.4 -35.95 20.25 -39.1 15.5 -39.45 10.4 -39.55 9.4 -30.15 7.0" fill="#e2cfbb" fill-rule="evenodd" stroke="none"/>
      <path d="M24.2 5.35 Q24.7 11.85 14.1 12.85 3.0 13.85 -1.5 9.2 -4.85 5.7 -3.8 0.45 -3.45 -1.45 -0.25 -3.0 2.65 -4.35 6.9 -4.95 L14.55 -5.2 Q18.35 -4.8 19.75 -3.35 21.25 -1.8 22.45 0.3 24.05 3.05 24.2 5.35" fill="#301b04" fill-rule="evenodd" stroke="none"/>
      <path d="M23.6 4.5 Q24.1 11.2 14.1 12.05 3.7 12.9 -0.55 8.15 -3.7 4.55 -2.75 -0.65 -2.35 -2.6 0.65 -4.1 3.35 -5.45 7.35 -6.1 L14.55 -6.35 Q18.1 -5.9 19.4 -4.45 20.8 -2.9 21.95 -0.75 23.45 2.1 23.6 4.5" fill="#f2e9df" fill-rule="evenodd" stroke="none"/>
      <path d="M0.0 -4.05 Q-1.65 1.5 1.25 5.5 4.95 10.55 15.05 9.7 21.4 9.2 23.55 6.25 22.6 11.3 14.1 11.95 3.7 12.85 -0.55 8.1 -3.7 4.55 -2.75 -0.7 L-1.5 -2.4 0.0 -4.05" fill="#d6c9bc" fill-rule="evenodd" stroke="none"/>
      <path d="M15.95 -2.0 L17.85 0.9 Q18.8 2.55 18.75 3.6 18.55 6.25 11.15 5.9 6.05 5.65 4.15 2.45 3.45 1.25 3.5 0.0 3.6 -1.15 4.4 -1.7 5.7 -2.55 10.95 -2.35 L15.95 -2.0" fill="#001927" fill-rule="evenodd" stroke="none"/>
      <path d="M15.75 -6.4 Q11.9 -6.95 4.45 -3.15 -4.7 2.05 -9.75 4.7 -18.75 9.5 -25.05 10.6 -33.45 12.15 -39.7 8.05 -37.1 -12.0 -21.15 -20.3 -15.2 -23.4 -8.95 -23.55 -3.25 -23.65 2.0 -21.3 7.0 -19.1 10.65 -15.1 14.25 -11.2 15.75 -6.4" fill="#000000" fill-rule="evenodd" stroke="none"/>
      <path d="M-1.85 -10.65 L-6.75 -16.3 -3.65 -22.7 Q-0.35 -22.1 4.25 -20.0 L8.15 -17.95 6.95 -10.35 -1.85 -10.65" fill="#6f4411" fill-rule="evenodd" stroke="none"/>
      <path d="M-10.75 -23.0 Q-7.4 -23.25 -5.05 -22.9 L-8.0 -16.65 -17.65 -15.85 -22.2 -19.25 Q-17.35 -22.5 -10.75 -23.0" fill="#6f4411" fill-rule="evenodd" stroke="none"/>
      <path d="M-34.3 -7.4 Q-31.85 -11.9 -27.45 -15.55 -25.2 -17.4 -23.5 -18.35 L-19.05 -15.45 -22.1 -7.35 -31.4 -6.15 -34.3 -7.4" fill="#6f4411" fill-rule="evenodd" stroke="none"/>
      <path d="M-32.0 -4.9 L-32.15 2.7 -36.05 8.4 -39.1 6.5 Q-38.85 4.4 -38.2 1.8 -36.9 -3.5 -34.95 -6.2 L-32.0 -4.9" fill="#6f4411" fill-rule="evenodd" stroke="none"/>
      <path d="M-18.0 -14.75 L-8.35 -15.4 -2.7 -9.6 -4.5 -0.75 -16.1 -1.45 -20.8 -6.8 -18.0 -14.75" fill="#6f4411" fill-rule="evenodd" stroke="none"/>
      <path d="M-2.75 -3.05 L-1.4 -9.45 6.15 -9.1 -2.75 -3.05" fill="#552306" fill-rule="evenodd" stroke="none"/>
      <path d="M-30.75 -5.05 L-21.8 -6.05 -17.1 -0.6 -17.4 6.05 -25.9 8.75 -31.0 3.05 -30.75 -5.05" fill="#6f4411" fill-rule="evenodd" stroke="none"/>
      <path d="M-9.65 0.15 L-16.3 5.3 -16.0 -0.35 -9.65 0.15" fill="#552306" fill-rule="evenodd" stroke="none"/>
      <path d="M-27.5 8.95 Q-29.8 10.3 -32.85 10.1 L-35.45 9.6 -31.6 4.15 -27.5 8.95" fill="#552306" fill-rule="evenodd" stroke="none"/>
      <path d="M-13.25 -2.95 Q-10.95 -1.5 -7.25 -0.8 L-16.05 -1.5 -20.7 -6.85 -17.9 -14.8 -18.2 -12.15 Q-18.35 -9.25 -17.65 -7.9 -16.05 -4.7 -13.25 -2.95" fill="#552306" fill-rule="evenodd" stroke="none"/>
      <path d="M-30.5 -2.3 Q-30.05 0.55 -29.1 1.75 -27.75 3.4 -24.95 4.65 -21.65 6.1 -17.75 6.25 L-25.95 8.7 -30.95 3.05 -30.8 -5.0 -30.5 -2.3" fill="#552306" fill-rule="evenodd" stroke="none"/>
      <path d="M-17.6 -15.85 L-22.15 -19.25 -19.1 -20.95 Q-19.75 -19.1 -17.3 -17.9 -14.7 -16.6 -9.3 -16.55 L-17.6 -15.85" fill="#552306" fill-rule="evenodd" stroke="none"/>
      <path d="M-6.75 -16.3 L-3.9 -22.15 -4.35 -19.3 Q-4.65 -17.4 -4.35 -16.8 -3.0 -14.1 -1.15 -12.8 0.65 -11.55 4.85 -10.4 L-1.8 -10.65 -6.75 -16.3" fill="#552306" fill-rule="evenodd" stroke="none"/>
      <path d="M-31.2 -11.85 Q-31.95 -9.15 -29.2 -8.1 -27.35 -7.4 -22.5 -7.3 L-31.4 -6.15 -34.3 -7.4 Q-33.0 -9.8 -31.2 -11.85" fill="#552306" fill-rule="evenodd" stroke="none"/>
      <path d="M-35.95 8.15 L-39.0 6.3 -38.5 3.35 Q-37.8 -0.1 -36.8 -2.75 -37.3 0.65 -36.15 2.45 -34.9 4.55 -32.25 2.8 L-35.95 8.15" fill="#552306" fill-rule="evenodd" stroke="none"/>
      <path d="M-4.25 -5.75 Q-3.9 -8.65 -5.9 -10.75 -6.5 -11.4 -9.0 -13.1 -10.0 -13.75 -13.6 -13.95 L-17.0 -13.95 -13.05 -14.4 -8.25 -14.05 -4.35 -10.0 Q-3.6 -8.6 -4.25 -5.75" fill="#c1b49c" fill-rule="evenodd" stroke="none"/>
      <path d="M-19.8 -1.85 L-22.6 -4.1 -26.45 -4.5 -29.55 -4.25 -25.85 -4.9 -21.75 -4.75 -18.45 -1.15 Q-17.65 0.2 -18.0 3.05 -18.0 0.2 -19.8 -1.85" fill="#c1b49c" fill-rule="evenodd" stroke="none"/>
      <path d="M3.85 -19.0 Q6.3 -17.55 5.5 -16.2 5.15 -17.5 1.75 -19.35 -2.1 -21.3 -3.2 -22.0 1.95 -20.15 3.85 -19.0" fill="#c1b49c" fill-rule="evenodd" stroke="none"/>
      <path d="M-8.1 -18.5 L-7.6 -19.8 Q-7.2 -21.15 -7.6 -21.5 L-11.6 -21.65 -17.7 -20.95 Q-16.65 -21.6 -12.1 -22.15 L-6.95 -22.3 Q-5.6 -21.85 -8.1 -18.5" fill="#c1b49c" fill-rule="evenodd" stroke="none"/>
      <path d="M-20.15 -14.95 Q-22.45 -16.45 -24.0 -16.2 L-26.95 -14.4 -30.75 -11.5 Q-30.75 -11.95 -27.75 -14.4 L-24.1 -17.05 Q-22.8 -17.6 -20.15 -14.95" fill="#c1b49c" fill-rule="evenodd" stroke="none"/>
      <path d="M17.25 14.35 Q15.7 16.85 10.9 17.8 6.25 18.7 0.9 17.75 -4.8 16.8 -8.55 14.2 -12.8 11.2 -13.25 6.85 -7.7 14.9 3.05 16.55 7.4 17.2 11.4 16.55 15.2 15.9 17.25 14.35" fill="#c4b19f" fill-rule="evenodd" stroke="none"/>
      <path d="M-4.7 21.8 L5.9 22.35 Q10.95 21.8 13.4 19.95 11.15 22.85 5.25 23.8 L-6.6 23.4 Q-13.2 22.05 -17.25 18.85 -21.9 15.2 -21.8 10.15 -20.0 14.8 -15.05 17.9 -10.7 20.65 -4.7 21.8" fill="#c4b19f" fill-rule="evenodd" stroke="none"/>
      <path d="M-24.1 22.0 Q-19.45 25.3 -13.0 26.9 -7.2 28.35 -1.55 28.05 3.95 27.8 6.95 26.05 3.9 28.7 -2.6 29.15 -8.9 29.65 -15.55 27.85 -22.55 25.95 -26.85 22.35 -31.7 18.2 -31.65 12.85 -29.45 18.25 -24.1 22.0" fill="#c4b19f" fill-rule="evenodd" stroke="none"/>
      <path d="M-0.35 17.95 Q-2.05 19.0 -4.95 19.3 L-9.65 19.0 Q-11.75 18.3 -11.15 16.8 -9.3 11.9 -5.2 11.5 -1.2 11.1 0.75 15.1 1.55 16.75 -0.35 17.95" fill="#001927" fill-rule="evenodd" stroke="none"/>
      <path d="M-34.85 19.95 Q-34.55 19.35 -33.05 18.85 L-29.85 18.4 Q-25.4 18.55 -24.7 22.4 -24.35 24.2 -26.1 24.65 L-30.0 24.3 Q-32.3 23.6 -33.8 22.4 -35.4 21.05 -34.85 19.95" fill="#001927" fill-rule="evenodd" stroke="none"/>
      <path d="M-1.25 15.2 Q0.9 18.5 2.05 25.6 6.15 30.2 8.0 34.05 10.15 38.7 4.9 35.8 4.65 41.1 3.5 41.7 1.75 42.65 -4.05 37.4 -5.65 40.4 -7.65 39.5 -10.45 38.25 -11.55 28.5 -12.05 24.15 -10.3 19.0 -8.35 13.4 -5.45 12.75 -3.15 12.3 -1.25 15.2" fill="#301b04" fill-rule="evenodd" stroke="none"/>
      <path d="M-1.55 15.6 Q0.35 18.9 1.15 25.0 0.6 24.75 -1.2 25.0 -3.3 25.3 -4.35 26.1 L-1.0 25.7 Q1.0 25.7 1.5 26.25 3.95 28.5 6.1 32.2 8.5 36.35 5.2 35.0 4.9 33.75 4.3 33.05 4.4 38.65 3.15 39.6 1.5 40.85 -3.4 36.5 L-3.3 35.8 Q-3.1 34.95 -3.35 33.95 -4.85 38.6 -6.95 37.8 -9.4 36.95 -10.5 28.3 -11.05 24.35 -9.5 19.15 -7.8 13.55 -5.25 13.0 -3.25 12.6 -1.55 15.6" fill="#a2a349" fill-rule="evenodd" stroke="none"/>
      <path d="M-29.15 19.65 Q-26.5 19.9 -25.95 22.3 -24.95 27.1 -26.55 33.2 -28.65 41.15 -34.45 43.6 -34.65 47.35 -36.45 47.55 -38.15 47.8 -39.65 44.9 -41.55 46.95 -43.25 46.05 -45.85 44.65 -46.5 36.2 -46.65 34.0 -43.2 31.45 -41.65 30.3 -37.55 28.05 -35.9 24.3 -34.85 22.6 -33.6 20.5 -32.4 20.0 -30.95 19.45 -29.15 19.65" fill="#301b04" fill-rule="evenodd" stroke="none"/>
      <path d="M-29.2 19.5 Q-26.85 19.75 -26.4 22.0 -25.45 26.35 -27.3 32.55 -29.6 40.3 -35.1 42.75 -35.25 46.05 -36.3 46.25 -37.2 46.4 -38.85 44.2 -38.2 42.6 -37.9 41.2 -40.9 44.8 -42.4 44.45 -44.5 43.95 -45.4 36.15 -45.65 33.7 -37.95 29.35 L-37.6 30.45 -37.25 31.5 Q-37.1 31.45 -37.05 30.1 L-36.85 28.75 -34.4 22.9 Q-33.2 20.3 -32.15 19.9 -30.85 19.3 -29.2 19.5" fill="#a2a349" fill-rule="evenodd" stroke="none"/>
      <path d="M19.95 -4.25 Q19.5 -2.7 18.45 -2.15 L15.9 -1.8 Q10.15 -1.85 6.75 -0.7 4.3 0.15 -0.6 3.45 L-9.9 9.8 Q-22.75 18.1 -31.25 17.5 -40.45 16.9 -44.05 12.8 -45.55 11.1 -45.7 9.1 -45.85 7.15 -44.75 5.45 -44.0 4.35 -42.05 2.9 -40.05 1.45 -39.3 1.5 L-39.55 3.95 Q-38.55 5.0 -36.1 5.95 -33.1 7.1 -30.6 6.85 -22.95 6.05 -11.3 -1.45 L-2.8 -7.05 Q1.75 -9.9 4.6 -10.75 11.25 -12.75 16.25 -10.55 18.5 -9.55 19.55 -7.9 20.6 -6.2 19.95 -4.25" fill="#301b04" fill-rule="evenodd" stroke="none"/>
      <path d="M19.8 -3.35 Q19.35 -1.85 18.2 -1.45 L15.4 -1.5 Q9.8 -2.25 6.0 -1.0 3.55 -0.15 -1.15 2.9 L-10.05 8.8 Q-22.25 16.5 -30.75 15.9 -39.8 15.25 -43.2 11.95 -45.9 9.3 -44.2 6.4 -43.45 5.15 -42.15 4.0 -40.8 2.8 -40.05 2.85 L-40.3 4.65 Q-39.35 5.7 -36.55 6.75 -33.25 8.0 -30.75 7.75 -23.1 6.95 -11.5 -0.55 L-2.95 -6.15 Q1.6 -9.0 4.45 -9.9 11.05 -11.9 16.1 -9.65 18.35 -8.65 19.35 -7.05 20.4 -5.35 19.8 -3.35" fill="#f2e9df" fill-rule="evenodd" stroke="none"/>
      <path d="M13.7 -5.0 Q17.4 -4.45 19.45 -2.55 18.9 -1.55 17.7 -1.4 L14.9 -1.65 Q9.85 -2.3 6.0 -1.05 3.55 -0.2 -1.15 2.85 L-10.05 8.8 Q-22.25 16.45 -30.75 15.85 -38.75 15.3 -42.35 12.6 -45.3 10.4 -44.65 7.6 -43.35 10.4 -38.65 12.15 -34.1 13.85 -29.75 13.35 -22.15 12.55 -10.5 5.0 L-1.95 -0.55 Q2.6 -3.4 5.45 -4.25 9.7 -5.55 13.7 -5.0" fill="#d6c9bc" fill-rule="evenodd" stroke="none"/>
      <path d="M-6.45 24.85 Q-7.2 25.65 -8.1 25.0 -9.0 24.35 -8.45 23.1 -7.95 21.85 -6.8 22.95 -5.65 24.05 -6.45 24.85" fill="#776f3d" fill-rule="evenodd" stroke="none"/>
      <path d="M-1.55 34.55 L-0.25 34.6 Q0.65 35.3 0.6 36.45 L-0.7 36.4 Q-1.95 35.2 -1.55 34.55" fill="#776f3d" fill-rule="evenodd" stroke="none"/>
      <path d="M-33.9 28.05 Q-32.85 28.55 -33.15 29.6 -33.45 30.65 -34.8 30.6 -36.2 30.55 -35.55 29.1 -34.85 27.6 -33.9 28.05" fill="#776f3d" fill-rule="evenodd" stroke="none"/>
      <path d="M-42.8 17.5 Q-42.5 18.1 -43.25 18.35 -44.0 18.6 -44.75 18.05 -45.45 17.45 -44.3 17.2 -43.1 16.95 -42.8 17.5" fill="#776f3d" fill-rule="evenodd" stroke="none"/>
      <path d="M-29.25 22.55 Q-28.35 22.9 -28.55 23.8 -28.75 24.7 -29.9 24.75 -31.1 24.75 -30.6 23.5 -30.1 22.25 -29.25 22.55" fill="#776f3d" fill-rule="evenodd" stroke="none"/>
      <path d="M-41.45 32.95 Q-40.8 33.3 -41.4 34.25 -42.05 35.2 -43.15 35.2 -44.25 35.2 -43.2 33.9 -42.1 32.6 -41.45 32.95" fill="#776f3d" fill-rule="evenodd" stroke="none"/>
      <path d="M-29.5 35.7 Q-29.7 36.5 -30.85 36.75 L-33.2 36.55 Q-36.45 35.65 -36.45 33.5 -35.8 34.85 -33.45 35.75 -30.95 36.7 -29.5 35.7" fill="#301b04" fill-rule="evenodd" stroke="none"/>
      <path d="M-35.05 33.3 Q-34.15 32.3 -31.7 33.05 -29.2 33.75 -29.45 35.15 -29.95 34.05 -31.7 33.5 L-35.05 33.3" fill="#301b04" fill-rule="evenodd" stroke="none"/>
      <path d="M36.7 -42.95 Q41.5 -38.6 41.15 -32.6 47.95 -32.3 53.0 -26.85 55.35 -25.45 56.4 -24.25 58.1 -22.2 56.55 -20.25 58.15 -16.3 57.65 -12.15 57.15 -8.2 54.85 -5.0 52.55 -1.85 49.05 -0.2 45.35 1.55 41.05 1.1 40.35 3.55 37.9 4.65 35.55 5.75 32.6 5.15 31.0 6.5 26.65 7.15 21.55 7.9 16.85 6.65 3.5 3.15 2.3 -13.6 1.95 -18.25 2.95 -21.55 3.95 -25.0 6.15 -26.4 6.75 -28.0 7.05 -30.15 7.45 -32.9 7.0 -34.9 4.95 -44.0 10.4 -47.0 15.1 -49.6 23.1 -46.95 31.4 -47.8 36.7 -42.95" fill="#301b04" fill-rule="evenodd" stroke="none"/>
      <path d="M39.7 -34.75 Q40.65 -30.75 39.25 -27.9 35.55 -20.35 29.6 -16.9 24.7 -14.1 18.75 -14.25 13.95 -14.45 9.85 -16.35 6.2 -18.1 6.2 -19.5 6.2 -22.4 7.85 -27.4 9.2 -31.6 8.65 -34.15 6.8 -42.25 11.1 -45.25 14.85 -47.9 21.75 -46.1 L18.95 -44.65 Q16.95 -43.5 16.35 -42.8 22.55 -46.15 27.9 -45.6 32.55 -45.1 35.8 -41.75 38.75 -38.85 39.7 -34.75" fill="#a2a349" fill-rule="evenodd" stroke="none"/>
      <path d="M33.0 -30.75 Q44.2 -34.25 52.05 -25.75 54.3 -24.6 55.1 -23.7 56.5 -22.1 55.35 -20.0 56.6 -16.25 55.95 -12.4 55.35 -8.75 53.15 -5.85 51.0 -2.9 47.8 -1.4 44.4 0.2 40.55 -0.15 39.85 2.85 36.7 3.85 32.9 5.0 28.45 1.45 28.5 1.95 29.45 3.0 30.45 4.15 31.3 4.45 28.65 5.4 24.9 5.55 20.25 5.7 16.3 4.25 5.3 0.2 4.0 -14.35 3.05 -25.6 10.15 -27.3 L15.95 -27.0 Q18.75 -26.2 20.35 -24.65 L18.6 -22.05 Q17.45 -20.1 17.2 -18.7 19.9 -22.7 24.0 -25.9 28.3 -29.25 33.0 -30.75" fill="#eddbb1" fill-rule="evenodd" stroke="none"/>
      <path d="M32.2 -30.6 Q28.95 -29.45 25.8 -27.55 25.65 -31.3 26.75 -33.45 27.7 -35.3 29.15 -35.5 30.6 -35.65 31.5 -34.3 32.55 -32.9 32.2 -30.6" fill="#000000" fill-rule="evenodd" stroke="none"/>
      <path d="M23.5 -11.4 Q25.15 -12.4 26.9 -12.9 28.6 -13.4 28.75 -12.9 28.95 -12.4 26.75 -10.85 28.15 -5.3 32.9 -2.5 36.3 -0.45 40.7 -0.15 L40.25 1.05 Q34.1 1.3 29.75 -3.3 26.2 -6.95 26.0 -10.4 25.95 -11.25 24.25 -9.7 22.45 -8.15 21.9 -6.55 21.4 -5.1 20.95 -6.5 20.5 -7.95 21.0 -9.0 21.6 -10.2 23.5 -11.4" fill="#301b04" fill-rule="evenodd" stroke="none"/>
      <path d="M22.9 -3.85 Q20.25 -1.8 18.45 -3.8 16.8 -5.7 17.6 -8.05 17.75 -5.65 19.35 -4.6 20.65 -3.65 22.9 -3.85" fill="#301b04" fill-rule="evenodd" stroke="none"/>
      <path d="M38.4 -21.9 Q39.8 -22.25 41.1 -21.5 42.4 -20.75 42.75 -19.4 43.15 -17.95 42.1 -16.55 42.75 -19.2 40.05 -20.45 37.35 -21.65 35.75 -19.85 36.8 -21.5 38.4 -21.9" fill="#000000" fill-opacity="0.101960786" fill-rule="evenodd" stroke="none"/>
      <path d="M29.15 -34.75 Q29.95 -35.1 30.8 -34.15 31.6 -33.2 30.95 -32.75 30.35 -32.3 29.35 -33.35 28.35 -34.45 29.15 -34.75" fill="#ffffff" fill-rule="evenodd" stroke="none"/>
      <path d="M39.3 -31.8 L34.65 -31.2 Q34.4 -33.0 35.05 -34.4 35.6 -35.7 36.6 -36.0 37.65 -36.35 38.4 -35.35 39.25 -34.25 39.3 -31.8" fill="#000000" fill-rule="evenodd" stroke="none"/>
      <path d="M37.8 -35.4 Q38.5 -34.9 38.3 -34.4 L37.35 -34.45 Q36.6 -35.05 36.85 -35.45 L37.8 -35.4" fill="#ffffff" fill-rule="evenodd" stroke="none"/>
      <path d="M32.5 -37.35 Q34.45 -32.25 30.25 -34.25 26.65 -36.0 25.75 -35.45 25.3 -35.2 24.35 -31.95 22.95 -36.15 24.55 -38.1 25.35 -39.1 26.8 -38.65 L29.5 -37.2 31.65 -36.0 Q32.55 -35.85 32.5 -37.35" fill="#2a2a2a" fill-rule="evenodd" stroke="none"/>
      <path d="M38.45 -36.5 Q37.7 -36.5 36.35 -35.1 34.8 -33.55 34.45 -34.9 34.25 -35.6 34.4 -37.8 34.6 -36.8 35.1 -37.1 L36.25 -38.2 Q38.1 -40.25 39.15 -39.0 39.7 -38.35 39.9 -36.8 40.15 -35.3 39.85 -34.6 39.35 -36.45 38.45 -36.5" fill="#2a2a2a" fill-rule="evenodd" stroke="none"/>
      <path d="M37.4 -16.1 Q35.5 -17.65 36.75 -19.2 38.0 -20.7 40.05 -19.15 42.05 -17.6 40.65 -16.0 39.35 -14.5 37.4 -16.1" fill="#001927" fill-rule="evenodd" stroke="none"/>
      <path d="M51.6 -24.0 Q52.3 -24.85 54.05 -23.45 55.75 -22.0 55.0 -21.1 54.25 -20.25 52.55 -21.7 50.85 -23.15 51.6 -24.0" fill="#001927" fill-rule="evenodd" stroke="none"/>
      <path d="M40.35 -27.7 Q40.7 -27.0 40.1 -26.55 L38.75 -26.65 Q38.0 -27.3 39.0 -27.8 L40.35 -27.7" fill="#cabb99" fill-rule="evenodd" stroke="none"/>
      <path d="M43.95 -29.2 Q44.1 -30.1 45.45 -29.7 46.85 -29.3 47.25 -28.0 47.65 -26.65 45.75 -27.45 43.75 -28.3 43.95 -29.2" fill="#cabb99" fill-rule="evenodd" stroke="none"/>
      <path d="M6.2 -19.25 Q7.9 -20.2 9.15 -18.75 10.35 -17.2 8.85 -15.3 8.15 -14.35 7.25 -14.6 6.5 -14.85 5.95 -15.8 5.4 -16.75 5.45 -17.7 5.45 -18.8 6.2 -19.25" fill="#cabb99" fill-rule="evenodd" stroke="none"/>
      <path d="M7.45 -9.1 Q8.25 -9.7 9.05 -8.45 9.85 -7.15 9.2 -5.8 8.65 -4.45 7.65 -6.5 6.65 -8.55 7.45 -9.1" fill="#cabb99" fill-rule="evenodd" stroke="none"/>
      <path d="M17.9 -32.05 Q16.6 -31.15 15.55 -32.25 14.55 -33.35 15.6 -34.95 16.1 -35.7 16.8 -35.55 L17.9 -34.7 Q18.4 -34.05 18.4 -33.25 18.45 -32.45 17.9 -32.05" fill="#776f3d" fill-rule="evenodd" stroke="none"/>
      <path d="M20.55 -39.75 Q19.8 -40.35 20.75 -41.35 21.65 -42.3 23.0 -42.05 24.35 -41.8 22.8 -40.45 21.3 -39.15 20.55 -39.75" fill="#776f3d" fill-rule="evenodd" stroke="none"/>
      <path d="M16.0 -27.35 Q14.35 -26.0 13.05 -21.7 11.65 -16.95 11.95 -12.0 12.25 -6.05 15.0 -1.75 18.25 3.4 24.55 5.55 17.05 5.7 11.9 1.85 5.1 -3.2 4.15 -14.35 3.45 -22.85 7.5 -25.95 L8.7 -30.05 Q9.2 -32.25 8.75 -34.15 7.45 -39.9 9.35 -43.15 11.0 -46.05 14.9 -46.65 11.6 -43.45 11.55 -37.85 11.55 -31.65 16.0 -27.35" fill="#000000" fill-opacity="0.101960786" fill-rule="evenodd" stroke="none"/>
      <path d="M-5.4 13.05 Q-6.3 14.7 -6.95 18.5 -7.65 22.35 -7.65 26.25 -7.75 36.1 -4.15 35.95 -5.8 38.9 -7.55 37.45 -9.55 35.75 -10.5 28.3 -11.0 24.4 -9.55 19.35 -7.9 13.8 -5.4 13.05" fill="#000000" fill-opacity="0.101960786" fill-rule="evenodd" stroke="none"/>
      <path d="M-29.85 19.45 Q-31.85 21.05 -34.3 26.2 -36.7 31.4 -36.45 33.5 -38.9 33.75 -41.45 36.45 -44.1 39.2 -44.2 42.1 -44.95 40.1 -45.4 36.15 -45.65 33.7 -37.95 29.35 L-37.6 30.45 -37.25 31.5 Q-37.1 31.45 -37.05 30.1 L-36.85 28.75 -34.4 22.9 Q-33.2 20.3 -32.15 19.9 -31.2 19.45 -29.85 19.45" fill="#000000" fill-opacity="0.101960786" fill-rule="evenodd" stroke="none"/>
      <path d="M-39.05 18.3 L-37.6 21.0 Q-41.35 21.5 -46.1 20.4 -50.4 19.45 -52.45 18.05 -49.75 19.0 -45.45 18.95 L-39.05 18.3" fill="#000000" fill-opacity="0.101960786" fill-rule="evenodd" stroke="none"/>
      <path d="M-17.75 -20.65 Q-17.1 -19.65 -17.85 -18.2 -18.55 -16.95 -20.0 -15.9 -21.5 -14.9 -22.95 -14.75 -24.55 -14.6 -25.4 -15.75 L-28.0 -18.8 -30.85 -18.9 Q-35.6 -16.85 -40.4 -20.7 L-43.25 -23.55 -44.3 -24.95 -43.55 -24.85 Q-42.75 -24.8 -42.2 -25.15 -44.9 -25.35 -48.85 -29.35 L-52.25 -33.3 -50.05 -33.35 Q-52.35 -34.1 -54.1 -35.95 -55.8 -37.8 -57.3 -41.15 L-51.4 -40.8 Q-49.45 -41.0 -45.95 -42.05 -38.2 -44.3 -33.25 -43.75 -27.7 -43.2 -23.6 -34.25 L-20.6 -26.85 Q-18.9 -22.45 -17.75 -20.65" fill="#45464b" fill-rule="evenodd" stroke="none"/>
      <path d="M-18.75 -20.8 Q-18.2 -19.9 -18.75 -18.8 -19.3 -17.7 -20.5 -16.95 -21.7 -16.15 -22.9 -16.1 -24.25 -16.05 -25.0 -17.05 L-27.5 -20.25 Q-28.5 -21.15 -29.9 -20.45 -34.55 -18.3 -38.8 -21.05 -40.1 -21.9 -41.2 -23.15 L-42.05 -24.2 -39.85 -24.1 Q-37.35 -24.25 -36.15 -25.25 -40.5 -24.4 -45.6 -28.15 L-48.7 -30.85 -49.85 -32.1 -47.55 -32.2 Q-44.95 -32.55 -43.1 -33.55 -46.75 -33.05 -50.4 -34.8 -54.1 -36.6 -55.25 -39.7 L-50.0 -39.4 -44.95 -40.6 Q-37.85 -42.75 -33.5 -42.3 -28.7 -41.8 -24.5 -33.35 L-21.45 -26.4 Q-19.7 -22.35 -18.75 -20.8" fill="#8f8d9b" fill-rule="evenodd" stroke="none"/>
      <path d="M-35.25 -36.75 Q-37.4 -33.65 -42.4 -33.9 -41.5 -34.75 -41.1 -35.65 L-44.6 -35.15 Q-48.9 -35.3 -53.05 -38.4 -47.8 -38.05 -42.7 -39.6 L-39.45 -40.55 Q-37.8 -40.85 -36.4 -40.55 -34.95 -40.2 -34.65 -39.05 -34.35 -38.0 -35.25 -36.75" fill="#d8d9e1" fill-rule="evenodd" stroke="none"/>
      <path d="M-33.7 -36.75 Q-32.85 -37.6 -31.3 -36.5 -29.75 -35.35 -29.25 -33.45 -28.65 -31.2 -30.15 -29.4 -32.0 -27.15 -36.75 -26.1 L-35.05 -28.2 Q-36.3 -27.25 -38.4 -27.1 -42.65 -26.9 -47.05 -30.9 -39.65 -31.85 -37.3 -33.15 -36.3 -33.75 -35.45 -34.7 L-33.7 -36.75" fill="#d8d9e1" fill-rule="evenodd" stroke="none"/>
      <path d="M-28.6 -28.8 Q-28.05 -29.65 -27.15 -29.2 -26.35 -28.85 -25.7 -27.65 -25.0 -26.5 -25.0 -25.3 -25.0 -24.0 -25.9 -23.35 -29.95 -20.55 -34.0 -20.55 -37.95 -20.55 -39.9 -23.25 -36.8 -22.9 -32.7 -25.4 -29.5 -27.4 -28.6 -28.8" fill="#d8d9e1" fill-rule="evenodd" stroke="none"/>
      <path d="M-18.75 -18.75 Q-19.3 -17.7 -20.5 -16.9 -21.7 -16.15 -22.9 -16.1 -24.25 -16.05 -25.0 -17.0 L-27.0 -19.7 Q-25.0 -18.5 -22.5 -18.7 -19.75 -18.9 -18.75 -20.85 L-18.75 -20.8 Q-18.15 -19.9 -18.75 -18.75" fill="#636471" fill-rule="evenodd" stroke="none"/>
    </g>
  </defs>
</svg>
