<?xml version="1.0" encoding="UTF-8" standalone="no"?>
<svg xmlns:ffdec="https://www.free-decompiler.com/flash" xmlns:xlink="http://www.w3.org/1999/xlink" ffdec:objectType="frame" height="97.4px" width="127.0px" xmlns="http://www.w3.org/2000/svg">
  <g transform="matrix(1.0, 0.0, 0.0, 1.0, 68.85, 49.85)">
    <use ffdec:characterId="88" height="95.5" transform="matrix(1.0, 0.0, 0.0, 1.0, -68.85, -49.15)" width="127.0" xlink:href="#shape0"/>
  </g>
  <defs>
    <g id="shape0" transform="matrix(1.0, 0.0, 0.0, 1.0, 68.85, 49.15)">
      <path d="M25.7 -35.4 Q23.4 -33.8 20.8 -33.15 L23.2 -33.2 18.7 -29.95 Q13.55 -26.65 10.65 -26.35 L12.05 -26.15 12.85 -26.3 Q10.8 -24.4 7.8 -22.8 1.8 -19.55 -2.8 -20.95 L-5.9 -20.75 -9.3 -18.2 Q-10.45 -17.3 -12.15 -17.35 -13.7 -17.35 -15.05 -18.1 -16.4 -18.85 -16.85 -19.85 -17.3 -20.9 -16.4 -21.75 -14.8 -23.2 -12.05 -26.7 L-7.25 -32.65 Q-0.9 -39.85 5.15 -40.55 L18.35 -39.8 23.9 -39.05 Q27.1 -38.85 30.25 -39.6 27.95 -36.9 25.7 -35.4" fill="#45464b" fill-rule="evenodd" stroke="none"/>
      <path d="M4.25 -26.15 Q5.3 -25.4 7.9 -25.45 L10.3 -25.6 Q8.65 -24.15 6.1 -23.0 1.05 -20.65 -3.45 -22.15 -4.85 -22.6 -6.05 -21.85 L-9.45 -19.2 Q-11.55 -17.55 -14.3 -18.95 -15.4 -19.5 -15.75 -20.3 -16.1 -21.15 -15.3 -21.9 -12.85 -24.15 -6.5 -32.0 -0.15 -38.8 5.1 -39.4 9.8 -39.95 16.95 -38.65 L27.75 -38.35 Q25.9 -35.9 21.5 -34.3 17.25 -32.75 13.45 -33.0 15.2 -32.3 17.9 -32.15 L20.3 -32.15 Q18.05 -30.45 14.95 -28.85 8.7 -25.65 4.25 -26.15" fill="#8f8d9b" fill-rule="evenodd" stroke="none"/>
      <path d="M7.8 -38.15 L14.35 -37.7 25.15 -37.2 Q20.0 -34.6 15.35 -34.3 L12.7 -34.4 11.75 -34.55 11.95 -34.1 Q12.3 -33.6 12.8 -33.25 7.45 -32.8 5.75 -35.15 5.1 -36.1 5.6 -36.95 6.2 -37.85 7.8 -38.15" fill="#d8d9e1" fill-rule="evenodd" stroke="none"/>
      <path d="M4.1 -35.05 L5.5 -33.55 Q6.25 -32.85 7.2 -32.4 9.4 -31.5 17.1 -31.1 11.5 -27.75 7.05 -27.75 L4.55 -28.1 3.7 -28.4 4.05 -27.85 5.05 -26.85 Q0.25 -27.45 -1.3 -29.15 -2.5 -30.5 -1.35 -32.3 -0.45 -33.8 1.5 -34.8 3.35 -35.75 4.1 -35.05" fill="#d8d9e1" fill-rule="evenodd" stroke="none"/>
      <path d="M-3.05 -28.6 Q-2.4 -27.55 0.6 -26.1 4.4 -24.3 7.8 -24.75 5.15 -22.6 0.9 -22.4 -3.45 -22.2 -7.1 -24.2 -7.95 -24.7 -7.65 -25.7 -7.4 -26.6 -6.4 -27.6 -5.45 -28.55 -4.5 -28.85 -3.45 -29.25 -3.05 -28.6" fill="#d8d9e1" fill-rule="evenodd" stroke="none"/>
      <path d="M-9.45 -19.2 Q-11.55 -17.55 -14.3 -18.9 -15.4 -19.5 -15.75 -20.3 -16.1 -21.15 -15.3 -21.9 -14.65 -20.45 -11.75 -20.4 -9.1 -20.4 -6.75 -21.4 L-9.45 -19.2" fill="#636471" fill-rule="evenodd" stroke="none"/>
      <path d="M31.2 23.95 Q34.95 28.5 28.95 27.55 30.4 31.1 28.15 31.35 26.0 31.55 22.25 28.65 22.15 30.15 21.25 30.9 20.35 31.7 19.15 31.15 15.95 29.85 13.8 22.1 12.0 15.65 12.45 11.65 12.85 8.15 14.9 7.65 16.85 7.15 19.25 9.7 21.9 12.45 23.8 17.6 28.05 20.05 31.2 23.95" fill="#301b04" fill-rule="evenodd" stroke="none"/>
      <path d="M22.55 27.85 Q22.35 26.4 21.95 26.0 22.05 29.05 21.05 29.65 20.2 30.2 18.75 28.9 17.4 27.65 16.15 25.5 14.9 23.3 14.45 21.4 12.95 15.1 13.25 11.45 13.5 8.15 15.1 7.75 16.65 7.4 18.75 9.85 20.95 12.45 22.85 17.2 20.6 17.45 19.35 18.7 20.3 18.25 21.8 18.1 L23.5 18.15 Q27.35 20.55 30.0 23.55 33.1 27.15 28.9 26.6 L28.05 25.45 27.6 25.0 Q29.35 29.35 27.6 29.9 26.05 30.35 22.55 27.85" fill="#a2a349" fill-rule="evenodd" stroke="none"/>
      <path d="M16.7 20.45 Q17.25 19.2 18.35 20.3 19.5 21.4 18.75 22.2 17.95 22.95 17.1 22.35 16.2 21.7 16.7 20.45" fill="#776f3d" fill-rule="evenodd" stroke="none"/>
      <path d="M23.15 19.95 Q23.8 19.6 24.25 20.15 24.7 20.75 24.15 21.45 23.6 22.15 23.05 21.25 22.5 20.35 23.15 19.95" fill="#776f3d" fill-rule="evenodd" stroke="none"/>
      <path d="M16.9 20.3 Q19.35 28.55 21.9 27.65 21.65 29.7 20.6 29.8 19.7 29.9 18.35 28.5 15.4 25.45 14.45 21.4 13.1 15.6 13.2 12.0 13.35 8.8 14.65 7.95 14.8 13.15 16.9 20.3" fill="#000000" fill-opacity="0.101960786" fill-rule="evenodd" stroke="none"/>
      <path d="M17.25 -7.3 Q18.55 -4.4 19.35 -1.3 20.75 4.0 20.2 8.3 19.65 12.2 16.65 16.95 13.2 22.3 8.05 26.1 -5.55 36.1 -23.2 30.15 -28.0 28.55 -31.65 25.95 -34.9 23.75 -36.6 21.25 -42.2 22.0 -48.2 19.95 -53.2 18.25 -54.6 16.45 -55.25 15.6 -53.95 15.25 L-50.2 14.85 Q-43.0 14.4 -39.95 12.6 L-40.7 8.65 -41.1 6.2 Q-41.1 1.25 -38.8 -4.8 -34.1 -17.0 -22.35 -22.85 -16.25 -25.9 -9.45 -26.1 -3.0 -26.3 2.8 -23.95 8.55 -21.65 12.35 -17.35 16.3 -12.9 17.25 -7.3" fill="#301b04" fill-rule="evenodd" stroke="none"/>
      <path d="M-40.2 14.1 L-39.25 16.35 -37.5 19.8 Q-41.5 20.3 -46.5 19.1 -51.1 18.0 -52.8 16.55 -53.6 15.8 -52.8 15.7 L-49.95 15.65 Q-43.9 15.7 -40.2 14.1" fill="#a2a349" fill-rule="evenodd" stroke="none"/>
      <path d="M-39.35 9.2 Q-39.45 8.2 -30.05 5.8 -20.0 3.2 -9.45 1.85 3.35 0.15 10.75 1.3 19.75 2.65 19.1 8.1 18.65 11.55 15.85 15.9 12.65 20.85 7.85 24.45 -4.95 33.95 -21.75 28.95 -31.15 26.2 -35.85 19.05 -39.0 14.3 -39.35 9.2" fill="#e2cfbb" fill-rule="evenodd" stroke="none"/>
      <path d="M24.3 4.15 Q24.8 10.65 14.2 11.65 3.1 12.65 -1.35 8.0 -4.75 4.5 -3.7 -0.75 -3.35 -2.65 -0.15 -4.2 2.75 -5.55 7.0 -6.15 L14.65 -6.4 Q18.45 -6.0 19.85 -4.55 21.35 -3.0 22.55 -0.9 24.15 1.85 24.3 4.15" fill="#301b04" fill-rule="evenodd" stroke="none"/>
      <path d="M19.5 -5.65 Q20.9 -4.1 22.05 -1.95 23.55 0.9 23.75 3.3 24.2 10.0 14.2 10.85 3.8 11.7 -0.45 6.95 -3.6 3.35 -2.6 -1.85 -2.25 -3.8 0.75 -5.3 3.45 -6.65 7.45 -7.3 L14.65 -7.55 Q18.2 -7.1 19.5 -5.65" fill="#f2e9df" fill-rule="evenodd" stroke="none"/>
      <path d="M0.1 -5.25 Q-1.55 0.3 1.35 4.3 5.05 9.35 15.15 8.5 21.5 8.0 23.65 5.05 22.7 10.1 14.2 10.75 3.8 11.65 -0.45 6.9 -3.6 3.35 -2.6 -1.9 L-1.35 -3.6 0.1 -5.25" fill="#d6c9bc" fill-rule="evenodd" stroke="none"/>
      <path d="M16.05 -3.2 L17.95 -0.3 Q18.9 1.35 18.85 2.4 18.7 5.05 11.25 4.7 6.15 4.45 4.25 1.25 3.55 0.05 3.6 -1.2 3.7 -2.35 4.5 -2.9 5.8 -3.75 11.05 -3.55 L16.05 -3.2" fill="#001927" fill-rule="evenodd" stroke="none"/>
      <path d="M-8.85 -24.75 Q-3.15 -24.85 2.1 -22.5 7.1 -20.3 10.75 -16.3 14.35 -12.4 15.85 -7.6 12.0 -8.15 4.6 -4.35 L-9.65 3.5 Q-18.65 8.3 -24.95 9.4 -33.35 10.95 -39.6 6.85 -37.0 -13.2 -21.05 -21.5 -15.1 -24.6 -8.85 -24.75" fill="#000000" fill-rule="evenodd" stroke="none"/>
      <path d="M-1.7 -11.85 L-6.65 -17.5 -3.5 -23.9 Q-0.25 -23.3 4.35 -21.2 L8.25 -19.15 7.05 -11.55 -1.7 -11.85" fill="#6f4411" fill-rule="evenodd" stroke="none"/>
      <path d="M-10.65 -24.2 Q-7.3 -24.45 -4.95 -24.1 L-7.9 -17.85 -17.55 -17.05 -22.1 -20.45 Q-17.25 -23.7 -10.65 -24.2" fill="#6f4411" fill-rule="evenodd" stroke="none"/>
      <path d="M-34.2 -8.6 Q-31.75 -13.1 -27.3 -16.75 L-23.4 -19.55 -18.95 -16.65 -22.0 -8.55 -31.3 -7.35 -34.2 -8.6" fill="#6f4411" fill-rule="evenodd" stroke="none"/>
      <path d="M-31.9 -6.1 L-32.05 1.5 -35.95 7.2 -39.0 5.3 Q-38.75 3.2 -38.1 0.6 -36.8 -4.7 -34.85 -7.4 L-31.9 -6.1" fill="#6f4411" fill-rule="evenodd" stroke="none"/>
      <path d="M-8.25 -16.6 L-2.6 -10.8 -4.35 -1.95 -16.0 -2.65 -20.7 -8.0 -17.9 -15.95 -8.25 -16.6" fill="#6f4411" fill-rule="evenodd" stroke="none"/>
      <path d="M-2.6 -4.25 L-1.3 -10.65 6.3 -10.3 -2.6 -4.25" fill="#552306" fill-rule="evenodd" stroke="none"/>
      <path d="M-30.65 -6.25 L-21.65 -7.25 -16.95 -1.8 -17.3 4.85 -25.8 7.55 -30.9 1.85 -30.65 -6.25" fill="#6f4411" fill-rule="evenodd" stroke="none"/>
      <path d="M-15.9 -1.55 L-9.55 -1.05 -16.2 4.1 -15.9 -1.55" fill="#552306" fill-rule="evenodd" stroke="none"/>
      <path d="M-27.35 7.75 Q-29.7 9.1 -32.75 8.9 L-35.35 8.4 -31.5 2.95 -27.35 7.75" fill="#552306" fill-rule="evenodd" stroke="none"/>
      <path d="M-17.55 -9.1 Q-15.9 -5.9 -13.15 -4.15 -10.85 -2.7 -7.15 -2.0 L-15.9 -2.7 -20.6 -8.05 -17.8 -16.0 -18.1 -13.35 Q-18.25 -10.45 -17.55 -9.1" fill="#552306" fill-rule="evenodd" stroke="none"/>
      <path d="M-30.4 -3.5 Q-29.95 -0.65 -29.0 0.55 -27.65 2.2 -24.85 3.45 -21.55 4.9 -17.65 5.05 L-25.85 7.5 -30.85 1.85 -30.7 -6.2 -30.4 -3.5" fill="#552306" fill-rule="evenodd" stroke="none"/>
      <path d="M-17.2 -19.1 Q-14.55 -17.8 -9.2 -17.75 L-17.5 -17.05 -22.05 -20.45 -19.0 -22.15 Q-19.65 -20.3 -17.2 -19.1" fill="#552306" fill-rule="evenodd" stroke="none"/>
      <path d="M-6.65 -17.5 L-3.8 -23.35 -4.25 -20.5 Q-4.55 -18.6 -4.25 -18.0 -2.9 -15.3 -1.05 -14.0 0.8 -12.75 4.95 -11.6 L-1.7 -11.85 -6.65 -17.5" fill="#552306" fill-rule="evenodd" stroke="none"/>
      <path d="M-31.1 -13.05 Q-31.85 -10.35 -29.1 -9.3 -27.25 -8.6 -22.4 -8.5 L-31.3 -7.35 -34.2 -8.6 Q-32.95 -10.85 -31.1 -13.05" fill="#552306" fill-rule="evenodd" stroke="none"/>
      <path d="M-38.9 5.1 L-38.4 2.15 Q-37.7 -1.3 -36.7 -3.95 -37.15 -0.55 -36.05 1.25 -34.8 3.35 -32.15 1.6 L-35.85 6.95 -38.9 5.1" fill="#552306" fill-rule="evenodd" stroke="none"/>
      <path d="M-4.15 -6.95 Q-3.8 -9.85 -5.8 -11.95 L-8.9 -14.3 Q-9.85 -14.95 -13.5 -15.15 L-16.9 -15.15 -12.95 -15.6 -8.15 -15.25 Q-4.75 -12.15 -4.25 -11.2 -3.45 -9.8 -4.15 -6.95" fill="#c1b49c" fill-rule="evenodd" stroke="none"/>
      <path d="M-19.7 -3.05 L-22.5 -5.3 -26.35 -5.7 -29.45 -5.45 -25.75 -6.1 -21.65 -5.95 -18.35 -2.35 Q-17.55 -1.0 -17.9 1.85 -17.9 -1.0 -19.7 -3.05" fill="#c1b49c" fill-rule="evenodd" stroke="none"/>
      <path d="M1.9 -20.55 Q-2.0 -22.5 -3.1 -23.2 2.05 -21.35 3.95 -20.2 6.4 -18.75 5.6 -17.4 5.25 -18.7 1.9 -20.55" fill="#c1b49c" fill-rule="evenodd" stroke="none"/>
      <path d="M-8.0 -19.7 L-7.5 -21.0 Q-7.1 -22.35 -7.5 -22.7 L-11.5 -22.85 -17.6 -22.15 Q-16.55 -22.8 -12.0 -23.35 L-6.85 -23.5 Q-5.5 -23.05 -8.0 -19.7" fill="#c1b49c" fill-rule="evenodd" stroke="none"/>
      <path d="M-20.05 -16.15 L-22.25 -17.2 -23.9 -17.4 -26.85 -15.6 -30.65 -12.7 Q-30.65 -13.15 -27.65 -15.6 -24.65 -18.0 -23.95 -18.25 -22.65 -18.8 -20.05 -16.15" fill="#c1b49c" fill-rule="evenodd" stroke="none"/>
      <path d="M17.4 13.15 Q15.85 15.65 11.0 16.6 6.35 17.5 1.0 16.55 -4.7 15.6 -8.45 13.0 -12.7 10.0 -13.15 5.65 -7.6 13.7 3.15 15.35 7.5 16.0 11.5 15.35 15.3 14.7 17.4 13.15" fill="#c4b19f" fill-rule="evenodd" stroke="none"/>
      <path d="M-21.7 8.95 Q-19.9 13.6 -14.95 16.7 -10.6 19.45 -4.6 20.6 L6.0 21.15 Q11.05 20.6 13.55 18.75 11.25 21.65 5.35 22.6 L-6.5 22.2 Q-13.1 20.85 -17.15 17.65 -21.8 14.0 -21.7 8.95" fill="#c4b19f" fill-rule="evenodd" stroke="none"/>
      <path d="M-24.0 20.8 Q-19.35 24.1 -12.9 25.7 -7.1 27.15 -1.45 26.85 4.05 26.6 7.05 24.85 4.0 27.5 -2.5 27.95 -8.8 28.45 -15.4 26.65 -22.45 24.75 -26.75 21.15 -31.6 17.0 -31.55 11.65 -29.35 17.05 -24.0 20.8" fill="#c4b19f" fill-rule="evenodd" stroke="none"/>
      <path d="M0.85 13.9 Q1.65 15.55 -0.25 16.75 -1.95 17.8 -4.85 18.1 L-9.55 17.8 Q-11.65 17.1 -11.05 15.6 -9.2 10.7 -5.1 10.3 -1.1 9.9 0.85 13.9" fill="#001927" fill-rule="evenodd" stroke="none"/>
      <path d="M-34.75 18.75 Q-34.45 18.15 -32.95 17.65 L-29.75 17.2 Q-25.3 17.35 -24.6 21.2 -24.25 23.0 -26.0 23.45 L-29.85 23.1 Q-32.2 22.4 -33.7 21.2 -35.3 19.85 -34.75 18.75" fill="#001927" fill-rule="evenodd" stroke="none"/>
      <path d="M-1.15 14.0 Q1.0 17.3 2.15 24.4 6.3 29.0 8.1 32.85 10.25 37.5 5.05 34.6 4.75 39.9 3.6 40.5 1.85 41.45 -3.9 36.2 -5.55 39.2 -7.55 38.3 -10.35 37.05 -11.45 27.3 -11.95 22.95 -10.2 17.8 -8.3 12.2 -5.35 11.55 -3.05 11.1 -1.15 14.0" fill="#301b04" fill-rule="evenodd" stroke="none"/>
      <path d="M-1.45 14.4 Q0.45 17.7 1.25 23.8 0.75 23.55 -1.1 23.8 -3.2 24.1 -4.25 24.9 L-0.9 24.5 Q1.1 24.5 1.65 25.05 4.05 27.25 6.2 31.0 8.6 35.15 5.3 33.8 5.05 32.55 4.45 31.85 4.5 37.45 3.25 38.4 1.65 39.65 -3.3 35.3 L-3.2 34.6 Q-3.0 33.75 -3.25 32.75 -4.75 37.4 -6.85 36.6 -9.3 35.75 -10.4 27.1 -10.95 23.15 -9.4 17.95 -7.7 12.35 -5.15 11.8 -3.15 11.4 -1.45 14.4" fill="#a2a349" fill-rule="evenodd" stroke="none"/>
      <path d="M-29.05 18.45 Q-26.4 18.7 -25.85 21.1 -24.8 25.9 -26.45 32.0 -28.55 39.95 -34.35 42.4 -34.55 46.15 -36.3 46.35 -38.0 46.6 -39.55 43.7 -41.45 45.75 -43.15 44.85 -45.7 43.45 -46.4 35.0 -46.55 32.8 -43.1 30.25 L-37.45 26.85 Q-35.8 23.1 -34.75 21.4 -33.5 19.3 -32.3 18.8 L-29.05 18.45" fill="#301b04" fill-rule="evenodd" stroke="none"/>
      <path d="M-29.1 18.3 Q-26.75 18.55 -26.3 20.8 -25.35 25.15 -27.2 31.35 -29.5 39.1 -35.0 41.55 -35.15 44.85 -36.2 45.05 -37.1 45.2 -38.75 43.0 -38.1 41.4 -37.8 40.0 -40.8 43.6 -42.25 43.25 -44.4 42.75 -45.3 34.95 -45.55 32.5 -37.85 28.15 L-37.5 29.25 -37.15 30.3 Q-37.0 30.25 -36.95 28.9 L-36.75 27.55 -34.3 21.7 Q-33.1 19.1 -32.0 18.7 -30.7 18.1 -29.1 18.3" fill="#a2a349" fill-rule="evenodd" stroke="none"/>
      <path d="M20.1 -5.45 Q19.6 -3.9 18.6 -3.35 L16.0 -3.0 Q10.25 -3.05 6.85 -1.9 4.4 -1.05 -0.5 2.25 L-9.8 8.6 Q-22.65 16.9 -31.15 16.3 -40.35 15.7 -43.95 11.6 -45.45 9.9 -45.6 7.9 -45.75 5.95 -44.65 4.25 -43.9 3.15 -41.95 1.7 -39.95 0.25 -39.2 0.3 L-39.45 2.75 Q-38.45 3.8 -36.0 4.75 -33.0 5.9 -30.5 5.65 -22.85 4.85 -11.2 -2.65 L-2.65 -8.25 Q1.85 -11.1 4.7 -11.95 11.35 -13.95 16.4 -11.75 18.65 -10.75 19.65 -9.1 20.7 -7.4 20.1 -5.45" fill="#301b04" fill-rule="evenodd" stroke="none"/>
      <path d="M19.95 -4.55 Q19.45 -3.05 18.3 -2.65 L15.55 -2.7 Q9.9 -3.45 6.1 -2.2 3.65 -1.35 -1.05 1.7 -6.75 5.65 -9.95 7.6 -22.15 15.3 -30.65 14.7 -39.65 14.05 -43.05 10.75 -45.8 8.1 -44.05 5.2 -43.35 4.0 -42.05 2.8 -40.7 1.6 -39.95 1.65 L-40.2 3.45 Q-39.25 4.5 -36.45 5.55 -33.15 6.8 -30.65 6.55 -23.0 5.75 -11.4 -1.75 L-2.85 -7.35 Q1.7 -10.2 4.55 -11.1 11.15 -13.1 16.2 -10.85 18.5 -9.85 19.5 -8.25 20.55 -6.55 19.95 -4.55" fill="#f2e9df" fill-rule="evenodd" stroke="none"/>
      <path d="M19.55 -3.75 Q19.0 -2.75 17.8 -2.6 L15.0 -2.85 Q9.95 -3.5 6.1 -2.25 3.65 -1.4 -1.05 1.65 L-9.95 7.6 Q-22.15 15.25 -30.65 14.65 -38.65 14.1 -42.25 11.4 -45.2 9.2 -44.55 6.4 -43.25 9.2 -38.55 10.95 -34.0 12.65 -29.65 12.15 -22.05 11.35 -10.4 3.8 L-1.85 -1.75 Q2.7 -4.6 5.55 -5.45 9.8 -6.75 13.8 -6.2 17.5 -5.65 19.55 -3.75" fill="#d6c9bc" fill-rule="evenodd" stroke="none"/>
      <path d="M-6.35 23.65 Q-7.1 24.45 -8.0 23.8 -8.9 23.15 -8.35 21.9 -7.85 20.65 -6.7 21.75 -5.55 22.85 -6.35 23.65" fill="#776f3d" fill-rule="evenodd" stroke="none"/>
      <path d="M-1.45 33.35 L-0.15 33.4 Q0.75 34.1 0.7 35.25 L-0.6 35.2 Q-1.85 34.0 -1.45 33.35" fill="#776f3d" fill-rule="evenodd" stroke="none"/>
      <path d="M-33.75 26.85 Q-32.75 27.35 -33.05 28.4 -33.35 29.45 -34.7 29.4 -36.1 29.35 -35.45 27.9 -34.75 26.4 -33.75 26.85" fill="#776f3d" fill-rule="evenodd" stroke="none"/>
      <path d="M-42.7 16.3 Q-42.4 16.9 -43.15 17.15 -43.9 17.4 -44.65 16.85 -45.35 16.25 -44.2 16.0 -43.0 15.75 -42.7 16.3" fill="#776f3d" fill-rule="evenodd" stroke="none"/>
      <path d="M-29.15 21.35 Q-28.25 21.7 -28.45 22.6 -28.65 23.5 -29.8 23.55 -31.0 23.55 -30.5 22.3 -30.0 21.05 -29.15 21.35" fill="#776f3d" fill-rule="evenodd" stroke="none"/>
      <path d="M-41.35 31.75 Q-40.7 32.1 -41.3 33.05 -41.95 34.0 -43.05 34.0 -44.15 34.0 -43.05 32.7 -42.0 31.4 -41.35 31.75" fill="#776f3d" fill-rule="evenodd" stroke="none"/>
      <path d="M-29.4 34.5 Q-29.6 35.3 -30.75 35.55 L-33.1 35.35 Q-36.35 34.45 -36.3 32.3 -35.7 33.65 -33.35 34.55 -30.85 35.5 -29.4 34.5" fill="#301b04" fill-rule="evenodd" stroke="none"/>
      <path d="M-34.95 32.1 Q-34.05 31.1 -31.55 31.85 -29.05 32.55 -29.35 33.95 -29.85 32.85 -31.6 32.3 L-34.95 32.1" fill="#301b04" fill-rule="evenodd" stroke="none"/>
      <path d="M53.35 -27.7 Q59.4 -24.25 56.9 -21.1 58.55 -17.1 58.0 -12.95 57.5 -9.05 55.2 -5.85 52.9 -2.7 49.4 -1.05 45.7 0.65 41.45 0.25 40.7 2.75 38.25 3.85 35.95 4.9 33.0 4.3 31.55 5.65 27.15 6.3 22.05 7.05 17.3 5.8 3.85 2.3 2.65 -14.45 2.3 -19.1 3.3 -22.4 4.3 -25.85 6.5 -27.25 7.1 -28.85 7.4 -30.95 7.8 -33.75 7.35 -35.75 5.3 -44.85 10.75 -47.9 15.5 -50.45 23.45 -47.85 31.75 -48.65 37.05 -43.8 41.9 -39.45 41.5 -33.45 48.3 -33.15 53.35 -27.7" fill="#301b04" fill-rule="evenodd" stroke="none"/>
      <path d="M28.3 -46.45 Q32.9 -45.95 36.15 -42.6 39.1 -39.7 40.05 -35.6 41.0 -31.6 39.6 -28.75 35.95 -21.15 29.95 -17.75 25.05 -14.9 19.1 -15.1 14.3 -15.25 10.2 -17.2 6.55 -18.95 6.55 -20.35 6.55 -23.25 8.2 -28.25 9.55 -32.45 9.0 -35.0 7.2 -43.1 11.5 -46.15 15.2 -48.75 22.1 -46.95 L19.3 -45.5 Q17.3 -44.35 16.75 -43.65 22.9 -47.05 28.3 -46.45" fill="#a2a349" fill-rule="evenodd" stroke="none"/>
      <path d="M33.35 -31.6 Q44.55 -35.1 52.4 -26.6 54.65 -25.45 55.45 -24.55 56.85 -22.95 55.7 -20.85 56.95 -17.1 56.3 -13.25 55.7 -9.6 53.5 -6.7 51.35 -3.75 48.15 -2.25 44.75 -0.65 40.9 -1.05 40.2 2.0 37.05 3.0 33.25 4.15 28.8 0.6 28.85 1.1 29.8 2.15 30.85 3.25 31.65 3.6 29.0 4.55 25.3 4.7 20.6 4.85 16.65 3.4 5.65 -0.65 4.4 -15.2 3.4 -26.45 10.5 -28.15 L16.3 -27.85 Q19.1 -27.05 20.7 -25.5 L18.95 -22.85 Q17.8 -20.95 17.55 -19.55 20.25 -23.6 24.35 -26.75 28.65 -30.1 33.35 -31.6" fill="#eddbb1" fill-rule="evenodd" stroke="none"/>
      <path d="M32.55 -31.45 Q29.2 -30.25 26.15 -28.35 26.0 -32.15 27.1 -34.3 28.05 -36.15 29.55 -36.35 30.95 -36.5 31.85 -35.15 32.9 -33.75 32.55 -31.45" fill="#000000" fill-rule="evenodd" stroke="none"/>
      <path d="M30.1 -4.15 Q26.6 -7.8 26.35 -11.25 26.3 -12.1 24.6 -10.55 22.8 -9.0 22.25 -7.4 21.75 -5.95 21.3 -7.4 20.85 -8.75 21.35 -9.85 21.95 -11.05 23.85 -12.25 25.5 -13.25 27.25 -13.75 L29.15 -13.8 Q29.3 -13.25 27.1 -11.7 28.5 -6.15 33.25 -3.35 36.65 -1.3 41.05 -1.0 L40.6 0.2 Q34.45 0.45 30.1 -4.15" fill="#301b04" fill-rule="evenodd" stroke="none"/>
      <path d="M18.95 -4.6 Q17.15 -6.55 17.95 -8.9 18.1 -6.5 19.7 -5.45 21.05 -4.5 23.25 -4.7 20.85 -2.5 18.95 -4.6" fill="#301b04" fill-rule="evenodd" stroke="none"/>
      <path d="M36.1 -20.7 Q37.15 -22.35 38.75 -22.75 40.2 -23.1 41.5 -22.35 42.75 -21.6 43.1 -20.25 43.5 -18.8 42.45 -17.4 43.1 -20.05 40.4 -21.25 37.75 -22.5 36.1 -20.7" fill="#000000" fill-opacity="0.101960786" fill-rule="evenodd" stroke="none"/>
      <path d="M29.55 -35.6 Q30.3 -35.95 31.15 -35.0 31.95 -34.05 31.3 -33.6 30.7 -33.15 29.7 -34.2 28.75 -35.3 29.55 -35.6" fill="#ffffff" fill-rule="evenodd" stroke="none"/>
      <path d="M35.0 -32.05 Q34.75 -33.85 35.4 -35.25 35.95 -36.55 36.95 -36.85 38.0 -37.2 38.75 -36.2 39.6 -35.1 39.65 -32.65 L35.0 -32.05" fill="#000000" fill-rule="evenodd" stroke="none"/>
      <path d="M38.65 -35.25 Q38.5 -34.7 37.7 -35.25 36.95 -35.85 37.25 -36.3 L38.15 -36.25 Q38.85 -35.75 38.65 -35.25" fill="#ffffff" fill-rule="evenodd" stroke="none"/>
      <path d="M24.9 -38.95 Q25.7 -39.95 27.15 -39.45 L29.85 -38.05 Q31.45 -36.95 32.0 -36.85 32.9 -36.7 32.85 -38.2 33.55 -36.35 33.45 -35.5 33.3 -33.8 30.6 -35.1 27.0 -36.85 26.1 -36.35 25.65 -36.05 24.7 -32.8 23.35 -36.95 24.9 -38.95" fill="#2a2a2a" fill-rule="evenodd" stroke="none"/>
      <path d="M39.5 -39.85 Q40.05 -39.2 40.25 -37.65 40.5 -36.15 40.2 -35.45 39.7 -37.3 38.8 -37.3 38.05 -37.35 36.7 -35.95 35.15 -34.4 34.8 -35.75 34.6 -36.45 34.75 -38.65 34.95 -37.65 35.5 -37.95 L36.6 -39.05 Q38.5 -41.1 39.5 -39.85" fill="#2a2a2a" fill-rule="evenodd" stroke="none"/>
      <path d="M37.1 -20.05 Q38.35 -21.5 40.4 -20.0 42.45 -18.5 41.0 -16.85 39.65 -15.3 37.7 -16.9 35.8 -18.55 37.1 -20.05" fill="#001927" fill-rule="evenodd" stroke="none"/>
      <path d="M51.95 -24.85 Q52.65 -25.7 54.4 -24.3 56.1 -22.85 55.35 -21.95 54.6 -21.1 52.9 -22.55 51.2 -24.05 51.95 -24.85" fill="#001927" fill-rule="evenodd" stroke="none"/>
      <path d="M40.7 -28.55 Q41.05 -27.85 40.45 -27.4 L39.1 -27.5 Q38.35 -28.15 39.35 -28.7 40.35 -29.2 40.7 -28.55" fill="#cabb99" fill-rule="evenodd" stroke="none"/>
      <path d="M44.3 -30.05 Q44.5 -30.95 45.85 -30.55 47.2 -30.15 47.6 -28.85 48.0 -27.5 46.1 -28.3 44.1 -29.15 44.3 -30.05" fill="#cabb99" fill-rule="evenodd" stroke="none"/>
      <path d="M6.6 -20.1 Q8.25 -21.05 9.5 -19.6 10.7 -18.05 9.2 -16.15 8.5 -15.2 7.6 -15.5 6.85 -15.7 6.3 -16.65 5.75 -17.6 5.8 -18.55 5.8 -19.65 6.6 -20.1" fill="#cabb99" fill-rule="evenodd" stroke="none"/>
      <path d="M7.8 -10.0 Q8.6 -10.55 9.4 -9.3 10.2 -8.0 9.6 -6.65 9.0 -5.3 8.0 -7.35 7.0 -9.4 7.8 -10.0" fill="#cabb99" fill-rule="evenodd" stroke="none"/>
      <path d="M18.25 -32.9 Q16.95 -32.0 15.95 -33.1 14.9 -34.25 15.95 -35.8 17.0 -37.4 18.25 -35.55 18.75 -34.9 18.75 -34.1 18.8 -33.3 18.25 -32.9" fill="#776f3d" fill-rule="evenodd" stroke="none"/>
      <path d="M23.35 -42.9 Q24.7 -42.65 23.2 -41.3 21.65 -39.95 20.9 -40.6 20.2 -41.15 21.1 -42.15 22.0 -43.2 23.35 -42.9" fill="#776f3d" fill-rule="evenodd" stroke="none"/>
      <path d="M16.35 -28.2 Q14.7 -26.85 13.4 -22.55 12.0 -17.8 12.3 -12.85 12.6 -6.9 15.35 -2.6 18.55 2.55 24.9 4.7 17.4 4.85 12.25 1.0 5.45 -4.05 4.5 -15.2 3.8 -23.7 7.85 -26.8 L9.05 -30.85 Q9.55 -33.1 9.15 -35.0 7.85 -40.75 9.7 -44.0 11.35 -46.9 15.25 -47.5 11.95 -44.3 11.9 -38.7 11.9 -32.5 16.35 -28.2" fill="#000000" fill-opacity="0.101960786" fill-rule="evenodd" stroke="none"/>
      <path d="M-5.3 11.85 Q-6.2 13.5 -6.85 17.3 -7.55 21.15 -7.55 25.05 -7.65 34.9 -4.05 34.75 -5.7 37.7 -7.45 36.25 -9.45 34.55 -10.4 27.1 -10.9 23.2 -9.45 18.15 -7.8 12.6 -5.3 11.85" fill="#000000" fill-opacity="0.101960786" fill-rule="evenodd" stroke="none"/>
      <path d="M-29.75 18.25 Q-31.75 19.85 -34.15 25.0 -36.6 30.2 -36.3 32.3 -38.8 32.55 -41.35 35.25 -43.95 38.0 -44.1 40.9 -44.85 38.9 -45.3 34.95 -45.55 32.5 -37.85 28.15 L-37.5 29.25 -37.15 30.3 Q-37.0 30.25 -36.95 28.9 L-36.75 27.55 -34.3 21.7 Q-33.1 19.1 -32.0 18.7 -31.1 18.25 -29.75 18.25" fill="#000000" fill-opacity="0.101960786" fill-rule="evenodd" stroke="none"/>
      <path d="M-38.95 17.1 L-37.5 19.8 Q-41.25 20.3 -46.0 19.2 -50.3 18.25 -52.35 16.85 -49.65 17.8 -45.35 17.75 L-38.95 17.1" fill="#000000" fill-opacity="0.101960786" fill-rule="evenodd" stroke="none"/>
      <path d="M-43.9 -19.05 Q-45.95 -20.0 -47.9 -21.35 L-49.45 -22.5 -48.6 -22.4 Q-47.7 -22.45 -47.2 -22.8 -50.25 -22.8 -55.85 -26.05 L-60.9 -29.25 -60.15 -29.2 -58.4 -29.5 Q-61.2 -29.95 -63.7 -31.5 -66.15 -33.0 -68.85 -35.8 -65.5 -35.4 -62.25 -35.9 -60.15 -36.25 -56.55 -37.45 -48.65 -40.0 -43.0 -39.9 -36.65 -39.8 -29.35 -32.2 L-23.75 -25.9 Q-20.55 -22.2 -18.75 -20.65 -17.7 -19.8 -18.1 -18.5 -18.45 -17.3 -19.75 -16.3 -21.1 -15.3 -22.65 -15.05 -24.4 -14.8 -25.7 -15.75 L-29.5 -18.25 -32.7 -18.15 Q-37.35 -16.0 -43.9 -19.05" fill="#45464b" fill-rule="evenodd" stroke="none"/>
      <path d="M-42.15 -19.45 Q-43.9 -20.1 -45.5 -21.1 L-46.8 -22.0 -44.25 -22.1 Q-41.55 -22.35 -40.55 -23.35 -45.1 -22.25 -51.9 -25.2 -54.05 -26.15 -56.15 -27.35 L-57.8 -28.4 -55.35 -28.65 Q-52.5 -29.15 -50.8 -30.2 -54.65 -29.45 -59.25 -30.7 -63.95 -32.05 -66.1 -34.65 -61.65 -34.1 -55.0 -36.25 -47.75 -38.65 -42.85 -38.55 -37.3 -38.45 -30.05 -31.35 L-24.55 -25.45 Q-21.4 -22.0 -19.9 -20.75 -19.0 -20.0 -19.3 -18.9 -19.55 -17.95 -20.65 -17.15 -23.35 -15.25 -25.65 -16.9 L-29.45 -19.6 Q-30.8 -20.3 -32.15 -19.6 -36.65 -17.35 -42.15 -19.45" fill="#8f8d9b" fill-rule="evenodd" stroke="none"/>
      <path d="M-45.5 -36.8 Q-43.8 -36.65 -43.1 -35.65 -42.45 -34.7 -43.05 -33.55 -44.55 -30.65 -50.15 -30.5 -49.35 -31.3 -49.2 -32.15 -50.5 -31.55 -52.9 -31.45 -57.75 -31.25 -63.35 -33.7 -57.4 -33.8 -52.2 -35.5 L-48.9 -36.55 -45.5 -36.8" fill="#d8d9e1" fill-rule="evenodd" stroke="none"/>
      <path d="M-41.3 -33.65 Q-40.65 -34.5 -38.6 -33.65 -36.5 -32.75 -35.4 -31.1 -34.05 -29.15 -35.15 -27.4 -36.55 -25.3 -41.45 -24.05 -40.65 -24.85 -40.2 -26.05 -41.3 -25.1 -43.6 -24.85 -48.2 -24.3 -54.35 -27.55 -46.45 -28.9 -44.25 -30.25 -43.3 -30.8 -42.65 -31.7 L-41.3 -33.65" fill="#d8d9e1" fill-rule="evenodd" stroke="none"/>
      <path d="M-33.25 -27.05 Q-32.9 -27.8 -31.8 -27.5 -30.75 -27.25 -29.7 -26.25 -28.55 -25.25 -28.2 -24.25 -27.75 -23.05 -28.6 -22.4 -32.2 -19.65 -36.7 -19.35 -41.1 -19.1 -44.1 -21.3 -40.5 -21.25 -36.75 -23.75 -33.8 -25.7 -33.25 -27.05" fill="#d8d9e1" fill-rule="evenodd" stroke="none"/>
      <path d="M-25.65 -16.9 L-28.7 -19.15 Q-26.1 -18.25 -23.4 -18.6 -20.4 -18.95 -19.9 -20.75 L-19.9 -20.7 Q-19.0 -19.95 -19.25 -18.9 -19.55 -17.95 -20.6 -17.15 -23.3 -15.25 -25.65 -16.9" fill="#636471" fill-rule="evenodd" stroke="none"/>
    </g>
  </defs>
</svg>
