<?xml version="1.0" encoding="UTF-8" standalone="no"?>
<svg xmlns:ffdec="https://www.free-decompiler.com/flash" xmlns:xlink="http://www.w3.org/1999/xlink" ffdec:objectType="frame" height="97.4px" width="127.0px" xmlns="http://www.w3.org/2000/svg">
  <g transform="matrix(1.0, 0.0, 0.0, 1.0, 68.85, 49.85)">
    <use ffdec:characterId="89" height="95.55" transform="matrix(1.0, 0.0, 0.0, 1.0, -54.95, -49.85)" width="112.9" xlink:href="#shape0"/>
  </g>
  <defs>
    <g id="shape0" transform="matrix(1.0, 0.0, 0.0, 1.0, 54.95, 49.85)">
      <path d="M-3.15 -20.7 Q-1.6 -18.4 2.4 -14.1 L9.2 -6.65 Q17.25 2.9 16.7 9.4 16.4 13.3 15.1 16.85 14.4 18.8 12.5 22.45 10.8 25.75 10.2 27.75 9.2 30.9 9.4 34.45 6.35 30.9 4.85 28.0 3.35 25.0 3.1 22.1 2.65 22.8 2.55 23.7 L2.55 24.5 Q0.9 21.8 -0.7 18.5 -3.85 11.9 -3.55 8.8 -4.05 9.2 -4.15 10.15 L-4.15 11.0 Q-6.2 8.1 -7.6 4.35 -10.45 -3.1 -7.5 -7.2 -6.4 -8.7 -7.05 -10.4 -7.35 -11.35 -9.6 -15.0 -10.55 -16.6 -10.1 -18.3 -9.65 -19.8 -8.35 -20.85 -7.05 -21.95 -5.6 -21.95 -4.05 -22.0 -3.15 -20.7" fill="#45464b" fill-rule="evenodd" stroke="none"/>
      <path d="M-3.2 -19.5 Q-1.9 -17.6 1.8 -13.45 L8.1 -6.2 Q15.65 3.2 15.2 8.85 14.95 12.3 13.7 15.45 L11.3 20.55 Q9.7 23.6 9.1 25.45 8.2 28.3 8.35 31.35 5.55 28.4 4.45 23.25 3.45 18.3 4.65 14.55 3.3 16.0 2.45 18.7 2.0 20.1 1.85 21.15 0.15 18.15 -1.2 14.25 -3.95 6.5 -2.2 2.2 -3.5 2.95 -4.1 5.6 L-4.45 8.15 Q-6.0 5.8 -6.95 2.7 -8.85 -3.45 -5.75 -7.35 -4.8 -8.55 -5.5 -10.1 L-8.2 -14.7 Q-9.05 -16.1 -8.75 -17.55 -8.45 -18.85 -7.4 -19.75 -6.4 -20.65 -5.25 -20.6 -4.0 -20.6 -3.2 -19.5" fill="#8f8d9b" fill-rule="evenodd" stroke="none"/>
      <path d="M5.15 14.0 Q5.5 11.15 6.75 9.45 7.9 7.95 9.4 7.65 10.75 7.35 11.8 8.25 12.85 9.25 12.9 11.0 12.9 12.8 12.3 14.4 L10.75 17.5 Q8.2 22.25 7.45 28.25 5.2 21.9 5.95 17.05 6.15 15.55 6.65 14.35 L7.1 13.5 6.5 13.5 Q5.75 13.6 5.15 14.0" fill="#d8d9e1" fill-rule="evenodd" stroke="none"/>
      <path d="M9.65 5.9 L7.3 6.7 5.4 7.9 Q3.65 9.75 1.25 17.4 -1.9 10.3 -0.8 5.75 -0.45 4.35 0.25 3.35 L0.9 2.65 0.05 2.75 -1.55 3.3 Q0.45 -1.3 3.05 -2.1 5.15 -2.75 7.3 -0.85 9.05 0.8 9.9 3.15 10.7 5.5 9.65 5.9" fill="#d8d9e1" fill-rule="evenodd" stroke="none"/>
      <path d="M0.05 -10.1 Q1.15 -9.4 2.2 -8.0 3.25 -6.65 3.45 -5.5 3.7 -4.25 2.75 -4.15 1.15 -3.95 -1.4 -1.5 -4.7 1.55 -5.0 5.2 -7.2 1.55 -6.45 -2.85 -5.7 -7.3 -2.1 -10.15 L0.05 -10.1" fill="#d8d9e1" fill-rule="evenodd" stroke="none"/>
      <path d="M-8.25 -14.75 Q-9.05 -16.1 -8.75 -17.55 -8.45 -18.85 -7.4 -19.75 -6.4 -20.65 -5.25 -20.65 -4.0 -20.65 -3.25 -19.5 L-3.2 -19.5 Q-5.35 -19.5 -6.05 -16.5 -6.75 -13.9 -5.95 -11.0 L-8.25 -14.75" fill="#636471" fill-rule="evenodd" stroke="none"/>
      <path d="M31.05 23.3 Q34.8 27.85 28.8 26.9 30.2 30.45 27.95 30.7 25.8 30.9 22.1 28.0 22.05 29.6 21.1 30.35 20.15 31.15 18.85 30.6 15.6 29.25 13.65 21.45 10.3 7.95 14.9 6.85 16.8 6.4 19.15 9.0 21.65 11.8 23.6 16.95 27.85 19.4 31.05 23.3" fill="#301b04" fill-rule="evenodd" stroke="none"/>
      <path d="M18.55 9.15 Q20.75 11.8 22.65 16.55 20.5 16.7 19.15 18.0 L21.65 17.45 23.35 17.5 Q27.2 19.85 29.8 22.85 32.9 26.45 28.75 25.95 L27.9 24.8 27.4 24.3 Q29.2 28.65 27.45 29.2 25.9 29.7 22.4 27.2 22.2 25.75 21.75 25.35 21.85 28.35 20.9 29.0 20.05 29.5 18.55 28.2 17.25 27.0 16.0 24.85 14.7 22.65 14.25 20.7 12.75 14.45 13.05 10.75 13.3 7.45 14.95 7.1 16.45 6.7 18.55 9.15" fill="#a2a349" fill-rule="evenodd" stroke="none"/>
      <path d="M16.55 19.8 Q17.05 18.5 18.2 19.65 19.35 20.75 18.55 21.55 17.8 22.3 16.9 21.7 16.0 21.05 16.55 19.8" fill="#776f3d" fill-rule="evenodd" stroke="none"/>
      <path d="M23.0 19.3 Q23.6 18.95 24.05 19.5 24.55 20.05 23.95 20.75 23.4 21.45 22.9 20.55 22.35 19.7 23.0 19.3" fill="#776f3d" fill-rule="evenodd" stroke="none"/>
      <path d="M16.7 19.65 Q19.2 27.9 21.75 27.0 21.5 29.05 20.45 29.1 19.5 29.2 18.2 27.8 15.25 24.8 14.25 20.7 12.9 14.95 13.05 11.35 13.15 8.1 14.45 7.3 14.6 12.5 16.7 19.65" fill="#000000" fill-opacity="0.101960786" fill-rule="evenodd" stroke="none"/>
      <path d="M17.05 -8.0 Q18.4 -5.0 19.2 -2.0 20.55 3.35 20.0 7.65 19.5 11.55 16.45 16.25 13.05 21.65 7.85 25.45 -5.7 35.45 -23.4 29.5 -28.2 27.9 -31.85 25.3 -35.05 23.1 -36.75 20.55 -42.4 21.35 -48.4 19.3 -53.35 17.6 -54.75 15.8 -55.4 14.95 -54.1 14.6 L-50.35 14.2 Q-43.15 13.7 -40.15 11.95 L-40.85 8.0 -41.25 5.5 Q-41.25 0.6 -38.95 -5.45 -34.25 -17.65 -22.55 -23.5 -16.45 -26.55 -9.6 -26.75 -3.2 -26.95 2.6 -24.6 8.4 -22.3 12.2 -18.05 16.15 -13.6 17.05 -8.0" fill="#301b04" fill-rule="evenodd" stroke="none"/>
      <path d="M-40.4 13.4 L-39.45 15.65 -37.65 19.1 Q-41.65 19.65 -46.7 18.4 -51.3 17.3 -52.95 15.85 -53.8 15.15 -53.0 15.0 L-50.15 15.0 Q-44.1 15.05 -40.4 13.4" fill="#a2a349" fill-rule="evenodd" stroke="none"/>
      <path d="M-30.2 5.15 Q-20.15 2.55 -9.65 1.15 3.2 -0.5 10.6 0.6 19.6 2.0 18.9 7.45 18.45 10.9 15.65 15.25 12.45 20.2 7.65 23.8 -5.1 33.3 -21.95 28.3 -31.35 25.55 -36.05 18.4 -39.15 13.65 -39.55 8.55 -39.6 7.55 -30.2 5.15" fill="#e2cfbb" fill-rule="evenodd" stroke="none"/>
      <path d="M19.65 -5.2 L22.4 -1.55 Q23.95 1.2 24.15 3.5 24.6 10.0 14.05 11.0 2.95 12.0 -1.55 7.35 -4.95 3.85 -3.9 -1.4 -3.5 -3.3 -0.3 -4.85 2.6 -6.2 6.85 -6.85 L14.5 -7.1 Q18.25 -6.65 19.65 -5.2" fill="#301b04" fill-rule="evenodd" stroke="none"/>
      <path d="M19.3 -6.3 Q20.7 -4.8 21.85 -2.6 23.4 0.25 23.55 2.65 24.05 9.3 14.05 10.15 3.6 11.05 -0.6 6.25 -3.8 2.7 -2.8 -2.5 -2.45 -4.45 0.55 -5.95 3.3 -7.35 7.25 -7.95 L14.45 -8.2 Q18.0 -7.8 19.3 -6.3" fill="#f2e9df" fill-rule="evenodd" stroke="none"/>
      <path d="M-0.05 -5.9 Q-1.75 -0.35 1.2 3.6 4.9 8.7 15.0 7.85 21.3 7.35 23.45 4.35 22.5 9.4 14.05 10.1 3.6 11.0 -0.6 6.2 -3.8 2.65 -2.8 -2.55 L-1.55 -4.25 -0.05 -5.9" fill="#d6c9bc" fill-rule="evenodd" stroke="none"/>
      <path d="M15.85 -3.85 L17.8 -0.95 Q18.75 0.7 18.65 1.7 18.45 4.4 11.1 4.0 6.0 3.8 4.1 0.6 3.35 -0.6 3.45 -1.85 3.5 -3.0 4.3 -3.55 5.6 -4.4 10.9 -4.2 L15.85 -3.85" fill="#001927" fill-rule="evenodd" stroke="none"/>
      <path d="M15.7 -8.25 Q11.8 -8.8 4.4 -5.0 0.05 -2.8 -9.8 2.85 -18.85 7.65 -25.15 8.75 -33.55 10.3 -39.75 6.2 -37.15 -13.85 -21.25 -22.15 -15.3 -25.25 -9.05 -25.4 -3.35 -25.5 1.95 -23.15 6.9 -20.95 10.55 -16.95 14.15 -13.05 15.7 -8.25" fill="#000000" fill-rule="evenodd" stroke="none"/>
      <path d="M-1.9 -12.55 L-6.85 -18.2 -3.7 -24.6 Q-0.4 -24.0 4.2 -21.85 L8.1 -19.8 6.85 -12.2 -1.9 -12.55" fill="#6f4411" fill-rule="evenodd" stroke="none"/>
      <path d="M-10.8 -24.9 L-5.1 -24.75 -8.05 -18.5 -17.75 -17.7 -22.25 -21.1 Q-17.45 -24.35 -10.8 -24.9" fill="#6f4411" fill-rule="evenodd" stroke="none"/>
      <path d="M-34.4 -9.3 Q-31.9 -13.75 -27.5 -17.4 L-23.6 -20.2 -19.15 -17.3 -22.15 -9.2 -31.5 -8.05 -34.4 -9.3" fill="#6f4411" fill-rule="evenodd" stroke="none"/>
      <path d="M-32.05 -6.75 L-32.25 0.85 -36.1 6.5 -39.15 4.65 Q-38.9 2.55 -38.25 -0.1 -36.95 -5.4 -35.05 -8.05 L-32.05 -6.75" fill="#6f4411" fill-rule="evenodd" stroke="none"/>
      <path d="M-8.4 -17.25 L-2.8 -11.45 -4.55 -2.6 -16.2 -3.3 -20.85 -8.65 -18.05 -16.6 -8.4 -17.25" fill="#6f4411" fill-rule="evenodd" stroke="none"/>
      <path d="M-2.8 -4.9 L-1.5 -11.3 6.1 -11.0 -2.8 -4.9" fill="#552306" fill-rule="evenodd" stroke="none"/>
      <path d="M-30.85 -6.95 L-21.85 -7.9 -17.15 -2.45 -17.45 4.15 -26.0 6.9 -31.05 1.15 -30.85 -6.95" fill="#6f4411" fill-rule="evenodd" stroke="none"/>
      <path d="M-9.7 -1.7 L-16.4 3.45 -16.05 -2.2 -9.7 -1.7" fill="#552306" fill-rule="evenodd" stroke="none"/>
      <path d="M-27.55 7.1 Q-29.85 8.45 -32.95 8.2 L-35.55 7.75 -31.65 2.3 -27.55 7.1" fill="#552306" fill-rule="evenodd" stroke="none"/>
      <path d="M-17.75 -9.75 Q-16.1 -6.6 -13.35 -4.85 -11.05 -3.35 -7.35 -2.65 L-16.1 -3.35 -20.8 -8.7 -17.95 -16.65 -18.25 -14.0 Q-18.4 -11.1 -17.75 -9.75" fill="#552306" fill-rule="evenodd" stroke="none"/>
      <path d="M-30.6 -4.2 Q-30.1 -1.3 -29.15 -0.1 -27.8 1.55 -25.0 2.8 -21.7 4.25 -17.85 4.4 L-26.0 6.85 -31.05 1.2 -30.9 -6.85 -30.6 -4.2" fill="#552306" fill-rule="evenodd" stroke="none"/>
      <path d="M-9.35 -18.4 L-17.65 -17.7 -22.2 -21.1 -19.2 -22.8 Q-19.8 -20.95 -17.4 -19.75 -14.75 -18.45 -9.35 -18.4" fill="#552306" fill-rule="evenodd" stroke="none"/>
      <path d="M-6.8 -18.2 L-3.95 -24.0 -4.4 -21.15 Q-4.7 -19.25 -4.4 -18.65 -3.05 -15.95 -1.2 -14.7 0.6 -13.4 4.75 -12.25 L-1.85 -12.5 -6.8 -18.2" fill="#552306" fill-rule="evenodd" stroke="none"/>
      <path d="M-31.25 -13.75 Q-32.05 -11.0 -29.3 -9.95 -27.4 -9.3 -22.6 -9.15 L-31.5 -8.05 -34.4 -9.3 Q-33.15 -11.55 -31.25 -13.75" fill="#552306" fill-rule="evenodd" stroke="none"/>
      <path d="M-36.05 6.3 L-39.1 4.45 -38.6 1.5 -36.85 -4.6 Q-37.35 -1.2 -36.2 0.6 -34.95 2.7 -32.35 0.95 L-36.05 6.3" fill="#552306" fill-rule="evenodd" stroke="none"/>
      <path d="M-4.35 -7.6 Q-4.0 -10.5 -6.0 -12.65 L-9.05 -14.95 Q-10.05 -15.65 -13.65 -15.8 L-17.1 -15.8 -13.15 -16.25 -8.3 -15.95 Q-4.95 -12.85 -4.45 -11.85 -3.65 -10.45 -4.35 -7.6" fill="#c1b49c" fill-rule="evenodd" stroke="none"/>
      <path d="M-19.9 -3.7 Q-20.35 -4.2 -22.65 -5.95 L-26.55 -6.35 -29.6 -6.1 -25.9 -6.8 -21.8 -6.6 Q-18.8 -3.5 -18.5 -3.0 -17.75 -1.65 -18.05 1.15 -18.1 -1.65 -19.9 -3.7" fill="#c1b49c" fill-rule="evenodd" stroke="none"/>
      <path d="M3.8 -20.85 Q6.25 -19.4 5.45 -18.05 5.1 -19.35 1.7 -21.2 L-3.3 -23.85 Q1.9 -22.0 3.8 -20.85" fill="#c1b49c" fill-rule="evenodd" stroke="none"/>
      <path d="M-8.15 -20.35 L-7.7 -21.65 Q-7.3 -23.0 -7.65 -23.35 L-11.65 -23.5 -17.8 -22.8 Q-16.7 -23.45 -12.15 -24.0 L-7.0 -24.2 Q-5.65 -23.75 -8.15 -20.35" fill="#c1b49c" fill-rule="evenodd" stroke="none"/>
      <path d="M-20.2 -16.8 Q-21.35 -17.55 -22.45 -17.85 L-24.1 -18.05 Q-24.65 -17.9 -27.0 -16.25 -29.3 -14.7 -30.85 -13.35 -30.85 -13.8 -27.8 -16.25 -24.85 -18.65 -24.15 -18.95 -22.85 -19.4 -20.2 -16.8" fill="#c1b49c" fill-rule="evenodd" stroke="none"/>
      <path d="M17.2 12.45 Q15.65 15.0 10.8 15.95 6.2 16.85 0.85 15.9 -4.85 14.95 -8.6 12.3 -12.85 9.3 -13.3 4.95 -7.8 13.05 3.0 14.7 7.35 15.35 11.35 14.7 15.15 14.05 17.2 12.45" fill="#c4b19f" fill-rule="evenodd" stroke="none"/>
      <path d="M13.35 18.1 Q11.1 21.0 5.2 21.95 L-6.7 21.55 Q-13.25 20.15 -17.35 16.95 -21.95 13.35 -21.9 8.3 -20.05 12.9 -15.1 16.05 -10.75 18.8 -4.75 19.95 L5.85 20.5 Q10.9 19.95 13.35 18.1" fill="#c4b19f" fill-rule="evenodd" stroke="none"/>
      <path d="M-24.2 20.15 Q-19.5 23.45 -13.1 25.05 -7.25 26.5 -1.65 26.2 3.85 25.95 6.85 24.2 3.85 26.85 -2.7 27.3 -8.95 27.75 -15.6 26.0 -22.65 24.1 -26.9 20.5 -31.75 16.35 -31.7 11.0 -29.55 16.4 -24.2 20.15" fill="#c4b19f" fill-rule="evenodd" stroke="none"/>
      <path d="M0.7 13.2 Q1.5 14.85 -0.4 16.05 -2.1 17.1 -5.05 17.45 L-9.75 17.1 Q-11.85 16.4 -11.25 14.9 -9.35 10.05 -5.25 9.65 -1.25 9.25 0.7 13.2" fill="#001927" fill-rule="evenodd" stroke="none"/>
      <path d="M-33.85 20.5 Q-35.5 19.2 -34.95 18.1 -34.6 17.5 -33.15 17.0 -31.6 16.45 -29.95 16.55 -25.45 16.7 -24.75 20.55 -24.4 22.35 -26.15 22.8 L-30.05 22.4 Q-32.35 21.7 -33.85 20.5" fill="#001927" fill-rule="evenodd" stroke="none"/>
      <path d="M-1.3 13.3 Q0.85 16.65 1.95 23.75 6.1 28.35 7.9 32.2 10.1 36.85 4.85 33.95 4.6 39.2 3.45 39.85 1.65 40.75 -4.1 35.55 -5.75 38.5 -7.75 37.6 -10.55 36.35 -11.6 26.6 -12.1 22.25 -10.35 17.1 -8.45 11.5 -5.55 10.9 -3.2 10.4 -1.3 13.3" fill="#301b04" fill-rule="evenodd" stroke="none"/>
      <path d="M-1.6 13.7 Q0.3 17.0 1.1 23.1 L-1.25 23.15 Q-3.35 23.45 -4.4 24.25 L-1.05 23.85 Q0.9 23.85 1.45 24.4 3.85 26.6 6.0 30.3 8.45 34.5 5.15 33.15 4.85 31.9 4.25 31.15 4.3 36.8 3.05 37.75 1.45 39.0 -3.5 34.6 L-3.35 33.9 Q-3.2 33.05 -3.4 32.1 -4.9 36.7 -7.05 35.95 -9.5 35.05 -10.6 26.4 -11.1 22.45 -9.55 17.3 -7.9 11.65 -5.3 11.15 -3.35 10.75 -1.6 13.7" fill="#a2a349" fill-rule="evenodd" stroke="none"/>
      <path d="M-26.05 20.45 Q-25.0 25.2 -26.65 31.35 -28.75 39.3 -34.5 41.7 -34.7 45.5 -36.5 45.7 -38.2 45.9 -39.7 43.05 -41.6 45.1 -43.35 44.2 -45.9 42.8 -46.55 34.35 -46.75 32.15 -43.25 29.6 -41.8 28.5 -37.6 26.2 L-34.95 20.75 Q-33.65 18.65 -32.45 18.15 -31.05 17.55 -29.2 17.75 -26.55 18.05 -26.05 20.45" fill="#301b04" fill-rule="evenodd" stroke="none"/>
      <path d="M-26.45 20.15 Q-25.5 24.55 -27.35 30.7 -29.7 38.4 -35.15 40.9 -35.3 44.2 -36.35 44.4 -37.3 44.55 -38.95 42.35 L-37.95 39.3 Q-40.95 42.95 -42.45 42.6 -44.6 42.1 -45.45 34.3 -45.75 31.85 -38.05 27.5 L-37.65 28.6 -37.3 29.65 -37.1 28.25 -36.9 26.9 -34.45 21.05 Q-33.25 18.4 -32.2 18.0 -30.85 17.45 -29.3 17.65 -26.9 17.95 -26.45 20.15" fill="#a2a349" fill-rule="evenodd" stroke="none"/>
      <path d="M-2.85 -8.9 Q1.7 -11.75 4.55 -12.6 11.15 -14.6 16.2 -12.4 18.45 -11.4 19.5 -9.8 20.5 -8.1 19.9 -6.1 19.45 -4.55 18.4 -4.05 L15.8 -3.65 11.95 -3.6 Q9.3 -3.4 6.7 -2.55 4.25 -1.7 -0.65 1.6 L-10.0 7.95 Q-22.8 16.25 -31.3 15.65 -40.5 15.0 -44.1 10.95 -45.6 9.2 -45.75 7.2 -45.9 5.3 -44.8 3.6 -44.05 2.45 -42.1 1.0 -40.15 -0.4 -39.35 -0.4 L-39.6 2.1 Q-38.65 3.1 -36.15 4.1 -33.2 5.25 -30.65 5.0 -23.0 4.2 -11.4 -3.3 L-2.85 -8.9" fill="#301b04" fill-rule="evenodd" stroke="none"/>
      <path d="M19.75 -5.2 Q19.25 -3.7 18.15 -3.35 17.35 -3.1 15.35 -3.35 9.75 -4.15 5.9 -2.85 3.45 -2.05 -1.25 1.05 L-10.15 6.95 Q-22.3 14.6 -30.85 14.05 -39.85 13.4 -43.25 10.1 -45.95 7.45 -44.25 4.55 -43.55 3.35 -42.25 2.15 -40.85 0.95 -40.1 0.95 L-40.25 1.8 -40.35 2.8 Q-39.4 3.85 -36.6 4.9 -33.35 6.15 -30.85 5.9 -23.2 5.1 -11.55 -2.45 L-3.0 -8.0 Q1.5 -10.85 4.35 -11.75 11.0 -13.75 16.05 -11.5 18.3 -10.55 19.3 -8.9 20.35 -7.2 19.75 -5.2" fill="#f2e9df" fill-rule="evenodd" stroke="none"/>
      <path d="M5.95 -2.9 Q3.45 -2.05 -1.25 1.0 L-10.15 6.9 Q-22.3 14.55 -30.85 14.0 -38.8 13.45 -42.45 10.75 -45.4 8.55 -44.75 5.75 -43.4 8.55 -38.7 10.3 -34.15 12.0 -29.85 11.5 -22.2 10.65 -10.6 3.15 L-2.05 -2.45 Q2.55 -5.25 5.35 -6.15 9.65 -7.4 13.65 -6.85 17.35 -6.3 19.4 -4.4 18.8 -3.4 17.6 -3.3 L14.85 -3.5 Q9.75 -4.15 5.95 -2.9" fill="#d6c9bc" fill-rule="evenodd" stroke="none"/>
      <path d="M-6.5 23.0 Q-7.25 23.75 -8.15 23.15 -9.05 22.5 -8.55 21.25 -8.05 20.0 -6.85 21.05 -5.75 22.2 -6.5 23.0" fill="#776f3d" fill-rule="evenodd" stroke="none"/>
      <path d="M-1.65 32.7 L-0.35 32.75 Q0.55 33.45 0.5 34.55 L-0.8 34.5 Q-2.05 33.35 -1.65 32.7" fill="#776f3d" fill-rule="evenodd" stroke="none"/>
      <path d="M-33.95 26.2 Q-32.95 26.65 -33.2 27.75 -33.55 28.8 -34.9 28.7 -36.25 28.65 -35.6 27.25 -34.95 25.75 -33.95 26.2" fill="#776f3d" fill-rule="evenodd" stroke="none"/>
      <path d="M-42.9 15.65 Q-42.55 16.2 -43.3 16.45 -44.1 16.75 -44.8 16.2 -45.55 15.6 -44.35 15.35 -43.2 15.1 -42.9 15.65" fill="#776f3d" fill-rule="evenodd" stroke="none"/>
      <path d="M-29.3 20.7 Q-28.45 21.05 -28.65 21.95 -28.85 22.85 -30.0 22.9 -31.15 22.9 -30.65 21.65 -30.2 20.4 -29.3 20.7" fill="#776f3d" fill-rule="evenodd" stroke="none"/>
      <path d="M-41.5 31.1 Q-40.85 31.45 -41.5 32.4 -42.1 33.3 -43.25 33.3 -44.35 33.35 -43.25 32.05 -42.15 30.7 -41.5 31.1" fill="#776f3d" fill-rule="evenodd" stroke="none"/>
      <path d="M-29.55 33.8 Q-29.75 34.6 -30.9 34.85 L-33.3 34.7 Q-36.55 33.8 -36.5 31.65 -35.9 33.0 -33.55 33.85 -31.05 34.8 -29.55 33.8" fill="#301b04" fill-rule="evenodd" stroke="none"/>
      <path d="M-35.1 31.4 Q-34.2 30.45 -31.75 31.15 -29.25 31.9 -29.55 33.3 -30.0 32.15 -31.8 31.65 L-35.1 31.4" fill="#301b04" fill-rule="evenodd" stroke="none"/>
      <path d="M6.3 -27.9 Q6.95 -29.55 7.2 -31.65 7.6 -34.45 7.15 -36.45 5.15 -45.5 10.6 -48.55 15.3 -51.15 23.25 -48.5 31.6 -49.3 36.9 -44.5 41.7 -40.1 41.35 -34.1 48.1 -33.8 53.15 -28.4 55.55 -27.0 56.55 -25.8 58.25 -23.75 56.75 -21.8 58.35 -17.8 57.8 -13.65 57.35 -9.75 55.05 -6.55 52.75 -3.35 49.25 -1.7 45.5 0.0 41.25 -0.45 40.5 2.05 38.1 3.15 35.75 4.2 32.8 3.65 31.3 5.05 26.9 5.7 21.8 6.45 17.1 5.2 3.7 1.6 2.45 -15.15 2.15 -19.75 3.15 -23.1 4.15 -26.55 6.3 -27.9" fill="#301b04" fill-rule="evenodd" stroke="none"/>
      <path d="M8.8 -35.65 Q7.0 -43.8 11.3 -46.8 15.05 -49.45 21.95 -47.65 L19.1 -46.2 Q17.15 -45.0 16.55 -44.3 22.75 -47.7 28.1 -47.15 32.7 -46.6 36.0 -43.3 38.9 -40.35 39.9 -36.25 40.8 -32.3 39.45 -29.4 35.75 -21.85 29.75 -18.4 24.85 -15.6 18.9 -15.8 14.1 -15.95 10.05 -17.85 6.35 -19.6 6.35 -21.0 6.35 -23.95 8.0 -28.9 9.35 -33.1 8.8 -35.65" fill="#a2a349" fill-rule="evenodd" stroke="none"/>
      <path d="M20.5 -26.2 L18.8 -23.55 Q17.6 -21.65 17.35 -20.25 20.1 -24.25 24.15 -27.45 28.5 -30.8 33.15 -32.25 44.4 -35.75 52.25 -27.3 L55.25 -25.25 Q56.7 -23.65 55.55 -21.55 56.8 -17.8 56.1 -13.95 55.5 -10.3 53.35 -7.35 51.15 -4.4 47.95 -2.9 44.55 -1.3 40.7 -1.7 40.0 1.35 36.85 2.3 33.1 3.45 28.65 -0.1 28.7 0.4 29.65 1.45 30.65 2.6 31.45 2.9 28.8 3.9 25.1 4.0 20.4 4.2 16.45 2.7 5.45 -1.3 4.2 -15.85 3.25 -27.15 10.35 -28.85 L16.1 -28.55 Q18.9 -27.7 20.5 -26.2" fill="#eddbb1" fill-rule="evenodd" stroke="none"/>
      <path d="M26.95 -35.0 Q27.9 -36.85 29.35 -37.0 30.8 -37.2 31.7 -35.85 32.7 -34.4 32.4 -32.15 29.25 -31.05 25.95 -29.05 25.85 -32.8 26.95 -35.0" fill="#000000" fill-rule="evenodd" stroke="none"/>
      <path d="M26.2 -11.9 Q26.15 -12.75 24.4 -11.25 22.65 -9.7 22.05 -8.05 21.6 -6.65 21.15 -8.05 20.65 -9.45 21.15 -10.5 21.75 -11.7 23.7 -12.9 25.35 -13.95 27.1 -14.45 28.8 -14.9 28.95 -14.45 29.15 -13.95 26.9 -12.4 28.3 -6.85 33.05 -4.0 36.5 -2.0 40.9 -1.65 L40.45 -0.5 Q34.3 -0.25 29.95 -4.8 26.4 -8.45 26.2 -11.9" fill="#301b04" fill-rule="evenodd" stroke="none"/>
      <path d="M23.1 -5.35 Q20.7 -3.45 18.8 -5.4 16.95 -7.3 17.75 -9.55 17.95 -7.2 19.5 -6.1 20.85 -5.2 23.1 -5.35" fill="#301b04" fill-rule="evenodd" stroke="none"/>
      <path d="M35.95 -21.4 Q36.95 -23.05 38.6 -23.45 40.0 -23.8 41.3 -23.0 42.6 -22.3 42.9 -20.95 43.3 -19.5 42.3 -18.05 42.9 -20.7 40.2 -21.95 37.55 -23.2 35.95 -21.4" fill="#000000" fill-opacity="0.101960786" fill-rule="evenodd" stroke="none"/>
      <path d="M29.35 -36.3 Q30.1 -36.6 30.95 -35.65 31.8 -34.7 31.15 -34.25 30.5 -33.8 29.55 -34.9 28.55 -35.95 29.35 -36.3" fill="#ffffff" fill-rule="evenodd" stroke="none"/>
      <path d="M34.85 -32.7 Q34.6 -34.5 35.2 -35.95 35.8 -37.25 36.8 -37.55 37.8 -37.85 38.6 -36.9 39.45 -35.75 39.5 -33.35 L34.85 -32.7" fill="#000000" fill-rule="evenodd" stroke="none"/>
      <path d="M38.5 -35.9 L37.55 -35.95 Q36.8 -36.55 37.05 -37.0 L38.0 -36.95 Q38.65 -36.45 38.5 -35.9" fill="#ffffff" fill-rule="evenodd" stroke="none"/>
      <path d="M32.65 -38.9 Q34.7 -33.7 30.45 -35.8 26.8 -37.55 25.9 -37.0 25.45 -36.75 24.5 -33.5 23.2 -37.7 24.7 -39.6 25.5 -40.65 27.0 -40.15 27.9 -39.9 29.65 -38.7 31.3 -37.6 31.8 -37.5 32.7 -37.4 32.65 -38.9" fill="#2a2a2a" fill-rule="evenodd" stroke="none"/>
      <path d="M34.6 -39.35 Q34.8 -38.35 35.3 -38.65 L36.45 -39.75 Q38.3 -41.8 39.35 -40.55 39.9 -39.9 40.1 -38.3 40.3 -36.85 40.05 -36.1 39.5 -38.0 38.6 -38.0 37.9 -38.0 36.55 -36.65 35.0 -35.05 34.6 -36.45 34.4 -37.2 34.6 -39.35" fill="#2a2a2a" fill-rule="evenodd" stroke="none"/>
      <path d="M36.9 -20.75 Q37.5 -21.4 38.5 -21.35 39.4 -21.3 40.2 -20.7 42.25 -19.15 40.8 -17.55 39.5 -16.05 37.6 -17.6 35.65 -19.2 36.9 -20.75" fill="#001927" fill-rule="evenodd" stroke="none"/>
      <path d="M51.8 -25.55 Q52.5 -26.35 54.2 -24.95 55.95 -23.55 55.15 -22.65 54.4 -21.8 52.7 -23.25 51.0 -24.7 51.8 -25.55" fill="#001927" fill-rule="evenodd" stroke="none"/>
      <path d="M38.95 -28.2 Q38.2 -28.85 39.15 -29.35 40.15 -29.9 40.55 -29.2 40.9 -28.5 40.3 -28.05 39.7 -27.6 38.95 -28.2" fill="#cabb99" fill-rule="evenodd" stroke="none"/>
      <path d="M44.15 -30.7 Q44.3 -31.65 45.65 -31.25 47.05 -30.8 47.45 -29.5 47.85 -28.2 45.9 -29.0 43.95 -29.8 44.15 -30.7" fill="#cabb99" fill-rule="evenodd" stroke="none"/>
      <path d="M6.4 -20.8 Q8.1 -21.75 9.3 -20.25 10.5 -18.7 9.05 -16.85 8.3 -15.9 7.45 -16.15 6.7 -16.35 6.15 -17.35 5.6 -18.25 5.6 -19.25 5.65 -20.35 6.4 -20.8" fill="#cabb99" fill-rule="evenodd" stroke="none"/>
      <path d="M7.6 -10.65 Q8.4 -11.25 9.2 -9.95 10.0 -8.65 9.4 -7.35 8.8 -6.0 7.85 -8.0 6.85 -10.05 7.6 -10.65" fill="#cabb99" fill-rule="evenodd" stroke="none"/>
      <path d="M18.05 -33.6 Q16.8 -32.7 15.75 -33.8 14.75 -34.9 15.75 -36.5 16.3 -37.25 16.95 -37.1 L18.05 -36.25 18.6 -34.8 Q18.6 -33.95 18.05 -33.6" fill="#776f3d" fill-rule="evenodd" stroke="none"/>
      <path d="M20.75 -41.25 Q20.0 -41.85 20.9 -42.85 21.85 -43.85 23.15 -43.6 24.5 -43.3 23.0 -42.0 21.45 -40.65 20.75 -41.25" fill="#776f3d" fill-rule="evenodd" stroke="none"/>
      <path d="M11.75 -39.35 Q11.75 -33.15 16.2 -28.9 14.5 -27.55 13.25 -23.2 11.85 -18.45 12.1 -13.5 12.4 -7.6 15.15 -3.25 18.4 1.85 24.75 4.05 17.25 4.15 12.1 0.3 5.3 -4.75 4.35 -15.85 3.6 -24.35 7.65 -27.5 L8.9 -31.55 Q9.35 -33.75 8.95 -35.65 7.65 -41.4 9.5 -44.65 11.15 -47.6 15.05 -48.2 11.75 -44.95 11.75 -39.35" fill="#000000" fill-opacity="0.101960786" fill-rule="evenodd" stroke="none"/>
      <path d="M-5.5 11.2 Q-6.35 12.85 -7.05 16.65 -7.7 20.5 -7.75 24.35 -7.85 34.25 -4.25 34.1 -5.9 37.05 -7.6 35.6 -9.65 33.9 -10.6 26.4 -11.1 22.55 -9.6 17.45 -8.0 11.95 -5.5 11.2" fill="#000000" fill-opacity="0.101960786" fill-rule="evenodd" stroke="none"/>
      <path d="M-29.9 17.6 Q-31.9 19.2 -34.35 24.35 -36.8 29.5 -36.5 31.65 -38.95 31.9 -41.5 34.55 -44.15 37.35 -44.3 40.25 -45.0 38.3 -45.45 34.3 -45.75 31.85 -38.05 27.5 L-37.65 28.6 -37.3 29.65 -37.1 28.25 -36.9 26.9 -34.45 21.05 Q-33.25 18.4 -32.2 18.0 L-29.9 17.6" fill="#000000" fill-opacity="0.101960786" fill-rule="evenodd" stroke="none"/>
      <path d="M-39.15 16.45 L-37.65 19.1 Q-41.4 19.65 -46.2 18.55 -50.45 17.6 -52.55 16.2 -49.85 17.1 -45.55 17.1 L-39.15 16.45" fill="#000000" fill-opacity="0.101960786" fill-rule="evenodd" stroke="none"/>
      <path d="M-12.45 -18.8 Q-12.35 -15.95 -11.25 -10.05 -9.75 -2.25 -9.4 0.15 -7.65 12.9 -11.95 18.5 -14.55 21.95 -17.85 24.45 L-23.5 28.2 Q-27.0 30.35 -28.8 31.9 -31.55 34.25 -33.5 37.55 -34.15 32.85 -33.8 29.4 -33.45 25.95 -31.95 23.15 L-33.4 24.35 -33.85 25.05 -33.3 18.0 Q-32.35 10.4 -30.2 7.75 -30.9 7.85 -31.55 8.65 L-32.05 9.45 Q-32.2 5.8 -31.3 1.7 -29.55 -6.55 -24.4 -8.8 -22.55 -9.55 -22.1 -11.45 -21.8 -12.45 -21.7 -16.9 -21.65 -18.8 -20.2 -20.1 -18.95 -21.3 -17.1 -21.6 -15.3 -21.9 -14.0 -21.2 -12.55 -20.4 -12.45 -18.8" fill="#45464b" fill-rule="evenodd" stroke="none"/>
      <path d="M-13.2 -17.75 Q-13.15 -15.35 -12.2 -9.7 L-10.7 0.05 Q-9.25 12.4 -13.0 17.25 -15.3 20.25 -18.25 22.5 L-23.5 25.9 Q-26.8 27.85 -28.4 29.25 -30.9 31.35 -32.6 34.2 -33.45 30.1 -31.4 24.9 -29.4 19.85 -26.05 17.1 -28.15 17.7 -30.55 19.75 L-32.5 21.7 Q-32.3 18.1 -31.3 13.9 -29.25 5.5 -25.1 2.45 -26.7 2.45 -28.85 4.6 L-30.65 6.7 Q-30.7 3.8 -29.75 0.5 -27.85 -6.05 -22.7 -8.05 -21.15 -8.65 -20.85 -10.4 L-20.65 -15.95 Q-20.55 -17.6 -19.45 -18.75 -18.4 -19.8 -16.95 -20.1 -15.45 -20.35 -14.45 -19.8 -13.25 -19.15 -13.2 -17.75" fill="#8f8d9b" fill-rule="evenodd" stroke="none"/>
      <path d="M-26.35 20.05 L-24.1 17.95 -23.15 17.4 Q-24.05 16.8 -25.3 16.8 -23.3 14.45 -21.1 13.5 L-17.65 13.25 Q-16.2 13.7 -15.8 15.0 -15.4 16.45 -16.4 18.05 -17.4 19.7 -19.0 20.85 L-22.2 22.85 Q-27.35 25.9 -31.55 30.95 -29.9 24.05 -26.35 20.05" fill="#d8d9e1" fill-rule="evenodd" stroke="none"/>
      <path d="M-19.05 11.3 L-21.45 11.45 Q-24.2 12.25 -30.9 17.95 -29.55 9.9 -25.9 6.35 -24.75 5.25 -23.5 4.7 L-22.5 4.4 Q-23.85 3.8 -25.1 3.8 -20.6 0.6 -17.75 1.2 -15.4 1.65 -14.6 4.45 -13.9 6.85 -14.5 9.4 -15.15 11.95 -16.35 11.8 L-19.05 11.3" fill="#d8d9e1" fill-rule="evenodd" stroke="none"/>
      <path d="M-15.0 -4.6 Q-14.85 -2.8 -15.3 -1.7 -15.8 -0.45 -16.75 -0.8 L-22.15 -0.55 Q-27.0 0.6 -29.4 3.8 -29.35 -0.7 -26.05 -4.25 -22.7 -7.95 -17.7 -8.75 -16.55 -8.9 -15.8 -7.6 -15.15 -6.4 -15.0 -4.6" fill="#d8d9e1" fill-rule="evenodd" stroke="none"/>
      <path d="M-16.95 -20.1 L-14.45 -19.85 Q-13.25 -19.2 -13.2 -17.8 L-13.2 -17.75 Q-15.2 -18.8 -17.6 -16.5 -19.75 -14.4 -20.75 -11.4 L-20.65 -15.95 Q-20.55 -17.6 -19.45 -18.8 -18.4 -19.85 -16.95 -20.1" fill="#636471" fill-rule="evenodd" stroke="none"/>
    </g>
  </defs>
</svg>
