<?xml version="1.0" encoding="UTF-8" standalone="no"?>
<svg xmlns:ffdec="https://www.free-decompiler.com/flash" xmlns:xlink="http://www.w3.org/1999/xlink" ffdec:objectType="frame" height="97.4px" width="127.0px" xmlns="http://www.w3.org/2000/svg">
  <g transform="matrix(1.0, 0.0, 0.0, 1.0, 68.85, 49.85)">
    <use ffdec:characterId="90" height="95.9" transform="matrix(1.0, 0.0, 0.0, 1.0, -54.8, -48.7)" width="112.7" xlink:href="#shape0"/>
  </g>
  <defs>
    <g id="shape0" transform="matrix(1.0, 0.0, 0.0, 1.0, 54.8, 48.7)">
      <path d="M-7.25 -19.95 Q-5.65 -18.95 -1.85 -17.5 L4.65 -14.85 Q12.45 -11.25 12.8 -6.1 13.1 -1.45 10.85 5.85 8.85 12.4 9.7 16.45 6.75 15.1 5.15 13.5 3.55 11.95 3.0 9.8 2.55 11.05 2.85 11.9 L-0.5 8.85 Q-3.95 5.2 -4.05 2.7 -4.4 3.25 -4.4 4.0 L-4.3 4.65 Q-6.3 3.35 -7.95 1.15 -11.2 -3.25 -9.2 -7.75 -8.5 -9.35 -9.2 -10.35 -9.6 -10.95 -11.85 -12.75 -12.85 -13.5 -12.65 -15.0 -12.5 -16.35 -11.55 -17.75 -10.6 -19.15 -9.4 -19.8 L-7.25 -19.95" fill="#45464b" fill-rule="evenodd" stroke="none"/>
      <path d="M-7.15 -19.05 Q-5.8 -18.2 -2.25 -16.7 L3.8 -14.0 Q11.2 -10.3 11.45 -5.8 11.75 -1.8 9.65 4.95 7.7 11.0 8.45 14.55 5.75 13.55 4.25 10.1 2.8 6.75 3.4 3.35 2.45 5.1 2.05 7.55 L1.9 9.65 Q0.1 8.15 -1.45 5.8 -4.65 1.15 -3.75 -2.9 -4.7 -1.8 -4.9 0.55 L-4.9 2.6 Q-6.45 1.55 -7.6 -0.4 -9.85 -4.25 -7.8 -8.65 -7.15 -9.95 -7.9 -10.85 L-10.7 -13.1 Q-12.45 -14.5 -10.65 -17.3 -9.9 -18.45 -8.95 -18.95 L-7.15 -19.05" fill="#8f8d9b" fill-rule="evenodd" stroke="none"/>
      <path d="M6.5 -4.05 Q7.6 -4.9 8.55 -4.65 9.6 -4.4 9.8 -3.1 10.15 -1.35 8.8 2.85 7.25 7.6 7.35 12.55 4.7 8.75 4.75 4.7 L5.05 2.3 5.35 1.45 Q4.5 1.8 3.75 2.7 3.65 -1.95 6.5 -4.05" fill="#d8d9e1" fill-rule="evenodd" stroke="none"/>
      <path d="M-1.55 -3.2 L-1.1 -4.0 -3.05 -2.4 Q-1.95 -6.85 0.1 -8.65 1.75 -10.05 3.75 -9.55 5.45 -9.15 6.4 -7.75 7.35 -6.3 6.55 -5.5 L4.65 -3.8 Q3.75 -3.0 3.25 -2.05 2.0 0.2 0.9 7.1 -2.5 3.1 -2.15 -0.85 -2.05 -2.1 -1.55 -3.2" fill="#d8d9e1" fill-rule="evenodd" stroke="none"/>
      <path d="M-0.35 -10.05 Q-1.7 -9.15 -3.5 -6.15 -5.9 -2.3 -5.65 0.65 -7.95 -1.15 -7.85 -4.8 -7.75 -8.6 -5.15 -12.45 -4.5 -13.3 -3.35 -13.3 -2.3 -13.3 -1.3 -12.75 -0.25 -12.15 0.05 -11.4 0.4 -10.6 -0.35 -10.05" fill="#d8d9e1" fill-rule="evenodd" stroke="none"/>
      <path d="M-10.7 -13.15 Q-12.45 -14.55 -10.65 -17.35 -9.9 -18.45 -8.95 -19.0 L-7.15 -19.05 -7.1 -19.05 Q-8.9 -18.05 -9.15 -15.5 -9.4 -13.15 -8.4 -11.3 L-10.7 -13.15" fill="#636471" fill-rule="evenodd" stroke="none"/>
      <path d="M19.25 10.55 Q21.9 13.3 23.8 18.45 28.05 20.9 31.2 24.8 34.95 29.35 28.95 28.4 30.4 31.95 28.15 32.2 26.0 32.4 22.25 29.5 22.15 31.0 21.25 31.75 20.35 32.5 19.15 31.95 16.0 30.65 13.8 22.95 11.95 16.45 12.4 12.45 12.8 8.9 14.85 8.4 16.8 7.95 19.25 10.55" fill="#301b04" fill-rule="evenodd" stroke="none"/>
      <path d="M18.75 10.65 Q20.95 13.3 22.85 18.05 20.7 18.2 19.35 19.5 L21.8 18.95 23.5 19.0 Q27.35 21.35 30.0 24.35 33.1 27.95 28.9 27.45 L28.05 26.3 27.6 25.8 Q29.35 30.15 27.6 30.7 26.05 31.2 22.55 28.7 22.35 27.25 21.95 26.85 22.05 29.85 21.05 30.5 20.2 31.0 18.75 29.7 17.4 28.5 16.15 26.35 14.9 24.15 14.45 22.2 12.95 15.95 13.25 12.25 13.5 8.95 15.1 8.6 16.65 8.2 18.75 10.65" fill="#a2a349" fill-rule="evenodd" stroke="none"/>
      <path d="M16.7 21.3 Q17.25 20.0 18.35 21.15 19.5 22.25 18.75 23.05 17.95 23.8 17.1 23.2 16.2 22.55 16.7 21.3" fill="#776f3d" fill-rule="evenodd" stroke="none"/>
      <path d="M23.15 20.8 Q23.8 20.45 24.25 21.0 24.7 21.55 24.15 22.25 23.6 22.95 23.05 22.05 22.5 21.2 23.15 20.8" fill="#776f3d" fill-rule="evenodd" stroke="none"/>
      <path d="M16.9 21.15 Q19.35 29.4 21.9 28.5 21.65 30.55 20.6 30.6 19.7 30.7 18.35 29.3 15.4 26.3 14.45 22.2 13.1 16.45 13.2 12.85 13.35 9.6 14.65 8.8 14.8 14.0 16.9 21.15" fill="#000000" fill-opacity="0.101960786" fill-rule="evenodd" stroke="none"/>
      <path d="M17.25 -6.5 Q18.55 -3.6 19.35 -0.5 20.75 4.85 20.2 9.15 19.65 13.05 16.65 17.75 13.2 23.15 8.05 26.95 -5.55 36.95 -23.2 31.0 -28.0 29.4 -31.65 26.8 -34.9 24.6 -36.6 22.05 -42.2 22.85 -48.2 20.8 -53.2 19.1 -54.6 17.3 -55.25 16.45 -53.95 16.1 L-50.2 15.7 Q-43.0 15.2 -39.95 13.45 L-40.7 9.5 -41.1 7.0 Q-41.1 2.1 -38.8 -3.95 -34.1 -16.15 -22.35 -22.0 -16.25 -25.05 -9.45 -25.25 -3.0 -25.45 2.8 -23.1 8.55 -20.8 12.35 -16.55 16.3 -12.1 17.25 -6.5" fill="#301b04" fill-rule="evenodd" stroke="none"/>
      <path d="M-40.2 14.9 L-39.25 17.15 -37.5 20.6 Q-41.45 21.15 -46.5 19.9 -51.1 18.8 -52.8 17.35 -53.6 16.65 -52.8 16.5 L-49.95 16.5 Q-43.9 16.55 -40.2 14.9" fill="#a2a349" fill-rule="evenodd" stroke="none"/>
      <path d="M-39.35 10.05 Q-39.45 9.05 -30.05 6.65 -20.0 4.05 -9.45 2.65 3.35 1.0 10.75 2.1 19.75 3.5 19.1 8.95 18.65 12.4 15.85 16.75 12.65 21.7 7.85 25.3 -4.95 34.8 -21.75 29.8 -31.15 27.05 -35.85 19.9 -39.0 15.15 -39.35 10.05" fill="#e2cfbb" fill-rule="evenodd" stroke="none"/>
      <path d="M19.85 -3.7 Q21.35 -2.15 22.55 -0.05 24.15 2.7 24.3 5.0 24.8 11.5 14.2 12.5 3.1 13.5 -1.35 8.85 -4.75 5.35 -3.7 0.1 -3.35 -1.8 -0.15 -3.35 2.75 -4.7 7.0 -5.35 L14.65 -5.6 Q18.45 -5.15 19.85 -3.7" fill="#301b04" fill-rule="evenodd" stroke="none"/>
      <path d="M19.5 -4.8 Q20.9 -3.25 22.05 -1.1 23.55 1.75 23.75 4.15 24.2 10.85 14.2 11.65 3.8 12.55 -0.45 7.75 -3.6 4.2 -2.6 -1.0 -2.25 -2.95 0.75 -4.45 3.45 -5.85 7.45 -6.45 L14.65 -6.7 Q18.2 -6.3 19.5 -4.8" fill="#f2e9df" fill-rule="evenodd" stroke="none"/>
      <path d="M0.1 -4.4 Q-1.55 1.15 1.35 5.1 5.05 10.2 15.15 9.35 21.5 8.85 23.65 5.85 22.7 10.9 14.2 11.6 3.8 12.5 -0.45 7.7 -3.6 4.15 -2.6 -1.05 L-1.35 -2.75 0.1 -4.4" fill="#d6c9bc" fill-rule="evenodd" stroke="none"/>
      <path d="M16.05 -2.35 L17.95 0.55 Q18.9 2.2 18.85 3.2 18.65 5.9 11.25 5.5 6.15 5.3 4.25 2.1 3.55 0.9 3.6 -0.35 3.7 -1.5 4.5 -2.05 5.8 -2.9 11.05 -2.7 L16.05 -2.35" fill="#001927" fill-rule="evenodd" stroke="none"/>
      <path d="M-8.85 -23.9 Q-3.15 -24.0 2.1 -21.65 7.1 -19.45 10.75 -15.45 14.35 -11.55 15.85 -6.75 12.0 -7.3 4.6 -3.5 L-9.65 4.35 Q-18.65 9.15 -24.95 10.25 -33.35 11.8 -39.6 7.7 -37.0 -12.35 -21.05 -20.65 -15.1 -23.75 -8.85 -23.9" fill="#000000" fill-rule="evenodd" stroke="none"/>
      <path d="M-1.7 -11.05 L-6.65 -16.7 -3.5 -23.1 Q-0.25 -22.5 4.35 -20.35 L8.25 -18.3 7.05 -10.7 -1.7 -11.05" fill="#6f4411" fill-rule="evenodd" stroke="none"/>
      <path d="M-10.65 -23.4 L-4.95 -23.25 -7.9 -17.0 -17.55 -16.2 -22.1 -19.6 Q-17.25 -22.85 -10.65 -23.4" fill="#6f4411" fill-rule="evenodd" stroke="none"/>
      <path d="M-34.2 -7.8 Q-31.75 -12.25 -27.3 -15.9 L-23.4 -18.7 -18.95 -15.8 -22.0 -7.7 -31.3 -6.55 -34.2 -7.8" fill="#6f4411" fill-rule="evenodd" stroke="none"/>
      <path d="M-31.9 -5.25 L-32.05 2.35 -35.95 8.0 -39.0 6.15 -38.1 1.4 Q-36.8 -3.9 -34.85 -6.55 L-31.9 -5.25" fill="#6f4411" fill-rule="evenodd" stroke="none"/>
      <path d="M-8.25 -15.75 L-2.6 -9.95 -4.35 -1.1 -16.0 -1.8 -20.7 -7.15 -17.9 -15.1 -8.25 -15.75" fill="#6f4411" fill-rule="evenodd" stroke="none"/>
      <path d="M-2.6 -3.4 L-1.3 -9.8 6.3 -9.5 -2.6 -3.4" fill="#552306" fill-rule="evenodd" stroke="none"/>
      <path d="M-30.65 -5.45 L-21.65 -6.4 -16.95 -0.95 -17.3 5.65 -25.8 8.4 -30.9 2.65 -30.65 -5.45" fill="#6f4411" fill-rule="evenodd" stroke="none"/>
      <path d="M-15.9 -0.7 L-9.55 -0.2 -16.2 4.95 -15.9 -0.7" fill="#552306" fill-rule="evenodd" stroke="none"/>
      <path d="M-27.35 8.6 Q-29.7 9.95 -32.75 9.7 L-35.35 9.25 -31.5 3.8 -27.35 8.6" fill="#552306" fill-rule="evenodd" stroke="none"/>
      <path d="M-17.55 -8.25 Q-15.9 -5.1 -13.15 -3.35 -10.85 -1.85 -7.15 -1.15 L-15.9 -1.85 -20.6 -7.2 -17.8 -15.15 -18.1 -12.5 Q-18.25 -9.6 -17.55 -8.25" fill="#552306" fill-rule="evenodd" stroke="none"/>
      <path d="M-30.4 -2.7 Q-29.95 0.2 -29.0 1.4 -27.65 3.05 -24.85 4.3 -21.55 5.75 -17.65 5.9 L-25.85 8.35 -30.85 2.7 -30.7 -5.35 -30.4 -2.7" fill="#552306" fill-rule="evenodd" stroke="none"/>
      <path d="M-17.2 -18.25 Q-14.55 -16.95 -9.2 -16.9 L-17.5 -16.2 -22.05 -19.6 -19.0 -21.3 Q-19.65 -19.45 -17.2 -18.25" fill="#552306" fill-rule="evenodd" stroke="none"/>
      <path d="M-6.65 -16.7 L-3.8 -22.5 -4.25 -19.65 Q-4.55 -17.75 -4.25 -17.15 -2.9 -14.45 -1.05 -13.2 0.8 -11.9 4.95 -10.75 L-1.7 -11.0 -6.65 -16.7" fill="#552306" fill-rule="evenodd" stroke="none"/>
      <path d="M-31.1 -12.25 Q-31.85 -9.5 -29.1 -8.45 -27.25 -7.8 -22.4 -7.65 L-31.3 -6.55 -34.2 -7.8 Q-32.9 -10.1 -31.1 -12.25" fill="#552306" fill-rule="evenodd" stroke="none"/>
      <path d="M-38.9 5.95 L-38.4 3.0 Q-37.7 -0.45 -36.7 -3.1 -37.15 0.3 -36.05 2.1 -34.8 4.2 -32.15 2.45 L-35.85 7.8 -38.9 5.95" fill="#552306" fill-rule="evenodd" stroke="none"/>
      <path d="M-4.15 -6.1 Q-3.8 -9.0 -5.8 -11.15 L-8.9 -13.45 Q-9.85 -14.15 -13.5 -14.3 L-16.9 -14.3 -12.95 -14.75 -8.15 -14.45 Q-4.75 -11.35 -4.25 -10.35 -3.45 -8.95 -4.15 -6.1" fill="#c1b49c" fill-rule="evenodd" stroke="none"/>
      <path d="M-19.7 -2.2 L-22.5 -4.45 -26.35 -4.85 -29.45 -4.6 -25.75 -5.3 -21.65 -5.1 -18.35 -1.5 Q-17.55 -0.15 -17.9 2.65 -17.9 -0.15 -19.7 -2.2" fill="#c1b49c" fill-rule="evenodd" stroke="none"/>
      <path d="M1.9 -19.7 L-3.1 -22.35 Q2.05 -20.5 3.95 -19.35 6.4 -17.9 5.6 -16.55 5.25 -17.85 1.9 -19.7" fill="#c1b49c" fill-rule="evenodd" stroke="none"/>
      <path d="M-8.0 -18.85 L-7.5 -20.15 Q-7.1 -21.5 -7.5 -21.85 L-11.5 -22.0 -17.6 -21.3 Q-16.55 -21.95 -12.0 -22.5 L-6.85 -22.7 Q-5.5 -22.2 -8.0 -18.85" fill="#c1b49c" fill-rule="evenodd" stroke="none"/>
      <path d="M-20.05 -15.3 L-22.25 -16.35 -23.9 -16.55 -26.85 -14.75 -30.65 -11.85 Q-30.65 -12.3 -27.65 -14.75 L-23.95 -17.45 Q-22.65 -17.9 -20.05 -15.3" fill="#c1b49c" fill-rule="evenodd" stroke="none"/>
      <path d="M17.4 13.95 Q15.85 16.5 11.0 17.45 6.35 18.35 1.0 17.4 -4.7 16.45 -8.45 13.8 -12.7 10.8 -13.15 6.45 -7.6 14.55 3.15 16.2 7.5 16.85 11.5 16.2 15.3 15.55 17.4 13.95" fill="#c4b19f" fill-rule="evenodd" stroke="none"/>
      <path d="M-21.7 9.8 Q-19.9 14.4 -14.95 17.55 -10.6 20.3 -4.6 21.45 L6.0 22.0 Q11.05 21.45 13.55 19.6 11.25 22.5 5.35 23.45 L-6.5 23.05 Q-13.1 21.65 -17.15 18.45 -21.8 14.85 -21.7 9.8" fill="#c4b19f" fill-rule="evenodd" stroke="none"/>
      <path d="M-24.0 21.65 Q-19.35 24.95 -12.9 26.55 -7.1 28.0 -1.45 27.7 4.05 27.45 7.05 25.7 4.0 28.35 -2.5 28.8 -8.8 29.25 -15.4 27.5 -22.45 25.6 -26.75 22.0 -31.6 17.85 -31.55 12.5 -29.35 17.9 -24.0 21.65" fill="#c4b19f" fill-rule="evenodd" stroke="none"/>
      <path d="M0.85 14.7 Q1.65 16.35 -0.25 17.55 -1.95 18.6 -4.85 18.95 L-9.55 18.6 Q-11.65 17.9 -11.05 16.4 -9.2 11.55 -5.1 11.15 -1.1 10.75 0.85 14.7" fill="#001927" fill-rule="evenodd" stroke="none"/>
      <path d="M-33.7 22.0 Q-35.3 20.7 -34.75 19.6 -34.45 19.0 -32.95 18.5 L-29.75 18.05 Q-25.3 18.2 -24.6 22.05 -24.25 23.85 -26.0 24.3 L-29.85 23.9 Q-32.2 23.2 -33.7 22.0" fill="#001927" fill-rule="evenodd" stroke="none"/>
      <path d="M-1.15 14.8 Q1.0 18.15 2.15 25.25 6.3 29.85 8.1 33.7 10.25 38.35 5.05 35.45 4.75 40.7 3.6 41.35 1.85 42.25 -3.9 37.05 -5.55 40.0 -7.55 39.1 -10.35 37.85 -11.45 28.1 -11.95 23.75 -10.2 18.6 -8.25 13.0 -5.35 12.4 -3.05 11.9 -1.15 14.8" fill="#301b04" fill-rule="evenodd" stroke="none"/>
      <path d="M-1.45 15.2 Q0.45 18.5 1.25 24.6 L-1.1 24.65 Q-3.2 24.95 -4.25 25.75 L-0.9 25.35 Q1.1 25.35 1.65 25.9 4.05 28.1 6.2 31.8 8.6 36.0 5.3 34.65 5.05 33.4 4.45 32.65 4.5 38.3 3.25 39.25 1.65 40.5 -3.3 36.1 L-3.2 35.4 Q-3.0 34.55 -3.25 33.6 -4.75 38.2 -6.85 37.45 -9.3 36.55 -10.4 27.9 -10.95 23.95 -9.4 18.8 -7.7 13.15 -5.15 12.65 -3.15 12.25 -1.45 15.2" fill="#a2a349" fill-rule="evenodd" stroke="none"/>
      <path d="M-25.85 21.95 Q-24.8 26.7 -26.45 32.85 -28.55 40.8 -34.35 43.2 -34.55 47.0 -36.3 47.2 -38.0 47.4 -39.55 44.55 -41.4 46.6 -43.15 45.7 -45.7 44.3 -46.4 35.85 -46.55 33.65 -43.1 31.1 L-37.45 27.7 Q-35.8 23.95 -34.75 22.25 -33.5 20.15 -32.3 19.65 L-29.05 19.25 Q-26.4 19.55 -25.85 21.95" fill="#301b04" fill-rule="evenodd" stroke="none"/>
      <path d="M-26.3 21.65 Q-25.35 26.0 -27.2 32.2 -29.5 39.9 -35.0 42.4 -35.15 45.7 -36.2 45.9 -37.1 46.05 -38.75 43.85 -38.1 42.25 -37.8 40.8 -40.8 44.45 -42.25 44.1 -44.4 43.6 -45.3 35.8 -45.55 33.35 -37.85 29.0 L-37.5 30.1 -37.15 31.15 Q-37.0 31.1 -36.95 29.75 L-36.75 28.4 -34.3 22.55 Q-33.1 19.9 -32.0 19.5 -30.7 18.95 -29.1 19.15 -26.75 19.45 -26.3 21.65" fill="#a2a349" fill-rule="evenodd" stroke="none"/>
      <path d="M-2.65 -7.4 Q1.85 -10.25 4.7 -11.1 11.35 -13.1 16.4 -10.9 18.65 -9.9 19.65 -8.3 20.7 -6.6 20.1 -4.6 19.6 -3.05 18.6 -2.55 17.8 -2.15 16.0 -2.15 L12.15 -2.1 6.85 -1.05 Q4.4 -0.2 -0.5 3.1 L-9.8 9.45 Q-22.65 17.75 -31.15 17.15 -40.35 16.5 -43.95 12.45 -45.45 10.7 -45.6 8.7 -45.75 6.8 -44.65 5.1 -43.9 3.95 -41.95 2.5 -40.0 1.1 -39.2 1.1 L-39.45 3.6 Q-38.45 4.6 -36.0 5.6 -33.0 6.75 -30.5 6.5 -22.85 5.7 -11.2 -1.8 L-2.65 -7.4" fill="#301b04" fill-rule="evenodd" stroke="none"/>
      <path d="M19.95 -3.7 Q19.45 -2.2 18.3 -1.85 17.5 -1.6 15.55 -1.85 9.9 -2.65 6.1 -1.35 3.65 -0.55 -1.05 2.55 -6.75 6.45 -9.95 8.45 -22.15 16.1 -30.65 15.55 -39.65 14.9 -43.05 11.6 -45.8 8.95 -44.05 6.05 -43.35 4.85 -42.05 3.65 -40.7 2.45 -39.95 2.45 L-40.2 4.3 Q-39.25 5.35 -36.45 6.4 -33.15 7.65 -30.65 7.4 -23.0 6.6 -11.4 -0.95 L-2.85 -6.5 Q1.7 -9.35 4.55 -10.25 11.15 -12.25 16.2 -10.0 18.5 -9.05 19.5 -7.4 20.55 -5.7 19.95 -3.7" fill="#f2e9df" fill-rule="evenodd" stroke="none"/>
      <path d="M6.1 -1.4 Q3.65 -0.55 -1.05 2.5 -6.75 6.45 -9.95 8.4 -22.15 16.05 -30.65 15.5 -38.65 14.95 -42.25 12.25 -45.2 10.05 -44.55 7.25 -43.2 10.05 -38.55 11.8 -34.0 13.5 -29.65 13.0 -22.0 12.15 -10.4 4.65 L-1.85 -0.95 Q2.7 -3.75 5.55 -4.65 9.8 -5.9 13.8 -5.35 17.5 -4.8 19.55 -2.9 19.0 -1.9 17.8 -1.8 L15.0 -2.0 Q9.95 -2.65 6.1 -1.4" fill="#d6c9bc" fill-rule="evenodd" stroke="none"/>
      <path d="M-6.35 24.5 Q-7.1 25.25 -8.0 24.65 -8.9 24.0 -8.35 22.75 -7.85 21.5 -6.7 22.55 -5.55 23.7 -6.35 24.5" fill="#776f3d" fill-rule="evenodd" stroke="none"/>
      <path d="M-1.45 34.2 L-0.15 34.25 Q0.75 34.95 0.7 36.05 L-0.6 36.0 Q-1.85 34.85 -1.45 34.2" fill="#776f3d" fill-rule="evenodd" stroke="none"/>
      <path d="M-33.75 27.7 Q-32.75 28.15 -33.05 29.25 -33.35 30.3 -34.7 30.2 -36.1 30.15 -35.45 28.75 -34.75 27.25 -33.75 27.7" fill="#776f3d" fill-rule="evenodd" stroke="none"/>
      <path d="M-42.7 17.15 Q-42.4 17.7 -43.15 17.95 -43.9 18.25 -44.65 17.7 -45.35 17.1 -44.2 16.85 -43.0 16.6 -42.7 17.15" fill="#776f3d" fill-rule="evenodd" stroke="none"/>
      <path d="M-29.15 22.2 Q-28.25 22.55 -28.45 23.45 -28.65 24.35 -29.8 24.4 -31.0 24.4 -30.5 23.15 -30.0 21.9 -29.15 22.2" fill="#776f3d" fill-rule="evenodd" stroke="none"/>
      <path d="M-41.35 32.6 Q-40.7 32.95 -41.3 33.9 -41.95 34.8 -43.05 34.8 -44.15 34.85 -43.05 33.55 -42.0 32.2 -41.35 32.6" fill="#776f3d" fill-rule="evenodd" stroke="none"/>
      <path d="M-29.4 35.3 Q-29.6 36.1 -30.75 36.35 L-33.1 36.2 Q-36.35 35.3 -36.3 33.15 -35.7 34.5 -33.35 35.35 -30.85 36.3 -29.4 35.3" fill="#301b04" fill-rule="evenodd" stroke="none"/>
      <path d="M-34.95 32.9 Q-34.05 31.95 -31.55 32.65 -29.05 33.4 -29.35 34.8 -29.85 33.65 -31.6 33.15 L-34.95 32.9" fill="#301b04" fill-rule="evenodd" stroke="none"/>
      <path d="M-5.3 12.7 Q-6.2 14.35 -6.85 18.15 -7.55 22.0 -7.55 25.85 -7.65 35.75 -4.05 35.6 -5.7 38.55 -7.45 37.1 -9.45 35.4 -10.4 27.9 -10.9 24.05 -9.45 18.95 -7.8 13.45 -5.3 12.7" fill="#000000" fill-opacity="0.101960786" fill-rule="evenodd" stroke="none"/>
      <path d="M-29.75 19.1 Q-31.75 20.7 -34.15 25.85 -36.6 31.0 -36.3 33.15 -38.8 33.4 -41.35 36.05 -43.95 38.85 -44.1 41.75 -44.85 39.7 -45.3 35.8 -45.55 33.35 -37.85 29.0 L-37.5 30.1 -37.15 31.15 Q-37.0 31.1 -36.95 29.75 L-36.75 28.4 -34.3 22.55 Q-33.1 19.9 -32.0 19.5 L-29.75 19.1" fill="#000000" fill-opacity="0.101960786" fill-rule="evenodd" stroke="none"/>
      <path d="M-38.95 17.95 L-37.5 20.6 -46.0 20.05 Q-50.3 19.1 -52.35 17.7 -49.65 18.6 -45.35 18.6 L-38.95 17.95" fill="#000000" fill-opacity="0.101960786" fill-rule="evenodd" stroke="none"/>
      <path d="M10.5 -47.4 Q15.25 -50.0 23.2 -47.35 31.5 -48.15 36.8 -43.35 41.65 -38.95 41.25 -32.95 48.05 -32.65 53.1 -27.2 59.15 -23.75 56.65 -20.6 58.3 -16.65 57.75 -12.5 57.25 -8.55 54.95 -5.4 52.65 -2.2 49.15 -0.55 45.45 1.15 41.2 0.7 40.45 3.2 38.0 4.3 35.7 5.35 32.75 4.8 31.3 6.15 26.9 6.75 21.8 7.5 17.05 6.25 3.6 2.75 2.4 -14.0 2.05 -18.6 3.05 -21.9 4.05 -25.35 6.25 -26.75 6.85 -28.35 7.15 -30.5 7.55 -33.25 7.1 -35.25 5.05 -44.35 10.5 -47.4" fill="#301b04" fill-rule="evenodd" stroke="none"/>
      <path d="M7.95 -27.75 Q9.3 -31.95 8.75 -34.5 6.95 -42.6 11.25 -45.65 14.95 -48.3 21.85 -46.5 20.95 -46.15 19.05 -45.0 L16.5 -43.15 Q22.65 -46.55 28.05 -45.95 32.65 -45.45 35.9 -42.15 38.85 -39.2 39.8 -35.1 40.75 -31.1 39.35 -28.25 35.7 -20.7 29.7 -17.25 24.8 -14.45 18.85 -14.6 14.05 -14.8 9.95 -16.7 6.3 -18.45 6.3 -19.85 6.3 -22.8 7.95 -27.75" fill="#a2a349" fill-rule="evenodd" stroke="none"/>
      <path d="M20.45 -25.0 L18.7 -22.4 Q17.55 -20.45 17.3 -19.05 20.0 -23.1 24.1 -26.25 28.4 -29.6 33.1 -31.1 44.3 -34.6 52.15 -26.15 54.4 -24.95 55.2 -24.1 56.6 -22.45 55.45 -20.35 56.7 -16.6 56.05 -12.8 55.45 -9.1 53.25 -6.2 51.1 -3.25 47.9 -1.75 44.5 -0.15 40.65 -0.55 39.95 2.5 36.8 3.5 33.0 4.65 28.55 1.05 28.6 1.55 29.55 2.65 30.6 3.75 31.4 4.1 28.75 5.05 25.05 5.2 20.35 5.35 16.4 3.9 5.4 -0.15 4.15 -14.7 3.15 -25.95 10.25 -27.65 L16.05 -27.35 Q18.85 -26.55 20.45 -25.0" fill="#eddbb1" fill-rule="evenodd" stroke="none"/>
      <path d="M32.3 -30.95 Q29.2 -29.9 25.9 -27.9 25.75 -31.65 26.85 -33.8 27.8 -35.65 29.3 -35.85 30.7 -36.05 31.6 -34.7 32.65 -33.25 32.3 -30.95" fill="#000000" fill-rule="evenodd" stroke="none"/>
      <path d="M22.0 -6.9 Q21.5 -5.45 21.05 -6.9 20.6 -8.3 21.1 -9.35 21.7 -10.55 23.6 -11.75 25.25 -12.75 27.0 -13.25 L28.9 -13.3 Q29.05 -12.75 26.85 -11.2 28.25 -5.65 33.0 -2.85 36.4 -0.8 40.8 -0.5 L40.35 0.65 Q34.2 0.9 29.85 -3.65 26.35 -7.3 26.1 -10.75 26.05 -11.6 24.35 -10.05 22.55 -8.5 22.0 -6.9" fill="#301b04" fill-rule="evenodd" stroke="none"/>
      <path d="M18.7 -4.1 Q17.9 -4.95 17.6 -6.15 17.35 -7.4 17.7 -8.4 17.85 -6.0 19.45 -4.95 20.8 -4.05 23.0 -4.2 20.6 -2.0 18.7 -4.1" fill="#301b04" fill-rule="evenodd" stroke="none"/>
      <path d="M35.85 -20.2 Q36.9 -21.9 38.5 -22.3 39.95 -22.65 41.25 -21.85 42.5 -21.1 42.85 -19.8 43.25 -18.35 42.2 -16.9 42.85 -19.55 40.15 -20.8 37.45 -22.0 35.85 -20.2" fill="#000000" fill-opacity="0.101960786" fill-rule="evenodd" stroke="none"/>
      <path d="M29.3 -35.15 Q30.05 -35.45 30.9 -34.5 31.7 -33.55 31.05 -33.1 30.45 -32.65 29.45 -33.75 28.5 -34.8 29.3 -35.15" fill="#ffffff" fill-rule="evenodd" stroke="none"/>
      <path d="M34.75 -31.55 Q34.5 -33.35 35.15 -34.75 35.7 -36.05 36.7 -36.35 37.75 -36.7 38.5 -35.75 39.35 -34.6 39.4 -32.15 L34.75 -31.55" fill="#000000" fill-rule="evenodd" stroke="none"/>
      <path d="M38.4 -34.75 L37.45 -34.8 Q36.7 -35.4 37.0 -35.85 L37.9 -35.8 Q38.6 -35.25 38.4 -34.75" fill="#ffffff" fill-rule="evenodd" stroke="none"/>
      <path d="M31.75 -36.35 Q32.65 -36.2 32.6 -37.7 33.3 -35.85 33.2 -35.0 33.05 -33.3 30.35 -34.6 26.75 -36.4 25.85 -35.85 25.4 -35.55 24.45 -32.3 23.1 -36.5 24.65 -38.45 25.45 -39.45 26.9 -39.0 L29.6 -37.55 Q31.2 -36.45 31.75 -36.35" fill="#2a2a2a" fill-rule="evenodd" stroke="none"/>
      <path d="M35.25 -37.45 L36.35 -38.55 Q38.25 -40.6 39.25 -39.35 39.8 -38.7 40.0 -37.15 40.25 -35.65 39.95 -34.95 39.45 -36.8 38.55 -36.85 37.8 -36.85 36.45 -35.45 34.9 -33.9 34.55 -35.25 34.35 -35.95 34.5 -38.2 34.7 -37.2 35.25 -37.45" fill="#2a2a2a" fill-rule="evenodd" stroke="none"/>
      <path d="M36.85 -19.55 Q38.1 -21.05 40.15 -19.5 42.2 -18.0 40.75 -16.35 39.4 -14.75 37.45 -16.4 35.55 -18.05 36.85 -19.55" fill="#001927" fill-rule="evenodd" stroke="none"/>
      <path d="M54.15 -23.8 Q55.85 -22.4 55.1 -21.5 54.35 -20.6 52.65 -22.05 50.95 -23.55 51.7 -24.4 52.4 -25.2 54.15 -23.8" fill="#001927" fill-rule="evenodd" stroke="none"/>
      <path d="M40.45 -28.05 Q40.8 -27.35 40.2 -26.9 39.6 -26.4 38.85 -27.05 38.1 -27.65 39.1 -28.2 40.1 -28.7 40.45 -28.05" fill="#cabb99" fill-rule="evenodd" stroke="none"/>
      <path d="M44.05 -29.55 Q44.25 -30.45 45.6 -30.05 46.95 -29.65 47.35 -28.35 47.75 -27.05 45.85 -27.8 43.85 -28.65 44.05 -29.55" fill="#cabb99" fill-rule="evenodd" stroke="none"/>
      <path d="M6.35 -19.6 Q8.0 -20.55 9.25 -19.1 10.45 -17.55 8.95 -15.65 8.25 -14.7 7.35 -15.0 6.6 -15.2 6.05 -16.15 5.5 -17.1 5.55 -18.1 5.55 -19.15 6.35 -19.6" fill="#cabb99" fill-rule="evenodd" stroke="none"/>
      <path d="M7.55 -9.5 Q8.35 -10.05 9.15 -8.8 9.95 -7.5 9.35 -6.15 8.75 -4.8 7.75 -6.85 6.75 -8.9 7.55 -9.5" fill="#cabb99" fill-rule="evenodd" stroke="none"/>
      <path d="M18.0 -32.4 Q16.7 -31.55 15.7 -32.6 14.65 -33.75 15.7 -35.3 16.75 -36.9 18.0 -35.1 L18.5 -33.65 Q18.55 -32.8 18.0 -32.4" fill="#776f3d" fill-rule="evenodd" stroke="none"/>
      <path d="M20.65 -40.1 Q19.95 -40.7 20.85 -41.7 21.75 -42.7 23.1 -42.4 24.45 -42.15 22.95 -40.8 21.4 -39.5 20.65 -40.1" fill="#776f3d" fill-rule="evenodd" stroke="none"/>
      <path d="M16.1 -27.7 Q14.45 -26.35 13.15 -22.05 11.75 -17.3 12.05 -12.35 12.35 -6.4 15.1 -2.1 18.35 3.0 24.65 5.2 17.15 5.35 12.0 1.5 5.2 -3.55 4.25 -14.7 3.55 -23.15 7.6 -26.35 L8.8 -30.4 Q9.3 -32.6 8.9 -34.5 7.6 -40.25 9.45 -43.55 11.1 -46.45 15.0 -47.0 11.7 -43.8 11.65 -38.2 11.65 -32.0 16.1 -27.7" fill="#000000" fill-opacity="0.101960786" fill-rule="evenodd" stroke="none"/>
      <path d="M-10.95 -19.4 Q-10.3 -17.45 -7.65 -14.95 L-2.9 -10.6 Q-0.3 -8.0 0.35 -5.75 1.25 -2.85 -0.6 0.35 -4.05 6.15 -10.8 10.6 -17.05 14.65 -23.6 16.05 -25.25 14.35 -25.2 11.9 -25.1 9.6 -23.5 7.45 L-25.05 8.4 -25.6 8.85 Q-26.05 7.6 -26.15 5.95 -26.35 2.6 -24.6 0.45 -25.3 0.65 -26.0 1.35 L-26.55 2.0 Q-26.95 0.3 -26.6 -2.2 -25.9 -7.1 -21.95 -10.75 -20.35 -12.2 -20.05 -13.7 -19.9 -14.65 -20.25 -16.25 -20.5 -17.5 -19.25 -18.65 -18.15 -19.7 -16.25 -20.25 L-12.95 -20.65 Q-11.3 -20.45 -10.95 -19.4" fill="#45464b" fill-rule="evenodd" stroke="none"/>
      <path d="M-11.55 -18.6 Q-10.9 -16.25 -8.6 -13.8 L-4.3 -9.85 Q-1.9 -7.55 -1.2 -5.65 -0.35 -3.1 -1.8 -0.1 -4.05 4.35 -11.6 9.25 -18.8 13.85 -23.0 14.25 -24.35 12.05 -22.85 8.8 -21.5 5.75 -18.45 3.2 -20.55 4.05 -22.75 5.6 L-24.55 6.95 Q-25.05 5.45 -24.8 3.4 -24.3 -0.7 -20.55 -3.5 -22.2 -3.15 -23.85 -1.8 L-25.2 -0.45 Q-25.35 -1.8 -24.85 -3.75 -23.9 -7.6 -20.55 -10.4 -18.9 -11.85 -18.7 -12.55 -18.4 -13.4 -18.95 -15.85 -19.2 -16.95 -18.2 -17.95 -17.3 -18.85 -15.8 -19.35 L-13.1 -19.7 Q-11.8 -19.5 -11.55 -18.6" fill="#8f8d9b" fill-rule="evenodd" stroke="none"/>
      <path d="M-22.75 12.7 Q-22.8 8.7 -19.75 5.85 -18.25 4.4 -16.7 3.75 L-17.1 3.35 -18.45 3.2 Q-10.7 -1.65 -7.4 -0.8 -6.15 -0.45 -5.95 0.75 -5.75 1.85 -6.6 3.2 -8.35 6.1 -13.95 9.45 -19.65 12.85 -22.75 12.7" fill="#d8d9e1" fill-rule="evenodd" stroke="none"/>
      <path d="M-9.05 -6.5 Q-8.05 -5.5 -8.25 -3.9 -8.5 -2.35 -9.65 -1.8 L-15.85 0.75 Q-19.7 2.35 -23.35 4.75 -23.45 0.1 -20.7 -2.05 -19.35 -3.1 -17.95 -3.25 L-18.35 -3.5 -19.8 -3.55 Q-11.95 -9.2 -9.05 -6.5" fill="#d8d9e1" fill-rule="evenodd" stroke="none"/>
      <path d="M-12.95 -7.65 Q-14.4 -7.7 -17.25 -6.6 -21.0 -5.2 -24.3 -2.65 -23.1 -6.6 -21.35 -8.5 -19.1 -10.9 -14.6 -11.85 -13.4 -12.05 -12.5 -11.45 -11.7 -10.9 -11.4 -9.95 -11.1 -9.0 -11.5 -8.35 -11.9 -7.6 -12.95 -7.65" fill="#d8d9e1" fill-rule="evenodd" stroke="none"/>
      <path d="M-15.85 -19.3 L-13.2 -19.65 Q-11.85 -19.5 -11.55 -18.6 L-11.55 -18.55 Q-13.8 -18.85 -16.05 -16.95 -18.15 -15.15 -18.6 -13.05 L-18.7 -14.25 -18.95 -15.9 Q-19.2 -16.95 -18.2 -17.95 -17.35 -18.85 -15.85 -19.3" fill="#636471" fill-rule="evenodd" stroke="none"/>
    </g>
  </defs>
</svg>
