<?xml version="1.0" encoding="UTF-8" standalone="no"?>
<svg xmlns:ffdec="https://www.free-decompiler.com/flash" xmlns:xlink="http://www.w3.org/1999/xlink" ffdec:objectType="frame" height="146.75px" width="129.8px" xmlns="http://www.w3.org/2000/svg">
  <g transform="matrix(1.0, 0.0, 0.0, 1.0, 65.35, 62.85)">
    <use ffdec:characterId="365" height="51.45" transform="matrix(1.0, 0.0, 0.0, 1.0, 25.2, 5.1)" width="39.25" xlink:href="#sprite0"/>
    <use ffdec:characterId="367" height="25.15" transform="matrix(0.8509, -0.5225, 0.5225, 0.8509, -58.9683, 45.6835)" width="16.85" xlink:href="#sprite5"/>
    <use ffdec:characterId="369" height="21.65" transform="matrix(0.9443, -0.326, 0.326, 0.9443, -45.1225, 50.9449)" width="27.3" xlink:href="#sprite6"/>
    <use ffdec:characterId="371" height="28.1" transform="matrix(0.9755, -0.2167, 0.2167, 0.9755, -31.0059, 39.6769)" width="35.6" xlink:href="#sprite7"/>
    <use ffdec:characterId="373" height="72.5" transform="matrix(1.0, 0.0, 0.0, 1.0, -25.15, -15.0)" width="61.0" xlink:href="#sprite8"/>
    <use ffdec:characterId="375" height="15.05" transform="matrix(1.0, 0.0, 0.0, 1.0, 31.0, 11.3)" width="13.7" xlink:href="#sprite9"/>
    <use ffdec:characterId="377" height="25.4" transform="matrix(1.0, 2.0E-4, -2.0E-4, 1.0, -43.1973, -35.7028)" width="20.35" xlink:href="#sprite10"/>
    <use ffdec:characterId="379" height="44.1" transform="matrix(0.987, -0.1573, 0.1573, 0.987, -38.5727, -48.8634)" width="31.5" xlink:href="#sprite11"/>
    <use ffdec:characterId="383" height="65.3" transform="matrix(1.0, 0.0, 0.0, 1.0, -20.05, -61.55)" width="57.65" xlink:href="#sprite12"/>
    <use ffdec:characterId="386" height="129.2" transform="matrix(1.0, 0.0, 0.0, 1.0, -65.35, -45.3)" width="124.15" xlink:href="#sprite14"/>
  </g>
  <defs>
    <g id="sprite0" transform="matrix(1.0, 0.0, 0.0, 1.0, 18.25, 24.3)">
      <use ffdec:characterId="360" height="24.6" transform="matrix(0.9156, 0.4021, -0.4021, 0.9156, -8.3767, -3.9256)" width="16.2" xlink:href="#sprite1"/>
      <use ffdec:characterId="362" height="11.25" transform="matrix(0.9637, 0.267, -0.267, 0.9637, -1.3866, -8.979)" width="6.6" xlink:href="#sprite3"/>
      <use ffdec:characterId="364" height="12.15" transform="matrix(0.9979, 0.0646, -0.0646, 0.9979, 0.7306, -18.7912)" width="4.5" xlink:href="#sprite4"/>
      <use ffdec:characterId="362" height="11.25" transform="matrix(0.4645, 0.8856, -0.8856, 0.4645, 0.5351, -24.2905)" width="6.6" xlink:href="#sprite3"/>
    </g>
    <g id="sprite1" transform="matrix(1.0, 0.0, 0.0, 1.0, 8.6, 3.35)">
      <use ffdec:characterId="352" height="8.2" transform="matrix(1.0, 0.0, 0.0, 1.0, -8.5, 13.05)" width="16.1" xlink:href="#shape0"/>
      <use ffdec:characterId="354" height="6.05" transform="matrix(-0.3564, 0.0, 0.0, -0.3564, 1.6218, 17.1564)" width="9.65" xlink:href="#sprite2"/>
      <use ffdec:characterId="355" height="7.35" transform="matrix(1.0, 0.0, 0.0, 1.0, -1.0, 8.8)" width="1.4" xlink:href="#shape2"/>
      <use ffdec:characterId="354" height="6.05" transform="matrix(1.25, 0.0, 0.0, 1.25, -7.0875, 2.45)" width="9.65" xlink:href="#sprite2"/>
      <use ffdec:characterId="356" height="19.25" transform="matrix(1.0, 0.0, 0.0, 1.0, -7.85, -0.3)" width="14.85" xlink:href="#shape3"/>
      <use ffdec:characterId="357" height="7.7" transform="matrix(1.0, 0.0, 0.0, 1.0, -8.6, -3.35)" width="15.5" xlink:href="#shape4"/>
    </g>
    <g id="shape0" transform="matrix(1.0, 0.0, 0.0, 1.0, 8.5, -13.05)">
      <path d="M5.3 14.0 L5.95 14.35 6.1 14.4 6.7 14.8 7.4 15.45 7.45 15.45 7.45 15.7 7.45 15.75 Q7.45 16.3 5.25 17.05 L4.35 17.35 3.25 18.0 Q1.1 19.15 0.15 19.15 L-0.55 19.15 0.5 19.2 0.6 19.2 -1.25 21.2 -3.45 20.95 Q-6.75 20.45 -7.95 19.15 -8.6 18.45 -8.45 17.75 -8.3 16.75 -7.75 16.0 L-7.6 16.55 -7.6 16.25 -7.25 16.0 -6.65 15.35 -6.95 15.15 Q-6.3 14.55 -5.3 14.1 -2.8 12.95 0.6 13.05 L2.55 13.25 2.55 13.35 1.8 13.9 -0.9 16.3 Q-3.75 18.1 -3.75 18.25 L-3.75 18.35 -3.65 18.7 -3.55 18.8 -2.6 18.95 -2.4 18.85 -1.85 18.95 -1.55 18.8 -0.75 19.1 -1.05 18.65 -1.0 18.45 0.55 17.45 0.55 17.4 1.3 16.9 1.6 16.75 4.0 15.0 4.05 14.95 4.15 14.9 4.5 14.65 5.3 14.0 M7.5 16.1 L7.55 16.3 7.5 17.2 7.1 19.1 6.3 19.55 Q5.4 20.7 4.45 20.55 L4.35 20.55 1.1 21.2 1.5 20.85 5.5 17.25 5.5 17.2 7.5 16.1 M-4.8 18.1 L-5.1 18.25 -4.75 18.35 -4.8 18.1" fill="#5b5b5b" fill-rule="evenodd" stroke="none"/>
      <path d="M-1.0 18.45 L-1.05 18.65 -0.75 19.1 -1.55 18.8 -1.0 18.45 M2.55 13.35 L2.55 13.25 2.65 13.25 2.55 13.35 M-6.95 15.15 L-6.65 15.35 -7.25 16.0 -7.6 16.25 -7.6 16.55 -7.75 16.0 -6.95 15.15 M-1.25 21.2 L0.6 19.2 0.5 19.2 -0.55 19.15 0.15 19.15 Q1.1 19.15 3.25 18.0 L4.35 17.35 5.25 17.05 Q7.45 16.3 7.45 15.75 L7.45 15.9 7.45 16.05 7.5 16.1 5.5 17.2 5.5 17.25 1.5 20.85 1.1 21.2 -1.25 21.2 M7.45 15.7 L7.45 15.45 7.5 15.5 7.45 15.7 M-4.8 18.1 L-4.75 18.35 -5.1 18.25 -4.8 18.1" fill="#a8a8a8" fill-rule="evenodd" stroke="none"/>
      <path d="M5.3 14.0 L4.5 14.65 4.15 14.9 4.05 14.95 4.0 15.0 1.6 16.75 1.3 16.9 0.55 17.4 0.55 17.45 -1.0 18.45 -1.55 18.8 -1.85 18.95 -2.4 18.85 -2.6 18.95 -3.55 18.8 -3.65 18.7 -3.75 18.35 -3.75 18.25 Q-3.75 18.1 -0.9 16.3 L1.8 13.9 2.55 13.35 2.65 13.25 2.9 13.3 3.6 13.45 Q4.5 13.65 5.3 14.0" fill="#c9c9c9" fill-rule="evenodd" stroke="none"/>
    </g>
    <g id="sprite2" transform="matrix(1.0, 0.0, 0.0, 1.0, 4.55, 1.0)">
      <use ffdec:characterId="353" height="6.05" transform="matrix(1.0, 0.0, 0.0, 1.0, -4.55, -1.0)" width="9.65" xlink:href="#shape1"/>
    </g>
    <g id="shape1" transform="matrix(1.0, 0.0, 0.0, 1.0, 4.55, 1.0)">
      <path d="M0.8 5.05 Q-0.05 5.05 -1.35 3.95 L-2.55 2.8 -3.55 1.75 -4.55 0.3 Q-4.55 -0.5 -3.55 -0.75 -1.75 -1.2 4.2 -0.8 5.1 -0.45 5.1 0.2 L4.75 1.45 3.8 2.95 3.0 3.95 Q1.9 5.05 0.8 5.05" fill="#cbc3a2" fill-rule="evenodd" stroke="none"/>
    </g>
    <g id="shape2" transform="matrix(1.0, 0.0, 0.0, 1.0, 1.0, -8.8)">
      <path d="M0.3 15.9 L-0.15 16.15 Q-0.55 16.15 -0.8 12.8 L-1.0 9.45 Q-1.0 9.0 -0.5 8.8 0.25 9.6 0.35 11.7 L0.3 15.1 0.3 15.9" fill="#cbc3a2" fill-rule="evenodd" stroke="none"/>
    </g>
    <g id="shape3" transform="matrix(1.0, 0.0, 0.0, 1.0, 7.85, 0.3)">
      <path d="M-4.2 9.2 L-5.8 7.3 Q-7.85 4.95 -7.85 2.35 L-7.7 1.2 -6.85 0.2 -6.4 0.3 -6.25 0.55 -6.25 0.7 -6.6 1.4 -6.95 2.25 Q-6.95 4.7 -4.65 6.4 -2.35 8.1 -2.35 9.4 -2.35 10.4 -4.3 13.35 -6.05 16.05 -5.6 17.2 L-5.9 17.4 -6.1 17.45 -6.45 16.85 -6.6 15.85 Q-6.6 15.05 -5.15 12.55 L-4.45 11.3 Q-3.85 10.5 -3.85 10.15 L-3.75 9.85 -4.2 9.2 M4.25 0.95 Q4.5 0.35 4.8 1.1 L5.05 1.7 5.3 3.3 Q5.3 4.15 4.65 5.4 L3.9 6.5 3.7 6.95 3.6 7.2 Q2.95 8.85 2.9 9.5 3.3 10.65 4.9 12.25 7.0 14.5 7.0 15.8 7.0 17.4 5.65 17.85 L5.15 17.55 5.5 17.05 5.75 16.35 Q5.75 15.4 3.65 13.15 1.5 10.95 1.5 8.6 L1.6 6.85 Q1.8 6.3 2.2 6.1 L3.0 4.3 4.0 1.95 4.25 0.95" fill="#e2e2e2" fill-rule="evenodd" stroke="none"/>
      <path d="M-6.25 0.55 Q-5.15 -0.45 -2.85 -0.3 2.1 -0.3 4.05 0.8 L4.25 0.95 4.0 1.95 3.0 4.3 2.2 6.1 Q1.8 6.3 1.6 6.85 L1.5 8.6 Q1.5 10.95 3.65 13.15 5.75 15.4 5.75 16.35 L5.5 17.05 5.15 17.55 4.5 17.95 Q2.5 18.95 -1.0 18.95 -4.15 18.95 -5.9 17.4 L-5.6 17.2 Q-6.05 16.05 -4.3 13.35 -2.35 10.4 -2.35 9.4 -2.35 8.1 -4.65 6.4 -6.95 4.7 -6.95 2.25 L-6.6 1.4 -6.25 0.7 -6.25 0.55 M5.05 1.7 Q5.4 2.25 5.4 3.0 5.4 4.7 3.7 6.95 L3.9 6.5 4.65 5.4 Q5.3 4.15 5.3 3.3 L5.05 1.7 M-6.45 16.85 Q-7.1 16.1 -7.1 15.5 -7.1 14.1 -5.45 12.45 L-4.45 11.3 -5.15 12.55 Q-6.6 15.05 -6.6 15.85 L-6.45 16.85 M-3.85 10.15 L-3.85 10.1 Q-3.85 9.75 -4.2 9.2 L-3.75 9.85 -3.85 10.15" fill="#cccccc" fill-opacity="0.34901962" fill-rule="evenodd" stroke="none"/>
    </g>
    <g id="shape4" transform="matrix(1.0, 0.0, 0.0, 1.0, 8.6, 3.35)">
      <path d="M2.75 -3.05 Q1.7 -2.7 0.3 -2.0 -5.15 0.7 -5.15 1.55 L-5.0 2.1 Q-6.25 1.85 -7.05 1.4 -8.35 0.7 -8.45 -0.4 -8.05 -1.6 -6.2 -2.4 -3.95 -3.35 -0.85 -3.35 L2.75 -3.05 M-3.75 2.3 L5.05 -2.3 Q6.35 -1.65 6.75 -0.45 L4.9 0.5 Q4.35 1.7 2.15 4.05 L-2.6 4.35 -0.7 2.45 0.05 1.75 -2.85 2.2 -2.35 2.3 -3.5 2.3 -3.75 2.3" fill="#a8a8a8" fill-rule="evenodd" stroke="none"/>
      <path d="M-5.0 2.1 L-5.15 1.55 Q-5.15 0.7 0.3 -2.0 1.7 -2.7 2.75 -3.05 L5.05 -2.3 -3.75 2.3 -4.1 2.45 Q-4.75 2.45 -5.0 2.1" fill="#c9c9c9" fill-rule="evenodd" stroke="none"/>
      <path d="M-5.0 2.1 Q-4.75 2.45 -4.1 2.45 L-3.75 2.3 -3.5 2.3 -2.35 2.3 -2.85 2.2 0.05 1.75 -0.7 2.45 -2.6 4.35 -2.75 4.35 Q-7.25 4.35 -8.35 2.55 L-8.6 0.3 -8.45 -0.4 Q-8.35 0.7 -7.05 1.4 -6.25 1.85 -5.0 2.1 M6.75 -0.45 L6.9 0.65 Q6.9 2.15 5.8 2.9 4.6 3.7 2.15 4.05 4.35 1.7 4.9 0.5 L6.75 -0.45" fill="#5b5b5b" fill-rule="evenodd" stroke="none"/>
    </g>
    <g id="sprite3" transform="matrix(1.0, 0.0, 0.0, 1.0, 4.3, 1.9)">
      <use ffdec:characterId="361" height="11.25" transform="matrix(1.0, 0.0, 0.0, 1.0, -4.3, -1.9)" width="6.6" xlink:href="#shape5"/>
    </g>
    <g id="shape5" transform="matrix(1.0, 0.0, 0.0, 1.0, 4.3, 1.9)">
      <path d="M0.8 0.45 Q-0.4 -0.25 -1.05 0.75 L-1.45 1.95 -1.45 2.05 -1.3 2.05 Q-0.2 0.0 0.0 1.4 L0.8 0.45 M0.0 8.15 Q-0.75 9.35 -2.35 9.35 -3.85 9.35 -4.2 8.25 L-4.3 7.05 Q-4.3 4.85 -2.45 4.5 L-2.1 3.7 Q-3.3 3.5 -3.3 2.45 -3.3 -0.15 -0.5 -1.45 2.3 -2.75 2.3 -0.3 2.3 1.2 1.65 2.2 0.95 3.2 -0.3 3.55 L-0.7 4.5 -0.7 4.55 Q0.55 4.85 0.55 6.2 0.55 7.35 0.0 8.15 M-0.95 6.95 L-1.5 6.25 -1.65 6.15 -1.85 6.2 -2.25 6.15 -2.7 7.55 -2.7 7.75 -2.3 7.85 Q-1.9 7.85 -1.5 7.5 L-0.95 6.95" fill="#5b5b5b" fill-rule="evenodd" stroke="none"/>
    </g>
    <g id="sprite4" transform="matrix(1.0, 0.0, 0.0, 1.0, 1.45, 1.2)">
      <use ffdec:characterId="363" height="12.15" transform="matrix(1.0, 0.0, 0.0, 1.0, -1.45, -1.2)" width="4.5" xlink:href="#shape6"/>
    </g>
    <g id="shape6" transform="matrix(1.0, 0.0, 0.0, 1.0, 1.45, 1.2)">
      <path d="M1.2 2.7 Q2.25 2.8 2.75 3.45 L3.05 4.35 Q3.05 7.3 1.5 7.95 L1.3 8.75 Q0.9 10.7 0.55 10.95 -0.2 10.8 -0.2 9.95 L0.1 8.1 Q-1.0 7.95 -1.35 7.25 L-1.45 6.35 Q-1.45 5.2 -1.05 4.2 -0.7 3.4 -0.15 3.05 L-0.2 2.95 -0.45 0.6 Q-0.45 -1.95 0.4 -0.9 1.2 0.15 1.2 2.65 L1.2 2.7 M1.05 4.25 L0.9 4.7 0.55 4.8 0.4 4.6 0.2 5.2 0.05 6.45 0.15 6.7 0.6 6.35 Q0.85 5.75 1.05 5.6 L1.1 5.7 1.55 4.8 Q1.55 4.3 1.05 4.25" fill="#5b5b5b" fill-rule="evenodd" stroke="none"/>
    </g>
    <g id="sprite5" transform="matrix(1.0, 0.0, 0.0, 1.0, 11.9, 18.55)">
      <use ffdec:characterId="366" height="25.15" transform="matrix(1.0, 0.0, 0.0, 1.0, -11.9, -18.55)" width="16.85" xlink:href="#shape7"/>
    </g>
    <g id="shape7" transform="matrix(1.0, 0.0, 0.0, 1.0, 11.9, 18.55)">
      <path d="M4.95 -0.25 Q4.95 1.35 4.05 3.4 2.65 6.6 -0.05 6.6 -6.65 6.6 -9.95 -5.0 -10.95 -8.6 -11.55 -12.9 L-11.9 -16.4 Q-11.9 -20.6 -9.15 -16.6 L-4.55 -10.1 Q0.95 -7.95 3.1 -5.55 4.95 -3.45 4.95 -0.25 M-7.05 0.4 Q-4.2 5.35 -0.2 5.35 3.8 5.35 3.8 -1.3 L3.7 -2.5 Q3.35 -4.1 2.1 -5.35 0.0 -7.35 -5.3 -9.4 -6.85 -10.2 -9.05 -13.5 L-9.1 -13.55 -9.15 -13.65 -9.5 -14.15 -9.85 -14.7 Q-10.8 -16.2 -11.1 -16.35 -11.55 -16.6 -11.55 -15.05 L-11.05 -11.95 Q-10.35 -8.1 -9.3 -4.9 L-9.2 -4.55 -8.45 -2.6 -7.05 0.4" fill="#0c0c10" fill-rule="evenodd" stroke="none"/>
      <path d="M3.7 -2.5 L3.8 -1.3 Q3.8 5.35 -0.2 5.35 -4.2 5.35 -7.05 0.4 L-7.05 0.25 -8.25 -2.1 -8.45 -2.6 -9.2 -4.55 -9.3 -4.9 Q-10.35 -8.1 -11.05 -11.95 L-11.55 -15.05 Q-11.55 -16.6 -11.1 -16.35 -10.8 -16.2 -9.85 -14.7 L-9.5 -14.15 -9.15 -13.65 -9.1 -13.55 -9.05 -13.5 Q-8.4 -12.05 -8.3 -10.95 L-8.3 -10.75 Q-8.1 -6.3 -5.45 -2.55 -2.9 1.15 -0.3 1.15 1.2 1.15 3.1 -1.65 L3.2 -1.75 3.7 -2.5" fill="#252538" fill-rule="evenodd" stroke="none"/>
      <path d="M3.7 -2.5 L3.2 -1.75 3.1 -1.65 Q1.2 1.15 -0.3 1.15 -2.9 1.15 -5.45 -2.55 -8.1 -6.3 -8.3 -10.75 L-8.3 -10.95 Q-8.4 -12.05 -9.05 -13.5 -6.85 -10.2 -5.3 -9.4 0.0 -7.35 2.1 -5.35 3.35 -4.1 3.7 -2.5 M-8.45 -2.6 L-8.25 -2.1 -7.05 0.25 -7.05 0.4 -8.45 -2.6" fill="#464658" fill-rule="evenodd" stroke="none"/>
    </g>
    <g id="sprite6" transform="matrix(1.0, 0.0, 0.0, 1.0, 23.15, 14.3)">
      <use ffdec:characterId="368" height="21.65" transform="matrix(1.0, 0.0, 0.0, 1.0, -23.15, -14.3)" width="27.3" xlink:href="#shape8"/>
    </g>
    <g id="shape8" transform="matrix(1.0, 0.0, 0.0, 1.0, 23.15, 14.3)">
      <path d="M2.8 0.0 L2.9 -0.55 3.0 -2.6 2.95 -3.8 Q2.6 -6.3 0.8 -7.75 -2.8 -10.65 -13.15 -12.0 -15.85 -13.3 -17.85 -13.6 L-18.65 -13.65 -20.6 -13.4 -20.6 -13.45 -20.5 -14.0 -18.15 -14.0 Q-15.45 -15.25 -3.25 -10.9 0.15 -10.55 2.0 -8.15 3.2 -6.6 3.45 -4.95 L3.5 -5.0 Q4.15 -3.9 4.15 -2.25 4.15 0.3 2.75 3.0 0.45 7.35 -4.4 7.35 -10.1 7.35 -16.35 3.5 -22.6 -0.35 -22.85 -4.3 -21.75 -1.0 -16.65 2.1 -10.3 5.9 -3.9 5.9 0.5 5.9 2.2 2.0 L2.7 0.55 2.8 0.0" fill="#0c0c10" fill-rule="evenodd" stroke="none"/>
      <path d="M-20.6 -13.4 L-18.65 -13.65 -17.85 -13.6 Q-15.85 -13.3 -13.15 -12.0 -2.8 -10.65 0.8 -7.75 2.6 -6.3 2.95 -3.8 L3.0 -2.6 2.9 -0.55 2.8 0.0 2.4 0.1 2.35 0.1 1.0 0.5 -5.75 0.5 Q-9.4 -0.05 -13.75 -2.25 L-19.85 -5.75 -23.0 -9.5 Q-22.8 -11.15 -22.4 -11.85 -21.75 -13.0 -20.6 -13.4" fill="#464658" fill-rule="evenodd" stroke="none"/>
      <path d="M2.8 0.0 L2.7 0.55 2.2 2.0 Q0.5 5.9 -3.9 5.9 -10.3 5.9 -16.65 2.1 -21.75 -1.0 -22.85 -4.3 L-23.15 -6.15 -23.15 -6.25 -23.15 -6.8 -23.0 -9.5 -19.85 -5.75 -13.75 -2.25 Q-9.4 -0.05 -5.75 0.5 L1.0 0.5 2.35 0.1 2.4 0.1 2.8 0.0" fill="#252538" fill-rule="evenodd" stroke="none"/>
    </g>
    <g id="sprite7" transform="matrix(1.0, 0.0, 0.0, 1.0, 26.8, 15.05)">
      <use ffdec:characterId="370" height="28.1" transform="matrix(1.0, 0.0, 0.0, 1.0, -26.8, -15.05)" width="35.6" xlink:href="#shape9"/>
    </g>
    <g id="shape9" transform="matrix(1.0, 0.0, 0.0, 1.0, 26.8, 15.05)">
      <path d="M-23.4 -7.35 L-23.8 -7.75 Q-23.8 -8.3 -19.85 -11.1 L-15.45 -14.05 Q-11.9 -15.95 -6.15 -14.25 -2.25 -13.05 0.45 -11.2 2.25 -9.75 3.65 -7.7 L5.7 -4.45 7.7 -0.55 8.8 2.2 Q8.8 6.3 6.8 8.55 2.75 13.05 -9.2 13.05 L-16.25 12.5 Q-20.9 12.0 -22.1 9.8 L-20.15 10.6 -19.15 10.85 -17.65 11.15 -13.8 11.4 -11.8 11.4 -11.35 11.4 -10.8 11.4 -7.95 11.3 -4.4 11.0 -4.3 11.0 -4.15 11.0 -3.85 11.0 -3.7 10.95 -2.35 10.8 3.4 9.6 Q4.9 8.85 6.35 8.05 L6.4 8.0 6.55 7.9 6.75 7.7 7.15 7.25 7.1 7.25 7.6 6.45 7.75 6.05 7.75 6.0 7.9 5.1 7.9 5.05 7.7 2.45 7.7 2.0 Q7.35 -1.0 3.0 -6.5 -2.3 -13.25 -7.05 -13.45 -13.15 -13.95 -15.65 -12.6 L-19.0 -10.15 -19.9 -9.55 -22.9 -7.7 -23.4 -7.35" fill="#0c0c10" fill-rule="evenodd" stroke="none"/>
      <path d="M-26.7 3.2 L-26.8 2.15 -26.65 0.25 -26.5 -3.85 -26.5 -3.95 Q-26.0 -5.75 -23.4 -7.35 L-22.9 -7.7 -19.9 -9.55 -19.45 -9.4 Q-15.75 -8.2 -13.9 -5.65 -12.3 -3.45 -12.3 -0.7 L-12.55 1.55 Q-13.15 3.7 -15.05 3.7 L-20.8 3.75 -21.7 4.05 -22.4 3.7 -23.7 3.8 Q-25.55 3.8 -26.7 3.2 M7.6 6.45 L7.1 7.25 7.45 6.55 7.6 6.45 M-6.3 6.55 L-5.95 6.95 -6.6 6.9 -6.3 6.55 M-13.6 -10.55 L-14.35 -10.55 -14.9 -10.3 -15.5 -10.6 -15.25 -10.6 -13.6 -10.55" fill="#464658" fill-rule="evenodd" stroke="none"/>
      <path d="M-22.1 9.8 Q-24.75 8.45 -25.95 5.95 -26.55 4.7 -26.7 3.2 -25.55 3.8 -23.7 3.8 L-22.4 3.7 -21.7 4.05 -20.8 3.75 -15.05 3.7 Q-13.15 3.7 -12.55 1.55 L-12.3 -0.7 Q-12.3 -3.45 -13.9 -5.65 -15.75 -8.2 -19.45 -9.4 L-19.9 -9.55 -19.0 -10.15 -15.65 -12.6 Q-13.15 -13.95 -7.05 -13.45 -2.3 -13.25 3.0 -6.5 7.35 -1.0 7.7 2.0 L7.7 2.45 7.9 5.05 7.9 5.1 7.75 6.0 7.75 6.05 7.6 6.45 7.45 6.55 7.1 7.25 7.15 7.25 6.75 7.7 6.55 7.9 6.4 8.0 6.35 8.05 Q4.9 8.85 3.4 9.6 L-2.35 10.8 -3.7 10.95 -3.85 11.0 -4.15 11.0 -4.3 11.0 -4.4 11.0 -7.95 11.3 -10.8 11.4 -11.35 11.4 -11.8 11.4 -13.8 11.4 -17.65 11.15 -19.15 10.85 -20.15 10.6 -22.1 9.8 M-13.6 -10.55 L-15.25 -10.6 -15.5 -10.6 -14.9 -10.3 -14.35 -10.55 -13.6 -10.55 M-6.3 6.55 L-6.6 6.9 -5.95 6.95 -6.3 6.55" fill="#252538" fill-rule="evenodd" stroke="none"/>
    </g>
    <g id="sprite8" transform="matrix(1.0, 0.0, 0.0, 1.0, 30.5, 36.25)">
      <use ffdec:characterId="372" height="72.5" transform="matrix(1.0, 0.0, 0.0, 1.0, -30.5, -36.25)" width="61.0" xlink:href="#shape10"/>
    </g>
    <g id="shape10" transform="matrix(1.0, 0.0, 0.0, 1.0, 30.5, 36.25)">
      <path d="M-12.65 -33.0 Q-8.2 -35.1 -2.5 -35.0 L-2.5 -35.15 6.75 -35.15 Q13.0 -34.55 18.85 -29.35 L21.0 -27.25 22.8 -25.15 Q24.35 -23.05 24.9 -21.15 26.3 -16.3 28.1 -12.25 28.6 -11.15 28.6 -6.4 L29.25 -2.35 Q29.25 1.1 28.5 4.55 L27.9 5.55 27.35 6.55 22.5 13.85 Q20.9 15.9 14.9 19.3 6.85 23.85 0.25 23.85 -12.75 23.85 -18.0 9.2 -20.75 1.6 -20.75 -6.65 -20.5 -17.6 -19.25 -20.8 -18.5 -22.75 -14.85 -29.1 L-13.4 -31.6 -12.65 -33.0" fill="#464658" fill-rule="evenodd" stroke="none"/>
      <path d="M-18.6 22.65 L-22.4 19.1 Q-25.35 15.3 -27.0 10.9 -28.65 6.6 -28.65 2.7 -28.65 -9.25 -24.7 -18.95 -20.5 -29.35 -12.65 -33.0 L-13.4 -31.6 -14.85 -29.1 Q-18.5 -22.75 -19.25 -20.8 -20.5 -17.6 -20.75 -6.65 -20.75 1.6 -18.0 9.2 -12.75 23.85 0.25 23.85 6.85 23.85 14.9 19.3 20.9 15.9 22.5 13.85 L27.35 6.55 27.9 5.55 28.5 4.55 Q26.5 13.65 19.15 22.7 15.2 27.6 11.4 30.55 L11.25 30.65 Q5.7 34.8 0.45 34.85 L0.35 34.85 -0.6 34.8 -1.65 34.55 Q-6.1 33.35 -13.65 27.15 L-18.6 22.65" fill="#252538" fill-rule="evenodd" stroke="none"/>
      <path d="M-18.6 22.65 Q-24.5 21.75 -28.0 11.6 -30.5 4.35 -30.5 -0.15 -30.5 -2.45 -29.6 -6.6 L-28.1 -12.55 Q-27.6 -14.35 -25.35 -18.5 -23.1 -22.65 -22.5 -24.75 -21.05 -30.05 -13.65 -33.45 -8.2 -35.95 -4.0 -36.15 9.75 -36.9 17.6 -32.35 21.2 -30.2 22.5 -28.15 L22.7 -27.9 25.75 -22.9 28.0 -15.55 Q30.5 -8.05 30.5 -0.95 30.5 5.5 29.65 8.25 28.4 12.3 23.65 18.0 19.55 24.75 16.75 27.85 14.45 30.4 11.0 32.2 L7.75 34.2 Q3.8 36.25 1.25 36.25 0.05 36.25 -0.5 35.85 L-0.9 35.3 -0.9 35.25 -1.5 34.95 Q-1.65 35.15 -1.65 34.55 L-0.6 34.8 0.35 34.85 0.45 34.85 Q5.7 34.8 11.25 30.65 L11.4 30.55 Q15.2 27.6 19.15 22.7 26.5 13.65 28.5 4.55 29.25 1.1 29.25 -2.35 L28.6 -6.4 Q28.6 -11.15 28.1 -12.25 26.3 -16.3 24.9 -21.15 24.35 -23.05 22.8 -25.15 L21.0 -27.25 18.85 -29.35 Q13.0 -34.55 6.75 -35.15 L-2.5 -35.15 -2.5 -35.0 Q-8.2 -35.1 -12.65 -33.0 -20.5 -29.35 -24.7 -18.95 -28.65 -9.25 -28.65 2.7 -28.65 6.6 -27.0 10.9 -25.35 15.3 -22.4 19.1 L-18.6 22.65" fill="#0c0c10" fill-rule="evenodd" stroke="none"/>
    </g>
    <g id="sprite9" transform="matrix(1.0, 0.0, 0.0, 1.0, 6.85, 7.5)">
      <use ffdec:characterId="374" height="15.05" transform="matrix(1.0, 0.0, 0.0, 1.0, -6.85, -7.5)" width="13.7" xlink:href="#shape11"/>
    </g>
    <g id="shape11" transform="matrix(1.0, 0.0, 0.0, 1.0, 6.85, 7.5)">
      <path d="M1.15 -6.65 Q2.4 -7.5 3.65 -7.5 4.55 -7.5 5.25 -6.95 6.15 -6.25 6.15 -4.9 6.15 -3.9 6.85 2.45 6.85 5.25 3.7 6.65 1.75 7.55 0.05 7.55 L-1.15 7.45 Q-2.1 6.95 -2.1 5.05 L-1.95 3.85 -1.8 3.05 Q-4.8 4.05 -6.1 1.1 -6.85 -0.7 -6.85 -3.15 -6.85 -4.4 -6.4 -5.3 -5.9 -6.3 -5.05 -6.3 -4.6 -6.3 -3.4 -5.75 -2.15 -5.2 -1.65 -4.75 L1.15 -6.65 M-0.35 -0.45 Q-0.95 0.2 -1.1 1.2 -1.1 1.95 -0.75 2.5 -0.45 3.05 0.05 3.05 L-0.55 3.5 -1.5 4.65 Q-1.1 6.8 0.3 6.8 2.8 6.8 4.6 4.35 6.05 2.35 6.15 0.55 L6.1 0.4 5.9 0.45 Q5.7 0.5 5.7 -0.1 L5.85 -1.1 5.95 -1.9 5.5 -2.65 Q5.0 -3.0 4.3 -3.0 L3.35 -2.5 4.75 -3.9 Q5.25 -4.45 5.2 -5.4 L4.85 -5.85 Q4.4 -6.25 3.75 -6.25 0.35 -5.2 -1.25 -3.25 L-1.5 -1.6 -1.35 -0.95 Q-1.1 -0.7 -0.35 -0.45 M-4.0 -5.15 L-5.2 -4.55 Q-6.1 -3.75 -6.1 -1.9 L-5.5 0.1 Q-4.65 2.05 -3.35 2.05 L-2.35 1.85 Q-1.95 1.65 -1.7 1.0 L-1.9 -1.0 -2.0 -1.4 Q-2.0 -2.95 -2.55 -4.05 -3.15 -5.15 -4.0 -5.15" fill="#696969" fill-rule="evenodd" stroke="none"/>
      <path d="M4.3 -3.0 Q3.45 -2.25 1.6 -1.35 L-0.35 -0.45 Q-1.1 -0.7 -1.35 -0.95 L-1.5 -1.6 -1.25 -3.25 -0.5 -3.2 -0.5 -2.45 Q0.55 -2.8 5.2 -5.4 5.25 -4.45 4.75 -3.9 L3.35 -2.5 4.3 -3.0 M-1.1 1.2 Q-0.05 1.6 2.15 0.65 4.35 -0.3 5.95 -1.9 L5.85 -1.1 5.7 -0.1 Q5.7 0.5 5.9 0.45 L6.1 0.4 3.6 1.7 0.05 3.05 Q-0.45 3.05 -0.75 2.5 -1.1 1.95 -1.1 1.2 M-1.7 1.0 Q-1.95 1.65 -2.35 1.85 L-3.35 2.05 Q-4.65 2.05 -5.5 0.1 L-6.1 -1.9 Q-6.1 -3.75 -5.2 -4.55 L-4.0 -5.15 Q-4.0 -4.8 -4.4 -4.4 -4.75 -4.05 -4.75 -3.5 -4.75 -1.05 -3.6 0.1 L-2.0 1.15 Q-2.0 1.0 -1.7 1.0 M-1.5 4.65 Q2.35 5.25 4.05 3.5 L6.15 0.55 Q6.05 2.35 4.6 4.35 2.8 6.8 0.3 6.8 -1.1 6.8 -1.5 4.65" fill="#afafad" fill-rule="evenodd" stroke="none"/>
      <path d="M-0.35 -0.45 L1.6 -1.35 Q3.45 -2.25 4.3 -3.0 5.0 -3.0 5.5 -2.65 L5.95 -1.9 Q4.35 -0.3 2.15 0.65 -0.05 1.6 -1.1 1.2 -0.95 0.2 -0.35 -0.45 M5.2 -5.4 Q0.55 -2.8 -0.5 -2.45 L-0.5 -3.2 -1.25 -3.25 Q0.35 -5.2 3.75 -6.25 4.4 -6.25 4.85 -5.85 L5.2 -5.4 M-1.7 1.0 Q-2.0 1.0 -2.0 1.15 L-3.6 0.1 Q-4.75 -1.05 -4.75 -3.5 -4.75 -4.05 -4.4 -4.4 -4.0 -4.8 -4.0 -5.15 -3.15 -5.15 -2.55 -4.05 -2.0 -2.95 -2.0 -1.4 L-1.9 -1.0 -1.7 1.0 M-1.5 4.65 L-0.55 3.5 0.05 3.05 3.6 1.7 6.1 0.4 6.15 0.55 4.05 3.5 Q2.35 5.25 -1.5 4.65" fill="#e0e0de" fill-rule="evenodd" stroke="none"/>
    </g>
    <g id="sprite10" transform="matrix(1.0, 0.0, 0.0, 1.0, 13.15, 12.7)">
      <use ffdec:characterId="376" height="25.4" transform="matrix(1.0, 0.0, 0.0, 1.0, -13.15, -12.7)" width="20.35" xlink:href="#shape12"/>
    </g>
    <g id="shape12" transform="matrix(1.0, 0.0, 0.0, 1.0, 13.15, 12.7)">
      <path d="M5.0 -10.55 L5.05 -10.05 5.2 -9.6 Q5.2 -8.6 3.4 -3.9 L2.5 -1.65 2.5 -1.55 2.4 -1.4 2.4 -1.35 2.35 -1.3 2.4 -1.25 1.7 -0.05 Q0.55 2.3 -1.25 4.45 -6.15 6.8 -9.95 7.35 -10.55 6.35 -10.65 4.05 L-10.65 3.85 -10.7 2.6 -10.9 2.95 Q-7.1 -4.5 4.95 -11.25 L5.0 -10.55" fill="#464658" fill-rule="evenodd" stroke="none"/>
      <path d="M5.0 -10.55 L4.95 -11.25 Q-7.1 -4.5 -10.9 2.95 L-10.95 3.05 -12.65 9.35 -12.65 9.45 -12.65 9.6 -12.65 9.75 -12.65 9.9 -12.65 11.0 Q-12.15 12.1 -9.8 12.1 -9.1 12.1 -4.5 10.05 L-1.95 8.9 1.35 7.35 Q2.0 7.0 2.35 6.05 L2.7 6.0 Q3.5 6.0 3.55 7.1 3.55 7.4 -2.05 10.0 -7.85 12.7 -9.2 12.7 -12.05 12.7 -12.9 10.7 L-13.15 8.35 Q-13.15 0.35 -2.95 -7.8 0.85 -10.9 4.0 -12.15 7.2 -13.4 7.2 -11.85 L5.0 -10.55" fill="#0c0c10" fill-rule="evenodd" stroke="none"/>
      <path d="M-10.9 2.95 L-10.7 2.6 -10.65 3.85 -10.65 4.05 Q-10.55 6.35 -9.95 7.35 -6.15 6.8 -1.25 4.45 0.55 2.3 1.7 -0.05 L2.4 -1.25 2.45 -1.15 2.7 0.85 2.7 2.55 2.65 4.55 2.35 6.05 Q2.0 7.0 1.35 7.35 L-1.95 8.9 -4.5 10.05 Q-9.1 12.1 -9.8 12.1 -12.15 12.1 -12.65 11.0 L-12.65 9.9 -12.65 9.75 -12.65 9.6 -12.65 9.45 -12.65 9.35 -10.95 3.05 -10.9 2.95" fill="#252538" fill-rule="evenodd" stroke="none"/>
    </g>
    <g id="sprite11" transform="matrix(1.0, 0.0, 0.0, 1.0, 27.25, 23.05)">
      <use ffdec:characterId="378" height="44.1" transform="matrix(1.0, 0.0, 0.0, 1.0, -27.25, -23.05)" width="31.5" xlink:href="#shape13"/>
    </g>
    <g id="shape13" transform="matrix(1.0, 0.0, 0.0, 1.0, 27.25, 23.05)">
      <path d="M2.95 -20.45 L3.1 -19.95 Q3.1 -19.65 2.1 -18.85 1.1 -18.1 -0.1 -17.45 L0.35 -17.0 0.5 -16.4 Q0.5 -15.5 -2.25 -12.95 -5.2 -10.25 -5.75 -7.95 -6.05 -6.75 -7.45 -3.6 L-7.95 -2.25 -7.95 -2.3 -7.95 -2.2 -9.5 -0.7 -11.45 2.1 Q-12.6 4.0 -13.6 4.9 -16.85 7.95 -23.95 10.3 L-23.9 10.25 Q-26.4 9.45 -26.85 6.65 -25.55 -0.3 -19.65 -6.85 L-18.4 -8.15 -17.0 -9.5 -12.05 -13.7 Q-6.6 -17.8 -1.65 -19.75 2.15 -21.3 2.95 -20.45" fill="#464658" fill-rule="evenodd" stroke="none"/>
      <path d="M-19.65 -6.85 L-18.85 -8.3 -18.15 -9.1 Q-15.25 -12.65 -6.45 -18.6 4.25 -25.9 4.25 -21.2 4.25 -21.05 2.95 -20.45 2.15 -21.3 -1.65 -19.75 -6.6 -17.8 -12.05 -13.7 L-17.0 -9.5 -18.4 -8.15 -19.65 -6.85 M-1.9 18.25 L-1.9 18.55 Q-1.9 19.55 -4.0 20.35 L-7.9 21.05 Q-13.8 19.15 -16.35 16.9 L-18.65 15.8 Q-21.55 14.45 -25.15 14.2 L-25.3 13.95 -25.5 13.9 -26.15 13.25 -25.35 13.5 -24.25 13.55 -24.2 13.55 Q-21.45 13.55 -15.4 16.55 L-15.2 16.65 -14.8 16.85 Q-9.1 19.55 -5.25 19.55 L-3.35 18.9 -1.9 18.25" fill="#0c0c10" fill-rule="evenodd" stroke="none"/>
      <path d="M-7.95 -2.2 L-8.25 -1.35 -8.4 -0.5 -8.45 0.05 -8.5 0.45 -7.85 1.85 -7.25 3.35 -7.75 6.8 -7.45 9.8 -7.0 12.7 Q-6.75 14.35 -6.95 16.05 -6.55 16.95 -2.5 16.95 -2.0 16.95 -1.35 17.8 L-1.9 18.25 -3.35 18.9 -5.25 19.55 Q-9.1 19.55 -14.8 16.85 L-15.2 16.65 -15.4 16.55 Q-21.45 13.55 -24.2 13.55 L-24.25 13.55 -25.35 13.5 -26.15 13.25 Q-27.0 12.9 -27.25 12.15 L-27.25 11.3 -27.25 10.65 Q-27.25 8.65 -26.85 6.65 -26.4 9.45 -23.9 10.25 L-23.95 10.3 Q-16.85 7.95 -13.6 4.9 -12.6 4.0 -11.45 2.1 L-9.5 -0.7 -7.95 -2.2" fill="#252538" fill-rule="evenodd" stroke="none"/>
    </g>
    <g id="sprite12" transform="matrix(1.0, 0.0, 0.0, 1.0, 28.8, 32.65)">
      <use ffdec:characterId="380" height="65.3" transform="matrix(1.0, 0.0, 0.0, 1.0, -28.8, -32.65)" width="57.65" xlink:href="#shape14"/>
      <use ffdec:characterId="382" height="3.35" transform="matrix(1.0, 0.0, 0.0, 1.0, 15.65, 2.15)" width="2.9" xlink:href="#sprite13"/>
      <use ffdec:characterId="382" height="3.35" transform="matrix(1.0, 0.0, 0.0, 1.0, 0.65, 3.4)" width="2.9" xlink:href="#sprite13"/>
    </g>
    <g id="shape14" transform="matrix(1.0, 0.0, 0.0, 1.0, 28.8, 32.65)">
      <path d="M22.2 -7.3 Q22.45 -6.2 22.65 -5.9 23.05 -5.35 24.05 -5.35 L25.4 -5.65 Q25.85 -6.0 26.45 -6.0 L26.7 -9.0 26.95 -12.6 Q26.95 -21.65 19.4 -26.85 13.55 -30.9 6.9 -30.9 -0.55 -30.9 -9.2 -27.7 -23.45 -22.45 -26.1 -11.15 L-26.55 -11.25 -26.8 -12.1 Q-26.8 -14.7 -22.15 -19.85 -17.05 -25.45 -11.5 -27.65 L-2.65 -30.7 Q3.3 -32.65 4.1 -32.65 16.6 -32.65 23.45 -24.8 28.35 -19.15 28.35 -13.7 28.35 -7.7 27.65 -6.25 L25.25 -4.35 Q22.15 -4.7 21.15 -7.4 20.9 -8.05 20.2 -12.95 19.7 -16.6 18.0 -18.25 15.65 -20.65 10.65 -21.65 L-1.3 -21.0 Q-4.75 -20.15 -7.15 -17.9 -9.55 -15.7 -11.8 -14.35 -13.15 -13.6 -14.0 -11.85 -18.55 -2.75 -18.55 0.4 -18.55 7.3 -15.95 11.9 -14.0 15.25 -8.1 20.8 L-8.25 20.9 -14.0 15.8 Q-18.75 11.0 -19.95 5.4 L-20.15 3.35 Q-20.15 -1.1 -18.45 -5.15 -16.3 -9.3 -15.55 -11.35 -13.85 -15.9 -6.9 -19.9 0.05 -23.95 8.85 -23.4 17.65 -22.85 19.8 -18.6 21.95 -14.4 22.2 -7.3 M-28.15 6.2 L-25.75 14.0 Q-23.8 18.6 -20.15 22.05 -18.65 23.5 -15.8 25.2 -13.0 26.85 -11.9 27.05 L0.25 29.8 Q6.05 31.15 8.1 31.15 11.75 31.15 14.6 29.55 18.3 27.5 19.35 23.2 19.75 26.55 16.1 29.55 12.3 32.65 7.1 32.65 5.75 32.65 -2.8 30.25 -11.9 27.7 -16.65 25.85 -20.15 24.5 -24.2 18.45 -28.3 12.25 -28.3 7.95 L-28.15 6.2" fill="#0c0c10" fill-rule="evenodd" stroke="none"/>
      <path d="M-26.1 -11.15 Q-23.45 -22.45 -9.2 -27.7 -0.55 -30.9 6.9 -30.9 13.55 -30.9 19.4 -26.85 26.95 -21.65 26.95 -12.6 L26.7 -9.0 26.45 -6.0 Q25.85 -6.0 25.4 -5.65 L24.05 -5.35 Q23.05 -5.35 22.65 -5.9 22.45 -6.2 22.2 -7.3 L22.65 -7.6 Q22.9 -5.85 23.45 -5.65 L24.05 -5.65 24.4 -7.85 24.6 -10.4 Q24.6 -19.15 19.0 -23.2 14.7 -26.3 7.6 -26.3 -10.3 -26.3 -17.45 -16.4 -21.4 -10.9 -21.4 -3.5 -21.4 0.15 -21.1 1.3 L-19.95 5.4 Q-18.75 11.0 -14.0 15.8 L-8.25 20.9 -8.1 20.8 -4.35 21.85 6.55 20.85 15.75 19.3 17.45 19.55 18.4 20.1 Q17.85 24.85 16.55 26.2 15.0 27.75 9.9 27.75 -5.7 27.75 -12.1 23.1 -14.0 21.75 -16.4 18.85 -18.85 15.9 -20.4 14.7 -22.1 13.35 -24.45 8.95 -27.95 2.4 -28.1 -4.5 -27.3 -8.1 -26.1 -11.15" fill="#464658" fill-rule="evenodd" stroke="none"/>
      <path d="M-8.1 20.8 Q-14.0 15.25 -15.95 11.9 -18.55 7.3 -18.55 0.4 -18.55 -2.75 -14.0 -11.85 -13.15 -13.6 -11.8 -14.35 -9.55 -15.7 -7.15 -17.9 -4.75 -20.15 -1.3 -21.0 L10.65 -21.65 Q15.65 -20.65 18.0 -18.25 19.7 -16.6 20.2 -12.95 20.9 -8.05 21.15 -7.4 22.15 -4.7 25.25 -4.35 25.25 -2.45 23.7 3.5 21.4 12.25 17.45 19.55 L15.75 19.3 6.55 20.85 -4.35 21.85 -8.1 20.8" fill="#353d58" fill-rule="evenodd" stroke="none"/>
      <path d="M22.2 -7.3 Q21.95 -14.4 19.8 -18.6 17.65 -22.85 8.85 -23.4 0.05 -23.95 -6.9 -19.9 -13.85 -15.9 -15.55 -11.35 -16.3 -9.3 -18.45 -5.15 -20.15 -1.1 -20.15 3.35 L-19.95 5.4 -21.1 1.3 Q-21.4 0.15 -21.4 -3.5 -21.4 -10.9 -17.45 -16.4 -10.3 -26.3 7.6 -26.3 14.7 -26.3 19.0 -23.2 24.6 -19.15 24.6 -10.4 L24.4 -7.85 24.05 -5.65 23.45 -5.65 Q22.9 -5.85 22.65 -7.6 L22.2 -7.3 M-28.1 -4.5 Q-27.95 2.4 -24.45 8.95 -22.1 13.35 -20.4 14.7 -18.85 15.9 -16.4 18.85 -14.0 21.75 -12.1 23.1 -5.7 27.75 9.9 27.75 15.0 27.75 16.55 26.2 17.85 24.85 18.4 20.1 19.2 21.55 19.35 23.2 18.3 27.5 14.6 29.55 11.75 31.15 8.1 31.15 6.05 31.15 0.25 29.8 L-11.9 27.05 Q-13.0 26.85 -15.8 25.2 -18.65 23.5 -20.15 22.05 -23.8 18.6 -25.75 14.0 L-28.15 6.2 -28.8 2.75 Q-28.8 0.05 -28.1 -4.5" fill="#252538" fill-rule="evenodd" stroke="none"/>
      <path d="M12.15 -18.85 L11.4 -18.9 11.25 -18.95 9.7 -19.0 7.45 -18.85 2.05 -18.0 0.5 -17.65 -0.5 -17.45 -1.25 -17.25 -3.75 -16.55 Q-8.1 -15.15 -11.2 -13.2 L-12.5 -12.3 -13.85 -11.25 -14.35 -10.8 -14.95 -10.25 -15.85 -9.3 -17.1 -7.7 -16.85 -9.3 -16.0 -10.9 Q-15.8 -11.55 -14.75 -11.85 L-14.7 -11.85 -12.95 -13.05 Q-10.8 -14.65 -8.15 -15.85 L-4.4 -18.4 -1.9 -18.85 -1.85 -18.9 Q0.8 -20.25 5.6 -20.25 L5.6 -20.4 12.35 -20.4 Q16.5 -21.2 19.9 -17.05 L23.95 -11.0 Q24.65 -10.2 26.7 -5.85 28.85 -1.25 28.85 -0.1 L28.05 5.25 27.85 6.45 Q27.65 9.35 25.75 12.35 24.05 15.0 21.15 17.45 L21.2 18.9 21.0 23.6 Q20.05 27.75 16.2 27.75 13.15 27.75 12.2 26.75 L12.15 26.7 Q10.4 28.25 8.45 28.25 6.55 28.25 5.9 27.2 4.6 28.65 2.1 28.65 0.15 28.65 -0.9 27.0 L-1.15 26.4 -1.4 26.65 Q-3.55 28.9 -6.05 28.9 -9.05 28.9 -9.9 27.4 L-10.15 25.8 Q-10.15 24.45 -8.35 21.6 L-9.65 20.75 -10.75 19.55 Q-9.4 20.3 -7.9 20.8 L-7.8 20.85 -6.85 21.55 -8.1 23.35 -8.75 24.6 -8.9 25.5 Q-8.9 27.05 -8.4 27.55 -7.95 28.0 -6.55 28.0 -5.2 28.0 -4.15 27.35 -2.9 26.5 -1.4 24.3 L-1.1 23.85 -1.1 23.8 -0.9 23.55 -0.9 25.45 -0.85 25.65 -0.8 26.0 Q-0.35 27.4 1.65 27.4 L3.65 26.95 Q5.4 26.0 5.35 23.6 L5.6 25.8 6.25 26.8 Q6.85 27.4 7.95 27.4 10.5 27.4 11.8 24.9 L12.15 24.0 12.35 23.6 Q12.5 24.9 13.1 25.7 14.05 26.9 16.15 26.9 17.7 26.9 18.75 24.3 L19.4 22.15 19.7 20.75 19.85 20.6 20.1 19.9 19.65 18.35 19.45 18.0 19.2 17.75 19.1 17.6 19.1 17.5 19.1 17.15 19.8 16.8 20.95 16.05 22.6 14.55 Q24.05 13.1 24.9 11.65 26.0 10.5 26.0 10.0 L25.9 9.6 25.8 9.6 26.0 8.95 26.0 8.9 26.15 8.55 26.05 8.7 27.05 5.05 27.1 4.9 Q27.45 3.7 27.45 1.85 27.45 -2.2 22.65 -9.55 L17.85 -16.15 17.55 -17.1 17.0 -17.5 Q15.85 -18.2 13.35 -18.6 L12.15 -18.85" fill="#696969" fill-rule="evenodd" stroke="none"/>
      <path d="M11.4 -18.9 L11.35 -18.9 11.1 -18.85 12.15 -18.85 13.35 -18.6 Q14.15 -17.95 15.35 -17.25 L15.3 -16.6 14.95 -16.5 Q14.55 -16.75 12.8 -17.2 L10.9 -17.6 Q-0.1 -15.2 -2.5 -13.35 L-5.6 -10.2 -9.35 -5.9 Q-10.95 -3.5 -12.45 2.65 -13.65 7.75 -13.65 9.25 -13.65 12.4 -10.0 17.05 L-9.85 17.25 -7.75 18.8 -6.9 19.45 -5.5 20.6 -5.15 21.0 Q-5.15 22.5 -6.65 23.25 L-6.85 23.25 -6.95 23.2 -7.0 23.45 -7.4 24.4 Q-6.1 26.0 -4.9 26.0 L-3.2 25.05 -2.35 24.55 -1.65 24.15 -1.3 23.95 -1.1 23.85 -1.4 24.3 Q-2.9 26.5 -4.15 27.35 -5.2 28.0 -6.55 28.0 -7.95 28.0 -8.4 27.55 -8.9 27.05 -8.9 25.5 L-8.75 24.6 -8.1 23.35 -6.85 21.55 -7.8 20.85 -7.9 20.8 Q-9.4 20.3 -10.75 19.55 -14.7 17.3 -17.45 12.7 -20.65 7.4 -20.65 3.4 -20.65 -1.05 -18.7 -5.05 L-17.1 -7.7 -15.85 -9.3 -14.95 -10.25 -14.35 -10.8 -13.85 -11.25 -12.5 -12.3 -11.2 -13.2 Q-8.1 -15.15 -3.75 -16.55 L-1.25 -17.25 -0.5 -17.45 0.5 -17.65 2.05 -18.0 7.45 -18.85 9.7 -19.0 11.25 -18.95 11.4 -18.9 M26.05 8.7 L26.15 8.55 26.0 8.9 26.0 8.95 25.8 9.6 25.9 9.6 26.0 10.0 Q26.0 10.5 24.9 11.65 24.05 13.1 22.6 14.55 L20.95 16.05 19.8 16.8 19.1 17.15 19.1 17.5 19.1 17.6 19.2 17.75 19.45 18.0 19.65 18.35 20.1 19.9 19.85 20.6 19.7 20.75 19.35 20.85 19.0 20.6 18.85 20.4 18.8 20.45 18.8 20.6 18.35 20.75 18.2 20.75 18.1 20.75 17.8 20.7 Q17.25 20.55 17.1 20.05 L17.1 19.8 17.0 19.4 16.6 19.5 15.4 19.3 15.2 19.1 14.5 19.95 13.45 21.25 Q12.75 20.7 12.75 20.4 12.75 19.8 13.25 19.15 L14.15 18.4 14.1 17.9 Q14.1 17.6 17.4 15.5 L20.05 13.85 21.0 13.0 23.25 10.85 Q23.95 10.25 24.45 9.95 L24.95 9.65 25.45 9.5 26.05 8.7 M18.75 24.3 Q17.7 26.9 16.15 26.9 14.05 26.9 13.1 25.7 12.5 24.9 12.35 23.6 L12.15 24.0 11.8 24.9 Q10.5 27.4 7.95 27.4 6.85 27.4 6.25 26.8 L5.6 25.8 5.35 23.6 Q5.4 26.0 3.65 26.95 L1.65 27.4 Q-0.35 27.4 -0.8 26.0 L-0.85 25.65 -0.9 25.45 -0.9 23.55 -1.1 23.8 -0.95 23.5 -0.3 22.4 -0.1 22.15 0.3 21.65 0.65 21.55 0.8 21.7 0.9 21.8 0.95 22.5 0.95 22.8 0.3 25.3 1.0 25.7 0.8 25.75 1.35 25.75 Q2.95 25.75 4.4 24.4 L5.2 23.75 5.35 23.6 Q5.95 23.05 6.1 23.05 6.25 23.05 7.0 23.9 L7.2 24.15 8.75 25.8 11.35 23.85 11.85 23.35 12.15 23.1 13.0 22.5 13.1 22.4 13.25 22.55 13.6 23.05 13.9 24.15 13.9 24.6 14.0 25.15 16.15 25.4 17.25 25.05 18.55 24.4 18.75 24.3 M-4.45 7.6 L-5.3 6.0 -5.65 4.4 -5.45 3.4 -5.2 2.65 Q-5.1 0.6 -5.35 0.45 -5.75 0.6 -6.0 0.15 L-4.3 -0.5 Q4.65 0.15 5.85 -0.3 L6.9 -1.0 7.6 -1.9 Q8.1 -1.7 8.2 -1.2 L7.6 0.75 6.8 2.1 Q6.45 2.45 6.5 2.95 L6.6 3.65 Q6.35 5.65 5.15 7.65 3.8 9.95 2.1 10.1 L-0.35 10.5 -0.95 10.45 -1.05 10.35 -0.3 9.95 1.4 8.95 2.05 8.6 3.7 6.75 Q4.5 5.7 4.5 4.6 4.5 2.6 3.95 1.95 L3.7 1.85 -2.05 1.35 -2.45 1.5 Q-3.55 1.75 -3.85 2.5 -4.7 4.35 -4.7 5.7 L-4.45 7.6 M13.3 7.25 L12.1 6.05 Q11.85 5.9 11.85 4.85 11.85 4.35 12.45 3.4 13.05 2.45 13.05 1.95 L12.75 0.55 Q12.6 0.15 13.3 -0.85 L13.65 -0.3 Q13.95 0.15 14.55 0.15 15.0 0.15 17.35 -1.15 19.75 -2.5 21.8 -2.5 L22.75 -2.25 24.5 -1.5 Q24.15 -0.3 23.95 1.7 23.75 3.45 23.35 4.45 L23.3 4.3 Q23.05 3.85 22.9 2.3 L22.7 0.75 22.5 0.65 22.6 0.25 Q22.6 -1.15 21.25 -0.8 L19.45 -0.05 Q15.85 1.4 14.45 2.2 12.9 3.8 12.9 5.0 L13.3 7.25 M10.7 16.4 L10.75 16.25 12.3 13.0 Q13.2 10.7 13.35 9.55 L12.6 9.0 11.85 9.8 Q10.65 10.5 6.4 11.65 L6.8 12.3 Q5.9 12.55 5.25 11.65 6.6 10.1 9.8 9.15 11.95 8.5 12.85 8.5 13.55 8.5 14.1 9.0 14.7 9.6 14.7 10.55 12.95 15.5 11.1 16.65 L10.7 16.4" fill="#afafad" fill-rule="evenodd" stroke="none"/>
      <path d="M12.15 -18.85 L11.1 -18.85 11.35 -18.9 11.4 -18.9 12.15 -18.85 M-1.1 23.85 L-1.3 23.95 -1.65 24.15 -2.35 24.55 -3.2 25.05 -4.9 26.0 Q-6.1 26.0 -7.4 24.4 L-7.0 23.45 -6.95 23.2 -6.85 23.25 -6.65 23.25 Q-5.15 22.5 -5.15 21.0 L-5.5 20.6 -6.9 19.45 -7.75 18.8 -9.85 17.25 -10.0 17.05 Q-13.65 12.4 -13.65 9.25 -13.65 7.75 -12.45 2.65 -10.95 -3.5 -9.35 -5.9 L-5.6 -10.2 -2.5 -13.35 Q-0.1 -15.2 10.9 -17.6 L12.8 -17.2 Q14.55 -16.75 14.95 -16.5 L15.3 -16.6 15.35 -17.25 Q14.15 -17.95 13.35 -18.6 15.85 -18.2 17.0 -17.5 L17.55 -17.1 17.85 -16.15 22.65 -9.55 Q27.45 -2.2 27.45 1.85 27.45 3.7 27.1 4.9 L27.05 5.05 26.05 8.7 25.45 9.5 24.95 9.65 24.45 9.95 Q23.95 10.25 23.25 10.85 L21.0 13.0 20.05 13.85 17.4 15.5 Q14.1 17.6 14.1 17.9 L14.15 18.4 13.25 19.15 Q12.75 19.8 12.75 20.4 12.75 20.7 13.45 21.25 L14.5 19.95 15.2 19.1 15.4 19.3 16.6 19.5 17.0 19.4 17.1 19.8 17.1 20.05 Q17.25 20.55 17.8 20.7 L18.1 20.75 18.2 20.75 18.35 20.75 18.8 20.6 18.8 20.45 18.85 20.4 19.0 20.6 19.35 20.85 19.7 20.75 19.4 22.15 18.75 24.3 18.55 24.4 17.25 25.05 16.15 25.4 14.0 25.15 13.9 24.6 13.9 24.15 13.6 23.05 13.25 22.55 13.1 22.4 13.0 22.5 12.15 23.1 11.85 23.35 11.35 23.85 8.75 25.8 7.2 24.15 7.0 23.9 Q6.25 23.05 6.1 23.05 5.95 23.05 5.35 23.6 L5.2 23.75 4.4 24.4 Q2.95 25.75 1.35 25.75 L0.8 25.75 1.0 25.7 0.3 25.3 0.95 22.8 0.95 22.5 0.9 21.8 0.8 21.7 0.65 21.55 0.3 21.65 -0.1 22.15 -0.3 22.4 -0.95 23.5 -1.1 23.8 -1.1 23.85 M-0.3 9.95 L-1.05 10.35 -0.95 10.45 -0.35 10.5 2.1 10.1 Q3.8 9.95 5.15 7.65 6.35 5.65 6.6 3.65 L6.5 2.95 Q6.45 2.45 6.8 2.1 L7.6 0.75 8.2 -1.2 Q8.1 -1.7 7.6 -1.9 L6.9 -1.0 5.85 -0.3 Q4.65 0.15 -4.3 -0.5 L-6.0 0.15 Q-5.75 0.6 -5.35 0.45 -5.1 0.6 -5.2 2.65 L-5.45 3.4 -5.65 4.4 -5.3 6.0 -4.45 7.6 -3.1 9.6 Q-2.05 10.35 -0.3 9.95 M23.3 4.3 L23.35 4.45 Q23.75 3.45 23.95 1.7 24.15 -0.3 24.5 -1.5 L22.75 -2.25 21.8 -2.5 Q19.75 -2.5 17.35 -1.15 15.0 0.15 14.55 0.15 13.95 0.15 13.65 -0.3 L13.3 -0.85 Q12.6 0.15 12.75 0.55 L13.05 1.95 Q13.05 2.45 12.45 3.4 11.85 4.35 11.85 4.85 11.85 5.9 12.1 6.05 L13.3 7.25 Q14.0 8.85 16.85 9.7 19.4 9.7 22.65 7.05 L23.1 6.3 23.3 4.3 M10.7 16.4 L11.1 16.65 Q12.95 15.5 14.7 10.55 14.7 9.6 14.1 9.0 13.55 8.5 12.85 8.5 11.95 8.5 9.8 9.15 6.6 10.1 5.25 11.65 5.9 12.55 6.8 12.3 L8.2 15.9 Q8.6 17.05 9.55 17.05 10.45 17.05 10.7 16.4" fill="#e0e0de" fill-rule="evenodd" stroke="none"/>
      <path d="M-4.45 7.6 L-4.7 5.7 Q-4.7 4.35 -3.85 2.5 -3.55 1.75 -2.45 1.5 L-2.05 1.35 3.7 1.85 3.95 1.95 Q4.5 2.6 4.5 4.6 4.5 5.7 3.7 6.75 L2.05 8.6 1.4 8.95 -0.3 9.95 Q-2.05 10.35 -3.1 9.6 L-4.45 7.6 M13.3 7.25 L12.9 5.0 Q12.9 3.8 14.45 2.2 15.85 1.4 19.45 -0.05 L21.25 -0.8 Q22.6 -1.15 22.6 0.25 L22.5 0.65 22.7 0.75 22.9 2.3 Q23.05 3.85 23.3 4.3 L23.1 6.3 22.65 7.05 Q19.4 9.7 16.85 9.7 14.0 8.85 13.3 7.25 M6.8 12.3 L6.4 11.65 Q10.65 10.5 11.85 9.8 L12.6 9.0 13.35 9.55 Q13.2 10.7 12.3 13.0 L10.75 16.25 10.7 16.4 Q10.45 17.05 9.55 17.05 8.6 17.05 8.2 15.9 L6.8 12.3" fill="#191919" fill-rule="evenodd" stroke="none"/>
    </g>
    <g id="sprite13" transform="matrix(1.0, 0.0, 0.0, 1.0, 1.45, 1.65)">
      <use ffdec:characterId="381" height="3.35" transform="matrix(1.0, 0.0, 0.0, 1.0, -1.45, -1.65)" width="2.9" xlink:href="#shape15"/>
    </g>
    <g id="shape15" transform="matrix(1.0, 0.0, 0.0, 1.0, 1.45, 1.65)">
      <path d="M1.45 -0.4 L1.15 0.8 Q0.7 1.7 -0.2 1.7 -1.2 1.7 -1.4 1.0 L-1.45 0.2 Q-1.45 -1.5 0.0 -1.65 1.45 -1.8 1.45 -0.4" fill="#ff0000" fill-rule="evenodd" stroke="none"/>
    </g>
    <g id="sprite14" transform="matrix(1.0, 0.0, 0.0, 1.0, 50.55, 63.4)">
      <use ffdec:characterId="385" height="84.75" transform="matrix(0.9989, 0.0469, -0.0469, 0.9989, -30.4014, -49.4364)" width="68.25" xlink:href="#sprite15"/>
    </g>
    <g id="sprite15" transform="matrix(1.0, 0.0, 0.0, 1.0, 45.6, 45.85)">
      <use ffdec:characterId="384" height="84.75" transform="matrix(1.0, 0.0, 0.0, 1.0, -45.6, -45.85)" width="68.25" xlink:href="#shape16"/>
    </g>
    <g id="shape16" transform="matrix(1.0, 0.0, 0.0, 1.0, 45.6, 45.85)">
      <path d="M-38.4 -26.15 Q-44.75 -17.45 -44.75 -8.05 L-44.6 -6.0 -44.4 -5.8 -43.6 -5.65 Q-43.25 -5.65 -41.85 -7.1 L-37.95 -11.25 -37.5 -11.8 -34.5 -15.05 -32.95 -16.55 -28.85 -19.6 Q-25.75 -21.35 -19.5 -24.0 -15.75 -25.6 -15.75 -26.6 L-18.35 -32.55 Q-21.0 -38.3 -21.0 -39.25 L-20.95 -41.2 -20.9 -41.2 -21.05 -41.35 Q-20.85 -42.0 -21.85 -42.0 -22.4 -42.0 -24.4 -40.55 L-27.9 -37.9 -32.95 -33.25 -37.0 -28.2 -38.4 -26.15 M-43.85 -5.1 Q-45.25 -5.1 -45.55 -6.35 L-45.6 -7.65 Q-45.6 -19.65 -39.85 -27.5 -37.95 -30.05 -35.45 -32.2 L-32.5 -34.5 Q-30.65 -36.25 -27.7 -40.15 -25.0 -43.15 -22.05 -43.15 -19.95 -43.15 -19.55 -42.25 -19.35 -41.85 -19.3 -39.15 -19.3 -38.25 -17.7 -35.0 L-16.0 -31.55 -14.8 -28.45 Q-14.25 -27.1 -14.25 -26.6 -14.25 -25.3 -16.35 -24.6 -20.35 -23.3 -24.15 -20.8 -28.25 -18.05 -36.45 -11.2 L-43.85 -5.1" fill="#7b969c" fill-rule="evenodd" stroke="none"/>
      <path d="M-37.95 -11.25 L-41.85 -7.1 Q-43.25 -5.65 -43.6 -5.65 L-44.4 -5.8 -44.6 -6.0 -44.75 -8.05 Q-44.75 -17.45 -38.4 -26.15 L-38.4 -22.5 -38.45 -22.5 -38.6 -17.75 -38.4 -14.7 -37.95 -11.25 M-37.0 -28.2 L-32.95 -33.25 -33.25 -25.2 -32.95 -16.55 -34.5 -15.05 -37.5 -11.8 -37.65 -17.35 -37.0 -28.2 M-27.9 -37.9 L-24.4 -40.55 Q-22.4 -42.0 -21.85 -42.0 -20.85 -42.0 -21.05 -41.35 L-20.95 -41.2 -21.0 -39.25 Q-21.0 -38.3 -18.35 -32.55 L-15.75 -26.6 Q-15.75 -25.6 -19.5 -24.0 -25.75 -21.35 -28.85 -19.6 -28.85 -27.85 -27.9 -37.9" fill="#a2cad4" fill-rule="evenodd" stroke="none"/>
      <path d="M-37.95 -11.25 L-38.4 -14.7 -38.6 -17.75 -38.45 -22.5 -38.4 -22.5 -38.4 -26.15 -37.0 -28.2 -37.65 -17.35 -37.5 -11.8 -37.95 -11.25 M-32.95 -33.25 L-27.9 -37.9 Q-28.85 -27.85 -28.85 -19.6 L-32.95 -16.55 -33.25 -25.2 -32.95 -33.25" fill="#d8e8ec" fill-rule="evenodd" stroke="none"/>
      <path d="M-16.75 -37.5 L-11.5 -28.3 Q-11.25 -28.65 -9.35 -25.7 L-7.55 -22.7 -2.05 -12.75 1.35 -5.95 Q9.15 8.8 10.7 12.5 11.8 14.7 18.3 24.9 22.65 31.65 22.65 34.85 22.65 36.35 22.15 37.4 21.45 38.9 19.9 38.9 17.5 38.9 10.7 26.15 L4.25 13.25 Q2.2 10.6 -0.25 6.4 L-3.2 0.95 Q-5.7 -4.2 -6.6 -6.75 -7.55 -9.65 -8.65 -11.6 L-10.55 -14.55 Q-11.75 -16.45 -11.75 -17.05 -11.75 -18.45 -18.4 -28.4 -25.1 -38.3 -25.1 -41.9 -25.1 -43.3 -23.85 -44.65 -22.7 -45.85 -21.8 -45.85 -21.6 -45.85 -16.75 -37.5 M21.4 36.8 L21.95 36.45 Q22.15 36.25 22.15 35.65 22.15 34.6 18.7 28.75 L11.15 15.7 0.5 -5.15 -5.4 -15.65 -11.1 -25.35 -16.65 -35.3 Q-19.8 -42.1 -22.4 -44.3 L-22.4 -44.5 -22.55 -44.45 -23.25 -44.5 Q-23.95 -44.45 -23.95 -43.85 -23.95 -42.85 -23.4 -41.0 L-22.95 -39.0 -22.2 -37.45 -19.95 -33.9 Q-18.35 -31.4 -17.25 -29.0 L-11.85 -19.55 Q-7.1 -11.45 -5.3 -7.6 -0.1 3.4 8.55 18.55 16.55 32.6 18.6 37.3 L20.15 37.35 Q21.15 37.35 21.4 36.8" fill="#2a1908" fill-rule="evenodd" stroke="none"/>
      <path d="M-22.4 -44.3 Q-22.45 -41.3 -19.0 -34.9 -17.1 -31.4 -14.4 -27.1 L-8.1 -15.5 -2.1 -4.95 2.85 3.7 11.6 21.2 Q17.9 33.35 21.8 36.35 L21.4 36.8 Q21.15 37.35 20.15 37.35 L18.6 37.3 Q16.55 32.6 8.55 18.55 -0.1 3.4 -5.3 -7.6 -7.1 -11.45 -11.85 -19.55 L-17.25 -29.0 Q-18.35 -31.4 -19.95 -33.9 L-22.2 -37.45 -22.95 -39.0 -23.4 -41.0 Q-23.95 -42.85 -23.95 -43.85 -23.95 -44.45 -23.25 -44.5 L-22.55 -44.45 -22.4 -44.5 -22.4 -44.3" fill="#58340e" fill-rule="evenodd" stroke="none"/>
      <path d="M21.4 36.8 L21.8 36.35 Q17.9 33.35 11.6 21.2 L2.85 3.7 -2.1 -4.95 -8.1 -15.5 -14.4 -27.1 Q-17.1 -31.4 -19.0 -34.9 -22.45 -41.3 -22.4 -44.3 -19.8 -42.1 -16.65 -35.3 L-11.1 -25.35 -5.4 -15.65 0.5 -5.15 11.15 15.7 18.7 28.75 Q22.15 34.6 22.15 35.65 22.15 36.25 21.95 36.45 L21.4 36.8" fill="#794715" fill-rule="evenodd" stroke="none"/>
      <path d="M0.45 -7.75 Q2.65 -7.75 4.25 -6.9 L6.35 -5.55 Q6.35 -4.55 6.0 -3.85 L7.2 -3.15 7.5 -2.7 7.55 -1.85 7.5 -1.0 7.7 0.05 7.7 0.45 7.8 0.65 7.85 0.8 7.9 1.0 7.9 1.4 7.9 1.75 8.0 1.95 8.1 2.15 8.15 2.3 8.15 2.5 8.15 2.7 8.15 2.9 8.15 3.05 Q7.3 3.7 5.75 4.15 3.5 4.75 2.25 6.0 1.35 6.9 -0.8 6.9 -2.6 6.9 -3.85 5.65 -5.0 4.55 -5.0 3.15 L-4.85 1.8 Q-4.8 1.2 -5.0 1.05 -6.5 0.85 -7.25 -0.25 L-7.7 -1.45 Q-7.7 -2.9 -7.0 -4.25 -6.4 -5.45 -5.55 -6.0 L-2.3 -7.05 0.45 -7.75 M4.95 -4.65 L5.0 -5.05 Q3.75 -6.6 1.45 -6.9 -0.4 -7.1 -1.65 -6.5 L-2.85 -6.35 -4.65 -5.55 Q-5.85 -4.95 -6.25 -4.55 -6.95 -2.8 -6.95 -1.9 L-6.9 -0.9 -6.75 -0.9 -6.65 -0.65 -5.8 0.25 -5.7 0.3 -5.6 0.35 Q-4.75 0.5 -4.15 1.1 L-3.95 1.4 -4.2 1.9 Q-4.4 2.25 -3.8 2.25 L-3.3 4.0 Q-2.45 5.75 -0.55 5.75 1.7 5.75 3.05 4.65 L4.45 3.2 Q5.3 2.8 6.25 2.7 6.95 2.65 7.25 2.25 L6.95 0.8 Q6.6 0.15 6.15 0.15 L3.55 -0.05 2.65 -0.1 2.6 -0.1 2.55 -0.15 2.45 -0.2 2.35 -0.2 2.35 -0.25 0.8 -0.9 1.1 -1.35 3.35 -0.8 5.6 -0.5 Q6.9 -0.5 6.75 -1.9 6.1 -2.5 4.5 -2.95 L1.5 -3.5 1.35 -3.95 4.3 -3.95 4.95 -4.65" fill="#696969" fill-rule="evenodd" stroke="none"/>
      <path d="M-1.65 -6.5 Q-0.4 -7.1 1.45 -6.9 3.75 -6.6 5.0 -5.05 L4.95 -4.65 Q3.7 -5.3 2.65 -5.25 L-0.2 -5.05 -0.65 -5.5 -1.65 -6.5 M1.5 -3.5 L4.5 -2.95 Q6.1 -2.5 6.75 -1.9 L2.5 -1.7 Q2.2 -1.7 1.75 -2.0 1.05 -2.45 0.75 -3.4 L0.75 -3.55 1.5 -3.5 M2.35 -0.25 L2.35 -0.2 2.45 -0.2 2.55 -0.15 2.6 -0.1 2.65 -0.1 3.55 -0.05 3.3 0.05 6.15 0.15 Q6.6 0.15 6.95 0.8 L7.25 2.25 5.75 2.0 3.65 2.1 Q2.3 1.0 2.3 0.25 L2.35 -0.25 M-5.8 0.25 L-6.65 -0.65 -6.4 -0.35 -5.8 0.25 M-6.25 -4.55 Q-5.85 -4.95 -4.65 -5.55 L-2.85 -6.35 -1.55 -5.05 Q-0.55 -4.25 -0.45 -3.4 -0.2 -1.3 0.35 -1.05 L0.95 -0.5 1.2 1.15 1.7 2.45 1.45 3.45 Q1.3 3.8 0.7 3.8 -2.8 3.8 -3.05 1.95 L-2.6 -0.05 Q-2.6 -0.45 -4.15 -1.45 L-5.75 -2.4 -5.95 -3.55 -6.25 -4.55" fill="#e0e0de" fill-rule="evenodd" stroke="none"/>
      <path d="M-1.65 -6.5 L-0.65 -5.5 -0.2 -5.05 2.65 -5.25 Q3.7 -5.3 4.95 -4.65 L4.3 -3.95 1.35 -3.95 1.5 -3.5 0.75 -3.55 0.75 -3.4 Q1.05 -2.45 1.75 -2.0 2.2 -1.7 2.5 -1.7 L6.75 -1.9 Q6.9 -0.5 5.6 -0.5 L3.35 -0.8 1.1 -1.35 0.8 -0.9 2.35 -0.25 2.3 0.25 Q2.3 1.0 3.65 2.1 L5.75 2.0 7.25 2.25 Q6.95 2.65 6.25 2.7 5.3 2.8 4.45 3.2 L3.05 4.65 Q1.7 5.75 -0.55 5.75 -2.45 5.75 -3.3 4.0 L-3.8 2.25 Q-4.4 2.25 -4.2 1.9 L-3.95 1.4 -4.15 1.1 Q-4.75 0.5 -5.6 0.35 L-5.7 0.3 -5.8 0.25 -6.4 -0.35 -6.65 -0.65 -6.75 -0.9 -6.9 -0.9 -6.95 -1.9 Q-6.95 -2.8 -6.25 -4.55 L-5.95 -3.55 -5.75 -2.4 -4.15 -1.45 Q-2.6 -0.45 -2.6 -0.05 L-3.05 1.95 Q-2.8 3.8 0.7 3.8 1.3 3.8 1.45 3.45 L1.7 2.45 1.2 1.15 0.95 -0.5 0.35 -1.05 Q-0.2 -1.3 -0.45 -3.4 -0.55 -4.25 -1.55 -5.05 L-2.85 -6.35 -1.65 -6.5 M3.55 -0.05 L6.15 0.15 3.3 0.05 3.55 -0.05" fill="#afafad" fill-rule="evenodd" stroke="none"/>
    </g>
  </defs>
</svg>
