<svg width="935" height="1053" viewBox="0 0 935 1053" fill="none" xmlns="http://www.w3.org/2000/svg">
<path d="M293.504 1.0543C400.223 -1.0967 507.742 0.704285 614.54 0.737285L713.362 0.72227C741.067 0.64327 769.614 -0.57369 796.985 2.76231C816.419 5.13131 830.925 10.9363 845.183 19.8503C871.267 36.1583 887.657 59.8543 899.486 81.9273C911.99 103.572 925.749 122.957 929.185 146.476C935.431 189.236 932.979 240.636 933.344 284.076L934.156 529.256L933.89 774.366C933.833 818.826 937.11 864.316 932.161 908.616C929.09 936.096 922.159 963.146 905.165 988.446C889.64 1011.57 863.417 1037.47 826.679 1046.92C813.97 1050.18 801.107 1051.46 787.602 1051.91C755.1 1053.01 721.909 1051.64 689.343 1051.52L512.163 1051.5L294.694 1051.62C256.387 1051.67 217.69 1052.75 179.437 1051.67C162.176 1051.17 140.647 1050.31 124.716 1045.56C77.754 1031.55 48.6102 1002.86 32.0047 971.406C24.3953 956.996 14.7614 938.646 13.8342 923.326C-4.35505 879.076 0.51335 830.816 0.80545 785.456C1.03135 750.386 0.528551 715.336 2.34825 680.286C-1.66195 658.406 1.22675 634.216 1.38145 612.066L1.70655 486.586L1.76775 238.376C1.86695 189.996 -4.69055 135.389 8.97795 87.9983C15.9079 72.0113 23.6593 56.6343 36.5579 42.2953C54.9752 21.8233 77.6631 8.54132 113.172 2.70732C139.303 -0.580683 168.084 0.738312 194.643 0.715312C227.531 0.687312 260.645 0.160302 293.504 1.0543Z" fill="url(#paint0_linear_204_176)"/>
<path d="M899.486 81.9273C911.99 103.572 925.749 122.957 929.185 146.476C935.431 189.236 932.979 240.636 933.344 284.076L934.156 529.256L933.89 774.366C933.833 818.826 937.11 864.316 932.161 908.616C929.09 936.096 922.159 963.146 905.165 988.446C889.64 1011.57 863.417 1037.47 826.679 1046.92C813.97 1050.18 801.107 1051.46 787.602 1051.91C755.1 1053.01 721.909 1051.64 689.343 1051.52L512.163 1051.5L294.694 1051.62C256.387 1051.67 217.69 1052.75 179.437 1051.67C162.176 1051.17 140.647 1050.31 124.716 1045.56C77.7541 1031.55 48.6103 1002.86 32.0048 971.406C24.3954 956.996 14.7614 938.646 13.8342 923.326C29.6948 951.826 53.4201 981.626 93.4261 998.006C109.441 1004.57 125.965 1004.7 144.283 1005.41C191.701 1007.25 239.666 1005.76 287.178 1005.73L555.366 1005.67L676.726 1005.75C709.912 1005.96 764.468 1009.87 795.214 1004.38C828.447 998.446 857.383 980.736 874.351 961.126C894.669 937.636 903.947 912.276 906.899 885.416C911.833 840.506 907.598 794.766 907.407 749.746L907.115 502.356L906.901 231.076C906.964 197.696 915.106 129.913 903.151 100.036C902.672 94.0163 900.807 87.8953 899.486 81.9273Z" fill="#000D18"/>
<path d="M855.449 71.5113C857.113 65.5573 858.967 56.8293 866.059 52.6193C870.593 52.8093 869.25 52.1913 872.075 54.1873C888.963 66.1183 884.782 88.3363 903.151 100.036C915.106 129.913 906.964 197.696 906.901 231.076L907.115 502.356L907.407 749.746C907.598 794.766 911.833 840.506 906.899 885.416C903.947 912.276 894.669 937.636 874.351 961.126C857.383 980.736 828.447 998.446 795.214 1004.38C764.468 1009.87 709.912 1005.96 676.726 1005.75L555.366 1005.67L287.178 1005.73C239.666 1005.76 191.701 1007.25 144.283 1005.41C125.965 1004.7 109.441 1004.57 93.426 998.006C53.42 981.626 29.6948 951.826 13.8342 923.326C-4.35505 879.076 0.51335 830.816 0.80545 785.456C1.03135 750.386 0.528551 715.336 2.34825 680.286C11.4747 699.766 1.89615 778.066 5.45815 805.746C11.0116 790.326 7.18325 769.856 7.52015 753.756C8.11775 725.196 9.31205 695.666 12.4634 667.196C13.4612 658.176 21.8733 650.726 22.5144 641.716C24.3099 616.476 17.4281 589.846 25.8799 564.966C26.6588 553.926 23.5867 542.156 26.6343 531.396C27.2012 529.396 27.7671 527.416 28.3918 525.416C32.4924 559.476 31.005 594.126 31.061 628.276L30.549 779.986C30.1977 803.786 30.9984 827.326 31.704 851.116C32.02 861.776 30.3178 873.476 32.3671 883.986C33.5702 912.106 51.4974 940.156 82.248 959.416C89.89 964.206 99.721 966.806 107.188 971.246C147.871 980.476 266.265 976.096 316.792 975.976L582.532 975.306C627.783 975.336 673.753 974.626 718.934 976.206C754.737 975.816 790.778 978.476 821.496 963.466C852.78 948.176 871.1 917.086 876.298 892.136C884.017 855.086 878.832 815.966 878.456 778.666L878.296 591.256L878.239 290.746C878.278 239.066 882.486 186.566 877.585 134.988C875.939 117.67 870.739 85.2353 855.449 71.5113Z" fill="url(#paint1_linear_204_176)"/>
<path d="M107.188 971.246C147.871 980.476 266.265 976.096 316.792 975.976L582.532 975.306C627.783 975.336 673.753 974.626 718.934 976.206C727.392 979.836 752.776 977.726 763.616 977.496C758.109 979.136 752.564 979.666 746.58 979.846C714.079 980.836 681.005 979.246 648.4 979.646C622.299 979.966 596.435 982.376 570.249 982.496C533.505 982.666 497.996 980.296 461.48 979.446C436.56 978.866 410.927 979.176 385.923 979.016C368.477 978.906 351.065 980.156 333.572 980.056C300.965 979.886 267.921 978.336 235.383 978.736C198.636 979.176 158.113 983.316 121.875 977.216C115.482 976.146 110.739 975.016 107.188 971.246Z" fill="#4C1B01"/>
<path d="M293.504 1.0543C400.223 -1.0967 507.742 0.704285 614.54 0.737285L713.362 0.72227C741.067 0.64327 769.614 -0.57369 796.985 2.76231C816.419 5.13131 830.925 10.9363 845.183 19.8503C871.267 36.1583 887.657 59.8543 899.486 81.9273C900.807 87.8953 902.672 94.0163 903.151 100.036C884.782 88.3363 888.963 66.1183 872.075 54.1873C869.25 52.1913 870.593 52.8093 866.059 52.6193C858.967 56.8293 857.113 65.5573 855.449 71.5113C851.095 68.1353 846.897 64.6803 841.902 61.7113C823.397 57.1053 814.477 41.3573 790.843 37.3353C747.917 30.0313 681.221 35.3673 635.365 35.5563L350.04 35.9493C320.68 32.6313 267.715 40.2383 242.414 34.6383L240.461 31.5863C211.601 29.0463 163.374 36.2533 139.089 30.4823C129.951 28.3113 124.293 24.4363 120.474 18.5753L119.322 16.7603C116.151 11.8973 113.261 8.08432 113.172 2.70732C139.303 -0.580683 168.084 0.738312 194.643 0.715312C227.531 0.687312 260.645 0.160302 293.504 1.0543Z" fill="url(#paint2_linear_204_176)"/>
<path d="M113.172 2.70736C139.303 -0.580638 168.084 0.738357 194.643 0.715357C227.531 0.687357 260.645 0.160347 293.504 1.05435C309.627 5.20235 333.649 3.12836 350.887 2.99636C325.418 12.1494 294.853 18.9273 271.3 29.7783L270.797 31.4494L240.461 31.5863C211.601 29.0463 163.374 36.2533 139.089 30.4823C129.951 28.3113 124.293 24.4363 120.474 18.5753L119.322 16.7603C116.151 11.8973 113.261 8.08436 113.172 2.70736Z" fill="#E88C13"/>
<path d="M270.797 31.4493C389.899 32.6943 509.236 31.5903 628.36 31.4373C669.153 31.3853 745.513 28.0723 781.716 32.7963C800.157 35.2023 816.16 42.6113 829.031 51.4883C833.715 54.7183 837.951 58.0693 841.902 61.7113C823.397 57.1053 814.477 41.3573 790.843 37.3353C747.917 30.0313 681.221 35.3673 635.365 35.5563L350.04 35.9493C320.68 32.6313 267.715 40.2383 242.414 34.6383L240.461 31.5863L270.797 31.4493Z" fill="#F8CE4B"/>
<path d="M2.34825 680.286C-1.66195 658.406 1.22675 634.216 1.38145 612.066L1.70655 486.586L1.76775 238.376C1.86695 189.996 -4.69055 135.389 8.97795 87.9983C17.1935 90.7793 27.4379 93.5873 30.2338 100.093C33.2189 107.038 32.1173 183.926 30.7242 196.416C28.8168 213.906 29.9735 231.636 29.609 249.176L26.7444 343.466L22.8899 479.806C22.2518 501.946 20.4699 524.246 20.8351 546.376C20.9298 552.116 20.2674 558.996 23.5629 564.386L25.8798 564.966C17.428 589.846 24.3098 616.476 22.5143 641.716C21.8732 650.726 13.4611 658.176 12.4633 667.196C9.31205 695.666 8.11775 725.196 7.52015 753.756C7.18325 769.856 11.0115 790.326 5.45815 805.746C1.89615 778.066 11.4746 699.766 2.34825 680.286Z" fill="#D27B08"/>
<path d="M8.97803 87.9983C15.9079 72.0113 23.6594 56.6343 36.558 42.2953C54.9753 21.8233 77.6631 8.54134 113.172 2.70734C113.261 8.08434 116.151 11.8973 119.322 16.7603L120.474 18.5753C124.293 24.4363 129.951 28.3113 139.089 30.4823C163.374 36.2533 211.601 29.0463 240.461 31.5863L242.414 34.6383C267.715 40.2383 320.68 32.6313 350.04 35.9493L346.452 36.2033C300.965 39.1953 246.069 37.2993 199.796 36.6733C171.021 36.2843 139.229 33.4993 111.308 38.8693C95.1311 41.9813 82.9661 47.9093 72.2761 56.5003C53.9512 71.2293 41.1643 90.0473 37.7179 109.028C34.9985 124.004 36.1638 139.584 36.199 154.656L36.326 223.516L36.2304 455.806L36.2427 670.696C36.3433 687.283 36.1176 703.87 35.5654 720.456C35.219 728.256 33.0939 737.106 34.1084 744.806C36.2242 756.706 38.4461 879.126 35.204 882.806L32.3671 883.986C30.3178 873.476 32.02 861.776 31.704 851.116C30.9984 827.326 30.1977 803.786 30.549 779.986L31.061 628.276C31.005 594.126 32.4925 559.476 28.3919 525.416C27.7672 527.416 27.2012 529.396 26.6343 531.396C23.5867 542.156 26.6588 553.926 25.8799 564.966L23.563 564.386C20.2675 558.996 20.9299 552.116 20.8352 546.376C20.47 524.246 22.2519 501.946 22.89 479.806L26.7445 343.466L29.6091 249.176C29.9736 231.636 28.8169 213.906 30.7243 196.416C32.1174 183.926 33.219 107.038 30.2339 100.093C27.438 93.5873 17.1936 90.7793 8.97803 87.9983Z" fill="#F9B635"/>
<path d="M30.7243 196.416C35.7894 245.026 32.0032 298.896 32.1215 348.116L32.881 638.116C32.9109 658.016 28.416 731.956 34.1084 744.806C36.2242 756.706 38.4461 879.126 35.204 882.806L32.3671 883.986C30.3178 873.476 32.02 861.776 31.704 851.116C30.9984 827.326 30.1977 803.786 30.549 779.986L31.061 628.276C31.005 594.126 32.4925 559.476 28.3919 525.416C27.7672 527.416 27.2012 529.396 26.6343 531.396C23.5867 542.156 26.6588 553.926 25.8799 564.966L23.563 564.386C20.2675 558.996 20.9299 552.116 20.8352 546.376C20.47 524.246 22.2519 501.946 22.89 479.806L26.7445 343.466L29.6091 249.176C29.9736 231.636 28.8169 213.906 30.7243 196.416Z" fill="#E88C13"/>
<path d="M139.87 72.1743C151.686 68.6873 163.114 68.2763 175.867 67.9663C215.596 67.0013 255.851 68.1123 295.648 68.1293L544.705 68.1543C587.836 68.1996 630.965 68.0923 674.093 67.8323C704.375 67.7103 738.868 65.7543 768.56 70.1313C776.136 72.9163 783.515 75.4743 790.108 79.2603C803.112 85.9893 811.103 93.0143 819.298 102.396C827.717 111.076 832.881 120.554 837.494 130.381C851.242 164.416 844.451 235.976 844.447 274.056L844.453 497.676C845.061 585.856 844.618 674.033 843.124 762.206C842.629 789.306 846.177 817.146 843.648 844.116C842.293 858.576 835.194 872.496 827.418 885.936L822.29 888.766L822.32 889.966L827.564 889.536C827.533 893.966 822.856 897.986 819.536 901.686C806.505 918.246 788.065 932.676 759.873 937.946C724.999 944.466 574.182 941.076 528.098 941.076C427.576 941.076 327.294 941.606 226.855 939.346C204.953 938.856 182.985 940.146 161.103 939.046C148.852 938.426 139.112 937.716 128.45 933.216C121.32 930.206 113.702 926.526 109.973 921.336C107.314 917.926 102.881 914.996 99.6743 911.736C86.9133 898.796 75.0123 884.126 70.6903 868.776C63.0263 841.556 66.5823 812.396 67.0283 784.796L67.3643 691.406L67.2343 494.206C67.1233 452.636 65.6763 411.166 68.2753 369.606C67.6113 299.666 64.4933 229.716 68.3403 159.796C68.0963 144.039 74.6383 126.89 84.2133 112.547C94.9663 96.4373 114.393 78.6613 139.87 72.1743Z" fill="url(#paint3_linear_204_176)"/>
<path d="M98.6963 117.452C107.991 107.836 116.159 99.2483 130.61 92.6343L142.251 92.8323L142.369 94.9043C109.593 109.885 102.006 120.225 94.9573 145.958C90.7173 161.436 89.2503 177.406 88.5473 193.116C87.9933 205.496 91.4973 264.326 87.5193 270.786C86.4503 256.836 88.7383 240.426 85.0243 226.836C83.2223 284.946 83.2613 343.566 84.5203 401.716C84.9623 422.116 87.4143 442.346 87.3643 462.806C87.4316 483.58 87.1686 504.353 86.5753 525.126C85.6303 550.666 81.2232 583.376 88.6532 608.116C92.0252 598.526 88.4903 588.896 91.1053 579.296L91.6383 584.756L91.7353 584.496C92.5263 641.096 93.4993 697.766 93.0943 754.366C92.8293 791.416 87.2983 832.076 96.0043 868.616C101.443 891.446 118.951 906.976 146.342 920.306C280.164 924.736 415.001 922.286 548.962 922.176C587.351 922.096 625.739 922.196 664.125 922.476C690.632 922.656 718.286 923.916 744.625 921.756C759.017 920.586 771.478 917.866 782.529 911.416C805.634 897.946 818.18 873.626 822.392 853.866C826.637 833.956 824.462 812.896 824.103 792.786C823.247 760.626 822.762 728.463 822.648 696.296C822.362 588.516 823.017 480.743 824.615 372.976C825.038 343.83 825.116 314.68 824.848 285.526C824.635 267.166 823.058 248.356 824.829 230.036L824.996 228.496L824.159 228.886L828.109 230.866C830.533 244.886 828.023 259.286 829.857 273.406L830.065 274.866C831.2 254.866 830.378 234.686 830.313 214.666C830.308 187.626 836.478 161.776 822.915 135.527C821.188 129.354 816.923 123.273 813.556 117.413C823.693 120.078 825.67 132.281 837.494 130.381C851.242 164.416 844.451 235.976 844.447 274.056L844.453 497.676C845.061 585.856 844.618 674.033 843.124 762.206C842.629 789.306 846.177 817.146 843.648 844.116C842.293 858.576 835.194 872.496 827.418 885.936L822.29 888.766L822.32 889.966L827.564 889.536C827.533 893.966 822.856 897.986 819.536 901.686C806.505 918.246 788.065 932.676 759.873 937.946C724.999 944.466 574.182 941.076 528.098 941.076C427.576 941.076 327.294 941.606 226.855 939.346C204.953 938.856 182.985 940.146 161.103 939.046C148.852 938.426 139.112 937.716 128.45 933.216C121.32 930.206 113.702 926.526 109.973 921.336C107.314 917.926 102.881 914.996 99.6743 911.736C86.9133 898.796 75.0123 884.126 70.6903 868.776C63.0263 841.556 66.5823 812.396 67.0283 784.796L67.3643 691.406L67.2343 494.206C67.1233 452.636 65.6763 411.166 68.2753 369.606C67.6113 299.666 64.4933 229.716 68.3403 159.796C77.2533 149.507 76.1853 135.465 85.8433 124.584C89.2353 120.761 92.3183 118.687 98.6963 117.452Z" fill="#4C1B01"/>
<path d="M68.3403 159.796C77.2533 149.507 76.1853 135.465 85.8433 124.584C89.2353 120.761 92.3183 118.687 98.6963 117.452C93.9133 127.76 90.2173 140.769 82.3973 150.127C82.7433 174.927 82.7759 199.726 82.4953 224.526L82.4423 592.806L82.3713 735.316C82.3463 769.366 75.7663 849.196 90.6703 877.366C92.8743 882.716 95.8493 887.696 98.9963 892.816C97.1223 905.656 113.904 912.126 115.405 922.986L109.973 921.336C107.314 917.926 102.881 914.996 99.6743 911.736C86.9133 898.796 75.0123 884.126 70.6903 868.776C63.0263 841.556 66.5823 812.396 67.0283 784.796L67.3643 691.406L67.2343 494.206C67.1233 452.636 65.6763 411.166 68.2753 369.606C67.6113 299.666 64.4933 229.716 68.3403 159.796Z" fill="#9D4907"/>
<path d="M68.3399 159.796C77.2529 149.507 76.1849 135.465 85.8429 124.584C89.2349 120.761 92.3179 118.687 98.6959 117.452C93.9129 127.76 90.2169 140.769 82.3969 150.127C82.7429 174.927 82.7756 199.726 82.4949 224.526L79.0689 219.946L77.1479 219.956C71.2869 243.876 78.1739 277.266 73.6799 303.966C67.2639 324.376 81.7519 350.636 68.2749 369.606C67.6109 299.666 64.4929 229.716 68.3399 159.796Z" fill="#922E04"/>
<path d="M73.6801 303.966C72.7461 302.216 72.3131 301.606 71.7421 299.896C68.0761 288.956 71.6241 183.966 74.4061 168.486C75.6251 161.706 77.0021 156.066 82.3971 150.127C82.7431 174.927 82.7758 199.726 82.4951 224.526L79.0691 219.946L77.1481 219.956C71.2871 243.876 78.1741 277.266 73.6801 303.966Z" fill="#6C2D04"/>
<path d="M828.45 851.916L831.194 852.996C828.678 864.896 824.061 876.896 822.29 888.766L822.32 889.966L827.564 889.536C827.533 893.966 822.856 897.986 819.536 901.686C806.505 918.246 788.065 932.676 759.873 937.946C724.999 944.466 574.182 941.076 528.098 941.076C427.576 941.076 327.294 941.606 226.855 939.346C204.953 938.856 182.985 940.146 161.103 939.046C148.852 938.426 139.112 937.716 128.45 933.216C121.32 930.206 113.702 926.526 109.973 921.336L115.405 922.986C113.904 912.126 97.1219 905.656 98.9959 892.816C113.04 908.006 127.96 921.356 155.517 925.836C184.831 930.596 233.9 926.816 265.551 926.666L432.452 926.596L644.912 926.666C679.191 926.696 716.16 928.896 750.152 926.036C762.227 925.026 773.535 920.396 783.655 916.186C809.067 897.116 823.159 877.106 828.45 851.916Z" fill="#E88C13"/>
<path d="M828.45 851.916L831.194 852.996C828.678 864.896 824.061 876.896 822.29 888.766L822.32 889.966L827.564 889.536C827.533 893.966 822.856 897.986 819.536 901.686C802.575 907.406 796.733 921.846 780.581 929.036C750.277 942.526 640.823 936.306 601.858 935.026L599.417 933.726C630.912 932.146 662.412 931.716 693.972 931.116C715.179 930.706 738.477 931.496 759.121 927.946C766.639 926.656 776.815 923.666 781.414 919.236C782.904 917.806 782.88 917.616 783.655 916.186C809.067 897.116 823.159 877.106 828.45 851.916Z" fill="#D27B08"/>
<path d="M813.556 117.413C823.693 120.078 825.67 132.281 837.494 130.381C851.242 164.416 844.451 235.976 844.447 274.056L844.453 497.676C845.06 585.856 844.617 674.033 843.124 762.206C842.629 789.306 846.177 817.146 843.648 844.116C842.293 858.576 835.194 872.496 827.418 885.936L822.29 888.766C824.061 876.896 828.678 864.896 831.194 852.996L828.45 851.916C831.656 832.686 828.641 813.526 828.998 794.256C830.579 745.37 831.023 696.48 830.329 647.586C830.181 523.406 832.953 399.026 830.065 274.866C831.2 254.866 830.378 234.686 830.313 214.666C830.308 187.626 836.478 161.776 822.915 135.527C821.188 129.354 816.923 123.273 813.556 117.413Z" fill="#AE5705"/>
<path d="M139.87 72.1743C151.686 68.6873 163.114 68.2763 175.867 67.9663C215.596 67.0013 255.851 68.1123 295.648 68.1293L544.705 68.1543C587.836 68.1996 630.965 68.0923 674.093 67.8323C704.375 67.7103 738.868 65.7543 768.56 70.1313C776.136 72.9163 783.515 75.4743 790.108 79.2603C803.112 85.9893 811.103 93.0143 819.298 102.396C803.326 95.9653 787.49 85.8263 768.075 85.9543C763.346 85.5793 758.278 84.1093 753.712 83.1433C701.596 86.6543 645.976 84.0233 593.413 83.9333L299.424 83.8203C252.949 83.8003 202.204 80.7983 156.34 85.4003C145.772 86.4603 138.72 87.9263 130.61 92.6343C116.159 99.2483 107.991 107.836 98.6961 117.452C92.3181 118.687 89.2351 120.761 85.8431 124.584C76.1851 135.465 77.2531 149.507 68.3401 159.796C68.0961 144.039 74.6381 126.89 84.2131 112.547C94.9661 96.4373 114.393 78.6613 139.87 72.1743Z" fill="#6C2D04"/>
<path d="M139.87 72.1743C151.686 68.6873 163.114 68.2763 175.867 67.9663C215.596 67.0013 255.851 68.1123 295.648 68.1293L544.705 68.1543C587.836 68.1996 630.965 68.0923 674.093 67.8323C704.375 67.7103 738.868 65.7543 768.56 70.1313C753.682 75.5323 720.71 73.5583 703.553 73.7973C580.855 75.5063 457.785 72.7263 335.014 72.9903C284.792 73.2169 234.57 73.2113 184.348 72.9733C172.135 72.9033 155.439 74.5813 143.801 73.3843C141.97 73.1963 141.261 72.7803 139.87 72.1743Z" fill="#4C1B01"/>
<path d="M761.282 74.5553C770.466 76.7303 780.245 79.9273 790.108 79.2603C803.112 85.9893 811.103 93.0143 819.298 102.396C803.326 95.9653 787.49 85.8263 768.075 85.9543C763.346 85.5793 758.278 84.1093 753.712 83.1433C737.874 77.0293 233.8 87.6833 160.119 80.8563C216.144 76.4733 272.961 77.3163 329.277 77.2033L571.821 77.7093L687.15 78.3583C704.808 78.4463 724.536 79.6983 742.031 78.2803C748.556 77.7513 755.123 76.0363 761.282 74.5553Z" fill="#922E04"/>
<path d="M130.61 92.6343C138.72 87.9263 145.772 86.4603 156.34 85.4003C202.204 80.7983 252.949 83.8003 299.424 83.8203L593.413 83.9333C645.976 84.0233 701.596 86.6543 753.712 83.1433C758.278 84.1093 763.346 85.5793 768.075 85.9543C787.49 85.8263 803.326 95.9653 819.298 102.396C827.717 111.076 832.881 120.554 837.494 130.381C825.67 132.281 823.693 120.078 813.556 117.413C816.923 123.273 821.188 129.354 822.915 135.527L820.78 135.615C816.131 129.147 811.836 122.721 805.023 117.102C791.67 107.747 780.436 96.5643 763.825 89.6213C730.931 87.8193 696.947 88.6843 663.937 88.6633L494.378 88.6133L278.176 88.5133C245.477 88.4803 212.406 87.2993 179.751 88.2043C168.191 88.5243 151.924 88.1603 142.251 92.8323L130.61 92.6343Z" fill="#190200"/>
<path d="M768.075 85.9543C787.49 85.8263 803.326 95.9653 819.298 102.396C827.717 111.076 832.881 120.554 837.494 130.381C825.67 132.281 823.693 120.078 813.556 117.413C804.155 105.418 784.54 93.6803 768.075 85.9543Z" fill="#6C2D04"/>
<path d="M805.023 117.102C811.836 122.721 816.131 129.147 820.78 135.615L822.915 135.527C836.478 161.776 830.308 187.626 830.313 214.666C821.398 198.156 826.573 177.876 822.529 160.296C819.299 146.261 810.277 132.735 805.587 118.835L805.023 117.102Z" fill="#4C1B01"/>
<path d="M398.659 126.536C460.311 124.726 521.402 126.456 583.01 126.151C633.153 125.904 688.373 121.708 737.895 127.569C747.939 128.757 756.51 131.343 764.113 135.919C798.575 156.666 797.301 192.356 798.478 220.886C800.353 266.356 798.605 312.066 798.178 357.556C796.86 440.703 796.217 523.85 796.248 606.996L796.415 752.406C796.661 781.596 800.352 810.896 794.531 839.956C791.172 856.736 781.443 870.826 763.927 883.076C758.589 886.806 752.678 890.096 746.694 893.346C672.051 893.753 597.408 893.903 522.763 893.796C494.749 893.816 465.078 896.156 437.381 894.506C438.218 894.286 439.052 894.066 439.892 893.856C458.742 889.136 478.813 888.206 497.457 883.096L497.905 881.306C484.47 878.026 452.426 889.726 436.424 890.716L436.732 894.196C431.758 896.966 426.272 896.966 420.1 897.436C392.576 896.256 365.028 893.926 337.498 893.196C296.681 892.126 255.394 893.296 214.53 893.416C189.466 893.486 166.92 894.396 148.199 881.456C128.785 868.036 122.33 847.466 119.355 829.526C114.874 802.496 117.957 775.466 118.122 748.356L117.793 620.006L117.696 348.246C117.675 303.756 116.264 259.166 117.398 214.696C118.015 190.476 117.296 156.386 146.645 138.58C181.303 117.55 295.731 125.795 340.75 127.103C316.439 134.192 292.953 142.681 271.744 153.366C188.257 195.416 143.768 264.246 129.486 331.676L132.202 332.856C133.789 326.69 135.527 320.54 137.416 314.406C156.736 253.836 208.621 183.896 288.342 149.066C307.109 139.803 330.92 133.002 354.033 130.687C385.255 127.559 410.556 133.199 435.55 145.397L435.353 141.494C423.748 135.583 411.998 130.571 398.659 126.536Z" fill="#6C2D04"/>
<path d="M549.195 472.166C587.329 491.106 625.073 512.766 666.19 528.696L668.206 530.086C667.915 530.426 667.615 530.766 667.332 531.116C651.701 550.326 647.14 575.036 637.441 595.876C600.425 675.396 542.161 786.486 410.94 814.066C409.785 814.313 408.625 814.55 407.461 814.776C406.297 814.996 405.129 815.21 403.957 815.416C402.785 815.623 401.61 815.82 400.43 816.006C399.25 816.193 398.067 816.37 396.881 816.536C395.695 816.703 394.506 816.86 393.314 817.006C392.122 817.153 390.927 817.286 389.73 817.406C388.533 817.533 387.333 817.65 386.131 817.756C384.93 817.863 383.726 817.96 382.521 818.046C381.316 818.133 380.109 818.21 378.901 818.276C377.693 818.336 376.484 818.39 375.273 818.436C374.063 818.483 372.853 818.516 371.641 818.536C370.43 818.563 369.218 818.58 368.005 818.586C366.793 818.586 365.581 818.58 364.37 818.566C363.158 818.553 361.947 818.526 360.736 818.486C359.525 818.453 358.315 818.406 357.106 818.346C355.897 818.286 354.689 818.22 353.482 818.146C352.276 818.066 351.071 817.98 349.868 817.886C348.665 817.786 347.463 817.676 346.264 817.556C345.065 817.443 343.869 817.316 342.674 817.176C341.48 817.036 340.289 816.89 339.1 816.736C337.911 816.576 336.726 816.406 335.543 816.226C334.361 816.053 333.183 815.866 332.007 815.666C330.832 815.466 329.66 815.26 328.493 815.046C327.326 814.826 326.163 814.596 325.004 814.356C323.845 814.123 322.691 813.876 321.541 813.616C320.392 813.363 319.247 813.1 318.108 812.826C316.969 812.546 315.835 812.26 314.706 811.966C313.578 811.673 312.455 811.37 311.338 811.056C310.221 810.743 309.11 810.42 308.005 810.086C306.9 809.753 305.802 809.41 304.71 809.056C303.618 808.71 302.533 808.35 301.454 807.976C300.376 807.61 299.305 807.233 298.241 806.846C262.155 794.016 236.758 774.996 216.456 751.726C210.46 744.846 205.258 736.456 197.592 730.406C163.373 664.386 158.025 594.986 201.853 530.136C207.537 521.426 214.778 513.256 221.78 504.996C247.242 519.206 273.18 527.156 307.372 525.266C333.046 523.846 355.959 516.646 378.161 508.416C350.783 565.166 317.577 621.256 348.359 680.736C354.128 682.626 359.854 684.426 366.118 685.466C383.737 688.406 401.756 685.866 417.13 679.656C481.391 653.726 499.485 588.726 518.328 544.316C528.538 520.256 539.529 496.336 549.195 472.166Z" fill="#E44305"/>
<path d="M221.78 504.996C247.242 519.206 273.18 527.156 307.372 525.266C333.046 523.846 355.959 516.646 378.161 508.416C350.783 565.166 317.577 621.256 348.359 680.736C332.699 677.926 321.278 671.826 312.366 662.796C284.48 634.526 287.736 594.996 297.83 563.486C258.186 560.526 230.992 547.286 201.853 530.136C207.537 521.426 214.778 513.256 221.78 504.996Z" fill="#922E04"/>
<path d="M296.404 193.896C305.706 190.486 315.645 187.506 325.905 185.636C346.273 181.906 364.545 182.406 383.101 189.336C407.755 202.946 419.433 219.416 422.198 240.446C428.546 288.736 393.388 351.566 345.754 387.666C345.232 388.056 344.674 388.436 344.134 388.816L330.316 399.196C328.627 400.396 326.884 401.563 325.089 402.696C323.293 403.83 321.447 404.923 319.551 405.976C317.656 407.036 315.713 408.053 313.724 409.026C311.735 410.006 309.704 410.943 307.629 411.836C305.555 412.73 303.442 413.583 301.289 414.396C299.137 415.203 296.95 415.966 294.728 416.686C292.505 417.406 290.252 418.083 287.968 418.716C285.685 419.343 283.374 419.923 281.037 420.456C262.325 424.606 243.472 424.886 225.638 418.786C207.859 412.706 197.189 401.776 191.343 389.336C167.174 337.876 201.004 281.206 236.221 235.966C254.41 220.296 273.689 206.736 296.404 193.896Z" fill="url(#paint4_linear_204_176)"/>
<path d="M320.158 216.206C314.439 241.576 315.046 267.256 307.756 292.596C300.815 316.716 288.019 339.266 277.619 362.716C273.246 372.576 270.652 382.706 267.003 392.686C264.46 399.636 260.64 405.416 251.306 409.216C246.281 409.836 243.024 409.836 238.386 408.476C224.149 404.296 214.342 395.596 209.522 385.956C192.16 351.226 216.479 300.716 240.971 269.836C261.542 243.906 291.546 217.336 335.797 208.846C347.587 206.576 368.925 204.986 380.227 209.196C395.436 217.766 406.859 225.436 408.942 239.326L407.512 239.926C400.867 229.536 393.944 219.816 377.939 214.456C359.118 208.156 338.886 212.076 320.158 216.206Z" fill="#F9B635"/>
<path d="M383.101 189.336C407.755 202.946 419.433 219.416 422.198 240.446C428.546 288.736 393.388 351.566 345.754 387.666C345.232 388.056 344.674 388.436 344.134 388.816L330.316 399.196C326.683 398.756 323.11 398.126 319.524 397.546C323.108 396.746 326.911 395.886 330.271 394.716C345.892 389.306 384.217 332.296 390.499 320.606C398.884 304.996 419.582 254.216 408.942 239.326C406.859 225.436 395.436 217.766 380.227 209.196C380.955 209.176 381.682 209.106 382.411 209.116C389.072 209.166 394.818 212.006 399.165 215.176C421.174 231.236 413.848 265.596 411.364 285.196L408.879 285.286L410.996 288.676L408.142 286.766L408.468 284.676L414.186 284.366C419.596 265.366 420.148 237.366 407.927 219.506C402.592 211.716 383.069 198.826 383.037 191.766C383.033 190.956 383.079 190.146 383.101 189.336Z" fill="#E88C13"/>
<path d="M132.202 332.856C133.789 326.69 135.527 320.54 137.416 314.406C156.736 253.836 208.621 183.896 288.342 149.066L293.799 150.896L297.964 151.966C295.253 164.556 272.432 173.486 292.892 191.516C294.465 192.906 294.687 192.936 296.404 193.896C273.689 206.736 254.41 220.296 236.221 235.966C201.004 281.206 167.174 337.876 191.343 389.336C197.189 401.776 207.859 412.706 225.638 418.786C243.472 424.886 262.325 424.606 281.037 420.456C283.374 419.923 285.685 419.343 287.968 418.716C290.252 418.083 292.505 417.406 294.728 416.686C296.95 415.966 299.137 415.203 301.289 414.396C303.442 413.583 305.555 412.73 307.629 411.836C309.704 410.943 311.735 410.006 313.724 409.026C315.713 408.053 317.656 407.036 319.551 405.976C321.447 404.923 323.293 403.83 325.089 402.696C326.884 401.563 328.627 400.396 330.316 399.196L344.134 388.816L347.073 390.856C352.554 386.536 357.341 381.886 366.471 381.246C380.476 380.276 392.667 388.816 402.057 394.656L407.604 410.606C401.715 416.346 392.039 423.356 393.047 430.656C382.828 441.196 373.385 450.156 358.243 457.816C330.86 476.326 296.494 490.506 256.394 490.956C227.634 491.276 205.735 483.816 182.295 473.626C137.017 439.526 128.103 397.276 128.718 353.376C131.804 347.326 131.394 339.286 132.202 332.856Z" fill="url(#paint5_linear_204_176)"/>
<path d="M347.073 390.856C352.554 386.536 357.341 381.886 366.471 381.246C380.476 380.276 392.667 388.816 402.057 394.656L407.604 410.606C401.715 416.346 392.039 423.356 393.047 430.656C382.828 441.196 373.385 450.156 358.243 457.816C349.677 458.996 343.825 462.006 336.857 465.296C322.462 449.956 315.951 433.526 313.342 415.686C325.378 407.756 336.393 399.616 347.073 390.856Z" fill="#F9B635"/>
<path d="M293.799 150.896L297.964 151.966C295.253 164.556 272.432 173.486 292.892 191.516C294.465 192.906 294.687 192.936 296.404 193.896C273.689 206.736 254.41 220.296 236.221 235.966C235.09 230.146 234.319 223.146 229.938 217.966C226.988 214.466 223.279 212.556 217.469 211.616C212.612 210.836 214.722 211.616 211.233 209.536C211.288 209.006 211.255 208.476 211.397 207.946C215.575 192.546 273.836 160.986 293.799 150.896Z" fill="#F8CE4B"/>
<path d="M668.206 530.086C684.953 541.916 700.005 554.556 715.209 567.266C674.922 657.756 630.822 794.146 496.551 842.886C455.996 857.606 407.831 861.866 363.441 852.756C295.039 838.716 242.833 793.776 211.216 753.086C205.612 745.876 200.042 738.406 197.592 730.406C205.258 736.456 210.46 744.846 216.456 751.726C236.758 774.996 262.155 794.016 298.241 806.846C299.305 807.233 300.376 807.61 301.454 807.976C302.533 808.35 303.618 808.71 304.71 809.056C305.802 809.41 306.9 809.753 308.005 810.086C309.11 810.42 310.221 810.743 311.338 811.056C312.455 811.37 313.577 811.673 314.706 811.966C315.835 812.26 316.969 812.546 318.108 812.826C319.247 813.1 320.392 813.363 321.541 813.616C322.69 813.876 323.845 814.123 325.004 814.356C326.163 814.596 327.326 814.826 328.493 815.046C329.66 815.26 330.832 815.466 332.007 815.666C333.182 815.866 334.361 816.053 335.543 816.226C336.726 816.406 337.911 816.576 339.1 816.736C340.289 816.89 341.48 817.036 342.674 817.176C343.869 817.316 345.065 817.443 346.264 817.556C347.463 817.676 348.665 817.786 349.868 817.886C351.071 817.98 352.276 818.066 353.483 818.146C354.689 818.22 355.897 818.286 357.106 818.346C358.315 818.406 359.525 818.453 360.736 818.486C361.947 818.526 363.158 818.553 364.37 818.566C365.581 818.58 366.793 818.586 368.005 818.586C369.218 818.58 370.43 818.563 371.641 818.536C372.852 818.516 374.063 818.483 375.273 818.436C376.484 818.39 377.693 818.336 378.901 818.276C380.109 818.21 381.316 818.133 382.521 818.046C383.726 817.96 384.93 817.863 386.131 817.756C387.333 817.65 388.533 817.533 389.73 817.406C390.927 817.286 392.122 817.153 393.314 817.006C394.506 816.86 395.695 816.703 396.881 816.536C398.067 816.37 399.25 816.193 400.43 816.006C401.609 815.82 402.785 815.623 403.957 815.416C405.129 815.21 406.297 814.996 407.461 814.776C408.625 814.55 409.785 814.313 410.94 814.066C542.161 786.486 600.425 675.396 637.441 595.876C647.14 575.036 651.701 550.326 667.332 531.116C667.615 530.766 667.915 530.426 668.206 530.086Z" fill="#922E04"/>
<path d="M288.342 149.066C307.109 139.803 330.92 133.002 354.033 130.687C385.255 127.559 410.556 133.199 435.55 145.397C455.83 158.196 467.607 172.266 479.576 188.926C479.551 189.476 479.515 190.026 479.5 190.576C478.999 208.076 487.156 225.206 487.495 242.766C488.744 307.516 450.989 379.286 393.047 430.656C392.039 423.356 401.715 416.346 407.604 410.606L402.057 394.656C392.667 388.816 380.476 380.276 366.471 381.246C357.341 381.886 352.554 386.536 347.073 390.856L344.134 388.816C344.674 388.436 345.232 388.056 345.754 387.666C393.388 351.566 428.546 288.736 422.198 240.446C419.433 219.416 407.755 202.946 383.101 189.336C364.545 182.406 346.273 181.906 325.905 185.636C315.645 187.506 305.706 190.486 296.404 193.896C294.687 192.936 294.465 192.906 292.892 191.516C272.432 173.486 295.253 164.556 297.964 151.966L293.799 150.896L288.342 149.066Z" fill="url(#paint6_linear_204_176)"/>
<path d="M479.576 188.926C529.552 242.646 536.045 283.286 514.598 345.056C493.37 406.196 450.148 466.816 378.161 508.416C355.959 516.646 333.046 523.846 307.372 525.266C273.18 527.156 247.242 519.206 221.78 504.996C207.685 495.016 193.856 484.996 182.295 473.626C205.735 483.816 227.634 491.276 256.394 490.956C296.494 490.506 330.86 476.326 358.243 457.816C373.385 450.156 382.828 441.196 393.047 430.656C450.989 379.286 488.744 307.516 487.495 242.766C487.156 225.206 478.999 208.076 479.5 190.576C479.515 190.026 479.551 189.476 479.576 188.926Z" fill="url(#paint7_linear_204_176)"/>
<path d="M193.08 528.786C185.116 510.806 168.022 495.556 155.353 479.016C128.231 443.616 121.936 392.226 127.335 352.946L128.718 353.376C128.103 397.276 137.017 439.526 182.295 473.626C193.856 484.996 207.685 495.016 221.78 504.996C214.778 513.256 207.537 521.426 201.853 530.136C158.025 594.986 163.373 664.386 197.592 730.406C200.042 738.406 205.612 745.876 211.216 753.086C242.833 793.776 295.039 838.716 363.441 852.756C407.831 861.866 455.996 857.606 496.551 842.886C630.822 794.146 674.922 657.756 715.209 567.266C700.005 554.556 684.953 541.916 668.206 530.086L666.19 528.696C678.113 519.176 708.047 424.936 717.076 405.916C703.833 399.316 690.979 392.766 678.931 385.206C679.535 385.176 680.138 385.086 680.744 385.106C690.753 385.486 709.745 397.126 717.087 401.786C735.588 413.526 755.982 430.266 760.066 447.586C767.292 478.226 692.452 646.946 671.891 683.196C663.904 697.276 637.174 731.866 637.794 744.696C637.875 746.366 637.491 747.536 636.71 749.116C617.02 756.546 614.267 771.706 601.655 783.476C576.248 807.196 546.625 830.526 509.293 846.156C469.842 862.686 422.823 870.036 376.972 863.006C304.427 851.876 252.404 810.616 215.221 769.956C166.917 717.146 150.174 641.586 169.235 581.306C174.668 564.126 186.397 548.036 192.367 530.876L193.08 528.786Z" fill="#4C1B01"/>
<path d="M717.076 405.916C734.684 418.726 743.938 434.706 755.539 450.036C743.588 489.346 726.942 527.976 715.209 567.266C700.005 554.556 684.953 541.916 668.206 530.086L666.19 528.696C678.113 519.176 708.047 424.936 717.076 405.916Z" fill="#C5A47F"/>
<path d="M605.132 346.386C630.193 358.876 653.813 372.676 678.931 385.206C690.979 392.766 703.833 399.316 717.076 405.916C708.047 424.936 678.113 519.176 666.19 528.696C625.073 512.766 587.329 491.106 549.195 472.166C552.495 465.956 554.723 459.666 556.989 453.266C577.244 421.326 590.329 380.276 605.132 346.386Z" fill="#FBE2BF"/>
<path d="M435.353 141.494C465.084 158.656 510.883 210.896 523.395 235.856C528.841 246.726 530.809 258.096 531.99 269.486C538.807 335.226 507.562 393.376 458.23 449.206C444.162 465.126 430.305 480.836 411.897 494.776C402.585 501.826 392.208 508.216 382.837 515.206C382.869 515.756 382.925 516.296 382.933 516.846C383.111 528.586 372.053 539.836 366.688 550.946C353.626 577.986 323.893 650.976 357.003 673.376C363.395 677.706 373.733 682.056 383.013 682.126C403.753 682.276 422.647 673.626 436.01 663.846C451.113 652.776 463.316 639.816 472.653 626.236C485.976 606.866 493.563 585.746 502.522 565.336L540.426 480.106C542.521 475.526 551.668 453.926 556.481 453.006L556.989 453.266C554.723 459.666 552.495 465.956 549.195 472.166C539.529 496.336 528.538 520.256 518.328 544.316C499.485 588.726 481.391 653.726 417.13 679.656C401.756 685.866 383.737 688.406 366.118 685.466C359.854 684.426 354.128 682.626 348.359 680.736C317.577 621.256 350.783 565.166 378.161 508.416C450.148 466.816 493.37 406.196 514.598 345.056C536.045 283.286 529.552 242.646 479.576 188.926C467.607 172.266 455.83 158.196 435.55 145.397L435.353 141.494Z" fill="#4C1B01"/>
<path d="M420.1 897.436L423.076 895.506L421.972 893.926C405.953 893.746 390.078 892.806 374.527 890.146C344.826 885.076 300.139 871.976 284.133 853.806C296.652 859.066 307.302 866.006 319.5 871.576C354.614 887.616 394.946 890.736 436.424 890.716L436.732 894.196C431.758 896.966 426.272 896.966 420.1 897.436Z" fill="#4C1B01"/>
<path d="M686.765 201.956C698.824 231.426 706.707 251.186 747.111 269.056C745.064 269.823 743.01 270.583 740.95 271.336C705.21 284.686 696.515 305.946 686.003 330.286L684.164 329.616C682.979 327.136 681.953 324.646 680.956 322.126C671.423 298.026 659.245 282.276 625.98 269.356C664.825 251.376 675.867 231.156 686.765 201.956Z" fill="#F9B635"/>
<path d="M731.185 777.606C733.354 778.186 733.927 778.226 735.942 779.336C740.697 781.936 743.049 787.636 742.763 791.556C742.268 798.346 738.541 801.686 731.046 805.926C730.23 805.686 729.356 805.526 728.599 805.216C724.204 803.406 721.759 801.176 720.735 797.806C718.611 790.816 725.695 783.106 731.185 777.606Z" fill="#922E04"/>
<path d="M160.875 801.576C162.863 802.006 164.933 802.366 166.692 803.166C171.53 805.376 174.429 810.146 174.789 813.956C175.372 820.136 172.496 824.046 166.212 828.456C164.713 827.996 163.842 827.796 162.476 827.036C157.242 824.126 153.687 819.236 153.265 814.716C152.725 808.936 155.472 805.766 160.875 801.576Z" fill="#922E04"/>
<path d="M615.466 175.666C621.617 177.036 623.468 177.136 627.751 180.536C628.956 185.606 624.826 190.316 621.852 194.876C616.501 192.286 612.737 190.726 610.374 186.386C610.344 181.926 612.384 179.446 615.466 175.666Z" fill="#922E04"/>
<defs>
<linearGradient id="paint0_linear_204_176" x1="982.401" y1="590.664" x2="-74.6196" y2="419.574" gradientUnits="userSpaceOnUse">
<stop stop-color="#C56C07"/>
<stop offset="1" stop-color="#E58E10"/>
</linearGradient>
<linearGradient id="paint1_linear_204_176" x1="1051.63" y1="703.468" x2="140.377" y2="417.993" gradientUnits="userSpaceOnUse">
<stop stop-color="#6E2100"/>
<stop offset="1" stop-color="#BA6205"/>
</linearGradient>
<linearGradient id="paint2_linear_204_176" x1="780.24" y1="131.782" x2="373.187" y2="-63.7556" gradientUnits="userSpaceOnUse">
<stop stop-color="#B77400"/>
<stop offset="1" stop-color="#FD9823"/>
</linearGradient>
<linearGradient id="paint3_linear_204_176" x1="61.5074" y1="133.915" x2="849.672" y2="876.245" gradientUnits="userSpaceOnUse">
<stop stop-color="#381101"/>
<stop offset="1" stop-color="#5A2302"/>
</linearGradient>
<linearGradient id="paint4_linear_204_176" x1="197.436" y1="291.326" x2="394.447" y2="313.086" gradientUnits="userSpaceOnUse">
<stop stop-color="#C87206"/>
<stop offset="1" stop-color="#F2A215"/>
</linearGradient>
<linearGradient id="paint5_linear_204_176" x1="125.172" y1="360.821" x2="306.739" y2="340.332" gradientUnits="userSpaceOnUse">
<stop stop-color="#FCB321"/>
<stop offset="1" stop-color="#FED15E"/>
</linearGradient>
<linearGradient id="paint6_linear_204_176" x1="488.325" y1="262.365" x2="305.551" y2="277.458" gradientUnits="userSpaceOnUse">
<stop stop-color="#F9B11F"/>
<stop offset="1" stop-color="#FFD86C"/>
</linearGradient>
<linearGradient id="paint7_linear_204_176" x1="473.282" y1="454.696" x2="289.582" y2="296.653" gradientUnits="userSpaceOnUse">
<stop stop-color="#B45C04"/>
<stop offset="1" stop-color="#D27A09"/>
</linearGradient>
</defs>
</svg>
