<svg width="948" height="1054" viewBox="0 0 948 1054" fill="none" xmlns="http://www.w3.org/2000/svg">
<path d="M110.657 2.75819C147.087 -1.90081 187.967 0.653145 224.957 1.09615C258.097 1.29881 291.237 1.31287 324.377 1.1382L631.197 1.11616C684.327 1.14816 738.217 -0.13182 791.237 1.38118C804.917 1.77118 824.597 2.0692 836.457 6.7762L839.697 8.05116C877.827 23.1922 907.687 56.3712 917.877 84.5852C918.584 86.5665 919.251 88.5542 919.877 90.5482C929.607 138.069 923.917 192.161 924.137 240.571L925.397 513.061L925.197 594.301C925.057 609.871 923.847 625.381 925.037 640.951C930.387 684.651 932.307 728.791 936.277 772.591C941.307 828.021 955.597 903.101 941.047 956.431C940.627 957.978 940.171 959.521 939.677 961.061C939.184 962.601 938.651 964.138 938.077 965.671C937.511 967.198 936.904 968.718 936.257 970.231C935.611 971.745 934.927 973.251 934.207 974.751C933.487 976.251 932.731 977.745 931.937 979.231C931.151 980.711 930.324 982.184 929.457 983.651C928.591 985.118 927.691 986.571 926.757 988.011C925.817 989.458 924.844 990.895 923.837 992.321C922.831 993.748 921.791 995.161 920.717 996.561C919.637 997.961 918.524 999.351 917.377 1000.73C916.237 1002.1 915.061 1003.47 913.847 1004.82C912.634 1006.17 911.387 1007.51 910.107 1008.83C908.834 1010.16 907.527 1011.47 906.187 1012.76C904.841 1014.06 903.467 1015.34 902.067 1016.61C900.661 1017.87 899.224 1019.12 897.757 1020.36C896.291 1021.59 894.794 1022.81 893.267 1024.01C870.527 1041.95 847.997 1049.8 812.887 1051.67C766.977 1054.11 719.477 1052.16 673.347 1052.13L410.007 1052.29L227.897 1052.42C199.357 1052.44 166.237 1054.68 138.237 1051.54C120.137 1049.51 99.6073 1041.55 85.9273 1033.62C36.5473 1004.99 9.75726 954.831 6.42726 912.181C6.30726 910.671 6.39726 909.161 6.42726 907.661C-1.74274 878.841 0.227247 848.291 0.167247 819.101L0.147227 715.541L1.01734 365.371L1.06739 361.121C0.680727 310.715 0.713914 260.308 1.16725 209.901C1.32725 168.441 -3.97274 123.1 9.67726 82.5722C16.9773 67.0592 25.5974 52.0932 39.0974 38.4542C56.1874 21.1832 79.5172 7.11519 110.657 2.75819Z" fill="url(#paint0_linear_204_178)"/>
<path d="M862.858 28.9991C882.808 44.4741 898.557 60.4851 907.787 80.1561C909.457 83.6971 913.007 95.8871 917.997 97.3931L919.877 90.5482C929.607 138.069 923.917 192.161 924.137 240.571L925.397 513.061L925.197 594.301C925.057 609.871 923.847 625.381 925.037 640.951C930.387 684.651 932.307 728.791 936.277 772.591C941.307 828.021 955.597 903.101 941.047 956.431C940.627 957.978 940.171 959.521 939.677 961.061C939.184 962.601 938.651 964.138 938.078 965.671C937.511 967.198 936.904 968.718 936.257 970.231C935.611 971.745 934.927 973.251 934.207 974.751C933.487 976.251 932.731 977.745 931.937 979.231C931.151 980.711 930.324 982.184 929.457 983.651C928.591 985.118 927.691 986.571 926.757 988.011C925.817 989.458 924.844 990.895 923.838 992.321C922.831 993.748 921.791 995.161 920.717 996.561C919.637 997.961 918.524 999.351 917.377 1000.73C916.237 1002.1 915.061 1003.47 913.848 1004.82C912.634 1006.17 911.388 1007.51 910.108 1008.83C908.834 1010.16 907.527 1011.47 906.187 1012.76C904.841 1014.06 903.468 1015.34 902.068 1016.61C900.661 1017.87 899.224 1019.12 897.757 1020.36C896.291 1021.59 894.794 1022.81 893.267 1024.01C870.527 1041.95 847.997 1049.8 812.887 1051.67C766.977 1054.11 719.478 1052.16 673.348 1052.13L410.007 1052.29L227.897 1052.42C199.357 1052.44 166.237 1054.68 138.237 1051.54C120.137 1049.51 99.6073 1041.55 85.9273 1033.62C36.5473 1004.99 9.75735 954.831 6.42735 912.181C6.30735 910.671 6.39735 909.161 6.42735 907.661C15.2873 933.321 27.4373 960.271 56.1373 979.511C56.3773 979.181 56.6775 978.861 56.8475 978.511C59.4575 973.071 36.7874 954.771 31.7374 949.091C41.2774 943.421 46.5975 941.101 47.5875 932.331C64.9475 949.341 83.2873 969.741 115.917 974.271C150.527 979.081 190.777 976.521 226.087 976.461L396.217 976.251L647.037 976.301C694.097 976.361 742.827 978.101 789.677 975.761C805.987 974.951 819.797 973.661 833.767 967.401C861.547 954.951 884.727 927.001 891.247 905.421C903.257 865.681 895.207 820.651 894.947 780.241L894.807 564.691L894.868 273.301C894.988 223.971 899.897 174.151 894.447 124.924C892.207 104.787 884.288 81.5471 867.588 64.4991C860.328 51.8931 859.898 42.3311 862.858 28.9991Z" fill="url(#paint1_linear_204_178)"/>
<path d="M925.037 640.951C930.387 684.651 932.307 728.791 936.277 772.591C941.307 828.021 955.597 903.101 941.047 956.431C940.627 957.978 940.171 959.521 939.677 961.061C939.184 962.601 938.651 964.138 938.078 965.671C937.511 967.198 936.904 968.718 936.257 970.231C935.611 971.744 934.927 973.251 934.207 974.751C933.487 976.251 932.731 977.744 931.937 979.231C931.151 980.711 930.324 982.184 929.457 983.651C928.591 985.118 927.691 986.571 926.757 988.011C925.817 989.458 924.844 990.894 923.838 992.321C922.831 993.748 921.791 995.161 920.717 996.561C919.637 997.961 918.524 999.351 917.377 1000.73C916.237 1002.1 915.061 1003.47 913.848 1004.82C912.634 1006.17 911.388 1007.51 910.108 1008.83C908.834 1010.16 907.527 1011.47 906.187 1012.76C904.841 1014.06 903.468 1015.34 902.068 1016.61C900.661 1017.87 899.224 1019.12 897.757 1020.36C896.291 1021.59 894.794 1022.81 893.267 1024.01C870.527 1041.95 847.997 1049.8 812.887 1051.67C766.977 1054.11 719.478 1052.16 673.348 1052.13L410.007 1052.29L227.897 1052.42C199.357 1052.44 166.237 1054.68 138.237 1051.54C120.137 1049.51 99.6073 1041.55 85.9273 1033.62C36.5473 1004.99 9.75735 954.831 6.42735 912.181C6.30735 910.671 6.39735 909.161 6.42735 907.661C15.2873 933.321 27.4373 960.271 56.1373 979.511C59.0273 981.921 61.9473 984.331 65.1473 986.551C84.4673 999.961 110.347 1005.38 137.487 1005.99C190.707 1007.17 244.227 1006.38 297.477 1006.31L580.687 1006.04L724.377 1006.49C750.657 1006.6 780.917 1008.51 806.647 1005.33C828.227 1002.66 849.137 995.251 864.967 985.191C892.697 967.561 909.907 941.821 917.957 917.181C930.957 877.411 925.737 836.041 925.227 795.681C924.567 744.201 923.597 692.411 925.037 640.951Z" fill="#000D18"/>
<path d="M205.087 978.041C237.527 977.701 476.747 976.131 483.747 979.481C469.607 981.061 457.417 980.291 443.267 979.021C437.147 979.851 430.967 980.701 424.767 981.201C404.127 982.851 382.417 980.431 361.617 980.361C336.407 980.271 175.837 983.991 167.657 979.651C180.117 978.751 192.577 978.401 205.087 978.041Z" fill="#4C1B01"/>
<path d="M520.237 978.111C580.137 977.784 640.041 977.758 699.947 978.031C723.337 978.051 751.467 975.651 774.097 978.521L772.387 979.921C747.257 980.571 722.687 978.461 697.757 978.701C681.397 978.861 665.077 980.681 648.707 981.071C606.777 982.081 561.817 981.641 520.237 978.111Z" fill="#4C1B01"/>
<path d="M110.657 2.75819C147.087 -1.90081 187.967 0.653145 224.957 1.09615C258.097 1.29881 291.237 1.31287 324.377 1.1382L631.197 1.11616C684.327 1.14816 738.217 -0.13182 791.237 1.38118C804.917 1.77118 824.597 2.0692 836.457 6.7762L839.697 8.05116C877.827 23.1922 907.687 56.3712 917.877 84.5852C918.584 86.5665 919.251 88.5542 919.877 90.5482L917.997 97.3931C913.007 95.8871 909.457 83.6971 907.787 80.1561C898.557 60.4851 882.807 44.4742 862.857 28.9992C859.897 42.3312 860.327 51.8932 867.587 64.4992C863.207 61.2432 858.487 56.7681 852.217 55.3121C833.627 51.8521 823.507 39.7252 802.617 36.9432C752.477 30.2702 695.067 35.7682 643.947 35.9302C523.227 36.3122 402.337 37.1532 281.627 36.2912C270.777 36.0552 263.287 36.6012 254.417 31.9982C212.357 28.7322 168.327 33.7142 125.647 31.1712C124.877 13.9862 113.297 14.1032 110.657 2.75819Z" fill="url(#paint2_linear_204_178)"/>
<path d="M254.417 31.9982L623.607 31.8892C673.067 31.8382 751.517 27.9662 797.427 33.2302C815.267 35.2762 830.817 40.8642 843.747 49.3292C846.667 51.2638 849.491 53.2581 852.217 55.3121C833.627 51.8521 823.507 39.7252 802.617 36.9432C752.477 30.2702 695.067 35.7682 643.947 35.9302C523.227 36.3122 402.337 37.1531 281.627 36.2911C270.777 36.0551 263.287 36.6012 254.417 31.9982Z" fill="#F8CE4B"/>
<path d="M1.06739 361.121C0.680727 310.715 0.713914 260.308 1.16725 209.901C1.32725 168.441 -3.97274 123.1 9.67726 82.5721C17.2673 90.5461 24.0074 98.6851 30.5874 107.046C23.0174 138.299 28.5772 170.671 28.6672 202.181L28.8872 387.271L28.9873 718.171C28.9773 771.511 25.1773 829.881 29.2273 882.481C29.354 884.281 29.544 886.078 29.7974 887.871C30.044 889.665 30.354 891.451 30.7273 893.231C31.094 895.011 31.524 896.788 32.0173 898.561C32.504 900.334 33.0506 902.098 33.6572 903.851C34.2706 905.605 34.9406 907.348 35.6672 909.081C36.3939 910.815 37.1773 912.535 38.0173 914.241C38.8573 915.955 39.7573 917.655 40.7173 919.341C41.6773 921.021 42.6907 922.688 43.7573 924.341C45.1673 926.991 46.5674 929.591 47.5874 932.331C46.5974 941.101 41.2773 943.421 31.7373 949.091C36.7873 954.771 59.4574 973.071 56.8474 978.511C56.6774 978.861 56.3772 979.181 56.1372 979.511C27.4372 960.271 15.2873 933.321 6.42726 907.661C-1.74274 878.841 0.227247 848.291 0.167247 819.101L0.147227 715.541L1.01734 365.371L1.06739 361.121Z" fill="url(#paint3_linear_204_178)"/>
<path d="M1.06738 361.121L4.01733 359.961L5.9873 356.991L6.92725 357.111C11.8572 369.211 8.8273 522.691 5.7373 538.871C4.2273 501.131 5.14733 463.321 5.51733 425.581C5.69733 408.351 7.77743 390.061 5.36743 372.941C4.93743 369.851 3.48733 367.931 1.01733 365.371L1.06738 361.121Z" fill="#D27B08"/>
<path d="M9.67725 82.5721C16.9772 67.0591 25.5974 52.0932 39.0974 38.4542C56.1874 21.1832 79.5172 7.11518 110.657 2.75818C113.297 14.1032 124.877 13.9861 125.647 31.1711C168.327 33.7141 212.357 28.7322 254.417 31.9982C263.287 36.6012 270.777 36.0551 281.627 36.2911L279.277 36.4061C229.757 38.5181 157.967 29.3611 112.147 38.5331C96.1772 41.7301 83.5573 47.4521 72.5073 55.7081C49.1873 73.1331 37.1773 97.4302 33.4373 120.3C27.2873 158.031 32.7473 200.671 32.7673 238.981L32.5474 490.241L31.8474 741.061C31.0874 775.708 31.074 810.354 31.8074 845.001C32.0774 859.581 30.8372 874.961 33.1272 889.411C34.9172 900.691 46.1073 913.031 43.7573 924.341C42.6907 922.688 41.6773 921.021 40.7173 919.341C39.7573 917.655 38.8573 915.955 38.0173 914.241C37.1773 912.535 36.3939 910.815 35.6672 909.081C34.9406 907.348 34.2706 905.605 33.6572 903.851C33.0506 902.098 32.504 900.334 32.0173 898.561C31.524 896.788 31.094 895.011 30.7273 893.231C30.354 891.445 30.044 889.658 29.7974 887.871C29.544 886.078 29.354 884.281 29.2273 882.481C25.1773 829.881 28.9773 771.511 28.9873 718.171L28.8872 387.271L28.6672 202.181C28.5772 170.671 23.0174 138.299 30.5874 107.046C24.0074 98.6851 17.2672 90.5461 9.67725 82.5721Z" fill="#F9B635"/>
<path d="M135.277 72.3201C147.547 68.2491 163.307 68.6051 176.757 68.2751C277.867 65.7891 379.867 68.6021 481.097 68.4761L642.097 68.0411C685.907 67.8141 742.837 63.8571 784.647 71.1551C793.867 73.5021 801.697 76.3731 809.057 80.8041C824.077 89.0651 833.427 97.4642 841.997 109.104C850.607 117.334 856.587 128.385 857.447 138.475C869.887 165.141 862.847 236.431 862.827 267.741L862.797 490.971L862.807 714.041C862.857 752.641 865.237 791.901 862.727 830.441C861.827 844.271 856.287 872.331 846.987 884.531C845.447 886.551 845.257 886.571 843.417 888.061L841.807 887.631C845.147 876.891 851.017 865.581 847.677 854.621C838.537 876.771 824.017 912.941 789.127 923.101C777.467 926.491 757.447 926.481 744.747 926.761C636.397 929.121 526.857 926.811 418.367 926.801L259.547 926.861C227.877 926.941 195.737 927.901 164.117 926.811C152.907 926.421 143.287 926.011 133.257 922.281C114.237 915.211 103.307 902.891 93.6471 890.421C92.8671 900.641 100.957 912.541 104.867 922.521C88.2873 904.771 75.5473 888.291 66.8473 868.131C62.6473 858.731 63.1171 847.801 62.8771 838.041C61.4071 777.031 63.4173 715.931 63.5573 654.911L62.9872 345.441L62.6271 230.961C62.3971 215.901 58.0671 187.151 62.6271 173.731C62.2471 156.631 65.4572 139.18 73.7372 122.956C84.9172 101.048 103.447 82.8751 135.277 72.3201Z" fill="url(#paint4_linear_204_178)"/>
<path d="M135.277 72.3201C147.547 68.2491 163.307 68.6051 176.757 68.2751C277.867 65.7891 379.867 68.6021 481.097 68.4761L642.097 68.0411C685.907 67.8141 742.837 63.8571 784.647 71.1551C793.867 73.5021 801.697 76.3731 809.057 80.8041C824.077 89.0651 833.427 97.4642 841.997 109.104C833.427 106.184 827.187 100.306 818.897 96.8821C813.847 94.7961 810.867 94.1221 805.147 94.9931C769.297 75.1071 672.827 84.9271 625.897 83.8471C583.927 85.3801 541.537 84.4051 499.517 84.3531L284.737 84.1061C242.017 84.0421 197.047 81.7941 154.647 85.0961C143.267 85.9831 135.667 87.1351 126.487 91.8381L123.377 91.4402C120.727 91.8482 118.607 91.8602 115.897 91.8652L114.767 89.5552C119.107 83.5132 128.147 78.8931 134.127 73.3931L135.277 72.3201Z" fill="#6C2D04"/>
<path d="M135.277 72.3201C147.547 68.2491 163.307 68.6051 176.757 68.2751C277.867 65.7891 379.867 68.6021 481.097 68.4761L642.097 68.0411C685.907 67.8141 742.837 63.8571 784.647 71.1551C769.927 76.9411 719.527 73.5101 700.577 73.5741C568.037 74.0211 435.517 72.1631 303.017 72.8091C255.397 73.0411 200.757 69.1522 154.467 76.3102C139.517 78.6232 129.697 81.7972 123.377 91.4402C120.727 91.8482 118.607 91.8602 115.897 91.8652L114.767 89.5552C119.107 83.5132 128.147 78.8931 134.127 73.3931L135.277 72.3201Z" fill="#4C1B01"/>
<path d="M625.897 83.8472C595.677 79.2912 559.797 82.5682 528.767 82.6632L290.607 82.6062C257.617 82.5712 214.157 84.8622 182.187 81.6992C195.687 74.5892 639.487 78.5192 694.217 78.5152C714.357 78.5132 759.457 82.1382 775.337 79.4312L774.667 76.6992C785.147 76.5822 794.937 80.5612 805.507 80.7802C806.687 80.8052 807.877 80.7962 809.057 80.8042C824.077 89.0652 833.427 97.4642 841.997 109.104C833.427 106.184 827.187 100.306 818.897 96.8822C813.847 94.7962 810.867 94.1222 805.147 94.9932C769.297 75.1072 672.827 84.9272 625.897 83.8472Z" fill="#922E04"/>
<path d="M835.697 124.038C841.527 126.741 852.627 137.973 857.447 138.475C869.887 165.141 862.847 236.431 862.827 267.741L862.797 490.971L862.807 714.041C862.857 752.641 865.237 791.901 862.727 830.441C861.827 844.271 856.287 872.331 846.987 884.531C845.447 886.551 845.257 886.571 843.417 888.061L841.807 887.631C845.147 876.891 851.017 865.581 847.677 854.621C845.217 833.571 847.197 811.971 847.347 790.851L847.417 681.931L847.347 315.621C847.397 264.031 855.457 197.001 845.547 147.408C843.097 139.572 839.067 131.734 835.697 124.038Z" fill="#AE5705"/>
<path d="M66.8473 868.131C62.6473 858.731 63.1171 847.801 62.8771 838.041C61.4071 777.031 63.4173 715.931 63.5573 654.911L62.9872 345.441L62.6271 230.961C62.3971 215.901 58.0671 187.151 62.6271 173.731C63.2871 177.461 62.8373 181.971 67.3273 184.461L69.1671 184.671L73.3273 181.351C77.2973 184.491 77.2271 188.671 78.1471 192.691C79.3371 204.621 77.9871 216.691 77.9271 228.651C77.7671 261.951 76.9073 295.611 78.3073 328.871C78.9073 350.531 76.8872 372.191 77.0272 393.861L78.5372 585.701L78.4271 656.321C78.4071 668.321 77.1972 681.061 78.9672 692.981C78.6272 743.981 65.6071 844.011 93.6471 890.421C92.8671 900.641 100.957 912.541 104.867 922.521C88.2873 904.771 75.5473 888.291 66.8473 868.131Z" fill="#9D4907"/>
<path d="M66.8474 868.131C71.4474 851.621 70.4073 833.181 70.5073 816.401L70.0173 731.981L70.9072 481.171C70.9972 428.951 67.7573 375.421 74.2373 323.361L75.7773 322.831L78.3074 328.871C78.9074 350.531 76.8873 372.191 77.0273 393.861L78.5374 585.701L78.4272 656.321C78.4072 668.321 77.1973 681.061 78.9673 692.981C78.6273 743.981 65.6072 844.011 93.6472 890.421C92.8672 900.641 100.957 912.541 104.867 922.521C88.2874 904.771 75.5474 888.291 66.8474 868.131Z" fill="#AE5705"/>
<path d="M839.867 146.743L845.547 147.408C855.457 197.001 847.397 264.031 847.347 315.621L847.417 681.931L847.347 790.851C847.197 811.971 845.217 833.571 847.677 854.621C838.537 876.771 824.017 912.941 789.127 923.101C777.467 926.491 757.447 926.481 744.747 926.761C636.397 929.121 526.857 926.811 418.367 926.801L259.547 926.861C227.877 926.941 195.737 927.901 164.117 926.811C152.907 926.421 143.287 926.011 133.257 922.281C114.237 915.211 103.307 902.891 93.6473 890.421C65.6073 844.011 78.6273 743.981 78.9673 692.981C82.9373 703.781 80.7974 716.691 80.8074 727.861C80.8174 763.811 78.5075 800.291 81.8575 836.161C82.3875 841.781 81.3973 847.491 83.1773 853.001C88.2873 845.601 84.4473 828.991 84.7373 820.301C84.8973 815.541 87.0173 811.021 87.1973 806.321C88.1273 781.371 87.3273 755.741 86.6973 730.751C85.6273 688.731 82.6574 646.701 85.5574 604.661C87.5274 627.611 86.6373 650.871 87.1573 673.871C88.0573 713.921 89.4773 754.041 88.9873 794.091C88.7973 809.471 86.5373 824.801 86.9273 840.171C87.7473 871.891 102.587 898.391 137.177 920.541C185.487 923.901 235.367 922.191 283.897 922.121L505.297 922.401L665.757 922.651C704.277 922.781 744.967 924.861 782.927 920.271C792.567 915.331 800.957 909.861 808.217 903.361C809.284 902.401 810.327 901.431 811.347 900.451C812.361 899.471 813.354 898.478 814.327 897.471C815.294 896.465 816.237 895.451 817.157 894.431C818.077 893.404 818.971 892.368 819.837 891.321C820.704 890.281 821.544 889.228 822.357 888.161C823.177 887.101 823.967 886.031 824.727 884.951C825.487 883.871 826.224 882.781 826.937 881.681C827.644 880.588 828.324 879.485 828.977 878.371C829.631 877.265 830.257 876.148 830.857 875.021C831.457 873.894 832.027 872.761 832.567 871.621C833.114 870.488 833.631 869.344 834.117 868.191C834.604 867.044 835.061 865.891 835.487 864.731C835.914 863.571 836.314 862.408 836.687 861.241C837.061 860.075 837.404 858.905 837.717 857.731C838.031 856.551 838.314 855.371 838.567 854.191C838.821 853.011 839.047 851.828 839.247 850.641C845.317 814.391 841.097 776.681 840.747 740.251L841.467 575.921L842.537 303.361C842.947 251.601 851.177 198.171 839.867 146.743Z" fill="#4C1B01"/>
<path d="M62.6271 173.731C62.2471 156.631 65.4572 139.18 73.7372 122.956C84.9172 101.048 103.447 82.8751 135.277 72.3201L134.127 73.3931C128.147 78.8931 119.107 83.5132 114.767 89.5552L115.897 91.8652C118.607 91.8602 120.727 91.8482 123.377 91.4402L126.487 91.8381C135.667 87.1351 143.267 85.9831 154.647 85.0961C197.047 81.7941 242.017 84.0421 284.737 84.1061L499.517 84.3531C541.537 84.4051 583.927 85.3802 625.897 83.8472C672.827 84.9272 769.297 75.1072 805.147 94.9932C810.867 94.1222 813.847 94.7961 818.897 96.8821C827.187 100.306 833.427 106.184 841.997 109.104C850.607 117.334 856.587 128.385 857.447 138.475C852.627 137.973 841.527 126.741 835.697 124.038C839.067 131.734 843.097 139.572 845.547 147.408L839.867 146.743C836.517 129.531 821.367 113.995 801.017 103.346C794.527 99.9541 787.677 96.8342 780.897 93.7112C695.807 89.9432 609.517 90.9162 524.247 90.9412L142.197 92.4891C88.7972 122.722 86.9173 141.872 79.0373 186.061L78.1471 192.691C77.2271 188.671 77.2973 184.491 73.3273 181.351L69.1672 184.671L67.3273 184.461C62.8373 181.971 63.2871 177.461 62.6271 173.731Z" fill="#190200"/>
<path d="M62.6271 173.731C62.2471 156.631 65.4572 139.18 73.7372 122.956C84.9172 101.048 103.447 82.8751 135.277 72.3201L134.127 73.3931C128.147 78.8931 119.107 83.5132 114.767 89.5552L115.897 91.8652C118.607 91.8602 120.727 91.8482 123.377 91.4402L126.487 91.8381C92.6972 113.381 79.4273 136.432 78.5773 167.541C78.4906 173.714 78.6439 179.888 79.0373 186.061L78.1471 192.691C77.2271 188.671 77.2973 184.491 73.3273 181.351L69.1672 184.671L67.3273 184.461C62.8373 181.971 63.2871 177.461 62.6271 173.731Z" fill="url(#paint5_linear_204_178)"/>
<path d="M805.147 94.9931C810.867 94.1221 813.847 94.7961 818.897 96.8821C827.187 100.306 833.427 106.184 841.997 109.104C850.607 117.334 856.587 128.385 857.447 138.475C852.627 137.973 841.527 126.741 835.697 124.038C827.477 113.129 817.177 104.145 805.147 94.9931Z" fill="#9D4907"/>
<path d="M811.907 748.211C821.077 760.671 812.047 836.451 805.677 852.751C800.267 866.571 789.937 879.931 770.537 887.021C755.937 892.361 739.157 893.651 722.807 894.311C697.257 895.341 671.417 893.631 645.817 893.561L481.187 893.801L311.327 893.481C275.307 893.611 238.847 894.821 202.857 893.881C191.107 893.581 179.317 892.761 168.057 890.381C147.587 886.051 135.477 876.531 126.157 864.011C114.727 848.661 112.717 832.001 111.367 815.121C109.017 785.691 111.147 755.721 111.247 726.221L111.597 556.791L111.797 346.151C111.797 303.031 102.977 201.871 121.907 164.761C128.297 152.241 140.287 138.334 158.987 132.571C172.097 128.53 187.337 127.946 201.567 127.43C229.697 126.411 257.937 127.237 286.097 127.182L442.467 126.704L628.197 126.198C660.697 126.14 693.517 125.354 725.977 126.242C738.767 126.592 755.597 126.61 767.407 130.067C782.897 134.598 796.957 146.533 802.727 157.011C811.167 172.311 813.737 188.491 814.867 204.671C816.597 229.601 815.077 254.551 814.937 279.501L814.597 410.981L814.497 602.091C814.547 629.391 816.077 656.821 815.277 684.091C815.077 691.021 816.037 703.271 810.867 709.321C810.437 709.821 809.937 710.301 809.467 710.791C811.817 722.931 808.237 736.551 811.907 748.211Z" fill="#6C2D04"/>
<path d="M180.027 426.521C169.137 416.481 161.547 406.201 158.117 393.971C147.257 355.301 171.377 293.881 204.987 261.871C205.687 261.198 206.4 260.531 207.127 259.871C207.847 259.211 208.584 258.558 209.337 257.911C210.084 257.264 210.844 256.625 211.617 255.991C212.391 255.358 213.174 254.728 213.967 254.101C214.767 253.481 215.577 252.868 216.397 252.261C217.217 251.648 218.047 251.044 218.887 250.451C219.727 249.858 220.581 249.271 221.447 248.691C222.314 248.111 223.187 247.538 224.067 246.971C224.954 246.405 225.851 245.848 226.757 245.301C227.664 244.748 228.581 244.204 229.507 243.671C230.434 243.131 231.371 242.601 232.317 242.081C233.264 241.561 234.22 241.051 235.187 240.551C236.154 240.044 237.131 239.548 238.117 239.061C239.097 238.574 240.091 238.095 241.097 237.621C242.097 237.155 243.107 236.691 244.127 236.231C245.147 235.778 246.177 235.334 247.217 234.901C248.251 234.461 249.294 234.031 250.347 233.611C251.401 233.191 252.461 232.781 253.527 232.381C254.594 231.974 255.671 231.581 256.757 231.201C257.837 230.815 258.927 230.438 260.027 230.071C261.121 229.704 262.224 229.348 263.337 229.001C264.444 228.654 265.56 228.318 266.687 227.991C267.807 227.658 268.934 227.338 270.067 227.031C271.201 226.718 272.341 226.418 273.487 226.131C274.634 225.838 275.787 225.554 276.947 225.281C278.101 225.008 279.26 224.745 280.427 224.491C281.594 224.238 282.767 223.998 283.947 223.771C285.121 223.538 286.297 223.311 287.477 223.091C288.664 222.878 289.854 222.675 291.047 222.481C292.241 222.288 293.434 222.104 294.627 221.931C295.827 221.758 297.031 221.594 298.237 221.441C299.437 221.288 300.644 221.144 301.857 221.011C341.597 216.431 382.467 220.441 415.767 236.181C478.557 265.881 491.197 314.461 503.607 361.481C523.827 360.911 595.397 356.821 610.817 364.741C611.747 365.221 612.477 365.861 613.297 366.421C630.057 384.081 638.427 405.731 642.627 426.281C655.407 404.161 660.477 376.981 690.547 361.741C722.877 361.191 754.857 360.161 786.987 363.191C793.807 376.301 803.187 390.661 803.827 404.621C805.267 436.021 744.557 526.481 724.037 560.581C741.287 588.761 756.527 617.421 772.577 645.911C784.767 667.561 798.067 688.941 809.467 710.791C811.817 722.931 808.237 736.551 811.907 748.211C806.417 753.781 800.127 758.361 793.267 763.161C762.317 765.701 732.337 767.281 702.417 760.411C675.357 738.131 663.077 703.211 649.997 676.271C633.907 705.761 625.197 738.881 595.507 763.981C567.637 764.751 539.597 764.271 511.707 764.161C506.597 760.841 501.147 757.751 495.807 754.601L473.717 764.361C443.417 765.451 412.497 763.731 382.107 763.531L185.887 762.591C176.347 756.231 168.997 750.111 164.137 741.631C154.907 725.531 156.997 707.801 156.587 690.901C156.087 670.571 151.927 646.271 160.657 626.581C171.007 603.271 208.947 571.671 229.527 551.131C264.477 516.261 300.787 480.781 327.277 442.611C336.757 428.941 354.747 403.081 345.307 388.071C342.747 383.991 338.737 381.931 332.727 380.161C300.557 383.561 310.107 431.291 287.987 441.211C272.277 448.251 197.267 430.741 180.027 426.521Z" fill="#4C1B01"/>
<path d="M503.607 361.481C523.827 360.911 595.397 356.821 610.817 364.741C611.747 365.221 612.477 365.861 613.297 366.421C611.617 368.491 612.237 367.481 611.147 369.891C610.197 371.971 609.417 374.651 607.907 376.561C598.857 388.041 536.357 374.271 511.197 382.171C510.127 382.511 509.087 382.881 508.027 383.231L504.577 381.611C501.957 376.251 506.907 369.351 507.647 363.641L503.607 361.481Z" fill="#4C1B01"/>
<path d="M186.017 389.241C185.297 388.801 184.537 388.391 183.877 387.911C174.857 381.371 176.717 368.361 178.057 360.111C183.587 326.091 204.947 285.741 246.257 263.711C275.627 248.061 314.097 243.091 350.857 246.231C385.037 249.151 414.007 261.221 434.727 279.361C471.547 305.691 478.367 347.411 476.737 381.811C473.207 456.021 415.707 520.891 357.357 581.661C341.437 598.241 324.107 614.671 309.607 631.781C346.797 631.491 432.827 626.871 464.757 633.351C467.837 636.271 469.767 639.411 470.857 642.911C475.747 658.481 478.417 708.821 466.167 721.641C451.647 727.201 215.517 724.081 186.857 721.071L187.557 719.891L184.107 720.301C169.257 706.001 178.107 656.521 178.557 637.541C205.127 611.941 228.937 585.191 253.657 558.801C301.287 507.961 352.237 459.761 368.927 399.661C368.937 385.771 370.977 370.471 362.127 357.551C356.787 349.751 347.227 341.981 334.527 339.351C327.207 337.841 319.667 338.371 312.977 340.871C285.497 351.131 276.027 385.591 267.997 404.081C239.397 401.951 212.797 396.011 186.017 389.241Z" fill="#FBE2BF"/>
<path d="M368.927 399.661C379.807 420.321 359.867 450.111 346.497 468.671C315.397 511.871 274.667 552.141 235.967 592.421C223.887 604.991 189.597 635.101 184.477 646.931C176.827 664.561 180.487 697.511 184.247 715.741C214.907 721.601 430.727 723.381 461.447 717.641C466.817 714.781 467.877 710.691 468.727 706.331C470.457 697.381 470.067 652.471 463.127 645.721C456.997 639.771 443.737 639.401 434.007 638.971C413.807 638.081 329.427 642.821 317.427 635.761C323.737 631.531 349.277 632.911 358.467 632.901C393.597 632.871 429.767 634.881 464.757 633.351C467.837 636.271 469.767 639.411 470.857 642.911C475.747 658.481 478.417 708.821 466.167 721.641C451.647 727.201 215.517 724.081 186.857 721.071L187.557 719.891L184.107 720.301C169.257 706.001 178.107 656.521 178.557 637.541C205.127 611.941 228.937 585.191 253.657 558.801C301.287 507.961 352.237 459.761 368.927 399.661Z" fill="#FEF4DB"/>
<path d="M186.017 389.241C185.297 388.801 184.537 388.391 183.877 387.911C174.857 381.371 176.717 368.361 178.057 360.111C183.587 326.091 204.947 285.741 246.257 263.711C275.627 248.061 314.097 243.091 350.857 246.231C385.037 249.151 414.007 261.221 434.727 279.361C433.627 279.161 432.517 278.991 431.427 278.761C417.907 276.001 407.477 265.621 394.947 260.931C368.077 250.861 303.887 254.031 276.167 262.501C233.947 275.401 210.097 305.501 195.627 333.411C186.497 351.001 179.657 367.061 185.537 385.681C186.207 387.801 186.017 386.901 186.017 389.241Z" fill="#FEF4DB"/>
<path d="M688.457 384.161C704.957 383.601 760.917 379.351 773.167 385.561C775.547 391.151 773.917 396.191 772.017 401.761C765.437 421.101 752.057 441.061 741.677 459.761C726.147 487.761 711.937 517.721 691.737 544.321C691.977 552.121 702.217 562.831 706.677 570.441C717.187 588.371 726.357 606.641 736.877 624.571C752.317 650.901 777.357 684.201 783.077 711.811C784.017 716.321 784.037 718.921 779.427 722.351C757.317 728.121 725.377 724.691 702.037 723.841C682.727 704.151 658.047 645.641 641.407 619.311C631.154 635.351 621.817 651.624 613.397 668.131C603.787 687.011 596.057 706.211 581.947 723.891C556.167 724.831 529.017 727.161 503.687 722.931C502.327 721.711 501.387 720.941 500.277 719.551C497.127 715.651 498.617 711.631 500.217 707.591C508.517 686.681 522.777 666.321 533.747 645.901C552.287 611.401 569.297 576.561 587.617 542.021L587.097 540.601C586.304 539.374 585.551 538.138 584.837 536.891C571.277 512.981 559.307 488.621 546.087 464.611C535.237 444.911 521.867 424.731 514.577 404.341C512.547 398.671 509.637 390.551 513.267 385.031C528.667 379.691 581.017 383.711 600.577 384.241C610.557 398.681 616.957 413.541 621.457 429.111C625.697 438.411 631.067 457.751 641.657 464.201C655.717 437.101 668.827 409.771 688.457 384.161Z" fill="#FBE2BF"/>
<path d="M688.457 384.161C704.957 383.601 760.917 379.351 773.167 385.561C775.547 391.151 773.917 396.191 772.017 401.761C765.437 421.101 752.057 441.061 741.677 459.761C726.147 487.761 711.937 517.721 691.737 544.321C690.667 540.261 691.457 537.511 693.237 533.581C700.617 517.251 711.847 501.201 721.377 485.341C739.887 454.531 758.017 423.691 771.257 391.661C745.797 391.021 720.047 391.681 694.557 391.891C684.757 409.751 660.507 459.261 642.987 470.751C640.377 467.891 641.247 467.411 641.657 464.201C655.717 437.101 668.827 409.771 688.457 384.161Z" fill="#FEF4DB"/>
<path d="M587.097 540.601C586.304 539.375 585.551 538.138 584.837 536.891C571.277 512.981 559.307 488.621 546.087 464.611C535.237 444.911 521.867 424.731 514.577 404.341C512.547 398.671 509.637 390.551 513.267 385.031C528.667 379.691 581.017 383.711 600.577 384.241C610.557 398.681 616.957 413.541 621.457 429.111C610.247 423.831 605.377 402.091 601.597 392.891C572.447 391.601 543.777 391.651 514.797 394.391C527.187 418.861 539.257 443.461 552.857 467.641C563.967 487.381 577.377 506.891 585.427 527.321C587.277 532.001 588.227 535.771 587.097 540.601Z" fill="#FEF4DB"/>
<path d="M587.617 542.021C594.697 551.631 575.467 586.681 569.707 597.891C548.727 638.741 524.597 678.191 506.467 719.711C505.707 721.461 505.717 721.041 503.687 722.931C502.327 721.711 501.387 720.941 500.277 719.551C497.127 715.651 498.617 711.631 500.217 707.591C508.517 686.681 522.777 666.321 533.747 645.901C552.287 611.401 569.297 576.561 587.617 542.021Z" fill="#FEF4DB"/>
<path d="M505.047 434.231C521.977 444.921 556.097 524.881 565.907 545.721C545.597 588.221 524.487 630.881 501.787 672.841C500.867 662.001 499.117 651.671 495.257 641.121C491.767 632.061 489.407 622.621 479.117 615.761C460.767 603.501 409.697 609.091 385.227 609.551C446.067 547.181 474.297 505.971 505.047 434.231Z" fill="#6C2D04"/>
<path d="M647.727 171.671C657.737 179.201 660.417 196.111 664.837 205.981C672.697 223.561 692.617 233.951 715.967 242.021C710.557 244.031 705.087 246.041 699.907 248.311C667.017 262.671 657.387 285.871 650.007 309.881C645.977 309.691 639.257 287.771 637.087 283.771C627.067 265.321 607.637 252.951 583.817 242.401C589.197 240.401 594.797 238.431 599.857 236.091C632.187 221.181 640.527 195.641 647.727 171.671Z" fill="#F9B635"/>
<path d="M597.707 782.321C610.687 791.241 605.517 805.361 635.667 821.631C614.187 831.551 606.967 842.551 599.207 858.551C596.797 856.811 596.937 857.321 595.997 855.531C592.807 849.451 590.987 843.661 585.547 838.171C585.027 837.651 584.467 837.151 583.947 836.631C578.107 830.911 568.727 827.671 560.067 824.091C582.297 810.041 590.637 802.211 597.707 782.321Z" fill="#F9B635"/>
<path d="M742.007 810.241C747.067 812.981 751.058 815.641 751.088 820.391C751.118 826.001 745.828 829.851 740.588 833.741C738.808 832.891 737.048 832.011 735.358 831.091C731.458 828.961 728.607 826.101 728.937 822.581C729.457 817.141 736.377 813.531 742.007 810.241Z" fill="#922E04"/>
<path d="M317.737 818.071C318.467 818.121 319.207 818.151 319.927 818.211C326.617 818.841 328.697 820.031 332.727 823.391C334.467 828.581 333.117 832.621 331.617 837.791C329.747 837.761 326.497 837.781 324.747 837.471C322.087 837.011 319.187 835.891 317.667 834.341C312.827 829.421 315.907 823.331 317.737 818.071Z" fill="#922E04"/>
<path d="M183.757 505.601C188.037 506.221 191.397 507.181 194.137 509.621C199.917 514.771 196.067 522.691 193.817 528.181C189.697 526.601 184.127 524.681 181.537 521.961C176.867 517.041 181.367 510.551 183.757 505.601Z" fill="#922E04"/>
<path d="M461.618 836.261C467.558 837.521 469.818 838.441 473.338 841.981C474.928 846.481 473.847 849.541 472.277 853.991C466.637 853.311 464.527 852.831 460.547 850.041C458.197 845.221 460.128 841.101 461.618 836.261Z" fill="#922E04"/>
<path d="M531.367 214.111C535.467 215.881 537.187 217.621 539.767 220.361C540.897 224.981 539.647 227.381 537.007 231.671C532.657 230.141 530.907 228.781 528.107 226.101C526.737 221.361 528.727 218.511 531.367 214.111Z" fill="#922E04"/>
<defs>
<linearGradient id="paint0_linear_204_178" x1="1007.31" y1="601.906" x2="-82.1932" y2="409.52" gradientUnits="userSpaceOnUse">
<stop stop-color="#C56D06"/>
<stop offset="1" stop-color="#E28C13"/>
</linearGradient>
<linearGradient id="paint1_linear_204_178" x1="929.243" y1="952.084" x2="262.958" y2="314.034" gradientUnits="userSpaceOnUse">
<stop stop-color="#702000"/>
<stop offset="1" stop-color="#A95203"/>
</linearGradient>
<linearGradient id="paint2_linear_204_178" x1="661.747" y1="164.3" x2="337.54" y2="-104.502" gradientUnits="userSpaceOnUse">
<stop stop-color="#BC7600"/>
<stop offset="1" stop-color="#FFA02E"/>
</linearGradient>
<linearGradient id="paint3_linear_204_178" x1="59.787" y1="518.12" x2="-6.73717" y2="516.915" gradientUnits="userSpaceOnUse">
<stop stop-color="#A55602"/>
<stop offset="1" stop-color="#D37B07"/>
</linearGradient>
<linearGradient id="paint4_linear_204_178" x1="-56.7865" y1="297.075" x2="974.353" y2="716.408" gradientUnits="userSpaceOnUse">
<stop stop-color="#3A1101"/>
<stop offset="1" stop-color="#5D2502"/>
</linearGradient>
<linearGradient id="paint5_linear_204_178" x1="72.7383" y1="127.164" x2="99.9625" y2="134.927" gradientUnits="userSpaceOnUse">
<stop stop-color="#722202"/>
<stop offset="1" stop-color="#823C06"/>
</linearGradient>
</defs>
</svg>
