<svg width="966" height="1054" viewBox="0 0 966 1054" fill="none" xmlns="http://www.w3.org/2000/svg">
<path d="M114.854 2.47724C165.634 -1.87076 216.554 0.789261 267.534 0.971261L496.764 0.69526L702.324 0.844247C738.534 0.861247 776.354 -0.551749 812.394 1.59925C832.644 2.80825 850.644 5.04122 867.304 13.3712C888.584 24.0062 901.684 39.6152 914.694 54.6942C917.804 58.2952 920.674 63.1342 924.794 66.1462C949.504 93.9292 959.574 130.065 963.344 161.855C967.084 193.375 964.174 226.155 964.084 257.835L964.245 430.645L964.544 751.475L964.774 849.565C964.954 887.615 968.174 926.475 953.864 963.685C942.164 994.125 918.164 1026.07 876.024 1042.37C859.454 1048.78 842.285 1051.68 823.255 1052.56C765.675 1055.22 694.614 1051.9 635.334 1051.91L282.654 1052.12C253.454 1052.13 155.804 1054.8 132.964 1050.41C93.1245 1042.75 63.1244 1020.09 44.6044 996.285C30.4244 978.045 14.1144 942.345 12.6244 922.155C5.9444 904.505 2.87451 885.795 1.73451 867.635C-1.80549 811.535 1.15452 754.825 1.24452 698.655L1.53431 391.135L1.56434 230.055C1.19434 183.045 -4.47553 133.028 9.69447 86.8673C15.8445 72.8233 22.0343 59.5552 32.7843 46.6862C51.8643 23.8552 76.8044 9.52324 114.854 2.47724Z" fill="url(#paint0_linear_204_179)"/>
<path d="M924.794 66.1462C949.504 93.9292 959.574 130.065 963.344 161.855C967.084 193.375 964.174 226.155 964.084 257.835L964.245 430.645L964.544 751.475L964.774 849.565C964.954 887.615 968.175 926.475 953.865 963.685C942.165 994.125 918.164 1026.07 876.024 1042.37C859.454 1048.78 842.285 1051.68 823.255 1052.56C765.675 1055.22 694.614 1051.9 635.334 1051.91L282.655 1052.12C253.455 1052.13 155.805 1054.8 132.965 1050.41C93.1246 1042.75 63.1245 1020.09 44.6045 996.285C30.4245 978.045 14.1145 942.345 12.6245 922.155C21.9945 940.515 32.2844 959.765 52.5144 974.185C53.5844 975.245 54.6945 976.285 55.8745 977.285C73.8445 992.595 100.454 1003.78 129.844 1005.83C167.844 1008.48 207.505 1006.7 245.675 1006.57L461.635 1005.88C528.135 1005.83 594.675 1005.49 661.165 1005.99C713.785 1006.38 768.705 1008.86 820.995 1004.23C841.985 1002.37 855.635 998.115 871.745 989.035C912.195 966.245 932.654 929.225 936.574 894.785C943.484 865.365 939.945 834.565 939.375 804.885C938.735 771.125 939.034 737.345 939.034 703.595C940.414 667.175 939.554 630.465 938.804 594.025C942.014 561.745 939.574 528.945 939.314 496.595C938.954 453.145 939.844 409.705 938.854 366.245C939.334 343.605 939.338 320.965 938.865 298.325C940.125 269.275 939.045 240.165 939.195 211.095C939.365 177.065 947.944 121.058 932.034 90.3612C929.894 82.2532 927.481 74.1816 924.794 66.1462Z" fill="#000D18"/>
<path d="M891.645 73.6892C886.195 65.0762 876.724 51.4402 882.274 42.1682C883.514 40.1012 885.564 39.8112 888.274 38.7162C898.964 41.5902 905.715 54.0612 910.085 60.9212C915.825 69.9142 921.184 83.8012 932.034 90.3612C947.944 121.058 939.365 177.065 939.195 211.095C939.045 240.165 940.125 269.275 938.865 298.325C939.338 320.965 939.335 343.605 938.855 366.245C939.845 409.705 938.955 453.145 939.315 496.595C939.575 528.945 942.015 561.745 938.805 594.025C939.555 630.465 940.414 667.175 939.034 703.595C939.034 737.345 938.735 771.125 939.375 804.885C939.945 834.565 943.485 865.365 936.575 894.785C932.655 929.225 912.195 966.245 871.745 989.035C855.635 998.115 841.985 1002.37 820.995 1004.23C768.705 1008.86 713.785 1006.38 661.165 1005.99C594.675 1005.49 528.135 1005.83 461.635 1005.88L245.675 1006.57C207.505 1006.7 167.845 1008.48 129.845 1005.83C100.455 1003.78 73.8446 992.595 55.8746 977.285C54.6946 976.285 53.5845 975.245 52.5145 974.185C57.4045 965.865 37.2145 957.055 36.8245 948.775C36.7345 946.885 37.5447 947.155 39.9447 945.605C47.3747 944.015 52.7046 944.415 60.3646 945.075C107.515 977.885 100.645 971.815 165.185 977.215L172.764 977.155C193.604 973.985 264.885 976.395 291.125 976.385L628.575 976.245C684.565 976.265 742.235 978.725 797.995 976.035C812.145 975.355 827.265 973.465 840.345 969.735C868.365 961.735 887.754 938.835 897.774 920.505C906.514 904.505 908.885 888.245 910.145 871.315C913.345 828.175 910.185 784.535 910.115 741.315L909.915 489.435L909.585 273.785C909.865 225.985 912.745 178.335 908.675 130.54C907.175 112.884 902.825 89.8922 891.645 73.6892Z" fill="url(#paint1_linear_204_179)"/>
<path d="M165.185 977.215L172.764 977.155C200.194 980.455 258.495 977.595 289.155 977.585L572.935 977.805C565.045 979.625 558.355 981.205 549.915 981.065C494.695 980.165 439.585 982.045 384.385 982.195C345.005 982.305 305.864 980.695 266.554 980.435C239.064 980.255 176.974 984.735 154.044 979.085C153.304 978.895 152.615 978.625 151.895 978.395L149.915 978.985L149.024 977.495L150.645 978.775L153.764 977.605L154.715 979.015L156.365 977.435L165.185 977.215Z" fill="#4C1B01"/>
<path d="M938.855 366.245C939.845 409.705 938.954 453.145 939.314 496.595C939.574 528.945 942.014 561.745 938.804 594.025C932.824 598.915 934.325 604.455 934.645 610.385C926.315 594.525 935.574 553.695 935.054 535.335C934.484 515.305 929.894 494.915 931.024 474.925C931.344 469.135 933.775 469.565 936.135 464.935C939.385 458.525 936.685 406.945 935.175 397.705C935.975 387.235 936.245 376.585 938.855 366.245Z" fill="#6C2D04"/>
<path d="M936.575 894.785C935.945 894.105 935.195 893.475 934.685 892.765C931.365 888.065 931.945 733.395 934.515 714.655C935.075 710.515 936.165 707.315 939.035 703.595C939.035 737.345 938.735 771.125 939.375 804.885C939.945 834.565 943.485 865.365 936.575 894.785Z" fill="#922E04"/>
<path d="M935.175 397.705C933.705 391.285 933.094 384.615 932.534 378.135C931.264 363.555 926.185 307.865 938.865 298.325C939.338 320.965 939.335 343.605 938.855 366.245C936.245 376.585 935.975 387.235 935.175 397.705Z" fill="#9D4907"/>
<path d="M578.885 977.945C642.925 974.985 718.355 977.585 783.455 978.005L782.294 978.795C766.154 979.465 750.245 981.475 734.125 982.215C702.295 983.695 603.935 985.715 578.885 977.945Z" fill="#4C1B01"/>
<path d="M114.854 2.47724C165.634 -1.87076 216.554 0.789261 267.534 0.971261L496.764 0.69526L702.324 0.844247C738.534 0.861247 776.355 -0.551749 812.395 1.59925C832.645 2.80825 850.644 5.04122 867.304 13.3712C888.584 24.0062 901.685 39.6152 914.695 54.6942C917.805 58.2952 920.674 63.1342 924.794 66.1462C927.481 74.1816 929.894 82.2532 932.034 90.3612C921.184 83.8012 915.824 69.9142 910.084 60.9212C905.714 54.0612 898.964 41.5903 888.274 38.7163C885.564 39.8113 883.514 40.1012 882.274 42.1682C876.724 51.4402 886.195 65.0762 891.645 73.6892C883.515 69.0512 878.875 62.3702 870.385 57.6292C850.745 53.3462 840.934 40.0222 819.344 36.8982C773.944 30.3292 713.005 35.5532 665.725 35.6672L373.125 36.1342C326.825 36.2882 280.614 37.7942 234.304 36.9992C230.664 36.3652 231.694 36.4333 228.764 36.2213C223.964 35.8753 219.875 35.4152 215.205 34.4642L213.865 31.8872C195.425 30.2252 174.434 32.0612 155.544 31.7382C148.704 32.0422 140.735 32.8772 134.485 30.6922C123.165 26.7352 118.755 12.4503 114.875 4.94526L114.854 2.47724Z" fill="url(#paint2_linear_204_179)"/>
<path d="M213.865 31.8872C347.245 30.1532 480.614 31.7862 614.014 31.8742L726.725 31.5752C754.905 31.4342 784.345 30.0393 812.175 33.3073C830.185 35.4233 845.314 41.2202 858.554 49.5512C862.664 52.1312 866.535 54.8852 870.385 57.6292C850.745 53.3462 840.934 40.0222 819.344 36.8982C773.944 30.3292 713.005 35.5532 665.725 35.6672L373.125 36.1342C326.825 36.2882 280.614 37.7942 234.304 36.9992C230.664 36.3652 231.694 36.4333 228.764 36.2213C223.964 35.8753 219.875 35.4152 215.205 34.4642L213.865 31.8872Z" fill="#F8CE4B"/>
<path d="M114.875 4.94525C119.775 6.67025 123.205 7.44224 124.645 11.2972C126.445 16.1222 124.974 19.0262 130.054 23.1442C140.604 24.6212 157.685 24.4502 166.675 28.1102C163.525 30.7502 160.254 30.7802 155.544 31.7382C148.704 32.0422 140.735 32.8772 134.485 30.6922C123.165 26.7352 118.755 12.4503 114.875 4.94525Z" fill="#E88C13"/>
<path d="M9.69447 86.8672C11.5945 88.9442 11.2645 89.1812 14.6845 90.2422C22.7845 92.7522 28.2845 98.5572 32.7145 103.468L29.3244 119.787L28.9345 283.155C28.8945 310.445 26.2743 339.105 29.3143 366.265C25.8643 472.985 29.1945 580.195 29.1945 686.965L29.1644 809.395C29.1044 834.145 27.3644 859.385 30.4144 884.045C30.6144 885.825 30.8778 887.602 31.2045 889.375C31.5245 891.142 31.901 892.905 32.3344 894.665C32.7744 896.425 33.2744 898.179 33.8344 899.925C34.3877 901.672 34.9978 903.409 35.6644 905.135C36.3378 906.862 37.0677 908.579 37.8544 910.285C38.641 911.992 39.4811 913.685 40.3744 915.365C41.2744 917.045 42.2278 918.712 43.2345 920.365C44.2412 922.019 45.3044 923.655 46.4244 925.275C50.0144 932.085 55.1444 938.745 60.3644 945.075C52.7044 944.415 47.3745 944.015 39.9445 945.605C37.5445 947.155 36.7343 946.885 36.8243 948.775C37.2143 957.055 57.4043 965.865 52.5143 974.185C32.2843 959.765 21.9944 940.515 12.6244 922.155C5.9444 904.505 2.87451 885.795 1.73451 867.635C-1.80549 811.535 1.15452 754.825 1.24452 698.655L1.53431 391.135L1.56434 230.055C1.19434 183.045 -4.47553 133.028 9.69447 86.8672Z" fill="url(#paint3_linear_204_179)"/>
<path d="M9.69458 86.8672C15.8446 72.8232 22.0344 59.5552 32.7844 46.6862C51.8644 23.8552 76.8045 9.52323 114.854 2.47723L114.875 4.94525C118.755 12.4503 123.165 26.7352 134.485 30.6922C140.735 32.8772 148.704 32.0422 155.544 31.7382C174.434 32.0612 195.425 30.2252 213.865 31.8872L215.205 34.4642C219.875 35.4152 223.964 35.8753 228.764 36.2213C231.694 36.4333 230.664 36.3652 234.304 36.9992C184.634 36.7572 114.485 27.5152 75.8945 53.2752C51.3645 69.6512 42.4146 93.1512 35.4446 115.06L29.3245 119.787L32.7146 103.468C28.2846 98.5572 22.7846 92.7522 14.6846 90.2422C11.2646 89.1812 11.5946 88.9442 9.69458 86.8672Z" fill="#F9B635"/>
<path d="M29.3146 366.265C35.1346 406.215 26.3947 447.295 32.2547 487.195C32.3947 474.785 31.6846 462.125 34.8246 449.855C36.7346 544.545 35.0047 639.405 34.6947 734.115C34.6813 764.002 34.438 793.888 33.9647 823.775C33.5347 843.275 31.0447 863.795 33.9847 883.195C35.8947 895.725 41.3346 908.675 45.8146 920.885C46.6746 923.235 46.3947 922.405 46.4247 925.275C45.3047 923.655 44.2414 922.018 43.2347 920.365C42.2281 918.712 41.2746 917.045 40.3746 915.365C39.4813 913.685 38.6413 911.992 37.8546 910.285C37.0679 908.578 36.338 906.862 35.6646 905.135C34.998 903.408 34.3846 901.672 33.8246 899.925C33.2712 898.179 32.7746 896.425 32.3346 894.665C31.9012 892.905 31.5247 891.142 31.2047 889.375C30.878 887.602 30.6147 885.825 30.4147 884.045C27.3647 859.385 29.1047 834.145 29.1647 809.395L29.1947 686.965C29.1947 580.195 25.8646 472.985 29.3146 366.265Z" fill="#F9B635"/>
<path d="M29.3245 119.787L35.4446 115.06C33.1446 226.625 37.7445 338.315 34.8245 449.855C31.6845 462.125 32.3947 474.785 32.2547 487.195C26.3947 447.295 35.1345 406.215 29.3145 366.265C26.2745 339.105 28.8946 310.445 28.9346 283.155L29.3245 119.787Z" fill="#F8CE4B"/>
<path d="M148.774 69.2702C180.784 65.5852 216.845 67.8972 249.405 68.0992L404.514 68.3682L647.405 68.0822C690.625 67.9602 735.145 66.2412 778.205 68.0852C790.585 68.6162 802.335 70.4682 812.585 75.3712C813.265 75.6942 813.874 76.0672 814.524 76.4152C822.794 79.8422 830.925 84.3402 836.355 89.7782C848.095 97.8092 857.235 107.35 861.925 118.171C872.095 135.1 875.605 148.786 875.595 166.975C880.275 181.775 877.204 835.455 875.784 838.795C881.344 844.555 877.385 854.475 875.305 860.925C866.805 887.315 847.825 919.095 812.235 934.325C801.615 938.865 793.475 939.325 781.105 939.895C731.165 942.215 680.845 940.725 630.815 940.845C536.301 941.352 441.788 941.409 347.274 941.015C314.454 940.915 281.614 940.645 248.804 940.845C216.784 941.045 180.674 943.225 149.274 938.625C146.914 938.285 144.725 937.665 142.485 937.095C129.705 933.885 109.165 929.835 103.325 920.725C101.735 918.245 102.154 918.965 102.014 916.225C83.7045 898.185 72.9145 881.305 67.6045 859.845C64.6645 826.865 66.0945 794.025 66.2845 761.025L66.6446 616.965L66.4246 463.525C66.2546 430.865 64.7245 398.415 67.2945 365.775C64.1645 325.295 65.4845 284.575 65.8645 244.055C66.1445 213.875 65.0146 183.585 67.1746 153.445C66.4246 140.185 76.4245 120.471 84.8145 108.471C98.0145 89.5732 119.264 76.5092 148.774 69.2702Z" fill="url(#paint4_linear_204_179)"/>
<path d="M148.774 69.2702C180.784 65.5852 216.845 67.8972 249.405 68.0992L404.514 68.3682L647.405 68.0822C690.625 67.9602 735.145 66.2412 778.205 68.0852C790.585 68.6162 802.334 70.4682 812.584 75.3712C813.264 75.6942 813.874 76.0672 814.524 76.4152C822.794 79.8422 830.924 84.3402 836.354 89.7782C848.094 97.8092 857.235 107.35 861.925 118.171C848.875 115.299 844.374 103.611 827.574 100.45C813.054 92.0992 799.925 87.4272 781.925 83.0972C742.535 87.4462 701.015 84.0752 661.225 84.0102L337.635 84.0892C283.535 84.0852 220.244 81.6822 167.324 84.6152C153.434 85.3862 141.125 87.3282 128.145 90.6812C119.055 97.8162 107.645 104.78 101.495 113.244L96.0344 117.584C89.7044 118.676 86.9644 120.754 83.7844 124.564C76.2744 133.577 76.0746 145.087 67.1746 153.445C66.4246 140.185 76.4244 120.471 84.8144 108.471C98.0144 89.5732 119.264 76.5092 148.774 69.2702Z" fill="#6C2D04"/>
<path d="M148.774 69.2702C180.784 65.5852 216.845 67.8972 249.405 68.0992L404.514 68.3682L647.405 68.0822C690.625 67.9602 735.145 66.2412 778.205 68.0852C790.585 68.6162 802.334 70.4682 812.584 75.3712C813.264 75.6942 813.874 76.0672 814.524 76.4152L813.135 77.2622C806.765 77.4522 801.105 74.4872 795.755 72.4362C727.575 79.8462 655.564 73.7622 586.794 73.3092L206.564 70.9102C189.204 70.7032 167.814 75.3182 151.514 73.1192L148.774 69.2702Z" fill="#4C1B01"/>
<path d="M781.925 83.0972L771.685 81.1872C783.815 77.4652 821.055 85.8792 833.655 89.0742L836.354 89.7782C848.094 97.8092 857.235 107.35 861.925 118.171C848.875 115.299 844.374 103.611 827.574 100.45C813.054 92.0992 799.925 87.4272 781.925 83.0972Z" fill="#922E04"/>
<path d="M227.645 77.8682C289.445 76.2252 351.494 77.7992 413.314 78.4362L584.784 79.0603C616.084 79.3216 647.385 79.4242 678.685 79.3682C699.265 79.3072 722.755 78.0402 742.975 80.2932L687.635 82.3053L329.824 82.4823C287.464 82.5193 198.255 86.5462 160.945 80.6582C183.025 77.9322 205.275 77.9172 227.645 77.8682Z" fill="#922E04"/>
<path d="M67.1746 153.445C76.0746 145.087 76.2745 133.577 83.7845 124.564C86.9645 120.754 89.7045 118.676 96.0345 117.584C92.3045 125.451 89.0546 133.6 83.8946 141.108C82.7246 148.168 81.4947 155.195 81.0047 162.295C84.0047 219.335 81.0445 276.505 81.0145 333.595L81.0845 671.325L80.7745 786.435C80.6345 812.475 78.4145 838.975 84.0345 864.815C90.4645 880.195 99.8945 897.355 115.544 909.705C116.124 916.435 124.755 921.165 131.865 925.365C138.655 929.365 145.895 933.085 152.995 936.835C132.835 932.145 117.364 926.305 102.014 916.225C83.7045 898.185 72.9145 881.305 67.6045 859.845C64.6645 826.865 66.0945 794.025 66.2845 761.025L66.6446 616.965L66.4246 463.525C66.2546 430.865 64.7245 398.415 67.2945 365.775C64.1645 325.295 65.4845 284.575 65.8645 244.055C66.1445 213.875 65.0146 183.585 67.1746 153.445Z" fill="#AE5705"/>
<path d="M67.1746 153.445C76.0746 145.087 76.2745 133.577 83.7845 124.564C86.9645 120.754 89.7045 118.676 96.0345 117.584C92.3045 125.451 89.0546 133.6 83.8946 141.108C82.7246 148.168 81.4947 155.195 81.0047 162.295C71.0747 182.775 74.8045 274.385 74.5345 300.535L73.1646 711.395C72.7046 753.605 76.2645 796.425 73.7745 838.525C73.3445 845.765 74.0745 853.675 67.6045 859.845C64.6645 826.865 66.0945 794.025 66.2845 761.025L66.6446 616.965L66.4246 463.525C66.2546 430.865 64.7245 398.415 67.2945 365.775C64.1645 325.295 65.4845 284.575 65.8645 244.055C66.1445 213.875 65.0146 183.585 67.1746 153.445Z" fill="#6C2D04"/>
<path d="M67.1746 153.445C76.0746 145.087 76.2745 133.577 83.7845 124.564C86.9645 120.754 89.7045 118.676 96.0345 117.584C92.3045 125.451 89.0546 133.6 83.8946 141.108C77.4546 147.871 75.3745 154.595 73.8045 162.425C68.9445 186.775 70.8946 212.125 71.1746 236.645C71.5146 267.555 71.2345 298.215 70.0845 329.105C69.6345 340.915 71.0545 354.245 67.2945 365.775C64.1645 325.295 65.4845 284.575 65.8645 244.055C66.1445 213.875 65.0146 183.585 67.1746 153.445Z" fill="#922E04"/>
<path d="M827.574 100.45C844.374 103.611 848.875 115.299 861.925 118.171C872.095 135.1 875.604 148.786 875.594 166.975C880.274 181.775 877.204 835.455 875.784 838.795C873.224 859.215 865.755 875.865 854.165 894.755C852.425 882.005 867.965 855.845 866.195 834.335L861.604 848.755C864.734 698.315 861.455 547.575 861.465 397.095L861.985 248.585C862.275 217.625 864.885 186.405 860.635 155.545C860.855 151.525 859.305 146.913 858.505 142.889L850.235 124.297C842.775 116.308 835.221 108.359 827.574 100.45Z" fill="#AE5705"/>
<path d="M827.574 100.45C844.374 103.611 848.875 115.299 861.925 118.171C872.095 135.1 875.604 148.786 875.594 166.975L872.774 167.655C863.724 157.735 866.705 141.6 859.135 130.471C856.795 127.03 855.535 125.617 850.235 124.297C842.775 116.308 835.221 108.359 827.574 100.45Z" fill="#9D4907"/>
<path d="M866.195 834.335C867.965 855.845 852.425 882.005 854.165 894.755C865.755 875.865 873.224 859.215 875.784 838.795C881.344 844.555 877.384 854.475 875.304 860.925C866.804 887.315 847.825 919.095 812.235 934.325C801.615 938.865 793.474 939.325 781.104 939.895C731.164 942.215 680.844 940.725 630.814 940.845C536.301 941.352 441.788 941.408 347.274 941.015C314.454 940.915 281.614 940.645 248.804 940.845C216.784 941.045 180.674 943.225 149.274 938.625C146.914 938.285 144.725 937.665 142.485 937.095C129.705 933.885 109.164 929.835 103.324 920.725C101.734 918.245 102.154 918.965 102.014 916.225C117.364 926.305 132.835 932.145 152.995 936.835C145.895 933.085 138.655 929.365 131.865 925.365C124.755 921.165 116.124 916.435 115.544 909.705C128.844 917.645 140.984 924.005 159.324 925.805C187.534 928.585 218.285 926.995 246.865 926.965L401.814 926.825L653.675 926.885C694.395 926.905 735.895 928.335 776.495 926.885C783.728 926.612 790.951 926.255 798.165 925.815C802.405 923.495 806.704 921.285 811.044 919.045C844.494 901.735 856.394 875.595 861.604 848.755L866.195 834.335Z" fill="#F9B635"/>
<path d="M866.195 834.335C867.965 855.845 852.425 882.005 854.165 894.755C844.085 911.225 830.514 924.715 805.314 932.195C794.844 935.305 783.555 936.765 772.175 937.255C718.355 939.595 662.205 936.695 608.145 936.445C556.195 936.205 483.894 938.605 434.354 934.765C453.444 931.385 495.385 933.325 517.385 933.175C589.645 932.775 661.881 931.692 734.094 929.925C749.454 929.565 776.964 930.975 791.054 928.725C794.184 928.225 795.815 927.165 798.165 925.815C802.405 923.495 806.704 921.285 811.044 919.045C844.494 901.735 856.394 875.595 861.604 848.755L866.195 834.335Z" fill="#D27B08"/>
<path d="M860.635 155.545C864.885 186.405 862.275 217.625 861.985 248.585L861.465 397.095C861.455 547.575 864.734 698.315 861.604 848.755C856.394 875.595 844.494 901.735 811.044 919.045C806.704 921.285 802.405 923.495 798.165 925.815C790.951 926.255 783.728 926.612 776.495 926.885C735.895 928.335 694.395 926.905 653.675 926.885L401.814 926.825L246.865 926.965C218.285 926.995 187.534 928.585 159.324 925.805C140.984 924.005 128.844 917.645 115.544 909.705C99.8944 897.355 90.4644 880.195 84.0344 864.815C85.0811 863.035 86.1446 861.262 87.2246 859.495L92.1045 860.805C90.8445 855.175 88.3545 849.345 87.8745 843.705C87.2845 836.675 88.0346 801.845 91.9346 797.065C103.755 809.725 99.2845 853.395 99.1245 869.595C99.1245 870.065 99.0845 870.535 99.1145 871.005C100.275 885.585 113.665 903.605 130.175 913.115C141.845 919.835 154.985 920.715 169.745 921.645C208.245 924.075 247.555 922.765 286.205 922.625L457.395 922.515L655.354 922.435C703.164 922.535 751.334 923.625 799.014 920.965C828.884 905.455 842.665 887.985 850.435 863.595C861.025 830.335 852.375 793.895 853.645 759.955C859.605 600.375 856.884 440.315 858.304 280.675C858.604 247.435 849.705 184.635 860.635 155.545Z" fill="#4C1B01"/>
<path d="M781.925 83.0972C799.925 87.4272 813.054 92.0992 827.574 100.45C835.221 108.359 842.775 116.308 850.235 124.297L858.505 142.889L856.354 145.467C845.774 139.188 835.655 113.688 818.665 102.737C811.805 98.3172 804.814 95.3402 795.274 94.4302C756.234 90.7052 691.235 92.9232 649.205 92.2522C480.975 89.5642 312.215 91.8412 143.935 92.4382C135.205 97.4162 126.164 101.181 116.314 105.065C113.244 109.01 112.004 112.091 106.264 114.452L101.495 113.244C107.645 104.78 119.055 97.8162 128.145 90.6812C141.125 87.3282 153.434 85.3862 167.324 84.6152C220.244 81.6822 283.535 84.0852 337.635 84.0892L661.225 84.0102C701.015 84.0752 742.535 87.4462 781.925 83.0972Z" fill="#190200"/>
<path d="M187.865 127.023C230.095 125.667 272.534 126.327 314.804 126.358L512.995 126.478L661.594 126.405C690.014 126.361 719.034 125.441 747.354 126.815C760.814 127.468 782.914 128.766 793.354 134.701C817.764 148.581 824.554 165.905 827.064 186.285C832.294 228.595 827.934 271.515 827.344 313.905L827.304 501.555L826.764 711.825C826.774 750.945 830.465 791.095 824.425 830.025C821.735 847.365 815.824 867.905 797.784 881.265C785.134 890.625 771.825 892.715 753.635 893.285C620.975 894.079 488.311 894.329 355.645 894.035C303.635 893.815 245.465 896.925 194.475 893.905C180.075 893.055 167.235 891.795 155.115 886.065C131.255 874.805 121.505 854.985 117.155 836.525C110.515 808.325 114.924 778.075 115.094 749.625L115.205 595.175L114.655 345.715C114.355 296.575 110.614 247.165 116.024 198.095C118.094 179.315 119.695 159.905 137.455 144.36C150.685 132.776 167.175 128.968 187.865 127.023Z" fill="#6C2D04"/>
<path d="M145.584 451.815C145.484 450.825 145.404 449.845 145.374 448.855C144.764 432.105 150.434 413.915 155.674 397.555C176.054 333.925 214.415 270.975 283.725 223.885C329.615 192.695 389.954 171.005 456.554 170.705C458.461 170.705 460.371 170.719 462.284 170.745C464.191 170.772 466.098 170.812 468.005 170.865C469.911 170.925 471.818 171.002 473.725 171.095C475.625 171.182 477.528 171.285 479.434 171.405C481.334 171.525 483.231 171.659 485.124 171.805C487.018 171.959 488.911 172.125 490.804 172.305C492.691 172.485 494.578 172.682 496.465 172.895C498.345 173.102 500.221 173.329 502.094 173.575C503.974 173.815 505.844 174.069 507.704 174.335C509.571 174.609 511.431 174.895 513.284 175.195C515.144 175.502 516.994 175.819 518.834 176.145C520.681 176.479 522.518 176.825 524.344 177.185C526.178 177.545 528.001 177.922 529.814 178.315C531.634 178.702 533.445 179.105 535.245 179.525C537.051 179.945 538.848 180.379 540.634 180.825C542.421 181.279 544.198 181.742 545.965 182.215C547.738 182.695 549.501 183.189 551.255 183.695C553.001 184.195 554.741 184.712 556.475 185.245C558.208 185.785 559.931 186.335 561.644 186.895C563.358 187.455 565.061 188.029 566.755 188.615C568.448 189.209 570.131 189.812 571.804 190.425C573.478 191.039 575.138 191.669 576.784 192.315C578.431 192.955 580.068 193.609 581.694 194.275C583.314 194.949 584.924 195.632 586.524 196.325C588.124 197.019 589.711 197.725 591.284 198.445C592.858 199.165 594.418 199.899 595.965 200.645C597.511 201.392 599.044 202.152 600.564 202.925C602.084 203.692 603.591 204.472 605.084 205.265C606.578 206.065 608.054 206.872 609.514 207.685C610.981 208.505 612.428 209.335 613.854 210.175C615.288 211.022 616.704 211.875 618.104 212.735C619.511 213.602 620.898 214.479 622.264 215.365C650.054 231.225 669.724 250.195 692.074 269.245C700.464 271.065 703.805 275.725 708.505 280.545C719.785 273.255 737.204 255.425 753.544 255.385C755.954 255.385 756.104 255.335 757.774 256.485C764.854 261.355 767.684 271.195 769.584 277.825C777.484 305.405 777.735 334.695 781.475 362.645C784.035 381.795 791.655 403.355 788.945 422.525C788.045 428.845 782.104 434.535 775.634 438.955C767.464 440.975 764.274 440.135 756.414 437.835C725.864 428.885 608.284 383.905 597.274 365.535C595.294 362.235 596.014 359.445 598.404 356.335C605.094 347.585 620.425 342.015 630.005 334.545L628.245 333.465C615.945 325.825 606.694 316.495 594.574 308.705C563.844 288.945 516.194 276.585 473.424 277.325C422.564 278.195 377.364 294.795 343.114 319.205C263.214 376.165 235.264 463.025 239.664 539.055C243.274 601.475 271.274 670.315 342.454 713.915C377.944 735.655 424.464 749.645 473.194 747.955C518.374 746.385 559.365 732.235 591.465 711.425C607.265 701.175 621.304 689.865 639.664 681.545C598.814 720.375 553.114 751.025 480.164 759.095C426.684 765.015 387.234 743.745 370.934 744.655C385.134 752.515 406.264 757.025 424.154 759.485C472.494 766.145 520.424 759.055 561.314 740.875C651.644 700.725 688.734 626.815 709.514 559.435C711.104 545.035 711.354 530.315 714.854 516.065C714.704 512.285 714.335 508.305 715.255 504.565C716.915 497.845 723.404 491.625 732.074 488.045C738.604 485.355 746.534 484.445 753.914 486.015C765.394 488.455 771.464 494.415 776.564 501.275C787.894 525.465 774.244 573.585 766.334 599.545C742.734 676.925 688.125 759.445 585.985 804.085C535.675 826.075 475.404 835.265 416.194 826.725C336.954 815.305 275.054 774.895 232.634 730.715C169.704 665.135 143.905 586.365 141.005 509.315C140.285 490.125 139.484 470.665 145.584 451.815Z" fill="#FBE2BF"/>
<path d="M311.465 712.165C299.811 701.858 288.795 691.258 278.415 680.365C205.695 602.565 192.405 497.665 223.955 409.615C244.355 352.675 287.904 288.615 365.784 256.935C406.894 240.215 455.775 234.615 502.615 242.505C551.225 250.705 589.365 271.645 621.865 296.275C630.785 303.045 641.115 310.605 647.495 318.595C650.435 322.275 650.525 323.735 648.705 327.635C635.455 335.625 605.284 350.475 605.584 363.235C605.674 366.975 608.315 369.175 611.615 371.895C664.285 393.815 714.465 417.935 770.755 435.815C773.335 434.065 775.255 432.235 776.615 429.945C787.885 411.045 766.884 281.005 753.794 258.755C753.564 258.845 753.334 258.935 753.104 259.015C734.214 265.935 721.434 276.315 707.354 286.885C701.974 281.105 697.014 275.195 692.074 269.245C700.464 271.065 703.805 275.725 708.505 280.545C719.785 273.255 737.204 255.425 753.544 255.385C755.954 255.385 756.104 255.335 757.774 256.485C764.854 261.355 767.684 271.195 769.584 277.825C777.484 305.405 777.735 334.695 781.475 362.645C784.035 381.795 791.655 403.355 788.945 422.525C788.045 428.845 782.105 434.535 775.635 438.955C767.465 440.975 764.275 440.135 756.415 437.835C725.865 428.885 608.284 383.905 597.274 365.535C595.294 362.235 596.015 359.445 598.405 356.335C605.095 347.585 620.425 342.015 630.005 334.545L628.245 333.465C615.945 325.825 606.694 316.495 594.574 308.705C563.844 288.945 516.195 276.585 473.425 277.325C422.565 278.195 377.365 294.795 343.115 319.205C263.215 376.165 235.265 463.025 239.665 539.055C243.275 601.475 271.275 670.315 342.455 713.915C377.945 735.655 424.465 749.645 473.195 747.955C518.375 746.385 559.365 732.235 591.465 711.425C607.265 701.175 621.305 689.865 639.665 681.545C598.815 720.375 553.115 751.025 480.165 759.095C426.685 765.015 387.235 743.745 370.935 744.655C351.295 741.215 326.135 721.515 311.465 712.165Z" fill="#4C1B01"/>
<path d="M145.585 451.815C145.485 450.825 145.405 449.845 145.375 448.855C144.765 432.105 150.435 413.915 155.675 397.555C176.055 333.925 214.415 270.975 283.725 223.885C329.615 192.695 389.955 171.005 456.555 170.705C458.461 170.705 460.371 170.719 462.284 170.745C464.191 170.772 466.098 170.812 468.005 170.865C469.911 170.925 471.818 171.002 473.725 171.095C475.625 171.182 477.528 171.285 479.435 171.405C481.335 171.525 483.231 171.659 485.125 171.805C487.018 171.959 488.911 172.125 490.805 172.305C492.691 172.485 494.578 172.682 496.465 172.895C498.345 173.102 500.221 173.329 502.095 173.575C503.975 173.815 505.845 174.069 507.705 174.335C509.571 174.609 511.431 174.895 513.284 175.195C515.144 175.502 516.995 175.819 518.835 176.145C520.681 176.479 522.518 176.825 524.345 177.185C526.178 177.545 528.001 177.922 529.815 178.315C531.635 178.702 533.445 179.105 535.245 179.525C537.051 179.945 538.848 180.379 540.635 180.825C542.421 181.279 544.198 181.742 545.965 182.215C547.738 182.695 549.501 183.189 551.255 183.695C553.001 184.195 554.741 184.712 556.475 185.245C558.208 185.785 559.931 186.335 561.645 186.895C563.358 187.455 565.061 188.029 566.755 188.615C568.448 189.209 570.131 189.812 571.805 190.425C573.478 191.039 575.138 191.669 576.784 192.315C578.431 192.955 580.068 193.609 581.695 194.275C583.315 194.949 584.924 195.632 586.524 196.325C588.124 197.019 589.711 197.725 591.284 198.445C592.858 199.165 594.418 199.899 595.965 200.645C597.511 201.392 599.045 202.152 600.565 202.925C602.085 203.692 603.591 204.472 605.085 205.265C606.578 206.065 608.054 206.872 609.514 207.685C610.981 208.505 612.428 209.335 613.855 210.175C615.288 211.022 616.705 211.875 618.105 212.735C619.511 213.602 620.898 214.479 622.264 215.365L618.655 216.375C602.005 209.605 586.675 201.525 569.715 195.105C568.321 194.578 566.921 194.062 565.514 193.555C564.108 193.049 562.691 192.552 561.264 192.065C559.838 191.585 558.401 191.112 556.955 190.645C555.515 190.185 554.065 189.735 552.605 189.295C551.145 188.855 549.678 188.429 548.205 188.015C546.731 187.602 545.251 187.199 543.764 186.805C542.271 186.412 540.774 186.029 539.274 185.655C537.774 185.289 536.268 184.932 534.755 184.585C533.241 184.239 531.721 183.905 530.195 183.585C528.668 183.265 527.135 182.955 525.595 182.655C524.061 182.355 522.521 182.069 520.975 181.795C519.428 181.522 517.875 181.262 516.315 181.015C514.761 180.762 513.201 180.525 511.635 180.305C510.068 180.079 508.501 179.865 506.935 179.665C505.361 179.465 503.785 179.275 502.205 179.095C500.625 178.922 499.041 178.758 497.455 178.605C495.875 178.458 494.288 178.322 492.695 178.195C491.108 178.069 489.518 177.955 487.925 177.855C486.331 177.748 484.735 177.659 483.135 177.585C481.541 177.512 479.945 177.449 478.345 177.395C476.745 177.342 475.144 177.302 473.544 177.275C471.944 177.249 470.345 177.235 468.745 177.235C467.145 177.235 465.545 177.249 463.945 177.275C462.345 177.295 460.745 177.332 459.145 177.385C457.545 177.432 455.948 177.492 454.355 177.565C452.755 177.639 451.158 177.725 449.565 177.825C447.971 177.925 446.381 178.035 444.794 178.155C443.201 178.282 441.614 178.419 440.034 178.565C438.448 178.719 436.864 178.882 435.284 179.055C433.704 179.229 432.128 179.412 430.555 179.605C428.981 179.805 427.411 180.015 425.845 180.235C424.285 180.462 422.725 180.699 421.165 180.945C339.895 194.135 274.334 236.555 232.285 283.155C194.794 324.685 168.705 374.785 155.735 422.505C154.505 427.005 149.965 450.915 145.585 451.815Z" fill="#FEF4DB"/>
<path d="M709.514 559.435C721.294 583.145 684.225 646.525 667.675 668.715C637.635 708.995 590.245 748.945 523.915 763.455C476.845 773.755 428.154 769.415 384.564 754.385C367.394 748.455 319.365 729.205 312.395 716.375C311.285 714.335 311.475 714.045 311.465 712.165C326.135 721.515 351.295 741.215 370.935 744.655C385.135 752.515 406.265 757.025 424.155 759.485C472.495 766.145 520.424 759.055 561.314 740.875C651.645 700.725 688.734 626.815 709.514 559.435Z" fill="#FEF4DB"/>
<path d="M648.705 327.635L653.975 330.365C654.605 333.905 654.214 335.465 651.034 338.445C638.134 350.565 615.075 355.985 611.615 371.895C608.315 369.175 605.674 366.975 605.584 363.235C605.284 350.475 635.455 335.625 648.705 327.635Z" fill="#FEF4DB"/>
<path d="M714.855 516.065C714.705 512.285 714.335 508.305 715.255 504.565C716.915 497.845 723.405 491.625 732.075 488.045C738.605 485.355 746.535 484.445 753.915 486.015C765.395 488.455 771.465 494.415 776.565 501.275C768.185 497.065 758.745 491.305 747.415 492.045C735.695 492.805 727.965 502.855 722.225 508.735C719.835 511.185 717.625 513.805 714.855 516.065Z" fill="#FEF4DB"/>
<path d="M455.865 298.975C462.915 299.215 470.615 299.015 476.604 301.855C486.014 306.315 492.525 315.755 496.395 322.785C513.955 354.715 509.644 386.555 507.814 419.835C507.254 430.005 506.115 440.845 508.145 450.935C512.045 470.245 526.315 487.595 532.625 506.495C539.785 527.975 540.594 557.675 521.514 576.555C509.764 588.185 493.625 593.415 473.625 595.785C457.615 595.675 445.435 592.915 432.915 586.145C407.035 572.145 396.085 546.935 393.625 525.565C390.945 502.235 397.415 476.215 420.685 457.995C415.075 421.825 417.565 382.495 420.695 346.175C422.875 320.905 427.475 315.825 455.865 298.975Z" fill="#4C1B01"/>
<path d="M435.884 337.505C436.138 335.812 436.458 334.122 436.844 332.435C438.274 326.375 441.884 321.395 449.804 317.945C454.254 316.005 459.094 315.345 464.264 316.445C472.254 318.145 476.564 322.065 480.544 326.685C486.204 335.185 482.724 440.485 483.264 459.585C504.794 481.315 518.074 500.575 510.114 527.325C506.444 539.625 498.854 553.635 482.794 561.015C482.241 561.275 481.678 561.525 481.104 561.765C480.531 562.005 479.948 562.235 479.354 562.455C478.761 562.675 478.161 562.885 477.554 563.085C476.948 563.285 476.335 563.475 475.715 563.655C475.088 563.829 474.458 563.995 473.824 564.155C473.184 564.309 472.541 564.452 471.894 564.585C471.248 564.719 470.598 564.842 469.945 564.955C469.285 565.069 468.625 565.169 467.965 565.255C467.298 565.342 466.628 565.418 465.955 565.485C465.288 565.545 464.618 565.599 463.945 565.645C463.265 565.685 462.588 565.712 461.914 565.725C461.234 565.745 460.558 565.752 459.884 565.745C459.204 565.738 458.528 565.722 457.854 565.695C457.174 565.669 456.498 565.629 455.824 565.575C455.151 565.522 454.481 565.455 453.814 565.375C453.148 565.302 452.484 565.215 451.824 565.115C436.584 562.935 424.554 555.435 416.884 546.665C403.034 530.825 401.884 510.335 409.574 492.995C414.994 480.775 424.454 470.855 435.034 460.375C435.268 436.815 435.218 413.255 434.884 389.695C434.594 374.155 430.434 352.505 435.884 337.505Z" fill="#FBE2BF"/>
<path d="M435.885 337.505C436.138 335.812 436.458 334.122 436.844 332.435C438.274 326.375 441.884 321.395 449.804 317.945C454.254 316.005 459.094 315.345 464.264 316.445C472.254 318.145 476.564 322.065 480.544 326.685C477.224 327.255 476.875 327.595 473.465 326.895C467.785 325.745 463.335 324.475 457.385 325.515C452.125 328.255 441.795 340.005 437.725 340.205L435.885 337.505Z" fill="#FEF4DB"/>
<path d="M332.054 397.655C336.874 399.165 340.474 400.655 343.084 403.915C348.024 410.095 342.304 417.595 338.594 423.295C332.484 420.935 327.815 418.125 326.215 413.305C324.275 407.445 328.024 402.665 332.054 397.655Z" fill="#922E04"/>
<path d="M758.514 800.245C763.644 801.645 769.045 803.655 771.235 807.285C774.505 812.705 769.704 818.565 766.444 823.415C766.134 823.445 765.815 823.495 765.505 823.495C760.065 823.595 759.704 823.795 755.954 821.345C752.374 814.145 755.614 807.325 758.514 800.245Z" fill="#922E04"/>
<path d="M313.264 556.625C317.664 558.595 321.814 561.375 324.134 564.585C327.914 569.815 326.804 574.165 324.094 579.455C318.914 578.505 314.034 577.255 311.404 573.865C307.314 568.565 311.124 561.925 313.264 556.625Z" fill="#922E04"/>
<path d="M166.324 212.155C173.644 213.505 175.545 214.385 179.705 218.485C181.035 223.245 179.235 227.025 177.465 231.645C176.435 231.695 175.395 231.885 174.365 231.805C169.905 231.435 168.314 229.725 165.844 227.575C163.904 222.085 165.054 217.675 166.324 212.155Z" fill="#922E04"/>
<defs>
<linearGradient id="paint0_linear_204_179" x1="1023.48" y1="604.085" x2="-81.6558" y2="403.055" gradientUnits="userSpaceOnUse">
<stop stop-color="#C56B07"/>
<stop offset="1" stop-color="#E28B11"/>
</linearGradient>
<linearGradient id="paint1_linear_204_179" x1="902.267" y1="973.416" x2="274.85" y2="291.705" gradientUnits="userSpaceOnUse">
<stop stop-color="#732300"/>
<stop offset="1" stop-color="#A34E04"/>
</linearGradient>
<linearGradient id="paint2_linear_204_179" x1="790.82" y1="150.225" x2="232.238" y2="-99.8373" gradientUnits="userSpaceOnUse">
<stop stop-color="#BF7800"/>
<stop offset="1" stop-color="#FF9F2E"/>
</linearGradient>
<linearGradient id="paint3_linear_204_179" x1="-9.84987" y1="520.665" x2="69.349" y2="522.027" gradientUnits="userSpaceOnUse">
<stop stop-color="#D67D05"/>
<stop offset="1" stop-color="#9B4D04"/>
</linearGradient>
<linearGradient id="paint4_linear_204_179" x1="212.288" y1="76.5199" x2="730.472" y2="935.437" gradientUnits="userSpaceOnUse">
<stop stop-color="#391201"/>
<stop offset="1" stop-color="#5C2402"/>
</linearGradient>
</defs>
</svg>
