<svg width="961" height="1054" viewBox="0 0 961 1054" fill="none" xmlns="http://www.w3.org/2000/svg">
<path d="M104.728 3.81214C149.588 -2.49686 199.787 0.887136 245.557 1.06214L430.878 1.14008L674.568 1.11511C719.018 1.08111 765.017 -0.712923 809.287 1.73908C828.437 2.79908 841.348 4.3101 857.648 11.4101C891.508 26.1601 906.178 51.2001 923.608 74.3161C942.738 100.044 953.957 125.739 957.417 154.372C961.607 189.072 958.087 225.452 958.177 260.342L958.898 472.782L959.037 760.452C958.967 810.252 961.987 861.092 958.027 910.802C956.277 932.692 952.228 954.222 941.568 975.042C927.538 1002.46 900.978 1033.45 859.938 1046.21C845.217 1050.79 827.857 1051.61 811.787 1052.06C774.647 1053.08 737.038 1052.02 699.858 1051.99L482.088 1052.04L268.138 1052.18C238.598 1052.28 208.838 1053.97 179.358 1053.41C162.228 1053.09 135.397 1053.52 119.547 1049.27C78.1575 1038.17 42.7175 1001.03 28.5675 974.302C18.6275 955.512 7.15748 924.822 6.78748 904.862C-4.04252 846.392 1.29752 785.892 1.44752 727.072L1.45753 454.482L1.95753 247.292C1.77753 193.112 -4.48247 137.187 10.9575 83.7101C13.7175 78.2534 16.6275 72.8324 19.6875 67.4471C36.5375 38.5841 61.3775 16.2571 104.728 3.81214Z" fill="url(#paint0_linear_204_177)"/>
<path d="M923.608 74.3161C942.738 100.044 953.957 125.739 957.417 154.372C961.607 189.072 958.087 225.452 958.177 260.342L958.898 472.782L959.037 760.452C958.967 810.252 961.987 861.092 958.027 910.802C956.277 932.692 952.228 954.222 941.568 975.042C927.538 1002.46 900.978 1033.45 859.938 1046.21C845.217 1050.79 827.857 1051.61 811.787 1052.06C774.647 1053.08 737.038 1052.02 699.858 1051.99L482.088 1052.04L268.138 1052.18C238.598 1052.28 208.838 1053.97 179.358 1053.41C162.228 1053.09 135.397 1053.52 119.547 1049.27C78.1575 1038.17 42.7175 1001.03 28.5675 974.302C18.6275 955.512 7.15748 924.822 6.78748 904.862C14.9675 927.422 22.6675 946.872 42.2175 966.452C58.1975 984.062 82.0675 999.272 113.157 1003.99C151.127 1009.76 196.768 1006.82 235.818 1006.62L407.018 1005.99L666.348 1006.07C714.658 1006.11 763.398 1007.58 811.608 1005.4C824.628 1004.81 837.757 1002.93 848.777 998.042C851.257 996.942 853.378 995.632 855.568 994.302C864.348 991.112 871.827 986.872 878.807 982.142C944.967 937.242 934.898 867.582 934.818 810.022C935.091 775.802 935.004 741.585 934.557 707.372C936.477 664.182 935.178 620.762 934.958 577.542L934.978 364.612L935.037 206.662C935.227 174.702 938.858 142.781 932.898 110.953C933.278 98.6101 927.858 86.2481 923.608 74.3161Z" fill="#000D18"/>
<path d="M880.068 68.9901C879.978 64.2921 880.368 62.5641 885.128 58.9721C888.138 56.7021 891.728 54.6641 895.088 52.6271C922.428 72.1271 914.208 92.4921 932.898 110.953C938.858 142.781 935.227 174.702 935.037 206.662L934.978 364.612L934.958 577.542C935.178 620.762 936.477 664.182 934.557 707.372C935.004 741.585 935.091 775.802 934.818 810.022C934.898 867.582 944.967 937.242 878.807 982.142C871.827 986.872 864.348 991.112 855.568 994.302C853.378 995.632 851.257 996.942 848.777 998.042C837.757 1002.93 824.628 1004.81 811.608 1005.4C763.398 1007.58 714.658 1006.11 666.348 1006.07L407.018 1005.99L235.818 1006.62C196.768 1006.82 151.127 1009.76 113.157 1003.99C82.0675 999.272 58.1975 984.062 42.2175 966.452C46.9675 959.142 33.0575 951.542 34.3075 943.582C39.7375 940.162 44.0175 937.132 47.6575 932.742C47.9575 932.382 48.2475 932.012 48.5375 931.652C52.0475 936.802 56.5775 941.812 61.3375 946.492C77.0875 962.002 100.038 972.012 127.638 975.262C162.078 979.322 200.718 976.602 235.728 976.392L398.508 976.182L657.188 976.262C701.667 976.342 746.817 978.462 791.167 976.162C811.747 975.092 829.938 973.162 847.088 964.792C879.888 948.782 898.427 919.702 903.688 893.512C910.997 857.202 906.098 818.962 906.008 782.352L906.208 583.462L906.297 294.452C906.297 240.672 909.988 185.602 904.008 131.967C901.758 111.816 898.888 85.6411 880.068 68.9901Z" fill="url(#paint1_linear_204_177)"/>
<path d="M930.608 688.082C932.498 694.422 933.357 700.952 934.557 707.372C935.004 741.585 935.091 775.802 934.818 810.022C934.898 867.582 944.967 937.242 878.807 982.142C871.827 986.872 864.348 991.112 855.568 994.302C856.898 985.132 883.728 973.142 891.718 964.382C908.098 946.442 919.008 927.452 924.378 906.742C930.588 882.812 925.758 858.682 925.068 834.582C923.668 786.162 921.448 736.192 930.608 688.082Z" fill="#922E04"/>
<path d="M6.78748 904.862C-4.04252 846.392 1.29752 785.892 1.44752 727.072L1.45753 454.482L1.95753 247.292C1.77753 193.112 -4.48247 137.187 10.9575 83.7101C17.0775 91.1951 23.1376 96.3571 33.9976 100.989C27.8776 132.385 30.0776 164.292 30.2576 195.902L30.6376 327.122L31.0775 788.412C29.0375 802.012 29.7375 816.032 29.4675 829.712C28.7575 865.602 27.4375 897.862 48.5375 931.652C48.2475 932.012 47.9575 932.382 47.6575 932.742C44.0175 937.132 39.7375 940.162 34.3075 943.582C33.0575 951.542 46.9675 959.142 42.2175 966.452C22.6675 946.872 14.9675 927.422 6.78748 904.862Z" fill="url(#paint2_linear_204_177)"/>
<path d="M104.728 3.81214C149.588 -2.49686 199.787 0.887136 245.557 1.06214L430.878 1.14008L674.568 1.11511C719.018 1.08111 765.017 -0.712923 809.287 1.73908C828.437 2.79908 841.348 4.3101 857.648 11.4101C891.508 26.1601 906.178 51.2001 923.608 74.3161C927.858 86.2481 933.278 98.6101 932.898 110.953C914.208 92.4921 922.428 72.1271 895.088 52.6271C891.728 54.6641 888.138 56.7021 885.128 58.9721C880.368 62.5641 879.978 64.2921 880.068 68.9901C876.548 66.9171 873.938 64.1421 870.268 62.0051C865.878 57.4401 860.468 53.2511 854.688 49.4331C843.597 42.1011 829.898 35.9241 814.518 33.5911C778.988 28.1991 731.327 31.6751 694.307 31.7641L494.868 31.7551C468.358 30.0021 440.727 30.8641 414.037 30.7651C364.957 30.5841 315.788 30.0991 266.718 30.7761C230.498 31.2761 193.758 33.1611 157.598 32.3751C150.758 32.2261 138.228 31.9791 132.448 29.6311C129.748 28.5311 115.557 10.4501 106.787 5.05512L104.728 3.81214Z" fill="url(#paint3_linear_204_177)"/>
<path d="M10.9575 83.7101C13.7175 78.2534 16.6275 72.8324 19.6875 67.4471C36.5375 38.5841 61.3775 16.2571 104.728 3.81213L106.787 5.05511C115.557 10.4501 129.748 28.5311 132.448 29.6311C138.228 31.9791 150.758 32.2261 157.598 32.3751C193.758 33.1611 230.498 31.2761 266.718 30.7761C315.788 30.0991 364.957 30.5841 414.037 30.7651C440.727 30.8641 468.358 30.0021 494.868 31.7551C459.928 33.0421 262.598 28.6381 248.458 33.4731C249.248 36.4551 248.328 35.1891 250.968 37.3491C205.308 35.3271 120.357 28.8701 83.8075 50.0591C40.7675 75.0131 35.3975 116.378 33.1575 151.682C31.9375 171.022 33.8775 190.462 34.3475 209.802C34.6275 237.482 34.6875 265.165 34.5275 292.852L33.9275 622.932L33.2075 732.982C32.9375 750.972 34.5475 770.682 31.0775 788.412L30.6376 327.122L30.2576 195.902C30.0776 164.292 27.8776 132.385 33.9976 100.989C23.1376 96.3571 17.0775 91.1951 10.9575 83.7101Z" fill="#F9B635"/>
<path d="M494.868 31.7551L694.307 31.7641C731.327 31.6751 778.988 28.1991 814.518 33.5911C829.898 35.9241 843.597 42.1011 854.688 49.4331C860.468 53.2511 865.878 57.4401 870.268 62.0051C851.968 56.9991 845.178 41.6881 819.448 37.3631C777.748 30.3521 702.808 35.5121 657.128 35.6641L250.968 37.3491C248.328 35.1891 249.248 36.4551 248.458 33.4731C262.598 28.6381 459.928 33.0421 494.868 31.7551Z" fill="#F8CE4B"/>
<path d="M81.3676 114.427C87.5076 100.154 104.358 86.7071 122.198 77.9941C134.368 72.0531 144.528 70.0981 159.218 69.2241C200.508 66.7671 242.848 68.4241 284.308 68.4551L510.668 68.4971C559.974 68.6031 609.281 68.5074 658.588 68.2101C703.408 67.7781 751.178 65.3841 795.518 70.2681C800.288 71.3961 804.177 72.5061 808.547 74.2751C837.857 87.2911 852.708 104.844 863.438 126.77C869.378 135.974 871.728 145.035 872.358 154.972C874.848 194.222 872.638 233.652 872.458 272.922L871.338 510.912L872.188 710.612C872.808 752.612 876.048 795.352 872.578 837.282C871.418 851.362 867.268 867.112 859.338 880.222C857.018 884.072 856.197 886.502 850.547 888.232L849.287 890.712L853.968 891.152C854.398 895.562 847.248 900.502 844.018 904.272C835.168 918.172 817.617 930.632 796.537 936.512C764.317 945.512 687.738 940.162 649.968 940.392C540.474 941.485 430.978 941.782 321.478 941.282C297.738 941.162 274.048 939.932 250.318 939.792C232.458 939.682 214.547 941.712 196.907 941.342C180.837 941.002 162.178 940.372 146.848 936.992C159.898 937.062 177.458 938.582 189.588 935.432L189.738 933.922C177.448 931.942 157.977 931.642 147.537 927.772L152.198 926.052C146.738 924.572 140.557 923.572 134.917 922.392C118.197 911.502 105.087 901.022 93.7875 887.362L92.3375 889.272C96.3675 901.312 106.378 913.042 112.568 924.812C109.374 922.452 106.354 919.995 103.508 917.442C86.6476 902.082 70.8675 883.762 67.1675 864.632C63.4275 845.262 64.6576 825.342 64.7476 805.852L65.0275 728.262L64.9976 458.862L64.7075 254.162C64.4875 219.862 58.7176 183.792 65.9876 149.795C69.6476 137.512 73.5076 125.866 81.3676 114.427Z" fill="url(#paint4_linear_204_177)"/>
<path d="M81.3676 114.427C87.5076 100.154 104.358 86.7071 122.198 77.9941C134.368 72.0531 144.528 70.0981 159.218 69.2241C200.508 66.7671 242.847 68.4241 284.307 68.4551L510.667 68.4971C559.974 68.6031 609.281 68.5074 658.588 68.2101C703.408 67.7781 751.178 65.3841 795.518 70.2681C800.288 71.3961 804.177 72.5061 808.547 74.2751C837.857 87.2911 852.708 104.844 863.438 126.77C850.837 121.785 840.828 104.739 828.188 102.666C816.477 95.6531 802.817 87.0901 787.037 84.7781C757.287 80.4221 671.838 84.1721 636.448 84.1101L218.927 82.8291C189.957 84.1761 146.988 79.8031 125.228 94.5701C120.638 96.9561 117.048 99.0971 113.318 102.066C91.3075 121.687 79.6076 140.604 81.1276 165.502C80.8076 176.942 81.4875 188.872 78.9675 200.182C77.5975 191.252 81.4075 168.202 75.9475 161.902C69.6775 183.912 74.7175 220.072 68.2075 237.472C64.8175 208.452 68.5575 178.942 65.9875 149.795C69.6475 137.512 73.5076 125.866 81.3676 114.427Z" fill="#6C2D04"/>
<path d="M808.547 74.2751C837.857 87.2911 852.708 104.844 863.438 126.77C850.837 121.785 840.828 104.739 828.188 102.666C816.477 95.6531 802.817 87.0901 787.037 84.7781C757.287 80.4221 671.838 84.1721 636.448 84.1101L218.927 82.8291C200.877 81.6041 181.478 83.9971 164.068 80.3731C207.368 71.5151 258.388 77.2271 303.248 77.1551L569.858 77.0131C629.038 77.2711 688.698 78.6341 747.848 77.7821C762.908 77.5661 796.387 78.5301 808.547 74.2751Z" fill="#922E04"/>
<path d="M81.3676 114.427C87.5076 100.154 104.358 86.7071 122.198 77.9941C134.368 72.0531 144.528 70.0981 159.218 69.2241C200.508 66.7671 242.847 68.4241 284.307 68.4551L510.667 68.4971C559.974 68.6031 609.281 68.5074 658.588 68.2101C703.408 67.7781 751.178 65.3841 795.518 70.2681C759.058 77.3291 660.007 74.5021 618.797 74.4931L272.157 73.1631C232.917 72.9931 184.148 67.3871 146.828 76.5531C115.148 84.3381 103.528 103.735 81.3676 114.427Z" fill="#4C1B01"/>
<path d="M828.188 102.666C840.828 104.739 850.837 121.785 863.438 126.77C869.378 135.974 871.728 145.035 872.358 154.972C874.848 194.222 872.638 233.652 872.458 272.922L871.338 510.912L872.188 710.612C872.808 752.612 876.048 795.352 872.578 837.282C871.418 851.362 867.268 867.112 859.338 880.222C857.018 884.072 856.197 886.502 850.547 888.232C853.327 877.682 857.288 866.712 856.318 855.982C858.598 840.772 857.158 824.402 857.318 809.072L857.698 713.032L857.568 422.752L857.748 231.042C857.648 204.492 863.748 175.722 855.208 149.695C852.398 131.417 841.807 118.313 828.188 102.666Z" fill="#AE5705"/>
<path d="M112.568 924.812C109.374 922.452 106.354 919.995 103.508 917.442C86.6476 902.082 70.8675 883.762 67.1675 864.632C63.4275 845.262 64.6576 825.342 64.7476 805.852L65.0275 728.262L64.9976 458.862L64.7075 254.162C64.4875 219.862 58.7176 183.792 65.9876 149.795C68.5576 178.942 64.8175 208.452 68.2075 237.472C74.7175 220.072 69.6775 183.912 75.9475 161.902C81.4075 168.202 77.5975 191.252 78.9675 200.182C79.9209 292.362 80.1609 384.545 79.6875 476.732C79.2142 510.732 79.2376 544.732 79.7576 578.732C79.9776 592.392 78.4276 607.442 80.8876 620.922C79.8176 665.062 80.7576 709.212 80.1476 753.352C79.7076 784.332 76.5475 815.672 80.6775 846.582C82.5575 860.582 85.8475 874.282 93.7875 887.362L92.3375 889.272C96.3675 901.312 106.378 913.042 112.568 924.812Z" fill="#AE5705"/>
<path d="M856.318 855.982C857.288 866.712 853.327 877.682 850.547 888.232L849.287 890.712L853.968 891.152C854.398 895.562 847.248 900.502 844.018 904.272C835.168 918.172 817.617 930.632 796.537 936.512C764.317 945.512 687.738 940.162 649.968 940.392C540.474 941.485 430.978 941.782 321.478 941.282C297.738 941.162 274.048 939.932 250.318 939.792C232.458 939.682 214.547 941.712 196.907 941.342C180.837 941.002 162.178 940.372 146.848 936.992C159.898 937.062 177.458 938.582 189.588 935.432L189.738 933.922C177.448 931.942 157.977 931.642 147.537 927.772L152.198 926.052C192.788 929.142 233.498 927.262 274.228 926.982L444.868 926.832L661.868 927.002C702.198 927.062 743.338 928.792 783.478 926.262C811.278 918.562 825.647 906.382 837.797 888.512C847.877 879.702 851.878 866.422 856.318 855.982Z" fill="#E88C13"/>
<path d="M856.318 855.982C857.288 866.712 853.327 877.682 850.547 888.232L849.287 890.712L853.968 891.152C854.398 895.562 847.248 900.502 844.018 904.272C843.138 904.732 842.248 905.182 841.378 905.642C826.758 913.482 819.238 924.742 802.118 931.442C773.578 942.612 659.898 938.172 621.748 935.962C617.181 935.715 612.634 935.355 608.108 934.882C642.058 931.822 675.898 931.082 710.138 930.752C734.228 930.522 761.027 932.602 784.417 928.542L785.057 927.012L783.478 926.262C811.278 918.562 825.647 906.382 837.797 888.512C847.877 879.702 851.878 866.422 856.318 855.982Z" fill="#D27B08"/>
<path d="M218.927 82.8291L636.448 84.1101C671.838 84.1721 757.287 80.4221 787.037 84.7781C802.817 87.0901 816.477 95.6531 828.188 102.666C841.807 118.313 852.398 131.417 855.208 149.695C849.048 144.994 846.407 138.568 842.417 132.957C830.827 116.68 818.767 102.827 799.037 90.3591C734.767 95.9851 669.588 92.7661 604.978 92.6261L283.878 92.1791C231.898 92.0201 176.228 87.2621 125.228 94.5701C146.988 79.8031 189.957 84.1761 218.927 82.8291Z" fill="#190200"/>
<path d="M80.8875 620.922C81.1775 621.722 81.4875 622.522 81.7575 623.332C86.2675 637.012 83.1775 655.332 83.1075 669.452C82.7675 701.285 82.6875 733.115 82.8675 764.942C82.7675 795.192 73.2875 864.152 99.7675 888.262L100.878 887.722C90.3175 871.172 87.8675 853.932 85.8375 835.992C81.7375 799.642 86.9274 762.942 86.8174 726.592C86.7174 696.502 78.9175 641.682 86.8375 615.702C88.2075 655.102 89.9274 695.082 89.5374 734.462C89.2074 768.032 87.2475 800.992 89.7575 834.612C90.6375 846.292 90.5775 858.002 94.6275 869.432C100.648 886.442 112.358 901.162 131.768 913.102C139.828 918.052 147.387 920.672 158.287 921.502C191.287 924.002 225.847 922.762 259.057 922.682L420.177 922.512L641.398 922.342C679.428 922.332 718.078 923.642 756.018 922.092C770.948 921.482 784.387 920.582 798.797 917.792C808.337 911.742 830.387 890.642 837.797 888.512C825.647 906.382 811.277 918.562 783.477 926.262C743.337 928.792 702.197 927.062 661.867 927.002L444.867 926.832L274.227 926.982C233.497 927.262 192.787 929.142 152.197 926.052C146.737 924.572 140.557 923.572 134.917 922.392C118.197 911.502 105.087 901.022 93.7874 887.362C85.8474 874.282 82.5574 860.582 80.6774 846.582C76.5474 815.672 79.7075 784.332 80.1475 753.352C80.7575 709.212 79.8175 665.062 80.8875 620.922Z" fill="#4C1B01"/>
<path d="M113.318 102.066L126.048 100.583C122.378 108.464 104.358 118.727 97.6875 127.881C89.2475 139.463 89.2076 155.212 81.1276 165.502C79.6076 140.604 91.3075 121.687 113.318 102.066Z" fill="#190200"/>
<path d="M189.177 127.077C314.704 126.438 440.231 126.433 565.758 127.064C623.308 127.176 692.698 123.955 748.078 127.388C763.178 128.324 778.227 130.72 790.657 136.794C808.347 145.445 817.898 162.072 821.238 176.152C827.698 203.332 823.298 232.812 823.248 260.292L823.557 418.652L824.148 697.172C824.028 743.192 827.718 790.962 822.198 836.812C820.508 850.822 814.578 865.862 801.568 877.142C790.428 886.812 777.268 891.702 759.338 893.392C626.131 894.772 492.921 895.099 359.708 894.372C307.318 894.202 253.937 896.382 201.677 894.312C187.277 893.742 166.388 893.602 153.888 888.422C132.678 879.632 121.898 861.632 116.978 845.932C104.948 807.522 111.988 764.922 112.498 725.832L112.858 573.572L112.927 329.342C112.877 285.282 109.518 240.202 114.198 196.292C116.028 179.082 119.147 161.452 134.027 146.827C147.677 133.412 166.577 129.835 189.177 127.077Z" fill="#6C2D04"/>
<path d="M399.177 344.852C379.097 346.482 344.077 349.892 325.407 344.122C320.577 342.632 317.548 340.642 315.998 337.162C313.958 332.562 316.908 327.062 319.618 322.872C335.228 298.722 379.447 260.652 403.197 236.782C420.127 219.762 435.657 200.432 454.697 184.532C458.097 181.702 461.088 180.472 466.128 179.222C472.908 179.432 475.487 180.912 480.437 183.652C510.237 210.492 536.657 238.882 563.967 266.862C579.417 282.672 597.267 298.222 609.957 315.072C613.917 320.322 619.768 328.432 617.738 334.552C616.508 338.252 614.077 340.382 609.277 342.392C590.127 350.392 532.637 336.782 525.417 353.142C517.357 371.402 522.937 425.292 523.167 446.992L523.417 660.382C523.577 697.782 528.387 736.412 523.797 773.642C523.057 779.602 522.237 792.722 513.537 795.532C501.427 799.442 435.227 799.362 422.037 796.122C415.167 792.442 414.487 783.752 413.567 778.162C407.457 740.952 412.607 702.282 412.807 664.882L412.947 450.172C413.027 426.062 418.167 384.522 413.467 362.962C411.777 355.252 408.147 349.922 399.177 344.852Z" fill="#FBE2BF"/>
<path d="M399.177 344.852C379.097 346.482 344.077 349.892 325.407 344.122C320.577 342.632 317.548 340.642 315.998 337.162C313.958 332.562 316.908 327.062 319.618 322.872C335.228 298.722 379.447 260.652 403.197 236.782C420.127 219.762 435.657 200.432 454.697 184.532C458.097 181.702 461.088 180.472 466.128 179.222C472.908 179.432 475.487 180.912 480.437 183.652C477.877 184.272 475.007 184.762 472.527 185.442C457.827 189.462 332.497 319.262 326.787 333.312C325.987 335.272 325.898 337.052 326.118 339.072C333.138 343.912 344.307 343.712 353.817 343.772C367.927 343.842 385.887 341.332 399.177 344.852Z" fill="#FEF4DB"/>
<path d="M556.187 543.262C550.917 540.282 548.398 536.852 547.998 532.282C547.508 526.612 551.077 521.492 554.807 516.542C569.137 497.562 589.067 480.492 606.207 462.622C620.197 448.032 646.107 416.182 663.167 405.022C667.507 402.182 671.037 402.952 676.587 403.022C694.897 420.932 797.537 520.242 791.807 535.302C790.517 538.712 788.318 541.552 783.628 543.402C766.338 550.212 730.448 536.782 721.858 552.842C715.598 564.542 717.807 581.932 717.457 594.392C716.624 632.279 716.688 670.165 717.648 708.052C718.328 730.862 724.098 756.692 718.138 779.172C716.798 784.242 714.858 789.832 707.618 792.662C695.948 797.222 648.437 797.002 635.827 793.682C630.317 792.232 627.698 790.602 625.648 786.932C616.598 770.762 622.268 745.932 622.618 728.712C623.348 692.882 622.898 657.012 623.128 621.172C623.258 602.522 626.267 582.632 622.437 564.152C621.297 558.642 619.507 550.892 611.707 547.692C595.507 541.052 572.407 550.022 556.187 543.262Z" fill="#FBE2BF"/>
<path d="M556.187 543.262C550.917 540.282 548.398 536.852 547.998 532.282C547.508 526.612 551.077 521.492 554.807 516.542C569.137 497.562 589.067 480.492 606.207 462.622C620.197 448.032 646.107 416.182 663.167 405.022C667.507 402.182 671.037 402.952 676.587 403.022C649.321 432.102 621.674 461.019 593.648 489.772C582.218 501.382 567.028 512.852 557.498 525.062C555.118 528.102 553.248 533.282 554.728 536.692C555.238 537.862 556.307 538.912 556.707 540.112C557.437 542.312 557.387 542.042 556.187 543.262Z" fill="#FEF4DB"/>
<path d="M260.238 404.942C268.658 405.762 271.308 407.252 276.388 411.762C292.418 426.012 304.778 442.792 319.088 457.922C338.158 478.112 361.487 498.582 377.427 519.842C381.087 524.722 386.407 532.092 384.527 537.732C383.397 541.092 380.008 543.042 375.518 544.412C359.108 549.412 320.998 540.282 312.888 554.602C303.498 571.172 309.618 604.702 310.218 623.212C311.228 654.402 310.468 685.652 310.758 716.852C310.948 736.622 313.737 758.112 309.907 777.632C308.907 782.752 307.848 790.802 300.348 793.662C288.318 798.252 238.058 796.912 225.118 793.442C221.518 792.482 220.178 792.002 218.368 789.652C210.608 779.542 214.468 643.272 214.858 618.362C215.148 600.602 218.538 581.052 213.958 563.542C212.438 557.712 208.768 550.002 199.998 547.282C183.188 542.062 152.507 554.522 141.317 539.972C140.847 536.672 140.627 533.432 141.677 530.162C146.107 516.392 243.548 412.622 260.238 404.942Z" fill="#FBE2BF"/>
<path d="M141.317 539.972C140.847 536.672 140.627 533.432 141.677 530.162C146.107 516.392 243.548 412.622 260.238 404.942L265.398 407.282C264.548 410.382 263.987 410.502 261.167 412.902C239.947 430.982 223.337 452.952 204.927 472.472C184.897 493.722 161.668 514.162 144.628 536.532C143.008 538.662 143.747 537.792 141.317 539.972Z" fill="#FEF4DB"/>
<path d="M652.098 217.782C657.638 219.102 663.777 220.672 666.277 224.602C669.597 229.782 665.178 236.022 662.598 240.912C657.338 239.882 651.537 238.282 648.907 234.792C644.927 229.492 649.498 222.872 652.098 217.782Z" fill="#922E04"/>
<path d="M768.568 807.372C770.318 807.812 773.398 808.532 774.948 809.132C779.668 810.972 780.038 812.662 781.748 815.902C780.978 820.862 778.668 824.292 775.368 828.752C770.248 826.272 764.428 823.122 763.268 818.732C762.078 814.252 765.248 811.052 768.568 807.372Z" fill="#922E04"/>
<defs>
<linearGradient id="paint0_linear_204_177" x1="1021.33" y1="609.665" x2="-84.3286" y2="401.313" gradientUnits="userSpaceOnUse">
<stop stop-color="#C56D08"/>
<stop offset="1" stop-color="#E58E12"/>
</linearGradient>
<linearGradient id="paint1_linear_204_177" x1="887.304" y1="978.761" x2="281.603" y2="297.6" gradientUnits="userSpaceOnUse">
<stop stop-color="#712100"/>
<stop offset="1" stop-color="#A75303"/>
</linearGradient>
<linearGradient id="paint2_linear_204_177" x1="59.6998" y1="520.8" x2="-11.3607" y2="519.36" gradientUnits="userSpaceOnUse">
<stop stop-color="#B15904"/>
<stop offset="1" stop-color="#D77F07"/>
</linearGradient>
<linearGradient id="paint3_linear_204_177" x1="846.544" y1="130.749" x2="174.642" y2="-78.6652" gradientUnits="userSpaceOnUse">
<stop stop-color="#BC7800"/>
<stop offset="1" stop-color="#FF9F2A"/>
</linearGradient>
<linearGradient id="paint4_linear_204_177" x1="70.7799" y1="123.608" x2="858.983" y2="885.333" gradientUnits="userSpaceOnUse">
<stop stop-color="#340F01"/>
<stop offset="1" stop-color="#622702"/>
</linearGradient>
</defs>
</svg>
