<?xml version="1.0" encoding="UTF-8" standalone="no"?>
<svg xmlns:ffdec="https://www.free-decompiler.com/flash" xmlns:xlink="http://www.w3.org/1999/xlink" ffdec:objectType="frame" height="50.0px" width="50.0px" xmlns="http://www.w3.org/2000/svg">
  <g transform="matrix(1.0, 0.0, 0.0, 1.0, 25.0, 25.0)">
    <use ffdec:characterId="392" height="94.3" transform="matrix(0.6473, 0.0, 0.0, 0.6473, -25.0, -25.0)" width="94.3" xlink:href="#sprite0"/>
  </g>
  <defs>
    <g id="sprite0" transform="matrix(1.0, 0.0, 0.0, 1.0, 38.65, 38.65)">
      <use ffdec:characterId="391" height="77.3" transform="matrix(1.0, 0.0, 0.0, 1.0, -38.65, -38.65)" width="77.3" xlink:href="#shape0"/>
    </g>
    <g id="shape0" transform="matrix(1.0, 0.0, 0.0, 1.0, 38.65, 38.65)">
      <path d="M31.35 -26.95 L31.35 -31.3 26.25 -31.3 -25.75 -31.3 -31.95 -31.3 -31.95 -26.2 -31.95 26.95 -31.95 31.75 -27.3 31.75 25.95 31.75 31.35 31.75 31.35 25.85 31.35 -26.95 M37.65 37.65 L-37.65 37.65 -37.65 -37.65 37.65 -37.65 37.65 37.65" fill="url(#gradient0)" fill-rule="evenodd" stroke="none"/>
      <path d="M26.25 -31.3 L31.35 -31.3 31.35 -26.95 4.85 -0.7 31.35 25.85 31.35 31.75 25.95 31.75 -0.7 5.05 -27.3 31.75 -31.95 31.75 -31.95 26.95 -5.4 0.25 -31.95 -26.2 -31.95 -31.3 -25.75 -31.3 0.3 -5.3 26.25 -31.3" fill="url(#gradient1)" fill-rule="evenodd" stroke="none"/>
      <path d="M26.25 -31.3 L0.3 -5.3 -25.75 -31.3 26.25 -31.3 M-31.95 -26.2 L-5.4 0.25 -31.95 26.95 -31.95 -26.2 M-27.3 31.75 L-0.7 5.05 25.95 31.75 -27.3 31.75 M31.35 25.85 L4.85 -0.7 31.35 -26.95 31.35 25.85" fill="url(#gradient2)" fill-rule="evenodd" stroke="none"/>
      <path d="M37.65 37.65 L-37.65 37.65 -37.65 -37.65 37.65 -37.65 37.65 37.65" fill="none" stroke="#000000" stroke-linecap="butt" stroke-linejoin="miter-clip" stroke-miterlimit="3.0" stroke-width="2.0"/>
      <path d="M31.35 -26.95 L31.35 -31.3 26.25 -31.3 0.3 -5.3 -25.75 -31.3 -31.95 -31.3 -31.95 -26.2 -5.4 0.25 -31.95 26.95 -31.95 31.75 -27.3 31.75 -0.7 5.05 25.95 31.75 31.35 31.75 31.35 25.85 4.85 -0.7 31.35 -26.95 31.35 25.85 M-31.95 26.95 L-31.95 -26.2 M25.95 31.75 L-27.3 31.75 M26.25 -31.3 L-25.75 -31.3" fill="none" stroke="#000000" stroke-linecap="round" stroke-linejoin="miter-clip" stroke-miterlimit="3.0" stroke-width="2.0"/>
    </g>
    <linearGradient gradientTransform="matrix(0.0, -0.0459, 0.0459, 0.0, -0.1, -0.05)" gradientUnits="userSpaceOnUse" id="gradient0" spreadMethod="pad" x1="-819.2" x2="819.2">
      <stop offset="0.0" stop-color="#a86d26"/>
      <stop offset="1.0" stop-color="#d79341"/>
    </linearGradient>
    <linearGradient gradientTransform="matrix(0.0, 0.0386, -0.0385, 0.0, -0.25, 0.2)" gradientUnits="userSpaceOnUse" id="gradient1" spreadMethod="pad" x1="-819.2" x2="819.2">
      <stop offset="0.0" stop-color="#c97726"/>
      <stop offset="1.0" stop-color="#935626"/>
    </linearGradient>
    <linearGradient gradientTransform="matrix(0.0, -0.0459, 0.0459, 0.0, -0.1, -0.05)" gradientUnits="userSpaceOnUse" id="gradient2" spreadMethod="pad" x1="-819.2" x2="819.2">
      <stop offset="0.0" stop-color="#c97f38"/>
      <stop offset="1.0" stop-color="#af7127"/>
    </linearGradient>
  </defs>
</svg>
