<?xml version="1.0" encoding="UTF-8" standalone="no"?>
<svg xmlns:ffdec="https://www.free-decompiler.com/flash" xmlns:xlink="http://www.w3.org/1999/xlink" ffdec:objectType="frame" height="104.65px" width="97.5px" xmlns="http://www.w3.org/2000/svg">
  <g transform="matrix(1.0, 0.0, 0.0, 1.0, 67.3, 42.1)">
    <use ffdec:characterId="456" height="103.9" transform="matrix(1.0, 0.0, 0.0, 1.0, -66.4, -41.6)" width="96.6" xlink:href="#shape0"/>
  </g>
  <defs>
    <g id="shape0" transform="matrix(1.0, 0.0, 0.0, 1.0, 66.4, 41.6)">
      <path d="M-7.95 8.8 Q-9.95 7.05 -7.3 1.0 -4.5 -5.5 -2.1 -4.4 1.4 -9.75 3.65 -9.4 5.6 -9.1 4.8 -5.7 L8.65 -7.7 Q12.05 -8.7 9.65 -3.9 L11.2 -3.65 Q12.15 -2.65 9.15 0.8 11.45 0.95 9.15 2.9 6.7 5.05 3.75 6.7 0.05 8.75 -3.25 9.35 -6.65 9.95 -7.95 8.8" fill="#493a2a" fill-rule="evenodd" stroke="none"/>
      <path d="M-4.45 0.9 L0.15 -4.95 Q4.6 -9.7 3.75 -4.25 L6.9 -5.7 Q9.85 -6.55 8.7 -3.4 L9.8 -3.0 Q10.7 -2.3 9.45 -0.2 7.1 3.7 2.3 5.8 -3.75 8.5 -4.45 0.9" fill="#8d796a" fill-rule="evenodd" stroke="none"/>
      <path d="M-6.5 2.45 Q-4.0 -3.4 -1.95 -2.55 -1.25 -2.25 -0.95 -1.15 -0.6 -0.1 -1.0 0.65 L2.45 -1.65 Q5.65 -3.1 4.6 1.15 L7.5 0.95 Q9.85 1.1 7.45 3.15 2.65 7.3 -2.55 9.15 -5.35 10.1 -6.75 9.1 -8.75 7.65 -6.5 2.45" fill="#5d4e3f" fill-rule="evenodd" stroke="none"/>
      <path d="M1.9 49.95 Q-5.85 57.7 -13.9 52.45 -16.4 50.85 -18.7 48.1 L-20.4 45.65 Q-19.9 39.35 -16.25 37.65 -13.4 36.35 -7.0 37.6 0.6 39.1 2.0 44.65 2.7 47.45 1.9 49.95" fill="#764b2d" fill-rule="evenodd" stroke="none"/>
      <path d="M-3.95 51.85 Q-9.45 54.1 -14.85 49.75 -16.55 48.4 -18.05 46.5 L-19.2 44.95 Q-18.75 39.7 -14.85 38.65 L-7.1 39.0 Q-0.7 40.35 0.35 44.9 0.95 47.2 0.2 49.15 L-1.85 50.8 Q-1.85 49.05 -2.35 47.05 -3.25 43.05 -6.4 42.3 -3.6 45.05 -3.95 51.85" fill="#fbad53" fill-rule="evenodd" stroke="none"/>
      <path d="M-48.85 25.55 Q-46.2 28.35 -47.5 32.2 -49.3 37.55 -59.1 41.0 -66.35 43.65 -66.15 38.25 -66.1 36.6 -65.25 34.3 L-64.5 32.4 Q-69.75 26.05 -60.65 24.3 L-53.55 24.1 Q-49.85 24.5 -48.85 25.55" fill="#493a2a" fill-rule="evenodd" stroke="none"/>
      <path d="M-48.55 26.15 Q-46.4 28.5 -47.45 31.3 -48.95 35.4 -57.1 38.3 -63.2 40.5 -63.05 36.4 L-61.65 31.85 Q-66.05 26.55 -58.4 25.1 L-52.5 24.9 Q-49.35 25.3 -48.55 26.15" fill="#716559" fill-rule="evenodd" stroke="none"/>
      <path d="M-57.4 24.95 Q-60.4 26.7 -61.1 29.0 L-59.85 30.45 Q-58.05 32.0 -55.15 32.05 L-57.85 32.7 Q-60.75 33.85 -61.7 35.85 L-60.1 36.95 Q-58.0 38.0 -54.85 37.45 L-57.1 38.3 Q-63.2 40.5 -63.05 36.4 L-61.65 31.85 Q-64.1 28.85 -62.45 27.0 -61.15 25.45 -57.4 24.95" fill="#5d4e3f" fill-rule="evenodd" stroke="none"/>
      <path d="M-2.05 -1.4 Q6.7 6.1 7.9 14.15 8.4 17.35 7.4 19.15 6.35 20.9 4.4 20.4 5.95 31.3 -1.3 37.05 -4.95 40.0 -8.8 40.65 -15.45 47.9 -23.6 49.6 -30.75 51.1 -37.7 48.15 -44.15 45.4 -48.3 39.85 -52.45 34.3 -52.45 28.45 -52.45 17.1 -43.0 9.8 -36.4 4.7 -28.7 3.4 -27.6 3.2 -28.2 2.6 L-30.4 0.6 Q-35.0 -3.45 -36.0 -8.7 -38.35 -6.4 -39.55 -10.75 -40.75 -15.1 -39.5 -21.55 -38.1 -28.95 -34.05 -34.0 -29.1 -40.2 -21.4 -41.3 -15.25 -42.1 -10.45 -40.7 -4.8 -39.1 -3.75 -39.1 -0.35 -39.1 1.95 -34.1 4.45 -28.6 6.1 -28.05 10.1 -21.15 9.4 -15.25 8.55 -8.3 0.95 -4.55 L-3.95 -4.1 Q-4.8 -3.75 -2.05 -1.4" fill="#493a2a" fill-rule="evenodd" stroke="none"/>
      <path d="M1.8 -27.75 Q7.35 -18.55 6.15 -13.25 5.25 -9.5 0.65 -7.4 L-5.2 -5.45 Q-8.2 -4.2 -5.55 -2.4 1.9 2.75 4.4 12.2 5.35 15.8 4.85 17.65 4.3 19.55 2.55 18.05 3.75 27.8 -1.85 33.95 -4.65 37.0 -7.75 38.1 -22.7 51.0 -35.65 45.25 -39.75 43.5 -43.15 40.1 L-45.7 37.0 Q-52.75 25.85 -45.9 15.5 -39.45 5.85 -27.15 4.6 -24.85 4.4 -25.3 3.5 L-27.75 0.7 Q-33.65 -5.3 -34.2 -12.35 -36.65 -9.95 -37.5 -13.35 -38.3 -16.7 -36.85 -22.25 -35.25 -28.5 -31.65 -33.05 -27.3 -38.55 -21.2 -39.75 -12.15 -41.55 -5.25 -36.2 -1.55 -33.35 1.8 -27.75" fill="#716559" fill-rule="evenodd" stroke="none"/>
      <path d="M-11.25 -19.05 Q-4.05 -14.8 -3.2 -12.55 -2.65 -11.05 -5.4 -9.5 -8.85 -7.55 -9.55 -6.25 -10.9 -3.65 -7.35 0.8 -4.15 4.85 -0.5 12.4 3.6 20.75 -0.4 18.1 0.3 23.0 -1.4 28.8 -3.45 35.55 -7.75 38.1 -12.25 40.85 -17.15 40.45 -21.6 40.05 -24.6 37.2 -27.65 34.35 -27.65 30.45 -27.6 26.15 -23.6 22.15 -26.25 21.75 -25.25 20.75 -22.85 19.15 -21.3 17.6 -14.5 10.85 -21.35 -0.75 -29.45 -14.3 -24.0 -19.3 -21.85 -21.3 -18.1 -21.15 -14.6 -21.0 -11.25 -19.05" fill="#8d796a" fill-rule="evenodd" stroke="none"/>
      <path d="M-9.85 -20.95 Q-3.1 -17.2 -2.35 -14.55 -1.75 -12.75 -4.25 -10.55 -7.25 -7.95 -7.65 -6.9 -8.35 -4.55 -4.25 -1.4 1.6 3.05 4.25 12.0 5.3 15.55 4.9 17.4 4.45 19.35 2.55 18.1 3.3 22.7 2.1 26.8 0.8 31.4 -2.9 35.0 -6.8 38.7 -11.9 39.2 -16.55 39.65 -20.15 37.4 -23.85 35.05 -24.2 31.15 -24.6 26.75 -20.45 22.05 -15.25 16.25 -15.85 10.6 -16.25 5.95 -21.35 -2.2 -30.1 -16.15 -23.1 -20.9 -20.5 -22.65 -16.35 -22.55 -12.55 -22.45 -9.85 -20.95" fill="#bba18b" fill-rule="evenodd" stroke="none"/>
      <path d="M3.65 -24.55 Q0.4 -23.6 -1.45 -27.0 -3.3 -30.4 -0.65 -32.2 1.4 -33.6 3.35 -32.95 5.0 -32.35 5.95 -30.55 6.8 -28.75 6.3 -27.05 5.7 -25.2 3.65 -24.55" fill="#231f20" fill-rule="evenodd" stroke="none"/>
      <path d="M8.65 -25.55 Q13.2 -26.2 15.7 -23.15 17.9 -20.45 17.7 -16.0 17.45 -11.6 14.8 -8.0 11.9 -4.05 7.3 -3.05 3.75 -2.3 -0.75 -2.85 -4.05 -3.35 -8.3 -1.15 -17.35 3.4 -24.05 -3.0 -26.75 -5.65 -28.05 -9.3 -29.3 -12.9 -28.55 -15.9 -27.6 -19.85 -24.95 -22.15 -22.8 -24.0 -22.65 -27.65 -22.25 -34.9 -15.65 -37.5 -10.05 -39.75 -6.05 -37.6 -4.2 -36.55 -2.95 -34.1 L-1.05 -29.7 Q1.55 -24.55 8.65 -25.55" fill="#00615b" fill-rule="evenodd" stroke="none"/>
      <path d="M18.6 -24.7 Q20.55 -22.0 19.9 -17.55 19.2 -13.15 16.3 -9.5 13.1 -5.5 8.45 -4.4 4.05 -3.4 -0.7 -4.55 -4.45 -5.35 -8.5 -3.25 -16.75 1.1 -21.95 -4.25 -26.7 -9.15 -25.0 -16.05 -24.1 -19.95 -21.7 -22.45 -19.7 -24.5 -19.55 -28.15 -19.2 -35.35 -12.7 -37.15 -7.45 -38.55 -3.25 -36.3 -1.4 -35.25 -0.05 -33.25 L2.05 -29.8 Q4.75 -26.05 11.9 -27.05 16.45 -27.7 18.6 -24.7" fill="#00a79c" fill-rule="evenodd" stroke="none"/>
      <path d="M23.85 -25.35 Q34.35 -15.4 27.55 -1.5 25.0 3.6 21.35 6.55 17.75 9.45 16.25 7.85 15.4 6.9 14.85 4.85 L14.1 1.45 Q12.85 -2.5 8.05 -2.05 4.8 -1.7 3.15 -2.0 0.7 -2.45 -0.6 -4.35 -1.85 -6.2 -5.45 -8.05 -9.65 -10.25 -12.4 -9.25 -13.75 -8.85 -14.9 -5.65 -15.45 -4.1 -17.15 -7.55 -17.7 -8.8 -16.4 -9.5 L-14.95 -9.95 Q-11.7 -13.1 -6.55 -10.45 -4.0 -9.1 -2.3 -7.6 -3.25 -10.55 -3.2 -12.9 -3.15 -16.3 -1.25 -20.35 1.9 -26.75 9.85 -28.65 18.25 -30.7 23.85 -25.35" fill="#78523d" fill-rule="evenodd" stroke="none"/>
      <path d="M20.3 -24.6 Q30.35 -18.05 25.5 -4.15 23.8 0.75 21.1 3.95 18.45 7.0 17.65 5.2 17.4 2.05 16.2 -0.05 13.9 -4.1 7.55 -3.3 1.65 -2.5 -1.05 -6.25 -3.85 -10.05 -2.0 -16.75 -0.45 -22.45 6.25 -25.5 13.65 -29.0 20.3 -24.6" fill="#fbad53" fill-rule="evenodd" stroke="none"/>
      <path d="M-18.05 -32.75 Q-15.6 -33.6 -14.4 -32.8 -12.8 -31.95 -9.05 -26.85 -7.05 -24.25 -4.6 -24.3 -3.4 -24.3 -2.6 -24.9 -3.3 -23.35 -5.0 -22.6 L-6.45 -22.15 Q-6.65 -19.95 -7.75 -18.15 -9.85 -14.45 -14.15 -15.95 -18.75 -17.6 -18.7 -22.15 -18.7 -26.15 -15.9 -28.65 -15.45 -29.5 -16.7 -31.2 L-18.05 -32.75" fill="#47618c" fill-rule="evenodd" stroke="none"/>
      <path d="M-5.35 -24.3 Q-5.45 -23.5 -8.05 -23.45 -8.1 -22.15 -8.75 -21.05 -10.2 -18.8 -13.55 -19.6 -17.55 -20.45 -16.8 -24.4 -16.1 -28.25 -13.15 -28.65 -12.7 -29.8 -14.0 -32.6 -12.55 -31.55 -8.75 -26.55 -7.3 -24.6 -5.35 -24.3" fill="#231f20" fill-rule="evenodd" stroke="none"/>
      <path d="M-14.85 -24.9 Q-14.85 -25.65 -14.5 -26.2 -14.1 -26.75 -13.6 -26.75 -13.05 -26.75 -12.65 -26.2 -12.3 -25.65 -12.3 -24.9 -12.3 -24.1 -12.65 -23.55 -13.05 -23.0 -13.6 -23.0 -14.1 -23.0 -14.5 -23.55 -14.85 -24.1 -14.85 -24.9" fill="#ffffff" fill-rule="evenodd" stroke="none"/>
      <path d="M0.25 -16.55 Q0.6 -18.2 1.3 -19.15 2.1 -20.2 2.8 -20.05 3.55 -19.95 3.85 -18.7 4.15 -17.45 3.85 -15.85 3.5 -14.25 2.75 -13.2 2.0 -12.2 1.25 -12.3 0.55 -12.45 0.2 -13.7 -0.05 -14.95 0.25 -16.55" fill="#764b2d" fill-rule="evenodd" stroke="none"/>
      <path d="M1.45 -16.2 Q1.7 -17.3 2.2 -18.05 2.7 -18.7 3.25 -18.6 3.75 -18.5 3.95 -17.65 4.15 -16.85 3.95 -15.7 3.7 -14.6 3.25 -13.85 2.7 -13.2 2.2 -13.3 1.65 -13.4 1.45 -14.3 1.25 -15.1 1.45 -16.2" fill="#231f20" fill-rule="evenodd" stroke="none"/>
      <path d="M3.75 -28.1 Q3.0 -28.1 1.95 -27.35 -0.25 -25.85 -2.1 -22.1 L0.05 -27.95 Q2.5 -32.8 3.75 -28.1" fill="#00615b" fill-rule="evenodd" stroke="none"/>
      <path d="M1.7 -32.05 Q1.8 -32.3 2.25 -32.4 L3.15 -32.35 4.05 -31.9 Q4.35 -31.55 4.25 -31.25 4.2 -31.0 3.75 -30.9 L2.75 -30.95 Q1.45 -31.35 1.7 -32.05" fill="#ffffff" fill-rule="evenodd" stroke="none"/>
      <path d="M21.05 -11.6 Q19.6 -17.05 15.95 -17.9 13.65 -18.5 14.2 -20.45 14.75 -22.45 17.2 -21.85 19.65 -21.35 21.65 -17.85 24.0 -13.8 22.5 -9.7 21.95 -8.25 21.7 -8.95 L21.05 -11.6" fill="#f9ebb9" fill-rule="evenodd" stroke="none"/>
      <path d="M-6.0 8.9 Q-3.45 11.1 -2.05 14.6 L-3.85 14.1 -2.85 16.75 Q-2.25 19.9 -4.2 21.9 L-4.7 20.1 -5.55 21.25 Q-6.8 22.5 -9.05 22.95 -7.2 21.5 -6.2 18.8 -4.25 13.45 -8.25 7.4 L-6.0 8.9" fill="#716559" fill-rule="evenodd" stroke="none"/>
      <path d="M-39.05 31.8 Q-39.9 33.45 -40.15 34.7 -40.8 38.8 -34.2 38.3 L-34.05 39.55 Q-33.7 41.0 -32.45 42.15 -28.4 45.75 -17.3 44.5 -28.55 49.85 -38.25 43.95 -41.25 42.1 -43.75 39.4 L-45.7 37.0 Q-48.9 31.95 -49.05 26.9 -49.15 22.25 -46.75 18.1 -47.2 23.45 -45.55 26.6 -43.45 30.5 -38.15 30.5 L-39.05 31.8" fill="#5d4e3f" fill-rule="evenodd" stroke="none"/>
      <path d="M-37.6 59.95 Q-40.35 58.15 -42.85 55.15 L-44.75 52.5 Q-44.2 45.55 -40.2 43.7 -37.0 42.25 -30.0 43.6 -21.65 45.2 -20.1 51.4 -19.3 54.45 -20.2 57.2 -28.7 65.75 -37.6 59.95" fill="#764b2d" fill-rule="evenodd" stroke="none"/>
      <path d="M-26.65 59.35 Q-32.65 61.75 -38.65 56.95 -40.5 55.45 -42.15 53.4 L-43.4 51.7 Q-42.95 45.95 -38.65 44.75 L-30.1 45.15 Q-23.1 46.65 -21.85 51.65 -21.25 54.15 -22.0 56.35 -23.5 57.7 -24.35 58.15 -24.35 56.25 -24.8 54.05 -25.8 49.65 -29.3 48.85 -26.2 51.8 -26.65 59.35" fill="#fbad53" fill-rule="evenodd" stroke="none"/>
      <path d="M-48.35 -5.95 Q-48.85 -7.0 -48.45 -7.65 -47.65 -8.9 -43.2 -6.6 -43.4 -7.8 -42.95 -7.95 -42.4 -8.1 -41.0 -7.15 -38.15 -5.25 -35.55 -2.5 -32.45 0.8 -30.95 4.15 -29.4 7.65 -30.2 9.25 -31.55 11.8 -38.65 10.65 -46.2 9.45 -45.7 6.6 -52.3 4.3 -52.5 1.9 -52.7 -0.25 -48.9 -0.3 -51.0 -2.2 -51.95 -3.85 -53.95 -7.1 -48.35 -5.95" fill="#493a2a" fill-rule="evenodd" stroke="none"/>
      <path d="M-39.5 7.7 L-46.9 4.35 Q-53.05 1.0 -47.1 0.4 -48.65 -1.1 -49.5 -2.55 -51.2 -5.4 -47.5 -5.05 L-47.45 -6.3 Q-46.9 -7.4 -44.4 -6.65 -39.7 -5.25 -36.15 -0.75 -31.65 4.85 -39.5 7.7" fill="#c49870" fill-rule="evenodd" stroke="none"/>
      <path d="M-40.3 -5.45 Q-34.45 -1.35 -31.35 3.45 -29.6 6.15 -30.3 7.95 -31.3 10.4 -37.4 9.4 -44.1 8.3 -43.75 5.95 -43.65 5.15 -42.6 4.5 -41.6 3.95 -40.7 4.1 -42.85 2.6 -44.05 1.1 -46.4 -1.95 -41.65 -1.9 L-42.7 -4.9 Q-43.15 -7.5 -40.3 -5.45" fill="#8d796a" fill-rule="evenodd" stroke="none"/>
    </g>
  </defs>
</svg>
