<?xml version="1.0" encoding="UTF-8" standalone="no"?>
<svg xmlns:ffdec="https://www.free-decompiler.com/flash" xmlns:xlink="http://www.w3.org/1999/xlink" ffdec:objectType="frame" height="104.65px" width="97.5px" xmlns="http://www.w3.org/2000/svg">
  <g transform="matrix(1.0, 0.0, 0.0, 1.0, 67.3, 42.1)">
    <use ffdec:characterId="457" height="103.9" transform="matrix(1.0, 0.0, 0.0, 1.0, -67.0, -42.1)" width="96.65" xlink:href="#shape0"/>
  </g>
  <defs>
    <g id="shape0" transform="matrix(1.0, 0.0, 0.0, 1.0, 67.0, 42.1)">
      <path d="M6.35 5.95 Q12.75 5.4 13.85 7.4 14.8 9.15 11.6 10.6 L15.55 12.4 Q18.4 14.45 13.2 15.55 L13.95 16.95 Q13.8 18.3 9.15 18.05 9.8 18.95 9.45 19.3 L7.5 19.35 Q4.4 18.7 1.2 17.4 -2.65 15.75 -5.2 13.5 -7.75 11.1 -7.65 9.45 -7.45 6.8 -1.05 5.15 5.75 3.45 6.35 5.95" fill="#493a2a" fill-rule="evenodd" stroke="none"/>
      <path d="M8.2 7.4 Q14.65 7.95 9.85 10.65 L12.95 12.25 Q15.45 14.1 12.2 15.1 L12.6 16.2 Q12.55 17.3 10.15 17.6 5.7 18.2 1.0 15.7 -4.8 12.6 0.75 7.35 L8.2 7.4" fill="#8d796a" fill-rule="evenodd" stroke="none"/>
      <path d="M4.5 8.85 Q3.85 9.7 3.05 9.95 L7.0 11.25 Q10.15 12.9 6.1 14.6 L8.1 16.8 Q9.45 18.8 6.25 18.15 -0.15 16.8 -4.6 13.95 -7.1 12.25 -7.15 10.55 -7.2 8.1 -1.75 6.65 4.4 5.1 4.95 7.25 5.15 7.95 4.5 8.85" fill="#5d4e3f" fill-rule="evenodd" stroke="none"/>
      <path d="M1.35 49.45 Q-6.4 57.2 -14.5 51.95 -17.0 50.35 -19.25 47.6 L-21.0 45.15 Q-20.5 38.85 -16.85 37.15 -13.95 35.85 -7.55 37.1 0.05 38.6 1.45 44.15 2.15 46.95 1.35 49.45" fill="#764b2d" fill-rule="evenodd" stroke="none"/>
      <path d="M-15.4 49.25 Q-17.1 47.9 -18.6 46.0 L-19.75 44.45 Q-19.35 39.2 -15.4 38.15 L-7.65 38.5 Q-1.25 39.85 -0.2 44.4 0.4 46.7 -0.35 48.65 L-2.45 50.3 Q-2.4 48.55 -2.9 46.55 -3.75 42.55 -6.95 41.8 -5.15 43.55 -4.6 47.65 -4.15 51.2 -4.5 51.35 -10.0 53.6 -15.4 49.25" fill="#fbad53" fill-rule="evenodd" stroke="none"/>
      <path d="M-49.4 25.05 Q-46.75 27.85 -48.05 31.7 -49.85 37.05 -59.65 40.5 -66.9 43.15 -66.7 37.75 -66.65 36.1 -65.8 33.8 L-65.05 31.9 Q-70.35 25.55 -61.2 23.8 L-54.1 23.6 Q-50.4 24.0 -49.4 25.05" fill="#493a2a" fill-rule="evenodd" stroke="none"/>
      <path d="M-49.15 25.65 Q-46.95 27.95 -48.0 30.8 -49.5 34.9 -57.65 37.8 -63.75 40.0 -63.6 35.9 L-62.2 31.35 Q-66.6 26.05 -58.95 24.6 L-53.05 24.4 Q-50.0 24.8 -49.15 25.65" fill="#716559" fill-rule="evenodd" stroke="none"/>
      <path d="M-57.95 24.45 Q-60.95 26.2 -61.65 28.5 L-60.4 29.95 Q-58.6 31.5 -55.7 31.55 -57.0 31.7 -58.45 32.2 -61.35 33.35 -62.25 35.35 L-60.65 36.45 Q-58.55 37.5 -55.45 36.95 L-57.65 37.8 Q-63.75 40.0 -63.6 35.9 L-62.2 31.35 Q-64.65 28.35 -63.05 26.5 -61.7 24.95 -57.95 24.45" fill="#5d4e3f" fill-rule="evenodd" stroke="none"/>
      <path d="M-2.65 -1.9 Q6.1 5.6 7.35 13.65 7.85 16.85 6.85 18.65 5.8 20.4 3.85 19.9 5.4 30.8 -1.85 36.55 -4.15 38.4 -7.0 39.4 L-9.35 40.15 Q-16.0 47.4 -24.15 49.1 -31.3 50.6 -38.3 47.65 -44.75 44.9 -48.9 39.35 -53.05 33.8 -53.05 27.95 -53.0 16.6 -43.55 9.3 -36.95 4.2 -29.25 2.9 -28.15 2.7 -28.75 2.1 L-30.95 0.1 Q-35.55 -3.9 -36.6 -9.2 -38.95 -6.9 -40.1 -11.25 -41.3 -15.6 -40.05 -22.05 -38.65 -29.45 -34.6 -34.5 -29.65 -40.7 -21.95 -41.8 -15.8 -42.6 -11.0 -41.2 -5.4 -39.6 -4.35 -39.6 -0.95 -39.6 1.4 -34.6 3.9 -29.1 5.55 -28.55 9.55 -21.65 8.85 -15.75 8.05 -8.8 0.4 -5.05 L-4.55 -4.6 Q-5.35 -4.25 -2.65 -1.9" fill="#493a2a" fill-rule="evenodd" stroke="none"/>
      <path d="M1.3 -28.25 Q6.8 -19.0 5.6 -13.75 4.7 -10.0 0.05 -7.9 L-5.75 -5.95 Q-8.8 -4.7 -6.1 -2.9 1.35 2.25 3.85 11.7 4.8 15.3 4.3 17.15 3.75 19.05 2.0 17.55 3.2 27.3 -2.4 33.45 -4.2 35.3 -6.4 36.65 L-8.3 37.6 Q-23.3 50.5 -36.25 44.75 -40.3 43.0 -43.7 39.6 L-46.25 36.5 Q-53.3 25.35 -46.45 15.0 -40.0 5.35 -27.7 4.1 -25.45 3.9 -25.85 3.0 -26.0 2.65 -28.3 0.2 -34.2 -5.8 -34.75 -12.85 -37.2 -10.45 -38.05 -13.85 -38.85 -17.2 -37.4 -22.75 -35.8 -29.0 -32.2 -33.55 -27.85 -39.05 -21.75 -40.25 -12.7 -42.05 -5.8 -36.7 -2.1 -33.85 1.3 -28.25" fill="#716559" fill-rule="evenodd" stroke="none"/>
      <path d="M-11.85 -19.55 Q-4.65 -15.3 -3.8 -13.05 -3.25 -11.55 -6.0 -10.0 -9.4 -8.05 -10.1 -6.75 -11.45 -4.15 -7.9 0.3 -4.7 4.35 -1.05 11.9 3.0 20.25 -1.0 17.6 -0.25 22.5 -2.0 28.3 -3.95 35.05 -8.3 37.6 -12.8 40.35 -17.7 39.95 -22.15 39.55 -25.15 36.7 -28.2 33.85 -28.2 29.95 -28.15 25.65 -24.15 21.65 -26.8 21.25 -25.8 20.25 L-21.85 17.1 Q-15.05 10.35 -21.95 -1.25 -30.05 -14.8 -24.6 -19.8 -22.4 -21.8 -18.7 -21.65 -15.15 -21.5 -11.85 -19.55" fill="#8d796a" fill-rule="evenodd" stroke="none"/>
      <path d="M-10.4 -21.45 Q-3.65 -17.7 -2.9 -15.05 -2.35 -13.25 -4.85 -11.05 -7.85 -8.45 -8.2 -7.4 -8.9 -5.05 -4.8 -1.9 1.05 2.55 3.7 11.5 4.75 15.05 4.35 16.9 3.9 18.85 2.0 17.6 3.5 27.75 -3.5 34.5 -7.4 38.2 -12.5 38.7 -17.15 39.15 -20.75 36.9 -24.45 34.55 -24.75 30.65 -25.15 26.25 -21.0 21.55 -15.8 15.75 -16.4 10.1 -16.8 5.45 -21.95 -2.7 -30.7 -16.65 -23.65 -21.4 -21.05 -23.15 -16.9 -23.05 -13.1 -22.95 -10.4 -21.45" fill="#bba18b" fill-rule="evenodd" stroke="none"/>
      <path d="M3.1 -25.05 Q-0.15 -24.1 -2.0 -27.5 -3.85 -30.9 -1.2 -32.7 0.85 -34.1 2.8 -33.45 4.45 -32.85 5.35 -31.05 6.2 -29.25 5.7 -27.55 5.15 -25.7 3.1 -25.05" fill="#231f20" fill-rule="evenodd" stroke="none"/>
      <path d="M15.1 -23.65 Q17.35 -20.95 17.1 -16.5 16.85 -12.1 14.2 -8.5 11.3 -4.55 6.7 -3.55 3.2 -2.8 -1.3 -3.35 -4.6 -3.85 -8.85 -1.65 -17.9 2.9 -24.6 -3.5 -27.35 -6.15 -28.6 -9.8 -29.85 -13.4 -29.1 -16.4 -28.15 -20.35 -25.5 -22.65 -23.35 -24.5 -23.2 -28.15 -22.8 -35.4 -16.2 -38.0 -10.6 -40.25 -6.65 -38.1 -4.75 -37.05 -3.5 -34.6 L-1.6 -30.2 Q0.95 -25.05 8.05 -26.05 12.6 -26.7 15.1 -23.65" fill="#00615b" fill-rule="evenodd" stroke="none"/>
      <path d="M18.05 -25.2 Q20.0 -22.5 19.35 -18.05 18.6 -13.65 15.7 -10.0 12.5 -6.0 7.85 -4.9 3.5 -3.9 -1.25 -5.05 -5.0 -5.85 -9.05 -3.75 -17.3 0.6 -22.5 -4.75 -27.25 -9.65 -25.55 -16.55 -24.65 -20.45 -22.25 -22.95 -20.25 -25.0 -20.1 -28.65 -19.75 -35.85 -13.3 -37.65 -8.05 -39.05 -3.8 -36.8 -1.95 -35.75 -0.6 -33.75 L1.5 -30.3 Q4.15 -26.55 11.3 -27.55 15.85 -28.2 18.05 -25.2" fill="#00a79c" fill-rule="evenodd" stroke="none"/>
      <path d="M15.65 7.35 Q14.8 6.4 14.3 4.35 L13.55 0.95 Q12.3 -3.0 7.5 -2.55 4.25 -2.2 2.65 -2.5 0.15 -2.95 -1.15 -4.85 -2.4 -6.7 -6.0 -8.55 -10.2 -10.75 -12.95 -9.75 -14.3 -9.35 -15.45 -6.15 -16.0 -4.6 -17.7 -8.05 -18.3 -9.3 -16.95 -10.0 L-15.5 -10.45 Q-12.25 -13.6 -7.1 -10.95 -4.55 -9.6 -2.85 -8.1 -3.8 -11.05 -3.75 -13.4 -3.7 -16.8 -1.8 -20.85 1.35 -27.25 9.3 -29.15 17.7 -31.2 23.3 -25.85 33.8 -15.9 26.95 -2.0 24.45 3.1 20.75 6.05 17.15 8.95 15.65 7.35" fill="#78523d" fill-rule="evenodd" stroke="none"/>
      <path d="M17.1 4.7 Q16.85 1.55 15.65 -0.55 13.35 -4.6 7.0 -3.8 1.1 -3.0 -1.6 -6.75 -4.4 -10.55 -2.55 -17.25 -1.0 -22.95 5.7 -26.0 13.1 -29.5 19.7 -25.1 29.75 -18.55 24.95 -4.65 23.25 0.25 20.55 3.45 17.9 6.5 17.1 4.7" fill="#fbad53" fill-rule="evenodd" stroke="none"/>
      <path d="M-3.2 -25.4 Q-3.9 -23.85 -5.55 -23.1 L-7.05 -22.65 Q-7.25 -20.45 -8.3 -18.65 -10.4 -14.95 -14.7 -16.45 -19.35 -18.1 -19.3 -22.65 -19.25 -26.55 -16.45 -29.15 -16.0 -30.0 -17.25 -31.7 L-18.6 -33.25 Q-16.15 -34.1 -14.95 -33.3 -13.4 -32.45 -9.6 -27.35 -7.6 -24.75 -5.2 -24.8 -4.0 -24.8 -3.2 -25.4" fill="#47618c" fill-rule="evenodd" stroke="none"/>
      <path d="M-5.9 -24.8 Q-6.0 -24.0 -8.65 -23.95 -8.7 -22.65 -9.35 -21.55 -10.8 -19.3 -14.15 -20.1 -18.15 -20.95 -17.35 -24.9 -16.7 -28.75 -13.75 -29.15 -13.3 -30.3 -14.6 -33.1 -13.0 -31.9 -9.35 -27.05 -7.85 -25.1 -5.9 -24.8" fill="#231f20" fill-rule="evenodd" stroke="none"/>
      <path d="M-15.45 -25.4 L-15.1 -26.7 -14.15 -27.25 Q-13.6 -27.25 -13.2 -26.7 -12.85 -26.15 -12.85 -25.4 -12.85 -24.6 -13.2 -24.05 -13.6 -23.5 -14.15 -23.5 L-15.1 -24.05 Q-15.45 -24.6 -15.45 -25.4" fill="#ffffff" fill-rule="evenodd" stroke="none"/>
      <path d="M-0.35 -17.05 Q0.05 -18.7 0.75 -19.65 1.55 -20.7 2.25 -20.55 3.0 -20.45 3.3 -19.2 3.6 -17.95 3.25 -16.35 2.95 -14.75 2.2 -13.7 1.45 -12.7 0.7 -12.8 0.0 -12.95 -0.35 -14.2 -0.65 -15.45 -0.35 -17.05" fill="#764b2d" fill-rule="evenodd" stroke="none"/>
      <path d="M0.9 -16.7 Q1.15 -17.8 1.65 -18.55 2.15 -19.2 2.7 -19.1 3.2 -19.0 3.4 -18.15 L3.35 -16.2 2.7 -14.35 Q2.15 -13.7 1.65 -13.8 1.1 -13.9 0.9 -14.8 0.7 -15.6 0.9 -16.7" fill="#231f20" fill-rule="evenodd" stroke="none"/>
      <path d="M3.2 -28.6 Q2.45 -28.6 1.4 -27.85 -0.85 -26.35 -2.65 -22.6 L-0.5 -28.45 Q1.9 -33.3 3.2 -28.6" fill="#00615b" fill-rule="evenodd" stroke="none"/>
      <path d="M1.1 -32.55 Q1.2 -32.8 1.65 -32.9 L2.65 -32.85 3.5 -32.4 3.7 -31.75 3.2 -31.4 2.2 -31.45 Q0.95 -31.8 1.1 -32.55" fill="#ffffff" fill-rule="evenodd" stroke="none"/>
      <path d="M15.4 -18.4 Q13.1 -19.0 13.65 -20.95 14.2 -22.95 16.65 -22.35 19.05 -21.8 21.05 -18.35 23.4 -14.3 21.95 -10.2 21.4 -8.75 21.15 -9.45 L20.5 -12.1 Q19.05 -17.55 15.4 -18.4" fill="#f9ebb9" fill-rule="evenodd" stroke="none"/>
      <path d="M-6.55 8.4 Q-4.0 10.6 -2.65 14.1 L-4.4 13.6 -3.4 16.25 Q-2.8 19.4 -4.75 21.4 L-5.25 19.6 -6.1 20.75 Q-7.35 22.0 -9.6 22.45 -7.75 21.0 -6.75 18.3 -4.8 12.95 -8.85 6.9 L-6.55 8.4" fill="#716559" fill-rule="evenodd" stroke="none"/>
      <path d="M-38.7 30.0 L-39.6 31.3 Q-40.45 32.95 -40.7 34.2 -41.35 38.3 -34.75 37.8 L-34.6 39.05 Q-34.25 40.5 -33.0 41.65 -28.95 45.25 -17.85 44.0 -29.15 49.35 -38.8 43.45 -41.9 41.6 -44.35 38.9 L-46.25 36.5 Q-49.5 31.45 -49.6 26.4 -49.7 21.75 -47.3 17.6 -47.75 22.95 -46.1 26.1 -44.0 30.0 -38.7 30.0" fill="#5d4e3f" fill-rule="evenodd" stroke="none"/>
      <path d="M-38.15 59.45 Q-40.9 57.65 -43.4 54.65 L-45.3 52.0 Q-44.75 45.05 -40.75 43.2 -37.55 41.75 -30.55 43.1 -22.2 44.7 -20.7 50.9 -19.9 53.95 -20.8 56.7 -29.3 65.25 -38.15 59.45" fill="#764b2d" fill-rule="evenodd" stroke="none"/>
      <path d="M-39.2 56.45 Q-41.05 54.95 -42.7 52.9 L-43.95 51.2 Q-43.5 45.45 -39.2 44.25 -36.25 43.4 -30.65 44.65 -23.65 46.15 -22.4 51.15 -21.85 53.65 -22.6 55.85 -23.95 57.1 -24.9 57.65 -24.9 55.75 -25.4 53.55 -26.35 49.15 -29.85 48.35 -26.75 51.3 -27.2 58.85 -33.2 61.25 -39.2 56.45" fill="#fbad53" fill-rule="evenodd" stroke="none"/>
      <path d="M-32.35 7.05 Q-28.75 8.15 -28.05 9.9 -27.0 12.6 -32.55 17.2 -38.4 22.1 -40.2 19.85 -46.25 23.35 -48.2 21.9 -50.0 20.65 -47.55 17.7 -50.35 18.1 -52.2 17.75 -56.0 17.1 -51.4 13.6 -52.5 13.3 -52.75 12.6 -53.15 11.2 -48.5 9.3 -49.6 8.7 -49.35 8.2 -49.1 7.7 -47.5 7.3 -44.15 6.4 -40.4 6.25 -35.85 6.05 -32.35 7.05" fill="#493a2a" fill-rule="evenodd" stroke="none"/>
      <path d="M-49.3 10.15 Q-45.2 7.55 -39.45 7.85 -32.3 8.2 -35.35 15.9 -39.35 18.1 -42.65 19.3 -49.25 21.7 -45.75 16.85 L-49.55 16.75 Q-52.85 16.1 -50.15 13.55 L-51.05 12.7 Q-51.55 11.55 -49.3 10.15" fill="#c49870" fill-rule="evenodd" stroke="none"/>
      <path d="M-33.15 6.95 Q-29.95 7.45 -29.1 9.1 -27.85 11.45 -32.6 15.4 -37.8 19.75 -39.4 18.0 -39.95 17.3 -39.75 16.1 -39.55 14.95 -38.8 14.4 L-43.3 14.95 Q-47.1 14.8 -43.95 11.25 L-46.85 10.05 Q-49.15 8.7 -45.75 7.85 -39.0 6.25 -33.15 6.95" fill="#8d796a" fill-rule="evenodd" stroke="none"/>
    </g>
  </defs>
</svg>
