<?xml version="1.0" encoding="UTF-8" standalone="no"?>
<svg xmlns:ffdec="https://www.free-decompiler.com/flash" xmlns:xlink="http://www.w3.org/1999/xlink" ffdec:objectType="frame" height="104.65px" width="97.5px" xmlns="http://www.w3.org/2000/svg">
  <g transform="matrix(1.0, 0.0, 0.0, 1.0, 67.3, 42.1)">
    <use ffdec:characterId="458" height="103.9" transform="matrix(1.0, 0.0, 0.0, 1.0, -67.0, -41.85)" width="96.6" xlink:href="#shape0"/>
  </g>
  <defs>
    <g id="shape0" transform="matrix(1.0, 0.0, 0.0, 1.0, 67.0, 41.85)">
      <path d="M6.9 19.4 Q11.15 24.2 10.25 26.2 9.45 28.1 6.35 26.45 L7.3 30.65 Q7.4 34.15 3.4 30.7 3.35 31.8 2.7 32.1 1.55 32.75 -1.05 28.9 -1.75 31.05 -3.1 28.35 -4.5 25.55 -5.4 22.25 -6.35 18.1 -6.1 14.75 -5.75 11.25 -4.4 10.4 -2.15 8.9 3.05 13.0 8.6 17.4 6.9 19.4" fill="#493a2a" fill-rule="evenodd" stroke="none"/>
      <path d="M2.4 15.8 L6.9 21.75 Q10.3 27.25 5.25 25.05 L5.85 28.5 Q5.9 31.55 3.1 29.6 3.0 30.25 2.5 30.6 1.6 31.2 -0.15 29.5 -3.25 26.3 -4.1 21.05 -5.1 14.5 2.4 15.8" fill="#8d796a" fill-rule="evenodd" stroke="none"/>
      <path d="M1.75 19.15 L3.1 23.1 Q3.65 26.65 -0.2 24.4 L-0.7 27.25 Q-1.5 29.6 -2.9 26.7 -5.7 20.95 -6.05 15.5 -6.25 12.5 -4.9 11.45 -3.05 9.85 1.4 13.4 6.35 17.35 5.05 19.05 4.6 19.7 3.5 19.7 2.4 19.75 1.75 19.15" fill="#5d4e3f" fill-rule="evenodd" stroke="none"/>
      <path d="M1.25 49.7 Q-6.45 57.45 -14.5 52.2 -17.0 50.6 -19.3 47.85 L-21.0 45.4 Q-20.5 39.1 -16.85 37.4 -14.0 36.1 -7.6 37.35 -0.05 38.85 1.35 44.4 2.1 47.2 1.25 49.7" fill="#764b2d" fill-rule="evenodd" stroke="none"/>
      <path d="M-19.75 44.7 Q-19.35 39.45 -15.45 38.4 L-7.7 38.75 Q-1.35 40.1 -0.2 44.65 0.4 46.95 -0.35 48.9 L-2.45 50.55 Q-2.45 48.8 -2.9 46.8 -3.8 42.8 -6.95 42.05 -4.2 44.8 -4.55 51.6 -10.0 53.85 -15.4 49.5 L-19.75 44.7" fill="#fbad53" fill-rule="evenodd" stroke="none"/>
      <path d="M-49.4 25.3 Q-46.8 28.15 -48.1 31.95 -49.9 37.3 -59.65 40.75 -66.9 43.4 -66.7 38.0 -66.65 36.35 -65.8 34.05 L-65.05 32.15 Q-70.35 25.8 -61.2 24.05 L-54.1 23.85 Q-50.4 24.25 -49.4 25.3" fill="#493a2a" fill-rule="evenodd" stroke="none"/>
      <path d="M-49.15 25.9 Q-47.0 28.25 -48.05 31.05 -49.55 35.15 -57.7 38.05 -63.8 40.25 -63.6 36.15 L-62.2 31.6 Q-66.6 26.3 -59.0 24.85 L-53.05 24.65 Q-50.0 25.05 -49.15 25.9" fill="#716559" fill-rule="evenodd" stroke="none"/>
      <path d="M-58.0 24.7 Q-60.9 26.45 -61.7 28.75 L-60.45 30.2 Q-58.6 31.75 -55.7 31.8 -57.0 31.95 -58.45 32.45 -61.35 33.6 -62.25 35.6 L-60.7 36.7 Q-58.55 37.75 -55.45 37.2 L-57.7 38.05 Q-63.8 40.25 -63.6 36.15 L-62.2 31.6 Q-64.7 28.6 -63.05 26.75 -61.7 25.2 -58.0 24.7" fill="#5d4e3f" fill-rule="evenodd" stroke="none"/>
      <path d="M5.55 -28.3 Q9.5 -21.45 8.8 -15.5 7.95 -8.55 0.4 -4.8 L-4.55 -4.35 Q-5.45 -4.0 -2.7 -1.65 6.1 5.85 7.35 13.9 7.8 17.1 6.75 18.9 5.75 20.65 3.8 20.15 5.3 31.05 -1.85 36.8 -4.15 38.65 -7.0 39.65 L-9.4 40.4 Q-16.0 47.65 -24.2 49.35 -31.3 50.85 -38.3 47.9 -44.75 45.15 -48.9 39.6 -53.05 34.05 -53.05 28.2 -53.05 16.85 -43.6 9.55 -36.95 4.45 -29.25 3.15 -28.15 2.95 -28.75 2.35 L-31.05 0.35 Q-35.6 -3.65 -36.6 -8.95 -38.95 -6.65 -40.1 -11.0 -41.3 -15.35 -40.05 -21.8 -38.65 -29.2 -34.6 -34.25 -29.75 -40.45 -22.0 -41.55 -15.85 -42.35 -11.0 -40.95 -5.45 -39.35 -4.35 -39.35 -0.95 -39.35 1.35 -34.35 3.9 -28.85 5.55 -28.3" fill="#493a2a" fill-rule="evenodd" stroke="none"/>
      <path d="M1.25 -28.0 Q6.75 -18.75 5.6 -13.5 4.7 -9.75 0.0 -7.65 -4.1 -6.45 -5.75 -5.7 -8.8 -4.45 -6.1 -2.65 1.3 2.5 3.85 11.95 4.8 15.55 4.3 17.4 3.75 19.3 2.0 17.8 3.15 27.55 -2.45 33.7 -4.2 35.55 -6.4 36.9 L-8.3 37.85 Q-23.3 50.75 -36.25 45.0 -40.3 43.25 -43.7 39.85 L-46.25 36.75 Q-53.35 25.6 -46.45 15.25 -40.05 5.6 -27.7 4.35 -25.45 4.15 -25.85 3.25 -26.0 2.9 -28.4 0.45 -34.25 -5.5 -34.8 -12.6 -37.25 -10.2 -38.1 -13.6 -38.9 -16.95 -37.45 -22.5 -35.85 -28.75 -32.3 -33.3 -27.9 -38.8 -21.75 -40.0 -12.7 -41.8 -5.85 -36.45 -2.1 -33.55 1.25 -28.0" fill="#716559" fill-rule="evenodd" stroke="none"/>
      <path d="M-11.85 -19.3 Q-4.65 -15.05 -3.8 -12.8 -3.25 -11.3 -6.0 -9.75 -9.45 -7.8 -10.1 -6.5 -11.45 -3.9 -7.9 0.55 -4.7 4.6 -1.05 12.15 3.0 20.5 -1.0 17.85 -0.3 22.75 -2.0 28.55 -4.05 35.3 -8.3 37.85 -12.8 40.6 -17.7 40.2 -22.2 39.8 -25.2 36.95 -28.3 34.1 -28.25 30.2 -28.25 25.9 -24.25 21.9 -26.9 21.5 -25.8 20.5 L-21.85 17.35 Q-15.05 10.6 -21.95 -1.0 -30.05 -14.55 -24.6 -19.55 -22.45 -21.55 -18.7 -21.4 -15.2 -21.25 -11.85 -19.3" fill="#8d796a" fill-rule="evenodd" stroke="none"/>
      <path d="M-10.45 -21.2 Q-3.7 -17.45 -2.95 -14.8 -2.35 -13.0 -4.85 -10.8 -7.85 -8.2 -8.2 -7.15 -8.9 -4.8 -4.8 -1.65 1.05 2.8 3.65 11.75 4.7 15.3 4.35 17.15 3.85 19.1 2.0 17.85 3.5 28.0 -3.5 34.75 -7.4 38.45 -12.5 38.95 -17.15 39.4 -20.75 37.15 -24.45 34.8 -24.8 30.9 -25.15 26.5 -21.0 21.8 -15.8 16.0 -16.4 10.35 -16.8 5.7 -21.95 -2.45 -30.7 -16.4 -23.65 -21.15 -21.05 -22.9 -16.95 -22.8 -13.15 -22.7 -10.45 -21.2" fill="#bba18b" fill-rule="evenodd" stroke="none"/>
      <path d="M3.1 -24.8 Q-0.2 -23.85 -2.05 -27.25 -3.9 -30.65 -1.2 -32.45 0.85 -33.85 2.7 -33.2 4.45 -32.6 5.3 -30.8 6.2 -29.0 5.7 -27.3 5.15 -25.45 3.1 -24.8" fill="#231f20" fill-rule="evenodd" stroke="none"/>
      <path d="M15.1 -23.4 Q17.35 -20.7 17.1 -16.25 16.85 -11.85 14.2 -8.25 11.3 -4.3 6.65 -3.3 3.2 -2.55 -1.35 -3.1 -4.6 -3.6 -8.85 -1.4 -17.9 3.15 -24.65 -3.25 -27.35 -5.9 -28.6 -9.55 -29.85 -13.15 -29.1 -16.15 -28.15 -20.1 -25.6 -22.4 -23.4 -24.25 -23.2 -27.9 -22.9 -35.15 -16.3 -37.75 -10.7 -40.0 -6.7 -37.85 -4.8 -36.8 -3.55 -34.35 L-1.6 -29.95 Q0.95 -24.8 8.0 -25.8 12.6 -26.45 15.1 -23.4" fill="#00615b" fill-rule="evenodd" stroke="none"/>
      <path d="M18.05 -24.95 Q20.0 -22.25 19.35 -17.8 18.6 -13.4 15.7 -9.75 12.5 -5.75 7.85 -4.65 3.5 -3.65 -1.3 -4.8 -5.0 -5.6 -9.05 -3.5 -17.3 0.85 -22.55 -4.5 -27.3 -9.4 -25.65 -16.3 -24.7 -20.2 -22.3 -22.7 -20.35 -24.75 -20.15 -28.4 -19.8 -35.6 -13.3 -37.4 -8.1 -38.8 -3.8 -36.55 -1.95 -35.5 -0.6 -33.5 L1.5 -30.05 Q4.1 -26.3 11.3 -27.3 15.85 -27.95 18.05 -24.95" fill="#00a79c" fill-rule="evenodd" stroke="none"/>
      <path d="M15.65 7.6 Q14.75 6.65 14.25 4.6 L13.45 1.2 Q12.2 -2.75 7.45 -2.3 4.2 -1.95 2.6 -2.25 0.05 -2.7 -1.2 -4.6 -2.45 -6.45 -6.0 -8.3 -10.25 -10.5 -13.0 -9.5 -14.3 -9.1 -15.5 -5.9 -16.1 -4.35 -17.7 -7.8 -18.3 -9.05 -16.95 -9.75 L-15.5 -10.2 Q-12.25 -13.4 -7.1 -10.7 -4.55 -9.35 -2.9 -7.85 -3.8 -10.85 -3.8 -13.15 -3.75 -16.6 -1.8 -20.6 1.3 -27.0 9.3 -28.9 17.7 -30.95 23.3 -25.6 33.75 -15.65 26.9 -1.75 24.35 3.35 20.75 6.3 17.15 9.2 15.65 7.6" fill="#78523d" fill-rule="evenodd" stroke="none"/>
      <path d="M17.05 4.95 Q16.85 1.8 15.65 -0.3 13.35 -4.35 7.0 -3.55 1.05 -2.75 -1.65 -6.5 -4.4 -10.3 -2.55 -17.0 -1.05 -22.65 5.65 -25.75 13.1 -29.25 19.7 -24.85 29.7 -18.3 24.95 -4.4 23.25 0.5 20.5 3.7 17.85 6.75 17.05 4.95" fill="#fbad53" fill-rule="evenodd" stroke="none"/>
      <path d="M-3.2 -25.15 Q-3.9 -23.6 -5.6 -22.85 L-7.05 -22.4 Q-7.25 -20.2 -8.3 -18.4 -10.4 -14.7 -14.75 -16.2 -19.35 -17.85 -19.3 -22.4 -19.3 -26.4 -16.5 -28.9 -16.1 -29.75 -17.3 -31.45 L-18.6 -33.0 Q-16.2 -33.85 -14.95 -33.05 -13.45 -32.2 -9.6 -27.1 -7.65 -24.5 -5.2 -24.55 -4.05 -24.55 -3.2 -25.15" fill="#47618c" fill-rule="evenodd" stroke="none"/>
      <path d="M-5.9 -24.55 Q-6.0 -23.75 -8.65 -23.7 -8.7 -22.4 -9.4 -21.3 -10.85 -19.05 -14.15 -19.85 -18.15 -20.7 -17.35 -24.65 -16.7 -28.5 -13.75 -28.9 -13.3 -30.05 -14.6 -32.85 -13.15 -31.8 -9.4 -26.8 -7.85 -24.85 -5.9 -24.55" fill="#231f20" fill-rule="evenodd" stroke="none"/>
      <path d="M-15.45 -25.15 L-15.1 -26.45 -14.15 -27.0 Q-13.65 -27.0 -13.25 -26.45 -12.9 -25.9 -12.9 -25.15 -12.9 -24.35 -13.25 -23.8 -13.65 -23.25 -14.15 -23.25 L-15.1 -23.8 Q-15.45 -24.35 -15.45 -25.15" fill="#ffffff" fill-rule="evenodd" stroke="none"/>
      <path d="M-0.35 -16.8 Q-0.05 -18.45 0.7 -19.4 1.5 -20.45 2.2 -20.3 2.95 -20.2 3.25 -18.95 3.55 -17.7 3.25 -16.1 2.95 -14.5 2.2 -13.45 1.4 -12.45 0.7 -12.55 -0.05 -12.7 -0.35 -13.95 -0.65 -15.2 -0.35 -16.8" fill="#764b2d" fill-rule="evenodd" stroke="none"/>
      <path d="M0.9 -16.45 Q1.1 -17.55 1.65 -18.3 2.15 -18.95 2.65 -18.85 3.2 -18.75 3.4 -17.9 L3.35 -15.95 Q3.1 -14.85 2.6 -14.1 2.1 -13.45 1.6 -13.55 1.05 -13.65 0.85 -14.55 0.7 -15.35 0.9 -16.45" fill="#231f20" fill-rule="evenodd" stroke="none"/>
      <path d="M3.2 -28.35 Q2.45 -28.35 1.35 -27.6 -0.85 -26.1 -2.7 -22.35 L-0.5 -28.2 Q1.9 -33.05 3.2 -28.35" fill="#00615b" fill-rule="evenodd" stroke="none"/>
      <path d="M1.1 -32.3 Q1.2 -32.55 1.65 -32.65 L2.6 -32.6 3.5 -32.15 3.7 -31.5 3.2 -31.15 2.2 -31.2 Q0.95 -31.55 1.1 -32.3" fill="#ffffff" fill-rule="evenodd" stroke="none"/>
      <path d="M16.65 -22.1 Q19.05 -21.55 21.05 -18.1 23.4 -14.05 21.95 -9.95 21.4 -8.5 21.15 -9.2 L20.45 -11.85 Q18.95 -17.3 15.35 -18.15 13.05 -18.75 13.65 -20.7 14.2 -22.7 16.65 -22.1" fill="#f9ebb9" fill-rule="evenodd" stroke="none"/>
      <path d="M-6.6 8.65 Q-4.1 10.85 -2.7 14.35 L-4.4 13.85 -3.4 16.5 Q-2.8 19.65 -4.75 21.65 L-5.25 19.85 -6.1 21.0 Q-7.35 22.25 -9.6 22.7 -7.8 21.25 -6.85 18.55 -4.85 13.2 -8.85 7.15 L-6.6 8.65" fill="#716559" fill-rule="evenodd" stroke="none"/>
      <path d="M-38.75 30.25 L-39.65 31.55 Q-40.55 33.2 -40.75 34.45 -41.35 38.55 -34.8 38.05 L-34.65 39.3 Q-34.3 40.75 -33.05 41.9 -29.0 45.5 -17.9 44.25 -29.15 49.6 -38.85 43.7 -41.9 41.85 -44.35 39.15 L-46.3 36.75 Q-49.5 31.7 -49.65 26.65 -49.8 21.95 -47.3 17.85 -48.3 30.25 -38.75 30.25" fill="#5d4e3f" fill-rule="evenodd" stroke="none"/>
      <path d="M-38.2 59.7 Q-40.95 57.9 -43.4 54.9 L-45.3 52.25 Q-44.75 45.3 -40.75 43.45 -37.6 42.0 -30.55 43.35 -22.25 44.95 -20.7 51.15 -19.9 54.2 -20.8 56.95 -29.3 65.5 -38.2 59.7" fill="#764b2d" fill-rule="evenodd" stroke="none"/>
      <path d="M-39.2 56.7 Q-41.05 55.25 -42.7 53.15 L-43.95 51.45 Q-43.5 45.7 -39.2 44.5 -36.25 43.65 -30.65 44.9 -23.7 46.4 -22.45 51.4 -21.85 53.9 -22.6 56.1 L-24.95 57.9 Q-24.95 56.0 -25.4 53.8 -26.4 49.4 -29.9 48.6 -26.75 51.55 -27.2 59.1 -33.2 61.5 -39.2 56.7" fill="#fbad53" fill-rule="evenodd" stroke="none"/>
      <path d="M-42.1 29.05 L-43.8 29.25 Q-45.1 28.5 -42.95 23.95 -45.35 24.5 -43.55 21.7 -41.65 18.8 -39.1 16.15 -35.85 12.95 -32.55 11.3 -29.1 9.7 -27.5 10.5 -24.9 11.75 -25.85 18.85 -26.9 26.45 -29.7 26.0 -31.7 32.65 -34.15 32.95 -36.35 33.25 -36.5 29.45 -38.3 31.6 -39.9 32.6 -43.15 34.7 -42.1 29.05" fill="#493a2a" fill-rule="evenodd" stroke="none"/>
      <path d="M-37.25 16.65 Q-31.8 12.1 -28.8 19.85 -30.25 24.15 -31.85 27.3 -35.1 33.55 -35.8 27.65 -37.25 29.25 -38.65 30.05 -41.5 31.85 -41.25 28.15 -41.95 28.4 -42.5 28.15 -43.65 27.65 -42.95 25.1 -41.65 20.35 -37.25 16.65" fill="#c49870" fill-rule="evenodd" stroke="none"/>
      <path d="M-33.2 11.8 Q-30.6 9.9 -28.8 10.6 -26.25 11.5 -27.1 17.6 -28.0 24.4 -30.35 24.1 -31.2 24.0 -31.85 23.0 -32.45 22.0 -32.35 21.1 -33.8 23.25 -35.25 24.5 -38.2 27.0 -38.25 22.25 L-41.2 23.3 Q-43.8 23.9 -41.9 21.0 -38.0 15.1 -33.2 11.8" fill="#8d796a" fill-rule="evenodd" stroke="none"/>
    </g>
  </defs>
</svg>
