<?xml version="1.0" encoding="UTF-8" standalone="no"?>
<svg xmlns:ffdec="https://www.free-decompiler.com/flash" xmlns:xlink="http://www.w3.org/1999/xlink" ffdec:objectType="frame" height="104.65px" width="97.5px" xmlns="http://www.w3.org/2000/svg">
  <g transform="matrix(1.0, 0.0, 0.0, 1.0, 67.3, 42.1)">
    <use ffdec:characterId="459" height="103.9" transform="matrix(1.0, 0.0, 0.0, 1.0, -67.3, -41.35)" width="96.65" xlink:href="#shape0"/>
  </g>
  <defs>
    <g id="shape0" transform="matrix(1.0, 0.0, 0.0, 1.0, 67.3, 41.35)">
      <path d="M8.2 14.2 Q12.1 20.5 10.8 23.75 10.3 25.0 9.3 25.0 8.2 24.95 7.3 23.55 7.2 25.7 6.6 27.05 5.4 29.7 3.0 25.8 L1.45 26.8 Q-0.3 27.25 -1.5 24.75 -2.15 23.5 -2.5 21.7 L-2.7 20.1 Q-5.15 18.1 -6.6 15.65 -11.05 7.65 1.6 8.65 6.1 9.0 9.1 11.6 10.25 12.65 10.1 13.45 9.95 14.2 8.2 14.2" fill="#493a2a" fill-rule="evenodd" stroke="none"/>
      <path d="M6.85 13.4 L9.35 19.55 Q10.85 25.0 6.05 21.4 L5.95 24.45 Q5.35 27.0 2.9 24.25 2.55 24.95 1.85 25.25 0.6 25.85 -0.75 23.55 -3.05 19.7 -2.1 15.45 -0.85 10.1 6.85 13.4" fill="#8d796a" fill-rule="evenodd" stroke="none"/>
      <path d="M-5.2 15.6 Q-7.0 13.05 -6.25 11.2 -5.15 8.7 0.9 9.85 7.6 11.1 7.55 13.6 7.5 14.45 6.55 15.1 5.65 15.7 4.7 15.5 L5.6 18.95 Q5.7 21.9 1.95 19.55 1.85 20.65 1.3 21.25 0.2 22.4 -1.95 19.8 L-5.2 15.6" fill="#5d4e3f" fill-rule="evenodd" stroke="none"/>
      <path d="M1.0 50.2 Q-6.75 57.95 -14.8 52.7 -17.3 51.1 -19.6 48.35 L-21.3 45.9 Q-20.8 39.6 -17.15 37.9 -14.3 36.6 -7.9 37.85 -0.3 39.35 1.1 44.9 1.8 47.7 1.0 50.2" fill="#764b2d" fill-rule="evenodd" stroke="none"/>
      <path d="M-4.85 52.1 Q-10.3 54.35 -15.7 50.0 L-20.05 45.2 Q-19.65 39.95 -15.75 38.9 L-8.0 39.25 Q-1.6 40.6 -0.5 45.15 0.1 47.45 -0.65 49.4 L-2.75 51.05 Q-2.75 49.3 -3.2 47.3 -4.1 43.3 -7.25 42.55 -4.5 45.3 -4.85 52.1" fill="#fbad53" fill-rule="evenodd" stroke="none"/>
      <path d="M-49.7 25.8 Q-47.1 28.65 -48.4 32.45 -50.15 37.8 -59.95 41.25 -67.2 43.9 -67.0 38.5 -66.95 36.85 -66.1 34.55 L-65.35 32.65 Q-70.65 26.3 -61.5 24.55 L-54.4 24.35 Q-50.7 24.75 -49.7 25.8" fill="#493a2a" fill-rule="evenodd" stroke="none"/>
      <path d="M-49.45 26.4 Q-47.3 28.75 -48.35 31.55 -49.85 35.65 -58.0 38.55 -64.1 40.75 -63.9 36.65 L-62.5 32.1 Q-66.9 26.8 -59.3 25.35 L-53.35 25.15 Q-50.25 25.55 -49.45 26.4" fill="#716559" fill-rule="evenodd" stroke="none"/>
      <path d="M-58.25 25.2 Q-61.2 26.95 -62.0 29.25 L-60.75 30.7 Q-58.9 32.25 -56.0 32.3 -57.3 32.45 -58.75 32.95 -61.65 34.1 -62.55 36.1 L-60.95 37.2 Q-58.85 38.25 -55.75 37.7 L-58.0 38.55 Q-64.1 40.75 -63.9 36.65 L-62.5 32.1 Q-64.95 29.1 -63.35 27.25 -62.0 25.7 -58.25 25.2" fill="#5d4e3f" fill-rule="evenodd" stroke="none"/>
      <path d="M-2.95 -1.15 Q5.8 6.35 7.05 14.4 7.5 17.6 6.5 19.4 5.45 21.15 3.5 20.65 5.05 31.55 -2.15 37.3 -5.75 40.25 -9.65 40.9 -16.3 48.15 -24.45 49.85 -31.6 51.35 -38.6 48.4 -45.05 45.65 -49.2 40.1 -53.35 34.55 -53.35 28.7 -53.35 17.35 -43.9 10.05 -37.25 4.95 -29.55 3.65 -28.45 3.45 -29.05 2.85 L-31.3 0.85 Q-35.9 -3.15 -36.9 -8.45 -39.25 -6.15 -40.4 -10.5 -41.6 -14.85 -40.35 -21.3 -38.95 -28.7 -34.9 -33.75 -30.0 -39.95 -22.3 -41.05 -16.15 -41.85 -11.3 -40.45 -5.7 -38.85 -4.65 -38.85 -1.25 -38.85 1.1 -33.85 3.6 -28.35 5.25 -27.8 9.25 -20.95 8.5 -15.0 7.65 -8.05 0.1 -4.3 L-4.85 -3.85 Q-5.7 -3.5 -2.95 -1.15" fill="#493a2a" fill-rule="evenodd" stroke="none"/>
      <path d="M1.0 -27.5 Q6.5 -18.25 5.3 -13.0 4.4 -9.25 -0.25 -7.15 L-6.05 -5.2 Q-9.1 -3.95 -6.4 -2.15 1.05 3.0 3.55 12.45 4.5 16.05 4.0 17.9 3.45 19.8 1.7 18.3 2.85 28.05 -2.75 34.2 -5.55 37.25 -8.6 38.35 -23.6 51.25 -36.55 45.5 -40.6 43.75 -44.0 40.35 L-46.55 37.25 Q-53.65 26.1 -46.75 15.75 -40.35 6.1 -28.0 4.85 -25.75 4.65 -26.15 3.75 L-28.65 0.95 Q-34.55 -5.0 -35.1 -12.1 -37.55 -9.7 -38.4 -13.1 -39.2 -16.45 -37.75 -22.0 -36.15 -28.25 -32.55 -32.8 -28.2 -38.3 -22.05 -39.5 -13.0 -41.3 -6.15 -35.95 -2.4 -33.05 1.0 -27.5" fill="#716559" fill-rule="evenodd" stroke="none"/>
      <path d="M-12.15 -18.8 Q-4.95 -14.55 -4.1 -12.3 -3.55 -10.8 -6.3 -9.25 -9.7 -7.3 -10.4 -6.0 -11.75 -3.4 -8.2 1.05 -5.0 5.1 -1.35 12.65 2.7 21.0 -1.3 18.35 -0.6 23.25 -2.3 29.05 -4.3 35.8 -8.6 38.35 -13.1 41.1 -18.0 40.7 -22.5 40.3 -25.5 37.45 -28.55 34.6 -28.5 30.7 -28.5 26.4 -24.5 22.4 -27.15 22.0 -26.1 21.0 -23.7 19.4 -22.15 17.85 -15.35 11.1 -22.25 -0.5 -30.35 -14.05 -24.9 -19.05 -22.75 -21.05 -19.0 -20.9 -15.5 -20.75 -12.15 -18.8" fill="#8d796a" fill-rule="evenodd" stroke="none"/>
      <path d="M-10.75 -20.7 Q-4.0 -16.95 -3.25 -14.3 -2.65 -12.5 -5.15 -10.3 -8.15 -7.7 -8.45 -6.65 -9.2 -4.3 -5.1 -1.15 0.75 3.3 3.35 12.25 4.4 15.8 4.05 17.65 3.55 19.6 1.7 18.35 3.2 28.5 -3.8 35.25 -7.7 38.95 -12.8 39.45 -17.45 39.9 -21.05 37.65 -24.75 35.3 -25.1 31.4 -25.45 27.0 -21.3 22.3 -16.1 16.5 -16.7 10.85 -17.1 6.2 -22.25 -1.95 -31.0 -15.9 -23.95 -20.65 -21.35 -22.4 -17.25 -22.3 -13.45 -22.2 -10.75 -20.7" fill="#bba18b" fill-rule="evenodd" stroke="none"/>
      <path d="M2.8 -24.3 Q-0.5 -23.35 -2.35 -26.75 -4.2 -30.15 -1.5 -31.95 0.55 -33.35 2.45 -32.7 4.15 -32.1 5.05 -30.3 5.9 -28.5 5.4 -26.8 4.85 -24.95 2.8 -24.3" fill="#231f20" fill-rule="evenodd" stroke="none"/>
      <path d="M7.75 -25.3 Q12.3 -25.95 14.8 -22.9 17.05 -20.2 16.8 -15.75 16.55 -11.35 13.9 -7.75 11.0 -3.8 6.4 -2.8 2.9 -2.05 -1.6 -2.6 -4.9 -3.1 -9.15 -0.9 -18.2 3.65 -24.95 -2.75 -27.65 -5.4 -28.9 -9.05 -30.15 -12.65 -29.4 -15.65 -28.45 -19.6 -25.85 -21.9 -23.7 -23.75 -23.5 -27.4 -23.15 -34.65 -16.55 -37.25 -10.95 -39.5 -6.95 -37.35 -5.1 -36.3 -3.85 -33.85 L-1.9 -29.45 Q0.65 -24.3 7.75 -25.3" fill="#00615b" fill-rule="evenodd" stroke="none"/>
      <path d="M17.75 -24.45 Q19.7 -21.75 19.05 -17.3 18.3 -12.9 15.4 -9.25 12.2 -5.25 7.55 -4.15 3.2 -3.15 -1.55 -4.3 -5.3 -5.1 -9.35 -3.0 -17.6 1.35 -22.85 -4.0 -27.6 -8.9 -25.9 -15.8 -25.0 -19.7 -22.6 -22.2 -20.6 -24.25 -20.4 -27.9 -20.1 -35.1 -13.6 -36.9 -8.35 -38.3 -4.1 -36.05 -2.25 -35.0 -0.9 -33.0 L1.2 -29.55 Q3.85 -25.8 11.0 -26.8 15.55 -27.45 17.75 -24.45" fill="#00a79c" fill-rule="evenodd" stroke="none"/>
      <path d="M23.0 -25.1 Q33.5 -15.15 26.65 -1.25 24.1 3.85 20.45 6.8 16.85 9.7 15.35 8.1 14.5 7.15 13.95 5.1 L13.2 1.7 Q11.95 -2.25 7.15 -1.8 3.9 -1.45 2.35 -1.75 -0.2 -2.2 -1.5 -4.1 -2.75 -5.95 -6.3 -7.8 -10.55 -10.0 -13.3 -9.0 -14.6 -8.6 -15.8 -5.4 -16.35 -3.85 -18.0 -7.3 -18.6 -8.55 -17.25 -9.25 L-15.8 -9.7 Q-12.5 -12.9 -7.4 -10.2 -4.85 -8.85 -3.2 -7.35 -4.1 -10.35 -4.1 -12.65 -4.05 -16.1 -2.1 -20.1 1.05 -26.5 9.0 -28.4 17.4 -30.45 23.0 -25.1" fill="#78523d" fill-rule="evenodd" stroke="none"/>
      <path d="M19.4 -24.35 Q29.45 -17.8 24.65 -3.9 22.95 1.0 20.2 4.2 17.55 7.25 16.75 5.45 16.55 2.3 15.35 0.2 13.1 -3.85 6.7 -3.05 0.75 -2.25 -1.95 -6.0 -4.7 -9.8 -2.85 -16.5 -1.35 -22.15 5.35 -25.25 12.8 -28.75 19.4 -24.35" fill="#fbad53" fill-rule="evenodd" stroke="none"/>
      <path d="M-18.9 -32.5 Q-16.45 -33.35 -15.2 -32.55 -13.7 -31.7 -9.9 -26.6 -7.95 -24.0 -5.5 -24.05 -4.3 -24.05 -3.5 -24.65 -4.2 -23.1 -5.9 -22.35 L-7.35 -21.9 Q-7.55 -19.7 -8.6 -17.9 -10.7 -14.2 -15.0 -15.7 -19.65 -17.35 -19.6 -21.9 -19.6 -25.9 -16.8 -28.4 -16.35 -29.25 -17.6 -30.95 L-18.9 -32.5" fill="#47618c" fill-rule="evenodd" stroke="none"/>
      <path d="M-6.2 -24.05 Q-6.3 -23.25 -8.95 -23.2 -9.0 -21.9 -9.65 -20.8 -11.1 -18.55 -14.45 -19.35 -18.45 -20.2 -17.65 -24.15 -17.0 -28.0 -14.05 -28.4 -13.6 -29.55 -14.9 -32.35 -13.45 -31.3 -9.65 -26.3 -8.15 -24.35 -6.2 -24.05" fill="#231f20" fill-rule="evenodd" stroke="none"/>
      <path d="M-15.75 -24.65 Q-15.75 -25.4 -15.4 -25.95 -14.95 -26.5 -14.45 -26.5 -13.95 -26.5 -13.55 -25.95 -13.2 -25.4 -13.2 -24.65 -13.2 -23.85 -13.55 -23.3 -13.95 -22.75 -14.45 -22.75 -14.95 -22.75 -15.4 -23.3 -15.75 -23.85 -15.75 -24.65" fill="#ffffff" fill-rule="evenodd" stroke="none"/>
      <path d="M-0.65 -16.3 Q-0.3 -17.95 0.4 -18.9 1.2 -19.95 1.9 -19.8 2.65 -19.7 2.95 -18.45 3.25 -17.2 2.95 -15.6 2.65 -14.0 1.9 -12.95 1.15 -11.95 0.4 -12.05 -0.3 -12.2 -0.65 -13.45 -0.95 -14.7 -0.65 -16.3" fill="#764b2d" fill-rule="evenodd" stroke="none"/>
      <path d="M0.6 -15.95 Q0.8 -17.05 1.35 -17.8 1.85 -18.45 2.4 -18.35 2.9 -18.25 3.1 -17.4 L3.05 -15.45 Q2.8 -14.35 2.35 -13.6 1.8 -12.95 1.3 -13.05 0.75 -13.15 0.55 -14.05 0.4 -14.85 0.6 -15.95" fill="#231f20" fill-rule="evenodd" stroke="none"/>
      <path d="M2.9 -27.85 Q2.15 -27.85 1.1 -27.1 -1.15 -25.6 -2.95 -21.85 L-0.8 -27.7 Q1.6 -32.55 2.9 -27.85" fill="#00615b" fill-rule="evenodd" stroke="none"/>
      <path d="M0.8 -31.8 L1.35 -32.15 2.35 -32.1 3.2 -31.65 Q3.5 -31.3 3.4 -31.0 3.35 -30.75 2.9 -30.65 L1.9 -30.7 Q0.65 -31.05 0.8 -31.8" fill="#ffffff" fill-rule="evenodd" stroke="none"/>
      <path d="M20.15 -11.35 Q18.7 -16.8 15.05 -17.65 12.75 -18.25 13.35 -20.2 13.9 -22.2 16.35 -21.6 18.75 -21.05 20.75 -17.6 23.1 -13.55 21.65 -9.45 21.1 -8.0 20.85 -8.7 L20.15 -11.35" fill="#f9ebb9" fill-rule="evenodd" stroke="none"/>
      <path d="M-6.9 9.15 Q-4.35 11.35 -2.95 14.85 L-4.7 14.35 -3.7 17.0 Q-3.05 20.15 -5.05 22.15 L-5.55 20.35 Q-5.7 20.85 -6.4 21.5 -7.65 22.75 -9.9 23.2 -8.1 21.75 -7.1 19.05 -5.15 13.7 -9.15 7.65 L-6.9 9.15" fill="#716559" fill-rule="evenodd" stroke="none"/>
      <path d="M-39.95 32.05 Q-40.8 33.7 -41.05 34.95 -41.65 39.05 -35.1 38.55 L-34.95 39.8 Q-34.6 41.25 -33.35 42.4 -29.3 46.0 -18.2 44.75 -29.45 50.1 -39.15 44.2 -42.15 42.35 -44.65 39.65 L-46.6 37.25 Q-49.8 32.2 -49.95 27.15 -50.05 22.45 -47.55 18.35 -48.6 30.75 -39.05 30.75 L-39.95 32.05" fill="#5d4e3f" fill-rule="evenodd" stroke="none"/>
      <path d="M-38.5 60.2 Q-41.25 58.4 -43.7 55.4 L-45.6 52.75 Q-45.05 45.8 -41.05 43.95 -37.9 42.5 -30.85 43.85 -22.55 45.45 -21.0 51.65 -20.2 54.7 -21.1 57.45 -29.6 66.0 -38.5 60.2" fill="#764b2d" fill-rule="evenodd" stroke="none"/>
      <path d="M-27.5 59.6 Q-33.5 62.0 -39.45 57.2 L-43.0 53.65 -44.25 51.95 Q-43.8 46.2 -39.45 45.0 L-30.95 45.4 Q-24.0 46.9 -22.75 51.9 -22.15 54.4 -22.9 56.6 L-25.25 58.4 Q-25.25 56.5 -25.7 54.3 -26.7 49.9 -30.2 49.1 -27.05 52.05 -27.5 59.6" fill="#fbad53" fill-rule="evenodd" stroke="none"/>
      <path d="M-33.95 16.5 Q-38.45 8.5 -25.8 9.5 -21.3 9.85 -18.35 12.45 -17.15 13.5 -17.25 14.25 -17.4 15.05 -19.15 15.05 -15.3 21.3 -16.55 24.6 -17.05 25.85 -18.1 25.85 -19.15 25.8 -20.1 24.4 L-20.85 27.85 Q-22.05 30.5 -24.35 26.6 L-25.9 27.6 Q-27.7 28.05 -28.95 25.6 -29.55 24.35 -29.85 22.5 L-30.1 20.9 Q-32.65 18.85 -33.95 16.5" fill="#493a2a" fill-rule="evenodd" stroke="none"/>
      <path d="M-29.45 16.3 Q-28.25 10.95 -20.55 14.2 L-18.1 20.4 Q-16.5 25.85 -21.3 22.2 L-21.4 25.25 Q-22.05 27.8 -24.5 25.05 L-25.5 26.1 Q-26.8 26.65 -28.15 24.4 -30.45 20.5 -29.45 16.3" fill="#c49870" fill-rule="evenodd" stroke="none"/>
      <path d="M-32.6 16.4 Q-34.45 13.9 -33.6 12.0 -32.5 9.5 -26.45 10.65 -19.75 11.95 -19.85 14.4 -19.9 15.3 -20.85 15.9 -21.75 16.55 -22.7 16.35 L-21.8 19.75 Q-21.65 22.75 -25.4 20.4 L-26.1 22.1 Q-27.15 23.25 -29.3 20.65 L-32.6 16.4" fill="#8d796a" fill-rule="evenodd" stroke="none"/>
    </g>
  </defs>
</svg>
