<?xml version="1.0" encoding="UTF-8" standalone="no"?>
<svg xmlns:ffdec="https://www.free-decompiler.com/flash" xmlns:xlink="http://www.w3.org/1999/xlink" ffdec:objectType="frame" height="112.0px" width="94.15px" xmlns="http://www.w3.org/2000/svg">
  <g transform="matrix(1.0, 0.0, 0.0, 1.0, 49.9, 70.9)">
    <use ffdec:characterId="430" height="110.65" transform="matrix(1.0, 0.0, 0.0, 1.0, -49.8, -70.9)" width="72.85" xlink:href="#shape0"/>
  </g>
  <defs>
    <g id="shape0" transform="matrix(1.0, 0.0, 0.0, 1.0, 49.8, 70.9)">
      <path d="M-16.25 13.5 Q-15.2 13.55 -15.15 18.6 -15.1 23.5 -15.9 24.45 -17.05 25.85 -21.7 26.4 -27.95 27.2 -36.0 25.2 -41.95 23.7 -43.85 24.3 -45.05 24.65 -47.35 26.05 -49.5 26.8 -49.75 25.9 -50.0 25.1 -48.45 23.65 -44.15 19.75 -36.6 19.75 -28.1 19.75 -21.4 16.6 -18.05 15.05 -16.25 13.5" fill="#1a0202" fill-rule="evenodd" stroke="none"/>
      <path d="M-17.55 15.3 Q-16.6 15.35 -16.7 19.2 -16.75 22.95 -17.5 23.75 -18.4 24.75 -23.5 25.15 -29.55 25.6 -35.65 24.25 -41.5 22.95 -43.2 23.3 L-46.3 24.65 -48.35 24.75 Q-48.5 24.2 -47.0 23.25 -42.85 20.45 -36.2 20.45 -28.55 20.45 -22.35 17.85 -19.25 16.55 -17.55 15.3" fill="#620e0c" fill-rule="evenodd" stroke="none"/>
      <path d="M-41.5 22.55 L-42.2 22.65 Q-42.9 22.85 -43.2 23.3 -43.75 23.4 -44.55 23.85 L-46.3 24.65 Q-49.5 25.75 -48.1 24.1 -46.7 22.45 -42.75 21.3 L-41.15 21.5 -42.25 21.7 Q-43.4 21.95 -43.7 22.4 L-42.75 22.35 -41.5 22.55" fill="#000000" fill-rule="evenodd" stroke="none"/>
      <path d="M-7.15 -23.75 Q-6.45 -23.3 -0.9 -14.15 L4.55 -5.05 Q4.95 -4.85 3.0 0.5 0.95 6.05 -1.05 6.0 -4.35 6.0 -10.8 -0.75 -18.1 -8.35 -17.55 -15.05 -17.05 -21.45 -19.45 -26.7 L-22.0 -30.7 Q-21.85 -30.45 -14.9 -27.35 L-7.15 -23.75" fill="#1a0202" fill-rule="evenodd" stroke="none"/>
      <path d="M2.4 -2.45 Q2.7 -3.55 -3.6 -13.45 -10.0 -23.45 -11.7 -24.15 -18.05 -26.9 -22.3 -30.25 L-25.25 -33.05 Q-23.5 -32.0 -20.5 -30.65 -16.55 -28.85 -13.45 -27.95 -4.85 -25.45 -2.7 -23.8 -1.9 -23.2 -0.9 -20.4 1.2 -14.75 7.4 -7.35 10.5 -3.65 13.2 -1.1 13.6 -0.15 3.85 3.8 L-4.4 7.0 Q-2.95 6.35 -1.0 3.85 1.45 0.8 2.4 -2.45" fill="#1a0202" fill-rule="evenodd" stroke="none"/>
      <path d="M-7.0 -23.6 Q-6.35 -23.15 -1.15 -14.6 L3.95 -6.1 Q4.3 -5.75 2.75 -0.95 1.15 4.1 -0.75 4.05 -3.9 4.05 -9.95 -2.1 -16.85 -9.05 -16.55 -15.45 -16.25 -21.5 -18.55 -26.4 L-20.95 -30.1 Q-20.8 -29.85 -14.25 -26.95 -7.5 -23.95 -7.0 -23.6" fill="#360706" fill-rule="evenodd" stroke="none"/>
      <path d="M1.85 -2.9 Q2.4 -4.9 -0.45 -11.15 -0.7 -11.7 -1.65 -12.15 L-6.75 -13.85 Q-0.95 -12.75 -2.6 -15.4 -6.55 -22.4 -9.7 -23.75 -15.75 -26.35 -20.65 -29.6 L-24.3 -32.35 Q-22.45 -31.15 -19.9 -29.9 -16.15 -28.0 -13.25 -27.15 -5.45 -24.85 -3.6 -23.25 -3.05 -22.8 -2.05 -19.95 -0.1 -14.55 6.05 -7.35 9.15 -3.75 11.8 -1.25 12.15 -0.3 3.05 3.25 L-4.7 6.1 Q-3.35 5.55 -1.4 3.05 0.95 0.15 1.85 -2.9" fill="#1c0e0e" fill-rule="evenodd" stroke="none"/>
      <path d="M-4.4 -15.2 Q-4.45 -12.5 -15.15 -17.2 -11.8 -15.95 -11.35 -16.95 L-15.45 -19.7 -12.35 -19.55 Q-13.3 -20.85 -16.2 -22.2 -15.05 -22.5 -14.65 -23.1 -13.8 -24.25 -16.85 -25.65 L-13.1 -24.1 Q-8.75 -22.15 -7.75 -20.85 -4.35 -16.35 -4.4 -15.2" fill="#680c0a" fill-rule="evenodd" stroke="none"/>
      <path d="M-4.8 -2.0 Q-9.0 -3.6 -11.55 -5.6 L-10.25 -5.8 -7.5 -5.9 -10.4 -8.45 Q-13.45 -11.05 -14.35 -11.0 L-12.8 -11.5 -10.55 -11.9 Q-11.4 -12.9 -15.1 -14.0 L-9.85 -13.35 Q-4.35 -12.4 -2.85 -10.8 -0.65 -8.45 -0.25 -4.85 0.3 -0.55 -2.9 1.45 -2.6 0.6 -2.7 0.1 -4.8 0.2 -7.5 -1.05 -5.9 -1.3 -4.8 -2.0" fill="#680c0a" fill-rule="evenodd" stroke="none"/>
      <path d="M-43.8 -26.45 L-34.85 -23.9 -25.1 -21.25 Q-24.2 -20.85 -15.65 -11.8 L-7.15 -2.75 Q-6.6 -2.55 -7.6 3.55 -8.55 9.8 -10.9 10.1 -14.7 10.6 -23.7 4.3 -33.9 -2.85 -34.95 -10.2 -35.9 -17.2 -39.95 -22.5 L-43.8 -26.45" fill="#1a0202" fill-rule="evenodd" stroke="none"/>
      <path d="M-18.55 -10.6 Q-28.3 -20.45 -30.4 -21.0 -38.4 -22.95 -44.05 -25.95 L-48.1 -28.55 -42.1 -26.65 -33.35 -24.8 Q-28.45 -24.1 -24.4 -22.15 -21.55 -20.75 -18.2 -18.2 L4.5 -0.9 Q5.2 0.1 -5.45 6.45 -10.4 9.45 -14.45 11.7 -13.0 10.75 -11.35 7.75 -9.25 4.05 -8.95 0.4 -8.85 -0.8 -18.55 -10.6" fill="#1a0202" fill-rule="evenodd" stroke="none"/>
      <path d="M-42.45 -26.0 Q-42.25 -25.75 -34.05 -23.6 L-24.9 -21.1 Q-24.05 -20.75 -16.05 -12.25 L-8.1 -3.75 Q-7.55 -3.6 -8.2 1.95 -8.8 7.65 -11.0 7.95 -14.65 8.4 -23.05 2.7 -32.65 -3.8 -33.85 -10.8 -34.95 -17.35 -38.8 -22.35 L-42.45 -26.0" fill="#620e0c" fill-rule="evenodd" stroke="none"/>
      <path d="M-46.4 -27.7 Q-44.7 -27.05 -41.2 -26.05 L-32.95 -24.0 Q-28.5 -23.1 -24.45 -21.0 -20.95 -19.2 -19.05 -17.3 -14.8 -12.85 2.1 0.25 2.75 1.2 -6.85 6.45 L-15.2 10.85 Q-13.6 10.0 -11.35 6.55 -8.75 2.5 -8.45 -0.9 -8.35 -2.15 -9.7 -4.5 -11.2 -7.15 -13.45 -9.05 -13.85 -9.45 -14.8 -9.55 L-20.7 -10.35 Q-17.35 -10.4 -16.8 -11.6 -16.45 -12.45 -17.35 -13.25 L-22.8 -17.75 Q-25.6 -19.8 -27.65 -20.5 -37.35 -23.85 -46.4 -27.7" fill="#1c0e0e" fill-rule="evenodd" stroke="none"/>
      <path d="M-32.05 -20.7 Q-26.55 -19.2 -25.1 -18.0 -20.1 -13.7 -19.85 -12.35 -19.3 -9.4 -32.7 -12.85 -28.55 -12.05 -28.25 -13.2 L-33.6 -15.6 -30.05 -15.9 Q-31.45 -17.1 -35.1 -18.15 -33.85 -18.65 -33.5 -19.4 -32.85 -20.75 -36.7 -21.75 L-32.05 -20.7" fill="#af1712" fill-rule="evenodd" stroke="none"/>
      <path d="M-17.05 -7.85 Q-13.9 -5.6 -12.55 -1.8 -10.95 2.8 -14.15 5.45 -13.95 4.5 -14.2 3.95 -16.6 4.4 -20.0 3.45 -18.2 2.95 -17.15 2.0 -22.3 0.9 -25.75 -0.9 L-24.3 -1.25 -21.2 -1.8 -25.15 -4.15 Q-29.3 -6.45 -30.25 -6.3 L-28.6 -7.1 Q-26.8 -7.9 -26.15 -7.85 -27.3 -8.8 -31.85 -9.45 L-25.7 -9.55 Q-19.1 -9.35 -17.05 -7.85" fill="#af1712" fill-rule="evenodd" stroke="none"/>
      <path d="M13.15 19.5 Q11.75 21.0 10.5 20.8 L6.65 19.95 Q3.25 18.8 2.6 16.95 1.8 14.7 1.65 12.3 1.5 9.8 2.1 8.1 2.95 5.85 4.2 4.0 5.6 1.85 5.95 3.15 L7.55 8.0 Q9.65 13.3 12.45 15.75 14.75 17.75 13.15 19.5" fill="#1a0202" fill-rule="evenodd" stroke="none"/>
      <path d="M5.65 2.85 L6.95 7.7 Q8.75 13.0 10.95 15.3 13.25 17.65 12.2 19.05 11.35 20.2 10.2 19.95 L6.75 19.1 Q3.75 18.0 3.2 16.4 2.5 14.2 2.2 11.6 1.85 8.6 2.35 7.15 3.0 5.25 4.1 3.55 5.4 1.65 5.65 2.85" fill="#360706" fill-rule="evenodd" stroke="none"/>
      <path d="M11.5 15.95 Q13.15 18.0 12.1 19.15 11.25 20.1 10.2 19.95 L8.35 19.55 Q6.65 19.15 5.45 18.55 8.75 19.2 10.35 17.6 L11.5 15.95" fill="#000000" fill-rule="evenodd" stroke="none"/>
      <path d="M4.05 14.0 L4.6 14.25 4.8 14.8 Q4.8 15.55 4.0 15.55 L3.45 15.3 Q3.2 15.1 3.25 14.75 3.25 14.0 4.05 14.0" fill="#3d0706" fill-rule="evenodd" stroke="none"/>
      <path d="M5.65 15.6 Q6.1 15.6 6.1 16.05 L5.65 16.5 Q5.1 16.5 5.2 16.05 5.2 15.6 5.65 15.6" fill="#3d0706" fill-rule="evenodd" stroke="none"/>
      <path d="M5.65 13.75 Q5.95 13.75 5.95 14.1 L5.65 14.4 Q5.3 14.4 5.3 14.05 5.3 13.75 5.65 13.75" fill="#3d0706" fill-rule="evenodd" stroke="none"/>
      <path d="M-5.3 -8.55 Q-4.75 -10.25 4.3 -6.85 13.3 -3.5 12.35 -1.5 10.6 1.95 9.05 6.65 6.75 13.45 6.5 18.55 6.2 24.95 4.35 27.9 3.4 29.35 2.55 29.55 1.0 38.4 -3.6 39.45 L-6.6 39.25 -7.9 38.7 Q-7.25 38.0 -7.2 35.7 L-7.3 33.5 Q-7.95 35.0 -9.6 36.65 -11.5 38.6 -13.65 39.5 -15.55 40.3 -18.0 38.75 L-20.05 37.05 Q-17.75 36.4 -16.65 32.6 L-16.0 28.9 -17.15 27.8 -17.7 26.15 Q-18.4 23.45 -18.5 19.8 -18.75 14.4 -16.95 12.8 -13.2 9.35 -8.85 0.05 L-5.3 -8.55" fill="#1a0202" fill-rule="evenodd" stroke="none"/>
      <path d="M-5.15 -6.9 Q-4.65 -8.45 3.8 -5.35 12.2 -2.2 11.25 -0.35 8.95 4.2 8.0 6.65 5.7 12.5 5.45 17.2 5.15 23.15 3.4 26.1 2.55 27.6 1.7 27.9 0.25 36.15 -3.35 37.65 L-6.6 37.5 Q-6.1 36.95 -6.1 34.85 L-6.3 31.75 Q-5.95 31.7 -5.35 31.3 -4.25 30.45 -3.2 28.75 L-4.05 29.6 Q-5.1 30.4 -6.7 30.9 -10.55 36.85 -12.9 37.85 L-16.4 37.75 -17.75 36.7 Q-16.35 36.65 -15.45 32.4 L-14.8 28.15 -16.05 27.05 -16.7 25.4 Q-17.25 23.05 -17.25 19.6 -17.25 14.7 -15.6 13.2 -12.1 10.05 -8.25 1.25 L-5.15 -6.9" fill="#620e0c" fill-rule="evenodd" stroke="none"/>
      <path d="M-10.6 16.85 L-10.85 18.85 Q-7.65 17.8 -7.3 16.95 L-7.45 20.05 Q-7.5 23.45 -6.85 24.75 -3.2 24.0 -1.3 21.9 L-1.6 24.5 Q0.5 23.8 1.55 22.6 L1.25 24.65 Q0.85 26.85 0.3 27.45 L1.85 26.55 Q3.65 25.1 4.75 22.5 4.05 25.4 2.8 26.95 L1.7 27.9 Q0.25 36.15 -3.35 37.65 L-6.6 37.5 Q-6.1 36.95 -6.05 34.85 -6.05 33.15 -6.3 31.7 -4.65 31.35 -3.2 28.75 -4.4 30.25 -6.7 30.9 -7.4 32.55 -9.0 34.55 -11.0 37.0 -12.9 37.85 L-16.4 37.75 -17.75 36.7 Q-16.35 36.65 -15.45 32.4 L-14.8 28.15 -16.05 27.05 -16.7 25.4 Q-17.25 23.05 -17.25 19.6 -17.25 14.7 -15.6 13.2 L-13.55 10.95 Q-15.7 15.65 -14.75 18.65 -13.25 18.7 -11.75 17.8 L-10.6 16.85" fill="#420807" fill-rule="evenodd" stroke="none"/>
      <path d="M-0.9 9.0 Q3.7 10.05 6.95 9.6 5.65 13.75 5.45 17.2 L5.1 20.8 -0.25 21.2 Q-3.05 20.7 -4.45 19.1 -5.75 17.6 -3.45 13.15 L-0.9 9.0" fill="#af1712" fill-rule="evenodd" stroke="none"/>
      <path d="M-11.55 36.4 L-11.65 36.7 -12.1 37.4 -12.9 37.85 -16.4 37.75 -17.75 36.7 Q-16.8 36.7 -16.1 34.7 -15.15 35.1 -14.45 34.7 -14.8 35.65 -15.1 35.85 -12.65 35.05 -12.2 34.35 L-13.6 36.4 Q-12.1 36.7 -11.55 36.4" fill="#000000" fill-rule="evenodd" stroke="none"/>
      <path d="M-5.25 36.1 Q-4.35 34.8 -4.4 34.0 -3.3 36.1 -3.55 36.45 -1.45 35.35 -1.3 34.85 L-1.35 35.3 Q-1.4 35.9 -1.6 36.35 -3.1 38.05 -5.0 37.95 L-6.6 37.5 Q-6.25 37.1 -6.1 35.65 L-5.7 35.1 -5.4 35.5 Q-5.1 35.9 -5.25 36.1" fill="#000000" fill-rule="evenodd" stroke="none"/>
      <path d="M-4.5 2.15 L-2.85 7.25 Q-0.6 12.85 2.35 15.4 4.8 17.5 3.1 19.35 1.6 20.95 0.3 20.75 -7.0 19.55 -8.0 16.65 -8.85 14.25 -9.0 11.8 -9.2 9.15 -8.5 7.35 -7.65 5.0 -6.35 3.05 -4.85 0.75 -4.5 2.15" fill="#1a0202" fill-rule="evenodd" stroke="none"/>
      <path d="M-4.8 1.8 L-3.45 6.9 Q-1.6 12.45 0.75 14.9 3.15 17.4 2.05 18.85 1.2 20.05 0.0 19.8 L-3.65 18.9 Q-6.85 17.8 -7.4 16.05 -8.15 13.8 -8.45 11.0 -8.8 7.9 -8.3 6.35 -7.55 4.3 -6.4 2.6 -5.1 0.6 -4.8 1.8" fill="#620e0c" fill-rule="evenodd" stroke="none"/>
      <path d="M1.4 15.6 Q3.1 17.75 1.95 19.0 1.05 20.0 0.0 19.8 -2.7 19.55 -5.0 18.35 -1.55 19.0 0.1 17.35 L1.4 15.6" fill="#000000" fill-rule="evenodd" stroke="none"/>
      <path d="M-6.5 13.55 Q-6.15 13.55 -5.95 13.8 -5.7 14.05 -5.7 14.4 L-5.95 14.95 Q-6.2 15.2 -6.55 15.2 L-7.1 14.95 -7.35 14.35 -7.1 13.8 Q-6.85 13.55 -6.5 13.55" fill="#3d0706" fill-rule="evenodd" stroke="none"/>
      <path d="M-4.8 15.25 Q-4.35 15.25 -4.35 15.75 -4.35 16.2 -4.85 16.2 -5.3 16.2 -5.3 15.7 -5.3 15.25 -4.8 15.25" fill="#3d0706" fill-rule="evenodd" stroke="none"/>
      <path d="M-4.8 13.3 Q-4.5 13.3 -4.5 13.65 -4.5 14.0 -4.85 14.0 L-5.15 13.65 Q-5.15 13.3 -4.8 13.3" fill="#3d0706" fill-rule="evenodd" stroke="none"/>
      <path d="M15.65 -68.05 Q15.0 -65.15 16.1 -59.45 17.4 -52.8 20.5 -47.4 23.4 -42.3 21.75 -35.3 20.5 -30.0 18.6 -28.1 17.45 -27.0 13.0 -30.0 8.6 -33.0 10.35 -34.25 12.35 -35.7 13.2 -40.2 14.1 -45.1 12.7 -50.2 11.5 -54.65 13.45 -61.8 L15.65 -68.05" fill="#1c0e0e" fill-rule="evenodd" stroke="none"/>
      <path d="M15.15 -66.2 Q14.3 -62.15 14.75 -58.3 15.1 -55.25 16.0 -53.5 16.85 -51.8 14.85 -52.3 12.85 -52.75 12.9 -54.4 12.9 -57.7 14.05 -62.3 L15.15 -66.2" fill="#3d2e2e" fill-rule="evenodd" stroke="none"/>
      <path d="M14.55 -39.0 Q16.55 -39.85 16.85 -40.05 19.7 -42.05 18.0 -49.0 17.7 -50.2 18.3 -49.5 18.95 -48.8 19.65 -47.05 21.65 -41.85 20.65 -36.7 18.9 -27.8 13.85 -29.8 L11.75 -31.2 10.65 -32.15 Q12.95 -36.3 13.2 -37.6 13.35 -38.45 14.55 -39.0" fill="#3d2e2e" fill-rule="evenodd" stroke="none"/>
      <path d="M3.35 -39.85 Q17.9 -40.25 21.8 -29.35 23.75 -23.85 22.65 -17.6 22.5 -16.5 21.5 -15.0 21.2 -13.55 20.4 -2.9 19.5 7.2 18.15 8.0 13.05 10.95 5.8 10.35 L-0.45 9.15 Q-5.7 2.95 -9.05 -5.3 -12.5 -13.7 -12.8 -21.25 -13.05 -29.4 -9.35 -34.2 -5.25 -39.6 3.35 -39.85" fill="#1a0202" fill-rule="evenodd" stroke="none"/>
      <path d="M-8.25 -32.7 Q-4.4 -37.7 3.5 -37.9 16.95 -38.25 20.5 -28.25 22.3 -23.15 21.3 -17.4 21.15 -16.35 20.2 -15.0 19.9 -13.65 19.2 -3.85 18.35 5.45 17.1 6.15 12.4 8.85 5.7 8.3 L0.0 7.25 Q-4.85 1.5 -7.95 -6.1 -11.15 -13.85 -11.35 -20.75 -11.65 -28.3 -8.25 -32.7" fill="#620e0c" fill-rule="evenodd" stroke="none"/>
      <path d="M-0.6 -37.4 L3.5 -37.9 Q16.95 -38.25 20.5 -28.25 22.3 -23.15 21.3 -17.4 21.15 -16.35 20.2 -15.0 19.2 -13.2 17.65 -12.6 16.3 -12.1 14.9 -12.6 L11.35 -12.95 6.85 -12.4 Q3.85 -11.95 2.45 -12.4 -1.05 -13.55 -3.15 -18.9 L-3.4 -19.75 Q-3.65 -23.45 -1.1 -26.75 2.1 -30.95 0.7 -33.1 -0.25 -34.55 -3.05 -34.95 L-0.6 -37.4" fill="#af1712" fill-rule="evenodd" stroke="none"/>
      <path d="M-4.45 -70.9 L-3.45 -66.3 Q-2.7 -60.4 -4.35 -55.6 -6.1 -50.35 -3.4 -42.15 -1.05 -35.15 0.7 -33.95 1.9 -33.1 0.85 -30.6 -0.25 -28.0 -2.65 -26.75 -6.65 -24.65 -8.5 -26.75 -10.0 -28.5 -11.95 -32.75 -14.75 -38.75 -14.7 -43.25 -14.65 -47.85 -12.4 -52.5 -10.8 -55.75 -8.5 -58.3 -6.7 -60.3 -5.4 -65.45 -4.3 -69.55 -4.45 -70.9" fill="#1c0e0e" fill-rule="evenodd" stroke="none"/>
      <path d="M-2.1 -9.7 Q-1.15 -11.05 -0.8 -11.0 -0.4 -10.95 1.45 -8.95 3.0 -7.2 5.5 -7.65 6.9 -7.95 7.75 -9.0 8.5 -9.85 9.1 -11.65 L11.35 -12.15 Q13.85 -12.45 14.9 -11.35 L15.15 -9.9 Q15.55 -8.4 16.2 -8.05 17.75 -7.15 18.9 -8.5 L19.75 -10.05 18.65 1.75 Q18.2 4.6 16.1 4.9 L12.45 4.65 5.95 5.65 Q2.8 6.1 2.3 3.0 2.25 2.4 2.55 1.2 L2.7 -0.3 Q3.65 -3.0 10.3 -3.35 16.7 -3.65 18.4 -2.0 L18.3 -2.35 18.25 -2.75 Q17.3 -3.4 15.2 -3.95 L10.85 -4.55 Q6.0 -4.65 3.15 -3.15 L1.3 -1.6 Q-2.2 -5.0 -2.85 -7.2 -3.15 -8.25 -2.1 -9.7" fill="#af1712" fill-rule="evenodd" stroke="none"/>
      <path d="M1.95 -11.9 Q3.9 -11.0 6.1 -11.15 L7.9 -11.5 7.45 -9.95 Q6.8 -8.5 5.2 -8.55 3.5 -8.6 2.55 -10.25 L1.95 -11.9" fill="#000000" fill-rule="evenodd" stroke="none"/>
      <path d="M15.2 -11.45 L17.35 -11.6 Q18.2 -11.75 18.75 -12.4 19.05 -11.4 18.55 -10.25 18.05 -9.0 17.2 -9.0 15.85 -8.95 15.4 -10.2 L15.2 -11.45" fill="#000000" fill-rule="evenodd" stroke="none"/>
      <path d="M2.6 -24.85 Q2.6 -24.15 2.15 -23.7 1.65 -23.2 0.95 -23.2 0.3 -23.2 -0.2 -23.7 -0.7 -24.15 -0.7 -24.85 -0.7 -25.55 -0.2 -26.05 L0.95 -26.5 Q1.65 -26.5 2.15 -26.05 2.6 -25.55 2.6 -24.85" fill="#3d0706" fill-rule="evenodd" stroke="none"/>
      <path d="M-0.7 -21.35 Q-0.7 -20.95 -1.0 -20.65 -1.25 -20.4 -1.65 -20.4 -2.65 -20.4 -2.65 -21.35 L-2.35 -22.05 Q-2.05 -22.35 -1.65 -22.35 L-1.0 -22.05 Q-0.7 -21.75 -0.7 -21.35" fill="#3d0706" fill-rule="evenodd" stroke="none"/>
      <path d="M3.2 -21.45 Q3.2 -20.75 2.55 -20.75 1.85 -20.75 1.85 -21.45 1.85 -22.15 2.55 -22.15 3.2 -22.15 3.2 -21.45" fill="#3d0706" fill-rule="evenodd" stroke="none"/>
      <path d="M4.8 -3.3 Q4.6 -3.85 4.55 -4.5 4.4 -5.75 5.0 -5.95 L7.2 -6.25 8.85 -6.1 9.05 -5.0 Q9.0 -4.1 8.75 -4.05 6.65 -4.0 4.8 -3.3" fill="#9c7b7b" fill-rule="evenodd" stroke="none"/>
      <path d="M14.9 -3.6 L15.0 -4.7 Q15.25 -5.75 15.7 -5.7 L17.25 -5.2 18.45 -4.45 Q18.7 -4.1 18.4 -3.45 L17.85 -2.65 17.3 -2.95 14.9 -3.6" fill="#9c7b7b" fill-rule="evenodd" stroke="none"/>
      <path d="M6.9 -10.15 Q6.9 -9.5 6.45 -9.5 5.95 -9.5 5.95 -10.15 5.95 -10.75 6.45 -10.75 6.9 -10.75 6.9 -10.15" fill="#ffffff" fill-rule="evenodd" stroke="none"/>
      <path d="M18.35 -10.65 Q18.35 -10.1 17.95 -10.1 17.55 -10.1 17.55 -10.65 17.55 -11.2 17.95 -11.2 18.35 -11.2 18.35 -10.65" fill="#ffffff" fill-rule="evenodd" stroke="none"/>
      <path d="M15.65 -3.7 L15.75 -4.4 Q15.9 -5.1 16.1 -5.1 L17.3 -4.7 18.3 -4.05 18.2 -3.6 17.75 -2.85 Q17.0 -3.45 15.65 -3.7" fill="#e2b3b3" fill-rule="evenodd" stroke="none"/>
      <path d="M5.35 -3.7 L5.15 -4.55 Q5.0 -5.4 5.3 -5.5 L7.0 -5.8 8.55 -5.7 8.75 -4.9 8.65 -4.2 5.35 -3.7" fill="#e2b3b3" fill-rule="evenodd" stroke="none"/>
      <path d="M-1.5 -29.45 Q-1.4 -29.1 -2.6 -28.35 -3.4 -27.85 -4.0 -27.9 L-4.65 -28.25 Q-4.9 -28.75 -3.05 -29.55 L-2.05 -29.7 Q-1.6 -29.7 -1.5 -29.45" fill="#3d2e2e" fill-rule="evenodd" stroke="none"/>
      <path d="M-2.25 -31.15 Q-2.1 -30.9 -2.45 -30.65 L-3.2 -30.1 Q-4.8 -29.0 -5.15 -29.45 -5.55 -29.95 -3.75 -31.05 L-2.25 -31.15" fill="#3d2e2e" fill-rule="evenodd" stroke="none"/>
      <path d="M-5.3 -64.2 L-4.4 -68.4 Q-3.9 -70.4 -4.15 -66.25 -4.35 -62.5 -6.3 -56.6 -7.55 -52.75 -4.85 -44.3 -2.35 -36.3 0.0 -34.45 0.9 -33.7 0.45 -31.75 0.0 -29.6 -2.15 -28.65 -3.1 -28.25 -4.75 -30.45 L-4.5 -30.6 Q-3.45 -31.5 -3.65 -31.8 L-4.2 -31.9 -5.1 -31.4 -5.3 -31.3 Q-8.6 -36.55 -10.4 -44.15 -12.45 -52.9 -9.8 -55.9 -6.75 -59.35 -5.3 -64.2" fill="#3d2e2e" fill-rule="evenodd" stroke="none"/>
    </g>
  </defs>
</svg>
