<?xml version="1.0" encoding="UTF-8" standalone="no"?>
<svg xmlns:ffdec="https://www.free-decompiler.com/flash" xmlns:xlink="http://www.w3.org/1999/xlink" ffdec:objectType="frame" height="112.0px" width="94.15px" xmlns="http://www.w3.org/2000/svg">
  <g transform="matrix(1.0, 0.0, 0.0, 1.0, 49.9, 70.9)">
    <use ffdec:characterId="431" height="110.65" transform="matrix(1.0, 0.0, 0.0, 1.0, -49.45, -70.25)" width="72.8" xlink:href="#shape0"/>
  </g>
  <defs>
    <g id="shape0" transform="matrix(1.0, 0.0, 0.0, 1.0, 49.45, 70.25)">
      <path d="M-21.4 27.05 Q-27.65 27.85 -35.7 25.85 -41.65 24.35 -43.55 24.95 -45.2 26.1 -47.0 26.7 L-49.4 26.55 Q-49.65 25.7 -48.1 24.3 -43.8 20.4 -36.25 20.4 -27.7 20.4 -21.05 17.25 -17.7 15.7 -15.95 14.1 -14.85 14.2 -14.8 19.25 -14.75 24.15 -15.55 25.1 -16.8 26.45 -21.4 27.05" fill="#1a0202" fill-rule="evenodd" stroke="none"/>
      <path d="M-23.15 25.8 Q-29.2 26.25 -35.35 24.9 -41.2 23.6 -42.85 23.95 L-45.95 25.3 -48.05 25.4 Q-48.2 24.85 -46.7 23.85 -42.55 21.05 -35.85 21.05 -28.2 21.05 -22.0 18.5 -18.9 17.2 -17.2 15.95 -16.25 16.0 -16.35 19.85 -16.4 23.6 -17.15 24.4 -18.0 25.4 -23.15 25.8" fill="#620e0c" fill-rule="evenodd" stroke="none"/>
      <path d="M-43.4 23.05 L-42.45 23.0 -41.2 23.2 -41.85 23.3 -42.85 23.95 Q-43.4 24.05 -44.2 24.5 L-45.95 25.3 Q-49.2 26.4 -47.75 24.75 -46.35 23.1 -42.4 21.95 L-40.8 22.15 -41.95 22.35 Q-43.1 22.6 -43.4 23.05" fill="#000000" fill-rule="evenodd" stroke="none"/>
      <path d="M-17.4 -11.1 L-11.55 -8.9 Q-7.4 -7.3 0.1 -3.4 0.5 -2.9 -1.3 1.75 L-4.1 8.5 Q-4.1 9.25 -4.5 9.55 L-4.55 9.6 Q-5.85 10.7 -11.45 7.4 -16.55 4.35 -20.7 0.55 -26.75 -5.05 -29.45 -11.2 L-33.75 -13.25 -22.85 -12.45 Q-20.9 -12.3 -17.4 -11.1" fill="#1a0202" fill-rule="evenodd" stroke="none"/>
      <path d="M-17.35 -10.1 L-12.2 -8.0 Q-8.4 -6.55 -1.95 -2.5 -1.35 -1.8 -5.25 7.55 -5.25 8.1 -5.6 8.55 L-5.65 8.55 Q-6.8 9.55 -11.9 6.55 -16.5 3.8 -20.35 0.35 -25.75 -4.7 -28.95 -11.75 L-30.3 -12.4 -26.8 -11.95 -22.05 -11.35 Q-20.35 -11.2 -17.35 -10.1" fill="#1c0e0e" fill-rule="evenodd" stroke="none"/>
      <path d="M-41.6 -5.65 L-34.65 -6.1 -28.25 -6.25 Q-27.6 -6.35 -19.75 -2.8 L-11.95 0.7 Q-11.5 0.7 -8.85 5.55 -6.0 10.6 -7.1 11.9 -8.35 13.35 -15.85 10.7 -23.0 8.15 -28.15 4.85 -33.2 1.55 -37.9 -2.35 L-41.6 -5.65" fill="#1a0202" fill-rule="evenodd" stroke="none"/>
      <path d="M-15.9 -2.4 Q-16.35 -2.55 -17.0 -2.15 L-20.95 0.2 Q-18.9 -1.65 -19.1 -3.05 -19.25 -4.1 -20.15 -4.35 -22.6 -5.15 -26.1 -5.0 L-30.85 -4.7 Q-35.7 -4.6 -41.65 -5.65 L-46.65 -6.75 -38.85 -7.4 -29.3 -8.25 Q-26.35 -8.6 -23.9 -8.3 L-17.75 -6.85 Q-12.1 -5.15 -1.35 -3.85 -0.55 -3.25 -2.75 4.85 L-4.5 11.25 Q-4.3 10.05 -5.6 7.8 -6.4 6.45 -9.15 2.8 -12.3 -1.35 -15.9 -2.4" fill="#1a0202" fill-rule="evenodd" stroke="none"/>
      <path d="M-41.15 -6.35 L-34.15 -6.8 -27.75 -6.95 Q-27.1 -7.0 -19.25 -3.5 L-11.45 0.05 -7.9 3.0 Q-4.75 6.7 -6.45 10.45 -7.25 12.2 -14.8 9.7 -21.8 7.4 -27.2 4.15 -32.25 1.05 -37.2 -2.95 L-41.15 -6.35" fill="#620e0c" fill-rule="evenodd" stroke="none"/>
      <path d="M-16.35 -1.05 L-17.85 -1.25 -19.85 -1.15 Q-19.3 -2.65 -20.8 -3.15 -26.2 -4.6 -29.75 -5.0 L-42.95 -6.5 -38.25 -6.85 -31.95 -7.3 Q-27.05 -7.8 -23.9 -7.35 L-18.4 -5.95 -3.9 -2.4 Q-3.15 -1.9 -4.4 2.85 L-5.25 6.05 Q-5.1 5.15 -6.35 4.3 L-10.2 2.15 Q-11.7 1.15 -12.7 0.55 -14.5 -0.5 -16.35 -1.05" fill="#1c0e0e" fill-rule="evenodd" stroke="none"/>
      <path d="M-39.0 -5.2 L-34.55 -4.85 -28.6 -4.1 -22.7 -2.2 Q-20.35 -0.4 -28.1 2.95 -27.35 2.05 -27.4 1.55 -28.1 0.85 -29.7 1.05 -28.75 0.35 -28.95 -0.05 L-29.35 -0.25 -31.55 -0.45 Q-32.1 -1.5 -33.35 -2.6 -35.8 -4.85 -39.0 -5.2" fill="#af1712" fill-rule="evenodd" stroke="none"/>
      <path d="M-25.0 3.85 Q-23.85 2.8 -22.3 1.8 -19.3 -0.15 -17.55 0.15 -14.0 0.8 -11.25 2.5 -7.1 5.05 -7.8 8.7 -10.25 8.2 -10.65 7.8 L-12.9 8.6 Q-13.1 8.7 -12.9 7.35 L-17.55 7.35 -17.05 6.05 -19.7 5.6 -22.9 5.85 -22.65 4.95 -22.0 3.7 -23.05 3.55 -25.0 3.85" fill="#af1712" fill-rule="evenodd" stroke="none"/>
      <path d="M6.25 3.8 L7.85 8.65 Q10.0 13.95 12.8 16.35 15.1 18.4 13.5 20.15 12.05 21.65 10.8 21.45 L6.95 20.6 Q3.6 19.45 2.95 17.6 2.15 15.3 2.0 12.95 1.85 10.45 2.45 8.75 3.25 6.55 4.5 4.65 5.95 2.5 6.25 3.8" fill="#1a0202" fill-rule="evenodd" stroke="none"/>
      <path d="M6.0 3.5 L7.3 8.35 Q9.05 13.6 11.25 15.9 13.55 18.25 12.5 19.7 11.7 20.75 10.55 20.6 4.3 19.35 3.55 17.05 2.8 14.9 2.5 12.25 2.15 9.3 2.65 7.8 3.35 5.85 4.45 4.2 5.75 2.3 6.0 3.5" fill="#360706" fill-rule="evenodd" stroke="none"/>
      <path d="M11.85 16.55 Q13.5 18.6 12.4 19.8 11.6 20.75 10.55 20.6 7.25 19.95 5.8 19.2 9.05 19.85 10.65 18.25 L11.85 16.55" fill="#000000" fill-rule="evenodd" stroke="none"/>
      <path d="M4.35 14.65 Q5.15 14.65 5.15 15.45 5.05 16.2 4.35 16.2 3.55 16.2 3.55 15.4 3.55 14.65 4.35 14.65" fill="#3d0706" fill-rule="evenodd" stroke="none"/>
      <path d="M6.0 16.25 Q6.45 16.25 6.45 16.7 6.45 17.15 5.95 17.15 5.5 17.15 5.5 16.7 5.5 16.25 6.0 16.25" fill="#3d0706" fill-rule="evenodd" stroke="none"/>
      <path d="M5.95 14.4 Q6.3 14.4 6.3 14.75 L5.95 15.05 Q5.65 15.05 5.65 14.7 5.65 14.4 5.95 14.4" fill="#3d0706" fill-rule="evenodd" stroke="none"/>
      <path d="M-4.95 -7.9 Q-4.4 -9.6 4.65 -6.25 13.65 -2.85 12.65 -0.85 11.0 2.45 9.4 7.25 7.1 14.1 6.85 19.2 6.5 25.6 4.65 28.55 3.7 30.0 2.85 30.2 1.3 39.05 -3.3 40.1 L-6.3 39.9 -7.55 39.35 Q-6.9 38.65 -6.85 36.3 L-6.95 34.15 Q-7.6 35.6 -9.25 37.3 -11.15 39.2 -13.3 40.1 -15.2 40.9 -17.65 39.4 L-19.7 37.7 Q-17.4 37.05 -16.3 33.25 L-15.65 29.55 -16.8 28.45 -17.4 26.75 Q-18.05 23.85 -18.2 20.45 -18.4 15.05 -16.65 13.45 -12.85 10.0 -8.55 0.7 L-4.95 -7.9" fill="#1a0202" fill-rule="evenodd" stroke="none"/>
      <path d="M-4.8 -6.25 Q-4.3 -7.85 4.15 -4.7 12.55 -1.55 11.6 0.3 9.3 4.85 8.35 7.3 6.05 13.15 5.8 17.85 5.5 23.8 3.7 26.75 2.85 28.25 2.0 28.55 0.55 36.8 -3.0 38.3 L-6.3 38.1 Q-5.75 37.55 -5.75 35.45 -5.75 33.8 -6.0 32.35 -4.5 32.15 -2.85 29.4 L-3.75 30.25 Q-4.8 31.05 -6.35 31.55 -10.25 37.45 -12.6 38.45 L-16.05 38.35 -17.4 37.35 Q-16.0 37.3 -15.1 33.05 L-14.5 28.8 -15.75 27.7 -16.4 26.05 Q-16.95 23.75 -16.95 20.25 -16.9 15.35 -15.25 13.85 -11.75 10.65 -7.9 1.9 L-4.8 -6.25" fill="#620e0c" fill-rule="evenodd" stroke="none"/>
      <path d="M-16.95 20.25 Q-16.9 15.35 -15.25 13.85 -14.35 13.1 -13.25 11.55 -15.3 16.3 -14.45 19.3 -12.95 19.35 -11.45 18.4 L-10.25 17.5 -10.5 19.5 Q-7.35 18.45 -6.95 17.55 L-7.1 20.65 Q-7.15 24.05 -6.55 25.35 -2.9 24.6 -0.95 22.55 L-1.25 25.1 Q0.9 24.4 1.9 23.25 L1.6 25.3 Q1.2 27.5 0.65 28.1 L2.2 27.2 Q4.0 25.75 5.1 23.15 4.4 26.05 3.1 27.6 L2.0 28.55 Q0.55 36.8 -3.0 38.3 L-6.3 38.1 Q-5.8 37.55 -5.75 35.5 -5.75 33.8 -6.0 32.35 -4.3 32.0 -2.85 29.4 -4.1 30.9 -6.35 31.55 -7.05 33.2 -8.65 35.15 -10.7 37.65 -12.6 38.45 L-16.05 38.35 -17.4 37.35 Q-16.0 37.3 -15.1 33.05 L-14.5 28.8 -15.75 27.7 -16.4 26.05 Q-16.95 23.75 -16.95 20.25" fill="#420807" fill-rule="evenodd" stroke="none"/>
      <path d="M-0.6 9.65 L7.3 10.25 Q6.0 14.4 5.8 17.85 L5.45 21.45 Q2.9 22.4 0.05 21.85 -2.7 21.35 -4.1 19.75 -5.4 18.25 -3.15 13.8 L-0.6 9.65" fill="#af1712" fill-rule="evenodd" stroke="none"/>
      <path d="M-15.75 35.35 Q-14.8 35.75 -14.1 35.35 -14.45 36.3 -14.75 36.45 -12.3 35.7 -11.85 34.95 L-13.25 37.05 Q-11.8 37.35 -11.2 37.05 L-11.3 37.35 -11.75 38.05 -12.6 38.45 -16.05 38.35 -17.4 37.35 Q-16.5 37.3 -15.75 35.35" fill="#000000" fill-rule="evenodd" stroke="none"/>
      <path d="M-4.1 34.65 Q-3.0 36.7 -3.25 37.1 -1.1 36.0 -0.95 35.5 L-1.0 35.95 Q-1.05 36.55 -1.25 37.0 -2.8 38.7 -4.7 38.55 L-6.3 38.1 Q-5.9 37.7 -5.8 36.3 L-5.35 35.75 -5.05 36.15 Q-4.8 36.55 -4.9 36.7 -4.0 35.4 -4.1 34.65" fill="#000000" fill-rule="evenodd" stroke="none"/>
      <path d="M3.45 19.95 Q1.95 21.55 0.65 21.35 -6.65 20.2 -7.65 17.3 -8.5 14.85 -8.65 12.45 -8.85 9.8 -8.2 8.0 -7.35 5.65 -6.0 3.65 -4.5 1.4 -4.15 2.8 L-2.5 7.9 Q-0.25 13.45 2.7 16.0 5.15 18.15 3.45 19.95" fill="#1a0202" fill-rule="evenodd" stroke="none"/>
      <path d="M2.4 19.5 Q1.55 20.7 0.3 20.45 -1.55 20.2 -3.3 19.55 -6.5 18.45 -7.05 16.7 -7.8 14.4 -8.15 11.65 -8.5 8.55 -7.95 7.0 -7.25 5.0 -6.1 3.25 -4.75 1.25 -4.45 2.45 L-3.1 7.55 Q-1.25 13.1 1.1 15.55 3.5 18.05 2.4 19.5" fill="#620e0c" fill-rule="evenodd" stroke="none"/>
      <path d="M1.7 16.25 Q3.45 18.4 2.3 19.65 1.35 20.65 0.3 20.45 L-1.6 20.05 -4.7 19.0 Q-1.2 19.65 0.45 18.0 L1.7 16.25" fill="#000000" fill-rule="evenodd" stroke="none"/>
      <path d="M-6.2 14.2 Q-5.85 14.2 -5.6 14.45 -5.35 14.7 -5.4 15.05 -5.4 15.85 -6.2 15.85 L-6.8 15.6 -7.0 15.0 Q-7.0 14.2 -6.2 14.2" fill="#3d0706" fill-rule="evenodd" stroke="none"/>
      <path d="M-4.5 15.9 Q-4.0 15.9 -4.0 16.35 -4.0 16.85 -4.5 16.85 L-4.85 16.7 -4.95 16.35 Q-4.95 15.8 -4.5 15.9" fill="#3d0706" fill-rule="evenodd" stroke="none"/>
      <path d="M-4.5 13.95 Q-4.15 13.95 -4.15 14.3 L-4.5 14.6 -4.85 14.25 -4.5 13.95" fill="#3d0706" fill-rule="evenodd" stroke="none"/>
      <path d="M16.0 -67.4 Q15.35 -64.55 16.45 -58.85 17.75 -52.15 20.8 -46.75 23.75 -41.65 22.1 -34.65 20.8 -29.3 18.9 -27.45 17.8 -26.35 13.35 -29.35 8.9 -32.35 10.65 -33.6 12.7 -35.0 13.5 -39.55 14.4 -44.45 13.05 -49.55 11.85 -54.0 13.8 -61.15 L16.0 -67.4" fill="#1c0e0e" fill-rule="evenodd" stroke="none"/>
      <path d="M15.5 -65.55 Q14.65 -61.55 15.1 -57.65 15.45 -54.65 16.3 -52.85 17.2 -51.15 15.2 -51.65 13.2 -52.15 13.2 -53.75 13.25 -57.05 14.35 -61.65 L15.5 -65.55" fill="#3d2e2e" fill-rule="evenodd" stroke="none"/>
      <path d="M11.0 -31.5 Q13.3 -35.65 13.5 -36.95 13.65 -37.8 14.85 -38.35 L17.2 -39.4 Q20.05 -41.4 18.35 -48.35 18.05 -49.55 18.65 -48.85 L19.95 -46.4 Q21.95 -41.15 20.95 -36.05 19.9 -30.65 17.5 -29.25 L14.2 -29.15 Q13.3 -29.5 12.05 -30.55 L11.0 -31.5" fill="#3d2e2e" fill-rule="evenodd" stroke="none"/>
      <path d="M-8.75 -4.7 Q-12.2 -13.1 -12.45 -20.6 -12.7 -28.75 -9.05 -33.6 -4.9 -38.95 3.7 -39.2 18.25 -39.6 22.1 -28.7 24.05 -23.2 23.0 -16.95 22.85 -15.85 21.8 -14.35 21.5 -12.9 20.75 -2.3 19.8 7.8 18.45 8.6 13.35 11.6 6.1 11.0 L-0.1 9.8 Q-5.35 3.6 -8.75 -4.7" fill="#1a0202" fill-rule="evenodd" stroke="none"/>
      <path d="M-7.65 -5.45 Q-10.8 -13.2 -11.05 -20.1 -11.3 -27.65 -7.9 -32.05 -4.05 -37.05 3.85 -37.25 17.25 -37.6 20.8 -27.6 22.6 -22.55 21.6 -16.75 21.45 -15.75 20.5 -14.35 20.25 -13.0 19.55 -3.2 18.7 6.1 17.45 6.8 12.7 9.5 6.05 8.95 L0.3 7.9 Q-4.5 2.15 -7.65 -5.45" fill="#620e0c" fill-rule="evenodd" stroke="none"/>
      <path d="M-0.3 -36.75 L3.85 -37.25 Q17.25 -37.6 20.8 -27.6 22.6 -22.55 21.6 -16.75 21.45 -15.75 20.5 -14.35 19.5 -12.55 17.95 -11.95 16.65 -11.5 15.25 -11.95 L11.7 -12.3 7.2 -11.8 Q4.15 -11.35 2.75 -11.8 -0.75 -12.9 -2.8 -18.25 L-3.1 -19.1 Q-3.35 -22.7 -0.8 -26.15 2.45 -30.35 1.0 -32.5 0.05 -33.95 -2.7 -34.3 -1.7 -35.75 -0.3 -36.75" fill="#af1712" fill-rule="evenodd" stroke="none"/>
      <path d="M-4.1 -70.25 L-3.1 -65.65 Q-2.35 -59.75 -4.0 -54.95 -5.75 -49.7 -3.05 -41.5 -0.7 -34.5 1.05 -33.3 2.2 -32.45 1.2 -30.0 0.1 -27.4 -2.3 -26.15 -6.4 -24.0 -8.15 -26.15 -9.6 -27.75 -11.65 -32.1 -14.45 -38.1 -14.4 -42.6 -14.35 -47.25 -12.05 -51.85 -10.45 -55.1 -8.15 -57.65 -6.4 -59.65 -5.05 -64.8 -3.95 -68.9 -4.1 -70.25" fill="#1c0e0e" fill-rule="evenodd" stroke="none"/>
      <path d="M-2.5 -6.55 Q-2.8 -7.6 -1.75 -9.1 -0.85 -10.45 -0.45 -10.35 L1.75 -8.3 Q3.35 -6.6 5.8 -7.05 7.2 -7.3 8.1 -8.35 8.75 -9.2 9.4 -11.0 L11.7 -11.5 Q14.15 -11.8 15.2 -10.7 L15.5 -9.25 Q15.9 -7.75 16.55 -7.4 18.1 -6.5 19.25 -7.85 L20.05 -9.4 18.95 2.4 Q18.55 5.25 16.4 5.55 L12.75 5.25 6.3 6.3 Q3.15 6.75 2.65 3.65 2.55 3.05 2.85 1.85 L3.0 0.35 Q3.95 -2.35 10.65 -2.7 17.05 -3.0 18.75 -1.35 L18.55 -2.15 15.5 -3.3 11.2 -3.95 Q6.35 -4.05 3.5 -2.5 2.1 -1.75 1.65 -0.95 -1.85 -4.35 -2.5 -6.55" fill="#af1712" fill-rule="evenodd" stroke="none"/>
      <path d="M2.3 -11.25 Q4.25 -10.35 6.45 -10.5 L8.25 -10.85 7.8 -9.3 Q7.1 -7.85 5.5 -7.9 3.8 -7.95 2.9 -9.6 L2.3 -11.25" fill="#000000" fill-rule="evenodd" stroke="none"/>
      <path d="M15.55 -10.85 L17.65 -11.0 Q18.55 -11.15 19.05 -11.75 19.35 -10.75 18.9 -9.6 18.4 -8.4 17.5 -8.35 16.2 -8.3 15.75 -9.6 L15.55 -10.85" fill="#000000" fill-rule="evenodd" stroke="none"/>
      <path d="M2.95 -24.2 Q2.95 -23.5 2.45 -23.05 2.0 -22.55 1.3 -22.55 0.65 -22.55 0.15 -23.05 -0.35 -23.5 -0.35 -24.2 -0.35 -24.9 0.15 -25.4 0.6 -25.9 1.3 -25.9 2.0 -25.9 2.45 -25.4 2.95 -24.9 2.95 -24.2" fill="#3d0706" fill-rule="evenodd" stroke="none"/>
      <path d="M-0.35 -20.7 Q-0.35 -20.3 -0.65 -20.0 -0.95 -19.75 -1.35 -19.75 -2.3 -19.75 -2.3 -20.7 L-2.05 -21.4 -1.35 -21.7 Q-0.95 -21.7 -0.65 -21.4 L-0.35 -20.7" fill="#3d0706" fill-rule="evenodd" stroke="none"/>
      <path d="M3.55 -20.8 Q3.55 -20.15 2.85 -20.15 2.2 -20.15 2.2 -20.8 2.2 -21.5 2.85 -21.5 3.55 -21.5 3.55 -20.8" fill="#3d0706" fill-rule="evenodd" stroke="none"/>
      <path d="M5.1 -2.65 Q4.9 -3.2 4.85 -3.85 4.7 -5.1 5.3 -5.3 L7.5 -5.6 9.2 -5.45 9.35 -4.35 Q9.3 -3.45 9.05 -3.4 L7.65 -3.25 5.1 -2.65" fill="#9c7b7b" fill-rule="evenodd" stroke="none"/>
      <path d="M15.2 -3.0 L15.35 -4.1 Q15.6 -5.15 16.05 -5.1 L17.55 -4.6 18.75 -3.85 Q19.0 -3.5 18.7 -2.85 L18.2 -2.05 Q18.15 -2.0 17.6 -2.3 16.8 -2.8 15.2 -3.0" fill="#9c7b7b" fill-rule="evenodd" stroke="none"/>
      <path d="M7.25 -9.5 Q7.25 -8.85 6.75 -8.85 6.3 -8.85 6.3 -9.5 6.3 -10.15 6.75 -10.15 7.25 -10.15 7.25 -9.5" fill="#ffffff" fill-rule="evenodd" stroke="none"/>
      <path d="M18.7 -10.05 Q18.7 -9.5 18.3 -9.5 17.85 -9.5 17.85 -10.05 17.85 -10.55 18.3 -10.55 18.7 -10.55 18.7 -10.05" fill="#ffffff" fill-rule="evenodd" stroke="none"/>
      <path d="M16.0 -3.05 L16.1 -3.75 16.45 -4.5 17.65 -4.05 Q18.6 -3.6 18.65 -3.4 L18.1 -2.2 Q17.3 -2.8 16.0 -3.05" fill="#e2b3b3" fill-rule="evenodd" stroke="none"/>
      <path d="M5.65 -3.05 L5.45 -3.9 Q5.3 -4.8 5.6 -4.9 L7.35 -5.15 8.9 -5.1 9.1 -4.25 9.0 -3.55 5.65 -3.05" fill="#e2b3b3" fill-rule="evenodd" stroke="none"/>
      <path d="M-1.15 -28.8 Q-1.05 -28.45 -2.25 -27.7 -3.05 -27.2 -3.7 -27.25 -4.2 -27.3 -4.3 -27.6 -4.6 -28.2 -2.7 -28.9 L-1.7 -29.1 -1.15 -28.8" fill="#3d2e2e" fill-rule="evenodd" stroke="none"/>
      <path d="M-1.9 -30.5 Q-1.75 -30.2 -2.9 -29.45 L-4.2 -28.7 Q-4.65 -28.55 -4.85 -28.85 -5.2 -29.35 -3.45 -30.4 L-1.9 -30.5" fill="#3d2e2e" fill-rule="evenodd" stroke="none"/>
      <path d="M-9.5 -55.25 Q-6.45 -58.7 -4.95 -63.6 L-4.05 -67.75 Q-3.55 -69.75 -3.8 -65.6 -4.05 -61.9 -5.95 -55.95 -7.15 -52.15 -4.55 -43.65 -2.05 -35.65 0.3 -33.8 1.2 -33.05 0.8 -31.15 0.3 -28.95 -1.8 -28.05 -2.8 -27.6 -4.4 -29.8 L-4.15 -29.95 Q-3.1 -30.9 -3.3 -31.2 L-3.9 -31.25 -4.8 -30.75 -4.95 -30.65 Q-8.25 -35.95 -10.05 -43.5 -12.15 -52.25 -9.5 -55.25" fill="#3d2e2e" fill-rule="evenodd" stroke="none"/>
    </g>
  </defs>
</svg>
