<?xml version="1.0" encoding="UTF-8" standalone="no"?>
<svg xmlns:ffdec="https://www.free-decompiler.com/flash" xmlns:xlink="http://www.w3.org/1999/xlink" ffdec:objectType="frame" height="112.0px" width="94.15px" xmlns="http://www.w3.org/2000/svg">
  <g transform="matrix(1.0, 0.0, 0.0, 1.0, 49.9, 70.9)">
    <use ffdec:characterId="432" height="110.65" transform="matrix(1.0, 0.0, 0.0, 1.0, -49.65, -70.2)" width="93.9" xlink:href="#shape0"/>
  </g>
  <defs>
    <g id="shape0" transform="matrix(1.0, 0.0, 0.0, 1.0, 49.65, 70.2)">
      <path d="M2.5 12.8 Q-7.25 12.0 -7.9 10.75 L-7.95 10.7 Q-8.05 10.35 -7.6 9.85 -6.85 7.55 -4.95 3.8 -2.75 -0.5 -1.9 -0.55 L4.55 0.6 15.5 2.8 21.25 3.75 Q23.65 4.1 25.75 5.0 L35.7 9.6 44.0 13.55 39.15 13.05 32.45 13.85 Q25.8 14.35 18.9 13.85 L2.5 12.8" fill="#1a0c0c" fill-rule="evenodd" stroke="none"/>
      <path d="M2.5 12.8 Q-7.25 12.0 -7.9 10.75 L-7.95 10.7 Q-8.05 10.35 -7.6 9.85 L-5.25 4.4 12.4 4.55 Q23.7 4.8 24.35 5.6 24.65 5.95 30.75 8.5 37.0 11.1 39.15 13.05 L31.0 13.95 Q24.9 14.25 18.9 13.85 L2.5 12.8" fill="#330706" fill-rule="evenodd" stroke="none"/>
      <path d="M-35.85 25.9 Q-41.8 24.4 -43.7 25.0 -45.35 26.15 -47.2 26.75 -49.35 27.45 -49.6 26.6 -49.85 25.75 -48.3 24.35 -44.0 20.45 -36.45 20.45 -27.9 20.45 -21.25 17.3 -17.9 15.75 -16.1 14.15 -15.05 14.25 -15.0 19.3 -14.95 24.2 -15.75 25.15 -16.95 26.5 -21.55 27.1 -27.8 27.9 -35.85 25.9" fill="#1a0202" fill-rule="evenodd" stroke="none"/>
      <path d="M-35.5 24.95 Q-41.35 23.65 -43.05 24.0 L-46.15 25.35 -48.25 25.45 Q-48.4 24.9 -46.9 23.9 -42.75 21.1 -36.05 21.1 -28.4 21.1 -22.2 18.55 -19.1 17.25 -17.4 16.0 -16.45 16.05 -16.55 19.9 -16.6 23.65 -17.35 24.45 -18.2 25.45 -23.35 25.85 -29.4 26.3 -35.5 24.95" fill="#620e0c" fill-rule="evenodd" stroke="none"/>
      <path d="M-41.35 23.25 L-42.05 23.35 -43.05 24.0 Q-43.6 24.1 -44.4 24.55 L-46.15 25.35 Q-49.35 26.45 -47.95 24.8 -46.55 23.15 -42.6 22.0 L-41.0 22.2 -42.1 22.4 Q-43.25 22.65 -43.55 23.1 L-42.65 23.05 -41.35 23.25" fill="#000000" fill-rule="evenodd" stroke="none"/>
      <path d="M6.1 3.85 L7.65 8.7 Q9.8 14.0 12.6 16.4 14.9 18.45 13.3 20.2 11.9 21.7 10.65 21.5 L6.75 20.65 Q3.4 19.5 2.75 17.65 1.95 15.35 1.8 13.0 1.65 10.5 2.25 8.8 3.1 6.55 4.35 4.7 5.75 2.55 6.1 3.85" fill="#1a0202" fill-rule="evenodd" stroke="none"/>
      <path d="M5.8 3.55 L7.1 8.4 Q8.85 13.65 11.1 15.95 13.4 18.3 12.35 19.75 11.55 20.8 10.35 20.65 4.1 19.4 3.35 17.1 2.65 14.9 2.35 12.3 2.0 9.3 2.5 7.85 3.15 5.95 4.25 4.25 5.55 2.35 5.8 3.55" fill="#360706" fill-rule="evenodd" stroke="none"/>
      <path d="M11.65 16.6 Q13.3 18.65 12.2 19.85 11.4 20.8 10.35 20.65 7.1 20.0 5.6 19.25 8.9 19.9 10.45 18.3 11.35 17.4 11.65 16.6" fill="#000000" fill-rule="evenodd" stroke="none"/>
      <path d="M4.15 14.7 Q4.95 14.7 4.95 15.5 4.85 16.25 4.15 16.25 3.35 16.25 3.35 15.45 3.45 14.7 4.15 14.7" fill="#3d0706" fill-rule="evenodd" stroke="none"/>
      <path d="M5.8 16.3 Q6.25 16.3 6.25 16.75 6.25 17.2 5.75 17.2 5.3 17.2 5.3 16.75 5.4 16.3 5.8 16.3" fill="#3d0706" fill-rule="evenodd" stroke="none"/>
      <path d="M5.8 14.45 Q6.1 14.45 6.1 14.8 L5.75 15.1 Q5.45 15.1 5.45 14.75 5.45 14.45 5.8 14.45" fill="#3d0706" fill-rule="evenodd" stroke="none"/>
      <path d="M-5.15 -7.85 Q-4.6 -9.55 4.45 -6.2 13.45 -2.8 12.45 -0.8 10.75 2.7 9.2 7.3 6.9 14.15 6.65 19.25 6.3 25.65 4.45 28.6 3.55 30.05 2.7 30.25 1.15 39.1 -3.45 40.15 L-6.45 39.95 -7.75 39.4 Q-7.1 38.7 -7.05 36.35 L-7.15 34.2 Q-7.8 35.65 -9.45 37.35 -11.35 39.25 -13.5 40.15 -15.4 40.95 -17.85 39.45 L-19.9 37.75 Q-17.6 37.1 -16.5 33.3 L-15.85 29.6 -17.0 28.5 -17.55 26.8 Q-18.2 24.2 -18.4 20.5 -18.6 15.1 -16.85 13.5 -13.05 10.05 -8.75 0.75 L-5.15 -7.85" fill="#1a0202" fill-rule="evenodd" stroke="none"/>
      <path d="M-5.0 -6.2 Q-4.5 -7.8 3.95 -4.65 12.35 -1.5 11.4 0.35 9.1 4.9 8.15 7.35 5.85 13.2 5.6 17.9 5.3 23.85 3.5 26.8 2.65 28.3 1.8 28.6 0.35 36.85 -3.2 38.35 -4.95 39.05 -6.45 38.15 -5.95 37.6 -5.95 35.5 L-6.15 32.4 Q-5.8 32.35 -5.2 31.95 -4.1 31.15 -3.05 29.45 L-3.95 30.3 Q-5.0 31.1 -6.55 31.6 -10.4 37.5 -12.75 38.5 L-16.25 38.4 -17.6 37.4 Q-16.2 37.35 -15.3 33.1 L-14.65 28.85 -15.9 27.75 -16.55 26.1 Q-17.1 23.75 -17.1 20.3 -17.1 15.4 -15.45 13.9 -11.95 10.7 -8.1 1.95 L-5.0 -6.2" fill="#620e0c" fill-rule="evenodd" stroke="none"/>
      <path d="M-17.1 20.3 Q-17.1 15.4 -15.45 13.9 -14.65 13.25 -13.4 11.6 -15.5 16.3 -14.65 19.35 -13.1 19.4 -11.65 18.45 L-10.45 17.55 -10.7 19.55 Q-7.55 18.5 -7.15 17.6 L-7.3 20.7 Q-7.35 24.1 -6.7 25.4 -3.1 24.65 -1.15 22.6 L-1.45 25.15 Q0.7 24.45 1.7 23.3 L1.4 25.35 Q1.0 27.55 0.45 28.15 L2.0 27.25 Q3.8 25.8 4.9 23.2 4.2 26.1 2.95 27.65 L1.8 28.6 Q0.35 36.85 -3.2 38.35 -4.95 39.05 -6.45 38.15 -5.5 37.15 -6.15 32.4 -4.5 32.05 -3.05 29.45 -4.25 30.95 -6.55 31.6 -7.25 33.25 -8.85 35.2 -10.85 37.7 -12.75 38.5 L-16.25 38.4 -17.6 37.4 Q-16.2 37.35 -15.3 33.1 L-14.65 28.85 -15.9 27.75 -16.55 26.1 Q-17.1 23.75 -17.1 20.3" fill="#420807" fill-rule="evenodd" stroke="none"/>
      <path d="M-0.75 9.7 Q3.65 10.7 7.1 10.3 5.8 14.45 5.6 17.9 L5.25 21.5 Q2.7 22.45 -0.15 21.9 -2.9 21.4 -4.3 19.8 -5.6 18.3 -3.3 13.85 L-0.75 9.7" fill="#af1712" fill-rule="evenodd" stroke="none"/>
      <path d="M-15.95 35.4 Q-15.0 35.8 -14.3 35.4 -14.65 36.35 -14.95 36.5 -12.5 35.75 -12.05 35.0 L-13.45 37.1 Q-12.0 37.4 -11.4 37.1 L-11.5 37.4 -11.95 38.1 -12.75 38.5 -16.25 38.4 -17.6 37.4 Q-16.6 37.35 -15.95 35.4" fill="#000000" fill-rule="evenodd" stroke="none"/>
      <path d="M-1.15 35.55 L-1.2 36.0 Q-1.25 36.6 -1.45 37.05 -3.0 38.75 -4.85 38.6 L-6.45 38.15 Q-6.1 37.7 -6.0 36.35 -5.6 36.15 -5.55 35.8 L-5.25 36.2 -5.05 36.7 Q-4.2 35.45 -4.25 34.7 -3.15 36.75 -3.45 37.15 -1.3 36.05 -1.15 35.55" fill="#000000" fill-rule="evenodd" stroke="none"/>
      <path d="M-4.35 2.85 L-2.7 7.95 Q-0.45 13.5 2.5 16.05 4.95 18.2 3.25 20.0 1.75 21.6 0.45 21.4 L-3.65 20.5 Q-7.2 19.3 -7.85 17.35 -8.7 14.9 -8.85 12.5 -9.05 9.85 -8.4 8.05 -7.5 5.65 -6.2 3.7 -4.7 1.45 -4.35 2.85" fill="#1a0202" fill-rule="evenodd" stroke="none"/>
      <path d="M-4.65 2.5 L-3.3 7.6 Q-1.45 13.15 0.9 15.6 3.3 18.1 2.2 19.55 1.35 20.75 0.15 20.5 L-3.5 19.6 Q-6.7 18.5 -7.25 16.75 -8.0 14.45 -8.35 11.7 -8.7 8.6 -8.15 7.05 -7.45 5.05 -6.3 3.3 -4.95 1.3 -4.65 2.5" fill="#620e0c" fill-rule="evenodd" stroke="none"/>
      <path d="M1.5 16.3 Q3.25 18.4 2.1 19.7 1.2 20.7 0.15 20.5 L-1.8 20.1 Q-3.6 19.65 -4.85 19.05 -1.4 19.7 0.25 18.05 L1.5 16.3" fill="#000000" fill-rule="evenodd" stroke="none"/>
      <path d="M-6.35 14.25 Q-6.0 14.25 -5.8 14.5 -5.55 14.75 -5.55 15.1 -5.65 15.9 -6.4 15.9 L-6.95 15.65 -7.2 15.05 Q-7.2 14.25 -6.35 14.25" fill="#3d0706" fill-rule="evenodd" stroke="none"/>
      <path d="M-4.65 15.95 Q-4.2 15.95 -4.2 16.4 -4.2 16.9 -4.7 16.9 -5.15 16.9 -5.15 16.4 -5.15 15.85 -4.65 15.95" fill="#3d0706" fill-rule="evenodd" stroke="none"/>
      <path d="M-4.65 14.0 Q-4.35 14.0 -4.35 14.35 -4.35 14.65 -4.7 14.65 L-5.0 14.3 Q-5.0 14.0 -4.65 14.0" fill="#3d0706" fill-rule="evenodd" stroke="none"/>
      <path d="M15.8 -67.35 Q15.15 -64.5 16.25 -58.8 17.55 -52.1 20.6 -46.7 23.55 -41.6 21.9 -34.6 20.6 -29.25 18.7 -27.4 17.6 -26.3 13.15 -29.3 8.7 -32.3 10.45 -33.55 12.5 -34.95 13.3 -39.5 14.2 -44.4 12.85 -49.5 11.65 -53.95 13.6 -61.1 L15.8 -67.35" fill="#1c0e0e" fill-rule="evenodd" stroke="none"/>
      <path d="M15.3 -65.5 Q14.45 -61.45 14.9 -57.6 15.25 -54.55 16.15 -52.8 17.0 -51.1 15.0 -51.6 13.0 -52.1 13.05 -53.7 13.05 -57.0 14.2 -61.6 L15.3 -65.5" fill="#3d2e2e" fill-rule="evenodd" stroke="none"/>
      <path d="M10.8 -31.45 Q13.1 -35.6 13.3 -36.9 13.45 -37.75 14.65 -38.3 L17.0 -39.35 Q19.85 -41.35 18.15 -48.3 17.85 -49.5 18.45 -48.8 L19.75 -46.35 Q21.75 -41.1 20.75 -36.0 19.05 -27.1 14.0 -29.1 13.1 -29.45 11.85 -30.5 L10.8 -31.45" fill="#3d2e2e" fill-rule="evenodd" stroke="none"/>
      <path d="M-8.95 -4.65 Q-12.4 -13.05 -12.65 -20.55 -12.9 -28.7 -9.25 -33.55 -5.1 -38.9 3.5 -39.15 18.05 -39.55 21.9 -28.65 23.85 -23.15 22.8 -16.9 22.65 -15.8 21.6 -14.3 21.3 -12.85 20.55 -2.25 19.65 7.85 18.3 8.65 13.2 11.65 5.95 11.05 L-0.3 9.85 Q-5.55 3.65 -8.95 -4.65" fill="#1a0202" fill-rule="evenodd" stroke="none"/>
      <path d="M-7.8 -5.4 Q-11.0 -13.15 -11.2 -20.05 -11.5 -27.6 -8.1 -32.0 -4.25 -37.0 3.65 -37.2 17.05 -37.55 20.6 -27.55 22.4 -22.5 21.4 -16.7 21.3 -15.7 20.35 -14.3 20.05 -12.95 19.35 -3.15 18.5 6.15 17.25 6.85 12.5 9.55 5.85 9.0 L0.15 7.95 Q-4.7 2.2 -7.8 -5.4" fill="#620e0c" fill-rule="evenodd" stroke="none"/>
      <path d="M-0.45 -36.7 L3.65 -37.2 Q17.05 -37.55 20.6 -27.55 22.4 -22.5 21.4 -16.7 21.3 -15.7 20.35 -14.3 19.35 -12.5 17.8 -11.9 16.45 -11.45 15.05 -11.9 L11.5 -12.25 7.0 -11.75 Q4.0 -11.3 2.6 -11.75 -0.95 -12.85 -3.0 -18.2 L-3.3 -19.05 Q-3.45 -22.8 -0.95 -26.1 2.25 -30.3 0.85 -32.45 -0.1 -33.9 -2.9 -34.25 L-0.45 -36.7" fill="#af1712" fill-rule="evenodd" stroke="none"/>
      <path d="M-4.3 -70.2 L-3.3 -65.6 Q-2.55 -59.7 -4.2 -54.9 -5.95 -49.65 -3.25 -41.45 -0.9 -34.45 0.85 -33.25 2.05 -32.4 1.0 -29.95 -0.1 -27.35 -2.5 -26.1 -6.6 -23.9 -8.35 -26.1 -9.8 -27.7 -11.85 -32.05 -14.65 -38.05 -14.6 -42.55 -14.55 -47.2 -12.25 -51.8 -10.65 -55.05 -8.35 -57.6 -6.55 -59.6 -5.25 -64.75 -4.15 -68.85 -4.3 -70.2" fill="#1c0e0e" fill-rule="evenodd" stroke="none"/>
      <path d="M11.0 -3.9 Q6.15 -4.0 3.3 -2.45 1.9 -1.7 1.45 -0.9 -2.05 -4.3 -2.7 -6.5 -3.0 -7.55 -1.95 -9.05 -1.0 -10.4 -0.65 -10.3 L1.55 -8.25 Q3.15 -6.55 5.6 -7.0 7.05 -7.25 7.9 -8.3 8.6 -9.15 9.25 -10.95 L11.5 -11.45 Q13.95 -11.75 15.0 -10.65 L15.3 -9.2 Q15.7 -7.7 16.35 -7.35 17.9 -6.45 19.05 -7.8 L19.85 -9.35 18.8 2.45 Q18.35 5.3 16.2 5.6 L12.55 5.3 6.1 6.35 Q2.95 6.8 2.45 3.7 2.35 3.1 2.65 1.9 L2.85 0.4 Q3.8 -2.3 10.45 -2.65 16.85 -2.95 18.55 -1.3 L18.45 -1.7 18.4 -2.1 15.3 -3.25 11.0 -3.9" fill="#af1712" fill-rule="evenodd" stroke="none"/>
      <path d="M2.1 -11.2 Q4.05 -10.3 6.25 -10.45 L8.05 -10.8 7.6 -9.25 Q6.95 -7.8 5.35 -7.85 3.65 -7.9 2.7 -9.55 L2.1 -11.2" fill="#000000" fill-rule="evenodd" stroke="none"/>
      <path d="M15.35 -10.8 L17.5 -10.95 Q18.35 -11.1 18.9 -11.7 19.2 -10.7 18.7 -9.55 18.2 -8.35 17.35 -8.3 16.0 -8.25 15.55 -9.55 L15.35 -10.8" fill="#000000" fill-rule="evenodd" stroke="none"/>
      <path d="M2.75 -24.15 Q2.75 -23.45 2.25 -23.0 1.8 -22.5 1.1 -22.5 0.45 -22.5 -0.05 -23.0 -0.55 -23.45 -0.55 -24.15 -0.55 -24.85 -0.05 -25.35 0.4 -25.85 1.1 -25.85 1.8 -25.85 2.25 -25.35 2.75 -24.85 2.75 -24.15" fill="#3d0706" fill-rule="evenodd" stroke="none"/>
      <path d="M-0.55 -20.65 Q-0.55 -20.25 -0.85 -19.95 L-1.55 -19.7 -2.2 -19.95 -2.5 -20.65 -2.2 -21.35 Q-1.95 -21.65 -1.55 -21.65 -1.15 -21.65 -0.85 -21.35 -0.55 -21.05 -0.55 -20.65" fill="#3d0706" fill-rule="evenodd" stroke="none"/>
      <path d="M3.35 -20.75 Q3.35 -20.1 2.65 -20.1 2.0 -20.1 2.0 -20.75 2.0 -21.45 2.65 -21.45 3.35 -21.45 3.35 -20.75" fill="#3d0706" fill-rule="evenodd" stroke="none"/>
      <path d="M4.9 -2.6 Q4.7 -3.15 4.65 -3.8 4.5 -5.05 5.1 -5.25 L7.3 -5.55 9.0 -5.4 9.15 -4.3 Q9.15 -3.4 8.85 -3.35 6.8 -3.35 4.9 -2.6" fill="#9c7b7b" fill-rule="evenodd" stroke="none"/>
      <path d="M15.0 -2.95 L15.15 -4.05 Q15.4 -5.1 15.85 -5.05 L17.35 -4.55 18.55 -3.8 Q18.8 -3.45 18.5 -2.8 L18.0 -2.0 Q17.95 -1.95 17.45 -2.25 L15.0 -2.95" fill="#9c7b7b" fill-rule="evenodd" stroke="none"/>
      <path d="M7.05 -9.45 Q7.05 -8.8 6.55 -8.8 6.1 -8.8 6.1 -9.45 6.1 -10.1 6.55 -10.1 7.05 -10.1 7.05 -9.45" fill="#ffffff" fill-rule="evenodd" stroke="none"/>
      <path d="M18.5 -10.0 Q18.5 -9.45 18.1 -9.45 17.65 -9.45 17.65 -10.0 17.65 -10.5 18.1 -10.5 18.5 -10.5 18.5 -10.0" fill="#ffffff" fill-rule="evenodd" stroke="none"/>
      <path d="M15.8 -3.0 L15.9 -3.7 16.25 -4.45 17.45 -4.0 18.45 -3.35 18.35 -2.9 17.9 -2.15 Q17.1 -2.75 15.8 -3.0" fill="#e2b3b3" fill-rule="evenodd" stroke="none"/>
      <path d="M5.45 -3.0 L5.25 -3.85 Q5.1 -4.75 5.4 -4.85 L7.15 -5.1 8.7 -5.05 8.9 -4.2 8.8 -3.5 5.45 -3.0" fill="#e2b3b3" fill-rule="evenodd" stroke="none"/>
      <path d="M-1.35 -28.75 Q-1.25 -28.4 -2.45 -27.65 -3.25 -27.15 -3.85 -27.2 -4.4 -27.25 -4.5 -27.55 -4.8 -28.15 -2.9 -28.85 L-1.9 -29.05 Q-1.45 -29.0 -1.35 -28.75" fill="#3d2e2e" fill-rule="evenodd" stroke="none"/>
      <path d="M-2.1 -30.45 Q-1.95 -30.2 -3.05 -29.4 -4.65 -28.3 -5.05 -28.8 -5.4 -29.25 -3.6 -30.35 L-2.1 -30.45" fill="#3d2e2e" fill-rule="evenodd" stroke="none"/>
      <path d="M-9.65 -55.2 Q-6.6 -58.65 -5.15 -63.55 L-4.25 -67.7 Q-3.75 -69.7 -4.0 -65.55 -4.25 -61.85 -6.15 -55.9 -7.4 -52.05 -4.7 -43.6 -2.2 -35.6 0.15 -33.75 1.05 -33.0 0.6 -31.1 0.15 -28.9 -2.0 -28.0 -3.0 -27.55 -4.6 -29.75 L-4.35 -29.9 Q-3.3 -30.85 -3.5 -31.15 L-4.05 -31.2 -4.95 -30.7 -5.15 -30.6 Q-8.45 -35.85 -10.25 -43.45 -12.3 -52.2 -9.65 -55.2" fill="#3d2e2e" fill-rule="evenodd" stroke="none"/>
      <path d="M-4.35 16.75 Q-15.75 15.6 -16.5 14.1 L-16.55 14.0 Q-16.7 13.55 -16.1 13.0 -15.25 10.4 -12.6 5.55 -9.65 0.15 -8.6 0.15 L-1.5 1.55 10.85 4.3 17.65 5.9 Q20.35 6.55 23.0 7.8 25.9 9.15 34.6 13.45 L44.25 18.35 38.55 17.7 30.7 18.55 Q22.9 18.95 14.8 18.25 L-4.35 16.75" fill="#1a0202" fill-rule="evenodd" stroke="none"/>
      <path d="M12.55 16.5 L-3.95 15.15 Q-13.75 14.2 -14.35 12.9 L-14.4 12.85 Q-14.5 12.5 -14.05 12.0 -13.25 9.6 -11.25 5.8 -8.95 1.35 -8.1 1.35 L-1.6 2.65 9.35 5.05 15.1 6.15 Q17.55 6.55 19.6 7.5 L29.55 12.35 37.85 16.6 32.95 16.0 26.2 16.75 Q19.55 17.1 12.55 16.5" fill="#1c0e0e" fill-rule="evenodd" stroke="none"/>
    </g>
  </defs>
</svg>
