<?xml version="1.0" encoding="UTF-8" standalone="no"?>
<svg xmlns:ffdec="https://www.free-decompiler.com/flash" xmlns:xlink="http://www.w3.org/1999/xlink" ffdec:objectType="frame" height="112.0px" width="94.15px" xmlns="http://www.w3.org/2000/svg">
  <g transform="matrix(1.0, 0.0, 0.0, 1.0, 49.9, 70.9)">
    <use ffdec:characterId="433" height="110.65" transform="matrix(1.0, 0.0, 0.0, 1.0, -49.9, -69.55)" width="81.45" xlink:href="#shape0"/>
  </g>
  <defs>
    <g id="shape0" transform="matrix(1.0, 0.0, 0.0, 1.0, 49.9, 69.55)">
      <path d="M7.2 -4.55 Q9.8 -6.2 11.15 -6.35 12.8 -6.55 14.9 -5.0 L22.1 1.7 Q28.0 7.25 31.55 9.2 L27.05 9.5 Q21.85 9.35 18.6 7.15 16.55 5.75 14.7 5.7 12.8 5.7 11.7 7.1 7.8 12.1 0.25 13.4 -6.6 14.6 -7.6 12.6 L-7.65 12.55 Q-7.8 12.2 -7.35 11.7 -6.65 9.35 -4.9 5.5 -2.85 1.15 -2.0 1.1 2.55 -1.6 7.2 -4.55" fill="#1a0202" fill-rule="evenodd" stroke="none"/>
      <path d="M7.2 -3.6 Q9.45 -5.05 10.7 -5.15 12.15 -5.3 14.0 -3.95 L20.3 1.8 Q25.35 6.55 28.0 8.25 L24.55 7.85 Q20.6 7.2 17.95 5.8 15.3 4.35 14.5 4.2 12.8 3.8 11.7 5.4 8.55 10.05 1.45 11.8 -5.05 13.4 -5.95 11.65 L-6.0 11.6 -5.7 10.8 Q-5.1 8.7 -3.55 5.35 -1.7 1.5 -0.95 1.45 L7.2 -3.6" fill="#1c0e0e" fill-rule="evenodd" stroke="none"/>
      <path d="M11.35 -0.85 L11.85 -1.4 13.8 -1.65 Q17.5 -0.75 24.05 7.8 20.35 7.1 17.95 5.8 15.3 4.35 14.5 4.2 12.8 3.8 11.7 5.4 8.55 10.05 1.45 11.8 -5.05 13.4 -5.95 11.65 L-6.0 11.6 -5.7 10.8 Q-5.1 8.65 -3.35 4.95 2.1 0.7 5.65 -1.0 10.5 -3.35 11.35 -0.85" fill="#330706" fill-rule="evenodd" stroke="none"/>
      <path d="M-47.45 27.4 Q-49.55 28.1 -49.85 27.25 -50.1 26.4 -48.5 25.0 -44.25 21.1 -36.7 21.1 -28.15 21.1 -21.45 17.95 -18.1 16.4 -16.35 14.8 -15.3 14.9 -15.2 19.95 -15.15 24.9 -16.0 25.8 -17.2 27.15 -21.8 27.75 -28.05 28.55 -36.1 26.55 -42.05 25.05 -43.95 25.65 -45.6 26.8 -47.45 27.4" fill="#1a0202" fill-rule="evenodd" stroke="none"/>
      <path d="M-22.4 19.2 Q-19.3 17.9 -17.65 16.65 -16.7 16.7 -16.75 20.55 -16.8 24.3 -17.55 25.1 -18.45 26.1 -23.55 26.5 -29.6 26.95 -35.75 25.6 -41.6 24.3 -43.25 24.65 L-46.35 26.0 -48.45 26.1 Q-48.6 25.55 -47.1 24.55 -42.95 21.75 -36.25 21.75 -28.6 21.75 -22.4 19.2" fill="#620e0c" fill-rule="evenodd" stroke="none"/>
      <path d="M-42.35 23.05 Q-43.5 23.3 -43.8 23.75 L-42.85 23.7 -41.6 23.9 -42.25 24.0 Q-43.0 24.2 -43.25 24.65 -43.8 24.75 -44.6 25.2 -45.6 25.75 -46.35 26.0 -49.6 27.1 -48.15 25.45 -46.75 23.8 -42.8 22.65 L-41.2 22.85 -42.35 23.05" fill="#000000" fill-rule="evenodd" stroke="none"/>
      <path d="M7.45 9.35 Q9.6 14.65 12.4 17.05 14.7 19.1 13.05 20.85 11.65 22.35 10.4 22.15 L6.55 21.3 Q3.2 20.15 2.55 18.3 1.75 15.95 1.6 13.65 1.4 11.15 2.05 9.45 2.85 7.25 4.1 5.35 5.55 3.2 5.85 4.5 L7.45 9.35" fill="#1a0202" fill-rule="evenodd" stroke="none"/>
      <path d="M5.55 4.2 L6.85 9.05 Q8.65 14.3 10.85 16.6 13.15 18.95 12.1 20.4 11.3 21.45 10.1 21.3 L6.65 20.45 Q3.65 19.35 3.1 17.75 2.4 15.55 2.1 12.95 1.75 9.95 2.25 8.5 2.95 6.55 4.05 4.9 5.3 3.0 5.55 4.2" fill="#360706" fill-rule="evenodd" stroke="none"/>
      <path d="M11.45 17.25 Q13.1 19.3 12.0 20.5 11.15 21.45 10.1 21.3 L8.25 20.9 Q6.55 20.5 5.35 19.9 8.65 20.55 10.25 18.95 L11.45 17.25" fill="#000000" fill-rule="evenodd" stroke="none"/>
      <path d="M3.95 15.35 Q4.7 15.35 4.7 16.15 L4.45 16.7 3.9 16.9 3.4 16.65 Q3.15 16.45 3.15 16.1 3.15 15.35 3.95 15.35" fill="#3d0706" fill-rule="evenodd" stroke="none"/>
      <path d="M5.55 16.95 Q6.0 16.95 6.0 17.4 L5.55 17.85 Q5.1 17.85 5.1 17.4 5.1 16.95 5.55 16.95" fill="#3d0706" fill-rule="evenodd" stroke="none"/>
      <path d="M5.55 15.1 Q5.95 15.1 5.85 15.45 L5.55 15.75 Q5.25 15.75 5.25 15.4 5.25 15.1 5.55 15.1" fill="#3d0706" fill-rule="evenodd" stroke="none"/>
      <path d="M-5.35 -7.2 Q-4.8 -8.9 4.25 -5.55 13.25 -2.15 12.25 -0.15 10.6 3.15 9.0 7.95 6.7 14.8 6.45 19.9 6.1 26.3 4.25 29.25 3.3 30.7 2.45 30.9 0.9 39.75 -3.7 40.8 L-6.7 40.6 -8.0 40.05 Q-7.35 39.35 -7.3 37.0 L-7.4 34.85 Q-8.05 36.35 -9.7 38.0 -11.6 39.9 -13.7 40.8 -15.65 41.6 -18.05 40.1 L-20.1 38.4 Q-17.8 37.75 -16.7 33.95 L-16.05 30.25 Q-16.95 29.65 -17.25 29.15 L-17.8 27.45 Q-18.45 24.5 -18.6 21.15 -18.85 15.75 -17.05 14.15 -13.3 10.7 -8.95 1.4 L-5.35 -7.2" fill="#1a0202" fill-rule="evenodd" stroke="none"/>
      <path d="M-5.25 -5.55 Q-4.7 -7.15 3.7 -4.0 12.1 -0.85 11.2 1.0 8.9 5.55 7.95 8.0 5.65 13.85 5.4 18.55 5.1 24.5 3.3 27.45 2.45 28.95 1.6 29.25 0.15 37.5 -3.45 39.0 -5.2 39.7 -6.7 38.8 -6.2 38.25 -6.15 36.15 -6.15 34.45 -6.4 33.05 -4.95 32.85 -3.25 30.1 L-4.15 30.95 Q-5.2 31.75 -6.8 32.25 -10.65 38.15 -13.0 39.15 L-16.5 39.05 -17.85 38.05 Q-16.45 38.0 -15.55 33.75 L-14.9 29.5 -16.15 28.4 -16.8 26.75 Q-17.35 24.45 -17.35 20.95 -17.3 16.05 -15.65 14.55 -12.15 11.35 -8.35 2.6 L-5.25 -5.55" fill="#620e0c" fill-rule="evenodd" stroke="none"/>
      <path d="M0.25 28.8 L1.8 27.9 Q3.6 26.45 4.7 23.85 4.0 26.75 2.7 28.3 L1.6 29.25 Q0.15 37.5 -3.45 39.0 -5.2 39.7 -6.7 38.8 -6.2 38.25 -6.15 36.2 -6.15 34.5 -6.4 33.05 -4.7 32.7 -3.25 30.1 -4.5 31.6 -6.8 32.25 -7.45 33.85 -9.05 35.85 -11.1 38.35 -13.0 39.15 L-16.5 39.05 -17.85 38.05 Q-16.45 38.0 -15.55 33.75 L-14.9 29.5 -16.15 28.4 -16.8 26.75 Q-17.35 24.45 -17.35 20.95 -17.3 16.05 -15.65 14.55 L-13.65 12.25 Q-15.7 17.0 -14.85 20.0 -13.35 20.05 -11.85 19.1 L-10.65 18.2 Q-10.65 19.1 -10.95 20.2 -7.75 19.2 -7.4 18.25 L-7.55 21.35 Q-7.6 24.75 -6.95 26.05 -3.35 25.35 -1.35 23.25 L-1.7 25.8 Q0.45 25.1 1.45 23.95 L1.15 26.0 Q0.8 28.2 0.25 28.8" fill="#420807" fill-rule="evenodd" stroke="none"/>
      <path d="M-1.0 10.35 L6.9 10.95 Q5.6 14.8 5.4 18.55 L5.0 22.15 Q2.5 23.1 -0.35 22.55 -3.15 22.05 -4.55 20.45 -5.85 18.95 -3.55 14.5 L-1.0 10.35" fill="#af1712" fill-rule="evenodd" stroke="none"/>
      <path d="M-16.15 36.05 Q-15.2 36.45 -14.55 36.05 -14.9 37.0 -15.2 37.2 -12.7 36.4 -12.25 35.65 -13.35 37.55 -13.7 37.75 -12.2 38.05 -11.6 37.75 L-11.7 38.05 -12.2 38.75 -13.0 39.15 -16.5 39.05 -17.85 38.05 Q-16.9 38.0 -16.15 36.05" fill="#000000" fill-rule="evenodd" stroke="none"/>
      <path d="M-1.65 37.7 Q-3.2 39.4 -5.1 39.25 L-6.7 38.8 Q-6.35 38.45 -6.2 37.0 L-5.8 36.45 -5.5 36.85 -5.3 37.35 Q-4.45 36.1 -4.5 35.35 -3.4 37.4 -3.65 37.8 -1.5 36.7 -1.4 36.2 L-1.65 37.7" fill="#000000" fill-rule="evenodd" stroke="none"/>
      <path d="M-4.6 3.5 L-2.95 8.6 Q-0.65 14.15 2.3 16.7 4.75 18.85 3.0 20.65 1.5 22.25 0.2 22.05 L-3.85 21.15 Q-7.4 19.95 -8.1 18.0 -8.9 15.6 -9.1 13.15 -9.25 10.5 -8.6 8.7 -7.75 6.35 -6.45 4.35 -4.95 2.1 -4.6 3.5" fill="#1a0202" fill-rule="evenodd" stroke="none"/>
      <path d="M-4.9 3.15 L-3.5 8.25 Q-1.65 13.8 0.7 16.25 3.1 18.75 2.0 20.2 1.15 21.4 -0.1 21.15 -1.95 20.9 -3.7 20.25 -6.9 19.15 -7.45 17.4 -8.25 15.2 -8.55 12.35 -8.95 9.25 -8.4 7.7 -7.65 5.65 -6.5 3.95 -5.15 1.95 -4.9 3.15" fill="#620e0c" fill-rule="evenodd" stroke="none"/>
      <path d="M1.3 16.95 Q3.05 19.1 1.9 20.35 0.95 21.35 -0.1 21.15 L-2.05 20.75 -5.1 19.7 Q-1.6 20.35 0.05 18.7 L1.3 16.95" fill="#000000" fill-rule="evenodd" stroke="none"/>
      <path d="M-6.65 16.55 L-7.2 16.3 -7.45 15.7 -7.2 15.15 Q-6.95 14.9 -6.6 14.9 -6.25 14.9 -6.05 15.15 -5.8 15.4 -5.8 15.75 L-6.05 16.3 -6.65 16.55" fill="#3d0706" fill-rule="evenodd" stroke="none"/>
      <path d="M-4.9 16.6 Q-4.4 16.6 -4.4 17.05 -4.4 17.55 -4.9 17.55 -5.4 17.55 -5.4 17.05 L-5.25 16.7 -4.9 16.6" fill="#3d0706" fill-rule="evenodd" stroke="none"/>
      <path d="M-4.9 14.65 Q-4.55 14.65 -4.55 15.0 -4.55 15.3 -4.9 15.3 L-5.25 14.95 Q-5.25 14.65 -4.9 14.65" fill="#3d0706" fill-rule="evenodd" stroke="none"/>
      <path d="M15.55 -66.7 Q14.9 -63.8 16.0 -58.15 17.3 -51.4 20.4 -46.05 23.35 -40.95 21.65 -33.95 20.4 -28.65 18.5 -26.75 17.35 -25.65 12.9 -28.65 8.5 -31.65 10.25 -32.9 12.3 -34.3 13.1 -38.85 14.0 -43.75 12.65 -48.85 11.45 -53.3 13.4 -60.45 L15.55 -66.7" fill="#1c0e0e" fill-rule="evenodd" stroke="none"/>
      <path d="M15.1 -64.85 Q14.25 -60.8 14.7 -56.95 15.0 -53.9 15.9 -52.15 16.8 -50.45 14.8 -50.95 12.8 -51.45 12.8 -53.05 12.85 -56.35 13.95 -60.95 L15.1 -64.85" fill="#3d2e2e" fill-rule="evenodd" stroke="none"/>
      <path d="M17.9 -47.65 Q17.6 -48.85 18.2 -48.15 L19.55 -45.7 Q21.55 -40.5 20.55 -35.35 19.5 -29.95 17.1 -28.55 L13.8 -28.45 Q12.9 -28.8 11.65 -29.85 L10.6 -30.8 Q12.85 -34.95 13.1 -36.25 13.35 -37.7 16.75 -38.7 19.6 -40.7 17.9 -47.65" fill="#3d2e2e" fill-rule="evenodd" stroke="none"/>
      <path d="M3.3 -38.5 Q17.85 -38.9 21.7 -28.0 23.65 -22.5 22.6 -16.25 22.45 -15.15 21.4 -13.65 21.1 -12.2 20.35 -1.6 19.4 8.5 18.05 9.3 12.95 12.3 5.7 11.7 L-0.55 10.5 Q-5.8 4.3 -9.15 -4.0 -12.6 -12.4 -12.85 -19.9 -13.1 -28.1 -9.45 -32.9 -5.3 -38.25 3.3 -38.5" fill="#1a0202" fill-rule="evenodd" stroke="none"/>
      <path d="M3.4 -36.55 Q16.85 -36.9 20.4 -26.9 22.2 -21.85 21.2 -16.05 21.05 -15.05 20.1 -13.65 19.8 -12.3 19.1 -2.5 18.3 6.8 17.05 7.5 12.3 10.2 5.65 9.65 L-0.1 8.6 Q-4.95 2.85 -8.05 -4.75 -11.25 -12.5 -11.45 -19.4 -11.75 -26.95 -8.35 -31.35 -4.5 -36.35 3.4 -36.55" fill="#620e0c" fill-rule="evenodd" stroke="none"/>
      <path d="M-0.7 -36.05 L3.4 -36.55 Q16.85 -36.9 20.4 -26.9 22.2 -21.85 21.2 -16.05 21.05 -15.05 20.1 -13.65 19.1 -11.85 17.55 -11.25 16.25 -10.8 14.85 -11.25 L11.3 -11.6 6.8 -11.1 Q3.75 -10.65 2.35 -11.1 -1.15 -12.2 -3.2 -17.55 L-3.5 -18.4 Q-3.75 -22.1 -1.2 -25.45 2.05 -29.65 0.6 -31.8 -0.35 -33.25 -3.15 -33.6 L-0.7 -36.05" fill="#af1712" fill-rule="evenodd" stroke="none"/>
      <path d="M-4.55 -69.55 L-3.55 -64.95 Q-2.75 -59.05 -4.4 -54.25 -6.15 -49.0 -3.45 -40.8 -1.1 -33.8 0.65 -32.6 1.8 -31.75 0.75 -29.3 -0.3 -26.7 -2.75 -25.45 -6.75 -23.3 -8.6 -25.45 -10.1 -27.2 -12.05 -31.4 -14.85 -37.4 -14.8 -41.9 -14.75 -46.55 -12.45 -51.15 -10.85 -54.35 -8.55 -56.95 -6.8 -58.95 -5.45 -64.1 -4.4 -68.2 -4.55 -69.55" fill="#1c0e0e" fill-rule="evenodd" stroke="none"/>
      <path d="M10.8 -3.25 Q5.95 -3.35 3.1 -1.8 1.7 -1.05 1.25 -0.25 -2.3 -3.65 -2.9 -5.85 -3.25 -6.9 -2.2 -8.4 -1.25 -9.75 -0.85 -9.65 L1.35 -7.6 Q2.95 -5.9 5.4 -6.35 6.8 -6.6 7.7 -7.65 8.35 -8.5 9.0 -10.3 L11.3 -10.8 Q13.75 -11.1 14.8 -10.0 L15.05 -8.55 Q15.45 -7.05 16.1 -6.7 17.7 -5.8 18.85 -7.15 19.4 -7.85 19.65 -8.7 L18.55 3.1 Q18.15 5.95 16.0 6.25 L12.35 5.95 5.9 7.0 Q2.75 7.45 2.25 4.35 2.15 3.75 2.45 2.55 L2.6 1.05 Q3.55 -1.65 10.2 -2.0 16.6 -2.3 18.3 -0.65 L18.15 -1.45 Q17.2 -2.05 15.1 -2.6 L10.8 -3.25" fill="#af1712" fill-rule="evenodd" stroke="none"/>
      <path d="M1.9 -10.55 Q3.85 -9.65 6.05 -9.8 L7.8 -10.15 Q7.75 -9.3 7.4 -8.6 6.7 -7.15 5.1 -7.2 3.4 -7.25 2.45 -8.9 L1.9 -10.55" fill="#000000" fill-rule="evenodd" stroke="none"/>
      <path d="M15.15 -10.15 L17.25 -10.3 Q18.15 -10.45 18.65 -11.05 18.95 -10.05 18.45 -8.9 17.95 -7.7 17.1 -7.65 15.8 -7.6 15.35 -8.9 L15.15 -10.15" fill="#000000" fill-rule="evenodd" stroke="none"/>
      <path d="M2.55 -23.5 Q2.55 -22.8 2.05 -22.35 1.6 -21.85 0.9 -21.85 0.2 -21.85 -0.3 -22.35 -0.75 -22.8 -0.75 -23.5 L-0.3 -24.7 Q0.2 -25.2 0.9 -25.2 1.6 -25.2 2.05 -24.7 2.55 -24.2 2.55 -23.5" fill="#3d0706" fill-rule="evenodd" stroke="none"/>
      <path d="M-0.75 -20.0 Q-0.75 -19.6 -1.05 -19.3 -1.35 -19.05 -1.75 -19.05 L-2.45 -19.3 -2.75 -20.0 -2.45 -20.7 -1.75 -21.0 Q-1.35 -21.0 -1.05 -20.7 -0.75 -20.4 -0.75 -20.0" fill="#3d0706" fill-rule="evenodd" stroke="none"/>
      <path d="M3.15 -20.1 L2.95 -19.65 2.45 -19.45 Q1.75 -19.45 1.75 -20.1 1.75 -20.8 2.45 -20.8 3.15 -20.8 3.15 -20.1" fill="#3d0706" fill-rule="evenodd" stroke="none"/>
      <path d="M4.7 -1.95 Q4.5 -2.5 4.45 -3.15 4.3 -4.4 4.9 -4.6 L7.1 -4.9 8.75 -4.75 8.95 -3.65 Q8.9 -2.75 8.65 -2.7 L7.25 -2.55 4.7 -1.95" fill="#9c7b7b" fill-rule="evenodd" stroke="none"/>
      <path d="M14.8 -2.3 L14.95 -3.4 Q15.15 -4.45 15.6 -4.4 L17.15 -3.9 18.35 -3.15 Q18.6 -2.8 18.3 -2.15 L17.8 -1.35 Q17.75 -1.3 17.2 -1.6 16.4 -2.1 14.8 -2.3" fill="#9c7b7b" fill-rule="evenodd" stroke="none"/>
      <path d="M6.8 -8.8 Q6.8 -8.15 6.35 -8.15 5.9 -8.15 5.9 -8.8 5.9 -9.45 6.35 -9.45 6.8 -9.45 6.8 -8.8" fill="#ffffff" fill-rule="evenodd" stroke="none"/>
      <path d="M18.25 -9.35 Q18.25 -8.8 17.85 -8.8 17.45 -8.8 17.45 -9.35 17.45 -9.85 17.85 -9.85 18.25 -9.85 18.25 -9.35" fill="#ffffff" fill-rule="evenodd" stroke="none"/>
      <path d="M15.6 -2.35 L15.7 -3.05 16.05 -3.8 17.25 -3.35 Q18.2 -2.9 18.2 -2.7 L17.7 -1.5 Q16.9 -2.1 15.6 -2.35" fill="#e2b3b3" fill-rule="evenodd" stroke="none"/>
      <path d="M5.25 -2.35 L5.05 -3.2 Q4.9 -4.1 5.2 -4.2 L6.9 -4.45 8.45 -4.4 8.7 -3.55 8.6 -2.85 5.25 -2.35" fill="#e2b3b3" fill-rule="evenodd" stroke="none"/>
      <path d="M-1.6 -28.1 Q-1.45 -27.75 -2.65 -27.0 -3.45 -26.5 -4.1 -26.55 -4.6 -26.6 -4.75 -26.9 -4.95 -27.55 -3.1 -28.2 L-2.1 -28.4 Q-1.65 -28.35 -1.6 -28.1" fill="#3d2e2e" fill-rule="evenodd" stroke="none"/>
      <path d="M-2.3 -29.8 Q-2.2 -29.55 -3.3 -28.75 L-4.6 -28.0 Q-5.05 -27.85 -5.25 -28.15 -5.65 -28.6 -3.85 -29.7 L-2.3 -29.8" fill="#3d2e2e" fill-rule="evenodd" stroke="none"/>
      <path d="M-5.35 -62.9 L-4.45 -67.05 Q-3.95 -69.05 -4.2 -64.9 -4.45 -61.2 -6.35 -55.25 -7.55 -51.45 -4.95 -42.95 -2.45 -34.95 -0.1 -33.1 0.85 -32.35 0.4 -30.45 -0.1 -28.25 -2.25 -27.35 -3.25 -26.9 -4.8 -29.1 L-4.6 -29.25 Q-3.55 -30.15 -3.7 -30.5 L-4.3 -30.55 -5.2 -30.05 -5.35 -29.95 Q-8.65 -35.25 -10.45 -42.8 -12.55 -51.55 -9.9 -54.55 -6.85 -58.0 -5.35 -62.9" fill="#3d2e2e" fill-rule="evenodd" stroke="none"/>
      <path d="M1.45 -4.55 Q4.5 -6.3 6.1 -6.4 8.0 -6.5 10.3 -4.65 L18.35 3.45 Q24.9 10.1 28.9 12.55 L23.65 12.7 Q17.65 12.3 14.0 9.55 11.7 7.85 9.55 7.7 7.4 7.6 6.05 9.15 1.3 14.8 -7.5 15.95 -10.85 16.35 -13.55 15.95 -16.1 15.5 -16.55 14.6 L-16.55 14.55 Q-16.75 14.2 -16.2 13.55 -15.2 10.8 -13.05 6.55 -10.45 1.6 -9.5 1.6 -4.1 -1.35 1.45 -4.55" fill="#1a0202" fill-rule="evenodd" stroke="none"/>
      <path d="M1.35 -3.4 Q4.05 -4.95 5.45 -5.05 7.15 -5.15 9.2 -3.5 L16.25 3.45 Q21.9 9.2 24.85 11.25 L20.9 10.65 Q16.3 9.75 13.35 7.95 10.35 6.15 9.45 5.95 7.5 5.45 6.15 7.25 2.3 12.5 -6.0 14.1 -13.6 15.6 -14.6 13.55 L-14.6 13.5 Q-14.7 13.15 -14.25 12.65 -13.45 10.25 -11.5 6.45 -9.2 2.0 -8.35 2.0 -3.55 -0.6 1.35 -3.4" fill="#1c0e0e" fill-rule="evenodd" stroke="none"/>
    </g>
  </defs>
</svg>
