<?xml version="1.0" encoding="UTF-8" standalone="no"?>
<svg xmlns:ffdec="https://www.free-decompiler.com/flash" xmlns:xlink="http://www.w3.org/1999/xlink" ffdec:objectType="frame" height="19.3px" width="19.15px" xmlns="http://www.w3.org/2000/svg">
  <g transform="matrix(1.0, 0.0, 0.0, 1.0, 9.5, 9.4)">
    <use ffdec:characterId="1519" height="19.3" transform="matrix(1.0, 0.0, 0.0, 1.0, -2.15, -9.4)" width="4.05" xlink:href="#shape0"/>
    <use ffdec:characterId="1514" height="19.3" transform="matrix(0.3623, 0.0, 0.0, 1.0, 0.2639, -9.4)" width="11.05" xlink:href="#sprite0"/>
    <use ffdec:characterId="1516" height="19.3" transform="matrix(0.3366, 0.0, 0.0, 1.0, -4.2248, -9.4)" width="15.25" xlink:href="#sprite1"/>
    <use ffdec:characterId="1518" height="14.85" transform="matrix(0.2984, 0.0, 0.0, 1.0, -2.9876, -7.2)" width="9.25" xlink:href="#sprite2"/>
  </g>
  <defs>
    <g id="shape0" transform="matrix(1.0, 0.0, 0.0, 1.0, 1.95, 9.4)">
      <path d="M1.5 -5.35 L1.8 -3.4 -1.85 -3.35 -1.85 -5.2 -1.75 -5.35 1.5 -5.35 M2.0 1.6 L1.65 4.8 -1.85 4.8 -1.95 3.15 -1.95 1.6 1.9 1.65 2.0 1.6" fill="#ab9620" fill-rule="evenodd" stroke="none"/>
      <path d="M1.5 -5.35 L-1.75 -5.35 -1.75 -5.9 -1.75 -6.7 -1.6 -9.35 -0.6 -9.4 Q1.85 -9.5 1.8 -8.35 L1.5 -5.35 M1.65 4.8 L1.8 6.0 2.1 8.5 Q2.2 9.8 0.5 9.85 L-1.6 9.9 -1.7 8.45 -1.75 6.4 -1.85 4.8 1.65 4.8" fill="#8b7a1a" fill-rule="evenodd" stroke="none"/>
      <path d="M-1.85 -3.35 L1.8 -3.4 2.0 0.35 2.0 1.6 1.9 1.65 -1.95 1.6 -1.85 -3.35" fill="#bda623" fill-rule="evenodd" stroke="none"/>
    </g>
    <g id="sprite0" transform="matrix(1.0, 0.0, 0.0, 1.0, 3.55, 9.65)">
      <use ffdec:characterId="1513" height="19.3" transform="matrix(1.0, 0.0, 0.0, 1.0, -3.55, -9.65)" width="11.05" xlink:href="#shape1"/>
    </g>
    <g id="shape1" transform="matrix(1.0, 0.0, 0.0, 1.0, 3.55, 9.65)">
      <path d="M6.15 -5.6 L6.1 -5.6 -3.15 -5.6 -3.1 -6.15 -3.0 -6.95 -2.55 -9.3 -1.55 -9.6 0.15 -9.65 Q1.95 -9.6 3.6 -8.5 5.15 -7.45 6.15 -5.6 M6.7 4.55 L6.65 4.65 Q5.65 6.95 3.85 8.3 2.05 9.7 0.0 9.65 L-1.9 9.65 -2.7 9.3 -2.7 9.15 -2.85 8.2 -3.15 6.15 -3.35 4.55 6.7 4.55" fill="#8b7a1a" fill-rule="evenodd" stroke="none"/>
      <path d="M-3.4 -3.6 L7.0 -3.65 Q7.55 -1.85 7.5 0.1 L7.45 1.35 7.35 1.4 -3.55 1.35 -3.4 -3.6" fill="#bda623" fill-rule="evenodd" stroke="none"/>
      <path d="M6.15 -5.6 L7.0 -3.65 -3.4 -3.6 -3.2 -5.45 -3.15 -5.6 6.1 -5.6 6.15 -5.6 M7.45 1.35 Q7.25 3.35 6.7 4.55 L-3.35 4.55 -3.45 2.9 -3.55 1.35 7.35 1.4 7.45 1.35" fill="#ab9620" fill-rule="evenodd" stroke="none"/>
    </g>
    <g id="sprite1" transform="matrix(1.0, 0.0, 0.0, 1.0, 7.65, 9.65)">
      <use ffdec:characterId="1515" height="19.3" transform="matrix(1.0, 0.0, 0.0, 1.0, -7.65, -9.65)" width="15.25" xlink:href="#shape2"/>
    </g>
    <g id="shape2" transform="matrix(1.0, 0.0, 0.0, 1.0, 7.65, 9.65)">
      <path d="M0.0 -9.65 Q3.1 -9.65 5.3 -6.8 7.4 -3.95 7.35 0.05 7.35 4.05 5.15 6.85 2.95 9.65 -0.15 9.65 -3.25 9.6 -5.45 6.75 -7.65 3.9 -7.65 -0.1 -7.6 -4.1 -5.3 -6.9 -3.1 -9.7 0.0 -9.65" fill="#ceb226" fill-rule="evenodd" stroke="none"/>
      <path d="M2.35 -4.85 Q4.0 -2.7 3.95 0.55 3.95 3.9 2.25 6.25 0.6 8.65 -1.7 8.65 -4.0 8.6 -5.7 6.2 -7.3 3.8 -7.3 0.45 -7.25 -2.8 -5.6 -4.9 -3.95 -6.85 -1.55 -6.8 0.8 -6.8 2.35 -4.85" fill="#bda323" fill-rule="evenodd" stroke="none"/>
      <path d="M2.05 -9.3 L3.45 -8.7 Q5.05 -7.7 6.1 -6.05 L5.55 -6.0 Q4.7 -7.5 3.3 -8.55 L2.05 -9.3" fill="#ffec8e" fill-rule="evenodd" stroke="none"/>
      <path d="M6.1 -6.05 Q7.0 -4.6 7.25 -3.25 7.75 -0.9 7.5 0.85 L6.7 0.85 Q6.9 -1.15 6.45 -3.45 6.2 -4.8 5.55 -6.0 L6.1 -6.05" fill="#ffffcc" fill-rule="evenodd" stroke="none"/>
      <path d="M6.7 0.85 L7.5 0.85 Q6.95 6.2 2.85 8.9 L4.6 7.0 Q6.5 4.35 6.7 0.85" fill="#ffec8e" fill-rule="evenodd" stroke="none"/>
    </g>
    <g id="sprite2" transform="matrix(1.0, 0.0, 0.0, 1.0, 4.65, 7.4)">
      <use ffdec:characterId="1517" height="14.85" transform="matrix(1.0, 0.0, 0.0, 1.0, -4.65, -7.4)" width="9.25" xlink:href="#shape3"/>
    </g>
    <g id="shape3" transform="matrix(1.0, 0.0, 0.0, 1.0, 4.65, 7.4)">
      <path d="M0.95 -6.95 L1.4 -7.0 1.2 -5.5 1.1 -5.2 3.9 -5.25 4.3 -5.25 4.6 -0.9 2.0 -0.9 2.05 -0.95 2.35 -3.4 1.7 -3.35 -1.85 -3.3 -1.95 -1.7 -1.95 -1.65 4.0 0.95 4.45 1.1 4.5 5.7 1.1 5.45 1.2 7.45 -1.05 7.25 -0.85 5.3 -1.55 5.35 -4.0 5.4 -4.0 5.3 -3.95 1.45 -2.3 1.6 -1.9 1.6 -1.8 3.2 -1.75 3.5 2.15 3.65 2.15 2.0 -3.9 -0.4 -3.95 -5.15 -0.85 -5.2 -1.05 -6.75 0.95 -6.95" fill="#705f00" fill-rule="evenodd" stroke="none"/>
      <path d="M-1.8 3.2 L1.5 3.3 1.45 1.85 -4.45 -0.55 -4.6 -5.5 -1.55 -5.5 -1.75 -7.05 1.0 -7.4 0.95 -6.95 -1.05 -6.75 -0.85 -5.2 -3.95 -5.15 -3.9 -0.4 2.15 2.0 2.15 3.65 -1.75 3.5 -1.8 3.2 M1.2 -5.5 L3.9 -5.6 3.9 -5.25 1.1 -5.2 1.2 -5.5 M2.05 -0.95 L1.3 -0.95 1.7 -3.35 2.35 -3.4 2.05 -0.95 M-1.95 -1.7 L4.0 0.8 4.0 0.95 -1.95 -1.65 -1.95 -1.7 M-1.05 7.25 L-1.75 7.2 -1.55 5.35 -0.85 5.3 -1.05 7.25 M-4.0 5.3 L-4.65 5.25 -4.6 1.05 -2.3 1.3 -2.3 1.6 -3.95 1.45 -4.0 5.3" fill="#ffffcc" fill-rule="evenodd" stroke="none"/>
    </g>
  </defs>
</svg>
