<?xml version="1.0" encoding="UTF-8" standalone="no"?>
<svg xmlns:ffdec="https://www.free-decompiler.com/flash" xmlns:xlink="http://www.w3.org/1999/xlink" ffdec:objectType="frame" height="19.3px" width="19.15px" xmlns="http://www.w3.org/2000/svg">
  <g transform="matrix(1.0, 0.0, 0.0, 1.0, 9.5, 9.4)">
    <use ffdec:characterId="1520" height="19.3" transform="matrix(1.0, 0.0, 0.0, 1.0, -1.85, -9.4)" width="3.4" xlink:href="#shape0"/>
    <use ffdec:characterId="1516" height="19.3" transform="matrix(0.0192, 0.0, 0.0, 1.0, -1.747, -9.4)" width="15.25" xlink:href="#sprite0"/>
  </g>
  <defs>
    <g id="shape0" transform="matrix(1.0, 0.0, 0.0, 1.0, 1.85, 9.4)">
      <path d="M1.55 -5.35 L1.55 -3.4 -1.75 -3.35 -1.75 -5.2 -1.65 -5.35 1.55 -5.35 M1.55 1.65 L1.55 4.8 -1.75 4.8 -1.85 3.15 -1.85 1.6 1.55 1.65" fill="#ab9620" fill-rule="evenodd" stroke="none"/>
      <path d="M-1.65 -5.35 L-1.65 -5.9 -1.65 -6.7 -1.5 -9.35 -0.5 -9.4 1.55 -9.05 1.55 -5.35 -1.65 -5.35 M1.55 4.8 L1.55 9.65 0.6 9.85 -1.5 9.9 -1.6 8.45 -1.65 6.4 -1.75 4.8 1.55 4.8" fill="#8b7a1a" fill-rule="evenodd" stroke="none"/>
      <path d="M1.55 -3.4 L1.55 1.65 -1.85 1.6 -1.75 -3.35 1.55 -3.4" fill="#bda623" fill-rule="evenodd" stroke="none"/>
    </g>
    <g id="sprite0" transform="matrix(1.0, 0.0, 0.0, 1.0, 7.65, 9.65)">
      <use ffdec:characterId="1515" height="19.3" transform="matrix(1.0, 0.0, 0.0, 1.0, -7.65, -9.65)" width="15.25" xlink:href="#shape1"/>
    </g>
    <g id="shape1" transform="matrix(1.0, 0.0, 0.0, 1.0, 7.65, 9.65)">
      <path d="M0.0 -9.65 Q3.1 -9.65 5.3 -6.8 7.4 -3.95 7.35 0.05 7.35 4.05 5.15 6.85 2.95 9.65 -0.15 9.65 -3.25 9.6 -5.45 6.75 -7.65 3.9 -7.65 -0.1 -7.6 -4.1 -5.3 -6.9 -3.1 -9.7 0.0 -9.65" fill="#ceb226" fill-rule="evenodd" stroke="none"/>
      <path d="M2.35 -4.85 Q4.0 -2.7 3.95 0.55 3.95 3.9 2.25 6.25 0.6 8.65 -1.7 8.65 -4.0 8.6 -5.7 6.2 -7.3 3.8 -7.3 0.45 -7.25 -2.8 -5.6 -4.9 -3.95 -6.85 -1.55 -6.8 0.8 -6.8 2.35 -4.85" fill="#bda323" fill-rule="evenodd" stroke="none"/>
      <path d="M2.05 -9.3 L3.45 -8.7 Q5.05 -7.7 6.1 -6.05 L5.55 -6.0 Q4.7 -7.5 3.3 -8.55 L2.05 -9.3" fill="#ffec8e" fill-rule="evenodd" stroke="none"/>
      <path d="M6.1 -6.05 Q7.0 -4.6 7.25 -3.25 7.75 -0.9 7.5 0.85 L6.7 0.85 Q6.9 -1.15 6.45 -3.45 6.2 -4.8 5.55 -6.0 L6.1 -6.05" fill="#ffffcc" fill-rule="evenodd" stroke="none"/>
      <path d="M6.7 0.85 L7.5 0.85 Q6.95 6.2 2.85 8.9 L4.6 7.0 Q6.5 4.35 6.7 0.85" fill="#ffec8e" fill-rule="evenodd" stroke="none"/>
    </g>
  </defs>
</svg>
