<?xml version="1.0" encoding="UTF-8" standalone="no"?>
<svg xmlns:ffdec="https://www.free-decompiler.com/flash" xmlns:xlink="http://www.w3.org/1999/xlink" ffdec:objectType="frame" height="30.0px" width="30.0px" xmlns="http://www.w3.org/2000/svg">
  <g transform="matrix(1.0, 0.0, 0.0, 1.0, 0.0, 0.0)">
    <use ffdec:characterId="142" height="90.0" transform="matrix(0.3333, 0.0, 0.0, 0.3333, 0.0, 0.0)" width="90.0" xlink:href="#sprite0"/>
  </g>
  <defs>
    <g id="sprite0" transform="matrix(1.0, 0.0, 0.0, 1.0, 0.0, 0.0)">
      <use ffdec:characterId="140" height="90.0" transform="matrix(1.0, 0.0, 0.0, 1.0, 0.0, 0.0)" width="90.0" xlink:href="#sprite1"/>
      <use ffdec:characterId="141" height="53.95" transform="matrix(1.0, 0.0, 0.0, 1.0, 5.0, 18.0)" width="80.0" xlink:href="#shape1"/>
    </g>
    <g id="sprite1" transform="matrix(1.0, 0.0, 0.0, 1.0, 0.0, 0.0)">
      <use ffdec:characterId="139" height="23.0" transform="matrix(0.8435, 0.0, 0.0, 3.913, 0.0056, 0.0127)" width="106.7" xlink:href="#shape0"/>
    </g>
    <g id="shape0" transform="matrix(1.0, 0.0, 0.0, 1.0, -32.55, -101.05)">
      <path d="M32.55 101.05 L139.25 101.05 139.25 124.05 32.55 124.05 32.55 101.05" fill="#000000" fill-opacity="0.003921569" fill-rule="evenodd" stroke="none"/>
    </g>
    <g id="shape1" transform="matrix(1.0, 0.0, 0.0, 1.0, -5.0, -18.0)">
      <path d="M52.3 48.9 L52.4 48.7 52.75 48.35 52.8 48.4 52.3 48.9 M53.7 47.6 L53.65 47.55 56.25 45.05 57.5 43.9 57.55 43.9 53.7 47.6 M44.15 54.8 L44.2 54.7 44.25 54.75 44.15 54.8 M46.75 55.0 L45.95 54.45 46.35 54.7 46.75 55.0" fill="#fdd969" fill-rule="evenodd" stroke="none"/>
      <path d="M57.35 40.55 L57.45 40.5 57.45 40.55 57.4 40.55 57.35 40.55" fill="#5f1d1f" fill-rule="evenodd" stroke="none"/>
      <path d="M29.9 40.45 Q30.65 37.25 32.0 33.75 32.7 31.9 33.55 30.3 34.6 28.45 35.75 26.95 38.15 23.9 40.7 22.5 42.8 21.5 45.2 21.5 L46.4 21.5 Q49.75 21.9 51.6 23.2 L53.7 24.85 53.7 25.0 55.8 28.95 58.95 34.65 Q59.9 36.65 60.8 40.5 L58.9 40.25 57.4 38.65 54.45 36.3 56.65 39.1 57.55 40.05 56.95 40.0 52.65 39.2 51.5 39.1 51.3 38.65 49.5 34.5 Q47.95 30.9 46.75 29.15 L45.9 28.25 45.8 28.0 Q45.65 27.1 44.9 28.05 44.3 28.6 43.4 30.1 42.75 29.65 42.0 28.85 40.8 27.55 39.95 27.45 L41.6 29.35 43.05 30.7 42.05 32.35 40.35 35.55 39.15 34.55 Q37.45 33.25 37.2 32.6 36.9 32.8 36.9 33.05 L37.65 34.15 38.55 34.95 39.65 36.1 39.95 36.4 Q39.3 37.7 38.95 38.8 L38.85 38.95 36.2 39.25 35.25 39.4 34.45 38.45 Q33.65 37.7 33.3 38.45 L34.4 39.25 34.65 39.45 Q30.85 40.0 29.9 40.45 M37.45 64.4 L35.85 63.15 35.8 63.1 39.35 61.15 40.5 60.5 45.0 57.8 49.1 60.45 53.7 63.05 53.55 63.15 51.0 64.1 47.6 64.7 46.15 63.5 43.95 62.0 Q44.3 62.8 46.2 64.55 L46.6 64.9 46.1 64.95 41.85 65.0 38.4 64.4 37.8 64.5 37.45 64.4 M33.45 60.25 L32.1 58.2 Q30.15 55.15 29.5 52.95 28.95 51.05 28.95 48.05 L29.05 44.9 29.15 44.4 33.0 48.35 35.25 50.5 35.15 51.0 34.75 53.4 Q32.45 50.75 30.9 51.3 L33.0 53.25 34.55 54.5 34.5 54.65 33.75 58.6 33.45 60.25 M53.6 52.6 L54.05 54.35 54.45 56.75 54.55 57.35 53.6 52.6 M62.15 40.75 L62.15 40.7 62.05 40.35 62.15 40.75 M61.55 46.85 L61.55 47.8 61.35 49.35 60.3 53.35 59.75 52.85 Q58.25 51.6 57.8 52.05 L60.05 54.1 60.0 54.2 59.2 56.25 59.1 56.4 57.35 59.05 56.6 55.8 55.55 52.2 55.05 50.8 Q57.25 49.15 61.4 44.9 L61.55 46.85 M62.05 53.25 L61.95 53.7 61.2 55.85 61.4 55.25 62.05 53.25" fill="#d1ffff" fill-rule="evenodd" stroke="none"/>
      <path d="M53.7 24.85 L53.95 25.05 54.45 24.95 Q56.5 27.35 58.4 30.8 L60.8 35.95 60.8 35.9 61.1 36.95 61.45 37.95 61.5 38.1 61.5 38.15 61.65 38.55 61.65 38.6 61.7 38.7 61.7 38.75 62.0 40.05 62.05 40.35 62.15 40.7 62.15 40.75 62.35 41.75 62.4 41.95 62.45 42.05 62.45 42.1 62.45 42.25 62.5 42.35 62.45 42.35 62.55 43.1 62.6 43.45 62.65 43.65 62.65 43.9 62.7 44.15 62.8 46.15 62.8 46.35 62.8 46.4 62.8 48.15 62.8 48.65 62.8 48.75 62.7 49.95 62.7 50.1 62.4 52.15 61.2 56.25 60.9 57.05 60.85 57.2 60.75 57.35 60.25 58.25 60.25 58.3 59.7 59.15 58.75 60.45 58.6 60.65 58.3 61.0 58.05 61.3 57.6 61.75 57.55 61.8 57.3 62.0 57.1 62.25 57.0 62.3 56.85 62.45 56.75 62.55 56.7 62.6 56.6 62.65 56.3 62.9 56.05 63.1 55.75 63.3 55.7 63.3 55.2 63.65 55.0 63.8 54.95 63.85 53.35 64.85 52.05 65.55 52.0 65.6 Q49.55 66.5 47.05 66.8 L46.9 66.8 46.4 66.9 46.25 66.9 45.9 66.9 44.4 66.9 44.3 66.9 44.25 66.9 43.9 66.9 43.5 66.85 43.05 66.8 42.45 66.75 41.9 66.5 40.95 66.15 40.45 66.0 37.75 64.6 37.65 64.55 37.45 64.4 37.8 64.5 38.4 64.4 41.85 65.0 46.1 64.95 46.6 64.9 46.2 64.55 Q44.3 62.8 43.95 62.0 L46.15 63.5 47.6 64.7 51.0 64.1 53.55 63.15 53.7 63.05 49.1 60.45 45.0 57.8 40.5 60.5 39.35 61.15 35.8 63.1 35.75 63.05 35.35 62.7 35.0 62.3 34.95 62.2 34.75 62.0 34.55 61.75 33.8 60.75 33.7 60.65 33.45 60.3 33.45 60.25 33.75 58.6 34.5 54.65 34.55 54.5 33.0 53.25 30.9 51.3 Q32.45 50.75 34.75 53.4 L35.15 51.0 35.25 50.5 33.0 48.35 29.15 44.4 29.2 43.9 29.35 43.1 29.4 42.85 33.85 47.05 33.9 47.1 35.15 48.3 37.1 50.1 34.8 61.55 44.4 56.3 44.4 56.35 44.6 56.25 44.7 56.2 44.8 56.2 44.85 56.2 45.25 56.15 45.3 56.15 45.9 56.35 45.9 56.4 45.9 56.35 55.4 61.55 54.6 57.55 54.55 57.35 54.45 56.75 54.05 54.35 53.6 52.6 53.45 51.75 53.4 51.7 53.1 50.1 53.6 49.65 53.7 49.6 61.75 42.0 58.45 41.65 58.5 41.6 57.7 41.55 57.3 41.55 57.2 41.5 56.65 41.45 55.35 41.25 50.05 40.55 49.5 39.45 49.55 39.45 45.3 30.35 45.2 30.1 45.15 30.0 45.15 30.05 45.1 30.0 44.6 31.1 44.6 31.05 40.95 38.85 41.0 38.85 40.4 40.1 40.35 40.1 40.15 40.55 34.85 41.25 31.5 41.65 29.55 41.9 29.7 41.15 29.8 40.85 29.9 40.45 Q30.85 40.0 34.65 39.45 L34.4 39.25 33.3 38.45 Q33.65 37.7 34.45 38.45 L35.25 39.4 36.2 39.25 38.85 38.95 38.95 38.8 Q39.3 37.7 39.95 36.4 L39.65 36.1 38.55 34.95 37.65 34.15 36.9 33.05 Q36.9 32.8 37.2 32.6 37.45 33.25 39.15 34.55 L40.35 35.55 42.05 32.35 43.05 30.7 41.6 29.35 39.95 27.45 Q40.8 27.55 42.0 28.85 42.75 29.65 43.4 30.1 44.3 28.6 44.9 28.05 45.65 27.1 45.8 28.0 L45.9 28.25 46.75 29.15 Q47.95 30.9 49.5 34.5 L51.3 38.65 51.5 39.1 52.65 39.2 56.95 40.0 57.55 40.05 56.65 39.1 54.45 36.3 57.4 38.65 58.9 40.25 60.8 40.5 Q59.9 36.65 58.95 34.65 L55.8 28.95 53.7 25.0 53.7 24.85 M57.35 40.55 L57.4 40.55 57.45 40.55 57.45 40.5 57.35 40.55 M61.55 46.85 L61.4 44.9 Q57.25 49.15 55.05 50.8 L55.55 52.2 56.6 55.8 57.35 59.05 59.1 56.4 59.2 56.25 60.0 54.2 60.05 54.1 57.8 52.05 Q58.25 51.6 59.75 52.85 L60.3 53.35 61.35 49.35 61.55 47.8 61.55 46.85 M62.05 53.25 L61.4 55.25 61.2 55.85 61.95 53.7 62.05 53.25" fill="#b6dddf" fill-rule="evenodd" stroke="none"/>
      <path d="M25.55 58.75 Q24.55 56.6 23.95 54.15 L24.05 54.0 Q24.55 56.4 25.55 58.75 M41.5 68.1 L42.9 68.3 42.45 68.25 42.25 68.4 42.0 68.2 41.5 68.1 M60.85 60.1 L61.35 59.25 61.05 59.75 60.85 60.1" fill="#8c3636" fill-rule="evenodd" stroke="none"/>
      <path d="M53.7 24.85 L51.6 23.2 Q49.75 21.9 46.4 21.5 L45.2 21.5 Q42.8 21.5 40.7 22.5 38.15 23.9 35.75 26.95 34.6 28.45 33.55 30.3 32.7 31.9 32.0 33.75 30.65 37.25 29.9 40.45 L29.8 40.85 29.7 41.15 29.55 41.9 28.5 42.0 29.4 42.85 29.35 43.1 29.2 43.9 29.15 44.4 29.05 44.9 28.95 48.05 Q28.95 51.05 29.5 52.95 30.15 55.15 32.1 58.2 L33.45 60.25 33.45 60.3 33.7 60.65 33.8 60.75 34.55 61.75 34.75 62.0 34.95 62.2 35.0 62.3 35.35 62.7 35.75 63.05 35.8 63.1 35.85 63.15 37.45 64.4 37.65 64.55 37.75 64.6 40.45 66.0 40.95 66.15 41.9 66.5 42.45 66.75 42.25 66.7 42.2 66.7 37.95 65.6 37.1 65.15 35.1 64.0 34.8 63.8 32.9 62.25 32.6 61.95 32.6 61.9 32.55 61.85 32.35 61.65 32.3 61.6 Q30.8 60.1 29.7 58.3 27.7 54.65 27.25 49.95 27.0 46.25 27.45 42.75 L27.8 40.95 27.85 40.7 28.15 39.45 28.2 39.5 28.3 39.15 28.4 38.55 28.5 38.3 28.55 38.05 28.55 37.95 28.6 37.9 28.95 36.65 29.75 34.5 30.0 33.95 30.9 32.1 31.15 31.65 31.2 31.5 31.55 30.85 31.55 30.8 Q32.05 29.7 32.7 28.8 L33.2 28.05 Q34.85 25.5 36.65 23.65 L36.8 23.5 Q39.45 20.95 42.3 20.05 L42.55 19.95 42.65 19.9 44.05 19.5 45.75 19.5 45.9 19.5 46.05 19.55 46.15 19.55 46.2 19.6 47.25 19.85 47.4 19.9 47.45 19.95 47.55 20.0 48.3 20.25 Q49.65 20.8 51.0 21.7 L53.2 23.55 53.4 23.75 54.45 24.95 53.95 25.05 53.7 24.85" fill="#ffffff" fill-rule="evenodd" stroke="none"/>
      <path d="M52.8 48.4 L52.75 48.35 52.4 48.7 52.3 48.9 51.55 49.6 52.9 56.55 52.95 56.55 53.2 57.85 53.2 57.9 53.35 58.7 53.4 58.7 53.4 58.75 45.1 54.25 44.25 54.75 44.2 54.7 44.15 54.8 44.1 54.85 36.85 58.75 38.7 49.6 31.75 43.1 41.15 41.9 45.1 33.45 49.05 41.9 58.45 43.1 57.55 43.9 57.5 43.9 56.25 45.05 53.65 47.55 53.7 47.6 52.8 48.4 M46.75 55.0 L46.35 54.7 45.95 54.45 46.75 55.0" fill="#ffcc00" fill-rule="evenodd" stroke="none"/>
      <path d="M66.85 37.5 L66.65 36.7 66.5 36.15 66.3 35.55 83.05 35.55 81.75 40.2 67.45 40.2 67.3 39.3 66.85 37.5 M23.2 37.25 L22.9 38.65 22.55 40.2 8.35 40.2 6.95 35.55 23.75 35.55 23.55 36.15 23.35 36.7 23.2 37.25 M78.95 49.85 L68.15 49.85 68.2 49.0 68.2 47.05 68.2 47.0 68.15 45.65 80.2 45.65 78.95 49.85 M21.8 47.3 L21.85 49.0 21.85 49.85 11.1 49.85 9.85 45.65 21.85 45.65 21.8 47.3 M13.65 58.9 L12.5 55.0 22.7 55.0 23.1 56.5 23.4 57.45 24.0 58.9 13.65 58.9 M77.55 55.0 L76.4 58.9 66.0 58.9 66.05 58.8 66.2 58.5 66.5 57.85 67.1 56.0 67.35 55.0 77.55 55.0" fill="#4f79d2" fill-rule="evenodd" stroke="none"/>
      <path d="M61.35 59.25 L62.15 57.85 Q63.75 54.35 64.15 50.05 L64.25 48.15 64.25 46.35 Q64.15 42.3 63.1 38.4 L63.1 38.25 62.15 35.45 Q61.1 32.75 59.65 30.1 L57.0 25.85 57.8 26.5 58.55 27.15 58.6 27.2 60.4 29.15 62.55 32.3 62.8 32.65 80.6 32.65 80.25 33.9 80.2 34.1 64.25 34.1 64.6 35.1 65.1 36.6 66.2 41.05 66.2 41.1 66.3 41.7 78.0 41.7 77.35 43.95 77.3 44.15 66.6 44.15 66.65 44.95 66.7 45.6 66.7 49.95 66.65 50.5 66.6 51.3 75.15 51.3 74.55 53.35 74.5 53.55 66.2 53.55 66.2 53.6 66.1 54.15 66.05 54.2 66.0 54.4 65.9 54.8 65.85 55.05 64.2 59.3 63.65 60.4 72.5 60.4 71.95 62.1 61.65 62.1 61.45 62.1 61.15 62.1 61.0 62.35 60.4 63.15 60.35 63.25 59.4 64.3 58.15 65.55 56.1 67.1 55.4 67.55 55.0 67.8 52.8 69.0 52.65 69.05 52.5 69.15 Q49.55 70.15 46.65 70.45 L44.95 70.5 43.35 70.45 42.9 70.4 42.8 70.4 42.1 70.3 40.55 70.0 39.2 69.65 37.25 69.0 37.2 68.95 Q33.7 67.35 31.3 64.95 L29.7 63.25 29.1 62.4 28.9 62.1 18.1 62.1 17.6 60.4 26.4 60.4 25.85 59.3 25.55 58.75 Q24.55 56.4 24.05 54.0 L23.95 54.15 23.8 53.55 15.5 53.55 15.5 53.35 14.9 51.3 23.4 51.3 23.35 50.5 23.3 45.95 23.35 45.55 23.4 44.15 12.75 44.15 12.75 43.95 12.65 43.7 12.1 41.7 23.75 41.7 23.85 41.1 Q24.3 38.8 25.0 36.6 L25.4 35.1 25.75 34.1 9.8 34.1 9.8 33.9 9.4 32.65 27.3 32.65 27.45 32.3 28.95 30.05 28.95 30.0 29.0 30.0 29.65 29.15 30.75 27.85 32.85 25.95 Q32.1 26.95 31.5 28.0 L30.85 29.05 30.25 30.1 30.25 30.15 30.0 30.6 28.65 33.4 28.4 33.95 Q27.55 35.95 27.0 38.1 L26.95 38.15 26.9 38.35 25.95 42.95 25.9 43.6 25.85 43.75 Q25.5 46.8 25.75 50.05 L26.15 52.65 Q26.75 55.6 27.95 58.05 L28.35 58.8 28.45 59.0 28.55 59.1 Q29.55 60.9 31.05 62.45 L31.55 62.95 Q33.9 65.3 37.35 66.9 L37.4 66.9 37.55 66.95 37.75 67.0 39.8 67.7 40.5 67.85 41.3 68.05 41.35 68.05 41.5 68.1 42.0 68.2 42.25 68.4 42.45 68.25 42.9 68.3 43.35 68.35 44.9 68.4 45.15 68.4 45.2 68.4 46.55 68.35 46.6 68.35 Q49.65 68.05 52.6 66.9 L52.8 66.8 Q56.15 65.5 58.55 62.85 L58.75 62.65 60.6 60.4 60.75 60.3 60.75 60.25 60.85 60.1 61.05 59.75 61.35 59.25" fill="url(#gradient0)" fill-rule="evenodd" stroke="none"/>
      <path d="M82.55 31.2 L81.75 34.1 85.0 34.1 82.85 41.7 79.5 41.7 79.5 41.85 78.8 44.15 82.15 44.15 80.0 51.3 76.65 51.3 76.65 51.55 76.0 53.55 79.5 53.55 77.55 60.4 73.95 60.4 73.95 60.55 73.05 63.55 61.95 63.55 61.65 63.95 61.55 64.05 61.55 64.1 61.45 64.15 60.5 65.25 59.1 66.65 Q56.75 68.75 53.45 70.35 L53.35 70.35 53.1 70.5 53.0 70.5 Q49.9 71.6 46.8 71.9 L46.75 71.9 44.95 71.95 43.2 71.9 Q39.9 71.6 36.65 70.35 L36.6 70.35 Q32.85 68.6 30.25 66.0 L28.55 64.15 28.5 64.1 28.15 63.55 16.95 63.55 16.15 60.55 16.1 60.4 12.55 60.4 10.5 53.55 14.0 53.55 13.45 51.55 13.4 51.3 10.0 51.3 7.85 44.15 11.25 44.15 10.6 41.9 10.55 41.7 7.2 41.7 5.0 34.1 8.3 34.1 7.45 31.2 26.45 31.2 Q27.35 29.55 28.55 28.2 31.65 24.35 35.8 22.5 38.8 19.5 42.1 18.55 42.9 18.15 43.9 18.05 L44.65 18.0 45.15 18.0 45.9 18.05 47.9 18.55 Q51.15 19.5 54.2 22.5 58.35 24.3 61.5 28.2 62.65 29.55 63.6 31.2 L82.55 31.2 M66.85 37.5 L67.3 39.3 67.45 40.2 81.75 40.2 83.05 35.55 66.3 35.55 66.5 36.15 66.65 36.7 66.85 37.5 M54.45 24.95 L53.4 23.75 53.2 23.55 51.0 21.7 Q49.65 20.8 48.3 20.25 L47.55 20.0 47.45 19.95 47.4 19.9 47.25 19.85 46.2 19.6 46.15 19.55 46.05 19.55 45.9 19.5 45.75 19.5 44.05 19.5 42.65 19.9 42.55 19.95 42.3 20.05 Q39.45 20.95 36.8 23.5 L36.65 23.65 Q34.85 25.5 33.2 28.05 L32.7 28.8 Q32.05 29.7 31.55 30.8 L31.55 30.85 31.2 31.5 31.15 31.65 30.9 32.1 30.0 33.95 29.75 34.5 28.95 36.65 28.6 37.9 28.55 37.95 28.55 38.05 28.5 38.3 28.4 38.55 28.3 39.15 28.2 39.5 28.15 39.45 27.85 40.7 27.8 40.95 27.45 42.75 Q27.0 46.25 27.25 49.95 27.7 54.65 29.7 58.3 30.8 60.1 32.3 61.6 L32.35 61.65 32.55 61.85 32.6 61.9 32.6 61.95 32.9 62.25 34.8 63.8 35.1 64.0 37.1 65.15 37.95 65.6 42.2 66.7 42.25 66.7 42.45 66.75 43.05 66.8 43.5 66.85 43.9 66.9 44.25 66.9 44.3 66.9 44.4 66.9 45.9 66.9 46.25 66.9 46.4 66.9 46.9 66.8 47.05 66.8 Q49.55 66.5 52.0 65.6 L52.05 65.55 53.35 64.85 54.95 63.85 55.0 63.8 55.2 63.65 55.7 63.3 55.75 63.3 56.05 63.1 56.3 62.9 56.6 62.65 56.7 62.6 56.75 62.55 56.85 62.45 57.0 62.3 57.1 62.25 57.3 62.0 57.55 61.8 57.6 61.75 58.05 61.3 58.3 61.0 58.6 60.65 58.75 60.45 59.7 59.15 60.25 58.3 60.25 58.25 60.75 57.35 60.85 57.2 60.9 57.05 61.2 56.25 62.4 52.15 62.7 50.1 62.7 49.95 62.8 48.75 62.8 48.65 62.8 48.15 62.8 46.4 62.8 46.35 62.8 46.15 62.7 44.15 62.65 43.9 62.65 43.65 62.6 43.45 62.55 43.1 62.45 42.35 62.5 42.35 62.45 42.25 62.45 42.1 62.45 42.05 62.4 41.95 62.35 41.75 62.15 40.75 62.05 40.35 62.0 40.05 61.7 38.75 61.7 38.7 61.65 38.6 61.65 38.55 61.5 38.15 61.5 38.1 61.45 37.95 61.1 36.95 60.8 35.9 60.8 35.95 58.4 30.8 Q56.5 27.35 54.45 24.95 M29.4 42.85 L28.5 42.0 29.55 41.9 31.5 41.65 34.85 41.25 40.15 40.55 40.35 40.1 40.4 40.1 41.0 38.85 40.95 38.85 44.6 31.05 44.6 31.1 45.1 30.0 45.15 30.05 45.15 30.0 45.2 30.1 45.3 30.35 49.55 39.45 49.5 39.45 50.05 40.55 55.35 41.25 56.65 41.45 57.2 41.5 57.3 41.55 57.7 41.55 58.5 41.6 58.45 41.65 61.75 42.0 53.7 49.6 53.6 49.65 53.1 50.1 53.4 51.7 53.45 51.75 53.6 52.6 54.55 57.35 54.6 57.55 55.4 61.55 45.9 56.35 45.9 56.4 45.9 56.35 45.3 56.15 45.25 56.15 44.85 56.2 44.8 56.2 44.7 56.2 44.6 56.25 44.4 56.35 44.4 56.3 34.8 61.55 37.1 50.1 35.15 48.3 33.9 47.1 33.85 47.05 29.4 42.85 M25.55 58.75 L25.85 59.3 26.4 60.4 17.6 60.4 18.1 62.1 28.9 62.1 29.1 62.4 29.7 63.25 31.3 64.95 Q33.7 67.35 37.2 68.95 L37.25 69.0 39.2 69.65 40.55 70.0 42.1 70.3 42.8 70.4 42.9 70.4 43.35 70.45 44.95 70.5 46.65 70.45 Q49.55 70.15 52.5 69.15 L52.65 69.05 52.8 69.0 55.0 67.8 55.4 67.55 56.1 67.1 58.15 65.55 59.4 64.3 60.35 63.25 60.4 63.15 61.0 62.35 61.15 62.1 61.45 62.1 61.65 62.1 71.95 62.1 72.5 60.4 63.65 60.4 64.2 59.3 65.85 55.05 65.9 54.8 66.0 54.4 66.05 54.2 66.1 54.15 66.2 53.6 66.2 53.55 74.5 53.55 74.55 53.35 75.15 51.3 66.6 51.3 66.65 50.5 66.7 49.95 66.7 45.6 66.65 44.95 66.6 44.15 77.3 44.15 77.35 43.95 78.0 41.7 66.3 41.7 66.2 41.1 66.2 41.05 65.1 36.6 64.6 35.1 64.25 34.1 80.2 34.1 80.25 33.9 80.6 32.65 62.8 32.65 62.55 32.3 60.4 29.15 58.6 27.2 58.55 27.15 57.8 26.5 57.0 25.85 59.65 30.1 Q61.1 32.75 62.15 35.45 L63.1 38.25 63.1 38.4 Q64.15 42.3 64.25 46.35 L64.25 48.15 64.15 50.05 Q63.75 54.35 62.15 57.85 L61.35 59.25 60.85 60.1 60.75 60.25 60.75 60.3 60.6 60.4 58.75 62.65 58.55 62.85 Q56.15 65.5 52.8 66.8 L52.6 66.9 Q49.65 68.05 46.6 68.35 L46.55 68.35 45.2 68.4 45.15 68.4 44.9 68.4 43.35 68.35 42.9 68.3 41.5 68.1 41.35 68.05 41.3 68.05 40.5 67.85 39.8 67.7 37.75 67.0 37.55 66.95 37.4 66.9 37.35 66.9 Q33.9 65.3 31.55 62.95 L31.05 62.45 Q29.55 60.9 28.55 59.1 L28.45 59.0 28.35 58.8 27.95 58.05 Q26.75 55.6 26.15 52.65 L25.75 50.05 Q25.5 46.8 25.85 43.75 L25.9 43.6 25.95 42.95 26.9 38.35 26.95 38.15 27.0 38.1 Q27.55 35.95 28.4 33.95 L28.65 33.4 30.0 30.6 30.25 30.15 30.25 30.1 30.85 29.05 31.5 28.0 Q32.1 26.95 32.85 25.95 L30.75 27.85 29.65 29.15 29.0 30.0 28.95 30.0 28.95 30.05 27.45 32.3 27.3 32.65 9.4 32.65 9.8 33.9 9.8 34.1 25.75 34.1 25.4 35.1 25.0 36.6 Q24.3 38.8 23.85 41.1 L23.75 41.7 12.1 41.7 12.65 43.7 12.75 43.95 12.75 44.15 23.4 44.15 23.35 45.55 23.3 45.95 23.35 50.5 23.4 51.3 14.9 51.3 15.5 53.35 15.5 53.55 23.8 53.55 23.95 54.15 Q24.55 56.6 25.55 58.75 M52.8 48.4 L53.7 47.6 57.55 43.9 58.45 43.1 49.05 41.9 45.1 33.45 41.15 41.9 31.75 43.1 38.7 49.6 36.85 58.75 44.1 54.85 44.15 54.8 44.25 54.75 45.1 54.25 53.4 58.75 53.4 58.7 53.35 58.7 53.2 57.9 53.2 57.85 52.95 56.55 52.9 56.55 51.55 49.6 52.3 48.9 52.8 48.4 M78.95 49.85 L80.2 45.65 68.15 45.65 68.2 47.0 68.2 47.05 68.2 49.0 68.15 49.85 78.95 49.85 M23.2 37.25 L23.35 36.7 23.55 36.15 23.75 35.55 6.95 35.55 8.35 40.2 22.55 40.2 22.9 38.65 23.2 37.25 M21.8 47.3 L21.85 45.65 9.85 45.65 11.1 49.85 21.85 49.85 21.85 49.0 21.8 47.3 M13.65 58.9 L24.0 58.9 23.4 57.45 23.1 56.5 22.7 55.0 12.5 55.0 13.65 58.9 M77.55 55.0 L67.35 55.0 67.1 56.0 66.5 57.85 66.2 58.5 66.05 58.8 66.0 58.9 76.4 58.9 77.55 55.0" fill="#4e1826" fill-rule="evenodd" stroke="none"/>
      <path d="M82.4 36.05 L81.4 39.7 67.9 39.7 67.8 39.25 67.8 39.2 67.35 37.35 67.35 37.4 67.15 36.6 67.15 36.55 67.0 36.05 82.4 36.05" fill="url(#gradient1)" fill-rule="evenodd" stroke="none"/>
      <path d="M51.25 55.85 L47.95 54.1 47.65 53.8 47.3 53.55 47.25 53.5 46.65 53.1 45.85 52.95 45.1 52.75 44.35 52.95 43.85 53.25 Q43.45 53.35 43.15 53.65 L43.15 53.7 38.95 55.95 40.2 49.9 40.15 49.15 39.75 48.5 35.15 44.2 41.35 43.4 Q41.7 43.35 42.05 43.1 L42.5 42.55 45.1 37.0 47.7 42.55 48.2 43.1 Q48.5 43.35 48.85 43.4 L55.0 44.2 52.6 46.5 52.35 46.8 52.3 46.95 52.15 47.0 51.7 47.3 51.35 47.65 51.05 48.05 50.55 48.5 50.15 49.15 Q50.0 49.5 50.1 49.9 L51.25 55.85" fill="url(#gradient2)" fill-rule="evenodd" stroke="none"/>
      <path d="M68.7 47.05 L68.7 47.0 68.7 46.15 79.55 46.15 78.6 49.35 68.7 49.35 68.7 49.05 68.7 49.0 68.7 47.05" fill="url(#gradient3)" fill-rule="evenodd" stroke="none"/>
      <path d="M21.3 47.3 L21.35 49.05 21.35 49.35 11.5 49.35 10.55 46.15 21.35 46.15 21.3 47.3" fill="url(#gradient4)" fill-rule="evenodd" stroke="none"/>
      <path d="M8.75 39.7 L7.65 36.05 23.05 36.05 22.9 36.55 22.7 37.2 22.75 37.15 22.4 38.55 22.45 38.55 22.15 39.7 8.75 39.7" fill="url(#gradient5)" fill-rule="evenodd" stroke="none"/>
      <path d="M22.95 57.6 L23.25 58.4 14.05 58.4 13.2 55.5 22.3 55.5 22.6 56.6 22.95 57.65 22.95 57.6" fill="url(#gradient6)" fill-rule="evenodd" stroke="none"/>
      <path d="M76.9 55.5 L76.05 58.4 66.8 58.4 66.95 58.05 67.0 58.0 67.6 56.15 67.75 55.5 76.9 55.5" fill="url(#gradient7)" fill-rule="evenodd" stroke="none"/>
      <path d="M51.25 55.85 L51.4 55.95 51.3 56.0 51.25 55.85" fill="#ffcc00" fill-rule="evenodd" stroke="none"/>
    </g>
    <linearGradient gradientTransform="matrix(0.0, 0.0273, -0.0435, 0.0, 45.0, 48.15)" gradientUnits="userSpaceOnUse" id="gradient0" spreadMethod="pad" x1="-819.2" x2="819.2">
      <stop offset="0.0" stop-color="#ff807a"/>
      <stop offset="0.48627450980392156" stop-color="#c9463a"/>
      <stop offset="1.0" stop-color="#990033"/>
    </linearGradient>
    <linearGradient gradientTransform="matrix(0.0, 0.0022, -0.0094, 0.0, 74.7, 37.85)" gradientUnits="userSpaceOnUse" id="gradient1" spreadMethod="pad" x1="-819.2" x2="819.2">
      <stop offset="0.0" stop-color="#ffffff" stop-opacity="0.2"/>
      <stop offset="1.0" stop-color="#000000" stop-opacity="0.6"/>
    </linearGradient>
    <linearGradient gradientTransform="matrix(0.0, 0.0133, -0.0121, 0.0, 45.1, 48.7)" gradientUnits="userSpaceOnUse" id="gradient2" spreadMethod="pad" x1="-819.2" x2="819.2">
      <stop offset="0.0" stop-color="#ffffff" stop-opacity="0.2"/>
      <stop offset="1.0" stop-color="#000000" stop-opacity="0.6"/>
    </linearGradient>
    <linearGradient gradientTransform="matrix(0.0, 0.002, -0.0066, 0.0, 74.15, 47.75)" gradientUnits="userSpaceOnUse" id="gradient3" spreadMethod="pad" x1="-819.2" x2="819.2">
      <stop offset="0.0" stop-color="#ffffff" stop-opacity="0.2"/>
      <stop offset="1.0" stop-color="#000000" stop-opacity="0.6"/>
    </linearGradient>
    <linearGradient gradientTransform="matrix(0.0, 0.002, -0.0066, 0.0, 15.95, 47.75)" gradientUnits="userSpaceOnUse" id="gradient4" spreadMethod="pad" x1="-819.2" x2="819.2">
      <stop offset="0.0" stop-color="#ffffff" stop-opacity="0.2"/>
      <stop offset="1.0" stop-color="#000000" stop-opacity="0.6"/>
    </linearGradient>
    <linearGradient gradientTransform="matrix(0.0, 0.0022, -0.0094, 0.0, 15.35, 37.85)" gradientUnits="userSpaceOnUse" id="gradient5" spreadMethod="pad" x1="-819.2" x2="819.2">
      <stop offset="0.0" stop-color="#ffffff" stop-opacity="0.2"/>
      <stop offset="1.0" stop-color="#000000" stop-opacity="0.6"/>
    </linearGradient>
    <linearGradient gradientTransform="matrix(0.0, 0.0018, -0.0061, 0.0, 18.25, 56.95)" gradientUnits="userSpaceOnUse" id="gradient6" spreadMethod="pad" x1="-819.2" x2="819.2">
      <stop offset="0.0" stop-color="#ffffff" stop-opacity="0.2"/>
      <stop offset="1.0" stop-color="#000000" stop-opacity="0.6"/>
    </linearGradient>
    <linearGradient gradientTransform="matrix(0.0, 0.0018, -0.0062, 0.0, 71.85, 56.95)" gradientUnits="userSpaceOnUse" id="gradient7" spreadMethod="pad" x1="-819.2" x2="819.2">
      <stop offset="0.0" stop-color="#ffffff" stop-opacity="0.2"/>
      <stop offset="1.0" stop-color="#000000" stop-opacity="0.6"/>
    </linearGradient>
  </defs>
</svg>
