<?xml version="1.0" encoding="UTF-8" standalone="no"?>
<svg xmlns:ffdec="https://www.free-decompiler.com/flash" xmlns:xlink="http://www.w3.org/1999/xlink" ffdec:objectType="frame" height="30.0px" width="30.0px" xmlns="http://www.w3.org/2000/svg">
  <g transform="matrix(1.0, 0.0, 0.0, 1.0, 0.0, 0.0)">
    <use ffdec:characterId="164" height="90.0" transform="matrix(0.3333, 0.0, 0.0, 0.3333, 0.0, 0.0)" width="90.0" xlink:href="#sprite0"/>
  </g>
  <defs>
    <g id="sprite0" transform="matrix(1.0, 0.0, 0.0, 1.0, 0.0, 0.0)">
      <use ffdec:characterId="140" height="90.0" transform="matrix(1.0, 0.0, 0.0, 1.0, 0.0, 0.0)" width="90.0" xlink:href="#sprite1"/>
      <use ffdec:characterId="163" height="81.5" transform="matrix(1.0, 0.0, 0.0, 1.0, 6.2, 4.45)" width="77.6" xlink:href="#shape1"/>
    </g>
    <g id="sprite1" transform="matrix(1.0, 0.0, 0.0, 1.0, 0.0, 0.0)">
      <use ffdec:characterId="139" height="23.0" transform="matrix(0.8435, 0.0, 0.0, 3.913, 0.0056, 0.0127)" width="106.7" xlink:href="#shape0"/>
    </g>
    <g id="shape0" transform="matrix(1.0, 0.0, 0.0, 1.0, -32.55, -101.05)">
      <path d="M32.55 101.05 L139.25 101.05 139.25 124.05 32.55 124.05 32.55 101.05" fill="#000000" fill-opacity="0.003921569" fill-rule="evenodd" stroke="none"/>
    </g>
    <g id="shape1" transform="matrix(1.0, 0.0, 0.0, 1.0, -6.2, -4.45)">
      <path d="M34.1 13.7 L34.15 13.7 36.3 13.05 40.15 12.2 44.4 4.85 44.8 4.5 45.3 4.5 45.7 4.85 49.95 12.15 54.6 13.25 54.55 13.25 55.7 13.6 55.65 13.6 Q58.7 14.65 61.6 16.3 L66.95 20.1 68.05 21.7 68.15 22.05 68.05 22.45 Q65.85 25.95 63.25 26.8 L62.7 26.8 Q61.15 26.15 60.75 25.8 L60.8 25.8 57.45 23.55 54.1 21.95 53.95 21.9 52.95 21.5 Q46.0 19.1 38.5 21.1 L36.15 21.85 36.1 21.85 34.7 22.45 34.65 22.45 32.45 23.5 32.5 23.5 Q30.75 24.45 29.25 25.75 L27.75 27.1 27.35 27.3 26.9 27.25 Q22.55 25.15 21.5 22.1 L21.5 21.7 21.7 21.35 Q24.65 18.35 28.35 16.3 31.05 14.75 34.1 13.7 M29.1 17.6 Q25.8 19.45 23.1 22.05 24.1 24.1 27.05 25.65 L28.3 24.6 Q29.85 23.25 31.75 22.2 32.85 21.55 34.05 21.05 L34.05 21.1 Q34.85 20.7 35.65 20.45 L35.6 20.45 38.1 19.65 Q46.1 17.5 53.45 20.1 L53.5 20.1 54.35 20.45 Q54.55 20.45 54.7 20.6 L58.2 22.25 61.7 24.6 61.75 24.65 63.05 25.3 Q64.9 24.5 66.55 22.05 L66.05 21.3 Q63.65 19.25 60.85 17.6 58.1 16.05 55.15 15.0 L54.15 14.7 Q51.75 13.95 49.35 13.6 L49.05 13.5 48.8 13.25 45.05 6.7 41.25 13.3 41.05 13.55 40.7 13.65 36.7 14.5 34.6 15.1 Q31.65 16.15 29.1 17.6 M69.1 38.7 L69.1 38.75 68.85 37.65 68.85 37.3 69.05 36.95 Q71.85 34.15 76.8 36.4 L77.1 36.6 77.25 36.9 Q78.3 41.1 78.35 45.2 78.4 51.6 75.85 57.7 L75.7 57.95 75.4 58.1 Q72.25 59.3 68.05 56.2 L67.8 55.8 Q67.7 55.55 67.85 55.3 69.15 52.25 69.7 49.1 L70.0 45.2 Q70.0 43.25 69.65 41.3 L69.7 41.3 69.1 38.7 M15.55 57.35 Q15.95 57.95 16.9 57.7 18.25 57.3 20.5 55.65 L19.4 52.0 18.8 49.5 Q18.45 47.35 18.4 45.2 L18.4 45.15 Q18.4 42.95 18.75 40.85 19.1 38.85 19.8 36.9 15.85 36.25 13.9 37.8 12.95 41.4 13.0 45.15 13.05 49.2 14.2 53.35 L15.55 57.3 15.55 57.35 M71.15 41.0 L71.15 41.05 Q71.5 43.15 71.5 45.2 L71.2 49.3 71.2 49.35 Q70.65 52.35 69.45 55.35 72.35 57.3 74.6 56.8 76.9 51.15 76.85 45.2 76.8 41.45 75.9 37.6 72.5 36.15 70.4 37.8 L70.55 38.3 71.15 41.0 M28.35 74.0 Q25.45 72.35 23.15 70.4 L22.85 69.9 Q22.45 67.75 27.25 63.7 L27.7 63.5 28.2 63.7 29.25 64.6 32.5 66.8 Q34.3 67.8 36.15 68.55 40.5 70.3 45.05 70.25 L51.4 69.3 51.45 69.3 54.1 68.45 Q55.85 67.75 57.5 66.85 L60.8 64.65 Q61.25 64.25 61.65 64.25 62.1 64.2 62.45 64.5 65.2 65.95 67.1 69.5 L67.15 70.0 66.9 70.45 61.7 74.1 Q58.0 76.2 53.55 77.35 L50.1 78.1 45.75 85.6 45.35 85.9 44.85 85.9 44.45 85.6 40.25 78.3 Q34.1 77.35 28.35 74.0 M12.75 53.75 Q11.55 49.4 11.5 45.15 11.45 41.1 12.5 37.2 L12.7 36.85 Q15.25 34.45 20.95 35.6 L21.35 35.8 21.55 36.15 21.5 36.6 Q20.65 38.8 20.25 41.1 19.9 43.05 19.9 45.15 19.95 47.2 20.3 49.25 L20.85 51.6 Q21.5 54.15 22.1 55.65 L22.15 56.1 21.85 56.5 Q19.0 58.7 17.25 59.15 14.95 59.75 14.2 57.95 L14.15 57.9 12.75 53.75 M40.8 76.85 L41.15 77.0 41.35 77.25 45.1 83.7 48.95 77.1 49.2 76.85 Q49.3 76.75 49.45 76.75 L53.15 75.9 53.2 75.9 Q57.4 74.8 60.95 72.8 L65.45 69.7 Q63.9 67.0 61.65 65.85 60.05 67.15 58.25 68.15 56.55 69.15 54.65 69.85 L54.6 69.85 51.8 70.75 45.1 71.75 45.05 71.75 Q40.2 71.8 35.6 69.95 33.6 69.2 31.75 68.1 L28.3 65.75 27.7 65.25 Q24.55 68.0 24.35 69.5 L29.1 72.7 Q34.75 75.95 40.8 76.85" fill="#4e1826" fill-rule="evenodd" stroke="none"/>
      <path d="M29.1 17.6 Q31.65 16.15 34.6 15.1 L36.7 14.5 40.7 13.65 41.05 13.55 41.25 13.3 45.05 6.7 48.8 13.25 49.05 13.5 49.35 13.6 Q51.75 13.95 54.15 14.7 L55.15 15.0 Q58.1 16.05 60.85 17.6 63.65 19.25 66.05 21.3 L66.55 22.05 Q64.9 24.5 63.05 25.3 L61.75 24.65 61.7 24.6 58.2 22.25 54.7 20.6 Q54.55 20.45 54.35 20.45 L53.5 20.1 53.45 20.1 Q46.1 17.5 38.1 19.65 L35.6 20.45 35.65 20.45 Q34.85 20.7 34.05 21.1 L34.05 21.05 Q32.85 21.55 31.75 22.2 29.85 23.25 28.3 24.6 L27.05 25.65 Q24.1 24.1 23.1 22.05 25.8 19.45 29.1 17.6 M40.8 76.85 Q34.75 75.95 29.1 72.7 L24.35 69.5 Q24.55 68.0 27.7 65.25 L28.3 65.75 31.75 68.1 Q33.6 69.2 35.6 69.95 40.2 71.8 45.05 71.75 L45.1 71.75 51.8 70.75 54.6 69.85 54.65 69.85 Q56.55 69.15 58.25 68.15 60.05 67.15 61.65 65.85 63.9 67.0 65.45 69.7 L60.95 72.8 Q57.4 74.8 53.2 75.9 L53.15 75.9 49.45 76.75 Q49.3 76.75 49.2 76.85 L48.95 77.1 45.1 83.7 41.35 77.25 41.15 77.0 40.8 76.85" fill="#4f79d2" fill-rule="evenodd" stroke="none"/>
      <path d="M71.15 41.0 L70.55 38.3 70.4 37.8 Q72.5 36.15 75.9 37.6 76.8 41.45 76.85 45.2 76.9 51.15 74.6 56.8 72.35 57.3 69.45 55.35 70.65 52.35 71.2 49.35 L71.2 49.3 71.5 45.2 Q71.5 43.15 71.15 41.05 L71.15 41.0 M15.55 57.35 L15.55 57.3 14.2 53.35 Q13.05 49.2 13.0 45.15 12.95 41.4 13.9 37.8 15.85 36.25 19.8 36.9 19.1 38.85 18.75 40.85 18.4 42.95 18.4 45.15 L18.4 45.2 Q18.45 47.35 18.8 49.5 L19.4 52.0 20.5 55.65 Q18.25 57.3 16.9 57.7 15.95 57.95 15.55 57.35" fill="#8c3636" fill-rule="evenodd" stroke="none"/>
      <path d="M49.2 14.6 Q51.5 14.9 53.85 15.65 L53.9 15.65 54.75 15.95 54.85 15.95 Q57.65 16.95 60.35 18.5 63.05 20.05 65.35 22.0 64.25 23.5 63.05 24.2 L62.4 23.85 62.25 23.75 62.35 23.8 58.7 21.4 55.2 19.7 54.6 19.5 53.85 19.2 53.8 19.15 Q46.15 16.45 37.85 18.65 L35.25 19.55 35.15 19.6 34.7 19.95 34.6 20.25 34.35 20.1 33.85 20.1 33.65 20.15 Q32.5 20.65 31.4 21.25 L31.25 21.35 Q29.3 22.4 27.65 23.8 L26.95 24.45 Q25.2 23.45 24.35 22.25 26.7 20.05 29.55 18.5 L29.6 18.5 Q32.1 17.05 34.95 16.05 L35.05 16.0 36.95 15.45 40.85 14.65 41.6 14.35 42.15 13.8 45.05 8.75 47.95 13.75 48.45 14.3 48.5 14.3 Q48.8 14.55 49.2 14.6 M72.5 45.2 Q72.5 43.05 72.15 40.85 L72.1 40.65 71.55 38.3 Q73.0 37.6 75.05 38.35 75.8 41.8 75.85 45.2 L75.85 45.25 Q75.9 50.65 73.9 55.9 72.45 55.95 70.7 54.95 71.7 52.25 72.2 49.5 L72.2 49.45 72.5 45.2 M18.45 37.75 L17.8 40.65 Q17.4 42.85 17.4 45.15 L17.4 45.2 Q17.45 47.4 17.85 49.65 L18.45 52.3 18.4 52.25 19.3 55.3 Q17.65 56.4 16.6 56.75 L16.4 56.8 15.15 53.1 Q14.05 49.1 14.0 45.15 13.95 41.7 14.75 38.45 16.1 37.6 18.45 37.75 M58.7 69.05 L61.75 67.05 Q63.05 67.9 64.1 69.45 L60.45 71.95 Q57.05 73.85 53.0 74.9 L52.9 74.9 49.25 75.75 Q48.9 75.8 48.6 76.05 L48.65 76.0 Q48.3 76.2 48.1 76.55 L48.1 76.6 45.1 81.7 42.25 76.75 41.7 76.15 40.95 75.85 Q35.05 75.0 29.6 71.85 27.4 70.6 25.55 69.15 26.0 68.15 27.75 66.55 L31.25 69.0 35.2 70.9 Q40.0 72.8 45.05 72.75 L45.1 72.75 Q48.5 72.65 52.05 71.7 L54.95 70.8 55.0 70.8 58.75 69.05 58.7 69.05" fill="url(#gradient0)" fill-rule="evenodd" stroke="none"/>
      <path d="M77.9 22.45 L77.9 22.55 Q79.35 24.85 81.65 25.6 L81.7 25.65 Q83.55 26.45 83.75 28.15 83.95 29.6 82.7 31.85 80.4 36.2 73.95 34.2 68.4 32.55 51.7 45.05 L51.7 45.1 50.3 46.0 Q60.95 53.35 71.2 59.65 L75.5 59.8 75.55 59.8 Q79.15 58.8 81.25 60.45 83.3 61.9 83.8 65.9 L83.8 65.95 Q84.0 68.7 82.3 70.2 80.8 71.5 77.7 71.75 75.45 74.35 72.95 73.45 70.55 72.7 68.05 68.5 66.2 65.4 61.6 61.5 57.6 58.15 45.0 49.65 32.4 58.15 28.45 61.5 23.8 65.4 21.95 68.5 19.45 72.7 17.05 73.45 14.55 74.35 12.3 71.75 9.2 71.5 7.75 70.2 6.0 68.7 6.2 65.95 L6.2 65.9 Q6.7 61.9 8.8 60.45 10.85 58.8 14.45 59.8 L14.55 59.8 18.8 59.65 Q29.05 53.35 39.7 46.0 L38.35 45.1 38.3 45.05 Q21.6 32.55 16.1 34.2 9.6 36.2 7.3 31.85 6.05 29.6 6.3 28.15 6.45 26.45 8.3 25.65 L8.4 25.6 Q10.65 24.85 12.1 22.55 L12.15 22.45 13.1 19.7 Q13.7 16.8 14.8 15.8 16.15 14.5 18.05 15.55 21.2 17.45 20.65 20.7 20.5 23.75 23.1 26.15 34.05 34.6 44.65 42.1 L45.15 42.25 66.9 26.15 Q69.55 23.7 69.35 20.0 68.8 17.4 72.0 15.55 73.85 14.5 75.2 15.8 76.3 16.8 76.95 19.7 77.25 21.3 77.9 22.45 M72.3 64.35 L72.35 63.8 72.4 63.8 72.65 64.35 Q73.0 65.05 74.2 66.05 L75.3 66.9 76.3 67.5 76.4 67.8 76.25 68.35 75.7 68.6 75.15 68.45 74.45 67.75 Q72.85 66.25 72.3 64.35 M15.55 67.75 L14.85 68.45 14.3 68.6 13.8 68.35 Q13.55 68.1 13.6 67.8 L13.65 67.65 15.7 66.1 Q17.4 64.45 17.45 63.55 L17.65 63.8 17.75 64.35 Q17.15 66.25 15.6 67.75 L15.55 67.75 M16.65 63.5 L16.75 63.45 16.7 63.5 16.65 63.5 M13.0 29.95 Q12.7 29.95 12.45 29.75 L12.2 29.25 12.25 29.0 12.55 29.0 Q14.3 29.0 15.55 26.9 16.55 25.25 16.55 24.15 L16.55 24.0 16.8 24.35 16.9 26.2 16.85 26.35 16.65 26.95 Q16.15 28.1 15.15 29.05 L15.1 29.05 Q14.2 29.9 13.0 29.95 M74.9 29.05 Q73.85 28.1 73.4 26.95 L73.35 26.95 73.15 26.35 73.1 26.2 Q73.0 25.2 73.25 24.35 73.3 24.05 73.6 23.9 L73.65 23.9 73.6 24.25 73.7 24.85 Q73.85 25.85 74.9 27.1 L75.15 27.35 Q76.1 28.45 77.3 28.65 L77.7 28.85 77.8 29.25 77.55 29.75 77.0 29.95 Q75.8 29.9 74.9 29.05 M75.5 20.0 Q75.0 17.7 74.2 16.9 L72.75 16.85 Q70.55 18.15 70.85 19.8 L70.85 19.95 Q71.05 24.35 67.85 27.3 L67.8 27.35 Q56.8 35.85 46.15 43.4 L46.0 43.55 Q45.55 44.1 45.0 44.1 43.95 44.1 43.5 43.15 L22.2 27.35 22.15 27.3 Q18.9 24.35 19.15 20.5 L19.15 20.45 Q19.5 18.15 17.3 16.85 L15.85 16.9 Q15.0 17.7 14.55 20.0 L13.5 23.15 Q12.85 26.05 10.6 28.05 L10.05 28.25 10.0 28.25 10.15 27.95 10.45 27.1 10.4 26.8 10.2 26.55 9.9 26.6 8.85 27.05 8.9 27.0 Q7.9 27.4 7.75 28.3 7.65 29.4 8.6 31.1 10.5 34.3 15.65 32.75 21.6 30.65 39.2 43.85 L41.05 45.1 41.45 45.4 41.7 45.6 41.8 46.0 41.7 46.4 41.5 46.6 41.5 46.65 19.6 60.95 19.5 61.0 14.05 61.25 14.0 61.2 Q11.25 60.5 9.7 61.65 8.1 62.9 7.7 66.1 7.6 68.0 8.75 69.05 10.0 70.1 12.7 70.25 L13.0 70.35 13.25 70.55 Q14.85 72.5 16.6 72.05 18.5 71.3 20.65 67.75 22.6 64.5 27.5 60.35 31.5 56.95 44.45 48.2 L44.6 48.1 44.95 47.85 45.25 47.95 46.35 48.7 Q58.6 57.05 62.55 60.35 67.4 64.5 69.35 67.75 71.5 71.3 73.45 72.05 75.15 72.5 76.8 70.55 L77.0 70.35 77.35 70.25 Q80.0 70.1 81.3 69.05 82.4 68.0 82.3 66.1 81.9 62.9 80.35 61.65 78.75 60.5 76.05 61.2 L75.95 61.25 70.55 61.0 70.4 60.95 Q59.95 54.5 49.1 47.05 L47.8 45.9 48.55 45.4 48.65 45.35 50.85 43.85 Q68.4 30.65 74.4 32.75 79.5 34.3 81.4 31.1 82.35 29.4 82.25 28.3 82.1 27.4 81.1 27.0 L81.2 27.05 80.0 26.55 80.05 26.65 79.6 26.4 Q79.35 26.05 79.35 26.7 79.35 27.05 79.85 27.75 L80.2 28.2 79.95 28.25 79.4 28.05 Q77.15 26.05 76.5 23.15 75.85 21.8 75.5 20.0" fill="#4e1826" fill-rule="evenodd" stroke="none"/>
      <path d="M75.5 20.0 Q75.85 21.8 76.5 23.15 77.15 26.05 79.4 28.05 L79.95 28.25 80.2 28.2 79.85 27.75 Q79.35 27.05 79.35 26.7 79.35 26.05 79.6 26.4 L80.05 26.65 80.0 26.55 81.2 27.05 81.1 27.0 Q82.1 27.4 82.25 28.3 82.35 29.4 81.4 31.1 79.5 34.3 74.4 32.75 68.4 30.65 50.85 43.85 L48.65 45.35 48.55 45.4 47.8 45.9 49.1 47.05 Q59.95 54.5 70.4 60.95 L70.55 61.0 75.95 61.25 76.05 61.2 Q78.75 60.5 80.35 61.65 81.9 62.9 82.3 66.1 82.4 68.0 81.3 69.05 80.0 70.1 77.35 70.25 L77.0 70.35 76.8 70.55 Q75.15 72.5 73.45 72.05 71.5 71.3 69.35 67.75 67.4 64.5 62.55 60.35 58.6 57.05 46.35 48.7 L45.25 47.95 44.95 47.85 44.6 48.1 44.45 48.2 Q31.5 56.95 27.5 60.35 22.6 64.5 20.65 67.75 18.5 71.3 16.6 72.05 14.85 72.5 13.25 70.55 L13.0 70.35 12.7 70.25 Q10.0 70.1 8.75 69.05 7.6 68.0 7.7 66.1 8.1 62.9 9.7 61.65 11.25 60.5 14.0 61.2 L14.05 61.25 19.5 61.0 19.6 60.95 41.5 46.65 41.5 46.6 41.7 46.4 41.8 46.0 41.7 45.6 41.45 45.4 41.05 45.1 39.2 43.85 Q21.6 30.65 15.65 32.75 10.5 34.3 8.6 31.1 7.65 29.4 7.75 28.3 7.9 27.4 8.9 27.0 L8.85 27.05 9.9 26.6 10.2 26.55 10.4 26.8 10.45 27.1 10.15 27.95 10.0 28.25 10.05 28.25 10.6 28.05 Q12.85 26.05 13.5 23.15 L14.55 20.0 Q15.0 17.7 15.85 16.9 L17.3 16.85 Q19.5 18.15 19.15 20.45 L19.15 20.5 Q18.9 24.35 22.15 27.3 L22.2 27.35 43.5 43.15 Q43.95 44.1 45.0 44.1 45.55 44.1 46.0 43.55 L46.15 43.4 Q56.8 35.85 67.8 27.35 L67.85 27.3 Q71.05 24.35 70.85 19.95 L70.85 19.8 Q70.55 18.15 72.75 16.85 L74.2 16.9 Q75.0 17.7 75.5 20.0 M74.9 29.05 Q75.8 29.9 77.0 29.95 L77.55 29.75 77.8 29.25 77.7 28.85 77.3 28.65 Q76.1 28.45 75.15 27.35 L74.9 27.1 Q73.85 25.85 73.7 24.85 L73.6 24.25 73.65 23.9 73.6 23.9 Q73.3 24.05 73.25 24.35 73.0 25.2 73.1 26.2 L73.15 26.35 73.35 26.95 73.4 26.95 Q73.85 28.1 74.9 29.05 M13.0 29.95 Q14.2 29.9 15.1 29.05 L15.15 29.05 Q16.15 28.1 16.65 26.95 L16.85 26.35 16.9 26.2 16.8 24.35 16.55 24.0 16.55 24.15 Q16.55 25.25 15.55 26.9 14.3 29.0 12.55 29.0 L12.25 29.0 12.2 29.25 12.45 29.75 Q12.7 29.95 13.0 29.95 M16.65 63.5 L16.7 63.5 16.75 63.45 16.65 63.5 M15.55 67.75 L15.6 67.75 Q17.15 66.25 17.75 64.35 L17.65 63.8 17.45 63.55 Q17.4 64.45 15.7 66.1 L13.65 67.65 13.6 67.8 Q13.55 68.1 13.8 68.35 L14.3 68.6 14.85 68.45 15.55 67.75 M72.3 64.35 Q72.85 66.25 74.45 67.75 L75.15 68.45 75.7 68.6 76.25 68.35 76.4 67.8 76.3 67.5 75.3 66.9 74.2 66.05 Q73.0 65.05 72.65 64.35 L72.4 63.8 72.35 63.8 72.3 64.35" fill="#d1ffff" fill-rule="evenodd" stroke="none"/>
      <path d="M23.2 43.8 L23.5 44.0 23.6 44.3 23.45 44.65 19.9 47.9 20.8 52.7 20.75 53.05 20.45 53.25 20.1 53.2 15.85 50.85 11.6 53.2 11.25 53.25 11.0 53.05 10.9 52.65 11.85 47.95 8.3 44.65 8.15 44.3 8.3 44.0 Q8.4 43.85 8.6 43.8 L13.4 43.15 15.45 38.8 Q15.5 38.6 15.7 38.55 L16.05 38.55 16.35 38.8 18.35 43.15 23.2 43.8 M18.0 44.15 L17.75 44.05 17.6 43.85 15.85 40.15 14.2 43.85 14.0 44.05 13.8 44.15 9.75 44.65 12.7 47.4 12.85 47.6 12.85 47.85 12.05 51.85 15.65 49.85 15.85 49.8 16.15 49.85 19.65 51.85 18.9 47.85 18.9 47.6 19.05 47.4 22.05 44.65 18.0 44.15" fill="#4e1826" fill-rule="evenodd" stroke="none"/>
      <path d="M18.0 44.15 L22.05 44.65 19.05 47.4 18.9 47.6 18.9 47.85 19.65 51.85 16.15 49.85 15.85 49.8 15.65 49.85 12.05 51.85 12.85 47.85 12.85 47.6 12.7 47.4 9.75 44.65 13.8 44.15 14.0 44.05 14.2 43.85 15.85 40.15 17.6 43.85 17.75 44.05 18.0 44.15" fill="#fecb0e" fill-rule="evenodd" stroke="none"/>
      <path d="M14.5 44.7 L14.95 44.2 14.9 44.2 15.85 42.1 16.85 44.2 16.85 44.25 17.3 44.7 17.25 44.7 17.9 44.95 20.15 45.25 18.45 46.8 Q18.2 47.05 18.1 47.35 L18.1 48.0 18.5 50.25 16.5 49.15 16.55 49.15 15.85 48.95 15.25 49.15 13.25 50.25 13.65 48.0 13.6 47.35 13.25 46.8 11.6 45.25 13.9 44.95 14.5 44.7" fill="url(#gradient1)" fill-rule="evenodd" stroke="none"/>
      <path d="M80.8 43.8 L81.1 44.0 81.2 44.3 81.05 44.65 77.5 47.9 78.4 52.7 78.35 53.05 78.05 53.25 77.7 53.2 73.45 50.85 69.2 53.2 68.85 53.25 68.6 53.05 68.5 52.65 69.45 47.95 65.9 44.65 65.75 44.3 65.9 44.0 Q66.0 43.85 66.2 43.8 L71.0 43.15 73.05 38.8 Q73.1 38.6 73.3 38.55 L73.65 38.55 73.95 38.8 75.95 43.15 80.8 43.8 M75.6 44.15 L75.35 44.05 75.2 43.85 73.45 40.15 71.8 43.85 71.6 44.05 71.4 44.15 67.35 44.65 70.3 47.4 70.45 47.6 70.45 47.85 69.65 51.85 73.25 49.85 73.45 49.8 73.75 49.85 77.25 51.85 76.5 47.85 76.5 47.6 76.65 47.4 79.65 44.65 75.6 44.15" fill="#4e1826" fill-rule="evenodd" stroke="none"/>
      <path d="M75.6 44.15 L79.65 44.65 76.65 47.4 76.5 47.6 76.5 47.85 77.25 51.85 73.75 49.85 73.45 49.8 73.25 49.85 69.65 51.85 70.45 47.85 70.45 47.6 70.3 47.4 67.35 44.65 71.4 44.15 71.6 44.05 71.8 43.85 73.45 40.15 75.2 43.85 75.35 44.05 75.6 44.15" fill="#fecb0e" fill-rule="evenodd" stroke="none"/>
      <path d="M72.1 44.7 L72.55 44.2 72.5 44.2 73.45 42.1 74.45 44.2 74.45 44.25 74.9 44.7 74.85 44.7 75.5 44.95 77.75 45.25 76.05 46.8 75.7 47.35 75.7 48.0 76.1 50.25 74.1 49.15 74.15 49.15 73.45 48.95 72.85 49.15 70.85 50.25 71.25 48.0 71.2 47.35 70.85 46.8 69.2 45.25 71.5 44.95 72.1 44.7" fill="url(#gradient2)" fill-rule="evenodd" stroke="none"/>
      <path d="M73.25 17.75 L73.5 17.65 Q74.1 18.35 74.5 20.2 74.85 22.1 75.6 23.5 76.3 26.65 78.75 28.8 79.3 29.3 80.0 29.25 L80.55 29.15 81.05 28.75 81.2 28.3 81.25 28.4 Q81.3 29.25 80.55 30.6 78.95 33.1 74.7 31.8 69.75 29.9 57.55 37.85 L56.9 36.9 68.4 28.15 68.5 28.1 68.6 28.0 Q72.1 24.75 71.85 19.9 L71.85 19.8 71.8 19.55 Q71.8 18.55 73.25 17.7 L73.25 17.75" fill="url(#gradient3)" fill-rule="evenodd" stroke="none"/>
      <path d="M9.05 28.1 L9.05 28.45 9.4 29.05 Q9.65 29.25 10.0 29.25 L10.05 29.25 Q10.75 29.25 11.3 28.8 L11.25 28.8 Q13.7 26.65 14.45 23.55 L14.45 23.5 Q15.15 22.1 15.5 20.2 15.9 18.35 16.5 17.65 L16.8 17.75 16.8 17.7 Q18.35 18.65 18.15 20.3 L18.15 20.4 18.15 20.55 Q17.9 24.75 21.45 28.0 L21.5 28.05 21.5 28.1 21.6 28.15 33.6 37.2 32.95 38.2 Q20.35 29.9 15.3 31.8 L15.35 31.8 Q11.05 33.1 9.5 30.6 8.7 29.25 8.75 28.4 L9.05 28.1" fill="url(#gradient4)" fill-rule="evenodd" stroke="none"/>
      <path d="M9.05 28.1 L9.05 28.0 9.15 28.0 9.05 28.1" fill="url(#gradient5)" fill-rule="evenodd" stroke="none"/>
      <path d="M20.15 61.8 L33.25 53.45 33.9 54.25 26.85 59.55 26.85 59.6 Q21.8 63.85 19.8 67.2 L19.8 67.25 Q17.9 70.4 16.25 71.1 L16.3 71.1 Q15.15 71.3 14.05 69.95 L14.0 69.9 Q13.8 69.6 13.5 69.45 L13.45 69.45 12.75 69.25 Q10.5 69.15 9.4 68.3 L9.4 68.25 Q8.65 67.5 8.7 66.25 9.05 63.55 10.25 62.45 11.5 61.6 13.75 62.2 L13.8 62.2 Q14.9 62.65 16.15 62.7 L15.9 62.9 16.25 62.85 16.85 62.85 17.3 62.85 17.35 62.85 17.45 62.9 17.55 62.9 17.4 62.75 17.3 62.65 19.8 61.95 19.85 61.95 20.05 61.85 20.15 61.8" fill="url(#gradient6)" fill-rule="evenodd" stroke="none"/>
      <path d="M63.2 59.55 L57.4 55.15 58.05 54.3 69.9 61.8 70.0 61.85 70.15 61.95 70.25 61.95 76.2 62.2 76.3 62.2 Q78.5 61.6 79.75 62.45 80.95 63.55 81.3 66.25 81.35 67.55 80.6 68.3 L80.65 68.3 Q79.55 69.15 77.3 69.25 L76.6 69.45 76.5 69.45 76.0 69.9 76.0 69.95 Q74.85 71.3 73.7 71.1 L73.8 71.1 Q72.1 70.4 70.2 67.25 L70.2 67.2 Q68.2 63.85 63.2 59.6 L63.2 59.55" fill="url(#gradient7)" fill-rule="evenodd" stroke="none"/>
      <path d="M29.95 31.95 L30.6 30.6 31.8 28.5 Q33.85 25.25 36.05 23.05 39.05 20.1 42.3 19.1 43.05 18.75 43.95 18.65 L45.85 18.65 47.75 19.1 Q42.95 18.55 38.85 21.0 35.35 23.15 35.35 24.6 L35.35 24.75 Q32.7 27.2 30.1 32.6 L30.1 32.25 29.95 31.95 M59.7 31.1 L61.9 35.95 62.8 38.8 63.3 40.75 61.25 34.9 59.7 31.1 M47.6 68.55 L46.6 68.65 45.2 68.7 44.95 68.7 43.4 68.65 Q40.45 68.35 37.5 67.25 L36.4 66.7 36.7 66.85 39.5 67.45 40.85 67.7 41.35 68.25 44.7 68.6 47.8 68.4 47.6 68.55 M26.75 54.3 L26.1 50.6 Q25.65 44.45 27.3 38.65 L27.95 36.6 27.4 39.4 27.25 40.45 27.2 40.75 27.1 41.3 27.1 41.45 26.6 45.6 Q26.35 47.7 26.35 50.05 L26.7 54.0 26.75 54.3 M33.65 63.1 L31.85 60.55 Q28.85 56.1 28.85 49.9 28.85 45.85 29.75 42.55 30.6 39.2 32.85 34.55 L34.55 30.65 Q35.55 28.4 36.85 26.9 39.1 24.35 40.7 23.0 42.4 21.65 44.85 21.2 48.2 21.2 49.85 21.85 51.55 22.55 52.7 23.95 L52.3 23.3 53.5 25.05 54.45 27.65 54.95 27.25 56.2 29.2 59.75 38.4 60.5 42.95 61.0 45.95 60.9 47.25 Q60.65 50.7 60.2 53.1 57.35 48.95 53.45 45.7 L53.25 45.8 60.05 53.95 59.75 55.0 Q58.45 59.5 54.7 63.25 52.95 60.75 51.15 59.4 L52.0 59.4 Q52.6 59.45 53.05 58.7 L53.25 58.4 54.1 57.6 54.2 56.15 54.1 52.2 Q53.85 50.85 52.2 50.05 L52.05 50.0 50.1 45.7 49.4 44.35 50.45 42.4 51.75 39.95 Q53.5 39.95 53.9 38.1 L53.95 35.7 Q53.95 33.15 52.55 31.95 50.75 30.8 48.5 30.8 L47.05 30.95 Q44.95 28.75 42.85 27.85 L42.8 28.0 45.65 31.25 45.55 31.25 43.0 31.2 39.7 31.6 Q38.2 31.9 38.2 32.6 L38.65 34.2 Q39.2 35.6 39.65 35.85 L39.65 34.25 Q39.8 33.1 41.0 33.1 L41.75 33.15 41.65 33.2 42.4 33.45 44.15 33.45 47.0 33.75 47.8 33.6 47.95 33.6 50.65 35.8 51.05 35.6 49.2 33.5 51.3 33.6 Q52.05 33.8 52.05 36.1 L51.95 36.85 Q51.3 36.9 49.85 39.3 L48.05 42.5 Q47.6 42.2 47.55 43.05 45.35 40.2 45.35 43.4 45.35 44.4 48.3 48.8 51.25 53.25 51.25 54.95 L51.1 55.55 48.8 56.1 42.4 56.1 40.15 56.35 40.1 56.35 39.55 54.35 39.55 54.15 39.45 53.4 41.25 51.4 Q41.25 50.85 40.4 50.55 38.85 49.8 37.8 51.35 L37.5 51.95 Q36.45 52.15 36.45 55.8 36.45 57.0 36.6 57.2 L37.65 58.15 37.65 58.2 Q37.65 59.25 40.2 59.4 L49.7 59.4 51.6 61.4 54.25 63.7 51.3 65.2 Q48.2 66.15 44.6 66.15 L42.65 66.1 Q38.3 65.7 34.4 63.5 L33.65 63.1" fill="#d1ffff" fill-rule="evenodd" stroke="none"/>
      <path d="M47.75 19.1 Q49.7 19.7 51.6 21.0 L50.8 20.65 50.75 21.05 51.85 22.7 51.9 22.8 52.3 23.3 52.7 23.95 Q51.55 22.55 49.85 21.85 48.2 21.2 44.85 21.2 42.4 21.65 40.7 23.0 39.1 24.35 36.85 26.9 35.55 28.4 34.55 30.65 L32.85 34.55 Q30.6 39.2 29.75 42.55 28.85 45.85 28.85 49.9 28.85 56.1 31.85 60.55 L33.65 63.1 29.7 60.4 30.9 62.4 Q29.65 61.0 28.75 59.45 L28.65 59.25 28.6 59.15 27.8 57.5 26.75 54.35 26.75 54.3 26.7 54.0 26.35 50.05 Q26.35 47.7 26.6 45.6 L27.1 41.45 27.1 41.3 27.2 40.75 27.25 40.45 27.4 39.4 27.95 36.6 28.0 36.45 28.25 35.7 28.75 34.45 Q29.25 33.2 29.9 32.0 L29.9 31.95 29.95 31.95 30.1 32.25 30.1 32.6 Q32.7 27.2 35.35 24.75 L35.35 24.6 Q35.35 23.15 38.85 21.0 42.95 18.55 47.75 19.1 M54.95 27.25 L54.45 27.65 53.5 25.05 53.75 25.45 53.8 25.55 54.65 26.8 54.95 27.25 M29.95 31.95 L29.9 32.0 29.95 31.95" fill="#ffffff" fill-rule="evenodd" stroke="none"/>
      <path d="M51.6 21.0 L54.05 23.1 55.0 24.15 55.4 24.6 55.5 24.75 56.0 25.35 56.5 26.05 57.95 28.15 59.4 30.6 59.7 31.1 61.25 34.9 63.3 40.75 63.3 40.85 63.75 43.55 64.0 46.9 64.0 48.75 64.0 49.85 63.9 50.6 63.7 52.45 63.2 54.7 62.9 55.65 62.75 56.2 62.5 56.85 62.25 57.55 61.9 58.3 60.65 60.55 58.95 62.65 56.65 64.75 56.45 64.9 55.4 65.65 55.2 65.8 55.05 65.9 55.05 65.85 53.6 66.7 52.5 67.25 52.3 67.35 50.5 67.95 50.4 67.95 47.6 68.55 47.8 68.4 44.7 68.6 41.35 68.25 40.85 67.7 39.5 67.45 36.7 66.85 36.4 66.7 35.05 65.9 34.8 65.75 34.5 65.55 34.2 65.35 34.05 65.25 32.2 63.7 32.1 63.6 31.8 63.35 31.7 63.25 31.3 62.85 30.95 62.45 30.9 62.4 29.7 60.4 33.65 63.1 34.4 63.5 Q38.3 65.7 42.65 66.1 L44.6 66.15 Q48.2 66.15 51.3 65.2 L54.25 63.7 51.6 61.4 49.7 59.4 40.2 59.4 Q37.65 59.25 37.65 58.2 L37.65 58.15 36.6 57.2 Q36.45 57.0 36.45 55.8 36.45 52.15 37.5 51.95 L37.8 51.35 Q38.85 49.8 40.4 50.55 41.25 50.85 41.25 51.4 L39.45 53.4 39.55 54.15 39.55 54.35 40.1 56.35 40.15 56.35 42.4 56.1 48.8 56.1 51.1 55.55 51.25 54.95 Q51.25 53.25 48.3 48.8 45.35 44.4 45.35 43.4 45.35 40.2 47.55 43.05 47.6 42.2 48.05 42.5 L49.85 39.3 Q51.3 36.9 51.95 36.85 L52.05 36.1 Q52.05 33.8 51.3 33.6 L49.2 33.5 51.05 35.6 50.65 35.8 47.95 33.6 47.8 33.6 47.0 33.75 44.15 33.45 42.4 33.45 41.65 33.2 41.75 33.15 41.0 33.1 Q39.8 33.1 39.65 34.25 L39.65 35.85 Q39.2 35.6 38.65 34.2 L38.2 32.6 Q38.2 31.9 39.7 31.6 L43.0 31.2 45.55 31.25 45.65 31.25 42.8 28.0 42.85 27.85 Q44.95 28.75 47.05 30.95 L48.5 30.8 Q50.75 30.8 52.55 31.95 53.95 33.15 53.95 35.7 L53.9 38.1 Q53.5 39.95 51.75 39.95 L50.45 42.4 49.4 44.35 50.1 45.7 52.05 50.0 52.2 50.05 Q53.85 50.85 54.1 52.2 L54.2 56.15 54.1 57.6 53.25 58.4 53.05 58.7 Q52.6 59.45 52.0 59.4 L51.15 59.4 Q52.95 60.75 54.7 63.25 58.45 59.5 59.75 55.0 L60.05 53.95 53.25 45.8 53.45 45.7 Q57.35 48.95 60.2 53.1 60.65 50.7 60.9 47.25 L61.0 45.95 60.5 42.95 59.75 38.4 56.2 29.2 54.95 27.25 54.65 26.8 53.8 25.55 53.75 25.45 53.5 25.05 52.3 23.3 51.9 22.8 51.85 22.7 50.75 21.05 50.8 20.65 51.6 21.0 M55.05 65.85 L55.2 65.8 55.05 65.85" fill="#b6dddf" fill-rule="evenodd" stroke="none"/>
      <path d="M29.95 31.95 L30.6 30.6 31.8 28.5 Q33.85 25.25 36.05 23.05 39.05 20.1 42.3 19.1 43.05 18.75 43.95 18.65 L45.85 18.65 47.75 19.1 Q49.7 19.7 51.6 21.0 L54.05 23.1 55.0 24.15 55.4 24.6 55.5 24.75 56.0 25.35 56.5 26.05 57.95 28.15 59.4 30.6 59.7 31.1 61.9 35.95 62.8 38.8 63.3 40.75 63.3 40.85 63.75 43.55 64.0 46.9 64.0 48.75 64.0 49.85 63.9 50.6 63.7 52.45 63.2 54.7 62.9 55.65 62.75 56.2 62.5 56.85 62.25 57.55 61.9 58.3 60.65 60.55 58.95 62.65 56.65 64.75 56.45 64.9 55.4 65.65 55.2 65.8 55.05 65.85 53.6 66.7 52.5 67.25 52.3 67.35 50.5 67.95 50.4 67.95 47.6 68.55 46.6 68.65 45.2 68.7 44.95 68.7 43.4 68.65 Q40.45 68.35 37.5 67.25 L36.4 66.7 35.05 65.9 34.8 65.75 34.5 65.55 34.2 65.35 34.05 65.25 32.2 63.7 32.1 63.6 31.8 63.35 31.7 63.25 31.3 62.85 30.95 62.45 30.9 62.4 Q29.65 61.0 28.75 59.45 L28.65 59.25 28.6 59.15 27.8 57.5 26.75 54.35 M26.75 54.3 L26.1 50.6 Q25.65 44.45 27.3 38.65 L27.95 36.6 28.0 36.45 28.25 35.7 28.75 34.45 Q29.25 33.2 29.9 32.0 L29.95 31.95" fill="none" stroke="#4e1826" stroke-linecap="round" stroke-linejoin="round" stroke-width="1.5"/>
      <path d="M44.2 31.95 L45.15 32.1 45.2 32.1 46.2 31.95 46.3 31.95 46.95 31.95 49.35 31.95 50.6 31.95 50.7 31.95 51.6 32.15 Q53.2 32.75 52.85 33.95 L52.8 36.75 52.8 36.8 52.75 37.2 Q52.45 38.5 50.8 38.75 L50.7 38.75 50.6 38.75 50.55 38.75 48.35 43.9 48.35 44.0 48.35 44.4 48.35 44.6 50.65 50.9 50.7 50.9 51.4 51.05 51.35 51.05 52.45 51.75 Q52.8 52.2 52.65 52.9 L52.6 55.65 52.6 55.7 52.55 56.05 Q52.35 57.35 50.7 57.65 L50.6 57.65 50.45 57.65 50.35 57.65 49.35 57.65 49.15 57.65 47.75 57.65 46.7 57.65 46.15 57.65 46.0 57.65 44.95 57.45 44.2 57.65 44.15 57.65 44.0 57.65 42.75 57.65 40.35 57.65 39.75 57.65 39.6 57.65 39.05 57.65 39.05 57.5 Q37.9 57.1 37.8 56.05 L37.75 55.7 37.75 55.65 37.7 52.9 Q37.5 52.2 37.85 51.75 38.2 51.3 39.0 51.05 L39.05 51.05 39.05 50.9 39.3 50.9 41.55 44.4 41.5 43.95 39.8 38.75 39.6 38.75 39.5 38.75 39.4 38.75 39.1 38.7 39.05 38.7 39.05 38.6 Q37.8 38.35 37.55 37.2 L37.5 36.8 37.5 36.75 37.45 33.95 Q37.1 32.75 38.7 32.15 L39.6 31.95 39.85 31.95 39.95 31.95 40.6 31.95 43.0 31.95 44.2 31.95" fill="#4e1826" fill-rule="evenodd" stroke="none"/>
      <path d="M45.15 51.0 L44.8 50.25 Q44.7 50.25 44.55 51.2 L44.25 52.5 44.3 52.5 Q44.65 52.6 44.65 52.8 L44.65 55.6 Q44.55 56.0 44.0 56.05 L42.75 56.05 40.35 56.05 39.75 56.05 39.6 56.05 38.95 55.6 38.9 52.8 39.15 52.5 39.6 52.5 39.75 52.5 40.4 52.5 43.15 44.8 43.0 43.35 40.95 37.15 40.6 37.15 39.95 37.15 39.85 37.15 Q39.2 37.15 39.1 36.7 L39.05 33.9 Q39.05 33.7 39.4 33.6 L39.85 33.55 39.95 33.55 40.6 33.55 43.0 33.55 44.2 33.55 44.55 33.6 44.9 33.9 44.8 36.7 44.55 37.1 44.8 38.15 Q45.0 38.9 45.15 38.9 L45.35 38.5 45.7 37.0 45.5 36.7 45.45 33.9 Q45.45 33.7 45.75 33.6 L46.2 33.55 46.3 33.55 46.95 33.55 49.35 33.55 50.6 33.55 50.85 33.6 51.25 33.9 51.2 36.7 50.6 37.15 49.4 37.15 46.8 43.5 Q46.65 44.15 46.75 44.8 47.55 47.4 49.5 52.5 L50.35 52.5 50.7 52.5 51.05 52.8 51.0 55.6 50.35 56.05 49.35 56.05 49.15 56.05 47.75 56.05 46.7 56.05 46.15 56.05 46.0 56.05 Q45.4 56.05 45.3 55.6 L45.2 52.8 Q45.2 52.6 45.55 52.5 L45.15 51.0" fill="#ffcc00" fill-rule="evenodd" stroke="none"/>
      <path d="M40.1 34.55 L40.6 34.55 43.0 34.55 43.85 34.55 43.8 36.35 43.6 36.6 Q43.45 36.9 43.55 37.25 L43.85 38.55 Q44.25 40.2 45.15 39.95 46.2 40.2 46.35 38.7 L46.7 37.25 46.7 36.6 46.55 36.4 46.45 34.55 46.95 34.55 49.35 34.55 50.25 34.55 50.25 36.1 49.4 36.1 48.8 36.3 48.45 36.75 45.9 43.15 45.85 43.2 Q45.55 44.15 45.8 45.0 L45.8 45.05 Q46.6 47.75 48.6 52.85 L48.95 53.35 49.5 53.55 50.0 53.55 50.0 55.0 49.35 55.0 49.15 55.0 47.75 55.0 46.7 55.0 46.3 55.0 46.25 53.3 46.45 53.0 Q46.7 52.6 46.55 52.2 46.3 51.55 46.2 50.8 L46.15 50.75 Q45.5 48.9 44.8 49.25 43.95 48.9 43.55 50.95 L43.3 52.4 Q43.15 52.6 43.35 52.95 L43.6 53.35 43.6 55.0 42.75 55.0 40.35 55.0 39.95 55.0 39.9 53.55 40.4 53.55 41.05 53.35 41.4 52.85 44.15 45.15 Q44.4 44.4 43.95 43.1 L41.9 36.8 41.55 36.3 40.95 36.1 40.6 36.1 40.15 36.1 40.1 34.55" fill="url(#gradient8)" fill-rule="evenodd" stroke="none"/>
    </g>
    <linearGradient gradientTransform="matrix(0.0, 0.0445, -0.0378, 0.0, 44.95, 45.2)" gradientUnits="userSpaceOnUse" id="gradient0" spreadMethod="pad" x1="-819.2" x2="819.2">
      <stop offset="0.0" stop-color="#ffffff" stop-opacity="0.2"/>
      <stop offset="1.0" stop-color="#000000" stop-opacity="0.6"/>
    </linearGradient>
    <linearGradient gradientTransform="matrix(0.0, 0.0038, -0.0052, 0.0, 15.9, 47.05)" gradientUnits="userSpaceOnUse" id="gradient1" spreadMethod="pad" x1="-819.2" x2="819.2">
      <stop offset="0.0" stop-color="#ffffff" stop-opacity="0.2"/>
      <stop offset="1.0" stop-color="#000000" stop-opacity="0.6"/>
    </linearGradient>
    <linearGradient gradientTransform="matrix(0.0, 0.0038, -0.0052, 0.0, 73.5, 47.05)" gradientUnits="userSpaceOnUse" id="gradient2" spreadMethod="pad" x1="-819.2" x2="819.2">
      <stop offset="0.0" stop-color="#ffffff" stop-opacity="0.2"/>
      <stop offset="1.0" stop-color="#000000" stop-opacity="0.6"/>
    </linearGradient>
    <linearGradient gradientTransform="matrix(-0.0074, 0.0051, -0.0052, -0.0076, 68.5, 30.15)" gradientUnits="userSpaceOnUse" id="gradient3" spreadMethod="pad" x1="-819.2" x2="819.2">
      <stop offset="0.0" stop-color="#ffffff" stop-opacity="0.2"/>
      <stop offset="1.0" stop-color="#000000" stop-opacity="0.6"/>
    </linearGradient>
    <linearGradient gradientTransform="matrix(0.0079, 0.0051, -0.005, 0.0078, 21.35, 29.6)" gradientUnits="userSpaceOnUse" id="gradient4" spreadMethod="pad" x1="-819.2" x2="819.2">
      <stop offset="0.0" stop-color="#ffffff" stop-opacity="0.2"/>
      <stop offset="1.0" stop-color="#000000" stop-opacity="0.6"/>
    </linearGradient>
    <linearGradient gradientTransform="matrix(0.0, 0.0327, -0.0443, 0.0, 45.0, 44.4)" gradientUnits="userSpaceOnUse" id="gradient5" spreadMethod="pad" x1="-819.2" x2="819.2">
      <stop offset="0.0" stop-color="#ffffff" stop-opacity="0.2"/>
      <stop offset="1.0" stop-color="#000000" stop-opacity="0.6"/>
    </linearGradient>
    <linearGradient gradientTransform="matrix(0.0084, -0.0052, 0.0034, 0.0055, 19.6, 62.8)" gradientUnits="userSpaceOnUse" id="gradient6" spreadMethod="pad" x1="-819.2" x2="819.2">
      <stop offset="0.0" stop-color="#ffffff" stop-opacity="0.2"/>
      <stop offset="1.0" stop-color="#000000" stop-opacity="0.6"/>
    </linearGradient>
    <linearGradient gradientTransform="matrix(-0.009, -0.0056, 0.0034, -0.0054, 70.15, 62.75)" gradientUnits="userSpaceOnUse" id="gradient7" spreadMethod="pad" x1="-819.2" x2="819.2">
      <stop offset="0.0" stop-color="#ffffff" stop-opacity="0.2"/>
      <stop offset="1.0" stop-color="#000000" stop-opacity="0.6"/>
    </linearGradient>
    <linearGradient gradientTransform="matrix(0.0, 0.0096, -0.0051, 0.0, 59.25, 45.05)" gradientUnits="userSpaceOnUse" id="gradient8" spreadMethod="pad" x1="-819.2" x2="819.2">
      <stop offset="0.0" stop-color="#ffffff" stop-opacity="0.2"/>
      <stop offset="1.0" stop-color="#000000" stop-opacity="0.6"/>
    </linearGradient>
  </defs>
</svg>
