<?xml version="1.0" encoding="UTF-8" standalone="no"?>
<svg xmlns:ffdec="https://www.free-decompiler.com/flash" xmlns:xlink="http://www.w3.org/1999/xlink" ffdec:objectType="frame" height="30.0px" width="30.0px" xmlns="http://www.w3.org/2000/svg">
  <g transform="matrix(1.0, 0.0, 0.0, 1.0, 0.0, 0.0)">
    <use ffdec:characterId="144" height="90.0" transform="matrix(0.3333, 0.0, 0.0, 0.3333, 0.0, 0.0)" width="90.0" xlink:href="#sprite0"/>
  </g>
  <defs>
    <g id="sprite0" transform="matrix(1.0, 0.0, 0.0, 1.0, 0.0, 0.0)">
      <use ffdec:characterId="140" height="90.0" transform="matrix(1.0, 0.0, 0.0, 1.0, 0.0, 0.0)" width="90.0" xlink:href="#sprite1"/>
      <use ffdec:characterId="143" height="60.95" transform="matrix(1.0, 0.0, 0.0, 1.0, 10.0, 14.75)" width="70.0" xlink:href="#shape1"/>
    </g>
    <g id="sprite1" transform="matrix(1.0, 0.0, 0.0, 1.0, 0.0, 0.0)">
      <use ffdec:characterId="139" height="23.0" transform="matrix(0.8435, 0.0, 0.0, 3.913, 0.0056, 0.0127)" width="106.7" xlink:href="#shape0"/>
    </g>
    <g id="shape0" transform="matrix(1.0, 0.0, 0.0, 1.0, -32.55, -101.05)">
      <path d="M32.55 101.05 L139.25 101.05 139.25 124.05 32.55 124.05 32.55 101.05" fill="#000000" fill-opacity="0.003921569" fill-rule="evenodd" stroke="none"/>
    </g>
    <g id="shape1" transform="matrix(1.0, 0.0, 0.0, 1.0, -10.0, -14.75)">
      <path d="M62.8 66.55 L63.25 66.25 63.3 66.3 62.8 66.55" fill="#fdd969" fill-rule="evenodd" stroke="none"/>
      <path d="M58.85 28.1 L78.55 22.6 78.55 16.75 77.0 17.2 77.05 17.2 54.05 23.6 54.7 24.05 54.8 24.15 55.35 24.6 55.95 25.1 58.85 28.1 M80.0 23.75 L77.55 24.45 77.55 24.65 77.55 36.85 75.0 37.55 75.0 37.75 75.05 49.9 72.6 50.6 72.6 50.8 72.6 56.55 72.6 56.65 76.45 57.1 69.75 63.4 71.55 72.25 63.45 67.9 57.6 71.1 57.35 71.3 56.4 72.1 56.1 72.45 52.95 74.2 52.9 74.2 49.9 75.15 46.85 75.65 46.8 75.65 45.4 75.7 45.15 75.7 43.55 75.65 40.3 75.1 40.25 75.1 37.5 74.2 37.45 74.2 34.45 72.55 34.25 72.35 33.65 71.9 32.55 70.95 26.8 67.9 18.95 72.25 20.7 63.4 14.05 57.1 17.45 56.7 17.45 56.6 17.45 50.8 17.5 50.6 14.95 49.9 14.95 37.75 15.0 37.55 12.5 36.85 12.5 24.65 12.55 24.45 10.0 23.75 10.0 14.75 33.45 21.35 33.75 21.2 34.0 21.15 34.2 21.0 44.65 15.9 55.25 21.2 55.3 21.2 55.65 21.3 56.1 21.5 80.0 14.75 80.0 23.75 M48.35 25.2 L48.65 25.3 Q51.75 26.4 54.7 29.3 L55.1 29.75 55.8 30.45 58.3 33.85 60.1 36.9 60.7 37.95 61.7 40.0 61.85 40.3 61.9 40.4 62.6 42.3 62.85 43.0 63.2 43.95 63.35 44.4 63.5 44.95 63.55 45.15 63.55 45.2 63.9 46.5 63.95 46.75 64.1 47.45 64.2 47.95 64.2 48.0 64.3 48.3 64.3 48.35 64.35 48.4 64.45 49.7 67.4 55.95 71.1 56.45 71.1 51.05 67.4 52.1 67.4 52.0 67.3 51.2 Q66.95 47.65 66.0 44.2 L65.8 43.5 73.6 41.3 73.55 41.15 73.5 37.9 64.65 40.4 64.55 40.25 64.35 39.8 62.0 35.05 62.05 35.05 61.05 33.55 60.6 32.9 60.45 32.7 76.1 28.25 76.05 28.1 76.05 24.85 58.35 29.8 58.05 29.45 Q55.1 25.9 51.9 23.95 L50.45 23.05 53.8 22.15 44.65 17.5 35.6 21.95 39.6 23.05 38.15 23.95 Q34.95 25.9 32.0 29.45 L31.7 29.8 31.6 29.75 31.55 29.75 14.25 24.9 14.0 24.85 14.0 28.05 14.0 28.25 29.6 32.7 29.05 33.55 28.05 35.05 Q26.7 37.4 25.7 39.7 L25.65 39.8 25.4 40.4 25.25 40.4 24.25 40.1 24.25 40.05 24.2 40.05 18.0 38.3 17.95 38.3 16.45 37.9 16.45 41.1 16.45 41.3 24.3 43.5 24.2 43.75 24.1 44.2 Q23.1 47.65 22.75 51.2 L22.65 52.05 22.65 52.1 18.95 51.05 18.95 56.5 23.0 56.0 23.1 55.95 24.5 53.05 24.9 52.2 25.1 51.7 25.95 50.0 25.9 49.9 25.95 49.75 26.15 48.35 26.25 48.05 26.25 47.9 Q26.5 46.45 26.9 45.1 L26.95 45.05 26.95 45.0 Q27.55 42.85 28.4 40.8 L28.4 40.85 28.6 40.4 28.55 40.4 30.25 36.95 Q30.8 35.8 31.5 34.75 L32.1 33.85 Q33.05 32.45 34.1 31.2 L35.4 29.75 35.8 29.25 Q38.85 26.25 42.15 25.2 L42.3 25.15 Q43.1 24.75 44.1 24.65 L45.15 24.6 46.15 24.65 48.15 25.15 48.35 25.2 M27.85 47.8 L27.8 48.15 27.75 48.35 27.65 48.95 27.6 49.2 27.6 49.3 30.7 55.95 39.8 57.1 33.1 63.4 34.6 70.7 35.2 71.2 35.35 71.3 38.1 72.9 40.65 73.65 42.15 73.95 43.7 74.15 45.15 74.2 45.4 74.2 46.7 74.15 49.55 73.7 52.3 72.9 52.35 72.85 53.3 72.4 53.95 72.0 55.15 71.3 55.3 71.2 55.35 71.15 55.55 70.95 55.75 70.75 55.95 70.6 56.15 69.45 56.2 69.45 56.95 65.65 56.95 65.7 57.35 63.4 50.75 57.1 59.75 55.95 60.1 55.2 60.15 55.2 60.9 53.6 61.0 53.3 62.6 49.9 62.6 49.85 62.75 49.5 62.85 49.3 62.85 48.95 62.85 48.9 62.8 48.45 62.8 48.35 62.75 48.15 62.3 46.25 62.25 46.05 62.15 45.6 62.15 45.55 62.1 45.5 62.1 45.4 61.9 44.8 61.25 42.8 61.25 42.85 60.5 41.0 60.55 41.0 58.95 37.8 58.8 37.6 58.8 37.65 57.85 35.95 57.1 34.65 55.35 32.35 54.65 31.45 54.0 30.75 53.9 30.65 53.65 30.35 Q50.8 27.55 47.7 26.6 L47.65 26.55 47.5 26.5 47.35 26.45 47.3 26.45 47.0 26.35 46.95 26.35 46.7 26.25 46.7 26.3 46.6 26.25 46.0 26.15 45.15 26.1 44.6 26.15 44.25 26.15 42.85 26.55 42.75 26.6 Q41.0 27.1 39.3 28.25 L39.2 28.3 38.15 29.1 37.15 30.0 37.0 30.1 36.85 30.3 36.5 30.7 36.45 30.75 Q35.8 31.35 35.3 32.1 L35.3 32.15 35.05 32.4 34.5 33.05 33.35 34.65 33.35 34.7 32.75 35.6 32.75 35.55 32.35 36.2 32.05 36.65 32.15 36.55 31.6 37.6 31.55 37.6 29.95 41.0 29.95 41.05 29.8 41.3 29.8 41.35 29.05 43.3 28.4 45.3 28.4 45.5 27.9 47.5 27.85 47.8 M31.15 28.1 L31.45 27.8 Q33.2 25.75 35.15 24.25 L35.85 23.7 35.95 23.6 11.5 16.75 11.5 22.6 31.15 28.1 M68.75 50.1 L73.55 48.75 73.55 42.85 67.65 44.55 67.9 45.85 68.0 46.15 68.1 46.6 68.65 50.15 68.75 50.1 M76.05 29.85 L62.8 33.55 63.25 34.25 63.25 34.3 65.5 38.6 66.9 38.25 66.9 38.2 76.05 35.7 76.05 29.85 M26.5 34.75 L26.75 34.35 26.75 34.3 26.8 34.25 27.25 33.55 14.0 29.85 14.0 35.7 24.6 38.6 24.95 37.75 26.5 34.75 M21.35 50.15 L21.65 48.2 22.15 45.65 22.45 44.55 17.2 43.1 17.15 43.05 16.45 42.85 16.45 48.75 21.35 50.15 M21.4 69.15 L26.85 66.15 27.05 66.3 27.65 66.65 32.8 69.4 31.5 62.9 36.45 58.15 29.75 57.35 26.9 51.35 24.1 57.35 22.45 57.6 19.05 58.0 17.4 58.15 22.35 62.9 21.3 68.05 Q20.95 68.9 20.95 69.15 L21.0 69.35 21.0 69.4 21.05 69.35 21.15 69.45 21.35 69.2 21.4 69.15 M63.3 66.3 L63.5 66.15 63.9 66.35 64.3 66.6 64.3 66.65 69.0 69.15 69.0 69.1 69.05 69.15 69.35 69.3 69.4 69.35 69.4 68.9 69.2 68.2 69.05 67.3 68.15 62.9 71.75 59.45 71.8 59.45 73.15 58.15 66.4 57.35 63.55 51.35 60.75 57.35 54.05 58.15 59.0 62.9 57.65 69.4 62.75 66.6 62.8 66.55 63.3 66.3" fill="#4e1826" fill-rule="evenodd" stroke="none"/>
      <path d="M29.4 50.2 L29.75 50.9 31.35 54.55 35.65 54.85 Q41.45 55.65 41.45 57.2 L41.2 57.65 41.2 57.7 35.3 63.75 35.3 63.8 35.4 67.4 35.8 70.4 37.9 71.45 42.4 71.85 Q46.95 71.85 50.75 70.2 L54.05 68.3 54.35 66.6 51.35 67.9 48.75 69.15 47.9 68.85 Q48.45 68.25 53.85 66.05 L54.45 65.75 54.85 63.9 52.45 61.65 46.65 55.85 46.7 55.4 47.9 55.4 55.5 54.3 56.15 54.15 57.1 54.15 Q57.8 53.7 59.55 49.95 L59.55 49.9 60.05 48.6 59.5 45.95 Q58.6 46.6 57.1 47.15 L53.2 48.35 53.1 48.2 Q54.15 47.1 56.7 46.2 L59.3 45.25 58.2 42.15 56.5 37.7 Q53.25 39.7 49.0 40.8 51.35 39.05 56.2 37.1 L55.85 36.35 55.3 35.25 55.1 34.8 54.9 34.5 54.5 34.0 52.35 31.15 Q50.9 32.45 45.8 34.6 46.85 33.55 49.5 32.1 51.1 31.15 52.0 30.8 L51.55 30.25 Q49.25 28.4 47.1 27.45 L47.0 27.4 46.5 27.2 46.4 27.15 46.15 27.05 45.9 26.95 44.95 26.4 44.6 26.15 45.15 26.1 46.0 26.15 46.6 26.25 46.7 26.3 46.7 26.25 46.95 26.35 47.0 26.35 47.3 26.45 47.35 26.45 47.5 26.5 47.65 26.55 47.7 26.6 Q50.8 27.55 53.65 30.35 L53.9 30.65 54.0 30.75 54.65 31.45 55.35 32.35 57.1 34.65 57.85 35.95 58.8 37.65 58.8 37.6 58.95 37.8 60.55 41.0 60.5 41.0 61.25 42.85 61.25 42.8 61.9 44.8 62.1 45.4 62.1 45.5 62.15 45.55 62.15 45.6 62.25 46.05 62.3 46.25 62.75 48.15 62.8 48.35 62.8 48.45 62.85 48.9 62.85 48.95 62.85 49.3 62.75 49.5 62.6 49.85 62.6 49.9 61.0 53.3 60.9 53.6 60.15 55.2 60.1 55.2 59.75 55.95 50.75 57.1 57.35 63.4 56.95 65.7 56.95 65.65 56.2 69.45 56.15 69.45 55.95 70.6 55.75 70.75 55.55 70.95 55.35 71.15 55.3 71.2 55.15 71.3 53.95 72.0 53.3 72.4 52.35 72.85 52.3 72.9 49.55 73.7 46.7 74.15 45.4 74.2 45.15 74.2 43.7 74.15 42.15 73.95 40.65 73.65 38.1 72.9 35.35 71.3 35.2 71.2 34.6 70.7 33.1 63.4 39.8 57.1 30.7 55.95 27.6 49.3 27.6 49.2 27.65 48.95 27.75 48.35 27.8 48.15 27.85 47.8 28.05 47.95 28.1 48.05 28.15 48.05 28.15 48.1 28.45 48.5 28.65 48.8 28.8 49.1 28.8 49.05 28.95 49.35 29.25 49.95 29.25 49.9 29.35 50.05 29.4 50.2" fill="#b6dddf" fill-rule="evenodd" stroke="none"/>
      <path d="M47.1 27.45 Q49.25 28.4 51.55 30.25 L52.0 30.8 Q51.1 31.15 49.5 32.1 46.85 33.55 45.8 34.6 50.9 32.45 52.35 31.15 L54.5 34.0 54.9 34.5 55.1 34.8 55.3 35.25 55.85 36.35 56.2 37.1 Q51.35 39.05 49.0 40.8 53.25 39.7 56.5 37.7 L58.2 42.15 59.3 45.25 56.7 46.2 Q54.15 47.1 53.1 48.2 L53.2 48.35 57.1 47.15 Q58.6 46.6 59.5 45.95 L60.05 48.6 59.55 49.9 59.55 49.95 Q57.8 53.7 57.1 54.15 L56.15 54.15 55.5 54.3 47.9 55.4 46.7 55.4 46.65 55.85 52.45 61.65 54.85 63.9 54.45 65.75 53.85 66.05 Q48.45 68.25 47.9 68.85 L48.75 69.15 51.35 67.9 54.35 66.6 54.05 68.3 50.75 70.2 Q46.95 71.85 42.4 71.85 L37.9 71.45 35.8 70.4 35.4 67.4 35.3 63.8 35.3 63.75 41.2 57.7 41.2 57.65 41.45 57.2 Q41.45 55.65 35.65 54.85 L31.35 54.55 29.75 50.9 29.4 50.2 29.6 49.6 32.05 42.3 Q33.45 38.7 35.15 36.0 39.2 30.8 47.1 27.45 M32.15 36.55 L32.95 35.4 33.1 35.25 32.1 37.0 Q30.4 40.0 29.05 43.3 L29.8 41.35 29.8 41.3 29.95 41.05 29.95 41.0 31.55 37.6 31.6 37.6 32.15 36.55" fill="#d1ffff" fill-rule="evenodd" stroke="none"/>
      <path d="M47.1 27.45 Q39.2 30.8 35.15 36.0 33.45 38.7 32.05 42.3 L29.6 49.6 29.4 50.2 29.35 50.05 29.25 49.9 29.25 49.95 28.95 49.35 28.8 49.05 28.8 49.1 28.65 48.8 28.45 48.5 28.15 48.1 28.15 48.05 28.1 48.05 28.05 47.95 27.85 47.8 27.9 47.5 28.4 45.5 28.4 45.3 29.05 43.3 Q30.4 40.0 32.1 37.0 L33.1 35.25 32.95 35.4 32.15 36.55 32.05 36.65 32.35 36.2 32.75 35.55 32.75 35.6 33.35 34.7 33.35 34.65 34.5 33.05 35.05 32.4 35.3 32.15 35.3 32.1 Q35.8 31.35 36.45 30.75 L36.5 30.7 36.85 30.3 37.0 30.1 37.15 30.0 38.15 29.1 39.2 28.3 39.3 28.25 Q41.0 27.1 42.75 26.6 L42.85 26.55 44.25 26.15 44.6 26.15 44.95 26.4 45.9 26.95 46.15 27.05 46.4 27.15 46.5 27.2 47.0 27.4 47.1 27.45" fill="#ffffff" fill-rule="evenodd" stroke="none"/>
      <path d="M58.85 28.1 L55.95 25.1 55.35 24.6 54.8 24.15 54.7 24.05 54.05 23.6 77.05 17.2 77.0 17.2 78.55 16.75 78.55 22.6 58.85 28.1 M76.05 29.85 L76.05 35.7 66.9 38.2 66.9 38.25 65.5 38.6 63.25 34.3 63.25 34.25 62.8 33.55 76.05 29.85 M68.75 50.1 L68.65 50.15 68.1 46.6 68.0 46.15 67.9 45.85 67.65 44.55 73.55 42.85 73.55 48.75 68.75 50.1 M31.15 28.1 L11.5 22.6 11.5 16.75 35.95 23.6 35.85 23.7 35.15 24.25 Q33.2 25.75 31.45 27.8 L31.15 28.1 M26.5 34.75 L24.95 37.75 24.6 38.6 14.0 35.7 14.0 29.85 27.25 33.55 26.8 34.25 26.75 34.3 26.75 34.35 26.5 34.75 M21.35 50.15 L16.45 48.75 16.45 42.85 17.15 43.05 17.2 43.1 22.45 44.55 22.15 45.65 21.65 48.2 21.35 50.15" fill="#4f79d2" fill-rule="evenodd" stroke="none"/>
      <path d="M21.4 69.15 L21.35 69.2 21.15 69.45 21.05 69.35 21.0 69.4 21.0 69.35 20.95 69.15 Q20.95 68.9 21.3 68.05 L22.35 62.9 17.4 58.15 19.05 58.0 22.45 57.6 24.1 57.35 26.9 51.35 29.75 57.35 36.45 58.15 31.5 62.9 32.8 69.4 27.65 66.65 27.05 66.3 26.85 66.15 21.4 69.15 M62.8 66.55 L62.75 66.6 57.65 69.4 59.0 62.9 54.05 58.15 60.75 57.35 63.55 51.35 66.4 57.35 73.15 58.15 71.8 59.45 71.75 59.45 68.15 62.9 69.05 67.3 69.2 68.2 69.4 68.9 69.4 69.35 69.35 69.3 69.05 69.15 69.0 69.1 69.0 69.15 64.3 66.65 64.3 66.6 63.9 66.35 63.5 66.15 63.3 66.3 63.25 66.25 62.8 66.55" fill="#ffcc00" fill-rule="evenodd" stroke="none"/>
      <path d="M48.35 25.2 L48.15 25.15 46.15 24.65 45.15 24.6 44.1 24.65 Q43.1 24.75 42.3 25.15 L42.15 25.2 Q38.85 26.25 35.8 29.25 L35.4 29.75 34.1 31.2 Q33.05 32.45 32.1 33.85 L31.5 34.75 Q30.8 35.8 30.25 36.95 L28.55 40.4 28.6 40.4 28.4 40.85 28.4 40.8 Q27.55 42.85 26.95 45.0 L26.95 45.05 26.9 45.1 Q26.5 46.45 26.25 47.9 L26.25 48.05 26.15 48.35 25.95 49.75 25.9 49.9 25.95 50.0 25.1 51.7 24.9 52.2 24.5 53.05 23.1 55.95 23.0 56.0 18.95 56.5 18.95 51.05 22.65 52.1 22.65 52.05 22.75 51.2 Q23.1 47.65 24.1 44.2 L24.2 43.75 24.3 43.5 16.45 41.3 16.45 41.1 16.45 37.9 17.95 38.3 18.0 38.3 24.2 40.05 24.25 40.05 24.25 40.1 25.25 40.4 25.4 40.4 25.65 39.8 25.7 39.7 Q26.7 37.4 28.05 35.05 L29.05 33.55 29.6 32.7 14.0 28.25 14.0 28.05 14.0 24.85 14.25 24.9 31.55 29.75 31.6 29.75 31.7 29.8 32.0 29.45 Q34.95 25.9 38.15 23.95 L39.6 23.05 35.6 21.95 44.65 17.5 53.8 22.15 50.45 23.05 51.9 23.95 Q55.1 25.9 58.05 29.45 L58.35 29.8 76.05 24.85 76.05 28.1 76.1 28.25 60.45 32.7 60.6 32.9 61.05 33.55 62.05 35.05 62.0 35.05 64.35 39.8 64.55 40.25 64.65 40.4 73.5 37.9 73.55 41.15 73.6 41.3 65.8 43.5 66.0 44.2 Q66.95 47.65 67.3 51.2 L67.4 52.0 67.4 52.1 71.1 51.05 71.1 56.45 67.4 55.95 64.45 49.7 64.35 48.4 64.3 48.35 64.3 48.3 64.2 48.0 64.2 47.95 64.1 47.45 63.95 46.75 63.9 46.5 63.55 45.2 63.55 45.15 63.5 44.95 63.35 44.4 63.2 43.95 62.85 43.0 62.6 42.3 61.9 40.4 61.85 40.3 61.7 40.0 60.7 37.95 60.1 36.9 58.3 33.85 55.8 30.45 55.1 29.75 54.7 29.3 Q51.75 26.4 48.65 25.3 L48.35 25.2" fill="url(#gradient0)" fill-rule="evenodd" stroke="none"/>
      <path d="M25.0 57.8 L26.9 53.7 28.85 57.8 29.2 58.15 29.65 58.35 34.25 58.9 30.8 62.2 30.55 62.6 30.55 63.1 31.4 67.55 28.2 65.8 28.15 65.8 27.55 65.45 27.5 65.4 Q27.3 65.2 27.0 65.15 L26.4 65.3 22.45 67.45 23.35 63.1 23.3 62.6 23.05 62.2 19.75 59.0 22.75 58.55 22.6 58.6 24.25 58.35 24.7 58.15 25.0 57.8 M68.05 67.55 L65.05 65.9 64.75 65.7 64.5 65.55 64.45 65.55 Q64.25 65.35 63.9 65.25 L63.4 65.15 63.0 65.3 62.8 65.35 62.2 65.8 59.1 67.5 60.0 63.1 59.95 62.6 59.7 62.2 56.3 58.9 60.9 58.35 61.35 58.15 61.65 57.8 63.55 53.7 65.5 57.8 65.85 58.15 66.3 58.35 70.9 58.9 67.45 62.2 Q67.25 62.35 67.2 62.6 L67.2 63.1 68.05 67.4 68.05 67.55" fill="url(#gradient1)" fill-rule="evenodd" stroke="none"/>
      <path d="M68.05 67.55 L68.3 67.65 68.1 67.8 68.05 67.55" fill="#cc33cc" fill-rule="evenodd" stroke="none"/>
      <path d="M77.55 18.1 L77.55 21.85 59.2 26.95 56.65 24.4 56.6 24.35 56.25 24.05 77.35 18.2 77.55 18.1" fill="url(#gradient2)" fill-rule="evenodd" stroke="none"/>
      <path d="M77.55 18.1 L77.75 17.95 77.8 18.0 77.55 18.1" fill="#ffffff" fill-rule="evenodd" stroke="none"/>
      <path d="M75.05 31.2 L75.05 34.95 66.65 37.25 66.4 37.35 66.15 37.6 66.05 37.45 64.35 34.2 75.05 31.2" fill="url(#gradient3)" fill-rule="evenodd" stroke="none"/>
      <path d="M68.95 45.85 L68.9 45.65 68.85 45.25 72.55 44.2 72.55 48.0 69.5 48.85 69.1 46.4 69.05 46.25 69.0 46.15 68.95 45.85" fill="url(#gradient4)" fill-rule="evenodd" stroke="none"/>
      <path d="M12.5 18.1 L33.75 24.05 33.75 24.1 Q32.25 25.35 30.9 27.0 L12.5 21.85 12.5 18.1" fill="url(#gradient5)" fill-rule="evenodd" stroke="none"/>
      <path d="M15.0 34.95 L15.0 31.2 25.7 34.15 25.65 34.25 24.05 37.35 24.05 37.4 15.0 34.95" fill="url(#gradient6)" fill-rule="evenodd" stroke="none"/>
      <path d="M17.45 48.0 L17.45 44.25 21.25 45.25 21.2 45.4 21.2 45.45 20.7 48.05 20.7 48.0 20.5 48.9 17.45 48.0" fill="url(#gradient7)" fill-rule="evenodd" stroke="none"/>
    </g>
    <linearGradient gradientTransform="matrix(0.0, 0.0319, -0.0379, 0.0, 45.05, 44.6)" gradientUnits="userSpaceOnUse" id="gradient0" spreadMethod="pad" x1="-819.2" x2="819.2">
      <stop offset="0.0" stop-color="#ff807a"/>
      <stop offset="0.48627450980392156" stop-color="#c9463a"/>
      <stop offset="1.0" stop-color="#990033"/>
    </linearGradient>
    <linearGradient gradientTransform="matrix(0.0, 0.0133, -0.0121, 0.0, 3.3, 62.25)" gradientUnits="userSpaceOnUse" id="gradient1" spreadMethod="pad" x1="-819.2" x2="819.2">
      <stop offset="0.0" stop-color="#ffffff" stop-opacity="0.2"/>
      <stop offset="1.0" stop-color="#000000" stop-opacity="0.6"/>
    </linearGradient>
    <linearGradient gradientTransform="matrix(6.0E-4, 0.0026, -0.0131, 0.0031, 67.35, 22.75)" gradientUnits="userSpaceOnUse" id="gradient2" spreadMethod="pad" x1="-819.2" x2="819.2">
      <stop offset="0.0" stop-color="#ffffff" stop-opacity="0.2"/>
      <stop offset="1.0" stop-color="#000000" stop-opacity="0.6"/>
    </linearGradient>
    <linearGradient gradientTransform="matrix(6.0E-4, 0.0024, -0.0066, 0.0017, 70.2, 34.5)" gradientUnits="userSpaceOnUse" id="gradient3" spreadMethod="pad" x1="-819.2" x2="819.2">
      <stop offset="0.0" stop-color="#ffffff" stop-opacity="0.2"/>
      <stop offset="1.0" stop-color="#000000" stop-opacity="0.6"/>
    </linearGradient>
    <linearGradient gradientTransform="matrix(5.0E-4, 0.0023, -0.0024, 6.0E-4, 71.05, 46.5)" gradientUnits="userSpaceOnUse" id="gradient4" spreadMethod="pad" x1="-819.2" x2="819.2">
      <stop offset="0.0" stop-color="#ffffff" stop-opacity="0.2"/>
      <stop offset="1.0" stop-color="#000000" stop-opacity="0.6"/>
    </linearGradient>
    <linearGradient gradientTransform="matrix(-6.0E-4, 0.0024, -0.0131, -0.0033, 22.65, 22.85)" gradientUnits="userSpaceOnUse" id="gradient5" spreadMethod="pad" x1="-819.2" x2="819.2">
      <stop offset="0.0" stop-color="#ffffff" stop-opacity="0.2"/>
      <stop offset="1.0" stop-color="#000000" stop-opacity="0.6"/>
    </linearGradient>
    <linearGradient gradientTransform="matrix(-6.0E-4, 0.0022, -0.0065, -0.0017, 19.95, 34.35)" gradientUnits="userSpaceOnUse" id="gradient6" spreadMethod="pad" x1="-819.2" x2="819.2">
      <stop offset="0.0" stop-color="#ffffff" stop-opacity="0.2"/>
      <stop offset="1.0" stop-color="#000000" stop-opacity="0.6"/>
    </linearGradient>
    <linearGradient gradientTransform="matrix(-5.0E-4, 0.0023, -0.0024, -6.0E-4, 19.0, 46.6)" gradientUnits="userSpaceOnUse" id="gradient7" spreadMethod="pad" x1="-819.2" x2="819.2">
      <stop offset="0.0" stop-color="#ffffff" stop-opacity="0.2"/>
      <stop offset="1.0" stop-color="#000000" stop-opacity="0.6"/>
    </linearGradient>
  </defs>
</svg>
