<?xml version="1.0" encoding="UTF-8" standalone="no"?>
<svg xmlns:ffdec="https://www.free-decompiler.com/flash" xmlns:xlink="http://www.w3.org/1999/xlink" ffdec:objectType="frame" height="30.0px" width="30.0px" xmlns="http://www.w3.org/2000/svg">
  <g transform="matrix(1.0, 0.0, 0.0, 1.0, 0.0, 0.0)">
    <use ffdec:characterId="146" height="90.0" transform="matrix(0.3333, 0.0, 0.0, 0.3333, 0.0, 0.0)" width="90.0" xlink:href="#sprite0"/>
  </g>
  <defs>
    <g id="sprite0" transform="matrix(1.0, 0.0, 0.0, 1.0, 0.0, 0.0)">
      <use ffdec:characterId="140" height="90.0" transform="matrix(1.0, 0.0, 0.0, 1.0, 0.0, 0.0)" width="90.0" xlink:href="#sprite1"/>
      <use ffdec:characterId="145" height="67.45" transform="matrix(1.0, 0.0, 0.0, 1.0, 4.0, 11.25)" width="82.0" xlink:href="#shape1"/>
    </g>
    <g id="sprite1" transform="matrix(1.0, 0.0, 0.0, 1.0, 0.0, 0.0)">
      <use ffdec:characterId="139" height="23.0" transform="matrix(0.8435, 0.0, 0.0, 3.913, 0.0056, 0.0127)" width="106.7" xlink:href="#shape0"/>
    </g>
    <g id="shape0" transform="matrix(1.0, 0.0, 0.0, 1.0, -32.55, -101.05)">
      <path d="M32.55 101.05 L139.25 101.05 139.25 124.05 32.55 124.05 32.55 101.05" fill="#000000" fill-opacity="0.003921569" fill-rule="evenodd" stroke="none"/>
    </g>
    <g id="shape1" transform="matrix(1.0, 0.0, 0.0, 1.0, -4.0, -11.25)">
      <path d="M52.65 58.3 L52.55 58.0 52.25 56.4 52.3 56.4 52.65 58.3 M31.75 65.15 L31.75 65.0 32.35 65.25 31.75 65.15 M35.3 59.05 L35.15 59.1 35.15 59.0 35.6 58.45 35.3 59.05 M63.45 69.6 L63.4 69.5 64.4 64.4 64.55 64.4 63.45 69.6" fill="#fdd969" fill-rule="evenodd" stroke="none"/>
      <path d="M39.9 76.55 L38.25 76.05 38.3 76.05 39.9 76.55" fill="#8c3636" fill-rule="evenodd" stroke="none"/>
      <path d="M50.7 26.45 L51.0 26.7 Q51.95 27.3 52.9 28.25 L53.05 28.35 53.3 28.6 53.95 29.25 54.1 29.4 54.65 30.1 Q56.65 32.45 58.5 35.85 59.9 38.35 60.9 41.0 L61.45 42.5 61.8 43.65 62.5 47.1 62.65 47.95 62.65 48.15 62.7 48.4 50.55 46.85 45.35 35.7 43.3 40.05 43.2 40.25 41.9 43.0 41.9 43.05 40.05 46.85 27.8 48.4 32.8 53.15 31.2 53.6 30.25 52.75 27.55 50.05 27.55 49.95 27.55 49.9 27.7 48.45 27.7 48.35 27.7 48.25 27.75 48.05 27.75 47.9 27.75 47.8 27.8 47.6 27.9 46.8 27.9 46.7 31.5 45.8 31.3 46.35 31.45 46.4 Q31.8 45.85 33.5 45.5 L38.35 44.65 38.45 44.45 39.5 42.65 40.6 40.75 38.9 39.65 36.65 37.9 36.65 37.7 Q37.2 37.65 39.25 38.9 L41.0 40.05 44.85 33.45 Q45.35 33.15 45.6 33.15 46.15 33.15 48.95 38.45 L50.4 41.25 51.5 43.9 52.2 44.0 55.8 44.85 Q54.25 43.85 53.65 43.25 53.75 43.0 54.25 42.9 L54.35 42.9 54.3 43.25 56.35 44.0 58.5 45.3 60.15 45.55 60.2 44.9 Q60.2 43.55 58.6 40.45 L57.8 38.1 54.35 36.05 Q51.85 34.5 51.2 33.65 L51.2 33.3 Q52.3 33.7 54.6 35.2 56.15 36.2 57.35 37.15 L56.5 35.45 Q55.45 33.25 54.55 32.2 L54.15 31.55 52.05 28.4 50.6 26.55 50.6 26.5 50.7 26.45 M33.25 66.8 L33.4 66.85 34.9 67.0 34.6 68.4 32.95 66.95 32.9 66.8 33.25 66.8 M37.4 70.1 L36.55 69.65 35.5 69.1 35.45 69.05 35.15 68.85 35.05 68.75 37.75 67.25 42.05 67.65 40.65 65.7 45.35 63.1 49.8 65.6 48.6 67.35 48.6 67.4 48.55 67.5 48.4 67.65 51.45 67.4 51.45 67.35 52.85 67.25 55.35 68.65 54.95 68.95 54.75 69.05 54.25 69.4 53.2 69.95 53.25 69.95 53.2 70.0 52.45 69.05 48.3 69.05 48.05 69.05 47.55 69.3 Q46.75 69.3 46.6 68.55 L46.6 67.75 Q46.6 67.1 47.15 66.35 L46.8 66.1 45.15 64.9 44.0 65.45 43.4 65.8 Q44.65 66.95 44.65 68.1 44.65 68.9 44.2 69.15 L44.0 69.3 43.45 69.55 39.05 68.95 38.35 69.45 37.4 70.1 M57.65 66.75 L57.3 67.1 56.0 68.15 55.7 66.95 57.65 66.75" fill="#b6dddf" fill-rule="evenodd" stroke="none"/>
      <path d="M31.5 45.8 L31.55 45.4 32.25 42.8 32.85 40.9 Q35.05 34.6 37.8 31.05 41.9 26.85 47.5 26.85 L49.4 26.8 49.45 26.7 Q49.75 25.8 50.6 26.55 L52.05 28.4 54.15 31.55 54.55 32.2 Q55.45 33.25 56.5 35.45 L57.35 37.15 Q56.15 36.2 54.6 35.2 52.3 33.7 51.2 33.3 L51.2 33.65 Q51.85 34.5 54.35 36.05 L57.8 38.1 58.6 40.45 Q60.2 43.55 60.2 44.9 L60.15 45.55 58.5 45.3 56.35 44.0 54.3 43.25 54.35 42.9 54.25 42.9 Q53.75 43.0 53.65 43.25 54.25 43.85 55.8 44.85 L52.2 44.0 51.5 43.9 50.4 41.25 48.95 38.45 Q46.15 33.15 45.6 33.15 45.35 33.15 44.85 33.45 L41.0 40.05 39.25 38.9 Q37.2 37.65 36.65 37.7 L36.65 37.9 38.9 39.65 40.6 40.75 39.5 42.65 38.45 44.45 38.35 44.65 33.5 45.5 Q31.8 45.85 31.45 46.4 L31.3 46.35 31.5 45.8 M32.95 66.95 L32.85 66.85 32.75 66.75 33.25 66.8 32.9 66.8 32.95 66.95 M53.2 70.0 Q52.7 70.15 52.2 70.45 L52.15 70.5 Q49.4 71.45 46.65 71.75 L45.35 71.8 45.1 71.8 43.7 71.75 Q40.9 71.45 38.2 70.5 L37.4 70.1 38.35 69.45 39.05 68.95 43.45 69.55 44.0 69.3 44.2 69.15 Q44.65 68.9 44.65 68.1 44.65 66.95 43.4 65.8 L44.0 65.45 45.15 64.9 46.8 66.1 47.15 66.35 Q46.6 67.1 46.6 67.75 L46.6 68.55 Q46.75 69.3 47.55 69.3 L48.05 69.05 48.3 69.05 52.45 69.05 53.2 70.0 M57.85 53.2 L62.7 48.55 62.9 50.25 59.2 53.6 57.85 53.2" fill="#d1ffff" fill-rule="evenodd" stroke="none"/>
      <path d="M27.9 46.7 L28.0 46.15 28.0 46.2 28.2 45.3 28.25 45.1 28.5 44.1 28.65 43.5 28.95 42.5 29.05 42.2 29.1 42.1 29.1 42.0 29.35 41.35 29.35 41.3 29.4 41.3 30.0 39.5 30.2 39.15 30.2 39.1 30.25 39.05 30.25 39.0 31.5 36.35 31.55 36.3 31.55 36.2 31.65 36.1 31.7 36.0 31.8 35.85 32.95 33.85 33.85 32.4 Q35.15 30.5 36.65 29.0 L36.95 28.7 37.85 27.85 37.9 27.8 Q38.35 27.35 38.8 27.05 40.7 25.6 42.75 25.05 L42.85 25.0 Q43.1 24.85 43.45 24.8 L44.2 24.6 45.9 24.6 47.55 25.0 47.6 25.05 48.3 25.3 Q49.5 25.7 50.7 26.45 L50.6 26.5 50.6 26.55 Q49.75 25.8 49.45 26.7 L49.4 26.8 47.5 26.85 Q41.9 26.85 37.8 31.05 35.05 34.6 32.85 40.9 L32.25 42.8 31.55 45.4 31.5 45.8 27.9 46.7 M30.25 52.75 L27.5 50.25 27.55 50.05 30.25 52.75" fill="#ffffff" fill-rule="evenodd" stroke="none"/>
      <path d="M83.2 40.7 Q81.5 42.75 76.95 43.9 L71.4 45.2 68.05 45.9 67.95 45.35 67.85 44.8 67.4 43.05 67.4 42.9 67.35 42.85 67.2 42.35 67.05 41.7 70.25 40.05 70.25 40.0 Q76.8 36.4 82.25 32.35 L83.25 31.5 83.55 33.0 84.2 38.0 84.2 38.05 84.2 38.2 84.2 38.25 Q84.15 39.55 83.2 40.7 M68.6 50.8 L68.5 49.1 71.95 48.65 84.55 46.45 84.5 47.7 Q84.25 51.2 83.55 54.4 L83.55 54.35 83.5 54.55 Q82.75 56.4 79.9 56.8 L77.3 56.9 72.4 56.2 68.65 55.55 68.65 54.4 68.65 53.3 68.65 52.2 68.6 50.8 M80.95 25.35 Q79.85 29.1 74.45 32.8 L74.4 32.8 68.85 36.8 66.0 38.55 65.7 37.8 65.55 37.5 64.55 35.25 64.4 34.9 64.25 34.7 64.25 34.65 67.0 31.6 67.85 30.55 67.95 30.5 68.55 29.7 Q73.5 23.4 77.3 16.15 L78.3 14.2 78.4 13.9 79.1 15.85 81.0 21.9 Q81.4 23.65 80.95 25.35 M8.9 24.4 L8.85 24.2 8.85 24.15 Q8.75 23.05 9.05 21.9 L10.7 16.55 10.75 16.5 10.9 16.0 11.65 13.9 12.4 15.45 12.75 16.1 Q16.45 23.4 21.55 29.75 L21.5 29.75 23.05 31.6 26.05 34.95 25.55 36.0 25.2 36.9 25.1 37.1 25.15 37.05 24.4 38.8 23.15 37.95 21.3 36.8 21.25 36.8 15.55 32.8 Q9.45 28.7 8.9 24.4 M6.45 40.2 Q5.8 39.2 5.8 38.0 L6.5 33.0 6.7 31.5 7.6 32.2 7.9 32.4 Q13.3 36.5 19.85 40.05 L19.85 40.1 23.4 41.9 23.35 42.15 23.1 43.05 22.7 44.55 22.65 44.75 22.6 44.95 22.55 45.35 22.45 46.0 22.3 46.0 19.85 45.45 18.75 45.2 13.1 43.9 Q7.95 42.6 6.45 40.2 M21.9 50.1 L21.85 50.6 21.75 53.55 21.8 55.5 20.1 55.8 17.7 56.2 12.75 56.9 Q10.05 57.05 8.45 56.4 L6.95 55.3 6.5 54.35 6.5 54.4 Q5.75 51.15 5.55 47.6 L5.5 46.45 6.9 46.7 18.1 48.65 22.0 49.15 21.95 49.85 21.9 50.1 M15.45 61.7 L23.3 64.45 20.6 65.85 19.6 66.25 19.45 66.3 Q17.4 67.25 15.8 67.45 L13.75 67.4 12.35 66.85 11.4 66.05 9.85 63.5 8.9 61.6 10.45 61.35 18.2 59.8 19.0 59.6 15.45 61.7 M26.45 74.3 L28.35 71.85 28.95 72.4 29.55 73.0 28.0 74.2 27.75 74.4 27.0 74.85 26.9 74.9 26.45 75.05 25.35 75.45 25.3 75.5 24.05 75.7 Q22.25 75.85 20.35 75.0 L20.25 75.0 Q19.2 74.25 18.3 73.5 L17.0 72.4 21.25 70.25 21.3 70.2 25.15 67.95 26.45 74.3 M80.5 62.95 L78.65 66.05 77.85 66.75 77.8 66.8 75.0 67.5 72.05 66.9 70.55 66.3 70.55 66.25 69.05 65.65 68.7 65.45 67.55 64.95 67.55 64.9 66.85 64.55 74.9 61.7 71.6 59.7 71.9 59.8 81.15 61.6 80.5 62.95 M72.15 73.2 L69.7 75.0 Q67.15 76.15 64.7 75.5 L63.8 75.2 62.25 74.35 62.0 74.2 60.7 73.2 62.05 71.9 63.9 74.3 65.25 68.15 68.85 70.25 73.05 72.4 72.15 73.2" fill="#4f79d2" fill-rule="evenodd" stroke="none"/>
      <path d="M52.65 58.3 L53.1 61.05 53.1 61.1 54.1 66.25 53.45 65.95 Q53.3 65.8 53.2 65.8 L51.3 64.75 51.2 64.7 45.35 61.45 39.35 64.75 39.25 64.8 37.8 65.65 37.25 65.9 Q37.15 65.9 37.1 66.0 L36.5 66.3 37.4 61.45 37.45 61.3 38.35 56.4 37.95 56.0 37.85 55.85 31.65 50.1 31.5 49.95 31.05 49.5 32.3 49.35 32.35 49.35 32.6 49.3 32.65 49.3 41.0 48.25 45.35 39.15 45.65 39.65 45.65 39.75 49.55 48.25 49.95 48.3 50.0 48.3 51.85 48.5 51.95 48.5 59.6 49.5 52.7 56.0 52.25 56.3 52.3 56.4 52.25 56.4 52.55 58.0 52.65 58.3 M31.75 65.15 L31.7 65.15 31.15 66.0 31.1 66.05 30.95 66.2 27.25 70.95 25.75 63.8 18.9 61.35 25.15 57.65 25.4 50.35 26.15 51.05 26.2 51.1 30.8 55.2 34.0 54.3 35.1 55.4 35.15 55.4 36.45 56.6 36.05 57.55 36.0 57.55 35.95 57.75 35.6 58.45 35.15 59.0 35.15 59.1 35.3 59.05 34.95 59.85 36.0 61.3 35.15 65.55 32.35 65.25 31.75 65.0 31.75 65.15 M63.45 69.6 L63.15 70.95 63.0 70.75 63.0 70.8 58.65 65.15 55.45 65.55 54.65 61.1 55.45 59.8 54.05 56.75 56.6 54.35 59.55 55.2 64.0 51.2 64.2 51.05 64.25 51.0 65.0 50.3 65.3 57.25 65.9 58.0 65.9 58.05 66.0 58.1 66.05 58.1 71.5 61.35 64.65 63.8 64.55 64.4 64.4 64.4 63.4 69.5 63.45 69.6" fill="#ffcc00" fill-rule="evenodd" stroke="none"/>
      <path d="M64.25 49.0 L64.1 47.95 63.2 43.25 62.8 42.05 62.85 42.05 62.25 40.45 Q61.25 37.75 59.8 35.15 L58.2 32.4 Q59.85 33.2 61.4 33.3 L63.7 33.05 62.85 34.05 62.65 34.55 62.8 34.95 62.9 35.05 63.0 35.15 63.1 35.55 64.75 39.45 64.95 39.9 65.0 40.0 65.25 40.25 65.35 40.3 65.75 40.35 65.85 40.35 66.0 40.25 68.9 38.5 69.0 38.95 69.05 39.0 65.8 40.7 Q65.5 40.8 65.45 41.15 L65.45 41.65 65.8 42.8 65.8 42.75 66.7 46.85 66.9 47.25 67.0 47.3 67.05 47.35 67.15 47.4 67.55 47.45 67.7 47.4 70.9 46.75 71.0 47.3 67.6 47.75 Q67.25 47.8 67.15 48.05 66.9 48.25 66.95 48.55 L67.15 52.2 67.15 52.25 67.15 54.4 67.15 56.1 67.15 56.3 67.25 56.6 Q67.4 56.85 67.75 56.9 L71.45 57.55 71.35 58.2 67.95 57.3 67.75 57.25 67.5 57.25 66.7 56.8 66.3 47.1 64.25 49.0 M30.95 34.35 L30.5 35.2 30.45 35.3 30.25 35.65 Q29.55 36.95 28.95 38.35 L28.95 38.4 28.9 38.45 28.65 39.05 28.65 38.95 27.95 40.9 27.7 41.6 27.65 41.75 27.65 41.9 27.6 42.05 27.6 42.0 27.25 43.1 Q26.95 43.95 26.8 44.85 L26.75 45.05 26.6 45.85 26.55 45.9 26.45 46.55 26.4 46.8 26.25 47.65 26.25 47.8 26.2 48.15 26.15 49.05 25.95 48.9 25.85 48.8 24.0 47.1 23.75 56.8 22.95 57.25 22.85 57.2 22.6 57.2 22.45 57.25 18.65 58.2 18.6 57.65 18.6 57.55 22.7 56.85 Q23.0 56.8 23.2 56.55 L23.3 56.25 23.3 56.05 Q23.05 52.25 23.5 48.6 L23.35 48.1 Q23.15 47.85 22.85 47.8 L22.8 47.8 22.15 47.7 21.4 47.65 21.4 47.6 19.0 47.3 19.05 47.0 19.1 46.75 22.75 47.5 22.9 47.55 23.2 47.55 23.45 47.45 23.65 47.2 23.75 46.95 24.25 44.6 24.75 42.55 24.85 42.2 24.95 41.9 24.95 41.85 25.0 41.3 24.6 40.9 23.85 40.5 Q22.45 39.7 21.05 39.05 L21.1 38.95 21.2 38.7 21.25 38.5 22.65 39.45 22.7 39.45 23.95 40.15 24.45 40.5 24.95 40.6 25.0 40.6 25.15 40.55 25.45 40.25 25.55 39.95 26.45 37.65 27.4 35.5 27.55 35.15 27.6 35.15 27.65 34.95 27.65 34.85 27.45 34.3 27.4 34.25 26.4 33.2 26.3 33.05 26.4 33.1 27.5 33.3 28.45 33.35 Q30.25 33.3 32.2 32.35 L31.7 33.05 31.05 34.2 30.95 34.35 M24.6 65.45 L24.85 66.45 21.25 68.55 20.75 67.4 20.75 67.35 24.6 65.45 M38.25 76.05 L38.0 75.95 34.45 74.45 34.3 74.4 32.9 73.55 32.2 73.2 31.95 73.05 31.65 72.85 31.35 72.7 31.25 72.5 31.05 72.35 29.95 71.4 29.95 71.35 29.75 71.15 29.35 70.75 29.3 70.7 29.65 70.3 29.65 70.25 31.05 68.45 31.05 68.4 31.1 68.35 31.6 67.7 31.8 67.9 33.7 69.55 34.4 70.0 34.4 70.05 35.75 70.9 37.55 71.8 37.6 71.8 40.4 72.7 42.1 73.05 43.35 73.2 43.55 73.2 45.1 73.25 45.35 73.25 46.75 73.2 46.8 73.2 Q49.8 72.95 52.75 71.8 L52.8 71.8 Q53.3 71.5 53.85 71.3 L53.9 71.3 53.95 71.25 55.75 70.15 56.25 69.75 58.75 67.7 61.2 70.75 60.9 71.1 59.2 72.6 59.15 72.65 59.05 72.75 58.95 72.85 Q58.75 72.85 58.6 73.0 L58.0 73.4 57.65 73.6 57.55 73.65 Q55.7 74.75 53.9 75.45 L52.85 75.85 52.75 75.9 52.65 75.95 49.95 76.75 49.8 76.75 48.15 77.0 46.8 77.15 46.8 77.2 42.15 77.0 41.9 76.95 41.35 76.85 40.65 76.75 40.5 76.75 40.15 76.65 40.05 76.6 39.9 76.55 38.3 76.05 38.25 76.05 M65.75 65.65 L69.3 67.4 68.85 68.6 65.55 66.65 65.75 65.65" fill="url(#gradient0)" fill-rule="evenodd" stroke="none"/>
      <path d="M84.25 29.65 L84.5 30.05 85.65 37.85 85.65 37.9 Q86.0 43.1 77.3 45.3 L72.4 46.5 72.4 46.55 72.5 47.1 85.1 44.85 85.55 44.85 85.9 45.1 86.0 45.55 Q85.9 50.35 84.95 54.7 L84.95 54.75 Q84.0 58.7 77.2 58.35 L77.15 58.35 72.9 57.8 72.8 58.45 72.8 58.5 82.3 60.3 82.7 60.5 82.9 60.85 82.85 61.3 Q81.55 64.3 79.8 66.95 L79.75 67.0 Q76.8 70.45 70.7 67.9 L70.15 69.3 70.1 69.35 74.6 71.55 74.95 71.85 75.05 72.35 74.85 72.75 70.55 76.25 70.4 76.3 Q67.25 77.7 64.3 76.9 62.7 76.45 61.2 75.4 L61.15 75.35 59.55 74.1 59.4 74.2 Q45.15 83.3 30.9 74.05 L30.75 73.9 28.85 75.35 28.85 75.4 Q27.3 76.45 25.75 76.85 22.75 77.7 19.6 76.3 L19.5 76.25 Q17.1 74.6 15.2 72.75 L14.95 72.35 15.05 71.85 15.4 71.55 20.0 69.25 19.35 67.9 Q13.2 70.45 10.25 67.0 L10.2 66.95 Q8.4 64.3 7.15 61.3 L7.15 60.85 7.35 60.5 7.75 60.3 17.2 58.55 17.2 58.45 17.15 57.8 12.9 58.35 12.85 58.35 Q6.0 58.7 5.05 54.75 L5.05 54.7 Q4.1 50.35 4.0 45.55 4.0 45.3 4.15 45.1 L4.5 44.85 4.85 44.85 17.55 47.1 17.65 46.55 17.7 46.5 12.75 45.3 Q4.0 43.1 4.35 37.9 L4.35 37.85 Q4.7 34.1 5.55 30.05 5.55 29.8 5.8 29.65 6.0 29.45 6.25 29.45 L6.7 29.65 Q12.45 34.3 19.75 38.35 L20.0 37.8 20.05 37.75 14.75 34.05 Q5.8 27.95 7.65 21.55 8.45 18.6 9.55 15.5 L10.85 11.75 11.25 11.35 11.8 11.3 12.2 11.7 14.05 15.4 Q17.7 22.6 22.65 28.85 L23.8 30.2 24.25 30.4 25.05 30.9 25.3 31.05 25.5 31.15 Q30.0 33.4 35.65 27.9 L35.95 27.6 36.35 27.25 36.85 26.8 36.9 26.75 37.95 25.85 Q40.0 24.3 42.2 23.65 L42.25 23.6 42.3 23.6 Q43.1 23.25 44.05 23.15 L46.05 23.15 48.05 23.6 Q51.2 24.55 54.1 27.25 L54.1 27.3 54.25 27.45 54.3 27.45 55.1 28.25 55.2 28.35 55.45 28.65 55.95 29.2 56.0 29.3 56.8 29.9 Q60.9 32.8 64.45 31.25 L64.7 31.15 64.8 31.1 64.9 31.05 65.85 30.45 66.45 29.95 67.0 29.25 67.35 28.8 67.4 28.75 Q73.55 20.95 77.85 11.7 L78.2 11.3 78.75 11.35 79.15 11.75 82.4 21.55 Q84.2 27.95 75.3 34.05 L70.1 37.7 70.2 37.9 70.35 38.3 Q77.55 34.3 83.3 29.65 L83.75 29.45 84.25 29.65 M83.2 40.7 Q84.15 39.55 84.2 38.25 L84.2 38.2 84.2 38.05 84.2 38.0 83.55 33.0 83.25 31.5 82.25 32.35 Q76.8 36.4 70.25 40.0 L70.25 40.05 67.05 41.7 67.2 42.35 67.35 42.85 67.4 42.9 67.4 43.05 67.85 44.8 67.95 45.35 68.05 45.9 71.4 45.2 76.95 43.9 Q81.5 42.75 83.2 40.7 M68.6 50.8 L68.65 52.2 68.65 53.3 68.65 54.4 68.65 55.55 72.4 56.2 77.3 56.9 79.9 56.8 Q82.75 56.4 83.5 54.55 L83.55 54.35 83.55 54.4 Q84.25 51.2 84.5 47.7 L84.55 46.45 71.95 48.65 68.5 49.1 68.6 50.8 M80.95 25.35 Q81.4 23.65 81.0 21.9 L79.1 15.85 78.4 13.9 78.3 14.2 77.3 16.15 Q73.5 23.4 68.55 29.7 L67.95 30.5 67.85 30.55 67.0 31.6 64.25 34.65 64.25 34.7 64.4 34.9 64.55 35.25 65.55 37.5 65.7 37.8 66.0 38.55 68.85 36.8 74.4 32.8 74.45 32.8 Q79.85 29.1 80.95 25.35 M50.7 26.45 Q49.5 25.7 48.3 25.3 L47.6 25.05 47.55 25.0 45.9 24.6 44.2 24.6 43.45 24.8 Q43.1 24.85 42.85 25.0 L42.75 25.05 Q40.7 25.6 38.8 27.05 38.35 27.35 37.9 27.8 L37.85 27.85 36.95 28.7 36.65 29.0 Q35.15 30.5 33.85 32.4 L32.95 33.85 31.8 35.85 31.7 36.0 31.65 36.1 31.55 36.2 31.55 36.3 31.5 36.35 30.25 39.0 30.25 39.05 30.2 39.1 30.2 39.15 30.0 39.5 29.4 41.3 29.35 41.3 29.35 41.35 29.1 42.0 29.1 42.1 29.05 42.2 28.95 42.5 28.65 43.5 28.5 44.1 28.25 45.1 28.2 45.3 28.0 46.2 28.0 46.15 27.9 46.7 27.9 46.8 27.8 47.6 27.75 47.8 27.75 47.9 27.75 48.05 27.7 48.25 27.7 48.35 27.7 48.45 27.55 49.9 27.55 49.95 27.55 50.05 27.5 50.25 30.25 52.75 31.2 53.6 32.8 53.15 27.8 48.4 40.05 46.85 41.9 43.05 41.9 43.0 43.2 40.25 43.3 40.05 45.35 35.7 50.55 46.85 62.7 48.4 62.65 48.15 62.65 47.95 62.5 47.1 61.8 43.65 61.45 42.5 60.9 41.0 Q59.9 38.35 58.5 35.85 56.65 32.45 54.65 30.1 L54.1 29.4 53.95 29.25 53.3 28.6 53.05 28.35 52.9 28.25 Q51.95 27.3 51.0 26.7 L50.7 26.45 M64.25 49.0 L66.3 47.1 66.7 56.8 67.5 57.25 67.75 57.25 67.95 57.3 71.35 58.2 71.45 57.55 67.75 56.9 Q67.4 56.85 67.25 56.6 L67.15 56.3 67.15 56.1 67.15 54.4 67.15 52.25 67.15 52.2 66.95 48.55 Q66.9 48.25 67.15 48.05 67.25 47.8 67.6 47.75 L71.0 47.3 70.9 46.75 67.7 47.4 67.55 47.45 67.15 47.4 67.05 47.35 67.0 47.3 66.9 47.25 66.7 46.85 65.8 42.75 65.8 42.8 65.45 41.65 65.45 41.15 Q65.5 40.8 65.8 40.7 L69.05 39.0 69.0 38.95 68.9 38.5 66.0 40.25 65.85 40.35 65.75 40.35 65.35 40.3 65.25 40.25 65.0 40.0 64.95 39.9 64.75 39.45 63.1 35.55 63.0 35.15 62.9 35.05 62.8 34.95 62.65 34.55 62.85 34.05 63.7 33.05 61.4 33.3 Q59.85 33.2 58.2 32.4 L59.8 35.15 Q61.25 37.75 62.25 40.45 L62.85 42.05 62.8 42.05 63.2 43.25 64.1 47.95 64.25 49.0 M52.3 56.4 L52.25 56.3 52.7 56.0 59.6 49.5 51.95 48.5 51.85 48.5 50.0 48.3 49.95 48.3 49.55 48.25 45.65 39.75 45.65 39.65 45.35 39.15 41.0 48.25 32.65 49.3 32.6 49.3 32.35 49.35 32.3 49.35 31.05 49.5 31.5 49.95 31.65 50.1 37.85 55.85 37.95 56.0 38.35 56.4 37.45 61.3 37.4 61.45 36.5 66.3 37.1 66.0 Q37.15 65.9 37.25 65.9 L37.8 65.65 39.25 64.8 39.35 64.75 45.35 61.45 51.2 64.7 51.3 64.75 53.2 65.8 Q53.3 65.8 53.45 65.95 L54.1 66.25 53.1 61.1 53.1 61.05 52.65 58.3 52.3 56.4 M6.45 40.2 Q7.95 42.6 13.1 43.9 L18.75 45.2 19.85 45.45 22.3 46.0 22.45 46.0 22.55 45.35 22.6 44.95 22.65 44.75 22.7 44.55 23.1 43.05 23.35 42.15 23.4 41.9 19.85 40.1 19.85 40.05 Q13.3 36.5 7.9 32.4 L7.6 32.2 6.7 31.5 6.5 33.0 5.8 38.0 Q5.8 39.2 6.45 40.2 M8.9 24.4 Q9.45 28.7 15.55 32.8 L21.25 36.8 21.3 36.8 23.15 37.95 24.4 38.8 25.15 37.05 25.1 37.1 25.2 36.9 25.55 36.0 26.05 34.95 23.05 31.6 21.5 29.75 21.55 29.75 Q16.45 23.4 12.75 16.1 L12.4 15.45 11.65 13.9 10.9 16.0 10.75 16.5 10.7 16.55 9.05 21.9 Q8.75 23.05 8.85 24.15 L8.85 24.2 8.9 24.4 M21.9 50.1 L21.95 49.85 22.0 49.15 18.1 48.65 6.9 46.7 5.5 46.45 5.55 47.6 Q5.75 51.15 6.5 54.4 L6.5 54.35 6.95 55.3 8.45 56.4 Q10.05 57.05 12.75 56.9 L17.7 56.2 20.1 55.8 21.8 55.5 21.75 53.55 21.85 50.6 21.9 50.1 M30.95 34.35 L31.05 34.2 31.7 33.05 32.2 32.35 Q30.25 33.3 28.45 33.35 L27.5 33.3 26.4 33.1 26.3 33.05 26.4 33.2 27.4 34.25 27.45 34.3 27.65 34.85 27.65 34.95 27.6 35.15 27.55 35.15 27.4 35.5 26.45 37.65 25.55 39.95 25.45 40.25 25.15 40.55 25.0 40.6 24.95 40.6 24.45 40.5 23.95 40.15 22.7 39.45 22.65 39.45 21.25 38.5 21.2 38.7 21.1 38.95 21.05 39.05 Q22.45 39.7 23.85 40.5 L24.6 40.9 25.0 41.3 24.95 41.85 24.95 41.9 24.85 42.2 24.75 42.55 24.25 44.6 23.75 46.95 23.65 47.2 23.45 47.45 23.2 47.55 22.9 47.55 22.75 47.5 19.1 46.75 19.05 47.0 19.0 47.3 21.4 47.6 21.4 47.65 22.15 47.7 22.8 47.8 22.85 47.8 Q23.15 47.85 23.35 48.1 L23.5 48.6 Q23.05 52.25 23.3 56.05 L23.3 56.25 23.2 56.55 Q23.0 56.8 22.7 56.85 L18.6 57.55 18.6 57.65 18.65 58.2 22.45 57.25 22.6 57.2 22.85 57.2 22.95 57.25 23.75 56.8 24.0 47.1 25.85 48.8 25.95 48.9 26.15 49.05 26.2 48.15 26.25 47.8 26.25 47.65 26.4 46.8 26.45 46.55 26.55 45.9 26.6 45.85 26.75 45.05 26.8 44.85 Q26.95 43.95 27.25 43.1 L27.6 42.0 27.6 42.05 27.65 41.9 27.65 41.75 27.7 41.6 27.95 40.9 28.65 38.95 28.65 39.05 28.9 38.45 28.95 38.4 28.95 38.35 Q29.55 36.95 30.25 35.65 L30.45 35.3 30.5 35.2 30.95 34.35 M35.6 58.45 L35.95 57.75 36.0 57.55 36.05 57.55 36.45 56.6 35.15 55.4 35.1 55.4 34.0 54.3 30.8 55.2 26.2 51.1 26.15 51.05 25.4 50.35 25.15 57.65 18.9 61.35 25.75 63.8 27.25 70.95 30.95 66.2 31.1 66.05 31.15 66.0 31.7 65.15 31.75 65.15 32.35 65.25 35.15 65.55 36.0 61.3 34.95 59.85 35.3 59.05 35.6 58.45 M24.6 65.45 L20.75 67.35 20.75 67.4 21.25 68.55 24.85 66.45 24.6 65.45 M15.45 61.7 L19.0 59.6 18.2 59.8 10.45 61.35 8.9 61.6 9.85 63.5 11.4 66.05 12.35 66.85 13.75 67.4 15.8 67.45 Q17.4 67.25 19.45 66.3 L19.6 66.25 20.6 65.85 23.3 64.45 15.45 61.7 M26.45 74.3 L25.15 67.95 21.3 70.2 21.25 70.25 17.0 72.4 18.3 73.5 Q19.2 74.25 20.25 75.0 L20.35 75.0 Q22.25 75.85 24.05 75.7 L25.3 75.5 25.35 75.45 26.45 75.05 26.9 74.9 27.0 74.85 27.75 74.4 28.0 74.2 29.55 73.0 28.95 72.4 28.35 71.85 26.45 74.3 M39.9 76.55 L40.05 76.6 40.15 76.65 40.5 76.75 40.65 76.75 41.35 76.85 41.9 76.95 42.15 77.0 46.8 77.2 46.8 77.15 48.15 77.0 49.8 76.75 49.95 76.75 52.65 75.95 52.75 75.9 52.85 75.85 53.9 75.45 Q55.7 74.75 57.55 73.65 L57.65 73.6 58.0 73.4 58.6 73.0 Q58.75 72.85 58.95 72.85 L59.05 72.75 59.15 72.65 59.2 72.6 60.9 71.1 61.2 70.75 58.75 67.7 56.25 69.75 55.75 70.15 53.95 71.25 53.9 71.3 53.85 71.3 Q53.3 71.5 52.8 71.8 L52.75 71.8 Q49.8 72.95 46.8 73.2 L46.75 73.2 45.35 73.25 45.1 73.25 43.55 73.2 43.35 73.2 42.1 73.05 40.4 72.7 37.6 71.8 37.55 71.8 35.75 70.9 34.4 70.05 34.4 70.0 33.7 69.55 31.8 67.9 31.6 67.7 31.1 68.35 31.05 68.4 31.05 68.45 29.65 70.25 29.65 70.3 29.3 70.7 29.35 70.75 29.75 71.15 29.95 71.35 29.95 71.4 31.05 72.35 31.25 72.5 31.35 72.7 31.65 72.85 31.95 73.05 32.2 73.2 32.9 73.55 34.3 74.4 34.45 74.45 38.0 75.95 38.25 76.05 39.9 76.55 M33.25 66.8 L32.75 66.75 32.85 66.85 32.95 66.95 34.6 68.4 34.9 67.0 33.4 66.85 33.25 66.8 M53.2 70.0 L53.25 69.95 53.2 69.95 54.25 69.4 54.75 69.05 54.95 68.95 55.35 68.65 52.85 67.25 51.45 67.35 51.45 67.4 48.4 67.65 48.55 67.5 48.6 67.4 48.6 67.35 49.8 65.6 45.35 63.1 40.65 65.7 42.05 67.65 37.75 67.25 35.05 68.75 35.15 68.85 35.45 69.05 35.5 69.1 36.55 69.65 37.4 70.1 38.2 70.5 Q40.9 71.45 43.7 71.75 L45.1 71.8 45.35 71.8 46.65 71.75 Q49.4 71.45 52.15 70.5 L52.2 70.45 Q52.7 70.15 53.2 70.0 M80.5 62.95 L81.15 61.6 71.9 59.8 71.6 59.7 74.9 61.7 66.85 64.55 67.55 64.9 67.55 64.95 68.7 65.45 69.05 65.65 70.55 66.25 70.55 66.3 72.05 66.9 75.0 67.5 77.8 66.8 77.85 66.75 78.65 66.05 80.5 62.95 M64.55 64.4 L64.65 63.8 71.5 61.35 66.05 58.1 66.0 58.1 65.9 58.05 65.9 58.0 65.3 57.25 65.0 50.3 64.25 51.0 64.2 51.05 64.0 51.2 59.55 55.2 56.6 54.35 54.05 56.75 55.45 59.8 54.65 61.1 55.45 65.55 58.65 65.15 63.0 70.8 63.0 70.75 63.15 70.95 63.45 69.6 64.55 64.4 M65.75 65.65 L65.55 66.65 68.85 68.6 69.3 67.4 65.75 65.65 M72.15 73.2 L73.05 72.4 68.85 70.25 65.25 68.15 63.9 74.3 62.05 71.9 60.7 73.2 62.0 74.2 62.25 74.35 63.8 75.2 64.7 75.5 Q67.15 76.15 69.7 75.0 L72.15 73.2 M57.85 53.2 L59.2 53.6 62.9 50.25 62.7 48.55 57.85 53.2 M57.65 66.75 L55.7 66.95 56.0 68.15 57.3 67.1 57.65 66.75" fill="#4e1826" fill-rule="evenodd" stroke="none"/>
      <path d="M38.9 54.75 L34.45 50.6 41.15 49.75 41.25 49.75 41.7 49.6 41.85 49.5 42.35 48.95 45.35 42.65 48.2 48.85 48.65 49.45 49.35 49.75 49.45 49.75 49.8 49.8 49.85 49.8 51.7 50.0 51.75 50.0 56.25 50.6 51.65 54.9 51.45 55.05 51.4 55.1 51.35 55.15 Q50.95 55.4 50.85 55.9 L50.75 56.25 50.75 56.55 51.1 58.2 51.1 58.3 51.15 58.6 51.2 58.6 51.6 61.2 51.6 61.3 51.6 61.4 51.95 63.05 51.5 63.15 46.1 60.15 46.1 60.2 Q45.75 59.95 45.4 59.95 L44.8 60.05 44.6 60.1 38.65 63.4 38.6 63.4 38.9 61.8 38.95 61.6 39.85 56.7 39.85 56.6 39.8 55.95 39.4 55.35 39.15 55.1 39.1 55.0 38.95 54.8 38.9 54.75" fill="url(#gradient1)" fill-rule="evenodd" stroke="none"/>
      <path d="M34.05 56.45 L34.1 56.5 34.2 56.6 34.65 57.05 34.4 57.6 34.6 57.3 33.65 59.15 33.6 59.2 Q33.45 59.55 33.45 59.95 L33.45 60.0 33.45 60.05 33.75 60.75 34.35 61.6 33.95 63.9 32.7 63.75 32.4 63.65 32.3 63.6 Q31.8 63.4 31.3 63.6 L31.15 63.65 Q30.85 63.75 30.65 64.05 L30.6 64.05 30.55 64.1 30.35 64.45 29.95 65.1 29.75 65.35 29.7 65.4 28.1 67.45 27.25 63.5 27.2 63.4 26.9 62.8 26.8 62.7 26.35 62.4 26.3 62.4 22.45 61.0 Q24.15 59.95 25.9 58.95 L26.3 58.6 26.45 58.45 26.65 57.75 26.8 53.65 29.8 56.3 29.85 56.35 30.5 56.7 30.7 56.7 31.2 56.65 33.55 55.95 34.05 56.45" fill="url(#gradient2)" fill-rule="evenodd" stroke="none"/>
      <path d="M38.55 63.45 L38.5 63.5 38.55 63.45" fill="#4f79d2" fill-rule="evenodd" stroke="none"/>
      <path d="M63.8 57.35 L64.1 58.15 64.55 58.7 64.65 58.9 65.15 59.35 65.25 59.4 65.35 59.45 65.6 59.6 68.0 61.0 64.15 62.4 Q63.8 62.5 63.55 62.8 L63.5 62.85 63.2 63.5 63.15 63.55 63.15 63.6 Q62.95 63.8 62.9 64.15 L62.9 64.2 62.3 67.45 59.85 64.25 59.3 63.8 59.25 63.8 58.6 63.65 58.5 63.65 56.75 63.9 56.25 61.4 56.75 60.6 56.95 59.9 56.8 59.15 56.75 59.05 55.85 57.15 57.05 56.05 59.0 56.6 59.05 56.65 59.8 56.7 59.9 56.7 60.55 56.35 60.65 56.25 63.65 53.55 63.8 57.35" fill="url(#gradient3)" fill-rule="evenodd" stroke="none"/>
      <path d="M70.75 40.95 L71.0 40.75 Q77.3 37.25 82.6 33.35 L83.2 38.05 83.2 38.1 83.2 38.2 Q83.15 39.2 82.45 40.1 L82.45 40.05 Q80.85 41.85 76.7 42.95 L71.2 44.25 68.85 44.75 68.85 44.6 68.85 44.55 68.4 42.85 68.35 42.65 68.25 42.4 68.15 42.3 68.2 42.25 70.75 40.95" fill="url(#gradient4)" fill-rule="evenodd" stroke="none"/>
      <path d="M72.1 49.65 L83.5 47.7 Q83.25 50.95 82.65 54.0 L82.6 54.2 82.55 54.3 Q81.85 55.5 79.8 55.8 L77.45 55.9 72.6 55.25 69.65 54.75 69.65 54.4 69.65 53.3 69.65 52.2 69.6 50.75 69.55 50.0 72.1 49.65" fill="url(#gradient5)" fill-rule="evenodd" stroke="none"/>
      <path d="M78.2 16.6 L78.25 16.5 80.05 22.15 Q80.35 23.65 80.0 25.1 78.95 28.5 74.05 31.9 L73.8 32.0 68.3 36.0 66.5 37.1 65.55 35.0 65.45 34.8 67.75 32.25 67.85 32.15 68.45 31.35 68.85 31.0 69.25 30.4 69.35 30.35 Q74.35 23.95 78.2 16.65 L78.2 16.6" fill="url(#gradient6)" fill-rule="evenodd" stroke="none"/>
      <path d="M68.3 42.6 L68.3 42.55 68.35 42.6 68.3 42.6" fill="#ffffff" fill-rule="evenodd" stroke="none"/>
      <path d="M9.85 24.05 Q9.75 23.1 10.05 22.15 L11.6 17.0 11.7 16.8 11.8 16.45 11.85 16.55 Q15.5 23.8 20.55 30.1 L20.75 30.4 22.3 32.25 24.85 35.15 24.65 35.55 24.65 35.6 24.3 36.5 24.2 36.65 24.15 36.85 24.15 37.35 24.15 37.45 23.7 37.15 23.65 37.1 21.85 36.0 21.65 35.85 16.15 32.0 16.1 32.0 Q10.45 28.2 9.9 24.3 L9.85 24.1 9.85 24.05" fill="url(#gradient7)" fill-rule="evenodd" stroke="none"/>
      <path d="M7.5 54.15 L7.45 54.1 Q6.75 51.0 6.55 47.7 L6.75 47.7 6.7 47.7 17.95 49.65 18.0 49.65 20.9 50.05 20.9 50.1 20.9 50.45 20.85 50.55 20.75 53.55 20.8 54.7 19.95 54.85 17.55 55.25 12.65 55.9 8.95 55.55 7.7 54.6 7.5 54.15" fill="url(#gradient8)" fill-rule="evenodd" stroke="none"/>
      <path d="M6.8 38.1 Q7.05 35.75 7.45 33.35 12.75 37.3 19.15 40.8 L19.4 41.0 22.25 42.45 22.15 42.8 21.75 44.3 21.7 44.5 21.65 44.65 21.65 44.7 21.6 44.8 20.05 44.5 20.15 44.5 18.95 44.25 13.35 42.95 Q8.7 41.75 7.3 39.7 L7.3 39.65 Q6.85 38.95 6.8 38.1" fill="url(#gradient9)" fill-rule="evenodd" stroke="none"/>
      <path d="M21.75 71.15 L21.9 71.05 24.45 69.55 25.45 74.4 25.15 74.45 24.7 74.6 24.0 74.7 Q22.4 74.8 20.75 74.1 L20.65 74.05 18.95 72.75 18.9 72.7 18.8 72.65 21.75 71.15" fill="url(#gradient10)" fill-rule="evenodd" stroke="none"/>
      <path d="M15.15 62.65 L20.8 64.65 20.15 64.95 19.4 65.3 18.9 65.5 Q17.1 66.25 15.7 66.45 L13.95 66.45 14.0 66.45 12.95 66.05 12.15 65.4 10.75 63.05 10.4 62.4 10.6 62.35 10.65 62.35 14.5 61.6 14.6 62.15 15.15 62.65" fill="url(#gradient11)" fill-rule="evenodd" stroke="none"/>
      <path d="M75.25 62.65 L75.8 62.15 75.95 61.65 79.7 62.35 79.65 62.5 77.9 65.45 77.45 65.8 77.35 65.9 74.9 66.5 72.4 65.95 71.2 65.5 70.95 65.35 69.55 64.8 69.45 64.7 75.25 62.65" fill="url(#gradient12)" fill-rule="evenodd" stroke="none"/>
      <path d="M65.95 69.75 L68.4 71.15 68.35 71.15 71.25 72.65 69.2 74.15 69.15 74.2 Q67.05 75.05 65.05 74.55 L64.95 74.55 64.9 74.5 65.95 69.75" fill="url(#gradient13)" fill-rule="evenodd" stroke="none"/>
    </g>
    <linearGradient gradientTransform="matrix(0.0, 0.0286, -0.0323, 0.0, 45.05, 57.3)" gradientUnits="userSpaceOnUse" id="gradient0" spreadMethod="pad" x1="-819.2" x2="819.2">
      <stop offset="0.0" stop-color="#ff807a"/>
      <stop offset="0.48627450980392156" stop-color="#c9463a"/>
      <stop offset="1.0" stop-color="#990033"/>
    </linearGradient>
    <linearGradient gradientTransform="matrix(8.0E-4, 0.0127, -0.0132, 8.0E-4, 45.5, 53.05)" gradientUnits="userSpaceOnUse" id="gradient1" spreadMethod="pad" x1="-819.2" x2="819.2">
      <stop offset="0.0" stop-color="#ffffff" stop-opacity="0.2"/>
      <stop offset="1.0" stop-color="#000000" stop-opacity="0.6"/>
    </linearGradient>
    <linearGradient gradientTransform="matrix(6.0E-4, 0.0075, -0.0076, 6.0E-4, 28.75, 60.75)" gradientUnits="userSpaceOnUse" id="gradient2" spreadMethod="pad" x1="-819.2" x2="819.2">
      <stop offset="0.0" stop-color="#ffffff" stop-opacity="0.2"/>
      <stop offset="1.0" stop-color="#000000" stop-opacity="0.6"/>
    </linearGradient>
    <linearGradient gradientTransform="matrix(6.0E-4, 0.0084, -0.0072, 5.0E-4, 62.05, 60.55)" gradientUnits="userSpaceOnUse" id="gradient3" spreadMethod="pad" x1="-819.2" x2="819.2">
      <stop offset="0.0" stop-color="#ffffff" stop-opacity="0.2"/>
      <stop offset="1.0" stop-color="#000000" stop-opacity="0.6"/>
    </linearGradient>
    <linearGradient gradientTransform="matrix(0.0014, 0.0042, -0.0097, 0.0034, 75.85, 39.5)" gradientUnits="userSpaceOnUse" id="gradient4" spreadMethod="pad" x1="-819.2" x2="819.2">
      <stop offset="0.0" stop-color="#ffffff" stop-opacity="0.2"/>
      <stop offset="1.0" stop-color="#000000" stop-opacity="0.6"/>
    </linearGradient>
    <linearGradient gradientTransform="matrix(0.0018, 0.0052, -0.0089, 0.0031, 76.85, 52.15)" gradientUnits="userSpaceOnUse" id="gradient5" spreadMethod="pad" x1="-819.2" x2="819.2">
      <stop offset="0.0" stop-color="#ffffff" stop-opacity="0.2"/>
      <stop offset="1.0" stop-color="#000000" stop-opacity="0.6"/>
    </linearGradient>
    <linearGradient gradientTransform="matrix(0.0021, 0.0107, -0.01, 0.002, 72.45, 26.8)" gradientUnits="userSpaceOnUse" id="gradient6" spreadMethod="pad" x1="-819.2" x2="819.2">
      <stop offset="0.0" stop-color="#ffffff" stop-opacity="0.2"/>
      <stop offset="1.0" stop-color="#000000" stop-opacity="0.6"/>
    </linearGradient>
    <linearGradient gradientTransform="matrix(0.0033, 0.0139, -0.0072, 0.0017, 16.75, 27.2)" gradientUnits="userSpaceOnUse" id="gradient7" spreadMethod="pad" x1="-819.2" x2="819.2">
      <stop offset="0.0" stop-color="#ffffff" stop-opacity="0.2"/>
      <stop offset="1.0" stop-color="#000000" stop-opacity="0.6"/>
    </linearGradient>
    <linearGradient gradientTransform="matrix(0.0013, 0.0059, -0.0083, 0.0018, 14.0, 51.1)" gradientUnits="userSpaceOnUse" id="gradient8" spreadMethod="pad" x1="-819.2" x2="819.2">
      <stop offset="0.0" stop-color="#ffffff" stop-opacity="0.2"/>
      <stop offset="1.0" stop-color="#000000" stop-opacity="0.6"/>
    </linearGradient>
    <linearGradient gradientTransform="matrix(0.002, 0.0085, -0.0084, 0.002, 14.2, 39.15)" gradientUnits="userSpaceOnUse" id="gradient9" spreadMethod="pad" x1="-819.2" x2="819.2">
      <stop offset="0.0" stop-color="#ffffff" stop-opacity="0.2"/>
      <stop offset="1.0" stop-color="#000000" stop-opacity="0.6"/>
    </linearGradient>
    <linearGradient gradientTransform="matrix(6.0E-4, 0.003, -0.0037, 7.0E-4, 21.95, 72.6)" gradientUnits="userSpaceOnUse" id="gradient10" spreadMethod="pad" x1="-819.2" x2="819.2">
      <stop offset="0.0" stop-color="#ffffff" stop-opacity="0.2"/>
      <stop offset="1.0" stop-color="#000000" stop-opacity="0.6"/>
    </linearGradient>
    <linearGradient gradientTransform="matrix(6.0E-4, 0.003, -0.0058, 0.0012, 15.7, 63.9)" gradientUnits="userSpaceOnUse" id="gradient11" spreadMethod="pad" x1="-819.2" x2="819.2">
      <stop offset="0.0" stop-color="#ffffff" stop-opacity="0.2"/>
      <stop offset="1.0" stop-color="#000000" stop-opacity="0.6"/>
    </linearGradient>
    <linearGradient gradientTransform="matrix(-0.0012, 0.0031, -0.0049, -0.002, 74.5, 63.8)" gradientUnits="userSpaceOnUse" id="gradient12" spreadMethod="pad" x1="-819.2" x2="819.2">
      <stop offset="0.0" stop-color="#ffffff" stop-opacity="0.2"/>
      <stop offset="1.0" stop-color="#000000" stop-opacity="0.6"/>
    </linearGradient>
    <linearGradient gradientTransform="matrix(6.0E-4, 0.0031, -0.004, 7.0E-4, 67.75, 72.0)" gradientUnits="userSpaceOnUse" id="gradient13" spreadMethod="pad" x1="-819.2" x2="819.2">
      <stop offset="0.0" stop-color="#ffffff" stop-opacity="0.2"/>
      <stop offset="1.0" stop-color="#000000" stop-opacity="0.6"/>
    </linearGradient>
  </defs>
</svg>
