<?xml version="1.0" encoding="UTF-8" standalone="no"?>
<svg xmlns:ffdec="https://www.free-decompiler.com/flash" xmlns:xlink="http://www.w3.org/1999/xlink" ffdec:objectType="frame" height="30.0px" width="30.0px" xmlns="http://www.w3.org/2000/svg">
  <g transform="matrix(1.0, 0.0, 0.0, 1.0, 0.0, 0.0)">
    <use ffdec:characterId="148" height="90.0" transform="matrix(0.3333, 0.0, 0.0, 0.3333, 0.0, 0.0)" width="90.0" xlink:href="#sprite0"/>
  </g>
  <defs>
    <g id="sprite0" transform="matrix(1.0, 0.0, 0.0, 1.0, 0.0, 0.0)">
      <use ffdec:characterId="140" height="90.0" transform="matrix(1.0, 0.0, 0.0, 1.0, 0.0, 0.0)" width="90.0" xlink:href="#sprite1"/>
      <use ffdec:characterId="147" height="71.15" transform="matrix(1.0, 0.0, 0.0, 1.0, 4.0, 10.0)" width="82.0" xlink:href="#shape1"/>
    </g>
    <g id="sprite1" transform="matrix(1.0, 0.0, 0.0, 1.0, 0.0, 0.0)">
      <use ffdec:characterId="139" height="23.0" transform="matrix(0.8435, 0.0, 0.0, 3.913, 0.0056, 0.0127)" width="106.7" xlink:href="#shape0"/>
    </g>
    <g id="shape0" transform="matrix(1.0, 0.0, 0.0, 1.0, -32.55, -101.05)">
      <path d="M32.55 101.05 L139.25 101.05 139.25 124.05 32.55 124.05 32.55 101.05" fill="#000000" fill-opacity="0.003921569" fill-rule="evenodd" stroke="none"/>
    </g>
    <g id="shape1" transform="matrix(1.0, 0.0, 0.0, 1.0, -4.0, -10.0)">
      <path d="M82.3 11.1 L82.85 10.95 83.8 10.75 83.95 10.7 84.05 10.7 84.6 10.6 86.0 10.4 Q85.45 10.95 84.45 12.6 L84.35 12.8 83.8 13.5 Q82.35 15.65 81.65 17.55 76.05 28.1 82.6 37.35 L82.65 37.4 82.7 37.4 82.7 37.45 Q83.05 38.35 83.75 39.15 L83.85 39.3 83.65 39.3 82.15 40.15 Q70.8 45.85 72.3 59.7 L72.45 61.4 71.1 60.35 Q65.75 56.0 60.7 56.05 L60.65 56.05 Q57.65 56.05 54.7 57.75 51.7 59.4 48.75 62.8 L46.6 65.4 46.05 66.25 45.8 66.55 45.15 67.2 44.65 66.45 42.25 63.3 Q37.6 57.7 32.75 56.5 L32.7 56.5 Q27.85 55.25 22.75 58.4 L19.9 60.35 18.55 61.5 18.7 59.7 18.9 56.75 Q18.95 45.9 10.0 40.75 L8.9 40.15 7.2 39.3 7.35 39.25 7.35 39.2 7.25 39.25 7.05 39.0 8.4 37.4 8.65 37.0 8.7 36.95 Q16.0 26.05 6.6 13.15 L5.9 12.2 5.7 12.0 5.5 11.75 4.0 10.25 4.1 10.0 6.15 10.5 Q22.65 14.05 29.2 26.4 L29.35 26.75 29.2 27.1 Q23.7 37.8 33.3 43.15 L33.25 43.15 36.0 44.4 36.15 44.5 36.6 44.65 Q40.85 45.85 45.4 45.9 L46.0 45.9 53.6 44.95 54.15 44.8 54.4 44.7 54.8 44.55 55.0 44.4 Q58.15 43.15 60.2 41.5 66.5 36.25 61.85 27.1 L61.65 26.75 61.85 26.4 Q67.85 15.05 82.3 11.1 M69.1 32.3 L80.2 36.35 79.95 35.9 79.2 34.35 79.05 33.95 79.0 33.85 78.95 33.85 78.95 33.75 78.75 33.35 77.9 30.4 Q76.9 25.5 78.8 20.3 L80.05 17.35 80.55 16.4 80.9 15.8 81.25 15.25 81.75 14.45 80.45 15.05 75.3 18.05 74.05 19.0 71.75 20.9 69.5 23.05 67.2 25.95 66.6 26.8 66.8 27.05 67.0 27.55 Q67.85 29.55 68.15 31.6 L68.15 31.9 69.05 32.25 69.1 32.3 M66.75 34.1 L80.55 38.3 80.5 38.3 81.15 38.5 81.25 38.5 81.8 38.65 81.7 38.55 81.6 38.45 76.0 36.4 76.05 36.4 67.6 33.25 67.2 33.15 66.85 32.9 66.6 31.7 66.65 31.6 Q66.25 29.6 65.4 27.65 L65.35 27.45 65.05 26.8 Q65.05 26.2 65.2 26.2 70.8 17.7 81.75 12.85 68.95 16.6 63.35 26.75 68.3 36.85 61.15 42.65 58.95 44.35 55.75 45.75 L56.4 46.7 Q59.7 45.3 62.0 43.45 65.95 40.25 66.7 35.6 L66.75 35.3 66.75 35.1 66.75 34.1 M28.75 45.2 L28.8 45.2 28.6 45.1 28.1 44.7 24.6 40.8 23.75 39.15 23.05 37.2 22.95 36.8 22.85 36.25 22.85 36.1 11.1 39.65 11.25 39.75 11.75 40.05 11.9 40.2 12.15 40.35 12.25 40.4 12.45 40.55 12.6 40.65 17.05 45.05 17.2 45.3 Q20.15 49.65 20.35 55.9 L20.35 56.1 20.35 56.8 20.3 58.2 21.0 57.7 22.0 57.1 Q23.3 56.25 24.6 55.75 L24.8 55.65 25.1 55.55 25.6 55.35 25.65 55.35 27.1 54.95 Q30.15 54.25 33.1 55.05 38.4 56.3 43.4 62.35 L45.25 64.7 45.4 64.5 47.6 61.8 Q50.7 58.25 53.95 56.45 57.25 54.55 60.65 54.55 L63.65 54.85 66.9 55.95 Q67.9 56.4 68.95 57.0 L70.0 57.75 70.65 58.2 70.65 57.35 70.65 56.7 Q70.6 50.6 73.25 46.2 L74.05 44.95 74.1 44.85 74.8 43.9 Q76.5 41.9 78.9 40.3 L79.0 40.25 79.9 39.65 69.55 36.55 69.55 36.5 68.2 36.1 68.15 36.45 68.1 36.65 68.1 36.7 67.95 37.2 67.9 37.4 67.5 38.7 Q66.05 42.35 62.55 45.0 L62.25 45.25 Q59.75 47.0 56.4 48.3 L55.85 48.5 54.3 46.3 54.2 46.35 54.1 46.4 54.0 46.4 46.05 47.4 45.4 47.4 Q40.9 47.35 36.75 46.25 L35.2 48.5 34.65 48.3 Q31.2 47.0 28.75 45.2 M11.95 35.9 L22.85 31.9 22.85 31.85 22.95 31.3 23.05 30.75 Q23.3 29.35 23.85 28.0 L24.15 27.25 24.25 26.95 24.35 26.7 23.95 26.15 22.2 23.9 22.05 23.75 19.25 20.85 19.1 20.75 18.9 20.6 18.7 20.4 18.55 20.25 16.55 18.7 16.4 18.6 16.3 18.5 16.15 18.4 16.0 18.3 15.9 18.2 Q13.6 16.65 10.95 15.3 L10.65 15.15 10.4 15.0 10.2 14.9 10.1 14.85 10.0 14.8 9.7 14.65 9.45 14.55 9.25 14.45 9.85 15.4 10.05 15.75 10.45 16.5 10.45 16.55 10.6 16.75 10.6 16.8 10.95 17.5 11.3 18.1 11.35 18.2 11.4 18.3 11.5 18.55 11.5 18.6 11.9 19.55 12.25 20.5 12.35 20.7 13.05 23.35 13.35 25.45 13.4 26.0 13.45 26.55 13.45 27.55 Q13.3 31.5 11.4 35.2 L10.8 36.35 11.95 35.95 11.95 35.9 M10.85 13.25 L9.1 12.75 10.75 13.45 16.65 16.95 18.25 18.1 18.3 18.1 18.3 18.15 20.2 19.75 20.95 20.45 Q23.45 22.85 25.35 25.6 L25.8 26.25 26.0 26.6 25.85 27.0 Q24.55 29.75 24.3 32.55 L24.25 33.0 9.2 38.55 9.2 38.65 24.25 34.1 24.25 35.1 24.25 35.3 Q25.25 42.9 34.65 46.7 L35.25 45.75 32.55 44.4 Q21.85 38.45 27.65 26.8 L27.65 26.75 27.4 26.3 26.35 24.6 Q22.9 19.5 17.45 16.3 L17.1 16.1 15.5 15.25 15.35 15.15 10.85 13.25" fill="#4e1826" fill-rule="evenodd" stroke="none"/>
      <path d="M66.75 34.1 L66.75 35.1 66.75 35.3 66.7 35.6 Q65.95 40.25 62.0 43.45 59.7 45.3 56.4 46.7 L55.75 45.75 Q58.95 44.35 61.15 42.65 68.3 36.85 63.35 26.75 68.95 16.6 81.75 12.85 70.8 17.7 65.2 26.2 65.05 26.2 65.05 26.8 L65.35 27.45 65.4 27.65 Q66.25 29.6 66.65 31.6 L66.6 31.7 66.85 32.9 67.2 33.15 67.6 33.25 76.05 36.4 76.0 36.4 81.6 38.45 81.7 38.55 81.8 38.65 81.25 38.5 81.15 38.5 80.5 38.3 80.55 38.3 66.75 34.1 M10.85 13.25 L15.35 15.15 15.5 15.25 17.1 16.1 17.45 16.3 Q22.9 19.5 26.35 24.6 L27.4 26.3 27.65 26.75 27.65 26.8 Q21.85 38.45 32.55 44.4 L35.25 45.75 34.65 46.7 Q25.25 42.9 24.25 35.3 L24.25 35.1 24.25 34.1 9.2 38.65 9.2 38.55 24.25 33.0 24.3 32.55 Q24.55 29.75 25.85 27.0 L26.0 26.6 25.8 26.25 25.35 25.6 Q23.45 22.85 20.95 20.45 L20.2 19.75 18.3 18.15 18.3 18.1 18.25 18.1 16.65 16.95 10.75 13.45 9.1 12.75 10.85 13.25" fill="#4f79d2" fill-rule="evenodd" stroke="none"/>
      <path d="M69.1 32.3 L69.05 32.25 68.15 31.9 68.15 31.6 Q67.85 29.55 67.0 27.55 L66.8 27.05 66.6 26.8 67.2 25.95 69.5 23.05 71.75 20.9 74.05 19.0 75.3 18.05 80.45 15.05 81.75 14.45 81.25 15.25 80.9 15.8 80.55 16.4 80.05 17.35 78.8 20.3 Q76.9 25.5 77.9 30.4 L78.75 33.35 78.95 33.75 78.95 33.85 79.0 33.85 79.05 33.95 79.2 34.35 79.95 35.9 80.2 36.35 69.1 32.3 M28.75 45.2 Q31.2 47.0 34.65 48.3 L35.2 48.5 36.75 46.25 Q40.9 47.35 45.4 47.4 L46.05 47.4 54.0 46.4 54.1 46.4 54.2 46.35 54.3 46.3 55.85 48.5 56.4 48.3 Q59.75 47.0 62.25 45.25 L62.55 45.0 Q66.05 42.35 67.5 38.7 L67.9 37.4 67.95 37.2 68.1 36.7 68.1 36.65 68.15 36.45 68.2 36.1 69.55 36.5 69.55 36.55 79.9 39.65 79.0 40.25 78.9 40.3 Q76.5 41.9 74.8 43.9 L74.1 44.85 74.05 44.95 73.25 46.2 Q70.6 50.6 70.65 56.7 L70.65 57.35 70.65 58.2 70.0 57.75 68.95 57.0 Q67.9 56.4 66.9 55.95 L63.65 54.85 60.65 54.55 Q57.25 54.55 53.95 56.45 50.7 58.25 47.6 61.8 L45.4 64.5 45.25 64.7 43.4 62.35 Q38.4 56.3 33.1 55.05 30.15 54.25 27.1 54.95 L25.65 55.35 25.6 55.35 25.1 55.55 24.8 55.65 24.6 55.75 Q23.3 56.25 22.0 57.1 L21.0 57.7 20.3 58.2 20.35 56.8 20.35 56.1 20.35 55.9 Q20.15 49.65 17.2 45.3 L17.05 45.05 12.6 40.65 12.45 40.55 12.25 40.4 12.15 40.35 11.9 40.2 11.75 40.05 11.25 39.75 11.1 39.65 22.85 36.1 22.85 36.25 22.95 36.8 23.05 37.2 23.75 39.15 24.6 40.8 28.1 44.7 28.6 45.1 28.8 45.2 28.75 45.2 M11.95 35.9 L11.95 35.95 10.8 36.35 11.4 35.2 Q13.3 31.5 13.45 27.55 L13.45 26.55 13.4 26.0 13.35 25.45 13.05 23.35 12.35 20.7 12.25 20.5 11.9 19.55 11.5 18.6 11.5 18.55 11.4 18.3 11.35 18.2 11.3 18.1 10.95 17.5 10.6 16.8 10.6 16.75 10.45 16.55 10.45 16.5 10.05 15.75 9.85 15.4 9.25 14.45 9.45 14.55 9.7 14.65 10.0 14.8 10.1 14.85 10.2 14.9 10.4 15.0 10.65 15.15 10.95 15.3 Q13.6 16.65 15.9 18.2 L16.0 18.3 16.15 18.4 16.3 18.5 16.4 18.6 16.55 18.7 18.55 20.25 18.7 20.4 18.9 20.6 19.1 20.75 19.25 20.85 22.05 23.75 22.2 23.9 23.95 26.15 24.35 26.7 24.25 26.95 24.15 27.25 23.85 28.0 Q23.3 29.35 23.05 30.75 L22.95 31.3 22.85 31.85 22.85 31.9 11.95 35.9" fill="url(#gradient0)" fill-rule="evenodd" stroke="none"/>
      <path d="M27.5 65.4 Q28.45 66.95 29.9 68.35 L30.0 68.45 30.05 68.45 31.0 69.3 31.15 69.45 31.8 68.65 31.8 68.6 42.55 53.8 26.35 63.05 26.45 63.35 26.8 64.15 26.95 64.4 27.5 65.4 M24.75 62.95 L24.55 62.35 44.45 51.0 44.45 49.25 45.75 50.55 45.8 50.55 66.5 62.45 66.35 63.05 Q65.15 66.75 62.15 69.5 L60.55 70.9 62.45 73.4 61.9 73.85 Q57.5 77.55 51.9 78.75 L52.2 79.9 51.55 80.15 Q48.7 81.05 46.0 81.15 42.5 81.25 39.15 80.1 L38.55 79.95 38.8 78.55 Q33.35 77.2 29.3 73.3 L28.85 72.85 30.35 70.7 29.0 69.5 Q25.9 66.65 24.75 62.95 M48.0 53.6 L59.5 69.45 59.65 69.7 61.15 68.45 Q63.35 66.45 64.4 63.9 L64.7 63.15 48.0 53.6 M49.4 79.15 L49.8 79.05 50.4 78.95 50.25 78.4 50.2 78.3 50.2 78.15 45.3 55.0 40.4 78.0 40.4 78.15 40.25 78.95 41.6 79.25 46.0 79.65 49.4 79.15 M37.45 76.6 L37.75 76.7 38.95 77.1 39.1 77.1 39.85 73.65 39.85 73.7 43.9 54.5 31.95 70.95 31.9 70.95 30.8 72.65 Q33.75 75.3 37.45 76.6 M59.15 74.0 L60.0 73.45 60.4 73.15 58.95 71.25 58.9 71.2 58.8 71.0 46.65 54.15 51.55 77.3 51.6 77.25 53.65 76.7 Q56.6 75.75 59.15 74.0" fill="#4e1826" fill-rule="evenodd" stroke="none"/>
      <path d="M27.5 65.4 L26.95 64.4 26.8 64.15 26.45 63.35 26.35 63.05 42.55 53.8 31.8 68.6 31.8 68.65 31.15 69.45 31.0 69.3 30.05 68.45 30.0 68.45 29.9 68.35 Q28.45 66.95 27.5 65.4 M37.45 76.6 Q33.75 75.3 30.8 72.65 L31.9 70.95 31.95 70.95 43.9 54.5 39.85 73.7 39.85 73.65 39.1 77.1 38.95 77.1 37.75 76.7 37.45 76.6 M49.4 79.15 L46.0 79.65 41.6 79.25 40.25 78.95 40.4 78.15 40.4 78.0 45.3 55.0 50.2 78.15 50.2 78.3 50.25 78.4 50.4 78.95 49.8 79.05 49.4 79.15 M48.0 53.6 L64.7 63.15 64.4 63.9 Q63.35 66.45 61.15 68.45 L59.65 69.7 59.5 69.45 48.0 53.6 M59.15 74.0 Q56.6 75.75 53.65 76.7 L51.6 77.25 51.55 77.3 46.65 54.15 58.8 71.0 58.9 71.2 58.95 71.25 60.4 73.15 60.0 73.45 59.15 74.0" fill="#4f79d2" fill-rule="evenodd" stroke="none"/>
      <path d="M30.75 67.7 L30.55 67.6 28.35 64.9 27.85 63.95 27.8 63.85 27.75 63.75 27.6 63.5 39.0 57.0 31.05 68.0 30.75 67.7 M32.75 71.55 L41.95 58.9 38.95 73.35 38.9 73.45 38.35 75.85 38.1 75.75 37.8 75.65 Q34.65 74.55 32.15 72.5 L32.65 71.7 32.75 71.55 M63.45 63.6 Q62.45 65.9 60.5 67.7 L60.55 67.7 59.85 68.25 51.55 56.8 63.45 63.6 M48.6 58.55 L57.85 71.35 58.15 71.85 59.0 72.95 58.65 73.15 58.6 73.2 Q56.15 74.85 53.35 75.75 L52.3 76.1 48.6 58.55 M41.8 78.3 L41.4 78.2 45.3 59.8 49.2 78.2 49.15 78.2 45.95 78.65 41.85 78.3 41.8 78.3" fill="url(#gradient1)" fill-rule="evenodd" stroke="none"/>
      <path d="M49.45 25.85 L50.15 26.2 51.4 27.0 52.2 27.6 52.6 27.95 52.85 28.1 53.75 28.95 54.85 30.15 56.1 31.7 58.2 35.0 58.85 36.15 58.85 36.2 59.7 37.8 60.0 38.3 60.0 38.35 60.75 39.95 61.25 41.3 61.25 41.25 62.15 44.0 62.35 44.75 62.5 45.45 62.65 46.0 62.8 46.7 62.85 46.95 60.4 46.65 60.4 46.6 57.15 46.15 53.95 39.65 51.0 46.15 45.35 46.95 39.8 46.2 39.65 46.15 39.4 45.65 39.45 45.65 36.55 39.65 36.2 40.6 36.2 40.55 33.55 46.15 30.45 46.6 31.05 46.5 31.15 46.25 31.2 46.1 31.35 45.6 31.5 45.0 31.55 44.95 33.45 41.4 Q36.55 35.95 36.8 38.3 L37.0 38.55 37.05 38.6 38.8 41.75 40.05 44.3 42.35 44.85 44.35 45.2 Q42.25 43.4 41.75 42.6 L41.8 42.35 Q42.6 42.7 43.65 43.65 L45.15 45.3 46.75 45.1 50.2 44.85 50.25 44.65 Q51.0 42.95 51.3 42.4 50.25 41.55 49.1 40.1 L47.05 37.35 Q47.95 37.3 49.55 39.2 L51.65 41.85 51.95 40.7 52.3 39.15 52.35 39.15 52.3 39.1 Q52.3 38.15 53.35 38.1 54.5 38.1 55.1 39.4 L56.3 42.25 Q56.8 43.45 57.8 45.05 L59.8 45.1 59.4 43.8 58.25 39.75 57.6 38.05 54.95 33.0 53.35 30.75 52.25 29.2 50.25 27.1 50.15 27.0 48.3 25.75 Q48.95 25.8 49.5 26.15 L50.1 26.5 Q50.75 26.85 50.2 26.5 L50.1 26.45 49.45 25.85 M30.7 57.1 L30.3 59.05 36.6 55.55 37.85 56.3 37.85 56.25 42.9 59.05 41.55 52.05 45.35 48.5 49.1 52.05 48.95 52.95 48.95 53.0 47.7 59.05 54.0 55.55 60.35 59.05 58.95 52.05 63.05 48.25 63.05 48.5 63.1 48.75 63.4 49.05 63.25 49.3 63.2 49.6 63.2 49.75 63.25 50.7 63.3 51.75 63.3 51.8 63.3 53.6 63.3 54.55 63.2 55.3 62.55 59.05 62.15 60.45 62.05 60.7 61.7 61.75 61.35 62.45 61.3 62.65 Q60.0 65.15 58.0 67.2 L56.3 68.7 56.1 68.85 55.05 69.55 54.85 69.65 52.45 71.05 51.2 71.45 50.75 71.6 49.5 71.9 46.95 72.3 46.0 72.35 45.6 72.35 45.35 72.35 43.9 72.3 Q41.15 72.0 38.4 71.05 35.2 69.55 33.0 67.35 L33.0 67.3 32.75 67.05 32.45 66.75 30.7 64.55 30.6 64.45 30.25 63.9 30.1 63.7 29.0 61.3 28.95 61.2 28.95 61.15 28.85 60.95 28.4 59.6 28.35 59.4 28.25 58.95 29.15 54.65 29.6 53.0 28.2 51.3 27.65 50.35 27.7 49.45 27.55 48.9 27.5 48.85 27.85 48.55 27.85 48.5 31.65 52.05 31.15 54.65 30.7 56.25 30.7 57.1 M30.7 61.5 L32.0 63.8 33.5 65.4 Q38.8 69.7 46.1 69.7 L47.05 69.7 45.85 68.6 44.2 66.5 Q45.3 66.4 46.4 67.9 L47.7 69.65 Q51.4 69.25 54.9 67.35 L55.75 66.55 54.65 65.5 53.9 64.45 53.95 64.15 54.25 64.1 56.0 66.3 Q57.8 64.4 59.3 62.05 L60.25 60.4 60.3 60.3 59.9 60.3 Q58.4 60.3 55.4 58.15 L53.85 56.9 47.4 60.9 Q46.55 60.9 46.35 59.95 L46.35 59.05 46.35 59.0 46.65 56.75 46.95 54.4 47.05 53.05 45.6 51.65 45.25 51.15 43.2 53.15 43.35 54.2 Q43.35 55.25 44.35 59.55 44.35 60.55 43.5 60.7 43.25 61.5 42.25 61.5 40.7 61.5 38.8 59.6 L36.35 58.45 35.0 57.55 33.55 58.6 30.4 60.8 30.7 61.5" fill="#b6dddf" fill-rule="evenodd" stroke="none"/>
      <path d="M48.3 25.75 L50.15 27.0 50.25 27.1 52.25 29.2 53.35 30.75 54.95 33.0 57.6 38.05 58.25 39.75 59.4 43.8 59.8 45.1 57.8 45.05 Q56.8 43.45 56.3 42.25 L55.1 39.4 Q54.5 38.1 53.35 38.1 52.3 38.15 52.3 39.1 L52.35 39.15 52.3 39.15 51.95 40.7 51.65 41.85 49.55 39.2 Q47.95 37.3 47.05 37.35 L49.1 40.1 Q50.25 41.55 51.3 42.4 51.0 42.95 50.25 44.65 L50.2 44.85 46.75 45.1 45.15 45.3 43.65 43.65 Q42.6 42.7 41.8 42.35 L41.75 42.6 Q42.25 43.4 44.35 45.2 L42.35 44.85 40.05 44.3 38.8 41.75 37.05 38.6 37.0 38.55 36.8 38.3 Q36.55 35.95 33.45 41.4 L31.55 44.95 31.65 44.4 32.75 39.5 Q33.6 37.45 35.75 34.15 L37.6 31.2 37.6 30.95 37.75 30.8 39.45 29.25 40.2 28.65 Q40.75 28.25 41.45 27.95 L41.6 27.85 Q43.0 27.0 45.55 26.15 47.15 25.55 48.3 25.75 M28.35 59.4 Q27.8 57.5 27.6 55.3 27.45 52.8 27.65 50.35 L28.2 51.3 29.6 53.0 29.15 54.65 28.25 58.95 28.35 59.4 M31.15 54.65 L30.7 57.1 30.7 56.25 31.15 54.65 M30.7 61.5 L30.4 60.8 33.55 58.6 35.0 57.55 36.35 58.45 38.8 59.6 Q40.7 61.5 42.25 61.5 43.25 61.5 43.5 60.7 44.35 60.55 44.35 59.55 43.35 55.25 43.35 54.2 L43.2 53.15 45.25 51.15 45.6 51.65 47.05 53.05 46.95 54.4 46.65 56.75 46.35 59.0 46.35 59.05 46.35 59.95 Q46.55 60.9 47.4 60.9 L53.85 56.9 55.4 58.15 Q58.4 60.3 59.9 60.3 L60.3 60.3 60.25 60.4 59.3 62.05 Q57.8 64.4 56.0 66.3 L54.25 64.1 53.95 64.15 53.9 64.45 54.65 65.5 55.75 66.55 54.9 67.35 Q51.4 69.25 47.7 69.65 L46.4 67.9 Q45.3 66.4 44.2 66.5 L45.85 68.6 47.05 69.7 46.1 69.7 Q38.8 69.7 33.5 65.4 L32.0 63.8 30.7 61.5" fill="#d1ffff" fill-rule="evenodd" stroke="none"/>
      <path d="M49.45 25.85 L50.1 26.45 50.2 26.5 Q50.75 26.85 50.1 26.5 L49.5 26.15 Q48.95 25.8 48.3 25.75 47.15 25.55 45.55 26.15 43.0 27.0 41.6 27.85 L41.45 27.95 Q40.75 28.25 40.2 28.65 L39.45 29.25 37.75 30.8 37.6 30.95 37.6 31.2 35.75 34.15 Q33.6 37.45 32.75 39.5 L31.65 44.4 31.55 44.95 31.5 45.0 31.35 45.6 31.2 46.1 31.15 46.25 31.05 46.5 30.45 46.6 28.1 46.9 28.8 43.85 Q29.35 41.8 30.15 39.85 30.8 38.25 31.6 36.75 L31.9 36.2 31.9 36.15 31.95 36.15 Q32.45 35.05 33.1 34.1 35.05 31.05 37.15 28.9 39.95 26.15 43.0 25.25 L43.1 25.2 44.45 24.8 46.0 24.8 46.2 24.8 46.25 24.8 46.95 24.95 47.8 25.2 47.85 25.25 49.45 25.85" fill="#ffffff" fill-rule="evenodd" stroke="none"/>
      <path d="M42.55 23.8 L44.3 23.3 46.0 23.3 46.35 23.3 48.3 23.8 Q51.75 24.8 54.8 27.95 57.65 30.8 60.15 35.45 61.65 38.05 62.65 40.75 L63.6 43.6 64.25 46.65 64.25 46.7 68.4 46.15 71.4 39.65 74.55 46.15 81.7 47.15 76.45 52.05 77.75 59.05 71.45 55.55 65.2 59.05 66.5 52.05 64.7 50.35 64.75 51.75 64.75 53.6 64.65 55.45 Q64.25 59.75 62.65 63.3 59.7 69.15 53.05 72.4 L52.95 72.4 Q50.05 73.5 47.1 73.8 L47.05 73.8 46.0 73.85 45.6 73.85 45.35 73.85 43.75 73.8 Q40.8 73.5 37.8 72.4 L37.75 72.4 Q34.3 70.75 31.95 68.4 30.1 66.6 28.8 64.4 26.6 60.55 26.1 55.45 L26.1 55.4 Q25.9 52.75 26.15 50.15 L24.15 52.05 25.5 59.05 19.2 55.55 12.85 59.05 14.3 52.05 9.0 47.15 16.1 46.15 19.15 39.65 22.2 46.15 26.6 46.75 Q26.85 45.05 27.35 43.45 L28.75 39.3 Q29.55 37.35 30.65 35.5 L30.65 35.45 31.85 33.3 Q33.85 30.05 36.15 27.9 39.15 24.85 42.55 23.8 M30.45 46.6 L33.55 46.15 36.2 40.55 36.2 40.6 36.55 39.65 39.45 45.65 39.4 45.65 39.65 46.15 39.8 46.2 45.35 46.95 51.0 46.15 53.95 39.65 57.15 46.15 60.4 46.6 60.4 46.65 62.85 46.95 62.8 46.7 62.65 46.0 62.5 45.45 62.35 44.75 62.15 44.0 61.25 41.25 61.25 41.3 60.75 39.95 60.0 38.35 60.0 38.3 59.7 37.8 58.85 36.2 58.85 36.15 58.2 35.0 56.1 31.7 54.85 30.15 53.75 28.95 52.85 28.1 52.6 27.95 52.2 27.6 51.4 27.0 50.15 26.2 49.45 25.85 47.85 25.25 47.8 25.2 46.95 24.95 46.25 24.8 46.2 24.8 46.0 24.8 44.45 24.8 43.1 25.2 43.0 25.25 Q39.95 26.15 37.15 28.9 35.05 31.05 33.1 34.1 32.45 35.05 31.95 36.15 L31.9 36.15 31.9 36.2 31.6 36.75 Q30.8 38.25 30.15 39.85 29.35 41.8 28.8 43.85 L28.1 46.9 30.45 46.6 M50.45 55.85 L53.95 53.85 58.3 56.25 57.4 51.5 60.4 48.6 60.9 48.2 56.15 47.55 54.0 43.15 52.0 47.55 47.2 48.2 50.75 51.5 49.8 56.2 50.45 55.85 M28.35 59.4 L28.4 59.6 28.85 60.95 28.95 61.15 28.95 61.2 29.0 61.3 30.1 63.7 30.25 63.9 30.6 64.45 30.7 64.55 32.45 66.75 32.75 67.05 33.0 67.3 33.0 67.35 Q35.2 69.55 38.4 71.05 41.15 72.0 43.9 72.3 L45.35 72.35 45.6 72.35 46.0 72.35 46.95 72.3 49.5 71.9 50.75 71.6 51.2 71.45 52.45 71.05 54.85 69.65 55.05 69.55 56.1 68.85 56.3 68.7 58.0 67.2 Q60.0 65.15 61.3 62.65 L61.35 62.45 61.7 61.75 62.05 60.7 62.15 60.45 62.55 59.05 63.2 55.3 63.3 54.55 63.3 53.6 63.3 51.8 63.3 51.75 63.25 50.7 63.2 49.75 63.2 49.6 63.25 49.3 63.4 49.05 63.1 48.75 63.05 48.5 63.05 48.25 58.95 52.05 60.35 59.05 54.0 55.55 47.7 59.05 48.95 53.0 48.95 52.95 49.1 52.05 45.35 48.5 41.55 52.05 42.9 59.05 37.85 56.25 37.85 56.3 36.6 55.55 30.3 59.05 30.7 57.1 31.15 54.65 31.65 52.05 27.85 48.5 27.85 48.55 27.5 48.85 27.55 48.9 27.7 49.45 27.65 50.35 Q27.45 52.8 27.6 55.3 27.8 57.5 28.35 59.4 M68.05 51.4 L68.1 51.5 67.25 56.25 67.6 56.05 67.6 56.0 71.35 53.9 71.4 53.85 71.85 54.1 72.0 54.15 75.7 56.25 74.8 51.5 78.35 48.2 73.55 47.55 71.45 43.15 69.35 47.55 64.65 48.2 64.6 48.2 64.9 48.5 64.85 48.5 67.95 51.3 68.05 51.4 M20.95 47.0 L19.65 44.15 19.65 44.1 19.15 43.2 17.1 47.55 12.35 48.2 15.9 51.5 14.9 56.2 19.15 53.85 20.0 54.35 23.5 56.25 22.55 51.5 25.55 48.6 26.05 48.2 21.2 47.55 21.05 47.25 20.95 47.0 M36.9 43.8 L36.55 43.2 35.9 44.6 35.9 44.65 34.55 47.55 29.75 48.2 33.3 51.5 32.35 56.25 36.55 53.85 40.9 56.25 39.95 51.5 43.45 48.2 38.65 47.55 37.1 44.3 36.9 43.8" fill="#4e1826" fill-rule="evenodd" stroke="none"/>
      <path d="M68.05 51.4 L67.95 51.3 68.05 51.35 68.05 51.4 M19.15 53.85 L19.2 53.85 19.2 53.8 20.0 54.35 19.15 53.85 M21.05 47.25 L20.9 47.2 20.95 47.0 21.05 47.25 M37.1 44.3 L36.9 43.85 36.9 43.8 37.1 44.3" fill="#fdd969" fill-rule="evenodd" stroke="none"/>
      <path d="M50.45 55.85 L49.8 56.2 50.75 51.5 47.2 48.2 52.0 47.55 54.0 43.15 56.15 47.55 60.9 48.2 60.4 48.6 57.4 51.5 58.3 56.25 53.95 53.85 50.45 55.85 M67.95 51.3 L64.85 48.5 64.9 48.5 64.6 48.2 64.65 48.2 69.35 47.55 71.45 43.15 73.55 47.55 78.35 48.2 74.8 51.5 75.7 56.25 72.0 54.15 71.85 54.1 71.4 53.85 71.35 53.9 67.6 56.0 67.6 56.05 67.25 56.25 68.1 51.5 68.05 51.4 68.05 51.35 67.95 51.3 M19.15 53.85 L14.9 56.2 15.9 51.5 12.35 48.2 17.1 47.55 19.15 43.2 19.65 44.1 19.65 44.15 20.95 47.0 20.9 47.2 21.05 47.25 21.2 47.55 26.05 48.2 25.55 48.6 22.55 51.5 23.5 56.25 20.0 54.35 19.2 53.8 19.2 53.85 19.15 53.85 M37.1 44.3 L38.65 47.55 43.45 48.2 39.95 51.5 40.9 56.25 36.55 53.85 32.35 56.25 33.3 51.5 29.75 48.2 34.55 47.55 35.9 44.65 35.9 44.6 36.55 43.2 36.9 43.8 36.9 43.85 37.1 44.3" fill="#ffcc00" fill-rule="evenodd" stroke="none"/>
      <path d="M51.45 50.8 L49.45 48.95 52.15 48.55 52.6 48.35 52.9 48.0 54.05 45.5 55.25 48.0 55.6 48.35 56.05 48.55 58.65 48.9 56.7 50.8 56.45 51.2 56.45 51.7 56.95 54.35 54.45 53.0 53.95 52.85 53.45 53.0 51.2 54.25 51.75 51.7 51.7 51.2 51.45 50.8 M68.75 50.65 L68.55 50.45 66.85 48.95 69.5 48.55 69.95 48.35 70.25 48.0 71.45 45.45 72.65 48.0 72.95 48.35 73.45 48.55 76.15 48.95 74.15 50.8 73.85 51.2 73.85 51.7 74.35 54.3 72.5 53.3 72.35 53.2 72.25 53.2 71.9 53.0 71.25 52.85 70.8 53.05 68.6 54.3 69.1 51.7 69.0 51.05 68.75 50.65 M18.0 48.0 L19.2 45.5 19.9 47.1 Q19.85 47.4 20.05 47.7 L20.3 48.0 20.65 48.4 21.1 48.55 23.8 48.9 21.85 50.8 Q21.65 50.95 21.6 51.2 L21.6 51.7 22.1 54.35 20.65 53.55 19.7 52.95 19.05 52.85 Q18.7 52.85 18.5 53.1 L16.35 54.3 16.9 51.7 16.85 51.2 16.6 50.8 14.6 48.95 17.25 48.55 17.7 48.35 18.0 48.0 M35.45 48.0 L36.6 45.55 37.75 48.0 38.05 48.35 38.55 48.55 41.25 48.95 39.3 50.8 39.0 51.2 39.0 51.7 39.5 54.35 37.05 53.0 Q36.8 52.85 36.55 52.85 L36.05 53.0 33.75 54.3 34.3 51.7 34.25 51.2 34.0 50.8 32.0 48.95 34.7 48.55 35.15 48.35 35.45 48.0" fill="url(#gradient2)" fill-rule="evenodd" stroke="none"/>
    </g>
    <linearGradient gradientTransform="matrix(0.0, 0.0229, -0.0443, 0.0, 45.5, 40.25)" gradientUnits="userSpaceOnUse" id="gradient0" spreadMethod="pad" x1="-819.2" x2="819.2">
      <stop offset="0.0" stop-color="#ff807a"/>
      <stop offset="0.48627450980392156" stop-color="#c9463a"/>
      <stop offset="1.0" stop-color="#990033"/>
    </linearGradient>
    <linearGradient gradientTransform="matrix(0.0, 0.0085, -0.0048, 0.0, 45.3, 71.9)" gradientUnits="userSpaceOnUse" id="gradient1" spreadMethod="pad" x1="-819.2" x2="819.2">
      <stop offset="0.0" stop-color="#ffffff" stop-opacity="0.2"/>
      <stop offset="1.0" stop-color="#000000" stop-opacity="0.6"/>
    </linearGradient>
    <linearGradient gradientTransform="matrix(0.0, 0.0043, -0.0376, 0.0, 45.4, 50.25)" gradientUnits="userSpaceOnUse" id="gradient2" spreadMethod="pad" x1="-819.2" x2="819.2">
      <stop offset="0.0" stop-color="#ffffff" stop-opacity="0.2"/>
      <stop offset="1.0" stop-color="#000000" stop-opacity="0.6"/>
    </linearGradient>
  </defs>
</svg>
