<?xml version="1.0" encoding="UTF-8" standalone="no"?>
<svg xmlns:ffdec="https://www.free-decompiler.com/flash" xmlns:xlink="http://www.w3.org/1999/xlink" ffdec:objectType="frame" height="30.0px" width="30.0px" xmlns="http://www.w3.org/2000/svg">
  <g transform="matrix(1.0, 0.0, 0.0, 1.0, 0.0, 0.0)">
    <use ffdec:characterId="150" height="90.0" transform="matrix(0.3333, 0.0, 0.0, 0.3333, 0.0, 0.0)" width="90.0" xlink:href="#sprite0"/>
  </g>
  <defs>
    <g id="sprite0" transform="matrix(1.0, 0.0, 0.0, 1.0, 0.0, 0.0)">
      <use ffdec:characterId="140" height="90.0" transform="matrix(1.0, 0.0, 0.0, 1.0, 0.0, 0.0)" width="90.0" xlink:href="#sprite1"/>
      <use ffdec:characterId="149" height="80.95" transform="matrix(1.0, 0.0, 0.0, 1.0, 3.35, 4.05)" width="83.35" xlink:href="#shape1"/>
    </g>
    <g id="sprite1" transform="matrix(1.0, 0.0, 0.0, 1.0, 0.0, 0.0)">
      <use ffdec:characterId="139" height="23.0" transform="matrix(0.8435, 0.0, 0.0, 3.913, 0.0056, 0.0127)" width="106.7" xlink:href="#shape0"/>
    </g>
    <g id="shape0" transform="matrix(1.0, 0.0, 0.0, 1.0, -32.55, -101.05)">
      <path d="M32.55 101.05 L139.25 101.05 139.25 124.05 32.55 124.05 32.55 101.05" fill="#000000" fill-opacity="0.003921569" fill-rule="evenodd" stroke="none"/>
    </g>
    <g id="shape1" transform="matrix(1.0, 0.0, 0.0, 1.0, -3.35, -4.05)">
      <path d="M46.8 23.5 L46.9 23.5 46.8 23.5 M51.2 25.65 L51.25 25.65 51.2 26.0 Q51.2 26.4 53.4 28.65 55.8 31.85 56.8 36.35 L58.0 42.1 58.1 43.25 57.9 43.05 Q56.45 41.6 55.45 42.5 L57.75 44.2 58.2 44.55 58.2 46.9 57.95 50.1 Q57.55 53.05 56.75 55.6 L54.9 53.95 Q52.45 51.75 51.05 51.3 51.8 52.75 54.15 54.75 L56.4 56.5 56.2 57.05 Q54.3 61.8 50.95 64.35 L49.35 63.05 Q47.45 61.55 46.5 61.5 47.2 62.7 48.8 64.0 L50.1 64.95 Q46.65 67.1 41.85 67.1 38.6 67.1 35.2 65.65 L32.4 64.2 32.35 64.1 32.1 63.65 Q29.8 59.3 29.8 54.8 29.8 53.2 29.95 51.55 L31.45 52.85 Q34.5 55.4 35.45 55.85 L35.4 55.7 32.05 52.2 30.1 50.35 Q30.65 45.55 32.45 40.6 L32.7 40.9 Q34.0 42.3 35.65 42.65 L35.6 42.5 33.1 39.7 32.9 39.5 33.5 37.95 Q34.75 35.05 36.25 32.8 L36.5 33.05 Q38.3 34.8 39.05 35.05 L37.2 32.8 36.7 32.15 Q39.35 28.35 42.75 26.7 L43.15 26.6 44.25 28.0 Q45.35 29.35 46.65 30.05 L46.65 29.9 44.75 27.25 43.95 26.4 49.55 25.45 50.6 25.8 51.2 25.65 M28.4 60.1 Q28.05 59.25 27.85 58.4 27.2 56.35 26.95 54.0 L26.85 51.75 27.0 51.9 27.0 52.8 27.4 56.3 27.85 58.1 28.4 60.1 M48.25 45.85 L48.25 45.7 46.0 43.4 Q44.75 42.0 43.75 42.0 L43.75 42.25 46.05 44.05 48.25 45.85 M35.55 30.9 L35.5 30.85 35.8 30.5 36.15 30.1 36.2 30.1 35.55 30.9" fill="#d1ffff" fill-rule="evenodd" stroke="none"/>
      <path d="M83.0 35.75 L82.5 36.2 82.9 35.8 83.0 35.75 M76.75 41.6 L76.4 41.95 76.55 41.75 76.5 41.6 76.75 41.6 M41.2 15.65 L42.25 13.45 42.05 14.2 41.55 15.0 41.2 15.65 M36.25 22.0 L35.85 21.65 36.0 21.75 36.25 22.0 M19.25 47.55 L19.9 46.9 20.1 47.05 20.3 46.95 19.25 47.55 M26.35 61.85 L25.85 63.35 25.3 63.3 25.65 63.25 26.35 61.85 M17.3 65.6 L17.85 66.15 17.3 65.6 M27.2 61.2 L27.0 60.65 26.8 60.95 27.0 60.65 27.2 61.2" fill="#fdd969" fill-rule="evenodd" stroke="none"/>
      <path d="M82.5 36.2 L83.0 35.75 83.3 35.4 73.8 34.25 73.7 34.0 73.65 33.95 73.65 33.9 69.65 25.5 65.7 33.95 65.65 34.05 65.6 34.15 60.25 34.9 60.95 36.2 61.0 36.35 62.15 39.0 62.2 39.05 62.3 39.35 63.25 42.2 64.15 46.85 64.15 46.9 64.2 47.2 64.3 48.2 64.4 49.8 69.7 46.85 77.5 51.15 78.25 51.55 78.1 50.7 78.05 50.7 76.4 41.95 76.75 41.6 82.5 36.2 M68.8 23.8 L69.65 22.0 74.8 32.85 86.7 34.3 78.0 42.5 80.3 54.4 78.45 53.35 80.45 59.45 75.45 63.15 77.25 63.35 68.5 71.55 70.8 83.35 60.3 77.6 49.7 83.4 50.1 81.45 45.2 85.0 39.95 81.15 40.35 83.35 29.8 77.6 19.35 83.4 21.55 71.65 12.75 63.4 15.0 63.15 10.0 59.45 12.0 53.3 9.9 54.45 12.05 42.65 3.35 34.45 15.2 32.9 20.3 22.05 21.35 24.2 23.35 18.05 29.75 18.05 27.95 16.4 39.9 14.9 45.0 4.05 50.1 14.85 62.05 16.3 60.2 18.05 66.95 18.05 68.8 23.8 M55.3 22.7 L63.4 22.7 65.85 30.15 66.85 28.0 68.05 25.45 67.65 25.0 67.2 23.55 67.15 23.45 65.9 19.55 59.4 19.55 58.9 19.35 58.85 19.3 55.3 22.7 M42.25 13.45 L41.2 15.65 40.9 16.3 31.4 17.5 31.35 17.5 35.8 21.6 35.85 21.65 36.25 22.0 38.35 23.95 38.35 24.05 Q38.95 23.6 39.65 23.25 L40.3 22.9 Q41.1 22.5 42.0 22.25 L43.8 21.75 45.85 21.75 47.85 22.25 50.1 23.15 50.15 23.2 51.1 23.75 51.55 24.0 51.65 24.1 51.65 24.05 51.8 23.95 58.65 17.4 49.1 16.25 45.0 7.55 42.25 13.45 M46.8 23.5 L45.7 23.25 43.95 23.25 42.55 23.65 42.45 23.7 41.75 23.9 Q40.15 24.5 38.65 25.65 L38.6 25.7 38.2 26.0 37.8 26.35 37.75 26.35 36.6 27.4 Q34.45 29.5 32.5 32.65 L32.5 32.7 Q31.85 33.6 31.35 34.65 L31.3 34.7 31.05 35.15 30.55 36.1 29.55 38.4 Q28.7 40.4 28.15 42.45 26.9 46.6 26.85 51.0 L26.85 51.75 26.95 54.0 Q27.2 56.35 27.85 58.4 28.05 59.25 28.4 60.1 L28.8 61.05 28.85 61.15 29.1 61.6 29.1 61.7 29.2 61.9 29.25 62.0 29.5 62.45 Q30.65 64.5 32.4 66.1 L32.4 66.15 34.4 67.9 36.75 69.3 37.8 69.85 37.85 69.85 38.25 70.0 Q40.8 70.9 43.4 71.15 L44.85 71.2 45.1 71.2 46.4 71.15 Q49.15 70.85 51.8 69.95 L52.0 69.85 Q58.2 66.9 60.95 61.35 L62.2 58.0 62.8 54.0 62.9 52.25 62.9 51.05 62.9 50.45 62.9 50.4 Q62.8 46.45 61.8 42.6 L60.9 39.85 60.9 39.9 Q59.85 37.25 58.45 34.7 L58.35 34.5 58.35 34.45 57.0 32.15 56.95 32.05 56.1 30.8 53.5 27.6 53.35 27.45 52.3 26.5 52.25 26.5 51.25 25.65 51.2 25.65 50.85 25.4 50.1 24.9 50.0 24.85 47.75 23.8 47.4 23.7 47.35 23.65 46.9 23.5 46.8 23.5 M54.5 24.2 L54.2 24.15 54.0 24.0 53.95 23.95 53.3 24.6 53.3 24.8 53.2 25.15 53.15 25.25 53.25 25.35 53.4 25.45 53.6 25.65 54.4 26.4 Q56.85 28.9 59.15 32.85 L59.55 33.5 59.8 33.4 64.6 32.75 65.05 31.85 65.0 31.85 64.95 31.8 64.65 31.4 62.3 24.2 54.5 24.2 M64.8 51.3 L64.4 51.4 64.4 52.25 64.4 52.55 64.3 54.15 63.65 58.4 63.6 58.55 63.7 58.55 63.75 58.6 64.1 58.95 65.4 61.85 65.45 61.85 66.6 62.0 66.9 61.5 73.0 57.1 70.6 49.65 70.6 49.15 70.65 49.05 69.75 48.55 64.8 51.3 M32.55 20.65 L32.6 20.65 31.1 19.3 31.1 19.35 30.55 19.55 24.45 19.55 22.55 25.45 22.15 25.9 24.25 30.3 26.65 22.7 34.8 22.7 32.55 20.65 M36.8 24.55 L36.15 23.95 36.15 24.0 35.6 24.2 27.75 24.2 27.5 24.95 27.55 24.95 25.5 31.5 25.1 31.9 25.05 31.95 25.1 32.05 25.5 32.85 29.95 33.45 30.2 33.55 30.3 33.4 30.65 32.75 30.75 32.55 31.25 31.85 31.2 31.85 31.55 31.35 31.6 31.2 31.95 30.7 32.25 30.25 32.55 29.85 34.9 27.0 35.0 26.9 35.1 26.8 35.2 26.7 35.3 26.6 35.4 26.45 35.55 26.35 36.8 25.2 36.85 25.15 36.9 25.1 36.75 24.65 36.8 24.55 M20.3 46.95 L24.55 49.3 24.65 49.35 25.4 49.75 25.45 48.75 Q25.7 45.7 26.5 42.75 L26.7 42.05 26.95 41.25 26.95 41.2 27.15 40.65 27.7 38.95 27.8 38.8 28.15 37.85 29.05 35.8 29.5 34.95 24.5 34.25 22.95 31.0 22.85 30.8 21.0 26.95 20.3 25.55 16.35 34.0 16.2 34.3 6.7 35.55 13.65 42.1 12.0 51.0 12.0 51.05 11.9 51.6 13.65 50.65 13.65 50.6 19.25 47.55 20.3 46.95 M25.35 51.35 L25.0 51.25 20.3 48.65 19.5 49.1 19.55 49.15 19.6 49.75 19.55 49.8 17.15 57.1 23.25 61.5 23.3 61.55 23.55 62.0 24.65 61.85 26.0 59.25 26.4 58.9 26.4 58.8 26.4 58.85 26.35 58.7 25.95 57.15 25.45 54.15 25.45 54.1 25.4 53.15 25.35 51.35 M26.8 60.95 L26.35 61.85 25.65 63.25 25.3 63.3 16.1 64.5 17.3 65.6 17.85 66.15 23.2 71.1 21.4 80.55 29.75 75.9 37.95 80.3 37.95 80.35 38.3 80.5 37.95 78.8 36.55 71.55 36.5 71.45 36.5 71.35 36.5 71.3 36.5 71.25 36.6 71.05 36.65 71.0 36.65 70.95 36.55 70.9 35.3 70.2 Q33.05 68.9 31.35 67.2 29.45 65.4 28.2 63.2 L28.1 62.95 27.75 62.35 27.2 61.2 27.0 60.65 26.8 60.95 M38.05 71.5 L38.25 72.6 38.3 72.6 38.85 72.75 45.15 77.3 51.25 72.9 51.55 72.75 51.8 72.75 52.05 71.6 51.75 71.7 50.85 72.0 49.8 72.3 49.55 72.35 47.9 72.5 47.7 72.5 46.55 72.65 46.5 72.65 45.1 72.7 44.85 72.7 43.25 72.65 39.75 72.05 38.05 71.5 M15.15 51.55 L15.15 51.5 13.6 52.4 13.65 52.4 13.7 53.0 11.75 58.9 16.55 62.4 16.85 62.9 21.75 62.25 15.4 57.65 15.4 57.6 17.95 50.0 15.15 51.55 M75.45 51.7 L73.65 50.75 73.65 50.7 72.3 49.95 74.75 57.65 68.45 62.25 68.75 62.3 68.8 62.3 73.6 62.9 73.9 62.4 78.7 58.85 76.8 53.1 Q76.7 52.8 76.85 52.55 L76.85 52.5 75.45 51.7 M39.4 78.4 L39.6 79.35 39.65 79.35 40.2 79.5 45.2 83.15 49.85 79.75 50.45 79.6 51.45 74.55 45.1 79.15 38.6 74.45 39.4 78.4 M53.4 70.8 L53.5 70.9 53.6 71.45 51.8 80.55 60.25 75.95 60.3 75.9 68.75 80.5 68.4 78.65 68.35 78.65 67.35 73.25 67.3 73.2 66.9 71.0 73.85 64.45 64.4 63.25 63.05 60.25 63.0 60.4 62.75 61.0 62.65 61.2 62.65 61.25 62.55 61.4 62.3 62.0 Q59.8 67.0 54.7 70.1 L53.4 70.8" fill="#4e1826" fill-rule="evenodd" stroke="none"/>
      <path d="M26.85 51.75 L26.85 51.0 Q26.9 46.6 28.15 42.45 28.7 40.4 29.55 38.4 L30.55 36.1 31.05 35.15 31.3 34.7 31.35 34.65 Q31.85 33.6 32.5 32.7 L32.5 32.65 Q34.45 29.5 36.6 27.4 L37.75 26.35 37.8 26.35 38.2 26.0 38.6 25.7 38.65 25.65 Q40.15 24.5 41.75 23.9 L42.45 23.7 42.55 23.65 43.95 23.25 45.7 23.25 46.8 23.5 46.9 23.5 47.35 23.65 47.4 23.7 47.75 23.8 50.0 24.85 50.1 24.9 50.85 25.4 51.2 25.65 50.6 25.8 49.55 25.45 43.95 26.4 44.75 27.25 46.65 29.9 46.65 30.05 Q45.35 29.35 44.25 28.0 L43.15 26.6 42.75 26.7 Q39.35 28.35 36.7 32.15 L37.2 32.8 39.05 35.05 Q38.3 34.8 36.5 33.05 L36.25 32.8 Q34.75 35.05 33.5 37.95 L32.9 39.5 33.1 39.7 35.6 42.5 35.65 42.65 Q34.0 42.3 32.7 40.9 L32.45 40.6 Q30.65 45.55 30.1 50.35 L32.05 52.2 35.4 55.7 35.45 55.85 Q34.5 55.4 31.45 52.85 L29.95 51.55 Q29.8 53.2 29.8 54.8 29.8 59.3 32.1 63.65 L32.35 64.1 32.4 64.2 34.3 66.55 34.45 66.7 34.6 66.85 35.7 67.9 36.8 68.95 36.75 69.3 34.4 67.9 32.4 66.15 32.4 66.1 Q30.65 64.5 29.5 62.45 L29.25 62.0 29.2 61.9 29.1 61.7 29.1 61.6 28.85 61.15 28.8 61.05 28.4 60.1 27.85 58.1 27.4 56.3 27.0 52.8 27.0 51.9 26.85 51.75 M35.55 30.9 L36.2 30.1 36.15 30.1 35.8 30.5 35.5 30.85 35.55 30.9" fill="#ffffff" fill-rule="evenodd" stroke="none"/>
      <path d="M51.25 25.65 L52.25 26.5 52.3 26.5 53.35 27.45 53.5 27.6 56.1 30.8 56.95 32.05 57.0 32.15 58.35 34.45 58.35 34.5 58.45 34.7 Q59.85 37.25 60.9 39.9 L60.9 39.85 61.8 42.6 Q62.8 46.45 62.9 50.4 L62.9 50.45 62.9 51.05 62.9 52.25 62.8 54.0 62.2 58.0 60.95 61.35 Q58.2 66.9 52.0 69.85 L51.8 69.95 Q49.15 70.85 46.4 71.15 L45.1 71.2 44.85 71.2 43.4 71.15 Q40.8 70.9 38.25 70.0 L37.85 69.85 37.8 69.85 36.75 69.3 36.8 68.95 35.7 67.9 34.6 66.85 34.45 66.7 34.3 66.55 32.4 64.2 35.2 65.65 Q38.6 67.1 41.85 67.1 46.65 67.1 50.1 64.95 L48.8 64.0 Q47.2 62.7 46.5 61.5 47.45 61.55 49.35 63.05 L50.95 64.35 Q54.3 61.8 56.2 57.05 L56.4 56.5 54.15 54.75 Q51.8 52.75 51.05 51.3 52.45 51.75 54.9 53.95 L56.75 55.6 Q57.55 53.05 57.95 50.1 L58.2 46.9 58.2 44.55 57.75 44.2 55.45 42.5 Q56.45 41.6 57.9 43.05 L58.1 43.25 58.0 42.1 56.8 36.35 Q55.8 31.85 53.4 28.65 51.2 26.4 51.2 26.0 L51.25 25.65 M48.25 45.85 L46.05 44.05 43.75 42.25 43.75 42.0 Q44.75 42.0 46.0 43.4 L48.25 45.7 48.25 45.85" fill="#b6dddf" fill-rule="evenodd" stroke="none"/>
      <path d="M55.3 22.7 L58.85 19.3 58.9 19.35 59.4 19.55 65.9 19.55 67.15 23.45 67.2 23.55 67.65 25.0 68.05 25.45 66.85 28.0 65.85 30.15 63.4 22.7 55.3 22.7 M32.55 20.65 L34.8 22.7 26.65 22.7 24.25 30.3 22.15 25.9 22.55 25.45 24.45 19.55 30.55 19.55 31.1 19.35 31.1 19.3 32.6 20.65 32.55 20.65 M15.15 51.55 L17.95 50.0 15.4 57.6 15.4 57.65 21.75 62.25 16.85 62.9 16.55 62.4 11.75 58.9 13.7 53.0 13.65 52.4 13.6 52.4 15.15 51.5 15.15 51.55 M39.4 78.4 L38.6 74.45 45.1 79.15 51.45 74.55 50.45 79.6 49.85 79.75 45.2 83.15 40.2 79.5 39.65 79.35 39.6 79.35 39.4 78.4 M75.45 51.7 L76.85 52.5 76.85 52.55 Q76.7 52.8 76.8 53.1 L78.7 58.85 73.9 62.4 73.6 62.9 68.8 62.3 68.75 62.3 68.45 62.25 74.75 57.65 72.3 49.95 73.65 50.7 73.65 50.75 75.45 51.7" fill="#4f79d2" fill-rule="evenodd" stroke="none"/>
      <path d="M82.5 36.2 L76.75 41.6 76.5 41.6 76.55 41.75 76.4 41.95 78.05 50.7 78.1 50.7 78.25 51.55 77.5 51.15 69.7 46.85 64.4 49.8 64.3 48.2 64.2 47.2 64.15 46.9 64.15 46.85 63.25 42.2 62.3 39.35 62.2 39.05 62.15 39.0 61.0 36.35 60.95 36.2 60.25 34.9 65.6 34.15 65.65 34.05 65.7 33.95 69.65 25.5 73.65 33.9 73.65 33.95 73.7 34.0 73.8 34.25 83.3 35.4 83.0 35.75 82.9 35.8 82.5 36.2 M41.2 15.65 L41.55 15.0 42.05 14.2 42.25 13.45 45.0 7.55 49.1 16.25 58.65 17.4 51.8 23.95 51.65 24.05 51.65 24.1 51.55 24.0 51.1 23.75 50.15 23.2 50.1 23.15 47.85 22.25 45.85 21.75 43.8 21.75 42.0 22.25 Q41.1 22.5 40.3 22.9 L39.65 23.25 Q38.95 23.6 38.35 24.05 L38.35 23.95 36.25 22.0 36.0 21.75 35.85 21.65 35.8 21.6 31.35 17.5 31.4 17.5 40.9 16.3 41.2 15.65 M19.25 47.55 L13.65 50.6 13.65 50.65 11.9 51.6 12.0 51.05 12.0 51.0 13.65 42.1 6.7 35.55 16.2 34.3 16.35 34.0 20.3 25.55 21.0 26.95 22.85 30.8 22.95 31.0 24.5 34.25 29.5 34.95 29.05 35.8 28.15 37.85 27.8 38.8 27.7 38.95 27.15 40.65 26.95 41.2 26.95 41.25 26.7 42.05 26.5 42.75 Q25.7 45.7 25.45 48.75 L25.4 49.75 24.65 49.35 24.55 49.3 20.3 46.95 20.1 47.05 19.9 46.9 19.25 47.55 M26.35 61.85 L26.8 60.95 27.0 60.65 27.2 61.2 27.75 62.35 28.1 62.95 28.2 63.2 Q29.45 65.4 31.35 67.2 33.05 68.9 35.3 70.2 L36.55 70.9 36.65 70.95 36.65 71.0 36.6 71.05 36.5 71.25 36.5 71.3 36.5 71.35 36.5 71.45 36.55 71.55 37.95 78.8 38.3 80.5 37.95 80.35 37.95 80.3 29.75 75.9 21.4 80.55 23.2 71.1 17.85 66.15 17.3 65.6 16.1 64.5 25.3 63.3 25.85 63.35 26.35 61.85 M53.4 70.8 L54.7 70.1 Q59.8 67.0 62.3 62.0 L62.55 61.4 62.65 61.25 62.65 61.2 62.75 61.0 63.0 60.4 63.05 60.25 64.4 63.25 73.85 64.45 66.9 71.0 67.3 73.2 67.35 73.25 68.35 78.65 68.4 78.65 68.75 80.5 60.3 75.9 60.25 75.95 51.8 80.55 53.6 71.45 53.5 70.9 53.4 70.8" fill="#ffcc00" fill-rule="evenodd" stroke="none"/>
      <path d="M54.5 24.2 L62.3 24.2 64.65 31.4 64.95 31.8 65.0 31.85 65.05 31.85 64.6 32.75 59.8 33.4 59.55 33.5 59.15 32.85 Q56.85 28.9 54.4 26.4 L53.6 25.65 53.4 25.45 53.25 25.35 53.15 25.25 53.2 25.15 53.3 24.8 53.3 24.6 53.95 23.95 54.0 24.0 54.2 24.15 54.5 24.2 M64.8 51.3 L69.75 48.55 70.65 49.05 70.6 49.15 70.6 49.65 73.0 57.1 66.9 61.5 66.6 62.0 65.45 61.85 65.4 61.85 64.1 58.95 63.75 58.6 63.7 58.55 63.6 58.55 63.65 58.4 64.3 54.15 64.4 52.55 64.4 52.25 64.4 51.4 64.8 51.3 M36.8 24.55 L36.75 24.65 36.9 25.1 36.85 25.15 36.8 25.2 35.55 26.35 35.4 26.45 35.3 26.6 35.2 26.7 35.1 26.8 35.0 26.9 34.9 27.0 32.55 29.85 32.25 30.25 31.95 30.7 31.6 31.2 31.55 31.35 31.2 31.85 31.25 31.85 30.75 32.55 30.65 32.75 30.3 33.4 30.2 33.55 29.95 33.45 25.5 32.85 25.1 32.05 25.05 31.95 25.1 31.9 25.5 31.5 27.55 24.95 27.5 24.95 27.75 24.2 35.6 24.2 36.15 24.0 36.15 23.95 36.8 24.55 M25.35 51.35 L25.4 53.15 25.45 54.1 25.45 54.15 25.95 57.15 26.35 58.7 26.4 58.85 26.4 58.8 26.4 58.9 26.0 59.25 24.65 61.85 23.55 62.0 23.3 61.55 23.25 61.5 17.15 57.1 19.55 49.8 19.6 49.75 19.55 49.15 19.5 49.1 20.3 48.65 25.0 51.25 25.35 51.35 M38.05 71.5 L39.75 72.05 43.25 72.65 44.85 72.7 45.1 72.7 46.5 72.65 46.55 72.65 47.7 72.5 47.9 72.5 49.55 72.35 49.8 72.3 50.85 72.0 51.75 71.7 52.05 71.6 51.8 72.75 51.55 72.75 51.25 72.9 45.15 77.3 38.85 72.75 38.3 72.6 38.25 72.6 38.05 71.5" fill="url(#gradient0)" fill-rule="evenodd" stroke="none"/>
      <path d="M48.0 16.8 L48.4 17.25 48.95 17.5 55.85 18.35 51.5 22.5 Q51.1 22.25 50.75 22.1 L50.7 22.05 48.2 21.05 48.05 21.0 48.1 21.05 46.0 20.5 45.95 20.5 43.65 20.5 41.6 21.05 39.75 21.8 39.05 22.15 Q38.75 22.25 38.5 22.45 L37.25 21.25 37.2 21.2 36.9 20.85 36.9 20.9 36.75 20.75 36.55 20.6 36.5 20.55 34.2 18.45 41.05 17.55 41.1 17.55 41.65 17.3 42.05 16.85 42.6 15.7 42.55 15.8 43.2 14.7 43.3 14.5 43.5 13.8 43.45 13.8 45.0 10.5 48.0 16.8" fill="url(#gradient1)" fill-rule="evenodd" stroke="none"/>
      <path d="M72.5 34.4 L72.65 34.7 72.65 34.75 73.05 35.25 73.65 35.5 80.5 36.35 76.25 40.4 Q75.9 40.45 75.7 40.65 L75.65 40.65 75.25 41.35 75.2 41.55 Q75.1 41.85 75.15 42.2 L76.5 49.15 70.3 45.75 69.7 45.6 69.1 45.75 65.5 47.75 65.45 47.1 65.45 47.05 65.4 47.0 65.4 46.75 65.4 46.7 Q65.1 44.25 64.45 41.9 L64.45 41.85 63.55 39.15 63.45 38.85 63.45 38.9 63.35 38.55 63.3 38.5 63.3 38.45 62.15 35.9 65.75 35.4 65.8 35.4 66.35 35.15 66.75 34.75 66.75 34.7 66.8 34.6 66.8 34.55 66.9 34.35 69.65 28.4 72.45 34.3 72.45 34.35 72.5 34.35 72.5 34.4 M16.35 35.55 L16.95 35.3 17.35 34.8 17.4 34.7 17.5 34.55 20.3 28.45 21.7 31.3 21.75 31.4 21.75 31.35 21.8 31.5 21.85 31.55 23.4 34.8 23.8 35.25 24.35 35.5 27.6 35.95 27.0 37.35 26.65 38.35 26.6 38.4 26.55 38.55 25.95 40.25 25.8 40.7 25.75 40.85 25.5 41.7 25.25 42.4 25.25 42.45 Q24.55 45.0 24.3 47.75 L20.9 45.85 20.35 45.7 20.25 45.7 19.75 45.65 Q19.2 45.7 18.9 46.15 L18.9 46.1 18.5 46.55 18.45 46.6 13.6 49.2 14.9 42.3 14.85 41.7 14.5 41.2 9.5 36.45 16.35 35.55" fill="url(#gradient2)" fill-rule="evenodd" stroke="none"/>
      <path d="M26.6 64.35 L27.05 63.7 27.1 63.8 27.15 63.85 Q28.45 66.2 30.45 68.1 L30.6 68.2 30.6 68.25 Q32.35 70.0 34.65 71.3 L35.3 71.65 35.3 71.8 36.55 78.15 30.35 74.8 29.75 74.65 29.15 74.8 Q26.15 76.45 23.1 78.15 L24.4 71.3 24.4 70.7 24.35 70.7 24.05 70.2 18.9 65.4 25.35 64.55 25.65 64.6 25.7 64.6 26.6 64.35" fill="url(#gradient3)" fill-rule="evenodd" stroke="none"/>
      <path d="M37.2 78.8 L37.15 78.75 37.0 78.7 36.95 78.7 37.0 78.65 37.15 78.55 37.2 78.75 37.2 78.8 38.05 79.55 38.25 79.65 38.25 79.7 38.2 79.7 38.1 79.6 38.05 79.55 37.25 79.1 37.2 78.95 37.2 78.8 M37.45 79.95 L37.75 80.05 37.5 80.25 37.45 79.95 M78.55 50.5 L78.55 50.55 78.55 50.5" fill="#ffffff" fill-rule="evenodd" stroke="none"/>
      <path d="M55.35 71.15 Q60.4 68.15 63.05 63.25 L63.3 63.8 63.65 64.25 64.25 64.5 71.1 65.35 66.05 70.1 65.7 70.6 Q65.6 70.9 65.65 71.25 L66.1 73.45 66.15 73.75 67.0 78.15 60.9 74.8 60.25 74.65 59.6 74.9 59.65 74.85 53.55 78.2 54.8 71.7 54.85 71.45 55.35 71.15" fill="url(#gradient4)" fill-rule="evenodd" stroke="none"/>
      <path d="M59.4 20.3 L65.35 20.3 66.45 23.7 66.5 23.8 66.55 23.85 66.5 23.8 66.95 25.2 67.15 25.6 66.2 27.65 66.15 27.8 66.0 28.15 64.15 22.5 63.85 22.1 63.4 21.95 57.2 21.95 59.0 20.25 59.4 20.3" fill="url(#gradient5)" fill-rule="evenodd" stroke="none"/>
      <path d="M32.05 21.2 L32.9 21.95 26.65 21.95 Q26.4 21.95 26.2 22.1 L25.95 22.5 24.1 28.25 23.05 26.05 23.25 25.65 25.0 20.3 30.55 20.3 31.05 20.25 31.95 21.1 32.05 21.2" fill="url(#gradient6)" fill-rule="evenodd" stroke="none"/>
      <path d="M14.4 53.2 L14.5 52.75 15.35 52.25 15.55 52.2 16.65 51.55 14.7 57.35 14.75 57.25 14.7 57.3 14.65 57.8 14.95 58.25 19.75 61.75 17.3 62.05 17.0 61.8 12.65 58.6 14.4 53.2" fill="url(#gradient7)" fill-rule="evenodd" stroke="none"/>
      <path d="M39.6 78.6 L39.85 78.6 39.75 78.75 39.6 78.6" fill="url(#gradient8)" fill-rule="evenodd" stroke="none"/>
      <path d="M40.65 78.9 L40.2 78.7 40.1 78.65 40.15 78.5 40.15 78.25 39.7 76.15 44.65 79.75 45.1 79.9 45.55 79.75 50.35 76.3 49.85 78.95 49.4 79.15 45.2 82.2 40.65 78.9" fill="url(#gradient9)" fill-rule="evenodd" stroke="none"/>
      <path d="M75.1 52.35 L75.2 52.4 76.0 52.85 76.1 53.35 76.1 53.3 77.8 58.6 73.45 61.8 73.2 62.05 70.4 61.75 75.2 58.25 75.45 57.85 75.45 57.4 73.6 51.55 75.1 52.35" fill="url(#gradient10)" fill-rule="evenodd" stroke="none"/>
      <path d="M35.7 37.45 L35.9 36.3 36.0 36.05 36.0 36.0 Q36.55 34.95 37.65 35.05 L37.7 35.05 37.95 35.05 44.0 35.05 45.05 35.2 45.75 35.05 52.1 35.05 53.0 35.15 Q53.7 35.25 54.1 36.0 L54.1 36.05 54.15 36.3 54.4 37.45 54.4 40.95 Q54.35 41.8 53.95 42.3 L53.8 42.4 53.25 42.85 53.25 42.9 53.2 42.85 53.05 42.9 52.45 43.0 52.35 43.0 52.15 43.0 52.1 43.0 Q51.45 46.45 50.95 50.35 L49.05 62.7 Q48.9 63.8 48.45 64.3 L48.25 64.45 Q47.7 64.95 46.85 64.9 L42.95 64.9 Q40.9 64.95 40.6 62.9 L38.9 50.15 37.95 43.0 37.7 43.0 37.65 43.0 Q36.8 43.05 36.25 42.4 L36.15 42.3 Q35.75 41.8 35.7 40.95 L35.7 37.45 M49.2 50.2 L50.55 41.25 52.15 41.25 52.35 41.25 52.45 41.25 52.65 40.8 52.65 37.45 Q52.65 36.8 52.45 36.8 L52.35 36.8 52.15 36.8 45.75 36.8 Q45.5 36.8 45.5 37.45 L45.5 40.8 Q45.5 41.25 45.75 41.25 L46.15 41.25 46.1 41.65 45.35 47.2 45.15 47.85 Q45.0 47.85 44.95 47.25 44.45 45.05 44.1 41.6 L44.1 41.25 44.3 41.25 44.5 40.75 44.5 37.25 44.4 36.9 44.3 36.8 37.95 36.8 37.65 36.8 Q37.4 36.8 37.4 37.45 L37.4 40.8 Q37.4 41.25 37.65 41.25 L37.95 41.25 39.5 41.25 40.65 49.95 42.35 62.55 Q42.4 63.2 42.95 63.2 L46.85 63.2 Q47.25 63.2 47.3 62.55 L49.2 50.2" fill="#5f1d1f" fill-rule="evenodd" stroke="none"/>
      <path d="M49.2 50.2 L47.3 62.55 Q47.25 63.2 46.85 63.2 L42.95 63.2 Q42.4 63.2 42.35 62.55 L40.65 49.95 39.5 41.25 37.95 41.25 37.65 41.25 Q37.4 41.25 37.4 40.8 L37.4 37.45 Q37.4 36.8 37.65 36.8 L37.95 36.8 44.3 36.8 44.4 36.9 44.5 37.25 44.5 40.75 44.3 41.25 44.1 41.25 44.1 41.6 Q44.45 45.05 44.95 47.25 45.0 47.85 45.15 47.85 L45.35 47.2 46.1 41.65 46.15 41.25 45.75 41.25 Q45.5 41.25 45.5 40.8 L45.5 37.45 Q45.5 36.8 45.75 36.8 L52.15 36.8 52.35 36.8 52.45 36.8 Q52.65 36.8 52.65 37.45 L52.65 40.8 52.45 41.25 52.35 41.25 52.15 41.25 50.55 41.25 49.2 50.2" fill="#fecb0e" fill-rule="evenodd" stroke="none"/>
      <path d="M47.15 41.65 L47.15 40.9 46.75 40.3 46.55 40.2 46.55 37.95 51.35 37.95 51.35 40.1 50.45 40.1 Q50.0 40.1 49.7 40.4 49.4 40.6 49.35 41.05 48.6 45.25 47.95 50.0 L46.15 62.05 43.35 62.05 41.7 49.85 40.55 41.05 40.15 40.4 Q39.8 40.1 39.4 40.1 L38.5 40.1 38.5 37.95 43.25 37.95 43.25 40.4 43.2 40.45 Q42.85 40.8 42.85 41.25 L42.85 41.6 42.85 41.7 Q43.2 45.15 43.65 47.35 43.85 49.35 45.05 49.0 46.2 49.4 46.4 47.3 L46.4 47.4 47.15 41.75 47.15 41.65" fill="url(#gradient11)" fill-rule="evenodd" stroke="none"/>
    </g>
    <linearGradient gradientTransform="matrix(0.0, 0.0562, -0.0341, 0.0, 45.1, 72.0)" gradientUnits="userSpaceOnUse" id="gradient0" spreadMethod="pad" x1="-819.2" x2="819.2">
      <stop offset="0.0" stop-color="#ff807a"/>
      <stop offset="0.48627450980392156" stop-color="#c9463a"/>
      <stop offset="1.0" stop-color="#990033"/>
    </linearGradient>
    <linearGradient gradientTransform="matrix(0.0, 0.0089, -0.0132, 0.0, 45.05, 19.75)" gradientUnits="userSpaceOnUse" id="gradient1" spreadMethod="pad" x1="-819.2" x2="819.2">
      <stop offset="0.0" stop-color="#ffffff" stop-opacity="0.2"/>
      <stop offset="1.0" stop-color="#000000" stop-opacity="0.6"/>
    </linearGradient>
    <linearGradient gradientTransform="matrix(0.0, 0.0133, -0.011, 0.0, 18.55, 41.1)" gradientUnits="userSpaceOnUse" id="gradient2" spreadMethod="pad" x1="-819.2" x2="819.2">
      <stop offset="0.0" stop-color="#ffffff" stop-opacity="0.2"/>
      <stop offset="1.0" stop-color="#000000" stop-opacity="0.6"/>
    </linearGradient>
    <linearGradient gradientTransform="matrix(0.0, 0.0088, -0.0108, 0.0, 27.75, 70.9)" gradientUnits="userSpaceOnUse" id="gradient3" spreadMethod="pad" x1="-819.2" x2="819.2">
      <stop offset="0.0" stop-color="#ffffff" stop-opacity="0.2"/>
      <stop offset="1.0" stop-color="#000000" stop-opacity="0.6"/>
    </linearGradient>
    <linearGradient gradientTransform="matrix(0.0, 0.0091, -0.0107, 0.0, 62.35, 70.7)" gradientUnits="userSpaceOnUse" id="gradient4" spreadMethod="pad" x1="-819.2" x2="819.2">
      <stop offset="0.0" stop-color="#ffffff" stop-opacity="0.2"/>
      <stop offset="1.0" stop-color="#000000" stop-opacity="0.6"/>
    </linearGradient>
    <linearGradient gradientTransform="matrix(-0.0024, 0.0031, -0.0052, -0.004, 63.05, 23.15)" gradientUnits="userSpaceOnUse" id="gradient5" spreadMethod="pad" x1="-819.2" x2="819.2">
      <stop offset="0.0" stop-color="#ffffff" stop-opacity="0.2"/>
      <stop offset="1.0" stop-color="#000000" stop-opacity="0.6"/>
    </linearGradient>
    <linearGradient gradientTransform="matrix(0.0021, 0.0029, -0.0053, 0.0039, 27.1, 23.15)" gradientUnits="userSpaceOnUse" id="gradient6" spreadMethod="pad" x1="-819.2" x2="819.2">
      <stop offset="0.0" stop-color="#ffffff" stop-opacity="0.2"/>
      <stop offset="1.0" stop-color="#000000" stop-opacity="0.6"/>
    </linearGradient>
    <linearGradient gradientTransform="matrix(0.0033, -0.001, 0.0019, 0.0063, 16.0, 57.35)" gradientUnits="userSpaceOnUse" id="gradient7" spreadMethod="pad" x1="-819.2" x2="819.2">
      <stop offset="0.0" stop-color="#ffffff" stop-opacity="0.2"/>
      <stop offset="1.0" stop-color="#000000" stop-opacity="0.6"/>
    </linearGradient>
    <linearGradient gradientTransform="matrix(0.0, 0.0, 0.0, 0.0, 0.0, 0.0)" gradientUnits="userSpaceOnUse" id="gradient8" spreadMethod="pad" x1="-819.2" x2="819.2">
      <stop offset="0.0" stop-color="#ffffff" stop-opacity="0.2"/>
      <stop offset="1.0" stop-color="#000000" stop-opacity="0.6"/>
    </linearGradient>
    <linearGradient gradientTransform="matrix(1.0E-4, -0.0027, 0.0065, 2.0E-4, 44.95, 79.25)" gradientUnits="userSpaceOnUse" id="gradient9" spreadMethod="pad" x1="-819.2" x2="819.2">
      <stop offset="0.0" stop-color="#ffffff" stop-opacity="0.2"/>
      <stop offset="1.0" stop-color="#000000" stop-opacity="0.6"/>
    </linearGradient>
    <linearGradient gradientTransform="matrix(-0.0034, -0.0011, 0.002, -0.0062, 74.1, 57.3)" gradientUnits="userSpaceOnUse" id="gradient10" spreadMethod="pad" x1="-819.2" x2="819.2">
      <stop offset="0.0" stop-color="#ffffff" stop-opacity="0.2"/>
      <stop offset="1.0" stop-color="#000000" stop-opacity="0.6"/>
    </linearGradient>
    <linearGradient gradientTransform="matrix(0.0, 0.0147, -0.0079, 0.0, 44.95, 51.0)" gradientUnits="userSpaceOnUse" id="gradient11" spreadMethod="pad" x1="-819.2" x2="819.2">
      <stop offset="0.0" stop-color="#ffffff" stop-opacity="0.2"/>
      <stop offset="1.0" stop-color="#000000" stop-opacity="0.6"/>
    </linearGradient>
  </defs>
</svg>
