<?xml version="1.0" encoding="UTF-8" standalone="no"?>
<svg xmlns:ffdec="https://www.free-decompiler.com/flash" xmlns:xlink="http://www.w3.org/1999/xlink" ffdec:objectType="frame" height="30.0px" width="30.0px" xmlns="http://www.w3.org/2000/svg">
  <g transform="matrix(1.0, 0.0, 0.0, 1.0, 0.0, 0.0)">
    <use ffdec:characterId="156" height="90.0" transform="matrix(0.3333, 0.0, 0.0, 0.3333, 0.0, 0.0)" width="90.0" xlink:href="#sprite0"/>
  </g>
  <defs>
    <g id="sprite0" transform="matrix(1.0, 0.0, 0.0, 1.0, 0.0, 0.0)">
      <use ffdec:characterId="140" height="90.0" transform="matrix(1.0, 0.0, 0.0, 1.0, 0.0, 0.0)" width="90.0" xlink:href="#sprite1"/>
      <use ffdec:characterId="155" height="69.65" transform="matrix(1.0, 0.0, 0.0, 1.0, 3.2, 11.15)" width="83.55" xlink:href="#shape1"/>
    </g>
    <g id="sprite1" transform="matrix(1.0, 0.0, 0.0, 1.0, 0.0, 0.0)">
      <use ffdec:characterId="139" height="23.0" transform="matrix(0.8435, 0.0, 0.0, 3.913, 0.0056, 0.0127)" width="106.7" xlink:href="#shape0"/>
    </g>
    <g id="shape0" transform="matrix(1.0, 0.0, 0.0, 1.0, -32.55, -101.05)">
      <path d="M32.55 101.05 L139.25 101.05 139.25 124.05 32.55 124.05 32.55 101.05" fill="#000000" fill-opacity="0.003921569" fill-rule="evenodd" stroke="none"/>
    </g>
    <g id="shape1" transform="matrix(1.0, 0.0, 0.0, 1.0, -3.2, -11.15)">
      <path d="M32.65 42.0 L32.65 45.05 Q32.7 45.8 33.05 46.2 L33.15 46.3 Q33.6 46.85 34.35 46.8 L34.4 46.8 34.6 46.8 35.45 53.0 36.9 64.05 Q37.15 65.85 38.95 65.8 L42.3 65.8 Q43.05 65.85 43.55 65.4 L43.7 65.25 Q44.1 64.85 44.2 63.9 L45.85 53.2 46.85 46.8 47.1 46.8 47.8 46.7 48.1 46.8 48.1 59.05 Q47.5 59.15 47.15 59.8 L47.15 59.85 47.1 60.05 46.9 61.05 46.9 64.1 Q46.95 64.85 47.3 65.25 L47.4 65.35 Q47.85 65.9 48.6 65.85 L48.65 65.85 51.85 65.85 52.2 65.85 54.1 65.85 Q55.05 66.05 55.65 65.2 L56.05 64.05 56.05 63.9 56.05 60.9 Q56.05 59.9 55.5 59.55 L54.95 59.05 54.95 46.8 55.65 46.2 56.05 45.05 56.05 44.9 56.05 41.9 Q56.05 40.9 55.5 40.55 54.9 39.75 54.15 40.0 L48.65 40.0 48.6 40.0 47.9 40.15 Q47.4 39.75 46.85 39.95 L41.35 39.95 40.75 40.05 39.85 39.95 34.4 39.95 34.35 39.95 Q33.4 39.85 32.9 40.75 L32.9 40.8 32.85 41.0 32.65 42.0 M27.7 25.8 Q35.75 21.85 45.05 21.4 54.3 21.85 62.35 25.8 L64.0 26.65 Q62.95 27.45 62.85 30.05 62.65 34.45 65.3 44.8 L65.35 45.1 Q67.75 56.8 62.35 65.55 56.45 73.75 45.0 79.25 33.5 73.75 27.6 65.55 L27.65 65.55 Q22.25 56.8 24.6 45.1 L24.65 44.8 Q27.3 34.45 27.1 30.05 27.0 27.45 26.0 26.65 L27.7 25.8" fill="url(#gradient0)" fill-rule="evenodd" stroke="none"/>
      <path d="M66.35 28.0 L66.5 28.05 67.15 28.5 67.2 28.5 Q78.35 37.8 85.0 33.8 86.1 42.0 81.95 44.75 77.35 47.5 66.7 44.15 64.2 34.3 64.35 30.1 64.4 28.35 65.0 27.8 L66.15 27.85 66.35 28.0 M8.05 44.75 Q3.9 42.0 5.0 33.8 10.6 37.15 19.45 31.1 L22.95 28.45 23.55 28.05 23.6 28.0 23.65 28.0 Q24.55 27.5 25.0 27.8 25.55 28.35 25.65 30.1 25.75 34.3 23.3 44.15 L19.45 45.2 Q11.75 47.0 8.05 44.75" fill="#4f79d2" fill-rule="evenodd" stroke="none"/>
      <path d="M66.35 28.0 L66.15 27.85 65.0 27.8 Q64.4 28.35 64.35 30.1 64.2 34.3 66.7 44.15 77.35 47.5 81.95 44.75 86.1 42.0 85.0 33.8 78.35 37.8 67.2 28.5 L67.15 28.5 66.5 28.05 66.35 28.0 M27.05 24.45 Q35.35 20.35 45.0 19.9 L45.05 19.9 Q54.65 20.35 63.0 24.45 L67.15 26.7 67.35 26.85 67.95 27.2 68.05 27.3 Q79.0 36.45 85.1 31.85 85.3 31.7 85.6 31.7 L86.05 31.9 86.3 32.35 Q88.05 42.75 82.75 46.0 77.95 49.1 67.05 45.85 69.1 57.55 63.6 66.35 L63.55 66.4 Q57.4 75.05 45.35 80.75 L45.0 80.8 44.7 80.75 Q32.55 75.05 26.4 66.4 L26.35 66.35 Q20.9 57.55 22.95 45.85 L19.45 46.8 Q11.2 48.6 7.25 46.0 1.9 42.75 3.65 32.35 3.7 32.05 3.9 31.9 L4.4 31.7 4.85 31.85 Q10.2 35.9 19.45 29.25 L22.0 27.3 22.05 27.25 22.8 26.8 22.85 26.75 22.9 26.7 23.1 26.6 27.05 24.45 M27.7 25.8 L26.0 26.65 Q27.0 27.45 27.1 30.05 27.3 34.45 24.65 44.8 L24.6 45.1 Q22.25 56.8 27.65 65.55 L27.6 65.55 Q33.5 73.75 45.0 79.25 56.45 73.75 62.35 65.55 67.75 56.8 65.35 45.1 L65.3 44.8 Q62.65 34.45 62.85 30.05 62.95 27.45 64.0 26.65 L62.35 25.8 Q54.3 21.85 45.05 21.4 35.75 21.85 27.7 25.8 M8.05 44.75 Q11.75 47.0 19.45 45.2 L23.3 44.15 Q25.75 34.3 25.65 30.1 25.55 28.35 25.0 27.8 24.55 27.5 23.65 28.0 L23.6 28.0 23.55 28.05 22.95 28.45 19.45 31.1 Q10.6 37.15 5.0 33.8 3.9 42.0 8.05 44.75" fill="#4e1826" fill-rule="evenodd" stroke="none"/>
      <path d="M57.75 34.3 L57.6 34.0 57.4 33.75 Q55.55 30.75 53.55 28.75 50.65 25.9 47.55 24.95 L47.5 24.9 45.8 24.5 45.55 24.5 44.6 24.45 44.05 24.5 42.75 24.85 42.65 24.9 42.55 24.95 42.25 25.0 41.0 25.55 Q40.5 25.75 40.05 26.05 L39.9 26.1 39.05 26.65 36.6 28.7 36.2 29.1 35.8 29.5 35.75 29.55 33.2 32.85 32.95 33.25 32.45 34.0 Q31.8 34.95 31.3 36.05 L31.25 36.1 29.45 39.85 Q28.6 41.85 28.05 43.95 L27.75 45.0 Q26.45 50.15 26.85 55.65 27.35 60.5 29.4 64.2 L29.45 64.25 29.55 64.4 Q30.7 66.3 32.35 67.9 L32.35 67.95 34.4 69.7 Q35.95 70.8 37.85 71.7 40.65 72.7 43.45 73.0 L44.95 73.05 45.2 73.05 46.55 73.0 Q49.4 72.7 52.2 71.7 L52.25 71.65 Q58.5 68.65 61.25 63.1 62.75 59.8 63.15 55.65 L63.25 53.85 63.25 52.05 63.25 51.15 Q63.05 47.6 62.1 44.1 L61.2 41.3 61.2 41.35 Q60.15 38.65 58.75 36.05 L58.25 35.15 57.95 34.65 57.75 34.3 M54.6 27.7 Q57.45 30.6 60.05 35.35 L62.6 40.8 63.55 43.7 Q64.65 47.8 64.75 52.0 L64.75 53.85 64.65 55.8 Q64.25 60.2 62.6 63.75 59.6 69.8 52.85 73.05 L52.8 73.05 Q49.8 74.2 46.7 74.5 L46.65 74.5 45.2 74.55 44.95 74.55 43.35 74.5 Q40.3 74.2 37.25 73.05 L37.2 73.05 Q33.7 71.4 31.3 69.0 29.4 67.15 28.1 64.95 25.85 61.0 25.35 55.8 L25.35 55.75 Q24.9 49.45 26.6 43.55 27.2 41.35 28.05 39.3 28.85 37.3 29.95 35.4 L29.95 35.35 Q30.5 34.2 31.2 33.2 33.25 29.85 35.55 27.65 38.65 24.5 42.1 23.5 42.9 23.1 43.9 23.0 L45.95 23.0 48.0 23.5 Q51.45 24.5 54.6 27.7" fill="#4e1826" fill-rule="evenodd" stroke="none"/>
      <path d="M29.55 64.4 L29.45 64.25 29.4 64.2 Q27.35 60.5 26.85 55.65 26.45 50.15 27.75 45.0 L28.05 43.95 Q28.6 41.85 29.45 39.85 L31.25 36.1 31.3 36.05 Q31.8 34.95 32.45 34.0 L32.95 33.25 33.2 32.85 35.75 29.55 35.8 29.5 36.2 29.1 36.6 28.7 39.05 26.65 39.9 26.1 40.05 26.05 Q40.5 25.75 41.0 25.55 L42.25 25.0 42.55 24.95 42.65 24.9 42.75 24.85 44.05 24.5 44.6 24.45 45.55 24.5 45.8 24.5 47.5 24.9 47.55 24.95 Q50.65 25.9 53.55 28.75 55.55 30.75 57.4 33.75 L57.6 34.0 57.75 34.3 56.4 32.95 54.2 31.1 Q50.25 27.65 46.25 27.65 41.8 27.65 38.45 29.85 L35.9 31.75 35.85 31.8 Q33.2 35.05 31.1 39.35 30.05 41.65 29.1 46.35 28.15 50.95 28.15 53.85 L28.15 58.3 29.35 63.75 29.55 64.4" fill="#ffffff" fill-rule="evenodd" stroke="none"/>
      <path d="M57.95 34.65 L58.25 35.15 58.75 36.05 Q60.15 38.65 61.2 41.35 L61.2 41.3 62.1 44.1 Q63.05 47.6 63.25 51.15 L63.25 52.05 63.25 53.85 63.15 55.65 Q62.75 59.8 61.25 63.1 58.5 68.65 52.25 71.65 L52.2 71.7 Q49.4 72.7 46.55 73.0 L45.2 73.05 44.95 73.05 43.45 73.0 Q40.65 72.7 37.85 71.7 35.95 70.8 34.4 69.7 L34.75 69.6 37.85 70.2 41.3 70.75 Q48.15 70.75 52.75 68.05 L52.65 67.65 52.5 67.65 Q47.6 67.65 45.65 66.15 L44.9 65.3 Q43.65 68.25 42.5 68.25 37.1 68.25 35.35 64.25 34.6 62.5 34.6 59.0 L33.9 53.6 31.25 50.75 Q32.3 51.05 33.65 52.1 L33.1 48.55 33.1 47.95 32.25 45.55 Q32.25 44.1 33.2 45.0 L33.5 45.3 Q33.9 44.4 34.75 44.4 36.3 44.4 37.35 48.05 38.25 51.05 38.25 53.75 38.25 54.8 38.6 56.85 L39.75 58.15 39.75 58.25 38.7 57.5 38.9 58.55 Q39.55 61.6 39.4 63.5 L41.5 63.75 42.7 58.3 44.0 52.65 44.9 47.0 Q45.4 44.85 47.3 43.2 49.35 41.45 49.35 44.9 L49.1 47.55 Q49.6 49.2 49.7 52.65 49.8 56.05 49.5 60.05 49.5 60.65 49.1 61.2 L48.45 61.8 Q48.75 63.3 49.0 63.5 L52.45 63.75 Q53.45 63.75 53.85 62.95 L54.1 62.3 Q53.45 62.0 53.25 61.15 L53.25 59.8 53.25 59.75 Q52.35 57.8 52.35 57.2 52.35 55.1 53.4 55.4 L53.5 52.45 53.65 48.9 Q53.1 48.75 52.85 48.2 L52.65 47.45 Q52.65 46.95 53.3 46.05 L53.9 44.75 53.65 43.65 53.45 42.75 52.6 42.25 53.25 43.1 53.25 43.25 Q52.05 42.25 51.75 42.25 51.45 42.25 50.95 41.9 L50.6 42.1 46.25 42.6 44.75 41.85 43.65 42.05 40.75 42.25 Q39.55 43.25 39.1 43.25 38.4 43.25 37.85 42.8 L37.4 42.35 Q32.5 43.0 32.5 41.3 32.5 39.5 41.95 39.1 L48.25 39.25 48.0 39.0 Q45.95 36.65 44.0 33.9 46.35 34.0 49.05 37.5 L50.8 39.8 52.6 39.6 Q54.8 39.65 55.3 41.1 57.0 42.35 57.0 45.3 L56.75 47.4 56.0 48.35 56.2 50.75 58.3 53.15 Q59.95 55.25 60.5 56.85 L60.85 53.35 60.75 49.8 58.85 47.85 Q59.4 46.95 60.5 47.55 60.15 44.55 59.4 41.55 57.9 36.55 57.9 35.65 L57.95 34.65 M57.85 62.15 L57.8 63.15 58.1 62.65 Q59.75 60.0 60.4 57.25 L57.15 53.8 56.35 52.8 56.4 56.5 56.35 58.2 Q57.85 60.3 57.85 62.15" fill="#b6dddf" fill-rule="evenodd" stroke="none"/>
      <path d="M57.75 34.3 L57.95 34.65 57.9 35.65 Q57.9 36.55 59.4 41.55 60.15 44.55 60.5 47.55 59.4 46.95 58.85 47.85 L60.75 49.8 60.85 53.35 60.5 56.85 Q59.95 55.25 58.3 53.15 L56.2 50.75 56.0 48.35 56.75 47.4 57.0 45.3 Q57.0 42.35 55.3 41.1 54.8 39.65 52.6 39.6 L50.8 39.8 49.05 37.5 Q46.35 34.0 44.0 33.9 45.95 36.65 48.0 39.0 L48.25 39.25 41.95 39.1 Q32.5 39.5 32.5 41.3 32.5 43.0 37.4 42.35 L37.85 42.8 Q38.4 43.25 39.1 43.25 39.55 43.25 40.75 42.25 L43.65 42.05 44.75 41.85 46.25 42.6 50.6 42.1 50.95 41.9 Q51.45 42.25 51.75 42.25 52.05 42.25 53.25 43.25 L53.25 43.1 52.6 42.25 53.45 42.75 53.65 43.65 53.9 44.75 53.3 46.05 Q52.65 46.95 52.65 47.45 L52.85 48.2 Q53.1 48.75 53.65 48.9 L53.5 52.45 53.4 55.4 Q52.35 55.1 52.35 57.2 52.35 57.8 53.25 59.75 L53.25 59.8 53.25 61.15 Q53.45 62.0 54.1 62.3 L53.85 62.95 Q53.45 63.75 52.45 63.75 L49.0 63.5 Q48.75 63.3 48.45 61.8 L49.1 61.2 Q49.5 60.65 49.5 60.05 49.8 56.05 49.7 52.65 49.6 49.2 49.1 47.55 L49.35 44.9 Q49.35 41.45 47.3 43.2 45.4 44.85 44.9 47.0 L44.0 52.65 42.7 58.3 41.5 63.75 39.4 63.5 Q39.55 61.6 38.9 58.55 L38.7 57.5 39.75 58.25 39.75 58.15 38.6 56.85 Q38.25 54.8 38.25 53.75 38.25 51.05 37.35 48.05 36.3 44.4 34.75 44.4 33.9 44.4 33.5 45.3 L33.2 45.0 Q32.25 44.1 32.25 45.55 L33.1 47.95 33.1 48.55 33.65 52.1 Q32.3 51.05 31.25 50.75 L33.9 53.6 34.6 59.0 Q34.6 62.5 35.35 64.25 37.1 68.25 42.5 68.25 43.65 68.25 44.9 65.3 L45.65 66.15 Q47.6 67.65 52.5 67.65 L52.65 67.65 52.75 68.05 Q48.15 70.75 41.3 70.75 L37.85 70.2 34.75 69.6 34.4 69.7 32.35 67.95 32.35 67.9 Q30.7 66.3 29.55 64.4 L29.35 63.75 28.15 58.3 28.15 53.85 Q28.15 50.95 29.1 46.35 30.05 41.65 31.1 39.35 33.2 35.05 35.85 31.8 L35.9 31.75 38.45 29.85 Q41.8 27.65 46.25 27.65 50.25 27.65 54.2 31.1 L56.4 32.95 57.75 34.3 M57.85 62.15 Q57.85 60.3 56.35 58.2 L56.4 56.5 56.35 52.8 57.15 53.8 60.4 57.25 Q59.75 60.0 58.1 62.65 L57.8 63.15 57.85 62.15" fill="#d1ffff" fill-rule="evenodd" stroke="none"/>
      <path d="M48.6 45.35 L49.6 45.35 49.6 60.5 48.6 60.5 Q48.4 60.5 48.4 61.05 L48.4 63.95 Q48.4 64.35 48.6 64.35 L51.85 64.35 52.2 64.35 54.35 64.35 54.55 63.9 54.55 60.9 54.45 60.6 54.35 60.5 53.45 60.5 53.45 45.35 54.35 45.35 54.55 44.9 54.55 41.9 54.45 41.6 54.35 41.5 48.6 41.5 Q48.4 41.5 48.4 42.05 L48.4 44.95 Q48.4 45.35 48.6 45.35 M44.35 53.05 L45.5 45.3 47.1 45.3 47.3 44.85 47.3 41.85 47.2 41.55 47.1 41.45 41.35 41.45 Q41.15 41.45 41.15 42.0 L41.15 44.9 Q41.15 45.3 41.35 45.3 L41.7 45.3 41.65 45.65 41.0 50.45 40.85 51.0 Q40.7 51.0 40.65 50.5 40.25 48.6 39.95 45.6 L39.95 45.3 40.1 45.3 40.3 44.85 40.3 41.85 40.2 41.55 40.1 41.45 34.35 41.45 Q34.15 41.45 34.15 42.0 L34.15 44.9 Q34.15 45.3 34.35 45.3 L35.95 45.3 36.95 52.85 38.4 63.75 Q38.45 64.3 38.95 64.3 L42.3 64.3 Q42.65 64.3 42.7 63.75 L44.35 53.05 M32.65 42.0 L32.85 41.0 32.9 40.8 32.9 40.75 Q33.4 39.85 34.35 39.95 L34.4 39.95 39.85 39.95 40.75 40.05 41.35 39.95 46.85 39.95 Q47.4 39.75 47.9 40.15 L48.6 40.0 48.65 40.0 54.15 40.0 Q54.9 39.75 55.5 40.55 56.05 40.9 56.05 41.9 L56.05 44.9 56.05 45.05 55.65 46.2 54.95 46.8 54.95 59.05 55.5 59.55 Q56.05 59.9 56.05 60.9 L56.05 63.9 56.05 64.05 55.65 65.2 Q55.05 66.05 54.1 65.85 L52.2 65.85 51.85 65.85 48.65 65.85 48.6 65.85 Q47.85 65.9 47.4 65.35 L47.3 65.25 Q46.95 64.85 46.9 64.1 L46.9 61.05 47.1 60.05 47.15 59.85 47.15 59.8 Q47.5 59.15 48.1 59.05 L48.1 46.8 47.8 46.7 47.1 46.8 46.85 46.8 45.85 53.2 44.2 63.9 Q44.1 64.85 43.7 65.25 L43.55 65.4 Q43.05 65.85 42.3 65.8 L38.95 65.8 Q37.15 65.85 36.9 64.05 L35.45 53.0 34.6 46.8 34.4 46.8 34.35 46.8 Q33.6 46.85 33.15 46.3 L33.05 46.2 Q32.7 45.8 32.65 45.05 L32.65 42.0" fill="#4e1826" fill-rule="evenodd" stroke="none"/>
      <path d="M44.35 53.05 L42.7 63.75 Q42.65 64.3 42.3 64.3 L38.95 64.3 Q38.45 64.3 38.4 63.75 L36.95 52.85 35.95 45.3 34.35 45.3 Q34.15 45.3 34.15 44.9 L34.15 42.0 Q34.15 41.45 34.35 41.45 L40.1 41.45 40.2 41.55 40.3 41.85 40.3 44.85 40.1 45.3 39.95 45.3 39.95 45.6 Q40.25 48.6 40.65 50.5 40.7 51.0 40.85 51.0 L41.0 50.45 41.65 45.65 41.7 45.3 41.35 45.3 Q41.15 45.3 41.15 44.9 L41.15 42.0 Q41.15 41.45 41.35 41.45 L47.1 41.45 47.2 41.55 47.3 41.85 47.3 44.85 47.1 45.3 45.5 45.3 44.35 53.05 M48.6 45.35 Q48.4 45.35 48.4 44.95 L48.4 42.05 Q48.4 41.5 48.6 41.5 L54.35 41.5 54.45 41.6 54.55 41.9 54.55 44.9 54.35 45.35 53.45 45.35 53.45 60.5 54.35 60.5 54.45 60.6 54.55 60.9 54.55 63.9 54.35 64.35 52.2 64.35 51.85 64.35 48.6 64.35 Q48.4 64.35 48.4 63.95 L48.4 61.05 Q48.4 60.5 48.6 60.5 L49.6 60.5 49.6 45.35 48.6 45.35" fill="#fecb0e" fill-rule="evenodd" stroke="none"/>
      <path d="M42.65 45.65 L42.65 45.0 42.3 44.5 42.15 44.4 42.15 42.45 46.3 42.45 46.3 44.3 45.5 44.3 Q45.15 44.3 44.85 44.55 L44.55 45.15 43.35 52.9 41.8 63.3 39.35 63.3 37.95 52.75 36.95 45.15 36.6 44.55 35.95 44.3 35.15 44.3 35.15 42.45 39.3 42.45 39.3 44.55 39.25 44.6 Q38.95 44.9 38.95 45.3 L38.95 45.6 38.95 45.7 Q39.25 48.7 39.65 50.6 39.8 52.3 40.85 52.0 41.85 52.35 42.0 50.55 L42.0 50.65 42.65 45.75 42.65 45.65 M49.4 42.5 L53.55 42.5 53.55 44.35 53.45 44.35 Q53.05 44.35 52.75 44.65 52.45 44.95 52.45 45.35 L52.45 60.5 Q52.45 60.9 52.75 61.2 53.05 61.5 53.45 61.5 L53.55 61.5 53.55 63.35 52.2 63.35 51.85 63.35 49.4 63.35 49.4 61.5 49.6 61.5 50.3 61.2 50.6 60.5 50.6 45.35 50.3 44.65 Q50.0 44.35 49.6 44.35 L49.4 44.35 49.4 42.5" fill="url(#gradient1)" fill-rule="evenodd" stroke="none"/>
      <path d="M56.1 19.15 L56.6 19.45 56.75 19.95 56.5 20.45 51.15 25.4 52.5 32.65 52.4 33.15 51.95 33.5 51.4 33.4 45.0 29.85 38.55 33.4 38.0 33.5 37.6 33.15 Q37.4 32.9 37.5 32.6 L38.9 25.45 33.55 20.45 33.3 19.95 33.5 19.45 Q33.65 19.2 33.95 19.15 L41.25 18.2 44.35 11.6 44.75 11.2 45.3 11.2 45.7 11.6 48.8 18.2 56.1 19.15 M48.2 19.65 L47.85 19.5 47.65 19.25 45.0 13.65 42.45 19.2 42.2 19.5 41.85 19.65 35.75 20.45 40.2 24.6 40.45 24.95 40.45 25.3 39.25 31.35 44.65 28.35 45.0 28.25 45.4 28.35 50.75 31.35 49.6 25.3 49.6 24.9 49.8 24.6 54.35 20.45 48.2 19.65" fill="#4e1826" fill-rule="evenodd" stroke="none"/>
      <path d="M48.2 19.65 L54.35 20.45 49.8 24.6 49.6 24.9 49.6 25.3 50.75 31.35 45.4 28.35 45.0 28.25 44.65 28.35 39.25 31.35 40.45 25.3 40.45 24.95 40.2 24.6 35.75 20.45 41.85 19.65 42.2 19.5 42.45 19.2 45.0 13.65 47.65 19.25 47.85 19.5 48.2 19.65" fill="#fecb0e" fill-rule="evenodd" stroke="none"/>
      <path d="M42.95 20.5 L43.6 19.75 43.55 19.75 45.0 16.6 46.5 19.75 46.5 19.8 47.15 20.55 47.1 20.5 Q47.5 20.8 48.05 20.9 L51.5 21.35 48.95 23.7 Q48.55 24.05 48.4 24.55 L48.35 25.55 49.0 28.95 45.95 27.25 46.0 27.25 45.0 27.0 44.05 27.25 41.0 28.95 41.65 25.55 41.6 24.55 41.05 23.7 38.55 21.35 42.0 20.9 42.05 20.9 42.95 20.5" fill="url(#gradient2)" fill-rule="evenodd" stroke="none"/>
      <path d="M81.3 43.65 Q77.15 46.0 67.75 43.2 65.5 34.1 65.6 30.2 L65.6 30.15 65.75 29.1 66.25 29.4 Q77.0 38.35 83.95 35.7 84.3 41.5 81.3 43.65 M23.65 29.5 L24.25 29.1 24.4 30.15 Q24.45 33.35 22.95 40.05 L22.2 43.2 Q12.8 46.0 8.7 43.65 5.65 41.5 6.05 35.7 12.7 38.25 22.95 30.1 L23.65 29.5" fill="url(#gradient3)" fill-rule="evenodd" stroke="none"/>
      <path d="M46.3 41.85 L46.3 42.0 Q46.15 41.7 46.3 41.8 L46.3 41.85 M53.55 41.85 L53.55 41.9 53.55 42.05 Q53.4 41.75 53.55 41.85 M39.3 41.85 L39.3 42.0 Q39.15 41.7 39.3 41.8 L39.3 41.85 M53.55 60.9 L53.55 61.05 Q53.4 60.75 53.55 60.85 L53.55 60.9" fill="#fecb0e" fill-rule="evenodd" stroke="none"/>
    </g>
    <linearGradient gradientTransform="matrix(0.0018, 0.0308, -0.0275, 0.0016, 45.55, 49.95)" gradientUnits="userSpaceOnUse" id="gradient0" spreadMethod="pad" x1="-819.2" x2="819.2">
      <stop offset="0.0" stop-color="#ff807a"/>
      <stop offset="0.48627450980392156" stop-color="#c9463a"/>
      <stop offset="1.0" stop-color="#990033"/>
    </linearGradient>
    <linearGradient gradientTransform="matrix(0.0, 0.0128, -0.0068, 0.0, 40.75, 53.75)" gradientUnits="userSpaceOnUse" id="gradient1" spreadMethod="pad" x1="-819.2" x2="819.2">
      <stop offset="0.0" stop-color="#ffffff" stop-opacity="0.2"/>
      <stop offset="1.0" stop-color="#000000" stop-opacity="0.6"/>
    </linearGradient>
    <linearGradient gradientTransform="matrix(0.0, 0.0058, -0.0079, 0.0, 45.05, 24.1)" gradientUnits="userSpaceOnUse" id="gradient2" spreadMethod="pad" x1="-819.2" x2="819.2">
      <stop offset="0.0" stop-color="#ffffff" stop-opacity="0.2"/>
      <stop offset="1.0" stop-color="#000000" stop-opacity="0.6"/>
    </linearGradient>
    <linearGradient gradientTransform="matrix(0.0, 0.0107, -0.0125, 0.0, 15.2, 40.45)" gradientUnits="userSpaceOnUse" id="gradient3" spreadMethod="pad" x1="-819.2" x2="819.2">
      <stop offset="0.0" stop-color="#ffffff" stop-opacity="0.2"/>
      <stop offset="1.0" stop-color="#000000" stop-opacity="0.6"/>
    </linearGradient>
  </defs>
</svg>
