<?xml version="1.0" encoding="UTF-8" standalone="no"?>
<svg xmlns:ffdec="https://www.free-decompiler.com/flash" xmlns:xlink="http://www.w3.org/1999/xlink" ffdec:objectType="frame" height="30.0px" width="30.0px" xmlns="http://www.w3.org/2000/svg">
  <g transform="matrix(1.0, 0.0, 0.0, 1.0, 0.0, 0.0)">
    <use ffdec:characterId="158" height="90.0" transform="matrix(0.3333, 0.0, 0.0, 0.3333, 0.0, 0.0)" width="90.0" xlink:href="#sprite0"/>
  </g>
  <defs>
    <g id="sprite0" transform="matrix(1.0, 0.0, 0.0, 1.0, 0.0, 0.0)">
      <use ffdec:characterId="140" height="90.0" transform="matrix(1.0, 0.0, 0.0, 1.0, 0.0, 0.0)" width="90.0" xlink:href="#sprite1"/>
      <use ffdec:characterId="157" height="76.0" transform="matrix(1.0, 0.0, 0.0, 1.0, 4.25, 7.0)" width="80.45" xlink:href="#shape1"/>
    </g>
    <g id="sprite1" transform="matrix(1.0, 0.0, 0.0, 1.0, 0.0, 0.0)">
      <use ffdec:characterId="139" height="23.0" transform="matrix(0.8435, 0.0, 0.0, 3.913, 0.0056, 0.0127)" width="106.7" xlink:href="#shape0"/>
    </g>
    <g id="shape0" transform="matrix(1.0, 0.0, 0.0, 1.0, -32.55, -101.05)">
      <path d="M32.55 101.05 L139.25 101.05 139.25 124.05 32.55 124.05 32.55 101.05" fill="#000000" fill-opacity="0.003921569" fill-rule="evenodd" stroke="none"/>
    </g>
    <g id="shape1" transform="matrix(1.0, 0.0, 0.0, 1.0, -4.25, -7.0)">
      <path d="M74.6 45.0 Q74.6 57.25 66.0 66.0 60.55 71.35 53.8 73.35 49.65 74.6 45.0 74.6 L38.6 74.0 Q30.4 72.25 24.05 66.0 15.4 57.25 15.4 45.0 15.4 32.75 24.05 24.05 30.6 17.6 39.2 15.95 L45.0 15.4 50.85 15.95 Q59.45 17.6 66.0 24.05 74.6 32.75 74.6 45.0 M61.95 61.95 Q69.0 54.95 69.0 45.0 69.0 35.1 61.95 28.05 56.65 22.75 49.7 21.5 L45.0 21.0 40.35 21.5 Q33.35 22.75 28.05 28.05 21.0 35.1 21.0 45.0 21.0 54.95 28.05 61.95 35.1 69.0 45.0 69.0 54.95 69.0 61.95 61.95" fill="#4f79d2" fill-rule="evenodd" stroke="none"/>
      <path d="M81.6 45.0 Q81.6 60.2 70.9 70.9 63.45 78.35 53.8 80.65 L45.0 81.6 38.6 81.1 Q27.5 79.25 19.1 70.9 8.4 60.2 8.4 45.0 8.4 29.85 19.1 19.1 27.2 11.1 37.8 9.1 L45.0 8.4 52.25 9.1 Q62.85 11.1 70.9 19.1 81.6 29.85 81.6 45.0 M66.95 66.95 Q76.0 57.8 76.0 45.0 76.0 32.2 66.95 23.1 60.1 16.3 51.1 14.6 L45.0 14.0 38.95 14.6 Q29.95 16.3 23.1 23.1 14.0 32.2 14.0 45.0 14.0 57.8 23.1 66.95 29.85 73.65 38.6 75.4 L45.0 76.0 Q49.65 76.0 53.8 74.8 61.1 72.7 66.95 66.95 M67.6 45.0 Q67.6 54.35 61.0 61.0 54.35 67.6 45.0 67.6 35.65 67.6 29.05 61.0 22.4 54.35 22.4 45.0 22.4 35.65 29.05 29.05 34.0 24.05 40.55 22.85 L45.0 22.4 49.45 22.85 49.5 22.85 Q56.0 24.05 61.0 29.05 67.6 35.65 67.6 45.0" fill="#8c3636" fill-rule="evenodd" stroke="none"/>
      <path d="M74.6 45.0 Q74.6 32.75 66.0 24.05 59.45 17.6 50.85 15.95 L45.0 15.4 39.2 15.95 Q30.6 17.6 24.05 24.05 15.4 32.75 15.4 45.0 15.4 57.25 24.05 66.0 30.4 72.25 38.6 74.0 L45.0 74.6 Q49.65 74.6 53.8 73.35 60.55 71.35 66.0 66.0 74.6 57.25 74.6 45.0 M71.9 71.9 Q64.0 79.75 53.8 82.05 L45.0 83.0 38.6 82.5 Q26.95 80.65 18.15 71.9 7.0 60.75 7.0 45.0 7.0 29.3 18.15 18.15 26.55 9.8 37.55 7.75 L45.0 7.0 52.5 7.75 Q63.5 9.8 71.9 18.15 83.0 29.3 83.0 45.0 83.0 60.75 71.9 71.9 M67.6 45.0 Q67.6 35.65 61.0 29.05 56.0 24.05 49.5 22.85 L49.45 22.85 45.0 22.4 40.55 22.85 Q34.0 24.05 29.05 29.05 22.4 35.65 22.4 45.0 22.4 54.35 29.05 61.0 35.65 67.6 45.0 67.6 54.35 67.6 61.0 61.0 67.6 54.35 67.6 45.0 M66.95 66.95 Q61.1 72.7 53.8 74.8 49.65 76.0 45.0 76.0 L38.6 75.4 Q29.85 73.65 23.1 66.95 14.0 57.8 14.0 45.0 14.0 32.2 23.1 23.1 29.95 16.3 38.95 14.6 L45.0 14.0 51.1 14.6 Q60.1 16.3 66.95 23.1 76.0 32.2 76.0 45.0 76.0 57.8 66.95 66.95 M81.6 45.0 Q81.6 29.85 70.9 19.1 62.85 11.1 52.25 9.1 L45.0 8.4 37.8 9.1 Q27.2 11.1 19.1 19.1 8.4 29.85 8.4 45.0 8.4 60.2 19.1 70.9 27.5 79.25 38.6 81.1 L45.0 81.6 53.8 80.65 Q63.45 78.35 70.9 70.9 81.6 60.2 81.6 45.0 M61.95 61.95 Q54.95 69.0 45.0 69.0 35.1 69.0 28.05 61.95 21.0 54.95 21.0 45.0 21.0 35.1 28.05 28.05 33.35 22.75 40.35 21.5 L45.0 21.0 49.7 21.5 Q56.65 22.75 61.95 28.05 69.0 35.1 69.0 45.0 69.0 54.95 61.95 61.95" fill="#4e1826" fill-rule="evenodd" stroke="none"/>
      <path d="M45.0 16.35 L50.7 16.85 Q59.0 18.4 65.3 24.7 L65.35 24.7 Q73.65 33.15 73.65 45.0 73.65 56.85 65.35 65.3 L65.3 65.35 Q56.85 73.65 45.0 73.65 33.15 73.65 24.7 65.35 L24.7 65.3 Q16.35 56.85 16.35 45.0 16.35 33.15 24.7 24.7 31.05 18.4 39.4 16.85 L45.0 16.35 M62.6 27.4 Q57.1 21.9 49.9 20.55 L49.8 20.55 45.0 20.05 40.25 20.55 40.15 20.55 Q32.9 21.9 27.4 27.4 20.05 34.75 20.05 45.0 20.05 55.25 27.3 62.55 L27.4 62.6 Q34.75 69.95 45.0 69.95 55.3 69.95 62.6 62.6 69.95 55.3 69.95 45.0 69.95 34.75 62.6 27.4" fill="url(#gradient0)" fill-rule="evenodd" stroke="none"/>
      <path d="M51.3 13.65 L45.0 13.05 38.8 13.65 Q29.45 15.45 22.45 22.4 L22.4 22.45 Q13.05 31.8 13.05 45.0 13.05 58.2 22.4 67.6 L22.45 67.6 Q31.8 76.95 45.0 76.95 58.2 76.95 67.6 67.6 76.95 58.2 76.95 45.0 76.95 31.8 67.6 22.45 L67.6 22.4 Q60.55 15.45 51.3 13.65 M70.2 19.8 L70.25 19.8 Q80.65 30.25 80.65 45.0 80.65 59.85 70.25 70.25 59.85 80.65 45.0 80.65 30.3 80.65 19.85 70.35 L19.8 70.25 Q9.35 59.85 9.35 45.0 9.35 30.25 19.8 19.8 27.65 11.95 38.0 10.0 L45.0 9.35 52.05 10.0 52.1 10.0 Q62.4 11.95 70.2 19.8" fill="url(#gradient1)" fill-rule="evenodd" stroke="none"/>
      <path d="M49.45 23.8 Q55.6 24.95 60.35 29.7 66.7 36.05 66.7 45.0 66.7 53.95 60.35 60.3 L60.3 60.35 Q53.95 66.7 45.0 66.7 36.05 66.7 29.7 60.35 L29.6 60.2 Q23.3 53.9 23.3 45.0 23.3 36.05 29.7 29.7 34.4 24.95 40.6 23.8 L40.65 23.8 40.75 23.75 45.0 23.3 49.25 23.75 49.4 23.8 49.45 23.8" fill="url(#gradient2)" fill-rule="evenodd" stroke="none"/>
      <path d="M54.0 21.7 L53.55 21.2 Q50.65 18.35 47.55 17.4 L47.5 17.35 45.8 16.95 44.05 16.95 42.65 17.35 42.55 17.4 Q39.45 18.35 36.6 21.15 34.45 23.3 32.45 26.45 31.8 27.4 31.3 28.5 L31.25 28.55 29.45 32.3 Q28.6 34.3 28.05 36.4 26.4 42.05 26.85 48.1 27.35 52.95 29.4 56.65 L30.65 58.45 32.35 60.35 32.35 60.4 32.85 60.85 Q34.95 62.8 37.85 64.15 L43.05 65.4 43.45 65.45 44.95 65.5 45.2 65.5 45.5 65.5 46.55 65.45 Q49.4 65.15 52.2 64.15 L52.25 64.1 Q54.25 63.15 55.9 61.9 L58.35 59.75 59.9 57.8 60.4 57.1 60.5 56.9 61.25 55.55 61.25 55.5 61.25 55.45 61.3 55.35 61.4 55.2 61.5 54.95 62.6 51.6 63.0 49.55 63.15 48.1 63.25 46.3 63.25 44.5 63.05 41.55 62.1 36.55 61.2 33.75 61.2 33.8 61.15 33.6 61.05 33.4 61.05 33.35 60.15 31.3 59.85 30.65 59.85 30.6 58.75 28.5 Q56.5 24.35 54.0 21.7 M54.6 20.15 Q57.45 23.05 60.05 27.8 L62.6 33.25 63.55 36.15 Q64.65 40.25 64.75 44.45 L64.75 46.3 64.65 48.25 Q64.25 52.65 62.6 56.2 59.6 62.25 52.85 65.5 L52.8 65.5 Q49.8 66.65 46.7 66.95 L46.65 66.95 45.2 67.0 44.95 67.0 43.35 66.95 Q40.3 66.65 37.25 65.5 L37.2 65.5 Q33.7 63.85 31.3 61.45 29.4 59.6 28.1 57.4 25.85 53.45 25.35 48.25 L25.35 48.2 Q24.9 41.9 26.6 36.0 27.2 33.8 28.05 31.75 28.85 29.75 29.95 27.85 L29.95 27.8 Q30.5 26.65 31.2 25.65 33.25 22.3 35.55 20.1 38.65 16.95 42.1 15.95 42.9 15.55 43.9 15.45 L45.95 15.45 48.0 15.95 Q51.45 16.95 54.6 20.15" fill="#4e1826" fill-rule="evenodd" stroke="none"/>
      <path d="M30.65 58.45 L29.4 56.65 Q27.35 52.95 26.85 48.1 26.4 42.05 28.05 36.4 28.6 34.3 29.45 32.3 L31.25 28.55 31.3 28.5 Q31.8 27.4 32.45 26.45 34.45 23.3 36.6 21.15 39.45 18.35 42.55 17.4 L42.65 17.35 44.05 16.95 45.8 16.95 47.5 17.35 47.55 17.4 Q50.65 18.35 53.55 21.2 L54.0 21.7 53.2 21.0 Q50.65 18.75 47.05 18.75 37.8 18.75 32.35 32.25 29.65 39.0 28.75 46.15 28.75 49.15 29.4 51.7 L30.15 55.15 30.5 57.3 30.55 57.85 30.6 58.25 30.65 58.45" fill="#ffffff" fill-rule="evenodd" stroke="none"/>
      <path d="M54.0 21.7 Q56.5 24.35 58.75 28.5 L59.85 30.6 55.25 27.0 55.25 27.35 Q57.2 29.9 60.2 32.75 L61.1 33.55 61.3 34.45 62.15 39.3 62.15 40.65 58.8 37.85 59.35 36.2 Q59.35 31.65 51.5 31.6 L48.15 31.95 47.9 31.95 Q45.35 27.8 42.5 25.25 L42.4 25.5 45.85 31.9 37.0 31.7 Q33.0 31.75 33.0 33.45 L33.05 33.7 33.0 33.95 Q33.0 34.7 34.0 35.6 34.35 35.5 34.55 34.9 34.6 34.7 35.1 34.6 L42.4 34.95 43.35 35.0 44.65 35.0 45.75 35.0 Q46.1 35.25 46.2 36.25 46.3 37.0 47.25 37.0 48.15 37.0 48.25 36.2 50.45 39.35 53.25 41.35 L53.35 41.15 49.95 35.35 50.9 34.95 52.05 34.3 53.0 34.25 Q53.75 34.25 55.2 35.0 56.6 35.7 56.6 36.15 56.6 37.05 55.7 38.15 54.75 39.25 54.75 40.5 L54.45 45.55 Q54.35 48.6 55.4 50.35 56.5 52.15 56.8 53.15 L53.15 53.55 45.25 54.1 46.6 52.2 Q47.0 51.55 47.0 50.8 47.0 45.45 44.95 39.8 L45.15 38.7 Q45.15 36.45 43.75 37.25 L43.7 37.3 43.0 36.85 Q42.0 36.85 41.6 39.5 L41.55 39.8 Q40.7 41.45 40.15 44.65 39.9 46.25 39.85 49.7 39.6 52.7 38.65 54.5 L38.5 54.5 Q38.0 53.85 37.05 50.95 L36.45 49.55 36.3 49.05 Q35.1 45.4 35.0 44.25 L34.6 41.95 34.25 39.9 Q32.9 37.6 31.85 38.2 31.0 38.7 31.0 39.95 31.0 41.4 32.25 47.5 33.0 51.15 33.7 53.0 L33.5 54.75 33.75 56.0 Q34.55 57.15 37.1 57.25 37.95 57.9 39.0 57.9 41.2 57.9 42.25 55.1 L42.25 55.3 Q42.55 56.8 43.75 57.25 L47.55 57.25 48.55 58.65 Q50.0 60.7 51.1 61.5 50.3 59.65 49.15 57.95 L48.65 57.25 51.0 57.25 51.65 57.05 56.1 57.15 57.05 57.15 Q57.1 57.75 57.3 58.2 55.3 60.05 52.8 61.2 49.2 62.4 43.25 62.4 40.25 62.4 34.55 59.5 32.45 58.3 31.15 57.65 L31.1 57.4 Q31.1 55.5 30.15 55.15 L29.4 51.7 Q28.75 49.15 28.75 46.15 29.65 39.0 32.35 32.25 37.8 18.75 47.05 18.75 50.65 18.75 53.2 21.0 L54.0 21.7 M57.75 40.35 L58.25 39.25 60.4 41.65 62.0 43.3 Q61.6 47.65 60.3 51.9 60.15 50.5 59.5 49.75 58.2 48.15 57.9 45.2 57.75 44.1 57.75 40.35 M43.5 45.45 L43.55 45.25 43.75 47.0 Q43.75 49.2 43.2 49.9 L43.5 45.45" fill="#d1ffff" fill-rule="evenodd" stroke="none"/>
      <path d="M59.85 30.6 L59.85 30.65 60.15 31.3 61.05 33.35 61.05 33.4 61.15 33.6 61.2 33.8 61.2 33.75 62.1 36.55 63.05 41.55 63.25 44.5 63.25 46.3 63.15 48.1 63.0 49.55 62.6 51.6 61.5 54.95 61.4 55.2 61.3 55.35 61.25 55.45 61.25 55.5 61.25 55.55 60.5 56.9 60.4 57.1 59.9 57.8 58.35 59.75 55.9 61.9 Q54.25 63.15 52.25 64.1 L52.2 64.15 Q49.4 65.15 46.55 65.45 L45.5 65.5 45.2 65.5 44.95 65.5 43.45 65.45 43.05 65.4 37.85 64.15 Q34.95 62.8 32.85 60.85 L32.35 60.4 32.35 60.35 30.65 58.45 30.6 58.25 30.55 57.85 30.5 57.3 30.15 55.15 Q31.1 55.5 31.1 57.4 L31.15 57.65 Q32.45 58.3 34.55 59.5 40.25 62.4 43.25 62.4 49.2 62.4 52.8 61.2 55.3 60.05 57.3 58.2 57.1 57.75 57.05 57.15 L56.1 57.15 51.65 57.05 51.0 57.25 48.65 57.25 49.15 57.95 Q50.3 59.65 51.1 61.5 50.0 60.7 48.55 58.65 L47.55 57.25 43.75 57.25 Q42.55 56.8 42.25 55.3 L42.25 55.1 Q41.2 57.9 39.0 57.9 37.95 57.9 37.1 57.25 34.55 57.15 33.75 56.0 L33.5 54.75 33.7 53.0 Q33.0 51.15 32.25 47.5 31.0 41.4 31.0 39.95 31.0 38.7 31.85 38.2 32.9 37.6 34.25 39.9 L34.6 41.95 35.0 44.25 Q35.1 45.4 36.3 49.05 L36.45 49.55 37.05 50.95 Q38.0 53.85 38.5 54.5 L38.65 54.5 Q39.6 52.7 39.85 49.7 39.9 46.25 40.15 44.65 40.7 41.45 41.55 39.8 L41.6 39.5 Q42.0 36.85 43.0 36.85 L43.7 37.3 43.75 37.25 Q45.15 36.45 45.15 38.7 L44.95 39.8 Q47.0 45.45 47.0 50.8 47.0 51.55 46.6 52.2 L45.25 54.1 53.15 53.55 56.8 53.15 Q56.5 52.15 55.4 50.35 54.35 48.6 54.45 45.55 L54.75 40.5 Q54.75 39.25 55.7 38.15 56.6 37.05 56.6 36.15 56.6 35.7 55.2 35.0 53.75 34.25 53.0 34.25 L52.05 34.3 50.9 34.95 49.95 35.35 53.35 41.15 53.25 41.35 Q50.45 39.35 48.25 36.2 48.15 37.0 47.25 37.0 46.3 37.0 46.2 36.25 46.1 35.25 45.75 35.0 L44.65 35.0 43.35 35.0 42.4 34.95 35.1 34.6 Q34.6 34.7 34.55 34.9 34.35 35.5 34.0 35.6 33.0 34.7 33.0 33.95 L33.05 33.7 33.0 33.45 Q33.0 31.75 37.0 31.7 L45.85 31.9 42.4 25.5 42.5 25.25 Q45.35 27.8 47.9 31.95 L48.15 31.95 51.5 31.6 Q59.35 31.65 59.35 36.2 L58.8 37.85 62.15 40.65 62.15 39.3 61.3 34.45 61.1 33.55 60.2 32.75 Q57.2 29.9 55.25 27.35 L55.25 27.0 59.85 30.6 M43.5 45.45 L43.2 49.9 Q43.75 49.2 43.75 47.0 L43.55 45.25 43.5 45.45 M57.75 40.35 Q57.75 44.1 57.9 45.2 58.2 48.15 59.5 49.75 60.15 50.5 60.3 51.9 61.6 47.65 62.0 43.3 L60.4 41.65 58.25 39.25 57.75 40.35" fill="#b6dddf" fill-rule="evenodd" stroke="none"/>
      <path d="M51.8 37.85 L52.7 37.85 52.7 51.0 51.8 51.0 Q51.65 51.0 51.65 51.5 L51.65 54.0 Q51.65 54.35 51.8 54.35 L54.65 54.35 54.95 54.35 56.8 54.35 57.0 53.95 57.0 51.35 56.9 51.1 56.8 51.0 56.05 51.0 56.05 37.85 56.8 37.85 57.0 37.45 57.0 34.85 56.9 34.6 56.8 34.5 51.8 34.5 Q51.65 34.5 51.65 34.95 L51.65 37.5 Q51.65 37.85 51.8 37.85 M31.15 34.95 L31.35 34.05 31.4 33.9 31.4 33.85 Q31.8 33.05 32.65 33.15 L32.7 33.15 37.45 33.15 38.2 33.25 38.75 33.15 43.35 33.15 43.5 33.15 Q44.0 32.95 44.45 33.3 L45.05 33.2 45.1 33.2 49.85 33.2 50.3 33.15 Q50.75 32.95 51.2 33.3 L51.8 33.2 51.85 33.2 56.65 33.2 Q57.3 32.95 57.8 33.65 58.3 33.95 58.3 34.85 L58.3 37.45 58.3 37.6 57.95 38.6 57.35 39.1 57.35 49.75 57.8 50.2 Q58.3 50.5 58.3 51.35 L58.3 53.95 58.3 54.1 57.95 55.1 Q57.4 55.85 56.6 55.65 L54.95 55.65 54.65 55.65 51.85 55.65 51.8 55.65 50.95 55.4 49.8 55.65 48.15 55.65 47.85 55.65 45.1 55.65 45.05 55.65 Q44.4 55.7 44.0 55.2 L43.9 55.15 Q43.6 54.8 43.55 54.15 L43.55 51.5 43.75 50.6 43.75 50.45 43.75 50.4 Q44.1 49.85 44.6 49.75 L44.6 39.1 44.35 39.0 43.75 39.1 43.5 39.1 43.35 40.1 42.65 44.65 41.2 53.95 40.8 55.15 Q40.7 55.15 40.65 55.25 L39.55 55.6 36.65 55.6 Q35.1 55.65 34.85 54.1 L33.6 44.5 32.85 39.1 32.7 39.1 32.65 39.1 Q32.0 39.15 31.6 38.65 L31.5 38.6 Q31.2 38.25 31.15 37.6 L31.15 34.95 M41.35 44.55 L42.35 37.8 43.35 37.8 43.75 37.8 43.9 37.4 43.9 34.8 43.8 34.55 43.75 34.45 43.35 34.45 38.75 34.45 Q38.55 34.45 38.55 34.95 L38.55 37.45 38.75 37.8 39.05 37.8 39.0 38.1 38.45 42.25 38.3 42.75 Q38.15 42.75 38.1 42.3 L37.5 38.05 37.5 37.8 37.65 37.8 37.8 37.4 37.8 34.8 37.75 34.55 37.65 34.45 32.65 34.45 Q32.5 34.45 32.5 34.95 L32.5 37.45 Q32.5 37.8 32.65 37.8 L34.05 37.8 34.9 44.35 36.15 53.85 Q36.2 54.3 36.65 54.3 L39.55 54.3 39.9 53.85 41.35 44.55 M45.05 37.85 L45.9 37.85 45.9 51.0 45.05 51.0 Q44.85 51.0 44.85 51.5 L44.85 54.0 45.05 54.35 47.85 54.35 48.15 54.35 50.05 54.35 50.2 53.95 50.2 51.35 50.1 51.1 50.05 51.0 49.25 51.0 49.25 37.85 50.05 37.85 50.2 37.45 50.2 34.85 50.1 34.6 50.05 34.5 45.05 34.5 Q44.85 34.5 44.85 34.95 L44.85 37.5 45.05 37.85 M50.55 39.1 L50.55 49.75 50.9 50.0 Q51.05 49.8 51.4 49.75 L51.4 39.1 51.1 39.0 50.55 39.1" fill="#4e1826" fill-rule="evenodd" stroke="none"/>
      <path d="M51.8 37.85 Q51.65 37.85 51.65 37.5 L51.65 34.95 Q51.65 34.5 51.8 34.5 L56.8 34.5 56.9 34.6 57.0 34.85 57.0 37.45 56.8 37.85 56.05 37.85 56.05 51.0 56.8 51.0 56.9 51.1 57.0 51.35 57.0 53.95 56.8 54.35 54.95 54.35 54.65 54.35 51.8 54.35 Q51.65 54.35 51.65 54.0 L51.65 51.5 Q51.65 51.0 51.8 51.0 L52.7 51.0 52.7 37.85 51.8 37.85 M45.05 37.85 L44.85 37.5 44.85 34.95 Q44.85 34.5 45.05 34.5 L50.05 34.5 50.1 34.6 50.2 34.85 50.2 37.45 50.05 37.85 49.25 37.85 49.25 51.0 50.05 51.0 50.1 51.1 50.2 51.35 50.2 53.95 50.05 54.35 48.15 54.35 47.85 54.35 45.05 54.35 44.85 54.0 44.85 51.5 Q44.85 51.0 45.05 51.0 L45.9 51.0 45.9 37.85 45.05 37.85 M41.35 44.55 L39.9 53.85 39.55 54.3 36.65 54.3 Q36.2 54.3 36.15 53.85 L34.9 44.35 34.05 37.8 32.65 37.8 Q32.5 37.8 32.5 37.45 L32.5 34.95 Q32.5 34.45 32.65 34.45 L37.65 34.45 37.75 34.55 37.8 34.8 37.8 37.4 37.65 37.8 37.5 37.8 37.5 38.05 38.1 42.3 Q38.15 42.75 38.3 42.75 L38.45 42.25 39.0 38.1 39.05 37.8 38.75 37.8 38.55 37.45 38.55 34.95 Q38.55 34.45 38.75 34.45 L43.35 34.45 43.75 34.45 43.8 34.55 43.9 34.8 43.9 37.4 43.75 37.8 43.35 37.8 42.35 37.8 41.35 44.55" fill="#fecb0e" fill-rule="evenodd" stroke="none"/>
      <path d="M52.6 35.35 L56.2 35.35 56.2 36.95 56.1 36.95 Q55.75 36.95 55.5 37.25 55.25 37.5 55.25 37.85 L55.25 51.0 55.5 51.6 Q55.75 51.85 56.1 51.85 L56.2 51.85 56.2 53.5 55.05 53.5 54.7 53.5 52.6 53.5 52.6 51.85 52.75 51.85 53.4 51.6 53.65 51.0 53.65 37.85 53.4 37.25 Q53.1 36.95 52.75 36.95 L52.6 36.95 52.6 35.35" fill="url(#gradient3)" fill-rule="evenodd" stroke="none"/>
      <path d="M45.75 35.35 L49.35 35.35 49.35 36.95 49.25 36.95 Q48.9 36.95 48.65 37.25 48.4 37.5 48.4 37.85 L48.4 51.0 48.65 51.6 49.25 51.85 49.35 51.85 49.35 53.5 48.15 53.5 47.85 53.5 45.75 53.5 45.75 51.85 45.9 51.85 46.5 51.6 46.75 51.0 46.75 37.85 46.5 37.25 Q46.25 36.95 45.9 36.95 L45.75 36.95 45.75 35.35 M39.85 38.1 L39.85 37.55 39.55 37.1 39.45 37.0 39.45 35.3 43.05 35.3 43.05 36.95 42.35 36.95 41.75 37.15 41.5 37.65 40.45 44.4 39.1 53.45 37.0 53.45 35.8 44.25 34.9 37.65 34.6 37.15 34.05 36.95 33.35 36.95 33.35 35.3 36.95 35.3 36.95 37.15 36.9 37.2 Q36.65 37.45 36.65 37.8 L36.65 38.05 36.65 38.15 Q36.9 40.75 37.25 42.4 37.4 43.9 38.3 43.6 39.15 43.9 39.3 42.35 L39.3 42.45 39.85 38.2 39.85 38.1" fill="url(#gradient4)" fill-rule="evenodd" stroke="none"/>
      <path d="M27.05 40.4 L27.55 40.7 27.7 41.2 27.45 41.7 22.1 46.65 23.45 53.9 23.35 54.4 22.9 54.75 22.35 54.65 15.95 51.1 9.5 54.65 8.95 54.75 8.55 54.4 Q8.35 54.15 8.45 53.85 L9.85 46.7 4.5 41.7 4.25 41.2 4.45 40.7 Q4.6 40.45 4.9 40.4 L12.2 39.45 15.3 32.85 15.7 32.45 16.25 32.45 16.65 32.85 19.75 39.45 27.05 40.4 M19.15 40.9 L18.8 40.75 18.6 40.5 15.95 34.9 13.4 40.45 13.15 40.75 12.8 40.9 6.7 41.7 11.15 45.85 11.4 46.2 11.4 46.55 10.2 52.6 15.6 49.6 15.95 49.5 16.35 49.6 21.7 52.6 20.55 46.55 20.55 46.15 20.75 45.85 25.3 41.7 19.15 40.9" fill="#4e1826" fill-rule="evenodd" stroke="none"/>
      <path d="M19.15 40.9 L25.3 41.7 20.75 45.85 20.55 46.15 20.55 46.55 21.7 52.6 16.35 49.6 15.95 49.5 15.6 49.6 10.2 52.6 11.4 46.55 11.4 46.2 11.15 45.85 6.7 41.7 12.8 40.9 13.15 40.75 13.4 40.45 15.95 34.9 18.6 40.5 18.8 40.75 19.15 40.9" fill="#fecb0e" fill-rule="evenodd" stroke="none"/>
      <path d="M13.9 41.75 L14.55 41.0 14.5 41.0 15.95 37.85 17.45 41.0 17.45 41.05 18.1 41.8 18.05 41.75 19.0 42.15 22.45 42.6 19.9 44.95 Q19.5 45.3 19.35 45.8 L19.3 46.8 19.95 50.2 16.9 48.5 16.95 48.5 15.95 48.25 15.0 48.5 11.95 50.2 12.6 46.8 12.55 45.8 12.0 44.95 9.5 42.6 12.95 42.15 13.0 42.15 13.9 41.75" fill="url(#gradient5)" fill-rule="evenodd" stroke="none"/>
      <path d="M84.05 40.4 L84.55 40.7 84.7 41.2 84.45 41.7 79.1 46.65 80.45 53.9 80.35 54.4 79.9 54.75 79.35 54.65 72.95 51.1 66.5 54.65 65.95 54.75 65.55 54.4 Q65.35 54.15 65.45 53.85 L66.85 46.7 61.5 41.7 61.25 41.2 61.45 40.7 Q61.6 40.45 61.9 40.4 L69.2 39.45 72.3 32.85 72.7 32.45 73.25 32.45 73.65 32.85 76.75 39.45 84.05 40.4 M76.15 40.9 L75.8 40.75 75.6 40.5 72.95 34.9 70.4 40.45 70.15 40.75 69.8 40.9 63.7 41.7 68.15 45.85 68.4 46.2 68.4 46.55 67.2 52.6 72.6 49.6 72.95 49.5 73.35 49.6 78.7 52.6 77.55 46.55 77.55 46.15 77.75 45.85 82.3 41.7 76.15 40.9" fill="#4e1826" fill-rule="evenodd" stroke="none"/>
      <path d="M76.15 40.9 L82.3 41.7 77.75 45.85 77.55 46.15 77.55 46.55 78.7 52.6 73.35 49.6 72.95 49.5 72.6 49.6 67.2 52.6 68.4 46.55 68.4 46.2 68.15 45.85 63.7 41.7 69.8 40.9 70.15 40.75 70.4 40.45 72.95 34.9 75.6 40.5 75.8 40.75 76.15 40.9" fill="#fecb0e" fill-rule="evenodd" stroke="none"/>
      <path d="M70.9 41.75 L71.55 41.0 71.5 41.0 72.95 37.85 74.45 41.0 74.45 41.05 75.1 41.8 75.05 41.75 Q75.45 42.05 76.0 42.15 L79.45 42.6 76.9 44.95 Q76.5 45.3 76.35 45.8 L76.3 46.8 76.95 50.2 73.9 48.5 73.95 48.5 72.95 48.25 72.0 48.5 68.95 50.2 69.6 46.8 69.55 45.8 69.0 44.95 66.5 42.6 69.95 42.15 70.0 42.15 Q70.5 42.05 70.9 41.75" fill="url(#gradient6)" fill-rule="evenodd" stroke="none"/>
    </g>
    <linearGradient gradientTransform="matrix(0.0, -0.0324, 0.0344, 0.0, 45.0, 45.0)" gradientUnits="userSpaceOnUse" id="gradient0" spreadMethod="pad" x1="-819.2" x2="819.2">
      <stop offset="0.0" stop-color="#ffffff" stop-opacity="0.2"/>
      <stop offset="1.0" stop-color="#000000" stop-opacity="0.6"/>
    </linearGradient>
    <linearGradient gradientTransform="matrix(0.0, 0.0439, -0.0435, 0.0, 45.0, 46.5)" gradientUnits="userSpaceOnUse" id="gradient1" spreadMethod="pad" x1="-819.2" x2="819.2">
      <stop offset="0.0" stop-color="#ffffff" stop-opacity="0.2"/>
      <stop offset="1.0" stop-color="#000000" stop-opacity="0.6"/>
    </linearGradient>
    <linearGradient gradientTransform="matrix(0.0, 0.0249, -0.0259, 0.0, 45.0, 46.95)" gradientUnits="userSpaceOnUse" id="gradient2" spreadMethod="pad" x1="-819.2" x2="819.2">
      <stop offset="0.0" stop-color="#ffffff" stop-opacity="0.2"/>
      <stop offset="1.0" stop-color="#000000" stop-opacity="0.6"/>
    </linearGradient>
    <linearGradient gradientTransform="matrix(0.0, 0.0111, -0.0059, 0.0, 45.1, 45.15)" gradientUnits="userSpaceOnUse" id="gradient3" spreadMethod="pad" x1="-819.2" x2="819.2">
      <stop offset="0.0" stop-color="#ffffff" stop-opacity="0.2"/>
      <stop offset="1.0" stop-color="#000000" stop-opacity="0.6"/>
    </linearGradient>
    <linearGradient gradientTransform="matrix(0.0, 0.0111, -0.0059, 0.0, 38.2, 45.15)" gradientUnits="userSpaceOnUse" id="gradient4" spreadMethod="pad" x1="-819.2" x2="819.2">
      <stop offset="0.0" stop-color="#ffffff" stop-opacity="0.2"/>
      <stop offset="1.0" stop-color="#000000" stop-opacity="0.6"/>
    </linearGradient>
    <linearGradient gradientTransform="matrix(0.0, 0.0058, -0.0079, 0.0, 16.0, 45.35)" gradientUnits="userSpaceOnUse" id="gradient5" spreadMethod="pad" x1="-819.2" x2="819.2">
      <stop offset="0.0" stop-color="#ffffff" stop-opacity="0.2"/>
      <stop offset="1.0" stop-color="#000000" stop-opacity="0.6"/>
    </linearGradient>
    <linearGradient gradientTransform="matrix(0.0, 0.0058, -0.0079, 0.0, 73.0, 45.35)" gradientUnits="userSpaceOnUse" id="gradient6" spreadMethod="pad" x1="-819.2" x2="819.2">
      <stop offset="0.0" stop-color="#ffffff" stop-opacity="0.2"/>
      <stop offset="1.0" stop-color="#000000" stop-opacity="0.6"/>
    </linearGradient>
  </defs>
</svg>
