<?xml version="1.0" encoding="UTF-8" standalone="no"?>
<svg xmlns:ffdec="https://www.free-decompiler.com/flash" xmlns:xlink="http://www.w3.org/1999/xlink" ffdec:objectType="frame" height="30.0px" width="30.0px" xmlns="http://www.w3.org/2000/svg">
  <g transform="matrix(1.0, 0.0, 0.0, 1.0, 0.0, 0.0)">
    <use ffdec:characterId="160" height="90.0" transform="matrix(0.3333, 0.0, 0.0, 0.3333, 0.0, 0.0)" width="90.0" xlink:href="#sprite0"/>
  </g>
  <defs>
    <g id="sprite0" transform="matrix(1.0, 0.0, 0.0, 1.0, 0.0, 0.0)">
      <use ffdec:characterId="140" height="90.0" transform="matrix(1.0, 0.0, 0.0, 1.0, 0.0, 0.0)" width="90.0" xlink:href="#sprite1"/>
      <use ffdec:characterId="159" height="81.5" transform="matrix(1.0, 0.0, 0.0, 1.0, 4.25, 4.25)" width="81.5" xlink:href="#shape1"/>
    </g>
    <g id="sprite1" transform="matrix(1.0, 0.0, 0.0, 1.0, 0.0, 0.0)">
      <use ffdec:characterId="139" height="23.0" transform="matrix(0.8435, 0.0, 0.0, 3.913, 0.0056, 0.0127)" width="106.7" xlink:href="#shape0"/>
    </g>
    <g id="shape0" transform="matrix(1.0, 0.0, 0.0, 1.0, -32.55, -101.05)">
      <path d="M32.55 101.05 L139.25 101.05 139.25 124.05 32.55 124.05 32.55 101.05" fill="#000000" fill-opacity="0.003921569" fill-rule="evenodd" stroke="none"/>
    </g>
    <g id="shape1" transform="matrix(1.0, 0.0, 0.0, 1.0, -4.25, -4.25)">
      <path d="M39.25 16.3 L42.0 15.9 42.4 15.75 42.65 15.4 45.05 7.6 47.45 15.4 47.7 15.75 48.1 15.9 50.85 16.3 50.8 16.3 Q57.8 17.6 63.5 22.3 L63.9 22.45 64.3 22.35 71.45 18.55 67.7 25.7 67.6 26.15 67.8 26.55 Q73.3 33.3 74.1 42.0 L74.3 42.4 74.65 42.65 82.45 45.0 74.65 47.45 Q74.4 47.5 74.3 47.7 L74.1 48.1 Q73.3 56.75 67.8 63.5 L67.6 63.9 67.7 64.3 71.45 71.45 64.3 67.7 63.9 67.6 Q63.65 67.65 63.5 67.8 56.75 73.3 48.1 74.1 47.85 74.15 47.7 74.3 47.5 74.4 47.45 74.65 L45.05 82.4 42.7 74.65 42.45 74.3 42.05 74.1 Q33.3 73.3 26.55 67.8 L26.15 67.6 25.7 67.7 18.6 71.45 22.4 64.3 22.45 63.9 22.3 63.5 Q16.7 56.75 15.9 48.1 L15.75 47.7 15.4 47.45 7.6 45.0 15.4 42.65 15.75 42.4 15.9 42.0 Q16.7 33.3 22.3 26.55 L22.45 26.15 22.35 25.7 18.55 18.6 25.75 22.4 26.2 22.45 26.6 22.3 Q32.15 17.6 39.25 16.3 M68.65 53.05 Q69.9 49.3 69.9 45.0 69.9 40.75 68.7 37.0 L68.65 37.0 67.45 34.0 Q65.65 30.4 62.65 27.4 59.55 24.35 56.05 22.6 L56.0 22.6 Q54.55 21.8 52.95 21.35 L53.0 21.35 49.9 20.55 44.95 20.05 40.05 20.55 36.9 21.35 36.95 21.35 Q35.35 21.8 33.9 22.6 L33.95 22.6 Q30.35 24.35 27.35 27.4 24.3 30.4 22.55 34.0 L22.55 33.95 Q21.75 35.4 21.3 37.0 L21.3 36.95 Q20.0 40.7 20.0 45.0 20.0 49.35 21.3 53.05 L21.3 53.0 Q21.75 54.6 22.55 56.05 L22.55 56.1 Q24.3 59.6 27.35 62.7 30.35 65.7 33.95 67.5 35.35 68.2 36.95 68.7 L36.95 68.75 Q40.7 69.95 44.95 69.95 49.25 69.95 53.0 68.7 L53.0 68.75 56.0 67.5 Q59.55 65.7 62.65 62.7 65.65 59.6 67.45 56.05 L68.7 53.05 68.65 53.05" fill="#4f79d2" fill-rule="evenodd" stroke="none"/>
      <path d="M77.9 62.75 L77.6 63.0 77.25 62.95 77.0 62.7 76.15 60.4 73.7 59.85 73.4 59.65 73.3 59.3 73.5 59.0 75.45 57.4 75.15 54.95 75.25 54.6 Q75.35 54.45 75.6 54.4 L75.95 54.5 78.0 55.9 80.2 54.85 80.55 54.85 80.85 55.05 80.9 55.45 80.25 57.8 82.0 59.6 82.1 59.95 81.95 60.3 81.65 60.45 79.1 60.6 77.9 62.75 M80.8 34.35 L80.75 34.7 80.45 34.95 80.1 34.9 77.9 33.9 75.85 35.25 75.5 35.3 75.15 35.1 75.05 34.8 75.3 32.3 73.4 30.75 73.2 30.45 73.3 30.1 Q73.4 29.9 73.6 29.85 L76.05 29.35 76.9 27.1 77.15 26.8 77.5 26.8 77.8 27.0 79.05 29.2 81.45 29.2 Q81.65 29.2 81.8 29.35 L81.95 29.7 81.85 30.05 80.2 32.0 80.8 34.35 M44.35 4.8 L44.6 4.4 45.05 4.25 45.5 4.4 45.8 4.8 48.75 14.45 51.1 14.85 54.6 15.75 Q56.9 16.45 59.0 17.55 61.65 18.9 64.05 20.85 68.5 18.5 72.9 16.1 L73.35 16.0 73.8 16.25 74.0 16.65 73.95 17.1 69.25 26.0 Q71.1 28.3 72.4 30.85 L74.35 35.45 Q75.2 38.3 75.55 41.35 L85.25 44.3 85.6 44.55 85.75 45.0 85.6 45.45 85.25 45.75 75.55 48.75 Q75.25 51.6 74.45 54.3 73.7 56.7 72.55 58.95 71.2 61.6 69.25 64.05 L73.95 72.9 74.0 73.4 73.8 73.8 73.4 74.0 72.9 73.95 64.05 69.25 59.35 72.35 Q57.15 73.5 54.75 74.3 51.85 75.2 48.75 75.55 L45.8 85.25 45.5 85.6 45.05 85.75 44.6 85.6 44.35 85.25 41.4 75.55 35.85 74.45 Q33.45 73.75 31.2 72.6 28.45 71.25 26.0 69.25 L17.1 73.95 16.65 74.0 16.25 73.8 16.0 73.4 16.1 72.9 20.8 64.05 Q19.0 61.8 17.7 59.35 16.5 57.15 15.75 54.75 14.8 51.85 14.45 48.75 L4.8 45.75 4.4 45.45 4.25 45.0 4.4 44.55 4.8 44.3 14.45 41.35 Q14.75 38.45 15.6 35.75 16.35 33.35 17.5 31.15 18.85 28.4 20.85 25.95 L16.1 17.1 16.0 16.65 Q16.05 16.4 16.25 16.25 L16.65 16.0 17.1 16.1 26.05 20.8 Q28.3 18.95 30.8 17.65 33.05 16.5 35.45 15.75 L39.0 14.85 39.0 14.8 41.35 14.45 44.35 4.8 M39.25 16.3 Q32.15 17.6 26.6 22.3 L26.2 22.45 25.75 22.4 18.55 18.6 22.35 25.7 22.45 26.15 22.3 26.55 Q16.7 33.3 15.9 42.0 L15.75 42.4 15.4 42.65 7.6 45.0 15.4 47.45 15.75 47.7 15.9 48.1 Q16.7 56.75 22.3 63.5 L22.45 63.9 22.4 64.3 18.6 71.45 25.7 67.7 26.15 67.6 26.55 67.8 Q33.3 73.3 42.05 74.1 L42.45 74.3 42.7 74.65 45.05 82.4 47.45 74.65 Q47.5 74.4 47.7 74.3 47.85 74.15 48.1 74.1 56.75 73.3 63.5 67.8 63.65 67.65 63.9 67.6 L64.3 67.7 71.45 71.45 67.7 64.3 67.6 63.9 67.8 63.5 Q73.3 56.75 74.1 48.1 L74.3 47.7 Q74.4 47.5 74.65 47.45 L82.45 45.0 74.65 42.65 74.3 42.4 74.1 42.0 Q73.3 33.3 67.8 26.55 L67.6 26.15 67.7 25.7 71.45 18.55 64.3 22.35 63.9 22.45 63.5 22.3 Q57.8 17.6 50.8 16.3 L50.85 16.3 48.1 15.9 47.7 15.75 47.45 15.4 45.05 7.6 42.65 15.4 42.4 15.75 42.0 15.9 39.25 16.3 M62.8 12.2 L63.05 12.5 63.0 12.9 62.75 13.15 60.45 14.0 59.9 16.4 59.7 16.7 59.35 16.8 59.05 16.65 57.45 14.7 55.0 14.95 54.85 14.95 54.65 14.85 54.45 14.55 54.55 14.2 55.95 12.1 54.9 9.95 54.9 9.55 55.1 9.25 55.5 9.25 57.85 9.85 59.65 8.15 Q59.8 8.0 60.0 8.0 60.2 8.0 60.35 8.15 L60.5 8.5 60.65 11.0 62.8 12.2 M59.9 11.75 L59.75 11.6 59.65 11.35 59.55 9.65 58.35 10.8 58.15 10.9 57.9 10.9 56.25 10.45 56.95 11.95 57.0 12.2 56.95 12.45 56.0 13.85 57.6 13.65 57.85 13.7 58.05 13.85 59.15 15.2 59.5 13.5 59.65 13.3 59.85 13.15 61.35 12.55 59.9 11.75 M68.65 53.05 L68.7 53.05 67.45 56.05 Q65.65 59.6 62.65 62.7 59.55 65.7 56.0 67.5 L53.0 68.75 53.0 68.7 Q49.25 69.95 44.95 69.95 40.7 69.95 36.95 68.75 L36.95 68.7 Q35.35 68.2 33.95 67.5 30.35 65.7 27.35 62.7 24.3 59.6 22.55 56.1 L22.55 56.05 Q21.75 54.6 21.3 53.0 L21.3 53.05 Q20.0 49.35 20.0 45.0 20.0 40.7 21.3 36.95 L21.3 37.0 Q21.75 35.4 22.55 33.95 L22.55 34.0 Q24.3 30.4 27.35 27.4 30.35 24.35 33.95 22.6 L33.9 22.6 Q35.35 21.8 36.95 21.35 L36.9 21.35 40.05 20.55 44.95 20.05 49.9 20.55 53.0 21.35 52.95 21.35 Q54.55 21.8 56.0 22.6 L56.05 22.6 Q59.55 24.35 62.65 27.4 65.65 30.4 67.45 34.0 L68.65 37.0 68.7 37.0 Q69.9 40.75 69.9 45.0 69.9 49.3 68.65 53.05 M68.4 45.0 Q68.4 40.95 67.25 37.45 L66.1 34.65 Q64.45 31.3 61.6 28.45 58.65 25.55 55.35 23.95 L55.3 23.9 Q54.0 23.2 52.55 22.8 L52.5 22.75 49.6 22.0 44.95 21.55 40.35 22.0 37.4 22.75 37.4 22.8 Q35.95 23.2 34.6 23.9 L34.6 23.95 Q31.25 25.55 28.4 28.45 25.5 31.3 23.9 34.65 L23.85 34.65 Q23.15 36.0 22.75 37.45 L22.7 37.45 Q21.5 41.0 21.5 45.0 21.5 49.05 22.7 52.55 L22.75 52.6 Q23.15 54.05 23.85 55.35 L23.9 55.4 Q25.5 58.7 28.4 61.65 31.25 64.5 34.6 66.15 L37.4 67.3 Q40.9 68.45 44.95 68.45 49.05 68.45 52.55 67.3 L55.3 66.15 55.35 66.15 Q58.65 64.5 61.6 61.65 64.45 58.7 66.1 55.4 L66.1 55.35 67.25 52.6 Q68.4 49.1 68.4 45.0 M32.1 11.05 L31.85 11.05 31.65 10.95 30.3 9.85 30.3 11.45 30.25 11.7 30.05 11.9 28.55 12.75 30.1 13.35 30.3 13.5 30.4 13.7 30.75 15.35 31.75 14.1 31.95 13.95 32.2 13.9 33.9 14.05 33.0 12.65 32.9 12.4 32.95 12.15 33.65 10.65 32.1 11.05 M79.2 32.0 L79.2 31.75 79.3 31.55 80.4 30.2 78.75 30.2 78.5 30.15 78.35 29.95 77.45 28.45 76.9 30.0 76.75 30.2 76.5 30.3 74.9 30.65 76.15 31.65 76.25 31.85 76.3 32.1 76.15 33.8 77.6 32.9 77.85 32.8 78.1 32.85 79.6 33.55 79.2 32.0 M12.3 27.35 Q12.4 27.2 12.6 27.15 L13.0 27.15 13.25 27.45 14.1 29.7 16.5 30.25 16.85 30.5 16.9 30.85 16.7 31.15 14.8 32.75 15.05 35.15 14.95 35.5 14.65 35.7 14.3 35.6 12.25 34.2 10.0 35.25 9.65 35.3 9.35 35.05 9.35 34.7 9.95 32.3 8.25 30.5 8.1 30.15 8.25 29.8 Q8.35 29.65 8.6 29.65 L11.1 29.55 12.3 27.35 M34.45 9.45 L34.8 9.45 35.05 9.75 35.0 10.15 34.0 12.3 35.35 14.4 35.4 14.75 35.2 15.05 34.85 15.15 32.4 14.95 30.85 16.85 30.55 17.0 30.2 16.9 29.95 16.6 29.45 14.2 27.2 13.35 26.9 13.1 26.9 12.7 27.1 12.45 29.3 11.2 29.3 8.75 29.45 8.4 29.8 8.25 30.15 8.4 32.1 10.0 34.45 9.45 M11.85 30.25 L11.7 30.45 11.45 30.5 9.75 30.6 10.9 31.8 11.0 32.05 11.0 32.3 10.55 33.9 12.05 33.2 12.3 33.15 12.55 33.25 13.95 34.2 13.75 32.55 13.8 32.3 13.95 32.1 15.3 31.05 13.6 30.65 13.4 30.55 13.25 30.35 12.65 28.8 11.85 30.25 M9.5 55.75 L9.5 55.4 Q9.6 55.2 9.8 55.15 L10.15 55.15 12.35 56.2 14.45 54.85 14.8 54.75 15.1 54.95 15.2 55.3 15.0 57.8 16.9 59.3 17.05 59.65 16.95 60.0 16.65 60.2 14.25 60.7 13.4 63.0 13.1 63.25 12.75 63.3 12.5 63.05 11.25 60.85 8.8 60.85 8.45 60.75 8.3 60.4 8.45 60.05 10.05 58.1 9.5 55.75 M27.4 77.85 L27.2 77.55 27.2 77.2 27.5 76.95 29.75 76.1 30.3 73.65 30.55 73.35 30.9 73.25 31.2 73.45 32.8 75.4 35.2 75.1 35.55 75.2 35.75 75.55 35.65 75.9 34.25 77.95 35.3 80.15 35.35 80.5 35.1 80.8 34.75 80.85 32.4 80.2 30.55 81.95 30.2 82.05 29.85 81.95 29.7 81.6 29.6 79.05 27.4 77.85 M78.4 59.85 L78.55 59.7 78.8 59.6 80.5 59.5 79.35 58.3 79.25 58.1 79.25 57.85 79.65 56.2 78.2 56.9 77.95 56.95 77.7 56.9 76.3 55.95 76.45 57.55 76.45 57.8 76.3 58.0 74.95 59.1 76.6 59.45 76.85 59.6 77.0 59.8 77.55 61.35 78.4 59.85 M30.3 78.35 L30.5 78.5 30.55 78.75 30.65 80.45 31.85 79.3 32.1 79.2 32.35 79.2 33.95 79.6 33.25 78.1 33.2 77.85 33.3 77.65 34.25 76.25 32.6 76.4 32.35 76.4 32.15 76.25 31.1 74.9 30.7 76.55 30.6 76.8 30.4 76.95 28.85 77.5 30.3 78.35 M11.1 58.1 L11.1 58.3 11.0 58.55 9.9 59.85 11.5 59.85 11.75 59.95 11.95 60.1 12.8 61.65 13.4 60.1 13.55 59.9 13.75 59.75 15.4 59.45 14.15 58.4 14.0 58.2 13.95 57.95 14.1 56.25 12.7 57.2 12.45 57.25 12.2 57.2 10.7 56.5 11.1 58.1 M55.8 80.7 L55.4 80.65 55.2 80.35 55.2 80.0 56.25 77.8 54.9 75.75 54.8 75.4 55.0 75.05 55.35 74.95 57.8 75.2 59.35 73.3 59.7 73.1 60.05 73.2 60.25 73.5 60.75 75.95 63.05 76.8 63.3 77.05 63.35 77.4 63.1 77.7 60.9 78.95 60.9 81.35 60.8 81.7 60.45 81.85 60.1 81.75 58.15 80.1 55.8 80.7 M58.15 79.1 L58.4 79.1 58.6 79.2 59.9 80.3 59.9 78.65 60.0 78.4 60.15 78.25 61.7 77.35 60.15 76.8 59.95 76.65 59.8 76.4 59.5 74.8 58.45 76.05 58.25 76.15 58.05 76.2 56.3 76.05 57.25 77.5 57.3 77.7 57.25 77.95 56.55 79.5 58.15 79.1" fill="#4e1826" fill-rule="evenodd" stroke="none"/>
      <path d="M68.4 45.0 Q68.4 49.1 67.25 52.6 L66.1 55.35 66.1 55.4 Q64.45 58.7 61.6 61.65 58.65 64.5 55.35 66.15 L55.3 66.15 52.55 67.3 Q49.05 68.45 44.95 68.45 40.9 68.45 37.4 67.3 L34.6 66.15 Q31.25 64.5 28.4 61.65 25.5 58.7 23.9 55.4 L23.85 55.35 Q23.15 54.05 22.75 52.6 L22.7 52.55 Q21.5 49.05 21.5 45.0 21.5 41.0 22.7 37.45 L22.75 37.45 Q23.15 36.0 23.85 34.65 L23.9 34.65 Q25.5 31.3 28.4 28.45 31.25 25.55 34.6 23.95 L34.6 23.9 Q35.95 23.2 37.4 22.8 L37.4 22.75 40.35 22.0 44.95 21.55 49.6 22.0 52.5 22.75 52.55 22.8 Q54.0 23.2 55.3 23.9 L55.35 23.95 Q58.65 25.55 61.6 28.45 64.45 31.3 66.1 34.65 L67.25 37.45 Q68.4 40.95 68.4 45.0" fill="url(#gradient0)" fill-rule="evenodd" stroke="none"/>
      <path d="M59.9 11.75 L61.35 12.55 59.85 13.15 59.65 13.3 59.5 13.5 59.15 15.2 58.05 13.85 57.85 13.7 57.6 13.65 56.0 13.85 56.95 12.45 57.0 12.2 56.95 11.95 56.25 10.45 57.9 10.9 58.15 10.9 58.35 10.8 59.55 9.65 59.65 11.35 59.75 11.6 59.9 11.75 M79.2 32.0 L79.6 33.55 78.1 32.85 77.85 32.8 77.6 32.9 76.15 33.8 76.3 32.1 76.25 31.85 76.15 31.65 74.9 30.65 76.5 30.3 76.75 30.2 76.9 30.0 77.45 28.45 78.35 29.95 78.5 30.15 78.75 30.2 80.4 30.2 79.3 31.55 79.2 31.75 79.2 32.0 M32.1 11.05 L33.65 10.65 32.95 12.15 32.9 12.4 33.0 12.65 33.9 14.05 32.2 13.9 31.95 13.95 31.75 14.1 30.75 15.35 30.4 13.7 30.3 13.5 30.1 13.35 28.55 12.75 30.05 11.9 30.25 11.7 30.3 11.45 30.3 9.85 31.65 10.95 31.85 11.05 32.1 11.05 M11.85 30.25 L12.65 28.8 13.25 30.35 13.4 30.55 13.6 30.65 15.3 31.05 13.95 32.1 13.8 32.3 13.75 32.55 13.95 34.2 12.55 33.25 12.3 33.15 12.05 33.2 10.55 33.9 11.0 32.3 11.0 32.05 10.9 31.8 9.75 30.6 11.45 30.5 11.7 30.45 11.85 30.25 M11.1 58.1 L10.7 56.5 12.2 57.2 12.45 57.25 12.7 57.2 14.1 56.25 13.95 57.95 14.0 58.2 14.15 58.4 15.4 59.45 13.75 59.75 13.55 59.9 13.4 60.1 12.8 61.65 11.95 60.1 11.75 59.95 11.5 59.85 9.9 59.85 11.0 58.55 11.1 58.3 11.1 58.1 M30.3 78.35 L28.85 77.5 30.4 76.95 30.6 76.8 30.7 76.55 31.1 74.9 32.15 76.25 32.35 76.4 32.6 76.4 34.25 76.25 33.3 77.65 33.2 77.85 33.25 78.1 33.95 79.6 32.35 79.2 32.1 79.2 31.85 79.3 30.65 80.45 30.55 78.75 30.5 78.5 30.3 78.35 M78.4 59.85 L77.55 61.35 77.0 59.8 76.85 59.6 76.6 59.45 74.95 59.1 76.3 58.0 76.45 57.8 76.45 57.55 76.3 55.95 77.7 56.9 77.95 56.95 78.2 56.9 79.65 56.2 79.25 57.85 79.25 58.1 79.35 58.3 80.5 59.5 78.8 59.6 78.55 59.7 78.4 59.85 M58.15 79.1 L56.55 79.5 57.25 77.95 57.3 77.7 57.25 77.5 56.3 76.05 58.05 76.2 58.25 76.15 58.45 76.05 59.5 74.8 59.8 76.4 59.95 76.65 60.15 76.8 61.7 77.35 60.15 78.25 60.0 78.4 59.9 78.65 59.9 80.3 58.6 79.2 58.4 79.1 58.15 79.1" fill="#fecb0e" fill-rule="evenodd" stroke="none"/>
      <path d="M43.6 15.7 L45.05 11.0 46.5 15.7 Q46.65 16.2 47.05 16.5 L47.05 16.55 47.95 16.9 48.0 16.9 50.65 17.3 50.85 17.3 Q57.5 18.6 62.85 23.05 63.25 23.4 63.75 23.45 L63.8 23.45 64.8 23.25 69.05 20.95 66.8 25.25 Q66.55 25.7 66.6 26.25 66.65 26.75 67.0 27.2 L67.0 27.15 Q72.3 33.7 73.1 42.1 73.15 42.6 73.5 43.0 73.8 43.4 74.3 43.6 L74.35 43.6 79.05 45.0 74.35 46.5 74.3 46.5 Q73.8 46.65 73.5 47.1 73.15 47.45 73.1 47.95 L73.1 48.0 Q72.3 56.35 67.0 62.85 66.65 63.25 66.6 63.75 66.55 64.3 66.8 64.75 L66.8 64.8 69.05 69.05 64.8 66.8 64.75 66.8 63.75 66.6 Q63.25 66.65 62.85 67.0 56.35 72.3 48.0 73.1 L47.95 73.1 Q47.45 73.15 47.1 73.5 46.65 73.8 46.5 74.3 L46.5 74.35 45.05 79.0 43.65 74.35 43.05 73.5 Q42.65 73.15 42.15 73.1 33.7 72.35 27.15 67.0 L27.2 67.0 Q26.75 66.65 26.25 66.6 L25.25 66.8 21.0 69.05 23.25 64.8 23.3 64.75 23.45 63.75 23.05 62.85 Q17.7 56.35 16.9 48.0 L16.9 47.95 16.55 47.05 16.5 47.05 Q16.2 46.65 15.7 46.5 L11.0 45.0 15.7 43.6 16.5 43.05 16.9 42.1 Q17.7 33.7 23.05 27.15 L23.05 27.2 23.45 26.25 23.45 26.2 23.25 25.2 23.25 25.25 20.95 21.0 25.3 23.25 25.3 23.3 26.3 23.45 27.25 23.05 Q32.5 18.6 39.15 17.3 L39.4 17.3 42.1 16.9 43.0 16.55 43.05 16.5 43.6 15.7 M69.65 53.4 L69.9 52.7 69.95 52.45 Q70.95 48.95 70.95 45.0 70.95 40.55 69.7 36.65 L69.65 36.65 68.4 33.55 Q66.55 29.8 63.4 26.65 60.15 23.45 56.5 21.65 L56.45 21.65 Q55.4 21.05 54.3 20.7 53.85 20.5 53.45 20.4 L53.3 20.35 53.35 20.35 Q51.8 19.8 50.1 19.5 L44.95 19.0 39.85 19.5 36.55 20.35 36.6 20.35 36.5 20.4 35.6 20.65 Q34.5 21.05 33.4 21.65 L33.5 21.65 33.3 21.75 32.55 22.15 Q29.3 23.85 26.6 26.65 23.8 29.4 22.1 32.65 L21.7 33.35 21.6 33.55 21.6 33.5 Q21.0 34.55 20.65 35.65 L20.35 36.55 20.3 36.65 20.3 36.6 Q18.95 40.5 18.95 45.0 18.95 49.55 20.3 53.4 L20.3 53.35 20.35 53.5 20.65 54.35 21.6 56.5 21.6 56.6 Q23.4 60.2 26.6 63.45 29.7 66.6 33.5 68.45 L36.6 69.7 36.6 69.75 Q40.5 71.0 44.95 71.0 48.9 71.0 52.4 70.0 L52.65 69.95 53.35 69.7 53.35 69.75 Q55.0 69.2 56.45 68.45 60.15 66.6 63.4 63.45 66.55 60.2 68.4 56.5 L69.7 53.4 69.65 53.4" fill="url(#gradient1)" fill-rule="evenodd" stroke="none"/>
      <path d="M54.55 23.75 Q57.4 26.65 60.0 31.4 L62.55 36.85 63.5 39.75 Q64.6 43.85 64.7 48.05 L64.7 49.9 64.6 51.85 Q64.2 56.25 62.55 59.8 59.55 65.85 52.8 69.1 L52.75 69.1 Q49.75 70.25 46.65 70.55 L46.6 70.55 45.15 70.6 44.9 70.6 43.3 70.55 Q40.25 70.25 37.2 69.1 L37.15 69.1 Q33.65 67.45 31.25 65.05 29.35 63.2 28.05 61.0 25.8 57.05 25.3 51.85 L25.3 51.8 Q24.85 45.5 26.55 39.6 27.15 37.4 28.0 35.35 28.8 33.35 29.9 31.45 L29.9 31.4 Q30.45 30.25 31.15 29.25 33.2 25.9 35.5 23.7 38.6 20.55 42.05 19.55 42.85 19.15 43.85 19.05 L45.9 19.05 47.95 19.55 Q51.4 20.55 54.55 23.75 M52.65 24.0 L51.45 23.05 Q49.55 21.6 47.55 21.0 L47.5 21.0 47.45 20.95 45.75 20.55 44.0 20.55 42.6 20.95 42.5 21.0 42.3 21.05 41.35 21.4 37.4 23.9 37.0 24.25 36.9 24.35 36.85 24.45 36.55 24.75 Q34.75 26.5 33.05 29.05 L32.55 29.85 32.4 30.05 Q31.75 31.0 31.25 32.1 L31.2 32.15 29.4 35.9 Q28.55 37.9 28.0 40.0 L27.4 42.4 Q27.0 44.4 26.85 46.5 26.65 48.7 26.8 51.0 L26.8 51.2 26.8 51.7 26.95 53.0 28.45 58.35 29.35 60.25 Q30.55 62.3 32.3 63.95 L32.3 64.0 33.0 64.65 Q35.0 66.45 37.8 67.75 L37.85 67.75 41.5 68.8 43.4 69.05 44.9 69.1 45.15 69.1 46.5 69.05 47.05 69.0 47.2 69.0 48.95 68.7 49.05 68.65 50.95 68.15 51.15 68.1 51.55 67.95 51.9 67.85 52.15 67.75 52.2 67.7 53.5 66.95 53.65 66.85 55.15 66.0 55.55 65.75 56.55 65.0 56.6 64.9 57.7 63.95 59.85 61.45 61.2 59.15 Q62.7 55.85 63.1 51.7 L63.2 49.9 63.2 48.1 Q63.1 44.05 62.05 40.15 L61.15 37.35 61.15 37.4 58.7 32.1 55.85 27.55 53.5 24.8 52.65 24.0" fill="#4e1826" fill-rule="evenodd" stroke="none"/>
      <path d="M33.0 64.65 L32.3 64.0 32.3 63.95 Q30.55 62.3 29.35 60.25 L28.45 58.35 26.95 53.0 26.8 51.7 26.8 51.2 26.8 51.0 Q26.65 48.7 26.85 46.5 27.0 44.4 27.4 42.4 L28.0 40.0 Q28.55 37.9 29.4 35.9 L31.2 32.15 31.25 32.1 Q31.75 31.0 32.4 30.05 L32.55 29.85 33.05 29.05 Q34.75 26.5 36.55 24.75 L36.85 24.45 36.9 24.35 37.0 24.25 37.4 23.9 41.35 21.4 42.3 21.05 42.5 21.0 42.6 20.95 44.0 20.55 45.75 20.55 47.45 20.95 47.5 21.0 47.55 21.0 Q49.55 21.6 51.45 23.05 L52.65 24.0 50.55 23.5 48.5 22.95 Q42.05 22.95 38.8 26.3 L33.2 34.15 31.85 37.25 Q29.2 43.9 29.2 47.65 29.2 54.05 32.55 60.85 33.6 63.0 34.85 64.75 L34.85 64.8 33.5 64.25 Q33.1 64.25 33.0 64.4 L33.0 64.65" fill="#ffffff" fill-rule="evenodd" stroke="none"/>
      <path d="M52.65 24.0 L53.5 24.8 55.85 27.55 55.75 27.5 Q58.05 33.3 59.25 37.4 L58.55 37.05 56.7 37.0 56.55 37.0 56.65 36.7 53.2 32.7 Q51.15 30.35 49.85 29.75 51.8 33.75 56.45 36.95 L54.85 36.9 Q52.1 37.2 49.5 39.5 L49.9 39.6 49.35 39.8 45.6 35.75 Q45.3 35.75 45.15 36.0 48.0 40.4 50.7 42.75 L50.7 42.8 50.4 44.0 Q45.95 39.55 44.7 43.15 44.25 44.35 44.25 48.8 44.2 50.1 44.5 51.25 45.1 53.5 46.85 53.5 47.4 53.5 48.0 52.9 L48.85 52.25 49.6 52.5 50.35 52.75 51.55 53.0 53.25 53.25 Q54.9 53.25 55.25 51.15 L55.25 48.45 55.25 45.0 Q54.65 42.2 51.75 42.2 L51.55 42.2 50.4 40.95 50.85 40.85 51.8 40.75 Q57.35 40.8 57.35 41.35 L57.35 41.45 58.15 41.3 58.5 42.4 58.15 42.6 57.75 42.05 Q56.6 40.75 56.6 43.65 56.4 45.75 56.65 47.9 57.1 52.3 59.35 53.5 59.05 54.5 57.35 55.25 L56.6 55.6 52.0 55.9 48.9 56.0 45.95 56.0 45.1 55.65 45.3 56.0 42.5 56.0 42.5 49.85 Q43.0 48.5 43.0 46.9 L42.9 45.1 41.25 42.85 40.65 45.1 40.4 45.6 Q39.85 46.05 39.5 47.75 L38.7 50.4 Q38.2 51.75 38.2 52.5 L38.25 53.25 38.7 53.8 Q38.25 55.3 37.05 56.2 L36.05 55.55 Q35.85 55.15 35.25 55.15 33.5 55.15 33.5 56.65 L34.2 58.0 Q35.25 59.25 37.15 59.25 L38.15 59.0 39.95 61.25 Q42.95 64.8 46.0 66.85 L46.1 66.65 41.7 61.05 39.2 58.2 39.8 57.3 39.85 57.65 Q40.2 58.55 41.75 58.75 L47.95 58.75 50.75 61.15 Q51.15 61.1 51.15 60.9 L48.9 58.75 49.0 58.75 49.55 58.65 53.85 58.65 58.55 58.25 57.6 60.5 Q57.15 61.35 55.9 62.5 L53.45 64.2 Q50.45 66.15 46.9 67.15 L41.75 67.4 34.85 64.75 Q33.6 63.0 32.55 60.85 29.2 54.05 29.2 47.65 29.2 43.9 31.85 37.25 L33.2 34.15 38.8 26.3 Q42.05 22.95 48.5 22.95 L50.55 23.5 52.65 24.0 M36.35 56.6 L36.35 56.45 36.4 56.6 36.35 56.6" fill="#d1ffff" fill-rule="evenodd" stroke="none"/>
      <path d="M55.85 27.55 L58.7 32.1 61.15 37.4 61.15 37.35 62.05 40.15 Q63.1 44.05 63.2 48.1 L63.2 49.9 63.1 51.7 Q62.7 55.85 61.2 59.15 L59.85 61.45 57.7 63.95 56.6 64.9 56.55 65.0 55.55 65.75 55.15 66.0 53.65 66.85 53.5 66.95 52.2 67.7 52.15 67.75 51.9 67.85 51.55 67.95 51.15 68.1 50.95 68.15 49.05 68.65 48.95 68.7 47.2 69.0 47.05 69.0 46.5 69.05 45.15 69.1 44.9 69.1 43.4 69.05 41.5 68.8 37.85 67.75 37.8 67.75 Q35.0 66.45 33.0 64.65 L33.0 64.4 Q33.1 64.25 33.5 64.25 L34.85 64.8 34.85 64.75 41.75 67.4 46.9 67.15 Q50.45 66.15 53.45 64.2 L55.9 62.5 Q57.15 61.35 57.6 60.5 L58.55 58.25 53.85 58.65 49.55 58.65 49.0 58.75 48.9 58.75 51.15 60.9 Q51.15 61.1 50.75 61.15 L47.95 58.75 41.75 58.75 Q40.2 58.55 39.85 57.65 L39.8 57.3 39.2 58.2 41.7 61.05 46.1 66.65 46.0 66.85 Q42.95 64.8 39.95 61.25 L38.15 59.0 37.15 59.25 Q35.25 59.25 34.2 58.0 L33.5 56.65 Q33.5 55.15 35.25 55.15 35.85 55.15 36.05 55.55 L37.05 56.2 Q38.25 55.3 38.7 53.8 L38.25 53.25 38.2 52.5 Q38.2 51.75 38.7 50.4 L39.5 47.75 Q39.85 46.05 40.4 45.6 L40.65 45.1 41.25 42.85 42.9 45.1 43.0 46.9 Q43.0 48.5 42.5 49.85 L42.5 56.0 45.3 56.0 45.1 55.65 45.95 56.0 48.9 56.0 52.0 55.9 56.6 55.6 57.35 55.25 Q59.05 54.5 59.35 53.5 57.1 52.3 56.65 47.9 56.4 45.75 56.6 43.65 56.6 40.75 57.75 42.05 L58.15 42.6 58.5 42.4 58.15 41.3 57.35 41.45 57.35 41.35 Q57.35 40.8 51.8 40.75 L50.85 40.85 50.4 40.95 51.55 42.2 51.75 42.2 Q54.65 42.2 55.25 45.0 L55.25 48.45 55.25 51.15 Q54.9 53.25 53.25 53.25 L51.55 53.0 50.35 52.75 49.6 52.5 48.85 52.25 48.0 52.9 Q47.4 53.5 46.85 53.5 45.1 53.5 44.5 51.25 44.2 50.1 44.25 48.8 44.25 44.35 44.7 43.15 45.95 39.55 50.4 44.0 L50.7 42.8 50.7 42.75 Q48.0 40.4 45.15 36.0 45.3 35.75 45.6 35.75 L49.35 39.8 49.9 39.6 49.5 39.5 Q52.1 37.2 54.85 36.9 L56.45 36.95 Q51.8 33.75 49.85 29.75 51.15 30.35 53.2 32.7 L56.65 36.7 56.55 37.0 56.7 37.0 58.55 37.05 59.25 37.4 Q58.05 33.3 55.75 27.5 L55.85 27.55 M36.35 56.6 L36.4 56.6 36.35 56.45 36.35 56.6" fill="#b6dddf" fill-rule="evenodd" stroke="none"/>
      <path d="M47.8 41.95 L48.6 41.95 48.6 53.1 47.8 53.1 47.7 53.5 47.7 55.65 47.8 55.95 50.25 55.95 50.5 55.95 52.05 55.95 52.2 55.6 52.2 53.4 52.15 53.2 52.05 53.1 51.4 53.1 51.4 41.95 52.05 41.95 52.2 41.6 52.2 39.4 52.15 39.2 52.05 39.1 47.8 39.1 47.7 39.5 47.7 41.65 47.8 41.95 M42.1 41.95 L42.8 41.95 42.8 53.1 42.1 53.1 Q41.95 53.1 41.95 53.5 L41.95 55.65 Q41.95 55.95 42.1 55.95 L44.45 55.95 44.7 55.95 46.35 55.95 46.45 55.6 46.45 53.4 46.35 53.2 46.35 53.1 45.65 53.1 45.65 41.95 46.35 41.95 46.45 41.6 46.45 39.4 46.35 39.2 46.35 39.1 42.1 39.1 Q41.95 39.1 41.95 39.5 L41.95 41.65 Q41.95 41.95 42.1 41.95 M30.35 39.5 Q30.35 39.0 30.5 38.75 L30.55 38.6 30.55 38.55 Q30.9 37.9 31.6 38.0 L31.65 38.0 35.65 38.0 36.3 38.05 36.75 38.0 40.65 38.0 40.8 38.0 41.6 38.1 42.1 38.0 42.15 38.0 46.15 38.0 46.55 38.0 47.0 37.95 47.3 38.1 47.8 38.0 47.85 38.0 51.9 38.0 Q52.35 37.85 52.7 38.2 L52.7 38.1 52.9 38.1 53.0 38.1 53.5 38.0 53.55 38.0 57.6 38.0 Q58.15 37.8 58.55 38.4 59.0 38.65 59.0 39.4 L59.0 41.6 59.0 41.75 58.7 42.6 58.2 43.0 58.2 52.05 58.55 52.4 Q59.0 52.65 59.0 53.4 L59.0 55.6 59.0 55.7 58.7 56.55 Q58.25 57.2 57.55 57.05 L56.15 57.05 55.9 57.05 53.55 57.05 53.5 57.05 52.8 56.8 52.7 56.9 51.9 57.05 50.5 57.05 50.25 57.05 47.85 57.05 47.8 57.05 47.1 56.8 47.0 56.9 46.1 57.05 44.7 57.05 44.45 57.05 42.15 57.05 42.1 57.05 Q41.55 57.05 41.2 56.65 L41.15 56.6 Q40.85 56.3 40.85 55.75 L40.85 53.5 Q40.85 53.0 41.0 52.75 L41.0 52.6 Q41.3 52.1 41.7 52.05 L41.7 43.0 41.5 42.95 41.0 43.0 40.8 43.0 40.65 43.85 40.05 47.7 38.85 55.6 38.5 56.6 38.35 56.7 Q38.0 57.05 37.45 57.0 L35.0 57.0 Q33.7 57.05 33.45 55.7 L32.4 47.6 31.75 43.0 31.6 43.0 Q31.05 43.05 30.7 42.65 L30.65 42.6 Q30.35 42.3 30.35 41.75 L30.35 39.5 M46.75 43.0 L46.75 52.05 47.0 52.2 47.05 52.25 Q47.2 52.1 47.5 52.05 L47.5 43.0 47.2 42.95 47.0 43.0 46.75 43.0 M53.5 41.95 L54.25 41.95 54.25 53.1 53.5 53.1 Q53.35 53.1 53.35 53.5 L53.35 55.65 Q53.35 55.95 53.5 55.95 L55.9 55.95 56.15 55.95 57.7 55.95 57.9 55.6 57.9 53.4 57.8 53.2 57.7 53.1 57.1 53.1 57.1 41.95 57.7 41.95 57.9 41.6 57.9 39.4 57.8 39.2 57.7 39.1 53.5 39.1 Q53.35 39.1 53.35 39.5 L53.35 41.65 Q53.35 41.95 53.5 41.95 M38.95 47.65 L39.8 41.9 40.65 41.9 41.0 41.9 41.15 41.6 41.15 39.4 41.05 39.15 41.0 39.1 40.65 39.1 36.75 39.1 Q36.6 39.1 36.6 39.5 L36.6 41.6 Q36.6 41.9 36.75 41.9 L37.0 41.9 37.0 42.15 36.5 45.7 36.4 46.1 36.2 45.75 35.7 42.15 35.7 41.9 35.85 41.9 35.95 41.6 35.95 39.4 35.9 39.15 35.85 39.1 31.6 39.1 Q31.45 39.1 31.45 39.5 L31.45 41.6 Q31.45 41.9 31.6 41.9 L32.8 41.9 33.5 47.45 34.55 55.5 Q34.6 55.9 35.0 55.9 L37.45 55.9 37.75 55.5 38.95 47.65 M52.5 43.0 L52.5 52.05 52.75 52.2 53.15 52.05 53.15 43.0 52.9 42.95 52.7 43.0 52.7 42.95 52.5 43.0" fill="#4e1826" fill-rule="evenodd" stroke="none"/>
      <path d="M42.1 41.95 Q41.95 41.95 41.95 41.65 L41.95 39.5 Q41.95 39.1 42.1 39.1 L46.35 39.1 46.35 39.2 46.45 39.4 46.45 41.6 46.35 41.95 45.65 41.95 45.65 53.1 46.35 53.1 46.35 53.2 46.45 53.4 46.45 55.6 46.35 55.95 44.7 55.95 44.45 55.95 42.1 55.95 Q41.95 55.95 41.95 55.65 L41.95 53.5 Q41.95 53.1 42.1 53.1 L42.8 53.1 42.8 41.95 42.1 41.95 M47.8 41.95 L47.7 41.65 47.7 39.5 47.8 39.1 52.05 39.1 52.15 39.2 52.2 39.4 52.2 41.6 52.05 41.95 51.4 41.95 51.4 53.1 52.05 53.1 52.15 53.2 52.2 53.4 52.2 55.6 52.05 55.95 50.5 55.95 50.25 55.95 47.8 55.95 47.7 55.65 47.7 53.5 47.8 53.1 48.6 53.1 48.6 41.95 47.8 41.95 M38.95 47.65 L37.75 55.5 37.45 55.9 35.0 55.9 Q34.6 55.9 34.55 55.5 L33.5 47.45 32.8 41.9 31.6 41.9 Q31.45 41.9 31.45 41.6 L31.45 39.5 Q31.45 39.1 31.6 39.1 L35.85 39.1 35.9 39.15 35.95 39.4 35.95 41.6 35.85 41.9 35.7 41.9 35.7 42.15 36.2 45.75 36.4 46.1 36.5 45.7 37.0 42.15 37.0 41.9 36.75 41.9 Q36.6 41.9 36.6 41.6 L36.6 39.5 Q36.6 39.1 36.75 39.1 L40.65 39.1 41.0 39.1 41.05 39.15 41.15 39.4 41.15 41.6 41.0 41.9 40.65 41.9 39.8 41.9 38.95 47.65 M53.5 41.95 Q53.35 41.95 53.35 41.65 L53.35 39.5 Q53.35 39.1 53.5 39.1 L57.7 39.1 57.8 39.2 57.9 39.4 57.9 41.6 57.7 41.95 57.1 41.95 57.1 53.1 57.7 53.1 57.8 53.2 57.9 53.4 57.9 55.6 57.7 55.95 56.15 55.95 55.9 55.95 53.5 55.95 Q53.35 55.95 53.35 55.65 L53.35 53.5 Q53.35 53.1 53.5 53.1 L54.25 53.1 54.25 41.95 53.5 41.95" fill="#fecb0e" fill-rule="evenodd" stroke="none"/>
      <path d="M48.5 39.85 L51.55 39.85 51.55 41.2 51.45 41.2 Q51.15 41.2 50.95 41.45 L50.75 41.95 50.75 53.1 50.95 53.6 Q51.15 53.8 51.45 53.8 L51.55 53.8 51.55 55.2 50.55 55.2 50.25 55.2 48.5 55.2 48.5 53.8 48.6 53.8 49.15 53.6 49.4 53.1 49.4 41.95 49.15 41.45 Q48.9 41.2 48.6 41.2 L48.5 41.2 48.5 39.85" fill="url(#gradient2)" fill-rule="evenodd" stroke="none"/>
      <path d="M42.7 39.85 L45.75 39.85 45.75 41.2 45.65 41.2 Q45.35 41.2 45.15 41.45 L44.95 41.95 44.95 53.1 45.15 53.6 Q45.35 53.8 45.65 53.8 L45.75 53.8 45.75 55.2 44.7 55.2 44.45 55.2 42.7 55.2 42.7 53.8 42.8 53.8 43.35 53.6 43.55 53.1 43.55 41.95 43.35 41.45 Q43.1 41.2 42.8 41.2 L42.7 41.2 42.7 39.85 M37.7 42.15 L37.7 41.7 37.45 41.3 37.35 41.25 37.35 39.8 40.4 39.8 40.4 41.2 39.8 41.2 Q39.55 41.2 39.3 41.35 L39.1 41.8 38.2 47.5 37.05 55.15 35.3 55.15 34.25 47.4 33.5 41.8 33.25 41.35 32.8 41.2 32.2 41.2 32.2 39.8 35.25 39.8 35.25 41.35 35.2 41.4 35.0 41.9 35.0 42.15 35.0 42.2 Q35.2 44.4 35.5 45.8 35.6 47.1 36.4 46.85 37.1 47.1 37.25 45.75 L37.25 45.85 37.7 42.25 37.7 42.15" fill="url(#gradient3)" fill-rule="evenodd" stroke="none"/>
      <path d="M54.1 39.85 L57.15 39.85 57.15 41.2 57.05 41.2 Q56.75 41.2 56.55 41.45 L56.3 41.95 56.3 53.1 56.55 53.6 Q56.75 53.8 57.05 53.8 L57.15 53.8 57.15 55.2 56.15 55.2 55.85 55.2 54.1 55.2 54.1 53.8 54.2 53.8 54.75 53.6 54.95 53.1 54.95 41.95 54.75 41.45 54.2 41.2 54.1 41.2 54.1 39.85" fill="url(#gradient4)" fill-rule="evenodd" stroke="none"/>
    </g>
    <linearGradient gradientTransform="matrix(0.0012, 0.0262, -0.0286, 0.0013, 45.0, 46.0)" gradientUnits="userSpaceOnUse" id="gradient0" spreadMethod="pad" x1="-819.2" x2="819.2">
      <stop offset="0.0" stop-color="#ff807a"/>
      <stop offset="0.48627450980392156" stop-color="#c9463a"/>
      <stop offset="1.0" stop-color="#990033"/>
    </linearGradient>
    <linearGradient gradientTransform="matrix(0.0, 0.0386, -0.0415, 0.0, 45.05, 46.6)" gradientUnits="userSpaceOnUse" id="gradient1" spreadMethod="pad" x1="-819.2" x2="819.2">
      <stop offset="0.0" stop-color="#ffffff" stop-opacity="0.2"/>
      <stop offset="1.0" stop-color="#000000" stop-opacity="0.6"/>
    </linearGradient>
    <linearGradient gradientTransform="matrix(0.0, 0.0094, -0.005, 0.0, 42.15, 48.15)" gradientUnits="userSpaceOnUse" id="gradient2" spreadMethod="pad" x1="-819.2" x2="819.2">
      <stop offset="0.0" stop-color="#ffffff" stop-opacity="0.2"/>
      <stop offset="1.0" stop-color="#000000" stop-opacity="0.6"/>
    </linearGradient>
    <linearGradient gradientTransform="matrix(0.0, 0.0094, -0.005, 0.0, 36.3, 48.15)" gradientUnits="userSpaceOnUse" id="gradient3" spreadMethod="pad" x1="-819.2" x2="819.2">
      <stop offset="0.0" stop-color="#ffffff" stop-opacity="0.2"/>
      <stop offset="1.0" stop-color="#000000" stop-opacity="0.6"/>
    </linearGradient>
    <linearGradient gradientTransform="matrix(0.0, 0.0094, -0.005, 0.0, 47.75, 48.15)" gradientUnits="userSpaceOnUse" id="gradient4" spreadMethod="pad" x1="-819.2" x2="819.2">
      <stop offset="0.0" stop-color="#ffffff" stop-opacity="0.2"/>
      <stop offset="1.0" stop-color="#000000" stop-opacity="0.6"/>
    </linearGradient>
  </defs>
</svg>
