<?xml version="1.0" encoding="UTF-8" standalone="no"?>
<svg xmlns:ffdec="https://www.free-decompiler.com/flash" xmlns:xlink="http://www.w3.org/1999/xlink" ffdec:objectType="frame" height="30.0px" width="30.0px" xmlns="http://www.w3.org/2000/svg">
  <g transform="matrix(1.0, 0.0, 0.0, 1.0, 0.0, 0.0)">
    <use ffdec:characterId="162" height="90.0" transform="matrix(0.3333, 0.0, 0.0, 0.3333, 0.0, 0.0)" width="90.0" xlink:href="#sprite0"/>
  </g>
  <defs>
    <g id="sprite0" transform="matrix(1.0, 0.0, 0.0, 1.0, 0.0, 0.0)">
      <use ffdec:characterId="140" height="90.0" transform="matrix(1.0, 0.0, 0.0, 1.0, 0.0, 0.0)" width="90.0" xlink:href="#sprite1"/>
      <use ffdec:characterId="161" height="79.5" transform="matrix(1.0, 0.0, 0.0, 1.0, 3.9, 6.25)" width="82.2" xlink:href="#shape1"/>
    </g>
    <g id="sprite1" transform="matrix(1.0, 0.0, 0.0, 1.0, 0.0, 0.0)">
      <use ffdec:characterId="139" height="23.0" transform="matrix(0.8435, 0.0, 0.0, 3.913, 0.0056, 0.0127)" width="106.7" xlink:href="#shape0"/>
    </g>
    <g id="shape0" transform="matrix(1.0, 0.0, 0.0, 1.0, -32.55, -101.05)">
      <path d="M32.55 101.05 L139.25 101.05 139.25 124.05 32.55 124.05 32.55 101.05" fill="#000000" fill-opacity="0.003921569" fill-rule="evenodd" stroke="none"/>
    </g>
    <g id="shape1" transform="matrix(1.0, 0.0, 0.0, 1.0, -3.9, -6.25)">
      <path d="M51.35 37.5 L50.0 37.45 49.5 37.2 49.3 36.65 49.55 36.15 50.1 35.95 51.7 36.0 Q58.6 35.9 61.9 31.55 62.65 29.9 62.45 29.15 62.15 28.65 61.2 28.65 57.5 28.7 56.2 26.45 54.65 24.1 56.9 21.6 L57.0 21.5 Q66.9 14.25 68.45 6.85 L68.75 6.4 Q68.95 6.2 69.25 6.25 L69.75 6.55 70.55 7.8 Q71.75 10.3 70.55 13.75 69.55 16.55 67.0 20.0 L68.9 18.65 70.4 17.15 71.25 16.0 72.55 13.65 73.0 12.55 73.05 12.3 73.15 12.05 73.7 10.2 Q73.7 10.05 73.8 10.15 L73.85 10.25 73.85 10.4 73.45 12.4 73.35 12.65 73.3 12.95 72.2 15.75 71.05 17.65 70.55 18.3 70.1 18.85 69.85 19.15 69.05 19.95 70.55 19.3 73.05 17.85 Q75.4 16.0 75.65 13.55 L75.85 13.1 76.25 12.9 76.75 12.95 77.1 13.25 Q79.9 18.4 73.05 24.0 L72.0 24.85 75.05 23.7 77.6 22.35 79.15 21.2 80.55 19.75 81.15 18.9 81.25 18.9 Q81.45 18.9 81.3 19.05 L81.25 19.2 81.1 19.35 80.95 19.65 79.45 21.55 76.75 23.7 72.75 25.75 72.0 26.05 73.05 26.05 Q80.2 25.65 82.0 22.6 L82.35 22.3 82.8 22.2 Q83.0 22.25 83.2 22.45 L83.4 22.85 Q84.1 26.8 80.2 29.1 77.7 30.55 73.05 31.3 L72.55 31.35 72.6 31.35 76.55 31.75 76.95 31.75 77.3 31.8 81.95 31.85 82.3 31.8 84.05 31.7 84.5 31.6 85.95 31.4 86.05 31.45 86.0 31.55 81.0 32.5 79.15 32.6 78.8 32.65 73.15 32.65 Q79.45 35.9 84.4 34.15 L84.9 34.15 85.3 34.5 85.4 35.0 Q84.8 38.35 80.05 39.05 77.3 39.45 73.05 38.95 L70.9 38.65 71.75 39.2 71.9 39.25 72.5 39.65 76.4 41.4 78.45 42.0 78.55 42.05 78.6 42.05 81.6 42.65 81.75 42.65 81.9 42.7 82.85 42.8 83.25 42.8 84.0 42.9 84.05 43.0 83.95 43.05 81.7 43.05 81.55 43.0 81.25 43.0 78.5 42.65 78.3 42.65 77.75 42.5 77.35 42.45 76.15 42.15 72.35 40.8 72.0 40.6 71.4 40.35 73.05 42.05 Q77.9 46.65 82.95 47.25 L83.45 47.5 83.6 48.05 83.4 48.55 Q80.35 51.9 73.05 48.25 L70.55 46.85 68.25 45.4 70.55 47.8 70.65 47.85 71.4 48.5 72.1 49.15 74.4 51.0 74.55 51.15 75.7 52.0 75.85 52.15 80.7 55.35 80.7 55.45 80.55 55.5 75.55 52.6 75.35 52.45 75.15 52.35 74.0 51.55 73.2 51.0 70.0 48.55 69.85 48.4 69.05 47.8 70.55 49.95 73.05 53.1 Q76.15 56.6 78.7 57.25 L79.05 57.45 79.25 57.85 79.15 58.3 78.85 58.65 73.05 58.5 Q71.85 58.0 70.55 57.15 67.0 54.9 62.6 50.15 L62.65 50.3 62.75 50.45 64.4 53.45 64.9 54.2 65.0 54.3 65.05 54.4 65.2 54.55 69.3 59.6 72.05 62.25 72.05 62.4 71.9 62.4 68.7 59.65 68.45 59.35 66.9 57.9 66.75 57.7 64.45 55.1 64.35 54.9 64.2 54.75 63.6 54.0 63.5 53.8 62.8 52.75 Q65.4 61.7 68.45 63.2 L68.8 63.5 68.9 64.0 68.65 64.4 68.25 64.6 Q61.55 65.4 56.3 53.15 L56.95 56.8 58.25 60.3 59.0 61.7 59.0 61.85 58.85 61.85 57.45 59.65 57.25 59.2 57.1 58.95 56.25 57.05 55.2 53.45 55.15 52.95 Q54.7 56.0 55.95 60.15 L55.9 60.6 55.65 61.0 55.2 61.1 Q51.6 61.2 49.55 54.0 L48.55 49.6 48.7 49.05 Q48.85 48.75 49.2 48.7 49.45 48.65 49.75 48.85 L49.95 49.1 50.05 49.35 Q51.55 57.7 54.15 59.25 52.6 52.9 54.8 49.0 54.85 48.3 55.6 48.4 56.25 48.4 56.3 49.1 60.55 60.9 65.7 62.8 62.45 58.8 59.85 47.1 L59.7 46.8 59.7 46.75 Q59.45 46.1 60.2 45.8 60.8 45.65 61.1 46.15 66.5 52.5 70.55 55.4 71.85 56.3 73.05 56.85 74.65 57.6 76.0 57.7 74.6 56.8 73.05 55.3 L70.55 52.45 Q67.55 48.6 64.1 42.5 L63.95 42.3 63.95 42.25 Q63.5 41.65 64.15 41.2 L65.05 41.25 Q68.05 43.55 70.55 45.15 L73.05 46.6 Q78.05 49.2 80.8 48.4 76.85 47.4 73.05 44.1 L70.55 41.65 67.55 38.0 67.5 37.95 67.45 37.95 Q66.95 37.45 67.35 36.85 67.85 36.35 68.3 36.65 L70.55 37.1 73.05 37.45 Q77.15 37.95 79.8 37.55 82.2 37.2 83.25 36.05 78.6 37.0 73.05 34.25 L70.55 32.85 69.9 32.45 Q69.5 32.35 69.4 32.1 L68.55 31.55 68.3 31.2 68.3 30.75 68.55 30.4 68.95 30.2 70.55 30.1 73.05 29.75 Q77.15 29.1 79.45 27.8 81.25 26.7 81.8 25.15 79.1 27.25 73.05 27.5 L70.55 27.55 67.9 27.45 67.85 27.45 Q67.15 27.65 66.95 26.9 L67.05 26.35 67.15 26.25 67.4 26.05 70.55 24.0 73.05 22.0 Q76.05 19.2 76.25 16.6 75.25 18.35 73.05 19.7 L70.55 20.95 Q68.1 21.95 64.7 22.65 L64.65 22.7 64.05 22.7 63.7 22.25 63.7 21.65 63.95 21.4 Q70.55 13.6 69.35 9.15 67.05 16.0 57.95 22.7 L57.9 22.7 Q56.6 24.25 57.45 25.65 58.5 27.2 61.2 27.15 63.45 27.15 63.85 28.65 64.3 29.85 63.25 32.2 L63.15 32.3 Q59.45 37.5 51.35 37.5 M39.15 37.5 L39.05 37.5 Q30.6 37.6 26.85 32.3 L26.8 32.2 Q25.7 29.85 26.15 28.65 26.55 27.15 28.8 27.15 31.5 27.2 32.6 25.65 33.4 24.25 32.1 22.7 28.2 19.85 25.55 17.0 21.95 13.1 20.65 9.15 19.45 13.4 25.55 20.8 L26.05 21.35 Q26.55 21.6 26.3 22.3 26.1 22.9 25.55 22.75 L25.3 22.65 Q16.2 20.75 13.75 16.6 14.1 21.0 22.55 26.0 23.2 26.3 23.05 26.95 22.8 27.65 22.15 27.45 L22.1 27.45 Q14.85 27.85 10.9 26.5 9.3 25.95 8.25 25.15 8.75 26.7 10.6 27.8 13.9 29.7 21.05 30.2 L21.5 30.4 21.75 30.75 21.7 31.2 21.45 31.55 20.5 32.2 20.15 32.45 Q14.65 36.0 10.05 36.3 L10.0 36.3 6.8 36.05 Q7.8 37.2 10.2 37.55 14.25 38.15 21.85 36.65 L22.2 36.6 22.65 36.9 Q23.1 37.55 22.5 37.95 L22.5 38.0 Q16.05 46.65 9.25 48.4 13.8 49.8 24.95 41.25 L25.35 41.1 25.55 41.1 Q25.75 41.1 25.9 41.25 L26.2 41.75 26.05 42.3 25.9 42.5 25.55 43.1 Q19.0 54.6 14.05 57.7 18.4 57.45 25.55 49.9 L29.0 46.1 29.1 46.0 Q29.35 45.65 29.85 45.85 30.55 46.1 30.3 46.8 L30.2 47.15 Q28.05 56.55 25.55 60.95 L24.35 62.8 25.55 62.2 Q29.95 59.45 33.7 49.1 33.8 48.3 34.5 48.4 34.8 48.4 35.0 48.65 L35.2 49.0 Q37.4 52.9 35.9 59.25 37.75 58.15 39.05 53.4 L39.95 49.35 40.3 48.85 Q40.55 48.65 40.85 48.7 L41.35 49.05 41.4 49.2 41.45 49.3 41.45 49.6 41.45 49.65 Q40.5 54.85 39.05 57.7 37.3 61.15 34.8 61.1 L34.4 61.0 34.1 60.6 34.1 60.15 Q35.3 56.0 34.9 52.95 L34.8 53.45 33.75 57.05 32.9 58.95 32.75 59.2 32.55 59.65 31.15 61.85 31.05 61.85 Q30.85 61.85 31.0 61.7 L31.75 60.3 32.7 57.95 33.55 54.45 33.75 53.15 Q30.0 61.8 25.55 63.95 23.7 64.85 21.8 64.6 L21.35 64.4 21.1 64.0 21.2 63.5 21.55 63.2 Q23.65 62.15 25.55 57.6 L27.25 52.75 26.5 53.8 26.4 54.0 25.8 54.75 25.65 54.9 25.55 55.1 23.25 57.7 23.1 57.9 21.55 59.35 21.3 59.65 18.1 62.4 17.95 62.4 17.95 62.25 22.75 57.3 24.55 54.95 24.8 54.55 24.95 54.4 25.0 54.3 25.1 54.2 25.6 53.45 27.25 50.45 27.35 50.3 27.4 50.15 25.55 52.05 Q16.25 61.4 11.15 58.65 L10.85 58.3 10.75 57.85 10.95 57.45 11.35 57.25 Q15.35 56.2 20.95 47.8 L20.15 48.4 20.0 48.55 16.8 51.0 16.0 51.55 14.85 52.35 14.65 52.45 14.45 52.6 9.45 55.5 9.3 55.5 9.3 55.35 14.15 52.15 14.3 52.0 15.45 51.15 15.6 51.0 17.9 49.15 18.6 48.5 19.35 47.85 19.5 47.75 21.8 45.4 Q10.55 52.9 6.6 48.55 L6.4 48.05 6.6 47.5 Q6.8 47.3 7.1 47.25 12.95 46.55 18.65 40.35 L18.0 40.6 17.65 40.8 15.8 41.55 15.4 41.65 15.05 41.8 11.7 42.65 11.5 42.65 8.45 43.0 8.3 43.05 6.05 43.05 5.95 43.0 Q5.85 42.9 6.0 42.9 L8.1 42.7 8.25 42.65 8.4 42.65 11.4 42.05 11.45 42.05 11.55 42.0 16.15 40.35 17.5 39.65 18.1 39.25 18.25 39.2 19.15 38.65 10.0 39.05 Q5.2 38.35 4.65 35.0 4.55 34.7 4.7 34.5 L5.1 34.15 5.6 34.15 Q10.55 35.9 16.85 32.65 L11.2 32.65 10.85 32.6 10.45 32.6 8.3 32.4 4.0 31.55 3.95 31.45 Q3.95 31.3 4.05 31.4 L5.5 31.6 5.95 31.7 7.7 31.8 8.05 31.85 12.7 31.8 13.05 31.75 13.45 31.75 17.4 31.35 17.5 31.35 Q12.45 30.65 9.8 29.1 5.9 26.8 6.6 22.85 L6.85 22.45 Q7.0 22.25 7.25 22.2 L7.7 22.3 8.0 22.6 Q9.9 25.9 18.05 26.05 L17.25 25.75 13.25 23.7 11.5 22.4 10.15 21.1 9.05 19.65 8.9 19.35 8.75 19.2 8.7 19.05 8.7 18.9 8.85 18.9 9.25 19.5 10.85 21.2 12.4 22.35 16.3 24.25 18.05 24.85 Q9.9 18.75 12.95 13.25 L13.3 12.95 13.75 12.9 14.15 13.1 14.35 13.55 Q14.8 17.65 21.0 19.95 L20.15 19.15 19.9 18.85 18.95 17.65 17.8 15.75 16.7 12.95 16.65 12.65 16.55 12.4 16.15 10.4 16.15 10.25 Q16.05 10.15 16.2 10.15 16.3 10.05 16.3 10.2 L16.95 12.3 17.0 12.55 17.45 13.65 18.75 16.0 19.6 17.15 21.1 18.65 23.0 20.0 Q16.45 11.25 20.25 6.55 L20.75 6.25 21.3 6.4 21.6 6.85 Q22.4 10.8 25.55 14.7 28.35 18.1 33.0 21.5 L33.1 21.6 Q35.35 24.1 33.85 26.45 32.5 28.7 28.8 28.65 27.85 28.65 27.6 29.15 27.35 29.9 28.15 31.55 31.55 36.1 39.05 36.0 L39.2 36.0 39.9 35.95 40.45 36.15 40.7 36.65 40.5 37.2 40.0 37.45 39.15 37.5" fill="#4e1826" fill-rule="evenodd" stroke="none"/>
      <path d="M51.35 37.5 Q59.45 37.5 63.15 32.3 L63.25 32.2 Q64.3 29.85 63.85 28.65 63.45 27.15 61.2 27.15 58.5 27.2 57.45 25.65 56.6 24.25 57.9 22.7 L57.95 22.7 Q67.05 16.0 69.35 9.15 70.55 13.6 63.95 21.4 L63.7 21.65 63.7 22.25 64.05 22.7 64.65 22.7 64.7 22.65 Q68.1 21.95 70.55 20.95 L73.05 19.7 Q75.25 18.35 76.25 16.6 76.05 19.2 73.05 22.0 L70.55 24.0 67.4 26.05 67.15 26.25 67.05 26.35 66.95 26.9 Q67.15 27.65 67.85 27.45 L67.9 27.45 70.55 27.55 73.05 27.5 Q79.1 27.25 81.8 25.15 81.25 26.7 79.45 27.8 77.15 29.1 73.05 29.75 L70.55 30.1 68.95 30.2 68.55 30.4 68.3 30.75 68.3 31.2 68.55 31.55 69.4 32.1 Q69.5 32.35 69.9 32.45 L70.55 32.85 73.05 34.25 Q78.6 37.0 83.25 36.05 82.2 37.2 79.8 37.55 77.15 37.95 73.05 37.45 L70.55 37.1 68.3 36.65 Q67.85 36.35 67.35 36.85 66.95 37.45 67.45 37.95 L67.5 37.95 67.55 38.0 70.55 41.65 73.05 44.1 Q76.85 47.4 80.8 48.4 78.05 49.2 73.05 46.6 L70.55 45.15 Q68.05 43.55 65.05 41.25 L64.15 41.2 Q63.5 41.65 63.95 42.25 L63.95 42.3 64.1 42.5 Q67.55 48.6 70.55 52.45 L73.05 55.3 Q74.6 56.8 76.0 57.7 74.65 57.6 73.05 56.85 71.85 56.3 70.55 55.4 66.5 52.5 61.1 46.15 60.8 45.65 60.2 45.8 59.45 46.1 59.7 46.75 L59.7 46.8 59.85 47.1 Q62.45 58.8 65.7 62.8 60.55 60.9 56.3 49.1 56.25 48.4 55.6 48.4 54.85 48.3 54.8 49.0 52.6 52.9 54.15 59.25 51.55 57.7 50.05 49.35 L49.95 49.1 49.95 49.05 50.15 45.55 50.2 43.95 50.35 42.2 Q50.6 40.35 51.0 38.55 L51.35 37.5 M41.35 49.05 L40.85 48.7 Q40.55 48.65 40.3 48.85 L39.95 49.35 39.05 53.4 Q37.75 58.15 35.9 59.25 37.4 52.9 35.2 49.0 L35.0 48.65 Q34.8 48.4 34.5 48.4 33.8 48.3 33.7 49.1 29.95 59.45 25.55 62.2 L24.35 62.8 25.55 60.95 Q28.05 56.55 30.2 47.15 L30.3 46.8 Q30.55 46.1 29.85 45.85 29.35 45.65 29.1 46.0 L29.0 46.1 25.55 49.9 Q18.4 57.45 14.05 57.7 19.0 54.6 25.55 43.1 L25.9 42.5 26.05 42.3 26.2 41.75 25.9 41.25 Q25.75 41.1 25.55 41.1 L25.35 41.1 24.95 41.25 Q13.8 49.8 9.25 48.4 16.05 46.65 22.5 38.0 L22.5 37.95 Q23.1 37.55 22.65 36.9 L22.2 36.6 21.85 36.65 Q14.25 38.15 10.2 37.55 7.8 37.2 6.8 36.05 L10.0 36.3 10.05 36.3 Q14.65 36.0 20.15 32.45 L20.5 32.2 21.45 31.55 21.7 31.2 21.75 30.75 21.5 30.4 21.05 30.2 Q13.9 29.7 10.6 27.8 8.75 26.7 8.25 25.15 9.3 25.95 10.9 26.5 14.85 27.85 22.1 27.45 L22.15 27.45 Q22.8 27.65 23.05 26.95 23.2 26.3 22.55 26.0 14.1 21.0 13.75 16.6 16.2 20.75 25.3 22.65 L25.55 22.75 Q26.1 22.9 26.3 22.3 26.55 21.6 26.05 21.35 L25.55 20.8 Q19.45 13.4 20.65 9.15 21.95 13.1 25.55 17.0 28.2 19.85 32.1 22.7 33.4 24.25 32.6 25.65 31.5 27.2 28.8 27.15 26.55 27.15 26.15 28.65 25.7 29.85 26.8 32.2 L26.85 32.3 Q30.6 37.6 39.05 37.5 L39.15 37.5 39.25 40.2 39.4 41.95 40.05 45.45 Q40.45 47.3 41.35 49.05" fill="#4f79d2" fill-rule="evenodd" stroke="none"/>
      <path d="M70.95 21.85 L72.5 21.15 72.4 21.25 70.0 23.2 66.9 25.2 Q66.55 25.35 66.35 25.65 L66.3 25.75 66.2 25.85 Q65.85 26.4 66.0 27.1 L66.0 27.15 Q66.2 27.95 66.75 28.25 L67.95 28.45 68.0 28.45 70.55 28.55 73.1 28.5 75.0 28.4 72.9 28.8 72.9 28.75 70.5 29.1 68.9 29.2 68.85 29.2 Q68.3 29.25 67.9 29.6 67.5 29.95 67.35 30.5 L67.3 30.5 67.35 31.5 Q67.5 32.0 67.95 32.35 L68.0 32.35 68.65 32.8 69.45 33.35 70.05 33.7 Q71.35 34.5 72.6 35.15 74.65 36.15 76.6 36.7 L73.2 36.45 70.75 36.1 68.7 35.75 Q67.7 35.1 66.65 36.15 L66.55 36.3 Q65.65 37.6 66.75 38.65 L66.85 38.75 69.85 42.35 72.4 44.85 73.25 45.55 71.1 44.3 65.65 40.45 63.65 40.35 63.6 40.4 Q62.85 40.9 62.8 41.5 62.65 42.05 63.05 42.65 L63.2 42.95 63.25 43.0 Q66.7 49.15 69.8 53.05 L70.85 54.35 Q66.95 51.5 61.85 45.5 61.25 44.55 60.0 44.85 L59.85 44.9 Q58.2 45.5 58.7 46.95 L58.8 47.2 58.9 47.4 Q60.45 54.4 62.25 58.7 59.65 55.35 57.3 48.8 57.05 47.45 55.75 47.4 54.85 47.3 54.45 47.7 53.95 48.0 53.85 48.7 52.35 51.3 52.5 55.0 51.65 52.75 51.05 49.15 L51.0 48.95 51.15 45.55 51.2 44.1 51.35 42.35 Q51.6 40.55 52.0 38.8 L52.1 38.5 Q60.15 38.25 63.9 32.95 L64.0 32.85 64.1 32.7 64.15 32.6 Q65.4 29.85 64.85 28.4 64.35 26.15 61.2 26.15 59.1 26.2 58.25 25.1 L58.3 25.15 Q57.85 24.35 58.6 23.45 63.7 19.65 66.75 15.85 65.45 18.05 63.25 20.65 L62.85 21.15 62.75 21.35 Q62.55 21.95 62.75 22.6 62.95 23.25 63.55 23.55 L63.75 23.65 Q64.35 23.85 65.0 23.65 L65.15 23.6 Q68.45 22.85 70.95 21.85 M24.85 17.65 Q27.5 20.55 31.45 23.45 32.15 24.35 31.75 25.15 L31.75 25.1 Q30.9 26.2 28.85 26.15 L28.8 26.15 Q25.65 26.15 25.2 28.4 24.6 29.85 25.9 32.6 L25.95 32.7 26.05 32.85 26.1 32.95 Q29.9 38.35 38.2 38.5 L38.25 40.25 38.4 42.1 38.45 42.15 Q38.7 43.9 39.1 45.65 L39.75 48.0 39.7 48.0 Q39.1 48.4 39.0 49.15 L38.1 53.15 37.5 54.95 Q37.65 51.3 36.15 48.65 L35.8 48.05 35.7 47.95 35.65 47.9 Q35.2 47.45 34.65 47.4 33.8 47.3 33.3 47.75 32.85 48.05 32.75 48.8 L32.75 48.85 Q30.35 55.35 27.75 58.7 29.55 54.4 31.15 47.35 L31.25 47.15 Q31.85 45.5 30.2 44.9 L30.2 44.95 Q29.05 44.5 28.4 45.25 L28.25 45.45 28.2 45.45 24.85 49.2 Q21.75 52.45 19.25 54.3 22.55 50.4 26.45 43.6 L26.8 43.0 26.85 42.95 Q27.3 42.3 27.2 41.6 27.1 40.9 26.55 40.5 26.1 40.15 25.65 40.1 L25.75 40.15 25.2 40.15 25.3 40.1 24.35 40.45 Q20.1 43.7 16.85 45.5 20.1 42.85 23.25 38.65 L23.85 37.65 Q23.95 37.05 23.5 36.35 23.1 35.75 22.4 35.65 L22.35 35.6 21.55 35.7 13.45 36.7 Q16.8 35.75 20.6 33.35 L20.7 33.3 21.15 33.0 22.05 32.35 22.65 31.5 22.65 31.55 22.7 30.5 22.1 29.6 Q21.7 29.25 21.15 29.2 L15.25 28.4 Q18.15 28.65 22.0 28.45 23.45 28.8 24.0 27.3 L24.05 27.2 Q24.4 25.75 23.0 25.1 19.55 23.05 17.55 21.15 20.5 22.65 25.0 23.6 L25.25 23.7 25.35 23.75 Q26.7 24.1 27.25 22.7 L27.25 22.65 Q27.8 21.15 26.65 20.55 L26.35 20.15 Q24.35 17.75 23.2 15.75 L24.85 17.65" fill="url(#gradient0)" fill-rule="evenodd" stroke="none"/>
      <path d="M42.25 77.1 L42.25 17.65 42.1 17.6 47.75 17.6 47.75 77.3 48.15 77.5 48.35 77.7 48.35 77.65 Q49.75 79.05 49.75 81.0 49.75 83.05 48.35 84.4 46.95 85.75 45.0 85.75 43.05 85.75 41.65 84.4 40.25 83.0 40.25 81.0 40.25 79.05 41.65 77.7 L42.25 77.2 42.25 77.1 M45.0 18.55 L43.75 18.45 43.75 76.45 45.0 76.25 46.25 76.45 46.25 18.4 45.0 18.55 M46.5 78.1 L46.4 77.95 46.05 77.9 45.0 77.75 44.0 77.9 43.45 77.9 43.4 77.85 43.4 78.0 43.05 78.45 42.7 78.75 Q41.75 79.65 41.75 81.0 41.75 82.4 42.7 83.35 L42.7 83.3 Q43.65 84.25 45.0 84.25 46.35 84.25 47.3 83.35 L47.3 83.3 Q48.25 82.35 48.25 81.0 48.25 79.65 47.3 78.75 L47.1 78.55 46.9 78.3 46.5 78.1" fill="#4e1826" fill-rule="evenodd" stroke="none"/>
      <path d="M45.0 18.55 L46.25 18.4 46.25 76.45 45.0 76.25 43.75 76.45 43.75 18.45 45.0 18.55" fill="url(#gradient1)" fill-rule="evenodd" stroke="none"/>
      <path d="M46.5 78.1 L46.9 78.3 47.1 78.55 47.3 78.75 Q48.25 79.65 48.25 81.0 48.25 82.35 47.3 83.3 L47.3 83.35 Q46.35 84.25 45.0 84.25 43.65 84.25 42.7 83.3 L42.7 83.35 Q41.75 82.4 41.75 81.0 41.75 79.65 42.7 78.75 L43.05 78.45 43.4 78.0 43.4 77.85 43.45 77.9 44.0 77.9 45.0 77.75 46.05 77.9 46.4 77.95 46.5 78.1" fill="#fecb0e" fill-rule="evenodd" stroke="none"/>
      <path d="M45.0 78.75 L45.75 78.85 45.9 78.9 46.1 78.95 46.25 78.95 46.3 78.95 46.4 78.95 46.45 79.1 46.3 79.0 46.35 79.15 46.4 79.2 46.3 79.2 46.4 79.25 46.6 79.5 Q47.25 80.1 47.25 81.0 47.25 81.95 46.6 82.6 L46.45 82.8 Q45.8 83.25 45.0 83.25 44.05 83.25 43.4 82.6 L43.25 82.45 Q42.75 81.85 42.75 81.0 42.75 80.05 43.4 79.45 L43.55 79.3 44.0 78.95 44.35 78.85 44.3 78.85 45.0 78.75" fill="url(#gradient2)" fill-rule="evenodd" stroke="none"/>
      <path d="M56.65 14.45 L57.15 14.75 57.3 15.25 57.05 15.75 51.6 20.8 52.95 28.2 52.85 28.75 52.4 29.1 51.85 29.0 45.3 25.35 38.75 29.0 38.15 29.1 37.75 28.75 Q37.55 28.45 37.65 28.15 L39.1 20.85 33.6 15.75 33.35 15.25 33.55 14.75 Q33.7 14.5 34.05 14.45 L41.5 13.45 44.65 6.7 45.05 6.3 45.6 6.3 46.05 6.7 49.2 13.45 56.65 14.45 M48.6 14.95 L48.2 14.8 48.0 14.55 45.3 8.8 42.7 14.5 42.45 14.8 42.1 14.95 35.85 15.75 40.4 20.0 40.65 20.35 40.65 20.7 39.45 26.9 44.95 23.8 45.3 23.7 45.7 23.8 51.2 26.9 50.0 20.7 50.0 20.3 50.2 20.0 54.85 15.75 48.6 14.95" fill="#4e1826" fill-rule="evenodd" stroke="none"/>
      <path d="M48.6 14.95 L54.85 15.75 50.2 20.0 50.0 20.3 50.0 20.7 51.2 26.9 45.7 23.8 45.3 23.7 44.95 23.8 39.45 26.9 40.65 20.7 40.65 20.35 40.4 20.0 35.85 15.75 42.1 14.95 42.45 14.8 42.7 14.5 45.3 8.8 48.0 14.55 48.2 14.8 48.6 14.95" fill="#fecb0e" fill-rule="evenodd" stroke="none"/>
      <path d="M43.2 15.8 L43.9 15.05 43.85 15.05 45.3 11.8 46.85 15.05 46.85 15.1 47.5 15.85 47.45 15.8 Q47.85 16.1 48.45 16.2 L51.95 16.65 49.35 19.05 Q48.95 19.45 48.8 19.95 48.65 20.45 48.75 20.95 L49.4 24.45 46.3 22.7 46.35 22.7 45.3 22.45 44.35 22.7 41.25 24.45 41.9 20.95 41.85 19.95 41.3 19.05 38.75 16.65 42.25 16.2 42.3 16.2 43.2 15.8" fill="url(#gradient3)" fill-rule="evenodd" stroke="none"/>
      <path d="M54.15 28.45 L53.55 27.8 Q50.65 24.95 47.55 24.0 L47.5 23.95 45.8 23.55 44.05 23.55 42.65 23.95 42.55 24.0 Q39.45 24.95 36.6 27.75 34.6 29.7 32.8 32.55 L32.75 32.6 32.75 32.65 32.45 33.05 31.95 33.85 31.3 35.1 31.25 35.15 29.45 38.9 Q28.6 40.9 28.05 43.0 26.4 48.65 26.85 54.7 27.35 59.55 29.4 63.25 L29.6 63.55 30.05 64.2 30.4 64.75 32.35 66.95 32.35 67.0 33.45 68.0 Q35.35 69.55 37.85 70.75 L39.5 71.3 39.9 71.4 42.9 72.0 43.45 72.05 44.95 72.1 45.2 72.1 46.55 72.05 50.15 71.45 50.1 71.45 51.1 71.1 51.15 71.1 52.2 70.75 54.35 69.6 54.3 69.65 57.9 66.85 57.9 66.9 60.45 63.6 61.25 62.15 61.45 61.7 62.6 58.35 63.15 54.7 63.25 53.4 63.3 53.2 63.25 52.9 63.25 51.1 62.95 47.3 62.1 43.15 61.2 40.35 61.2 40.4 59.2 35.95 59.15 35.9 59.0 35.6 58.95 35.55 58.95 35.5 58.75 35.1 57.6 33.1 57.6 33.15 55.9 30.65 55.5 30.05 55.55 30.1 54.75 29.15 54.7 29.1 54.15 28.45 M64.65 54.8 L64.65 54.85 64.05 58.75 62.6 62.8 Q61.15 65.65 58.95 67.95 L55.1 70.9 52.85 72.1 52.8 72.1 52.75 72.1 51.6 72.5 50.55 72.9 50.5 72.9 46.7 73.55 46.65 73.55 45.2 73.6 44.95 73.6 43.35 73.55 Q40.3 73.25 37.25 72.1 L37.2 72.1 Q34.55 70.85 32.5 69.15 L31.3 68.05 29.2 65.65 28.1 64.0 Q25.85 60.05 25.35 54.85 L25.35 54.8 Q24.9 48.5 26.6 42.6 27.2 40.4 28.05 38.35 28.85 36.35 29.95 34.45 L29.95 34.4 Q30.5 33.25 31.2 32.25 L31.15 32.3 31.6 31.7 Q33.45 28.75 35.55 26.7 38.65 23.55 42.1 22.55 42.9 22.15 43.9 22.05 L45.95 22.05 48.0 22.55 Q51.45 23.55 54.6 26.75 L55.85 28.15 55.9 28.2 55.95 28.2 55.95 28.25 56.65 29.1 56.75 29.2 58.85 32.3 60.05 34.4 60.1 34.4 60.1 34.45 60.25 34.75 60.55 35.25 62.6 39.85 63.55 42.75 64.45 47.05 64.75 51.05 64.75 52.9 64.7 53.2 64.75 53.5 64.65 54.8" fill="#4e1826" fill-rule="evenodd" stroke="none"/>
      <path d="M29.6 63.55 L29.4 63.25 Q27.35 59.55 26.85 54.7 26.4 48.65 28.05 43.0 28.6 40.9 29.45 38.9 L31.25 35.15 31.3 35.1 31.95 33.85 32.45 33.05 32.75 32.65 32.75 32.6 32.8 32.55 Q34.6 29.7 36.6 27.75 39.45 24.95 42.55 24.0 L42.65 23.95 44.05 23.55 45.8 23.55 47.5 23.95 47.55 24.0 Q50.65 24.95 53.55 27.8 L54.15 28.45 52.15 27.0 52.1 27.0 Q51.85 27.45 51.4 27.45 L49.85 26.7 Q48.0 25.9 45.4 25.9 42.15 25.9 38.25 28.6 34.25 32.9 31.75 39.75 29.55 45.75 28.95 48.4 28.25 51.5 28.25 56.1 28.25 58.2 29.6 63.55" fill="#ffffff" fill-rule="evenodd" stroke="none"/>
      <path d="M54.15 28.45 L54.7 29.1 54.75 29.15 55.55 30.1 55.5 30.05 55.9 30.65 58.0 36.95 Q60.7 44.75 60.7 50.9 60.7 55.45 59.3 60.2 L57.45 63.4 56.8 62.45 55.1 61.25 55.75 60.35 56.1 59.0 Q56.1 56.05 53.2 50.55 L52.75 49.65 54.3 46.55 Q55.1 48.1 56.4 49.7 58.0 51.75 59.65 52.95 L59.95 52.75 Q57.2 48.45 54.45 46.2 L54.5 46.1 Q55.85 45.65 56.25 44.1 L56.3 41.1 56.05 39.1 Q55.3 37.65 52.4 37.7 L47.7 37.7 Q45.0 34.8 43.1 34.0 L46.05 37.8 Q42.5 37.85 41.25 38.4 40.5 38.7 40.5 39.4 40.5 39.75 40.65 40.0 40.95 40.5 41.8 40.5 L48.05 40.1 Q50.35 42.45 52.7 43.8 L49.65 40.0 54.05 40.15 54.15 43.05 Q53.5 43.3 52.5 44.55 L52.3 44.85 52.0 45.2 Q49.85 47.95 49.85 49.55 L49.9 50.3 Q50.1 50.95 50.95 50.95 L52.05 53.7 53.45 57.5 53.3 57.8 53.25 59.05 45.4 59.7 42.5 59.75 40.25 59.6 38.9 59.75 37.4 59.75 36.85 59.0 Q36.6 58.5 35.8 58.5 34.65 58.5 34.65 60.0 34.65 62.4 37.4 62.25 L42.95 62.25 Q45.6 64.7 50.8 68.05 L50.85 67.95 46.85 64.3 44.1 62.25 45.8 62.25 50.75 62.05 53.05 62.5 Q54.35 62.7 55.05 63.45 L56.4 64.55 56.5 64.65 Q52.35 69.5 45.5 69.5 L41.8 68.85 38.45 68.35 37.6 67.95 Q35.3 67.2 32.7 65.35 30.5 63.75 30.05 63.75 L30.05 64.2 29.6 63.55 Q28.25 58.2 28.25 56.1 28.25 51.5 28.95 48.4 29.55 45.75 31.75 39.75 34.25 32.9 38.25 28.6 42.15 25.9 45.4 25.9 48.0 25.9 49.85 26.7 L51.4 27.45 Q51.85 27.45 52.1 27.0 L52.15 27.0 54.15 28.45 M61.45 61.7 L61.25 62.15 60.45 63.6 60.5 63.5 61.35 61.8 61.45 61.7 M42.9 72.0 L39.9 71.4 42.35 71.85 42.9 72.0 M45.75 46.6 Q45.75 44.55 43.8 43.2 41.9 41.9 42.75 45.2 43.1 47.2 42.5 48.55 41.75 50.15 41.75 51.2 L42.15 52.1 42.55 52.9 42.15 55.15 42.2 56.15 Q42.45 57.05 43.4 57.05 44.45 57.05 45.35 54.85 L46.1 52.2 47.2 49.75 48.25 47.1 Q48.25 45.75 47.0 45.75 46.2 45.75 45.75 46.6" fill="#d1ffff" fill-rule="evenodd" stroke="none"/>
      <path d="M55.9 30.65 L57.6 33.15 57.6 33.1 58.75 35.1 58.95 35.5 58.95 35.55 59.0 35.6 59.15 35.9 59.2 35.95 61.2 40.4 61.2 40.35 62.1 43.15 62.95 47.3 63.25 51.1 63.25 52.9 63.3 53.2 63.25 53.4 63.15 54.7 62.6 58.35 61.45 61.7 61.35 61.8 60.5 63.5 60.45 63.6 57.9 66.9 57.9 66.85 54.3 69.65 54.35 69.6 52.2 70.75 51.15 71.1 51.1 71.1 50.1 71.45 50.15 71.45 46.55 72.05 45.2 72.1 44.95 72.1 43.45 72.05 42.9 72.0 42.35 71.85 39.9 71.4 39.5 71.3 37.85 70.75 Q35.35 69.55 33.45 68.0 L32.35 67.0 32.35 66.95 30.4 64.75 30.05 64.2 30.05 63.75 Q30.5 63.75 32.7 65.35 35.3 67.2 37.6 67.95 L38.45 68.35 41.8 68.85 45.5 69.5 Q52.35 69.5 56.5 64.65 L56.4 64.55 55.05 63.45 Q54.35 62.7 53.05 62.5 L50.75 62.05 45.8 62.25 44.1 62.25 46.85 64.3 50.85 67.95 50.8 68.05 Q45.6 64.7 42.95 62.25 L37.4 62.25 Q34.65 62.4 34.65 60.0 34.65 58.5 35.8 58.5 36.6 58.5 36.85 59.0 L37.4 59.75 38.9 59.75 40.25 59.6 42.5 59.75 45.4 59.7 53.25 59.05 53.3 57.8 53.45 57.5 52.05 53.7 50.95 50.95 Q50.1 50.95 49.9 50.3 L49.85 49.55 Q49.85 47.95 52.0 45.2 L52.3 44.85 52.5 44.55 Q53.5 43.3 54.15 43.05 L54.05 40.15 49.65 40.0 52.7 43.8 Q50.35 42.45 48.05 40.1 L41.8 40.5 Q40.95 40.5 40.65 40.0 40.5 39.75 40.5 39.4 40.5 38.7 41.25 38.4 42.5 37.85 46.05 37.8 L43.1 34.0 Q45.0 34.8 47.7 37.7 L52.4 37.7 Q55.3 37.65 56.05 39.1 L56.3 41.1 56.25 44.1 Q55.85 45.65 54.5 46.1 L54.45 46.2 Q57.2 48.45 59.95 52.75 L59.65 52.95 Q58.0 51.75 56.4 49.7 55.1 48.1 54.3 46.55 L52.75 49.65 53.2 50.55 Q56.1 56.05 56.1 59.0 L55.75 60.35 55.1 61.25 56.8 62.45 57.45 63.4 59.3 60.2 Q60.7 55.45 60.7 50.9 60.7 44.75 58.0 36.95 L55.9 30.65 M45.75 46.6 Q46.2 45.75 47.0 45.75 48.25 45.75 48.25 47.1 L47.2 49.75 46.1 52.2 45.35 54.85 Q44.45 57.05 43.4 57.05 42.45 57.05 42.2 56.15 L42.15 55.15 42.55 52.9 42.15 52.1 41.75 51.2 Q41.75 50.15 42.5 48.55 43.1 47.2 42.75 45.2 41.9 41.9 43.8 43.2 45.75 44.55 45.75 46.6" fill="#b6dddf" fill-rule="evenodd" stroke="none"/>
      <path d="M47.7 38.75 L48.55 38.9 48.6 38.9 49.45 38.75 49.55 38.75 50.1 38.75 52.2 38.75 53.3 38.75 54.2 38.95 Q55.6 39.45 55.3 40.5 L55.25 42.95 55.25 43.0 55.2 43.35 Q54.95 44.5 53.5 44.7 L53.4 44.7 53.3 44.7 53.25 44.7 51.35 49.2 51.35 49.3 51.35 49.65 51.35 49.85 53.35 55.35 54.0 55.5 53.95 55.5 54.95 56.1 Q55.25 56.5 55.1 57.1 L55.05 59.5 55.05 59.55 55.0 59.85 Q54.85 61.05 53.3 61.25 L53.2 61.25 53.1 61.25 52.2 61.25 52.05 61.25 50.8 61.25 49.9 61.25 49.4 61.25 49.3 61.25 48.35 61.1 47.7 61.25 47.65 61.25 47.55 61.25 46.45 61.25 44.35 61.25 43.8 61.25 43.7 61.25 42.9 61.15 42.05 61.25 41.85 61.25 41.75 61.25 40.6 61.25 39.15 61.25 38.7 61.25 38.05 61.25 37.2 61.15 37.05 61.05 Q35.65 60.55 35.95 59.45 L35.95 56.9 36.05 56.4 Q36.25 55.6 37.0 55.3 L37.0 44.95 37.0 44.9 Q36.15 44.5 36.0 43.6 L35.95 43.3 35.95 40.6 Q35.85 40.0 36.2 39.6 36.45 39.3 37.05 39.1 L37.2 39.05 38.05 38.9 38.7 38.9 39.15 38.9 40.6 38.9 41.75 38.9 41.85 38.9 42.05 38.9 42.8 39.0 43.0 38.9 43.05 38.9 43.9 38.75 44.0 38.75 44.55 38.75 46.65 38.75 47.7 38.75 M45.35 49.25 L43.85 44.7 43.25 44.65 43.15 44.65 43.15 44.95 43.15 55.35 43.2 55.35 43.4 55.35 45.4 49.65 45.35 49.25" fill="#4e1826" fill-rule="evenodd" stroke="none"/>
      <path d="M48.55 55.45 L48.25 54.8 Q48.15 54.8 48.0 55.6 L47.75 56.75 47.8 56.75 48.1 57.0 48.1 59.45 47.55 59.85 46.45 59.85 44.35 59.85 43.8 59.85 43.7 59.85 Q43.2 59.85 43.1 59.45 L43.05 57.0 43.3 56.75 43.7 56.75 43.8 56.75 44.4 56.75 46.8 50.0 46.65 48.75 44.85 43.3 44.55 43.3 44.0 43.3 43.9 43.3 Q43.35 43.3 43.25 42.9 L43.2 40.45 43.5 40.2 43.9 40.15 44.0 40.15 44.55 40.15 46.65 40.15 47.7 40.15 48.0 40.2 48.3 40.45 48.25 42.9 48.0 43.25 48.25 44.2 48.55 44.85 48.7 44.5 49.0 43.2 48.85 42.9 48.8 40.45 49.05 40.2 49.45 40.15 49.55 40.15 50.1 40.15 52.2 40.15 53.3 40.15 53.55 40.2 53.9 40.45 53.85 42.9 53.3 43.3 52.25 43.3 50.0 48.85 Q49.85 49.45 49.95 50.0 L52.35 56.75 53.1 56.75 53.4 56.75 53.7 57.0 53.65 59.45 53.1 59.85 52.2 59.85 52.05 59.85 50.8 59.85 49.9 59.85 49.4 59.85 49.3 59.85 Q48.75 59.85 48.65 59.45 L48.6 57.0 48.9 56.75 48.55 55.45 M38.7 40.3 L39.15 40.3 40.6 40.3 41.75 40.3 41.85 40.3 42.05 40.3 42.45 40.35 Q42.75 40.45 42.75 40.6 L42.75 43.25 42.05 43.65 41.8 43.65 41.75 43.65 41.75 44.25 41.75 44.95 41.75 55.85 41.75 56.5 41.8 56.5 42.05 56.5 Q42.65 56.5 42.75 56.9 L42.75 59.5 42.45 59.8 42.05 59.85 41.85 59.85 41.75 59.85 40.6 59.85 39.15 59.85 38.7 59.85 38.05 59.85 37.65 59.8 37.35 59.5 37.35 56.9 Q37.45 56.5 38.05 56.5 L38.4 56.5 38.4 55.85 38.4 44.95 38.4 44.25 38.4 43.65 38.05 43.65 Q37.45 43.65 37.35 43.25 L37.35 40.6 37.65 40.35 38.05 40.3 38.7 40.3" fill="#ffcc00" fill-rule="evenodd" stroke="none"/>
      <path d="M44.1 41.05 L44.55 41.05 46.65 41.05 47.4 41.05 47.35 42.6 47.2 42.85 Q47.05 43.1 47.15 43.4 L47.4 44.55 Q47.75 46.0 48.55 45.75 49.45 46.0 49.6 44.65 L49.9 43.4 49.9 42.85 49.75 42.65 49.7 41.05 50.1 41.05 52.2 41.05 53.0 41.05 53.0 42.4 52.25 42.4 Q52.0 42.4 51.75 42.55 L51.45 42.95 49.2 48.55 49.15 48.6 Q48.9 49.45 49.1 50.2 L49.1 50.25 Q49.8 52.6 51.55 57.05 L51.85 57.5 52.35 57.65 52.8 57.65 52.8 58.95 52.2 58.95 52.05 58.95 50.8 58.95 49.9 58.95 49.55 58.95 49.5 57.45 49.7 57.2 Q49.9 56.85 49.75 56.5 L49.45 55.25 49.4 55.2 Q48.85 53.6 48.25 53.9 47.5 53.6 47.15 55.4 L46.9 56.65 46.95 57.15 47.2 57.5 47.2 58.95 46.45 58.95 44.35 58.95 44.0 58.95 43.95 57.65 44.4 57.65 44.95 57.5 45.25 57.05 47.65 50.3 Q47.9 49.65 47.5 48.5 L45.7 43.0 45.4 42.55 44.85 42.4 44.55 42.4 44.15 42.4 44.1 41.05 M38.4 42.75 L38.25 42.75 38.25 41.2 38.7 41.2 39.15 41.2 40.6 41.2 41.75 41.2 41.85 41.2 41.85 42.75 41.75 42.75 Q41.4 42.75 41.1 43.0 40.85 43.3 40.85 43.65 L40.85 44.25 40.85 44.95 40.85 55.85 40.85 56.5 41.1 57.15 41.75 57.4 41.85 57.4 41.85 58.95 41.75 58.95 40.6 58.95 39.15 58.95 38.7 58.95 38.25 58.95 38.25 57.4 38.4 57.4 39.05 57.15 39.3 56.5 39.3 55.85 39.3 44.95 39.3 44.25 39.3 43.65 39.05 43.0 Q38.75 42.75 38.4 42.75" fill="url(#gradient4)" fill-rule="evenodd" stroke="none"/>
    </g>
    <linearGradient gradientTransform="matrix(0.0, 0.0198, -0.0161, 0.0, 26.6, 40.05)" gradientUnits="userSpaceOnUse" id="gradient0" spreadMethod="pad" x1="-819.2" x2="819.2">
      <stop offset="0.0" stop-color="#ffffff" stop-opacity="0.2"/>
      <stop offset="1.0" stop-color="#000000" stop-opacity="0.6"/>
    </linearGradient>
    <linearGradient gradientTransform="matrix(0.0, 0.0351, -0.0015, 0.0, 45.0, 50.05)" gradientUnits="userSpaceOnUse" id="gradient1" spreadMethod="pad" x1="-819.2" x2="819.2">
      <stop offset="0.0" stop-color="#ff807a"/>
      <stop offset="0.48627450980392156" stop-color="#c9463a"/>
      <stop offset="1.0" stop-color="#990033"/>
    </linearGradient>
    <linearGradient gradientTransform="matrix(0.0, 0.0026, -0.0027, 0.0, 45.0, 81.65)" gradientUnits="userSpaceOnUse" id="gradient2" spreadMethod="pad" x1="-819.2" x2="819.2">
      <stop offset="0.0" stop-color="#ffffff" stop-opacity="0.2"/>
      <stop offset="1.0" stop-color="#000000" stop-opacity="0.6"/>
    </linearGradient>
    <linearGradient gradientTransform="matrix(0.0, 0.0059, -0.0081, 0.0, 45.35, 19.5)" gradientUnits="userSpaceOnUse" id="gradient3" spreadMethod="pad" x1="-819.2" x2="819.2">
      <stop offset="0.0" stop-color="#ffffff" stop-opacity="0.2"/>
      <stop offset="1.0" stop-color="#000000" stop-opacity="0.6"/>
    </linearGradient>
    <linearGradient gradientTransform="matrix(0.0, 0.0084, -0.0045, 0.0, 60.9, 50.25)" gradientUnits="userSpaceOnUse" id="gradient4" spreadMethod="pad" x1="-819.2" x2="819.2">
      <stop offset="0.0" stop-color="#ffffff" stop-opacity="0.2"/>
      <stop offset="1.0" stop-color="#000000" stop-opacity="0.6"/>
    </linearGradient>
  </defs>
</svg>
