<svg width="30" height="30" viewBox="0 0 30 30" fill="none" xmlns="http://www.w3.org/2000/svg">
<path fill-rule="evenodd" clip-rule="evenodd" d="M8.13468 21.1498C9.39731 22.8895 11.165 24.3204 13.4377 25.4428L14.6162 25.9899L15.037 25.7374L17.9832 24.1801L18.4882 23.8013L19.2037 23.2121L19.2879 23.17L19.835 22.665L20.0875 22.4125L20.9714 21.3603L21.0556 21.1919L21.266 20.9394L22.234 19.4242L22.3182 19.2138L22.5286 18.7929L22.5286 18.835L22.697 18.2879L23.1178 16.8569L23.202 16.6465L23.202 3.72559L6.0303 3.6835L5.98822 16.6044L6.66162 18.6246L7.84007 20.771L8.13468 21.1498ZM15.037 27.5892L14.9529 27.6734L14.6162 27.7997L14.3215 27.6734C8.79405 25.4568 5.48317 21.8513 4.38889 16.8569L4.30471 16.7727L4.3468 2L24.9276 2.04209L24.8855 16.9411C23.679 21.8793 20.3962 25.4287 15.037 27.5892Z" fill="#2A3556"/>
<path fill-rule="evenodd" clip-rule="evenodd" d="M22.5286 18.7929L22.4024 17.8249L22.3603 16.5623L22.3182 16.2677L22.2761 14.2896L22.0236 6.67171L22.0657 5.53535L18.1936 5.61953L9.43939 5.61953L8.68182 6.92424L7.84007 8.10269L7.84007 20.771L6.66162 18.6246L5.98822 16.6044L6.0303 3.6835L23.202 3.72559L23.202 16.6465L23.1178 16.8569L22.697 18.2879L22.5286 18.835L22.5286 18.7929Z" fill="#7DA0FF"/>
<path fill-rule="evenodd" clip-rule="evenodd" d="M18.1936 5.61953C17.2677 7.5275 16.7626 9.22503 16.6785 10.7121C16.2295 11.2733 16.0051 11.9467 16.0051 12.7323L15.963 15.0892C14.9529 15.5382 14.4618 16.885 14.4899 19.1296L14.4478 20.0556L14.4478 20.3081L13.8586 19.5505C12.4276 17.6145 11.7262 18.5685 11.7542 22.4125L11.7121 22.4966L10.8283 21.9495L8.89226 20.8973L8.13468 21.1498L7.84007 20.771L7.84007 8.1027L8.68182 6.92425L9.4394 5.61953L18.1936 5.61953Z" fill="#5B75BA"/>
<path fill-rule="evenodd" clip-rule="evenodd" d="M8.13468 21.1498L8.89226 20.8973L10.8283 21.9495L11.7121 22.4966L11.7542 22.4125C11.7262 18.5685 12.4276 17.6145 13.8586 19.5505L14.4478 20.3081L14.4478 20.0556L14.4899 19.1296C14.4618 16.885 14.9529 15.5382 15.963 15.0892L16.0051 12.7323C16.0051 11.9467 16.2295 11.2733 16.6785 10.7121C16.7626 9.22503 17.2677 7.5275 18.1936 5.61953L22.0657 5.53535L22.0236 6.67172L22.2761 14.2896L22.3182 16.2677L22.3603 16.5623L22.4024 17.8249L22.5286 18.7929L22.3182 19.2138L22.234 19.4242L21.266 20.9394L21.0556 21.1919L20.9714 21.3603L20.0875 22.4125L19.835 22.665L19.2879 23.17L19.2037 23.2121L18.4882 23.8013L17.9832 24.1801L15.037 25.7374L14.6162 25.9899L13.4377 25.4428C11.165 24.3204 9.39731 22.8895 8.13468 21.1498Z" fill="#4B619D"/>
<path fill-rule="evenodd" clip-rule="evenodd" d="M15.0791 8.56566C14.2374 10.2772 12.6521 12.087 10.3232 13.995C7.7138 16.1274 5.73569 17.39 4.38889 17.7828L4.3468 16.8148C8.92031 14.5421 12.3154 11.5118 14.532 7.72391L15.0791 8.56566Z" fill="#7DA0FF"/>
<path fill-rule="evenodd" clip-rule="evenodd" d="M23.4545 16.1414L23.3704 17.0253L23.3283 17.9512L23.0758 17.9512L22.0236 17.5724L20.0875 16.3519L18.5303 15.1313L15.5842 11.7643C14.9108 11.0348 14.518 11.0629 14.4057 11.8485L13.9848 12.4377C12.0208 15.2997 8.82211 17.8389 4.38889 20.0556L4.38889 17.7828C5.73569 17.39 7.71381 16.1274 10.3232 13.995C12.6521 12.087 14.2374 10.2772 15.0791 8.56566C17.0432 11.624 19.835 14.1493 23.4545 16.1414Z" fill="#5B75BA"/>
<path fill-rule="evenodd" clip-rule="evenodd" d="M25.6852 15.7205L26.064 15.931L26.064 22.2441L25.096 21.7811C20.326 19.5084 16.8047 16.913 14.532 13.9949C12.2873 16.913 8.78002 19.5084 4.0101 21.7811L3 22.2441L3 15.931L3.37879 15.7205C8.289 13.3636 11.8103 10.1089 13.9428 5.95623L14.532 4.81986L15.1633 5.95623C17.2677 10.1089 20.775 13.3636 25.6852 15.7205ZM23.4545 16.1414C19.835 14.1493 17.0432 11.624 15.0791 8.56565L14.532 7.7239C12.3154 11.5118 8.92031 14.5421 4.3468 16.8148L4.38889 17.7828L4.38889 20.0556C8.82211 17.8389 12.0208 15.2997 13.9848 12.4377L14.4057 11.8485L14.532 11.638L15.1212 12.4377C16.8608 14.963 19.5404 17.2357 23.1599 19.2559L24.7172 20.0556L24.7172 16.8148C24.2963 16.5623 23.8754 16.3378 23.4545 16.1414Z" fill="#2A3556"/>
<path fill-rule="evenodd" clip-rule="evenodd" d="M14.4057 11.8485C14.518 11.0628 14.9108 11.0348 15.5842 11.7643L18.5303 15.1313L20.0875 16.3518L22.0236 17.5724L23.0758 17.9512L23.3283 17.9512L23.3704 17.0252L23.4545 16.1414C23.8754 16.3378 24.2963 16.5623 24.7172 16.8148L24.7172 20.0555L23.1599 19.2559C19.5404 17.2357 16.8608 14.963 15.1212 12.4377L14.532 11.638L14.4057 11.8485Z" fill="#344269"/>
</svg>
