<?xml version="1.0" encoding="UTF-8" standalone="no"?>
<svg xmlns:ffdec="https://www.free-decompiler.com/flash" xmlns:xlink="http://www.w3.org/1999/xlink" ffdec:objectType="frame" height="136.25px" width="122.45px" xmlns="http://www.w3.org/2000/svg">
  <g transform="matrix(1.0, 0.0, 0.0, 1.0, 125.85, 141.5)">
    <use ffdec:characterId="22" height="47.9" transform="matrix(-1.0, 0.0, 0.0, 1.0, -105.0, -59.55)" width="19.15" xlink:href="#sprite0"/>
    <use ffdec:characterId="26" height="44.7" transform="matrix(1.0, 0.0, 0.0, 1.0, -72.0, -79.95)" width="68.6" xlink:href="#sprite1"/>
    <use ffdec:characterId="28" height="130.05" transform="matrix(1.0, 0.0, 0.0, 1.0, -125.85, -136.35)" width="64.75" xlink:href="#sprite2"/>
    <use ffdec:characterId="32" height="49.25" transform="matrix(1.0, 0.0, 0.0, 1.0, -111.0, -73.3)" width="81.55" xlink:href="#sprite3"/>
  </g>
  <defs>
    <g id="sprite0" transform="matrix(1.0, 0.0, 0.0, 1.0, 9.55, 21.25)">
      <use ffdec:characterId="15" height="47.9" transform="matrix(1.0, 0.0, 0.0, 1.0, -9.55, -21.25)" width="19.15" xlink:href="#morphshape0"/>
      <use ffdec:characterId="16" height="36.8" transform="matrix(1.0, 0.0, 0.0, 1.0, -7.25, -19.15)" width="14.6" xlink:href="#morphshape1"/>
      <use ffdec:characterId="17" height="26.35" transform="matrix(1.0, 0.0, 0.0, 1.0, -5.2, -19.35)" width="10.45" xlink:href="#morphshape2"/>
    </g>
    <g id="morphshape0" transform="matrix(1.0, 0.0, 0.0, 1.0, 9.55, 21.25)">
      <path d="M-9.15 0.15 Q-8.15 8.25 -5.45 14.65 -2.65 21.25 0.15 21.25 2.9 21.25 5.7 14.55 8.45 8.05 9.3 -0.1 10.25 -9.1 8.15 -14.75 5.6 -21.35 -0.65 -21.2 -6.3 -21.1 -8.4 -14.45 -10.2 -8.75 -9.15 0.15" fill="#f2922e" fill-rule="evenodd" stroke="none"/>
      <path d="M-9.15 0.15 Q-10.2 -8.75 -8.4 -14.45 -6.3 -21.1 -0.65 -21.2 5.6 -21.35 8.15 -14.75 10.25 -9.1 9.3 -0.1 8.45 8.05 5.7 14.55 2.9 21.25 0.15 21.25 -2.65 21.25 -5.45 14.65 -8.15 8.25 -9.15 0.15 Z" fill="none" stroke="#000000" stroke-linecap="round" stroke-linejoin="round" stroke-opacity="0.0" stroke-width="0.0"/>
    </g>
    <g id="morphshape1" transform="matrix(1.0, 0.0, 0.0, 1.0, 7.25, 19.15)">
      <path d="M-6.95 -2.85 Q-6.2 3.4 -4.15 8.25 -2.0 13.25 0.1 13.25 2.2 13.25 4.35 8.15 6.45 3.2 7.1 -3.0 7.85 -9.9 6.2 -14.15 4.3 -19.2 -0.5 -19.15 -4.8 -19.05 -6.4 -13.95 -7.75 -9.6 -6.95 -2.85" fill="#fbc36f" fill-rule="evenodd" stroke="none"/>
      <path d="M-6.95 -2.85 Q-7.75 -9.6 -6.4 -13.95 -4.8 -19.05 -0.5 -19.15 4.3 -19.2 6.2 -14.15 7.85 -9.9 7.1 -3.0 6.45 3.2 4.35 8.15 2.2 13.25 0.1 13.25 -2.0 13.25 -4.15 8.25 -6.2 3.4 -6.95 -2.85 Z" fill="none" stroke="#000000" stroke-linecap="round" stroke-linejoin="round" stroke-opacity="0.0" stroke-width="0.0"/>
    </g>
    <g id="morphshape2" transform="matrix(1.0, 0.0, 0.0, 1.0, 5.2, 19.35)">
      <path d="M-4.95 -7.7 Q-4.45 -3.25 -2.95 0.25 -1.4 3.85 0.1 3.85 1.6 3.85 3.15 0.2 4.65 -3.35 5.1 -7.8 5.6 -12.75 4.45 -15.8 3.1 -19.4 -0.35 -19.35 -3.4 -19.25 -4.55 -15.65 -5.55 -12.55 -4.95 -7.7" fill="#ffe8d6" fill-rule="evenodd" stroke="none"/>
      <path d="M-4.95 -7.7 Q-5.55 -12.55 -4.55 -15.65 -3.4 -19.25 -0.35 -19.35 3.1 -19.4 4.45 -15.8 5.6 -12.75 5.1 -7.8 4.65 -3.35 3.15 0.2 1.6 3.85 0.1 3.85 -1.4 3.85 -2.95 0.25 -4.45 -3.25 -4.95 -7.7 Z" fill="none" stroke="#000000" stroke-linecap="round" stroke-linejoin="round" stroke-opacity="0.0" stroke-width="0.0"/>
    </g>
    <g id="sprite1" transform="matrix(1.0, 0.0, 0.0, 1.0, 33.8, 22.7)">
      <use ffdec:characterId="23" height="40.8" transform="matrix(1.0, 0.0, 0.0, 1.0, -33.55, -18.8)" width="66.45" xlink:href="#shape0"/>
    </g>
    <g id="shape0" transform="matrix(1.0, 0.0, 0.0, 1.0, 33.55, 18.8)">
      <path d="M4.35 3.95 Q4.55 1.9 6.15 -0.3 L7.15 -1.65 7.65 -2.1 7.55 -4.65 -0.65 -6.7 -1.25 -6.1 -2.6 -4.35 Q-4.65 -1.3 -5.1 1.9 -5.3 3.65 -4.75 5.65 L-3.5 9.15 Q-2.6 11.4 -2.35 12.9 -2.0 15.0 -2.55 16.95 -0.3 18.35 2.6 20.35 L5.1 22.0 7.25 20.5 Q8.0 17.55 7.65 14.9 7.35 12.95 6.4 10.65 L4.9 7.25 Q4.15 5.4 4.35 3.95" fill="#000000" fill-rule="evenodd" stroke="none"/>
      <path d="M5.0 -2.25 Q5.25 -1.7 5.65 -1.55 L6.45 -1.65 7.05 -2.3 Q7.25 -2.75 7.05 -3.2 L6.45 -3.75 5.6 -3.65 5.0 -3.05 Q4.8 -2.65 5.0 -2.25" fill="#58595b" fill-rule="evenodd" stroke="none"/>
      <path d="M4.75 -1.45 L4.0 -1.35 Q3.55 -1.15 3.4 -0.75 3.2 -0.35 3.35 0.1 L4.0 0.7 4.8 0.6 5.4 0.05 Q5.6 -0.45 5.4 -0.9 5.2 -1.4 4.75 -1.45" fill="#58595b" fill-rule="evenodd" stroke="none"/>
      <path d="M4.15 1.8 L3.55 1.1 2.7 1.15 Q2.35 1.3 2.2 1.75 L2.2 2.55 Q2.3 3.05 2.7 3.2 L3.65 3.25 4.15 2.65 Q4.35 2.2 4.15 1.8" fill="#58595b" fill-rule="evenodd" stroke="none"/>
      <path d="M2.35 6.05 Q2.85 6.25 3.25 6.05 L3.8 5.45 3.8 4.55 3.15 3.9 2.3 3.95 Q1.95 4.1 1.85 4.6 1.65 5.0 1.8 5.4 1.9 5.85 2.35 6.05" fill="#58595b" fill-rule="evenodd" stroke="none"/>
      <path d="M3.5 9.05 L4.35 8.8 4.65 8.05 4.4 7.25 Q4.05 6.85 3.6 6.8 3.1 6.75 2.8 7.1 2.55 7.4 2.55 7.85 L2.8 8.65 3.5 9.05" fill="#58595b" fill-rule="evenodd" stroke="none"/>
      <path d="M4.6 11.9 Q5.1 11.9 5.45 11.6 L5.8 10.85 5.5 10.05 Q5.2 9.65 4.7 9.6 4.2 9.55 3.9 9.9 3.65 10.2 3.6 10.65 L3.9 11.45 4.6 11.9" fill="#58595b" fill-rule="evenodd" stroke="none"/>
      <path d="M5.1 12.8 L4.8 13.55 5.05 14.35 5.8 14.75 Q6.3 14.8 6.65 14.45 6.95 14.2 6.9 13.75 L6.7 12.95 Q6.4 12.55 5.9 12.5 5.4 12.5 5.1 12.8" fill="#58595b" fill-rule="evenodd" stroke="none"/>
      <path d="M6.2 17.75 Q6.75 17.8 7.1 17.5 L7.4 16.75 7.1 15.9 Q6.85 15.5 6.3 15.5 5.8 15.45 5.55 15.8 5.25 16.05 5.3 16.55 5.25 17.0 5.5 17.3 5.75 17.7 6.2 17.75" fill="#58595b" fill-rule="evenodd" stroke="none"/>
      <path d="M5.85 20.55 Q6.4 20.6 6.7 20.25 L7.05 19.5 6.75 18.75 Q6.45 18.35 5.95 18.3 5.45 18.3 5.15 18.6 4.9 18.9 4.95 19.35 4.9 19.8 5.15 20.15 L5.85 20.55" fill="#58595b" fill-rule="evenodd" stroke="none"/>
      <path d="M4.25 -2.65 L4.5 -3.4 Q4.9 -4.2 5.75 -4.3 L-0.5 -5.8 -1.4 -4.85 -1.7 -4.25 4.25 -2.65" fill="#bbbdbf" fill-rule="evenodd" stroke="none"/>
      <path d="M4.1 -1.85 L-2.0 -3.55 -2.9 -2.5 -3.2 -1.9 2.6 -0.2 2.9 -0.95 Q3.35 -1.75 4.1 -1.85" fill="#bbbdbf" fill-rule="evenodd" stroke="none"/>
      <path d="M2.75 0.6 L-3.4 -1.1 -4.2 0.05 -4.3 0.75 1.5 2.45 1.65 1.6 Q1.95 0.7 2.75 0.6" fill="#bbbdbf" fill-rule="evenodd" stroke="none"/>
      <path d="M2.05 3.45 L-4.1 1.7 Q-4.65 2.2 -4.5 3.05 L-4.25 3.75 1.15 5.5 1.05 4.65 Q1.1 3.7 2.05 3.45" fill="#bbbdbf" fill-rule="evenodd" stroke="none"/>
      <path d="M2.15 8.6 L1.8 8.05 Q1.55 7.35 2.0 6.45 L-4.05 4.65 Q-4.25 5.6 -3.85 6.45 L-3.4 6.95 2.15 8.6" fill="#bbbdbf" fill-rule="evenodd" stroke="none"/>
      <path d="M-3.1 7.75 Q-3.35 8.7 -2.9 9.4 L-2.35 10.0 3.45 11.75 Q3.2 11.55 3.05 11.15 2.75 10.3 3.05 9.55 L-3.1 7.75" fill="#bbbdbf" fill-rule="evenodd" stroke="none"/>
      <path d="M4.45 12.55 L-2.05 10.75 Q-2.25 11.7 -1.8 12.3 L-1.3 12.7 4.7 15.0 4.25 14.35 Q3.95 13.5 4.45 12.55" fill="#bbbdbf" fill-rule="evenodd" stroke="none"/>
      <path d="M5.05 17.85 L4.65 17.25 Q4.3 16.55 4.8 15.55 L-1.45 13.4 Q-1.7 14.35 -1.3 14.8 L-0.95 15.15 5.05 17.85" fill="#bbbdbf" fill-rule="evenodd" stroke="none"/>
      <path d="M4.7 20.85 L4.35 20.15 Q4.1 19.3 4.6 18.3 L-1.45 15.45 -1.8 16.45 -1.75 16.95 4.7 20.85" fill="#bbbdbf" fill-rule="evenodd" stroke="none"/>
      <path d="M-22.0 -18.6 Q-26.65 -19.05 -29.6 -18.45 -33.1 -17.75 -33.5 -15.7 -33.9 -13.55 -31.15 -10.65 -28.65 -8.15 -24.3 -5.7 -20.2 -3.3 -16.3 -2.05 -12.25 -0.8 -10.45 -1.35 -8.7 -1.9 -7.75 -3.9 -6.95 -5.65 -6.85 -8.2 -6.75 -10.55 -7.35 -12.55 -7.85 -14.6 -8.85 -15.3 -10.1 -16.25 -13.9 -17.25 L-22.0 -18.6" fill="#000000" fill-rule="evenodd" stroke="none"/>
      <path d="M-21.95 -17.5 Q-26.3 -17.95 -29.05 -17.4 -32.25 -16.85 -32.55 -15.1 -32.75 -13.55 -30.1 -11.1 -27.75 -8.9 -23.8 -6.6 -20.0 -4.45 -16.5 -3.2 -12.9 -1.85 -11.2 -2.25 -9.8 -2.6 -8.95 -4.35 -8.2 -5.85 -8.05 -8.1 -7.9 -10.25 -8.35 -12.05 -8.75 -13.9 -9.65 -14.55 -10.75 -15.4 -14.4 -16.25 L-21.95 -17.5" fill="#929497" fill-rule="evenodd" stroke="none"/>
      <path d="M-30.25 -13.15 Q-29.7 -11.95 -28.75 -11.4 -27.8 -10.85 -26.85 -11.1 -25.95 -11.3 -25.6 -12.1 -25.15 -13.0 -25.55 -14.25 -26.0 -15.35 -27.0 -15.9 L-28.9 -16.2 Q-29.95 -16.0 -30.35 -15.25 -30.75 -14.4 -30.25 -13.15" fill="#000000" fill-rule="evenodd" stroke="none"/>
      <path d="M-29.65 -13.3 Q-29.25 -12.4 -28.5 -11.95 L-27.15 -11.75 Q-26.5 -11.9 -26.2 -12.5 -25.9 -13.2 -26.25 -14.1 -26.5 -14.95 -27.25 -15.3 L-28.65 -15.5 Q-29.35 -15.35 -29.65 -14.8 -30.05 -14.2 -29.65 -13.3" fill="#58595b" fill-rule="evenodd" stroke="none"/>
      <path d="M-27.3 -14.7 Q-27.75 -15.15 -28.3 -15.1 -28.95 -15.1 -29.25 -14.55 -28.3 -15.0 -27.45 -14.25 -26.65 -13.5 -26.85 -12.5 -26.4 -13.1 -26.55 -13.75 -26.75 -14.3 -27.3 -14.7" fill="#bbbdbf" fill-rule="evenodd" stroke="none"/>
      <path d="M-11.55 -2.85 Q-10.55 -3.1 -9.8 -4.1 -9.15 -5.05 -8.8 -6.55 -10.6 -4.85 -14.2 -5.0 -17.3 -5.2 -21.2 -6.75 -24.7 -8.15 -27.8 -10.2 -30.85 -12.3 -32.0 -14.1 -31.45 -12.3 -28.6 -10.1 -26.1 -8.15 -22.4 -6.25 -18.95 -4.5 -15.9 -3.55 -12.75 -2.55 -11.55 -2.85" fill="#6d6e70" fill-rule="evenodd" stroke="none"/>
      <path d="M-26.5 -16.7 Q-23.2 -16.55 -19.2 -15.35 -15.25 -14.1 -12.35 -12.35 -9.2 -10.4 -8.5 -8.45 -8.6 -10.5 -8.95 -12.0 -9.4 -13.7 -10.05 -14.2 -11.15 -15.0 -14.25 -15.85 L-20.95 -17.2 Q-24.85 -17.65 -27.55 -17.35 -30.7 -17.0 -31.6 -15.6 -30.1 -16.85 -26.5 -16.7" fill="#bbbdbf" fill-rule="evenodd" stroke="none"/>
      <path d="M11.35 5.4 Q11.85 4.0 11.7 -3.8 11.55 -11.75 10.8 -12.65 9.55 -14.25 1.3 -16.45 L-4.65 -17.85 -8.15 -18.3 Q-9.8 -18.05 -11.95 -17.05 -14.6 -15.75 -16.3 -13.95 -18.0 -12.15 -17.05 -5.15 L-16.05 -0.05 Q-15.4 2.2 -14.95 2.8 -14.15 3.8 -6.35 6.55 0.95 9.1 2.5 9.25 3.8 9.4 7.3 8.05 10.9 6.6 11.35 5.4" fill="#000000" fill-rule="evenodd" stroke="none"/>
      <path d="M0.95 -0.35 Q0.65 -6.95 1.15 -8.25 -0.55 -9.0 -7.15 -10.9 L-15.35 -13.3 Q-16.95 -11.65 -16.1 -5.25 L-15.2 -0.65 Q-14.65 1.45 -14.2 1.95 -13.45 2.9 -6.25 5.4 0.55 7.85 2.05 7.95 1.35 6.3 0.95 -0.35" fill="#929497" fill-rule="evenodd" stroke="none"/>
      <path d="M-11.1 -16.35 Q-13.25 -15.4 -14.55 -14.1 L-7.0 -12.05 1.7 -9.3 Q3.15 -10.75 5.3 -11.65 7.3 -12.55 9.15 -12.6 7.6 -13.8 0.55 -15.7 -6.3 -17.55 -7.75 -17.3 L-11.1 -16.35" fill="#bbbdbf" fill-rule="evenodd" stroke="none"/>
      <path d="M2.4 -8.1 Q2.15 -7.05 2.4 -0.15 2.75 6.95 3.25 7.5 4.05 8.3 7.1 6.85 L9.3 5.65 10.5 4.7 Q10.9 4.05 10.75 -3.35 10.65 -10.85 10.1 -11.4 9.4 -12.2 6.0 -10.65 L3.6 -9.3 Q2.5 -8.55 2.4 -8.1" fill="#808184" fill-rule="evenodd" stroke="none"/>
      <path d="M32.4 -1.3 Q31.6 -3.05 29.85 -3.5 L17.85 -6.75 7.9 -9.4 Q6.7 -9.6 5.9 -8.4 5.2 -7.3 5.1 -5.55 5.0 -3.85 5.6 -2.5 6.2 -0.95 7.4 -0.6 6.65 -0.55 6.2 0.0 5.75 0.55 5.75 1.35 5.8 2.2 6.25 2.9 6.8 3.7 7.75 4.05 L17.55 8.15 27.65 12.2 Q28.65 12.5 29.5 11.85 30.3 11.25 30.7 10.1 31.05 9.0 30.8 8.0 30.45 6.85 29.5 6.4 30.65 6.65 31.65 5.3 32.6 4.1 32.85 2.2 33.1 0.2 32.4 -1.3" fill="#000000" fill-rule="evenodd" stroke="none"/>
      <path d="M31.45 -0.7 Q30.9 -2.1 29.6 -2.55 L18.95 -5.6 8.6 -8.25 Q7.45 -8.5 6.8 -7.55 6.3 -6.7 6.25 -5.25 6.25 -3.85 6.75 -2.65 7.3 -1.4 8.15 -1.1 L18.7 2.3 28.7 5.4 Q29.65 5.65 30.5 4.6 31.3 3.65 31.55 2.15 31.9 0.55 31.45 -0.7" fill="#929497" fill-rule="evenodd" stroke="none"/>
      <path d="M7.25 0.35 Q6.85 0.6 6.8 1.2 6.75 1.8 7.15 2.4 7.55 3.05 8.4 3.35 L18.0 7.2 27.05 10.65 28.85 10.6 Q29.55 10.15 29.8 9.3 30.0 8.45 29.6 7.65 29.1 6.8 27.9 6.4 L18.05 3.25 8.45 0.25 7.25 0.35" fill="#929497" fill-rule="evenodd" stroke="none"/>
      <path d="M30.4 -0.4 Q30.0 -1.35 29.15 -1.5 28.3 -1.6 27.7 -0.8 27.2 -0.1 27.05 1.05 26.95 2.2 27.25 3.05 27.65 4.05 28.55 4.2 29.4 4.3 30.05 3.55 30.55 2.75 30.65 1.6 30.8 0.45 30.4 -0.4" fill="#000000" fill-rule="evenodd" stroke="none"/>
      <path d="M28.4 7.75 Q27.55 7.65 27.45 8.7 27.3 9.8 28.15 9.9 29.0 10.05 29.1 8.95 29.2 7.9 28.4 7.75" fill="#000000" fill-rule="evenodd" stroke="none"/>
      <path d="M28.0 -2.25 L18.95 -4.8 9.75 -7.4 Q8.3 -7.85 8.05 -7.1 8.0 -6.8 8.25 -6.45 8.55 -6.1 9.15 -5.9 L18.65 -3.05 26.55 -0.65 26.85 -1.3 28.0 -2.25" fill="#bbbdbf" fill-rule="evenodd" stroke="none"/>
      <path d="M26.6 3.9 Q26.0 3.05 26.15 2.05 L17.2 -0.5 8.2 -3.15 Q6.85 -3.55 7.3 -2.6 7.75 -1.65 8.6 -1.3 L27.15 4.5 26.6 3.9" fill="#6d6e70" fill-rule="evenodd" stroke="none"/>
      <path d="M8.8 3.3 L18.25 7.0 27.3 10.45 26.75 9.85 Q26.2 9.05 26.3 8.05 L17.4 4.95 Q9.25 2.05 8.5 1.85 7.2 1.35 7.55 2.15 7.9 2.95 8.8 3.3" fill="#6d6e70" fill-rule="evenodd" stroke="none"/>
    </g>
    <g id="sprite2" transform="matrix(1.0, 0.0, 0.0, 1.0, 32.4, 65.0)">
      <use ffdec:characterId="27" height="130.05" transform="matrix(1.0, 0.0, 0.0, 1.0, -32.4, -65.0)" width="64.75" xlink:href="#shape1"/>
    </g>
    <g id="shape1" transform="matrix(1.0, 0.0, 0.0, 1.0, 32.4, 65.0)">
      <path d="M10.65 9.8 L5.35 9.45 Q4.6 9.5 4.35 12.15 4.15 14.05 4.3 16.9 4.45 19.4 5.4 21.4 6.35 23.45 8.4 25.55 L11.7 28.8 Q13.0 30.2 13.5 31.25 14.1 32.35 14.1 33.75 14.1 35.1 13.55 37.35 13.35 38.2 12.45 38.85 L10.65 39.95 Q7.95 41.45 7.35 43.85 6.95 45.5 8.45 48.35 9.7 50.8 12.15 53.75 14.4 56.35 16.7 58.35 19.0 60.4 20.15 60.7 L22.75 60.85 26.0 60.2 Q29.95 58.8 30.3 55.8 30.5 53.65 29.45 51.1 28.7 49.3 27.0 46.75 L24.6 43.0 Q23.55 41.2 23.8 40.15 L24.8 37.3 25.95 33.4 Q27.1 28.3 24.85 26.0 20.6 21.55 18.7 17.05 L17.4 14.05 Q16.6 12.5 15.25 11.25 14.3 10.35 10.65 9.8" fill="#000000" fill-rule="evenodd" stroke="none"/>
      <path d="M10.75 10.6 L6.0 10.3 Q5.3 10.35 5.15 12.85 L5.25 17.4 Q5.4 19.75 6.4 21.65 7.4 23.4 9.55 25.4 L13.0 28.9 Q14.2 30.35 14.65 31.6 15.05 32.8 14.95 34.4 L14.3 38.0 Q14.1 38.8 13.5 39.3 L12.15 40.0 Q11.2 40.4 10.8 40.8 10.05 41.35 9.75 42.25 8.95 44.65 14.1 50.95 L18.15 55.35 Q20.15 57.25 21.0 57.5 22.7 58.0 25.8 57.0 29.0 55.95 29.3 54.5 29.6 53.15 28.5 50.95 L26.05 47.0 23.55 43.15 Q22.5 41.15 22.8 40.1 L23.8 37.35 24.95 33.6 Q26.1 28.75 24.05 26.45 19.05 20.85 17.65 17.15 L16.75 14.75 Q16.1 13.45 14.65 12.0 13.8 11.15 10.75 10.6" fill="#6d6e70" fill-rule="evenodd" stroke="none"/>
      <path d="M10.7 10.6 L6.0 10.3 7.5 11.85 9.5 14.0 Q10.25 14.75 10.7 16.0 L11.3 18.45 11.95 20.95 Q12.5 22.3 13.35 23.25 L16.7 27.05 Q17.95 28.65 18.4 29.85 18.9 31.1 18.85 32.6 L18.25 36.2 17.4 39.3 16.45 42.6 Q16.15 43.8 17.2 45.65 L19.45 49.15 Q20.95 51.45 21.4 53.1 21.95 55.45 21.0 57.5 22.7 58.0 25.8 57.0 29.0 55.95 29.3 54.5 29.6 53.15 28.5 50.95 L26.05 47.0 23.55 43.15 Q22.5 41.15 22.8 40.1 L23.8 37.35 24.95 33.65 Q26.1 28.75 24.05 26.45 19.0 20.75 17.5 16.9 L16.6 14.5 Q16.0 13.25 14.65 12.0 13.75 11.1 10.7 10.6" fill="#929497" fill-rule="evenodd" stroke="none"/>
      <path d="M5.85 16.65 Q5.65 17.9 6.2 18.9 6.7 19.85 7.6 20.25 8.5 20.65 9.25 20.25 10.05 19.85 10.3 18.6 10.55 17.5 9.95 16.5 9.45 15.6 8.5 15.15 L6.85 15.0 Q6.05 15.4 5.85 16.65" fill="#000000" fill-rule="evenodd" stroke="none"/>
      <path d="M6.7 18.6 Q7.05 19.25 7.7 19.55 8.35 19.85 8.9 19.55 9.5 19.25 9.7 18.35 9.9 17.55 9.45 16.8 L8.4 15.8 7.15 15.7 Q6.55 16.0 6.4 16.9 6.3 17.8 6.7 18.6" fill="#58595b" fill-rule="evenodd" stroke="none"/>
      <path d="M9.25 18.4 Q9.4 17.85 9.15 17.25 8.95 16.6 8.45 16.3 L7.4 16.15 Q8.4 16.4 8.75 17.5 9.05 18.55 8.35 19.2 9.05 19.0 9.25 18.4" fill="#bbbdbf" fill-rule="evenodd" stroke="none"/>
      <path d="M28.25 58.0 Q29.6 56.8 29.45 55.6 28.5 56.85 27.05 57.4 L25.8 57.75 25.75 59.4 Q27.2 58.9 28.25 58.0" fill="#bbbdbf" fill-rule="evenodd" stroke="none"/>
      <path d="M24.85 57.95 L22.6 58.4 20.75 58.3 20.1 60.0 21.5 60.2 24.85 59.75 24.9 58.55 24.85 57.95" fill="#bbbdbf" fill-rule="evenodd" stroke="none"/>
      <path d="M9.05 42.3 Q7.55 43.45 8.25 46.1 8.65 47.45 9.35 48.6 L10.45 47.1 9.65 45.4 Q8.9 43.45 9.05 42.3" fill="#bbbdbf" fill-rule="evenodd" stroke="none"/>
      <path d="M19.15 59.35 L19.9 57.75 Q18.35 56.85 16.85 55.3 L15.7 53.95 15.5 54.3 14.65 55.3 Q15.6 56.55 17.45 58.1 L19.15 59.35" fill="#bbbdbf" fill-rule="evenodd" stroke="none"/>
      <path d="M15.05 53.3 L13.5 51.45 10.85 47.85 9.85 49.4 11.05 51.2 Q12.5 53.25 13.95 54.7 L15.05 53.3" fill="#bbbdbf" fill-rule="evenodd" stroke="none"/>
      <path d="M16.55 16.55 L15.45 14.8 Q15.65 17.0 17.55 20.2 19.2 23.0 20.7 24.4 L21.5 25.35 Q21.6 25.65 21.3 25.9 L17.9 27.15 18.65 28.05 Q19.45 29.2 19.6 30.3 L21.2 29.35 Q22.85 28.45 23.2 28.5 23.7 28.6 23.65 31.6 23.55 34.85 22.8 38.3 24.35 34.9 24.7 32.2 25.35 28.0 23.15 26.0 20.25 23.3 18.0 19.25 L16.55 16.55" fill="#a6a8ab" fill-rule="evenodd" stroke="none"/>
      <path d="M18.05 -22.55 Q18.7 -18.2 20.2 -12.55 21.75 -6.65 23.4 -2.65 25.25 1.95 26.6 2.5 28.45 3.25 29.8 0.0 30.95 -2.75 31.65 -7.9 32.2 -12.3 32.35 -17.15 32.45 -21.6 32.1 -23.45 31.95 -24.6 29.95 -25.75 L25.5 -27.5 20.85 -28.35 Q18.6 -28.45 17.95 -27.8 17.35 -27.2 18.05 -22.55" fill="#000000" fill-rule="evenodd" stroke="none"/>
      <path d="M18.4 -21.65 Q19.05 -17.65 20.5 -12.5 22.0 -7.1 23.55 -3.35 25.3 0.9 26.5 1.5 27.85 2.1 28.9 -0.95 29.8 -3.55 30.4 -8.35 30.95 -12.5 31.05 -16.85 31.2 -21.05 30.95 -22.7 30.75 -23.75 28.95 -24.8 27.4 -25.7 25.05 -26.35 L20.9 -27.0 Q18.9 -27.1 18.3 -26.5 17.7 -25.9 18.4 -21.65" fill="#929497" fill-rule="evenodd" stroke="none"/>
      <path d="M29.8 -22.5 Q29.3 -24.25 25.15 -25.6 20.95 -26.95 16.2 -26.75 20.75 -26.1 23.9 -24.5 26.75 -23.1 27.2 -21.7 27.9 -19.8 28.0 -13.5 28.1 -6.35 27.2 0.75 29.25 -3.65 29.9 -12.45 L30.15 -18.75 29.8 -22.5" fill="#bbbdbf" fill-rule="evenodd" stroke="none"/>
      <path d="M-4.65 -31.0 L-14.65 -31.15 Q-27.8 -31.0 -29.25 -28.95 -30.2 -27.55 -31.0 -22.4 -31.7 -17.85 -32.1 -11.5 -32.45 -5.6 -32.4 -0.7 -32.35 4.35 -31.9 5.65 -31.5 6.8 -29.75 8.15 L-29.5 12.05 Q-29.3 14.0 -28.95 14.65 -28.5 15.5 -26.2 16.35 L-21.15 17.55 -16.1 17.85 Q-13.7 17.7 -13.15 16.85 -12.55 15.85 -12.3 14.75 -12.0 13.5 -12.25 12.3 L-6.25 11.4 Q-3.2 10.8 -2.45 10.2 -1.35 9.25 0.4 -10.7 L1.95 -30.45 -4.65 -31.0" fill="#000000" fill-rule="evenodd" stroke="none"/>
      <path d="M-28.25 -28.7 Q-30.35 -23.75 -31.15 -10.55 -31.5 -5.2 -31.45 -0.7 -31.4 3.85 -31.0 5.4 -30.75 6.5 -26.85 8.65 -23.1 10.7 -19.8 11.7 -20.4 1.15 -18.85 -12.75 L-17.6 -21.9 Q-17.0 -25.55 -16.65 -26.05 -21.4 -26.35 -25.3 -27.55 -27.25 -28.15 -28.25 -28.7" fill="#808184" fill-rule="evenodd" stroke="none"/>
      <path d="M-10.4 10.95 Q-10.9 8.4 -12.1 4.85 -14.55 -2.25 -18.05 -7.2 -19.1 -4.5 -19.05 3.85 L-18.8 11.7 -16.15 11.55 -10.4 10.95" fill="#58595b" fill-rule="evenodd" stroke="none"/>
      <path d="M-27.5 -29.05 L-24.05 -28.05 Q-19.9 -27.0 -16.4 -26.95 L-11.3 -27.2 Q-5.8 -27.75 -4.0 -29.05 -5.4 -30.35 -13.45 -30.25 L-27.5 -29.05" fill="#929497" fill-rule="evenodd" stroke="none"/>
      <path d="M4.7 -29.75 Q-2.15 -30.2 -7.4 -29.8 -13.35 -29.35 -15.8 -27.8 -17.0 -27.05 -17.05 -20.0 -17.05 -13.7 -16.15 -4.8 -15.25 3.95 -14.0 10.35 -12.6 17.25 -11.45 17.85 -7.85 19.65 -4.75 22.0 -0.45 25.25 0.45 27.9 1.05 29.85 4.3 29.9 L6.95 29.7 9.0 29.4 Q9.9 29.3 11.2 27.25 12.3 25.45 12.75 23.9 12.95 23.3 14.1 23.2 L16.55 23.25 19.0 23.25 Q20.2 23.05 20.35 22.3 24.4 5.25 25.35 -9.3 25.8 -16.25 25.3 -20.6 24.8 -25.15 23.3 -26.2 21.7 -27.3 16.3 -28.3 L4.7 -29.75" fill="#000000" fill-rule="evenodd" stroke="none"/>
      <path d="M-14.45 -8.7 Q-15.0 -4.95 -14.45 1.25 -13.9 6.7 -12.8 11.5 -11.65 16.25 -10.8 16.65 -6.2 19.05 -3.45 21.05 0.4 23.9 1.25 26.5 1.9 28.35 4.5 28.45 L6.65 28.3 8.45 28.0 Q9.3 27.9 10.45 25.95 11.4 24.3 11.85 22.7 12.0 22.15 12.9 22.0 L14.85 21.95 17.0 21.85 Q18.1 21.7 18.6 21.15 19.1 20.55 20.1 16.7 L22.0 8.1 Q24.3 -3.9 24.05 -8.4 23.3 -7.3 21.9 -6.35 20.65 -5.5 19.6 -5.15 L14.1 -4.1 8.75 -3.85 Q-0.1 -5.95 -11.45 -12.9 -13.7 -13.1 -14.45 -8.7" fill="#929497" fill-rule="evenodd" stroke="none"/>
      <path d="M15.4 -26.8 Q15.95 -23.8 15.55 -19.95 L15.0 -16.65 Q14.05 -18.55 12.5 -20.85 9.45 -25.45 6.45 -27.2 1.85 -29.0 -4.75 -28.95 -11.5 -28.9 -15.65 -26.85 -16.3 -24.0 -6.1 -11.45 -4.75 -10.05 1.55 -7.45 7.7 -4.9 9.5 -4.9 L14.4 -5.35 19.05 -6.05 Q19.95 -6.25 21.95 -8.05 24.05 -9.95 24.3 -11.1 L24.45 -13.75 24.3 -18.35 Q23.9 -24.7 22.8 -25.4 21.5 -26.3 18.3 -26.65 L15.4 -26.8" fill="#929497" fill-rule="evenodd" stroke="none"/>
      <path d="M-31.0 5.4 Q-30.75 6.5 -26.85 8.65 -23.1 10.7 -19.8 11.7 L-19.95 5.35 Q-25.0 0.75 -27.3 -7.9 -29.1 -14.65 -29.4 -24.7 -30.85 -18.1 -31.3 -7.5 -31.75 2.45 -31.0 5.4" fill="#6d6e70" fill-rule="evenodd" stroke="none"/>
      <path d="M14.6 -26.1 L9.5 -26.45 11.25 -24.6 Q13.25 -22.25 14.45 -19.65 L14.7 -24.5 14.6 -26.1" fill="#929497" fill-rule="evenodd" stroke="none"/>
      <path d="M7.85 -21.8 L4.45 -19.9 7.7 -17.5 Q11.4 -14.7 13.55 -12.55 12.65 -15.45 10.15 -18.9 L7.85 -21.8" fill="#404041" fill-rule="evenodd" stroke="none"/>
      <path d="M18.65 -21.55 L18.45 -19.15 17.3 -12.7 Q18.7 -14.15 20.35 -17.2 L21.7 -19.9 18.65 -21.55" fill="#404041" fill-rule="evenodd" stroke="none"/>
      <path d="M7.85 -21.8 L7.4 -20.8 9.2 -17.95 Q11.4 -14.7 13.55 -12.55 12.65 -15.45 10.15 -18.9 L7.85 -21.8" fill="#58595b" fill-rule="evenodd" stroke="none"/>
      <path d="M20.6 -19.5 L20.35 -19.3 19.7 -18.45 Q18.55 -16.65 17.3 -12.7 18.7 -14.15 20.35 -17.2 L21.7 -19.9 20.6 -19.5" fill="#58595b" fill-rule="evenodd" stroke="none"/>
      <path d="M7.4 -20.8 L5.2 -19.55 7.4 -17.95 12.1 -14.15 Q10.9 -16.6 9.0 -18.95 L7.4 -20.8" fill="#00dcec" fill-rule="evenodd" stroke="none"/>
      <path d="M18.75 -20.65 L18.65 -19.15 17.75 -14.1 19.9 -17.7 20.8 -19.6 18.75 -20.65" fill="#00dcec" fill-rule="evenodd" stroke="none"/>
      <path d="M-3.7 -14.9 Q-4.15 -15.45 -5.9 -15.45 L-9.1 -15.2 -6.1 -11.45 Q-4.75 -10.05 1.55 -7.45 7.7 -4.9 9.5 -4.9 L14.4 -5.35 19.05 -6.05 Q19.95 -6.25 21.95 -8.05 24.05 -9.95 24.3 -11.1 L24.4 -11.35 Q23.6 -10.3 21.8 -8.95 20.1 -7.75 19.25 -7.45 L14.5 -6.9 Q10.75 -6.65 9.25 -6.8 7.9 -6.95 2.4 -10.45 -2.85 -13.85 -3.7 -14.9" fill="#6d6e70" fill-rule="evenodd" stroke="none"/>
      <path d="M12.65 -26.25 L13.5 -24.1 Q14.15 -22.35 14.45 -19.65 L14.7 -24.5 14.6 -26.1 12.65 -26.25" fill="#bbbdbf" fill-rule="evenodd" stroke="none"/>
      <path d="M-4.2 -8.35 Q-8.75 -11.2 -12.45 -14.15 -13.35 -12.9 -13.65 -8.15 -13.95 -3.75 -13.65 1.85 -13.35 7.45 -12.6 11.55 -11.8 15.95 -10.8 16.65 L-7.25 18.95 -3.6 21.25 Q0.45 24.05 1.25 26.5 1.9 28.35 4.5 28.45 L6.65 28.3 8.45 28.0 Q9.3 27.9 10.45 25.95 11.4 24.3 11.85 22.7 12.0 22.2 13.2 21.95 L15.9 21.65 18.85 21.4 Q20.35 21.15 21.0 20.6 L14.4 20.15 11.1 20.35 Q10.2 22.75 9.4 23.25 L6.8 23.6 Q5.4 23.65 5.7 19.75 L7.0 10.95 Q8.05 4.75 8.1 1.85 8.1 -2.5 6.3 -3.1 1.8 -4.6 -4.2 -8.35" fill="#6d6e70" fill-rule="evenodd" stroke="none"/>
      <path d="M-0.05 -23.15 Q-0.6 -24.7 -2.95 -26.05 -5.1 -27.3 -8.05 -28.0 L-13.65 -28.55 Q-16.5 -28.35 -17.95 -27.2 -18.75 -26.55 -19.3 -21.3 -19.9 -15.85 -19.7 -9.9 -19.45 -2.95 -18.2 1.4 -16.65 6.6 -13.9 7.05 -10.8 7.5 -7.8 3.4 -5.3 -0.05 -3.15 -6.25 -1.35 -11.45 -0.45 -16.75 0.45 -21.8 -0.05 -23.15" fill="#000000" fill-rule="evenodd" stroke="none"/>
      <path d="M-8.4 -27.0 L-13.5 -27.45 Q-16.05 -27.25 -17.4 -26.15 -18.15 -25.55 -18.5 -20.7 -18.9 -15.8 -18.6 -10.2 -18.25 -3.8 -17.15 0.2 -15.85 4.95 -13.7 5.3 -11.0 5.7 -8.3 1.9 -6.05 -1.3 -4.1 -6.95 -2.4 -11.8 -1.5 -16.65 -0.7 -21.25 -1.15 -22.55 -1.65 -23.95 -3.75 -25.2 -5.7 -26.35 -8.4 -27.0" fill="#929497" fill-rule="evenodd" stroke="none"/>
      <path d="M-7.55 -20.15 Q-10.55 -20.3 -13.7 -21.4 L-16.25 -22.55 -16.4 -19.05 Q-13.85 -17.5 -10.6 -16.9 L-8.6 -16.65 -7.85 -16.6 -7.55 -20.15" fill="#58595b" fill-rule="evenodd" stroke="none"/>
      <path d="M-7.75 -20.05 Q-10.75 -20.2 -13.8 -21.3 L-16.25 -22.45 -16.4 -19.05 Q-14.95 -20.25 -11.35 -18.95 L-8.95 -17.95 -8.0 -17.4 -7.75 -20.05" fill="#404041" fill-rule="evenodd" stroke="none"/>
      <path d="M-7.95 -19.85 Q-10.85 -20.0 -13.4 -20.9 L-15.4 -21.8 -15.55 -19.5 Q-13.2 -18.3 -10.45 -17.8 L-8.15 -17.55 -7.95 -19.85" fill="#00dcec" fill-rule="evenodd" stroke="none"/>
      <path d="M-6.7 -25.55 Q-11.1 -27.15 -15.75 -26.5 -11.3 -25.85 -8.55 -24.3 -6.25 -23.05 -5.75 -21.6 -5.15 -19.95 -6.05 -12.4 -6.9 -5.1 -8.1 -0.25 -5.25 -4.8 -3.3 -12.85 -2.5 -16.1 -2.2 -18.7 -1.85 -21.35 -2.15 -22.25 -2.4 -23.1 -3.6 -24.0 -4.85 -24.9 -6.7 -25.55" fill="#bbbdbf" fill-rule="evenodd" stroke="none"/>
      <path d="M-9.85 -14.0 Q-10.85 -14.15 -12.45 -14.95 -12.65 -12.75 -12.45 -10.3 L-12.2 -8.35 -11.55 -7.9 Q-10.75 -7.45 -10.15 -7.35 L-10.15 -9.7 -9.85 -14.0" fill="#58595b" fill-rule="evenodd" stroke="none"/>
      <path d="M-9.85 -14.0 Q-10.85 -14.15 -12.45 -14.95 -12.65 -12.75 -12.45 -10.3 L-12.2 -8.35 -11.55 -8.75 Q-10.8 -9.0 -10.2 -8.15 L-10.15 -9.4 -9.85 -14.0" fill="#404041" fill-rule="evenodd" stroke="none"/>
      <path d="M-10.05 -13.85 L-11.8 -14.5 -11.75 -10.3 -11.55 -8.8 -11.25 -8.6 Q-10.9 -8.35 -10.35 -8.25 L-10.3 -10.5 -10.05 -13.85" fill="#00dcec" fill-rule="evenodd" stroke="none"/>
      <path d="M22.65 -24.5 Q22.35 -25.1 21.2 -25.45 L17.9 -26.05 Q21.0 -25.05 22.3 -20.65 L23.2 -16.45 23.9 -11.95 23.9 -16.8 Q23.7 -22.1 22.65 -24.5" fill="#bbbdbf" fill-rule="evenodd" stroke="none"/>
      <path d="M-20.8 -64.3 Q-22.3 -63.4 -22.4 -61.8 -22.55 -60.0 -20.7 -58.0 L-22.1 -29.45 Q-21.55 -29.0 -20.75 -28.8 -19.1 -28.3 -17.85 -29.4 -17.55 -32.25 -17.2 -43.15 L-16.8 -57.6 Q-15.3 -58.2 -14.65 -59.65 -14.0 -61.25 -14.95 -62.9 -15.9 -64.55 -17.75 -64.9 -19.4 -65.2 -20.8 -64.3" fill="#000000" fill-rule="evenodd" stroke="none"/>
      <path d="M-19.8 -59.35 L-21.25 -30.2 -20.5 -29.7 Q-19.55 -29.35 -18.6 -30.1 -18.3 -33.45 -17.95 -46.55 L-17.65 -58.95 -19.8 -59.35" fill="#6d6e70" fill-rule="evenodd" stroke="none"/>
      <path d="M-18.5 -58.95 L-19.5 -30.55 -19.4 -30.25 Q-19.3 -30.05 -19.0 -30.35 -18.7 -33.7 -18.3 -46.65 L-17.95 -58.9 -18.5 -58.95" fill="#bbbdbf" fill-rule="evenodd" stroke="none"/>
      <path d="M-15.75 -62.6 Q-16.45 -63.8 -17.7 -64.1 L-19.95 -63.85 Q-21.05 -63.25 -21.4 -62.2 -21.8 -61.0 -21.05 -59.75 -20.35 -58.5 -19.05 -58.2 L-16.85 -58.45 Q-15.75 -59.0 -15.4 -60.05 -15.0 -61.25 -15.75 -62.6" fill="#58595b" fill-rule="evenodd" stroke="none"/>
      <path d="M-28.8 8.6 L-28.7 11.15 Q-28.5 13.8 -28.05 14.4 -27.35 15.2 -24.45 16.05 L-24.55 12.8 -24.45 10.9 -26.05 10.2 -28.8 8.6" fill="#bbbdbf" fill-rule="evenodd" stroke="none"/>
      <path d="M-23.35 11.45 L-23.6 13.9 Q-23.65 15.75 -23.3 15.95 -22.4 16.55 -20.6 16.75 L-19.0 16.8 -18.7 12.65 -20.8 12.4 -23.35 11.45" fill="#bbbdbf" fill-rule="evenodd" stroke="none"/>
      <path d="M-13.9 16.55 Q-13.55 16.25 -13.35 15.15 -13.05 13.8 -13.55 12.45 L-14.7 12.7 -17.55 12.75 Q-17.45 13.5 -17.7 15.3 L-18.0 16.9 -16.3 17.0 Q-14.5 17.0 -13.9 16.55" fill="#bbbdbf" fill-rule="evenodd" stroke="none"/>
      <path d="M-17.2 -58.95 Q-16.15 -59.45 -16.0 -60.5 -15.8 -61.4 -16.35 -62.3 -16.9 -63.2 -17.85 -63.5 -18.95 -63.8 -20.05 -63.15 -18.15 -63.35 -17.15 -62.05 -16.15 -60.7 -17.2 -58.95" fill="#bbbdbf" fill-rule="evenodd" stroke="none"/>
      <path d="M-13.7 5.3 L-12.0 5.15 Q-10.95 4.9 -10.35 4.3 -14.35 1.2 -16.15 -5.8 -18.1 -13.15 -17.8 -25.45 -18.4 -23.65 -18.65 -18.8 -18.85 -13.75 -18.5 -8.65 -18.05 -2.8 -16.95 0.8 -15.7 5.0 -13.7 5.3" fill="#6d6e70" fill-rule="evenodd" stroke="none"/>
      <path d="M-14.05 -8.55 L-14.05 -10.9 -13.8 -15.2 Q-14.75 -15.4 -16.35 -16.15 -16.6 -13.95 -16.35 -11.5 L-16.1 -9.55 -15.45 -9.1 Q-14.65 -8.65 -14.05 -8.55" fill="#58595b" fill-rule="evenodd" stroke="none"/>
      <path d="M-14.1 -9.4 L-14.1 -10.6 -13.8 -15.2 Q-14.75 -15.4 -16.35 -16.15 -16.6 -13.95 -16.35 -11.5 L-16.1 -9.55 -15.45 -9.95 Q-14.7 -10.2 -14.1 -9.4" fill="#404041" fill-rule="evenodd" stroke="none"/>
      <path d="M-15.2 -9.8 L-14.25 -9.45 -14.25 -11.7 -13.95 -15.05 -15.7 -15.7 Q-15.85 -13.5 -15.65 -11.55 L-15.5 -10.0 -15.2 -9.8" fill="#00dcec" fill-rule="evenodd" stroke="none"/>
      <path d="M-1.8 11.5 Q-2.85 10.55 -6.75 9.95 L-12.45 9.55 Q-13.3 9.65 -13.55 12.45 -13.75 14.55 -13.6 17.6 -13.45 20.3 -12.45 22.45 -11.4 24.7 -9.15 26.95 L-5.65 30.45 Q-4.25 31.95 -3.7 33.05 -3.05 34.3 -3.05 35.8 -3.05 37.2 -3.65 39.7 -3.85 40.55 -4.8 41.25 L-6.8 42.45 Q-8.15 43.2 -8.9 44.0 -9.9 45.1 -10.3 46.65 -10.8 48.45 -9.15 51.55 -7.75 54.2 -5.1 57.35 -2.75 60.15 -0.25 62.35 2.25 64.5 3.45 64.8 L6.3 65.0 9.8 64.3 Q14.05 62.8 14.4 59.55 14.65 57.2 13.5 54.45 12.7 52.55 10.85 49.8 L8.25 45.75 Q7.15 43.8 7.4 42.7 L8.45 39.6 9.7 35.45 Q10.95 29.95 8.55 27.45 3.95 22.6 1.9 17.75 L0.5 14.55 Q-0.35 12.85 -1.8 11.5" fill="#000000" fill-rule="evenodd" stroke="none"/>
      <path d="M-2.45 12.3 Q-3.35 11.4 -6.65 10.85 L-11.75 10.5 Q-12.55 10.55 -12.7 13.25 L-12.6 18.15 Q-12.45 20.7 -11.35 22.7 -10.25 24.65 -7.95 26.8 -5.45 29.1 -4.25 30.5 -2.95 32.1 -2.45 33.45 -2.05 34.75 -2.15 36.45 -2.25 37.7 -2.85 40.35 -3.05 41.25 -3.7 41.75 L-5.15 42.55 -6.65 43.35 Q-7.4 44.0 -7.75 44.95 -8.2 46.3 -6.75 49.05 -5.5 51.4 -3.05 54.35 L1.3 59.05 Q3.5 61.15 4.35 61.4 6.25 61.9 9.55 60.85 13.0 59.7 13.3 58.15 13.65 56.65 12.5 54.35 11.75 52.85 9.8 50.05 L7.15 45.9 Q6.0 43.8 6.35 42.6 L7.4 39.65 8.65 35.65 Q9.9 30.35 7.65 27.9 2.25 21.85 0.8 17.85 L-0.2 15.25 Q-0.85 13.9 -2.45 12.3" fill="#6d6e70" fill-rule="evenodd" stroke="none"/>
      <path d="M-2.45 12.3 Q-3.4 11.35 -6.7 10.8 L-11.75 10.5 -10.15 12.15 -8.0 14.5 Q-7.2 15.3 -6.75 16.65 L-6.1 19.25 -5.35 21.95 Q-4.8 23.45 -3.85 24.45 L-0.25 28.55 Q1.1 30.25 1.6 31.6 2.1 32.95 2.05 34.55 L1.45 38.4 0.55 41.75 -0.5 45.35 Q-0.85 46.6 0.25 48.6 L2.75 52.4 Q4.35 54.85 4.8 56.65 5.45 59.15 4.35 61.4 6.25 61.9 9.55 60.85 13.0 59.7 13.3 58.15 13.65 56.65 12.5 54.35 11.75 52.85 9.8 50.05 L7.15 45.9 Q6.0 43.8 6.35 42.6 L7.4 39.65 8.65 35.65 Q9.9 30.4 7.65 27.9 2.2 21.75 0.65 17.6 L-0.35 15.0 Q-1.0 13.7 -2.45 12.3" fill="#929497" fill-rule="evenodd" stroke="none"/>
      <path d="M-11.95 17.35 Q-12.15 18.7 -11.55 19.8 -11.0 20.8 -10.05 21.2 L-8.3 21.25 Q-7.4 20.75 -7.15 19.45 -6.85 18.25 -7.5 17.15 -8.05 16.2 -9.05 15.7 L-10.85 15.6 Q-11.75 16.0 -11.95 17.35" fill="#000000" fill-rule="evenodd" stroke="none"/>
      <path d="M-11.35 17.6 Q-11.5 18.6 -11.05 19.4 L-9.95 20.45 -8.65 20.5 Q-8.0 20.15 -7.8 19.15 -7.6 18.3 -8.05 17.5 -8.45 16.8 -9.2 16.4 L-10.55 16.35 Q-11.2 16.6 -11.35 17.6" fill="#58595b" fill-rule="evenodd" stroke="none"/>
      <path d="M-8.4 17.95 Q-8.6 17.3 -9.15 16.95 L-10.3 16.85 Q-9.2 17.1 -8.85 18.25 -8.5 19.4 -9.25 20.1 -8.5 19.85 -8.3 19.2 -8.1 18.65 -8.4 17.95" fill="#bbbdbf" fill-rule="evenodd" stroke="none"/>
      <path d="M9.55 61.65 L9.5 63.45 Q11.05 62.9 12.25 61.9 13.7 60.65 13.5 59.35 12.5 60.7 10.9 61.3 L9.55 61.65" fill="#bbbdbf" fill-rule="evenodd" stroke="none"/>
      <path d="M8.55 61.85 Q7.7 62.3 6.1 62.35 L4.1 62.25 3.4 64.05 4.95 64.3 8.55 63.85 8.6 62.5 8.55 61.85" fill="#bbbdbf" fill-rule="evenodd" stroke="none"/>
      <path d="M-8.5 45.0 Q-10.15 46.25 -9.35 49.1 -8.95 50.55 -8.2 51.8 L-7.0 50.2 -7.85 48.35 Q-8.65 46.2 -8.5 45.0" fill="#bbbdbf" fill-rule="evenodd" stroke="none"/>
      <path d="M-0.05 59.0 L-1.35 57.55 -1.55 57.9 -2.45 59.0 Q-1.45 60.4 0.6 62.0 L2.4 63.4 3.2 61.65 Q1.55 60.7 -0.05 59.0" fill="#bbbdbf" fill-rule="evenodd" stroke="none"/>
      <path d="M-2.0 56.85 L-3.7 54.85 -6.6 51.0 -7.6 52.65 -6.35 54.6 -3.2 58.35 -2.0 56.85" fill="#bbbdbf" fill-rule="evenodd" stroke="none"/>
      <path d="M-0.4 17.2 Q-1.15 15.8 -1.6 15.35 -1.4 17.7 0.7 21.2 2.45 24.15 4.1 25.7 L4.9 26.7 Q5.05 27.05 4.7 27.3 L3.4 27.85 1.05 28.65 1.9 29.65 Q2.7 30.9 2.9 32.05 L4.6 31.05 Q6.35 30.05 6.8 30.1 7.3 30.2 7.25 33.45 7.15 36.95 6.35 40.7 8.0 37.0 8.4 34.1 9.05 29.6 6.7 27.4 3.6 24.5 1.15 20.15 L-0.4 17.2" fill="#a6a8ab" fill-rule="evenodd" stroke="none"/>
      <path d="M-7.15 -48.7 Q-9.3 -44.35 -9.35 -39.75 -9.45 -35.0 -7.25 -31.65 -5.3 -28.65 -1.15 -26.75 2.8 -25.0 7.55 -24.65 12.3 -24.35 16.25 -25.6 20.45 -26.95 22.4 -29.75 25.3 -33.9 25.45 -39.25 25.6 -44.2 23.35 -48.85 21.1 -53.5 17.2 -56.3 13.05 -59.25 8.25 -59.15 3.1 -59.05 -1.1 -56.0 -4.9 -53.25 -7.15 -48.7" fill="#000000" fill-rule="evenodd" stroke="none"/>
      <path d="M-6.25 -48.3 Q-8.25 -44.2 -8.35 -39.85 -8.4 -35.4 -6.35 -32.2 -4.55 -29.4 -0.6 -27.6 3.1 -25.95 7.55 -25.65 12.05 -25.35 15.75 -26.55 19.7 -27.8 21.55 -30.45 24.3 -34.4 24.45 -39.4 24.55 -44.05 22.45 -48.45 20.3 -52.85 16.7 -55.45 12.8 -58.25 8.25 -58.15 3.35 -58.05 -0.55 -55.2 -4.15 -52.6 -6.25 -48.3" fill="#929497" fill-rule="evenodd" stroke="none"/>
      <path d="M-2.05 -53.95 Q-5.1 -51.15 -6.8 -47.15 -8.4 -43.25 -8.35 -39.25 -8.25 -35.15 -6.35 -32.2 -3.95 -28.45 1.95 -26.65 7.55 -25.0 13.15 -25.95 6.1 -26.25 1.75 -30.25 -2.2 -33.85 -3.1 -39.4 -3.95 -44.75 -1.75 -49.8 0.55 -55.05 5.4 -57.85 1.2 -56.95 -2.05 -53.95" fill="#6d6e70" fill-rule="evenodd" stroke="none"/>
      <path d="M17.95 -45.35 Q19.15 -40.9 18.3 -36.35 17.4 -31.35 14.1 -26.85 L16.65 -27.5 Q20.85 -30.05 22.3 -34.95 23.65 -39.45 22.25 -44.5 20.9 -49.55 17.3 -53.0 13.45 -56.75 8.25 -57.35 11.6 -55.9 14.15 -52.7 16.8 -49.45 17.95 -45.35" fill="#bbbdbf" fill-rule="evenodd" stroke="none"/>
      <path d="M8.8 -47.1 Q6.15 -48.1 3.4 -48.4 L3.4 -43.65 Q5.5 -43.4 8.25 -42.35 13.75 -40.3 17.0 -36.6 18.85 -39.4 20.4 -40.85 22.15 -42.5 24.2 -42.95 23.8 -45.15 23.05 -47.05 20.8 -46.2 19.2 -44.85 L16.6 -41.95 Q13.45 -45.4 8.8 -47.1" fill="#000000" fill-rule="evenodd" stroke="none"/>
      <path d="M4.15 -47.4 L4.25 -44.45 8.45 -43.35 Q13.4 -41.55 16.95 -38.05 19.8 -42.55 23.3 -43.65 L22.95 -44.95 22.55 -46.15 Q20.35 -45.3 18.95 -43.95 L16.65 -41.1 Q13.5 -44.55 9.2 -46.2 6.8 -47.1 4.15 -47.4" fill="#00dcec" fill-rule="evenodd" stroke="none"/>
      <path d="M15.5 -31.65 Q18.1 -31.55 20.3 -32.5 L20.9 -34.15 20.35 -33.9 18.8 -33.45 Q16.1 -32.9 13.2 -33.55 L13.3 -31.9 15.5 -31.65" fill="#58595b" fill-rule="evenodd" stroke="none"/>
      <path d="M15.1 -29.45 Q17.4 -29.5 19.15 -30.3 L20.1 -31.85 19.6 -31.6 18.25 -31.15 Q15.85 -30.6 13.25 -31.25 L13.15 -29.6 15.1 -29.45" fill="#58595b" fill-rule="evenodd" stroke="none"/>
      <path d="M18.75 -29.65 L18.3 -29.45 17.1 -29.0 12.95 -28.85 12.3 -27.5 14.05 -27.35 Q16.1 -27.4 17.55 -28.2 L18.75 -29.65" fill="#58595b" fill-rule="evenodd" stroke="none"/>
      <path d="M15.35 -32.1 Q17.75 -32.0 19.85 -32.85 L20.2 -33.75 19.75 -33.55 18.35 -33.2 13.3 -33.45 13.4 -32.4 15.35 -32.1" fill="#231f20" fill-rule="evenodd" stroke="none"/>
      <path d="M18.8 -30.6 L19.25 -31.35 17.65 -30.95 13.35 -31.05 13.3 -30.1 15.05 -29.95 Q17.15 -29.9 18.8 -30.6" fill="#231f20" fill-rule="evenodd" stroke="none"/>
      <path d="M17.55 -29.05 L16.35 -28.7 Q14.75 -28.4 13.0 -28.7 L12.65 -28.0 14.15 -27.85 Q15.9 -27.85 17.15 -28.5 L17.55 -29.05" fill="#231f20" fill-rule="evenodd" stroke="none"/>
    </g>
    <g id="sprite3" transform="matrix(1.0, 0.0, 0.0, 1.0, 41.05, 20.45)">
      <use ffdec:characterId="29" height="45.05" transform="matrix(1.0, 0.0, 0.0, 1.0, -41.05, -20.45)" width="81.55" xlink:href="#shape2"/>
    </g>
    <g id="shape2" transform="matrix(1.0, 0.0, 0.0, 1.0, 41.05, 20.45)">
      <path d="M-9.7 -17.6 Q-11.2 -18.55 -16.15 -19.35 L-26.55 -20.35 -36.45 -19.6 Q-40.8 -18.6 -41.05 -16.25 -41.35 -13.9 -37.25 -10.5 -33.7 -7.6 -27.75 -4.8 -22.15 -2.05 -17.1 -0.7 -11.85 0.7 -9.95 -0.05 -8.05 -0.85 -7.25 -3.5 -6.5 -5.8 -6.7 -9.0 -6.85 -11.95 -7.75 -14.45 -8.55 -17.0 -9.7 -17.6" fill="#000000" fill-rule="evenodd" stroke="none"/>
      <path d="M-10.45 -16.7 Q-11.85 -17.55 -16.55 -18.25 L-26.45 -19.15 -35.75 -18.55 Q-39.85 -17.7 -39.95 -15.75 -40.05 -14.0 -36.2 -11.1 -32.7 -8.55 -27.3 -5.9 -22.05 -3.3 -17.5 -1.9 -12.65 -0.4 -10.85 -1.0 -9.3 -1.5 -8.6 -3.85 -7.9 -5.9 -8.0 -8.8 -8.1 -11.55 -8.8 -13.75 -9.45 -16.1 -10.45 -16.7" fill="#929497" fill-rule="evenodd" stroke="none"/>
      <path d="M-32.2 -15.55 Q-32.75 -16.75 -33.95 -17.25 L-36.05 -17.35 Q-37.15 -17.0 -37.55 -16.2 -37.95 -15.2 -37.25 -13.85 -36.5 -12.55 -35.4 -12.05 L-33.3 -11.9 Q-32.3 -12.25 -31.95 -13.15 -31.55 -14.2 -32.2 -15.55" fill="#000000" fill-rule="evenodd" stroke="none"/>
      <path d="M-32.9 -15.3 Q-33.25 -16.15 -34.15 -16.55 L-35.7 -16.6 -36.8 -15.75 Q-37.1 -15.0 -36.6 -14.05 -36.05 -13.1 -35.15 -12.75 L-33.65 -12.65 Q-32.9 -12.85 -32.7 -13.55 -32.4 -14.3 -32.9 -15.3" fill="#58595b" fill-rule="evenodd" stroke="none"/>
      <path d="M-33.4 -13.45 Q-33.0 -14.15 -33.25 -14.85 -33.5 -15.5 -34.1 -15.95 L-35.3 -16.2 Q-36.05 -16.15 -36.3 -15.5 L-34.3 -15.35 Q-33.3 -14.6 -33.4 -13.45" fill="#bbbdbf" fill-rule="evenodd" stroke="none"/>
      <path d="M-11.25 -1.65 Q-10.2 -2.0 -9.5 -3.2 -8.85 -4.3 -8.6 -6.0 -10.45 -3.95 -15.05 -4.25 -19.05 -4.45 -24.45 -6.3 -29.3 -8.0 -33.55 -10.4 -37.75 -12.85 -39.3 -14.7 -38.45 -12.8 -34.45 -10.25 -30.9 -7.95 -25.75 -5.65 -20.9 -3.5 -16.85 -2.35 -12.55 -1.15 -11.25 -1.65" fill="#6d6e70" fill-rule="evenodd" stroke="none"/>
      <path d="M-8.65 -10.1 Q-8.95 -12.3 -9.5 -13.95 -10.15 -15.8 -10.85 -16.3 -12.2 -17.05 -16.4 -17.85 L-25.35 -18.85 Q-30.6 -19.15 -34.1 -18.65 -38.15 -18.05 -38.9 -16.4 -37.45 -17.95 -32.8 -18.05 -28.6 -18.15 -23.2 -17.05 -17.9 -15.9 -13.95 -14.1 -9.6 -12.15 -8.65 -10.1" fill="#bbbdbf" fill-rule="evenodd" stroke="none"/>
      <path d="M-15.35 -4.9 Q-14.65 -2.0 -13.75 0.6 -12.75 3.1 -12.25 3.65 -11.25 4.65 -2.35 6.9 L7.75 9.0 Q9.25 9.05 12.9 7.2 16.75 5.2 17.1 3.8 17.55 2.2 16.55 -6.4 15.5 -15.2 14.65 -16.1 13.05 -17.7 3.75 -19.3 L-3.0 -20.25 -6.9 -20.4 Q-8.7 -19.95 -11.0 -18.6 -13.75 -16.9 -15.5 -14.7 -17.15 -12.55 -15.35 -4.9" fill="#000000" fill-rule="evenodd" stroke="none"/>
      <path d="M-14.35 -14.05 Q-15.95 -12.05 -14.3 -5.1 L-12.85 -0.1 -11.45 2.65 Q-10.6 3.65 -2.3 5.7 5.5 7.6 7.05 7.6 6.15 5.9 5.05 -1.45 4.05 -8.75 4.4 -10.2 L-5.0 -12.25 -14.35 -14.05" fill="#929497" fill-rule="evenodd" stroke="none"/>
      <path d="M-9.95 -17.85 Q-12.2 -16.6 -13.55 -15.05 L-5.0 -13.55 4.9 -11.4 Q6.4 -13.15 8.6 -14.4 10.8 -15.6 12.85 -15.8 11.0 -17.05 2.95 -18.4 L-6.4 -19.3 Q-8.0 -18.95 -9.95 -17.85" fill="#bbbdbf" fill-rule="evenodd" stroke="none"/>
      <path d="M13.95 -14.7 Q13.1 -15.45 9.5 -13.35 L7.0 -11.6 Q5.85 -10.65 5.8 -10.2 5.65 -9.0 6.7 -1.4 7.75 6.4 8.45 7.0 9.35 7.8 12.6 5.85 L14.85 4.3 16.1 3.15 Q16.5 2.4 15.55 -5.85 14.6 -14.1 13.95 -14.7" fill="#808184" fill-rule="evenodd" stroke="none"/>
      <path d="M39.65 -5.8 Q38.65 -7.7 36.65 -8.0 L23.05 -10.35 11.8 -12.2 Q10.4 -12.25 9.65 -10.85 9.0 -9.6 9.05 -7.65 9.15 -5.75 9.95 -4.3 10.8 -2.7 12.15 -2.35 11.3 -2.3 10.85 -1.6 10.45 -0.95 10.5 -0.1 10.6 0.8 11.2 1.55 L13.0 2.7 24.3 6.2 35.85 9.6 Q37.0 9.85 37.9 9.0 38.7 8.25 39.0 7.05 39.3 5.75 38.85 4.65 38.45 3.4 37.3 3.0 38.65 3.15 39.6 1.6 40.5 0.15 40.5 -2.0 40.6 -4.2 39.65 -5.8" fill="#000000" fill-rule="evenodd" stroke="none"/>
      <path d="M38.7 -5.05 Q37.95 -6.55 36.45 -6.85 L24.4 -9.1 12.65 -11.0 Q11.35 -11.2 10.75 -10.05 10.25 -9.05 10.35 -7.45 10.5 -5.9 11.2 -4.65 11.9 -3.3 12.9 -3.05 L24.95 -0.35 36.35 2.0 Q37.4 2.15 38.2 0.9 39.0 -0.2 39.15 -1.9 39.35 -3.7 38.7 -5.05" fill="#929497" fill-rule="evenodd" stroke="none"/>
      <path d="M13.4 -1.55 L12.1 -1.4 Q11.65 -1.0 11.65 -0.35 11.65 0.3 12.15 0.95 12.7 1.6 13.65 1.85 L24.65 5.1 35.0 8.0 Q36.15 8.3 37.0 7.7 37.75 7.15 37.9 6.2 38.05 5.2 37.5 4.35 36.9 3.45 35.6 3.15 L24.25 0.75 13.4 -1.55" fill="#929497" fill-rule="evenodd" stroke="none"/>
      <path d="M36.1 -5.65 Q35.15 -5.7 34.6 -4.8 34.05 -3.95 34.0 -2.65 34.0 -1.35 34.5 -0.45 35.0 0.6 36.0 0.65 36.95 0.7 37.6 -0.25 38.1 -1.1 38.1 -2.4 38.15 -3.7 37.6 -4.6 37.05 -5.65 36.1 -5.65" fill="#000000" fill-rule="evenodd" stroke="none"/>
      <path d="M36.2 4.65 Q35.75 4.6 35.5 4.95 35.25 5.3 35.25 5.8 L35.45 6.65 36.2 7.05 Q36.65 7.1 36.9 6.7 L37.15 5.9 36.9 5.05 Q36.65 4.65 36.2 4.65" fill="#000000" fill-rule="evenodd" stroke="none"/>
      <path d="M34.7 -6.4 L14.0 -10.15 Q12.35 -10.5 12.2 -9.7 12.1 -9.35 12.45 -9.0 12.85 -8.65 13.55 -8.5 L24.35 -6.25 33.35 -4.5 33.55 -5.25 Q33.95 -6.0 34.7 -6.4" fill="#bbbdbf" fill-rule="evenodd" stroke="none"/>
      <path d="M33.15 -1.4 L22.95 -3.35 12.75 -5.3 Q11.2 -5.65 11.85 -4.65 12.4 -3.6 13.4 -3.35 L34.5 1.15 33.8 0.5 Q33.15 -0.3 33.15 -1.4" fill="#6d6e70" fill-rule="evenodd" stroke="none"/>
      <path d="M12.55 0.65 Q13.05 1.45 14.1 1.75 L24.9 4.85 35.35 7.75 34.65 7.1 Q33.95 6.3 33.95 5.2 L23.8 2.7 13.6 0.15 Q12.1 -0.2 12.55 0.65" fill="#6d6e70" fill-rule="evenodd" stroke="none"/>
      <path d="M-12.05 -4.45 Q-14.25 -1.0 -14.65 2.6 -14.85 4.45 -14.15 6.7 L-12.65 10.6 Q-11.6 13.0 -11.3 14.6 -10.85 17.0 -11.45 19.15 L-2.85 24.6 -0.45 22.8 Q0.3 19.55 -0.15 16.6 -0.5 14.4 -1.65 11.95 L-3.45 8.15 Q-4.25 6.15 -4.15 4.55 -3.9 2.25 -2.25 -0.25 L-1.1 -1.75 -0.6 -2.25 -0.8 -5.1 -9.95 -7.15 -10.6 -6.45 -12.05 -4.45" fill="#000000" fill-rule="evenodd" stroke="none"/>
      <path d="M-3.55 -2.35 L-2.8 -1.6 -1.9 -1.75 Q-1.45 -2.0 -1.3 -2.45 -1.1 -2.95 -1.3 -3.45 -1.55 -3.95 -2.05 -4.05 L-2.9 -3.9 -3.55 -3.25 Q-3.75 -2.8 -3.55 -2.35" fill="#58595b" fill-rule="evenodd" stroke="none"/>
      <path d="M-5.35 0.25 L-4.55 0.95 -3.7 0.8 -3.05 0.15 Q-2.8 -0.35 -3.05 -0.85 L-3.75 -1.5 -4.65 -1.35 -5.3 -0.65 -5.35 0.25" fill="#58595b" fill-rule="evenodd" stroke="none"/>
      <path d="M-4.35 2.15 Q-4.55 1.65 -5.05 1.4 L-6.0 1.45 -6.55 2.2 -6.55 3.1 -6.0 3.8 -4.95 3.75 -4.35 3.05 Q-4.2 2.6 -4.35 2.15" fill="#58595b" fill-rule="evenodd" stroke="none"/>
      <path d="M-4.7 5.25 Q-4.9 4.75 -5.45 4.55 L-6.35 4.6 -6.9 5.3 -6.9 6.25 -6.3 6.95 -5.25 6.9 Q-4.85 6.7 -4.7 6.2 -4.55 5.7 -4.7 5.25" fill="#58595b" fill-rule="evenodd" stroke="none"/>
      <path d="M-4.0 8.15 Q-4.35 7.75 -4.9 7.75 -5.45 7.7 -5.75 8.1 L-6.05 8.9 -5.75 9.8 Q-5.45 10.2 -4.95 10.25 -4.3 10.25 -3.95 9.9 -3.65 9.55 -3.65 9.05 -3.7 8.55 -4.0 8.15" fill="#58595b" fill-rule="evenodd" stroke="none"/>
      <path d="M-3.65 13.35 Q-3.0 13.4 -2.65 13.05 -2.35 12.7 -2.35 12.2 -2.4 11.7 -2.7 11.3 L-3.55 10.8 Q-4.1 10.8 -4.45 11.15 L-4.75 12.0 -4.45 12.9 Q-4.15 13.3 -3.65 13.35" fill="#58595b" fill-rule="evenodd" stroke="none"/>
      <path d="M-2.25 16.55 Q-1.65 16.55 -1.3 16.2 -1.0 15.85 -1.0 15.35 -0.95 14.85 -1.25 14.45 -1.6 14.05 -2.15 14.0 -2.75 14.0 -3.05 14.35 L-3.35 15.2 -3.05 16.1 Q-2.75 16.5 -2.25 16.55" fill="#58595b" fill-rule="evenodd" stroke="none"/>
      <path d="M-1.7 19.8 Q-1.1 19.85 -0.75 19.5 L-0.4 18.65 Q-0.4 18.15 -0.7 17.75 -1.05 17.35 -1.6 17.3 -2.2 17.3 -2.5 17.65 L-2.75 18.5 -2.5 19.4 Q-2.2 19.8 -1.7 19.8" fill="#58595b" fill-rule="evenodd" stroke="none"/>
      <path d="M-2.8 20.8 Q-3.1 21.15 -3.05 21.65 L-2.8 22.55 Q-2.5 22.95 -2.05 22.95 -1.4 23.0 -1.0 22.6 -0.7 22.3 -0.7 21.75 -0.7 21.25 -1.05 20.9 -1.4 20.5 -1.95 20.45 -2.5 20.4 -2.8 20.8" fill="#58595b" fill-rule="evenodd" stroke="none"/>
      <path d="M-9.75 -6.2 L-10.7 -5.05 -11.0 -4.4 -4.4 -2.75 -4.15 -3.6 Q-3.65 -4.5 -2.8 -4.6 L-9.75 -6.2" fill="#bbbdbf" fill-rule="evenodd" stroke="none"/>
      <path d="M-11.4 -3.6 L-12.35 -2.45 -12.65 -1.8 -6.15 0.0 -5.85 -0.85 Q-5.4 -1.7 -4.5 -1.85 L-11.4 -3.6" fill="#bbbdbf" fill-rule="evenodd" stroke="none"/>
      <path d="M-12.8 -0.85 Q-13.45 -0.45 -13.65 0.45 L-13.8 1.25 -7.3 2.95 -7.15 2.0 Q-6.85 1.05 -6.0 0.9 L-12.8 -0.85" fill="#bbbdbf" fill-rule="evenodd" stroke="none"/>
      <path d="M-13.55 2.35 Q-14.1 2.9 -14.0 3.8 L-13.7 4.6 -7.6 6.35 -7.75 5.4 Q-7.75 4.35 -6.7 4.05 L-13.55 2.35" fill="#bbbdbf" fill-rule="evenodd" stroke="none"/>
      <path d="M-13.2 7.5 L-12.65 8.1 -6.4 9.8 -6.8 9.2 Q-7.15 8.4 -6.65 7.4 L-13.4 5.55 Q-13.6 6.65 -13.2 7.5" fill="#bbbdbf" fill-rule="evenodd" stroke="none"/>
      <path d="M-5.4 10.8 L-12.3 8.95 Q-12.5 10.0 -11.95 10.8 L-11.4 11.4 -4.9 13.25 -5.4 12.55 Q-5.75 11.7 -5.4 10.8" fill="#bbbdbf" fill-rule="evenodd" stroke="none"/>
      <path d="M-3.45 16.85 L-3.95 16.1 Q-4.4 15.15 -3.8 14.05 L-11.0 12.25 Q-11.25 13.3 -10.7 13.95 L-10.15 14.4 -3.45 16.85" fill="#bbbdbf" fill-rule="evenodd" stroke="none"/>
      <path d="M-2.95 19.95 L-3.45 19.35 Q-3.8 18.5 -3.25 17.45 L-10.3 15.2 Q-10.5 16.3 -10.1 16.8 L-9.65 17.1 -2.95 19.95" fill="#bbbdbf" fill-rule="evenodd" stroke="none"/>
      <path d="M-3.25 23.35 L-3.65 22.55 Q-4.0 21.55 -3.45 20.5 L-10.2 17.5 Q-10.6 18.05 -10.6 18.65 L-10.55 19.15 -3.25 23.35" fill="#bbbdbf" fill-rule="evenodd" stroke="none"/>
    </g>
  </defs>
</svg>
