<?xml version="1.0" encoding="UTF-8" standalone="no"?>
<svg xmlns:ffdec="https://www.free-decompiler.com/flash" xmlns:xlink="http://www.w3.org/1999/xlink" ffdec:objectType="frame" height="149.75px" width="100.05px" xmlns="http://www.w3.org/2000/svg">
  <g transform="matrix(1.0, 0.0, 0.0, 1.0, 59.4, 70.05)">
    <use ffdec:characterId="397" height="132.5" transform="matrix(1.0, 0.0, 0.0, 1.0, -59.0, -53.15)" width="93.5" xlink:href="#shape0"/>
  </g>
  <defs>
    <g id="shape0" transform="matrix(1.0, 0.0, 0.0, 1.0, 59.0, 53.15)">
      <path d="M-18.2 36.75 L-15.5 35.2 Q-13.9 34.3 -13.6 33.65 L-15.0 33.8 -16.15 33.95 -18.2 36.75 M4.4 -46.85 Q6.2 -46.45 7.7 -45.65 12.55 -42.95 12.75 -36.8 L15.75 -37.0 Q19.25 -37.0 21.95 -35.75 30.7 -31.85 28.3 -17.3 L28.9 -16.75 30.1 -15.15 Q31.6 -12.4 30.15 -9.35 28.7 -6.3 28.95 -1.3 29.05 1.2 29.45 3.1 L29.8 7.4 Q29.8 12.05 27.95 13.5 L27.85 12.0 Q26.95 16.3 24.7 19.9 21.8 24.6 16.8 27.65 20.1 29.9 19.35 34.1 18.0 35.35 15.55 35.85 10.65 36.85 5.15 33.1 L4.95 32.05 3.85 32.25 Q4.25 33.35 4.25 34.4 4.2 35.35 3.85 35.75 3.1 36.9 1.2 37.5 -2.7 38.7 -8.75 35.9 -18.85 43.0 -19.9 52.0 -20.25 54.9 -19.6 57.9 L-18.7 60.9 Q-18.45 62.05 -20.85 67.15 L-23.35 72.0 Q-22.9 70.85 -24.15 69.9 L-25.45 69.15 Q-29.25 67.35 -32.2 63.7 L-33.9 61.35 -34.45 60.4 Q-35.55 54.25 -28.75 46.3 L-37.7 52.2 Q-43.6 55.8 -42.6 61.75 -42.1 64.75 -40.4 67.0 -43.5 68.4 -44.75 74.0 -45.35 76.85 -45.35 79.35 -55.95 74.9 -58.3 69.5 -60.25 65.15 -56.85 60.45 -54.4 57.1 -49.55 53.85 L-45.2 51.3 Q-36.45 47.2 -30.4 36.55 -26.25 29.25 -23.95 19.9 L-23.9 19.5 -23.6 15.2 Q-23.7 12.7 -25.05 9.7 -26.4 6.8 -27.15 1.95 -28.2 -5.15 -26.45 -11.0 -24.6 -17.2 -18.5 -25.05 L-13.05 -32.1 Q-11.1 -35.15 -12.2 -36.6 L-9.05 -36.05 Q-5.75 -35.4 -5.0 -34.95 L-3.95 -35.7 Q-2.6 -36.65 -1.45 -37.9 2.25 -41.85 2.9 -47.05 L4.4 -46.85" fill="#96341e" fill-rule="evenodd" stroke="none"/>
      <path d="M-22.35 17.15 L-21.4 15.95 Q-20.2 14.65 -19.05 14.15 -15.5 12.5 -14.05 19.25 -12.4 26.7 -20.0 35.8 -26.35 43.45 -37.15 50.1 -45.05 55.0 -44.85 61.45 -44.7 64.65 -43.0 66.9 -45.05 67.85 -46.6 71.3 L-47.7 74.55 Q-60.7 68.3 -52.5 59.1 -49.95 56.25 -45.55 53.4 L-41.7 51.2 Q-29.85 43.4 -24.95 29.5 -23.35 25.15 -22.7 20.7 L-22.35 17.15" fill="#e8c723" fill-rule="evenodd" stroke="none"/>
      <path d="M-11.45 29.85 Q-10.7 28.7 -6.9 27.5 -3.25 26.4 -0.45 26.35 2.65 26.3 1.7 27.85 0.55 29.7 -6.6 33.5 -19.7 40.5 -21.9 50.5 -22.65 53.75 -22.1 57.1 L-21.3 60.4 Q-21.05 61.35 -22.15 64.5 L-23.25 67.4 Q-22.9 66.4 -23.95 65.6 L-25.1 64.95 Q-28.35 63.4 -30.25 61.6 L-31.45 60.15 Q-32.6 53.75 -24.15 44.6 L-18.2 38.95 -15.45 36.75 Q-8.45 33.45 -9.25 31.3 -9.5 30.65 -10.5 30.2 L-11.45 29.85" fill="#f0d718" fill-rule="evenodd" stroke="none"/>
      <path d="M-8.95 34.05 Q-9.6 32.25 -9.3 30.45 -8.8 26.95 -4.4 27.3 0.15 27.65 1.95 30.6 2.6 31.7 2.65 32.85 2.7 33.85 2.35 34.3 1.7 35.35 -0.05 35.8 -3.5 36.8 -8.95 34.05" fill="#e0ad2f" fill-rule="evenodd" stroke="none"/>
      <path d="M6.5 32.2 Q6.05 30.55 6.65 29.05 7.95 26.05 13.4 27.05 L14.15 27.25 Q15.05 27.6 15.8 28.15 18.1 29.9 17.55 33.0 16.5 33.95 14.6 34.35 10.8 35.15 6.5 32.2" fill="#e0ad2f" fill-rule="evenodd" stroke="none"/>
      <path d="M-22.35 17.15 L-21.4 15.95 Q-20.2 14.65 -19.05 14.15 -15.5 12.5 -14.05 19.25 -12.4 26.7 -20.0 35.8 -26.35 43.45 -37.15 50.1 -45.05 55.0 -44.85 61.45 -44.7 64.65 -43.0 66.9 -45.05 67.85 -46.6 71.3 L-47.7 74.55 Q-60.7 68.3 -52.5 59.1 -49.95 56.25 -45.55 53.4 L-41.7 51.2 Q-29.85 43.4 -24.95 29.5 -23.35 25.15 -22.7 20.7 L-22.35 17.15" fill="#ffe626" fill-rule="evenodd" stroke="none"/>
      <path d="M-11.45 29.85 Q-10.7 28.7 -6.9 27.5 -3.25 26.4 -0.45 26.35 2.65 26.3 1.7 27.85 0.55 29.7 -6.6 33.5 -19.7 40.5 -21.9 50.5 -22.65 53.75 -22.1 57.1 L-21.3 60.4 Q-21.05 61.35 -22.15 64.5 L-23.25 67.4 Q-22.9 66.4 -23.95 65.6 L-25.1 64.95 Q-28.35 63.4 -30.25 61.6 L-31.45 60.15 Q-32.6 53.75 -24.15 44.6 L-18.2 38.95 -15.45 36.75 Q-10.85 33.25 -10.7 31.2 -10.6 30.55 -11.05 30.15 L-11.45 29.85" fill="#ffe626" fill-rule="evenodd" stroke="none"/>
      <path d="M6.5 32.2 Q6.05 30.55 6.65 29.05 7.95 26.05 13.4 27.05 L14.15 27.25 Q15.05 27.6 15.8 28.15 18.1 29.9 17.55 33.0 16.5 33.95 14.6 34.35 10.8 35.15 6.5 32.2" fill="#f5af00" fill-rule="evenodd" stroke="none"/>
      <path d="M23.55 16.85 Q17.05 28.6 1.7 30.4 L-5.55 30.4 Q-13.15 30.6 -15.1 31.3 -14.45 28.7 -14.4 25.8 -14.2 19.95 -16.9 18.3 L-17.3 19.4 Q-17.8 20.8 -18.6 22.15 -21.05 26.5 -24.85 29.2 L-23.85 25.6 Q-22.8 21.4 -22.5 18.7 -21.8 15.9 -21.65 14.35 -21.3 11.6 -22.9 8.95 -23.5 7.95 -24.3 5.05 -25.45 1.3 -25.7 -2.15 -26.55 -12.45 -19.8 -14.85 -16.6 -15.95 -10.35 -14.95 -4.1 -13.9 2.95 -11.15 10.5 -8.2 16.6 -4.15 23.4 0.4 27.0 5.45 L26.5 8.95 Q25.6 13.15 23.55 16.85" fill="#d13f2c" fill-rule="evenodd" stroke="none"/>
      <path d="M14.3 28.8 L14.75 28.95 Q15.3 29.15 15.7 29.6 17.0 31.05 16.6 34.35 L15.4 34.45 15.45 32.05 Q15.25 29.5 14.3 28.8" fill="#96341e" fill-rule="evenodd" stroke="none"/>
      <path d="M-16.9 18.3 L-17.3 19.4 Q-17.8 20.8 -18.6 22.15 -21.05 26.5 -24.85 29.2 L-23.85 25.6 Q-22.8 21.4 -22.5 18.7 -21.8 16.0 -21.6 14.45 -21.3 11.75 -22.9 8.95 -23.5 7.95 -24.3 5.05 -25.55 0.9 -25.8 -3.1 -22.55 3.15 -17.7 8.55 -12.2 14.7 -6.0 18.1 9.45 26.55 24.15 15.75 21.4 21.25 16.65 24.8 10.6 29.35 1.7 30.4 L-5.55 30.4 Q-13.15 30.6 -15.1 31.3 -14.45 28.7 -14.4 25.8 -14.2 19.95 -16.9 18.3" fill="#b83727" fill-rule="evenodd" stroke="none"/>
      <path d="M8.5 -41.95 Q12.1 -38.25 11.35 -32.25 L12.25 -32.25 13.95 -32.5 Q15.95 -33.15 13.05 -35.35 L15.0 -34.9 Q17.3 -34.15 19.3 -32.6 25.55 -27.75 25.75 -17.0 26.0 -16.85 26.2 -16.65 L27.15 -15.45 Q28.35 -13.3 27.0 -10.55 25.75 -7.75 26.15 -2.9 26.3 -0.45 26.75 1.4 L27.8 4.9 Q28.7 8.6 28.1 9.75 28.1 8.8 27.55 7.65 26.4 5.3 23.65 4.05 L23.8 5.2 Q23.9 6.65 23.6 8.0 22.75 12.35 18.7 14.15 19.45 13.5 19.7 12.3 20.2 9.9 17.95 7.15 L17.05 6.0 Q16.2 4.65 16.4 3.5 16.5 2.8 15.9 3.4 15.35 3.95 14.85 5.05 13.4 8.25 15.05 9.75 14.15 9.6 13.1 8.9 10.95 7.55 10.15 4.8 8.05 4.65 5.5 5.6 0.45 7.4 -1.85 12.6 L-3.45 10.5 Q-4.85 7.85 -3.9 5.05 L-4.55 5.65 -5.7 7.35 Q-7.05 10.4 -4.95 14.15 -6.9 13.45 -8.8 11.0 -12.55 6.15 -12.2 -2.5 -11.85 -11.7 -16.65 -13.5 -18.5 -14.2 -20.6 -13.5 -22.55 -12.85 -23.65 -11.3 -24.7 -9.9 -24.4 -11.2 L-23.0 -14.95 Q-19.75 -21.8 -16.65 -24.05 -13.05 -26.65 -10.7 -30.05 -8.3 -33.55 -9.45 -34.7 L-8.05 -33.3 Q-6.75 -31.6 -7.2 -30.35 L-5.0 -31.85 -0.4 -35.45 Q6.1 -41.2 4.7 -44.45 L5.95 -43.9 Q7.35 -43.1 8.5 -41.95" fill="#f26f27" fill-rule="evenodd" stroke="none"/>
      <path d="M4.7 -44.45 L7.9 -39.5 Q11.1 -34.1 11.35 -32.25 L12.25 -32.25 13.9 -32.5 Q15.85 -33.15 13.05 -35.35 L15.0 -34.9 Q17.3 -34.15 19.3 -32.6 25.55 -27.75 25.75 -17.0 26.0 -16.85 26.2 -16.65 L27.15 -15.45 Q28.35 -13.3 27.0 -10.55 26.05 -8.5 26.05 -5.2 19.75 -2.45 10.8 -3.75 L5.3 -4.9 3.1 -5.6 Q3.5 -6.8 1.2 -9.75 -1.0 -12.6 -2.45 -13.1 -4.25 -12.25 -4.85 -8.55 L-5.05 -5.05 Q-9.7 -8.8 -9.55 -15.6 -9.5 -17.7 -8.95 -19.85 L-8.45 -21.6 Q-9.65 -20.6 -13.0 -19.75 L-16.1 -19.1 Q-17.2 -21.95 -15.75 -24.15 -13.75 -26.3 -13.35 -27.55 -9.6 -31.1 -9.0 -32.8 -8.65 -33.8 -9.45 -34.7 L-7.9 -33.9 Q-6.5 -32.75 -7.25 -30.95 L-5.05 -32.3 Q-2.45 -34.0 -0.4 -35.65 6.2 -41.05 4.7 -44.45" fill="#ed4621" fill-rule="evenodd" stroke="none"/>
      <path d="M4.5 -42.5 L4.7 -44.45 6.05 -44.25 Q7.55 -43.85 8.8 -42.95 12.7 -39.95 11.85 -32.9 L12.65 -32.8 14.05 -32.85 Q15.7 -33.25 13.05 -35.35 L15.4 -35.65 20.4 -35.1 Q27.35 -32.75 25.0 -22.6 L23.65 -19.8 23.0 -18.85 Q23.85 -20.8 22.55 -22.85 L21.05 -24.5 Q21.3 -22.45 19.15 -19.85 L16.95 -17.7 Q16.95 -20.25 13.85 -22.65 L11.7 -24.0 10.75 -24.5 Q10.35 -23.9 11.9 -21.2 L13.45 -18.65 Q4.8 -20.5 1.65 -26.9 0.7 -28.95 0.4 -31.15 L0.25 -33.0 -2.15 -29.4 -3.1 -27.55 -10.85 -27.9 Q-12.6 -28.85 -11.55 -31.3 -9.6 -32.15 -9.35 -33.3 L-9.45 -34.7 -8.65 -34.75 -7.0 -34.6 Q-4.8 -34.0 -5.95 -32.0 1.85 -36.95 3.75 -40.15 4.35 -41.25 4.5 -42.5" fill="#ffc42e" fill-rule="evenodd" stroke="none"/>
      <path d="M13.45 -18.65 L11.9 -20.35 Q10.35 -22.45 10.75 -24.5 L11.7 -24.0 13.85 -22.65 Q16.95 -20.25 16.95 -17.7 L19.15 -19.85 Q21.3 -22.45 21.05 -24.5 L22.55 -22.85 Q23.85 -20.8 23.0 -18.85 L23.65 -19.75 25.0 -22.6 Q24.85 -19.55 23.05 -17.25 L21.8 -15.95 21.25 -15.55 Q15.7 -13.2 9.45 -15.4 7.5 -16.1 5.7 -17.15 L4.3 -18.1 Q1.15 -23.3 -2.35 -25.2 L-4.5 -26.0 -5.25 -26.05 -10.85 -26.3 Q-12.9 -26.6 -13.15 -27.9 -12.3 -29.2 -11.75 -30.7 -12.3 -28.85 -10.9 -28.1 L-6.35 -28.0 -6.15 -28.7 -5.3 -30.3 Q-3.5 -32.65 0.25 -33.0 L0.75 -31.0 Q1.5 -28.55 2.7 -26.4 6.5 -19.65 13.45 -18.65" fill="#ed7824" fill-rule="evenodd" stroke="none"/>
      <path d="M-45.85 60.3 Q-45.1 56.7 -43.55 56.3 -45.5 59.85 -44.45 63.75 -43.95 65.65 -43.0 66.9 -45.05 67.85 -46.6 71.3 L-47.7 74.55 Q-55.8 70.65 -55.6 65.45 -55.4 61.5 -50.45 57.1 -51.55 59.6 -50.8 60.8 L-50.35 59.45 Q-49.55 58.0 -47.95 57.4 L-47.7 60.25 Q-47.25 63.2 -46.25 63.75 L-45.85 60.3" fill="#f26f27" fill-rule="evenodd" stroke="none"/>
      <path d="M-24.05 54.7 Q-23.75 54.9 -23.25 54.4 L-22.25 53.05 Q-22.45 55.45 -21.95 57.9 L-21.3 60.4 Q-21.05 61.35 -22.15 64.5 L-23.25 67.4 Q-22.9 66.4 -23.95 65.6 L-25.1 64.95 Q-28.35 63.4 -30.25 61.6 L-31.45 60.15 Q-32.25 55.7 -28.3 49.75 -28.85 55.05 -26.1 56.25 L-26.6 54.1 Q-26.8 51.95 -25.35 51.8 L-25.0 53.05 Q-24.55 54.35 -24.05 54.7" fill="#f26f27" fill-rule="evenodd" stroke="none"/>
      <path d="M-8.95 34.05 Q-9.6 32.25 -9.3 30.45 -8.8 26.95 -4.4 27.3 0.15 27.65 1.95 30.6 2.6 31.7 2.65 32.85 2.7 33.85 2.35 34.3 1.7 35.35 -0.05 35.8 -3.5 36.8 -8.95 34.05" fill="#f5af00" fill-rule="evenodd" stroke="none"/>
      <path d="M-1.45 30.05 L-1.0 30.2 Q-0.4 30.45 0.05 30.9 1.4 32.5 1.0 36.0 L-0.3 36.1 Q-0.15 34.9 -0.25 33.55 -0.4 30.8 -1.45 30.05" fill="#96341e" fill-rule="evenodd" stroke="none"/>
      <path d="M15.45 6.0 L16.1 7.05 17.35 9.6 Q19.05 13.6 17.6 15.7 16.95 14.85 16.1 14.35 L15.4 14.05 16.4 15.6 Q17.3 17.6 16.8 19.6 16.55 18.3 15.8 17.65 L15.1 17.25 15.3 18.9 Q15.1 21.05 13.4 23.45 14.6 20.0 14.0 17.25 L13.5 15.7 13.2 15.15 15.15 15.9 14.7 14.3 Q14.0 12.6 12.6 12.15 14.55 12.2 15.95 12.7 L17.0 13.15 17.1 11.15 Q16.9 8.6 15.45 6.0" fill="#96341e" fill-rule="evenodd" stroke="none"/>
      <path d="M-46.0 -15.9 L-46.5 -17.4 Q-46.45 -20.75 -44.85 -24.5 L-43.25 -27.55 Q-39.9 -21.9 -35.15 -21.3 -32.8 -21.0 -31.1 -21.85 -25.3 -23.3 -20.7 -20.7 -16.95 -18.5 -14.5 -13.9 -12.95 -10.9 -19.2 -4.85 -22.3 -1.8 -25.75 0.6 -38.65 3.4 -43.7 -4.45 -45.3 -6.9 -45.9 -10.1 L-46.15 -12.85 -46.0 -15.9" fill="#96341e" fill-rule="evenodd" stroke="none"/>
      <path d="M-43.55 -15.55 L-44.2 -16.8 Q-44.15 -19.8 -43.15 -21.65 L-42.15 -22.95 Q-38.55 -19.95 -34.65 -19.65 L-31.55 -19.95 Q-26.2 -21.3 -21.65 -19.3 -17.5 -17.45 -15.5 -13.6 -13.95 -10.6 -19.2 -5.5 -21.8 -3.0 -24.75 -1.05 -36.3 1.45 -41.35 -5.6 -42.95 -7.8 -43.7 -10.7 L-44.1 -13.15 -43.55 -15.55" fill="#f74a23" fill-rule="evenodd" stroke="none"/>
      <path d="M-44.2 -16.8 Q-44.15 -19.8 -43.15 -21.65 L-42.15 -22.95 Q-38.7 -20.0 -34.75 -19.7 L-31.55 -19.95 -28.15 -20.45 -25.05 -20.4 Q-27.2 -20.2 -29.6 -18.4 L-33.2 -15.35 Q-35.8 -13.15 -38.2 -13.0 L-39.6 -13.1 -40.1 -13.25 Q-40.05 -11.0 -38.9 -8.6 L-37.7 -6.65 Q-38.35 -6.05 -39.5 -7.4 L-40.5 -8.9 Q-40.5 -5.25 -35.8 -1.35 -40.7 -3.15 -42.9 -8.35 -43.6 -9.95 -43.9 -11.7 L-44.1 -13.15 -43.55 -15.55 -44.2 -16.8" fill="#ffb700" fill-rule="evenodd" stroke="none"/>
      <path d="M-43.7 -15.75 L-40.7 -12.35 -42.2 -12.95 Q-43.8 -13.7 -44.15 -14.45 -44.5 -15.2 -44.15 -15.55 L-43.7 -15.75" fill="#96341e" fill-rule="evenodd" stroke="none"/>
      <path d="M24.3 -17.15 Q25.05 -16.55 24.9 -15.25 24.65 -13.65 22.65 -13.25 L21.25 -13.55 Q20.05 -14.2 20.9 -15.8 22.15 -17.95 23.35 -17.75 L24.3 -17.15" fill="#000000" fill-rule="evenodd" stroke="none"/>
      <path d="M23.9 -15.55 L23.75 -14.85 23.25 -14.55 22.8 -14.85 22.6 -15.55 22.8 -16.2 Q23.0 -16.5 23.25 -16.5 L23.75 -16.2 23.9 -15.55" fill="#ffffff" fill-rule="evenodd" stroke="none"/>
      <path d="M17.15 -14.55 L17.9 -14.7 Q18.8 -14.9 19.6 -15.3 22.05 -16.6 22.5 -19.35 22.6 -20.2 23.0 -21.05 23.75 -22.7 25.0 -22.6 L24.5 -21.4 Q23.9 -19.7 23.4 -17.4 22.9 -15.15 20.3 -14.7 L18.35 -14.55 17.15 -14.55" fill="#ffe626" fill-rule="evenodd" stroke="none"/>
      <path d="M5.6 -13.3 Q5.15 -12.95 4.55 -12.8 L4.0 -12.75 Q0.55 -13.15 0.4 -16.4 0.3 -17.45 0.6 -18.7 L0.9 -19.9 1.6 -20.0 3.15 -20.0 Q5.6 -19.65 6.25 -17.15 7.0 -14.4 5.6 -13.3" fill="#000000" fill-rule="evenodd" stroke="none"/>
      <path d="M5.45 -15.4 L5.15 -14.45 Q4.9 -14.05 4.5 -14.05 L3.8 -14.45 Q3.5 -14.85 3.5 -15.4 3.5 -15.95 3.8 -16.4 4.1 -16.75 4.5 -16.75 4.9 -16.75 5.15 -16.4 L5.45 -15.4" fill="#ffffff" fill-rule="evenodd" stroke="none"/>
      <path d="M14.55 -14.7 Q12.4 -14.35 9.7 -14.6 4.4 -15.05 1.95 -17.8 L-0.8 -21.3 -2.65 -23.5 Q-4.35 -25.1 -10.05 -26.35 L-8.5 -26.55 -4.8 -26.4 Q1.1 -25.5 4.15 -20.8 L4.9 -19.75 Q5.85 -18.5 6.95 -17.5 10.55 -14.25 14.55 -14.7" fill="#ffe626" fill-rule="evenodd" stroke="none"/>
      <path d="M17.15 -15.8 L22.35 -15.15 Q23.45 -14.65 25.6 -12.9 28.45 -10.65 30.55 -8.0 36.65 -0.2 33.3 6.85 L30.7 7.65 Q28.05 8.3 27.9 7.65 L28.05 4.75 Q27.95 2.4 25.75 1.5 23.5 0.6 20.45 1.4 L13.75 3.45 Q9.7 4.55 7.1 3.5 4.55 2.45 4.0 -0.35 L3.85 0.4 3.7 1.6 -0.75 -2.1 Q-0.5 -5.4 1.4 -8.75 5.25 -15.45 13.45 -15.85 L17.15 -15.8" fill="#96341e" fill-rule="evenodd" stroke="none"/>
      <path d="M5.1 -0.85 Q5.6 -1.85 6.75 -2.4 8.15 -3.15 10.35 -3.05 L16.2 -2.0 Q20.05 -1.0 22.05 -0.15 L14.45 1.7 Q11.55 2.45 8.9 1.65 6.4 0.95 5.1 -0.85" fill="#c77700" fill-rule="evenodd" stroke="none"/>
      <path d="M14.55 -14.7 L17.5 -14.65 21.85 -14.05 24.8 -12.05 Q27.4 -10.05 29.25 -7.75 34.75 -0.85 31.7 5.6 L30.75 5.85 Q29.8 6.0 29.65 5.45 L29.0 3.15 Q28.15 1.35 26.15 0.5 24.45 -0.85 19.05 -2.75 13.5 -4.75 10.0 -5.05 6.95 -5.35 4.95 -3.55 3.5 -2.2 3.5 -1.2 2.0 -2.0 1.0 -2.7 1.4 -5.55 3.3 -8.5 7.1 -14.35 14.55 -14.7" fill="#ffc333" fill-rule="evenodd" stroke="none"/>
      <path d="M21.85 -14.05 Q30.15 -8.45 32.0 -1.8 32.6 0.35 32.35 1.9 32.15 3.45 31.85 2.7 30.0 -2.0 18.9 -7.25 L11.55 -10.5 Q8.35 -11.95 8.45 -12.5 8.75 -14.7 15.35 -14.6 L21.85 -14.05" fill="#fff1cc" fill-rule="evenodd" stroke="none"/>
      <path d="M13.9 -13.25 L15.2 -12.75 Q16.5 -12.15 16.5 -11.55 L16.0 -11.2 14.9 -11.4 Q13.4 -12.05 13.9 -13.25" fill="#a87a09" fill-rule="evenodd" stroke="none"/>
      <path d="M20.65 -13.2 L21.55 -12.85 Q22.5 -12.4 22.5 -12.0 L21.35 -11.9 Q20.25 -12.35 20.65 -13.2" fill="#a87a09" fill-rule="evenodd" stroke="none"/>
      <path d="M12.6 -38.5 Q13.0 -44.25 12.35 -45.35 11.75 -46.3 10.95 -44.2 10.55 -43.15 9.5 -43.1 8.5 -43.0 7.4 -43.8 4.7 -45.6 4.8 -48.4 4.95 -51.25 8.5 -52.6 12.1 -54.0 14.25 -51.95 16.7 -49.65 14.9 -43.8 14.0 -40.9 12.6 -38.5" fill="#96341e" fill-rule="evenodd" stroke="none"/>
      <path d="M13.5 -50.3 Q15.1 -48.55 14.25 -44.2 13.8 -42.0 13.05 -40.2 13.95 -45.15 12.6 -46.3 12.1 -46.7 11.5 -46.3 10.9 -45.85 10.65 -44.9 10.45 -44.0 9.6 -43.9 8.85 -43.8 7.95 -44.35 5.7 -45.65 5.8 -47.9 5.9 -50.25 8.9 -51.15 11.9 -52.1 13.5 -50.3" fill="#ffc42e" fill-rule="evenodd" stroke="none"/>
    </g>
  </defs>
</svg>
