<?xml version="1.0" encoding="UTF-8" standalone="no"?>
<svg xmlns:ffdec="https://www.free-decompiler.com/flash" xmlns:xlink="http://www.w3.org/1999/xlink" ffdec:objectType="frame" height="149.75px" width="100.05px" xmlns="http://www.w3.org/2000/svg">
  <g transform="matrix(1.0, 0.0, 0.0, 1.0, 59.4, 70.05)">
    <use ffdec:characterId="398" height="124.6" transform="matrix(1.0, 0.0, 0.0, 1.0, -59.2, -45.1)" width="93.45" xlink:href="#shape0"/>
  </g>
  <defs>
    <g id="shape0" transform="matrix(1.0, 0.0, 0.0, 1.0, 59.2, 45.1)">
      <path d="M10.2 -17.5 Q11.85 -14.2 6.25 -11.4 4.5 -10.55 2.2 -9.85 L0.3 -9.3 Q-11.8 -12.2 -16.95 -21.3 -18.55 -24.15 -19.3 -27.25 L-19.7 -29.8 -19.7 -32.45 -20.25 -34.0 Q-20.35 -36.95 -19.0 -39.6 L-17.7 -41.65 Q-14.25 -35.2 -9.8 -31.85 -7.6 -30.15 -6.1 -29.8 -0.4 -28.6 3.9 -25.3 7.95 -22.15 10.2 -17.5" fill="#96341e" fill-rule="evenodd" stroke="none"/>
      <path d="M9.25 -17.7 Q10.9 -14.35 6.2 -12.0 4.75 -11.3 2.8 -10.75 L1.15 -10.35 Q-9.65 -12.95 -14.8 -21.35 -16.4 -23.95 -17.25 -26.9 L-17.75 -29.25 -17.35 -31.15 -18.05 -32.55 Q-18.15 -35.15 -17.3 -36.4 L-16.4 -37.1 Q-13.3 -31.35 -9.35 -29.05 -7.35 -27.9 -5.95 -27.9 -0.6 -26.75 3.3 -24.25 7.35 -21.55 9.25 -17.7" fill="#f74a23" fill-rule="evenodd" stroke="none"/>
      <path d="M-7.55 -26.6 Q-9.9 -25.75 -12.15 -26.6 L-14.0 -27.65 Q-13.85 -25.65 -12.6 -23.0 L-11.4 -20.8 Q-11.95 -20.5 -13.1 -22.2 L-14.15 -23.9 Q-13.95 -20.7 -9.3 -15.25 -14.05 -18.9 -16.35 -24.45 L-17.5 -27.85 -17.75 -29.25 -17.35 -31.15 -18.05 -32.55 Q-18.15 -35.15 -17.3 -36.4 L-16.4 -37.1 Q-13.3 -31.35 -9.35 -29.05 -7.35 -27.9 -5.95 -27.9 -2.4 -27.15 0.45 -25.8 -1.9 -26.65 -4.05 -26.9 L-7.55 -26.6" fill="#ffb700" fill-rule="evenodd" stroke="none"/>
      <path d="M-17.5 -31.35 L-14.5 -27.05 -15.95 -28.25 Q-17.5 -29.6 -17.85 -30.4 -18.25 -31.2 -17.95 -31.35 L-17.5 -31.35" fill="#96341e" fill-rule="evenodd" stroke="none"/>
      <path d="M-18.4 36.9 L-15.7 35.3 Q-14.1 34.45 -13.8 33.8 L-16.35 34.1 -18.4 36.9 M6.3 -45.1 Q6.05 -43.95 6.25 -42.6 6.65 -39.85 8.9 -38.75 L12.1 -37.9 Q15.9 -36.7 19.0 -34.7 28.95 -28.45 28.1 -17.15 L28.7 -16.6 29.9 -15.05 Q31.4 -12.3 29.95 -9.25 28.5 -6.2 28.75 -1.15 28.85 1.35 29.25 3.2 L29.6 7.55 Q29.6 12.2 27.75 13.65 L27.65 12.1 Q26.75 16.45 24.5 20.05 21.6 24.7 16.6 27.8 19.9 30.05 19.15 34.25 17.8 35.5 15.35 36.0 10.45 37.0 4.95 33.25 L4.75 32.2 3.65 32.4 Q4.05 33.5 4.05 34.5 4.0 35.45 3.65 35.9 2.9 37.05 1.0 37.65 -2.9 38.85 -8.95 36.05 -19.05 43.15 -20.1 52.15 -20.45 55.05 -19.8 58.05 L-18.9 61.05 Q-18.65 62.2 -21.05 67.25 L-23.55 72.15 Q-23.1 71.0 -24.35 70.05 L-25.65 69.25 Q-29.45 67.5 -32.4 63.8 L-34.1 61.5 -34.65 60.5 Q-35.75 54.35 -28.95 46.45 -33.05 49.45 -37.9 52.35 -43.8 55.9 -42.8 61.9 -42.3 64.9 -40.6 67.15 -43.7 68.55 -44.95 74.15 -45.55 76.95 -45.55 79.5 -56.15 75.05 -58.5 69.65 -60.45 65.3 -57.05 60.6 -54.6 57.25 -49.75 54.0 L-45.4 51.45 Q-36.65 47.35 -30.6 36.7 -26.45 29.35 -24.15 20.0 L-24.1 19.6 Q-23.8 16.8 -23.85 15.35 -23.9 12.85 -25.25 9.85 -26.6 6.9 -27.35 2.05 -28.4 -5.05 -26.65 -10.85 -25.45 -14.85 -23.35 -18.6 -21.15 -22.65 -18.7 -24.95 -15.55 -27.85 -13.55 -31.55 -11.9 -34.65 -11.9 -36.25 L-11.3 -35.85 -9.8 -34.95 -9.65 -36.1 Q-9.25 -37.45 -8.05 -38.75 -4.15 -43.0 6.3 -45.1" fill="#96341e" fill-rule="evenodd" stroke="none"/>
      <path d="M-22.55 17.25 L-21.6 16.1 Q-20.4 14.8 -19.25 14.25 -15.7 12.6 -14.25 19.35 -12.6 26.8 -20.2 35.9 -26.55 43.6 -37.35 50.25 -45.25 55.15 -45.05 61.55 -44.9 64.8 -43.2 67.05 -45.25 68.0 -46.8 71.45 -47.55 73.15 -47.9 74.7 -60.9 68.45 -52.7 59.25 -50.15 56.35 -45.75 53.55 L-41.9 51.3 Q-30.05 43.5 -25.15 29.6 -23.55 25.25 -22.9 20.85 L-22.55 17.25" fill="#e8c723" fill-rule="evenodd" stroke="none"/>
      <path d="M-11.65 30.0 Q-10.9 28.85 -7.1 27.65 -3.45 26.55 -0.65 26.45 2.45 26.4 1.5 27.95 0.35 29.85 -6.8 33.65 -19.9 40.6 -22.1 50.65 -22.85 53.85 -22.3 57.2 L-21.5 60.5 Q-21.25 61.5 -22.35 64.6 L-23.45 67.5 Q-23.1 66.55 -24.15 65.7 L-25.3 65.1 Q-28.55 63.55 -30.45 61.75 L-31.65 60.25 Q-32.8 53.85 -24.35 44.75 -21.7 41.9 -18.4 39.1 L-15.65 36.9 Q-8.65 33.55 -9.45 31.45 -9.7 30.8 -10.7 30.35 L-11.65 30.0" fill="#f0d718" fill-rule="evenodd" stroke="none"/>
      <path d="M1.75 30.7 Q2.4 31.8 2.45 32.95 2.5 34.0 2.15 34.4 1.5 35.45 -0.25 35.95 -3.7 36.9 -9.15 34.15 -9.8 32.35 -9.5 30.6 -9.0 27.1 -4.6 27.4 -0.05 27.75 1.75 30.7" fill="#e0ad2f" fill-rule="evenodd" stroke="none"/>
      <path d="M15.6 28.3 Q17.9 30.05 17.35 33.15 16.3 34.1 14.4 34.5 10.6 35.3 6.3 32.35 5.85 30.65 6.45 29.2 7.75 26.2 13.2 27.15 L13.95 27.4 15.6 28.3" fill="#e0ad2f" fill-rule="evenodd" stroke="none"/>
      <path d="M-22.55 17.25 L-21.6 16.1 Q-20.4 14.8 -19.25 14.25 -15.7 12.6 -14.25 19.35 -12.6 26.8 -20.2 35.9 -26.55 43.6 -37.35 50.25 -45.25 55.15 -45.05 61.55 -44.9 64.8 -43.2 67.05 -45.25 68.0 -46.8 71.45 -47.55 73.15 -47.9 74.7 -60.9 68.45 -52.7 59.25 -50.15 56.35 -45.75 53.55 L-41.9 51.3 Q-30.05 43.5 -25.15 29.6 -23.55 25.25 -22.9 20.85 L-22.55 17.25" fill="#ffe626" fill-rule="evenodd" stroke="none"/>
      <path d="M-11.65 30.0 Q-10.9 28.85 -7.1 27.65 -3.45 26.55 -0.65 26.45 2.45 26.4 1.5 27.95 0.35 29.85 -6.8 33.65 -19.9 40.6 -22.1 50.65 -22.85 53.85 -22.3 57.2 L-21.5 60.5 Q-21.25 61.5 -22.35 64.6 L-23.45 67.5 Q-23.1 66.55 -24.15 65.7 L-25.3 65.1 Q-28.55 63.55 -30.45 61.75 L-31.65 60.25 Q-32.8 53.85 -24.35 44.75 -21.7 41.9 -18.4 39.1 L-15.65 36.9 Q-11.05 33.35 -10.9 31.35 -10.8 30.7 -11.25 30.3 L-11.65 30.0" fill="#ffe626" fill-rule="evenodd" stroke="none"/>
      <path d="M15.6 28.3 Q17.9 30.05 17.35 33.15 16.3 34.1 14.4 34.5 10.6 35.3 6.3 32.35 5.85 30.65 6.45 29.2 7.75 26.2 13.2 27.15 L13.95 27.4 15.6 28.3" fill="#f5af00" fill-rule="evenodd" stroke="none"/>
      <path d="M26.3 9.05 Q25.4 13.3 23.35 17.0 16.85 28.75 1.5 30.5 L-5.75 30.55 Q-13.35 30.7 -15.3 31.45 -14.65 28.85 -14.6 25.9 -14.4 20.1 -17.1 18.45 L-17.5 19.55 -18.8 22.3 Q-21.25 26.65 -25.05 29.35 L-24.05 25.75 Q-23.0 21.55 -22.7 18.85 -22.0 16.05 -21.85 14.5 -21.5 11.75 -23.1 9.05 -23.7 8.1 -24.5 5.2 -25.65 1.4 -25.9 -2.05 -26.75 -12.3 -20.0 -14.7 -16.8 -15.85 -10.55 -14.8 -4.3 -13.8 2.75 -11.05 10.3 -8.1 16.4 -4.05 23.2 0.5 26.8 5.6 L26.3 9.05" fill="#d13f2c" fill-rule="evenodd" stroke="none"/>
      <path d="M15.5 29.75 Q16.8 31.2 16.4 34.5 L15.2 34.6 15.25 32.2 Q15.05 29.65 14.1 28.95 L14.55 29.05 Q15.1 29.3 15.5 29.75" fill="#96341e" fill-rule="evenodd" stroke="none"/>
      <path d="M23.95 15.9 Q21.2 21.4 16.45 24.95 10.4 29.5 1.5 30.5 L-5.75 30.55 Q-13.35 30.7 -15.3 31.45 -14.65 28.85 -14.6 25.9 -14.4 20.1 -17.1 18.45 L-17.5 19.55 -18.8 22.3 Q-21.25 26.65 -25.05 29.35 L-24.05 25.75 Q-23.0 21.55 -22.7 18.85 -22.0 16.1 -21.8 14.6 -21.5 11.9 -23.1 9.05 -23.7 8.05 -24.5 5.15 -25.75 1.05 -26.0 -2.95 -22.75 3.3 -17.9 8.7 -12.4 14.85 -6.2 18.25 9.25 26.7 23.95 15.9" fill="#b83727" fill-rule="evenodd" stroke="none"/>
      <path d="M8.4 -37.15 L11.05 -36.4 Q14.2 -35.3 16.85 -33.45 25.35 -27.6 25.55 -16.9 L26.0 -16.5 26.95 -15.3 Q28.15 -13.15 26.8 -10.4 25.55 -7.65 25.95 -2.75 26.1 -0.35 26.55 1.55 L27.6 5.05 Q28.5 8.75 27.9 9.85 27.9 8.95 27.35 7.8 26.2 5.45 23.45 4.15 L23.6 5.35 Q23.7 6.8 23.4 8.15 22.55 12.5 18.5 14.3 19.25 13.65 19.5 12.45 20.0 10.05 17.75 7.25 L16.85 6.15 Q16.0 4.8 16.2 3.65 16.3 2.95 15.7 3.5 L14.65 5.2 Q13.2 8.35 14.85 9.85 13.95 9.75 12.9 9.05 10.75 7.7 9.95 4.95 7.85 4.8 5.3 5.7 0.25 7.55 -2.05 12.75 L-3.65 10.6 Q-5.05 7.95 -4.1 5.2 L-4.75 5.75 -5.9 7.5 Q-7.25 10.55 -5.15 14.3 -7.1 13.55 -9.0 11.15 -12.75 6.25 -12.4 -2.35 -12.05 -11.55 -16.85 -13.4 -18.7 -14.1 -20.8 -13.4 -22.75 -12.7 -23.85 -11.2 -24.9 -9.75 -24.6 -11.05 L-23.2 -14.85 Q-19.95 -21.65 -16.85 -23.9 -13.8 -26.1 -12.2 -29.9 -11.1 -32.6 -11.1 -34.55 L-9.65 -32.6 -7.4 -30.2 Q-7.7 -30.6 -7.8 -31.25 -8.1 -32.55 -7.45 -34.0 -5.4 -38.65 5.0 -42.9 4.85 -41.1 5.4 -39.0 6.55 -34.7 9.95 -32.75 L10.15 -33.7 Q10.0 -35.05 8.4 -37.15" fill="#f26f27" fill-rule="evenodd" stroke="none"/>
      <path d="M5.0 -42.9 Q4.85 -41.1 5.4 -39.0 6.55 -34.7 9.95 -32.75 L10.15 -33.7 Q10.0 -35.05 8.4 -37.15 L11.05 -36.4 Q14.2 -35.3 16.85 -33.45 25.35 -27.6 25.55 -16.9 L26.0 -16.5 26.95 -15.3 Q28.15 -13.15 26.8 -10.4 25.85 -8.35 25.85 -5.05 19.55 -2.35 10.6 -3.6 L5.1 -4.75 2.9 -5.45 Q3.3 -6.65 1.0 -9.65 -1.25 -12.5 -2.65 -13.0 -4.45 -12.1 -5.05 -8.45 L-5.25 -4.95 Q-9.9 -8.65 -9.75 -15.45 -9.7 -17.55 -9.15 -19.7 L-8.65 -21.45 Q-9.85 -20.45 -13.2 -19.65 L-16.3 -19.0 Q-17.4 -21.8 -15.95 -24.05 -13.95 -26.15 -13.55 -27.4 -12.3 -29.35 -11.6 -31.7 -11.1 -33.45 -11.1 -34.55 L-9.8 -32.05 Q-8.4 -29.45 -7.75 -29.1 L-8.1 -30.35 Q-8.3 -31.85 -7.6 -33.45 -5.4 -38.65 5.0 -42.9" fill="#ed4621" fill-rule="evenodd" stroke="none"/>
      <path d="M5.0 -42.9 Q4.85 -41.1 5.4 -39.0 6.55 -34.7 9.95 -32.75 L10.15 -33.7 Q10.0 -35.05 8.4 -37.15 L10.45 -36.6 Q13.0 -35.75 15.3 -34.4 22.7 -30.15 24.8 -22.5 L23.45 -19.65 22.8 -18.7 Q23.65 -20.65 22.35 -22.7 L20.85 -24.35 Q21.1 -22.3 18.95 -19.7 L16.75 -17.55 Q16.75 -20.1 13.65 -22.5 L11.5 -23.85 10.55 -24.35 Q10.15 -23.75 11.7 -21.05 L13.25 -18.5 Q4.6 -20.35 1.45 -26.8 0.5 -28.8 0.2 -31.05 L0.05 -32.9 -2.35 -29.25 -3.3 -27.4 -11.05 -27.75 Q-12.8 -28.7 -11.75 -31.2 -11.1 -33.25 -11.1 -34.55 L-9.8 -32.9 -8.0 -30.7 -8.3 -31.65 Q-8.45 -32.9 -7.75 -34.25 -5.4 -38.65 5.0 -42.9" fill="#ffc42e" fill-rule="evenodd" stroke="none"/>
      <path d="M13.25 -18.5 L11.7 -20.2 Q10.15 -22.3 10.55 -24.35 L11.5 -23.85 13.65 -22.5 Q16.75 -20.1 16.75 -17.55 L18.95 -19.7 Q21.1 -22.3 20.85 -24.35 L22.35 -22.7 Q23.65 -20.65 22.8 -18.7 L23.45 -19.6 Q24.2 -20.8 24.8 -22.5 24.65 -19.4 22.85 -17.1 L21.6 -15.8 21.05 -15.4 Q15.5 -13.1 9.25 -15.3 7.3 -15.95 5.5 -17.0 L4.1 -17.95 Q0.95 -23.15 -2.55 -25.05 -3.7 -25.65 -4.7 -25.85 L-5.45 -25.9 -11.05 -26.15 Q-13.1 -26.45 -13.35 -27.75 -12.5 -29.1 -12.0 -30.55 -12.45 -28.75 -11.1 -28.0 L-6.55 -27.85 -6.35 -28.55 -5.5 -30.15 Q-3.7 -32.5 0.05 -32.9 L0.55 -30.85 Q1.3 -28.4 2.5 -26.25 6.3 -19.5 13.25 -18.5" fill="#ed7824" fill-rule="evenodd" stroke="none"/>
      <path d="M-50.55 59.6 Q-49.75 58.15 -48.15 57.55 L-47.9 60.4 Q-47.45 63.35 -46.45 63.9 L-46.05 60.4 Q-45.3 56.85 -43.75 56.45 -45.7 60.0 -44.65 63.85 -44.15 65.8 -43.2 67.05 -45.25 68.0 -46.8 71.45 -47.55 73.15 -47.9 74.7 -56.0 70.75 -55.8 65.6 -55.6 61.65 -50.65 57.2 -51.75 59.75 -51.0 60.9 L-50.55 59.6" fill="#f26f27" fill-rule="evenodd" stroke="none"/>
      <path d="M-24.25 54.8 Q-23.95 55.0 -23.45 54.55 L-22.45 53.15 Q-22.65 55.6 -22.15 58.05 L-21.5 60.5 Q-21.25 61.5 -22.35 64.6 L-23.45 67.5 Q-23.1 66.55 -24.15 65.7 L-25.3 65.1 Q-28.55 63.55 -30.45 61.75 L-31.65 60.25 Q-32.45 55.8 -28.5 49.9 -29.05 55.2 -26.3 56.35 L-26.8 54.25 Q-27.0 52.1 -25.55 51.95 L-25.2 53.15 Q-24.75 54.5 -24.25 54.8" fill="#f26f27" fill-rule="evenodd" stroke="none"/>
      <path d="M1.75 30.7 Q2.4 31.8 2.45 32.95 2.5 34.0 2.15 34.4 1.5 35.45 -0.25 35.95 -3.7 36.9 -9.15 34.15 -9.8 32.35 -9.5 30.6 -9.0 27.1 -4.6 27.4 -0.05 27.75 1.75 30.7" fill="#f5af00" fill-rule="evenodd" stroke="none"/>
      <path d="M-0.15 31.05 Q1.2 32.65 0.8 36.15 L-0.5 36.25 Q-0.35 35.05 -0.45 33.7 -0.6 30.95 -1.65 30.2 L-1.2 30.35 Q-0.6 30.6 -0.15 31.05" fill="#96341e" fill-rule="evenodd" stroke="none"/>
      <path d="M15.25 6.1 L15.9 7.15 17.15 9.7 Q18.85 13.7 17.4 15.85 16.75 14.95 15.9 14.5 L15.2 14.15 16.2 15.75 Q17.1 17.75 16.6 19.75 16.35 18.45 15.6 17.8 L14.9 17.4 15.1 19.05 Q14.9 21.15 13.2 23.55 14.4 20.15 13.8 17.35 L13.3 15.8 13.0 15.3 14.95 16.0 14.5 14.4 Q13.8 12.75 12.4 12.3 L15.75 12.8 16.8 13.3 16.9 11.3 Q16.7 8.75 15.25 6.1" fill="#96341e" fill-rule="evenodd" stroke="none"/>
      <path d="M-20.75 -20.9 Q-15.8 -17.05 -13.0 -11.4 -11.0 -7.35 -17.85 -3.95 -21.3 -2.2 -25.15 -1.35 -40.0 -4.9 -46.3 -16.05 -49.45 -21.65 -49.65 -26.5 L-49.65 -29.7 -50.35 -31.6 Q-50.45 -35.25 -48.85 -38.5 L-47.2 -41.05 Q-42.95 -33.1 -37.55 -29.0 -34.85 -26.9 -33.0 -26.45 -26.0 -25.0 -20.75 -20.9" fill="#96341e" fill-rule="evenodd" stroke="none"/>
      <path d="M-21.5 -19.65 Q-16.5 -16.35 -14.15 -11.6 -12.15 -7.5 -17.9 -4.7 -20.8 -3.25 -24.05 -2.65 -37.35 -5.85 -43.65 -16.1 -46.8 -21.25 -47.3 -25.75 L-46.8 -28.1 -47.7 -29.8 Q-47.8 -33.05 -46.7 -34.55 L-45.6 -35.4 Q-41.85 -28.35 -36.95 -25.55 -34.5 -24.15 -32.85 -24.15 -26.25 -22.75 -21.5 -19.65" fill="#f74a23" fill-rule="evenodd" stroke="none"/>
      <path d="M-45.6 -35.4 Q-41.85 -28.35 -36.95 -25.55 -34.5 -24.15 -32.85 -24.15 -28.5 -23.2 -24.95 -21.55 -27.85 -22.65 -30.45 -22.9 L-34.75 -22.55 Q-37.65 -21.5 -40.45 -22.55 -41.3 -22.9 -42.05 -23.4 L-42.65 -23.8 Q-42.5 -21.35 -40.95 -18.15 L-39.45 -15.4 Q-40.15 -15.05 -41.55 -17.1 L-42.85 -19.25 Q-42.6 -15.3 -36.95 -8.6 -42.7 -13.1 -45.55 -19.9 L-47.0 -24.1 -47.3 -25.75 -46.8 -28.1 -47.7 -29.8 Q-47.8 -33.05 -46.7 -34.55 L-45.6 -35.4" fill="#ffb700" fill-rule="evenodd" stroke="none"/>
      <path d="M-47.0 -28.4 L-43.3 -23.1 -45.1 -24.55 Q-46.95 -26.2 -47.45 -27.2 -47.9 -28.2 -47.5 -28.4 L-47.0 -28.4" fill="#96341e" fill-rule="evenodd" stroke="none"/>
      <path d="M24.1 -17.05 Q24.85 -16.45 24.7 -15.1 24.45 -13.55 22.45 -13.1 21.65 -13.1 21.05 -13.45 19.85 -14.05 20.7 -15.65 21.95 -17.8 23.15 -17.65 23.75 -17.55 24.1 -17.05" fill="#000000" fill-rule="evenodd" stroke="none"/>
      <path d="M23.7 -15.4 L23.55 -14.7 Q23.35 -14.4 23.05 -14.4 L22.6 -14.7 22.4 -15.4 22.6 -16.1 23.05 -16.35 23.55 -16.1 23.7 -15.4" fill="#ffffff" fill-rule="evenodd" stroke="none"/>
      <path d="M19.4 -15.15 Q21.85 -16.45 22.3 -19.25 22.4 -20.05 22.8 -20.9 23.55 -22.55 24.8 -22.5 L24.3 -21.25 Q23.7 -19.55 23.2 -17.3 22.7 -15.05 20.1 -14.55 L16.95 -14.4 17.7 -14.55 19.4 -15.15" fill="#ffe626" fill-rule="evenodd" stroke="none"/>
      <path d="M6.05 -17.05 Q6.8 -14.25 5.4 -13.15 4.95 -12.8 4.35 -12.7 L3.8 -12.6 Q0.35 -13.0 0.2 -16.25 0.1 -17.3 0.4 -18.55 L0.7 -19.75 1.4 -19.9 2.95 -19.9 Q5.4 -19.55 6.05 -17.05" fill="#000000" fill-rule="evenodd" stroke="none"/>
      <path d="M5.25 -15.3 L4.95 -14.3 4.3 -13.9 3.6 -14.3 Q3.3 -14.7 3.3 -15.3 3.3 -15.85 3.6 -16.25 3.9 -16.65 4.3 -16.65 4.7 -16.65 4.95 -16.25 L5.25 -15.3" fill="#ffffff" fill-rule="evenodd" stroke="none"/>
      <path d="M9.5 -14.45 Q4.2 -14.9 1.75 -17.7 L-1.0 -21.15 -2.85 -23.35 Q-4.55 -24.95 -10.25 -26.2 L-8.7 -26.4 -5.0 -26.25 Q0.9 -25.4 3.95 -20.65 L4.7 -19.6 Q5.65 -18.4 6.75 -17.35 10.35 -14.15 14.35 -14.55 12.2 -14.25 9.5 -14.45" fill="#ffe626" fill-rule="evenodd" stroke="none"/>
      <path d="M16.95 -15.65 L22.15 -15.0 Q23.25 -14.5 25.4 -12.75 28.25 -10.5 30.3 -7.85 36.45 -0.1 33.05 7.0 L30.45 7.8 Q27.85 8.4 27.7 7.8 L27.85 4.85 Q27.75 2.55 25.55 1.65 23.3 0.75 20.25 1.55 L13.55 3.6 Q9.5 4.65 6.9 3.65 4.35 2.6 3.8 -0.2 L3.65 0.5 3.5 1.75 -0.95 -2.0 Q-0.7 -5.25 1.2 -8.65 5.05 -15.35 13.25 -15.7 L16.95 -15.65" fill="#96341e" fill-rule="evenodd" stroke="none"/>
      <path d="M4.9 -0.75 Q5.4 -1.7 6.55 -2.3 7.95 -3.0 10.15 -2.9 L16.0 -1.85 21.85 0.0 14.25 1.8 Q11.35 2.55 8.7 1.8 6.2 1.05 4.9 -0.75" fill="#c77700" fill-rule="evenodd" stroke="none"/>
      <path d="M14.35 -14.55 L17.3 -14.5 21.65 -13.9 24.6 -11.95 Q27.2 -9.95 29.05 -7.6 34.55 -0.75 31.5 5.7 L30.55 6.0 Q29.6 6.15 29.45 5.6 L28.8 3.25 Q27.95 1.45 25.95 0.65 24.25 -0.75 18.85 -2.65 13.3 -4.6 9.8 -4.95 6.75 -5.25 4.75 -3.4 3.3 -2.05 3.3 -1.05 L0.8 -2.55 Q1.2 -5.4 3.1 -8.35 6.9 -14.25 14.35 -14.55" fill="#ffc333" fill-rule="evenodd" stroke="none"/>
      <path d="M18.7 -7.1 L11.35 -10.35 Q8.15 -11.8 8.25 -12.35 8.55 -14.6 15.15 -14.45 L21.65 -13.9 Q29.95 -8.3 31.8 -1.65 32.4 0.45 32.15 2.05 31.95 3.6 31.65 2.85 29.8 -1.9 18.7 -7.1" fill="#fff1cc" fill-rule="evenodd" stroke="none"/>
      <path d="M13.7 -13.15 L15.0 -12.65 Q16.3 -12.0 16.3 -11.45 16.3 -11.1 15.8 -11.05 L14.7 -11.25 Q13.2 -11.9 13.7 -13.15" fill="#a87a09" fill-rule="evenodd" stroke="none"/>
      <path d="M20.45 -13.1 L21.35 -12.75 Q22.3 -12.3 22.3 -11.9 22.3 -11.3 21.15 -11.75 20.05 -12.2 20.45 -13.1" fill="#a87a09" fill-rule="evenodd" stroke="none"/>
    </g>
  </defs>
</svg>
