<?xml version="1.0" encoding="UTF-8" standalone="no"?>
<svg xmlns:ffdec="https://www.free-decompiler.com/flash" xmlns:xlink="http://www.w3.org/1999/xlink" ffdec:objectType="frame" height="149.75px" width="100.05px" xmlns="http://www.w3.org/2000/svg">
  <g transform="matrix(1.0, 0.0, 0.0, 1.0, 59.4, 70.05)">
    <use ffdec:characterId="399" height="139.85" transform="matrix(1.0, 0.0, 0.0, 1.0, -59.25, -60.15)" width="99.9" xlink:href="#shape0"/>
  </g>
  <defs>
    <g id="shape0" transform="matrix(1.0, 0.0, 0.0, 1.0, 59.25, 60.15)">
      <path d="M14.4 -9.7 Q19.2 -7.15 22.6 -2.9 26.25 1.65 27.9 7.45 L28.35 8.55 30.25 11.35 Q33.95 16.05 40.65 19.9 L38.7 21.15 Q36.15 22.3 33.15 22.05 L31.55 21.4 28.95 21.25 Q24.95 20.85 20.2 18.0 10.7 12.25 6.9 -0.2 7.4 -3.3 8.55 -6.05 10.95 -11.55 14.4 -9.7" fill="#96341e" fill-rule="evenodd" stroke="none"/>
      <path d="M14.6 -8.75 Q18.65 -6.6 21.65 -2.3 24.45 1.75 25.95 7.25 L26.2 8.2 Q26.55 9.4 27.4 10.7 30.0 14.85 36.0 18.3 35.95 18.75 35.35 19.2 34.2 20.0 31.55 19.75 L30.05 18.95 28.2 19.25 Q24.45 18.6 20.1 15.75 11.3 10.1 7.9 -1.0 8.2 -3.65 9.15 -6.0 11.15 -10.6 14.6 -8.75" fill="#f74a23" fill-rule="evenodd" stroke="none"/>
      <path d="M24.85 5.25 Q24.45 3.1 23.4 0.6 25.05 3.8 25.95 7.25 L26.2 8.2 Q26.55 9.4 27.4 10.7 30.0 14.85 36.0 18.3 35.95 18.75 35.35 19.2 34.2 20.0 31.55 19.75 L30.05 18.95 28.2 19.25 Q26.15 18.9 23.3 17.55 17.6 14.85 13.55 9.9 19.35 14.9 22.6 15.25 L20.8 14.1 Q19.05 12.85 19.25 12.3 L21.6 13.7 Q24.3 15.1 26.3 15.3 25.65 14.6 25.15 13.45 24.1 11.1 24.8 8.75 25.25 7.45 24.85 5.25" fill="#ffb700" fill-rule="evenodd" stroke="none"/>
      <path d="M30.3 19.1 L30.35 19.55 29.4 19.45 Q28.55 19.0 27.1 17.35 L25.8 15.85 30.3 19.1" fill="#96341e" fill-rule="evenodd" stroke="none"/>
      <path d="M-15.7 35.5 L-13.8 33.95 -16.4 34.3 -18.45 37.1 -15.7 35.5 M14.8 -38.6 L16.65 -39.55 20.85 -39.35 Q27.1 -36.2 28.1 -17.0 L28.7 -16.45 29.85 -14.85 Q31.35 -12.1 29.9 -9.05 28.45 -6.0 28.7 -0.95 28.8 1.5 29.25 3.4 L29.6 7.75 Q29.6 12.4 27.7 13.85 L27.65 12.3 Q26.75 16.65 24.45 20.25 21.55 24.9 16.55 27.95 19.85 30.25 19.1 34.4 17.75 35.65 15.3 36.2 10.45 37.15 4.9 33.4 L4.75 32.4 3.6 32.6 Q4.0 33.7 4.0 34.7 4.0 35.65 3.6 36.05 2.85 37.25 0.95 37.85 -2.95 39.05 -9.0 36.25 -19.1 43.3 -20.15 52.35 -20.5 55.25 -19.85 58.2 L-18.95 61.25 Q-18.65 62.35 -21.1 67.45 L-23.6 72.35 Q-23.15 71.2 -24.35 70.2 -25.0 69.85 -25.7 69.45 -29.5 67.65 -32.45 64.0 L-34.1 61.65 -34.65 60.7 Q-35.75 54.55 -29.0 46.65 L-37.9 52.55 Q-43.85 56.1 -42.85 62.1 -42.35 65.1 -40.65 67.35 -43.75 68.75 -44.95 74.35 -45.6 77.15 -45.6 79.7 -56.15 75.25 -58.55 69.85 -60.5 65.5 -57.05 60.8 -54.65 57.4 -49.8 54.2 L-45.45 51.65 Q-36.7 47.5 -30.65 36.9 -26.55 29.6 -24.15 20.2 L-24.15 19.8 Q-23.85 17.0 -23.85 15.55 -23.95 13.05 -25.3 10.05 -26.65 7.1 -27.4 2.25 -28.45 -4.85 -26.7 -10.65 -25.45 -14.7 -23.4 -18.4 -21.2 -22.45 -18.75 -24.75 -15.35 -27.95 -12.95 -31.6 -10.65 -35.2 -11.1 -36.45 L-9.6 -37.2 -6.4 -38.45 Q-1.8 -39.7 -2.35 -35.95 L-0.9 -37.05 Q0.7 -38.35 1.6 -39.6 4.45 -43.6 -0.9 -45.5 L1.85 -47.6 Q5.1 -49.75 7.75 -50.4 16.1 -52.55 14.8 -38.6" fill="#96341e" fill-rule="evenodd" stroke="none"/>
      <path d="M-21.6 16.3 Q-20.4 15.0 -19.3 14.45 -15.75 12.8 -14.3 19.55 -12.65 27.0 -20.25 36.1 -26.6 43.8 -37.4 50.45 -45.25 55.35 -45.05 61.75 -44.95 65.0 -43.25 67.25 -45.25 68.2 -46.8 71.65 -47.55 73.35 -47.9 74.9 -60.95 68.65 -52.75 59.45 -50.2 56.55 -45.8 53.75 L-41.95 51.5 Q-30.1 43.7 -25.15 29.8 -23.6 25.45 -22.95 21.05 L-22.6 17.45 -21.6 16.3" fill="#e8c723" fill-rule="evenodd" stroke="none"/>
      <path d="M-11.65 30.2 Q-10.95 29.05 -7.15 27.85 -3.45 26.7 -0.7 26.65 2.4 26.6 1.45 28.15 0.3 30.05 -6.85 33.85 -19.95 40.8 -22.15 50.85 -22.85 54.05 -22.35 57.4 L-21.55 60.7 Q-21.3 61.7 -22.35 64.8 L-23.5 67.7 Q-23.1 66.75 -24.15 65.9 L-25.3 65.3 Q-28.55 63.75 -30.45 61.95 L-31.7 60.45 Q-32.8 54.05 -24.4 44.95 -21.75 42.1 -18.45 39.3 L-15.7 37.1 Q-8.7 33.75 -9.5 31.65 -9.75 31.0 -10.75 30.55 L-11.65 30.2" fill="#f0d718" fill-rule="evenodd" stroke="none"/>
      <path d="M-9.2 34.35 Q-9.8 32.55 -9.55 30.8 -9.05 27.3 -4.65 27.6 -0.05 27.95 1.7 30.9 2.35 32.0 2.4 33.15 2.5 34.2 2.1 34.6 1.45 35.65 -0.3 36.15 -3.75 37.15 -9.2 34.35" fill="#e0ad2f" fill-rule="evenodd" stroke="none"/>
      <path d="M6.25 32.55 Q5.8 30.85 6.45 29.35 7.7 26.35 13.15 27.35 L13.95 27.6 Q14.85 27.95 15.55 28.5 17.85 30.25 17.3 33.35 16.25 34.3 14.35 34.7 10.55 35.45 6.25 32.55" fill="#e0ad2f" fill-rule="evenodd" stroke="none"/>
      <path d="M-21.6 16.3 Q-20.4 15.0 -19.3 14.45 -15.75 12.8 -14.3 19.55 -12.65 27.0 -20.25 36.1 -26.6 43.8 -37.4 50.45 -45.25 55.35 -45.05 61.75 -44.95 65.0 -43.25 67.25 -45.25 68.2 -46.8 71.65 -47.55 73.35 -47.9 74.9 -60.95 68.65 -52.75 59.45 -50.2 56.55 -45.8 53.75 L-41.95 51.5 Q-30.1 43.7 -25.15 29.8 -23.6 25.45 -22.95 21.05 L-22.6 17.45 -21.6 16.3" fill="#ffe626" fill-rule="evenodd" stroke="none"/>
      <path d="M-11.65 30.2 Q-10.95 29.05 -7.15 27.85 -3.45 26.7 -0.7 26.65 2.4 26.6 1.45 28.15 0.3 30.05 -6.85 33.85 -19.95 40.8 -22.15 50.85 -22.85 54.05 -22.35 57.4 L-21.55 60.7 Q-21.3 61.7 -22.35 64.8 L-23.5 67.7 Q-23.1 66.75 -24.15 65.9 L-25.3 65.3 Q-28.55 63.75 -30.45 61.95 L-31.7 60.45 Q-32.8 54.05 -24.4 44.95 -21.75 42.1 -18.45 39.3 L-15.7 37.1 Q-11.05 33.55 -10.9 31.55 -10.85 30.9 -11.25 30.5 L-11.65 30.2" fill="#ffe626" fill-rule="evenodd" stroke="none"/>
      <path d="M6.25 32.55 Q5.8 30.85 6.45 29.35 7.7 26.35 13.15 27.35 L13.95 27.6 Q14.85 27.95 15.55 28.5 17.85 30.25 17.3 33.35 16.25 34.3 14.35 34.7 10.55 35.45 6.25 32.55" fill="#f5af00" fill-rule="evenodd" stroke="none"/>
      <path d="M26.3 9.25 Q25.35 13.5 23.35 17.15 16.8 28.95 1.45 30.7 L-5.75 30.75 Q-13.35 30.9 -15.3 31.65 -14.7 29.05 -14.6 26.1 -14.45 20.25 -17.15 18.65 L-17.5 19.75 -18.8 22.45 Q-21.3 26.85 -25.1 29.55 L-24.1 25.9 Q-23.0 21.75 -22.7 19.0 L-21.85 14.7 Q-21.55 11.95 -23.15 9.25 -23.75 8.3 -24.55 5.4 -25.65 1.6 -25.95 -1.85 -26.75 -12.1 -20.05 -14.5 -16.85 -15.65 -10.6 -14.6 -4.3 -13.6 2.75 -10.85 10.3 -7.9 16.35 -3.85 23.15 0.7 26.8 5.75 L26.3 9.25" fill="#d13f2c" fill-rule="evenodd" stroke="none"/>
      <path d="M14.1 29.15 L14.55 29.25 Q15.05 29.5 15.45 29.95 16.75 31.4 16.35 34.7 L15.15 34.75 15.2 32.4 Q15.05 29.8 14.1 29.15" fill="#96341e" fill-rule="evenodd" stroke="none"/>
      <path d="M-21.85 14.8 Q-21.55 12.1 -23.15 9.25 L-24.55 5.35 Q-25.75 1.25 -26.0 -2.75 -22.8 3.5 -17.95 8.9 -12.45 15.05 -6.25 18.4 9.25 26.9 23.9 16.1 21.2 21.6 16.4 25.15 10.4 29.7 1.45 30.7 L-5.75 30.75 Q-13.35 30.9 -15.3 31.65 -14.7 29.05 -14.6 26.1 -14.45 20.25 -17.15 18.65 L-17.5 19.75 -18.8 22.45 Q-21.3 26.85 -25.1 29.55 L-24.1 25.9 Q-23.0 21.75 -22.7 19.0 -22.0 16.3 -21.85 14.8" fill="#b83727" fill-rule="evenodd" stroke="none"/>
      <path d="M14.1 -35.85 L15.9 -36.1 Q18.0 -36.1 19.75 -34.9 25.4 -31.05 25.5 -16.7 L25.95 -16.3 26.9 -15.1 Q28.1 -13.0 26.8 -10.2 25.5 -7.45 25.9 -2.55 26.05 -0.15 26.5 1.75 L27.55 5.2 Q28.5 8.95 27.85 10.05 27.85 9.15 27.3 7.95 26.15 5.65 23.4 4.35 L23.55 5.55 Q23.65 7.0 23.4 8.35 22.55 12.7 18.45 14.5 19.2 13.85 19.45 12.65 19.95 10.2 17.7 7.45 L16.8 6.3 Q15.95 4.95 16.15 3.8 16.25 3.15 15.7 3.7 15.1 4.25 14.6 5.4 13.15 8.55 14.85 10.05 13.95 9.9 12.85 9.25 10.7 7.9 9.9 5.15 7.8 5.0 5.25 5.9 0.2 7.7 -2.05 12.9 -2.95 12.15 -3.7 10.8 -5.1 8.15 -4.15 5.4 L-4.8 5.95 -5.95 7.7 Q-7.3 10.75 -5.2 14.5 -7.15 13.75 -9.0 11.35 -12.8 6.45 -12.45 -2.15 -12.1 -11.4 -16.9 -13.2 -18.75 -13.9 -20.85 -13.2 -22.8 -12.5 -23.9 -11.0 -24.9 -9.55 -24.65 -10.85 -24.4 -12.1 -23.2 -14.65 -20.0 -21.5 -16.85 -23.7 -12.95 -26.55 -9.8 -31.4 -8.3 -33.65 -8.3 -34.75 -8.2 -36.05 -10.05 -35.55 L-9.1 -35.95 -6.95 -36.4 Q-3.75 -36.6 -3.25 -33.5 L-1.2 -34.75 2.5 -37.75 Q7.1 -42.55 1.45 -45.4 L3.75 -46.45 Q6.4 -47.4 8.5 -47.15 15.15 -46.25 13.15 -33.45 L15.25 -34.05 Q16.8 -34.85 14.1 -35.85" fill="#f26f27" fill-rule="evenodd" stroke="none"/>
      <path d="M3.95 -46.4 Q6.55 -47.45 8.55 -47.25 15.0 -46.5 13.15 -33.45 L15.15 -34.0 Q16.6 -34.75 14.1 -35.85 L15.75 -36.35 Q17.7 -36.65 19.4 -35.6 24.8 -32.2 25.5 -16.7 L25.95 -16.3 26.9 -15.1 Q28.1 -13.0 26.8 -10.2 25.85 -8.2 25.8 -4.85 19.5 -2.15 10.55 -3.45 L5.05 -4.6 2.85 -5.25 Q3.25 -6.45 0.95 -9.45 -1.25 -12.3 -2.7 -12.8 -4.5 -11.9 -5.1 -8.25 L-5.3 -4.75 Q-9.95 -8.5 -9.8 -15.25 -9.7 -17.35 -9.2 -19.5 L-8.7 -21.25 Q-9.9 -20.25 -13.25 -19.45 L-16.35 -18.8 Q-17.45 -21.6 -15.95 -23.85 -14.0 -26.0 -13.6 -27.2 -8.25 -33.35 -8.1 -34.85 -8.0 -35.45 -8.7 -35.55 L-10.05 -35.55 -9.1 -35.95 -6.95 -36.4 Q-3.75 -36.6 -3.25 -33.5 L-1.05 -34.95 2.95 -38.25 Q7.9 -43.35 1.75 -45.3 L3.95 -46.4" fill="#ed4621" fill-rule="evenodd" stroke="none"/>
      <path d="M13.15 -33.45 L15.0 -34.05 Q16.4 -34.85 14.1 -35.85 L15.75 -36.7 19.4 -36.9 Q24.7 -35.35 24.75 -22.3 24.2 -20.75 23.45 -19.45 L22.75 -18.5 Q23.6 -20.45 22.3 -22.5 L20.8 -24.15 Q21.05 -22.1 18.9 -19.5 L16.7 -17.35 Q16.7 -19.9 13.6 -22.3 L11.45 -23.7 10.5 -24.15 Q10.1 -23.55 11.65 -20.85 L13.2 -18.3 Q4.55 -20.15 1.45 -26.6 0.45 -28.6 0.15 -30.85 L0.05 -32.7 -2.4 -29.1 -3.35 -27.25 -11.1 -27.55 Q-12.85 -28.5 -11.8 -31.0 -8.95 -33.2 -8.7 -34.5 -8.5 -35.55 -10.05 -35.55 L-9.05 -36.1 -6.85 -36.75 Q-3.6 -37.15 -3.25 -33.5 L-1.4 -34.8 Q0.65 -36.4 2.0 -37.95 6.25 -42.85 1.45 -45.4 L3.85 -46.65 Q6.65 -47.9 8.75 -47.75 15.6 -47.3 13.15 -33.45" fill="#ffc42e" fill-rule="evenodd" stroke="none"/>
      <path d="M10.5 -24.15 L11.45 -23.7 13.6 -22.3 Q16.7 -19.9 16.7 -17.35 L18.9 -19.5 Q21.05 -22.1 20.8 -24.15 L22.3 -22.5 Q23.6 -20.45 22.75 -18.5 L23.4 -19.4 Q24.15 -20.6 24.75 -22.3 24.6 -19.2 22.8 -16.9 L21.55 -15.6 21.0 -15.2 Q15.45 -12.9 9.2 -15.1 7.25 -15.75 5.45 -16.8 L4.05 -17.75 Q0.9 -23.0 -2.6 -24.85 -3.75 -25.45 -4.75 -25.65 L-5.5 -25.75 -11.1 -26.0 Q-13.1 -26.25 -13.35 -27.55 -12.6 -28.85 -12.0 -30.4 -12.55 -28.55 -11.15 -27.8 L-6.6 -27.7 -6.4 -28.4 -5.55 -29.95 Q-3.75 -32.3 0.05 -32.7 L0.5 -30.65 Q1.25 -28.2 2.45 -26.1 6.25 -19.3 13.2 -18.3 L11.65 -20.0 Q10.1 -22.1 10.5 -24.15" fill="#ed7824" fill-rule="evenodd" stroke="none"/>
      <path d="M-46.5 64.1 Q-46.45 62.4 -46.05 60.6 -45.3 57.05 -43.75 56.6 -45.75 60.15 -44.7 64.05 -44.15 66.0 -43.25 67.25 -45.25 68.2 -46.8 71.65 -47.55 73.35 -47.9 74.9 -56.05 70.95 -55.85 65.8 -55.65 61.8 -50.7 57.4 -51.8 59.95 -51.05 61.1 L-50.6 59.8 Q-49.8 58.35 -48.2 57.75 L-47.9 60.6 Q-47.5 63.55 -46.5 64.1" fill="#f26f27" fill-rule="evenodd" stroke="none"/>
      <path d="M-24.3 55.0 Q-23.95 55.2 -23.5 54.75 L-22.5 53.35 Q-22.7 55.8 -22.2 58.25 L-21.55 60.7 Q-21.3 61.7 -22.35 64.8 L-23.5 67.7 Q-23.1 66.75 -24.15 65.9 L-25.3 65.3 Q-28.55 63.75 -30.45 61.95 L-31.7 60.45 Q-32.45 56.0 -28.55 50.1 -29.05 55.4 -26.35 56.55 L-26.85 54.45 Q-27.05 52.3 -25.6 52.15 L-25.2 53.35 Q-24.75 54.65 -24.3 55.0" fill="#f26f27" fill-rule="evenodd" stroke="none"/>
      <path d="M-9.2 34.35 Q-9.8 32.55 -9.55 30.8 -9.05 27.3 -4.65 27.6 -0.05 27.95 1.7 30.9 2.35 32.0 2.4 33.15 2.5 34.2 2.1 34.6 1.45 35.65 -0.3 36.15 -3.75 37.15 -9.2 34.35" fill="#f5af00" fill-rule="evenodd" stroke="none"/>
      <path d="M-1.7 30.4 L-1.25 30.55 Q-0.65 30.8 -0.2 31.25 1.15 32.8 0.75 36.35 L-0.55 36.45 Q-0.4 35.25 -0.5 33.9 -0.65 31.15 -1.7 30.4" fill="#96341e" fill-rule="evenodd" stroke="none"/>
      <path d="M15.85 7.35 L17.15 9.9 Q18.8 13.9 17.35 16.05 16.7 15.15 15.85 14.7 L15.15 14.35 16.15 15.95 Q17.05 17.95 16.55 19.95 16.3 18.65 15.55 17.95 L14.85 17.6 15.05 19.25 Q14.85 21.35 13.15 23.75 14.35 20.35 13.75 17.55 L13.25 16.0 12.95 15.5 14.9 16.2 14.45 14.6 Q13.75 12.9 12.35 12.5 L15.7 13.0 16.75 13.5 16.85 11.5 Q16.65 8.95 15.2 6.3 L15.85 7.35" fill="#96341e" fill-rule="evenodd" stroke="none"/>
      <path d="M-14.7 -13.0 Q-8.45 -9.65 -3.95 -4.1 0.8 1.75 2.9 9.4 L3.55 10.8 Q4.45 12.55 6.0 14.45 10.8 20.55 19.6 25.6 L17.0 27.2 Q13.65 28.75 9.8 28.4 L7.75 27.55 4.25 27.35 0.9 26.65 Q-3.25 25.45 -7.15 23.1 -19.5 15.6 -24.45 -0.6 -23.85 -4.65 -22.3 -8.25 -19.2 -15.4 -14.7 -13.0" fill="#96341e" fill-rule="evenodd" stroke="none"/>
      <path d="M-14.4 -11.75 Q-9.15 -8.95 -5.25 -3.35 -1.55 1.95 0.4 9.1 L0.7 10.35 Q1.2 11.95 2.25 13.65 5.65 19.05 13.45 23.55 L13.3 23.9 12.6 24.7 Q11.1 25.75 7.65 25.4 L5.75 24.35 3.3 24.75 Q-1.55 23.95 -7.3 20.25 -18.75 12.8 -23.2 -1.65 -22.8 -5.1 -21.5 -8.15 -18.9 -14.15 -14.4 -11.75" fill="#f74a23" fill-rule="evenodd" stroke="none"/>
      <path d="M-1.1 11.05 Q-0.55 9.35 -1.1 6.45 -1.6 3.65 -2.95 0.45 -0.85 4.45 0.4 9.1 L0.7 10.35 Q1.2 11.95 2.25 13.65 5.65 19.05 13.45 23.55 L13.3 23.9 12.6 24.7 Q11.1 25.75 7.65 25.4 L5.75 24.35 3.3 24.75 Q0.65 24.3 -3.1 22.55 -10.55 19.05 -15.8 12.55 -8.2 19.05 -4.0 19.55 L-6.35 18.05 Q-8.65 16.4 -8.35 15.7 L-5.3 17.5 Q-1.75 19.3 0.85 19.65 0.0 18.7 -0.65 17.15 -2.0 14.1 -1.1 11.05" fill="#ffb700" fill-rule="evenodd" stroke="none"/>
      <path d="M1.85 22.3 L0.2 20.3 6.05 24.6 6.15 25.15 4.85 25.0 Q3.75 24.4 1.85 22.3" fill="#96341e" fill-rule="evenodd" stroke="none"/>
      <path d="M24.05 -16.85 Q24.8 -16.25 24.65 -14.95 24.4 -13.35 22.4 -12.9 21.65 -12.9 21.0 -13.25 19.8 -13.9 20.65 -15.45 21.9 -17.6 23.1 -17.45 L24.05 -16.85" fill="#000000" fill-rule="evenodd" stroke="none"/>
      <path d="M23.65 -15.2 L23.5 -14.5 Q23.3 -14.25 23.05 -14.25 22.75 -14.25 22.55 -14.5 L22.35 -15.2 22.55 -15.9 Q22.75 -16.2 23.05 -16.2 L23.5 -15.9 23.65 -15.2" fill="#ffffff" fill-rule="evenodd" stroke="none"/>
      <path d="M20.05 -14.35 L18.1 -14.25 16.95 -14.25 17.65 -14.35 19.35 -14.95 Q21.85 -16.25 22.25 -19.05 L22.75 -20.7 Q23.5 -22.35 24.75 -22.3 L24.25 -21.05 Q23.65 -19.35 23.15 -17.1 22.7 -14.85 20.05 -14.35" fill="#ffe626" fill-rule="evenodd" stroke="none"/>
      <path d="M6.0 -16.85 Q6.75 -14.05 5.35 -12.95 4.9 -12.65 4.3 -12.5 L3.8 -12.4 Q0.3 -12.8 0.15 -16.1 0.1 -17.1 0.4 -18.4 L0.65 -19.55 1.35 -19.7 2.95 -19.7 Q5.35 -19.35 6.0 -16.85" fill="#000000" fill-rule="evenodd" stroke="none"/>
      <path d="M5.2 -15.1 L4.95 -14.1 Q4.65 -13.7 4.25 -13.7 L3.55 -14.1 Q3.25 -14.5 3.25 -15.1 3.25 -15.65 3.55 -16.05 3.85 -16.45 4.25 -16.45 4.65 -16.45 4.95 -16.05 L5.2 -15.1" fill="#ffffff" fill-rule="evenodd" stroke="none"/>
      <path d="M9.5 -14.25 Q4.15 -14.7 1.7 -17.5 0.4 -18.95 -1.05 -20.95 L-2.85 -23.15 Q-4.55 -24.75 -10.3 -26.0 L-8.75 -26.2 -5.05 -26.1 Q0.85 -25.2 3.95 -20.45 L4.65 -19.4 6.75 -17.15 Q10.35 -13.95 14.3 -14.35 12.15 -14.05 9.5 -14.25" fill="#ffe626" fill-rule="evenodd" stroke="none"/>
      <path d="M30.3 -7.65 Q36.4 0.1 33.05 7.2 L30.45 7.95 27.65 8.0 27.8 5.05 Q27.7 2.75 25.5 1.85 23.25 0.95 20.2 1.75 L13.5 3.8 Q9.45 4.85 6.85 3.8 4.3 2.8 3.75 0.0 L3.6 0.7 3.45 1.95 -1.0 -1.8 Q-0.75 -5.05 1.2 -8.45 5.0 -15.15 13.2 -15.5 L16.9 -15.45 22.1 -14.8 Q23.2 -14.35 25.35 -12.6 28.2 -10.3 30.3 -7.65" fill="#96341e" fill-rule="evenodd" stroke="none"/>
      <path d="M4.9 -0.55 Q5.35 -1.5 6.5 -2.1 7.9 -2.8 10.1 -2.75 L15.95 -1.65 21.8 0.2 14.2 2.0 Q11.3 2.75 8.65 2.0 6.15 1.25 4.9 -0.55" fill="#c77700" fill-rule="evenodd" stroke="none"/>
      <path d="M21.6 -13.7 L24.6 -11.75 Q27.15 -9.75 29.0 -7.4 34.55 -0.55 31.45 5.9 L30.55 6.2 Q29.55 6.35 29.4 5.75 L28.75 3.45 Q27.95 1.65 25.9 0.85 24.2 -0.55 18.8 -2.45 13.3 -4.4 9.8 -4.75 6.7 -5.05 4.7 -3.2 3.25 -1.85 3.25 -0.85 L0.75 -2.35 Q1.15 -5.2 3.05 -8.15 6.85 -14.05 14.3 -14.35 L17.3 -14.3 21.6 -13.7" fill="#ffc333" fill-rule="evenodd" stroke="none"/>
      <path d="M18.65 -6.9 L11.35 -10.15 Q8.15 -11.6 8.2 -12.15 8.5 -14.4 15.1 -14.25 L21.6 -13.7 Q29.9 -8.1 31.75 -1.5 32.35 0.65 32.1 2.25 31.9 3.8 31.6 3.05 29.8 -1.7 18.65 -6.9" fill="#fff1cc" fill-rule="evenodd" stroke="none"/>
      <path d="M13.65 -12.95 L15.0 -12.45 Q16.25 -11.8 16.25 -11.25 16.25 -10.9 15.75 -10.85 L14.7 -11.05 Q13.15 -11.7 13.65 -12.95" fill="#a87a09" fill-rule="evenodd" stroke="none"/>
      <path d="M20.4 -12.9 L21.35 -12.55 Q22.25 -12.1 22.25 -11.7 22.25 -11.1 21.1 -11.55 20.0 -12.0 20.4 -12.9" fill="#a87a09" fill-rule="evenodd" stroke="none"/>
      <path d="M13.95 -53.4 Q13.55 -54.65 13.05 -54.8 12.6 -54.9 12.8 -54.2 13.0 -53.4 12.45 -52.95 11.9 -52.5 10.95 -52.45 8.6 -52.4 7.55 -54.1 6.45 -55.8 7.95 -58.05 9.45 -60.3 11.55 -60.05 13.9 -59.7 14.15 -56.5 14.3 -54.95 13.95 -53.4" fill="#96341e" fill-rule="evenodd" stroke="none"/>
      <path d="M13.75 -54.4 Q13.3 -55.75 12.6 -55.75 11.85 -55.75 12.35 -54.5 12.85 -53.15 11.05 -53.0 9.2 -52.85 8.3 -54.2 7.4 -55.6 8.75 -57.35 10.1 -59.15 11.8 -58.75 13.4 -58.4 13.75 -56.4 L13.75 -54.4" fill="#ffc42e" fill-rule="evenodd" stroke="none"/>
    </g>
  </defs>
</svg>
