<?xml version="1.0" encoding="UTF-8" standalone="no"?>
<svg xmlns:ffdec="https://www.free-decompiler.com/flash" xmlns:xlink="http://www.w3.org/1999/xlink" ffdec:objectType="frame" height="149.75px" width="100.05px" xmlns="http://www.w3.org/2000/svg">
  <g transform="matrix(1.0, 0.0, 0.0, 1.0, 59.4, 70.05)">
    <use ffdec:characterId="400" height="149.75" transform="matrix(1.0, 0.0, 0.0, 1.0, -59.4, -70.05)" width="93.5" xlink:href="#shape0"/>
  </g>
  <defs>
    <g id="shape0" transform="matrix(1.0, 0.0, 0.0, 1.0, 59.4, 70.05)">
      <path d="M-18.6 37.1 L-15.9 35.5 Q-14.3 34.65 -14.0 33.95 L-16.55 34.3 -18.6 37.1 M7.15 -44.4 Q12.3 -41.3 13.1 -38.45 L15.6 -37.65 Q18.55 -36.45 21.0 -34.5 28.75 -28.25 27.9 -17.0 L28.5 -16.45 29.7 -14.85 Q31.2 -12.1 29.75 -9.05 28.3 -6.0 28.55 -0.95 28.65 1.5 29.05 3.4 L29.45 7.75 Q29.4 12.4 27.55 13.85 L27.45 12.3 Q26.55 16.65 24.3 20.25 21.4 24.9 16.4 27.95 19.7 30.25 18.95 34.4 17.6 35.65 15.15 36.15 10.25 37.15 4.75 33.45 L4.55 32.4 3.45 32.6 Q3.85 33.7 3.85 34.7 3.8 35.65 3.45 36.1 2.7 37.25 0.8 37.85 -3.1 39.05 -9.15 36.25 -19.25 43.35 -20.3 52.35 -20.65 55.25 -20.0 58.2 L-19.1 61.25 Q-18.85 62.35 -21.25 67.45 L-23.75 72.35 Q-23.3 71.2 -24.5 70.25 L-25.85 69.45 Q-29.65 67.65 -32.6 64.0 L-34.3 61.65 -34.85 60.7 Q-35.95 54.55 -29.15 46.65 L-38.05 52.55 Q-44.0 56.1 -43.0 62.1 -42.5 65.1 -40.8 67.35 -43.9 68.7 -45.15 74.35 -45.75 77.15 -45.75 79.7 -56.35 75.25 -58.7 69.85 -60.65 65.5 -57.25 60.8 -54.8 57.4 -49.95 54.2 L-45.6 51.65 Q-36.85 47.5 -30.8 36.9 -26.65 29.55 -24.35 20.2 L-24.3 19.8 -24.0 15.55 Q-24.1 13.05 -25.45 10.05 -26.8 7.1 -27.55 2.3 -28.6 -4.85 -26.85 -10.65 -25.65 -14.7 -23.55 -18.4 -21.35 -22.4 -18.9 -24.75 -15.75 -27.7 -13.75 -31.4 -12.1 -34.45 -12.1 -36.05 L-9.15 -36.25 -5.35 -36.0 -4.3 -36.85 -1.95 -39.1 Q1.55 -42.95 2.2 -46.95 L3.7 -46.25 7.15 -44.4" fill="#96341e" fill-rule="evenodd" stroke="none"/>
      <path d="M-22.75 17.45 L-21.8 16.25 Q-20.6 15.0 -19.45 14.45 -15.9 12.8 -14.45 19.55 -12.8 27.0 -20.4 36.1 -26.75 43.8 -37.55 50.45 -45.45 55.35 -45.2 61.75 -45.1 65.0 -43.4 67.2 -45.45 68.2 -46.95 71.65 L-48.1 74.9 Q-61.1 68.65 -52.9 59.45 -50.35 56.55 -45.95 53.75 L-42.1 51.5 Q-30.25 43.7 -25.35 29.8 -23.75 25.45 -23.1 21.05 L-22.75 17.45" fill="#e8c723" fill-rule="evenodd" stroke="none"/>
      <path d="M-24.55 44.95 Q-21.9 42.1 -18.6 39.3 L-15.85 37.1 Q-8.85 33.75 -9.65 31.65 -9.9 31.0 -10.9 30.55 L-11.85 30.2 Q-11.1 29.05 -7.3 27.85 -3.65 26.7 -0.85 26.65 2.25 26.6 1.3 28.15 0.15 30.05 -7.0 33.85 -20.1 40.8 -22.3 50.85 -23.0 54.05 -22.5 57.4 L-21.7 60.7 Q-21.45 61.7 -22.5 64.8 L-23.65 67.7 Q-23.25 66.75 -24.35 65.9 L-25.5 65.25 Q-28.7 63.75 -30.6 61.95 L-31.85 60.45 Q-33.0 54.05 -24.55 44.95" fill="#f0d718" fill-rule="evenodd" stroke="none"/>
      <path d="M-9.35 34.35 Q-10.0 32.55 -9.7 30.8 -9.2 27.3 -4.8 27.6 -0.25 27.95 1.55 30.9 2.2 32.0 2.25 33.15 2.35 34.2 1.95 34.6 1.3 35.65 -0.45 36.15 -3.9 37.15 -9.35 34.35" fill="#e0ad2f" fill-rule="evenodd" stroke="none"/>
      <path d="M6.1 32.55 Q5.65 30.85 6.25 29.35 7.55 26.35 13.0 27.35 L13.8 27.6 Q14.7 27.95 15.4 28.5 17.7 30.25 17.15 33.35 16.1 34.3 14.2 34.7 10.4 35.45 6.1 32.55" fill="#e0ad2f" fill-rule="evenodd" stroke="none"/>
      <path d="M-22.75 17.45 L-21.8 16.25 Q-20.6 15.0 -19.45 14.45 -15.9 12.8 -14.45 19.55 -12.8 27.0 -20.4 36.1 -26.75 43.8 -37.55 50.45 -45.45 55.35 -45.2 61.75 -45.1 65.0 -43.4 67.2 -45.45 68.2 -46.95 71.65 L-48.1 74.9 Q-61.1 68.65 -52.9 59.45 -50.35 56.55 -45.95 53.75 L-42.1 51.5 Q-30.25 43.7 -25.35 29.8 -23.75 25.45 -23.1 21.05 L-22.75 17.45" fill="#ffe626" fill-rule="evenodd" stroke="none"/>
      <path d="M-24.55 44.95 Q-21.9 42.1 -18.6 39.3 L-15.85 37.1 Q-11.2 33.55 -11.05 31.55 -11.0 30.9 -11.45 30.5 L-11.85 30.2 Q-11.1 29.05 -7.3 27.85 -3.65 26.7 -0.85 26.65 2.25 26.6 1.3 28.15 0.15 30.05 -7.0 33.85 -20.1 40.8 -22.3 50.85 -23.0 54.05 -22.5 57.4 L-21.7 60.7 Q-21.45 61.7 -22.5 64.8 L-23.65 67.7 Q-23.25 66.75 -24.35 65.9 L-25.5 65.25 Q-28.7 63.75 -30.6 61.95 L-31.85 60.45 Q-33.0 54.05 -24.55 44.95" fill="#ffe626" fill-rule="evenodd" stroke="none"/>
      <path d="M6.1 32.55 Q5.65 30.85 6.25 29.35 7.55 26.35 13.0 27.35 L13.8 27.6 Q14.7 27.95 15.4 28.5 17.7 30.25 17.15 33.35 16.1 34.3 14.2 34.7 10.4 35.45 6.1 32.55" fill="#f5af00" fill-rule="evenodd" stroke="none"/>
      <path d="M26.65 5.75 L26.15 9.25 Q25.2 13.5 23.2 17.15 16.65 28.95 1.3 30.7 L-5.9 30.75 Q-13.5 30.9 -15.45 31.65 -14.85 29.05 -14.75 26.1 -14.6 20.25 -17.3 18.65 L-17.7 19.7 Q-18.2 21.1 -19.0 22.45 -21.45 26.85 -25.25 29.55 L-24.25 25.9 Q-23.2 21.75 -22.85 19.0 -22.2 16.25 -22.05 14.7 -21.7 11.95 -23.3 9.3 -23.9 8.3 -24.7 5.4 -25.85 1.6 -26.1 -1.8 -26.95 -12.1 -20.2 -14.5 -17.0 -15.65 -10.75 -14.6 -4.5 -13.6 2.55 -10.85 10.1 -7.9 16.2 -3.85 23.0 0.7 26.65 5.75" fill="#d13f2c" fill-rule="evenodd" stroke="none"/>
      <path d="M13.9 29.15 L14.35 29.25 15.3 29.95 Q16.6 31.4 16.2 34.65 L15.0 34.75 15.05 32.35 Q14.9 29.8 13.9 29.15" fill="#96341e" fill-rule="evenodd" stroke="none"/>
      <path d="M-24.7 5.35 Q-25.95 1.25 -26.2 -2.75 -22.95 3.5 -18.1 8.9 -12.6 15.05 -6.4 18.4 9.05 26.9 23.75 16.1 21.0 21.6 16.25 25.15 10.2 29.7 1.3 30.7 L-5.9 30.75 Q-13.5 30.9 -15.45 31.65 -14.85 29.05 -14.75 26.1 -14.6 20.25 -17.3 18.65 L-17.7 19.7 Q-18.2 21.1 -19.0 22.45 -21.45 26.85 -25.25 29.55 L-24.25 25.9 Q-23.2 21.75 -22.85 19.0 L-22.0 14.8 Q-21.7 12.1 -23.3 9.3 -23.9 8.25 -24.7 5.35" fill="#b83727" fill-rule="evenodd" stroke="none"/>
      <path d="M13.0 -36.0 L14.8 -35.85 Q17.05 -35.4 18.9 -33.95 24.95 -29.35 25.35 -16.7 L25.8 -16.3 26.75 -15.1 Q27.95 -12.95 26.6 -10.2 25.35 -7.45 25.75 -2.55 25.9 -0.15 26.35 1.75 L27.4 5.2 Q28.3 8.95 27.7 10.05 27.7 9.15 27.15 8.0 26.0 5.65 23.25 4.35 L23.4 5.55 Q23.5 7.0 23.2 8.35 22.35 12.7 18.3 14.5 19.05 13.85 19.3 12.65 19.8 10.25 17.55 7.45 L16.65 6.35 Q15.8 4.95 16.0 3.8 16.1 3.15 15.5 3.7 14.95 4.25 14.45 5.4 13.0 8.55 14.65 10.05 13.75 9.95 12.7 9.25 10.55 7.9 9.75 5.15 7.65 5.0 5.1 5.9 0.05 7.7 -2.25 12.9 -3.1 12.15 -3.85 10.8 -5.25 8.15 -4.3 5.4 L-4.95 5.95 -6.1 7.7 Q-7.45 10.75 -5.35 14.5 -7.3 13.75 -9.2 11.3 -12.95 6.45 -12.6 -2.15 -12.25 -11.35 -17.05 -13.2 -18.9 -13.9 -21.0 -13.2 -22.95 -12.5 -24.05 -11.0 -25.1 -9.55 -24.8 -10.85 L-23.4 -14.65 Q-20.15 -21.5 -17.05 -23.7 -13.55 -26.2 -11.15 -29.8 -8.8 -33.35 -9.75 -34.45 L-8.05 -34.25 Q-6.15 -33.75 -5.35 -32.35 -3.75 -33.4 -1.75 -35.4 2.2 -39.4 4.0 -44.2 L5.1 -43.5 7.5 -41.35 Q10.95 -37.55 10.9 -32.75 L12.3 -33.55 Q13.55 -34.65 13.0 -36.0" fill="#f26f27" fill-rule="evenodd" stroke="none"/>
      <path d="M4.9 -43.9 Q6.25 -43.0 7.4 -41.8 11.05 -37.95 10.9 -32.75 L12.1 -33.75 Q13.3 -34.95 13.0 -36.25 L14.8 -35.9 Q17.0 -35.25 18.85 -33.7 24.85 -28.7 25.35 -16.7 L25.8 -16.3 26.75 -15.1 Q27.95 -12.95 26.6 -10.2 25.65 -8.15 25.65 -4.85 19.35 -2.15 10.4 -3.45 L4.9 -4.6 2.7 -5.25 Q3.1 -6.45 0.8 -9.45 -1.4 -12.3 -2.85 -12.8 -4.65 -11.9 -5.25 -8.25 L-5.45 -4.75 Q-10.1 -8.5 -9.95 -15.25 -9.85 -17.35 -9.35 -19.5 L-8.85 -21.25 Q-10.05 -20.25 -13.4 -19.45 L-16.5 -18.8 Q-17.6 -21.6 -16.15 -23.85 -14.15 -26.0 -13.75 -27.2 L-10.55 -31.6 Q-8.95 -33.9 -9.75 -34.45 L-8.1 -34.25 Q-6.25 -33.75 -5.35 -32.35 -3.55 -33.75 -1.5 -35.95 2.6 -40.35 3.75 -44.6 L4.9 -43.9" fill="#ed4621" fill-rule="evenodd" stroke="none"/>
      <path d="M5.05 -43.9 L7.8 -41.75 Q11.7 -37.85 10.9 -32.75 L11.8 -33.55 Q12.75 -34.65 13.0 -36.25 L14.55 -36.2 Q16.45 -35.9 18.1 -34.95 23.5 -31.7 24.6 -22.3 L23.25 -19.45 22.6 -18.5 Q23.45 -20.45 22.15 -22.5 L20.65 -24.15 Q20.9 -22.1 18.75 -19.5 L16.55 -17.35 Q16.55 -19.9 13.45 -22.3 L11.3 -23.7 10.35 -24.15 Q9.95 -23.55 11.5 -20.85 L13.05 -18.3 Q4.4 -20.15 1.25 -26.6 0.3 -28.6 0.0 -30.85 L-0.15 -32.7 -2.55 -29.1 -3.5 -27.25 -11.25 -27.55 Q-13.0 -28.5 -11.95 -31.0 -10.1 -32.5 -9.95 -33.45 -9.85 -34.0 -10.4 -34.7 L-8.05 -34.6 Q-5.7 -34.15 -5.6 -32.25 -4.15 -33.55 -2.25 -35.75 1.55 -40.15 3.75 -44.6 L5.05 -43.9" fill="#ffc42e" fill-rule="evenodd" stroke="none"/>
      <path d="M20.65 -24.15 L22.15 -22.5 Q23.45 -20.45 22.6 -18.5 L23.25 -19.4 Q24.0 -20.6 24.6 -22.3 24.45 -19.2 22.65 -16.9 L21.4 -15.6 20.85 -15.2 Q15.3 -12.9 9.05 -15.1 7.1 -15.75 5.3 -16.8 L3.9 -17.75 Q0.75 -23.0 -2.75 -24.85 L-4.9 -25.65 -5.65 -25.75 -11.25 -26.0 Q-13.25 -26.25 -13.55 -27.55 -12.7 -28.9 -12.2 -30.35 -12.65 -28.55 -11.3 -27.8 L-6.75 -27.7 Q-6.55 -28.75 -5.7 -29.95 -3.9 -32.3 -0.15 -32.7 L0.35 -30.65 Q1.1 -28.2 2.3 -26.1 6.1 -19.3 13.05 -18.3 L11.5 -20.0 Q9.95 -22.1 10.35 -24.15 L11.3 -23.7 13.45 -22.3 Q16.55 -19.9 16.55 -17.35 L18.75 -19.5 Q20.9 -22.1 20.65 -24.15" fill="#ed7824" fill-rule="evenodd" stroke="none"/>
      <path d="M-46.65 64.1 L-46.2 60.6 Q-45.5 57.05 -43.95 56.6 -45.9 60.2 -44.85 64.05 -44.35 66.0 -43.4 67.2 -45.45 68.2 -46.95 71.65 L-48.1 74.9 Q-56.2 70.95 -56.0 65.8 -55.8 61.85 -50.85 57.4 -51.95 59.95 -51.2 61.1 -51.15 60.5 -50.75 59.8 -49.95 58.35 -48.35 57.75 L-48.05 60.6 Q-47.65 63.55 -46.65 64.1" fill="#f26f27" fill-rule="evenodd" stroke="none"/>
      <path d="M-30.6 61.95 L-31.85 60.45 Q-32.65 56.0 -28.7 50.1 -29.25 55.4 -26.5 56.55 L-27.0 54.45 Q-27.2 52.3 -25.75 52.15 L-25.35 53.35 Q-24.9 54.65 -24.45 55.0 -24.15 55.2 -23.65 54.75 L-22.65 53.35 Q-22.85 55.8 -22.35 58.25 L-21.7 60.7 Q-21.45 61.7 -22.5 64.8 L-23.65 67.7 Q-23.25 66.75 -24.35 65.9 L-25.5 65.25 Q-28.7 63.75 -30.6 61.95" fill="#f26f27" fill-rule="evenodd" stroke="none"/>
      <path d="M-9.35 34.35 Q-10.0 32.55 -9.7 30.8 -9.2 27.3 -4.8 27.6 -0.25 27.95 1.55 30.9 2.2 32.0 2.25 33.15 2.35 34.2 1.95 34.6 1.3 35.65 -0.45 36.15 -3.9 37.15 -9.35 34.35" fill="#f5af00" fill-rule="evenodd" stroke="none"/>
      <path d="M-1.85 30.4 L-1.4 30.55 Q-0.8 30.8 -0.35 31.25 1.0 32.8 0.6 36.35 L-0.7 36.45 Q-0.55 35.25 -0.65 33.9 -0.8 31.15 -1.85 30.4" fill="#96341e" fill-rule="evenodd" stroke="none"/>
      <path d="M16.95 9.9 Q18.65 13.9 17.2 16.05 L15.7 14.7 15.0 14.35 16.0 15.95 Q16.9 17.95 16.4 19.95 16.15 18.65 15.4 17.95 L14.7 17.6 14.9 19.25 Q14.7 21.35 13.0 23.75 14.2 20.35 13.6 17.55 13.45 16.7 13.1 16.0 L12.8 15.5 14.75 16.2 14.3 14.6 Q13.6 12.95 12.2 12.45 14.15 12.5 15.55 13.0 L16.6 13.5 16.7 11.5 Q16.5 8.95 15.05 6.3 L15.7 7.35 16.95 9.9" fill="#96341e" fill-rule="evenodd" stroke="none"/>
      <path d="M23.9 -16.85 Q24.65 -16.25 24.5 -14.95 24.25 -13.35 22.25 -12.9 21.45 -12.9 20.85 -13.25 19.65 -13.9 20.5 -15.45 21.75 -17.6 22.95 -17.45 23.55 -17.35 23.9 -16.85" fill="#000000" fill-rule="evenodd" stroke="none"/>
      <path d="M23.5 -15.2 L23.35 -14.5 Q23.15 -14.25 22.85 -14.25 L22.4 -14.5 22.2 -15.2 22.4 -15.9 Q22.6 -16.2 22.85 -16.2 23.15 -16.2 23.35 -15.9 L23.5 -15.2" fill="#ffffff" fill-rule="evenodd" stroke="none"/>
      <path d="M19.9 -14.35 L16.75 -14.25 17.5 -14.35 19.2 -14.95 Q21.65 -16.25 22.1 -19.05 22.2 -19.9 22.6 -20.7 23.35 -22.4 24.6 -22.3 L24.1 -21.05 Q23.5 -19.35 23.0 -17.1 22.55 -14.85 19.9 -14.35" fill="#ffe626" fill-rule="evenodd" stroke="none"/>
      <path d="M5.85 -16.85 Q6.6 -14.05 5.2 -12.95 4.75 -12.65 4.15 -12.5 L3.65 -12.4 Q0.15 -12.8 0.0 -16.1 -0.05 -17.1 0.25 -18.4 L0.5 -19.55 1.2 -19.7 2.8 -19.7 Q5.2 -19.35 5.85 -16.85" fill="#000000" fill-rule="evenodd" stroke="none"/>
      <path d="M5.05 -15.1 L4.8 -14.1 Q4.5 -13.7 4.1 -13.7 L3.4 -14.1 Q3.1 -14.5 3.1 -15.1 3.1 -15.65 3.4 -16.05 3.7 -16.45 4.1 -16.45 4.5 -16.45 4.8 -16.05 L5.05 -15.1" fill="#ffffff" fill-rule="evenodd" stroke="none"/>
      <path d="M9.35 -14.25 Q4.0 -14.7 1.55 -17.5 L-1.2 -20.95 -3.05 -23.15 Q-4.75 -24.75 -10.45 -26.0 L-8.9 -26.2 -5.2 -26.1 Q0.7 -25.2 3.75 -20.45 L4.5 -19.4 Q5.45 -18.2 6.55 -17.15 10.2 -13.95 14.15 -14.35 12.0 -14.05 9.35 -14.25" fill="#ffe626" fill-rule="evenodd" stroke="none"/>
      <path d="M25.2 -12.55 Q28.05 -10.3 30.15 -7.65 36.25 0.1 32.9 7.2 L30.3 7.95 27.5 8.0 27.65 5.05 Q27.55 2.75 25.35 1.85 23.1 0.95 20.05 1.75 L13.35 3.8 Q9.3 4.85 6.7 3.8 4.15 2.8 3.6 0.0 L3.45 0.7 3.3 1.95 -1.15 -1.8 Q-0.9 -5.05 1.0 -8.45 4.85 -15.15 13.05 -15.5 L16.75 -15.5 Q20.7 -15.35 21.95 -14.8 L25.2 -12.55" fill="#96341e" fill-rule="evenodd" stroke="none"/>
      <path d="M4.7 -0.55 Q5.2 -1.5 6.35 -2.1 7.75 -2.85 9.95 -2.75 L15.8 -1.65 21.65 0.2 14.05 2.0 Q11.15 2.75 8.5 2.0 6.0 1.25 4.7 -0.55" fill="#c77700" fill-rule="evenodd" stroke="none"/>
      <path d="M14.15 -14.35 L17.15 -14.35 21.45 -13.7 24.4 -11.75 Q27.0 -9.75 28.85 -7.4 34.4 -0.55 31.3 5.9 L30.35 6.2 Q29.4 6.35 29.25 5.75 L28.6 3.45 Q27.8 1.65 25.75 0.85 24.05 -0.55 18.65 -2.45 13.1 -4.4 9.6 -4.75 6.55 -5.05 4.55 -3.2 3.1 -1.85 3.1 -0.85 L0.6 -2.35 Q1.0 -5.2 2.9 -8.15 6.7 -14.05 14.15 -14.35" fill="#ffc333" fill-rule="evenodd" stroke="none"/>
      <path d="M18.5 -6.9 L11.15 -10.15 Q8.0 -11.6 8.05 -12.15 8.35 -14.4 14.95 -14.25 L21.45 -13.7 Q29.75 -8.1 31.6 -1.5 32.2 0.65 31.95 2.25 31.75 3.8 31.45 3.05 29.6 -1.7 18.5 -6.9" fill="#fff1cc" fill-rule="evenodd" stroke="none"/>
      <path d="M14.8 -12.45 Q16.1 -11.8 16.1 -11.25 16.1 -10.9 15.6 -10.9 L14.5 -11.05 Q13.0 -11.7 13.5 -12.95 L14.8 -12.45" fill="#a87a09" fill-rule="evenodd" stroke="none"/>
      <path d="M21.15 -12.55 Q22.1 -12.1 22.1 -11.7 22.1 -11.1 20.95 -11.55 19.85 -12.05 20.25 -12.9 L21.15 -12.55" fill="#a87a09" fill-rule="evenodd" stroke="none"/>
      <path d="M9.6 -4.45 Q14.3 0.8 18.15 5.95 17.5 7.25 16.4 8.3 15.45 9.2 13.95 10.1 13.35 9.7 12.1 9.6 L10.7 10.0 9.65 10.35 Q4.65 11.65 0.5 9.7 L-2.7 8.25 Q-4.6 7.6 -6.65 7.8 -15.4 8.75 -20.2 5.55 -22.55 4.0 -24.45 0.45 -25.6 -1.6 -23.5 -7.1 L-21.2 -12.2 Q-18.5 -14.45 -13.7 -15.45 -8.9 -16.4 -4.0 -15.65 0.2 -15.0 9.6 -4.45" fill="#96341e" fill-rule="evenodd" stroke="none"/>
      <path d="M6.95 -4.45 Q11.2 0.35 14.75 5.05 8.35 10.5 1.85 8.6 L-3.05 6.65 Q-5.75 5.55 -7.5 5.7 -15.05 6.35 -19.15 3.7 -21.25 2.3 -22.85 -0.7 -23.85 -2.45 -22.05 -7.2 L-20.05 -11.6 Q-17.7 -13.55 -13.65 -14.35 L-5.15 -14.6 Q-1.5 -14.1 6.95 -4.45" fill="#f74a23" fill-rule="evenodd" stroke="none"/>
      <path d="M5.9 5.85 Q5.0 5.5 4.0 4.75 2.0 3.3 1.35 1.45 L3.6 2.55 Q6.25 3.6 8.1 3.2 L8.05 1.05 Q7.8 -1.7 6.65 -4.85 10.95 -0.1 14.75 5.05 10.0 9.0 5.4 9.1 2.35 9.15 -1.7 7.3 L2.45 6.7 5.9 5.85" fill="#ffb700" fill-rule="evenodd" stroke="none"/>
      <path d="M9.15 6.7 L7.5 4.95 12.85 8.15 12.6 8.6 11.55 8.65 Q10.9 8.45 9.15 6.7" fill="#96341e" fill-rule="evenodd" stroke="none"/>
      <path d="M12.15 -66.15 L10.4 -65.75 Q8.9 -65.65 8.35 -66.5 7.7 -67.5 8.6 -68.85 9.5 -70.2 10.7 -70.05 12.1 -69.85 12.25 -67.95 L12.15 -66.15" fill="#96341e" fill-rule="evenodd" stroke="none"/>
      <path d="M12.0 -66.7 Q11.7 -66.35 10.6 -66.15 9.25 -65.9 8.8 -66.6 8.3 -67.4 9.1 -68.45 9.85 -69.5 10.85 -69.3 11.85 -69.1 12.0 -67.9 L12.0 -66.7" fill="#ffc42e" fill-rule="evenodd" stroke="none"/>
    </g>
  </defs>
</svg>
