<?xml version="1.0" encoding="UTF-8" standalone="no"?>
<svg xmlns:ffdec="https://www.free-decompiler.com/flash" xmlns:xlink="http://www.w3.org/1999/xlink" ffdec:objectType="frame" height="91.75px" width="82.45px" xmlns="http://www.w3.org/2000/svg">
  <g transform="matrix(1.0, 0.0, 0.0, 1.0, 117.3, 85.9)">
    <use ffdec:characterId="242" height="90.0" transform="matrix(1.0, 0.0, 0.0, 1.0, -117.3, -84.9)" width="82.45" xlink:href="#shape0"/>
  </g>
  <defs>
    <g id="shape0" transform="matrix(1.0, 0.0, 0.0, 1.0, 117.3, 84.9)">
      <path d="M-36.05 -56.0 L-35.05 -54.7 Q-34.15 -52.35 -37.35 -49.1 L-36.95 -48.85 Q-36.55 -48.45 -36.5 -47.7 -36.35 -45.4 -39.9 -40.85 -44.35 -35.2 -48.05 -32.55 -53.65 -28.55 -59.7 -29.2 -63.6 -29.65 -64.55 -32.25 L-64.75 -34.0 -64.65 -34.75 Q-64.3 -37.85 -62.55 -41.95 -59.1 -50.15 -52.4 -55.3 -50.0 -57.15 -46.4 -58.65 -42.9 -60.15 -40.0 -60.6 -36.85 -61.1 -35.8 -60.15 -34.65 -59.1 -36.65 -56.4 L-36.05 -56.0" fill="#231f20" fill-rule="evenodd" stroke="none"/>
      <path d="M-41.95 -57.75 Q-39.4 -58.35 -38.55 -57.7 -37.65 -57.0 -39.25 -54.75 L-38.6 -54.5 -37.5 -53.55 Q-36.35 -51.8 -39.25 -48.9 L-39.0 -48.35 Q-38.75 -47.65 -38.85 -46.7 -39.1 -43.75 -42.3 -39.65 -46.3 -34.6 -49.6 -32.2 -54.65 -28.55 -60.1 -29.15 -63.6 -29.55 -64.3 -31.75 L-64.4 -33.3 -64.25 -33.95 Q-63.45 -37.15 -61.6 -41.1 -57.85 -49.05 -52.65 -52.75 -50.4 -54.35 -47.35 -55.75 -44.35 -57.15 -41.95 -57.75" fill="#eba240" fill-rule="evenodd" stroke="none"/>
      <path d="M-41.95 -57.75 Q-39.4 -58.35 -38.55 -57.7 -37.65 -57.0 -39.25 -54.75 L-38.6 -54.5 -37.5 -53.55 Q-36.35 -51.8 -39.25 -48.9 L-39.0 -48.35 Q-38.75 -47.65 -38.85 -46.75 -39.1 -43.8 -42.2 -39.8 -41.55 -41.55 -41.45 -42.85 -41.3 -44.75 -42.4 -45.45 -42.0 -46.45 -42.0 -47.5 -41.9 -49.65 -43.75 -49.85 -42.9 -51.8 -43.5 -52.7 -44.65 -54.5 -51.75 -49.3 -56.85 -45.55 -59.95 -40.05 -62.05 -36.4 -63.75 -30.8 -64.45 -31.65 -64.4 -32.9 L-64.25 -33.95 Q-63.45 -37.15 -61.6 -41.1 -57.85 -49.05 -52.65 -52.75 -50.4 -54.35 -47.35 -55.75 -44.35 -57.15 -41.95 -57.75" fill="#d48128" fill-rule="evenodd" stroke="none"/>
      <path d="M-68.4 -4.55 Q-68.65 -6.2 -68.35 -8.0 -67.7 -11.5 -64.75 -11.95 L-56.0 -11.4 Q-50.55 -9.9 -49.95 -6.05 -49.45 -3.05 -51.85 -1.0 -54.65 1.4 -60.2 0.55 -62.45 0.25 -65.65 -2.2 L-68.4 -4.55" fill="#603813" fill-rule="evenodd" stroke="none"/>
      <path d="M-67.45 -5.2 Q-67.7 -6.5 -67.5 -7.9 -67.05 -10.65 -64.6 -11.05 L-57.35 -10.85 Q-52.85 -9.95 -51.95 -7.25 -51.35 -5.3 -51.6 -4.2 -51.75 -3.5 -52.45 -2.65 -52.35 -3.8 -52.75 -5.0 -53.5 -7.55 -56.05 -7.95 -54.2 -6.95 -53.6 -4.4 -53.4 -3.55 -53.35 -2.7 L-53.4 -1.9 Q-53.8 -1.3 -55.2 -0.9 L-57.9 -0.65 -57.95 -2.85 Q-58.25 -5.2 -60.15 -6.2 -59.05 -4.9 -59.05 -2.7 -59.0 -0.8 -59.3 -0.75 -61.75 -0.55 -64.85 -2.85 L-66.7 -4.45 -67.45 -5.2" fill="#f05a28" fill-rule="evenodd" stroke="none"/>
      <path d="M-53.4 -1.95 Q-53.85 -1.35 -55.2 -0.95 L-57.95 -0.7 -57.95 -1.85 Q-57.9 -3.25 -58.3 -4.25 L-55.6 -4.55 Q-53.95 -4.95 -54.05 -5.75 -53.55 -4.65 -53.4 -3.25 L-53.4 -1.95" fill="#c24023" fill-rule="evenodd" stroke="none"/>
      <path d="M-52.45 -2.7 L-52.5 -3.75 Q-52.65 -5.0 -53.1 -5.95 -52.25 -6.2 -51.8 -6.65 -51.35 -5.05 -51.65 -4.1 -51.8 -3.55 -52.45 -2.7" fill="#c24023" fill-rule="evenodd" stroke="none"/>
      <path d="M-66.75 -4.5 L-67.45 -5.25 -67.55 -6.1 -67.5 -8.1 -63.05 -5.25 Q-60.1 -3.65 -59.2 -4.05 -58.95 -3.0 -59.1 -1.8 -59.2 -0.8 -59.35 -0.8 -61.75 -0.6 -64.85 -2.9 L-66.75 -4.5" fill="#c24023" fill-rule="evenodd" stroke="none"/>
      <path d="M-87.05 -13.9 Q-87.0 -11.65 -87.9 -8.35 L-89.4 -3.15 Q-90.0 -0.95 -92.45 0.3 -94.55 1.3 -97.6 1.5 L-102.55 1.15 Q-104.75 0.65 -104.9 -0.15 -105.85 0.8 -108.35 0.65 -110.6 0.45 -113.0 -0.5 -115.4 -1.45 -116.2 -2.5 -117.1 -3.7 -115.35 -4.35 -112.15 -5.5 -102.95 -13.8 L-94.4 -21.85 Q-87.15 -20.2 -87.05 -13.9" fill="#231f20" fill-rule="evenodd" stroke="none"/>
      <path d="M-88.15 -13.5 Q-88.1 -11.5 -88.85 -8.55 L-90.2 -3.9 Q-91.0 -0.8 -95.9 -0.2 -100.0 0.35 -103.1 -0.9 L-100.7 -4.55 -98.25 -8.2 -101.35 -5.05 -104.35 -1.85 Q-105.15 -0.95 -107.25 -0.9 L-111.0 -1.4 Q-112.95 -2.0 -113.55 -2.7 -114.2 -3.55 -112.7 -4.15 -109.95 -5.2 -102.0 -13.0 L-94.55 -20.6 Q-88.25 -19.1 -88.15 -13.5" fill="#e6d949" fill-rule="evenodd" stroke="none"/>
      <path d="M-89.3 -7.1 L-90.2 -3.9 Q-91.0 -0.8 -95.9 -0.2 -100.0 0.35 -103.1 -0.9 L-100.7 -4.55 -98.25 -8.2 -101.35 -5.05 -104.35 -1.85 Q-105.15 -0.95 -107.25 -0.9 L-111.0 -1.4 Q-112.95 -2.0 -113.55 -2.7 -114.2 -3.55 -112.7 -4.15 -111.45 -4.6 -109.0 -6.6 -108.05 -5.45 -106.5 -5.15 -104.75 -4.8 -103.2 -5.85 -99.4 -8.5 -96.3 -12.75 L-94.55 -15.45 -93.95 -16.55 -91.9 -13.9 -96.1 -9.05 Q-100.0 -4.05 -98.45 -3.5 L-94.05 -3.4 Q-91.1 -4.7 -88.45 -10.55 -88.7 -9.15 -89.3 -7.1" fill="#eba240" fill-rule="evenodd" stroke="none"/>
      <path d="M-48.8 -76.7 L-47.05 -75.2 Q-45.05 -73.1 -43.6 -70.4 -39.0 -61.75 -41.95 -49.95 -40.7 -43.0 -43.1 -39.75 -44.7 -37.65 -48.1 -37.05 -49.45 -34.95 -49.8 -31.5 -50.15 -28.1 -49.15 -27.7 -46.9 -26.85 -48.0 -23.55 -49.05 -20.4 -52.6 -16.55 -56.35 -12.45 -61.1 -9.6 -66.5 -6.35 -71.7 -5.6 -79.6 -4.55 -85.0 -5.9 -91.35 -7.5 -94.95 -12.65 -96.85 -15.4 -97.95 -19.25 -99.05 -23.15 -98.9 -27.05 -98.8 -31.25 -97.35 -34.5 -95.7 -38.05 -92.65 -39.9 -93.9 -41.4 -94.9 -44.0 -96.9 -49.2 -95.65 -54.65 -95.35 -55.95 -96.35 -56.85 L-97.45 -57.45 -96.2 -59.25 -93.6 -62.0 Q-92.6 -69.4 -87.4 -72.35 L-88.5 -72.75 -90.6 -72.5 Q-90.05 -74.25 -87.75 -76.25 -83.25 -80.35 -74.55 -82.0 L-70.4 -84.9 -69.6 -84.35 Q-68.55 -83.85 -67.75 -83.85 L-57.65 -82.85 Q-47.7 -81.05 -43.3 -77.05 L-45.65 -77.35 Q-48.1 -77.5 -48.8 -76.7" fill="#231f20" fill-rule="evenodd" stroke="none"/>
      <path d="M-69.85 -76.9 Q-70.1 -69.15 -74.1 -63.75 -78.05 -58.3 -87.1 -57.5 -91.6 -57.05 -95.3 -57.7 L-94.25 -59.9 Q-93.0 -62.2 -91.65 -62.5 L-88.65 -63.2 Q-86.05 -64.05 -83.85 -65.55 -77.25 -70.1 -74.95 -80.3 L-70.45 -83.55 Q-69.75 -80.8 -69.85 -76.9" fill="#3b2314" fill-rule="evenodd" stroke="none"/>
      <path d="M-46.1 -41.65 L-47.25 -40.3 Q-48.55 -38.55 -49.45 -36.6 -52.4 -30.45 -50.3 -25.0 -52.75 -26.0 -55.05 -27.85 -59.6 -31.5 -58.65 -35.9 -57.7 -40.3 -51.85 -41.4 L-46.1 -41.65" fill="#3b2314" fill-rule="evenodd" stroke="none"/>
      <path d="M-55.25 -33.75 Q-54.35 -35.75 -51.7 -36.95 L-49.25 -37.8 -49.8 -37.0 -50.95 -34.95 Q-52.5 -31.45 -51.9 -28.5 -53.05 -29.1 -54.05 -30.05 -56.1 -32.0 -55.25 -33.75" fill="#c71c24" fill-rule="evenodd" stroke="none"/>
      <path d="M-72.2 -76.6 Q-72.85 -71.0 -76.45 -66.0 -79.65 -61.6 -86.45 -60.3 L-90.85 -59.8 -92.65 -59.85 Q-92.8 -61.95 -91.95 -64.65 -90.25 -70.05 -85.25 -73.0 L-86.3 -73.55 Q-87.45 -74.0 -88.25 -73.55 L-87.4 -74.45 -84.65 -76.6 Q-79.55 -79.95 -72.2 -81.2 -71.8 -79.4 -72.2 -76.6" fill="#fae174" fill-rule="evenodd" stroke="none"/>
      <path d="M-46.3 -71.1 Q-41.5 -62.15 -43.1 -49.95 -42.7 -41.2 -46.2 -39.25 -47.25 -38.7 -49.45 -38.4 L-52.75 -37.65 Q-57.15 -35.6 -56.85 -32.6 -56.5 -29.25 -49.9 -26.35 -48.55 -25.8 -49.9 -23.2 -51.2 -20.6 -54.3 -17.55 -57.75 -14.15 -61.9 -11.7 -66.75 -8.9 -71.45 -8.05 -88.3 -5.0 -93.8 -13.05 -95.45 -15.5 -96.3 -19.0 -97.15 -22.45 -97.0 -26.15 -96.7 -34.5 -92.1 -38.7 -90.6 -37.2 -88.5 -36.5 -85.85 -35.6 -82.0 -35.75 -85.5 -36.25 -87.35 -37.15 -89.2 -38.05 -90.5 -39.9 -91.55 -41.35 -92.55 -43.9 -94.5 -48.95 -94.0 -54.45 -93.9 -55.75 -94.6 -56.85 L-95.3 -57.7 -87.5 -59.15 Q-79.25 -60.95 -77.2 -63.0 -74.15 -66.05 -72.55 -71.0 -71.0 -75.75 -70.45 -83.55 L-69.65 -83.05 Q-68.75 -82.55 -67.95 -82.55 L-58.95 -81.95 Q-50.25 -80.85 -46.6 -78.3 L-48.6 -78.4 Q-50.75 -78.3 -51.4 -77.55 L-49.75 -76.0 Q-47.75 -73.85 -46.3 -71.1" fill="#e6d949" fill-rule="evenodd" stroke="none"/>
      <path d="M-50.15 -62.25 L-48.05 -64.55 Q-45.7 -66.8 -44.6 -66.5 L-44.2 -65.55 Q-43.75 -64.4 -43.45 -63.05 -42.35 -58.85 -43.0 -55.1 -43.4 -52.6 -44.55 -52.45 -45.6 -52.3 -46.9 -53.95 -48.15 -55.55 -49.05 -57.85 -50.05 -60.25 -50.15 -62.25" fill="#231f20" fill-rule="evenodd" stroke="none"/>
      <path d="M-57.35 -59.2 Q-59.1 -53.95 -63.15 -52.65 -68.0 -51.15 -71.4 -54.35 -74.25 -57.0 -74.7 -60.75 L-70.95 -64.3 Q-66.8 -67.8 -65.1 -67.45 -63.35 -67.15 -59.75 -65.7 L-56.45 -64.25 -56.6 -62.75 Q-56.85 -60.85 -57.35 -59.2" fill="#231f20" fill-rule="evenodd" stroke="none"/>
      <path d="M-61.0 -61.15 Q-58.55 -59.15 -58.15 -57.2 -59.0 -55.75 -60.3 -54.55 -61.8 -53.1 -63.15 -52.65 L-66.7 -52.45 Q-68.05 -52.7 -69.7 -53.4 L-72.05 -55.45 -73.2 -56.7 Q-71.0 -60.0 -69.3 -61.45 -67.45 -63.0 -65.45 -63.1 -63.5 -63.15 -61.0 -61.15" fill="#141414" fill-rule="evenodd" stroke="none"/>
      <path d="M-65.35 -60.25 Q-64.55 -60.55 -63.55 -59.65 -62.5 -58.7 -62.4 -57.2 -62.35 -56.35 -63.2 -55.8 -63.45 -55.6 -64.45 -55.2 L-66.4 -55.1 -68.2 -55.45 Q-68.4 -56.15 -67.75 -57.7 -66.95 -59.6 -65.35 -60.25" fill="#000000" fill-rule="evenodd" stroke="none"/>
      <path d="M-45.05 -66.55 Q-44.25 -64.45 -44.25 -61.65 -44.25 -59.05 -45.0 -56.9 -45.75 -54.85 -46.95 -54.0 -48.15 -55.6 -49.1 -57.85 -50.05 -60.25 -50.15 -62.25 L-48.3 -64.3 Q-46.2 -66.4 -45.05 -66.55" fill="#000000" fill-rule="evenodd" stroke="none"/>
      <path d="M-46.7 -65.0 Q-45.8 -64.65 -45.25 -63.65 -44.65 -62.6 -44.65 -61.3 -44.65 -59.75 -45.5 -58.6 -46.35 -57.45 -47.5 -57.45 -48.15 -57.45 -48.75 -57.85 -49.6 -60.0 -49.7 -61.9 L-48.75 -63.0 -46.7 -65.0" fill="#972b0f" fill-rule="evenodd" stroke="none"/>
      <path d="M-45.35 -63.15 Q-45.1 -62.55 -45.2 -62.05 -45.2 -61.55 -45.5 -61.45 -45.8 -61.35 -46.15 -61.7 L-46.75 -62.6 -46.9 -63.65 -46.55 -64.3 -45.9 -64.05 Q-45.55 -63.7 -45.35 -63.15" fill="#ffffff" fill-rule="evenodd" stroke="none"/>
      <path d="M-87.4 -61.95 Q-88.25 -61.1 -87.7 -58.15 -87.15 -55.25 -86.0 -54.35 -87.5 -54.0 -88.7 -55.1 -89.8 -56.1 -90.15 -57.7 -90.5 -59.35 -89.85 -60.5 -89.15 -61.85 -87.4 -61.95" fill="#231f20" fill-rule="evenodd" stroke="none"/>
      <path d="M-80.5 -64.3 Q-79.7 -64.15 -78.5 -61.45 -77.3 -58.65 -77.8 -57.8 -78.55 -57.45 -79.5 -58.25 -80.45 -58.95 -81.05 -60.25 -81.75 -61.6 -81.65 -62.7 -81.6 -63.9 -80.5 -64.3" fill="#231f20" fill-rule="evenodd" stroke="none"/>
      <path d="M-75.6 -72.0 Q-74.15 -72.2 -72.5 -71.5 -70.75 -70.75 -69.95 -69.5 -69.0 -68.1 -69.75 -66.65 -71.2 -68.5 -74.85 -69.1 L-76.9 -69.55 Q-77.75 -69.85 -77.6 -70.4 -77.2 -71.75 -75.6 -72.0" fill="#231f20" fill-rule="evenodd" stroke="none"/>
      <path d="M-75.35 -71.65 Q-74.15 -71.8 -72.7 -71.2 -71.25 -70.6 -70.55 -69.6 -69.7 -68.45 -70.3 -67.3 -71.6 -68.8 -74.65 -69.35 L-76.4 -69.75 Q-77.1 -69.95 -77.0 -70.45 -76.7 -71.5 -75.35 -71.65" fill="#a87c4f" fill-rule="evenodd" stroke="none"/>
      <path d="M-74.15 -75.9 Q-73.75 -77.35 -72.45 -77.65 L-69.9 -77.3 Q-68.55 -76.65 -67.9 -75.55 -67.15 -74.3 -67.65 -73.15 -68.25 -74.3 -70.8 -75.35 -73.3 -76.4 -74.15 -75.9" fill="#231f20" fill-rule="evenodd" stroke="none"/>
      <path d="M-88.3 -61.4 Q-88.8 -60.75 -88.4 -58.2 -87.95 -55.7 -87.15 -54.9 -88.15 -54.7 -88.95 -55.65 -89.7 -56.5 -89.95 -57.9 -90.25 -59.3 -89.85 -60.25 -89.4 -61.35 -88.3 -61.4" fill="#a87c4f" fill-rule="evenodd" stroke="none"/>
      <path d="M-80.85 -63.8 Q-80.25 -63.65 -79.25 -61.35 -78.25 -58.95 -78.55 -58.25 -79.1 -58.0 -79.8 -58.7 L-81.0 -60.5 Q-81.55 -61.6 -81.55 -62.5 -81.55 -63.55 -80.85 -63.8" fill="#a87c4f" fill-rule="evenodd" stroke="none"/>
      <path d="M-73.75 -76.4 Q-73.5 -77.4 -72.4 -77.5 L-70.2 -77.1 Q-68.95 -76.6 -68.35 -75.75 -67.6 -74.85 -68.0 -74.05 -68.6 -74.9 -70.8 -75.8 -73.05 -76.7 -73.75 -76.4" fill="#a87c4f" fill-rule="evenodd" stroke="none"/>
      <path d="M-53.15 -66.95 L-54.8 -70.35 Q-51.15 -66.05 -51.55 -63.95 -51.7 -62.85 -52.65 -62.65 -51.7 -63.4 -53.15 -66.95" fill="#231f20" fill-rule="evenodd" stroke="none"/>
      <path d="M-48.8 -44.4 L-48.55 -43.95 -48.35 -42.6 Q-48.4 -40.4 -50.9 -38.2 L-52.75 -37.65 Q-56.65 -35.85 -56.85 -33.2 -57.05 -30.3 -52.4 -27.6 -54.65 -23.8 -58.05 -20.95 -63.6 -16.35 -70.55 -16.0 -69.0 -20.3 -69.2 -24.6 -69.6 -33.25 -78.2 -33.05 -81.35 -33.0 -84.15 -31.1 -86.85 -29.35 -88.55 -26.45 -90.25 -23.45 -90.35 -20.3 -90.45 -16.85 -88.6 -14.0 -86.05 -10.1 -78.15 -9.15 -74.5 -8.75 -67.5 -9.1 -69.5 -8.4 -71.45 -8.05 -88.3 -5.0 -93.8 -13.05 -95.45 -15.5 -96.3 -19.0 -97.15 -22.45 -97.0 -26.15 -96.7 -34.5 -92.1 -38.7 -90.3 -37.15 -88.65 -36.55 -86.25 -35.7 -82.0 -35.75 -85.15 -36.1 -87.2 -37.1 -89.25 -38.05 -90.5 -39.9 -91.55 -41.35 -92.55 -43.9 -94.5 -48.95 -94.0 -54.45 -93.9 -55.75 -94.6 -56.85 L-95.3 -57.7 -92.05 -58.25 Q-91.35 -55.1 -89.85 -52.5 -87.8 -49.05 -84.4 -46.95 L-84.3 -48.95 Q-84.0 -51.3 -83.05 -52.95 L-82.05 -49.75 Q-80.6 -46.2 -78.4 -44.4 L-75.65 -43.45 Q-72.2 -42.4 -68.6 -41.85 -57.15 -40.15 -48.8 -44.4" fill="#eba240" fill-rule="evenodd" stroke="none"/>
      <path d="M-59.55 -29.5 Q-58.0 -24.0 -59.65 -22.35 L-62.35 -19.7 Q-64.45 -17.75 -66.45 -16.45 -72.35 -12.7 -78.0 -14.3 -81.05 -15.2 -82.0 -18.05 -82.75 -20.55 -81.8 -24.3 -81.0 -27.6 -79.0 -31.2 -77.15 -34.55 -74.95 -36.9 -73.25 -38.75 -68.4 -38.65 -63.55 -38.55 -62.4 -36.65 -60.75 -33.85 -59.55 -29.5" fill="#3b2314" fill-rule="evenodd" stroke="none"/>
      <path d="M-61.5 -23.45 Q-63.35 -20.15 -67.2 -17.6 -72.4 -14.1 -77.6 -15.6 -83.0 -17.1 -81.1 -24.6 -80.35 -27.6 -78.55 -30.85 -76.85 -33.9 -74.9 -36.05 -73.35 -37.75 -68.95 -37.65 -64.55 -37.55 -63.5 -35.85 -62.2 -33.6 -61.35 -29.9 -60.35 -25.45 -61.5 -23.45" fill="#c71c24" fill-rule="evenodd" stroke="none"/>
      <path d="M-64.95 -30.8 Q-65.55 -30.25 -66.1 -30.3 L-71.1 -30.6 Q-74.55 -31.15 -76.55 -33.55 L-74.9 -36.05 -74.2 -35.6 Q-73.3 -35.0 -72.2 -34.6 -68.9 -33.25 -65.45 -33.65 -64.45 -33.75 -64.1 -33.25 -63.85 -32.8 -64.1 -32.0 -64.4 -31.3 -64.95 -30.8" fill="#e8deb1" fill-rule="evenodd" stroke="none"/>
      <path d="M-64.75 -25.05 Q-65.15 -24.35 -65.9 -23.85 -66.65 -23.3 -67.25 -23.35 L-69.5 -23.45 -72.55 -23.75 Q-76.75 -24.55 -80.0 -27.3 L-78.65 -30.25 -77.85 -29.6 Q-76.8 -28.85 -75.45 -28.25 -71.15 -26.3 -65.85 -26.7 -64.75 -26.75 -64.5 -26.25 -64.3 -25.8 -64.75 -25.05" fill="#e8deb1" fill-rule="evenodd" stroke="none"/>
      <path d="M-80.4 -23.65 L-78.55 -22.45 Q-75.25 -20.7 -70.85 -20.75 -69.8 -20.75 -69.65 -20.3 -69.5 -19.85 -70.0 -19.2 -71.2 -17.6 -72.85 -17.6 -75.0 -17.6 -77.4 -18.5 -80.1 -19.5 -81.5 -21.15 L-80.95 -24.2 -80.4 -23.65" fill="#e8deb1" fill-rule="evenodd" stroke="none"/>
      <path d="M-66.0 -55.15 L-65.85 -53.3 -67.65 -53.15 -68.25 -54.65 Q-68.7 -56.2 -67.55 -56.55 -66.4 -56.9 -66.0 -55.15" fill="#c1b49a" fill-rule="evenodd" stroke="none"/>
      <path d="M-59.75 -47.9 Q-59.75 -45.15 -61.7 -43.2 -63.6 -41.3 -66.35 -41.3 -69.1 -41.3 -71.0 -43.2 -72.95 -45.15 -72.95 -47.9 -72.95 -50.6 -71.0 -52.55 -69.1 -54.5 -66.35 -54.5 -63.6 -54.5 -61.7 -52.55 -59.75 -50.6 -59.75 -47.9" fill="#231f20" fill-rule="evenodd" stroke="none"/>
      <path d="M-60.35 -47.65 Q-60.35 -45.25 -62.05 -43.6 -63.75 -41.9 -66.1 -41.9 -68.45 -41.9 -70.15 -43.6 -71.8 -45.25 -71.8 -47.65 -71.8 -50.0 -70.15 -51.7 -68.45 -53.35 -66.1 -53.35 -63.7 -53.35 -62.05 -51.7 -60.35 -50.0 -60.35 -47.65" fill="#faebb6" fill-rule="evenodd" stroke="none"/>
      <path d="M-64.75 -48.0 Q-63.45 -48.0 -62.5 -47.05 -61.55 -46.1 -61.55 -44.75 L-61.65 -44.05 Q-62.45 -43.0 -63.55 -42.45 -64.75 -41.9 -66.1 -41.9 L-66.2 -41.9 Q-67.0 -42.3 -67.5 -43.05 -68.0 -43.85 -68.0 -44.75 -68.0 -46.1 -67.05 -47.05 -66.1 -48.0 -64.75 -48.0" fill="#000000" fill-rule="evenodd" stroke="none"/>
      <path d="M-63.5 -46.45 Q-63.45 -46.0 -63.8 -45.65 -64.2 -45.3 -64.75 -45.2 L-65.8 -45.4 Q-66.25 -45.7 -66.3 -46.15 L-65.95 -46.95 Q-65.6 -47.3 -65.0 -47.35 L-63.95 -47.2 Q-63.5 -46.9 -63.5 -46.45" fill="#716558" fill-rule="evenodd" stroke="none"/>
      <path d="M-69.9 -51.95 L-69.15 -52.5 -66.8 -51.6 -66.55 -49.3 -65.7 -48.35 -66.8 -49.15 -67.25 -51.25 -69.9 -51.95" fill="#de7251" fill-rule="evenodd" stroke="none"/>
      <path d="M-71.55 -49.4 L-69.85 -48.45 -67.55 -48.0 -69.9 -48.0 -71.7 -48.75 -71.55 -49.4" fill="#de7251" fill-rule="evenodd" stroke="none"/>
      <path d="M-49.7 -51.6 Q-48.15 -50.5 -46.95 -47.9 -45.95 -45.7 -45.6 -43.5 -45.25 -41.4 -45.75 -41.4 -46.55 -41.4 -47.5 -40.0 L-48.35 -38.6 Q-48.9 -40.0 -50.1 -39.2 L-51.2 -38.15 Q-52.0 -39.7 -54.0 -37.7 L-55.9 -35.4 Q-56.2 -37.75 -57.85 -37.55 L-58.95 -37.2 -59.4 -36.9 Q-58.95 -39.8 -60.25 -40.0 L-61.2 -39.9 -61.65 -39.65 Q-61.1 -45.75 -57.45 -49.4 -55.6 -51.25 -53.85 -51.85 -51.65 -53.0 -49.7 -51.6" fill="#975d2b" fill-rule="evenodd" stroke="none"/>
      <path d="M-43.65 -48.45 Q-44.8 -46.2 -46.45 -44.05 -49.75 -39.75 -52.2 -40.3 -57.1 -41.35 -57.1 -45.9 -57.1 -48.4 -50.35 -48.65 L-43.65 -48.45" fill="#603813" fill-rule="evenodd" stroke="none"/>
      <path d="M-44.0 -48.85 Q-45.1 -46.9 -46.7 -45.0 -49.85 -41.2 -52.25 -41.6 -53.95 -41.85 -55.1 -43.0 -56.45 -44.35 -56.6 -46.75 -56.8 -49.1 -50.4 -49.25 L-44.0 -48.85" fill="#d45a21" fill-rule="evenodd" stroke="none"/>
      <path d="M-46.8 -55.3 Q-45.05 -54.0 -43.7 -52.2 -42.4 -50.35 -42.0 -48.7 -41.75 -47.45 -42.4 -47.45 L-44.95 -47.85 Q-50.5 -48.65 -56.85 -44.95 -57.65 -44.45 -58.05 -45.7 -58.4 -46.9 -58.1 -48.95 -57.8 -51.15 -56.85 -53.05 -55.8 -55.25 -54.25 -56.3 -51.05 -58.4 -46.8 -55.3" fill="#603813" fill-rule="evenodd" stroke="none"/>
      <path d="M-45.2 -48.6 Q-50.25 -49.65 -55.65 -46.65 -56.4 -46.2 -56.75 -47.15 -57.05 -48.05 -56.8 -49.65 -56.2 -53.65 -53.55 -55.4 -50.95 -57.2 -47.2 -54.65 -43.75 -52.3 -42.65 -49.1 -42.3 -48.05 -42.9 -48.05 L-45.2 -48.6" fill="#f05a28" fill-rule="evenodd" stroke="none"/>
      <path d="M-50.15 -51.0 L-49.85 -50.15 Q-49.45 -49.25 -48.7 -48.85 -52.05 -48.6 -55.65 -46.65 -56.6 -46.1 -56.85 -47.6 -57.1 -49.05 -56.5 -51.05 L-56.15 -51.45 -55.9 -49.6 Q-55.3 -48.05 -53.8 -49.3 L-53.5 -49.1 -52.7 -48.9 Q-51.4 -49.0 -50.15 -51.0" fill="#d44023" fill-rule="evenodd" stroke="none"/>
      <path d="M-47.05 -47.15 L-47.85 -46.65 Q-48.55 -45.9 -48.3 -44.55 L-49.0 -44.45 Q-49.65 -44.05 -49.25 -42.75 L-49.8 -42.15 Q-50.55 -41.6 -51.15 -41.55 -52.65 -41.35 -54.25 -42.4 -55.95 -43.55 -56.25 -45.25 -53.65 -46.5 -51.45 -47.2 -47.75 -48.4 -47.05 -47.15" fill="#c24023" fill-rule="evenodd" stroke="none"/>
      <path d="M-89.35 -2.7 Q-89.3 -4.55 -88.65 -6.4 -87.25 -10.05 -83.95 -10.0 -78.8 -10.0 -74.35 -8.05 -68.65 -5.6 -68.85 -1.25 -69.0 2.15 -72.05 3.95 -75.65 6.1 -81.65 4.25 -84.05 3.5 -86.9 0.3 L-89.35 -2.7" fill="#603813" fill-rule="evenodd" stroke="none"/>
      <path d="M-88.1 -3.15 Q-88.1 -4.65 -87.55 -6.15 -86.45 -9.15 -83.65 -9.15 -79.45 -9.15 -75.7 -7.7 -70.9 -5.95 -70.55 -2.85 -70.3 -0.55 -70.8 0.6 -71.1 1.3 -72.15 2.15 -71.8 1.05 -71.9 -0.25 -72.1 -2.85 -74.3 -3.85 -72.85 -2.5 -72.9 0.25 -72.95 2.4 -73.35 2.8 -73.9 3.4 -75.55 3.6 L-78.6 3.4 Q-78.2 2.25 -78.1 0.85 -77.8 -2.0 -79.7 -3.45 -78.75 -1.7 -79.3 0.85 L-79.8 2.45 -80.1 3.1 Q-82.85 2.85 -85.75 -0.15 L-87.5 -2.25 -88.1 -3.15" fill="#f05a28" fill-rule="evenodd" stroke="none"/>
      <path d="M-83.75 -3.45 Q-81.2 -0.9 -79.15 -1.4 -78.95 0.85 -80.1 3.05 -82.85 2.8 -85.75 -0.2 L-87.5 -2.3 -88.1 -3.2 -87.95 -4.75 Q-87.6 -6.55 -86.8 -7.65 -85.3 -5.1 -83.75 -3.45" fill="#c24023" fill-rule="evenodd" stroke="none"/>
      <path d="M-73.35 2.75 Q-73.9 3.35 -75.55 3.55 L-78.6 3.35 -78.25 1.9 Q-77.9 0.15 -78.2 -1.2 L-75.6 -0.8 Q-73.85 -0.8 -73.05 -1.55 -72.65 0.5 -73.35 2.75" fill="#c24023" fill-rule="evenodd" stroke="none"/>
      <path d="M-70.55 -2.9 Q-70.3 -0.6 -70.8 0.55 -71.1 1.25 -72.15 2.1 -71.95 1.5 -71.9 0.6 -71.8 -1.2 -72.55 -2.4 L-72.5 -2.55 -71.75 -2.45 Q-70.95 -2.55 -70.7 -3.55 L-70.55 -2.9" fill="#c24023" fill-rule="evenodd" stroke="none"/>
      <path d="M-116.25 -55.7 L-115.65 -56.2 Q-118.0 -58.9 -116.9 -60.15 -115.85 -61.25 -112.45 -61.05 -109.3 -60.8 -105.4 -59.55 -101.4 -58.3 -98.65 -56.55 -90.95 -51.65 -86.45 -43.2 -84.25 -38.95 -83.55 -35.7 L-83.35 -34.9 Q-83.2 -33.9 -83.45 -33.0 -84.15 -30.1 -88.3 -29.25 -94.75 -28.0 -101.15 -31.75 -105.3 -34.2 -110.65 -39.85 -114.95 -44.4 -115.0 -46.9 -115.0 -47.65 -114.6 -48.15 L-114.2 -48.45 Q-117.95 -51.65 -117.15 -54.25 -116.95 -55.05 -116.25 -55.7" fill="#231f20" fill-rule="evenodd" stroke="none"/>
      <path d="M-113.7 -57.8 Q-112.9 -58.55 -110.05 -58.15 -107.45 -57.75 -104.1 -56.55 -100.75 -55.35 -98.15 -53.85 -92.2 -50.35 -87.45 -42.2 -85.1 -38.15 -83.9 -34.75 L-83.7 -34.1 Q-83.5 -33.25 -83.65 -32.45 -84.2 -30.0 -87.9 -29.25 -93.65 -28.1 -99.45 -31.5 -103.2 -33.75 -108.0 -38.8 -111.8 -42.85 -112.35 -46.05 -112.55 -47.0 -112.35 -47.8 L-112.15 -48.4 Q-115.5 -51.25 -114.45 -53.25 L-113.35 -54.35 -112.7 -54.7 Q-114.65 -56.95 -113.7 -57.8" fill="#e6d949" fill-rule="evenodd" stroke="none"/>
      <path d="M-113.7 -57.8 Q-112.9 -58.55 -110.05 -58.15 -107.45 -57.75 -104.1 -56.55 -100.75 -55.35 -98.15 -53.85 -92.2 -50.35 -87.45 -42.2 -85.1 -38.15 -83.9 -34.75 L-83.65 -33.65 Q-83.45 -32.35 -84.15 -31.35 -86.5 -37.2 -89.1 -40.95 -92.95 -46.5 -98.75 -50.0 -106.85 -54.95 -107.95 -52.9 -108.5 -51.85 -107.4 -49.85 -109.35 -49.5 -109.05 -47.2 -108.9 -46.05 -108.4 -45.0 -109.5 -44.15 -109.2 -42.15 -108.95 -40.75 -108.1 -38.95 -111.8 -42.95 -112.35 -46.05 L-112.35 -47.8 -112.15 -48.4 Q-115.5 -51.25 -114.45 -53.25 L-113.35 -54.35 -112.7 -54.7 Q-114.65 -56.95 -113.7 -57.8" fill="#eba240" fill-rule="evenodd" stroke="none"/>
    </g>
  </defs>
</svg>
