<?xml version="1.0" encoding="UTF-8" standalone="no"?>
<svg xmlns:ffdec="https://www.free-decompiler.com/flash" xmlns:xlink="http://www.w3.org/1999/xlink" ffdec:objectType="frame" height="91.75px" width="82.45px" xmlns="http://www.w3.org/2000/svg">
  <g transform="matrix(1.0, 0.0, 0.0, 1.0, 117.3, 85.9)">
    <use ffdec:characterId="243" height="90.0" transform="matrix(1.0, 0.0, 0.0, 1.0, -117.25, -85.9)" width="75.2" xlink:href="#shape0"/>
  </g>
  <defs>
    <g id="shape0" transform="matrix(1.0, 0.0, 0.0, 1.0, 117.25, 85.9)">
      <path d="M-60.5 -37.2 Q-59.25 -37.0 -58.35 -36.2 L-56.85 -34.95 Q-55.0 -33.3 -53.3 -31.3 -48.0 -24.8 -46.6 -16.95 -46.15 -14.15 -46.45 -10.5 -46.75 -6.95 -47.65 -4.3 -48.6 -1.45 -49.8 -1.0 -51.2 -0.5 -52.6 -3.35 -53.55 -2.65 -54.7 -2.75 -57.05 -3.0 -58.35 -7.1 L-59.9 -7.0 Q-61.9 -7.9 -64.1 -12.85 -66.9 -19.05 -67.45 -23.25 -68.4 -29.7 -65.15 -34.5 -63.1 -37.6 -60.5 -37.2" fill="#231f20" fill-rule="evenodd" stroke="none"/>
      <path d="M-59.25 -36.2 L-57.75 -34.75 -54.4 -30.8 Q-49.4 -24.25 -48.65 -18.25 -48.3 -15.7 -48.45 -12.55 -48.6 -9.45 -49.15 -7.2 -49.75 -4.75 -50.65 -4.35 -51.65 -3.9 -52.8 -6.2 -53.6 -5.4 -54.6 -5.3 -56.6 -5.1 -57.75 -8.8 -58.55 -8.65 -59.7 -9.4 -62.1 -10.95 -64.05 -15.4 -66.55 -20.95 -67.1 -24.75 -67.9 -30.55 -65.05 -34.85 -63.2 -37.6 -61.05 -37.15 L-59.25 -36.2" fill="#eba240" fill-rule="evenodd" stroke="none"/>
      <path d="M-59.25 -36.2 L-57.75 -34.75 -54.4 -30.8 Q-49.4 -24.25 -48.65 -18.25 -48.3 -15.7 -48.45 -12.55 -48.6 -9.45 -49.15 -7.2 -49.75 -4.75 -50.65 -4.35 -51.65 -3.9 -52.8 -6.2 -53.6 -5.4 -54.6 -5.3 -56.6 -5.1 -57.75 -8.8 -58.55 -8.65 -59.7 -9.4 -62.05 -10.9 -64.0 -15.25 -62.85 -13.95 -61.75 -13.3 -60.3 -12.35 -59.25 -12.95 L-58.8 -12.5 -57.65 -11.7 Q-55.9 -10.7 -54.95 -12.15 L-54.2 -11.35 Q-53.3 -10.6 -52.7 -10.7 -50.7 -10.85 -51.9 -19.05 -52.8 -24.95 -56.0 -29.95 -58.15 -33.3 -62.1 -37.2 -61.05 -37.35 -60.05 -36.8 L-59.25 -36.2" fill="#cd832b" fill-rule="evenodd" stroke="none"/>
      <path d="M-65.85 -13.45 Q-61.45 -14.1 -57.15 -12.9 -51.75 -11.4 -51.15 -7.55 -50.7 -4.6 -53.0 -2.6 -55.8 -0.2 -61.35 -1.0 -63.55 -1.35 -66.75 -3.7 L-69.5 -6.05 Q-69.75 -7.75 -69.4 -9.5 -68.75 -13.0 -65.85 -13.45" fill="#603813" fill-rule="evenodd" stroke="none"/>
      <path d="M-53.15 -8.75 Q-52.55 -6.8 -52.75 -5.7 -52.9 -5.1 -53.65 -4.2 -53.55 -5.3 -53.9 -6.55 -54.7 -9.05 -57.2 -9.45 -55.4 -8.5 -54.75 -5.9 L-54.55 -4.25 -54.55 -3.45 Q-55.0 -2.85 -56.35 -2.45 L-59.05 -2.25 -59.1 -4.4 Q-59.4 -6.75 -61.3 -7.7 -60.2 -6.4 -60.15 -4.25 -60.15 -2.35 -60.45 -2.3 -62.85 -2.1 -65.95 -4.4 L-67.8 -5.95 -68.5 -6.7 Q-68.8 -8.0 -68.55 -9.4 -68.15 -12.15 -65.7 -12.55 L-58.5 -12.35 Q-54.0 -11.45 -53.15 -8.75" fill="#f05a28" fill-rule="evenodd" stroke="none"/>
      <path d="M-54.6 -3.5 Q-55.0 -2.9 -56.4 -2.5 L-59.05 -2.3 -59.05 -3.4 Q-59.05 -4.8 -59.45 -5.75 L-56.75 -6.1 Q-55.1 -6.5 -55.25 -7.3 -54.45 -5.55 -54.6 -3.5" fill="#c24023" fill-rule="evenodd" stroke="none"/>
      <path d="M-52.85 -5.6 Q-53.0 -5.05 -53.65 -4.25 L-53.7 -5.3 Q-53.8 -6.55 -54.3 -7.45 -53.4 -7.7 -52.95 -8.15 -52.55 -6.55 -52.85 -5.6" fill="#c24023" fill-rule="evenodd" stroke="none"/>
      <path d="M-60.45 -2.35 Q-62.9 -2.2 -65.95 -4.45 L-67.8 -6.05 -68.55 -6.75 -68.65 -7.65 -68.55 -9.6 Q-66.1 -7.9 -64.15 -6.8 -61.2 -5.15 -60.3 -5.6 -60.1 -4.5 -60.25 -3.35 L-60.45 -2.35" fill="#c24023" fill-rule="evenodd" stroke="none"/>
      <path d="M-113.75 -2.05 Q-116.15 -3.0 -116.95 -4.05 -117.85 -5.2 -116.1 -5.85 -112.95 -7.05 -103.85 -15.25 L-95.35 -23.25 Q-88.1 -21.6 -88.0 -15.35 -87.95 -13.15 -88.8 -9.85 L-90.3 -4.7 Q-90.9 -2.5 -93.35 -1.25 -95.45 -0.25 -98.5 -0.1 L-103.35 -0.45 Q-105.55 -0.95 -105.75 -1.75 -106.65 -0.75 -109.15 -0.95 -111.4 -1.1 -113.75 -2.05" fill="#231f20" fill-rule="evenodd" stroke="none"/>
      <path d="M-111.8 -3.0 Q-113.75 -3.55 -114.3 -4.25 -115.0 -5.1 -113.45 -5.65 -110.75 -6.7 -102.8 -14.45 L-95.45 -22.0 Q-89.2 -20.55 -89.1 -15.0 -89.05 -13.0 -89.8 -10.1 L-91.1 -5.45 Q-91.9 -2.35 -96.75 -1.75 -100.85 -1.2 -103.95 -2.45 L-101.55 -6.1 Q-99.0 -9.65 -99.1 -9.75 L-102.2 -6.55 -105.2 -3.4 Q-105.95 -2.5 -108.05 -2.45 L-111.8 -3.0" fill="#e6d949" fill-rule="evenodd" stroke="none"/>
      <path d="M-111.8 -3.0 Q-113.75 -3.55 -114.3 -4.25 -115.0 -5.1 -113.45 -5.65 -112.3 -6.1 -109.8 -8.1 -108.85 -6.95 -107.35 -6.65 -105.6 -6.35 -104.05 -7.4 -100.25 -10.0 -97.15 -14.25 L-95.4 -16.9 -94.85 -18.0 -92.8 -15.4 -97.0 -10.55 Q-100.9 -5.6 -99.35 -5.05 L-94.95 -4.9 Q-92.0 -6.25 -89.35 -12.0 L-90.2 -8.6 -91.1 -5.45 Q-91.9 -2.35 -96.75 -1.75 -100.85 -1.2 -103.95 -2.45 L-101.55 -6.1 Q-99.0 -9.65 -99.1 -9.75 L-102.2 -6.55 -105.2 -3.4 Q-105.95 -2.5 -108.05 -2.45 L-111.8 -3.0" fill="#eba240" fill-rule="evenodd" stroke="none"/>
      <path d="M-50.0 -77.75 L-48.3 -76.25 Q-46.25 -74.2 -44.85 -71.5 -40.25 -62.9 -43.2 -51.15 -42.0 -44.25 -44.35 -41.05 -45.95 -38.95 -49.35 -38.35 -50.65 -36.25 -51.0 -32.85 -51.35 -29.45 -50.35 -29.05 -48.1 -28.25 -49.2 -24.95 -50.25 -21.85 -53.75 -18.0 -57.5 -13.95 -62.2 -11.1 -67.6 -7.85 -72.75 -7.15 -80.6 -6.05 -85.95 -7.4 -92.3 -9.05 -95.85 -14.1 -97.75 -16.85 -98.8 -20.7 -99.9 -24.55 -99.8 -28.45 -99.65 -32.6 -98.2 -35.8 -96.6 -39.35 -93.55 -41.2 -94.8 -42.7 -95.75 -45.25 -97.75 -50.45 -96.55 -55.85 -96.25 -57.15 -97.25 -58.0 L-98.3 -58.65 -97.1 -60.4 Q-95.6 -62.35 -94.5 -63.15 -94.1 -66.2 -93.0 -68.35 -91.45 -71.65 -88.35 -73.45 L-89.45 -73.8 -91.5 -73.6 Q-91.0 -75.3 -88.7 -77.3 -84.2 -81.4 -75.6 -83.0 L-71.5 -85.9 -70.65 -85.35 Q-69.65 -84.85 -68.8 -84.85 L-58.8 -83.85 Q-48.9 -82.05 -44.5 -78.1 L-46.85 -78.4 Q-49.35 -78.55 -50.0 -77.75" fill="#231f20" fill-rule="evenodd" stroke="none"/>
      <path d="M-70.95 -77.95 Q-71.15 -70.25 -75.1 -64.85 -79.1 -59.5 -88.0 -58.65 -90.8 -58.4 -93.75 -58.65 L-96.15 -58.9 -95.15 -61.1 Q-93.9 -63.3 -92.55 -63.65 L-89.6 -64.35 Q-87.0 -65.15 -84.85 -66.7 -78.3 -71.2 -76.0 -81.3 L-71.5 -84.55 -71.15 -82.7 Q-70.85 -80.35 -70.95 -77.95" fill="#3b2314" fill-rule="evenodd" stroke="none"/>
      <path d="M-47.35 -42.95 L-48.45 -41.55 Q-49.75 -39.85 -50.65 -37.95 -53.6 -31.8 -51.5 -26.4 -53.95 -27.35 -56.2 -29.2 -60.75 -32.85 -59.8 -37.2 -58.85 -41.55 -53.0 -42.7 L-47.35 -42.95" fill="#3b2314" fill-rule="evenodd" stroke="none"/>
      <path d="M-50.45 -39.1 L-51.0 -38.3 -52.15 -36.25 Q-53.7 -32.85 -53.05 -29.85 L-55.25 -31.45 Q-57.25 -33.35 -56.45 -35.1 -55.5 -37.05 -52.9 -38.3 L-50.45 -39.1" fill="#c71c24" fill-rule="evenodd" stroke="none"/>
      <path d="M-73.2 -77.65 Q-73.9 -72.1 -77.5 -67.1 -80.6 -62.75 -87.4 -61.45 L-91.75 -61.0 -93.55 -61.0 Q-93.7 -63.1 -92.85 -65.75 -91.2 -71.15 -86.2 -74.1 L-87.25 -74.65 -89.2 -74.6 Q-88.15 -76.0 -85.6 -77.65 -80.55 -80.95 -73.25 -82.2 L-73.1 -80.95 Q-73.0 -79.35 -73.2 -77.65" fill="#fae174" fill-rule="evenodd" stroke="none"/>
      <path d="M-47.5 -72.15 Q-42.75 -63.3 -44.35 -51.15 -43.95 -42.5 -47.4 -40.55 -48.45 -40.0 -50.7 -39.7 L-53.95 -38.95 Q-58.3 -36.9 -58.0 -34.0 -57.65 -30.65 -51.1 -27.75 -49.75 -27.2 -51.1 -24.6 -52.35 -22.05 -55.45 -19.0 -58.9 -15.6 -63.05 -13.2 -67.8 -10.4 -72.5 -9.55 L-84.4 -8.95 Q-91.5 -9.9 -94.65 -14.55 -96.3 -16.95 -97.15 -20.45 -98.0 -23.9 -97.85 -27.55 -97.6 -35.85 -93.0 -40.0 -91.5 -38.55 -89.4 -37.85 -86.8 -36.95 -82.95 -37.1 -86.45 -37.55 -88.3 -38.45 -90.15 -39.4 -91.45 -41.2 -92.5 -42.65 -93.45 -45.15 -95.4 -50.2 -94.95 -55.65 -94.8 -56.95 -95.5 -58.05 L-96.15 -58.9 -88.4 -60.3 Q-80.25 -62.1 -78.25 -64.1 -75.2 -67.2 -73.6 -72.05 -72.05 -76.8 -71.5 -84.55 L-70.7 -84.05 Q-69.8 -83.55 -69.0 -83.55 L-60.1 -82.95 Q-51.45 -81.85 -47.85 -79.35 L-49.85 -79.4 Q-51.95 -79.35 -52.6 -78.6 L-50.95 -77.05 Q-49.0 -74.9 -47.5 -72.15" fill="#e6d949" fill-rule="evenodd" stroke="none"/>
      <path d="M-51.35 -63.4 L-49.25 -65.7 Q-46.95 -67.9 -45.85 -67.6 L-45.45 -66.7 -44.65 -64.2 Q-43.6 -60.0 -44.25 -56.3 -44.65 -53.8 -45.8 -53.65 -46.8 -53.55 -48.1 -55.15 -49.35 -56.7 -50.3 -59.0 -51.25 -61.45 -51.35 -63.4" fill="#231f20" fill-rule="evenodd" stroke="none"/>
      <path d="M-60.85 -66.8 L-57.6 -65.4 -57.75 -63.9 Q-58.0 -62.0 -58.5 -60.4 -60.25 -55.1 -64.25 -53.85 -69.05 -52.4 -72.45 -55.55 -75.25 -58.15 -75.75 -61.9 L-72.0 -65.4 Q-67.9 -68.9 -66.15 -68.55 -64.45 -68.25 -60.85 -66.8" fill="#231f20" fill-rule="evenodd" stroke="none"/>
      <path d="M-66.5 -64.2 Q-64.6 -64.3 -62.15 -62.3 -59.7 -60.35 -59.3 -58.4 -60.15 -56.95 -61.4 -55.75 -62.9 -54.3 -64.25 -53.85 L-67.8 -53.65 -70.75 -54.6 -73.1 -56.6 -74.25 -57.9 Q-72.05 -61.15 -70.35 -62.55 -68.5 -64.15 -66.5 -64.2" fill="#141414" fill-rule="evenodd" stroke="none"/>
      <path d="M-65.55 -56.4 L-67.45 -56.3 -69.25 -56.65 Q-69.5 -57.35 -68.85 -58.85 -68.05 -60.75 -66.45 -61.4 -65.65 -61.7 -64.65 -60.8 -63.6 -59.9 -63.55 -58.4 -63.5 -57.55 -64.3 -56.95 L-65.55 -56.4" fill="#000000" fill-rule="evenodd" stroke="none"/>
      <path d="M-50.3 -59.05 Q-51.25 -61.45 -51.35 -63.4 L-49.5 -65.45 Q-47.45 -67.5 -46.25 -67.65 -45.5 -65.45 -45.5 -62.8 -45.5 -60.2 -46.2 -58.1 -46.95 -56.05 -48.15 -55.2 -49.4 -56.75 -50.3 -59.05" fill="#000000" fill-rule="evenodd" stroke="none"/>
      <path d="M-47.95 -66.15 Q-47.05 -65.8 -46.45 -64.75 -45.9 -63.75 -45.9 -62.45 -45.9 -60.9 -46.7 -59.75 -47.55 -58.65 -48.7 -58.65 -49.35 -58.65 -49.95 -59.05 -50.8 -61.2 -50.85 -63.05 L-47.95 -66.15" fill="#972b0f" fill-rule="evenodd" stroke="none"/>
      <path d="M-46.55 -64.25 L-46.4 -63.2 Q-46.45 -62.7 -46.75 -62.6 -47.05 -62.5 -47.4 -62.85 L-47.95 -63.75 -48.1 -64.8 Q-48.05 -65.3 -47.8 -65.4 L-47.15 -65.2 -46.55 -64.25" fill="#ffffff" fill-rule="evenodd" stroke="none"/>
      <path d="M-88.35 -63.1 Q-89.15 -62.25 -88.65 -59.35 -88.1 -56.45 -86.95 -55.5 -88.45 -55.2 -89.65 -56.3 -90.7 -57.25 -91.1 -58.9 -91.45 -60.5 -90.8 -61.65 -90.05 -63.0 -88.35 -63.1" fill="#231f20" fill-rule="evenodd" stroke="none"/>
      <path d="M-81.5 -65.4 Q-80.7 -65.3 -79.5 -62.55 -78.3 -59.85 -78.8 -59.0 -79.55 -58.6 -80.5 -59.4 -81.4 -60.15 -82.05 -61.4 -82.7 -62.75 -82.65 -63.8 -82.55 -65.05 -81.5 -65.4" fill="#231f20" fill-rule="evenodd" stroke="none"/>
      <path d="M-71.0 -70.6 Q-70.1 -69.2 -70.8 -67.8 -72.25 -69.6 -75.85 -70.2 L-77.95 -70.65 Q-78.75 -70.9 -78.6 -71.5 -78.2 -72.8 -76.65 -73.05 -75.2 -73.25 -73.5 -72.55 -71.8 -71.85 -71.0 -70.6" fill="#231f20" fill-rule="evenodd" stroke="none"/>
      <path d="M-71.6 -70.7 Q-70.75 -69.55 -71.35 -68.4 -72.65 -69.9 -75.65 -70.45 L-77.4 -70.85 Q-78.1 -71.05 -78.0 -71.5 -77.7 -72.55 -76.35 -72.75 L-73.75 -72.3 Q-72.3 -71.7 -71.6 -70.7" fill="#a87c4f" fill-rule="evenodd" stroke="none"/>
      <path d="M-70.95 -78.3 Q-69.65 -77.7 -68.95 -76.6 -68.2 -75.4 -68.75 -74.2 -69.35 -75.35 -71.85 -76.4 -74.35 -77.45 -75.2 -76.95 -74.8 -78.35 -73.5 -78.7 -72.35 -78.95 -70.95 -78.3" fill="#231f20" fill-rule="evenodd" stroke="none"/>
      <path d="M-89.2 -62.55 Q-89.7 -61.9 -89.3 -59.4 -88.9 -56.9 -88.15 -56.1 -89.1 -55.85 -89.9 -56.85 -90.6 -57.7 -90.9 -59.05 -91.15 -60.45 -90.75 -61.4 -90.35 -62.5 -89.2 -62.55" fill="#a87c4f" fill-rule="evenodd" stroke="none"/>
      <path d="M-81.8 -64.95 Q-81.2 -64.8 -80.25 -62.5 -79.25 -60.15 -79.55 -59.45 -80.1 -59.2 -80.8 -59.9 -81.5 -60.55 -82.0 -61.65 -82.55 -62.75 -82.55 -63.65 -82.55 -64.7 -81.8 -64.95" fill="#a87c4f" fill-rule="evenodd" stroke="none"/>
      <path d="M-71.25 -78.15 Q-70.05 -77.6 -69.4 -76.8 -68.7 -75.9 -69.05 -75.1 -69.65 -75.95 -71.9 -76.85 -74.1 -77.75 -74.8 -77.45 -74.55 -78.45 -73.45 -78.6 L-71.25 -78.15" fill="#a87c4f" fill-rule="evenodd" stroke="none"/>
      <path d="M-52.7 -65.05 Q-52.9 -64.0 -53.8 -63.8 -52.9 -64.55 -54.35 -68.05 L-56.0 -71.45 Q-52.35 -67.2 -52.7 -65.05" fill="#231f20" fill-rule="evenodd" stroke="none"/>
      <path d="M-94.95 -55.65 Q-94.8 -56.95 -95.5 -58.05 L-96.15 -58.9 -92.95 -59.4 Q-92.3 -56.3 -90.75 -53.7 -88.75 -50.3 -85.4 -48.2 L-85.25 -50.15 Q-85.0 -52.5 -84.05 -54.15 L-83.0 -51.0 Q-81.55 -47.45 -79.4 -45.7 L-76.65 -44.75 Q-73.25 -43.65 -69.7 -43.15 -58.3 -41.45 -50.0 -45.7 L-49.75 -45.2 -49.55 -43.9 Q-49.6 -41.65 -52.05 -39.5 L-53.95 -38.95 Q-57.8 -37.15 -58.0 -34.55 -58.2 -31.65 -53.55 -29.0 -55.8 -25.2 -59.2 -22.4 -64.7 -17.8 -71.6 -17.45 -70.05 -21.75 -70.25 -26.0 -70.65 -34.55 -79.25 -34.4 -82.3 -34.35 -85.15 -32.45 -87.8 -30.7 -89.45 -27.8 -91.15 -24.85 -91.25 -21.7 -91.35 -18.3 -89.5 -15.45 -87.0 -11.55 -79.15 -10.65 -75.45 -10.25 -68.6 -10.6 -70.5 -9.9 -72.5 -9.55 L-84.4 -8.95 Q-91.5 -9.9 -94.65 -14.55 -96.3 -16.95 -97.15 -20.45 -98.0 -23.9 -97.85 -27.55 -97.6 -35.85 -93.0 -40.0 -91.2 -38.45 -89.6 -37.85 -87.2 -37.05 -82.95 -37.1 -86.15 -37.4 -88.15 -38.4 -90.2 -39.4 -91.45 -41.2 -92.5 -42.65 -93.45 -45.15 -95.4 -50.2 -94.95 -55.65" fill="#eba240" fill-rule="evenodd" stroke="none"/>
      <path d="M-76.0 -38.2 Q-74.3 -40.05 -69.5 -39.95 -64.65 -39.85 -63.55 -37.95 -61.85 -35.2 -60.7 -30.85 -59.15 -25.4 -60.8 -23.75 L-63.45 -21.1 Q-65.55 -19.15 -67.55 -17.9 -73.4 -14.2 -79.0 -15.8 -82.05 -16.65 -82.95 -19.5 -83.75 -21.95 -82.8 -25.7 -81.95 -29.0 -80.0 -32.55 -78.15 -35.85 -76.0 -38.2" fill="#3b2314" fill-rule="evenodd" stroke="none"/>
      <path d="M-75.9 -37.35 Q-74.4 -39.05 -70.0 -38.95 -65.65 -38.85 -64.6 -37.15 -63.3 -34.95 -62.5 -31.25 -61.5 -26.85 -62.6 -24.85 -64.45 -21.55 -68.25 -19.05 -73.45 -15.55 -78.65 -17.05 -84.0 -18.55 -82.1 -26.0 -81.35 -29.0 -79.55 -32.25 -77.85 -35.25 -75.9 -37.35" fill="#c71c24" fill-rule="evenodd" stroke="none"/>
      <path d="M-75.9 -37.35 L-75.2 -36.9 Q-74.3 -36.35 -73.3 -35.95 -69.95 -34.6 -66.5 -34.95 -65.55 -35.1 -65.2 -34.55 -64.95 -34.1 -65.25 -33.35 -65.5 -32.65 -66.05 -32.15 -66.65 -31.6 -67.2 -31.65 L-72.15 -31.95 Q-75.55 -32.5 -77.55 -34.9 L-75.9 -37.35" fill="#e8deb1" fill-rule="evenodd" stroke="none"/>
      <path d="M-79.65 -31.6 L-78.85 -30.95 Q-77.8 -30.2 -76.5 -29.6 -72.25 -27.7 -66.95 -28.05 -65.85 -28.15 -65.6 -27.6 -65.4 -27.2 -65.85 -26.45 -66.25 -25.75 -66.95 -25.25 -67.7 -24.7 -68.35 -24.75 L-70.55 -24.85 -73.6 -25.15 Q-77.75 -25.95 -80.95 -28.65 L-79.65 -31.6" fill="#e8deb1" fill-rule="evenodd" stroke="none"/>
      <path d="M-81.4 -25.05 L-79.55 -23.85 Q-76.25 -22.15 -71.9 -22.2 -70.9 -22.2 -70.7 -21.7 -70.55 -21.25 -71.05 -20.6 -72.3 -19.05 -73.9 -19.05 -76.05 -19.05 -78.4 -19.95 -81.05 -20.95 -82.45 -22.6 L-81.95 -25.6 -81.4 -25.05" fill="#e8deb1" fill-rule="evenodd" stroke="none"/>
      <path d="M-67.1 -56.3 Q-66.9 -55.45 -66.95 -54.5 L-68.7 -54.35 -69.35 -55.85 Q-69.75 -57.4 -68.6 -57.75 -67.45 -58.05 -67.1 -56.3" fill="#c1b49a" fill-rule="evenodd" stroke="none"/>
      <path d="M-72.05 -53.75 Q-70.15 -55.7 -67.45 -55.7 -64.7 -55.7 -62.8 -53.75 -60.85 -51.85 -60.85 -49.1 -60.85 -46.4 -62.8 -44.45 -64.7 -42.55 -67.45 -42.55 -70.15 -42.55 -72.05 -44.45 -74.0 -46.4 -74.0 -49.1 -74.0 -51.85 -72.05 -53.75" fill="#231f20" fill-rule="evenodd" stroke="none"/>
      <path d="M-61.5 -48.85 Q-61.5 -46.5 -63.15 -44.85 -64.85 -43.2 -67.2 -43.2 -69.55 -43.2 -71.2 -44.85 -72.85 -46.5 -72.85 -48.85 -72.85 -51.2 -71.2 -52.9 -69.55 -54.55 -67.2 -54.55 -64.8 -54.55 -63.15 -52.9 -61.5 -51.2 -61.5 -48.85" fill="#faebb6" fill-rule="evenodd" stroke="none"/>
      <path d="M-68.1 -48.3 Q-67.15 -49.25 -65.85 -49.25 -64.55 -49.25 -63.6 -48.3 -62.65 -47.35 -62.65 -46.05 L-62.75 -45.3 Q-63.55 -44.3 -64.65 -43.75 -65.85 -43.15 -67.2 -43.15 L-67.25 -43.15 Q-68.1 -43.55 -68.55 -44.35 -69.05 -45.1 -69.05 -46.05 -69.05 -47.35 -68.1 -48.3" fill="#000000" fill-rule="evenodd" stroke="none"/>
      <path d="M-64.6 -47.7 Q-64.55 -47.25 -64.9 -46.9 -65.3 -46.55 -65.85 -46.5 L-66.9 -46.65 Q-67.35 -46.95 -67.4 -47.4 L-67.05 -48.2 -66.1 -48.6 -65.05 -48.4 Q-64.6 -48.15 -64.6 -47.7" fill="#716558" fill-rule="evenodd" stroke="none"/>
      <path d="M-70.95 -53.15 L-70.2 -53.7 -67.9 -52.8 -67.6 -50.55 -66.8 -49.6 -67.9 -50.4 -68.3 -52.45 -70.95 -53.15" fill="#de7251" fill-rule="evenodd" stroke="none"/>
      <path d="M-72.6 -50.6 L-70.95 -49.7 -68.6 -49.25 -70.95 -49.25 -72.75 -50.0 -72.6 -50.6" fill="#de7251" fill-rule="evenodd" stroke="none"/>
      <path d="M-55.05 -53.05 Q-52.85 -54.2 -50.9 -52.85 -49.35 -51.75 -48.15 -49.15 -47.2 -47.0 -46.8 -44.8 -46.5 -42.7 -46.95 -42.7 -47.75 -42.7 -48.7 -41.3 L-49.55 -39.9 Q-50.1 -41.3 -51.3 -40.5 L-52.4 -39.45 Q-53.2 -41.0 -55.2 -39.0 L-57.05 -36.7 Q-57.35 -39.05 -59.0 -38.85 L-60.05 -38.5 -60.55 -38.2 Q-60.1 -41.1 -61.4 -41.3 L-62.35 -41.15 -62.8 -40.95 Q-62.25 -47.0 -58.6 -50.65 -56.75 -52.45 -55.05 -53.05" fill="#975d2b" fill-rule="evenodd" stroke="none"/>
      <path d="M-51.55 -49.9 L-44.9 -49.65 Q-46.05 -47.45 -47.7 -45.3 -50.95 -41.05 -53.4 -41.55 -58.25 -42.6 -58.25 -47.15 -58.25 -49.65 -51.55 -49.9" fill="#603813" fill-rule="evenodd" stroke="none"/>
      <path d="M-51.6 -50.45 L-45.2 -50.1 Q-46.3 -48.15 -47.9 -46.25 -51.05 -42.5 -53.4 -42.85 -55.15 -43.15 -56.25 -44.25 -57.6 -45.6 -57.75 -47.95 -57.95 -50.35 -51.6 -50.45" fill="#d45a21" fill-rule="evenodd" stroke="none"/>
      <path d="M-48.0 -56.5 Q-46.25 -55.2 -44.95 -53.4 -43.65 -51.6 -43.3 -49.9 -43.0 -48.7 -43.65 -48.65 L-46.15 -49.1 Q-51.7 -49.9 -57.95 -46.2 -58.8 -45.7 -59.2 -46.95 -59.55 -48.15 -59.25 -50.2 -58.95 -52.4 -58.0 -54.25 -56.95 -56.45 -55.4 -57.5 -52.25 -59.55 -48.0 -56.5" fill="#603813" fill-rule="evenodd" stroke="none"/>
      <path d="M-48.4 -55.85 Q-45.0 -53.55 -43.9 -50.35 -43.55 -49.3 -44.1 -49.3 L-46.4 -49.85 Q-51.45 -50.85 -56.8 -47.9 -57.55 -47.45 -57.9 -48.4 -58.2 -49.3 -57.95 -50.85 -57.35 -54.85 -54.75 -56.6 -52.15 -58.35 -48.4 -55.85" fill="#f05a28" fill-rule="evenodd" stroke="none"/>
      <path d="M-51.05 -51.4 Q-50.65 -50.45 -49.9 -50.1 -53.25 -49.85 -56.8 -47.9 -57.75 -47.35 -58.0 -48.85 -58.25 -50.25 -57.65 -52.25 L-57.3 -52.65 -57.3 -52.05 -57.05 -50.85 Q-56.5 -49.25 -55.0 -50.5 L-54.7 -50.3 -53.9 -50.15 Q-52.6 -50.2 -51.35 -52.25 L-51.05 -51.4" fill="#d44023" fill-rule="evenodd" stroke="none"/>
      <path d="M-48.3 -48.4 L-49.05 -47.9 Q-49.75 -47.15 -49.5 -45.8 L-50.2 -45.7 Q-50.85 -45.3 -50.45 -44.0 L-51.05 -43.45 Q-51.75 -42.9 -52.3 -42.8 -53.8 -42.6 -55.4 -43.65 -57.1 -44.8 -57.4 -46.5 L-52.65 -48.45 Q-49.0 -49.6 -48.3 -48.4" fill="#c24023" fill-rule="evenodd" stroke="none"/>
      <path d="M-90.25 -4.25 Q-90.25 -6.1 -89.55 -7.9 -88.2 -11.55 -84.9 -11.5 -79.8 -11.5 -75.4 -9.55 -69.7 -7.1 -69.9 -2.8 -70.1 0.55 -73.1 2.35 -76.7 4.5 -82.65 2.65 -85.0 1.95 -87.85 -1.25 L-90.25 -4.25" fill="#603813" fill-rule="evenodd" stroke="none"/>
      <path d="M-76.7 -9.25 Q-71.95 -7.45 -71.6 -4.4 -71.35 -2.15 -71.85 -0.95 -72.15 -0.3 -73.15 0.55 -72.85 -0.5 -72.95 -1.8 -73.15 -4.4 -75.3 -5.4 -73.9 -4.05 -73.95 -1.35 -74.0 0.85 -74.35 1.2 -74.95 1.85 -76.6 2.0 L-79.6 1.8 Q-79.2 0.65 -79.1 -0.75 -78.8 -3.55 -80.7 -5.0 -79.8 -3.25 -80.3 -0.7 L-80.8 0.85 -81.1 1.5 Q-83.85 1.3 -86.7 -1.75 L-88.4 -3.8 -89.05 -4.75 Q-89.05 -6.2 -88.5 -7.7 -87.4 -10.65 -84.6 -10.65 -80.45 -10.65 -76.7 -9.25" fill="#f05a28" fill-rule="evenodd" stroke="none"/>
      <path d="M-86.7 -1.8 L-88.4 -3.85 -89.05 -4.8 -88.9 -6.3 Q-88.55 -8.05 -87.75 -9.15 -86.25 -6.6 -84.7 -5.0 -82.2 -2.45 -80.15 -3.0 -79.95 -0.75 -81.1 1.45 -83.85 1.25 -86.7 -1.8" fill="#c24023" fill-rule="evenodd" stroke="none"/>
      <path d="M-74.35 1.15 Q-74.95 1.8 -76.6 2.0 L-79.6 1.75 -79.25 0.3 Q-78.9 -1.45 -79.2 -2.75 L-76.6 -2.35 Q-74.9 -2.35 -74.1 -3.1 -73.7 -1.1 -74.35 1.15" fill="#c24023" fill-rule="evenodd" stroke="none"/>
      <path d="M-73.15 0.5 L-72.95 -0.95 Q-72.85 -2.75 -73.6 -3.95 L-73.55 -4.1 -72.8 -4.0 Q-72.0 -4.1 -71.75 -5.1 L-71.6 -4.45 Q-71.35 -2.2 -71.85 -1.0 -72.15 -0.35 -73.15 0.5" fill="#c24023" fill-rule="evenodd" stroke="none"/>
      <path d="M-82.3 -35.9 L-80.55 -34.5 -76.55 -30.35 Q-70.5 -23.0 -68.95 -14.05 -68.4 -10.9 -68.75 -6.75 -69.1 -2.7 -70.1 0.3 -71.2 3.5 -72.6 4.0 -74.15 4.55 -75.75 1.35 -76.8 2.15 -78.15 2.0 -80.8 1.75 -82.3 -2.95 -82.9 -2.3 -84.05 -2.8 -86.3 -3.8 -88.8 -9.45 -91.95 -16.45 -92.6 -21.25 -93.65 -28.55 -90.0 -34.0 -87.65 -37.45 -84.75 -37.05 -83.3 -36.8 -82.3 -35.9" fill="#231f20" fill-rule="evenodd" stroke="none"/>
      <path d="M-85.3 -37.0 Q-84.1 -36.8 -83.3 -35.9 L-81.6 -34.25 -77.8 -29.8 Q-72.15 -22.35 -71.25 -15.55 -70.85 -12.65 -71.0 -9.1 -71.2 -5.55 -71.85 -3.0 -72.55 -0.25 -73.55 0.2 -74.7 0.7 -76.0 -1.95 -76.85 -1.0 -78.0 -0.85 -80.25 -0.65 -81.55 -4.8 -82.45 -4.7 -83.8 -5.55 -86.5 -7.25 -88.75 -12.3 -91.55 -18.6 -92.2 -22.9 -93.1 -29.5 -89.85 -34.35 -87.75 -37.5 -85.3 -37.0" fill="#e6d949" fill-rule="evenodd" stroke="none"/>
      <path d="M-77.8 -29.8 Q-72.15 -22.35 -71.25 -15.55 -70.85 -12.65 -71.0 -9.1 -71.2 -5.55 -71.85 -3.0 -72.55 -0.25 -73.55 0.2 -74.7 0.7 -76.0 -1.95 -76.85 -1.0 -78.0 -0.85 -80.25 -0.65 -81.55 -4.8 -82.45 -4.7 -83.8 -5.5 -86.45 -7.2 -88.65 -12.15 -87.35 -10.65 -86.15 -9.9 -84.45 -8.85 -83.25 -9.55 L-82.75 -9.05 -81.5 -8.1 Q-79.5 -7.0 -78.4 -8.6 L-77.55 -7.75 Q-76.55 -6.9 -75.85 -6.95 -73.55 -7.2 -74.95 -16.5 -75.95 -23.15 -79.6 -28.8 -82.05 -32.6 -86.5 -37.0 -85.35 -37.25 -84.2 -36.6 L-83.3 -35.9 -81.6 -34.25 -77.8 -29.8" fill="#eba240" fill-rule="evenodd" stroke="none"/>
    </g>
  </defs>
</svg>
