<?xml version="1.0" encoding="UTF-8" standalone="no"?>
<svg xmlns:ffdec="https://www.free-decompiler.com/flash" xmlns:xlink="http://www.w3.org/1999/xlink" ffdec:objectType="frame" height="91.75px" width="82.45px" xmlns="http://www.w3.org/2000/svg">
  <g transform="matrix(1.0, 0.0, 0.0, 1.0, 117.3, 85.9)">
    <use ffdec:characterId="244" height="90.0" transform="matrix(1.0, 0.0, 0.0, 1.0, -116.5, -85.15)" width="79.9" xlink:href="#shape0"/>
  </g>
  <defs>
    <g id="shape0" transform="matrix(1.0, 0.0, 0.0, 1.0, 116.5, 85.15)">
      <path d="M-36.65 -24.35 Q-36.45 -21.7 -37.5 -20.95 -38.65 -20.05 -41.15 -21.9 -41.75 -21.05 -42.9 -20.75 -45.3 -20.15 -48.2 -23.1 -48.95 -21.9 -50.35 -21.5 -53.25 -20.65 -56.6 -24.5 -57.7 -25.75 -56.3 -27.65 L-55.7 -28.75 Q-55.65 -29.25 -56.65 -29.5 -60.4 -30.4 -61.2 -30.85 -62.6 -31.65 -63.95 -34.2 -65.55 -37.2 -64.05 -39.0 -63.25 -39.9 -62.15 -40.2 L-59.3 -41.3 Q-55.7 -42.4 -51.8 -42.55 -46.45 -42.75 -40.75 -35.1 -39.15 -32.95 -38.0 -29.85 -36.85 -26.85 -36.65 -24.35" fill="#231f20" fill-rule="evenodd" stroke="none"/>
      <path d="M-42.45 -24.2 Q-42.9 -23.25 -43.8 -22.85 -45.65 -22.0 -48.25 -24.65 -48.85 -23.4 -50.05 -22.8 -52.4 -21.65 -55.2 -25.05 -56.2 -26.3 -54.75 -28.2 L-54.05 -29.35 Q-53.9 -29.85 -54.75 -30.05 L-60.25 -31.1 Q-62.65 -31.95 -64.2 -34.45 -65.85 -37.05 -64.4 -38.55 -63.7 -39.3 -62.6 -39.55 L-59.3 -40.4 -51.4 -41.45 Q-47.4 -41.65 -43.2 -35.5 -41.85 -33.5 -40.75 -30.9 -39.65 -28.25 -39.3 -26.25 -38.95 -24.0 -39.6 -23.4 -40.4 -22.7 -42.45 -24.2" fill="#eba240" fill-rule="evenodd" stroke="none"/>
      <path d="M-42.45 -24.2 Q-42.9 -23.25 -43.8 -22.85 -45.65 -22.0 -48.25 -24.65 -48.9 -23.3 -50.1 -22.75 -52.5 -21.55 -55.4 -25.35 -54.0 -24.75 -52.65 -25.05 -51.15 -25.4 -51.15 -26.9 L-49.2 -26.7 Q-47.25 -26.85 -46.9 -28.35 L-45.8 -27.85 -44.05 -27.55 Q-42.1 -28.0 -46.6 -34.3 -47.9 -36.2 -49.15 -37.45 -50.65 -38.7 -56.4 -38.65 -62.45 -38.5 -65.0 -36.7 -65.1 -37.65 -64.2 -38.55 L-63.35 -39.3 -57.15 -40.75 Q-50.6 -42.0 -48.7 -40.9 -47.25 -40.1 -45.7 -38.55 L-43.2 -35.5 Q-41.85 -33.5 -40.75 -30.9 -39.65 -28.25 -39.3 -26.25 -38.95 -24.0 -39.6 -23.4 -40.4 -22.7 -42.45 -24.2" fill="#cd832b" fill-rule="evenodd" stroke="none"/>
      <path d="M-56.0 -11.65 Q-50.55 -10.15 -49.95 -6.3 -49.5 -3.3 -51.85 -1.3 -54.65 1.15 -60.2 0.3 -62.45 -0.05 -65.65 -2.45 L-68.4 -4.8 Q-68.65 -6.45 -68.35 -8.25 -67.7 -11.8 -64.75 -12.2 L-56.0 -11.65" fill="#603813" fill-rule="evenodd" stroke="none"/>
      <path d="M-57.35 -11.1 Q-52.85 -10.2 -51.95 -7.5 -51.35 -5.55 -51.6 -4.45 -51.7 -3.8 -52.45 -2.9 -52.35 -4.05 -52.75 -5.25 -53.5 -7.8 -56.05 -8.2 -54.2 -7.2 -53.6 -4.65 -53.1 -2.65 -53.4 -2.15 -53.8 -1.55 -55.2 -1.15 L-57.9 -0.9 -57.95 -3.1 Q-58.25 -5.5 -60.15 -6.45 -59.05 -5.15 -59.05 -2.95 -59.0 -1.05 -59.3 -1.0 -61.75 -0.8 -64.85 -3.1 L-66.7 -4.7 -67.4 -5.45 Q-67.7 -6.75 -67.5 -8.15 -67.05 -10.9 -64.6 -11.3 L-57.35 -11.1" fill="#f05a28" fill-rule="evenodd" stroke="none"/>
      <path d="M-57.9 -0.95 L-57.9 -2.1 Q-57.9 -3.5 -58.3 -4.5 L-55.6 -4.8 Q-53.9 -5.2 -54.05 -6.0 -53.25 -4.25 -53.4 -2.2 -53.8 -1.6 -55.2 -1.2 L-57.9 -0.95" fill="#c24023" fill-rule="evenodd" stroke="none"/>
      <path d="M-53.1 -6.2 L-51.8 -6.9 Q-51.35 -5.3 -51.65 -4.35 -51.8 -3.8 -52.45 -3.0 L-52.5 -4.0 Q-52.6 -5.25 -53.1 -6.2" fill="#c24023" fill-rule="evenodd" stroke="none"/>
      <path d="M-67.55 -6.35 L-67.5 -8.35 -63.05 -5.5 Q-60.1 -3.9 -59.15 -4.3 -58.95 -3.25 -59.1 -2.05 L-59.3 -1.05 Q-61.75 -0.9 -64.85 -3.15 L-66.75 -4.75 -67.45 -5.5 -67.55 -6.35" fill="#c24023" fill-rule="evenodd" stroke="none"/>
      <path d="M-87.05 -14.15 Q-87.0 -11.9 -87.85 -8.6 L-89.4 -3.4 Q-89.95 -1.2 -92.45 0.05 -94.55 1.05 -97.6 1.25 L-102.5 0.9 Q-104.75 0.35 -104.9 -0.45 -105.85 0.55 -108.35 0.35 -110.6 0.2 -113.0 -0.75 -115.4 -1.7 -116.2 -2.75 -117.1 -3.95 -115.3 -4.6 -112.2 -5.75 -103.0 -14.05 L-94.45 -22.1 Q-87.15 -20.45 -87.05 -14.15" fill="#231f20" fill-rule="evenodd" stroke="none"/>
      <path d="M-94.55 -20.85 Q-88.25 -19.4 -88.15 -13.75 -88.1 -11.8 -88.85 -8.85 L-90.2 -4.2 Q-91.0 -1.05 -95.85 -0.45 -100.0 0.1 -103.1 -1.15 L-100.7 -4.8 -98.25 -8.45 -101.35 -5.3 -104.35 -2.1 Q-105.15 -1.2 -107.25 -1.15 L-111.0 -1.7 Q-112.95 -2.25 -113.55 -3.0 -114.2 -3.8 -112.7 -4.4 -109.95 -5.45 -101.95 -13.25 L-94.55 -20.85" fill="#e6d949" fill-rule="evenodd" stroke="none"/>
      <path d="M-88.45 -10.8 Q-88.7 -9.4 -89.3 -7.35 L-90.2 -4.2 Q-91.0 -1.05 -95.85 -0.45 -100.0 0.1 -103.1 -1.15 L-100.7 -4.8 -98.25 -8.45 -101.35 -5.3 -104.35 -2.1 Q-105.15 -1.2 -107.25 -1.15 L-111.0 -1.7 Q-112.95 -2.25 -113.55 -3.0 -114.2 -3.8 -112.7 -4.4 -111.45 -4.85 -109.0 -6.85 -108.05 -5.7 -106.5 -5.4 -104.8 -5.05 -103.2 -6.1 -99.4 -8.75 -96.25 -13.05 -94.7 -15.2 -93.95 -16.8 L-91.9 -14.15 -96.1 -9.3 Q-100.0 -4.3 -98.45 -3.75 L-94.05 -3.65 Q-91.1 -4.95 -88.45 -10.8" fill="#eba240" fill-rule="evenodd" stroke="none"/>
      <path d="M-48.8 -76.95 L-47.05 -75.45 Q-45.05 -73.35 -43.6 -70.65 -39.0 -62.0 -41.95 -50.2 -40.75 -43.25 -43.15 -40.0 -44.7 -37.9 -48.15 -37.3 -49.45 -35.2 -49.8 -31.75 -50.15 -28.35 -49.1 -27.95 -46.85 -27.1 -48.0 -23.8 -49.05 -20.65 -52.6 -16.8 -56.35 -12.7 -61.1 -9.85 -66.5 -6.6 -71.7 -5.9 -79.6 -4.8 -85.0 -6.15 -91.35 -7.75 -94.95 -12.9 -96.85 -15.65 -97.95 -19.5 -99.05 -23.4 -98.95 -27.3 -98.8 -31.5 -97.35 -34.75 -95.7 -38.3 -92.65 -40.15 -93.9 -41.65 -94.9 -44.25 -96.9 -49.45 -95.65 -54.9 -95.35 -56.2 -96.4 -57.1 L-97.45 -57.7 -96.2 -59.5 -93.6 -62.25 Q-92.6 -69.65 -87.4 -72.6 L-88.5 -73.0 -90.6 -72.75 -90.05 -73.9 -87.8 -76.55 Q-83.25 -80.6 -74.55 -82.25 L-70.4 -85.15 -69.55 -84.6 Q-68.55 -84.1 -67.75 -84.1 L-57.65 -83.1 Q-47.7 -81.3 -43.3 -77.3 L-45.65 -77.6 Q-48.1 -77.8 -48.8 -76.95" fill="#231f20" fill-rule="evenodd" stroke="none"/>
      <path d="M-69.85 -77.15 Q-70.1 -69.4 -74.1 -64.0 -78.1 -58.55 -87.05 -57.75 -89.9 -57.5 -92.85 -57.7 L-95.3 -58.0 -94.25 -60.15 Q-92.95 -62.45 -91.65 -62.75 L-88.65 -63.5 Q-86.05 -64.3 -83.85 -65.8 -77.25 -70.35 -74.95 -80.55 L-70.45 -83.8 Q-69.75 -81.05 -69.85 -77.15" fill="#3b2314" fill-rule="evenodd" stroke="none"/>
      <path d="M-46.1 -41.9 L-47.25 -40.55 Q-48.55 -38.8 -49.45 -36.85 -52.4 -30.7 -50.3 -25.25 -52.75 -26.25 -55.05 -28.1 -59.6 -31.75 -58.65 -36.15 -57.7 -40.55 -51.8 -41.65 L-46.1 -41.9" fill="#3b2314" fill-rule="evenodd" stroke="none"/>
      <path d="M-51.7 -37.2 L-49.25 -38.05 -49.8 -37.25 -50.95 -35.2 Q-52.5 -31.7 -51.9 -28.75 -53.05 -29.35 -54.1 -30.3 -56.1 -32.25 -55.3 -34.0 -54.35 -36.0 -51.7 -37.2" fill="#c71c24" fill-rule="evenodd" stroke="none"/>
      <path d="M-72.15 -76.85 Q-72.85 -71.25 -76.45 -66.25 -79.6 -61.85 -86.45 -60.55 L-90.85 -60.1 -92.65 -60.1 Q-92.8 -62.2 -91.95 -64.9 -90.25 -70.3 -85.25 -73.25 L-86.25 -73.8 Q-87.45 -74.25 -88.25 -73.8 L-87.4 -74.7 -84.65 -76.85 Q-79.55 -80.2 -72.2 -81.45 -71.8 -79.65 -72.15 -76.85" fill="#fae174" fill-rule="evenodd" stroke="none"/>
      <path d="M-46.25 -71.35 Q-41.5 -62.4 -43.1 -50.2 -42.7 -41.45 -46.2 -39.55 -47.25 -38.95 -49.5 -38.65 -51.8 -38.35 -52.75 -37.9 -57.15 -35.85 -56.85 -32.85 -56.5 -29.5 -49.9 -26.6 -48.55 -26.05 -49.9 -23.45 -51.2 -20.85 -54.3 -17.8 -57.75 -14.4 -61.9 -11.95 -66.7 -9.15 -71.45 -8.3 L-83.45 -7.7 Q-90.6 -8.65 -93.75 -13.3 -95.4 -15.75 -96.3 -19.25 -97.15 -22.75 -97.0 -26.4 -96.7 -34.75 -92.05 -38.95 -90.6 -37.45 -88.5 -36.75 -85.85 -35.85 -82.0 -36.0 -85.5 -36.5 -87.35 -37.4 -89.2 -38.3 -90.5 -40.15 -91.55 -41.6 -92.55 -44.15 -94.5 -49.2 -94.05 -54.7 -93.9 -56.0 -94.6 -57.1 L-95.3 -58.0 -87.45 -59.4 Q-79.25 -61.2 -77.2 -63.25 -74.15 -66.35 -72.55 -71.25 -71.0 -76.0 -70.45 -83.8 L-69.65 -83.3 Q-68.7 -82.8 -67.95 -82.8 L-59.0 -82.2 Q-50.25 -81.1 -46.6 -78.55 L-48.65 -78.65 Q-50.75 -78.6 -51.4 -77.8 L-49.75 -76.25 Q-47.8 -74.1 -46.25 -71.35" fill="#e6d949" fill-rule="evenodd" stroke="none"/>
      <path d="M-50.15 -62.5 L-48.05 -64.8 Q-45.7 -67.05 -44.6 -66.75 L-44.2 -65.8 -43.4 -63.3 Q-42.35 -59.1 -43.0 -55.35 -43.4 -52.85 -44.55 -52.7 -45.6 -52.6 -46.9 -54.25 -48.15 -55.8 -49.1 -58.1 -50.05 -60.5 -50.15 -62.5" fill="#231f20" fill-rule="evenodd" stroke="none"/>
      <path d="M-57.35 -59.45 Q-59.1 -54.2 -63.15 -52.9 -68.0 -51.4 -71.4 -54.6 -74.25 -57.2 -74.7 -61.0 L-70.95 -64.55 Q-66.8 -68.05 -65.05 -67.7 -63.35 -67.4 -59.75 -65.95 L-56.45 -64.5 -56.6 -63.0 Q-56.85 -61.1 -57.35 -59.45" fill="#231f20" fill-rule="evenodd" stroke="none"/>
      <path d="M-65.4 -63.35 Q-63.5 -63.4 -61.05 -61.4 -58.55 -59.4 -58.15 -57.45 -59.0 -56.05 -60.3 -54.8 -61.8 -53.35 -63.15 -52.9 L-66.7 -52.7 Q-68.05 -52.95 -69.65 -53.65 -70.7 -54.25 -72.05 -55.7 L-73.2 -56.95 Q-71.0 -60.25 -69.3 -61.7 -67.4 -63.25 -65.4 -63.35" fill="#141414" fill-rule="evenodd" stroke="none"/>
      <path d="M-64.45 -55.45 L-66.4 -55.35 -68.2 -55.7 Q-68.4 -56.4 -67.75 -57.95 -66.95 -59.85 -65.35 -60.5 -64.55 -60.8 -63.55 -59.9 -62.5 -58.95 -62.45 -57.45 -62.4 -56.6 -63.2 -56.05 -63.45 -55.85 -64.45 -55.45" fill="#000000" fill-rule="evenodd" stroke="none"/>
      <path d="M-45.05 -66.8 Q-44.25 -64.6 -44.25 -61.9 -44.25 -59.3 -45.0 -57.2 -45.75 -55.1 -46.95 -54.25 -48.2 -55.85 -49.1 -58.1 -50.05 -60.55 -50.15 -62.5 L-48.3 -64.55 Q-46.2 -66.65 -45.05 -66.8" fill="#000000" fill-rule="evenodd" stroke="none"/>
      <path d="M-46.7 -65.25 Q-45.8 -64.9 -45.25 -63.9 -44.65 -62.85 -44.65 -61.55 -44.65 -60.0 -45.5 -58.85 -46.3 -57.7 -47.5 -57.7 -48.15 -57.7 -48.75 -58.1 -49.6 -60.35 -49.65 -62.15 L-48.75 -63.25 -46.7 -65.25" fill="#972b0f" fill-rule="evenodd" stroke="none"/>
      <path d="M-45.35 -63.4 Q-45.1 -62.8 -45.15 -62.3 -45.2 -61.8 -45.5 -61.7 -45.8 -61.6 -46.15 -61.95 L-46.75 -62.85 -46.9 -63.95 -46.55 -64.55 -45.9 -64.3 Q-45.55 -63.95 -45.35 -63.4" fill="#ffffff" fill-rule="evenodd" stroke="none"/>
      <path d="M-87.4 -62.2 Q-88.25 -61.4 -87.7 -58.45 -87.15 -55.5 -86.0 -54.6 -87.5 -54.25 -88.7 -55.35 -89.8 -56.35 -90.15 -57.95 -90.5 -59.6 -89.85 -60.75 -89.15 -62.1 -87.4 -62.2" fill="#231f20" fill-rule="evenodd" stroke="none"/>
      <path d="M-80.5 -64.55 Q-79.7 -64.4 -78.5 -61.7 -77.3 -58.9 -77.8 -58.05 -78.55 -57.7 -79.5 -58.5 L-81.05 -60.5 Q-81.75 -61.85 -81.65 -62.95 -81.55 -64.15 -80.5 -64.55" fill="#231f20" fill-rule="evenodd" stroke="none"/>
      <path d="M-77.6 -70.65 Q-77.2 -72.0 -75.6 -72.25 -74.15 -72.45 -72.45 -71.75 -70.75 -71.0 -69.95 -69.8 -69.0 -68.35 -69.75 -66.9 -71.2 -68.75 -74.85 -69.4 L-76.9 -69.8 Q-77.75 -70.1 -77.6 -70.65" fill="#231f20" fill-rule="evenodd" stroke="none"/>
      <path d="M-77.0 -70.7 Q-76.65 -71.75 -75.35 -71.9 -74.1 -72.05 -72.7 -71.45 -71.2 -70.85 -70.5 -69.85 -69.7 -68.7 -70.3 -67.55 -71.6 -69.05 -74.65 -69.6 L-76.4 -70.0 Q-77.1 -70.25 -77.0 -70.7" fill="#a87c4f" fill-rule="evenodd" stroke="none"/>
      <path d="M-67.85 -75.8 Q-67.15 -74.55 -67.7 -73.4 -68.25 -74.55 -70.8 -75.6 -73.3 -76.65 -74.15 -76.15 -73.75 -77.6 -72.45 -77.9 -71.3 -78.2 -69.9 -77.55 -68.55 -76.9 -67.85 -75.8" fill="#231f20" fill-rule="evenodd" stroke="none"/>
      <path d="M-88.25 -61.65 Q-88.8 -61.0 -88.35 -58.45 -87.95 -55.95 -87.2 -55.15 -88.15 -54.95 -88.95 -55.9 -89.7 -56.75 -89.95 -58.15 -90.25 -59.55 -89.85 -60.5 -89.4 -61.6 -88.25 -61.65" fill="#a87c4f" fill-rule="evenodd" stroke="none"/>
      <path d="M-80.8 -64.05 Q-80.25 -63.95 -79.25 -61.6 -78.25 -59.25 -78.55 -58.5 -79.1 -58.25 -79.85 -58.95 L-81.05 -60.75 Q-81.55 -61.85 -81.55 -62.75 -81.55 -63.8 -80.8 -64.05" fill="#a87c4f" fill-rule="evenodd" stroke="none"/>
      <path d="M-68.3 -76.0 Q-67.6 -75.1 -68.0 -74.3 -68.6 -75.15 -70.8 -76.05 -73.05 -76.95 -73.75 -76.65 -73.5 -77.65 -72.4 -77.8 L-70.2 -77.35 Q-69.0 -76.85 -68.3 -76.0" fill="#a87c4f" fill-rule="evenodd" stroke="none"/>
      <path d="M-51.55 -64.2 Q-51.7 -63.1 -52.65 -62.9 -51.7 -63.65 -53.15 -67.2 L-54.8 -70.6 Q-51.15 -66.3 -51.55 -64.2" fill="#231f20" fill-rule="evenodd" stroke="none"/>
      <path d="M-94.05 -54.7 Q-93.9 -56.0 -94.6 -57.1 L-95.3 -58.0 -92.0 -58.5 Q-91.4 -55.35 -89.85 -52.75 -87.8 -49.3 -84.4 -47.2 L-84.3 -49.2 Q-84.0 -51.55 -83.05 -53.2 L-82.05 -50.0 Q-80.6 -46.45 -78.4 -44.65 L-75.65 -43.7 Q-72.2 -42.65 -68.6 -42.1 -57.15 -40.4 -48.8 -44.65 L-48.55 -44.2 Q-48.3 -43.55 -48.35 -42.85 -48.4 -40.65 -50.85 -38.45 L-52.75 -37.9 Q-56.65 -36.1 -56.85 -33.45 -57.05 -30.55 -52.4 -27.85 -54.6 -24.05 -58.05 -21.2 -63.6 -16.6 -70.55 -16.25 -69.0 -20.6 -69.2 -24.85 -69.6 -33.5 -78.25 -33.3 -81.35 -33.25 -84.15 -31.35 -86.85 -29.6 -88.55 -26.7 -90.25 -23.7 -90.35 -20.55 -90.45 -17.1 -88.6 -14.25 -86.05 -10.35 -78.2 -9.4 -74.5 -9.0 -67.5 -9.35 -69.5 -8.65 -71.45 -8.3 L-83.45 -7.7 Q-90.6 -8.65 -93.75 -13.3 -95.4 -15.75 -96.3 -19.25 -97.15 -22.75 -97.0 -26.4 -96.7 -34.75 -92.05 -38.95 -90.3 -37.4 -88.65 -36.8 -86.25 -35.95 -82.0 -36.0 -85.15 -36.35 -87.2 -37.35 -89.25 -38.3 -90.5 -40.15 -91.55 -41.6 -92.55 -44.15 -94.5 -49.2 -94.05 -54.7" fill="#eba240" fill-rule="evenodd" stroke="none"/>
      <path d="M-74.95 -37.15 Q-73.25 -39.0 -68.4 -38.9 -63.55 -38.8 -62.45 -36.9 -60.75 -34.1 -59.55 -29.75 -58.0 -24.25 -59.65 -22.6 -64.0 -18.25 -66.45 -16.7 -72.35 -12.95 -77.95 -14.55 -81.1 -15.45 -82.0 -18.3 -82.8 -20.8 -81.85 -24.55 -81.0 -27.85 -79.0 -31.45 -77.1 -34.8 -74.95 -37.15" fill="#3b2314" fill-rule="evenodd" stroke="none"/>
      <path d="M-74.9 -36.3 Q-73.35 -38.0 -68.95 -37.9 -64.55 -37.8 -63.55 -36.1 -62.2 -33.9 -61.35 -30.15 -60.35 -25.7 -61.5 -23.7 -63.35 -20.4 -67.15 -17.85 -72.4 -14.35 -77.6 -15.85 -83.0 -17.35 -81.1 -24.85 -80.35 -27.85 -78.55 -31.15 -76.85 -34.15 -74.9 -36.3" fill="#c71c24" fill-rule="evenodd" stroke="none"/>
      <path d="M-74.9 -36.3 L-74.2 -35.85 -72.25 -34.85 Q-68.9 -33.5 -65.4 -33.9 -64.45 -34.0 -64.1 -33.5 -63.85 -33.05 -64.1 -32.25 -64.4 -31.55 -64.95 -31.05 -65.55 -30.5 -66.1 -30.55 L-71.1 -30.85 Q-74.5 -31.4 -76.55 -33.8 L-74.9 -36.3" fill="#e8deb1" fill-rule="evenodd" stroke="none"/>
      <path d="M-78.65 -30.5 L-77.85 -29.85 Q-76.8 -29.1 -75.45 -28.5 -71.15 -26.55 -65.85 -26.95 -64.75 -27.0 -64.5 -26.5 -64.3 -26.05 -64.75 -25.3 -65.15 -24.6 -65.85 -24.1 -66.65 -23.55 -67.25 -23.6 L-69.5 -23.7 -72.55 -24.0 Q-76.75 -24.85 -79.95 -27.55 L-78.65 -30.5" fill="#e8deb1" fill-rule="evenodd" stroke="none"/>
      <path d="M-78.55 -22.7 Q-75.25 -20.95 -70.85 -21.0 -69.85 -21.05 -69.65 -20.55 -69.5 -20.1 -70.0 -19.45 -71.2 -17.85 -72.85 -17.85 -75.0 -17.85 -77.4 -18.75 -80.05 -19.8 -81.5 -21.45 L-81.0 -24.45 -80.4 -23.9 -78.55 -22.7" fill="#e8deb1" fill-rule="evenodd" stroke="none"/>
      <path d="M-65.85 -53.55 L-67.6 -53.4 -68.25 -54.9 Q-68.7 -56.45 -67.55 -56.8 -66.4 -57.15 -66.0 -55.4 L-65.85 -53.55" fill="#c1b49a" fill-rule="evenodd" stroke="none"/>
      <path d="M-71.0 -52.8 Q-69.1 -54.75 -66.35 -54.75 -63.6 -54.75 -61.65 -52.8 -59.75 -50.9 -59.75 -48.15 -59.75 -45.4 -61.65 -43.45 -63.6 -41.55 -66.35 -41.55 -69.1 -41.55 -71.0 -43.45 -72.95 -45.4 -72.95 -48.15 -72.95 -50.9 -71.0 -52.8" fill="#231f20" fill-rule="evenodd" stroke="none"/>
      <path d="M-70.15 -51.95 Q-68.45 -53.6 -66.1 -53.6 -63.7 -53.6 -62.05 -51.95 -60.35 -50.25 -60.35 -47.9 -60.35 -45.5 -62.05 -43.85 -63.7 -42.15 -66.1 -42.15 -68.45 -42.15 -70.15 -43.85 -71.8 -45.5 -71.8 -47.9 -71.8 -50.25 -70.15 -51.95" fill="#faebb6" fill-rule="evenodd" stroke="none"/>
      <path d="M-64.75 -48.25 Q-63.4 -48.25 -62.45 -47.3 -61.55 -46.35 -61.55 -45.0 L-61.6 -44.3 Q-62.45 -43.3 -63.6 -42.7 -64.75 -42.15 -66.1 -42.15 L-66.2 -42.15 Q-67.0 -42.55 -67.45 -43.3 -67.95 -44.1 -67.95 -45.0 -67.95 -46.35 -67.0 -47.3 -66.1 -48.25 -64.75 -48.25" fill="#000000" fill-rule="evenodd" stroke="none"/>
      <path d="M-63.45 -46.7 Q-63.4 -46.25 -63.8 -45.9 -64.15 -45.55 -64.75 -45.45 L-65.8 -45.65 Q-66.25 -45.95 -66.3 -46.4 L-65.95 -47.2 Q-65.6 -47.55 -65.0 -47.6 L-63.95 -47.45 -63.45 -46.7" fill="#716558" fill-rule="evenodd" stroke="none"/>
      <path d="M-69.9 -52.2 L-69.15 -52.75 -66.8 -51.85 -66.55 -49.6 -65.7 -48.6 -66.85 -49.4 -67.25 -51.5 -69.9 -52.2" fill="#de7251" fill-rule="evenodd" stroke="none"/>
      <path d="M-71.55 -49.65 L-69.85 -48.7 -67.55 -48.25 -69.9 -48.25 -71.7 -49.0 -71.55 -49.65" fill="#de7251" fill-rule="evenodd" stroke="none"/>
      <path d="M-53.85 -52.1 Q-51.65 -53.25 -49.7 -51.85 -48.15 -50.75 -46.95 -48.15 -45.95 -46.0 -45.6 -43.75 -45.25 -41.65 -45.75 -41.65 -46.55 -41.65 -47.5 -40.25 L-48.35 -38.85 Q-48.9 -40.25 -50.1 -39.45 L-51.2 -38.4 Q-52.0 -39.95 -54.0 -37.95 L-55.9 -35.65 Q-56.2 -38.0 -57.85 -37.8 L-58.95 -37.45 -59.4 -37.15 Q-58.95 -40.05 -60.25 -40.25 L-61.2 -40.15 -61.65 -39.9 Q-61.15 -46.0 -57.45 -49.65 -55.6 -51.5 -53.85 -52.1" fill="#975d2b" fill-rule="evenodd" stroke="none"/>
      <path d="M-43.65 -48.7 Q-44.8 -46.45 -46.45 -44.3 -49.75 -40.0 -52.2 -40.55 -57.1 -41.6 -57.1 -46.15 -57.1 -48.65 -50.35 -48.9 L-43.65 -48.7" fill="#603813" fill-rule="evenodd" stroke="none"/>
      <path d="M-44.0 -49.1 Q-45.1 -47.15 -46.65 -45.25 -49.85 -41.45 -52.2 -41.85 -53.95 -42.1 -55.1 -43.25 -56.45 -44.6 -56.6 -47.0 -56.8 -49.35 -50.4 -49.5 L-44.0 -49.1" fill="#d45a21" fill-rule="evenodd" stroke="none"/>
      <path d="M-42.45 -47.7 L-44.95 -48.1 Q-50.5 -48.9 -56.8 -45.2 -57.65 -44.7 -58.05 -45.95 -58.4 -47.15 -58.1 -49.2 -57.8 -51.4 -56.85 -53.3 -55.8 -55.5 -54.2 -56.55 -51.05 -58.65 -46.8 -55.55 -45.05 -54.25 -43.7 -52.45 -42.4 -50.6 -42.05 -48.95 -41.75 -47.7 -42.45 -47.7" fill="#603813" fill-rule="evenodd" stroke="none"/>
      <path d="M-42.9 -48.3 L-45.2 -48.85 Q-50.25 -49.9 -55.65 -46.9 -56.4 -46.45 -56.75 -47.4 -57.05 -48.35 -56.8 -49.9 -56.2 -53.9 -53.55 -55.65 -50.95 -57.45 -47.2 -54.9 -43.75 -52.6 -42.65 -49.35 -42.3 -48.3 -42.9 -48.3" fill="#f05a28" fill-rule="evenodd" stroke="none"/>
      <path d="M-55.9 -49.85 Q-55.35 -48.3 -53.8 -49.55 L-53.5 -49.35 -52.7 -49.2 Q-51.4 -49.25 -50.15 -51.3 L-49.85 -50.45 Q-49.45 -49.5 -48.7 -49.1 -52.05 -48.85 -55.65 -46.9 -56.6 -46.35 -56.85 -47.85 -57.1 -49.3 -56.5 -51.3 L-56.15 -51.7 -55.9 -49.85" fill="#d44023" fill-rule="evenodd" stroke="none"/>
      <path d="M-47.05 -47.4 L-47.85 -46.9 Q-48.55 -46.15 -48.3 -44.8 L-49.0 -44.7 Q-49.65 -44.3 -49.25 -43.0 L-49.85 -42.45 Q-50.55 -41.85 -51.15 -41.8 -52.6 -41.6 -54.2 -42.65 -55.95 -43.8 -56.25 -45.5 -53.65 -46.8 -51.45 -47.45 -47.75 -48.65 -47.05 -47.4" fill="#c24023" fill-rule="evenodd" stroke="none"/>
      <path d="M-83.95 -10.25 Q-78.8 -10.25 -74.35 -8.3 -68.65 -5.85 -68.85 -1.5 -69.0 1.9 -72.05 3.7 -75.65 5.85 -81.65 4.0 -84.05 3.25 -86.95 0.05 L-89.35 -3.0 Q-89.3 -4.8 -88.65 -6.65 -87.25 -10.3 -83.95 -10.25" fill="#603813" fill-rule="evenodd" stroke="none"/>
      <path d="M-83.65 -9.4 Q-79.45 -9.4 -75.7 -8.0 -70.9 -6.2 -70.55 -3.1 -70.3 -0.85 -70.8 0.35 L-72.1 1.9 Q-71.8 0.8 -71.9 -0.5 -72.1 -3.1 -74.3 -4.1 -72.85 -2.75 -72.9 0.0 -72.95 2.15 -73.3 2.55 -73.9 3.15 -75.55 3.35 L-78.6 3.15 -78.1 0.6 Q-77.85 -2.25 -79.75 -3.7 -78.75 -1.95 -79.3 0.6 L-79.8 2.2 -80.1 2.85 Q-82.85 2.6 -85.75 -0.45 L-87.45 -2.5 -88.1 -3.4 Q-88.1 -4.9 -87.55 -6.4 -86.45 -9.4 -83.65 -9.4" fill="#f05a28" fill-rule="evenodd" stroke="none"/>
      <path d="M-85.75 -0.45 L-87.45 -2.55 -88.1 -3.45 -87.95 -5.05 Q-87.6 -6.8 -86.8 -7.9 -85.3 -5.35 -83.75 -3.7 -81.2 -1.15 -79.15 -1.7 -78.95 0.6 -80.1 2.8 -82.85 2.55 -85.75 -0.45" fill="#c24023" fill-rule="evenodd" stroke="none"/>
      <path d="M-73.3 2.5 Q-73.9 3.1 -75.55 3.3 L-78.6 3.1 -78.25 1.65 Q-77.9 -0.15 -78.2 -1.45 L-75.6 -1.05 Q-73.85 -1.05 -73.05 -1.8 -72.65 0.25 -73.3 2.5" fill="#c24023" fill-rule="evenodd" stroke="none"/>
      <path d="M-70.55 -3.15 Q-70.3 -0.9 -70.8 0.3 L-72.1 1.85 -71.9 0.35 Q-71.8 -1.45 -72.55 -2.65 L-72.5 -2.8 -71.75 -2.7 Q-70.95 -2.8 -70.7 -3.8 L-70.55 -3.15" fill="#c24023" fill-rule="evenodd" stroke="none"/>
      <path d="M-86.6 -39.2 L-83.5 -40.4 Q-79.5 -41.6 -75.3 -41.75 -69.4 -41.95 -63.2 -33.6 -61.5 -31.3 -60.25 -27.9 -59.0 -24.6 -58.8 -21.9 -58.55 -19.0 -59.7 -18.15 -60.95 -17.2 -63.65 -19.25 -64.3 -18.25 -65.6 -17.95 -68.2 -17.3 -71.35 -20.5 -72.15 -19.2 -73.7 -18.75 -76.85 -17.85 -80.55 -22.1 -81.3 -22.95 -81.05 -23.9 L-80.2 -25.45 Q-79.55 -26.35 -79.55 -26.7 -79.5 -27.25 -80.6 -27.5 -84.65 -28.5 -85.55 -29.0 -87.05 -29.9 -88.55 -32.6 -90.3 -35.9 -88.65 -37.85 -87.8 -38.85 -86.6 -39.2" fill="#231f20" fill-rule="evenodd" stroke="none"/>
      <path d="M-83.45 -39.35 L-74.85 -40.55 Q-70.45 -40.75 -65.9 -34.05 -64.45 -31.9 -63.25 -29.05 -62.05 -26.15 -61.65 -23.95 -61.25 -21.55 -62.0 -20.85 -62.85 -20.1 -65.1 -21.75 -65.55 -20.7 -66.6 -20.25 -68.6 -19.35 -71.45 -22.2 -72.1 -20.85 -73.4 -20.2 -75.95 -18.95 -79.0 -22.65 -80.1 -24.0 -78.5 -26.1 L-77.7 -27.35 Q-77.6 -27.9 -78.5 -28.1 -82.8 -28.7 -84.5 -29.25 -87.1 -30.15 -88.8 -32.85 -90.6 -35.7 -89.0 -37.35 -88.25 -38.2 -87.05 -38.45 L-83.45 -39.35" fill="#e6d949" fill-rule="evenodd" stroke="none"/>
      <path d="M-71.9 -39.95 Q-70.35 -39.1 -68.65 -37.35 -67.1 -35.8 -65.9 -34.05 -64.45 -31.9 -63.25 -29.05 -62.05 -26.15 -61.65 -23.95 -61.25 -21.55 -62.0 -20.85 -62.85 -20.1 -65.1 -21.75 -65.55 -20.7 -66.6 -20.25 -68.6 -19.35 -71.45 -22.2 -72.1 -20.75 -73.45 -20.1 -76.05 -18.85 -79.2 -23.0 -77.65 -22.35 -76.2 -22.7 -74.55 -23.05 -74.55 -24.65 L-72.45 -24.45 Q-70.35 -24.6 -69.9 -26.25 L-68.75 -25.7 Q-67.5 -25.2 -66.85 -25.35 -64.7 -25.85 -69.6 -32.75 L-70.95 -34.55 -72.4 -36.15 Q-73.15 -36.8 -75.4 -37.15 L-80.3 -37.45 Q-86.85 -37.35 -89.65 -35.35 -89.75 -36.4 -88.8 -37.4 L-87.85 -38.2 -81.15 -39.75 Q-74.0 -41.15 -71.9 -39.95" fill="#eba240" fill-rule="evenodd" stroke="none"/>
    </g>
  </defs>
</svg>
