<?xml version="1.0" encoding="UTF-8" standalone="no"?>
<svg xmlns:ffdec="https://www.free-decompiler.com/flash" xmlns:xlink="http://www.w3.org/1999/xlink" ffdec:objectType="frame" height="91.75px" width="82.45px" xmlns="http://www.w3.org/2000/svg">
  <g transform="matrix(1.0, 0.0, 0.0, 1.0, 117.3, 85.9)">
    <use ffdec:characterId="245" height="90.0" transform="matrix(1.0, 0.0, 0.0, 1.0, -115.75, -84.15)" width="78.8" xlink:href="#shape0"/>
  </g>
  <defs>
    <g id="shape0" transform="matrix(1.0, 0.0, 0.0, 1.0, 115.75, 84.15)">
      <path d="M-45.7 -44.75 Q-42.65 -44.05 -41.2 -43.05 -39.6 -41.85 -40.65 -40.45 L-39.9 -39.9 -38.4 -38.65 Q-36.6 -36.55 -38.75 -35.15 L-38.2 -34.8 -37.3 -33.8 Q-36.3 -32.0 -38.35 -29.75 -40.9 -26.9 -43.75 -26.1 -48.1 -24.9 -54.7 -27.4 -58.95 -28.95 -60.85 -31.25 L-61.75 -32.65 -61.95 -33.2 Q-62.65 -35.4 -62.35 -37.95 -61.8 -43.05 -56.7 -44.75 L-51.7 -45.35 -45.7 -44.75" fill="#231f20" fill-rule="evenodd" stroke="none"/>
      <path d="M-43.15 -42.1 Q-41.95 -41.25 -42.8 -40.05 L-42.0 -39.65 -40.55 -38.6 Q-38.65 -36.85 -40.6 -35.6 L-40.15 -35.1 -39.4 -33.85 Q-38.55 -31.65 -40.4 -29.65 -42.7 -27.1 -45.25 -26.35 -49.2 -25.25 -55.1 -27.45 -58.9 -28.9 -60.4 -30.8 L-61.1 -32.0 -61.15 -32.45 Q-61.5 -34.6 -61.05 -37.0 -60.1 -41.8 -56.0 -42.9 L-46.7 -43.2 Q-44.25 -42.8 -43.15 -42.1" fill="#eba240" fill-rule="evenodd" stroke="none"/>
      <path d="M-53.85 -40.0 Q-57.75 -38.8 -59.0 -35.7 -59.8 -33.6 -59.5 -29.9 -60.55 -30.8 -60.95 -31.7 L-61.15 -32.45 Q-61.5 -34.6 -61.05 -37.0 -60.1 -41.8 -56.0 -42.9 L-46.7 -43.2 Q-44.25 -42.8 -43.15 -42.1 -41.95 -41.25 -42.8 -40.05 L-42.0 -39.65 -40.55 -38.6 Q-38.65 -36.85 -40.6 -35.6 L-40.15 -35.15 -39.4 -33.85 Q-38.55 -31.7 -40.35 -29.7 -40.3 -30.8 -40.7 -31.75 -41.25 -33.15 -42.65 -34.0 -42.6 -34.65 -43.0 -35.45 -43.7 -37.05 -45.65 -37.8 -45.5 -39.0 -46.45 -39.85 -48.35 -41.6 -53.85 -40.0" fill="#cd832b" fill-rule="evenodd" stroke="none"/>
      <path d="M-49.15 -5.3 Q-48.7 -2.3 -51.05 -0.3 -53.9 2.15 -59.45 1.3 -61.7 0.95 -64.9 -1.45 L-67.65 -3.8 Q-67.9 -5.45 -67.6 -7.25 -66.95 -10.8 -64.0 -11.2 -59.55 -11.85 -55.25 -10.65 -49.75 -9.15 -49.15 -5.3" fill="#603813" fill-rule="evenodd" stroke="none"/>
      <path d="M-56.6 -10.1 Q-52.05 -9.2 -51.2 -6.5 -50.55 -4.55 -50.8 -3.45 -50.95 -2.8 -51.7 -1.9 -51.6 -3.05 -51.95 -4.25 -52.75 -6.8 -55.3 -7.2 -53.45 -6.2 -52.8 -3.65 -52.35 -1.65 -52.6 -1.15 -53.05 -0.55 -54.4 -0.15 L-57.15 0.1 Q-57.0 -0.9 -57.2 -2.1 -57.5 -4.5 -59.4 -5.45 -58.3 -4.15 -58.25 -1.95 -58.25 -0.05 -58.55 0.0 -61.0 0.2 -64.05 -2.1 L-65.95 -3.7 -66.65 -4.45 Q-66.95 -5.75 -66.75 -7.15 -66.3 -9.9 -63.85 -10.3 L-56.6 -10.1" fill="#f05a28" fill-rule="evenodd" stroke="none"/>
      <path d="M-57.15 0.05 L-57.15 -1.1 Q-57.15 -2.5 -57.55 -3.5 L-54.8 -3.8 Q-53.15 -4.2 -53.3 -5.0 -52.5 -3.25 -52.65 -1.2 -53.05 -0.6 -54.45 -0.2 L-57.15 0.05" fill="#c24023" fill-rule="evenodd" stroke="none"/>
      <path d="M-52.35 -5.2 Q-51.45 -5.45 -51.05 -5.9 -50.6 -4.3 -50.85 -3.35 L-51.7 -2.0 -51.75 -3.0 Q-51.85 -4.25 -52.35 -5.2" fill="#c24023" fill-rule="evenodd" stroke="none"/>
      <path d="M-66.8 -5.35 L-66.7 -7.35 Q-64.2 -5.6 -62.3 -4.5 -59.3 -2.9 -58.4 -3.3 -58.2 -2.25 -58.3 -1.05 -58.45 -0.05 -58.55 -0.05 -61.0 0.1 -64.1 -2.15 L-65.95 -3.75 -66.7 -4.5 -66.8 -5.35" fill="#c24023" fill-rule="evenodd" stroke="none"/>
      <path d="M-86.3 -13.15 Q-86.25 -10.9 -87.1 -7.6 L-88.65 -2.4 Q-89.2 -0.2 -91.7 1.05 -93.8 2.05 -96.85 2.25 L-101.75 1.9 Q-103.95 1.35 -104.15 0.55 -105.1 1.55 -107.6 1.35 -109.85 1.2 -112.25 0.25 -114.65 -0.7 -115.45 -1.75 -116.35 -2.95 -114.55 -3.6 -111.4 -4.75 -102.2 -13.05 -97.6 -17.2 -93.65 -21.1 -86.4 -19.45 -86.3 -13.15" fill="#231f20" fill-rule="evenodd" stroke="none"/>
      <path d="M-93.8 -19.85 Q-87.5 -18.4 -87.4 -12.75 -87.35 -10.8 -88.1 -7.85 L-89.45 -3.2 Q-90.25 -0.05 -95.1 0.55 -99.25 1.1 -102.35 -0.15 -102.55 -0.2 -99.95 -3.8 L-97.5 -7.45 -100.6 -4.3 -103.6 -1.1 Q-104.4 -0.2 -106.5 -0.15 -108.3 -0.1 -110.25 -0.7 -112.2 -1.25 -112.8 -2.0 -113.5 -2.8 -111.95 -3.4 -109.2 -4.45 -101.25 -12.25 -97.25 -16.15 -93.8 -19.85" fill="#e6d949" fill-rule="evenodd" stroke="none"/>
      <path d="M-87.7 -9.8 L-88.5 -6.35 -89.45 -3.2 Q-90.25 -0.05 -95.1 0.55 -99.25 1.1 -102.35 -0.15 -102.55 -0.2 -99.95 -3.8 L-97.5 -7.45 -100.6 -4.3 -103.6 -1.1 Q-104.4 -0.2 -106.5 -0.15 -108.3 -0.1 -110.25 -0.7 -112.2 -1.25 -112.8 -2.0 -113.5 -2.8 -111.95 -3.4 -110.65 -3.85 -108.25 -5.85 -107.3 -4.7 -105.75 -4.4 -104.0 -4.05 -102.45 -5.1 -98.65 -7.75 -95.5 -12.05 -93.95 -14.2 -93.15 -15.8 L-91.15 -13.15 -95.35 -8.3 Q-99.25 -3.3 -97.7 -2.75 L-93.3 -2.65 Q-90.35 -3.95 -87.7 -9.8" fill="#eba240" fill-rule="evenodd" stroke="none"/>
      <path d="M-48.05 -75.95 L-46.3 -74.45 Q-44.3 -72.35 -42.85 -69.65 -38.25 -61.0 -41.15 -49.2 -39.95 -42.25 -42.35 -39.0 -43.9 -36.9 -47.35 -36.3 -48.7 -34.2 -49.0 -30.75 -49.35 -27.35 -48.35 -26.95 -46.1 -26.1 -47.2 -22.8 -48.25 -19.65 -51.8 -15.8 -55.55 -11.7 -60.35 -8.85 -65.75 -5.6 -70.95 -4.9 -78.85 -3.8 -84.25 -5.15 -90.6 -6.75 -94.2 -11.9 -96.1 -14.65 -97.2 -18.5 -98.3 -22.4 -98.15 -26.3 -98.05 -30.5 -96.6 -33.75 -94.95 -37.3 -91.9 -39.15 -93.1 -40.65 -94.15 -43.25 -96.1 -48.45 -94.9 -53.9 -94.6 -55.2 -95.6 -56.1 L-96.7 -56.7 -95.45 -58.5 Q-93.95 -60.45 -92.85 -61.25 -91.85 -68.65 -86.65 -71.6 L-87.75 -72.0 -89.85 -71.75 -89.25 -72.9 -87.0 -75.55 Q-82.45 -79.6 -73.8 -81.25 L-69.65 -84.15 -68.8 -83.6 Q-67.8 -83.1 -66.95 -83.1 -62.6 -83.1 -56.85 -82.1 -46.9 -80.3 -42.5 -76.3 L-44.85 -76.6 Q-47.35 -76.8 -48.05 -75.95" fill="#231f20" fill-rule="evenodd" stroke="none"/>
      <path d="M-69.1 -76.15 Q-69.35 -68.4 -73.3 -63.0 -77.3 -57.55 -86.3 -56.75 -89.15 -56.5 -92.1 -56.7 L-94.5 -57.0 -93.5 -59.15 Q-92.2 -61.45 -90.85 -61.75 L-87.9 -62.5 Q-85.3 -63.3 -83.1 -64.8 -76.5 -69.35 -74.2 -79.55 L-69.7 -82.8 Q-69.0 -80.05 -69.1 -76.15" fill="#3b2314" fill-rule="evenodd" stroke="none"/>
      <path d="M-45.35 -40.9 L-46.45 -39.55 -48.7 -35.85 Q-51.6 -29.7 -49.5 -24.25 -52.0 -25.25 -54.25 -27.1 -58.85 -30.75 -57.9 -35.15 -56.95 -39.55 -51.05 -40.65 L-45.35 -40.9" fill="#3b2314" fill-rule="evenodd" stroke="none"/>
      <path d="M-50.95 -36.2 L-48.5 -37.05 -49.0 -36.25 -50.2 -34.2 Q-51.75 -30.7 -51.1 -27.75 -52.3 -28.35 -53.3 -29.3 -55.3 -31.25 -54.5 -33.0 -53.55 -35.0 -50.95 -36.2" fill="#c71c24" fill-rule="evenodd" stroke="none"/>
      <path d="M-71.4 -75.85 Q-72.1 -70.25 -75.7 -65.25 -78.85 -60.85 -85.7 -59.55 L-90.05 -59.1 -91.9 -59.1 Q-92.05 -61.2 -91.2 -63.9 -89.5 -69.3 -84.5 -72.25 -84.9 -72.6 -85.5 -72.8 -86.7 -73.25 -87.5 -72.8 L-86.65 -73.7 -83.9 -75.85 Q-78.8 -79.2 -71.45 -80.45 -71.05 -78.65 -71.4 -75.85" fill="#fae174" fill-rule="evenodd" stroke="none"/>
      <path d="M-45.5 -70.35 Q-40.7 -61.4 -42.35 -49.2 -41.95 -40.45 -45.45 -38.55 -46.45 -37.95 -48.7 -37.65 L-52.0 -36.9 Q-56.35 -34.85 -56.05 -31.85 -55.7 -28.5 -49.1 -25.6 -47.8 -25.05 -49.1 -22.45 -50.4 -19.85 -53.55 -16.8 -56.95 -13.4 -61.15 -10.95 -65.95 -8.15 -70.7 -7.3 -87.55 -4.25 -93.0 -12.3 -94.65 -14.75 -95.5 -18.25 -96.35 -21.75 -96.25 -25.4 -95.95 -33.75 -91.3 -37.95 -89.85 -36.45 -87.7 -35.75 -85.1 -34.85 -81.2 -35.0 -84.7 -35.5 -86.6 -36.4 -88.45 -37.3 -89.75 -39.15 -90.8 -40.6 -91.8 -43.15 -93.75 -48.2 -93.25 -53.7 -93.15 -55.0 -93.8 -56.1 L-94.5 -57.0 -86.7 -58.4 Q-78.5 -60.2 -76.45 -62.25 -73.35 -65.3 -71.8 -70.25 -70.25 -75.0 -69.7 -82.8 L-68.9 -82.3 Q-67.95 -81.8 -67.15 -81.8 L-58.2 -81.2 Q-49.5 -80.1 -45.85 -77.55 L-47.85 -77.65 Q-50.0 -77.6 -50.6 -76.8 L-48.95 -75.25 Q-47.0 -73.1 -45.5 -70.35" fill="#e6d949" fill-rule="evenodd" stroke="none"/>
      <path d="M-42.2 -54.35 Q-42.65 -51.85 -43.8 -51.7 -44.8 -51.6 -46.15 -53.25 -47.35 -54.75 -48.3 -57.1 -49.25 -59.5 -49.35 -61.5 L-47.25 -63.8 Q-44.95 -66.05 -43.85 -65.75 L-43.45 -64.8 -42.65 -62.3 Q-41.6 -58.1 -42.2 -54.35" fill="#231f20" fill-rule="evenodd" stroke="none"/>
      <path d="M-56.6 -58.45 Q-58.3 -53.2 -62.4 -51.9 -67.2 -50.4 -70.65 -53.6 -73.5 -56.25 -73.95 -60.0 L-70.15 -63.55 Q-66.05 -67.05 -64.3 -66.7 -62.6 -66.4 -58.95 -64.95 L-55.7 -63.5 -55.8 -62.0 Q-56.05 -60.1 -56.6 -58.45" fill="#231f20" fill-rule="evenodd" stroke="none"/>
      <path d="M-64.65 -62.35 Q-62.75 -62.4 -60.25 -60.4 -57.8 -58.4 -57.4 -56.45 -58.25 -55.05 -59.5 -53.8 -61.05 -52.35 -62.4 -51.9 L-65.95 -51.7 -68.9 -52.65 -71.3 -54.7 -72.45 -55.95 Q-70.25 -59.25 -68.55 -60.7 -66.65 -62.25 -64.65 -62.35" fill="#141414" fill-rule="evenodd" stroke="none"/>
      <path d="M-63.65 -54.45 L-65.6 -54.35 -67.4 -54.7 Q-67.65 -55.4 -67.0 -56.95 -66.2 -58.8 -64.6 -59.5 -63.8 -59.8 -62.8 -58.9 -61.75 -57.95 -61.65 -56.45 -61.6 -55.6 -62.4 -55.05 L-63.65 -54.45" fill="#000000" fill-rule="evenodd" stroke="none"/>
      <path d="M-44.25 -65.8 Q-43.45 -63.6 -43.45 -60.9 -43.45 -58.3 -44.25 -56.2 -44.95 -54.1 -46.15 -53.25 -47.4 -54.85 -48.3 -57.1 -49.25 -59.55 -49.35 -61.5 L-47.5 -63.55 Q-45.45 -65.65 -44.25 -65.8" fill="#000000" fill-rule="evenodd" stroke="none"/>
      <path d="M-45.95 -64.25 Q-45.05 -63.9 -44.45 -62.9 -43.9 -61.85 -43.9 -60.55 -43.9 -59.0 -44.7 -57.85 -45.55 -56.7 -46.75 -56.7 -47.35 -56.7 -48.0 -57.1 -48.85 -59.35 -48.9 -61.15 L-48.0 -62.25 -45.95 -64.25" fill="#972b0f" fill-rule="evenodd" stroke="none"/>
      <path d="M-44.55 -62.4 L-44.4 -61.3 Q-44.45 -60.8 -44.75 -60.7 -45.05 -60.6 -45.4 -60.95 L-45.95 -61.85 -46.1 -62.95 -45.8 -63.55 -45.15 -63.3 -44.55 -62.4" fill="#ffffff" fill-rule="evenodd" stroke="none"/>
      <path d="M-86.65 -61.2 Q-87.5 -60.4 -86.95 -57.45 -86.4 -54.5 -85.2 -53.6 -86.7 -53.25 -87.95 -54.35 -89.05 -55.35 -89.4 -56.95 -89.75 -58.6 -89.1 -59.75 -88.35 -61.1 -86.65 -61.2" fill="#231f20" fill-rule="evenodd" stroke="none"/>
      <path d="M-79.75 -63.55 Q-78.9 -63.4 -77.75 -60.7 -76.5 -57.9 -77.05 -57.05 -77.8 -56.7 -78.75 -57.5 -79.65 -58.25 -80.3 -59.5 -80.95 -60.85 -80.9 -61.95 -80.8 -63.15 -79.75 -63.55" fill="#231f20" fill-rule="evenodd" stroke="none"/>
      <path d="M-76.8 -69.65 Q-76.45 -71.0 -74.85 -71.25 -73.4 -71.45 -71.7 -70.75 -70.0 -70.0 -69.15 -68.8 -68.25 -67.35 -68.95 -65.9 -70.45 -67.75 -74.1 -68.4 L-76.15 -68.8 Q-76.95 -69.1 -76.8 -69.65" fill="#231f20" fill-rule="evenodd" stroke="none"/>
      <path d="M-76.2 -69.7 Q-75.9 -70.75 -74.55 -70.9 -73.35 -71.05 -71.95 -70.45 -70.45 -69.85 -69.75 -68.85 -68.95 -67.7 -69.5 -66.55 -70.8 -68.05 -73.9 -68.6 L-75.65 -69.0 Q-76.35 -69.25 -76.2 -69.7" fill="#a87c4f" fill-rule="evenodd" stroke="none"/>
      <path d="M-67.1 -74.8 Q-66.35 -73.55 -66.9 -72.4 -67.5 -73.55 -70.0 -74.6 -72.5 -75.65 -73.4 -75.15 -73.0 -76.6 -71.7 -76.9 -70.55 -77.2 -69.15 -76.55 -67.8 -75.9 -67.1 -74.8" fill="#231f20" fill-rule="evenodd" stroke="none"/>
      <path d="M-87.5 -60.65 Q-88.05 -60.0 -87.6 -57.45 -87.2 -54.95 -86.4 -54.15 -87.4 -53.95 -88.2 -54.9 -88.9 -55.75 -89.2 -57.15 -89.45 -58.55 -89.1 -59.5 -88.65 -60.6 -87.5 -60.65" fill="#a87c4f" fill-rule="evenodd" stroke="none"/>
      <path d="M-80.05 -63.05 Q-79.45 -62.95 -78.5 -60.6 -77.45 -58.2 -77.8 -57.5 -78.3 -57.25 -79.05 -57.95 -79.75 -58.65 -80.25 -59.75 -80.8 -60.85 -80.8 -61.75 -80.8 -62.8 -80.05 -63.05" fill="#a87c4f" fill-rule="evenodd" stroke="none"/>
      <path d="M-67.55 -75.0 Q-66.85 -74.1 -67.25 -73.3 -67.8 -74.15 -70.05 -75.05 -72.3 -75.95 -73.0 -75.65 -72.75 -76.65 -71.65 -76.8 L-69.45 -76.35 Q-68.2 -75.85 -67.55 -75.0" fill="#a87c4f" fill-rule="evenodd" stroke="none"/>
      <path d="M-50.75 -63.2 Q-50.95 -62.1 -51.85 -61.9 -50.95 -62.65 -52.4 -66.2 L-54.05 -69.6 Q-50.4 -65.3 -50.75 -63.2" fill="#231f20" fill-rule="evenodd" stroke="none"/>
      <path d="M-48.05 -43.65 L-47.8 -43.2 Q-47.55 -42.55 -47.6 -41.85 -47.65 -39.65 -50.1 -37.45 L-52.0 -36.9 Q-55.85 -35.1 -56.05 -32.45 -56.3 -29.55 -51.6 -26.85 -53.85 -23.05 -57.3 -20.2 -62.85 -15.6 -69.75 -15.25 -68.2 -19.6 -68.4 -23.85 -68.8 -32.5 -77.45 -32.3 -80.55 -32.25 -83.4 -30.35 -86.1 -28.6 -87.8 -25.7 -89.5 -22.7 -89.6 -19.55 -89.7 -16.1 -87.85 -13.25 -85.3 -9.35 -77.4 -8.4 -73.75 -8.0 -66.75 -8.35 -68.7 -7.65 -70.7 -7.3 -87.55 -4.25 -93.0 -12.3 -94.65 -14.75 -95.5 -18.25 -96.35 -21.75 -96.25 -25.4 -95.95 -33.75 -91.3 -37.95 -89.55 -36.4 -87.9 -35.8 -85.5 -34.95 -81.2 -35.0 -84.4 -35.35 -86.4 -36.35 -88.5 -37.3 -89.75 -39.15 -90.8 -40.6 -91.8 -43.15 -93.75 -48.2 -93.25 -53.7 -93.15 -55.0 -93.8 -56.1 L-94.5 -57.0 -91.25 -57.5 Q-90.6 -54.35 -89.1 -51.75 -87.05 -48.3 -83.65 -46.2 L-83.55 -48.2 Q-83.25 -50.55 -82.3 -52.2 L-81.25 -49.0 Q-79.8 -45.45 -77.6 -43.65 L-74.9 -42.7 Q-71.4 -41.65 -67.85 -41.1 -56.4 -39.4 -48.05 -43.65" fill="#eba240" fill-rule="evenodd" stroke="none"/>
      <path d="M-58.9 -21.6 Q-63.2 -17.25 -65.7 -15.7 -71.6 -11.95 -77.2 -13.55 -80.3 -14.45 -81.2 -17.3 -82.0 -19.8 -81.05 -23.55 -80.2 -26.85 -78.25 -30.45 -76.35 -33.8 -74.2 -36.15 -72.5 -38.0 -67.65 -37.9 -62.8 -37.8 -61.65 -35.9 -59.95 -33.1 -58.75 -28.75 -57.25 -23.25 -58.9 -21.6" fill="#3b2314" fill-rule="evenodd" stroke="none"/>
      <path d="M-60.75 -22.7 Q-62.55 -19.4 -66.4 -16.85 -71.65 -13.35 -76.85 -14.85 -82.25 -16.35 -80.35 -23.85 -79.6 -26.9 -77.8 -30.15 -76.1 -33.15 -74.1 -35.3 -72.6 -37.0 -68.2 -36.9 -63.8 -36.8 -62.75 -35.1 -61.45 -32.85 -60.6 -29.15 -59.6 -24.7 -60.75 -22.7" fill="#c71c24" fill-rule="evenodd" stroke="none"/>
      <path d="M-65.3 -29.55 L-70.3 -29.85 Q-73.75 -30.4 -75.8 -32.8 L-74.1 -35.3 -73.4 -34.85 -71.45 -33.85 Q-68.1 -32.5 -64.65 -32.9 -63.65 -33.0 -63.35 -32.5 -63.1 -32.05 -63.35 -31.25 -63.6 -30.55 -64.2 -30.05 -64.8 -29.5 -65.3 -29.55" fill="#e8deb1" fill-rule="evenodd" stroke="none"/>
      <path d="M-66.5 -22.6 L-68.7 -22.7 -71.8 -23.0 Q-75.95 -23.85 -79.2 -26.55 L-77.9 -29.5 -77.1 -28.85 -74.7 -27.5 Q-70.4 -25.55 -65.1 -25.95 -64.0 -26.0 -63.75 -25.5 -63.55 -25.05 -63.95 -24.3 L-65.1 -23.1 Q-65.85 -22.55 -66.5 -22.6" fill="#e8deb1" fill-rule="evenodd" stroke="none"/>
      <path d="M-77.8 -21.7 Q-74.5 -19.95 -70.1 -20.0 -69.05 -20.05 -68.85 -19.55 -68.7 -19.1 -69.2 -18.45 -70.45 -16.85 -72.1 -16.85 -74.25 -16.85 -76.6 -17.75 -79.3 -18.8 -80.7 -20.45 L-80.2 -23.45 -79.6 -22.9 -77.8 -21.7" fill="#e8deb1" fill-rule="evenodd" stroke="none"/>
      <path d="M-65.1 -52.55 L-66.85 -52.4 -67.5 -53.9 Q-67.9 -55.45 -66.75 -55.8 -65.6 -56.15 -65.25 -54.4 L-65.1 -52.55" fill="#c1b49a" fill-rule="evenodd" stroke="none"/>
      <path d="M-59.0 -47.15 Q-59.0 -44.4 -60.9 -42.45 -62.85 -40.55 -65.6 -40.55 -68.3 -40.55 -70.25 -42.45 -72.2 -44.4 -72.2 -47.15 -72.2 -49.9 -70.25 -51.8 -68.3 -53.75 -65.6 -53.75 -62.85 -53.75 -60.9 -51.8 -59.0 -49.9 -59.0 -47.15" fill="#231f20" fill-rule="evenodd" stroke="none"/>
      <path d="M-59.6 -46.9 Q-59.6 -44.5 -61.3 -42.85 -62.95 -41.15 -65.3 -41.15 -67.7 -41.15 -69.35 -42.85 -71.05 -44.5 -71.05 -46.9 -71.05 -49.25 -69.35 -50.95 -67.7 -52.6 -65.3 -52.6 -62.95 -52.6 -61.3 -50.95 -59.6 -49.25 -59.6 -46.9" fill="#faebb6" fill-rule="evenodd" stroke="none"/>
      <path d="M-66.25 -46.3 Q-65.3 -47.25 -64.0 -47.25 -62.65 -47.25 -61.7 -46.3 -60.75 -45.35 -60.75 -44.0 L-60.85 -43.3 Q-61.65 -42.3 -62.8 -41.7 -64.0 -41.15 -65.3 -41.15 L-65.4 -41.15 Q-66.2 -41.55 -66.7 -42.3 -67.2 -43.1 -67.2 -44.0 -67.2 -45.35 -66.25 -46.3" fill="#000000" fill-rule="evenodd" stroke="none"/>
      <path d="M-62.7 -45.7 Q-62.65 -45.25 -63.05 -44.9 -63.4 -44.55 -64.0 -44.45 L-65.0 -44.65 Q-65.45 -44.95 -65.55 -45.4 L-65.2 -46.2 -64.25 -46.6 -63.2 -46.45 Q-62.75 -46.15 -62.7 -45.7" fill="#716558" fill-rule="evenodd" stroke="none"/>
      <path d="M-68.4 -51.75 L-66.05 -50.85 -65.75 -48.6 -64.9 -47.6 -66.05 -48.4 -66.5 -50.5 -69.15 -51.2 -68.4 -51.75" fill="#de7251" fill-rule="evenodd" stroke="none"/>
      <path d="M-70.8 -48.65 L-69.1 -47.7 -66.75 -47.25 -69.1 -47.25 -70.95 -48.0 -70.8 -48.65" fill="#de7251" fill-rule="evenodd" stroke="none"/>
      <path d="M-48.95 -50.85 Q-47.35 -49.75 -46.15 -47.15 -45.15 -45.0 -44.8 -42.75 -44.45 -40.65 -44.95 -40.65 -45.75 -40.65 -46.75 -39.25 L-47.6 -37.85 Q-48.1 -39.25 -49.35 -38.45 L-50.45 -37.4 Q-51.2 -38.95 -53.25 -36.95 L-55.1 -34.65 Q-55.4 -37.0 -57.05 -36.8 L-58.15 -36.45 -58.65 -36.15 Q-58.15 -39.05 -59.5 -39.25 L-60.45 -39.15 -60.9 -38.9 Q-60.35 -45.0 -56.65 -48.65 -54.8 -50.5 -53.1 -51.1 -50.85 -52.25 -48.95 -50.85" fill="#975d2b" fill-rule="evenodd" stroke="none"/>
      <path d="M-42.85 -47.7 Q-44.0 -45.45 -45.7 -43.3 -49.0 -39.0 -51.45 -39.55 -56.35 -40.6 -56.35 -45.15 -56.35 -47.65 -49.6 -47.9 L-42.85 -47.7" fill="#603813" fill-rule="evenodd" stroke="none"/>
      <path d="M-43.2 -48.1 L-45.9 -44.25 Q-49.05 -40.45 -51.45 -40.85 -53.2 -41.1 -54.3 -42.25 -55.65 -43.6 -55.85 -46.0 -56.0 -48.35 -49.65 -48.5 L-43.2 -48.1" fill="#d45a21" fill-rule="evenodd" stroke="none"/>
      <path d="M-46.0 -54.55 Q-44.25 -53.25 -42.95 -51.45 -41.6 -49.6 -41.25 -47.95 -40.95 -46.7 -41.65 -46.7 L-44.15 -47.1 Q-49.75 -47.9 -56.05 -44.2 -56.9 -43.7 -57.25 -44.95 -57.6 -46.15 -57.3 -48.2 -57.0 -50.4 -56.1 -52.3 -55.05 -54.5 -53.45 -55.55 -50.3 -57.65 -46.0 -54.55" fill="#603813" fill-rule="evenodd" stroke="none"/>
      <path d="M-46.4 -53.9 Q-42.95 -51.6 -41.85 -48.35 -41.5 -47.3 -42.1 -47.3 L-44.4 -47.85 Q-49.45 -48.9 -54.85 -45.9 -55.65 -45.45 -56.0 -46.4 -56.3 -47.3 -56.05 -48.9 -55.4 -52.9 -52.8 -54.65 -50.2 -56.45 -46.4 -53.9" fill="#f05a28" fill-rule="evenodd" stroke="none"/>
      <path d="M-55.4 -50.7 L-55.15 -48.85 Q-54.55 -47.3 -53.05 -48.55 L-52.75 -48.35 -51.95 -48.2 Q-50.6 -48.25 -49.35 -50.3 L-49.1 -49.45 Q-48.65 -48.5 -47.95 -48.1 -51.3 -47.85 -54.85 -45.9 -55.8 -45.35 -56.05 -46.85 -56.3 -48.3 -55.7 -50.3 L-55.4 -50.7" fill="#d44023" fill-rule="evenodd" stroke="none"/>
      <path d="M-46.3 -46.4 L-47.05 -45.9 Q-47.8 -45.15 -47.55 -43.8 L-48.25 -43.7 Q-48.9 -43.3 -48.45 -42.0 L-49.05 -41.45 Q-49.8 -40.85 -50.35 -40.8 -51.85 -40.6 -53.45 -41.65 -55.2 -42.8 -55.45 -44.5 L-50.7 -46.45 Q-47.0 -47.65 -46.3 -46.4" fill="#c24023" fill-rule="evenodd" stroke="none"/>
      <path d="M-83.2 -9.25 Q-78.05 -9.25 -73.6 -7.3 -67.85 -4.85 -68.1 -0.5 -68.25 2.9 -71.3 4.7 -74.9 6.85 -80.9 5.0 -83.3 4.25 -86.15 1.05 L-88.6 -2.0 Q-88.55 -3.8 -87.9 -5.65 -86.5 -9.3 -83.2 -9.25" fill="#603813" fill-rule="evenodd" stroke="none"/>
      <path d="M-82.9 -8.4 Q-78.7 -8.4 -74.95 -7.0 -70.15 -5.2 -69.8 -2.1 -69.5 0.15 -70.05 1.35 -70.35 2.05 -71.35 2.9 -71.05 1.8 -71.15 0.5 -71.35 -2.1 -73.55 -3.1 -72.1 -1.75 -72.15 1.0 -72.2 3.1 -72.55 3.55 -73.15 4.15 -74.8 4.35 L-77.85 4.15 Q-77.45 3.0 -77.35 1.6 -77.05 -1.25 -78.95 -2.7 -78.0 -0.95 -78.55 1.6 L-79.05 3.2 -79.35 3.85 Q-82.1 3.6 -85.0 0.55 L-86.7 -1.5 -87.35 -2.4 Q-87.35 -3.9 -86.8 -5.4 -85.7 -8.4 -82.9 -8.4" fill="#f05a28" fill-rule="evenodd" stroke="none"/>
      <path d="M-85.0 0.55 L-86.7 -1.55 -87.35 -2.45 -87.15 -4.05 Q-86.85 -5.8 -86.05 -6.9 -84.55 -4.35 -82.95 -2.7 -80.45 -0.15 -78.35 -0.7 -78.2 1.6 -79.35 3.8 -82.1 3.55 -85.0 0.55" fill="#c24023" fill-rule="evenodd" stroke="none"/>
      <path d="M-72.55 3.5 Q-73.15 4.1 -74.8 4.3 L-77.85 4.1 -77.5 2.65 Q-77.1 0.9 -77.45 -0.45 L-74.8 -0.05 Q-73.1 -0.05 -72.3 -0.8 -71.9 1.25 -72.55 3.5" fill="#c24023" fill-rule="evenodd" stroke="none"/>
      <path d="M-69.8 -2.15 Q-69.5 0.1 -70.05 1.3 -70.35 2.0 -71.35 2.85 L-71.15 1.35 Q-71.05 -0.45 -71.8 -1.65 L-71.75 -1.8 -70.95 -1.7 Q-70.15 -1.8 -69.9 -2.8 L-69.8 -2.15" fill="#c24023" fill-rule="evenodd" stroke="none"/>
      <path d="M-103.1 -39.4 L-100.7 -41.05 Q-101.6 -42.5 -99.85 -43.6 -98.35 -44.5 -95.2 -44.9 L-89.2 -45.1 Q-86.0 -44.85 -84.25 -44.1 -79.35 -42.0 -79.3 -36.9 -79.3 -34.35 -80.3 -32.2 -80.45 -31.4 -81.55 -30.35 -83.7 -28.25 -88.05 -26.95 -94.9 -25.0 -99.1 -26.5 -101.85 -27.55 -104.1 -30.55 -105.95 -33.0 -104.7 -34.7 -104.1 -35.55 -103.15 -35.9 -105.15 -37.5 -103.1 -39.4" fill="#231f20" fill-rule="evenodd" stroke="none"/>
      <path d="M-101.0 -39.2 Q-99.95 -40.0 -98.6 -40.5 -99.3 -41.75 -98.0 -42.5 -96.85 -43.15 -94.35 -43.3 -92.05 -43.5 -89.45 -43.2 L-85.15 -42.35 Q-81.15 -40.95 -80.75 -36.05 -80.5 -33.65 -81.1 -31.5 -81.2 -30.85 -82.05 -29.95 -83.75 -28.15 -87.7 -27.0 -93.8 -25.25 -97.55 -26.65 -100.05 -27.55 -102.1 -30.25 -103.7 -32.45 -102.65 -34.55 L-101.75 -35.75 -101.25 -36.2 Q-103.05 -37.6 -101.0 -39.2" fill="#e6d949" fill-rule="evenodd" stroke="none"/>
      <path d="M-94.95 -40.05 Q-95.6 -39.55 -95.85 -38.75 L-95.95 -38.05 Q-98.0 -37.4 -98.9 -35.9 L-99.3 -34.9 -99.4 -34.5 Q-100.85 -33.7 -101.55 -32.4 -102.05 -31.45 -102.15 -30.35 -103.7 -32.5 -102.6 -34.55 L-101.75 -35.75 -101.25 -36.2 Q-103.05 -37.6 -101.0 -39.2 -99.95 -40.0 -98.6 -40.5 -99.3 -41.75 -98.0 -42.5 -96.85 -43.15 -94.35 -43.3 -92.05 -43.5 -89.45 -43.2 L-85.15 -42.35 Q-81.15 -40.95 -80.75 -36.05 -80.5 -33.65 -81.1 -31.5 L-81.4 -30.8 Q-81.9 -29.9 -83.05 -29.1 -82.35 -32.75 -82.95 -34.9 -83.85 -38.15 -87.6 -39.6 -92.9 -41.6 -94.95 -40.05" fill="#eba240" fill-rule="evenodd" stroke="none"/>
    </g>
  </defs>
</svg>
