<?xml version="1.0" encoding="UTF-8" standalone="no"?>
<svg xmlns:ffdec="https://www.free-decompiler.com/flash" xmlns:xlink="http://www.w3.org/1999/xlink" ffdec:objectType="frame" height="93.4px" width="81.6px" xmlns="http://www.w3.org/2000/svg">
  <g transform="matrix(1.0, 0.0, 0.0, 1.0, 45.6, 54.4)">
    <use ffdec:characterId="671" height="93.1" transform="matrix(1.0, 0.0, 0.0, 1.0, -45.6, -54.4)" width="81.45" xlink:href="#shape0"/>
  </g>
  <defs>
    <g id="shape0" transform="matrix(1.0, 0.0, 0.0, 1.0, 45.6, 54.4)">
      <path d="M-10.35 -53.0 Q-9.4 -50.6 -7.45 -47.65 -6.45 -46.1 -2.9 -42.75 0.2 -39.85 0.3 -39.2 L0.9 -28.25 Q0.95 -27.1 -0.6 -27.4 -1.2 -27.55 -1.6 -28.95 L-2.15 -31.2 Q-3.05 -34.95 -4.2 -36.75 L-6.85 -39.75 Q-9.35 -42.45 -10.65 -48.6 -11.9 -54.3 -11.1 -54.4 -10.9 -54.45 -10.35 -53.0" fill="#a3989e" fill-rule="evenodd" stroke="none"/>
      <path d="M-9.35 -30.65 L-0.9 -30.1 Q16.65 -33.1 22.95 -23.2 26.1 -18.3 25.75 -12.75 25.55 -5.7 23.35 -2.55 22.2 -0.8 20.05 1.35 19.1 3.25 18.9 9.15 17.9 16.15 12.45 24.15 4.55 35.7 -11.4 36.55 -19.4 37.0 -25.8 35.1 -25.45 37.05 -28.15 37.9 L-32.6 38.7 Q-34.05 38.9 -35.0 37.25 L-35.65 35.5 -37.95 36.2 Q-40.5 35.7 -43.45 32.25 -46.35 28.85 -45.35 27.9 L-43.75 25.8 -43.05 24.65 Q-51.35 -15.9 -26.95 -27.05 -19.35 -30.55 -9.35 -30.65" fill="#261308" fill-rule="evenodd" stroke="none"/>
      <path d="M-8.95 -29.1 L-1.0 -28.6 Q15.55 -31.4 21.45 -22.3 24.4 -17.75 24.0 -12.65 23.8 -6.05 21.6 -3.3 L18.3 0.1 Q17.4 1.85 17.2 7.6 16.25 14.35 11.1 21.9 3.05 33.7 -13.0 34.3 -21.0 34.65 -27.45 32.6 -27.1 34.5 -28.35 35.3 -29.1 35.8 -31.3 36.15 -32.65 36.35 -33.55 34.75 L-34.15 33.1 -36.3 33.8 Q-38.8 33.3 -41.3 30.55 -43.8 27.85 -42.85 26.9 -42.15 26.2 -41.5 24.8 L-41.0 23.55 Q-48.45 -14.9 -25.5 -25.6 -18.3 -28.95 -8.95 -29.1" fill="#843b0c" fill-rule="evenodd" stroke="none"/>
      <path d="M8.65 -9.65 Q14.0 -7.25 20.1 -1.85 L18.3 0.1 Q17.4 1.85 17.2 7.6 16.25 14.35 11.1 21.9 3.05 33.7 -13.0 34.3 -21.0 34.65 -27.45 32.6 -27.1 34.5 -28.35 35.3 -29.1 35.8 -31.3 36.15 -32.65 36.35 -33.55 34.75 L-34.15 33.1 -36.3 33.8 Q-38.8 33.3 -41.3 30.55 -43.8 27.85 -42.85 26.9 -42.15 26.2 -41.5 24.8 L-41.0 23.55 Q-41.55 18.4 -41.25 16.0 L-40.2 11.6 Q-39.0 18.7 -34.8 20.65 -33.4 21.3 -32.3 21.1 -31.2 20.95 -31.75 20.45 -33.0 19.25 -33.8 16.5 L-34.4 14.0 Q-32.45 18.4 -26.95 19.35 -22.25 20.15 -16.2 18.35 -10.6 16.6 -6.95 13.65 -3.15 10.6 -4.05 8.1 -7.4 2.75 -8.75 -0.75 -11.05 -7.05 -7.45 -15.55 L-7.85 -13.05 Q-8.15 -10.2 -7.85 -8.4 -6.9 -2.65 -0.15 -9.65 2.5 -12.35 8.65 -9.65" fill="#532101" fill-rule="evenodd" stroke="none"/>
      <path d="M-10.95 -5.35 Q-10.05 -3.6 -6.6 1.25 -3.95 6.0 -5.8 9.75 -7.85 13.8 -16.25 14.05 -24.15 14.3 -25.7 12.15 -26.75 10.7 -23.15 8.2 L-19.4 5.95 -18.0 5.6 -19.3 5.1 Q-19.9 4.7 -20.55 -1.6 L-19.3 -3.2 Q-19.85 1.45 -17.7 4.3 -16.7 5.6 -15.6 6.15 -16.6 5.85 -21.1 7.8 -25.9 9.85 -23.3 11.25 -20.3 12.85 -14.85 12.2 -9.45 11.5 -7.45 9.25 -5.3 6.8 -8.8 0.45 L-12.75 -5.35 -10.95 -5.35" fill="#261308" fill-rule="evenodd" stroke="none"/>
      <path d="M0.6 -3.45 L2.6 -5.25 6.7 -7.95 Q12.35 -10.4 9.8 -0.3 7.25 9.85 9.25 23.6 10.3 30.5 11.8 35.35 11.45 36.05 10.45 36.15 L9.5 36.1 Q1.15 29.35 0.05 12.3 -0.3 6.9 0.1 1.2 L0.6 -3.45" fill="#7f8687" fill-rule="evenodd" stroke="none"/>
      <path d="M8.5 2.95 Q7.0 10.0 8.3 21.4 9.4 30.65 10.65 33.6 10.95 34.25 10.5 34.85 10.05 35.5 9.15 34.1 4.55 27.25 3.5 14.1 L3.4 2.3 Q4.95 3.7 6.85 3.45 L8.5 2.95" fill="#d5e1e3" fill-rule="evenodd" stroke="none"/>
      <path d="M26.05 12.75 Q25.0 28.5 17.35 34.75 L16.45 34.8 Q15.5 34.7 15.2 34.05 16.6 29.55 17.55 23.2 19.4 10.5 17.05 1.15 14.7 -8.2 19.9 -5.95 22.5 -4.8 25.55 -1.8 L26.0 2.5 Q26.35 7.8 26.05 12.75" fill="#7f8687" fill-rule="evenodd" stroke="none"/>
      <path d="M25.4 -0.15 Q26.45 16.15 22.4 26.35 20.35 31.45 17.95 33.5 L17.25 33.65 Q16.8 33.6 17.15 33.05 21.65 26.45 22.05 14.3 21.65 3.65 22.25 3.45 23.8 3.0 24.75 1.35 L25.4 -0.15" fill="#d5e1e3" fill-rule="evenodd" stroke="none"/>
      <path d="M22.1 2.85 Q18.65 4.55 18.15 2.1 17.2 3.2 15.7 3.7 12.65 4.7 9.9 1.8 8.85 3.1 6.85 3.1 2.9 3.05 -1.65 -3.6 -3.15 -5.8 -0.3 -10.65 2.5 -15.4 6.0 -16.95 7.85 -17.75 12.05 -17.6 16.65 -17.35 19.6 -16.0 23.45 -14.25 24.95 -10.25 26.15 -7.2 25.85 -3.1 25.55 1.05 22.1 2.85" fill="#ea7c32" fill-rule="evenodd" stroke="none"/>
      <path d="M25.75 -7.1 Q26.0 -5.2 25.85 -3.1 25.55 1.05 22.1 2.85 18.65 4.55 18.15 2.1 17.2 3.2 15.7 3.7 12.65 4.7 9.9 1.8 8.85 3.1 6.85 3.1 2.9 3.05 -1.65 -3.6 -2.6 -4.95 -1.7 -7.65 -0.85 -10.15 1.1 -12.7 -0.2 -8.65 0.95 -5.75 2.45 -1.9 8.25 -0.65 L9.15 -1.55 Q10.4 -2.5 12.2 -2.65 L17.15 -2.45 Q19.85 -1.85 20.0 -0.15 20.0 0.25 20.95 0.1 22.0 -0.05 23.0 -0.8 25.95 -2.9 25.75 -7.1" fill="#9d5421" fill-rule="evenodd" stroke="none"/>
      <path d="M11.6 -15.0 Q12.6 -15.8 14.95 -15.55 17.35 -15.3 18.3 -14.15 19.25 -13.0 17.7 -11.3 16.2 -9.7 14.7 -9.7 13.4 -9.7 11.9 -11.75 10.3 -13.95 11.6 -15.0" fill="#261308" fill-rule="evenodd" stroke="none"/>
      <path d="M4.2 -13.15 Q7.25 -12.15 3.6 -12.0 -0.2 -11.85 -3.95 -9.55 -5.85 -8.4 -6.95 -7.3 -5.3 -10.3 -0.4 -12.0 L4.2 -13.15" fill="#261308" fill-rule="evenodd" stroke="none"/>
      <path d="M3.85 -9.5 Q4.75 -10.4 6.15 -10.6 7.45 -10.8 4.0 -7.8 -1.1 -3.35 -3.0 0.5 -3.9 2.4 -3.85 3.45 -4.7 1.25 -0.5 -4.35 L3.85 -9.5" fill="#261308" fill-rule="evenodd" stroke="none"/>
      <path d="M6.05 -6.2 Q6.55 -7.4 7.65 -7.4 8.65 -7.35 6.8 -4.9 2.6 0.65 1.6 4.95 1.1 7.1 1.45 8.1 -0.1 6.1 2.7 0.1 L6.05 -6.2" fill="#261308" fill-rule="evenodd" stroke="none"/>
      <path d="M24.25 -6.55 L27.1 -3.25 Q30.1 1.2 30.65 7.25 30.25 5.0 29.15 2.25 26.9 -3.2 23.25 -5.5 21.5 -6.55 22.5 -6.9 23.5 -7.25 24.25 -6.55" fill="#261308" fill-rule="evenodd" stroke="none"/>
      <path d="M24.25 -9.65 L29.55 -8.75 Q35.0 -7.3 35.8 -4.45 35.2 -5.4 33.45 -6.4 30.0 -8.35 24.4 -8.65 22.8 -8.7 23.1 -9.2 23.4 -9.75 24.25 -9.65" fill="#261308" fill-rule="evenodd" stroke="none"/>
      <path d="M23.8 -12.55 L27.3 -12.4 Q31.65 -11.95 35.85 -10.6 28.05 -12.3 24.4 -11.65 22.75 -11.35 22.8 -11.95 22.9 -12.55 23.8 -12.55" fill="#261308" fill-rule="evenodd" stroke="none"/>
      <path d="M15.05 -1.0 L13.7 -0.9 Q12.55 1.0 12.7 1.65 12.8 2.35 14.75 2.5 16.8 2.7 17.15 1.55 L17.1 0.35 16.95 -0.55 Q16.5 -1.05 15.05 -1.0 M13.2 -1.7 L15.2 -1.85 Q17.3 -1.85 17.75 -1.0 L18.15 2.1 Q16.9 3.4 15.05 4.1 11.4 5.55 8.7 2.65 11.15 1.05 13.2 -1.7" fill="#68310b" fill-rule="evenodd" stroke="none"/>
      <path d="M17.65 -13.45 L17.05 -12.85 Q16.5 -12.7 15.8 -12.85 15.15 -13.0 14.75 -13.4 14.35 -13.75 14.4 -14.15 14.5 -14.55 15.05 -14.75 L16.25 -14.75 17.35 -14.2 17.65 -13.45" fill="#d0b3a3" fill-rule="evenodd" stroke="none"/>
      <path d="M21.2 -11.1 L20.9 -10.8 Q20.6 -10.8 20.6 -11.1 20.6 -11.4 20.9 -11.4 L21.2 -11.1" fill="#261308" fill-rule="evenodd" stroke="none"/>
      <path d="M22.5 -8.35 L22.3 -8.15 22.1 -8.35 22.3 -8.6 22.5 -8.35" fill="#261308" fill-rule="evenodd" stroke="none"/>
      <path d="M20.9 -6.3 L20.6 -6.0 Q20.3 -6.0 20.3 -6.3 20.3 -6.6 20.6 -6.6 L20.9 -6.3" fill="#261308" fill-rule="evenodd" stroke="none"/>
      <path d="M7.35 -14.4 L7.15 -14.2 6.95 -14.4 7.15 -14.6 7.35 -14.4" fill="#261308" fill-rule="evenodd" stroke="none"/>
      <path d="M5.85 -14.3 L5.6 -14.05 Q5.35 -14.05 5.35 -14.3 L5.6 -14.55 5.85 -14.3" fill="#261308" fill-rule="evenodd" stroke="none"/>
      <path d="M7.65 -11.55 L7.45 -11.35 7.25 -11.55 7.45 -11.75 7.65 -11.55" fill="#261308" fill-rule="evenodd" stroke="none"/>
      <path d="M10.1 -5.3 Q10.1 -4.9 9.7 -4.9 9.35 -4.9 9.35 -5.3 9.35 -5.65 9.7 -5.65 10.1 -5.65 10.1 -5.3" fill="#261308" fill-rule="evenodd" stroke="none"/>
      <path d="M6.4 -8.2 L6.2 -8.0 6.0 -8.2 6.2 -8.4 6.4 -8.2" fill="#261308" fill-rule="evenodd" stroke="none"/>
      <path d="M2.9 -24.1 Q4.05 -24.25 5.3 -22.7 6.55 -21.15 6.1 -20.2 5.5 -18.8 3.05 -18.8 0.6 -18.8 0.45 -20.0 0.3 -20.9 0.95 -22.3 1.75 -23.95 2.9 -24.1" fill="#261308" fill-rule="evenodd" stroke="none"/>
      <path d="M5.05 -21.6 L4.85 -20.9 4.4 -20.6 Q3.7 -20.6 3.7 -21.6 3.7 -22.6 4.4 -22.6 L4.85 -22.3 5.05 -21.6" fill="#ffffff" fill-rule="evenodd" stroke="none"/>
      <path d="M20.05 -22.35 Q21.05 -22.0 21.45 -20.35 21.75 -19.0 21.45 -18.25 21.05 -17.25 18.95 -17.7 16.8 -18.2 16.5 -19.5 16.3 -20.45 17.7 -21.55 19.1 -22.7 20.05 -22.35" fill="#261308" fill-rule="evenodd" stroke="none"/>
      <path d="M21.0 -20.15 Q21.0 -19.35 20.45 -19.35 19.9 -19.35 19.9 -20.15 19.9 -20.95 20.45 -20.95 21.0 -20.95 21.0 -20.15" fill="#ffffff" fill-rule="evenodd" stroke="none"/>
      <path d="M-22.85 -35.85 Q-26.45 -38.95 -27.75 -46.15 -28.95 -52.5 -27.95 -53.3 -27.65 -53.5 -26.9 -51.4 -25.35 -48.75 -21.95 -47.0 L-16.45 -44.15 Q-15.15 -43.25 -14.85 -41.65 -14.4 -39.45 -12.15 -34.25 -9.6 -28.5 -9.15 -26.95 -8.8 -25.75 -10.9 -25.25 -11.6 -25.05 -12.65 -27.75 L-13.95 -31.7 Q-14.2 -32.5 -17.45 -33.45 -21.3 -34.5 -22.85 -35.85" fill="#a3989e" fill-rule="evenodd" stroke="none"/>
      <path d="M-27.55 -51.85 L-25.25 -48.15 Q-22.25 -44.35 -18.7 -43.75 -17.35 -43.5 -15.75 -39.1 -14.3 -35.1 -14.45 -33.85 -14.55 -32.95 -18.35 -34.25 -22.1 -35.5 -22.85 -36.65 L-20.8 -37.65 -23.05 -38.4 Q-25.4 -39.55 -25.95 -41.5 -24.65 -41.6 -24.45 -42.15 L-25.75 -44.9 Q-27.15 -48.35 -27.55 -51.85" fill="#f5e5ee" fill-rule="evenodd" stroke="none"/>
    </g>
  </defs>
</svg>
