<?xml version="1.0" encoding="UTF-8" standalone="no"?>
<svg xmlns:ffdec="https://www.free-decompiler.com/flash" xmlns:xlink="http://www.w3.org/1999/xlink" ffdec:objectType="frame" height="93.4px" width="81.6px" xmlns="http://www.w3.org/2000/svg">
  <g transform="matrix(1.0, 0.0, 0.0, 1.0, 45.6, 54.4)">
    <use ffdec:characterId="672" height="76.7" transform="matrix(1.0, 0.0, 0.0, 1.0, -45.45, -37.7)" width="81.4" xlink:href="#shape0"/>
  </g>
  <defs>
    <g id="shape0" transform="matrix(1.0, 0.0, 0.0, 1.0, 45.45, 37.7)">
      <path d="M-16.75 -34.65 Q-15.05 -34.0 -12.95 -34.05 L-9.3 -34.5 Q-7.1 -34.7 -5.4 -33.75 -4.35 -33.2 -2.45 -30.45 L0.05 -26.65 Q0.5 -26.05 -0.65 -25.7 -1.15 -25.55 -1.9 -26.2 L-3.05 -27.25 Q-5.35 -29.35 -6.35 -29.9 -7.55 -30.55 -9.25 -30.45 -12.1 -30.2 -15.25 -32.2 -18.05 -33.9 -17.85 -34.6 L-16.75 -34.65" fill="#a3989e" fill-rule="evenodd" stroke="none"/>
      <path d="M-26.85 -26.75 Q-19.2 -30.25 -9.2 -30.35 L-0.75 -29.8 Q16.8 -32.8 23.1 -22.9 26.25 -18.0 25.9 -12.45 25.7 -5.4 23.5 -2.25 22.35 -0.5 20.2 1.65 19.25 3.55 19.05 9.45 18.0 16.45 12.55 24.45 4.65 36.0 -11.3 36.85 L-21.45 36.3 -25.65 35.4 Q-25.3 37.35 -28.0 38.2 L-32.5 39.0 Q-33.95 39.2 -34.85 37.55 L-35.5 35.8 -37.8 36.5 Q-40.35 36.0 -43.3 32.55 -46.2 29.15 -45.2 28.2 L-43.6 26.1 -42.9 24.95 Q-51.25 -15.6 -26.85 -26.75" fill="#261308" fill-rule="evenodd" stroke="none"/>
      <path d="M-25.35 -25.3 Q-18.15 -28.65 -8.8 -28.8 L-0.85 -28.3 Q15.7 -31.1 21.6 -22.0 24.55 -17.45 24.15 -12.35 23.95 -5.75 21.75 -3.0 L18.45 0.4 Q17.55 2.15 17.35 7.9 16.4 14.65 11.25 22.2 3.2 34.0 -12.85 34.6 L-23.1 33.9 -27.3 32.9 Q-26.95 34.8 -28.2 35.6 -28.95 36.1 -31.15 36.45 -32.5 36.65 -33.4 35.05 L-34.0 33.4 -36.2 34.1 Q-38.65 33.6 -41.15 30.85 -43.65 28.15 -42.7 27.2 -42.0 26.5 -41.35 25.1 L-40.9 23.85 Q-48.35 -14.6 -25.35 -25.3" fill="#843b0c" fill-rule="evenodd" stroke="none"/>
      <path d="M0.0 -9.35 Q2.6 -12.05 8.75 -9.35 14.1 -6.95 20.25 -1.55 18.85 -0.35 18.45 0.4 17.55 2.15 17.35 7.9 16.4 14.65 11.25 22.2 3.2 34.0 -12.85 34.6 L-23.1 33.9 -27.3 32.9 Q-26.95 34.8 -28.2 35.6 -28.95 36.1 -31.15 36.45 -32.5 36.65 -33.4 35.05 L-34.0 33.4 -36.2 34.1 Q-38.65 33.6 -41.15 30.85 -43.65 28.15 -42.7 27.2 -42.0 26.5 -41.35 25.1 L-40.9 23.85 Q-41.45 18.7 -41.15 16.3 L-40.05 11.9 Q-38.85 19.0 -34.7 20.95 -33.3 21.6 -32.15 21.4 -31.1 21.25 -31.6 20.75 -32.85 19.55 -33.65 16.8 L-34.25 14.3 Q-32.3 18.7 -26.8 19.65 -22.1 20.45 -16.05 18.65 -10.45 16.9 -6.8 13.95 -3.0 10.9 -3.9 8.4 -7.25 3.05 -8.6 -0.45 -10.9 -6.75 -7.3 -15.25 L-7.7 -12.75 Q-8.0 -9.9 -7.7 -8.1 -6.8 -2.35 0.0 -9.35" fill="#532101" fill-rule="evenodd" stroke="none"/>
      <path d="M-20.4 -1.3 L-19.15 -2.9 Q-19.7 1.75 -17.55 4.6 -16.55 5.9 -15.45 6.45 -16.45 6.15 -20.95 8.1 -25.75 10.15 -23.15 11.55 -20.15 13.15 -14.7 12.5 -9.3 11.8 -7.3 9.55 -5.15 7.1 -8.65 0.75 L-12.6 -5.05 -10.85 -5.05 Q-9.95 -3.3 -6.45 1.55 -3.8 6.3 -5.65 10.05 -7.7 14.1 -16.1 14.35 -24.0 14.6 -25.55 12.45 -26.6 11.0 -23.0 8.5 L-19.25 6.25 -17.9 5.9 -19.15 5.4 Q-19.75 5.0 -20.4 -1.3" fill="#261308" fill-rule="evenodd" stroke="none"/>
      <path d="M0.75 -3.15 L2.75 -4.95 Q5.1 -6.85 6.85 -7.65 12.5 -10.1 9.95 0.0 7.4 10.15 9.4 23.9 10.45 30.8 11.95 35.65 11.6 36.35 10.6 36.45 L9.65 36.4 Q1.3 29.65 0.2 12.6 -0.15 7.2 0.25 1.5 L0.75 -3.15" fill="#7f8687" fill-rule="evenodd" stroke="none"/>
      <path d="M8.65 3.25 Q7.15 10.3 8.45 21.7 9.55 30.95 10.8 33.9 11.05 34.6 10.65 35.15 10.2 35.8 9.3 34.4 4.7 27.55 3.65 14.4 L3.55 2.6 Q5.1 4.0 7.0 3.75 8.0 3.65 8.65 3.25" fill="#d5e1e3" fill-rule="evenodd" stroke="none"/>
      <path d="M25.7 -1.5 L26.15 2.8 Q26.5 8.1 26.2 13.05 25.15 28.8 17.45 35.05 15.85 35.35 15.35 34.35 16.75 29.85 17.7 23.5 19.55 10.8 17.2 1.45 14.85 -7.9 20.05 -5.65 22.65 -4.5 25.7 -1.5" fill="#7f8687" fill-rule="evenodd" stroke="none"/>
      <path d="M25.55 0.15 Q26.6 16.45 22.55 26.65 20.5 31.75 18.1 33.8 L17.4 33.95 Q16.9 33.9 17.25 33.35 21.8 26.75 22.2 14.6 21.8 3.95 22.4 3.75 23.9 3.3 24.9 1.65 L25.55 0.15" fill="#d5e1e3" fill-rule="evenodd" stroke="none"/>
      <path d="M6.15 -16.65 Q8.0 -17.45 12.2 -17.3 16.8 -17.05 19.75 -15.7 23.6 -13.95 25.1 -9.95 26.3 -6.9 26.0 -2.8 25.7 1.35 22.2 3.15 18.8 4.85 18.25 2.4 17.3 3.5 15.8 4.0 12.75 5.0 10.05 2.1 9.0 3.4 7.0 3.4 3.05 3.35 -1.5 -3.3 -3.0 -5.5 -0.2 -10.35 2.6 -15.15 6.15 -16.65" fill="#ea7c32" fill-rule="evenodd" stroke="none"/>
      <path d="M7.0 3.4 Q3.05 3.35 -1.5 -3.3 -2.45 -4.65 -1.55 -7.35 -0.75 -9.85 1.2 -12.4 -0.05 -8.3 1.05 -5.45 2.6 -1.6 8.4 -0.35 L9.3 -1.25 Q10.5 -2.2 12.3 -2.35 L17.3 -2.15 Q20.0 -1.55 20.1 0.15 20.15 0.55 21.1 0.4 22.1 0.25 23.15 -0.5 26.1 -2.6 25.9 -6.8 26.15 -4.55 26.0 -2.8 25.7 1.35 22.2 3.15 18.8 4.85 18.25 2.4 17.3 3.5 15.8 4.0 12.75 5.0 10.05 2.1 9.0 3.4 7.0 3.4" fill="#9d5421" fill-rule="evenodd" stroke="none"/>
      <path d="M11.75 -14.7 Q12.75 -15.5 15.1 -15.25 17.5 -15.0 18.45 -13.85 19.4 -12.7 17.8 -11.0 16.3 -9.4 14.85 -9.4 13.55 -9.4 12.05 -11.45 10.45 -13.65 11.75 -14.7" fill="#261308" fill-rule="evenodd" stroke="none"/>
      <path d="M4.35 -12.85 Q7.4 -11.85 3.75 -11.7 -0.05 -11.55 -3.8 -9.25 -5.7 -8.1 -6.8 -7.0 -5.15 -10.0 -0.25 -11.7 2.25 -12.6 4.35 -12.85" fill="#261308" fill-rule="evenodd" stroke="none"/>
      <path d="M4.0 -9.2 Q9.5 -12.15 4.15 -7.5 -0.95 -3.05 -2.85 0.8 -3.75 2.7 -3.7 3.75 -4.55 1.55 -0.35 -4.05 L4.0 -9.2" fill="#261308" fill-rule="evenodd" stroke="none"/>
      <path d="M6.2 -5.9 Q6.7 -7.1 7.8 -7.1 8.8 -7.05 6.95 -4.6 2.75 0.95 1.75 5.25 1.25 7.4 1.6 8.4 0.05 6.35 2.8 0.4 L6.2 -5.9" fill="#261308" fill-rule="evenodd" stroke="none"/>
      <path d="M24.4 -6.25 L27.25 -2.95 Q30.2 1.5 30.75 7.55 30.35 5.3 29.25 2.55 27.0 -2.9 23.35 -5.2 21.65 -6.25 22.6 -6.6 23.65 -6.95 24.4 -6.25" fill="#261308" fill-rule="evenodd" stroke="none"/>
      <path d="M24.4 -9.35 L29.7 -8.45 Q35.1 -7.0 35.9 -4.15 35.3 -5.1 33.6 -6.1 30.15 -8.05 24.55 -8.35 22.95 -8.4 23.25 -8.9 23.55 -9.45 24.4 -9.35" fill="#261308" fill-rule="evenodd" stroke="none"/>
      <path d="M23.95 -12.25 L27.45 -12.1 Q31.75 -11.65 35.95 -10.3 28.15 -12.0 24.5 -11.35 22.85 -11.05 22.95 -11.65 23.05 -12.25 23.95 -12.25" fill="#261308" fill-rule="evenodd" stroke="none"/>
      <path d="M15.35 -1.55 Q17.45 -1.55 17.9 -0.7 L18.25 2.4 Q17.0 3.7 15.2 4.4 11.55 5.85 8.85 2.95 11.3 1.35 13.35 -1.4 L15.35 -1.55 M17.1 -0.25 Q16.65 -0.75 15.2 -0.7 L13.85 -0.6 Q12.75 1.25 12.8 1.95 12.95 2.65 14.9 2.8 16.9 3.0 17.3 1.85 L17.25 0.65 17.1 -0.25" fill="#68310b" fill-rule="evenodd" stroke="none"/>
      <path d="M17.8 -13.15 L17.15 -12.55 Q16.65 -12.4 15.95 -12.55 15.3 -12.7 14.85 -13.1 14.45 -13.45 14.55 -13.85 14.65 -14.25 15.2 -14.45 L16.4 -14.45 17.5 -13.9 Q17.9 -13.55 17.8 -13.15" fill="#d0b3a3" fill-rule="evenodd" stroke="none"/>
      <path d="M21.35 -10.8 L21.05 -10.5 Q20.75 -10.5 20.75 -10.8 20.75 -11.1 21.05 -11.1 L21.35 -10.8" fill="#261308" fill-rule="evenodd" stroke="none"/>
      <path d="M22.65 -8.05 L22.45 -7.85 22.2 -8.05 22.45 -8.3 22.65 -8.05" fill="#261308" fill-rule="evenodd" stroke="none"/>
      <path d="M21.05 -6.0 L20.75 -5.7 Q20.45 -5.7 20.45 -6.0 20.45 -6.3 20.75 -6.3 L21.05 -6.0" fill="#261308" fill-rule="evenodd" stroke="none"/>
      <path d="M7.5 -14.1 L7.3 -13.9 7.1 -14.1 7.3 -14.3 7.5 -14.1" fill="#261308" fill-rule="evenodd" stroke="none"/>
      <path d="M6.0 -14.0 L5.75 -13.75 Q5.5 -13.75 5.5 -14.0 L5.75 -14.25 6.0 -14.0" fill="#261308" fill-rule="evenodd" stroke="none"/>
      <path d="M7.8 -11.25 L7.6 -11.05 7.35 -11.25 7.6 -11.45 7.8 -11.25" fill="#261308" fill-rule="evenodd" stroke="none"/>
      <path d="M10.25 -5.0 Q10.25 -4.6 9.85 -4.6 9.5 -4.6 9.5 -5.0 9.5 -5.35 9.85 -5.35 10.25 -5.35 10.25 -5.0" fill="#261308" fill-rule="evenodd" stroke="none"/>
      <path d="M6.55 -7.9 L6.35 -7.7 6.15 -7.9 6.35 -8.1 6.55 -7.9" fill="#261308" fill-rule="evenodd" stroke="none"/>
      <path d="M3.05 -23.8 Q4.2 -23.95 5.45 -22.4 6.7 -20.85 6.25 -19.9 5.65 -18.5 3.2 -18.5 0.75 -18.5 0.6 -19.7 0.45 -20.6 1.1 -22.0 1.9 -23.65 3.05 -23.8" fill="#261308" fill-rule="evenodd" stroke="none"/>
      <path d="M5.2 -21.3 Q5.2 -20.3 4.5 -20.3 L4.05 -20.6 3.85 -21.3 4.05 -22.0 4.5 -22.3 Q5.2 -22.3 5.2 -21.3" fill="#ffffff" fill-rule="evenodd" stroke="none"/>
      <path d="M20.2 -22.05 Q21.2 -21.7 21.55 -20.05 21.85 -18.75 21.6 -17.95 21.2 -16.95 19.1 -17.4 16.95 -17.9 16.65 -19.2 16.45 -20.15 17.85 -21.25 19.25 -22.4 20.2 -22.05" fill="#261308" fill-rule="evenodd" stroke="none"/>
      <path d="M21.15 -19.85 Q21.15 -19.05 20.6 -19.05 20.05 -19.05 20.05 -19.85 20.05 -20.65 20.6 -20.65 21.15 -20.65 21.15 -19.85" fill="#ffffff" fill-rule="evenodd" stroke="none"/>
      <path d="M-32.0 -31.7 Q-35.05 -35.75 -34.05 -37.65 -33.9 -37.9 -32.65 -36.35 -30.55 -34.55 -26.85 -34.0 L-21.0 -33.0 Q-19.95 -32.7 -18.85 -31.9 -15.3 -29.5 -9.25 -26.2 -8.75 -25.9 -9.15 -25.4 L-10.3 -24.55 Q-10.85 -24.25 -12.55 -25.1 L-15.1 -26.3 -18.8 -26.15 -24.15 -26.35 Q-28.65 -27.35 -32.0 -31.7" fill="#a3989e" fill-rule="evenodd" stroke="none"/>
      <path d="M-22.9 -32.15 Q-21.35 -32.1 -18.5 -30.55 -15.65 -29.05 -15.55 -28.25 -15.4 -27.2 -19.5 -26.95 -23.55 -26.75 -24.85 -27.55 L-22.7 -28.2 -25.15 -28.25 Q-27.8 -28.5 -28.85 -29.65 -27.45 -29.65 -27.4 -30.05 L-29.4 -30.45 Q-31.65 -31.45 -33.0 -34.4 L-30.05 -33.3 Q-26.45 -32.2 -22.9 -32.15" fill="#f5e5ee" fill-rule="evenodd" stroke="none"/>
    </g>
  </defs>
</svg>
