<?xml version="1.0" encoding="UTF-8" standalone="no"?>
<svg xmlns:ffdec="https://www.free-decompiler.com/flash" xmlns:xlink="http://www.w3.org/1999/xlink" ffdec:objectType="frame" height="93.4px" width="81.6px" xmlns="http://www.w3.org/2000/svg">
  <g transform="matrix(1.0, 0.0, 0.0, 1.0, 45.6, 54.4)">
    <use ffdec:characterId="673" height="69.2" transform="matrix(1.0, 0.0, 0.0, 1.0, -45.45, -30.9)" width="81.45" xlink:href="#shape0"/>
  </g>
  <defs>
    <g id="shape0" transform="matrix(1.0, 0.0, 0.0, 1.0, 45.45, 30.9)">
      <path d="M-0.15 -25.35 Q0.0 -26.7 1.6 -26.05 2.25 -25.8 2.45 -24.15 L2.65 -21.55 Q2.95 -17.1 3.85 -14.95 L6.2 -11.15 Q8.45 -7.7 8.8 -0.55 9.1 6.05 8.15 6.1 7.95 6.1 7.6 4.4 7.05 1.55 5.45 -2.15 4.65 -4.0 1.3 -8.3 -1.55 -12.0 -1.5 -12.8 -1.3 -17.2 -0.15 -25.35" fill="#a3989e" fill-rule="evenodd" stroke="none"/>
      <path d="M-9.2 -30.8 L-0.75 -30.2 Q16.8 -33.2 23.1 -23.3 26.3 -18.35 25.95 -12.8 25.75 -5.8 23.55 -2.65 21.05 -0.25 20.25 1.25 19.3 3.15 19.1 8.9 18.05 15.75 12.6 23.75 4.7 35.3 -11.25 36.15 L-21.4 35.6 -25.6 34.7 Q-25.3 36.6 -27.95 37.5 L-32.45 38.3 Q-33.9 38.5 -34.8 36.85 L-35.45 35.1 -37.75 35.8 Q-40.3 35.3 -43.25 31.85 -46.15 28.45 -45.2 27.45 L-43.55 25.4 -42.85 24.25 Q-51.2 -16.3 -26.8 -27.3 -19.2 -30.75 -9.2 -30.8" fill="#261308" fill-rule="evenodd" stroke="none"/>
      <path d="M-8.75 -29.25 L-0.8 -28.7 Q15.75 -31.5 21.65 -22.4 24.6 -17.85 24.2 -12.75 24.0 -6.15 21.75 -3.4 19.25 -1.4 18.5 0.0 17.6 1.8 17.4 7.35 16.4 13.95 11.25 21.5 3.25 33.3 -12.8 33.9 L-23.05 33.2 -27.25 32.2 Q-26.9 34.1 -28.2 34.9 -28.95 35.4 -31.1 35.75 -32.45 35.95 -33.35 34.35 L-33.95 32.7 -36.15 33.4 Q-38.6 32.9 -41.1 30.15 -43.6 27.45 -42.7 26.5 -41.95 25.8 -41.3 24.4 L-40.85 23.15 Q-48.3 -15.3 -25.3 -25.85 -18.1 -29.15 -8.75 -29.25" fill="#843b0c" fill-rule="evenodd" stroke="none"/>
      <path d="M20.3 -1.95 Q18.9 -0.8 18.5 0.0 17.6 1.8 17.4 7.35 16.4 13.95 11.25 21.5 3.25 33.3 -12.8 33.9 L-23.05 33.2 -27.25 32.2 Q-26.9 34.1 -28.2 34.9 -28.95 35.4 -31.1 35.75 -32.45 35.95 -33.35 34.35 L-33.95 32.7 -36.15 33.4 Q-38.6 32.9 -41.1 30.15 -43.6 27.45 -42.7 26.5 -41.95 25.8 -41.3 24.4 L-40.85 23.15 Q-41.4 18.0 -41.1 15.75 L-40.05 11.5 Q-38.85 18.6 -34.65 20.55 -33.25 21.2 -32.15 21.0 -31.05 20.85 -31.55 20.35 -32.8 19.15 -33.6 16.45 L-34.2 13.95 Q-32.25 18.35 -26.75 19.25 -22.05 20.1 -16.0 18.25 -10.4 16.5 -6.8 13.55 -2.95 10.5 -3.9 8.0 -4.4 6.65 -6.1 3.8 L-8.55 -0.85 Q-10.85 -7.15 -7.25 -15.65 L-7.65 -13.15 Q-7.95 -10.3 -7.65 -8.5 -6.75 -2.75 0.0 -9.75 2.6 -12.45 8.8 -9.75 14.15 -7.4 20.3 -1.95" fill="#532101" fill-rule="evenodd" stroke="none"/>
      <path d="M-7.25 9.15 Q-5.1 6.7 -8.6 0.35 L-12.55 -5.45 -10.8 -5.45 Q-9.9 -3.7 -6.4 1.15 -3.75 5.9 -5.65 9.65 -7.65 13.7 -16.1 13.95 -24.0 14.2 -25.5 12.05 -26.55 10.65 -23.0 8.15 -21.2 6.9 -19.25 5.9 L-17.85 5.5 -19.1 5.0 Q-19.5 4.75 -19.95 1.55 L-20.35 -1.65 -19.1 -3.3 Q-19.65 1.35 -17.55 4.2 -16.6 5.55 -15.5 6.1 -16.5 5.8 -20.95 7.7 -25.75 9.75 -23.15 11.15 -20.1 12.75 -14.65 12.1 -9.25 11.4 -7.25 9.15" fill="#261308" fill-rule="evenodd" stroke="none"/>
      <path d="M0.75 -3.55 L2.75 -5.35 Q5.15 -7.3 6.9 -8.05 12.5 -10.5 9.95 -0.4 7.4 9.75 9.45 23.35 10.45 30.15 11.95 34.9 11.4 36.05 9.65 35.7 1.35 28.9 0.2 12.0 -0.15 6.75 0.25 1.05 L0.75 -3.55" fill="#7f8687" fill-rule="evenodd" stroke="none"/>
      <path d="M8.7 2.85 Q7.2 9.95 8.5 21.2 9.55 30.35 10.85 33.2 11.1 33.85 10.7 34.45 10.25 35.05 9.3 33.7 4.75 26.85 3.7 13.85 L3.6 2.25 Q5.15 3.65 7.05 3.4 L8.7 2.85" fill="#d5e1e3" fill-rule="evenodd" stroke="none"/>
      <path d="M25.7 -1.9 L26.15 2.35 Q26.55 7.6 26.2 12.5 25.2 28.1 17.5 34.35 15.9 34.65 15.4 33.6 16.8 29.2 17.75 22.95 19.6 10.4 17.25 1.05 14.9 -8.3 20.05 -6.05 22.65 -4.9 25.7 -1.9" fill="#7f8687" fill-rule="evenodd" stroke="none"/>
      <path d="M25.55 -0.25 Q26.6 16.05 22.6 26.1 20.55 31.15 18.15 33.1 L17.45 33.25 Q16.95 33.2 17.3 32.65 21.8 26.05 22.2 14.05 21.8 3.55 22.4 3.35 23.95 2.9 24.9 1.25 L25.55 -0.25" fill="#d5e1e3" fill-rule="evenodd" stroke="none"/>
      <path d="M19.8 -16.1 Q23.65 -14.35 25.15 -10.35 26.35 -7.3 26.05 -3.2 25.75 0.95 22.25 2.75 18.85 4.45 18.3 2.0 17.35 3.1 15.85 3.6 12.8 4.6 10.1 1.7 9.0 3.0 7.0 3.0 3.05 2.95 -1.5 -3.7 -3.0 -5.9 -0.15 -10.75 2.65 -15.55 6.2 -17.05 8.0 -17.85 12.25 -17.7 16.85 -17.45 19.8 -16.1" fill="#ea7c32" fill-rule="evenodd" stroke="none"/>
      <path d="M12.35 -2.75 L17.3 -2.55 Q20.05 -1.95 20.15 -0.25 20.15 0.15 21.1 0.0 22.1 -0.15 23.15 -0.9 26.1 -2.95 25.9 -7.15 26.15 -5.5 26.05 -3.2 25.75 0.95 22.25 2.75 18.85 4.45 18.3 2.0 17.35 3.1 15.85 3.6 12.8 4.6 10.1 1.7 9.0 3.0 7.0 3.0 3.05 2.95 -1.5 -3.7 -2.4 -5.05 -1.5 -7.75 -0.7 -10.25 1.25 -12.8 -0.05 -8.75 1.1 -5.85 2.6 -2.0 8.4 -0.75 L9.3 -1.65 Q10.55 -2.6 12.35 -2.75" fill="#9d5421" fill-rule="evenodd" stroke="none"/>
      <path d="M11.8 -15.1 Q12.75 -15.9 15.1 -15.65 17.55 -15.4 18.5 -14.25 19.4 -13.1 17.85 -11.4 16.35 -9.8 14.9 -9.8 13.6 -9.8 12.05 -11.85 10.45 -14.05 11.8 -15.1" fill="#261308" fill-rule="evenodd" stroke="none"/>
      <path d="M4.35 -13.25 Q7.45 -12.25 3.8 -12.1 0.0 -11.95 -3.75 -9.65 L-6.75 -7.4 Q-5.1 -10.4 -0.2 -12.1 L4.35 -13.25" fill="#261308" fill-rule="evenodd" stroke="none"/>
      <path d="M4.05 -9.6 Q9.5 -12.55 4.2 -7.9 -0.9 -3.45 -2.8 0.4 L-3.7 3.35 Q-4.55 1.15 -0.35 -4.45 1.8 -7.25 4.05 -9.6" fill="#261308" fill-rule="evenodd" stroke="none"/>
      <path d="M6.25 -6.3 Q6.7 -7.5 7.85 -7.5 8.85 -7.45 7.0 -5.0 2.8 0.55 1.8 4.85 1.3 7.0 1.65 8.0 0.05 5.95 2.85 0.0 L6.25 -6.3" fill="#261308" fill-rule="evenodd" stroke="none"/>
      <path d="M24.4 -6.65 L27.3 -3.35 Q30.25 1.15 30.8 7.15 30.4 4.9 29.3 2.15 27.05 -3.25 23.4 -5.55 21.7 -6.65 22.65 -7.0 23.65 -7.4 24.4 -6.65" fill="#261308" fill-rule="evenodd" stroke="none"/>
      <path d="M33.65 -6.45 Q30.2 -8.45 24.6 -8.7 23.0 -8.8 23.3 -9.3 23.6 -9.85 24.4 -9.75 L29.7 -8.85 Q35.15 -7.4 35.95 -4.55 35.35 -5.5 33.65 -6.45" fill="#261308" fill-rule="evenodd" stroke="none"/>
      <path d="M31.65 -11.45 L24.55 -11.75 Q22.9 -11.45 23.0 -12.05 23.1 -12.65 24.0 -12.65 L27.5 -12.5 Q31.8 -12.05 36.0 -10.7 L31.65 -11.45" fill="#261308" fill-rule="evenodd" stroke="none"/>
      <path d="M13.35 -1.8 L15.35 -1.95 Q17.5 -1.95 17.95 -1.1 L18.3 2.0 Q17.05 3.3 15.25 4.0 11.6 5.45 8.85 2.55 L10.35 1.4 13.35 -1.8 M15.2 -1.1 L13.85 -1.0 Q12.8 0.9 12.85 1.55 13.0 2.25 14.95 2.45 16.95 2.65 17.35 1.45 L17.15 -0.65 Q16.7 -1.1 15.2 -1.1" fill="#68310b" fill-rule="evenodd" stroke="none"/>
      <path d="M17.85 -13.55 L17.2 -12.95 Q16.7 -12.8 16.0 -12.95 15.35 -13.1 14.9 -13.5 14.5 -13.85 14.55 -14.25 14.65 -14.65 15.2 -14.85 L16.4 -14.85 17.5 -14.3 Q17.95 -13.95 17.85 -13.55" fill="#d0b3a3" fill-rule="evenodd" stroke="none"/>
      <path d="M21.35 -11.2 Q21.35 -10.9 21.1 -10.9 20.8 -10.9 20.8 -11.2 20.8 -11.5 21.1 -11.5 L21.35 -11.2" fill="#261308" fill-rule="evenodd" stroke="none"/>
      <path d="M22.65 -8.45 L22.45 -8.25 22.25 -8.45 22.45 -8.7 22.65 -8.45" fill="#261308" fill-rule="evenodd" stroke="none"/>
      <path d="M21.1 -6.4 L20.8 -6.1 Q20.5 -6.1 20.5 -6.4 20.5 -6.7 20.8 -6.7 L21.1 -6.4" fill="#261308" fill-rule="evenodd" stroke="none"/>
      <path d="M7.55 -14.5 L7.3 -14.3 7.1 -14.5 7.3 -14.7 7.55 -14.5" fill="#261308" fill-rule="evenodd" stroke="none"/>
      <path d="M6.0 -14.4 L5.75 -14.15 Q5.5 -14.15 5.5 -14.4 L5.75 -14.65 6.0 -14.4" fill="#261308" fill-rule="evenodd" stroke="none"/>
      <path d="M7.8 -11.65 L7.6 -11.45 7.4 -11.65 7.6 -11.85 7.8 -11.65" fill="#261308" fill-rule="evenodd" stroke="none"/>
      <path d="M10.3 -5.4 Q10.3 -5.0 9.9 -5.0 9.5 -5.0 9.5 -5.4 9.5 -5.75 9.9 -5.75 10.3 -5.75 10.3 -5.4" fill="#261308" fill-rule="evenodd" stroke="none"/>
      <path d="M6.6 -8.3 L6.4 -8.05 Q6.15 -8.05 6.15 -8.3 L6.4 -8.5 6.6 -8.3" fill="#261308" fill-rule="evenodd" stroke="none"/>
      <path d="M3.1 -24.2 Q4.25 -24.35 5.5 -22.8 6.7 -21.25 6.3 -20.3 5.7 -18.9 3.25 -18.9 0.8 -18.9 0.6 -20.1 0.5 -21.0 1.15 -22.4 1.95 -24.05 3.1 -24.2" fill="#261308" fill-rule="evenodd" stroke="none"/>
      <path d="M5.25 -21.7 Q5.25 -20.65 4.55 -20.65 3.85 -20.65 3.85 -21.7 3.85 -22.7 4.55 -22.7 5.25 -22.7 5.25 -21.7" fill="#ffffff" fill-rule="evenodd" stroke="none"/>
      <path d="M20.25 -22.4 Q21.25 -22.05 21.6 -20.45 21.9 -19.1 21.6 -18.35 21.2 -17.35 19.1 -17.8 16.95 -18.25 16.7 -19.6 16.5 -20.5 17.9 -21.65 19.25 -22.75 20.25 -22.4" fill="#261308" fill-rule="evenodd" stroke="none"/>
      <path d="M21.15 -20.25 Q21.15 -19.45 20.65 -19.45 20.1 -19.45 20.1 -20.25 20.1 -21.0 20.65 -21.0 21.15 -21.0 21.15 -20.25" fill="#ffffff" fill-rule="evenodd" stroke="none"/>
      <path d="M-9.55 -24.15 Q-9.7 -22.4 -11.25 -14.95 -12.6 -8.35 -12.6 -5.75 -12.6 -3.85 -13.85 -2.3 L-19.35 3.6 Q-22.75 7.2 -23.85 10.8 L-24.6 13.35 Q-25.9 13.05 -26.05 5.7 -26.2 -2.55 -22.85 -7.65 -21.4 -9.9 -17.35 -13.0 -13.95 -15.65 -13.85 -16.65 L-13.3 -21.5 Q-12.75 -24.9 -11.9 -25.1 -9.45 -25.6 -9.55 -24.15" fill="#a3989e" fill-rule="evenodd" stroke="none"/>
      <path d="M-18.15 -11.7 Q-14.25 -15.05 -13.9 -14.15 -13.45 -12.85 -14.2 -7.95 -14.95 -2.5 -16.45 -1.5 -20.25 0.95 -22.75 6.55 -23.95 9.3 -24.45 11.6 -24.85 7.75 -24.05 3.35 L-23.2 -0.25 -24.3 -0.35 -25.1 -0.1 Q-24.95 -2.45 -22.55 -4.9 L-20.15 -6.9 -22.75 -6.85 Q-22.1 -8.45 -18.15 -11.7" fill="#f5e5ee" fill-rule="evenodd" stroke="none"/>
    </g>
  </defs>
</svg>
