<?xml version="1.0" encoding="UTF-8" standalone="no"?>
<svg xmlns:ffdec="https://www.free-decompiler.com/flash" xmlns:xlink="http://www.w3.org/1999/xlink" ffdec:objectType="frame" height="93.4px" width="81.6px" xmlns="http://www.w3.org/2000/svg">
  <g transform="matrix(1.0, 0.0, 0.0, 1.0, 45.6, 54.4)">
    <use ffdec:characterId="674" height="69.2" transform="matrix(1.0, 0.0, 0.0, 1.0, -45.5, -30.9)" width="81.45" xlink:href="#shape0"/>
  </g>
  <defs>
    <g id="shape0" transform="matrix(1.0, 0.0, 0.0, 1.0, 45.5, 30.9)">
      <path d="M-0.25 -25.35 Q-0.1 -26.65 1.55 -26.05 2.2 -25.8 2.4 -24.15 L2.55 -21.55 Q2.9 -17.15 3.8 -14.95 L6.15 -11.15 Q8.4 -7.7 8.7 -0.55 9.0 6.05 8.1 6.1 7.9 6.1 7.55 4.4 6.95 1.55 5.35 -2.15 4.55 -4.0 1.25 -8.3 -1.6 -12.0 -1.6 -12.8 -1.4 -16.25 -0.25 -25.35" fill="#a3989e" fill-rule="evenodd" stroke="none"/>
      <path d="M-9.25 -30.8 L-0.8 -30.2 Q16.75 -33.2 23.05 -23.3 26.2 -18.35 25.85 -12.8 25.65 -5.8 23.45 -2.65 20.95 -0.25 20.15 1.25 19.2 3.15 19.0 8.9 18.0 15.75 12.55 23.75 4.65 35.3 -11.3 36.15 L-21.5 35.6 -25.7 34.7 Q-25.35 36.6 -28.05 37.5 L-32.5 38.3 Q-33.95 38.5 -34.9 36.85 L-35.55 35.1 -37.85 35.8 Q-40.4 35.3 -43.35 31.85 -46.25 28.45 -45.25 27.45 -44.0 26.25 -42.95 24.25 -51.25 -16.3 -26.85 -27.3 -19.25 -30.75 -9.25 -30.8" fill="#261308" fill-rule="evenodd" stroke="none"/>
      <path d="M-8.85 -29.25 L-0.9 -28.7 Q15.65 -31.5 21.55 -22.4 24.5 -17.85 24.1 -12.75 23.9 -6.15 21.7 -3.4 19.15 -1.4 18.4 0.0 17.5 1.8 17.3 7.35 16.35 13.95 11.2 21.5 3.15 33.3 -12.9 33.9 L-23.15 33.2 -27.35 32.2 Q-27.0 34.1 -28.25 34.9 -29.0 35.4 -31.2 35.75 -32.55 35.95 -33.45 34.35 L-34.05 32.7 -36.2 33.4 Q-38.7 32.9 -41.2 30.15 -43.7 27.45 -42.75 26.5 -41.6 25.35 -40.9 23.15 -48.35 -15.3 -25.4 -25.85 -18.2 -29.15 -8.85 -29.25" fill="#843b0c" fill-rule="evenodd" stroke="none"/>
      <path d="M20.2 -1.95 Q18.8 -0.75 18.4 0.0 17.5 1.8 17.3 7.35 16.35 13.95 11.2 21.5 3.15 33.3 -12.9 33.9 L-23.15 33.2 -27.35 32.2 Q-27.0 34.1 -28.25 34.9 -29.0 35.4 -31.2 35.75 -32.55 35.95 -33.45 34.35 L-34.05 32.7 -36.2 33.4 Q-38.7 32.9 -41.2 30.15 -43.7 27.45 -42.75 26.5 -41.6 25.35 -40.9 23.15 -41.45 18.05 -41.15 15.75 L-40.1 11.5 Q-38.9 18.6 -34.7 20.55 L-32.2 21.0 Q-31.1 20.85 -31.65 20.35 -32.9 19.15 -33.7 16.45 L-34.3 13.95 Q-32.35 18.35 -26.85 19.25 -22.15 20.1 -16.1 18.25 -10.5 16.5 -6.85 13.55 -3.05 10.5 -3.95 8.0 -7.3 2.65 -8.65 -0.85 -10.95 -7.15 -7.35 -15.65 L-7.75 -13.15 Q-8.05 -10.3 -7.75 -8.5 -6.85 -2.75 -0.05 -9.75 2.6 -12.45 8.75 -9.75 14.1 -7.35 20.2 -1.95" fill="#532101" fill-rule="evenodd" stroke="none"/>
      <path d="M-20.45 -1.65 L-19.2 -3.3 Q-19.75 1.35 -17.6 4.2 -16.65 5.55 -15.55 6.1 -16.55 5.8 -21.0 7.7 -25.8 9.75 -23.2 11.15 -20.2 12.75 -14.75 12.1 -9.35 11.4 -7.35 9.15 -5.2 6.7 -8.7 0.35 L-12.65 -5.45 -10.9 -5.45 Q-10.0 -3.7 -6.5 1.15 -3.85 5.9 -5.7 9.65 -7.75 13.7 -16.15 13.95 -24.05 14.2 -25.6 12.05 -26.65 10.65 -23.05 8.15 L-19.3 5.9 -17.9 5.5 -19.2 5.0 Q-19.55 4.75 -20.05 1.55 L-20.45 -1.65" fill="#261308" fill-rule="evenodd" stroke="none"/>
      <path d="M0.7 -3.55 L2.7 -5.35 Q5.05 -7.25 6.8 -8.05 12.45 -10.5 9.9 -0.4 7.35 9.75 9.35 23.35 10.4 30.15 11.9 34.9 11.35 36.05 9.6 35.7 1.25 28.9 0.15 12.0 -0.2 6.7 0.2 1.05 L0.7 -3.55" fill="#7f8687" fill-rule="evenodd" stroke="none"/>
      <path d="M8.6 2.85 Q7.1 9.9 8.4 21.2 9.5 30.25 10.75 33.2 11.05 33.8 10.6 34.45 10.15 35.05 9.25 33.7 4.65 26.85 3.6 13.85 L3.5 2.25 Q5.05 3.65 6.95 3.4 L8.6 2.85" fill="#d5e1e3" fill-rule="evenodd" stroke="none"/>
      <path d="M25.65 -1.9 L26.1 2.35 Q26.45 7.6 26.15 12.5 25.1 28.1 17.45 34.35 15.8 34.65 15.3 33.6 16.7 29.2 17.65 22.95 19.5 10.4 17.15 1.05 14.8 -8.3 20.0 -6.05 22.6 -4.9 25.65 -1.9" fill="#7f8687" fill-rule="evenodd" stroke="none"/>
      <path d="M25.5 -0.25 Q26.55 16.05 22.5 26.1 20.45 31.15 18.05 33.1 L17.35 33.25 Q16.85 33.2 17.2 32.65 21.75 26.05 22.15 14.05 21.75 3.55 22.35 3.35 23.85 2.9 24.85 1.25 L25.5 -0.25" fill="#d5e1e3" fill-rule="evenodd" stroke="none"/>
      <path d="M15.75 3.6 Q12.7 4.6 10.0 1.7 8.95 3.0 6.95 3.0 3.0 2.95 -1.55 -3.7 -3.05 -5.9 -0.2 -10.75 2.6 -15.5 6.1 -17.05 7.95 -17.85 12.15 -17.7 16.75 -17.45 19.7 -16.1 23.55 -14.35 25.05 -10.35 26.25 -7.3 25.95 -3.2 25.65 0.95 22.2 2.75 18.75 4.45 18.25 2.0 17.3 3.1 15.75 3.6" fill="#ea7c32" fill-rule="evenodd" stroke="none"/>
      <path d="M25.85 -7.15 Q26.1 -4.95 25.95 -3.2 25.65 0.95 22.2 2.75 18.75 4.45 18.25 2.0 17.3 3.1 15.75 3.6 12.7 4.6 10.0 1.7 8.95 3.0 6.95 3.0 3.0 2.95 -1.55 -3.7 -2.5 -5.05 -1.6 -7.75 -0.8 -10.25 1.15 -12.8 -0.1 -8.75 1.05 -5.85 2.55 -2.0 8.35 -0.75 L9.25 -1.65 Q10.45 -2.6 12.25 -2.75 L17.25 -2.55 Q19.95 -1.95 20.1 -0.25 20.1 0.15 21.05 0.0 22.05 -0.15 23.1 -0.9 26.05 -2.95 25.85 -7.15" fill="#9d5421" fill-rule="evenodd" stroke="none"/>
      <path d="M17.8 -11.4 Q16.3 -9.8 14.8 -9.8 13.5 -9.8 12.0 -11.85 10.4 -14.05 11.7 -15.1 12.7 -15.9 15.05 -15.65 17.45 -15.4 18.4 -14.25 19.35 -13.1 17.8 -11.4" fill="#261308" fill-rule="evenodd" stroke="none"/>
      <path d="M4.3 -13.25 Q7.35 -12.25 3.7 -12.1 -0.1 -11.95 -3.85 -9.65 L-6.85 -7.4 Q-5.2 -10.4 -0.3 -12.1 L4.3 -13.25" fill="#261308" fill-rule="evenodd" stroke="none"/>
      <path d="M3.95 -9.6 Q9.45 -12.55 4.1 -7.9 -1.0 -3.45 -2.9 0.4 L-3.75 3.35 Q-4.6 1.15 -0.4 -4.45 1.7 -7.25 3.95 -9.6" fill="#261308" fill-rule="evenodd" stroke="none"/>
      <path d="M6.15 -6.3 Q6.65 -7.5 7.75 -7.5 8.75 -7.45 6.9 -5.0 2.7 0.55 1.7 4.85 1.2 7.0 1.55 8.0 0.0 6.0 2.8 0.0 L6.15 -6.3" fill="#261308" fill-rule="evenodd" stroke="none"/>
      <path d="M24.35 -6.65 L27.2 -3.35 Q30.15 1.15 30.7 7.15 30.3 4.9 29.2 2.15 27.0 -3.25 23.35 -5.55 21.6 -6.65 22.6 -7.0 23.6 -7.4 24.35 -6.65" fill="#261308" fill-rule="evenodd" stroke="none"/>
      <path d="M24.35 -9.75 L29.65 -8.85 Q35.1 -7.4 35.9 -4.55 35.3 -5.5 33.55 -6.45 30.1 -8.45 24.5 -8.7 22.9 -8.8 23.2 -9.3 23.5 -9.85 24.35 -9.75" fill="#261308" fill-rule="evenodd" stroke="none"/>
      <path d="M23.9 -12.65 L27.4 -12.5 Q31.75 -12.05 35.95 -10.7 L31.6 -11.45 24.5 -11.75 Q22.85 -11.45 22.9 -12.05 23.0 -12.65 23.9 -12.65" fill="#261308" fill-rule="evenodd" stroke="none"/>
      <path d="M17.25 1.45 L17.05 -0.65 15.15 -1.1 13.8 -1.0 Q12.65 0.9 12.8 1.55 12.9 2.25 14.85 2.45 16.9 2.65 17.25 1.45 M17.85 -1.1 L18.0 0.3 18.25 2.0 Q17.0 3.3 15.15 4.0 11.5 5.45 8.8 2.55 L10.3 1.4 13.3 -1.8 15.3 -1.95 Q17.4 -1.95 17.85 -1.1" fill="#68310b" fill-rule="evenodd" stroke="none"/>
      <path d="M17.75 -13.55 L17.15 -12.95 Q16.6 -12.8 15.9 -12.95 15.25 -13.1 14.85 -13.5 14.45 -13.85 14.5 -14.25 14.6 -14.65 15.15 -14.85 L16.35 -14.85 17.45 -14.3 17.75 -13.55" fill="#d0b3a3" fill-rule="evenodd" stroke="none"/>
      <path d="M21.3 -11.2 L21.0 -10.9 Q20.7 -10.9 20.7 -11.2 20.7 -11.5 21.0 -11.5 L21.3 -11.2" fill="#261308" fill-rule="evenodd" stroke="none"/>
      <path d="M22.6 -8.45 L22.4 -8.25 22.15 -8.45 22.4 -8.7 22.6 -8.45" fill="#261308" fill-rule="evenodd" stroke="none"/>
      <path d="M21.0 -6.4 L20.7 -6.1 Q20.4 -6.1 20.4 -6.4 20.4 -6.7 20.7 -6.7 L21.0 -6.4" fill="#261308" fill-rule="evenodd" stroke="none"/>
      <path d="M7.45 -14.5 L7.25 -14.3 7.05 -14.5 7.25 -14.7 7.45 -14.5" fill="#261308" fill-rule="evenodd" stroke="none"/>
      <path d="M5.95 -14.4 L5.7 -14.15 Q5.45 -14.15 5.45 -14.4 L5.7 -14.65 5.95 -14.4" fill="#261308" fill-rule="evenodd" stroke="none"/>
      <path d="M7.75 -11.65 L7.55 -11.45 7.35 -11.65 7.55 -11.85 7.75 -11.65" fill="#261308" fill-rule="evenodd" stroke="none"/>
      <path d="M10.2 -5.4 Q10.2 -5.0 9.8 -5.0 9.45 -5.0 9.45 -5.4 9.45 -5.75 9.8 -5.75 L10.2 -5.4" fill="#261308" fill-rule="evenodd" stroke="none"/>
      <path d="M6.5 -8.3 Q6.5 -8.05 6.3 -8.05 L6.1 -8.3 6.3 -8.5 6.5 -8.3" fill="#261308" fill-rule="evenodd" stroke="none"/>
      <path d="M3.0 -24.2 Q4.15 -24.35 5.4 -22.8 6.65 -21.25 6.2 -20.3 5.6 -18.9 3.15 -18.9 0.7 -18.9 0.55 -20.1 0.4 -21.0 1.05 -22.4 1.85 -24.05 3.0 -24.2" fill="#261308" fill-rule="evenodd" stroke="none"/>
      <path d="M5.15 -21.7 Q5.15 -20.65 4.45 -20.65 3.8 -20.65 3.8 -21.7 L4.0 -22.4 4.45 -22.7 Q5.15 -22.7 5.15 -21.7" fill="#ffffff" fill-rule="evenodd" stroke="none"/>
      <path d="M20.15 -22.4 Q21.15 -22.05 21.55 -20.45 21.85 -19.1 21.55 -18.35 21.15 -17.35 19.05 -17.8 16.9 -18.25 16.6 -19.6 16.4 -20.5 17.8 -21.65 19.2 -22.75 20.15 -22.4" fill="#261308" fill-rule="evenodd" stroke="none"/>
      <path d="M21.1 -20.25 Q21.1 -19.45 20.55 -19.45 20.0 -19.45 20.0 -20.25 20.0 -21.0 20.55 -21.0 21.1 -21.0 21.1 -20.25" fill="#ffffff" fill-rule="evenodd" stroke="none"/>
      <path d="M-9.65 -23.95 Q-9.5 -21.9 -8.35 -19.1 -7.05 -15.9 -6.75 -14.2 -6.5 -12.6 -7.35 -11.45 L-11.25 -7.3 Q-14.1 -4.35 -15.15 -3.65 -15.9 -3.1 -16.45 -3.35 -18.1 -3.95 -20.25 -7.4 -23.0 -11.9 -20.9 -15.65 -19.95 -17.35 -15.95 -19.6 -12.35 -21.6 -12.4 -22.35 L-12.55 -24.3 Q-12.55 -25.0 -11.85 -25.05 -9.75 -25.25 -9.65 -23.95" fill="#a3989e" fill-rule="evenodd" stroke="none"/>
      <path d="M-8.5 -16.15 Q-7.25 -12.7 -8.3 -11.9 -11.0 -9.95 -14.0 -6.85 L-16.45 -4.15 Q-18.05 -5.95 -18.55 -8.25 L-18.7 -10.2 -20.5 -9.9 Q-20.15 -11.75 -19.25 -13.35 L-18.45 -14.6 -20.1 -14.05 Q-19.75 -15.55 -16.15 -18.15 -12.3 -20.9 -10.7 -20.0 -9.75 -19.45 -8.5 -16.15" fill="#f5e5ee" fill-rule="evenodd" stroke="none"/>
    </g>
  </defs>
</svg>
