<?xml version="1.0" encoding="UTF-8" standalone="no"?>
<svg xmlns:ffdec="https://www.free-decompiler.com/flash" xmlns:xlink="http://www.w3.org/1999/xlink" ffdec:objectType="frame" height="124.95px" width="139.55px" xmlns="http://www.w3.org/2000/svg">
  <g transform="matrix(1.0, 0.0, 0.0, 1.0, 65.8, 59.8)">
    <use ffdec:characterId="341" height="48.1" transform="matrix(1.0, 0.0, 0.0, 1.0, -23.3, -16.55)" width="20.8" xlink:href="#shape0"/>
    <use ffdec:characterId="323" height="14.55" transform="matrix(-1.3419, 0.0, 0.0, 1.3441, 22.0558, -29.912)" width="24.55" xlink:href="#shape1"/>
    <use ffdec:characterId="325" height="20.95" transform="matrix(-1.3416, 0.019, 0.019, 1.3438, -19.6607, 11.8328)" width="13.15" xlink:href="#sprite0"/>
    <use ffdec:characterId="327" height="39.95" transform="matrix(-1.3417, -0.0128, -0.0128, 1.3439, 25.0586, 7.2205)" width="20.45" xlink:href="#sprite1"/>
    <use ffdec:characterId="329" height="48.6" transform="matrix(-1.3416, 0.0182, 0.0182, 1.3438, -32.5922, -12.336)" width="19.9" xlink:href="#sprite2"/>
    <use ffdec:characterId="331" height="40.4" transform="matrix(-1.3419, 0.0, 0.0, 1.3441, 39.5822, -24.4511)" width="69.55" xlink:href="#sprite3"/>
    <use ffdec:characterId="333" height="38.85" transform="matrix(-1.3417, 0.0186, 0.0186, 1.3438, -44.4111, -21.1171)" width="15.8" xlink:href="#sprite4"/>
    <use ffdec:characterId="335" height="39.5" transform="matrix(-1.3417, -0.0119, -0.0119, 1.3438, 7.5952, 11.1933)" width="22.6" xlink:href="#sprite5"/>
    <use ffdec:characterId="337" height="54.4" transform="matrix(-1.3416, -0.0177, -0.0177, 1.3438, 72.7634, -56.5388)" width="52.3" xlink:href="#sprite6"/>
    <use ffdec:characterId="342" height="49.0" transform="matrix(1.0, 0.0, 0.0, 1.0, -29.15, -15.3)" width="21.25" xlink:href="#shape9"/>
  </g>
  <defs>
    <g id="shape0" transform="matrix(1.0, 0.0, 0.0, 1.0, 23.3, 16.55)">
      <path d="M-21.6 10.05 Q-20.35 11.6 -18.95 16.4 -17.05 22.95 -16.4 31.35 -16.35 31.95 -14.5 30.6 -12.5 29.15 -10.5 26.9 -4.9 20.55 -6.15 15.65 L-5.45 16.4 Q-4.7 17.35 -4.35 18.35 -4.15 18.95 -3.75 17.05 L-3.15 12.5 Q-2.65 5.1 -4.85 2.5 -5.4 1.85 -4.25 2.55 L-2.55 3.75 Q-2.35 3.9 -2.7 2.5 -3.15 1.0 -3.95 -1.0 -6.25 -6.6 -9.15 -10.0 L-9.45 -10.9 Q-9.65 -12.1 -9.1 -13.8 -8.8 -14.75 -9.85 -15.5 -10.8 -16.15 -12.4 -16.45 L-15.25 -16.4 Q-16.7 -16.1 -17.05 -15.2 L-18.1 -12.15 Q-19.55 -8.4 -21.35 -4.8 -23.4 -0.75 -23.3 3.85 -23.2 8.0 -21.6 10.05" fill="#45464b" fill-rule="evenodd" stroke="none"/>
      <path d="M-20.85 9.0 Q-18.95 11.35 -17.6 14.65 -15.1 20.65 -15.25 27.55 -15.25 28.45 -13.55 26.8 -11.85 25.15 -10.0 22.55 -8.0 19.65 -7.25 17.45 -6.4 14.8 -7.75 14.0 L-6.9 13.9 Q-6.0 13.85 -5.55 14.45 -5.25 14.8 -5.0 13.15 -4.7 11.4 -4.8 9.05 -5.0 2.4 -7.55 -0.75 -8.1 -1.4 -6.4 -0.55 -4.75 0.3 -4.5 0.7 -4.65 -0.15 -5.5 -2.0 -7.25 -5.7 -9.8 -8.7 -10.3 -9.0 -10.6 -9.8 -11.25 -11.3 -10.4 -13.45 -9.75 -15.1 -12.4 -15.7 L-14.35 -15.85 Q-15.35 -15.7 -15.6 -15.2 L-17.2 -11.35 -20.75 -3.65 Q-22.6 -0.05 -22.45 3.75 -22.3 7.1 -20.85 9.0" fill="#8e8d9c" fill-rule="evenodd" stroke="none"/>
      <path d="M-9.1 15.1 Q-9.3 13.85 -10.15 13.0 -10.55 12.55 -10.95 12.4 -10.75 12.2 -9.65 12.7 L-8.6 13.25 Q-9.1 11.8 -12.7 9.85 -15.8 8.2 -16.9 8.05 -18.85 7.8 -19.15 9.25 -19.4 10.8 -17.15 13.0 -15.25 14.9 -14.6 20.35 -14.25 23.1 -14.3 25.4 -8.5 19.15 -9.1 15.1" fill="#d8d9e2" fill-rule="evenodd" stroke="none"/>
      <path d="M-21.05 2.75 Q-21.15 4.4 -20.6 5.5 -20.05 6.65 -19.0 6.35 -15.05 5.3 -10.1 8.7 -7.65 10.4 -6.0 12.3 -5.3 6.65 -7.8 3.9 -9.05 2.55 -10.45 2.3 L-8.85 2.25 -7.75 2.6 Q-10.2 -0.75 -14.25 -1.6 L-17.75 -1.7 Q-19.25 -1.6 -20.15 -0.2 -20.95 1.05 -21.05 2.75" fill="#d8d9e2" fill-rule="evenodd" stroke="none"/>
      <path d="M-6.85 -1.85 Q-8.5 -5.4 -11.65 -8.0 -13.35 -9.35 -14.9 -10.1 -15.55 -10.4 -16.45 -9.3 L-17.9 -6.75 Q-18.55 -5.25 -18.6 -4.3 -18.6 -3.3 -17.8 -3.75 -16.1 -4.7 -11.3 -3.4 L-6.85 -1.85" fill="#d8d9e2" fill-rule="evenodd" stroke="none"/>
      <path d="M-17.75 -10.0 Q-15.8 -12.75 -13.6 -12.85 -12.05 -12.9 -10.9 -11.8 L-10.45 -13.45 Q-9.8 -15.1 -12.4 -15.75 L-14.35 -15.85 Q-15.35 -15.7 -15.6 -15.2 L-16.3 -13.5 -17.75 -10.0" fill="#636472" fill-rule="evenodd" stroke="none"/>
    </g>
    <g id="shape1" transform="matrix(1.0, 0.0, 0.0, 1.0, 12.3, 7.3)">
      <path d="M-0.8 -1.3 Q-0.15 0.75 -0.55 2.8 L1.25 -1.55 Q2.55 0.75 2.05 2.7 L3.6 -1.3 Q5.1 0.2 4.8 2.35 L5.85 -0.8 6.85 1.8 8.05 -1.05 8.8 0.85 9.95 -1.15 10.45 0.05 11.4 -1.05 11.7 -0.3 11.0 0.2 10.1 0.35 9.75 0.5 9.75 0.4 9.75 0.25 9.75 0.15 9.55 -0.15 9.4 0.25 9.15 0.65 Q8.8 1.1 8.5 0.9 L8.15 0.25 8.05 0.5 7.3 1.8 6.45 2.4 6.2 2.05 6.1 1.25 6.1 0.6 4.4 3.05 Q4.1 2.6 4.05 2.0 L3.85 0.25 Q3.4 0.6 3.15 1.2 2.7 2.55 1.55 3.2 L1.45 2.85 Q1.2 2.35 1.25 1.8 L1.25 0.5 0.25 2.05 -0.6 3.05 -1.35 3.05 -1.35 2.95 Q-1.6 2.05 -1.45 1.1 L-0.8 -1.3 M-10.0 -3.4 L-6.9 -7.3 Q-5.95 -3.7 -6.9 -0.05 L-3.55 -4.3 -3.35 -2.95 -3.55 -2.7 Q-5.65 -0.55 -8.0 1.25 L-8.1 0.75 -7.35 -4.7 -10.0 -3.4 M-3.35 -1.7 Q-3.4 -0.65 -3.7 0.45 -3.0 -0.9 -1.2 -2.25 L-0.85 -1.45 -1.75 -0.6 -4.55 1.45 -3.7 -1.0 -3.35 -1.7" fill="#666666" fill-rule="evenodd" stroke="none"/>
      <path d="M-0.8 -1.3 L-1.45 1.1 Q-1.6 2.05 -1.35 2.95 L-1.35 3.05 -0.6 3.05 0.25 2.05 1.25 0.5 1.25 1.8 Q1.2 2.35 1.45 2.85 L1.55 3.2 Q2.7 2.55 3.15 1.2 3.4 0.6 3.85 0.25 L4.05 2.0 Q4.1 2.6 4.4 3.05 L6.1 0.6 6.1 1.25 6.2 2.05 6.45 2.4 7.3 1.8 8.05 0.5 8.15 0.25 8.5 0.9 Q8.8 1.1 9.15 0.65 L9.4 0.25 9.55 -0.15 9.75 0.15 9.75 0.25 9.75 0.4 9.75 0.5 10.1 0.35 11.0 0.2 11.7 -0.3 12.25 0.95 Q6.95 6.65 1.4 7.2 -8.75 7.9 -12.3 -0.45 L-10.0 -3.4 -7.35 -4.7 -8.1 0.75 -8.0 1.25 Q-5.65 -0.55 -3.55 -2.7 L-3.35 -2.95 -3.35 -1.7 -3.7 -1.0 -4.55 1.45 -1.75 -0.6 -0.85 -1.45 -0.8 -1.3" fill="#000000" fill-rule="evenodd" stroke="none"/>
    </g>
    <g id="sprite0" transform="matrix(1.0, 0.0, 0.0, 1.0, 6.55, 10.45)">
      <use ffdec:characterId="324" height="20.95" transform="matrix(1.0, 0.0, 0.0, 1.0, -6.55, -10.45)" width="13.15" xlink:href="#shape2"/>
    </g>
    <g id="shape2" transform="matrix(1.0, 0.0, 0.0, 1.0, 6.55, 10.45)">
      <path d="M-1.15 -3.1 L-1.2 -3.1 -1.4 -3.05 -2.2 -3.1 -2.0 -5.0 -1.05 -5.15 -1.1 -4.8 Q-1.05 -4.0 -1.15 -3.1 M-1.55 -2.8 L-1.55 -2.7 -1.65 -2.0 Q-2.75 -0.3 -4.0 2.85 -3.7 -0.3 -2.45 -1.95 L-1.55 -2.8 M4.65 2.0 L2.8 -0.95 1.8 -2.5 1.55 -2.85 1.1 -3.35 1.1 -3.4 1.55 -3.45 1.55 -3.4 1.65 -3.3 3.55 -10.25 -3.05 -10.15 Q-1.45 -8.05 -1.15 -5.95 L-1.1 -5.85 -2.05 -6.2 Q-2.4 -8.3 -3.9 -10.4 L4.7 -10.45 4.55 -10.2 Q2.6 -6.7 1.9 -3.1 3.15 -2.15 3.8 -1.05 4.5 0.3 4.65 2.0" fill="#3d3532" fill-rule="evenodd" stroke="none"/>
      <path d="M-1.45 0.6 L-0.55 2.0 0.3 2.9 1.1 2.55 1.95 1.25 Q1.25 -0.45 0.7 -2.1 L0.55 -2.6 0.35 -3.25 0.6 -3.3 1.45 -8.65 1.2 -9.3 -0.15 -9.45 -0.45 -9.25 -0.5 -8.85 Q-0.5 -7.0 0.15 -5.4 L-1.1 -5.85 -1.15 -5.95 Q-1.45 -8.05 -3.05 -10.15 L3.55 -10.25 1.65 -3.3 1.55 -3.4 1.55 -3.45 1.1 -3.4 1.1 -3.35 1.55 -2.85 1.8 -2.5 2.8 -0.95 4.65 2.0 3.9 2.5 Q2.45 3.4 0.95 3.65 L0.0 3.8 -4.0 2.85 Q-2.75 -0.3 -1.65 -2.0 L-1.55 -2.7 -1.55 -2.8 -1.25 -3.05 -1.2 -3.1 -1.15 -3.1 -0.85 -3.15 -1.45 -0.35 -2.75 0.75 -1.45 0.6" fill="#4a413e" fill-rule="evenodd" stroke="none"/>
      <path d="M0.15 -5.4 Q-0.5 -7.0 -0.5 -8.85 L-0.45 -9.25 -0.15 -9.45 1.2 -9.3 1.45 -8.65 0.6 -3.3 0.35 -3.25 0.55 -2.6 0.7 -2.1 Q1.25 -0.45 1.95 1.25 L1.1 2.55 0.3 2.9 -0.55 2.0 -1.45 0.6 -0.6 0.2 -0.05 -1.65 -1.45 -0.35 -0.85 -3.15 -0.25 -3.2 0.15 -5.3 0.15 -5.4" fill="#71615b" fill-rule="evenodd" stroke="none"/>
      <path d="M-1.45 0.6 L-2.75 0.75 -1.45 -0.35 -0.05 -1.65 -0.6 0.2 -1.45 0.6 M-1.2 -3.1 L-1.25 -3.05 -1.55 -2.8 -2.45 -1.95 -2.2 -3.1 -1.4 -3.05 -1.2 -3.1 M-1.1 -5.85 L0.15 -5.4 0.15 -5.3 -1.05 -5.15 -2.0 -5.0 -2.05 -6.2 -1.1 -5.85" fill="#0b0300" fill-rule="evenodd" stroke="none"/>
      <path d="M-0.85 -3.15 L-1.15 -3.1 Q-1.05 -4.0 -1.1 -4.8 L-1.05 -5.15 0.15 -5.3 -0.25 -3.2 -0.85 -3.15" fill="#594f48" fill-rule="evenodd" stroke="none"/>
      <path d="M-4.0 2.85 L0.0 3.8 0.95 3.65 Q2.45 3.4 3.9 2.5 L4.65 2.0 4.8 2.45 Q6.15 4.9 6.6 7.8 2.75 9.9 -0.7 10.45 L-1.55 10.5 Q-4.15 10.65 -6.55 9.8 -6.5 5.3 -4.4 3.2 L-4.0 2.85 M-2.65 4.55 L-4.0 4.25 Q-5.8 7.15 -5.45 9.1 -4.1 9.8 -2.7 9.5 -3.6 7.35 -2.65 4.55" fill="#0b090c" fill-rule="evenodd" stroke="none"/>
      <path d="M-2.65 4.55 Q-3.6 7.35 -2.7 9.5 -4.1 9.8 -5.45 9.1 -5.8 7.15 -4.0 4.25 L-2.65 4.55" fill="#666666" fill-rule="evenodd" stroke="none"/>
    </g>
    <g id="sprite1" transform="matrix(1.0, 0.0, 0.0, 1.0, 10.25, 19.95)">
      <use ffdec:characterId="326" height="39.95" transform="matrix(1.0, 0.0, 0.0, 1.0, -10.25, -19.95)" width="20.45" xlink:href="#shape3"/>
    </g>
    <g id="shape3" transform="matrix(1.0, 0.0, 0.0, 1.0, 10.25, 19.95)">
      <path d="M7.05 -19.8 Q6.9 -17.7 5.9 -15.1 L4.9 -12.5 Q4.35 -11.4 4.25 -9.25 L4.2 -8.95 Q2.6 -8.55 1.25 -7.1 2.75 -7.85 4.1 -8.0 L3.25 -4.65 Q1.5 -3.65 1.05 -1.25 1.65 -2.9 2.7 -3.2 L1.75 -0.7 Q1.35 0.35 1.25 2.0 L1.1 1.65 0.85 1.75 1.25 2.55 1.5 3.0 1.75 3.35 Q1.4 3.75 1.4 4.4 L1.0 3.75 0.7 3.35 0.1 2.35 -0.05 2.15 0.05 2.15 -0.15 1.0 -0.3 -0.15 -0.15 -0.45 -0.35 -0.35 Q-0.5 -3.15 0.75 -5.7 1.1 -6.4 0.9 -7.25 0.35 -9.1 -1.6 -9.4 L-2.5 -9.1 -3.35 -7.0 Q-4.5 -7.5 -5.6 -8.65 L-5.55 -9.15 -5.55 -9.25 Q-6.5 -10.1 -8.2 -13.65 L-10.25 -18.6 7.1 -19.95 7.05 -19.8 M-0.85 7.5 L-0.65 9.95 -0.15 10.15 Q1.3 9.65 2.4 8.45 3.15 7.4 2.5 6.15 L1.8 4.95 2.5 4.0 4.05 5.5 Q4.95 6.55 5.5 8.1 L5.5 8.15 Q2.5 12.25 -2.5 11.75 L-3.0 9.45 -3.0 7.85 Q-2.2 7.3 -0.85 7.5 M-3.5 -6.55 Q-3.8 -4.75 -3.35 -3.2 -4.45 -3.5 -5.45 -4.25 -5.85 -5.65 -5.8 -7.15 -4.75 -6.55 -3.5 -6.55 M-3.15 -2.75 L-2.9 -2.1 -2.4 -1.25 -1.85 0.0 -2.85 -0.2 -2.9 -0.4 Q-4.2 -1.55 -4.85 -2.95 L-3.15 -2.75 M-2.45 1.1 L-1.65 0.85 -1.6 1.25 -1.55 2.85 -1.75 2.95 -1.5 3.35 -1.45 3.45 -1.55 3.5 -1.7 3.55 -2.15 3.65 -2.15 3.55 -2.25 3.2 -2.1 3.1 Q-2.15 2.15 -2.45 1.1 M-1.1 4.25 Q-0.75 5.3 -0.9 6.45 L-0.85 7.4 Q-1.8 6.7 -2.7 7.0 L-2.35 5.5 -2.1 4.6 Q-1.65 4.35 -1.1 4.25" fill="#4a413e" fill-rule="evenodd" stroke="none"/>
      <path d="M4.2 -8.95 L4.25 -9.25 Q4.35 -11.4 4.9 -12.5 L5.9 -15.1 Q6.9 -17.7 7.05 -19.8 7.0 -14.95 5.05 -10.45 5.75 -8.65 4.7 -6.0 L2.7 -1.9 2.7 -1.85 Q1.6 0.55 1.5 2.4 2.05 3.25 2.85 3.75 4.25 4.45 4.85 5.5 5.45 6.6 5.5 8.1 4.95 6.55 4.05 5.5 L2.5 4.0 2.55 3.85 1.85 3.25 1.75 3.35 1.5 3.0 1.25 2.55 0.85 1.75 1.1 1.65 1.25 2.0 Q1.35 0.35 1.75 -0.7 L2.7 -3.2 3.15 -3.3 3.95 -5.0 3.25 -4.65 4.1 -8.0 5.05 -8.05 5.1 -9.15 4.2 -8.95 M-10.25 -18.6 L-8.2 -13.65 Q-6.5 -10.1 -5.55 -9.25 L-5.55 -9.15 -5.6 -8.65 -6.05 -9.05 -6.25 -7.45 -5.8 -7.15 Q-5.85 -5.65 -5.45 -4.25 L-6.4 -5.25 -6.35 -4.7 -5.95 -3.3 Q-5.45 -3.05 -4.85 -2.95 -4.2 -1.55 -2.9 -0.4 L-2.85 -0.2 -3.15 -0.3 -2.7 1.1 -2.45 1.1 Q-2.15 2.15 -2.1 3.1 L-2.25 3.2 -2.15 3.55 -2.15 3.65 -2.45 3.85 -2.45 4.8 -2.1 4.6 -2.35 5.5 -2.7 7.0 -2.85 7.0 -3.05 7.9 -3.0 7.85 -3.0 9.45 -2.5 11.75 Q-3.45 10.65 -3.5 9.35 -3.65 7.45 -2.8 5.75 -2.3 4.7 -2.65 3.35 L-2.55 3.35 Q-2.5 1.9 -3.3 -0.15 -6.2 -2.1 -6.6 -4.7 L-6.25 -8.95 Q-8.25 -10.9 -9.25 -13.75 -9.85 -15.6 -10.25 -18.6" fill="#3d3532" fill-rule="evenodd" stroke="none"/>
      <path d="M-5.6 -8.65 Q-4.5 -7.5 -3.35 -7.0 L-2.1 -6.7 -3.5 -6.55 Q-4.75 -6.55 -5.8 -7.15 L-6.25 -7.45 -6.05 -9.05 -5.6 -8.65 M-0.35 -0.35 L-0.15 -0.45 -0.3 -0.15 -1.65 0.85 -2.45 1.1 -2.7 1.1 -3.15 -0.3 -2.85 -0.2 -1.85 0.0 Q-1.05 0.0 -0.35 -0.35 M1.4 4.4 Q1.4 3.75 1.75 3.35 L1.85 3.25 2.55 3.85 2.5 4.0 1.8 4.95 1.55 5.4 1.4 4.4 M2.7 -3.2 Q1.65 -2.9 1.05 -1.25 1.5 -3.65 3.25 -4.65 L3.95 -5.0 3.15 -3.3 2.7 -3.2 M4.1 -8.0 Q2.75 -7.85 1.25 -7.1 2.6 -8.55 4.2 -8.95 L5.1 -9.15 5.05 -8.05 4.1 -8.0 M-0.85 7.5 Q-2.2 7.3 -3.0 7.85 L-3.05 7.9 -2.85 7.0 -2.7 7.0 Q-1.8 6.7 -0.85 7.4 -0.7 7.45 -0.6 7.6 L-0.85 7.5 M-3.35 -3.2 L-2.1 -2.95 -3.15 -2.75 -4.85 -2.95 Q-5.45 -3.05 -5.95 -3.3 L-6.35 -4.7 -6.4 -5.25 -5.45 -4.25 Q-4.45 -3.5 -3.35 -3.2 M-2.15 3.65 L-1.7 3.55 -1.55 3.5 -1.45 3.45 -1.0 3.5 Q-0.3 3.6 0.3 4.3 L-1.1 4.25 Q-1.65 4.35 -2.1 4.6 L-2.45 4.8 -2.45 3.85 -2.15 3.65" fill="#0b0300" fill-rule="evenodd" stroke="none"/>
      <path d="M-3.35 -7.0 L-2.5 -9.1 -1.6 -9.4 Q0.35 -9.1 0.9 -7.25 1.1 -6.4 0.75 -5.7 -0.5 -3.15 -0.35 -0.35 -1.05 0.0 -1.85 0.0 L-2.4 -1.25 -2.9 -2.1 -3.15 -2.75 -2.1 -2.95 -3.35 -3.2 Q-3.8 -4.75 -3.5 -6.55 L-2.1 -6.7 -3.35 -7.0 M-0.3 -0.15 L-0.15 1.0 0.05 2.15 -0.05 2.15 0.1 2.35 0.7 3.35 1.0 3.75 1.4 4.4 1.55 5.4 1.8 4.95 2.5 6.15 Q3.15 7.4 2.4 8.45 1.3 9.65 -0.15 10.15 L-0.65 9.95 -0.85 7.5 -0.6 7.6 Q-0.7 7.45 -0.85 7.4 L-0.9 6.45 Q-0.75 5.3 -1.1 4.25 L0.3 4.3 Q-0.3 3.6 -1.0 3.5 L-1.45 3.45 -1.5 3.35 -1.75 2.95 -1.55 2.85 -1.6 1.25 -1.65 0.85 -0.3 -0.15" fill="#71615b" fill-rule="evenodd" stroke="none"/>
      <path d="M5.5 8.1 L5.55 8.1 Q7.65 9.0 10.2 13.05 5.2 19.9 -2.4 20.0 -4.25 15.35 -2.5 11.75 2.5 12.25 5.5 8.15 L5.5 8.1 M-2.0 12.4 Q-3.0 16.5 -1.85 18.75 0.15 19.0 1.55 18.1 -0.25 15.9 -0.25 12.25 L-2.0 12.4" fill="#0b090c" fill-rule="evenodd" stroke="none"/>
      <path d="M-2.0 12.4 L-0.25 12.25 Q-0.25 15.9 1.55 18.1 0.15 19.0 -1.85 18.75 -3.0 16.5 -2.0 12.4" fill="#666666" fill-rule="evenodd" stroke="none"/>
    </g>
    <g id="sprite2" transform="matrix(1.0, 0.0, 0.0, 1.0, 9.95, 24.3)">
      <use ffdec:characterId="328" height="48.6" transform="matrix(1.0, 0.0, 0.0, 1.0, -9.95, -24.3)" width="19.9" xlink:href="#shape4"/>
    </g>
    <g id="shape4" transform="matrix(1.0, 0.0, 0.0, 1.0, 9.95, 24.3)">
      <path d="M-9.8 -10.0 Q-10.0 -12.1 -8.5 -16.15 -6.2 -22.15 -1.6 -23.65 L4.9 -24.2 5.6 -23.45 Q6.15 -22.5 6.2 -20.8 L6.2 -20.6 6.15 -19.05 6.05 -20.25 Q4.45 -14.7 2.05 -12.0 L2.15 -13.7 1.05 -13.7 Q-1.9 -10.45 -5.9 -9.95 -4.55 -13.75 -5.5 -17.8 -5.8 -11.35 -9.15 -6.7 L-9.8 -10.0 M6.05 -17.65 L5.3 -13.55 Q4.15 -8.45 0.0 -3.85 L3.05 -7.15 4.5 -8.45 4.25 -5.05 Q2.95 -3.15 1.5 -2.5 L1.6 -3.2 0.8 -3.05 Q-0.6 -2.65 -1.65 -1.6 L-1.45 -2.5 Q-2.4 -0.5 -3.95 0.4 -4.5 -0.85 -5.2 -1.5 L-5.85 -1.65 Q-4.55 -2.75 -3.95 -4.45 0.95 -6.05 1.95 -11.1 4.25 -12.65 6.05 -17.65 M3.8 -3.2 L3.3 -1.7 2.25 1.65 1.55 2.15 2.2 2.2 Q1.65 4.8 1.9 6.6 L2.05 7.3 1.95 7.3 2.1 7.45 2.3 7.7 2.65 8.1 2.4 8.3 1.25 8.9 1.0 9.0 Q2.0 9.45 2.9 9.0 L3.2 8.8 3.4 9.0 3.4 9.05 6.55 12.8 6.55 12.85 Q2.9 17.1 -2.85 15.85 L-2.95 15.8 -3.0 15.8 Q-3.85 13.4 -2.95 10.95 -1.7 10.65 -1.2 9.25 -0.7 11.55 -0.5 13.9 L0.05 14.0 2.15 13.85 2.7 13.0 Q2.7 11.9 1.8 11.2 0.65 10.15 0.05 8.8 L-0.2 8.35 -0.25 8.2 -0.35 7.9 0.3 7.75 Q0.65 2.7 1.45 -2.25 2.45 -1.95 3.8 -3.2 M-2.3 9.35 L-2.5 8.95 -2.55 8.65 -2.65 8.5 -2.2 8.4 -2.35 7.3 Q-1.6 7.3 -0.9 6.65 L-0.9 8.05 -1.0 8.05 -1.2 8.1 -1.5 8.2 -1.4 8.5 -1.5 8.7 -1.5 8.75 -2.3 9.35 M-2.5 6.35 L-2.75 4.9 -2.9 4.1 Q-1.95 3.95 -1.05 3.35 L-0.9 6.15 -2.5 6.35 M-3.2 2.85 L-3.55 1.45 Q-2.4 0.3 -1.8 -1.15 -1.4 0.6 -1.15 2.45 L-3.2 2.85 M-6.85 -2.4 L-8.35 -4.75 -8.5 -5.05 Q-7.6 -6.25 -6.95 -7.5 -6.5 -5.75 -5.15 -4.3 L-5.1 -4.3 Q-5.85 -3.25 -6.85 -2.4" fill="#7a6c63" fill-rule="evenodd" stroke="none"/>
      <path d="M6.2 -20.6 Q7.05 -14.7 4.75 -9.75 6.0 -6.2 4.05 -0.8 3.35 1.1 2.75 3.35 2.1 5.85 2.3 6.5 L2.5 7.15 3.3 7.45 3.95 8.05 Q5.5 9.35 6.2 11.15 6.75 12.6 6.55 12.8 L3.4 9.05 3.4 9.0 3.2 8.8 3.3 8.7 3.8 8.2 2.95 7.7 2.85 7.85 2.65 8.1 2.3 7.7 2.1 7.45 1.95 7.3 2.05 7.3 1.9 6.6 Q1.65 4.8 2.2 2.2 L2.6 2.3 3.1 1.0 2.25 1.65 3.3 -1.7 3.8 -3.2 4.75 -4.3 4.95 -6.2 4.25 -5.05 4.5 -8.45 4.8 -8.7 4.5 -9.8 2.5 -6.6 3.05 -7.15 0.0 -3.85 Q4.15 -8.45 5.3 -13.55 L6.05 -17.65 6.2 -18.3 6.15 -19.05 6.2 -20.6 M-3.0 15.8 Q-3.55 15.15 -3.85 13.9 -4.45 11.6 -3.2 9.4 L-3.3 9.15 -2.95 8.55 Q-3.05 2.35 -6.75 -0.9 L-6.8 -0.9 Q-9.8 -2.65 -9.9 -5.4 -10.05 -7.85 -9.8 -10.0 L-9.15 -6.7 -9.7 -6.0 -9.65 -5.4 -9.35 -3.95 -8.5 -5.05 -8.35 -4.75 -6.85 -2.4 -7.7 -1.8 -6.65 -1.1 -5.85 -1.65 -5.2 -1.5 Q-4.5 -0.85 -3.95 0.4 L-4.85 0.85 -4.25 1.95 -3.55 1.45 -3.2 2.85 -3.85 2.85 -3.35 4.1 -2.9 4.1 -2.75 4.9 -2.5 6.35 -2.85 6.2 -2.8 7.2 -2.35 7.3 -2.2 8.4 -2.65 8.5 -2.55 8.65 -2.5 8.95 -2.3 9.35 -2.95 9.45 -3.55 11.0 -2.95 10.95 Q-3.85 13.4 -3.0 15.8" fill="#3d3532" fill-rule="evenodd" stroke="none"/>
      <path d="M-9.15 -6.7 Q-5.8 -11.35 -5.5 -17.8 -4.55 -13.75 -5.9 -9.95 L-6.95 -7.5 Q-7.6 -6.25 -8.5 -5.05 L-9.35 -3.95 -9.65 -5.4 -9.7 -6.0 -9.15 -6.7 M2.05 -12.0 Q4.45 -14.7 6.05 -20.25 L6.15 -19.05 6.2 -18.3 6.05 -17.65 Q4.25 -12.65 1.95 -11.1 1.05 -10.55 0.15 -10.45 L2.05 -12.0 M3.05 -7.15 L2.5 -6.6 4.5 -9.8 4.8 -8.7 4.5 -8.45 3.05 -7.15 M4.25 -5.05 L4.95 -6.2 4.75 -4.3 3.8 -3.2 Q2.45 -1.95 1.45 -2.25 L1.1 -2.35 1.5 -2.5 Q2.95 -3.15 4.25 -5.05 M2.25 1.65 L3.1 1.0 2.6 2.3 2.2 2.2 1.55 2.15 2.25 1.65 M2.65 8.1 L2.85 7.85 2.95 7.7 3.8 8.2 3.3 8.7 3.2 8.8 2.9 9.0 Q2.0 9.45 1.0 9.0 L1.25 8.9 2.4 8.3 2.65 8.1 M-2.95 10.95 L-3.55 11.0 -2.95 9.45 -2.3 9.35 -1.5 8.75 -1.5 8.7 -1.4 8.5 -1.2 8.1 -1.0 8.05 -1.1 8.55 -1.1 8.75 -1.2 9.25 Q-1.7 10.65 -2.95 10.95 M-2.35 7.3 L-2.8 7.2 -2.85 6.2 -2.5 6.35 -0.9 6.15 0.15 5.15 -0.9 6.65 Q-1.6 7.3 -2.35 7.3 M-2.9 4.1 L-3.35 4.1 -3.85 2.85 -3.2 2.85 -1.15 2.45 Q-0.25 2.1 0.5 1.45 -0.2 2.65 -1.05 3.35 -1.95 3.95 -2.9 4.1 M-3.55 1.45 L-4.25 1.95 -4.85 0.85 -3.95 0.4 Q-2.4 -0.5 -1.45 -2.5 L-1.65 -1.6 -1.8 -1.15 Q-2.4 0.3 -3.55 1.45 M-5.85 -1.65 L-6.65 -1.1 -7.7 -1.8 -6.85 -2.4 Q-5.85 -3.25 -5.1 -4.3 -3.85 -6.15 -3.4 -8.65 -3.35 -6.2 -3.95 -4.45 -4.55 -2.75 -5.85 -1.65" fill="#0b0300" fill-rule="evenodd" stroke="none"/>
      <path d="M-5.9 -9.95 Q-1.9 -10.45 1.05 -13.7 L2.15 -13.7 2.05 -12.0 0.15 -10.45 Q1.05 -10.55 1.95 -11.1 0.95 -6.05 -3.95 -4.45 -3.35 -6.2 -3.4 -8.65 -3.85 -6.15 -5.1 -4.3 L-5.15 -4.3 Q-6.5 -5.75 -6.95 -7.5 L-5.9 -9.95 M1.5 -2.5 L1.1 -2.35 1.45 -2.25 Q0.65 2.7 0.3 7.75 L-0.35 7.9 -0.25 8.2 -0.2 8.35 0.05 8.8 Q0.65 10.15 1.8 11.2 2.7 11.9 2.7 13.0 L2.15 13.85 0.05 14.0 -0.5 13.9 Q-0.7 11.55 -1.2 9.25 L-1.1 8.75 -1.1 8.55 -1.0 8.05 -0.9 8.05 -0.9 6.65 0.15 5.15 -0.9 6.15 -1.05 3.35 Q-0.2 2.65 0.5 1.45 -0.25 2.1 -1.15 2.45 -1.4 0.6 -1.8 -1.15 L-1.65 -1.6 Q-0.6 -2.65 0.8 -3.05 L1.6 -3.2 1.5 -2.5 M-1.4 8.5 L-1.5 8.2 -1.2 8.1 -1.4 8.5" fill="#988781" fill-rule="evenodd" stroke="none"/>
      <path d="M6.55 12.8 Q8.9 14.95 9.95 19.15 7.35 21.0 5.05 22.15 0.6 24.4 -3.15 24.3 L-5.25 24.05 Q-5.85 18.25 -3.0 15.8 L-2.95 15.8 -2.85 15.85 Q2.9 17.1 6.55 12.85 L6.55 12.8 M-1.25 16.65 L-3.0 16.45 Q-4.7 20.45 -4.0 22.8 -2.05 23.4 -0.55 22.85 -1.95 20.3 -1.25 16.65" fill="#0b090c" fill-rule="evenodd" stroke="none"/>
      <path d="M-1.25 16.65 Q-1.95 20.3 -0.55 22.85 -2.05 23.4 -4.0 22.8 -4.7 20.45 -3.0 16.45 L-1.25 16.65" fill="#666666" fill-rule="evenodd" stroke="none"/>
    </g>
    <g id="sprite3" transform="matrix(1.0, 0.0, 0.0, 1.0, 34.75, 20.2)">
      <use ffdec:characterId="330" height="40.4" transform="matrix(1.0, 0.0, 0.0, 1.0, -34.75, -20.2)" width="69.55" xlink:href="#shape5"/>
    </g>
    <g id="shape5" transform="matrix(1.0, 0.0, 0.0, 1.0, 34.75, 20.2)">
      <path d="M-19.3 -14.65 L-13.85 -11.25 -13.6 -11.15 Q-10.75 -10.1 -8.6 -10.1 -6.15 -10.05 -4.15 -11.25 1.45 -14.8 5.95 -16.75 10.1 -18.55 13.7 -19.15 L15.25 -19.4 Q21.75 -20.1 26.3 -18.05 L26.9 -17.55 31.9 -13.9 32.65 -13.0 Q32.7 -12.4 29.4 -13.55 21.75 -16.25 16.15 -13.65 10.55 -11.05 5.4 -8.0 0.25 -5.05 -7.3 -5.0 -14.8 -4.95 -18.6 -9.05 -22.45 -13.2 -19.3 -14.65" fill="#988781" fill-rule="evenodd" stroke="none"/>
      <path d="M-19.3 -14.65 Q-22.45 -13.2 -18.6 -9.05 -14.8 -4.95 -7.3 -5.0 0.25 -5.05 5.4 -8.0 10.55 -11.05 16.15 -13.65 21.75 -16.25 29.4 -13.55 32.7 -12.4 32.65 -13.0 33.8 -11.4 34.4 -9.65 L34.75 -8.5 33.45 -7.9 Q24.3 -3.85 23.45 -4.0 L23.3 -4.1 Q14.95 6.05 1.5 9.9 -11.9 13.8 -19.2 4.2 -26.45 -5.3 -31.9 -10.0 L-22.55 -18.35 Q-20.9 -16.05 -19.3 -14.65 M31.9 -13.9 L26.9 -17.55 26.3 -18.05 28.25 -17.0 Q30.45 -15.6 31.9 -13.9" fill="#7a6c63" fill-rule="evenodd" stroke="none"/>
      <path d="M26.3 -18.05 Q21.75 -20.1 15.25 -19.4 L13.7 -19.15 Q10.1 -18.55 5.95 -16.75 1.45 -14.8 -4.15 -11.25 -6.15 -10.05 -8.6 -10.1 -10.75 -10.1 -13.6 -11.15 L-13.85 -11.25 -19.3 -14.65 Q-20.9 -16.05 -22.55 -18.35 L-22.45 -18.4 -22.35 -18.4 -22.25 -18.3 Q-19.7 -15.3 -16.85 -13.5 L-16.45 -13.25 -13.45 -11.8 Q-8.45 -9.95 -4.45 -12.4 6.25 -19.05 15.25 -20.05 23.1 -20.9 28.5 -17.4 33.35 -14.3 34.75 -8.8 L34.8 -8.5 Q34.85 -8.25 34.75 -8.5 L34.4 -9.65 Q33.8 -11.4 32.65 -13.0 L31.9 -13.9 Q30.45 -15.6 28.25 -17.0 L26.3 -18.05 M23.3 -4.1 L23.45 -4.0 Q23.8 -0.45 23.05 2.3 21.85 6.55 18.35 10.3 14.75 14.1 9.0 16.9 2.1 20.2 -3.85 20.2 -9.85 20.15 -14.75 16.85 -19.65 13.5 -23.85 6.35 -26.7 1.85 -29.15 -1.25 -31.9 -4.75 -34.65 -7.2 L-34.75 -7.3 -34.75 -7.4 -34.65 -7.55 Q-28.35 -2.25 -23.1 6.1 -19.3 12.65 -14.45 15.95 L-14.3 16.1 Q-4.75 22.5 8.8 16.15 20.2 10.45 22.5 2.15 23.55 -1.65 23.3 -4.1" fill="#3d3532" fill-rule="evenodd" stroke="none"/>
      <path d="M-14.45 15.95 Q-19.3 12.65 -23.1 6.1 -28.35 -2.25 -34.65 -7.55 L-31.9 -10.0 Q-26.45 -5.3 -19.2 4.2 -11.9 13.8 1.5 9.9 14.95 6.05 23.3 -4.1 20.45 1.4 16.7 5.25 12.65 9.4 8.1 11.0 4.55 12.5 0.9 13.0 -2.75 13.45 -5.4 12.9 -8.05 12.35 -11.05 12.8 -14.05 13.25 -14.45 15.95" fill="#5c534e" fill-rule="evenodd" stroke="none"/>
      <path d="M23.3 -4.1 Q23.55 -1.65 22.5 2.15 20.2 10.45 8.8 16.15 -4.75 22.5 -14.3 16.1 L-14.45 15.95 Q-14.05 13.25 -11.05 12.8 -8.05 12.35 -5.4 12.9 -2.75 13.45 0.9 13.0 4.55 12.5 8.1 11.0 12.65 9.4 16.7 5.25 20.45 1.4 23.3 -4.1" fill="#dbd3d0" fill-rule="evenodd" stroke="none"/>
      <path d="M19.35 -19.95 Q20.9 -19.15 22.2 -18.15 L24.05 -16.5 Q25.65 -14.9 26.85 -12.85 L23.2 -16.15 20.55 -18.0 Q18.7 -19.15 16.65 -19.95 L19.35 -19.95 M14.55 -16.9 L12.8 -19.45 13.85 -19.65 15.65 -17.15 Q16.55 -15.65 17.1 -13.95 18.0 -11.1 17.95 -7.75 17.4 -10.9 16.2 -13.75 L14.55 -16.9 M10.9 -15.9 Q12.0 -14.55 12.65 -12.9 13.95 -9.8 13.6 -5.9 12.95 -9.85 11.5 -12.6 10.65 -14.25 9.45 -15.5 8.15 -16.85 6.55 -17.65 L8.5 -18.35 10.9 -15.9 M4.45 -16.85 L6.05 -14.2 7.35 -11.1 Q8.45 -7.55 8.25 -3.55 7.75 -7.5 6.3 -10.65 L4.7 -13.6 2.75 -16.05 4.45 -16.85 M2.6 -0.45 Q1.45 -4.0 -0.45 -6.55 -1.95 -8.6 -3.9 -10.0 -4.95 -10.75 -6.15 -11.3 -5.2 -11.65 -4.3 -12.2 L-3.6 -12.65 -1.5 -10.6 Q-0.25 -9.05 0.7 -7.25 2.15 -4.25 2.6 -0.45 M0.8 -11.6 L-1.3 -14.0 Q-0.8 -14.3 -0.25 -14.55 L1.75 -12.15 3.75 -9.25 Q8.0 -2.35 6.35 3.8 6.7 -2.7 2.85 -8.7 L0.8 -11.6 M17.9 1.3 L17.9 -6.2 Q19.05 -3.0 17.9 1.3 M10.2 -3.45 Q11.8 4.95 8.45 9.0 9.85 3.25 10.2 -3.45 M14.3 4.5 Q15.25 -0.45 14.3 -4.8 16.4 -0.6 14.3 4.5 M-28.2 -0.7 L-28.75 -1.4 -26.1 -3.0 -28.2 -0.7 M-23.25 -7.3 L-21.45 -9.45 Q-20.65 -10.6 -20.15 -11.75 -19.5 -13.35 -19.25 -15.0 L-18.4 -14.3 -19.4 -11.8 -21.1 -9.2 Q-22.05 -8.1 -23.25 -7.3 M-11.05 -10.9 L-11.05 -10.7 Q-11.2 -8.55 -12.45 -7.15 -11.65 -9.1 -11.7 -10.9 L-11.7 -11.05 -11.05 -10.9 M-12.35 -11.1 Q-12.6 -8.35 -15.45 -6.15 -16.7 -5.15 -18.5 -4.25 L-16.1 -6.35 Q-13.6 -9.0 -13.65 -11.4 L-13.65 -11.65 -13.55 -11.6 -12.35 -11.2 -12.35 -11.1 M-15.45 -11.7 Q-16.1 -9.55 -18.95 -7.75 -19.7 -7.25 -20.65 -6.85 L-19.3 -7.95 Q-17.45 -9.75 -16.7 -11.8 L-16.4 -12.95 -15.3 -12.35 -15.45 -11.7 M-8.6 -10.05 Q-7.9 -6.75 -9.2 -4.6 -9.75 -3.7 -10.65 -3.0 L-9.7 -4.65 Q-8.55 -7.25 -9.35 -10.15 L-9.5 -10.75 -8.8 -10.75 -8.6 -10.05 M-8.75 -10.75 L-7.6 -10.9 -6.7 -9.8 Q-4.75 -7.1 -5.1 -4.8 -5.35 -3.2 -6.65 -1.8 -10.3 2.15 -11.05 5.0 -11.5 2.15 -7.9 -1.8 -6.65 -3.15 -6.35 -4.6 -5.9 -7.05 -8.05 -9.95 L-8.75 -10.75 M-3.95 -2.0 L-5.3 0.55 Q-6.15 2.05 -6.2 3.05 -6.6 1.65 -5.7 -0.2 L-4.15 -3.65 Q-3.9 -4.25 -3.95 -5.05 -4.0 -6.3 -4.8 -8.0 -3.65 -6.65 -3.4 -5.2 -3.2 -3.65 -3.95 -2.0 M-19.8 11.3 L-20.75 10.1 Q-18.65 9.55 -16.9 7.15 -18.1 9.95 -19.8 11.3 M-23.85 5.35 L-24.55 4.25 -21.65 1.4 -23.85 5.35 M-22.85 7.0 Q-20.6 6.0 -18.85 3.55 -20.2 6.75 -22.05 8.25 L-22.85 7.0 M-27.1 0.7 L-23.8 -1.55 -26.35 1.75 -27.1 0.7" fill="#0b0300" fill-rule="evenodd" stroke="none"/>
    </g>
    <g id="sprite4" transform="matrix(1.0, 0.0, 0.0, 1.0, 7.9, 19.4)">
      <use ffdec:characterId="332" height="38.85" transform="matrix(1.0, 0.0, 0.0, 1.0, -7.9, -19.4)" width="15.8" xlink:href="#shape6"/>
    </g>
    <g id="shape6" transform="matrix(1.0, 0.0, 0.0, 1.0, 7.9, 19.4)">
      <path d="M1.7 1.35 L1.75 1.15 Q2.35 -2.05 0.15 -7.15 -2.35 -12.85 -6.85 -18.45 -2.65 -16.25 0.5 -11.3 3.4 -6.7 5.95 1.25 L4.7 -0.05 4.7 2.45 2.85 -2.65 Q4.05 1.25 3.8 5.15 3.5 3.45 2.4 2.15 L2.05 1.75 1.7 1.35 M1.2 -7.15 Q2.2 -4.6 3.05 -3.0 L1.7 -8.35 Q0.1 -12.8 -3.1 -15.1 L-2.55 -14.35 Q-0.35 -11.05 1.2 -7.15" fill="#4a413e" fill-rule="evenodd" stroke="none"/>
      <path d="M1.2 -7.15 Q-0.35 -11.05 -2.55 -14.35 L-3.1 -15.1 Q0.1 -12.8 1.7 -8.35 L3.05 -3.0 Q2.2 -4.6 1.2 -7.15" fill="#7a6c63" fill-rule="evenodd" stroke="none"/>
      <path d="M1.6 1.35 L1.5 0.8 1.2 -1.15 Q0.95 -3.15 -1.0 -8.05 -2.9 -12.95 -7.85 -19.0 L-7.9 -19.15 -7.85 -19.3 -7.7 -19.35 -7.55 -19.35 Q-2.65 -17.15 0.9 -11.5 4.5 -5.85 5.5 -2.3 6.45 1.2 6.4 1.9 L6.25 1.85 6.1 1.7 5.95 1.25 Q3.4 -6.7 0.5 -11.3 -2.65 -16.25 -6.85 -18.45 -2.35 -12.85 0.15 -7.15 2.35 -2.05 1.75 1.15 L1.7 1.35 1.6 1.35 M2.4 2.15 L2.45 2.35 2.05 1.75 2.4 2.15 M2.15 4.6 L2.0 3.7 2.0 3.5 1.95 3.1 2.25 4.55 2.15 4.6" fill="#3d3532" fill-rule="evenodd" stroke="none"/>
      <path d="M1.6 1.35 L1.7 1.35 2.05 1.75 2.45 2.35 2.4 2.15 Q3.5 3.45 3.8 5.15 4.05 1.25 2.85 -2.65 L4.7 2.45 4.7 -0.05 5.95 1.25 6.1 1.7 6.25 1.85 6.4 1.9 6.45 2.1 Q8.05 7.2 7.9 11.2 7.7 15.6 5.45 19.45 2.4 16.4 1.5 11.9 0.8 8.1 1.55 2.0 L1.6 1.7 1.6 1.35 M2.15 4.6 L2.25 4.55 1.95 3.1 2.0 3.5 2.0 3.7 2.15 4.6 M3.4 6.25 Q2.85 10.45 4.25 14.3 L3.4 6.25 M4.8 5.85 L4.8 15.85 Q5.75 8.25 4.8 5.85" fill="#0b0300" fill-rule="evenodd" stroke="none"/>
      <path d="M4.8 5.85 Q5.75 8.25 4.8 15.85 L4.8 5.85 M3.4 6.25 L4.25 14.3 Q2.85 10.45 3.4 6.25" fill="#999999" fill-rule="evenodd" stroke="none"/>
    </g>
    <g id="sprite5" transform="matrix(1.0, 0.0, 0.0, 1.0, 11.3, 19.75)">
      <use ffdec:characterId="334" height="39.5" transform="matrix(1.0, 0.0, 0.0, 1.0, -11.3, -19.75)" width="22.6" xlink:href="#shape7"/>
    </g>
    <g id="shape7" transform="matrix(1.0, 0.0, 0.0, 1.0, 11.3, 19.75)">
      <path d="M5.15 -15.55 L6.2 -19.75 Q5.7 -12.05 4.55 -9.7 5.8 -5.45 3.75 -1.35 2.9 0.3 2.7 1.75 L4.0 3.25 Q6.55 5.15 6.85 6.75 L7.15 8.3 7.15 8.45 7.2 8.5 7.1 8.5 Q6.2 6.0 3.65 3.65 L2.65 2.45 2.3 1.8 2.05 1.2 2.4 1.1 Q2.6 0.0 3.1 -1.2 L3.85 -3.35 4.2 -3.15 4.45 -3.8 4.0 -3.9 4.25 -6.15 4.75 -5.35 4.8 -6.35 4.2 -7.0 4.05 -7.75 3.75 -9.35 4.5 -8.95 4.3 -9.75 4.5 -10.1 3.65 -10.4 3.85 -11.3 4.85 -14.45 5.45 -14.25 5.6 -15.45 5.15 -15.55 M-11.3 -19.75 Q-10.7 -17.3 -8.95 -14.25 L-9.65 -13.45 -9.05 -12.3 -8.3 -13.1 -6.5 -9.95 -6.9 -9.25 -6.95 -8.6 -6.15 -9.3 Q-6.35 -7.55 -6.1 -6.05 L-6.75 -5.2 -6.0 -5.55 Q-5.65 -4.0 -4.75 -2.7 L-5.05 -2.25 -4.5 -1.75 -4.2 -2.0 Q-3.25 -0.95 -1.85 -0.15 L-1.75 0.45 -1.55 0.15 -1.4 2.3 -1.45 2.3 -1.4 2.55 -1.35 2.75 -1.5 2.95 -1.55 3.35 -1.6 2.75 -1.65 2.75 -1.65 2.5 -1.7 2.35 -1.65 2.35 Q-1.7 1.4 -2.0 0.35 -7.95 -2.35 -7.15 -9.15 -11.05 -13.6 -11.3 -19.75 M-1.25 3.35 Q-1.15 4.15 -1.2 4.9 L-1.75 5.2 -1.75 5.8 -1.3 5.45 -1.4 5.75 Q-2.2 8.15 -1.85 9.6 -1.45 10.95 -1.75 11.15 L-1.45 11.15 -1.45 11.25 -1.65 11.25 -1.75 11.15 -1.75 11.1 -1.8 10.9 -1.85 10.9 Q-3.0 8.25 -1.85 5.5 L-1.75 5.2 -1.55 3.75 -1.25 3.35" fill="#3d3532" fill-rule="evenodd" stroke="none"/>
      <path d="M-8.95 -14.25 Q-6.15 -17.3 -0.85 -16.55 -5.5 -15.7 -8.3 -13.1 L-9.05 -12.3 -9.65 -13.45 -8.95 -14.25 M-6.5 -9.95 Q-5.85 -11.0 -4.85 -11.55 -3.3 -12.5 -1.05 -12.35 -3.0 -11.65 -4.8 -10.35 L-6.15 -9.3 -6.95 -8.6 -6.9 -9.25 -6.5 -9.95 M0.6 -15.1 Q2.9 -16.0 5.15 -15.55 L5.6 -15.45 5.45 -14.25 4.85 -14.45 1.7 -14.85 -0.45 -14.6 0.6 -15.1 M3.65 -10.4 L4.5 -10.1 4.3 -9.75 4.5 -8.95 3.75 -9.35 1.55 -10.0 -0.65 -10.15 1.65 -10.65 3.65 -10.4 M4.2 -7.0 L4.8 -6.35 4.75 -5.35 4.25 -6.15 Q3.5 -7.05 2.25 -7.4 3.35 -7.75 4.2 -7.0 M4.0 -3.9 L4.45 -3.8 4.2 -3.15 3.85 -3.35 1.7 -3.45 0.1 -3.15 Q0.75 -3.95 1.9 -4.05 L4.0 -3.9 M-0.8 -0.9 L-1.55 0.15 -1.75 0.45 -1.85 -0.15 -1.9 -0.3 Q-1.5 -1.1 -0.9 -1.4 -0.35 -1.8 0.4 -1.65 L-0.8 -0.9 M-1.35 2.75 Q-0.65 1.8 0.15 2.15 -0.5 2.4 -1.25 3.35 L-1.55 3.75 -1.7 4.0 -1.55 3.35 -1.5 2.95 -1.35 2.75 M-1.2 4.9 Q-0.7 4.6 -0.2 4.65 L-1.3 5.45 -1.75 5.8 -1.75 5.2 -1.2 4.9 M2.85 5.65 L2.9 5.6 3.0 5.8 3.05 5.85 3.5 6.55 Q1.95 6.4 0.55 7.6 1.35 6.1 2.85 5.65 M-4.25 -7.5 Q-2.9 -8.2 -1.2 -8.1 -2.55 -7.35 -3.95 -6.65 L-6.0 -5.55 -6.75 -5.2 -6.1 -6.05 Q-5.3 -7.0 -4.25 -7.5 M-2.5 -4.45 L-1.05 -4.75 -2.0 -3.9 -4.2 -2.0 -4.5 -1.75 -5.05 -2.25 -4.75 -2.7 Q-3.85 -4.0 -2.5 -4.45" fill="#0b0300" fill-rule="evenodd" stroke="none"/>
      <path d="M6.2 -19.75 L5.15 -15.55 Q2.9 -16.0 0.6 -15.1 L-4.0 -15.2 -4.65 -13.95 -4.85 -11.55 Q-5.85 -11.0 -6.5 -9.95 L-8.3 -13.1 Q-5.5 -15.7 -0.85 -16.55 -6.15 -17.3 -8.95 -14.25 -10.7 -17.3 -11.3 -19.75 L6.2 -19.75 M-4.65 -13.95 L-4.55 -14.45 -4.8 -13.6 -4.65 -13.95 M4.85 -14.45 L3.85 -11.3 3.65 -10.4 1.65 -10.65 2.1 -14.75 1.7 -14.85 4.85 -14.45 M3.75 -9.35 L4.05 -7.75 4.2 -7.0 Q3.35 -7.75 2.25 -7.4 2.1 -8.75 1.55 -10.0 L3.75 -9.35 M4.25 -6.15 L4.0 -3.9 1.9 -4.05 Q2.4 -5.8 2.25 -7.4 3.5 -7.05 4.25 -6.15 M3.85 -3.35 L3.1 -1.2 Q2.6 0.0 2.4 1.1 L2.05 1.2 2.3 1.8 2.65 2.45 3.65 3.65 Q6.2 6.0 7.1 8.5 L7.05 8.55 Q3.55 12.35 -1.45 11.25 L-1.45 11.15 -1.75 11.15 Q-1.45 10.95 -1.85 9.6 -2.2 8.15 -1.4 5.75 L-1.3 5.45 -0.2 4.65 Q-0.7 4.6 -1.2 4.9 -1.15 4.15 -1.25 3.35 -0.5 2.4 0.15 2.15 -0.65 1.8 -1.35 2.75 L-1.4 2.55 -1.45 2.3 -1.4 2.3 -1.55 0.15 -0.8 -0.9 -0.15 1.85 Q0.4 -0.5 1.35 -2.6 L1.7 -3.45 3.85 -3.35 M3.05 5.85 L3.0 5.8 2.9 5.6 2.85 5.65 0.1 2.75 -0.1 3.3 -0.05 6.7 -0.3 10.1 Q2.0 10.7 3.65 9.05 L3.9 8.65 4.05 8.2 3.65 6.5 3.05 5.85 M-3.95 -6.65 Q-3.4 -5.45 -2.5 -4.45 -3.85 -4.0 -4.75 -2.7 -5.65 -4.0 -6.0 -5.55 L-3.95 -6.65 M-2.0 -3.9 L-1.35 -3.35 -0.9 -1.4 Q-1.5 -1.1 -1.9 -0.3 L-1.85 -0.15 Q-3.25 -0.95 -4.2 -2.0 L-2.0 -3.9 M-4.8 -10.35 L-4.7 -9.35 -4.25 -7.5 Q-5.3 -7.0 -6.1 -6.05 -6.35 -7.55 -6.15 -9.3 L-4.8 -10.35" fill="#7a6c63" fill-rule="evenodd" stroke="none"/>
      <path d="M-4.85 -11.55 L-4.65 -13.95 -4.0 -15.2 0.6 -15.1 -0.45 -14.6 1.7 -14.85 2.1 -14.75 1.65 -10.65 -0.65 -10.15 1.55 -10.0 Q2.1 -8.75 2.25 -7.4 2.4 -5.8 1.9 -4.05 0.75 -3.95 0.1 -3.15 L1.7 -3.45 1.35 -2.6 Q0.4 -0.5 -0.15 1.85 L-0.8 -0.9 0.4 -1.65 Q-0.35 -1.8 -0.9 -1.4 L-1.35 -3.35 -2.0 -3.9 -1.05 -4.75 -2.5 -4.45 Q-3.4 -5.45 -3.95 -6.65 -2.55 -7.35 -1.2 -8.1 -2.9 -8.2 -4.25 -7.5 L-4.7 -9.35 -4.8 -10.35 Q-3.0 -11.65 -1.05 -12.35 -3.3 -12.5 -4.85 -11.55 M2.85 5.65 Q1.35 6.1 0.55 7.6 1.95 6.4 3.5 6.55 L3.05 5.85 3.65 6.5 4.05 8.2 3.9 8.65 3.65 9.05 Q2.0 10.7 -0.3 10.1 L-0.05 6.7 -0.1 3.3 0.1 2.75 2.85 5.65" fill="#988781" fill-rule="evenodd" stroke="none"/>
      <path d="M7.1 8.5 L7.2 8.5 7.15 8.45 Q9.2 9.6 11.3 14.0 4.35 20.55 -2.65 19.65 -3.95 14.65 -1.75 11.15 L-1.65 11.25 -1.45 11.25 Q3.55 12.35 7.05 8.55 L7.1 8.5 M1.4 18.4 Q-0.1 15.95 0.4 12.3 L-1.4 12.2 Q-2.85 16.2 -1.95 18.6 L1.4 18.4" fill="#0b090c" fill-rule="evenodd" stroke="none"/>
      <path d="M1.4 18.4 L-1.95 18.6 Q-2.85 16.2 -1.4 12.2 L0.4 12.3 Q-0.1 15.95 1.4 18.4" fill="#666666" fill-rule="evenodd" stroke="none"/>
      <path d="M-4.65 -13.95 L-4.8 -13.6 -4.55 -14.45 -4.65 -13.95" fill="#88786f" fill-rule="evenodd" stroke="none"/>
    </g>
    <g id="sprite6" transform="matrix(1.0, 0.0, 0.0, 1.0, 26.15, 27.2)">
      <use ffdec:characterId="336" height="54.4" transform="matrix(1.0, 0.0, 0.0, 1.0, -26.15, -27.2)" width="52.3" xlink:href="#shape8"/>
    </g>
    <g id="shape8" transform="matrix(1.0, 0.0, 0.0, 1.0, 26.15, 27.2)">
      <path d="M-8.0 -6.05 Q-7.2 -6.05 -6.65 -5.4 -6.1 -4.75 -6.1 -3.8 -6.1 -2.85 -6.65 -2.15 -7.2 -1.5 -8.0 -1.5 -8.8 -1.5 -9.35 -2.15 -9.9 -2.85 -9.9 -3.8 -9.9 -4.75 -9.35 -5.4 -8.8 -6.05 -8.0 -6.05" fill="#000000" fill-rule="evenodd" stroke="none"/>
      <path d="M-9.2 -3.65 L-9.35 -4.05 -9.2 -4.45 -8.8 -4.6 -8.4 -4.45 -8.25 -4.05 -8.4 -3.65 Q-8.6 -3.5 -8.8 -3.5 L-9.2 -3.65" fill="#ffffff" fill-rule="evenodd" stroke="none"/>
      <path d="M11.7 -8.35 L11.65 -8.35 12.1 -11.75 Q12.6 -16.45 15.95 -20.95 L18.75 -24.35 Q20.2 -25.9 21.3 -26.5 23.45 -27.65 24.95 -26.9 26.4 -26.2 26.1 -23.7 L25.25 -20.55 24.1 -18.3 Q20.1 -11.05 12.85 -6.65 L12.5 -7.05 Q16.45 -10.7 18.6 -14.45 20.65 -18.0 19.6 -18.75 18.9 -19.25 16.1 -15.5 13.45 -11.9 11.8 -8.45 L11.7 -8.35 M18.5 -22.4 L16.85 -20.25 Q12.85 -14.45 12.05 -10.1 17.95 -22.0 20.9 -20.15 22.2 -19.35 20.1 -15.55 18.05 -11.85 14.6 -8.35 20.3 -12.4 23.7 -18.55 L24.5 -20.2 25.2 -22.7 Q25.75 -25.45 24.4 -25.8 21.9 -26.5 18.5 -22.4" fill="#3d3532" fill-rule="evenodd" stroke="none"/>
      <path d="M18.5 -22.4 L17.95 -21.05 18.05 -21.05 Q19.95 -22.3 21.3 -24.15 L21.5 -24.25 21.2 -23.4 22.0 -23.9 23.25 -24.7 22.25 -22.25 Q22.85 -22.45 23.5 -23.45 L24.15 -24.25 23.45 -22.55 23.4 -22.25 24.5 -23.2 24.6 -23.3 Q24.25 -22.1 24.2 -20.55 L24.25 -20.1 24.5 -20.2 23.7 -18.55 Q20.3 -12.4 14.6 -8.35 18.05 -11.85 20.1 -15.55 22.2 -19.35 20.9 -20.15 17.95 -22.0 12.05 -10.1 12.85 -14.45 16.85 -20.25 L18.5 -22.4" fill="#7a6c63" fill-rule="evenodd" stroke="none"/>
      <path d="M24.5 -20.2 L24.25 -20.1 24.2 -20.55 Q24.25 -22.1 24.6 -23.3 L24.5 -23.2 23.4 -22.25 23.45 -22.55 24.15 -24.25 23.5 -23.45 Q22.85 -22.45 22.25 -22.25 L23.25 -24.7 22.0 -23.9 21.2 -23.4 21.5 -24.25 21.3 -24.15 Q19.95 -22.3 18.05 -21.05 L17.95 -21.05 18.5 -22.4 Q21.9 -26.5 24.4 -25.8 25.75 -25.45 25.2 -22.7 L24.5 -20.2" fill="#ab9f98" fill-rule="evenodd" stroke="none"/>
      <path d="M11.7 -8.35 L11.8 -8.45 Q13.45 -11.9 16.1 -15.5 18.9 -19.25 19.6 -18.75 20.65 -18.0 18.6 -14.45 16.45 -10.7 12.5 -7.05 L11.7 -8.35" fill="#4f4542" fill-rule="evenodd" stroke="none"/>
      <path d="M-9.45 -25.85 L-7.45 -23.7 -7.15 -23.4 Q-3.4 -19.15 -0.55 -12.55 L-0.5 -12.5 -4.05 -10.6 Q-6.45 -11.75 -8.55 -13.55 -11.05 -15.7 -11.75 -17.9 L-12.9 -21.7 -12.9 -21.85 -12.95 -22.15 -13.0 -23.7 -12.35 -26.05 -11.55 -26.65 Q-10.7 -26.95 -9.45 -25.85 M-12.05 -20.55 L-11.65 -18.95 Q-11.4 -19.9 -10.8 -20.3 L-9.75 -20.6 -8.65 -19.95 Q-7.3 -18.85 -4.9 -15.55 L-2.15 -11.9 -1.05 -12.55 Q-2.55 -16.05 -6.3 -20.85 L-7.4 -22.25 Q-10.25 -25.75 -11.05 -25.3 -12.35 -24.6 -12.25 -22.15 L-12.05 -20.55 M-2.55 -11.6 L-6.25 -16.55 Q-9.55 -20.5 -10.55 -19.1 -11.85 -17.3 -8.45 -14.25 -5.95 -11.9 -3.65 -10.95 L-2.55 -11.6" fill="#3d3532" fill-rule="evenodd" stroke="none"/>
      <path d="M-12.05 -20.55 L-11.9 -20.3 Q-11.6 -21.55 -11.8 -22.7 L-11.3 -21.75 -10.9 -24.15 -10.85 -24.15 -9.55 -21.75 -9.9 -23.85 -8.6 -21.8 -8.4 -21.6 -7.75 -21.25 -7.4 -22.25 -6.3 -20.85 Q-2.55 -16.05 -1.05 -12.55 L-2.15 -11.9 -4.9 -15.55 Q-7.3 -18.85 -8.65 -19.95 L-9.75 -20.6 -10.8 -20.3 Q-11.4 -19.9 -11.65 -18.95 L-12.05 -20.55" fill="#7a6c63" fill-rule="evenodd" stroke="none"/>
      <path d="M-7.4 -22.25 L-7.75 -21.25 -8.4 -21.6 -8.6 -21.8 -9.9 -23.85 -9.55 -21.75 -10.85 -24.15 -10.9 -24.15 -11.3 -21.75 -11.8 -22.7 Q-11.6 -21.55 -11.9 -20.3 L-12.05 -20.55 -12.25 -22.15 Q-12.35 -24.6 -11.05 -25.3 -10.25 -25.75 -7.4 -22.25" fill="#ab9f98" fill-rule="evenodd" stroke="none"/>
      <path d="M-2.55 -11.6 L-3.65 -10.95 Q-5.95 -11.9 -8.45 -14.25 -11.85 -17.3 -10.55 -19.1 -9.55 -20.5 -6.25 -16.55 L-2.55 -11.6" fill="#4f4542" fill-rule="evenodd" stroke="none"/>
      <path d="M11.55 -12.05 L10.85 -11.45 10.75 -11.55 10.45 -12.15 10.2 -13.15 9.45 -12.7 9.25 -12.7 Q9.0 -12.6 8.9 -12.8 L8.8 -13.55 9.45 -15.3 9.35 -15.2 8.65 -14.9 7.4 -14.45 7.2 -16.8 6.8 -16.55 Q5.45 -15.35 4.5 -15.2 L4.5 -15.4 4.6 -17.8 4.3 -17.15 Q3.55 -15.6 2.35 -14.65 L1.6 -15.95 Q0.15 -18.7 -1.7 -20.6 L-2.05 -21.2 Q0.8 -20.1 3.05 -16.4 L5.2 -20.6 5.2 -16.1 8.0 -19.35 8.0 -15.25 10.7 -16.95 9.65 -13.3 11.65 -14.65 11.55 -12.05" fill="#666666" fill-rule="evenodd" stroke="none"/>
      <path d="M-1.7 -20.6 Q0.15 -18.7 1.6 -15.95 L2.35 -14.65 Q3.55 -15.6 4.3 -17.15 L4.6 -17.8 4.5 -15.4 4.5 -15.2 Q5.45 -15.35 6.8 -16.55 L7.2 -16.8 7.4 -14.45 8.65 -14.9 9.35 -15.2 9.45 -15.3 8.8 -13.55 8.9 -12.8 Q9.0 -12.6 9.25 -12.7 L9.45 -12.7 10.2 -13.15 10.45 -12.15 10.75 -11.55 10.85 -11.45 11.55 -12.05 11.4 -9.85 1.45 -10.8 Q0.8 -15.95 -1.7 -20.6" fill="#000000" fill-rule="evenodd" stroke="none"/>
      <path d="M-8.75 -5.4 Q-8.1 -12.1 0.0 -14.35 L1.85 -14.7 3.15 -11.75 2.55 -12.6 1.65 -13.95 Q-0.1 -13.9 -3.75 -11.25 -7.95 -8.2 -8.75 -5.4 M3.15 -11.75 Q3.75 -13.0 4.85 -13.8 L5.35 -11.1 Q5.7 -12.5 6.15 -13.05 L6.65 -13.6 7.75 -11.15 6.65 -13.0 5.9 -11.85 5.35 -11.1 4.65 -13.15 Q3.75 -12.0 3.15 -11.75 M9.65 -11.95 Q16.65 -6.95 14.45 3.35 L14.4 3.4 14.15 3.95 Q15.15 -0.85 13.9 -4.75 12.8 -8.25 9.65 -11.95 M12.75 6.15 Q9.8 9.9 5.55 11.7 2.5 13.05 1.2 14.6 -0.05 16.25 0.15 18.4 -0.1 22.45 -2.8 24.8 -5.65 27.2 -10.7 27.2 -14.5 27.2 -17.25 25.4 -19.8 23.8 -21.0 20.9 -24.7 20.5 -24.55 18.45 -24.55 17.35 -23.5 17.15 L-22.45 17.2 Q-24.45 15.65 -24.55 13.7 -27.2 11.3 -25.5 9.35 -24.55 8.15 -23.55 8.2 -22.6 8.2 -21.7 9.2 -19.5 6.85 -14.85 7.65 -10.95 5.45 -9.25 2.5 -7.55 -0.4 -8.2 -3.7 -6.55 3.55 -13.8 7.8 -13.5 7.85 -12.9 8.2 L-11.7 8.95 -11.8 8.95 -12.1 8.85 -17.2 8.4 -17.4 8.4 -17.95 8.5 Q-19.6 8.8 -20.9 9.5 L-21.4 9.8 -22.25 10.55 -22.45 10.8 -22.55 10.85 -22.55 10.9 -22.7 11.0 -22.75 11.0 -23.25 11.8 Q-22.8 10.45 -22.05 9.55 -22.4 9.1 -23.4 9.3 -24.3 9.5 -24.75 10.05 -25.45 10.9 -25.35 11.65 -25.25 12.45 -24.15 13.45 L-23.5 15.0 Q-22.55 16.7 -20.9 17.6 L-20.85 17.65 -18.5 18.55 -15.6 19.45 Q-13.0 20.25 -9.7 19.45 -6.4 18.55 -4.9 16.7 L-4.15 15.65 -3.25 14.5 -2.6 14.2 Q-1.85 14.1 -1.75 15.1 -1.55 17.4 -1.7 18.95 -1.8 20.1 -2.75 21.05 -3.6 21.9 -4.65 22.1 L-7.15 22.05 -7.2 22.0 -15.75 19.9 Q-19.0 19.1 -21.05 18.05 -23.25 17.25 -23.5 18.4 -23.7 19.05 -22.25 19.85 L-20.75 20.5 -20.15 21.3 -18.35 23.1 Q-15.1 25.7 -10.7 25.8 -0.95 25.8 -0.4 18.4 -0.6 17.2 -0.25 16.1 0.0 15.0 0.75 13.95 2.25 11.8 5.35 10.45 9.35 8.8 10.65 7.9 L12.75 6.15 M-7.6 13.8 L-8.0 12.75 Q-8.3 12.0 -8.9 11.6 L-9.1 11.5 Q-9.45 11.3 -9.85 11.25 L-10.25 11.3 -10.5 11.35 -11.85 12.2 -12.15 12.55 -12.25 12.85 -12.45 13.15 -12.55 13.5 -12.55 13.55 -12.6 13.65 -12.6 13.6 -12.65 13.35 -12.75 11.8 Q-12.7 10.95 -12.25 10.5 L-11.05 9.5 -10.95 9.45 -10.7 9.35 -10.5 9.25 -9.3 9.1 Q-8.65 9.25 -7.95 9.75 -7.4 10.25 -7.15 10.85 -6.95 11.3 -7.1 12.05 L-7.55 13.7 -7.6 13.8 M-7.85 11.0 Q-8.2 10.2 -9.35 10.05 -11.0 9.95 -11.7 10.8 -12.1 11.3 -12.15 12.25 -11.4 10.35 -9.8 10.65 -8.45 10.75 -7.75 12.75 -7.6 11.7 -7.85 11.0 M-7.4 21.05 L-7.4 19.4 Q-8.8 20.2 -10.65 20.4 L-7.4 21.05 M-6.95 19.25 L-6.95 21.15 -5.0 21.3 -5.0 17.5 Q-5.9 18.5 -6.95 19.15 L-6.95 19.25 M-3.1 15.25 L-3.45 15.3 -4.5 16.95 -4.5 21.2 Q-3.05 20.8 -2.9 18.9 -2.6 16.65 -2.8 15.7 -2.9 15.35 -3.1 15.25" fill="#3d3532" fill-rule="evenodd" stroke="none"/>
      <path d="M-8.75 -5.4 Q-7.95 -8.2 -3.75 -11.25 -0.1 -13.9 1.65 -13.95 L2.55 -12.6 3.15 -11.75 Q3.75 -12.0 4.65 -13.15 L5.35 -11.1 5.9 -11.85 6.65 -13.0 7.75 -11.15 Q7.9 -11.5 9.65 -11.95 12.8 -8.25 13.9 -4.75 15.15 -0.85 14.15 3.95 L12.75 6.15 Q8.35 7.9 4.5 6.75 0.55 5.65 -4.1 10.05 L-4.4 9.8 Q-6.4 8.4 -8.45 7.8 L-9.6 7.55 -10.65 7.45 -11.6 7.45 -13.8 7.8 Q-6.55 3.55 -8.2 -3.7 L-6.65 -2.8 -7.2 -5.4 -7.45 -4.0 -8.75 -5.4 M-12.55 13.5 L-12.45 13.15 -12.25 12.85 -12.15 12.55 -11.85 12.2 -10.5 11.35 -10.25 11.3 -9.85 11.25 Q-9.45 11.3 -9.1 11.5 L-8.9 11.6 Q-8.3 12.0 -8.0 12.75 L-7.6 13.8 Q-10.3 16.65 -12.55 13.5 M-7.85 11.0 Q-7.6 11.7 -7.75 12.75 -8.45 10.75 -9.8 10.65 -11.4 10.35 -12.15 12.25 -12.1 11.3 -11.7 10.8 -11.0 9.95 -9.35 10.05 -8.2 10.2 -7.85 11.0" fill="#7a6c63" fill-rule="evenodd" stroke="none"/>
      <path d="M12.75 6.15 L10.65 7.9 Q9.35 8.8 5.35 10.45 2.25 11.8 0.75 13.95 0.0 15.0 -0.25 16.1 -0.9 12.45 -4.1 10.05 0.55 5.65 4.5 6.75 8.35 7.9 12.75 6.15" fill="#5c534e" fill-rule="evenodd" stroke="none"/>
      <path d="M-22.55 10.9 L-22.55 10.85 -22.45 10.8 -22.25 10.55 -21.4 9.8 -20.9 9.5 Q-19.6 8.8 -17.95 8.5 L-17.4 8.4 -17.2 8.4 -12.1 8.85 -11.8 8.95 -11.7 8.95 -12.9 8.2 Q-11.5 8.55 -10.5 9.25 L-10.7 9.35 -10.95 9.45 -11.05 9.5 -12.25 10.5 Q-12.7 10.95 -12.75 11.8 L-12.65 13.35 -12.6 13.6 -12.6 13.65 Q-11.7 15.9 -14.4 15.45 L-18.95 14.3 Q-20.85 13.7 -21.8 12.85 -23.0 11.75 -22.55 10.9 M-19.05 21.3 Q-19.75 19.6 -17.1 20.1 -14.45 20.55 -11.35 21.55 -8.2 22.6 -9.35 23.9 L-14.45 24.1 Q-18.35 22.95 -19.05 21.3" fill="#ece9e8" fill-rule="evenodd" stroke="none"/>
      <path d="M-13.75 19.8 L-15.6 19.4 -18.5 18.5 -20.85 17.6 -20.85 17.55 -20.9 17.55 Q-22.55 16.65 -23.5 14.95 L-24.15 13.4 Q-25.25 12.4 -25.35 11.6 -25.45 10.85 -24.75 10.0 L-23.4 9.25 Q-22.4 9.1 -22.05 9.5 -22.8 10.4 -23.25 11.75 L-22.75 11.0 -22.7 11.0 -22.55 10.85 Q-22.95 11.7 -21.75 12.8 -20.85 13.65 -19.0 14.25 L-14.4 15.4 Q-11.75 15.85 -12.55 13.65 L-12.5 13.5 -12.5 13.45 Q-10.3 16.6 -7.6 13.75 L-7.55 13.65 -7.1 12.0 Q-6.95 11.3 -7.15 10.8 -7.4 10.2 -7.95 9.7 -8.65 9.2 -9.3 9.1 L-10.45 9.25 Q-11.5 8.5 -12.9 8.15 -13.5 7.8 -13.8 7.75 -8.95 6.5 -4.4 9.8 L-4.1 10.0 -4.05 10.05 -4.25 11.2 Q-4.45 12.75 -6.3 14.95 -8.15 17.1 -10.7 18.45 -13.25 19.75 -13.75 19.8 M-5.3 25.0 Q-7.55 25.8 -10.7 25.8 -15.1 25.7 -18.35 23.05 L-20.15 21.3 -20.7 20.45 -22.25 19.8 Q-23.7 19.0 -23.5 18.35 -23.2 17.2 -21.05 18.0 -19.0 19.05 -15.7 19.85 L-7.2 21.95 -7.15 22.0 -4.85 22.1 Q-4.4 24.0 -5.3 25.0 M-19.05 21.3 Q-18.35 22.95 -14.45 24.05 L-9.35 23.85 Q-8.2 22.55 -11.35 21.55 L-17.1 20.05 Q-19.75 19.6 -19.05 21.3" fill="#dbd3d0" fill-rule="evenodd" stroke="none"/>
      <path d="M-4.05 10.05 L-4.05 10.0 -4.0 10.05 -2.35 11.5 Q-0.85 12.8 -0.25 16.05 -0.6 17.2 -0.4 18.4 -0.8 23.4 -5.3 25.0 -4.4 24.0 -4.85 22.1 L-4.7 22.05 Q-3.6 21.9 -2.75 21.0 -1.8 20.05 -1.7 18.9 -1.5 17.4 -1.75 15.1 -1.85 14.05 -2.55 14.15 L-3.25 14.45 -4.15 15.6 -4.9 16.65 -4.9 16.7 Q-6.35 18.55 -8.95 19.25 -11.5 20.0 -13.75 19.8 -13.25 19.75 -10.7 18.45 -8.15 17.1 -6.3 14.95 -4.45 12.75 -4.25 11.2 L-4.05 10.05" fill="#bbaeaa" fill-rule="evenodd" stroke="none"/>
      <path d="M14.65 -2.85 Q13.95 4.3 8.4 3.9 13.4 2.5 14.3 -4.9 L14.65 -2.85 M13.6 4.45 L12.85 5.55 Q9.1 7.35 6.55 6.25 8.35 6.8 13.6 4.45 M10.9 7.8 L10.0 8.55 Q5.95 9.55 4.25 7.65 7.2 8.6 10.9 7.8 M-2.25 -4.4 Q-1.85 -6.45 -0.75 -6.5 L-1.45 -4.4 -2.65 -0.75 -2.25 -4.4 M-4.3 -7.95 Q-3.5 -9.65 -1.95 -9.65 -2.7 -9.6 -3.5 -7.95 L-5.9 0.7 Q-6.35 2.2 -7.95 2.85 -6.8 2.3 -6.2 0.2 L-5.35 -4.0 Q-4.9 -6.75 -4.3 -7.95" fill="#000000" fill-rule="evenodd" stroke="none"/>
      <path d="M1.5 -4.85 L1.5 -3.0 6.55 -5.35 4.85 -3.95 Q6.15 -3.15 6.0 -1.75 5.85 -0.4 4.6 0.25 3.45 0.8 2.6 0.0 1.75 -0.8 1.9 -2.35 L0.05 -1.5 1.5 -4.85" fill="#000000" fill-rule="evenodd" stroke="none"/>
      <path d="M2.6 -1.3 L2.35 -1.85 2.6 -2.45 Q2.8 -2.65 3.15 -2.65 L3.7 -2.45 3.95 -1.85 3.7 -1.3 3.15 -1.1 Q2.8 -1.1 2.6 -1.3" fill="#ffffff" fill-rule="evenodd" stroke="none"/>
    </g>
    <g id="shape9" transform="matrix(1.0, 0.0, 0.0, 1.0, 29.15, 15.3)">
      <path d="M-21.6 -14.2 Q-20.7 -14.9 -19.05 -15.2 L-16.1 -15.15 Q-14.65 -14.8 -14.3 -13.9 L-13.25 -10.8 Q-11.75 -7.0 -9.9 -3.35 -7.8 0.75 -7.9 5.45 -8.0 9.7 -9.65 11.8 -10.95 13.35 -12.35 18.25 -14.3 24.9 -14.95 33.5 -15.0 34.1 -16.95 32.7 -18.95 31.2 -20.95 28.95 -26.65 22.5 -25.4 17.5 L-26.1 18.25 -27.25 20.25 Q-27.4 20.85 -27.85 18.95 L-28.45 14.3 Q-28.95 6.8 -26.7 4.1 -26.15 3.45 -27.3 4.15 L-29.05 5.35 Q-29.3 5.55 -28.9 4.1 L-27.6 0.55 Q-25.3 -5.15 -22.35 -8.6 L-22.0 -9.5 Q-21.8 -10.75 -22.4 -12.5 -22.7 -13.45 -21.6 -14.2" fill="#45464b" fill-rule="evenodd" stroke="none"/>
      <path d="M-17.05 -14.55 Q-16.05 -14.4 -15.8 -13.9 L-14.15 -10.0 -10.5 -2.2 Q-8.65 1.5 -8.8 5.35 -8.9 8.8 -10.45 10.7 -12.35 13.1 -13.75 16.5 -16.3 22.55 -16.1 29.6 -16.1 30.5 -17.85 28.8 -19.6 27.15 -21.45 24.55 -23.55 21.55 -24.25 19.3 -25.15 16.65 -23.75 15.8 L-24.6 15.7 Q-25.55 15.7 -26.0 16.25 -26.3 16.65 -26.55 14.95 -26.85 13.2 -26.75 10.75 -26.55 4.0 -23.95 0.75 -23.45 0.15 -25.15 1.0 L-27.05 2.3 -26.05 -0.45 Q-24.3 -4.25 -21.7 -7.3 -21.2 -7.6 -20.9 -8.4 -20.2 -9.95 -21.05 -12.15 -21.4 -12.95 -20.7 -13.6 L-19.05 -14.45 -17.05 -14.55" fill="#8e8d9c" fill-rule="evenodd" stroke="none"/>
      <path d="M-14.45 9.75 Q-12.45 9.5 -12.2 11.0 -11.9 12.55 -14.2 14.8 -16.1 16.75 -16.8 22.3 -17.15 25.05 -17.1 27.45 -23.0 21.0 -22.35 16.95 -22.15 15.7 -21.3 14.8 L-20.5 14.15 Q-20.7 13.95 -21.85 14.5 L-22.9 15.05 Q-22.4 13.55 -18.7 11.6 -15.6 9.9 -14.45 9.75" fill="#d8d9e2" fill-rule="evenodd" stroke="none"/>
      <path d="M-17.15 -0.05 L-13.55 -0.2 Q-12.05 -0.05 -11.15 1.4 -10.35 2.6 -10.2 4.35 -10.1 6.05 -10.65 7.15 -11.25 8.3 -12.3 8.05 -16.35 6.95 -21.35 10.4 -23.85 12.15 -25.6 14.1 -26.25 8.3 -23.7 5.55 -22.45 4.15 -21.05 3.9 L-22.7 3.85 -23.8 4.2 Q-21.3 0.75 -17.15 -0.05" fill="#d8d9e2" fill-rule="evenodd" stroke="none"/>
      <path d="M-24.7 -0.35 Q-23.0 -3.95 -19.8 -6.55 -18.15 -7.95 -16.5 -8.75 -15.85 -9.05 -14.9 -7.9 -14.1 -6.95 -13.45 -5.35 -12.75 -3.8 -12.75 -2.85 -12.7 -1.8 -13.5 -2.25 -15.25 -3.25 -20.15 -1.9 L-24.7 -0.35" fill="#d8d9e2" fill-rule="evenodd" stroke="none"/>
      <path d="M-17.05 -14.6 Q-16.05 -14.4 -15.8 -13.9 L-15.05 -12.2 -13.6 -8.65 Q-15.55 -11.45 -17.85 -11.5 -19.4 -11.55 -20.55 -10.45 L-21.05 -12.15 Q-21.7 -13.8 -19.0 -14.45 L-17.05 -14.6" fill="#636472" fill-rule="evenodd" stroke="none"/>
    </g>
  </defs>
</svg>
