<?xml version="1.0" encoding="UTF-8" standalone="no"?>
<svg xmlns:ffdec="https://www.free-decompiler.com/flash" xmlns:xlink="http://www.w3.org/1999/xlink" ffdec:objectType="frame" height="138.45px" width="176.7px" xmlns="http://www.w3.org/2000/svg">
  <g transform="matrix(1.0, 0.0, 0.0, 1.0, 95.7, 75.7)">
    <use ffdec:characterId="345" height="125.25" transform="matrix(1.0, 0.0, 0.0, 1.0, -95.55, -75.7)" width="151.25" xlink:href="#shape0"/>
  </g>
  <defs>
    <g id="shape0" transform="matrix(1.0, 0.0, 0.0, 1.0, 95.55, 75.7)">
      <path d="M31.25 42.15 Q28.95 44.3 24.75 45.15 16.35 46.85 6.8 40.4 5.8 36.7 7.2 33.4 10.0 26.8 22.05 28.95 L23.75 29.5 Q25.8 30.25 27.4 31.45 32.5 35.35 31.25 42.15" fill="#240e03" fill-rule="evenodd" stroke="none"/>
      <path d="M29.75 40.7 Q27.85 42.5 24.35 43.25 17.35 44.7 9.4 39.3 8.55 36.2 9.75 33.4 12.05 27.9 22.1 29.7 L23.55 30.15 Q25.25 30.8 26.55 31.8 30.8 35.0 29.75 40.7" fill="#f4ba19" fill-rule="evenodd" stroke="none"/>
      <path d="M28.0 43.2 L25.85 43.4 Q26.05 41.3 25.9 38.95 25.6 34.25 23.8 33.0 L24.65 33.25 26.35 34.45 Q28.75 37.15 28.0 43.2" fill="#0f0e0b" fill-rule="evenodd" stroke="none"/>
      <path d="M37.7 -35.35 Q46.05 -20.7 34.55 -10.7 26.7 -3.9 13.7 -5.6 1.1 -7.25 -9.75 -15.8 -21.35 -25.05 -25.1 -38.0 -29.4 -52.85 -21.8 -68.8 -21.1 -70.3 -19.5 -72.4 -17.8 -74.6 -16.95 -75.05 -16.35 -75.3 -15.65 -75.7 -15.05 -75.75 -13.55 -74.7 L-9.4 -72.45 Q-4.65 -69.6 -1.55 -66.35 2.1 -62.45 9.6 -57.55 17.0 -52.7 22.35 -50.55 25.35 -49.35 29.7 -45.3 34.7 -40.65 37.7 -35.35" fill="#240e03" fill-rule="evenodd" stroke="none"/>
      <path d="M35.35 -34.95 Q43.3 -21.75 32.7 -12.55 25.45 -6.3 13.45 -7.85 1.8 -9.4 -8.2 -17.3 -18.95 -25.8 -22.4 -37.8 -26.35 -51.55 -19.35 -66.25 L-17.2 -69.6 Q-15.65 -71.65 -14.85 -72.0 -14.55 -72.15 -14.0 -67.9 -13.45 -63.1 -11.5 -62.1 L-12.4 -67.45 Q-13.05 -72.65 -11.75 -71.75 L-8.2 -69.4 Q-4.1 -66.45 -1.25 -63.4 2.2 -59.8 9.1 -55.15 16.0 -50.55 20.9 -48.6 23.7 -47.5 27.75 -43.9 32.45 -39.7 35.35 -34.95" fill="#381504" fill-rule="evenodd" stroke="none"/>
      <path d="M1.1 -61.2 Q-6.4 -54.25 -10.2 -45.8 -15.7 -33.6 -12.05 -20.65 -20.85 -29.3 -23.1 -40.2 -25.7 -52.6 -19.35 -65.95 L-17.15 -69.5 Q-15.5 -71.7 -14.75 -72.05 -14.45 -72.2 -14.0 -67.95 -13.5 -63.1 -11.45 -62.0 L-12.2 -67.0 Q-12.8 -71.95 -11.8 -71.65 L-8.25 -69.35 Q-4.1 -66.45 -1.25 -63.4 L1.1 -61.2" fill="#240e03" fill-rule="evenodd" stroke="none"/>
      <path d="M-13.75 -68.65 Q-13.05 -63.85 -11.65 -62.6 L-12.5 -67.9 Q-13.1 -73.05 -11.8 -72.15 L-9.4 -70.45 -4.1 -66.2 Q-7.6 -65.8 -7.75 -65.0 -7.8 -64.45 -9.35 -62.75 -10.85 -61.1 -10.8 -60.65 -14.55 -60.65 -17.5 -56.85 -23.35 -49.25 -19.3 -30.15 -23.7 -38.0 -24.0 -46.8 -24.35 -56.5 -19.6 -66.45 L-17.3 -69.95 Q-15.6 -72.2 -14.8 -72.6 -14.35 -72.8 -13.75 -68.65" fill="#91776a" fill-rule="evenodd" stroke="none"/>
      <path d="M-12.5 -20.5 Q-12.85 -18.3 -18.7 -12.1 -24.45 -6.0 -32.15 0.4 -51.75 16.6 -58.35 14.85 -68.1 12.35 -77.3 8.05 -95.6 -0.55 -92.65 -9.5 -91.05 -14.2 -88.4 -14.6 -91.4 -16.55 -93.55 -19.8 -97.75 -26.35 -93.2 -33.05 -91.5 -35.6 -87.75 -37.35 -83.7 -39.25 -81.5 -38.0 -83.45 -39.95 -82.25 -42.2 -81.2 -44.15 -78.1 -45.65 -75.1 -47.1 -72.0 -47.2 -68.6 -47.35 -66.9 -45.75 -69.15 -48.4 -65.7 -50.3 -62.85 -51.9 -59.8 -51.85 -55.9 -51.8 -53.25 -50.15 -51.9 -49.3 -51.35 -48.5 L-50.6 -50.3 Q-49.1 -52.1 -45.5 -51.9 -41.35 -51.65 -39.2 -50.65 -37.65 -50.0 -35.55 -47.95 -28.9 -51.35 -20.0 -38.4 -16.55 -33.4 -14.35 -28.05 -12.15 -22.8 -12.5 -20.5" fill="#240e03" fill-rule="evenodd" stroke="none"/>
      <path d="M-15.25 -29.3 Q-12.95 -24.45 -13.3 -22.3 -13.6 -20.2 -19.2 -14.25 -24.7 -8.35 -32.05 -2.1 -50.7 13.7 -56.8 12.1 -66.5 10.05 -75.4 6.2 -93.1 -1.55 -88.75 -10.7 -87.65 -13.05 -86.25 -13.95 -85.2 -14.6 -84.4 -14.25 -87.4 -16.2 -89.7 -19.3 -94.5 -25.8 -90.3 -32.0 -88.5 -34.65 -85.45 -36.25 -81.8 -38.15 -79.4 -36.6 -81.25 -38.45 -80.2 -40.7 -79.2 -42.75 -76.4 -44.2 -73.55 -45.65 -70.6 -45.55 -67.25 -45.45 -65.3 -43.25 -67.05 -46.35 -64.25 -48.05 -62.4 -49.2 -59.3 -49.45 -56.1 -49.75 -53.45 -48.05 -52.1 -47.25 -51.45 -46.35 L-50.15 -47.9 Q-48.35 -49.5 -46.0 -49.5 -42.05 -49.45 -40.15 -48.55 -38.65 -47.85 -36.3 -45.3 -30.2 -50.15 -21.05 -38.6 -17.6 -34.2 -15.25 -29.3" fill="#772d0a" fill-rule="evenodd" stroke="none"/>
      <path d="M-76.0 -8.4 Q-80.25 -10.0 -81.9 -5.8 -83.0 -2.9 -82.8 2.25 -86.95 -0.5 -88.3 -3.25 -89.85 -6.3 -88.1 -9.95 -87.25 -11.75 -85.9 -12.85 -84.7 -13.8 -83.75 -13.7 L-79.2 -10.9 -76.0 -8.4" fill="#240e03" fill-rule="evenodd" stroke="none"/>
      <path d="M-85.45 -8.0 Q-86.95 -4.65 -86.45 -0.7 -91.2 -5.55 -88.75 -10.7 -87.85 -12.55 -86.75 -13.55 -85.75 -14.45 -84.8 -14.35 L-84.0 -14.0 -79.2 -10.9 -81.85 -11.6 Q-83.85 -11.4 -85.45 -8.0" fill="#dab39f" fill-rule="evenodd" stroke="none"/>
      <path d="M-36.4 -40.85 Q-38.65 -42.1 -42.15 -41.9 -45.2 -41.7 -44.95 -38.25 -44.8 -36.5 -44.05 -34.8 -46.75 -38.85 -48.45 -40.15 -51.2 -42.15 -54.95 -41.1 -59.05 -39.95 -57.7 -35.55 -57.0 -33.3 -55.5 -31.35 -60.25 -35.9 -62.3 -36.9 -65.3 -38.35 -68.85 -36.65 -72.05 -35.1 -70.65 -30.25 -69.95 -27.8 -68.65 -25.7 -69.6 -27.05 -73.8 -28.2 -78.7 -29.55 -80.95 -27.5 -83.9 -24.75 -85.1 -20.55 -85.9 -17.75 -85.7 -15.25 -89.55 -18.35 -91.15 -21.75 -93.65 -27.05 -90.3 -32.0 -88.5 -34.65 -85.45 -36.25 -81.8 -38.15 -79.4 -36.6 -81.25 -38.45 -80.2 -40.7 -79.2 -42.75 -76.4 -44.2 -73.55 -45.65 -70.6 -45.55 -67.25 -45.45 -65.3 -43.25 -67.05 -46.35 -64.25 -48.05 -62.4 -49.2 -59.3 -49.45 -56.1 -49.75 -53.45 -48.05 -52.1 -47.25 -51.45 -46.35 L-50.15 -47.9 Q-48.35 -49.5 -46.0 -49.5 -42.05 -49.45 -40.15 -48.55 -38.65 -47.85 -36.3 -45.3 -31.45 -49.15 -24.25 -42.2 -18.25 -36.4 -14.7 -28.1 -24.15 -38.1 -28.2 -37.35 -29.5 -37.15 -30.05 -35.9 L-30.4 -34.65 Q-33.6 -39.3 -36.4 -40.85" fill="#240e03" fill-rule="evenodd" stroke="none"/>
      <path d="M-39.6 -48.9 Q-37.25 -48.25 -35.2 -46.0 -31.45 -48.7 -25.85 -43.9 -21.2 -39.95 -17.0 -32.6 -26.35 -42.0 -30.25 -42.1 -31.45 -42.15 -32.0 -41.25 L-32.25 -40.35 Q-34.95 -43.25 -37.65 -44.35 -40.1 -45.4 -43.95 -45.5 -47.1 -45.6 -47.6 -43.45 -47.85 -42.4 -47.5 -41.3 -50.1 -43.85 -52.45 -44.85 -55.35 -46.05 -58.7 -45.3 -62.75 -44.4 -62.15 -41.1 -61.85 -39.45 -60.75 -38.0 -63.65 -41.35 -66.45 -42.0 -69.45 -42.65 -73.4 -40.55 -76.95 -38.65 -76.25 -35.15 -75.9 -33.4 -74.85 -32.05 -76.85 -33.85 -80.05 -33.75 -84.05 -33.6 -87.15 -30.05 -89.7 -27.05 -89.4 -23.15 L-88.0 -17.35 Q-91.0 -20.4 -91.85 -23.6 -93.05 -27.9 -90.3 -32.0 -88.5 -34.65 -85.45 -36.25 -81.8 -38.15 -79.4 -36.6 -81.25 -38.45 -80.2 -40.7 -79.2 -42.75 -76.4 -44.2 -73.55 -45.65 -70.6 -45.55 -67.25 -45.45 -65.3 -43.25 -67.05 -46.35 -64.25 -48.05 -62.4 -49.2 -59.3 -49.45 -56.1 -49.75 -53.25 -48.35 -51.8 -47.65 -51.05 -46.9 L-49.95 -48.2 Q-48.35 -49.5 -46.0 -49.5 L-39.6 -48.9" fill="#dab39f" fill-rule="evenodd" stroke="none"/>
      <path d="M-1.55 -38.2 Q3.1 -39.45 9.9 -38.5 L15.75 -37.3 Q28.65 -33.95 38.25 -25.0 47.25 -16.6 51.0 -5.65 58.85 7.3 51.05 17.3 46.65 28.2 34.15 33.0 5.35 44.15 -17.2 40.35 -38.65 36.8 -46.65 21.3 -55.85 3.6 -29.6 -19.1 -16.5 -30.4 -1.55 -38.2" fill="#240e03" fill-rule="evenodd" stroke="none"/>
      <path d="M-1.25 -35.15 L9.3 -35.45 14.7 -34.35 Q27.2 -31.1 36.35 -22.15 44.9 -13.75 47.9 -3.05 50.95 7.7 47.1 16.6 42.95 26.2 31.7 30.55 5.1 40.85 -15.75 37.35 -35.55 34.05 -42.95 19.75 -51.4 3.4 -27.15 -17.5 -15.05 -27.95 -1.25 -35.15" fill="#772d0a" fill-rule="evenodd" stroke="none"/>
      <path d="M8.55 -15.4 Q9.95 -1.75 -5.05 19.2 L-0.65 22.05 Q4.95 25.2 10.85 26.8 29.65 31.85 44.2 19.2 48.85 15.2 48.95 2.0 50.15 11.35 46.05 18.75 41.55 26.75 31.7 30.55 5.1 40.85 -15.75 37.35 -35.55 34.05 -42.95 19.75 -50.65 4.85 -31.05 -13.95 -19.8 -24.85 -3.1 -34.15 7.6 -25.05 8.55 -15.4" fill="#511f05" fill-rule="evenodd" stroke="none"/>
      <path d="M-2.85 12.2 Q-1.05 14.55 0.9 15.1 0.05 13.0 -0.6 10.5 -1.9 5.45 -0.8 3.5 L0.2 5.15 Q1.45 6.8 2.55 7.05 2.2 4.3 3.1 1.4 4.8 -4.4 10.85 -5.2 17.4 -6.05 27.6 -3.25 39.15 -0.1 39.7 4.85 L40.35 6.8 Q40.95 9.2 41.0 11.5 41.2 19.0 35.4 22.95 33.6 23.7 30.35 23.9 23.95 24.25 17.05 21.3 L18.7 23.0 Q21.05 24.9 24.5 25.6 22.25 26.5 17.1 25.65 11.95 24.75 6.85 22.6 -6.1 17.0 -4.25 9.95 L-2.85 12.2" fill="#d04b0f" fill-rule="evenodd" stroke="none"/>
      <path d="M40.55 2.5 Q43.3 3.1 46.25 1.35 L48.65 -0.5 Q55.05 9.6 47.3 17.0 44.9 19.3 41.35 21.05 L38.3 22.35 Q43.7 17.55 42.65 9.55 42.35 7.05 41.4 4.5 L40.55 2.5" fill="#d04b0f" fill-rule="evenodd" stroke="none"/>
      <path d="M-11.4 14.9 L-9.1 18.55 Q-6.0 22.4 -1.85 23.7 L0.25 27.35 Q3.15 31.1 7.0 31.45 4.7 32.3 2.15 32.0 -2.85 31.35 -3.9 25.4 -5.95 24.6 -7.9 22.9 -11.8 19.45 -11.4 14.9" fill="#98390a" fill-rule="evenodd" stroke="none"/>
      <path d="M-12.15 16.2 L-12.0 20.0 Q-11.3 24.0 -8.7 25.05 -9.8 25.35 -11.05 25.05 -13.55 24.4 -14.2 21.45 -14.55 19.8 -13.4 17.85 L-12.15 16.2" fill="#7f2e09" fill-rule="evenodd" stroke="none"/>
      <path d="M10.75 -3.85 L11.25 -2.35 Q11.95 -0.55 13.2 0.95 17.2 5.65 24.85 5.25 L29.8 6.6 Q35.45 7.35 38.9 4.3 38.4 6.75 37.65 7.45 L38.15 7.8 39.55 7.6 Q39.35 8.35 38.15 9.25 35.8 11.1 31.05 12.0 24.25 13.3 16.95 10.8 8.35 7.85 8.5 1.55 L10.0 2.9 Q11.7 4.3 12.6 4.7 11.7 3.8 11.05 2.3 9.7 -0.75 10.75 -3.85" fill="#febf2e" fill-rule="evenodd" stroke="none"/>
      <path d="M3.5 2.75 L3.9 4.05 Q4.45 5.65 5.5 7.15 8.85 11.9 15.55 13.75 11.05 13.55 7.5 11.8 1.3 8.85 3.5 2.75" fill="#e2a119" fill-rule="evenodd" stroke="none"/>
      <path d="M18.2 14.35 L13.05 10.55 Q20.85 14.75 31.4 13.9 36.7 13.45 40.4 12.15 39.65 14.65 36.55 16.5 33.75 18.15 31.15 18.15 24.7 18.1 18.2 14.35" fill="#e2a119" fill-rule="evenodd" stroke="none"/>
      <path d="M43.3 8.15 Q42.75 8.1 42.65 7.25 42.5 6.45 42.8 5.6 41.75 5.3 41.65 4.0 L44.45 3.4 Q47.45 2.35 48.75 0.3 48.75 1.95 47.5 3.05 48.7 3.05 49.65 2.2 L47.45 5.3 Q44.95 8.35 43.3 8.15" fill="#febf2e" fill-rule="evenodd" stroke="none"/>
      <path d="M43.05 8.95 L45.55 8.3 Q48.15 7.35 48.7 5.9 L48.3 7.6 Q47.6 9.35 46.05 9.65 L44.65 9.75 Q44.0 9.65 43.05 8.95" fill="#e2a119" fill-rule="evenodd" stroke="none"/>
      <path d="M51.0 6.05 L51.05 7.55 Q50.85 8.8 49.85 9.7 48.85 10.6 47.4 10.65 L46.1 10.5 Q48.65 9.75 50.1 7.85 L51.0 6.05" fill="#e2a119" fill-rule="evenodd" stroke="none"/>
      <path d="M46.95 -29.35 Q46.7 -22.15 48.0 -15.7 49.35 -8.95 51.6 -7.5 53.35 -6.4 54.05 -3.6 54.75 -0.8 53.95 1.85 51.9 8.8 43.6 6.65 41.95 8.9 38.75 10.05 32.35 12.35 24.7 7.0 22.1 8.1 19.05 8.1 12.9 8.1 10.6 2.55 9.0 1.55 7.95 -1.35 5.8 -7.05 8.35 -16.35 10.75 -25.0 5.7 -29.95 2.85 -32.35 1.55 -33.65 -0.65 -35.8 -1.1 -38.25 -1.95 -42.55 -0.95 -48.0 0.15 -53.9 3.1 -58.8 10.6 -71.2 25.35 -70.65 44.4 -69.95 47.55 -53.05 48.6 -47.5 47.95 -39.55 L46.95 -29.35" fill="#240e03" fill-rule="evenodd" stroke="none"/>
      <path d="M45.3 -28.3 Q45.05 -21.9 46.65 -14.75 48.3 -7.5 50.35 -6.15 51.9 -5.15 52.4 -3.0 52.9 -0.85 52.05 1.15 49.8 6.2 42.25 4.25 40.75 6.3 37.85 7.35 32.05 9.45 25.15 4.6 22.8 5.6 20.0 5.6 14.45 5.6 12.35 0.55 10.95 -0.35 9.95 -2.95 8.05 -8.15 10.35 -16.55 12.5 -24.4 8.35 -28.85 L4.9 -32.2 Q3.0 -34.2 2.6 -36.4 0.65 -46.65 5.55 -56.5 11.8 -69.2 26.5 -68.3 43.7 -67.25 46.2 -50.85 47.05 -45.5 46.35 -37.85 L45.3 -28.3" fill="#bc1610" fill-rule="evenodd" stroke="none"/>
      <path d="M26.5 -68.3 Q30.35 -68.1 33.75 -66.95 22.95 -68.05 17.85 -65.05 14.2 -62.85 13.05 -57.95 L11.65 -50.75 Q10.4 -47.75 6.0 -48.65 4.35 -49.0 4.15 -50.95 4.0 -52.6 4.85 -55.0 7.55 -61.35 12.4 -64.8 18.2 -68.8 26.5 -68.3" fill="#fd2721" fill-rule="evenodd" stroke="none"/>
      <path d="M26.5 -68.3 Q43.7 -67.25 46.2 -50.85 47.05 -45.5 46.35 -37.85 L45.3 -28.3 Q45.1 -23.75 46.0 -18.0 L45.65 -17.9 43.55 -17.85 41.45 -17.9 39.35 -17.65 37.25 -17.4 29.15 -18.1 Q25.7 -18.45 22.45 -20.0 19.7 -21.3 16.4 -23.85 14.05 -25.6 12.5 -29.5 11.15 -32.85 10.9 -36.25 10.8 -37.85 11.15 -40.2 L11.85 -44.1 12.55 -48.0 13.3 -49.7 Q13.8 -50.75 13.7 -51.5 L13.1 -52.95 Q12.5 -53.95 12.4 -54.4 12.15 -55.7 12.7 -58.4 13.4 -62.0 16.25 -64.75 17.45 -65.9 19.35 -66.75 L22.8 -68.1 23.4 -68.3 26.5 -68.3" fill="#186fac" fill-rule="evenodd" stroke="none"/>
      <path d="M27.2 -27.5 L29.2 -26.65 Q32.0 -25.55 35.9 -25.3 L45.25 -25.8 Q45.4 -21.75 46.0 -18.0 L45.65 -17.9 43.55 -17.85 41.45 -17.9 39.35 -17.65 37.25 -17.4 29.15 -18.1 Q25.7 -18.45 22.45 -20.0 19.7 -21.3 16.4 -23.85 14.05 -25.6 12.5 -29.5 11.15 -32.85 10.9 -36.25 10.8 -37.85 11.15 -40.2 L11.85 -44.1 12.4 -47.05 13.6 -45.5 Q14.45 -44.55 14.4 -43.95 14.35 -43.35 13.1 -39.85 12.2 -37.2 12.85 -35.9 L14.15 -34.2 15.55 -32.5 16.65 -30.55 17.75 -28.65 Q19.1 -26.75 21.25 -27.35 L25.2 -28.15 27.2 -27.5" fill="#0d4062" fill-rule="evenodd" stroke="none"/>
      <path d="M45.85 -48.25 Q45.85 -46.55 45.1 -45.4 44.35 -44.2 43.3 -44.2 42.25 -44.2 41.5 -45.4 40.7 -46.55 40.7 -48.25 40.7 -49.9 41.5 -51.05 42.25 -52.25 43.3 -52.25 44.35 -52.25 45.1 -51.05 45.85 -49.9 45.85 -48.25" fill="#000000" fill-rule="evenodd" stroke="none"/>
      <path d="M43.35 -43.7 Q48.8 -42.2 51.95 -35.5 53.8 -31.55 55.45 -23.55 56.4 -18.95 53.75 -17.0 53.2 -16.6 50.15 -15.7 49.9 -15.65 48.1 -16.85 46.15 -18.2 43.85 -18.1 41.15 -18.0 35.7 -20.45 31.25 -22.4 27.5 -24.8 24.85 -26.4 25.25 -32.75 25.5 -36.95 26.8 -41.6 27.7 -44.65 35.6 -44.45 L43.35 -43.7" fill="#333303" fill-rule="evenodd" stroke="none"/>
      <path d="M25.85 -47.35 Q25.85 -45.1 24.85 -43.5 23.85 -41.95 22.4 -41.95 20.95 -41.95 19.95 -43.5 18.95 -45.1 18.95 -47.35 18.95 -49.6 19.95 -51.15 20.95 -52.75 22.4 -52.75 23.85 -52.75 24.85 -51.15 25.85 -49.6 25.85 -47.35" fill="#000000" fill-rule="evenodd" stroke="none"/>
      <path d="M30.65 -46.15 L36.25 -45.8 Q39.6 -45.95 41.0 -46.75 41.1 -44.6 39.85 -44.4 L35.4 -44.6 Q31.95 -44.8 30.65 -46.15" fill="#48a5e7" fill-rule="evenodd" stroke="none"/>
      <path d="M42.15 -59.45 Q45.4 -54.8 45.5 -52.0 L44.15 -51.95 Q42.45 -52.5 41.4 -50.9 40.8 -49.9 40.9 -47.6 L38.4 -47.0 35.7 -46.6 Q34.35 -46.55 32.45 -47.15 30.8 -47.7 29.4 -48.5 L28.6 -50.8 Q29.85 -50.1 32.2 -49.65 L35.8 -49.2 Q36.85 -49.15 38.25 -49.7 L40.55 -50.7 42.3 -52.1 44.0 -53.95 Q40.25 -50.35 34.9 -50.35 L31.65 -50.95 Q29.55 -51.5 28.5 -52.05 L27.8 -52.5 26.9 -53.7 Q25.6 -55.05 22.5 -56.6 L20.2 -58.0 Q19.45 -58.75 19.5 -60.45 19.5 -63.65 21.25 -65.55 22.45 -66.85 26.3 -67.35 30.2 -67.85 31.9 -66.85 38.55 -64.75 42.15 -59.45" fill="#48a5e7" fill-rule="evenodd" stroke="none"/>
      <path d="M42.05 -0.4 Q40.5 -3.0 43.45 -7.95 44.6 -9.9 45.75 -10.65 46.95 -11.45 47.35 -10.25 48.1 -8.1 50.05 -5.75 L51.8 -3.8 Q47.75 -4.85 44.7 -2.1 L43.05 -0.4 Q42.4 0.2 42.05 -0.4" fill="#fd2721" fill-rule="evenodd" stroke="none"/>
      <path d="M18.95 -1.8 Q16.3 -2.45 14.25 -1.8 12.0 -1.15 11.8 -10.95 11.65 -20.7 13.35 -21.75 13.75 -22.0 14.55 -18.25 15.45 -13.95 17.6 -13.25 20.8 -12.2 22.45 -10.8 24.85 -8.8 25.25 -5.45 26.1 -7.55 29.4 -6.85 32.35 -6.25 39.0 -2.95 39.55 -2.65 40.0 -0.95 40.45 0.7 40.25 1.2 L34.6 0.2 Q28.35 -1.0 25.4 1.4 25.05 1.8 24.65 1.4 22.25 -1.0 18.95 -1.8" fill="#fd2721" fill-rule="evenodd" stroke="none"/>
      <path d="M36.35 -65.05 L38.0 -63.7 39.45 -62.15 40.75 -61.0 42.15 -59.45 43.25 -57.35 Q43.65 -56.35 43.0 -55.65 41.85 -54.5 38.4 -54.05 35.1 -53.6 33.3 -54.15 L28.9 -56.6 Q25.4 -58.65 24.55 -58.4 23.5 -58.1 22.65 -58.4 21.7 -58.75 21.65 -59.8 L21.85 -61.0 22.15 -62.15 Q22.6 -64.45 22.95 -65.05 23.5 -65.95 24.8 -66.45 L27.1 -66.95 Q29.8 -67.4 31.45 -66.55 32.2 -66.15 33.9 -65.85 L36.35 -65.05" fill="#d0ecff" fill-rule="evenodd" stroke="none"/>
      <path d="M32.55 -51.2 L30.65 -51.9 29.65 -52.1 Q29.05 -52.2 28.8 -52.55 29.7 -53.35 32.15 -52.5 33.8 -51.9 35.95 -52.05 38.0 -52.2 39.85 -52.95 L41.6 -54.15 43.25 -54.25 43.6 -53.8 42.15 -52.6 Q41.35 -52.2 40.8 -52.05 38.1 -51.0 36.7 -50.8 L32.55 -51.2" fill="#d0ecff" fill-rule="evenodd" stroke="none"/>
      <path d="M40.55 -48.3 Q41.05 -48.1 40.55 -47.75 38.5 -46.95 35.5 -46.95 29.95 -47.3 30.25 -48.65 30.85 -48.75 32.0 -48.25 L34.35 -47.8 40.55 -48.3" fill="#d0ecff" fill-rule="evenodd" stroke="none"/>
      <path d="M27.35 -27.4 L31.55 -27.3 Q36.4 -25.75 44.4 -19.55 L43.6 -19.55 Q41.2 -19.5 36.2 -21.7 32.25 -23.45 28.8 -25.65 27.95 -26.1 27.35 -27.4" fill="#7d7f0f" fill-rule="evenodd" stroke="none"/>
      <path d="M32.65 -29.7 Q27.75 -31.65 27.25 -30.3 26.55 -32.8 27.0 -36.0 27.25 -37.75 28.15 -40.85 28.95 -43.6 36.15 -43.45 L43.15 -42.75 Q48.1 -41.4 50.95 -35.35 52.6 -31.85 54.15 -24.5 55.0 -20.2 52.7 -18.45 50.8 -16.95 49.75 -17.85 39.6 -26.95 32.65 -29.7" fill="#c3c91c" fill-rule="evenodd" stroke="none"/>
      <path d="M41.15 -33.55 L35.35 -37.1 Q32.25 -38.95 30.8 -40.5 29.55 -41.85 30.8 -42.95 L38.6 -43.35 43.15 -42.75 Q48.1 -41.4 50.95 -35.35 52.6 -31.85 54.15 -24.5 54.6 -22.25 54.1 -20.65 53.3 -20.1 52.7 -21.25 48.9 -28.55 41.15 -33.55" fill="#feff6c" fill-rule="evenodd" stroke="none"/>
      <path d="M27.5 -35.3 Q25.1 -35.35 24.0 -37.4 22.65 -40.05 25.9 -44.05 27.25 -45.7 32.0 -45.85 36.8 -46.0 38.6 -44.3 39.8 -43.2 43.5 -41.25 46.4 -39.15 45.4 -35.55 44.7 -33.2 40.8 -28.15 37.85 -24.25 38.75 -21.95 39.9 -18.9 39.05 -16.9 38.2 -15.0 35.7 -14.4 31.2 -13.2 30.25 -19.25 29.65 -23.2 30.6 -31.0 31.1 -35.2 27.5 -35.3" fill="#90110d" fill-rule="evenodd" stroke="none"/>
      <path d="M38.6 -44.3 Q39.55 -43.25 43.35 -41.35 46.4 -39.1 45.4 -35.55 44.7 -33.2 40.8 -28.15 37.85 -24.25 38.75 -21.95 39.0 -21.25 37.4 -19.45 35.7 -17.6 34.7 -18.15 33.65 -18.7 33.4 -19.65 L33.05 -21.7 Q32.45 -24.4 32.75 -25.95 L33.4 -28.1 33.85 -30.25 Q34.0 -31.5 33.2 -34.05 L32.7 -35.9 32.1 -37.75 30.65 -38.9 28.85 -39.5 Q26.55 -40.2 26.3 -42.35 L25.95 -43.3 Q25.8 -43.9 26.35 -44.55 28.45 -46.65 32.5 -46.6 36.5 -46.55 38.6 -44.3" fill="#cb1812" fill-rule="evenodd" stroke="none"/>
      <path d="M41.0 -42.25 Q38.3 -43.85 36.55 -44.05 34.1 -44.3 33.1 -42.1 32.9 -41.65 33.45 -40.9 L34.55 -39.6 35.2 -38.2 Q35.5 -37.25 34.95 -36.85 34.35 -36.35 33.8 -37.0 L33.1 -38.15 Q32.05 -39.7 31.1 -40.1 L29.55 -40.2 Q28.45 -40.2 28.05 -40.55 27.8 -40.8 27.6 -41.8 27.35 -42.8 27.4 -43.2 27.55 -44.05 29.2 -44.85 30.55 -45.5 34.3 -45.7 35.75 -45.75 38.55 -44.15 41.25 -42.65 41.0 -42.25" fill="#fd2721" fill-rule="evenodd" stroke="none"/>
      <path d="M34.3 -26.45 Q34.75 -27.5 35.05 -29.7 L35.25 -30.45 35.45 -31.2 35.25 -31.85 35.15 -32.5 Q35.3 -33.5 36.15 -33.7 L37.85 -33.65 Q38.6 -33.55 39.75 -32.85 41.0 -32.1 41.5 -31.95 42.2 -31.6 41.25 -30.5 L39.75 -29.1 38.0 -27.25 Q36.95 -26.05 36.8 -25.15 L36.9 -21.75 Q36.75 -19.2 34.9 -20.25 33.75 -20.9 33.7 -23.15 33.7 -25.0 34.3 -26.45" fill="#fd2721" fill-rule="evenodd" stroke="none"/>
      <path d="M19.1 -67.55 L19.45 -67.55 Q19.1 -66.9 18.25 -66.5 L16.7 -65.85 15.3 -65.0 Q14.6 -64.5 14.45 -63.75 14.3 -62.85 13.55 -61.9 12.65 -60.85 12.3 -59.75 11.8 -58.25 10.55 -59.3 9.3 -60.35 9.9 -61.5 11.25 -64.05 15.3 -66.05 17.35 -67.05 19.1 -67.55" fill="#fe8280" fill-rule="evenodd" stroke="none"/>
      <path d="M24.8 -47.35 Q24.8 -46.65 24.45 -46.15 24.1 -45.65 23.6 -45.65 23.1 -45.65 22.8 -46.15 22.45 -46.65 22.45 -47.35 22.45 -48.05 22.8 -48.55 L23.6 -49.05 Q24.1 -49.05 24.45 -48.55 24.8 -48.05 24.8 -47.35" fill="#ffffff" fill-rule="evenodd" stroke="none"/>
      <path d="M45.55 -47.85 L45.3 -46.95 Q45.05 -46.6 44.7 -46.6 44.35 -46.6 44.05 -46.95 43.8 -47.3 43.8 -47.85 43.8 -48.35 44.05 -48.75 L44.7 -49.1 Q45.05 -49.1 45.3 -48.75 L45.55 -47.85" fill="#ffffff" fill-rule="evenodd" stroke="none"/>
      <path d="M5.75 -28.25 Q14.35 -12.75 2.1 -2.4 -6.2 4.6 -19.8 2.65 -33.0 0.8 -44.2 -8.35 -56.3 -18.15 -60.05 -31.8 -64.35 -47.4 -56.15 -64.0 -55.4 -65.6 -53.7 -67.8 -51.9 -70.1 -51.0 -70.5 L-49.65 -71.15 Q-49.0 -71.25 -47.45 -70.15 L-43.15 -67.75 Q-38.2 -64.65 -35.0 -61.2 -31.25 -57.1 -23.4 -51.8 -15.7 -46.65 -10.15 -44.35 -7.0 -43.1 -2.5 -38.8 2.65 -33.85 5.75 -28.25" fill="#240e03" fill-rule="evenodd" stroke="none"/>
      <path d="M3.3 -27.85 Q11.45 -13.95 0.2 -4.4 -7.5 2.1 -20.05 0.3 -32.2 -1.45 -42.6 -9.9 -53.75 -18.95 -57.2 -31.6 -61.2 -46.0 -53.65 -61.35 L-51.35 -64.8 Q-49.65 -66.95 -48.85 -67.3 -48.5 -67.45 -48.05 -63.0 -47.5 -57.95 -45.45 -56.9 L-46.35 -62.55 Q-46.95 -67.95 -45.6 -67.0 L-41.9 -64.5 Q-37.65 -61.3 -34.7 -58.1 -31.15 -54.25 -23.95 -49.35 -16.75 -44.4 -11.7 -42.35 -8.75 -41.15 -4.55 -37.35 0.35 -32.9 3.3 -27.85" fill="#511f05" fill-rule="evenodd" stroke="none"/>
      <path d="M-34.7 -58.1 L-32.3 -55.8 Q-40.25 -48.55 -44.3 -39.8 -50.2 -27.1 -46.55 -13.5 -55.65 -22.65 -57.9 -34.1 -60.5 -47.15 -53.65 -61.05 L-51.3 -64.65 Q-49.55 -66.95 -48.75 -67.35 -48.4 -67.5 -48.0 -63.0 -47.5 -57.95 -45.4 -56.75 L-46.15 -62.0 Q-46.7 -67.2 -45.65 -66.9 L-41.95 -64.45 Q-37.65 -61.3 -34.7 -58.1" fill="#240e03" fill-rule="evenodd" stroke="none"/>
      <path d="M-51.45 -65.2 Q-49.65 -67.5 -48.8 -67.9 -48.35 -68.1 -47.8 -63.75 -47.15 -58.75 -45.65 -57.4 L-46.45 -63.0 Q-47.0 -68.35 -45.65 -67.4 L-43.15 -65.6 -37.7 -61.1 Q-41.4 -60.7 -41.5 -59.9 -41.6 -59.3 -43.25 -57.55 -44.8 -55.85 -44.75 -55.35 -48.65 -55.4 -51.8 -51.45 -58.05 -43.55 -54.05 -23.5 -58.6 -31.8 -58.8 -41.0 -59.0 -51.15 -53.9 -61.55 L-51.45 -65.2" fill="#dab39f" fill-rule="evenodd" stroke="none"/>
      <path d="M-10.1 -38.9 Q-3.35 -35.1 1.25 -28.3 5.65 -21.7 5.4 -16.4 5.2 -12.15 -0.45 -9.7 -5.7 -7.45 -13.45 -7.6 -21.4 -7.75 -28.2 -10.45 -35.75 -13.4 -39.2 -18.5 -45.35 -27.7 -38.7 -41.7 -36.45 -46.4 -33.6 -50.0 -30.9 -53.25 -30.85 -52.15 -30.75 -50.55 -25.8 -47.6 L-10.1 -38.9" fill="#772d0a" fill-rule="evenodd" stroke="none"/>
      <path d="M-14.25 44.95 Q-15.6 40.9 -15.05 37.0 -13.9 29.15 -4.1 29.9 6.1 30.65 10.05 37.3 11.5 39.7 11.7 42.3 11.85 44.6 11.0 45.55 9.55 47.9 5.65 48.95 -2.1 51.15 -14.25 44.95" fill="#240e03" fill-rule="evenodd" stroke="none"/>
      <path d="M-12.2 43.95 Q-13.35 40.45 -12.85 37.1 -11.85 30.4 -3.5 31.0 5.3 31.65 8.7 37.35 9.9 39.45 10.05 41.65 10.2 43.6 9.45 44.45 8.2 46.45 4.85 47.35 -1.8 49.25 -12.2 43.95" fill="#f4ba19" fill-rule="evenodd" stroke="none"/>
      <path d="M2.2 36.35 L3.1 36.6 Q4.2 37.05 5.0 38.0 7.65 40.95 6.85 47.7 L4.4 47.9 Q4.65 45.6 4.5 42.95 4.15 37.75 2.2 36.35" fill="#0f0e0b" fill-rule="evenodd" stroke="none"/>
    </g>
  </defs>
</svg>
