<?xml version="1.0" encoding="UTF-8" standalone="no"?>
<svg xmlns:ffdec="https://www.free-decompiler.com/flash" xmlns:xlink="http://www.w3.org/1999/xlink" ffdec:objectType="frame" height="138.45px" width="176.7px" xmlns="http://www.w3.org/2000/svg">
  <g transform="matrix(1.0, 0.0, 0.0, 1.0, 95.7, 75.7)">
    <use ffdec:characterId="346" height="120.2" transform="matrix(1.0, 0.0, 0.0, 1.0, -95.7, -70.9)" width="151.3" xlink:href="#shape0"/>
  </g>
  <defs>
    <g id="shape0" transform="matrix(1.0, 0.0, 0.0, 1.0, 95.7, 70.9)">
      <path d="M31.1 41.9 Q28.8 44.05 24.6 44.9 16.2 46.6 6.7 40.15 5.7 36.45 7.1 33.15 9.85 26.55 21.9 28.7 L23.6 29.25 Q25.65 30.0 27.25 31.2 32.35 35.1 31.1 41.9" fill="#240e03" fill-rule="evenodd" stroke="none"/>
      <path d="M29.65 40.45 Q27.75 42.25 24.25 43.0 17.25 44.45 9.3 39.05 8.45 35.95 9.65 33.15 11.95 27.65 22.0 29.45 L23.45 29.9 Q25.15 30.55 26.45 31.55 30.7 34.75 29.65 40.45" fill="#f4ba19" fill-rule="evenodd" stroke="none"/>
      <path d="M27.9 42.95 L25.7 43.15 Q25.9 41.05 25.75 38.7 25.5 34.0 23.7 32.75 L24.5 33.0 Q25.5 33.4 26.25 34.2 28.6 36.9 27.9 42.95" fill="#0f0e0b" fill-rule="evenodd" stroke="none"/>
      <path d="M-12.6 -20.75 Q-12.95 -18.55 -18.8 -12.35 -24.55 -6.25 -32.3 0.15 -51.9 16.35 -58.45 14.6 -68.2 12.1 -77.4 7.8 -95.75 -0.8 -92.75 -9.75 -91.15 -14.45 -88.5 -14.85 -91.5 -16.8 -93.65 -20.05 -97.9 -26.6 -93.35 -33.3 -91.6 -35.85 -87.85 -37.6 -83.8 -39.5 -81.6 -38.25 -83.55 -40.2 -82.35 -42.45 -81.3 -44.4 -78.2 -45.9 -75.25 -47.35 -72.15 -47.45 -68.75 -47.6 -67.05 -46.0 -69.3 -48.65 -65.8 -50.55 -62.95 -52.15 -59.95 -52.1 -56.05 -52.05 -53.35 -50.4 -52.0 -49.55 -51.45 -48.75 L-50.7 -50.55 Q-49.2 -52.35 -45.6 -52.15 -41.45 -51.9 -39.3 -50.9 -37.85 -50.25 -35.65 -48.2 -29.05 -51.6 -20.1 -38.65 -16.65 -33.65 -14.45 -28.3 -12.25 -23.05 -12.6 -20.75" fill="#240e03" fill-rule="evenodd" stroke="none"/>
      <path d="M-15.4 -29.55 Q-13.1 -24.7 -13.4 -22.55 -13.7 -20.45 -19.3 -14.5 -24.8 -8.6 -32.15 -2.35 -50.85 13.45 -56.95 11.85 -66.65 9.8 -75.5 5.95 -93.2 -1.8 -88.85 -10.95 -87.75 -13.3 -86.4 -14.2 -85.35 -14.85 -84.5 -14.5 -87.5 -16.45 -89.8 -19.55 -94.6 -26.05 -90.4 -32.25 -88.65 -34.85 -85.55 -36.5 -81.95 -38.4 -79.55 -36.85 -81.4 -38.7 -80.3 -40.95 -79.35 -43.0 -76.55 -44.45 -73.7 -45.9 -70.75 -45.8 -67.4 -45.7 -65.45 -43.5 -67.2 -46.6 -64.4 -48.3 -62.55 -49.45 -59.45 -49.7 -56.2 -50.0 -53.55 -48.3 -52.2 -47.5 -51.55 -46.6 L-50.25 -48.15 Q-48.5 -49.75 -46.15 -49.75 -42.15 -49.7 -40.25 -48.8 -38.75 -48.1 -36.4 -45.55 -30.3 -50.4 -21.2 -38.85 -17.7 -34.45 -15.4 -29.55" fill="#772d0a" fill-rule="evenodd" stroke="none"/>
      <path d="M-83.85 -13.95 L-76.1 -8.65 Q-80.35 -10.25 -82.0 -6.05 -83.15 -3.15 -82.95 2.0 -87.1 -0.8 -88.45 -3.5 -90.0 -6.55 -88.25 -10.2 -87.4 -12.0 -86.05 -13.1 -84.8 -14.05 -83.85 -13.95" fill="#240e03" fill-rule="evenodd" stroke="none"/>
      <path d="M-85.55 -8.25 Q-87.0 -5.0 -86.6 -0.95 -91.3 -5.85 -88.85 -10.95 -87.95 -12.8 -86.9 -13.8 -85.9 -14.7 -84.95 -14.6 L-84.1 -14.25 -79.35 -11.15 -82.0 -11.85 Q-84.0 -11.65 -85.55 -8.25" fill="#dab39f" fill-rule="evenodd" stroke="none"/>
      <path d="M-53.55 -48.3 Q-52.2 -47.5 -51.55 -46.6 L-50.25 -48.15 Q-48.5 -49.75 -46.15 -49.75 -42.15 -49.7 -40.25 -48.8 -38.75 -48.1 -36.4 -45.55 -31.55 -49.4 -24.4 -42.45 -18.4 -36.65 -14.85 -28.35 -24.3 -38.35 -28.35 -37.6 -29.6 -37.4 -30.2 -36.15 L-30.5 -34.9 Q-33.75 -39.55 -36.55 -41.1 -38.8 -42.35 -42.25 -42.15 -45.35 -41.95 -45.05 -38.5 -44.9 -36.75 -44.15 -35.05 -46.8 -39.1 -48.55 -40.4 -51.35 -42.4 -55.1 -41.35 -59.2 -40.2 -57.85 -35.8 -57.15 -33.55 -55.65 -31.6 -60.35 -36.1 -62.4 -37.15 -65.45 -38.6 -68.95 -36.9 -72.15 -35.35 -70.75 -30.5 -70.05 -28.05 -68.75 -25.95 -69.8 -27.3 -73.9 -28.45 -78.8 -29.8 -81.05 -27.75 -84.0 -25.0 -85.2 -20.8 -86.0 -18.0 -85.8 -15.5 -89.65 -18.6 -91.3 -22.0 -93.8 -27.3 -90.4 -32.25 -88.65 -34.85 -85.55 -36.5 -81.95 -38.4 -79.55 -36.85 -81.4 -38.7 -80.3 -40.95 -79.35 -43.0 -76.55 -44.45 -73.7 -45.9 -70.75 -45.8 -67.4 -45.7 -65.45 -43.5 -67.2 -46.6 -64.4 -48.3 -62.55 -49.45 -59.45 -49.7 -56.2 -50.0 -53.55 -48.3" fill="#240e03" fill-rule="evenodd" stroke="none"/>
      <path d="M-53.35 -48.6 Q-51.95 -47.9 -51.2 -47.15 L-50.1 -48.45 Q-48.5 -49.75 -46.15 -49.75 L-39.75 -49.15 Q-37.4 -48.5 -35.35 -46.25 -31.55 -48.95 -25.95 -44.15 -21.3 -40.2 -17.1 -32.85 -26.5 -42.25 -30.4 -42.35 -31.6 -42.4 -32.15 -41.5 L-32.4 -40.6 Q-35.1 -43.5 -37.75 -44.6 -40.25 -45.65 -44.1 -45.75 -47.25 -45.85 -47.75 -43.7 -48.0 -42.65 -47.6 -41.55 -50.2 -44.1 -52.6 -45.1 -55.5 -46.3 -58.8 -45.55 -62.85 -44.65 -62.3 -41.35 -62.0 -39.7 -60.9 -38.25 -63.75 -41.6 -66.6 -42.25 -69.6 -42.9 -73.55 -40.8 -77.05 -38.9 -76.35 -35.4 -76.05 -33.65 -75.0 -32.3 -76.95 -34.1 -80.15 -34.0 -84.15 -33.85 -87.25 -30.3 -89.85 -27.3 -89.55 -23.4 L-88.15 -17.6 Q-91.15 -20.7 -92.0 -23.85 -93.2 -28.15 -90.4 -32.25 -88.65 -34.85 -85.55 -36.5 -81.95 -38.4 -79.55 -36.85 -81.4 -38.7 -80.3 -40.95 -79.35 -43.0 -76.55 -44.45 -73.7 -45.9 -70.75 -45.8 -67.4 -45.7 -65.45 -43.5 -67.2 -46.6 -64.4 -48.3 -62.55 -49.45 -59.45 -49.7 -56.2 -50.0 -53.35 -48.6" fill="#dab39f" fill-rule="evenodd" stroke="none"/>
      <path d="M-1.65 -38.45 Q3.0 -39.7 9.75 -38.75 L15.6 -37.55 Q28.5 -34.2 38.1 -25.25 47.15 -16.8 50.85 -5.9 58.7 6.95 50.95 17.05 46.45 27.95 34.05 32.75 5.2 43.9 -17.3 40.1 -38.8 36.55 -46.8 21.05 -55.95 3.35 -29.7 -19.35 -16.6 -30.65 -1.65 -38.45" fill="#240e03" fill-rule="evenodd" stroke="none"/>
      <path d="M-1.4 -35.4 L9.15 -35.7 14.55 -34.6 Q27.1 -31.35 36.2 -22.4 44.75 -14.0 47.75 -3.3 50.8 7.45 46.95 16.35 42.8 25.95 31.55 30.3 4.95 40.6 -15.85 37.1 -35.65 33.8 -43.05 19.5 -51.5 3.15 -27.3 -17.75 -15.2 -28.2 -1.4 -35.4" fill="#772d0a" fill-rule="evenodd" stroke="none"/>
      <path d="M8.45 -15.65 Q9.8 -2.05 -5.2 18.95 L-0.75 21.8 Q4.85 24.95 10.7 26.55 29.55 31.6 44.1 18.95 48.8 14.9 48.8 1.75 50.0 11.1 45.9 18.5 41.4 26.5 31.55 30.3 4.95 40.6 -15.85 37.1 -35.65 33.8 -43.05 19.5 -50.75 4.6 -31.2 -14.2 -19.8 -25.15 -3.2 -34.4 7.5 -25.35 8.45 -15.65" fill="#511f05" fill-rule="evenodd" stroke="none"/>
      <path d="M2.4 6.8 Q2.05 4.05 2.95 1.15 4.7 -4.65 10.75 -5.45 17.3 -6.3 27.45 -3.5 39.05 -0.35 39.6 4.6 L40.2 6.55 Q40.85 8.95 40.9 11.25 41.05 18.75 35.25 22.7 33.45 23.45 30.25 23.65 23.85 24.0 16.9 21.05 L18.55 22.75 Q20.95 24.65 24.4 25.35 22.15 26.25 17.0 25.4 11.85 24.5 6.75 22.35 -6.2 16.75 -4.35 9.7 L-2.95 11.95 Q-1.2 14.3 0.75 14.85 -0.1 12.75 -0.75 10.25 -2.05 5.2 -0.95 3.25 L0.05 4.9 Q1.3 6.55 2.4 6.8" fill="#d04b0f" fill-rule="evenodd" stroke="none"/>
      <path d="M40.4 2.25 Q43.2 2.85 46.15 1.1 47.65 0.25 48.55 -0.75 54.95 9.35 47.2 16.75 44.8 19.05 41.25 20.8 L38.2 22.1 Q43.6 17.3 42.55 9.3 42.2 6.8 41.25 4.25 L40.4 2.25" fill="#d04b0f" fill-rule="evenodd" stroke="none"/>
      <path d="M-11.5 14.65 L-9.2 18.3 Q-6.1 22.15 -1.95 23.45 L0.15 27.1 Q3.0 30.85 6.85 31.2 4.55 32.05 2.0 31.75 -3.0 31.1 -4.05 25.15 -6.1 24.35 -8.05 22.65 -11.95 19.2 -11.5 14.65" fill="#98390a" fill-rule="evenodd" stroke="none"/>
      <path d="M-12.25 15.95 L-12.1 19.75 Q-11.4 23.75 -8.8 24.8 -9.95 25.1 -11.2 24.8 -13.7 24.15 -14.35 21.2 -14.7 19.55 -13.5 17.6 L-12.25 15.95" fill="#7f2e09" fill-rule="evenodd" stroke="none"/>
      <path d="M10.65 -4.1 L11.15 -2.6 Q11.85 -0.8 13.1 0.7 17.1 5.4 24.75 5.0 L29.7 6.35 Q35.35 7.1 38.75 4.05 38.3 6.5 37.5 7.2 L38.0 7.55 39.45 7.35 Q39.2 8.1 38.05 9.0 35.65 10.85 30.95 11.75 24.1 13.05 16.8 10.55 8.2 7.6 8.35 1.3 L9.85 2.65 Q11.55 4.05 12.5 4.45 11.6 3.55 10.9 2.05 9.55 -1.0 10.65 -4.1" fill="#febf2e" fill-rule="evenodd" stroke="none"/>
      <path d="M3.4 2.5 L3.8 3.8 Q4.35 5.4 5.4 6.9 8.75 11.65 15.4 13.5 10.9 13.3 7.35 11.55 1.2 8.6 3.4 2.5" fill="#e2a119" fill-rule="evenodd" stroke="none"/>
      <path d="M18.1 14.1 L12.9 10.3 Q20.7 14.5 31.25 13.65 36.55 13.2 40.3 11.9 39.55 14.4 36.45 16.25 33.65 17.9 31.05 17.9 24.6 17.85 18.1 14.1" fill="#e2a119" fill-rule="evenodd" stroke="none"/>
      <path d="M48.65 0.05 Q48.65 1.7 47.4 2.8 48.45 2.8 49.55 1.95 48.65 3.55 47.35 5.05 44.85 8.1 43.2 7.9 42.65 7.85 42.5 7.0 42.4 6.2 42.7 5.35 41.65 5.05 41.5 3.75 L44.3 3.15 Q47.35 2.1 48.65 0.05" fill="#febf2e" fill-rule="evenodd" stroke="none"/>
      <path d="M42.9 8.7 L45.45 8.05 Q48.05 7.1 48.55 5.65 L48.2 7.35 Q47.5 9.1 45.95 9.4 L44.5 9.5 Q43.85 9.4 42.9 8.7" fill="#e2a119" fill-rule="evenodd" stroke="none"/>
      <path d="M50.85 5.8 L50.9 7.3 Q50.75 8.55 49.75 9.45 48.75 10.35 47.3 10.4 L46.0 10.25 Q48.55 9.5 49.95 7.6 L50.85 5.8" fill="#e2a119" fill-rule="evenodd" stroke="none"/>
      <path d="M46.85 -29.6 Q46.55 -22.45 47.85 -15.95 49.2 -9.2 51.45 -7.75 53.2 -6.65 53.9 -3.85 54.6 -1.05 53.8 1.6 51.8 8.55 43.5 6.4 41.85 8.65 38.6 9.8 32.2 12.1 24.55 6.75 21.95 7.85 18.9 7.85 12.75 7.85 10.45 2.3 8.9 1.3 7.8 -1.6 5.7 -7.3 8.25 -16.6 10.6 -25.25 5.6 -30.2 2.7 -32.6 1.45 -33.9 -0.8 -36.05 -1.25 -38.5 -2.05 -42.8 -1.05 -48.25 0.05 -54.15 3.0 -59.05 10.45 -71.45 25.2 -70.9 44.3 -70.2 47.45 -53.3 48.5 -47.8 47.85 -39.8 L46.85 -29.6" fill="#240e03" fill-rule="evenodd" stroke="none"/>
      <path d="M45.15 -28.55 Q44.9 -22.15 46.5 -15.0 48.15 -7.75 50.2 -6.4 51.75 -5.4 52.3 -3.25 52.8 -1.1 51.9 0.9 49.7 5.95 42.15 4.0 40.65 6.05 37.75 7.1 31.95 9.2 25.0 4.35 22.65 5.35 19.9 5.35 14.35 5.35 12.25 0.3 10.85 -0.6 9.85 -3.2 7.95 -8.4 10.25 -16.8 12.4 -24.65 8.25 -29.1 L4.8 -32.45 Q2.9 -34.45 2.5 -36.65 0.55 -46.9 5.45 -56.75 11.7 -69.45 26.35 -68.55 43.55 -67.5 46.1 -51.1 46.9 -45.75 46.2 -38.1 L45.15 -28.55" fill="#bc1610" fill-rule="evenodd" stroke="none"/>
      <path d="M26.35 -68.55 Q30.15 -68.35 33.6 -67.2 22.8 -68.3 17.75 -65.3 14.05 -63.1 12.9 -58.2 L11.5 -51.0 Q10.3 -48.0 5.85 -48.9 4.25 -49.25 4.05 -51.2 3.9 -52.8 4.7 -55.25 7.45 -61.6 12.3 -65.05 18.05 -69.05 26.35 -68.55" fill="#fd2721" fill-rule="evenodd" stroke="none"/>
      <path d="M26.35 -68.55 Q43.55 -67.5 46.1 -51.1 46.9 -45.75 46.2 -38.1 L45.15 -28.55 Q45.0 -23.9 45.9 -18.25 L45.5 -18.15 43.4 -18.1 41.3 -18.15 39.2 -17.9 37.1 -17.65 29.05 -18.35 Q25.6 -18.7 22.35 -20.25 19.6 -21.55 16.3 -24.1 13.95 -25.85 12.35 -29.75 11.0 -33.1 10.75 -36.5 10.65 -38.1 11.05 -40.45 L11.75 -44.35 Q11.95 -46.25 12.45 -48.25 L13.2 -49.95 Q13.7 -51.0 13.6 -51.75 L12.95 -53.2 Q12.4 -54.15 12.3 -54.65 12.05 -55.95 12.6 -58.65 13.3 -62.25 16.15 -65.0 17.35 -66.15 19.2 -67.0 L22.65 -68.35 23.3 -68.55 26.35 -68.55" fill="#186fac" fill-rule="evenodd" stroke="none"/>
      <path d="M35.8 -25.55 L45.15 -26.05 Q45.25 -22.05 45.9 -18.25 L45.5 -18.15 43.4 -18.1 41.3 -18.15 39.2 -17.9 37.1 -17.65 29.05 -18.35 Q25.6 -18.7 22.35 -20.25 19.6 -21.55 16.3 -24.1 13.95 -25.85 12.35 -29.75 11.0 -33.1 10.75 -36.5 10.65 -38.1 11.05 -40.45 L11.75 -44.35 12.25 -47.3 13.5 -45.75 Q14.3 -44.8 14.25 -44.2 L13.0 -40.1 Q12.05 -37.45 12.75 -36.15 L14.05 -34.45 15.45 -32.75 16.55 -30.8 17.6 -28.9 Q18.95 -27.0 21.1 -27.6 L25.05 -28.4 27.1 -27.75 29.1 -26.9 Q31.9 -25.8 35.8 -25.55" fill="#0d4062" fill-rule="evenodd" stroke="none"/>
      <path d="M45.75 -48.5 Q45.75 -46.8 45.0 -45.65 44.25 -44.45 43.15 -44.45 42.1 -44.45 41.35 -45.65 40.6 -46.8 40.6 -48.5 40.6 -50.15 41.35 -51.3 42.1 -52.5 43.15 -52.5 44.25 -52.5 45.0 -51.3 45.75 -50.15 45.75 -48.5" fill="#000000" fill-rule="evenodd" stroke="none"/>
      <path d="M43.25 -43.95 Q48.7 -42.45 51.85 -35.75 53.65 -31.9 55.35 -23.8 56.3 -19.2 53.65 -17.25 53.1 -16.85 50.05 -15.95 49.8 -15.9 48.0 -17.1 46.05 -18.45 43.7 -18.35 41.05 -18.25 35.55 -20.7 31.2 -22.65 27.35 -25.05 24.75 -26.7 25.1 -33.0 25.35 -37.35 26.7 -41.85 27.6 -44.9 35.5 -44.7 L43.25 -43.95" fill="#333303" fill-rule="evenodd" stroke="none"/>
      <path d="M25.7 -47.6 Q25.7 -45.35 24.7 -43.75 23.7 -42.2 22.25 -42.2 20.8 -42.2 19.8 -43.75 18.8 -45.35 18.8 -47.6 18.8 -49.85 19.8 -51.4 20.8 -53.0 22.25 -53.0 23.7 -53.0 24.7 -51.4 25.7 -49.85 25.7 -47.6" fill="#000000" fill-rule="evenodd" stroke="none"/>
      <path d="M30.55 -46.4 L36.15 -46.05 Q39.45 -46.2 40.85 -47.0 41.0 -44.85 39.75 -44.65 L35.3 -44.85 Q31.85 -45.05 30.55 -46.4" fill="#48a5e7" fill-rule="evenodd" stroke="none"/>
      <path d="M26.15 -67.6 Q30.1 -68.1 31.8 -67.1 38.35 -65.0 42.05 -59.7 45.3 -55.05 45.4 -52.25 L44.05 -52.2 Q42.35 -52.75 41.3 -51.15 40.6 -50.05 40.8 -47.85 L38.25 -47.25 35.6 -46.85 Q32.9 -46.7 29.25 -48.75 L28.45 -51.05 Q29.75 -50.35 32.05 -49.9 L35.7 -49.45 Q36.75 -49.4 38.15 -49.95 L40.4 -50.95 42.15 -52.35 43.85 -54.2 Q40.25 -50.6 34.75 -50.6 L31.5 -51.2 Q29.45 -51.75 28.4 -52.3 L27.7 -52.75 26.8 -53.95 Q25.5 -55.3 22.4 -56.85 20.4 -57.9 20.05 -58.25 19.35 -58.95 19.35 -60.7 19.45 -64.0 21.1 -65.8 22.3 -67.1 26.15 -67.6" fill="#48a5e7" fill-rule="evenodd" stroke="none"/>
      <path d="M41.9 -0.65 Q40.35 -3.25 43.3 -8.2 46.3 -13.2 47.25 -10.5 47.95 -8.35 49.9 -6.0 L51.65 -4.05 Q47.6 -5.1 44.6 -2.35 L42.95 -0.65 Q42.25 -0.05 41.9 -0.65" fill="#fd2721" fill-rule="evenodd" stroke="none"/>
      <path d="M25.3 1.15 Q24.95 1.55 24.55 1.15 22.15 -1.25 18.85 -2.05 16.15 -2.7 14.1 -2.05 11.85 -1.4 11.7 -11.2 11.55 -20.95 13.25 -22.0 13.65 -22.25 14.4 -18.5 15.3 -14.2 17.45 -13.5 20.65 -12.45 22.35 -11.05 24.75 -9.05 25.1 -5.7 25.95 -7.8 29.25 -7.1 32.2 -6.5 38.85 -3.2 39.4 -2.95 39.85 -1.2 40.3 0.4 40.15 0.95 L34.5 -0.05 Q28.25 -1.25 25.3 1.15" fill="#fd2721" fill-rule="evenodd" stroke="none"/>
      <path d="M39.35 -62.4 L40.65 -61.25 42.05 -59.7 43.15 -57.6 Q43.55 -56.6 42.85 -55.9 41.7 -54.75 38.25 -54.3 34.95 -53.85 33.15 -54.4 32.75 -54.5 28.8 -56.85 25.3 -58.9 24.45 -58.65 23.35 -58.35 22.55 -58.65 21.55 -59.0 21.5 -60.05 L21.7 -61.25 22.05 -62.4 Q22.35 -64.4 22.85 -65.3 23.4 -66.2 24.7 -66.7 L27.0 -67.2 Q29.7 -67.65 31.35 -66.8 32.1 -66.4 33.8 -66.1 L36.2 -65.3 37.9 -63.95 39.35 -62.4" fill="#d0ecff" fill-rule="evenodd" stroke="none"/>
      <path d="M32.45 -51.45 L30.5 -52.15 29.5 -52.35 Q28.9 -52.45 28.65 -52.8 29.6 -53.65 32.0 -52.75 33.65 -52.15 35.8 -52.3 37.9 -52.45 39.75 -53.2 L41.45 -54.4 43.15 -54.5 43.5 -54.05 42.05 -52.85 40.7 -52.3 Q37.95 -51.25 36.55 -51.05 L32.45 -51.45" fill="#d0ecff" fill-rule="evenodd" stroke="none"/>
      <path d="M40.4 -48.55 Q40.95 -48.35 40.4 -48.0 38.45 -47.2 35.4 -47.2 29.8 -47.55 30.1 -48.9 L31.85 -48.5 34.25 -48.05 40.4 -48.55" fill="#d0ecff" fill-rule="evenodd" stroke="none"/>
      <path d="M27.25 -27.65 L31.4 -27.55 Q36.3 -26.0 44.25 -19.8 L43.5 -19.8 Q41.05 -19.75 36.1 -21.95 32.1 -23.75 28.65 -25.9 27.75 -26.4 27.25 -27.65" fill="#7d7f0f" fill-rule="evenodd" stroke="none"/>
      <path d="M32.55 -29.95 Q27.65 -31.9 27.15 -30.55 26.4 -33.0 26.9 -36.25 27.15 -37.95 28.05 -41.1 28.85 -43.85 36.05 -43.7 L43.05 -43.0 Q48.0 -41.65 50.85 -35.6 52.5 -32.0 54.0 -24.75 54.9 -20.45 52.6 -18.7 50.7 -17.2 49.65 -18.1 39.5 -27.2 32.55 -29.95" fill="#c3c91c" fill-rule="evenodd" stroke="none"/>
      <path d="M52.55 -21.5 Q48.75 -28.8 41.05 -33.8 L35.25 -37.35 Q32.15 -39.2 30.7 -40.75 29.4 -42.05 30.7 -43.2 L38.5 -43.6 43.05 -43.0 Q48.0 -41.65 50.85 -35.6 52.5 -32.0 54.0 -24.75 54.45 -22.7 54.0 -20.9 53.2 -20.35 52.55 -21.5" fill="#feff6c" fill-rule="evenodd" stroke="none"/>
      <path d="M27.35 -35.55 Q24.95 -35.6 23.9 -37.65 22.55 -40.3 25.75 -44.3 27.15 -45.95 31.85 -46.1 36.65 -46.25 38.5 -44.55 39.7 -43.45 43.4 -41.5 46.3 -39.4 45.25 -35.8 44.55 -33.45 40.7 -28.4 37.7 -24.5 38.6 -22.2 39.8 -19.15 38.95 -17.15 38.1 -15.25 35.6 -14.65 31.1 -13.45 30.15 -19.5 29.5 -23.5 30.45 -31.25 31.0 -35.45 27.35 -35.55" fill="#90110d" fill-rule="evenodd" stroke="none"/>
      <path d="M38.5 -44.55 Q39.45 -43.5 43.25 -41.6 46.3 -39.35 45.25 -35.8 44.55 -33.45 40.7 -28.4 37.7 -24.5 38.6 -22.2 38.85 -21.5 37.3 -19.7 35.6 -17.85 34.6 -18.4 33.5 -18.95 33.25 -19.9 L32.9 -21.95 Q32.3 -24.65 32.65 -26.2 L33.25 -28.35 33.75 -30.5 Q33.9 -32.0 33.05 -34.3 32.55 -36.9 32.0 -38.0 L30.5 -39.15 28.7 -39.75 Q26.4 -40.45 26.2 -42.6 L25.85 -43.55 Q25.7 -44.15 26.25 -44.8 28.35 -46.9 32.4 -46.85 36.4 -46.8 38.5 -44.55" fill="#cb1812" fill-rule="evenodd" stroke="none"/>
      <path d="M40.85 -42.5 Q38.15 -44.1 36.4 -44.3 34.0 -44.55 33.0 -42.35 32.8 -41.9 33.35 -41.15 L34.4 -39.85 35.1 -38.45 Q35.4 -37.5 34.85 -37.1 34.25 -36.6 33.7 -37.25 L32.95 -38.4 Q32.05 -39.9 31.0 -40.35 L29.4 -40.45 Q28.35 -40.45 27.95 -40.8 27.65 -41.05 27.45 -42.05 27.2 -43.05 27.3 -43.45 27.4 -44.25 29.1 -45.1 30.4 -45.75 34.15 -45.95 35.6 -46.0 38.4 -44.4 41.1 -42.9 40.85 -42.5" fill="#fd2721" fill-rule="evenodd" stroke="none"/>
      <path d="M36.05 -33.95 L37.7 -33.9 Q38.5 -33.8 39.65 -33.1 40.9 -32.35 41.4 -32.2 42.1 -31.85 41.1 -30.75 L39.6 -29.35 37.85 -27.5 Q36.85 -26.3 36.7 -25.4 36.6 -24.95 36.8 -22.0 36.6 -19.45 34.75 -20.5 33.6 -21.15 33.55 -23.4 33.55 -25.25 34.15 -26.7 L34.9 -29.95 35.3 -31.45 35.1 -32.1 35.0 -32.75 Q35.15 -33.75 36.05 -33.95" fill="#fd2721" fill-rule="evenodd" stroke="none"/>
      <path d="M19.0 -67.8 L19.35 -67.8 Q18.95 -67.15 18.1 -66.75 L16.6 -66.1 15.2 -65.25 Q14.5 -64.75 14.35 -64.0 14.15 -63.1 13.4 -62.15 12.6 -61.15 12.2 -60.0 11.65 -58.5 10.4 -59.55 9.15 -60.6 9.75 -61.75 11.1 -64.3 15.2 -66.3 17.25 -67.3 19.0 -67.8" fill="#fe8280" fill-rule="evenodd" stroke="none"/>
      <path d="M24.65 -47.6 Q24.65 -46.9 24.3 -46.4 24.0 -45.9 23.5 -45.9 23.0 -45.9 22.65 -46.4 22.3 -46.9 22.3 -47.6 22.3 -48.3 22.65 -48.8 23.0 -49.3 23.5 -49.3 L24.3 -48.8 Q24.65 -48.3 24.65 -47.6" fill="#ffffff" fill-rule="evenodd" stroke="none"/>
      <path d="M45.4 -48.1 Q45.4 -46.85 44.55 -46.85 44.2 -46.85 43.95 -47.2 43.7 -47.6 43.7 -48.1 L43.95 -49.0 Q44.2 -49.35 44.55 -49.35 45.4 -49.35 45.4 -48.1" fill="#ffffff" fill-rule="evenodd" stroke="none"/>
      <path d="M8.2 -30.8 Q16.4 -16.9 4.6 -5.2 -3.4 2.75 -14.85 4.2 -25.95 5.6 -35.4 0.4 -45.45 -5.1 -49.25 -15.95 -53.55 -28.15 -48.6 -44.2 -48.1 -45.75 -45.4 -49.35 -42.75 -52.9 -41.8 -53.45 -41.25 -53.75 -40.35 -51.5 -39.35 -48.85 -38.05 -48.5 L-38.9 -52.2 Q-39.4 -55.8 -37.6 -55.4 L-33.5 -55.45 Q-28.65 -54.85 -25.05 -51.55 -21.45 -48.2 -16.05 -46.5 -13.05 -45.55 -7.7 -44.5 -4.4 -43.65 0.1 -40.05 5.15 -35.9 8.2 -30.8" fill="#240e03" fill-rule="evenodd" stroke="none"/>
      <path d="M5.05 -30.4 Q12.4 -17.95 1.85 -7.5 -5.3 -0.4 -15.55 0.85 -25.45 2.1 -33.9 -2.5 -42.85 -7.45 -46.3 -17.1 -50.1 -28.0 -45.7 -42.35 -45.25 -43.85 -43.8 -46.15 -42.35 -48.5 -41.55 -49.0 -41.25 -49.15 -40.15 -47.75 -38.9 -46.15 -36.25 -46.25 L-37.05 -49.55 Q-37.5 -52.75 -35.9 -52.4 L-32.2 -52.45 Q-27.85 -51.9 -24.65 -48.95 -21.4 -45.95 -16.6 -44.45 -13.9 -43.6 -9.15 -42.65 -6.2 -41.9 -2.2 -38.65 2.35 -34.95 5.05 -30.4" fill="#511f05" fill-rule="evenodd" stroke="none"/>
      <path d="M-13.45 -41.9 L-5.45 -38.35 Q-2.8 -37.8 0.35 -33.4 3.55 -29.0 5.05 -23.85 6.7 -18.1 5.1 -14.45 3.25 -10.15 -2.8 -9.85 -36.05 -8.4 -31.75 -24.85 -29.65 -33.1 -20.85 -41.65 -18.95 -44.2 -13.45 -41.9" fill="#772d0a" fill-rule="evenodd" stroke="none"/>
      <path d="M-24.65 -48.95 Q-23.15 -47.5 -21.35 -46.5 -29.1 -39.4 -33.6 -30.8 -39.55 -19.25 -39.0 -6.15 -45.3 -11.8 -47.25 -20.55 -49.4 -30.3 -45.7 -42.35 -45.25 -43.85 -43.8 -46.15 -42.35 -48.5 -41.55 -49.0 -41.25 -49.15 -40.15 -47.75 -38.9 -46.15 -36.25 -46.25 L-37.05 -49.55 Q-37.5 -52.75 -35.9 -52.4 L-32.2 -52.45 Q-27.85 -51.9 -24.65 -48.95" fill="#240e03" fill-rule="evenodd" stroke="none"/>
      <path d="M-25.25 -49.45 Q-30.1 -47.4 -31.45 -46.55 -32.7 -45.75 -33.45 -43.1 L-33.95 -40.65 Q-37.35 -39.05 -40.6 -35.3 -47.05 -27.7 -46.1 -16.6 -50.2 -27.7 -45.7 -42.35 -45.25 -43.85 -43.8 -46.15 -42.35 -48.5 -41.55 -49.0 -41.25 -49.15 -40.15 -47.75 -38.9 -46.15 -36.25 -46.25 L-37.05 -49.55 Q-37.5 -52.75 -35.9 -52.4 L-32.45 -52.45 Q-28.35 -52.0 -25.25 -49.45" fill="#dab39f" fill-rule="evenodd" stroke="none"/>
      <path d="M-14.35 44.7 Q-15.7 40.65 -15.15 36.75 -14.0 28.9 -4.2 29.65 6.05 30.4 9.95 37.05 11.4 39.5 11.55 42.05 11.7 44.35 10.85 45.3 9.4 47.65 5.55 48.7 -2.2 50.9 -14.35 44.7" fill="#240e03" fill-rule="evenodd" stroke="none"/>
      <path d="M-12.3 43.7 Q-13.5 40.2 -13.0 36.85 -12.0 30.15 -3.6 30.75 5.15 31.4 8.55 37.1 9.8 39.2 9.95 41.4 10.05 43.35 9.35 44.2 8.1 46.2 4.75 47.1 -1.9 49.0 -12.3 43.7" fill="#f4ba19" fill-rule="evenodd" stroke="none"/>
      <path d="M2.05 36.1 L2.95 36.35 Q4.05 36.8 4.85 37.75 7.5 40.7 6.7 47.45 L4.3 47.65 Q4.55 45.35 4.35 42.7 4.0 37.5 2.05 36.1" fill="#0f0e0b" fill-rule="evenodd" stroke="none"/>
    </g>
  </defs>
</svg>
