<?xml version="1.0" encoding="UTF-8" standalone="no"?>
<svg xmlns:ffdec="https://www.free-decompiler.com/flash" xmlns:xlink="http://www.w3.org/1999/xlink" ffdec:objectType="frame" height="138.45px" width="176.7px" xmlns="http://www.w3.org/2000/svg">
  <g transform="matrix(1.0, 0.0, 0.0, 1.0, 95.7, 75.7)">
    <use ffdec:characterId="347" height="133.55" transform="matrix(1.0, 0.0, 0.0, 1.0, -95.35, -70.8)" width="172.5" xlink:href="#shape0"/>
  </g>
  <defs>
    <g id="shape0" transform="matrix(1.0, 0.0, 0.0, 1.0, 95.35, 70.8)">
      <path d="M31.45 42.0 Q29.15 44.15 24.95 45.05 16.55 46.75 7.05 40.3 6.05 36.55 7.45 33.25 10.2 26.65 22.25 28.8 L23.95 29.35 Q26.0 30.1 27.6 31.3 32.7 35.2 31.45 42.0" fill="#240e03" fill-rule="evenodd" stroke="none"/>
      <path d="M30.0 40.6 Q28.1 42.4 24.6 43.1 17.6 44.55 9.65 39.15 8.8 36.05 10.0 33.3 12.3 27.75 22.35 29.55 L23.8 30.0 Q25.5 30.65 26.8 31.65 31.05 34.9 30.0 40.6" fill="#f4ba19" fill-rule="evenodd" stroke="none"/>
      <path d="M28.25 43.1 L26.05 43.25 Q26.25 41.15 26.1 38.85 25.85 34.15 24.05 32.9 L24.85 33.15 26.6 34.35 Q28.95 37.05 28.25 43.1" fill="#0f0e0b" fill-rule="evenodd" stroke="none"/>
      <path d="M75.9 37.95 Q77.2 39.85 77.15 40.6 L76.6 42.15 Q76.25 43.2 74.0 45.15 71.85 47.05 70.3 47.85 53.8 56.45 37.3 50.3 22.85 44.9 11.75 29.95 1.4 16.0 -1.65 0.25 -4.75 -16.0 1.8 -25.4 11.45 -39.2 28.2 -28.0 34.25 -23.95 39.8 -17.5 44.6 -11.85 46.2 -8.05 49.0 -1.3 55.0 8.15 61.1 17.75 65.65 22.55 69.5 26.6 73.1 32.65 74.9 35.7 75.9 37.95" fill="#240e03" fill-rule="evenodd" stroke="none"/>
      <path d="M72.5 35.55 Q73.65 37.2 67.95 36.1 L62.05 34.65 Q63.35 37.15 68.6 38.15 73.25 39.05 73.1 39.4 72.8 40.4 70.75 42.2 L67.3 44.65 Q52.05 52.6 36.8 46.9 23.5 41.95 13.25 28.15 3.65 15.25 0.85 0.7 -2.05 -14.35 4.05 -23.0 12.95 -35.75 28.0 -25.05 33.45 -21.25 38.45 -15.1 42.75 -9.9 44.25 -6.3 46.8 -0.15 52.5 8.7 58.2 17.55 62.45 22.0 66.0 25.7 69.6 31.0 L72.5 35.55" fill="#381504" fill-rule="evenodd" stroke="none"/>
      <path d="M67.0 44.65 Q53.2 51.85 39.55 47.95 27.5 44.5 17.25 33.1 31.6 38.3 44.3 32.15 53.05 27.9 59.85 19.0 L62.45 22.0 Q66.0 25.7 69.55 31.05 L72.4 35.6 Q72.8 36.85 67.4 35.9 L61.9 34.65 Q63.3 37.2 68.6 38.1 73.25 38.9 73.15 39.25 72.85 40.2 70.6 42.1 L67.0 44.65" fill="#240e03" fill-rule="evenodd" stroke="none"/>
      <path d="M67.55 45.0 Q57.25 50.4 46.7 49.45 37.15 48.6 28.25 42.65 49.3 48.75 56.95 41.85 60.8 38.4 60.4 33.75 60.9 33.85 62.55 32.05 64.2 30.25 64.8 30.2 65.65 30.1 65.75 25.75 69.85 30.7 72.95 35.6 74.05 37.25 68.45 36.25 L62.6 34.95 Q64.1 36.75 69.35 37.85 73.9 38.8 73.7 39.35 73.4 40.3 71.15 42.35 69.0 44.25 67.55 45.0" fill="#91776a" fill-rule="evenodd" stroke="none"/>
      <path d="M-12.25 -20.65 Q-12.6 -18.4 -18.45 -12.2 -24.2 -6.15 -31.95 0.25 -51.5 16.45 -58.1 14.75 -67.85 12.25 -77.05 7.95 -95.35 -0.65 -92.4 -9.6 -90.8 -14.3 -88.15 -14.7 -91.15 -16.65 -93.3 -19.95 -97.55 -26.5 -93.0 -33.15 -91.25 -35.7 -87.5 -37.45 -83.5 -39.35 -81.25 -38.15 -83.2 -40.1 -82.0 -42.35 -80.95 -44.3 -77.85 -45.75 -74.9 -47.2 -71.8 -47.35 -68.4 -47.5 -66.7 -45.9 -68.95 -48.5 -65.45 -50.45 -62.6 -52.05 -59.6 -52.0 -55.7 -51.9 -53.0 -50.25 -51.65 -49.45 -51.1 -48.65 L-50.35 -50.45 Q-48.85 -52.2 -45.25 -52.0 -41.1 -51.75 -38.95 -50.8 -37.45 -50.1 -35.3 -48.05 -28.7 -51.45 -19.75 -38.5 -16.3 -33.55 -14.1 -28.2 -11.9 -22.95 -12.25 -20.65" fill="#240e03" fill-rule="evenodd" stroke="none"/>
      <path d="M-15.05 -29.45 Q-12.75 -24.6 -13.05 -22.45 -13.35 -20.35 -18.95 -14.35 -24.45 -8.45 -31.8 -2.25 -50.5 13.6 -56.6 12.0 -66.3 9.95 -75.15 6.1 -92.85 -1.65 -88.5 -10.8 -87.4 -13.15 -86.05 -14.05 -85.0 -14.75 -84.15 -14.4 -87.15 -16.35 -89.45 -19.4 -94.25 -25.9 -90.05 -32.1 -88.3 -34.7 -85.2 -36.35 -81.6 -38.3 -79.2 -36.75 -81.05 -38.6 -79.95 -40.85 -79.0 -42.9 -76.2 -44.3 -73.35 -45.8 -70.4 -45.7 -67.05 -45.55 -65.1 -43.35 -66.85 -46.5 -64.05 -48.2 -62.2 -49.35 -59.1 -49.6 -55.85 -49.85 -53.2 -48.2 -51.85 -47.35 -51.2 -46.5 L-49.9 -48.05 Q-48.15 -49.6 -45.8 -49.6 -41.8 -49.6 -39.9 -48.7 -38.4 -48.0 -36.05 -45.45 -29.95 -50.3 -20.85 -38.75 -17.35 -34.35 -15.05 -29.45" fill="#772d0a" fill-rule="evenodd" stroke="none"/>
      <path d="M-83.5 -13.85 L-75.75 -8.55 Q-80.0 -10.1 -81.65 -5.9 -82.8 -3.05 -82.6 2.1 -86.75 -0.7 -88.1 -3.35 -89.65 -6.45 -87.9 -10.1 -87.05 -11.9 -85.7 -12.95 -84.5 -13.95 -83.5 -13.85" fill="#240e03" fill-rule="evenodd" stroke="none"/>
      <path d="M-85.2 -8.15 Q-86.65 -4.85 -86.25 -0.85 -90.95 -5.65 -88.5 -10.8 -87.6 -12.65 -86.55 -13.65 -85.5 -14.6 -84.55 -14.5 L-83.75 -14.15 -79.0 -11.05 -81.65 -11.75 Q-83.65 -11.55 -85.2 -8.15" fill="#dab39f" fill-rule="evenodd" stroke="none"/>
      <path d="M-53.2 -48.2 Q-51.85 -47.35 -51.2 -46.5 L-49.9 -48.05 Q-48.15 -49.6 -45.8 -49.6 -41.8 -49.6 -39.9 -48.7 -38.4 -48.0 -36.05 -45.45 -31.2 -49.3 -24.05 -42.35 -18.05 -36.55 -14.5 -28.2 -23.9 -38.2 -27.95 -37.45 -29.25 -37.25 -29.8 -36.0 L-30.15 -34.75 Q-33.35 -39.4 -36.15 -40.95 -38.45 -42.2 -41.9 -42.05 -45.0 -41.85 -44.7 -38.4 -44.55 -36.65 -43.8 -34.95 -46.45 -39.0 -48.2 -40.3 -51.0 -42.3 -54.75 -41.25 -58.85 -40.1 -57.5 -35.7 -56.8 -33.45 -55.3 -31.5 -60.0 -36.0 -62.05 -37.05 -65.1 -38.5 -68.6 -36.8 -71.8 -35.25 -70.4 -30.35 -69.7 -27.9 -68.4 -25.8 -69.45 -27.15 -73.55 -28.3 -78.45 -29.7 -80.7 -27.6 -83.65 -24.85 -84.85 -20.65 -85.65 -17.85 -85.45 -15.4 -89.3 -18.4 -90.95 -21.9 -93.45 -27.15 -90.05 -32.1 -88.3 -34.7 -85.2 -36.35 -81.6 -38.3 -79.2 -36.75 -81.05 -38.6 -79.95 -40.85 -79.0 -42.9 -76.2 -44.3 -73.35 -45.8 -70.4 -45.7 -67.05 -45.55 -65.1 -43.35 -66.85 -46.5 -64.05 -48.2 -62.2 -49.35 -59.1 -49.6 -55.85 -49.85 -53.2 -48.2" fill="#240e03" fill-rule="evenodd" stroke="none"/>
      <path d="M-53.0 -48.45 Q-51.6 -47.8 -50.85 -47.05 L-49.75 -48.3 Q-48.15 -49.6 -45.8 -49.6 L-39.4 -49.05 Q-37.05 -48.4 -35.0 -46.15 -31.2 -48.85 -25.6 -44.05 -20.95 -40.05 -16.75 -32.7 -26.15 -42.15 -30.05 -42.25 -31.25 -42.25 -31.8 -41.35 L-32.05 -40.45 Q-34.7 -43.35 -37.4 -44.5 -39.9 -45.55 -43.75 -45.65 -46.9 -45.7 -47.4 -43.6 -47.65 -42.5 -47.25 -41.45 -49.85 -44.0 -52.25 -45.0 -55.15 -46.2 -58.45 -45.45 -62.5 -44.55 -61.95 -41.25 -61.65 -39.6 -60.55 -38.1 -63.4 -41.45 -66.25 -42.1 -69.25 -42.8 -73.2 -40.65 -76.7 -38.75 -76.0 -35.3 -75.7 -33.55 -74.65 -32.2 -76.6 -33.95 -79.8 -33.85 -83.8 -33.7 -86.9 -30.15 -89.5 -27.2 -89.2 -23.3 L-87.75 -17.5 Q-90.75 -20.55 -91.65 -23.75 -92.8 -28.05 -90.05 -32.1 -88.3 -34.7 -85.2 -36.35 -81.6 -38.3 -79.2 -36.75 -81.05 -38.6 -79.95 -40.85 -79.0 -42.9 -76.2 -44.3 -73.35 -45.8 -70.4 -45.7 -67.05 -45.55 -65.1 -43.35 -66.85 -46.5 -64.05 -48.2 -62.2 -49.35 -59.1 -49.6 -55.85 -49.85 -53.0 -48.45" fill="#dab39f" fill-rule="evenodd" stroke="none"/>
      <path d="M-1.3 -38.3 Q3.35 -39.6 10.1 -38.6 L15.95 -37.4 Q28.8 -34.1 38.5 -25.1 47.5 -16.7 51.25 -5.8 59.05 7.05 51.3 17.2 46.8 28.1 34.4 32.85 5.55 44.0 -16.95 40.25 -38.45 36.7 -46.45 21.2 -55.6 3.5 -29.35 -19.2 -16.25 -30.5 -1.3 -38.3" fill="#240e03" fill-rule="evenodd" stroke="none"/>
      <path d="M-1.05 -35.3 Q3.25 -36.45 9.5 -35.55 L14.9 -34.45 Q27.45 -31.25 36.55 -22.25 45.1 -13.85 48.1 -3.2 51.15 7.6 47.3 16.45 43.15 26.1 31.9 30.45 5.3 40.7 -15.5 37.25 -35.3 33.95 -42.7 19.65 -51.15 3.3 -26.95 -17.65 -14.85 -28.1 -1.05 -35.3" fill="#772d0a" fill-rule="evenodd" stroke="none"/>
      <path d="M8.8 -15.5 Q10.15 -1.85 -4.85 19.1 L-0.4 21.95 Q5.2 25.1 11.05 26.65 29.9 31.7 44.45 19.1 49.15 15.0 49.15 1.85 50.35 11.25 46.25 18.65 41.75 26.65 31.9 30.45 5.3 40.7 -15.5 37.25 -35.3 33.95 -42.7 19.65 -50.4 4.75 -30.85 -14.05 -19.6 -24.9 -2.85 -34.3 7.85 -25.2 8.8 -15.5" fill="#511f05" fill-rule="evenodd" stroke="none"/>
      <path d="M2.75 6.95 Q2.4 4.2 3.3 1.25 5.05 -4.55 11.1 -5.35 17.7 -6.15 27.8 -3.4 39.4 -0.2 39.95 4.7 L40.55 6.65 Q41.2 9.05 41.25 11.4 41.4 18.85 35.6 22.85 33.8 23.6 30.6 23.75 24.2 24.1 17.3 21.15 L18.95 22.9 Q21.3 24.75 24.75 25.45 22.5 26.4 17.35 25.5 12.2 24.65 7.1 22.45 -5.85 16.9 -4.0 9.85 L-2.6 12.05 Q-0.85 14.4 1.1 15.0 L-0.4 10.35 Q-1.7 5.35 -0.6 3.4 L0.4 5.0 Q1.65 6.65 2.75 6.95" fill="#d04b0f" fill-rule="evenodd" stroke="none"/>
      <path d="M40.75 2.35 Q43.55 3.0 46.5 1.25 L48.9 -0.65 Q55.3 9.45 47.55 16.85 45.15 19.15 41.6 20.9 L38.55 22.2 Q43.95 17.4 42.9 9.4 42.55 6.9 41.6 4.4 L40.75 2.35" fill="#d04b0f" fill-rule="evenodd" stroke="none"/>
      <path d="M-11.15 14.75 L-8.85 18.4 Q-5.75 22.3 -1.6 23.6 L0.5 27.25 Q3.35 31.0 7.25 31.35 4.95 32.2 2.4 31.9 -2.65 31.2 -3.7 25.25 -5.75 24.45 -7.7 22.75 -11.6 19.35 -11.15 14.75" fill="#98390a" fill-rule="evenodd" stroke="none"/>
      <path d="M-11.9 16.05 L-11.75 19.85 Q-11.05 23.85 -8.45 24.9 -9.6 25.2 -10.85 24.9 -13.35 24.3 -14.0 21.3 -14.35 19.7 -13.15 17.7 L-11.9 16.05" fill="#7f2e09" fill-rule="evenodd" stroke="none"/>
      <path d="M11.0 -4.0 L11.5 -2.5 Q12.2 -0.7 13.45 0.8 17.45 5.55 25.1 5.15 L30.05 6.45 Q35.7 7.2 39.1 4.15 38.65 6.6 37.85 7.35 L38.35 7.7 39.8 7.5 Q39.55 8.25 38.4 9.15 36.0 10.95 31.3 11.9 24.5 13.2 17.15 10.7 8.55 7.75 8.7 1.4 L10.2 2.75 Q11.9 4.2 12.85 4.6 11.95 3.7 11.25 2.2 9.9 -0.85 11.0 -4.0" fill="#febf2e" fill-rule="evenodd" stroke="none"/>
      <path d="M3.75 2.6 L4.15 3.9 Q4.7 5.5 5.75 7.0 9.1 11.8 15.75 13.65 11.25 13.45 7.7 11.7 1.55 8.7 3.75 2.6" fill="#e2a119" fill-rule="evenodd" stroke="none"/>
      <path d="M18.45 14.2 L13.25 10.4 Q21.05 14.65 31.6 13.8 36.9 13.35 40.65 12.05 39.9 14.55 36.8 16.35 33.95 18.05 31.4 18.0 24.95 17.95 18.45 14.2" fill="#e2a119" fill-rule="evenodd" stroke="none"/>
      <path d="M49.0 0.15 Q49.0 1.8 47.75 2.9 48.7 2.9 49.9 2.1 L47.7 5.2 Q45.2 8.25 43.55 8.05 43.0 8.0 42.85 7.1 42.75 6.3 43.05 5.45 42.0 5.15 41.85 3.9 L44.65 3.3 Q47.7 2.25 49.0 0.15" fill="#febf2e" fill-rule="evenodd" stroke="none"/>
      <path d="M43.25 8.85 L45.8 8.2 Q48.4 7.25 48.9 5.8 L48.55 7.45 Q47.85 9.2 46.3 9.55 L44.85 9.65 Q44.2 9.5 43.25 8.85" fill="#e2a119" fill-rule="evenodd" stroke="none"/>
      <path d="M51.2 5.95 L51.25 7.4 Q51.1 8.65 50.1 9.55 49.1 10.45 47.65 10.5 L46.35 10.4 Q48.9 9.65 50.3 7.75 L51.2 5.95" fill="#e2a119" fill-rule="evenodd" stroke="none"/>
      <path d="M47.2 -29.5 Q46.9 -22.35 48.2 -15.8 49.55 -9.05 51.8 -7.6 53.55 -6.5 54.25 -3.7 54.95 -0.9 54.15 1.75 52.15 8.7 43.85 6.55 42.2 8.8 38.95 9.95 32.55 12.25 24.9 6.9 22.3 8.0 19.25 8.0 13.15 8.0 10.8 2.45 9.25 1.45 8.15 -1.45 6.05 -7.2 8.6 -16.5 10.95 -25.15 5.95 -30.1 3.05 -32.5 1.8 -33.8 -0.45 -35.95 -0.9 -38.4 -1.7 -42.7 -0.7 -48.15 0.4 -54.05 3.35 -58.95 10.8 -71.35 25.55 -70.8 44.65 -70.05 47.8 -53.2 48.85 -47.65 48.2 -39.7 L47.2 -29.5" fill="#240e03" fill-rule="evenodd" stroke="none"/>
      <path d="M45.5 -28.45 Q45.25 -22.05 46.85 -14.85 48.5 -7.6 50.55 -6.25 52.1 -5.25 52.65 -3.1 53.15 -0.95 52.25 1.0 50.05 6.1 42.5 4.15 41.0 6.15 38.1 7.2 32.3 9.3 25.35 4.5 23.0 5.5 20.25 5.5 14.7 5.5 12.6 0.45 11.2 -0.45 10.2 -3.1 8.3 -8.3 10.6 -16.7 12.75 -24.55 8.6 -29.0 L5.15 -32.3 Q3.25 -34.3 2.85 -36.5 0.9 -46.8 5.8 -56.65 12.05 -69.3 26.7 -68.45 43.9 -67.4 46.45 -51.0 47.25 -45.65 46.55 -38.0 L45.5 -28.45" fill="#bc1610" fill-rule="evenodd" stroke="none"/>
      <path d="M26.7 -68.45 Q30.75 -68.15 33.95 -67.1 23.15 -68.2 18.1 -65.2 14.4 -63.0 13.25 -58.05 L11.85 -50.9 Q10.65 -47.85 6.2 -48.8 4.6 -49.1 4.4 -51.05 4.25 -52.7 5.1 -55.15 7.8 -61.5 12.65 -64.9 18.4 -68.95 26.7 -68.45" fill="#fd2721" fill-rule="evenodd" stroke="none"/>
      <path d="M26.7 -68.45 Q43.9 -67.4 46.45 -51.0 47.25 -45.65 46.55 -38.0 L45.5 -28.45 Q45.35 -23.8 46.25 -18.1 L45.85 -18.05 43.75 -17.95 41.65 -18.05 37.45 -17.55 33.45 -17.75 29.4 -18.2 Q26.0 -18.55 22.7 -20.15 20.0 -21.4 16.65 -23.95 14.3 -25.7 12.7 -29.65 11.35 -33.0 11.1 -36.4 11.0 -38.0 11.4 -40.35 L12.1 -44.25 12.8 -48.1 13.55 -49.85 Q14.05 -50.9 13.95 -51.65 L13.35 -53.1 Q12.75 -54.05 12.65 -54.55 12.4 -55.85 12.95 -58.5 13.65 -62.15 16.5 -64.85 17.7 -66.0 19.55 -66.9 L23.0 -68.2 23.65 -68.45 26.7 -68.45" fill="#186fac" fill-rule="evenodd" stroke="none"/>
      <path d="M36.15 -25.45 L45.5 -25.9 Q45.55 -22.55 46.25 -18.1 L45.85 -18.05 43.75 -17.95 41.65 -18.05 37.45 -17.55 33.45 -17.75 29.4 -18.2 Q26.0 -18.55 22.7 -20.15 20.0 -21.4 16.65 -23.95 14.3 -25.7 12.7 -29.65 11.35 -33.0 11.1 -36.4 11.0 -38.0 11.4 -40.35 L12.1 -44.25 12.6 -47.15 13.85 -45.65 Q14.65 -44.7 14.6 -44.05 L13.35 -39.95 Q12.4 -37.35 13.1 -36.0 13.45 -35.3 14.4 -34.3 L15.8 -32.65 16.9 -30.7 Q17.55 -29.35 17.95 -28.8 19.3 -26.85 21.45 -27.5 24.7 -28.4 25.4 -28.3 L27.45 -27.65 29.45 -26.8 Q32.5 -25.6 36.15 -25.45" fill="#0d4062" fill-rule="evenodd" stroke="none"/>
      <path d="M46.1 -48.35 Q46.1 -46.65 45.35 -45.5 44.6 -44.3 43.55 -44.3 42.45 -44.3 41.7 -45.5 40.95 -46.65 40.95 -48.35 40.95 -50.05 41.7 -51.2 42.45 -52.4 43.55 -52.4 44.6 -52.4 45.35 -51.2 46.1 -50.05 46.1 -48.35" fill="#000000" fill-rule="evenodd" stroke="none"/>
      <path d="M43.6 -43.8 Q49.05 -42.3 52.2 -35.6 54.0 -31.75 55.7 -23.65 56.65 -19.05 54.0 -17.1 53.25 -16.55 50.4 -15.85 L48.35 -17.0 Q46.4 -18.35 44.05 -18.25 41.4 -18.15 35.9 -20.6 31.6 -22.5 27.7 -24.9 25.1 -26.55 25.45 -32.9 25.7 -37.3 27.05 -41.7 27.95 -44.75 35.85 -44.6 L43.6 -43.8" fill="#333303" fill-rule="evenodd" stroke="none"/>
      <path d="M26.05 -47.45 Q26.05 -45.25 25.05 -43.65 24.0 -42.05 22.6 -42.05 21.2 -42.05 20.15 -43.65 19.15 -45.25 19.15 -47.45 19.15 -49.7 20.15 -51.3 21.2 -52.9 22.6 -52.9 24.05 -52.9 25.05 -51.3 26.05 -49.7 26.05 -47.45" fill="#000000" fill-rule="evenodd" stroke="none"/>
      <path d="M30.9 -46.3 L36.5 -45.9 Q39.8 -46.05 41.2 -46.9 41.35 -44.75 40.1 -44.5 L35.65 -44.7 Q32.25 -44.9 30.9 -46.3" fill="#48a5e7" fill-rule="evenodd" stroke="none"/>
      <path d="M26.55 -67.45 Q30.45 -68.0 32.15 -67.0 38.7 -64.95 42.4 -59.55 45.65 -54.9 45.75 -52.15 L44.4 -52.1 Q42.7 -52.6 41.65 -51.0 40.95 -49.9 41.15 -47.75 L38.6 -47.1 35.95 -46.7 Q33.45 -46.55 29.6 -48.6 L28.8 -50.9 Q30.1 -50.2 32.4 -49.75 L36.05 -49.3 38.5 -49.8 40.75 -50.85 42.5 -52.25 44.0 -53.85 Q40.35 -50.5 35.1 -50.5 34.0 -50.5 31.85 -51.05 29.75 -51.65 28.75 -52.2 28.55 -52.3 28.05 -52.65 L27.15 -53.85 Q25.95 -55.05 22.75 -56.75 20.8 -57.75 20.4 -58.15 19.7 -58.85 19.7 -60.6 19.8 -63.85 21.5 -65.7 22.65 -66.95 26.55 -67.45" fill="#48a5e7" fill-rule="evenodd" stroke="none"/>
      <path d="M42.25 -0.55 Q40.7 -3.15 43.65 -8.1 44.85 -10.05 45.95 -10.8 47.15 -11.6 47.6 -10.35 48.3 -8.2 50.25 -5.85 L52.0 -3.9 Q47.95 -4.95 44.95 -2.2 L43.3 -0.55 Q42.6 0.05 42.25 -0.55" fill="#fd2721" fill-rule="evenodd" stroke="none"/>
      <path d="M25.65 1.3 Q25.25 1.65 24.9 1.3 22.5 -1.1 19.2 -1.9 16.55 -2.55 14.45 -1.95 12.2 -1.25 12.05 -11.05 11.9 -20.8 13.6 -21.9 13.95 -22.15 14.75 -18.4 15.65 -14.1 17.8 -13.4 21.05 -12.3 22.7 -10.95 25.1 -8.95 25.5 -5.55 26.35 -7.7 29.6 -7.0 32.55 -6.4 39.2 -3.1 39.8 -2.85 40.25 -1.1 40.65 0.5 40.5 1.1 L34.85 0.05 Q28.6 -1.1 25.65 1.3" fill="#fd2721" fill-rule="evenodd" stroke="none"/>
      <path d="M39.7 -62.3 L41.0 -61.1 42.4 -59.55 43.5 -57.45 Q43.9 -56.45 43.2 -55.8 42.05 -54.65 38.6 -54.2 35.35 -53.75 33.5 -54.3 L29.15 -56.75 Q25.65 -58.8 24.8 -58.55 L22.9 -58.5 Q21.9 -58.85 21.85 -59.95 L22.05 -61.1 22.4 -62.3 Q22.7 -64.25 23.2 -65.15 23.75 -66.05 25.05 -66.55 L27.35 -67.05 Q30.0 -67.6 31.7 -66.7 32.45 -66.3 34.15 -65.95 35.8 -65.65 36.55 -65.2 L38.25 -63.8 39.7 -62.3" fill="#d0ecff" fill-rule="evenodd" stroke="none"/>
      <path d="M32.8 -51.3 L30.85 -52.0 29.85 -52.2 Q29.25 -52.35 29.0 -52.7 L32.4 -52.6 36.15 -52.2 Q38.25 -52.3 40.1 -53.1 40.6 -53.3 41.8 -54.25 L43.5 -54.35 43.85 -53.95 Q43.5 -53.35 42.4 -52.75 L41.05 -52.2 39.0 -51.45 Q37.75 -51.0 36.9 -50.9 L32.8 -51.3" fill="#d0ecff" fill-rule="evenodd" stroke="none"/>
      <path d="M40.8 -48.45 Q41.3 -48.25 40.75 -47.85 38.7 -47.0 35.75 -47.1 L32.65 -47.45 Q30.25 -47.95 30.45 -48.75 L32.2 -48.35 34.6 -47.95 40.8 -48.45" fill="#d0ecff" fill-rule="evenodd" stroke="none"/>
      <path d="M27.6 -27.55 L31.75 -27.4 Q36.65 -25.9 44.6 -19.65 L43.85 -19.7 Q41.45 -19.6 36.45 -21.8 32.45 -23.6 29.0 -25.75 28.05 -26.35 27.6 -27.55" fill="#7d7f0f" fill-rule="evenodd" stroke="none"/>
      <path d="M32.9 -29.85 Q28.05 -31.8 27.5 -30.45 26.75 -32.9 27.25 -36.15 L28.4 -41.0 Q29.2 -43.75 36.4 -43.6 L43.4 -42.9 Q48.35 -41.55 51.2 -35.45 52.85 -31.9 54.35 -24.6 55.25 -20.35 52.95 -18.6 51.0 -17.05 50.0 -18.0 39.85 -27.1 32.9 -29.85" fill="#c3c91c" fill-rule="evenodd" stroke="none"/>
      <path d="M52.9 -21.4 Q49.1 -28.65 41.4 -33.7 L35.6 -37.2 Q32.5 -39.05 31.05 -40.6 29.7 -41.95 31.05 -43.05 L38.85 -43.45 43.4 -42.9 Q48.35 -41.55 51.2 -35.45 52.85 -31.9 54.35 -24.6 54.8 -22.6 54.35 -20.75 53.55 -20.2 52.9 -21.4" fill="#feff6c" fill-rule="evenodd" stroke="none"/>
      <path d="M27.7 -35.4 Q25.3 -35.45 24.25 -37.5 22.9 -40.15 26.1 -44.15 27.45 -45.8 32.2 -45.95 37.0 -46.1 38.85 -44.45 40.05 -43.35 43.75 -41.4 46.65 -39.25 45.6 -35.65 44.95 -33.3 41.05 -28.25 38.05 -24.35 38.95 -22.05 40.15 -19.0 39.3 -17.05 38.45 -15.15 35.95 -14.5 31.45 -13.35 30.5 -19.4 29.85 -23.4 30.8 -31.15 31.35 -35.3 27.7 -35.4" fill="#90110d" fill-rule="evenodd" stroke="none"/>
      <path d="M38.85 -44.45 Q39.8 -43.4 43.6 -41.45 46.65 -39.2 45.6 -35.65 44.95 -33.3 41.05 -28.25 38.05 -24.35 38.95 -22.05 39.25 -21.4 37.65 -19.6 35.95 -17.75 34.95 -18.3 33.85 -18.85 33.6 -19.8 L33.3 -21.8 Q32.65 -24.4 33.0 -26.1 L33.6 -28.25 34.1 -30.4 Q34.25 -31.9 33.4 -34.15 32.9 -36.8 32.35 -37.85 31.95 -38.6 30.85 -39.05 L29.05 -39.6 Q26.75 -40.4 26.55 -42.5 L26.2 -43.4 Q26.05 -44.05 26.6 -44.65 28.7 -46.75 32.75 -46.7 36.75 -46.65 38.85 -44.45" fill="#cb1812" fill-rule="evenodd" stroke="none"/>
      <path d="M38.75 -44.3 Q41.5 -42.75 41.2 -42.35 35.05 -46.05 33.35 -42.2 33.15 -41.75 33.7 -41.0 L34.75 -39.7 35.45 -38.3 Q35.75 -37.35 35.2 -36.95 34.6 -36.5 34.05 -37.15 L33.3 -38.3 Q32.3 -39.85 31.35 -40.2 L29.75 -40.3 Q28.7 -40.3 28.3 -40.7 28.0 -40.95 27.8 -41.95 27.55 -42.95 27.65 -43.35 27.75 -44.1 29.45 -44.95 30.75 -45.65 34.5 -45.85 35.95 -45.85 38.75 -44.3" fill="#fd2721" fill-rule="evenodd" stroke="none"/>
      <path d="M36.4 -33.8 L38.1 -33.75 Q38.85 -33.65 40.0 -33.0 L41.75 -32.1 Q42.45 -31.75 41.45 -30.65 L39.95 -29.2 38.2 -27.4 Q37.2 -26.15 37.05 -25.3 L37.15 -21.85 Q36.95 -19.3 35.1 -20.35 33.95 -21.0 33.95 -23.3 33.95 -25.1 34.5 -26.55 L35.25 -29.8 Q35.65 -30.75 35.65 -31.35 L35.45 -32.0 35.35 -32.65 Q35.5 -33.6 36.4 -33.8" fill="#fd2721" fill-rule="evenodd" stroke="none"/>
      <path d="M19.35 -67.7 L19.7 -67.65 Q19.3 -67.0 18.45 -66.65 L16.95 -65.95 15.55 -65.15 Q14.85 -64.6 14.7 -63.9 14.5 -63.0 13.75 -62.05 12.95 -61.05 12.55 -59.9 12.0 -58.4 10.75 -59.4 9.5 -60.45 10.1 -61.6 11.45 -64.15 15.55 -66.2 17.6 -67.2 19.35 -67.7" fill="#fe8280" fill-rule="evenodd" stroke="none"/>
      <path d="M25.05 -47.45 L24.7 -46.25 Q24.35 -45.75 23.85 -45.75 23.35 -45.75 23.0 -46.25 22.65 -46.75 22.65 -47.45 22.65 -48.15 23.0 -48.7 23.35 -49.2 23.85 -49.2 24.35 -49.2 24.7 -48.7 25.05 -48.15 25.05 -47.45" fill="#ffffff" fill-rule="evenodd" stroke="none"/>
      <path d="M45.75 -48.0 Q45.75 -46.75 44.9 -46.75 44.55 -46.75 44.3 -47.1 44.05 -47.5 44.05 -48.0 L44.3 -48.85 Q44.55 -49.25 44.9 -49.25 45.25 -49.25 45.5 -48.85 L45.75 -48.0" fill="#ffffff" fill-rule="evenodd" stroke="none"/>
      <path d="M-14.0 44.85 Q-15.35 40.8 -14.8 36.85 -13.65 29.05 -3.85 29.75 6.4 30.5 10.3 37.15 11.75 39.6 11.9 42.15 12.05 44.45 11.2 45.4 9.75 47.75 5.9 48.8 -1.85 51.0 -14.0 44.85" fill="#240e03" fill-rule="evenodd" stroke="none"/>
      <path d="M-11.95 43.8 Q-13.1 40.35 -12.6 37.0 -11.6 30.3 -3.25 30.9 5.5 31.55 8.9 37.25 10.15 39.3 10.3 41.5 10.4 43.45 9.7 44.3 8.45 46.3 5.1 47.2 -1.55 49.1 -11.95 43.8" fill="#f4ba19" fill-rule="evenodd" stroke="none"/>
      <path d="M2.4 36.25 L3.3 36.5 Q4.4 36.95 5.2 37.9 7.85 40.85 7.05 47.6 L4.65 47.8 Q4.9 45.45 4.7 42.85 4.35 37.65 2.4 36.25" fill="#0f0e0b" fill-rule="evenodd" stroke="none"/>
      <path d="M34.45 -6.1 Q39.0 0.75 39.9 4.7 41.5 11.7 46.4 22.3 51.4 33.15 55.9 39.1 59.7 44.15 62.5 50.9 63.95 54.3 64.6 56.65 65.65 58.8 65.4 59.45 L64.15 60.55 Q63.35 61.25 59.8 62.0 L54.05 62.75 Q29.6 63.15 9.75 50.95 -7.6 40.25 -17.55 22.75 -26.8 6.45 -25.85 -8.3 -24.85 -23.6 -13.2 -28.85 3.9 -36.6 22.45 -20.0 29.15 -13.95 34.45 -6.1" fill="#240e03" fill-rule="evenodd" stroke="none"/>
      <path d="M31.9 -4.65 Q35.9 1.65 36.75 5.35 38.2 11.7 42.95 21.65 47.65 31.65 51.85 37.25 55.35 41.95 58.45 48.0 L60.85 53.1 Q61.8 55.0 54.65 51.7 L47.35 48.0 Q48.25 50.65 54.85 53.7 60.75 56.45 60.45 56.7 59.7 57.4 56.4 58.1 L51.1 58.75 Q28.5 59.15 10.15 47.85 -5.85 38.0 -15.05 21.85 -23.6 6.75 -22.7 -6.9 -21.75 -21.0 -11.0 -25.85 4.8 -33.05 21.3 -17.6 27.25 -12.0 31.9 -4.65" fill="#511f05" fill-rule="evenodd" stroke="none"/>
      <path d="M58.4 48.0 L60.7 53.15 Q60.85 54.35 54.0 51.25 L47.15 47.9 Q48.2 50.7 54.9 53.7 60.8 56.35 60.5 56.6 59.8 57.25 56.25 57.95 L50.75 58.65 Q30.2 58.95 13.45 49.9 -1.35 41.85 -11.25 27.75 6.05 38.3 24.7 38.35 37.55 38.4 49.35 33.6 L51.85 37.25 Q55.35 41.95 58.4 48.0" fill="#240e03" fill-rule="evenodd" stroke="none"/>
      <path d="M52.4 45.3 Q53.45 45.6 55.05 41.9 58.9 47.9 61.4 53.35 62.35 55.25 55.25 52.05 L48.0 48.45 Q49.4 50.65 55.95 53.8 61.65 56.55 61.25 56.9 60.5 57.6 56.9 58.35 L51.35 59.15 Q36.0 59.4 22.4 54.15 10.1 49.45 0.2 40.6 26.1 54.65 38.35 52.0 44.5 50.65 45.45 46.5 46.1 46.8 48.8 45.95 51.6 45.1 52.4 45.3" fill="#dab39f" fill-rule="evenodd" stroke="none"/>
      <path d="M6.45 -25.45 Q13.65 -23.1 21.3 -15.2 29.2 -7.05 32.55 1.95 L40.1 22.75 Q42.75 29.4 44.9 30.3 46.35 30.95 41.25 32.1 35.65 33.4 28.7 33.4 8.1 33.45 -2.55 22.45 -8.5 16.3 -10.5 6.9 -12.25 -1.5 -10.35 -9.95 -8.5 -18.25 -4.1 -22.65 0.65 -27.35 6.45 -25.45" fill="#772d0a" fill-rule="evenodd" stroke="none"/>
    </g>
  </defs>
</svg>
