<?xml version="1.0" encoding="UTF-8" standalone="no"?>
<svg xmlns:ffdec="https://www.free-decompiler.com/flash" xmlns:xlink="http://www.w3.org/1999/xlink" ffdec:objectType="frame" height="138.45px" width="176.7px" xmlns="http://www.w3.org/2000/svg">
  <g transform="matrix(1.0, 0.0, 0.0, 1.0, 95.7, 75.7)">
    <use ffdec:characterId="348" height="120.2" transform="matrix(1.0, 0.0, 0.0, 1.0, -95.25, -70.95)" width="176.25" xlink:href="#shape0"/>
  </g>
  <defs>
    <g id="shape0" transform="matrix(1.0, 0.0, 0.0, 1.0, 95.25, 70.95)">
      <path d="M31.55 41.85 Q29.25 44.0 25.05 44.9 16.65 46.6 7.15 40.15 6.15 36.4 7.55 33.1 10.3 26.5 22.35 28.65 L24.05 29.2 Q26.1 29.95 27.7 31.15 32.8 35.05 31.55 41.85" fill="#240e03" fill-rule="evenodd" stroke="none"/>
      <path d="M30.1 40.45 Q28.2 42.25 24.65 42.95 17.65 44.4 9.7 39.0 8.85 35.9 10.05 33.15 12.35 27.6 22.4 29.4 L23.85 29.85 Q25.55 30.5 26.85 31.5 31.15 34.75 30.1 40.45" fill="#f4ba19" fill-rule="evenodd" stroke="none"/>
      <path d="M28.3 42.95 L26.15 43.1 Q26.35 41.0 26.2 38.7 25.95 34.0 24.15 32.75 L24.95 33.0 Q25.95 33.4 26.7 34.2 29.05 36.9 28.3 42.95" fill="#0f0e0b" fill-rule="evenodd" stroke="none"/>
      <path d="M79.6 -7.25 Q81.5 0.3 80.85 10.6 80.25 19.9 78.0 26.4 76.55 30.8 67.45 29.65 51.05 27.75 43.15 19.05 41.35 17.1 38.75 13.0 36.9 10.05 35.7 9.65 33.4 8.85 24.8 8.4 16.35 7.95 12.85 6.65 2.8 2.9 1.9 -12.45 1.5 -18.5 2.95 -23.55 4.45 -28.65 6.95 -29.85 21.45 -36.7 35.3 -38.1 46.45 -39.25 52.95 -36.8 62.8 -33.15 68.8 -27.25 76.45 -19.7 79.6 -7.25" fill="#240e03" fill-rule="evenodd" stroke="none"/>
      <path d="M74.35 22.75 Q72.5 21.7 70.6 19.2 L69.05 16.85 Q70.4 19.0 69.25 22.05 68.15 24.85 67.05 24.75 52.35 23.0 44.95 15.15 43.3 13.35 40.85 9.65 39.1 7.05 38.0 6.65 35.95 5.95 27.35 5.3 18.9 4.7 15.75 3.5 6.75 0.15 6.05 -12.8 5.75 -17.95 7.1 -22.25 8.45 -26.55 10.7 -27.6 23.65 -33.75 36.05 -35.0 46.05 -36.05 51.9 -33.85 60.75 -30.55 66.1 -25.25 72.95 -18.5 75.75 -7.35 77.25 -1.4 75.95 11.3 75.3 17.6 74.35 22.75" fill="#381504" fill-rule="evenodd" stroke="none"/>
      <path d="M68.6 1.95 Q74.55 0.45 76.3 -4.15 77.0 2.3 75.75 13.15 L74.35 22.75 Q72.5 21.7 70.6 19.2 L69.05 16.85 Q70.4 19.0 69.25 22.05 68.15 24.85 67.05 24.75 52.35 23.0 44.95 15.15 43.3 13.35 40.85 9.65 39.1 7.05 38.0 6.65 36.05 6.0 28.8 5.4 33.25 2.9 41.3 2.55 43.55 2.45 55.75 2.8 L68.6 1.95" fill="#240e03" fill-rule="evenodd" stroke="none"/>
      <path d="M67.9 11.35 L72.25 12.95 74.1 13.0 75.95 11.25 Q75.3 17.6 74.35 22.75 72.5 21.7 70.6 19.2 L69.05 16.85 Q70.4 19.0 69.25 22.05 68.15 24.85 67.05 24.75 57.6 23.65 51.3 20.05 46.7 17.45 43.35 13.25 49.95 14.9 57.6 14.55 66.05 14.2 67.9 11.35" fill="#91776a" fill-rule="evenodd" stroke="none"/>
      <path d="M-12.2 -20.8 Q-12.55 -18.55 -18.4 -12.35 -24.15 -6.3 -31.85 0.1 -51.4 16.3 -58.0 14.6 -67.75 12.1 -76.95 7.8 -95.3 -0.8 -92.3 -9.75 -90.8 -14.45 -88.1 -14.85 -91.1 -16.8 -93.25 -20.1 -97.45 -26.65 -92.9 -33.3 -91.2 -35.85 -87.4 -37.6 -83.4 -39.5 -81.2 -38.3 -83.15 -40.25 -81.95 -42.5 -80.85 -44.45 -77.8 -45.9 -74.8 -47.35 -71.7 -47.5 -68.3 -47.65 -66.6 -46.05 -68.85 -48.65 -65.35 -50.6 -62.5 -52.2 -59.5 -52.15 -55.6 -52.05 -52.9 -50.4 -51.55 -49.6 -51.0 -48.8 L-50.25 -50.6 Q-48.8 -52.35 -45.2 -52.15 -41.05 -51.9 -38.9 -50.95 -37.35 -50.25 -35.2 -48.2 -28.6 -51.6 -19.7 -38.65 -16.25 -33.7 -14.05 -28.35 -11.85 -23.1 -12.2 -20.8" fill="#240e03" fill-rule="evenodd" stroke="none"/>
      <path d="M-14.95 -29.6 Q-12.65 -24.75 -13.0 -22.6 -13.3 -20.55 -18.9 -14.5 -24.4 -8.6 -31.75 -2.4 -50.4 13.45 -56.5 11.85 -66.2 9.8 -75.1 5.95 -92.8 -1.8 -88.45 -10.95 -87.3 -13.3 -85.95 -14.2 -84.9 -14.9 -84.05 -14.55 -87.05 -16.5 -89.35 -19.55 -94.2 -26.05 -90.0 -32.25 -88.2 -34.9 -85.15 -36.5 -81.5 -38.45 -79.1 -36.9 -80.95 -38.75 -79.9 -41.0 -78.9 -43.05 -76.1 -44.45 -73.25 -45.95 -70.3 -45.85 -66.95 -45.7 -65.0 -43.5 -66.75 -46.65 -63.95 -48.35 -62.1 -49.5 -59.0 -49.75 -55.75 -50.0 -53.1 -48.35 -51.75 -47.5 -51.1 -46.65 L-49.8 -48.2 Q-48.05 -49.75 -45.7 -49.75 -41.75 -49.75 -39.85 -48.85 -38.3 -48.15 -36.0 -45.6 -29.85 -50.45 -20.75 -38.9 -17.25 -34.5 -14.95 -29.6" fill="#772d0a" fill-rule="evenodd" stroke="none"/>
      <path d="M-75.7 -8.7 Q-79.95 -10.25 -81.6 -6.05 -82.7 -3.2 -82.5 1.95 -86.65 -0.85 -88.0 -3.5 -89.55 -6.6 -87.8 -10.25 -86.95 -12.05 -85.6 -13.1 -84.4 -14.1 -83.45 -14.0 L-78.9 -11.2 -75.7 -8.7" fill="#240e03" fill-rule="evenodd" stroke="none"/>
      <path d="M-85.1 -8.3 Q-86.65 -4.95 -86.15 -1.0 -90.9 -5.75 -88.45 -10.95 -87.55 -12.8 -86.45 -13.8 -85.45 -14.75 -84.5 -14.65 L-83.65 -14.3 -78.9 -11.2 -81.55 -11.9 Q-83.55 -11.7 -85.1 -8.3" fill="#dab39f" fill-rule="evenodd" stroke="none"/>
      <path d="M-53.1 -48.35 Q-51.75 -47.5 -51.1 -46.65 L-49.8 -48.2 Q-48.05 -49.75 -45.7 -49.75 -41.75 -49.75 -39.85 -48.85 -38.3 -48.15 -36.0 -45.6 -31.15 -49.45 -23.95 -42.5 -17.95 -36.65 -14.4 -28.35 -23.85 -38.35 -27.9 -37.6 -29.2 -37.4 -29.75 -36.15 L-30.1 -34.9 Q-33.3 -39.55 -36.1 -41.1 -38.35 -42.35 -41.8 -42.2 -44.9 -42.0 -44.65 -38.55 -44.5 -36.8 -43.75 -35.1 -46.45 -39.15 -48.15 -40.45 -50.9 -42.45 -54.65 -41.4 -58.75 -40.25 -57.4 -35.85 -56.7 -33.6 -55.2 -31.65 -59.9 -36.15 -61.95 -37.2 -65.0 -38.65 -68.5 -36.95 -71.7 -35.4 -70.35 -30.5 -69.65 -28.05 -68.3 -25.95 -69.35 -27.3 -73.45 -28.45 -78.35 -29.85 -80.6 -27.75 -83.6 -25.0 -84.8 -20.8 -85.6 -18.0 -85.4 -15.55 -89.2 -18.55 -90.85 -22.05 -93.35 -27.3 -90.0 -32.25 -88.2 -34.9 -85.15 -36.5 -81.5 -38.45 -79.1 -36.9 -80.95 -38.75 -79.9 -41.0 -78.9 -43.05 -76.1 -44.45 -73.25 -45.95 -70.3 -45.85 -66.95 -45.7 -65.0 -43.5 -66.75 -46.65 -63.95 -48.35 -62.1 -49.5 -59.0 -49.75 -55.75 -50.0 -53.1 -48.35" fill="#240e03" fill-rule="evenodd" stroke="none"/>
      <path d="M-52.9 -48.6 Q-51.5 -47.95 -50.75 -47.2 L-49.65 -48.45 Q-48.05 -49.75 -45.7 -49.75 L-39.3 -49.2 Q-36.95 -48.55 -34.9 -46.3 -31.1 -49.0 -25.55 -44.2 -20.9 -40.25 -16.65 -32.85 -26.05 -42.3 -29.95 -42.4 -31.15 -42.4 -31.7 -41.5 L-31.95 -40.6 Q-34.65 -43.5 -37.35 -44.65 -39.85 -45.7 -43.65 -45.8 -46.8 -45.85 -47.3 -43.75 -47.55 -42.65 -47.2 -41.6 -49.8 -44.15 -52.15 -45.15 -55.05 -46.35 -58.35 -45.6 -62.4 -44.7 -61.85 -41.4 -61.55 -39.75 -60.45 -38.25 -63.35 -41.6 -66.15 -42.25 -69.15 -42.95 -73.1 -40.8 -76.6 -38.9 -75.9 -35.45 -75.6 -33.7 -74.55 -32.35 -76.5 -34.1 -79.7 -34.0 -83.7 -33.85 -86.8 -30.3 -89.4 -27.35 -89.1 -23.45 L-87.7 -17.65 Q-90.7 -20.7 -91.55 -23.9 -92.75 -28.2 -90.0 -32.25 -88.2 -34.9 -85.15 -36.5 -81.5 -38.45 -79.1 -36.9 -80.95 -38.75 -79.9 -41.0 -78.9 -43.05 -76.1 -44.45 -73.25 -45.95 -70.3 -45.85 -66.95 -45.7 -65.0 -43.5 -66.75 -46.65 -63.95 -48.35 -62.1 -49.5 -59.0 -49.75 -55.75 -50.0 -52.9 -48.6" fill="#dab39f" fill-rule="evenodd" stroke="none"/>
      <path d="M-1.25 -38.45 Q3.4 -39.75 10.2 -38.75 L16.05 -37.55 Q28.9 -34.25 38.55 -25.25 47.55 -16.85 51.3 -5.95 59.15 6.95 51.35 17.05 46.95 27.9 34.45 32.7 5.65 43.85 -16.9 40.1 -38.35 36.55 -46.35 21.05 -55.5 3.35 -29.3 -19.35 -16.2 -30.65 -1.25 -38.45" fill="#240e03" fill-rule="evenodd" stroke="none"/>
      <path d="M-0.95 -35.45 Q3.35 -36.6 9.6 -35.7 L15.0 -34.6 Q27.55 -31.4 36.65 -22.4 45.2 -14.0 48.2 -3.35 51.25 7.45 47.4 16.3 43.25 25.95 32.0 30.3 5.35 40.55 -15.4 37.1 -35.25 33.8 -42.6 19.5 -51.05 3.15 -26.85 -17.8 -14.75 -28.25 -0.95 -35.45" fill="#772d0a" fill-rule="evenodd" stroke="none"/>
      <path d="M8.85 -15.65 Q10.25 -2.0 -4.75 18.95 L-0.3 21.8 Q5.3 24.95 11.15 26.5 29.95 31.55 44.5 18.95 49.25 14.85 49.25 1.7 50.45 11.1 46.35 18.5 41.85 26.5 32.0 30.3 5.35 40.55 -15.4 37.1 -35.25 33.8 -42.6 19.5 -50.3 4.6 -30.75 -14.2 -19.6 -25.0 -2.8 -34.45 7.9 -25.35 8.85 -15.65" fill="#511f05" fill-rule="evenodd" stroke="none"/>
      <path d="M2.85 6.8 Q2.5 4.05 3.4 1.1 5.1 -4.7 11.15 -5.5 17.75 -6.3 27.9 -3.55 39.45 -0.35 40.0 4.55 L40.65 6.5 Q41.25 8.9 41.3 11.25 41.5 18.7 35.7 22.7 33.9 23.45 30.65 23.6 24.25 23.95 17.35 21.0 L19.0 22.75 Q21.35 24.6 24.8 25.3 22.6 26.25 17.45 25.35 12.25 24.5 7.2 22.3 -5.8 16.75 -3.9 9.7 L-2.5 11.9 Q-0.75 14.25 1.2 14.85 L-0.3 10.2 Q-1.6 5.2 -0.5 3.25 L0.5 4.85 Q1.75 6.5 2.85 6.8" fill="#d04b0f" fill-rule="evenodd" stroke="none"/>
      <path d="M40.85 2.2 Q43.6 2.85 46.6 1.1 L49.0 -0.8 Q55.4 9.3 47.65 16.7 45.25 19.0 41.65 20.75 L38.6 22.05 Q44.0 17.25 42.95 9.25 42.65 6.75 41.7 4.25 L40.85 2.2" fill="#d04b0f" fill-rule="evenodd" stroke="none"/>
      <path d="M-11.05 14.6 L-8.75 18.25 Q-5.65 22.15 -1.55 23.45 L0.55 27.1 Q3.45 30.85 7.3 31.2 5.0 32.05 2.45 31.75 -2.55 31.05 -3.6 25.1 -5.65 24.3 -7.6 22.6 -11.5 19.2 -11.05 14.6" fill="#98390a" fill-rule="evenodd" stroke="none"/>
      <path d="M-11.85 15.9 L-11.65 19.7 Q-10.95 23.7 -8.4 24.75 -9.5 25.05 -10.75 24.75 -13.25 24.15 -13.9 21.15 -14.25 19.55 -13.1 17.55 L-11.85 15.9" fill="#7f2e09" fill-rule="evenodd" stroke="none"/>
      <path d="M11.05 -4.15 L11.55 -2.65 Q12.3 -0.85 13.55 0.65 17.55 5.4 25.15 5.0 L30.1 6.3 Q35.75 7.05 39.2 4.0 38.75 6.45 37.95 7.2 L38.45 7.55 39.9 7.35 38.5 9.0 Q36.1 10.8 31.4 11.75 24.55 13.05 17.25 10.55 8.65 7.6 8.8 1.25 L10.3 2.6 12.95 4.45 Q12.05 3.55 11.35 2.05 10.0 -1.0 11.05 -4.15" fill="#febf2e" fill-rule="evenodd" stroke="none"/>
      <path d="M3.85 2.45 L4.2 3.75 Q4.8 5.35 5.85 6.85 9.15 11.65 15.85 13.5 11.35 13.3 7.8 11.55 1.65 8.55 3.85 2.45" fill="#e2a119" fill-rule="evenodd" stroke="none"/>
      <path d="M18.55 14.05 L13.35 10.25 Q21.15 14.5 31.7 13.65 37.0 13.2 40.7 11.9 40.0 14.35 36.9 16.2 34.05 17.9 31.5 17.85 25.0 17.8 18.55 14.05" fill="#e2a119" fill-rule="evenodd" stroke="none"/>
      <path d="M49.05 0.0 Q49.05 1.65 47.8 2.75 48.9 2.75 49.95 1.95 L47.75 5.05 Q45.25 8.1 43.6 7.9 43.05 7.85 42.95 6.95 42.8 6.15 43.1 5.3 42.1 5.0 41.95 3.75 L44.75 3.15 Q47.75 2.1 49.05 0.0" fill="#febf2e" fill-rule="evenodd" stroke="none"/>
      <path d="M43.35 8.7 L45.9 8.05 Q48.5 7.1 49.0 5.65 L48.6 7.3 Q47.95 9.05 46.4 9.4 L44.95 9.5 Q44.3 9.35 43.35 8.7" fill="#e2a119" fill-rule="evenodd" stroke="none"/>
      <path d="M51.3 5.8 L51.35 7.25 Q51.15 8.5 50.15 9.4 49.2 10.3 47.7 10.35 L46.45 10.25 Q49.0 9.5 50.4 7.6 L51.3 5.8" fill="#e2a119" fill-rule="evenodd" stroke="none"/>
      <path d="M47.3 -29.65 Q47.0 -22.45 48.3 -15.95 49.65 -9.2 51.9 -7.75 53.65 -6.65 54.35 -3.85 55.05 -1.05 54.25 1.6 52.25 8.55 43.95 6.4 42.3 8.65 39.05 9.8 32.65 12.1 25.0 6.75 22.4 7.85 19.35 7.85 13.2 7.85 10.9 2.3 9.35 1.3 8.25 -1.6 6.1 -7.35 8.65 -16.65 11.05 -25.3 6.05 -30.25 3.15 -32.65 1.9 -33.95 -0.35 -36.1 -0.8 -38.55 -1.6 -42.85 -0.6 -48.3 0.5 -54.2 3.45 -59.1 10.9 -71.5 25.65 -70.95 44.7 -70.2 47.9 -53.35 48.9 -47.8 48.3 -39.85 L47.3 -29.65" fill="#240e03" fill-rule="evenodd" stroke="none"/>
      <path d="M45.6 -28.6 Q45.35 -22.2 46.95 -15.0 48.6 -7.75 50.65 -6.4 52.2 -5.4 52.7 -3.25 53.2 -1.1 52.35 0.85 50.1 5.95 42.6 4.0 41.1 6.0 38.2 7.05 32.4 9.15 25.45 4.35 23.1 5.35 20.35 5.35 14.8 5.35 12.7 0.3 11.25 -0.6 10.3 -3.25 8.35 -8.45 10.65 -16.85 12.8 -24.7 8.7 -29.15 L5.25 -32.45 Q3.35 -34.45 2.95 -36.65 0.95 -46.9 5.85 -56.8 12.1 -69.45 26.8 -68.6 44.0 -67.55 46.5 -51.15 47.35 -45.8 46.65 -38.15 L45.6 -28.6" fill="#bc1610" fill-rule="evenodd" stroke="none"/>
      <path d="M26.8 -68.6 Q30.9 -68.3 34.05 -67.25 23.25 -68.35 18.15 -65.35 14.5 -63.15 13.35 -58.2 L11.95 -51.05 Q10.7 -48.0 6.3 -48.95 4.7 -49.25 4.5 -51.2 4.35 -52.8 5.15 -55.3 7.85 -61.65 12.75 -65.05 18.5 -69.1 26.8 -68.6" fill="#fd2721" fill-rule="evenodd" stroke="none"/>
      <path d="M26.8 -68.6 Q44.0 -67.55 46.5 -51.15 47.35 -45.8 46.65 -38.15 L45.6 -28.6 Q45.45 -23.55 46.35 -18.25 L45.95 -18.2 43.85 -18.1 41.75 -18.2 37.55 -17.7 33.5 -17.9 29.45 -18.35 Q26.05 -18.7 22.75 -20.3 20.05 -21.55 16.7 -24.1 14.35 -25.85 12.8 -29.8 11.45 -33.15 11.2 -36.55 11.1 -38.1 11.45 -40.5 L12.15 -44.4 12.9 -48.25 13.6 -50.0 Q14.1 -51.05 14.0 -51.8 L13.4 -53.25 Q12.8 -54.2 12.7 -54.7 12.5 -55.85 13.0 -58.65 13.7 -62.25 16.6 -65.0 17.8 -66.15 19.65 -67.05 L23.1 -68.35 23.7 -68.6 26.8 -68.6" fill="#186fac" fill-rule="evenodd" stroke="none"/>
      <path d="M36.25 -25.6 L45.6 -26.05 Q45.7 -22.15 46.35 -18.25 L45.95 -18.2 43.85 -18.1 41.75 -18.2 37.55 -17.7 33.5 -17.9 29.45 -18.35 Q26.05 -18.7 22.75 -20.3 20.05 -21.55 16.7 -24.1 14.35 -25.85 12.8 -29.8 11.45 -33.15 11.2 -36.55 11.1 -38.1 11.45 -40.5 L12.15 -44.4 12.7 -47.3 13.95 -45.8 Q14.75 -44.85 14.7 -44.2 L13.4 -40.1 Q12.5 -37.5 13.15 -36.15 13.55 -35.45 14.45 -34.45 L15.85 -32.8 16.95 -30.85 18.05 -28.95 Q19.4 -27.0 21.55 -27.65 L25.5 -28.45 27.5 -27.8 29.5 -26.95 Q32.6 -25.75 36.25 -25.6" fill="#0d4062" fill-rule="evenodd" stroke="none"/>
      <path d="M46.2 -48.5 Q46.2 -46.8 45.45 -45.65 44.7 -44.45 43.6 -44.45 42.55 -44.45 41.8 -45.65 41.05 -46.8 41.05 -48.5 41.05 -50.2 41.8 -51.35 42.55 -52.55 43.6 -52.55 44.7 -52.55 45.45 -51.35 46.2 -50.2 46.2 -48.5" fill="#000000" fill-rule="evenodd" stroke="none"/>
      <path d="M43.65 -43.95 Q49.15 -42.45 52.25 -35.75 54.1 -31.85 55.75 -23.8 56.75 -19.2 54.1 -17.25 53.25 -16.65 50.45 -16.0 50.2 -15.95 48.4 -17.15 46.45 -18.5 44.15 -18.4 41.5 -18.3 36.0 -20.75 31.7 -22.65 27.8 -25.05 25.15 -26.7 25.55 -33.05 25.8 -37.3 27.1 -41.85 28.0 -44.9 35.9 -44.75 L43.65 -43.95" fill="#333303" fill-rule="evenodd" stroke="none"/>
      <path d="M26.15 -47.6 Q26.15 -45.4 25.15 -43.8 24.1 -42.2 22.7 -42.2 21.3 -42.2 20.25 -43.8 19.25 -45.4 19.25 -47.6 19.25 -49.85 20.25 -51.45 21.3 -53.05 22.7 -53.05 24.15 -53.05 25.15 -51.45 26.15 -49.85 26.15 -47.6" fill="#000000" fill-rule="evenodd" stroke="none"/>
      <path d="M30.95 -46.45 L36.55 -46.05 Q39.9 -46.2 41.3 -47.05 41.4 -44.9 40.2 -44.65 L35.75 -44.85 Q32.35 -45.05 30.95 -46.45" fill="#48a5e7" fill-rule="evenodd" stroke="none"/>
      <path d="M26.6 -67.6 Q30.55 -68.15 32.25 -67.15 38.8 -65.1 42.5 -59.7 45.75 -55.0 45.8 -52.3 L44.45 -52.25 Q42.8 -52.75 41.75 -51.15 41.1 -50.15 41.2 -47.9 L38.7 -47.25 36.05 -46.85 Q33.45 -46.7 29.7 -48.75 L28.9 -51.05 Q30.2 -50.35 32.5 -49.9 L36.1 -49.45 Q37.2 -49.4 38.55 -49.95 L40.85 -51.0 42.6 -52.4 44.1 -54.0 Q40.45 -50.65 35.2 -50.65 34.05 -50.65 31.95 -51.2 29.85 -51.8 28.85 -52.35 L28.1 -52.8 27.25 -54.0 22.85 -56.9 Q20.85 -57.9 20.5 -58.3 19.75 -59.0 19.8 -60.75 19.9 -64.0 21.55 -65.85 22.75 -67.1 26.6 -67.6" fill="#48a5e7" fill-rule="evenodd" stroke="none"/>
      <path d="M42.35 -0.7 Q40.75 -3.3 43.75 -8.25 44.9 -10.2 46.05 -10.95 47.25 -11.75 47.65 -10.5 48.4 -8.35 50.35 -6.0 L52.1 -4.05 Q48.05 -5.1 45.05 -2.35 L43.35 -0.7 Q42.7 -0.1 42.35 -0.7" fill="#fd2721" fill-rule="evenodd" stroke="none"/>
      <path d="M25.7 1.15 Q25.35 1.55 24.95 1.15 22.55 -1.25 19.3 -2.05 16.65 -2.7 14.55 -2.1 12.3 -1.4 12.15 -11.2 12.0 -20.95 13.7 -22.05 14.05 -22.3 14.85 -18.55 15.75 -14.25 17.9 -13.55 21.15 -12.45 22.75 -11.1 25.15 -9.1 25.55 -5.7 26.4 -7.85 29.7 -7.15 32.65 -6.55 39.3 -3.25 39.85 -3.0 40.3 -1.25 40.75 0.35 40.6 0.95 L34.9 -0.1 Q28.65 -1.25 25.7 1.15" fill="#fd2721" fill-rule="evenodd" stroke="none"/>
      <path d="M39.75 -62.45 L41.05 -61.25 42.5 -59.7 43.55 -57.6 Q43.95 -56.6 43.3 -55.95 42.15 -54.8 38.7 -54.35 35.45 -53.9 33.6 -54.45 33.15 -54.55 29.25 -56.9 25.75 -58.95 24.9 -58.7 L23.0 -58.65 Q22.0 -59.0 21.95 -60.1 L22.15 -61.25 22.45 -62.45 Q22.9 -64.6 23.3 -65.3 23.85 -66.2 25.1 -66.7 L27.4 -67.2 Q30.1 -67.7 31.8 -66.85 32.55 -66.45 34.25 -66.1 L36.65 -65.35 38.3 -63.95 39.75 -62.45" fill="#d0ecff" fill-rule="evenodd" stroke="none"/>
      <path d="M32.9 -51.45 L30.95 -52.15 29.95 -52.35 29.1 -52.85 32.45 -52.75 36.25 -52.35 Q38.35 -52.45 40.15 -53.25 L41.9 -54.4 43.6 -54.5 43.9 -54.1 Q43.6 -53.5 42.45 -52.9 L41.1 -52.35 39.05 -51.6 37.0 -51.05 32.9 -51.45" fill="#d0ecff" fill-rule="evenodd" stroke="none"/>
      <path d="M40.85 -48.6 Q41.35 -48.4 40.85 -48.0 38.75 -47.15 35.8 -47.25 L32.75 -47.6 Q30.35 -48.1 30.55 -48.9 L32.3 -48.5 34.65 -48.1 40.85 -48.6" fill="#d0ecff" fill-rule="evenodd" stroke="none"/>
      <path d="M27.7 -27.7 L31.85 -27.55 Q36.75 -26.05 44.7 -19.8 L43.9 -19.85 Q41.5 -19.75 36.5 -21.95 32.55 -23.7 29.1 -25.9 28.15 -26.5 27.7 -27.7" fill="#7d7f0f" fill-rule="evenodd" stroke="none"/>
      <path d="M33.0 -30.0 Q28.05 -31.95 27.6 -30.6 26.85 -33.05 27.3 -36.3 27.6 -38.2 28.5 -41.15 29.3 -43.9 36.5 -43.75 L43.5 -43.05 Q48.45 -41.7 51.3 -35.6 53.0 -32.0 54.45 -24.75 55.3 -20.5 53.0 -18.75 51.05 -17.2 50.05 -18.15 39.95 -27.25 33.0 -30.0" fill="#c3c91c" fill-rule="evenodd" stroke="none"/>
      <path d="M53.0 -21.55 Q49.2 -28.8 41.5 -33.85 L35.7 -37.35 Q32.6 -39.2 31.15 -40.75 29.8 -42.1 31.1 -43.2 L38.95 -43.6 43.5 -43.05 Q48.45 -41.7 51.3 -35.6 53.0 -32.0 54.45 -24.75 54.9 -22.55 54.4 -20.9 53.6 -20.3 53.0 -21.55" fill="#feff6c" fill-rule="evenodd" stroke="none"/>
      <path d="M27.8 -35.55 Q25.4 -35.6 24.35 -37.65 22.95 -40.3 26.2 -44.3 27.55 -45.95 32.3 -46.1 37.1 -46.25 38.9 -44.6 40.1 -43.5 43.8 -41.55 46.7 -39.4 45.7 -35.8 45.0 -33.5 41.15 -28.4 38.15 -24.5 39.05 -22.2 40.25 -19.15 39.4 -17.2 38.55 -15.3 36.05 -14.65 31.5 -13.5 30.55 -19.55 29.95 -23.5 30.9 -31.3 31.4 -35.45 27.8 -35.55" fill="#90110d" fill-rule="evenodd" stroke="none"/>
      <path d="M38.9 -44.6 Q39.85 -43.55 43.65 -41.6 46.7 -39.35 45.7 -35.8 45.0 -33.5 41.15 -28.4 38.15 -24.5 39.05 -22.2 39.35 -21.55 37.7 -19.75 36.0 -17.9 35.0 -18.45 33.95 -19.0 33.7 -19.95 L33.35 -21.95 Q32.75 -24.65 33.05 -26.25 L33.7 -28.4 34.2 -30.55 Q34.35 -32.05 33.5 -34.3 32.95 -36.95 32.4 -38.0 32.05 -38.75 30.95 -39.2 L29.15 -39.75 Q26.85 -40.5 26.6 -42.65 L26.3 -43.55 Q26.15 -44.2 26.7 -44.8 28.8 -46.9 32.8 -46.85 36.85 -46.8 38.9 -44.6" fill="#cb1812" fill-rule="evenodd" stroke="none"/>
      <path d="M38.85 -44.45 Q41.55 -42.9 41.3 -42.5 35.15 -46.15 33.4 -42.35 33.2 -41.9 33.8 -41.15 L34.85 -39.85 Q36.2 -37.8 35.3 -37.1 34.7 -36.65 34.15 -37.3 L33.4 -38.45 Q32.25 -40.05 31.4 -40.35 L29.85 -40.45 Q28.8 -40.45 28.4 -40.85 28.1 -41.1 27.9 -42.1 27.65 -43.1 27.75 -43.5 27.85 -44.25 29.5 -45.1 30.85 -45.8 34.6 -46.0 36.05 -46.0 38.85 -44.45" fill="#fd2721" fill-rule="evenodd" stroke="none"/>
      <path d="M34.0 -23.45 Q34.0 -25.3 34.6 -26.7 35.05 -27.75 35.35 -29.95 L35.75 -31.5 35.55 -32.15 35.45 -32.8 Q35.7 -34.35 38.15 -33.9 38.95 -33.8 40.05 -33.15 L41.8 -32.25 Q42.5 -31.9 41.55 -30.8 L40.05 -29.35 Q37.3 -26.6 37.1 -25.45 L37.2 -22.0 Q37.05 -19.45 35.2 -20.5 34.05 -21.15 34.0 -23.45" fill="#fd2721" fill-rule="evenodd" stroke="none"/>
      <path d="M19.4 -67.85 L19.8 -67.8 Q19.4 -67.15 18.55 -66.8 L17.0 -66.1 15.6 -65.3 Q14.9 -64.75 14.75 -64.05 14.55 -63.15 13.85 -62.2 L12.6 -60.05 Q12.1 -58.55 10.85 -59.55 9.6 -60.6 10.2 -61.75 11.55 -64.3 15.6 -66.35 L19.4 -67.85" fill="#fe8280" fill-rule="evenodd" stroke="none"/>
      <path d="M25.1 -47.6 Q25.1 -46.9 24.75 -46.4 24.45 -45.9 23.95 -45.9 23.45 -45.9 23.1 -46.4 22.75 -46.9 22.75 -47.6 22.75 -48.3 23.1 -48.85 23.45 -49.35 23.95 -49.35 24.45 -49.35 24.75 -48.85 L25.1 -47.6" fill="#ffffff" fill-rule="evenodd" stroke="none"/>
      <path d="M45.85 -48.15 L45.6 -47.25 Q45.35 -46.9 45.0 -46.9 44.15 -46.9 44.15 -48.15 L44.4 -49.0 Q44.65 -49.4 45.0 -49.4 45.35 -49.4 45.6 -49.0 L45.85 -48.15" fill="#ffffff" fill-rule="evenodd" stroke="none"/>
      <path d="M-13.95 44.7 Q-15.3 40.65 -14.75 36.7 -13.6 28.9 -3.8 29.6 6.45 30.35 10.4 37.0 11.85 39.45 12.0 42.0 12.15 44.3 11.3 45.25 9.85 47.6 5.95 48.65 -1.8 50.85 -13.95 44.7" fill="#240e03" fill-rule="evenodd" stroke="none"/>
      <path d="M-11.85 43.65 Q-13.05 40.2 -12.55 36.85 -11.55 30.15 -3.15 30.75 5.6 31.4 9.0 37.1 10.2 39.15 10.35 41.35 10.5 43.3 9.75 44.15 8.5 46.15 5.2 47.05 -1.45 48.95 -11.85 43.65" fill="#f4ba19" fill-rule="evenodd" stroke="none"/>
      <path d="M2.5 36.1 L3.4 36.35 Q4.5 36.8 5.3 37.75 7.95 40.7 7.15 47.45 L4.7 47.65 Q4.95 45.3 4.8 42.7 4.45 37.5 2.5 36.1" fill="#0f0e0b" fill-rule="evenodd" stroke="none"/>
      <path d="M68.85 -4.25 Q71.0 4.15 70.25 15.55 69.6 25.85 67.05 33.05 65.4 37.8 55.05 36.65 36.35 34.5 27.4 24.9 25.35 22.7 22.4 18.15 20.3 14.9 18.9 14.45 16.3 13.55 6.5 13.1 -3.1 12.6 -7.1 11.15 -12.95 9.05 -16.25 2.75 -19.15 -2.65 -19.6 -10.05 -20.0 -16.75 -18.35 -22.35 -16.65 -28.05 -13.8 -29.35 2.65 -36.95 18.45 -38.55 31.15 -39.8 38.55 -37.1 49.75 -33.0 56.55 -26.45 65.3 -18.1 68.85 -4.25" fill="#240e03" fill-rule="evenodd" stroke="none"/>
      <path d="M37.3 -33.8 Q47.35 -30.1 53.45 -24.25 61.25 -16.75 64.45 -4.4 66.15 2.25 64.7 16.3 63.95 23.3 62.85 29.0 60.75 27.85 58.6 25.05 L56.85 22.45 Q58.4 24.85 57.05 28.25 55.8 31.35 54.55 31.2 37.8 29.3 29.45 20.6 27.55 18.6 24.7 14.5 22.7 11.55 21.5 11.15 19.2 10.35 9.35 9.65 -0.25 8.95 -3.85 7.65 -14.05 3.95 -14.85 -10.45 -15.15 -16.15 -13.65 -20.9 -12.1 -25.65 -9.55 -26.85 5.2 -33.65 19.3 -35.1 30.65 -36.25 37.3 -33.8" fill="#511f05" fill-rule="evenodd" stroke="none"/>
      <path d="M11.0 9.75 Q16.1 6.95 25.25 6.6 27.85 6.45 41.7 6.85 51.55 7.1 56.35 5.95 63.1 4.25 65.1 -0.85 65.9 6.3 64.45 18.35 63.75 24.4 62.85 29.0 60.75 27.85 58.6 25.05 L56.85 22.45 Q58.4 24.85 57.05 28.25 55.8 31.35 54.55 31.2 37.8 29.3 29.45 20.6 27.55 18.6 24.7 14.5 22.7 11.55 21.5 11.15 19.1 10.3 11.0 9.75" fill="#240e03" fill-rule="evenodd" stroke="none"/>
      <path d="M55.55 16.35 L60.45 18.15 62.6 18.2 64.7 16.25 Q63.95 23.25 62.85 29.0 60.75 27.85 58.6 25.05 L56.85 22.45 Q58.4 24.85 57.05 28.25 55.8 31.35 54.55 31.2 43.8 30.0 36.6 26.05 31.35 23.15 27.6 18.5 35.1 20.35 43.85 19.95 53.45 19.5 55.55 16.35" fill="#dab39f" fill-rule="evenodd" stroke="none"/>
      <path d="M-5.35 -25.15 L2.85 -29.05 Q12.85 -33.05 22.1 -33.7 51.65 -35.75 62.1 -3.2 60.05 1.3 51.15 3.0 33.45 6.3 -0.5 -7.95 -7.65 -10.95 -8.25 -17.55 -8.45 -20.1 -7.55 -22.3 -6.7 -24.45 -5.35 -25.15" fill="#772d0a" fill-rule="evenodd" stroke="none"/>
    </g>
  </defs>
</svg>
