<svg width="32" height="32" viewBox="0 0 32 32" fill="none" xmlns="http://www.w3.org/2000/svg">
<path d="M26 0H6C2.68629 0 0 2.68629 0 6V26C0 29.3137 2.68629 32 6 32H26C29.3137 32 32 29.3137 32 26V6C32 2.68629 29.3137 0 26 0Z" fill="url(#paint0_linear_178_162)"/>
<path d="M9.73828 14.0654H7.75781V22.1396L6.74219 22.0508L6.50098 22.1523L6.25977 22.1396V19.3975L6.23438 19.2832L6.28516 19.1943L6.1709 18.0391L6.12012 17.9756L6.25977 17.6709V14.0654H4.29199V12.4531H9.71289V12.7451L9.6748 12.8721L9.73828 12.999V14.0654Z" fill="white"/>
<path d="M15.0449 21.9873L14.5371 21.9619L14.334 22L14.2197 21.9238L13.7119 22H10.4619V21.416L10.3604 20.9717V12.4785L10.2461 12.4277H14.6768L14.9561 12.5293V13.9131L14.7402 13.8115H12.252L11.7188 13.8369L11.6299 13.9258V14.8271L11.7061 15.3223V16.2236L11.8076 16.3125H13.1025L13.9531 16.2236L13.9785 16.7822L13.9277 16.833L13.9912 17.7598H11.6299L11.7949 18.5977V19.6641L11.7568 20.083L11.8076 20.6416H15.0449V21.9873Z" fill="white"/>
<path d="M20.6182 21.8984L20.5547 21.9492H20.2754L19.5898 21.8477L19.4121 21.873L19.1455 21.5938L19.1709 21.0986L19.0693 21.0352V20.9209L19.1328 20.8574L18.8916 20.4893L18.9551 20.2861L18.5488 20.4004L18.2188 20.3623L17.2539 20.4131L17.127 20.2354L16.9873 20.6162L16.7715 21.4541L16.7207 21.9111L15.4385 21.7969L15.9336 17.709L16.5049 14.6748L16.6318 14.2686V13.7227L16.7207 13.6211V13.2402L16.8604 12.999L16.9365 12.4023L18.7393 12.4785L18.79 12.9736L18.8916 13.3037L19.0312 13.5703L19.0947 13.6211V14.1543L19.2471 14.4209L19.2217 14.7002L19.3105 14.6875L19.5898 16.0332L19.7041 16.1855L19.8691 17.1885L20.0342 17.8105L19.9961 17.9121L20.2627 18.8896L20.3389 19.3594L20.3643 19.8164L20.4912 20.0576V20.1211L20.4277 20.2227L20.4785 20.375L20.5547 21.2002L20.6182 21.8984ZM18.0664 14.8271H17.9141L17.5713 17.9121H17.6855V17.9883L17.4824 18.4453L17.3682 18.8643L17.6348 18.8135L18.6758 18.7373L18.0664 14.8271Z" fill="white"/>
<path d="M26.4961 18.166L26.458 18.2168V18.6992L26.4072 18.9531L26.4961 19.0547V19.207L26.4453 19.1943L26.4072 19.4863L26.4707 19.5371L26.3818 20.2354V21.0225L26.293 21.1494V21.9365L26.2168 22.1143H25.2139L24.998 22.0381L24.8584 21.9365V18.3691L24.96 16.8076L24.668 17.7471L24.5664 18.3438L24.376 18.9023L24.3125 19.5625L24.0967 19.6641L23.9062 19.6133L23.7285 18.877L22.8906 16.5791L22.9922 18.6484V20.7305L22.8652 21.9111L22.8145 22.0381H21.71L21.4688 21.2891V12.9609L21.6719 12.4658L21.7734 12.3896L22.6748 12.3516L23.7285 14.7002L23.9443 15.4873V15.3857L24.0459 15.1445L24.3887 13.5322L24.5283 13.3926L24.8838 12.3896H26.1406L26.3945 14.5479H26.4326V14.6113L26.3691 14.6748L26.458 14.9414V16.2109L26.5342 16.3506L26.4453 16.5791L26.4961 18.166Z" fill="white"/>
<defs>
<linearGradient id="paint0_linear_178_162" x1="0" y1="0" x2="16" y2="32" gradientUnits="userSpaceOnUse">
<stop stop-color="#10F5F0"/>
<stop offset="1" stop-color="#75B7FF"/>
</linearGradient>
</defs>
</svg>
