<?xml version="1.0" encoding="UTF-8" standalone="no"?>
<svg xmlns:ffdec="https://www.free-decompiler.com/flash" xmlns:xlink="http://www.w3.org/1999/xlink" ffdec:objectType="frame" height="86.95px" width="84.15px" xmlns="http://www.w3.org/2000/svg">
  <g transform="matrix(1.0, 0.0, 0.0, 1.0, 44.05, 44.65)">
    <use ffdec:characterId="435" height="61.25" transform="matrix(1.0, 0.0, 0.0, 1.0, -39.85, -44.65)" width="71.2" xlink:href="#shape0"/>
  </g>
  <defs>
    <g id="shape0" transform="matrix(1.0, 0.0, 0.0, 1.0, 39.85, 44.65)">
      <path d="M24.15 -43.85 Q27.15 -40.45 22.1 -32.35 L14.6 -19.3 Q9.7 -10.95 7.55 -9.9 5.7 -8.95 4.35 -8.8 L3.35 -8.85 Q14.6 -33.95 17.55 -40.05 19.15 -43.3 21.15 -44.25 22.95 -45.2 24.15 -43.85" fill="#a4e7f5" fill-rule="evenodd" stroke="none"/>
      <path d="M-11.1 -3.35 Q-16.5 -2.35 -19.45 -4.05 L-29.0 -11.75 Q-38.45 -20.1 -38.0 -23.1 -36.25 -34.85 -29.25 -27.95 L-17.55 -14.9 Q-9.95 -6.2 -8.2 -5.45 -5.65 -4.35 -11.1 -3.35" fill="#a4e7f5" fill-rule="evenodd" stroke="none"/>
      <path d="M-19.65 -6.1 Q-23.55 -9.15 -27.45 -12.7 -35.15 -19.75 -34.8 -22.0 -33.45 -30.85 -28.2 -25.65 L-18.8 -15.05 Q-12.5 -7.7 -11.2 -7.15 -9.25 -6.3 -13.4 -5.55 -17.45 -4.8 -19.65 -6.1" fill="#d8f0f5" fill-rule="evenodd" stroke="none"/>
      <path d="M-30.55 -43.5 Q-28.35 -44.35 -25.8 -42.9 -23.2 -41.35 -22.5 -38.7 -21.3 -34.2 -11.45 -20.15 L-1.85 -7.05 Q-3.45 -6.4 -7.15 -6.45 -10.25 -6.45 -19.5 -14.05 -29.2 -22.05 -31.3 -27.5 -36.55 -41.2 -30.55 -43.5" fill="#a4e7f5" fill-rule="evenodd" stroke="none"/>
      <path d="M-27.25 -37.4 Q-25.6 -38.0 -23.75 -36.95 -21.85 -35.85 -21.35 -33.9 -20.45 -30.6 -12.7 -19.55 L-5.1 -9.15 -8.95 -8.7 Q-11.2 -8.7 -18.55 -15.1 -26.25 -21.75 -27.75 -25.7 -31.6 -35.7 -27.25 -37.4" fill="#d8f0f5" fill-rule="evenodd" stroke="none"/>
      <path d="M-1.8 -10.85 Q0.55 -12.3 3.5 -9.1 6.05 -6.4 8.25 -1.25 10.3 3.5 10.8 7.35 11.35 11.4 9.65 11.45 6.6 11.5 3.2 12.5 L-2.0 14.4 Q-3.85 15.1 -6.1 14.05 L-8.0 12.85 -12.15 12.65 Q-14.35 13.0 -16.2 14.4 -17.9 15.7 -19.2 15.0 L-20.2 14.05 Q-23.6 13.8 -26.55 15.1 -28.9 16.4 -29.3 16.4 -29.85 16.4 -30.65 15.8 L-31.4 15.2 Q-35.0 15.75 -37.8 12.9 L-39.85 9.9 Q-39.9 8.3 -36.95 7.05 -35.5 6.4 -34.0 6.1 -34.15 5.7 -33.4 4.8 -32.55 3.75 -31.6 4.1 -30.15 4.65 -23.75 2.25 -23.8 1.25 -23.0 0.1 -22.1 -1.25 -20.9 -1.0 -19.15 -0.7 -13.85 -2.6 -13.95 -3.55 -13.0 -4.6 -12.0 -5.8 -10.4 -6.1 -8.1 -6.5 -1.8 -10.85" fill="#0f3038" fill-rule="evenodd" stroke="none"/>
      <path d="M-3.0 -8.65 Q1.2 -11.1 5.95 -0.5 7.75 3.55 8.2 6.8 8.7 10.25 7.2 10.3 4.5 10.35 1.45 11.2 L-3.2 12.8 Q-4.85 13.45 -6.4 12.45 L-7.6 11.35 Q-12.6 10.45 -15.8 12.8 -17.3 13.9 -18.5 13.3 L-19.4 12.5 Q-22.4 12.3 -25.75 13.4 L-29.0 14.55 Q-29.45 14.55 -30.15 13.95 L-30.75 13.35 Q-33.95 13.8 -36.25 11.6 L-37.9 9.3 Q-37.95 7.95 -35.5 7.05 -34.25 6.6 -33.0 6.45 -33.15 6.05 -32.7 5.4 -32.2 4.65 -31.35 4.95 -30.1 5.45 -22.5 2.45 -22.55 1.5 -22.2 0.85 -21.75 -0.1 -20.7 0.1 -19.15 0.35 -12.85 -2.0 -13.1 -4.2 -10.65 -4.6 -8.6 -5.0 -3.0 -8.65" fill="#0e7da2" fill-rule="evenodd" stroke="none"/>
      <path d="M-9.75 6.9 L-8.9 7.7 Q-7.7 8.65 -6.0 9.05 -0.5 10.4 8.15 6.35 8.85 10.3 7.2 10.3 4.5 10.35 1.45 11.2 L-3.2 12.8 Q-4.85 13.45 -6.4 12.45 L-7.6 11.35 Q-12.6 10.45 -15.8 12.8 -17.3 13.9 -18.5 13.3 L-19.4 12.5 Q-22.4 12.3 -25.75 13.4 L-29.0 14.55 Q-29.45 14.55 -30.15 13.95 L-30.75 13.35 Q-33.85 13.8 -36.1 11.75 -32.0 12.65 -30.95 11.65 L-28.45 12.3 Q-25.05 12.3 -20.3 9.1 L-16.45 10.2 Q-12.15 10.6 -9.75 6.9" fill="#06526b" fill-rule="evenodd" stroke="none"/>
      <path d="M-10.65 -4.6 Q-8.6 -5.0 -3.0 -8.65 -1.5 -9.5 0.25 -8.4 -8.7 -4.0 -10.2 0.8 -11.2 4.0 -8.65 8.65 -11.2 5.0 -12.15 1.2 -13.05 -2.25 -12.25 -3.95 -11.55 -4.45 -10.65 -4.6" fill="#1baddf" fill-rule="evenodd" stroke="none"/>
      <path d="M-19.45 10.4 Q-23.5 5.05 -21.5 0.15 L-20.7 0.1 -17.1 -0.55 -13.55 -1.75 Q-14.0 -0.65 -15.95 0.95 -18.0 2.5 -19.6 3.0 -21.35 3.5 -20.55 7.0 -20.2 8.75 -19.45 10.4" fill="#1baddf" fill-rule="evenodd" stroke="none"/>
      <path d="M-30.65 12.15 Q-33.25 8.1 -32.3 5.0 L-31.35 4.95 Q-30.05 5.4 -23.55 2.85 -24.15 4.1 -26.85 5.75 -28.65 6.85 -30.65 7.7 -31.9 8.2 -31.4 10.25 L-30.65 12.15" fill="#1baddf" fill-rule="evenodd" stroke="none"/>
      <path d="M-33.1 10.35 Q-34.0 8.15 -35.5 8.6 L-37.9 9.1 Q-37.75 7.8 -35.6 7.05 L-33.45 6.55 Q-33.7 8.6 -33.1 10.35" fill="#1baddf" fill-rule="evenodd" stroke="none"/>
      <path d="M12.35 -14.65 Q22.1 -14.2 27.55 -8.9 35.45 -1.3 23.4 11.8 17.75 17.9 8.6 16.25 -1.55 14.4 -6.85 3.2 -11.85 -7.25 -2.95 -11.9 3.25 -15.15 12.35 -14.65" fill="#0f3038" fill-rule="evenodd" stroke="none"/>
      <path d="M12.65 -13.75 Q21.6 -13.25 26.6 -8.4 33.85 -1.4 22.8 10.6 17.65 16.2 9.2 14.65 -0.15 12.95 -5.05 2.65 -9.6 -6.95 -1.45 -11.2 4.25 -14.15 12.65 -13.75" fill="#2e95ab" fill-rule="evenodd" stroke="none"/>
      <path d="M25.95 -6.35 Q25.55 -4.55 22.9 -3.8 20.2 -3.05 16.8 -3.75 13.45 -4.45 11.3 -6.25 9.2 -8.05 9.55 -9.85 9.9 -11.7 12.6 -12.45 15.25 -13.2 18.65 -12.5 22.05 -11.8 24.2 -10.0 26.35 -8.2 25.95 -6.35" fill="#83d4e6" fill-rule="evenodd" stroke="none"/>
      <path d="M9.35 9.85 Q9.1 9.0 9.7 8.2 10.95 6.55 15.3 6.65 L20.15 7.05 Q20.85 7.2 21.05 7.8 21.15 8.25 20.4 8.65 L19.85 8.2 15.3 7.9 Q11.75 8.0 10.7 8.45 10.05 8.7 9.35 9.85" fill="#0f3038" fill-rule="evenodd" stroke="none"/>
      <path d="M2.7 -3.75 L7.8 -1.95 12.05 -0.85 Q12.5 -0.9 12.4 0.1 12.3 1.1 11.65 2.2 9.75 5.25 5.9 4.8 1.55 4.25 0.2 -0.4 -0.3 -2.25 0.3 -3.25 1.0 -4.35 2.7 -3.75" fill="#000000" fill-rule="evenodd" stroke="none"/>
      <path d="M23.9 4.3 Q20.6 4.7 19.0 2.1 18.45 1.2 18.35 0.3 18.25 -0.55 18.65 -0.5 19.5 -0.4 26.6 -2.95 28.05 -3.5 28.65 -2.55 29.15 -1.65 28.7 -0.1 27.55 3.85 23.9 4.3" fill="#000000" fill-rule="evenodd" stroke="none"/>
      <path d="M9.6 1.0 Q9.6 1.7 9.15 2.25 8.75 2.75 8.1 2.75 7.45 2.75 7.0 2.25 6.55 1.7 6.55 1.0 6.55 0.3 7.0 -0.25 7.45 -0.75 8.1 -0.75 8.75 -0.75 9.15 -0.25 9.6 0.3 9.6 1.0" fill="#ffffff" fill-rule="evenodd" stroke="none"/>
      <path d="M28.3 -0.4 L28.05 0.5 27.35 0.9 Q26.95 0.9 26.65 0.5 26.35 0.15 26.35 -0.4 26.35 -0.95 26.65 -1.35 26.95 -1.7 27.35 -1.7 L28.05 -1.35 28.3 -0.4" fill="#ffffff" fill-rule="evenodd" stroke="none"/>
      <path d="M7.35 -11.55 Q6.8 -10.8 5.45 -10.95 L4.2 -11.25 Q3.15 -15.55 -1.1 -21.7 L-5.1 -27.0 Q-1.8 -24.95 3.1 -18.05 L7.35 -11.55" fill="#0f3038" fill-rule="evenodd" stroke="none"/>
      <path d="M18.5 -11.55 L23.0 -17.15 Q28.15 -23.1 31.35 -24.75 L27.2 -20.2 Q22.75 -14.9 21.4 -10.95 L20.25 -10.8 Q18.95 -10.8 18.5 -11.55" fill="#0f3038" fill-rule="evenodd" stroke="none"/>
    </g>
  </defs>
</svg>
