<?xml version="1.0" encoding="UTF-8" standalone="no"?>
<svg xmlns:ffdec="https://www.free-decompiler.com/flash" xmlns:xlink="http://www.w3.org/1999/xlink" ffdec:objectType="frame" height="86.95px" width="84.15px" xmlns="http://www.w3.org/2000/svg">
  <g transform="matrix(1.0, 0.0, 0.0, 1.0, 44.05, 44.65)">
    <use ffdec:characterId="436" height="51.95" transform="matrix(1.0, 0.0, 0.0, 1.0, -40.5, -34.65)" width="72.2" xlink:href="#shape0"/>
  </g>
  <defs>
    <g id="shape0" transform="matrix(1.0, 0.0, 0.0, 1.0, 40.5, 34.65)">
      <path d="M22.8 -33.5 Q25.05 -29.5 18.35 -22.5 L10.1 -14.05 Q5.55 -9.75 3.05 -9.1 L-0.4 -8.7 -1.35 -8.9 15.5 -31.1 Q17.75 -34.0 19.9 -34.55 21.9 -35.05 22.8 -33.5" fill="#a8dbeb" fill-rule="evenodd" stroke="none"/>
      <path d="M-19.7 -1.9 Q-23.75 -3.2 -27.85 -5.15 -36.05 -9.0 -36.2 -12.05 -36.55 -24.15 -28.35 -18.5 L-17.05 -10.35 Q-10.75 -5.8 -8.75 -5.35 -6.0 -4.7 -11.3 -2.7 -16.5 -0.7 -19.7 -1.9" fill="#a8dbeb" fill-rule="evenodd" stroke="none"/>
      <path d="M-20.35 -3.9 Q-23.4 -4.9 -26.5 -6.35 -32.7 -9.25 -32.75 -11.55 -33.1 -20.7 -26.85 -16.4 L-18.3 -10.25 Q-13.55 -6.85 -12.05 -6.5 -9.95 -6.05 -13.95 -4.5 -17.9 -3.0 -20.35 -3.9" fill="#d8edf3" fill-rule="evenodd" stroke="none"/>
      <path d="M-32.5 -33.8 Q-30.45 -35.05 -27.6 -34.05 -24.75 -33.0 -23.55 -30.45 -21.5 -26.2 -11.95 -16.7 L-2.75 -8.1 Q-4.2 -7.15 -7.9 -6.5 -11.3 -5.9 -18.8 -9.15 -27.3 -12.75 -30.3 -17.65 -38.05 -30.4 -32.5 -33.8" fill="#a8dbeb" fill-rule="evenodd" stroke="none"/>
      <path d="M-6.35 -9.55 Q-7.4 -8.9 -10.1 -8.4 -12.6 -8.0 -18.05 -10.35 -24.25 -13.0 -26.45 -16.55 -32.1 -25.8 -28.05 -28.3 L-24.5 -28.5 Q-22.4 -27.75 -21.55 -25.9 -20.05 -22.8 -13.05 -15.85 L-6.35 -9.55" fill="#d8edf3" fill-rule="evenodd" stroke="none"/>
      <path d="M3.45 -8.8 Q6.0 -6.0 8.25 -0.8 10.3 4.05 10.85 7.95 11.4 12.05 9.7 12.1 6.6 12.15 3.15 13.15 L-2.15 15.05 Q-4.05 15.8 -6.35 14.75 L-8.25 13.5 -12.4 13.3 Q-14.65 13.6 -16.55 15.05 -18.25 16.35 -19.6 15.65 L-20.6 14.7 Q-24.05 14.45 -27.0 15.75 -29.4 17.1 -29.85 17.1 -30.4 17.1 -31.2 16.5 L-31.95 15.9 Q-35.65 16.45 -38.45 13.5 L-40.5 10.5 Q-40.55 8.9 -37.6 7.6 -36.1 6.95 -34.6 6.65 -34.75 6.25 -33.95 5.3 -33.1 4.25 -32.15 4.6 -30.7 5.15 -24.2 2.75 -24.25 1.7 -23.45 0.55 -22.5 -0.8 -21.3 -0.55 -19.5 -0.25 -14.15 -2.2 -14.25 -3.15 -13.3 -4.2 -12.25 -5.4 -10.65 -5.7 -8.35 -6.15 -1.95 -10.55 0.45 -12.0 3.45 -8.8" fill="#0f3038" fill-rule="evenodd" stroke="none"/>
      <path d="M5.9 -0.05 Q7.75 4.05 8.2 7.35 8.7 10.85 7.2 10.9 2.95 11.0 -3.35 13.45 -5.05 14.1 -6.6 13.1 L-7.85 12.0 -12.0 11.85 Q-14.45 12.2 -16.15 13.45 -17.7 14.55 -18.85 13.95 L-19.75 13.15 Q-22.85 12.95 -26.25 14.05 -29.1 15.2 -29.5 15.2 -29.95 15.2 -30.7 14.6 L-31.3 14.0 Q-34.55 14.45 -36.85 12.25 L-38.55 9.9 Q-38.6 8.5 -36.1 7.6 L-33.55 7.0 Q-33.7 6.6 -33.25 5.95 -32.8 5.2 -31.95 5.5 -30.6 5.95 -22.95 2.95 -23.0 2.0 -22.65 1.3 -22.15 0.35 -21.1 0.55 -19.5 0.85 -13.15 -1.55 -13.4 -3.75 -10.9 -4.2 -8.85 -4.6 -3.15 -8.3 1.1 -10.75 5.9 -0.05" fill="#107ca1" fill-rule="evenodd" stroke="none"/>
      <path d="M8.15 6.9 Q8.85 10.9 7.2 10.9 2.95 11.0 -3.35 13.45 -5.05 14.1 -6.6 13.1 L-7.85 12.0 -12.0 11.85 Q-14.45 12.2 -16.15 13.45 -17.7 14.55 -18.85 13.95 L-19.75 13.15 Q-22.85 12.95 -26.25 14.05 -29.1 15.2 -29.5 15.2 -29.95 15.2 -30.7 14.6 L-31.3 14.0 Q-34.5 14.45 -36.7 12.35 -32.55 13.25 -31.5 12.25 L-29.0 12.9 Q-25.5 12.9 -20.7 9.7 L-16.8 10.85 Q-12.45 11.2 -10.0 7.45 L-9.15 8.3 Q-7.95 9.2 -6.2 9.65 -0.65 11.0 8.15 6.9" fill="#07536b" fill-rule="evenodd" stroke="none"/>
      <path d="M-8.85 9.25 Q-11.45 5.5 -12.45 1.7 -13.35 -1.8 -12.55 -3.5 -11.9 -4.05 -10.9 -4.2 -8.85 -4.6 -3.15 -8.3 -1.7 -9.2 0.15 -8.05 -8.95 -3.65 -10.45 1.25 -11.45 4.5 -8.85 9.25" fill="#18acdd" fill-rule="evenodd" stroke="none"/>
      <path d="M-19.85 11.0 Q-22.3 7.75 -22.5 4.45 -22.65 2.35 -21.9 0.6 L-21.1 0.55 Q-19.85 0.8 -13.85 -1.3 -14.3 -0.2 -16.3 1.4 -18.35 3.05 -20.0 3.5 -21.8 4.05 -21.0 7.55 L-19.85 11.0" fill="#18acdd" fill-rule="evenodd" stroke="none"/>
      <path d="M-31.2 12.8 Q-33.8 8.65 -32.85 5.55 L-31.95 5.5 Q-30.65 5.95 -24.0 3.35 -24.6 4.65 -27.35 6.3 -29.45 7.55 -31.2 8.25 -32.45 8.8 -31.95 10.85 L-31.2 12.8" fill="#18acdd" fill-rule="evenodd" stroke="none"/>
      <path d="M-33.6 10.95 Q-34.55 8.75 -36.15 9.2 L-38.55 9.65 Q-38.4 8.35 -36.2 7.6 L-34.05 7.1 Q-34.3 9.2 -33.6 10.95" fill="#18acdd" fill-rule="evenodd" stroke="none"/>
      <path d="M8.6 16.95 Q-1.7 15.05 -7.1 3.7 -12.1 -6.9 -3.1 -11.55 3.1 -14.8 12.4 -14.4 22.3 -13.85 27.85 -8.55 35.8 -0.85 23.6 12.45 17.9 18.65 8.6 16.95" fill="#0f3038" fill-rule="evenodd" stroke="none"/>
      <path d="M9.2 15.3 Q-0.25 13.6 -5.2 3.15 -9.85 -6.6 -1.55 -10.9 4.15 -13.85 12.7 -13.45 21.75 -12.95 26.85 -8.05 34.2 -1.0 23.0 11.2 17.75 16.9 9.2 15.3" fill="#2d94aa" fill-rule="evenodd" stroke="none"/>
      <path d="M26.2 -6.0 Q25.8 -4.15 23.05 -3.4 20.35 -2.6 16.9 -3.35 13.5 -4.05 11.35 -5.9 9.2 -7.7 9.55 -9.55 9.95 -11.4 12.7 -12.15 15.4 -12.95 18.8 -12.2 22.25 -11.5 24.4 -9.65 26.6 -7.85 26.2 -6.0" fill="#86cee1" fill-rule="evenodd" stroke="none"/>
      <path d="M9.75 8.8 Q11.0 7.15 15.35 7.25 L20.3 7.6 Q21.0 7.75 21.2 8.35 21.35 8.85 20.55 9.25 20.6 9.05 20.0 8.8 L15.4 8.45 10.75 9.0 Q10.05 9.3 9.35 10.45 L9.75 8.8" fill="#0f3038" fill-rule="evenodd" stroke="none"/>
      <path d="M2.65 -3.35 Q10.9 -0.3 12.1 -0.4 12.55 -0.45 12.45 0.55 12.35 1.6 11.7 2.7 9.8 5.8 5.85 5.3 1.45 4.8 0.1 0.05 -0.4 -1.8 0.2 -2.85 0.9 -3.95 2.65 -3.35" fill="#000000" fill-rule="evenodd" stroke="none"/>
      <path d="M26.85 -2.55 Q28.35 -3.1 28.9 -2.1 29.45 -1.25 29.0 0.35 27.85 4.4 24.1 4.85 20.75 5.25 19.15 2.6 18.55 1.65 18.5 0.8 18.4 -0.05 18.8 -0.05 19.9 0.05 26.85 -2.55" fill="#000000" fill-rule="evenodd" stroke="none"/>
      <path d="M9.65 1.5 Q9.65 2.2 9.2 2.75 8.75 3.25 8.1 3.25 7.45 3.25 7.0 2.75 6.55 2.2 6.55 1.5 6.55 0.75 7.0 0.25 7.45 -0.3 8.1 -0.3 8.75 -0.3 9.2 0.25 9.65 0.75 9.65 1.5" fill="#ffffff" fill-rule="evenodd" stroke="none"/>
      <path d="M28.6 0.05 L28.3 1.0 Q28.0 1.35 27.6 1.35 27.2 1.35 26.9 1.0 26.6 0.6 26.6 0.05 26.6 -0.5 26.9 -0.9 27.2 -1.25 27.6 -1.25 28.0 -1.25 28.3 -0.9 L28.6 0.05" fill="#ffffff" fill-rule="evenodd" stroke="none"/>
      <path d="M7.35 -11.25 Q6.75 -10.5 5.35 -10.65 L4.1 -10.95 Q3.05 -15.3 -1.2 -21.55 L-5.25 -26.9 Q-1.95 -24.8 3.05 -17.8 L7.35 -11.25" fill="#0f3038" fill-rule="evenodd" stroke="none"/>
      <path d="M18.65 -11.25 L23.2 -16.95 Q28.4 -23.0 31.7 -24.65 29.7 -22.75 27.45 -20.05 22.95 -14.6 21.6 -10.65 L20.4 -10.5 Q19.1 -10.45 18.65 -11.25" fill="#0f3038" fill-rule="evenodd" stroke="none"/>
    </g>
  </defs>
</svg>
