<?xml version="1.0" encoding="UTF-8" standalone="no"?>
<svg xmlns:ffdec="https://www.free-decompiler.com/flash" xmlns:xlink="http://www.w3.org/1999/xlink" ffdec:objectType="frame" height="86.95px" width="84.15px" xmlns="http://www.w3.org/2000/svg">
  <g transform="matrix(1.0, 0.0, 0.0, 1.0, 44.05, 44.65)">
    <use ffdec:characterId="437" height="43.55" transform="matrix(1.0, 0.0, 0.0, 1.0, -44.05, -26.65)" width="78.6" xlink:href="#shape0"/>
  </g>
  <defs>
    <g id="shape0" transform="matrix(1.0, 0.0, 0.0, 1.0, 44.05, 26.65)">
      <path d="M30.95 -13.6 Q25.7 -11.15 19.65 -8.75 11.7 -5.55 8.9 -5.1 L4.95 -4.75 3.8 -4.75 13.3 -9.7 25.5 -16.25 Q29.8 -18.8 33.45 -17.6 34.9 -17.15 34.45 -16.15 33.95 -15.0 30.95 -13.6" fill="#a4e7f5" fill-rule="evenodd" stroke="none"/>
      <path d="M-20.0 -3.55 L-32.3 -6.8 Q-44.5 -10.2 -44.05 -11.25 -42.4 -15.4 -34.65 -12.6 -11.25 -4.15 -7.85 -3.6 -5.05 -3.1 -10.95 -2.95 L-20.0 -3.55" fill="#a4e7f5" fill-rule="evenodd" stroke="none"/>
      <path d="M-20.3 -4.3 L-30.65 -7.05 Q-40.9 -9.95 -40.55 -10.75 -39.3 -13.85 -33.45 -11.75 -14.35 -4.9 -11.1 -4.3 -9.0 -3.9 -13.45 -3.85 L-20.3 -4.3" fill="#d8f0f5" fill-rule="evenodd" stroke="none"/>
      <path d="M-39.65 -14.0 Q-42.95 -16.8 -42.5 -18.3 -42.1 -19.6 -39.2 -19.75 L-33.7 -19.15 Q-30.7 -18.4 -29.8 -17.4 -28.3 -15.7 -14.7 -9.7 L-1.45 -4.1 -7.5 -4.25 Q-11.3 -4.5 -23.8 -8.1 -37.15 -11.9 -39.65 -14.0" fill="#a4e7f5" fill-rule="evenodd" stroke="none"/>
      <path d="M-5.2 -5.1 L-9.6 -5.2 Q-12.4 -5.45 -22.7 -8.4 -33.7 -11.55 -35.55 -13.1 -40.2 -17.0 -35.25 -17.3 L-31.2 -16.9 Q-29.0 -16.35 -28.35 -15.6 -27.25 -14.3 -16.1 -9.6 L-5.2 -5.1" fill="#d8f0f5" fill-rule="evenodd" stroke="none"/>
      <path d="M3.95 -8.75 Q6.45 -6.05 8.65 -0.9 10.7 3.85 11.25 7.7 11.8 11.75 10.1 11.8 7.05 11.85 3.65 12.85 L-1.6 14.7 Q-3.45 15.45 -5.7 14.4 L-7.6 13.2 Q-12.55 12.2 -15.8 14.7 -17.45 16.0 -18.8 15.3 L-19.8 14.4 Q-23.2 14.15 -26.1 15.4 -28.45 16.75 -28.9 16.75 -29.4 16.75 -30.25 16.15 L-31.0 15.55 Q-34.6 16.1 -37.4 13.2 L-39.45 10.25 Q-39.5 8.65 -36.55 7.4 -35.05 6.75 -33.55 6.45 -33.7 6.05 -32.95 5.1 -32.15 4.05 -31.2 4.4 -29.75 4.95 -23.3 2.55 -23.4 1.6 -22.6 0.4 -21.7 -0.9 -20.5 -0.7 -18.7 -0.35 -13.45 -2.3 -13.55 -3.2 -12.6 -4.25 -11.55 -5.45 -10.0 -5.75 -7.7 -6.2 -1.4 -10.5 1.0 -11.95 3.95 -8.75" fill="#0f3038" fill-rule="evenodd" stroke="none"/>
      <path d="M6.35 -0.2 Q8.2 3.9 8.65 7.15 9.15 10.6 7.65 10.65 3.55 10.75 -2.8 13.1 -4.45 13.75 -6.0 12.8 L-7.2 11.7 Q-12.25 10.8 -15.4 13.1 -16.9 14.2 -18.05 13.65 L-18.95 12.85 Q-22.0 12.65 -25.35 13.7 L-28.55 14.85 Q-29.0 14.85 -29.7 14.25 L-30.3 13.65 Q-33.5 14.1 -35.85 11.9 L-37.5 9.6 Q-37.55 8.25 -35.05 7.35 L-32.55 6.75 Q-32.7 6.4 -32.25 5.75 -31.8 5.0 -30.95 5.3 -29.65 5.75 -22.1 2.8 -22.15 1.85 -21.8 1.15 -21.3 0.25 -20.25 0.4 -18.7 0.7 -12.45 -1.65 -12.7 -3.8 -10.25 -4.3 -8.2 -4.65 -2.6 -8.35 1.65 -10.8 6.35 -0.2" fill="#0e7da2" fill-rule="evenodd" stroke="none"/>
      <path d="M8.55 6.7 Q9.25 10.6 7.65 10.65 3.55 10.75 -2.8 13.1 -4.45 13.75 -6.0 12.8 L-7.2 11.7 Q-12.25 10.8 -15.4 13.1 -16.9 14.2 -18.05 13.65 L-18.95 12.85 Q-22.0 12.65 -25.35 13.7 L-28.55 14.85 Q-29.0 14.85 -29.7 14.25 L-30.3 13.65 Q-33.4 14.15 -35.7 12.05 -31.6 12.95 -30.55 11.95 L-28.05 12.6 Q-24.65 12.6 -19.9 9.45 L-16.05 10.55 Q-11.75 10.9 -9.35 7.2 L-8.5 8.0 Q-7.3 8.95 -5.6 9.35 -0.1 10.7 8.55 6.7" fill="#06526b" fill-rule="evenodd" stroke="none"/>
      <path d="M-8.2 9.0 Q-10.75 5.3 -11.75 1.55 -12.6 -1.9 -11.85 -3.6 -11.2 -4.1 -10.25 -4.3 -8.2 -4.65 -2.6 -8.35 -1.15 -9.15 0.65 -8.1 -8.35 -3.7 -9.8 1.1 -10.75 4.35 -8.2 9.0" fill="#1baddf" fill-rule="evenodd" stroke="none"/>
      <path d="M-19.05 10.7 Q-21.45 7.5 -21.7 4.25 -21.85 2.2 -21.1 0.45 L-20.25 0.4 Q-18.9 0.65 -13.15 -1.4 -13.55 -0.3 -15.55 1.25 -17.55 2.8 -19.15 3.3 -20.95 3.85 -20.15 7.3 -19.8 9.05 -19.05 10.7" fill="#1baddf" fill-rule="evenodd" stroke="none"/>
      <path d="M-30.25 12.5 Q-31.55 10.45 -31.95 8.45 -32.25 6.7 -31.9 5.35 L-30.95 5.3 Q-30.0 5.65 -23.15 3.2 -23.7 4.45 -26.45 6.1 -28.4 7.3 -30.2 8.0 -31.5 8.55 -31.0 10.55 L-30.25 12.5" fill="#1baddf" fill-rule="evenodd" stroke="none"/>
      <path d="M-32.6 10.7 Q-33.55 8.5 -35.1 8.95 L-37.5 9.4 Q-37.35 8.15 -35.2 7.4 L-33.05 6.9 Q-33.3 8.9 -32.6 10.7" fill="#1baddf" fill-rule="evenodd" stroke="none"/>
      <path d="M23.8 12.15 Q18.2 18.25 9.05 16.55 -1.15 14.7 -6.45 3.55 -11.4 -6.9 -2.55 -11.55 3.65 -14.8 12.8 -14.3 22.5 -13.8 28.0 -8.55 35.85 -0.95 23.8 12.15" fill="#0f3038" fill-rule="evenodd" stroke="none"/>
      <path d="M23.2 10.9 Q18.05 16.55 9.6 15.0 0.3 13.3 -4.6 3.0 -9.15 -6.6 -1.0 -10.85 4.65 -13.8 13.05 -13.4 22.0 -12.9 27.05 -8.1 34.3 -1.1 23.2 10.9" fill="#2e95ab" fill-rule="evenodd" stroke="none"/>
      <path d="M26.35 -6.05 Q26.0 -4.25 23.3 -3.45 20.6 -2.7 17.2 -3.4 13.8 -4.15 11.7 -5.95 9.6 -7.7 9.95 -9.55 10.35 -11.35 13.05 -12.1 15.7 -12.9 19.1 -12.15 22.45 -11.45 24.6 -9.65 26.75 -7.85 26.35 -6.05" fill="#83d4e6" fill-rule="evenodd" stroke="none"/>
      <path d="M9.75 10.2 L10.1 8.55 Q11.35 6.9 15.7 7.0 L20.55 7.35 Q21.3 7.55 21.45 8.1 21.6 8.55 20.85 9.0 L20.25 8.55 15.7 8.2 Q12.15 8.3 11.1 8.75 10.45 9.0 9.75 10.2" fill="#0f3038" fill-rule="evenodd" stroke="none"/>
      <path d="M6.3 5.1 Q2.0 4.6 0.65 -0.05 0.15 -1.9 0.75 -2.95 1.45 -4.05 3.15 -3.45 11.3 -0.45 12.45 -0.55 12.9 -0.6 12.8 0.4 12.7 1.45 12.05 2.5 10.2 5.6 6.3 5.1" fill="#000000" fill-rule="evenodd" stroke="none"/>
      <path d="M27.0 -2.65 Q28.5 -3.15 29.05 -2.2 29.55 -1.35 29.1 0.25 27.95 4.2 24.3 4.65 21.0 5.05 19.4 2.45 18.85 1.5 18.75 0.65 18.65 -0.2 19.05 -0.15 19.8 -0.05 27.0 -2.65" fill="#000000" fill-rule="evenodd" stroke="none"/>
      <path d="M10.05 1.35 Q10.05 2.05 9.6 2.6 9.15 3.1 8.5 3.1 7.85 3.1 7.45 2.6 7.0 2.05 7.0 1.35 7.0 0.6 7.45 0.1 7.85 -0.4 8.5 -0.4 9.15 -0.4 9.6 0.1 10.05 0.6 10.05 1.35" fill="#ffffff" fill-rule="evenodd" stroke="none"/>
      <path d="M28.75 -0.1 L28.45 0.85 Q28.15 1.2 27.75 1.2 27.35 1.2 27.05 0.85 26.75 0.45 26.75 -0.1 26.75 -0.65 27.05 -1.0 27.35 -1.4 27.75 -1.4 28.15 -1.4 28.45 -1.0 L28.75 -0.1" fill="#ffffff" fill-rule="evenodd" stroke="none"/>
      <path d="M7.75 -11.25 Q7.2 -10.5 5.85 -10.6 L4.6 -10.9 Q3.55 -15.2 -0.65 -21.35 L-4.65 -26.65 Q-1.35 -24.6 3.5 -17.7 L7.75 -11.25" fill="#0f3038" fill-rule="evenodd" stroke="none"/>
      <path d="M18.9 -11.2 L23.4 -16.85 Q28.6 -22.8 31.8 -24.45 L27.6 -19.9 Q23.15 -14.55 21.8 -10.65 L20.65 -10.45 Q19.35 -10.45 18.9 -11.2" fill="#0f3038" fill-rule="evenodd" stroke="none"/>
    </g>
  </defs>
</svg>
