<?xml version="1.0" encoding="UTF-8" standalone="no"?>
<svg xmlns:ffdec="https://www.free-decompiler.com/flash" xmlns:xlink="http://www.w3.org/1999/xlink" ffdec:objectType="frame" height="86.95px" width="84.15px" xmlns="http://www.w3.org/2000/svg">
  <g transform="matrix(1.0, 0.0, 0.0, 1.0, 44.05, 44.65)">
    <use ffdec:characterId="438" height="69.5" transform="matrix(1.0, 0.0, 0.0, 1.0, -39.85, -27.2)" width="79.95" xlink:href="#shape0"/>
  </g>
  <defs>
    <g id="shape0" transform="matrix(1.0, 0.0, 0.0, 1.0, 39.85, 27.2)">
      <path d="M-1.8 -11.05 Q0.55 -12.5 3.5 -9.3 6.05 -6.6 8.25 -1.45 10.3 3.3 10.8 7.15 11.35 11.2 9.65 11.25 6.6 11.3 3.2 12.3 L-2.0 14.2 Q-3.85 14.9 -6.1 13.85 L-8.0 12.65 -12.15 12.45 Q-14.35 12.8 -16.2 14.2 -17.9 15.5 -19.2 14.8 L-20.2 13.85 Q-23.6 13.6 -26.55 14.9 -28.9 16.2 -29.3 16.2 -29.85 16.2 -30.65 15.6 L-31.4 15.0 Q-35.0 15.55 -37.8 12.7 L-39.85 9.7 Q-39.9 8.1 -36.95 6.85 -35.5 6.2 -34.0 5.9 -34.15 5.5 -33.4 4.6 -32.55 3.55 -31.6 3.9 -30.15 4.45 -23.75 2.05 -23.8 1.05 -23.0 -0.1 -22.1 -1.45 -20.9 -1.2 -19.15 -0.9 -13.85 -2.8 -13.95 -3.75 -13.0 -4.8 -12.0 -6.0 -10.4 -6.3 -8.1 -6.7 -1.8 -11.05" fill="#0f3038" fill-rule="evenodd" stroke="none"/>
      <path d="M-3.0 -8.85 Q1.2 -11.3 5.95 -0.7 7.75 3.35 8.2 6.6 8.7 10.05 7.2 10.1 4.5 10.15 1.45 11.0 L-3.2 12.6 Q-4.85 13.25 -6.4 12.25 L-7.6 11.15 Q-12.6 10.25 -15.8 12.6 -17.3 13.7 -18.5 13.1 L-19.4 12.3 Q-22.4 12.1 -25.75 13.2 L-29.0 14.35 Q-29.45 14.35 -30.15 13.75 L-30.75 13.15 Q-33.95 13.6 -36.25 11.4 L-37.9 9.1 Q-37.95 7.75 -35.5 6.85 -34.25 6.4 -33.0 6.25 -33.15 5.85 -32.7 5.2 -32.2 4.45 -31.35 4.75 -30.1 5.25 -22.5 2.25 -22.6 1.35 -22.2 0.65 -21.75 -0.3 -20.7 -0.1 -19.15 0.15 -12.85 -2.2 -13.1 -4.4 -10.65 -4.8 -8.65 -5.2 -3.0 -8.85" fill="#0e7da2" fill-rule="evenodd" stroke="none"/>
      <path d="M8.15 6.15 Q8.85 10.1 7.2 10.1 4.5 10.15 1.45 11.0 L-3.2 12.6 Q-4.85 13.25 -6.4 12.25 L-7.6 11.15 Q-12.6 10.25 -15.8 12.6 -17.3 13.7 -18.5 13.1 L-19.4 12.3 Q-22.4 12.1 -25.75 13.2 L-29.0 14.35 Q-29.45 14.35 -30.15 13.75 L-30.75 13.15 Q-33.85 13.6 -36.1 11.55 -32.0 12.45 -30.95 11.45 L-28.45 12.1 Q-25.05 12.1 -20.3 8.9 L-16.45 10.0 Q-12.15 10.4 -9.75 6.7 L-8.9 7.5 Q-7.7 8.45 -6.0 8.85 -0.5 10.2 8.15 6.15" fill="#06526b" fill-rule="evenodd" stroke="none"/>
      <path d="M-3.0 -8.85 Q-1.5 -9.7 0.25 -8.6 -8.7 -4.2 -10.2 0.6 -11.2 3.8 -8.65 8.45 -11.2 4.8 -12.15 1.0 -13.05 -2.45 -12.25 -4.15 -11.55 -4.65 -10.65 -4.8 -8.65 -5.2 -3.0 -8.85" fill="#1baddf" fill-rule="evenodd" stroke="none"/>
      <path d="M-19.45 10.2 Q-23.5 4.85 -21.5 -0.05 L-20.7 -0.1 Q-19.8 0.05 -17.1 -0.75 L-13.55 -1.95 Q-14.0 -0.85 -15.95 0.75 -18.0 2.3 -19.6 2.8 -21.35 3.3 -20.55 6.8 -20.2 8.55 -19.45 10.2" fill="#1baddf" fill-rule="evenodd" stroke="none"/>
      <path d="M-30.65 11.95 Q-33.25 7.9 -32.3 4.8 L-31.35 4.75 Q-30.05 5.2 -23.55 2.65 -24.15 3.9 -26.85 5.55 -28.65 6.65 -30.65 7.5 -31.9 8.0 -31.4 10.05 L-30.65 11.95" fill="#1baddf" fill-rule="evenodd" stroke="none"/>
      <path d="M-33.05 10.15 Q-34.0 7.95 -35.55 8.4 L-37.9 8.9 Q-37.75 7.6 -35.6 6.85 L-33.45 6.35 Q-33.7 8.4 -33.05 10.15" fill="#1baddf" fill-rule="evenodd" stroke="none"/>
      <path d="M-3.55 -7.3 L-2.75 -7.85 0.8 -8.4 Q3.4 -8.35 13.75 -1.65 L29.8 8.95 Q40.1 15.35 40.1 20.8 40.1 22.95 37.9 22.9 35.5 22.85 31.75 20.1 L11.45 4.45 -3.55 -7.3" fill="#a4e7f5" fill-rule="evenodd" stroke="none"/>
      <path d="M-24.4 1.9 Q-22.9 -1.4 -17.8 -3.7 -12.7 -6.0 -14.25 -3.5 -15.3 -1.8 -16.85 10.5 -18.9 26.15 -19.5 29.2 -21.55 39.65 -29.45 30.0 -31.45 27.6 -28.1 14.5 L-24.4 1.9" fill="#a4e7f5" fill-rule="evenodd" stroke="none"/>
      <path d="M-23.45 3.85 Q-22.35 1.35 -18.5 -0.35 -14.65 -2.1 -15.8 -0.2 -16.55 1.05 -17.8 11.4 -19.3 23.85 -19.85 26.5 -21.4 34.35 -27.35 27.15 -28.9 25.3 -26.3 14.4 L-23.45 3.85" fill="#d8f0f5" fill-rule="evenodd" stroke="none"/>
      <path d="M-8.5 -7.65 L-9.3 9.9 Q-9.75 28.35 -8.3 33.1 -7.45 35.9 -8.75 38.8 -10.1 41.65 -12.45 42.2 -18.7 43.65 -21.85 28.2 -23.05 22.1 -19.35 9.1 -15.85 -3.2 -13.25 -5.05 -10.15 -7.3 -8.5 -7.65" fill="#a4e7f5" fill-rule="evenodd" stroke="none"/>
      <path d="M-10.05 -3.85 L-10.65 10.05 Q-11.05 24.65 -10.0 28.1 -9.35 30.15 -10.35 32.25 -11.3 34.3 -13.0 34.7 -17.6 35.8 -19.85 24.5 -20.75 20.0 -18.0 9.5 -15.35 -0.6 -13.5 -1.95 -11.25 -3.6 -10.05 -3.85" fill="#d8f0f5" fill-rule="evenodd" stroke="none"/>
      <path d="M12.35 -14.85 Q22.05 -14.35 27.55 -9.1 35.45 -1.5 23.4 11.6 17.75 17.7 8.6 16.05 -1.55 14.2 -6.85 3.0 -11.85 -7.45 -2.95 -12.1 3.25 -15.35 12.35 -14.85" fill="#0f3038" fill-rule="evenodd" stroke="none"/>
      <path d="M12.65 -13.95 Q21.6 -13.45 26.6 -8.6 33.85 -1.6 22.8 10.4 17.65 16.0 9.2 14.45 -0.15 12.75 -5.05 2.45 -9.6 -7.15 -1.45 -11.4 4.25 -14.35 12.65 -13.95" fill="#2e95ab" fill-rule="evenodd" stroke="none"/>
      <path d="M25.95 -6.55 Q25.55 -4.75 22.9 -4.0 20.2 -3.25 16.8 -3.95 13.45 -4.65 11.3 -6.45 9.2 -8.25 9.55 -10.05 9.9 -11.9 12.6 -12.65 15.25 -13.4 18.65 -12.7 22.05 -12.0 24.2 -10.2 26.35 -8.4 25.95 -6.55" fill="#83d4e6" fill-rule="evenodd" stroke="none"/>
      <path d="M9.7 8.0 Q10.95 6.35 15.25 6.45 L20.15 6.85 Q20.85 7.0 21.05 7.6 21.15 8.05 20.4 8.45 L19.85 8.0 15.3 7.7 Q11.75 7.8 10.7 8.25 10.05 8.5 9.35 9.65 L9.7 8.0" fill="#0f3038" fill-rule="evenodd" stroke="none"/>
      <path d="M2.7 -3.95 L7.8 -2.15 12.05 -1.05 Q12.5 -1.1 12.4 -0.1 12.3 0.9 11.65 2.0 9.75 5.05 5.9 4.6 1.55 4.05 0.2 -0.6 -0.3 -2.45 0.3 -3.45 1.0 -4.55 2.7 -3.95" fill="#000000" fill-rule="evenodd" stroke="none"/>
      <path d="M26.6 -3.15 Q28.05 -3.7 28.65 -2.75 29.15 -1.85 28.7 -0.3 27.55 3.65 23.9 4.1 20.6 4.5 19.0 1.9 18.45 1.0 18.35 0.1 18.25 -0.75 18.65 -0.7 19.5 -0.6 26.6 -3.15" fill="#000000" fill-rule="evenodd" stroke="none"/>
      <path d="M9.6 0.8 Q9.6 1.5 9.15 2.05 8.75 2.55 8.1 2.55 7.45 2.55 7.0 2.05 6.55 1.5 6.55 0.8 6.55 0.1 7.0 -0.45 7.45 -0.95 8.1 -0.95 8.75 -0.95 9.15 -0.45 9.6 0.1 9.6 0.8" fill="#ffffff" fill-rule="evenodd" stroke="none"/>
      <path d="M28.3 -0.6 L28.05 0.3 27.35 0.7 Q26.95 0.7 26.65 0.3 26.35 -0.05 26.35 -0.6 26.35 -1.15 26.65 -1.55 26.95 -1.9 27.35 -1.9 L28.05 -1.55 28.3 -0.6" fill="#ffffff" fill-rule="evenodd" stroke="none"/>
      <path d="M7.35 -11.75 Q6.8 -11.0 5.45 -11.15 L4.2 -11.45 Q3.15 -15.75 -1.1 -21.9 L-5.1 -27.2 Q-1.8 -25.15 3.1 -18.25 L7.35 -11.75" fill="#0f3038" fill-rule="evenodd" stroke="none"/>
      <path d="M18.5 -11.75 L23.0 -17.35 Q28.15 -23.3 31.35 -24.95 L27.2 -20.4 Q22.75 -15.1 21.4 -11.15 L20.25 -11.0 Q18.95 -11.0 18.5 -11.75" fill="#0f3038" fill-rule="evenodd" stroke="none"/>
    </g>
  </defs>
</svg>
